<?xml version="1.0" encoding="UTF-8" standalone="no"?>
<!DOCTYPE svg PUBLIC "-//W3C//DTD SVG 1.1//EN"
 "http://www.w3.org/Graphics/SVG/1.1/DTD/svg11.dtd">
<!-- Generated by graphviz version 2.40.1 (20161225.0304)
 -->
<!-- Title: drake/multibody/benchmarks/kuka_iiwa_robot/MG/MG_kuka_iiwa_robot.h Pages: 1 -->
<!--zoomable 262 -->
<svg id="main" version="1.1" xmlns="http://www.w3.org/2000/svg" xmlns:xlink="http://www.w3.org/1999/xlink" xml:space="preserve" onload="init(evt)">
<style type="text/css"><![CDATA[
.edge:hover path { stroke: red; }
.edge:hover polygon { stroke: red; fill: red; }
]]></style>
<script type="text/javascript"><![CDATA[
var edges = document.getElementsByTagName('g');
if (edges && edges.length) {
  for (var i=0;i<edges.length;i++) {
    if (edges[i].id.substr(0,4)=='edge') {
      edges[i].setAttribute('class','edge');
    }
  }
}
]]></script>
        <defs>
                <circle id="rim" cx="0" cy="0" r="7"/>
                <circle id="rim2" cx="0" cy="0" r="3.5"/>
                <g id="zoomPlus">
                        <use xlink:href="#rim" fill="#404040">
                                <set attributeName="fill" to="#808080" begin="zoomplus.mouseover" end="zoomplus.mouseout"/>
                        </use>
                        <path d="M-4,0h8M0,-4v8" fill="none" stroke="white" stroke-width="1.5" pointer-events="none"/>
                </g>
                <g id="zoomMin">
                        <use xlink:href="#rim" fill="#404040">
                                <set attributeName="fill" to="#808080" begin="zoomminus.mouseover" end="zoomminus.mouseout"/>
                        </use>
                        <path d="M-4,0h8" fill="none" stroke="white" stroke-width="1.5" pointer-events="none"/>
                </g>
                <g id="dirArrow">
                        <path fill="none" stroke="white" stroke-width="1.5" d="M0,-3.0v7 M-2.5,-0.5L0,-3.0L2.5,-0.5"/>
                </g>
               <g id="resetDef">
                       <use xlink:href="#rim2" fill="#404040">
                               <set attributeName="fill" to="#808080" begin="reset.mouseover" end="reset.mouseout"/>
                       </use>
               </g>
        </defs>

<script type="text/javascript">
var viewWidth = 850;
var viewHeight = 262;
var sectionId = 'dynsection-0';
</script>
<script xlink:href="svgpan.js"/>
<svg id="graph" class="graph">
<g id="viewport">
<title>drake/multibody/benchmarks/kuka_iiwa_robot/MG/MG_kuka_iiwa_robot.h</title>
<polygon fill="#ffffff" stroke="transparent" points="-4,4 -4,-258 846.2046,-258 846.2046,4 -4,4"/>
<!-- Node0 -->
<g id="node1" class="node">
<title>Node0</title>
<polygon fill="#bfbfbf" stroke="#000000" points="187.2046,-212.5 187.2046,-253.5 354.2046,-253.5 354.2046,-212.5 187.2046,-212.5"/>
<text text-anchor="start" x="195.2046" y="-241.5" font-family="Helvetica,sans-Serif" font-size="10.00" fill="#000000">drake/multibody/benchmarks</text>
<text text-anchor="start" x="195.2046" y="-230.5" font-family="Helvetica,sans-Serif" font-size="10.00" fill="#000000">/kuka_iiwa_robot/MG/MG_kuka</text>
<text text-anchor="middle" x="270.7046" y="-219.5" font-family="Helvetica,sans-Serif" font-size="10.00" fill="#000000">_iiwa_robot.h</text>
</g>
<!-- Node1 -->
<g id="node2" class="node">
<title>Node1</title>
<polygon fill="#ffffff" stroke="#bfbfbf" points="51.2046,-73 51.2046,-92 98.2046,-92 98.2046,-73 51.2046,-73"/>
<text text-anchor="middle" x="74.7046" y="-80" font-family="Helvetica,sans-Serif" font-size="10.00" fill="#000000">cmath</text>
</g>
<!-- Node0&#45;&gt;Node1 -->
<g id="edge1" class="edge">
<title>Node0&#45;&gt;Node1</title>
<path fill="none" stroke="#191970" d="M187.1285,-226.1433C118.8246,-218.6002 30.0315,-203.6841 7.7046,-176 -4.0137,-161.4699 -.5444,-150.7451 7.7046,-134 15.5227,-118.1298 30.8413,-105.7839 44.8597,-97.1633"/>
<polygon fill="#191970" stroke="#191970" points="46.8613,-100.0501 53.7922,-92.0368 43.3769,-93.9789 46.8613,-100.0501"/>
</g>
<!-- Node2 -->
<g id="node3" class="node">
<title>Node2</title>
<polygon fill="#ffffff" stroke="#bfbfbf" points="17.2046,-145.5 17.2046,-164.5 58.2046,-164.5 58.2046,-145.5 17.2046,-145.5"/>
<text text-anchor="middle" x="37.7046" y="-152.5" font-family="Helvetica,sans-Serif" font-size="10.00" fill="#000000">tuple</text>
</g>
<!-- Node0&#45;&gt;Node2 -->
<g id="edge2" class="edge">
<title>Node0&#45;&gt;Node2</title>
<path fill="none" stroke="#191970" d="M186.8864,-216.66C149.0432,-207.5154 104.4599,-194.2194 66.7046,-176 63.4715,-174.4398 60.2214,-172.5149 57.1263,-170.4692"/>
<polygon fill="#191970" stroke="#191970" points="59.1176,-167.5901 48.9574,-164.5864 55.0269,-173.2704 59.1176,-167.5901"/>
</g>
<!-- Node3 -->
<g id="node4" class="node">
<title>Node3</title>
<g id="a_node4"><a xlink:href="drake__copyable_8h.html" target="_top" xlink:title="Provides careful macros to selectively enable or disable the special member functions for copy&#45;constr...">
<polygon fill="#ffffff" stroke="#000000" points="210.2046,-.5 210.2046,-30.5 331.2046,-30.5 331.2046,-.5 210.2046,-.5"/>
<text text-anchor="start" x="218.2046" y="-18.5" font-family="Helvetica,sans-Serif" font-size="10.00" fill="#000000">drake/common/drake</text>
<text text-anchor="middle" x="270.7046" y="-7.5" font-family="Helvetica,sans-Serif" font-size="10.00" fill="#000000">_copyable.h</text>
</a>
</g>
</g>
<!-- Node0&#45;&gt;Node3 -->
<g id="edge3" class="edge">
<title>Node0&#45;&gt;Node3</title>
<path fill="none" stroke="#191970" d="M270.7046,-212.1452C270.7046,-172.0427 270.7046,-84.3118 270.7046,-40.8861"/>
<polygon fill="#191970" stroke="#191970" points="274.2047,-40.6134 270.7046,-30.6134 267.2047,-40.6135 274.2047,-40.6134"/>
</g>
<!-- Node4 -->
<g id="node5" class="node">
<title>Node4</title>
<g id="a_node5"><a xlink:href="eigen__types_8h.html" target="_top" xlink:title="This file contains abbreviated definitions for certain specializations of Eigen::Matrix that are comm...">
<polygon fill="#ffffff" stroke="#000000" points="327.7046,-67.5 327.7046,-97.5 447.7046,-97.5 447.7046,-67.5 327.7046,-67.5"/>
<text text-anchor="start" x="335.7046" y="-85.5" font-family="Helvetica,sans-Serif" font-size="10.00" fill="#000000">drake/common/eigen</text>
<text text-anchor="middle" x="387.7046" y="-74.5" font-family="Helvetica,sans-Serif" font-size="10.00" fill="#000000">_types.h</text>
</a>
</g>
</g>
<!-- Node0&#45;&gt;Node4 -->
<g id="edge4" class="edge">
<title>Node0&#45;&gt;Node4</title>
<path fill="none" stroke="#191970" d="M280.0106,-212.3761C290.0393,-191.4049 307.3317,-158.5869 327.7046,-134 336.6891,-123.1571 348.107,-112.7349 358.5655,-104.1372"/>
<polygon fill="#191970" stroke="#191970" points="361.0493,-106.633 366.6826,-97.66 356.6831,-101.1615 361.0493,-106.633"/>
</g>
<!-- Node8 -->
<g id="node9" class="node">
<title>Node8</title>
<g id="a_node9"><a xlink:href="_m_g__kuka__iiwa__robot__auto__generated_8h.html" target="_top" xlink:title="drake/multibody/benchmarks\l/kuka_iiwa_robot/MG/MG_kuka\l_iiwa_robot_auto_generated.h">
<polygon fill="#ffffff" stroke="#000000" points="76.2046,-134.5 76.2046,-175.5 243.2046,-175.5 243.2046,-134.5 76.2046,-134.5"/>
<text text-anchor="start" x="84.2046" y="-163.5" font-family="Helvetica,sans-Serif" font-size="10.00" fill="#000000">drake/multibody/benchmarks</text>
<text text-anchor="start" x="84.2046" y="-152.5" font-family="Helvetica,sans-Serif" font-size="10.00" fill="#000000">/kuka_iiwa_robot/MG/MG_kuka</text>
<text text-anchor="middle" x="159.7046" y="-141.5" font-family="Helvetica,sans-Serif" font-size="10.00" fill="#000000">_iiwa_robot_auto_generated.h</text>
</a>
</g>
</g>
<!-- Node0&#45;&gt;Node8 -->
<g id="edge9" class="edge">
<title>Node0&#45;&gt;Node8</title>
<path fill="none" stroke="#191970" d="M241.2501,-212.3022C227.7202,-202.7948 211.5196,-191.4106 197.1364,-181.3034"/>
<polygon fill="#191970" stroke="#191970" points="199.1059,-178.4097 188.9116,-175.5239 195.0812,-184.137 199.1059,-178.4097"/>
</g>
<!-- Node9 -->
<g id="node10" class="node">
<title>Node9</title>
<polygon fill="#ffffff" stroke="#bfbfbf" points="336.2046,-140 336.2046,-170 485.2046,-170 485.2046,-140 336.2046,-140"/>
<text text-anchor="start" x="344.2046" y="-158" font-family="Helvetica,sans-Serif" font-size="10.00" fill="#000000">drake/multibody/multibody</text>
<text text-anchor="middle" x="410.7046" y="-147" font-family="Helvetica,sans-Serif" font-size="10.00" fill="#000000">_tree/math/spatial_force.h</text>
</g>
<!-- Node0&#45;&gt;Node9 -->
<g id="edge11" class="edge">
<title>Node0&#45;&gt;Node9</title>
<path fill="none" stroke="#191970" d="M307.8545,-212.3022C328.6006,-200.7437 354.3253,-186.4114 374.8574,-174.972"/>
<polygon fill="#191970" stroke="#191970" points="376.5662,-178.0266 383.5984,-170.102 373.1592,-171.9116 376.5662,-178.0266"/>
</g>
<!-- Node10 -->
<g id="node11" class="node">
<title>Node10</title>
<g id="a_node11"><a xlink:href="spatial__kinematics_8h.html" target="_top" xlink:title="drake/multibody/test\l_utilities/spatial_kinematics.h">
<polygon fill="#ffffff" stroke="#000000" points="503.2046,-140 503.2046,-170 666.2046,-170 666.2046,-140 503.2046,-140"/>
<text text-anchor="start" x="511.2046" y="-158" font-family="Helvetica,sans-Serif" font-size="10.00" fill="#000000">drake/multibody/test</text>
<text text-anchor="middle" x="584.7046" y="-147" font-family="Helvetica,sans-Serif" font-size="10.00" fill="#000000">_utilities/spatial_kinematics.h</text>
</a>
</g>
</g>
<!-- Node0&#45;&gt;Node10 -->
<g id="edge12" class="edge">
<title>Node0&#45;&gt;Node10</title>
<path fill="none" stroke="#191970" d="M353.6151,-212.4044C403.6564,-199.9738 466.7274,-184.3064 514.3312,-172.4813"/>
<polygon fill="#191970" stroke="#191970" points="515.3831,-175.8265 524.2443,-170.0188 513.6955,-169.0329 515.3831,-175.8265"/>
</g>
<!-- Node4&#45;&gt;Node3 -->
<g id="edge8" class="edge">
<title>Node4&#45;&gt;Node3</title>
<path fill="none" stroke="#191970" d="M361.4475,-67.4639C345.1535,-58.1332 324.0064,-46.0232 306.2263,-35.8415"/>
<polygon fill="#191970" stroke="#191970" points="307.696,-32.6499 297.2789,-30.7177 304.2174,-38.7244 307.696,-32.6499"/>
</g>
<!-- Node5 -->
<g id="node6" class="node">
<title>Node5</title>
<polygon fill="#ffffff" stroke="#bfbfbf" points="349.7046,-6 349.7046,-25 407.7046,-25 407.7046,-6 349.7046,-6"/>
<text text-anchor="middle" x="378.7046" y="-13" font-family="Helvetica,sans-Serif" font-size="10.00" fill="#000000">memory</text>
</g>
<!-- Node4&#45;&gt;Node5 -->
<g id="edge5" class="edge">
<title>Node4&#45;&gt;Node5</title>
<path fill="none" stroke="#191970" d="M385.6624,-67.2967C384.3827,-57.7699 382.7204,-45.3954 381.3416,-35.1306"/>
<polygon fill="#191970" stroke="#191970" points="384.7884,-34.5 379.9881,-25.055 377.8507,-35.4319 384.7884,-34.5"/>
</g>
<!-- Node6 -->
<g id="node7" class="node">
<title>Node6</title>
<polygon fill="#ffffff" stroke="#bfbfbf" points="426.2046,-6 426.2046,-25 503.2046,-25 503.2046,-6 426.2046,-6"/>
<text text-anchor="middle" x="464.7046" y="-13" font-family="Helvetica,sans-Serif" font-size="10.00" fill="#000000">Eigen/Dense</text>
</g>
<!-- Node4&#45;&gt;Node6 -->
<g id="edge6" class="edge">
<title>Node4&#45;&gt;Node6</title>
<path fill="none" stroke="#191970" d="M405.1771,-67.2967C417.407,-56.6551 433.7205,-42.4602 446.1767,-31.6217"/>
<polygon fill="#191970" stroke="#191970" points="448.477,-34.2596 453.7235,-25.055 443.8821,-28.9788 448.477,-34.2596"/>
</g>
<!-- Node7 -->
<g id="node8" class="node">
<title>Node7</title>
<g id="a_node8"><a xlink:href="constants_8h.html" target="_top" xlink:title="drake/common/constants.h">
<polygon fill="#ffffff" stroke="#000000" points="521.2046,-6 521.2046,-25 670.2046,-25 670.2046,-6 521.2046,-6"/>
<text text-anchor="middle" x="595.7046" y="-13" font-family="Helvetica,sans-Serif" font-size="10.00" fill="#000000">drake/common/constants.h</text>
</a>
</g>
</g>
<!-- Node4&#45;&gt;Node7 -->
<g id="edge7" class="edge">
<title>Node4&#45;&gt;Node7</title>
<path fill="none" stroke="#191970" d="M434.3839,-67.4639C471.1219,-55.63 521.7379,-39.3258 556.4196,-28.1543"/>
<polygon fill="#191970" stroke="#191970" points="557.7504,-31.4028 566.1957,-25.0053 555.6041,-24.7399 557.7504,-31.4028"/>
</g>
<!-- Node8&#45;&gt;Node1 -->
<g id="edge10" class="edge">
<title>Node8&#45;&gt;Node1</title>
<path fill="none" stroke="#191970" d="M135.5744,-134.4183C122.3347,-123.1256 106.1497,-109.3208 93.7981,-98.7856"/>
<polygon fill="#191970" stroke="#191970" points="95.8223,-95.9119 85.9426,-92.0853 91.2796,-101.2378 95.8223,-95.9119"/>
</g>
<!-- Node10&#45;&gt;Node4 -->
<g id="edge13" class="edge">
<title>Node10&#45;&gt;Node4</title>
<path fill="none" stroke="#191970" d="M543.8861,-139.978C513.1136,-128.6531 470.7442,-113.0603 437.8989,-100.9725"/>
<polygon fill="#191970" stroke="#191970" points="439.0643,-97.672 428.4708,-97.5028 436.6467,-104.2412 439.0643,-97.672"/>
</g>
<!-- Node11 -->
<g id="node12" class="node">
<title>Node11</title>
<polygon fill="#ffffff" stroke="#bfbfbf" points="484.7046,-67.5 484.7046,-97.5 664.7046,-97.5 664.7046,-67.5 484.7046,-67.5"/>
<text text-anchor="start" x="492.7046" y="-85.5" font-family="Helvetica,sans-Serif" font-size="10.00" fill="#000000">drake/multibody/multibody</text>
<text text-anchor="middle" x="574.7046" y="-74.5" font-family="Helvetica,sans-Serif" font-size="10.00" fill="#000000">_tree/math/spatial_acceleration.h</text>
</g>
<!-- Node10&#45;&gt;Node11 -->
<g id="edge14" class="edge">
<title>Node10&#45;&gt;Node11</title>
<path fill="none" stroke="#191970" d="M582.6326,-139.978C581.3454,-130.6459 579.6585,-118.4157 578.1718,-107.6368"/>
<polygon fill="#191970" stroke="#191970" points="581.6076,-106.9308 576.774,-97.5028 574.6732,-107.8873 581.6076,-106.9308"/>
</g>
<!-- Node12 -->
<g id="node13" class="node">
<title>Node12</title>
<polygon fill="#ffffff" stroke="#bfbfbf" points="683.2046,-67.5 683.2046,-97.5 842.2046,-97.5 842.2046,-67.5 683.2046,-67.5"/>
<text text-anchor="start" x="691.2046" y="-85.5" font-family="Helvetica,sans-Serif" font-size="10.00" fill="#000000">drake/multibody/multibody</text>
<text text-anchor="middle" x="762.7046" y="-74.5" font-family="Helvetica,sans-Serif" font-size="10.00" fill="#000000">_tree/math/spatial_velocity.h</text>
</g>
<!-- Node10&#45;&gt;Node12 -->
<g id="edge15" class="edge">
<title>Node10&#45;&gt;Node12</title>
<path fill="none" stroke="#191970" d="M621.5863,-139.978C649.1522,-128.7503 687.0174,-113.3276 716.5853,-101.2845"/>
<polygon fill="#191970" stroke="#191970" points="717.9291,-104.5165 725.8701,-97.5028 715.2886,-98.0336 717.9291,-104.5165"/>
</g>
</g>
</svg>
        <g id="navigator" transform="translate(0 0)" fill="#404254">
                <rect fill="#f2f5e9" fill-opacity="0.5" stroke="#606060" stroke-width=".5" x="0" y="0" width="60" height="60"/>
                <use id="zoomplus" xlink:href="#zoomPlus" x="17" y="9" onmousedown="handleZoom(evt,'in')"/>
                <use id="zoomminus" xlink:href="#zoomMin" x="42" y="9" onmousedown="handleZoom(evt,'out')"/>
                <use id="reset" xlink:href="#resetDef" x="30" y="36" onmousedown="handleReset()"/>
                <g id="arrowUp" xlink:href="#dirArrow" transform="translate(30 24)" onmousedown="handlePan(0,-1)">
                  <use xlink:href="#rim" fill="#404040">
                        <set attributeName="fill" to="#808080" begin="arrowUp.mouseover" end="arrowUp.mouseout"/>
                  </use>
                  <path fill="none" stroke="white" stroke-width="1.5" d="M0,-3.0v7 M-2.5,-0.5L0,-3.0L2.5,-0.5"/>
                </g>
                <g id="arrowRight" xlink:href="#dirArrow" transform="rotate(90) translate(36 -43)" onmousedown="handlePan(1,0)">
                  <use xlink:href="#rim" fill="#404040">
                        <set attributeName="fill" to="#808080" begin="arrowRight.mouseover" end="arrowRight.mouseout"/>
                  </use>
                  <path fill="none" stroke="white" stroke-width="1.5" d="M0,-3.0v7 M-2.5,-0.5L0,-3.0L2.5,-0.5"/>
                </g>
                <g id="arrowDown" xlink:href="#dirArrow" transform="rotate(180) translate(-30 -48)" onmousedown="handlePan(0,1)">
                  <use xlink:href="#rim" fill="#404040">
                        <set attributeName="fill" to="#808080" begin="arrowDown.mouseover" end="arrowDown.mouseout"/>
                  </use>
                  <path fill="none" stroke="white" stroke-width="1.5" d="M0,-3.0v7 M-2.5,-0.5L0,-3.0L2.5,-0.5"/>
                </g>
                <g id="arrowLeft" xlink:href="#dirArrow" transform="rotate(270) translate(-36 17)" onmousedown="handlePan(-1,0)">
                  <use xlink:href="#rim" fill="#404040">
                        <set attributeName="fill" to="#808080" begin="arrowLeft.mouseover" end="arrowLeft.mouseout"/>
                  </use>
                  <path fill="none" stroke="white" stroke-width="1.5" d="M0,-3.0v7 M-2.5,-0.5L0,-3.0L2.5,-0.5"/>
                </g>
        </g>
        <svg viewBox="0 0 15 15" width="100%" height="30px" preserveAspectRatio="xMaxYMin meet">
         <g id="arrow_out" transform="scale(0.3 0.3)">
          <a xlink:href="_m_g__kuka__iiwa__robot_8h__incl_org.svg" target="_base">
           <rect id="button" ry="5" rx="5" y="6" x="6" height="38" width="38"
                fill="#f2f5e9" fill-opacity="0.5" stroke="#606060" stroke-width="1.0"/>
           <path id="arrow"
             d="M 11.500037,31.436501 C 11.940474,20.09759 22.043105,11.32322 32.158766,21.979434 L 37.068811,17.246167 C 37.068811,17.246167 37.088388,32 37.088388,32 L 22.160133,31.978069 C 22.160133,31.978069 26.997745,27.140456 26.997745,27.140456 C 18.528582,18.264221 13.291696,25.230495 11.500037,31.436501 z"
             style="fill:#404040;"/>
          </a>
         </g>
        </svg>
</svg>
