<?xml version="1.0" encoding="UTF-8" standalone="no"?>
<!DOCTYPE svg PUBLIC "-//W3C//DTD SVG 1.1//EN"
 "http://www.w3.org/Graphics/SVG/1.1/DTD/svg11.dtd">
<!-- Generated by graphviz version 2.40.1 (20161225.0304)
 -->
<!-- Title: drake/multibody/benchmarks/chaotic_babyboot/MG/MG_chaotic_babyboot_auto_generated.h Pages: 1 -->
<svg width="394pt" height="128pt"
 viewBox="0.00 0.00 393.50 128.00" xmlns="http://www.w3.org/2000/svg" xmlns:xlink="http://www.w3.org/1999/xlink">
<g id="graph0" class="graph" transform="scale(1 1) rotate(0) translate(4 124)">
<title>drake/multibody/benchmarks/chaotic_babyboot/MG/MG_chaotic_babyboot_auto_generated.h</title>
<polygon fill="#ffffff" stroke="transparent" points="-4,4 -4,-124 389.5,-124 389.5,4 -4,4"/>
<!-- Node2 -->
<g id="node1" class="node">
<title>Node2</title>
<polygon fill="#bfbfbf" stroke="#000000" points="103,-78.5 103,-119.5 302,-119.5 302,-78.5 103,-78.5"/>
<text text-anchor="start" x="111" y="-107.5" font-family="Helvetica,sans-Serif" font-size="10.00" fill="#000000">drake/multibody/benchmarks</text>
<text text-anchor="start" x="111" y="-96.5" font-family="Helvetica,sans-Serif" font-size="10.00" fill="#000000">/chaotic_babyboot/MG/MG</text>
<text text-anchor="middle" x="202.5" y="-85.5" font-family="Helvetica,sans-Serif" font-size="10.00" fill="#000000">_chaotic_babyboot_auto_generated.h</text>
</g>
<!-- Node3 -->
<g id="node2" class="node">
<title>Node3</title>
<g id="a_node2"><a xlink:href="_m_g__chaotic__babyboot__auto__generated_8cc.html" target="_top" xlink:title="drake/multibody/benchmarks\l/chaotic_babyboot/MG/MG\l_chaotic_babyboot_auto_generated.cc">
<polygon fill="#ffffff" stroke="#000000" points="0,-.5 0,-41.5 203,-41.5 203,-.5 0,-.5"/>
<text text-anchor="start" x="8" y="-29.5" font-family="Helvetica,sans-Serif" font-size="10.00" fill="#000000">drake/multibody/benchmarks</text>
<text text-anchor="start" x="8" y="-18.5" font-family="Helvetica,sans-Serif" font-size="10.00" fill="#000000">/chaotic_babyboot/MG/MG</text>
<text text-anchor="middle" x="101.5" y="-7.5" font-family="Helvetica,sans-Serif" font-size="10.00" fill="#000000">_chaotic_babyboot_auto_generated.cc</text>
</a>
</g>
</g>
<!-- Node2&#45;&gt;Node3 -->
<g id="edge1" class="edge">
<title>Node2&#45;&gt;Node3</title>
<path fill="none" stroke="#191970" d="M167.4639,-71.9424C154.543,-61.9639 140.1273,-50.831 128.0758,-41.5239"/>
<polygon fill="#191970" stroke="#191970" points="165.6451,-74.96 175.699,-78.3022 169.9237,-69.4198 165.6451,-74.96"/>
</g>
<!-- Node4 -->
<g id="node3" class="node">
<title>Node4</title>
<g id="a_node3"><a xlink:href="_m_g__chaotic__babyboot__test_8cc.html" target="_top" xlink:title="drake/multibody/benchmarks\l/chaotic_babyboot/MG/test\l/MG_chaotic_babyboot_test.cc">
<polygon fill="#ffffff" stroke="#000000" points="221.5,-.5 221.5,-41.5 385.5,-41.5 385.5,-.5 221.5,-.5"/>
<text text-anchor="start" x="229.5" y="-29.5" font-family="Helvetica,sans-Serif" font-size="10.00" fill="#000000">drake/multibody/benchmarks</text>
<text text-anchor="start" x="229.5" y="-18.5" font-family="Helvetica,sans-Serif" font-size="10.00" fill="#000000">/chaotic_babyboot/MG/test</text>
<text text-anchor="middle" x="303.5" y="-7.5" font-family="Helvetica,sans-Serif" font-size="10.00" fill="#000000">/MG_chaotic_babyboot_test.cc</text>
</a>
</g>
</g>
<!-- Node2&#45;&gt;Node4 -->
<g id="edge2" class="edge">
<title>Node2&#45;&gt;Node4</title>
<path fill="none" stroke="#191970" d="M237.5361,-71.9424C250.457,-61.9639 264.8727,-50.831 276.9242,-41.5239"/>
<polygon fill="#191970" stroke="#191970" points="235.0763,-69.4198 229.301,-78.3022 239.3549,-74.96 235.0763,-69.4198"/>
</g>
</g>
</svg>
