<?xml version="1.0" encoding="UTF-8" standalone="no"?>
<!DOCTYPE svg PUBLIC "-//W3C//DTD SVG 1.1//EN"
 "http://www.w3.org/Graphics/SVG/1.1/DTD/svg11.dtd">
<!-- Generated by graphviz version 2.40.1 (20161225.0304)
 -->
<!-- Title: drake/attic/systems/controllers/QPCommon.h Pages: 1 -->
<svg width="1384pt" height="162pt"
 viewBox="0.00 0.00 1384.00 162.00" xmlns="http://www.w3.org/2000/svg" xmlns:xlink="http://www.w3.org/1999/xlink">
<g id="graph0" class="graph" transform="scale(1 1) rotate(0) translate(4 158)">
<title>drake/attic/systems/controllers/QPCommon.h</title>
<polygon fill="#ffffff" stroke="transparent" points="-4,4 -4,-158 1380,-158 1380,4 -4,4"/>
<!-- Node0 -->
<g id="node1" class="node">
<title>Node0</title>
<polygon fill="#bfbfbf" stroke="#000000" points="354.5,-123.5 354.5,-153.5 495.5,-153.5 495.5,-123.5 354.5,-123.5"/>
<text text-anchor="start" x="362.5" y="-141.5" font-family="Helvetica,sans-Serif" font-size="10.00" fill="#000000">drake/attic/systems</text>
<text text-anchor="middle" x="425" y="-130.5" font-family="Helvetica,sans-Serif" font-size="10.00" fill="#000000">/controllers/QPCommon.h</text>
</g>
<!-- Node1 -->
<g id="node2" class="node">
<title>Node1</title>
<polygon fill="#ffffff" stroke="#bfbfbf" points="9,-62 9,-81 73,-81 73,-62 9,-62"/>
<text text-anchor="middle" x="41" y="-69" font-family="Helvetica,sans-Serif" font-size="10.00" fill="#000000">algorithm</text>
</g>
<!-- Node0&#45;&gt;Node1 -->
<g id="edge1" class="edge">
<title>Node0&#45;&gt;Node1</title>
<path fill="none" stroke="#191970" d="M354.3943,-131.3619C285.5296,-123.5534 178.1393,-109.1204 87,-87 83.6218,-86.1801 80.138,-85.222 76.6702,-84.1915"/>
<polygon fill="#191970" stroke="#191970" points="77.6309,-80.8245 67.0411,-81.1503 75.5227,-87.4995 77.6309,-80.8245"/>
</g>
<!-- Node2 -->
<g id="node3" class="node">
<title>Node2</title>
<polygon fill="#ffffff" stroke="#bfbfbf" points="0,-.5 0,-19.5 38,-19.5 38,-.5 0,-.5"/>
<text text-anchor="middle" x="19" y="-7.5" font-family="Helvetica,sans-Serif" font-size="10.00" fill="#000000">map</text>
</g>
<!-- Node0&#45;&gt;Node2 -->
<g id="edge2" class="edge">
<title>Node0&#45;&gt;Node2</title>
<path fill="none" stroke="#191970" d="M354.4851,-133.7989C294.8168,-127.9837 207.9416,-115.134 137,-87 116.9945,-79.0662 68.7437,-45.662 40.5264,-25.5487"/>
<polygon fill="#191970" stroke="#191970" points="42.2979,-22.5124 32.1301,-19.5346 38.2217,-28.2031 42.2979,-22.5124"/>
</g>
<!-- Node3 -->
<g id="node4" class="node">
<title>Node3</title>
<polygon fill="#ffffff" stroke="#bfbfbf" points="381,-62 381,-81 413,-81 413,-62 381,-62"/>
<text text-anchor="middle" x="397" y="-69" font-family="Helvetica,sans-Serif" font-size="10.00" fill="#000000">set</text>
</g>
<!-- Node0&#45;&gt;Node3 -->
<g id="edge3" class="edge">
<title>Node0&#45;&gt;Node3</title>
<path fill="none" stroke="#191970" d="M418.6464,-123.2967C414.5803,-113.5672 409.273,-100.8675 404.9313,-90.4784"/>
<polygon fill="#191970" stroke="#191970" points="408.0785,-88.9321 400.9931,-81.055 401.6198,-91.6313 408.0785,-88.9321"/>
</g>
<!-- Node4 -->
<g id="node5" class="node">
<title>Node4</title>
<polygon fill="#ffffff" stroke="#bfbfbf" points="431,-62 431,-81 475,-81 475,-62 431,-62"/>
<text text-anchor="middle" x="453" y="-69" font-family="Helvetica,sans-Serif" font-size="10.00" fill="#000000">string</text>
</g>
<!-- Node0&#45;&gt;Node4 -->
<g id="edge4" class="edge">
<title>Node0&#45;&gt;Node4</title>
<path fill="none" stroke="#191970" d="M431.3536,-123.2967C435.4197,-113.5672 440.727,-100.8675 445.0687,-90.4784"/>
<polygon fill="#191970" stroke="#191970" points="448.3802,-91.6313 449.0069,-81.055 441.9215,-88.9321 448.3802,-91.6313"/>
</g>
<!-- Node5 -->
<g id="node6" class="node">
<title>Node5</title>
<polygon fill="#ffffff" stroke="#bfbfbf" points="56.5,-.5 56.5,-19.5 149.5,-19.5 149.5,-.5 56.5,-.5"/>
<text text-anchor="middle" x="103" y="-7.5" font-family="Helvetica,sans-Serif" font-size="10.00" fill="#000000">unordered_map</text>
</g>
<!-- Node0&#45;&gt;Node5 -->
<g id="edge5" class="edge">
<title>Node0&#45;&gt;Node5</title>
<path fill="none" stroke="#191970" d="M354.2199,-128.2194C292.9184,-118.4858 209.5731,-103.0138 180,-87 153.2438,-72.5115 129.6958,-45.8061 115.8976,-27.9717"/>
<polygon fill="#191970" stroke="#191970" points="118.4,-25.474 109.6055,-19.5658 112.7961,-29.6688 118.4,-25.474"/>
</g>
<!-- Node6 -->
<g id="node7" class="node">
<title>Node6</title>
<polygon fill="#ffffff" stroke="#bfbfbf" points="167.5,-.5 167.5,-19.5 214.5,-19.5 214.5,-.5 167.5,-.5"/>
<text text-anchor="middle" x="191" y="-7.5" font-family="Helvetica,sans-Serif" font-size="10.00" fill="#000000">vector</text>
</g>
<!-- Node0&#45;&gt;Node6 -->
<g id="edge6" class="edge">
<title>Node0&#45;&gt;Node6</title>
<path fill="none" stroke="#191970" d="M354.3262,-131.8125C294.86,-124.5992 216.3534,-110.8136 196,-87 182.6485,-71.3787 183.5025,-46.8311 186.3317,-29.6636"/>
<polygon fill="#191970" stroke="#191970" points="189.812,-30.1088 188.3467,-19.6158 182.9487,-28.7324 189.812,-30.1088"/>
</g>
<!-- Node7 -->
<g id="node8" class="node">
<title>Node7</title>
<polygon fill="#ffffff" stroke="#bfbfbf" points="491.5,-.5 491.5,-19.5 560.5,-19.5 560.5,-.5 491.5,-.5"/>
<text text-anchor="middle" x="526" y="-7.5" font-family="Helvetica,sans-Serif" font-size="10.00" fill="#000000">Eigen/Core</text>
</g>
<!-- Node0&#45;&gt;Node7 -->
<g id="edge7" class="edge">
<title>Node0&#45;&gt;Node7</title>
<path fill="none" stroke="#191970" d="M403.6942,-123.4825C382.4144,-106.6234 355.1175,-78.6624 372,-56 378.7466,-46.9436 438.5459,-30.9457 481.6009,-20.4074"/>
<polygon fill="#191970" stroke="#191970" points="482.4306,-23.8077 491.3243,-18.05 480.7812,-17.0048 482.4306,-23.8077"/>
</g>
<!-- Node8 -->
<g id="node9" class="node">
<title>Node8</title>
<g id="a_node9"><a xlink:href="eigen__stl__types_8h.html" target="_top" xlink:title="This file contains definitions for using Eigen with the STL. ">
<polygon fill="#ffffff" stroke="#000000" points="205,-56.5 205,-86.5 325,-86.5 325,-56.5 205,-56.5"/>
<text text-anchor="start" x="213" y="-74.5" font-family="Helvetica,sans-Serif" font-size="10.00" fill="#000000">drake/common/eigen</text>
<text text-anchor="middle" x="265" y="-63.5" font-family="Helvetica,sans-Serif" font-size="10.00" fill="#000000">_stl_types.h</text>
</a>
</g>
</g>
<!-- Node0&#45;&gt;Node8 -->
<g id="edge8" class="edge">
<title>Node0&#45;&gt;Node8</title>
<path fill="none" stroke="#191970" d="M389.0929,-123.4639C365.8089,-113.7137 335.278,-100.9289 310.3266,-90.4805"/>
<polygon fill="#191970" stroke="#191970" points="311.6396,-87.2359 301.0637,-86.6017 308.9358,-93.6926 311.6396,-87.2359"/>
</g>
<!-- Node12 -->
<g id="node13" class="node">
<title>Node12</title>
<polygon fill="#ffffff" stroke="#bfbfbf" points="493,-56.5 493,-86.5 629,-86.5 629,-56.5 493,-56.5"/>
<text text-anchor="start" x="501" y="-74.5" font-family="Helvetica,sans-Serif" font-size="10.00" fill="#000000">drake/multibody/force</text>
<text text-anchor="middle" x="561" y="-63.5" font-family="Helvetica,sans-Serif" font-size="10.00" fill="#000000">_torque_measurement.h</text>
</g>
<!-- Node0&#45;&gt;Node12 -->
<g id="edge16" class="edge">
<title>Node0&#45;&gt;Node12</title>
<path fill="none" stroke="#191970" d="M455.5211,-123.4639C474.8955,-113.9191 500.173,-101.4663 521.1257,-91.144"/>
<polygon fill="#191970" stroke="#191970" points="522.6865,-94.2768 530.1103,-86.7177 519.593,-87.9974 522.6865,-94.2768"/>
</g>
<!-- Node13 -->
<g id="node14" class="node">
<title>Node13</title>
<polygon fill="#ffffff" stroke="#bfbfbf" points="647.5,-56.5 647.5,-86.5 774.5,-86.5 774.5,-56.5 647.5,-56.5"/>
<text text-anchor="start" x="655.5" y="-74.5" font-family="Helvetica,sans-Serif" font-size="10.00" fill="#000000">drake/multibody/joints</text>
<text text-anchor="middle" x="711" y="-63.5" font-family="Helvetica,sans-Serif" font-size="10.00" fill="#000000">/floating_base_types.h</text>
</g>
<!-- Node0&#45;&gt;Node13 -->
<g id="edge17" class="edge">
<title>Node0&#45;&gt;Node13</title>
<path fill="none" stroke="#191970" d="M489.184,-123.4639C533.066,-113.1838 591.3483,-99.5303 637.1583,-88.7986"/>
<polygon fill="#191970" stroke="#191970" points="638.0922,-92.1746 647.0302,-86.4859 636.4955,-85.3592 638.0922,-92.1746"/>
</g>
<!-- Node14 -->
<g id="node15" class="node">
<title>Node14</title>
<polygon fill="#ffffff" stroke="#bfbfbf" points="793,-56.5 793,-86.5 915,-86.5 915,-56.5 793,-56.5"/>
<text text-anchor="start" x="801" y="-74.5" font-family="Helvetica,sans-Serif" font-size="10.00" fill="#000000">drake/multibody/rigid</text>
<text text-anchor="middle" x="854" y="-63.5" font-family="Helvetica,sans-Serif" font-size="10.00" fill="#000000">_body_tree.h</text>
</g>
<!-- Node0&#45;&gt;Node14 -->
<g id="edge18" class="edge">
<title>Node0&#45;&gt;Node14</title>
<path fill="none" stroke="#191970" d="M495.7581,-129.9507C566.1514,-121.0819 677.4354,-106.0827 783.0939,-87.0883"/>
<polygon fill="#191970" stroke="#191970" points="783.7562,-90.5253 792.9715,-85.2977 782.5076,-83.6376 783.7562,-90.5253"/>
</g>
<!-- Node15 -->
<g id="node16" class="node">
<title>Node15</title>
<polygon fill="#ffffff" stroke="#bfbfbf" points="933.5,-56.5 933.5,-86.5 1076.5,-86.5 1076.5,-56.5 933.5,-56.5"/>
<text text-anchor="start" x="941.5" y="-74.5" font-family="Helvetica,sans-Serif" font-size="10.00" fill="#000000">drake/systems/controllers</text>
<text text-anchor="middle" x="1005" y="-63.5" font-family="Helvetica,sans-Serif" font-size="10.00" fill="#000000">/controlUtil.h</text>
</g>
<!-- Node0&#45;&gt;Node15 -->
<g id="edge19" class="edge">
<title>Node0&#45;&gt;Node15</title>
<path fill="none" stroke="#191970" d="M495.8924,-133.1199C590.8649,-125.4804 764.8137,-109.9776 923.1424,-87.0487"/>
<polygon fill="#191970" stroke="#191970" points="923.677,-90.5078 933.0659,-85.5987 922.6649,-83.5814 923.677,-90.5078"/>
</g>
<!-- Node16 -->
<g id="node17" class="node">
<title>Node16</title>
<polygon fill="#ffffff" stroke="#bfbfbf" points="1094.5,-56.5 1094.5,-86.5 1237.5,-86.5 1237.5,-56.5 1094.5,-56.5"/>
<text text-anchor="start" x="1102.5" y="-74.5" font-family="Helvetica,sans-Serif" font-size="10.00" fill="#000000">drake/systems/controllers</text>
<text text-anchor="middle" x="1166" y="-63.5" font-family="Helvetica,sans-Serif" font-size="10.00" fill="#000000">/side.h</text>
</g>
<!-- Node0&#45;&gt;Node16 -->
<g id="edge20" class="edge">
<title>Node0&#45;&gt;Node16</title>
<path fill="none" stroke="#191970" d="M495.7139,-135.6307C615.1227,-130.2055 864.4355,-116.3818 1084.0033,-87.1864"/>
<polygon fill="#191970" stroke="#191970" points="1084.6605,-90.6296 1094.1055,-85.8293 1083.7285,-83.6919 1084.6605,-90.6296"/>
</g>
<!-- Node17 -->
<g id="node18" class="node">
<title>Node17</title>
<polygon fill="#ffffff" stroke="#bfbfbf" points="1256,-62 1256,-81 1376,-81 1376,-62 1256,-62"/>
<text text-anchor="middle" x="1316" y="-69" font-family="Helvetica,sans-Serif" font-size="10.00" fill="#000000">drake/util/drakeUtil.h</text>
</g>
<!-- Node0&#45;&gt;Node17 -->
<g id="edge21" class="edge">
<title>Node0&#45;&gt;Node17</title>
<path fill="none" stroke="#191970" d="M495.7274,-135.5119C667.4345,-128.0247 1102.7923,-107.5824 1247,-87 1253.9414,-86.0093 1261.2196,-84.6892 1268.3389,-83.236"/>
<polygon fill="#191970" stroke="#191970" points="1269.5551,-86.5548 1278.5982,-81.0346 1268.0864,-79.7106 1269.5551,-86.5548"/>
</g>
<!-- Node8&#45;&gt;Node2 -->
<g id="edge10" class="edge">
<title>Node8&#45;&gt;Node2</title>
<path fill="none" stroke="#191970" d="M204.8491,-59.173C163.1287,-50.192 106.1595,-37.0768 47.9227,-20.0493"/>
<polygon fill="#191970" stroke="#191970" points="48.7693,-16.6498 38.1872,-17.1692 46.7835,-23.3623 48.7693,-16.6498"/>
</g>
<!-- Node8&#45;&gt;Node5 -->
<g id="edge11" class="edge">
<title>Node8&#45;&gt;Node5</title>
<path fill="none" stroke="#191970" d="M225.3703,-56.4554C198.4588,-46.239 163.2189,-32.8609 137.4706,-23.0861"/>
<polygon fill="#191970" stroke="#191970" points="138.6955,-19.8074 128.1043,-19.5303 136.211,-26.3517 138.6955,-19.8074"/>
</g>
<!-- Node8&#45;&gt;Node6 -->
<g id="edge13" class="edge">
<title>Node8&#45;&gt;Node6</title>
<path fill="none" stroke="#191970" d="M246.7079,-56.2977C235.7939,-47.2274 221.9329,-35.7077 210.7676,-26.4285"/>
<polygon fill="#191970" stroke="#191970" points="212.7762,-23.5468 202.8483,-19.8469 208.302,-28.9303 212.7762,-23.5468"/>
</g>
<!-- Node8&#45;&gt;Node7 -->
<g id="edge14" class="edge">
<title>Node8&#45;&gt;Node7</title>
<path fill="none" stroke="#191970" d="M325.2064,-57.3134C372.8719,-46.0819 438.3708,-30.6483 481.4193,-20.5046"/>
<polygon fill="#191970" stroke="#191970" points="482.3884,-23.8722 491.3191,-18.1719 480.7829,-17.0588 482.3884,-23.8722"/>
</g>
<!-- Node9 -->
<g id="node10" class="node">
<title>Node9</title>
<polygon fill="#ffffff" stroke="#bfbfbf" points="232.5,-.5 232.5,-19.5 297.5,-19.5 297.5,-.5 232.5,-.5"/>
<text text-anchor="middle" x="265" y="-7.5" font-family="Helvetica,sans-Serif" font-size="10.00" fill="#000000">functional</text>
</g>
<!-- Node8&#45;&gt;Node9 -->
<g id="edge9" class="edge">
<title>Node8&#45;&gt;Node9</title>
<path fill="none" stroke="#191970" d="M265,-56.2977C265,-48.3834 265,-38.6043 265,-30.0759"/>
<polygon fill="#191970" stroke="#191970" points="268.5001,-29.8469 265,-19.8469 261.5001,-29.847 268.5001,-29.8469"/>
</g>
<!-- Node10 -->
<g id="node11" class="node">
<title>Node10</title>
<polygon fill="#ffffff" stroke="#bfbfbf" points="315.5,-.5 315.5,-19.5 360.5,-19.5 360.5,-.5 315.5,-.5"/>
<text text-anchor="middle" x="338" y="-7.5" font-family="Helvetica,sans-Serif" font-size="10.00" fill="#000000">utility</text>
</g>
<!-- Node8&#45;&gt;Node10 -->
<g id="edge12" class="edge">
<title>Node8&#45;&gt;Node10</title>
<path fill="none" stroke="#191970" d="M283.0449,-56.2977C293.8114,-47.2274 307.4851,-35.7077 318.4995,-26.4285"/>
<polygon fill="#191970" stroke="#191970" points="320.9191,-28.9667 326.3118,-19.8469 316.4089,-23.6132 320.9191,-28.9667"/>
</g>
<!-- Node11 -->
<g id="node12" class="node">
<title>Node11</title>
<polygon fill="#ffffff" stroke="#bfbfbf" points="379,-.5 379,-19.5 473,-19.5 473,-.5 379,-.5"/>
<text text-anchor="middle" x="426" y="-7.5" font-family="Helvetica,sans-Serif" font-size="10.00" fill="#000000">Eigen/StdVector</text>
</g>
<!-- Node8&#45;&gt;Node11 -->
<g id="edge15" class="edge">
<title>Node8&#45;&gt;Node11</title>
<path fill="none" stroke="#191970" d="M304.385,-56.4554C331.0127,-46.284 365.8444,-32.9787 391.4034,-23.2155"/>
<polygon fill="#191970" stroke="#191970" points="392.958,-26.3684 401.0507,-19.5303 390.4601,-19.8292 392.958,-26.3684"/>
</g>
</g>
</svg>
