<?xml version="1.0" encoding="UTF-8" standalone="no"?>
<!DOCTYPE svg PUBLIC "-//W3C//DTD SVG 1.1//EN"
 "http://www.w3.org/Graphics/SVG/1.1/DTD/svg11.dtd">
<!-- Generated by graphviz version 2.40.1 (20161225.0304)
 -->
<!-- Title: drake/attic/systems/robotInterfaces/QPLocomotionPlan.h Pages: 1 -->
<svg width="2593pt" height="530pt"
 viewBox="0.00 0.00 2593.00 530.00" xmlns="http://www.w3.org/2000/svg" xmlns:xlink="http://www.w3.org/1999/xlink">
<g id="graph0" class="graph" transform="scale(1 1) rotate(0) translate(4 526)">
<title>drake/attic/systems/robotInterfaces/QPLocomotionPlan.h</title>
<polygon fill="#ffffff" stroke="transparent" points="-4,4 -4,-526 2589,-526 2589,4 -4,4"/>
<!-- Node0 -->
<g id="node1" class="node">
<title>Node0</title>
<polygon fill="#bfbfbf" stroke="#000000" points="1435.5,-480.5 1435.5,-521.5 1602.5,-521.5 1602.5,-480.5 1435.5,-480.5"/>
<text text-anchor="start" x="1443.5" y="-509.5" font-family="Helvetica,sans-Serif" font-size="10.00" fill="#000000">drake/attic/systems</text>
<text text-anchor="start" x="1443.5" y="-498.5" font-family="Helvetica,sans-Serif" font-size="10.00" fill="#000000">/robotInterfaces/QPLocomotion</text>
<text text-anchor="middle" x="1519" y="-487.5" font-family="Helvetica,sans-Serif" font-size="10.00" fill="#000000">Plan.h</text>
</g>
<!-- Node1 -->
<g id="node2" class="node">
<title>Node1</title>
<polygon fill="#ffffff" stroke="#bfbfbf" points="1346,-207 1346,-226 1384,-226 1384,-207 1346,-207"/>
<text text-anchor="middle" x="1365" y="-214" font-family="Helvetica,sans-Serif" font-size="10.00" fill="#000000">map</text>
</g>
<!-- Node0&#45;&gt;Node1 -->
<g id="edge1" class="edge">
<title>Node0&#45;&gt;Node1</title>
<path fill="none" stroke="#191970" d="M1435.3371,-481.0373C1416.34,-472.6361 1398.193,-460.759 1386,-444 1339.7306,-380.4035 1352.5378,-278.8439 1360.665,-236.2807"/>
<polygon fill="#191970" stroke="#191970" points="1364.1208,-236.85 1362.6862,-226.3527 1357.2615,-235.4535 1364.1208,-236.85"/>
</g>
<!-- Node2 -->
<g id="node3" class="node">
<title>Node2</title>
<polygon fill="#ffffff" stroke="#bfbfbf" points="1402,-207 1402,-226 1446,-226 1446,-207 1402,-207"/>
<text text-anchor="middle" x="1424" y="-214" font-family="Helvetica,sans-Serif" font-size="10.00" fill="#000000">string</text>
</g>
<!-- Node0&#45;&gt;Node2 -->
<g id="edge2" class="edge">
<title>Node0&#45;&gt;Node2</title>
<path fill="none" stroke="#191970" d="M1449.0891,-480.4117C1432.0952,-471.9407 1415.9636,-460.1854 1406,-444 1364.7296,-376.9586 1398.3704,-276.9301 1415.4964,-235.5125"/>
<polygon fill="#191970" stroke="#191970" points="1418.8126,-236.6595 1419.5331,-226.0892 1412.3782,-233.9031 1418.8126,-236.6595"/>
</g>
<!-- Node3 -->
<g id="node4" class="node">
<title>Node3</title>
<polygon fill="#ffffff" stroke="#bfbfbf" points="608.5,-207 608.5,-226 655.5,-226 655.5,-207 608.5,-207"/>
<text text-anchor="middle" x="632" y="-214" font-family="Helvetica,sans-Serif" font-size="10.00" fill="#000000">vector</text>
</g>
<!-- Node0&#45;&gt;Node3 -->
<g id="edge3" class="edge">
<title>Node0&#45;&gt;Node3</title>
<path fill="none" stroke="#191970" d="M1435.3267,-499.1378C1249.8071,-494.3806 815.8844,-479.555 760,-444 682.6411,-394.7824 647.6099,-281.2659 636.3198,-235.8227"/>
<polygon fill="#191970" stroke="#191970" points="639.7141,-234.967 634.0009,-226.0445 632.903,-236.5823 639.7141,-234.967"/>
</g>
<!-- Node4 -->
<g id="node5" class="node">
<title>Node4</title>
<polygon fill="#ffffff" stroke="#bfbfbf" points="473.5,-140 473.5,-159 542.5,-159 542.5,-140 473.5,-140"/>
<text text-anchor="middle" x="508" y="-147" font-family="Helvetica,sans-Serif" font-size="10.00" fill="#000000">Eigen/Core</text>
</g>
<!-- Node0&#45;&gt;Node4 -->
<g id="edge4" class="edge">
<title>Node0&#45;&gt;Node4</title>
<path fill="none" stroke="#191970" d="M1435.2982,-491.3414C1277.1998,-469.524 929.7686,-404.19 698,-232 681.847,-219.9993 682.3055,-211.2693 665,-201 629.7883,-180.1049 585.0352,-166.5005 552.3266,-158.5524"/>
<polygon fill="#191970" stroke="#191970" points="553.1216,-155.1439 542.5863,-156.2655 551.5216,-161.9586 553.1216,-155.1439"/>
</g>
<!-- Node5 -->
<g id="node6" class="node">
<title>Node5</title>
<polygon fill="#ffffff" stroke="#bfbfbf" points="1414.5,-413.5 1414.5,-432.5 1509.5,-432.5 1509.5,-413.5 1414.5,-413.5"/>
<text text-anchor="middle" x="1462" y="-420.5" font-family="Helvetica,sans-Serif" font-size="10.00" fill="#000000">Eigen/Geometry</text>
</g>
<!-- Node0&#45;&gt;Node5 -->
<g id="edge5" class="edge">
<title>Node0&#45;&gt;Node5</title>
<path fill="none" stroke="#191970" d="M1503.725,-480.0974C1494.7904,-467.8711 1483.6276,-452.5957 1475.0968,-440.922"/>
<polygon fill="#191970" stroke="#191970" points="1477.8929,-438.816 1469.1668,-432.8072 1472.2411,-442.9462 1477.8929,-438.816"/>
</g>
<!-- Node6 -->
<g id="node7" class="node">
<title>Node6</title>
<polygon fill="#ffffff" stroke="#bfbfbf" points="1528,-413.5 1528,-432.5 1626,-432.5 1626,-413.5 1528,-413.5"/>
<text text-anchor="middle" x="1577" y="-420.5" font-family="Helvetica,sans-Serif" font-size="10.00" fill="#000000">lcm/lcm&#45;cpp.hpp</text>
</g>
<!-- Node0&#45;&gt;Node6 -->
<g id="edge6" class="edge">
<title>Node0&#45;&gt;Node6</title>
<path fill="none" stroke="#191970" d="M1534.5429,-480.0974C1543.6343,-467.8711 1554.9929,-452.5957 1563.6734,-440.922"/>
<polygon fill="#191970" stroke="#191970" points="1566.549,-442.9203 1569.7075,-432.8072 1560.9318,-438.7433 1566.549,-442.9203"/>
</g>
<!-- Node7 -->
<g id="node8" class="node">
<title>Node7</title>
<g id="a_node8"><a xlink:href="exponential__plus__piecewise__polynomial_8h.html" target="_top" xlink:title="drake/common/trajectories\l/exponential_plus_piecewise\l_polynomial.h">
<polygon fill="#ffffff" stroke="#000000" points="332.5,-402.5 332.5,-443.5 489.5,-443.5 489.5,-402.5 332.5,-402.5"/>
<text text-anchor="start" x="340.5" y="-431.5" font-family="Helvetica,sans-Serif" font-size="10.00" fill="#000000">drake/common/trajectories</text>
<text text-anchor="start" x="340.5" y="-420.5" font-family="Helvetica,sans-Serif" font-size="10.00" fill="#000000">/exponential_plus_piecewise</text>
<text text-anchor="middle" x="411" y="-409.5" font-family="Helvetica,sans-Serif" font-size="10.00" fill="#000000">_polynomial.h</text>
</a>
</g>
</g>
<!-- Node0&#45;&gt;Node7 -->
<g id="edge7" class="edge">
<title>Node0&#45;&gt;Node7</title>
<path fill="none" stroke="#191970" d="M1435.2838,-497.8029C1270.5075,-491.0982 892.5939,-473.6824 576,-444 551.2361,-441.6783 524.4577,-438.5416 499.8237,-435.4012"/>
<polygon fill="#191970" stroke="#191970" points="500.1402,-431.9131 489.7746,-434.1051 499.2447,-438.8556 500.1402,-431.9131"/>
</g>
<!-- Node15 -->
<g id="node16" class="node">
<title>Node15</title>
<g id="a_node16"><a xlink:href="piecewise__polynomial_8h.html" target="_top" xlink:title="drake/common/trajectories\l/piecewise_polynomial.h">
<polygon fill="#ffffff" stroke="#000000" points="425.5,-335.5 425.5,-365.5 574.5,-365.5 574.5,-335.5 425.5,-335.5"/>
<text text-anchor="start" x="433.5" y="-353.5" font-family="Helvetica,sans-Serif" font-size="10.00" fill="#000000">drake/common/trajectories</text>
<text text-anchor="middle" x="500" y="-342.5" font-family="Helvetica,sans-Serif" font-size="10.00" fill="#000000">/piecewise_polynomial.h</text>
</a>
</g>
</g>
<!-- Node0&#45;&gt;Node15 -->
<g id="edge70" class="edge">
<title>Node0&#45;&gt;Node15</title>
<path fill="none" stroke="#191970" d="M1435.3732,-498.4727C1259.2889,-492.588 855.5592,-475.9786 722,-444 653.6072,-427.6244 579.2751,-392.418 536.3174,-370.1859"/>
<polygon fill="#191970" stroke="#191970" points="537.8663,-367.0462 527.3828,-365.5141 534.6227,-373.2494 537.8663,-367.0462"/>
</g>
<!-- Node37 -->
<g id="node38" class="node">
<title>Node37</title>
<g id="a_node38"><a xlink:href="unused_8h.html" target="_top" xlink:title="drake/common/unused.h">
<polygon fill="#ffffff" stroke="#000000" points="1644.5,-413.5 1644.5,-432.5 1781.5,-432.5 1781.5,-413.5 1644.5,-413.5"/>
<text text-anchor="middle" x="1713" y="-420.5" font-family="Helvetica,sans-Serif" font-size="10.00" fill="#000000">drake/common/unused.h</text>
</a>
</g>
</g>
<!-- Node0&#45;&gt;Node37 -->
<g id="edge71" class="edge">
<title>Node0&#45;&gt;Node37</title>
<path fill="none" stroke="#191970" d="M1570.225,-480.4044C1604.8191,-466.4954 1649.4921,-448.5341 1679.5792,-436.4372"/>
<polygon fill="#191970" stroke="#191970" points="1681.2154,-439.5518 1689.1879,-432.5739 1678.6041,-433.057 1681.2154,-439.5518"/>
</g>
<!-- Node38 -->
<g id="node39" class="node">
<title>Node38</title>
<polygon fill="#ffffff" stroke="#bfbfbf" points="1800,-408 1800,-438 1938,-438 1938,-408 1800,-408"/>
<text text-anchor="start" x="1808" y="-426" font-family="Helvetica,sans-Serif" font-size="10.00" fill="#000000">drake/lcmt_qp_controller</text>
<text text-anchor="middle" x="1869" y="-415" font-family="Helvetica,sans-Serif" font-size="10.00" fill="#000000">_input.hpp</text>
</g>
<!-- Node0&#45;&gt;Node38 -->
<g id="edge72" class="edge">
<title>Node0&#45;&gt;Node38</title>
<path fill="none" stroke="#191970" d="M1602.6031,-484.7498C1656.5445,-473.9524 1728.1215,-459.0401 1791,-444 1795.4157,-442.9438 1799.962,-441.8189 1804.5352,-440.6595"/>
<polygon fill="#191970" stroke="#191970" points="1805.739,-443.9638 1814.5498,-438.0798 1803.9928,-437.1851 1805.739,-443.9638"/>
</g>
<!-- Node39 -->
<g id="node40" class="node">
<title>Node39</title>
<polygon fill="#ffffff" stroke="#bfbfbf" points="1956,-408 1956,-438 2078,-438 2078,-408 1956,-408"/>
<text text-anchor="start" x="1964" y="-426" font-family="Helvetica,sans-Serif" font-size="10.00" fill="#000000">drake/multibody/rigid</text>
<text text-anchor="middle" x="2017" y="-415" font-family="Helvetica,sans-Serif" font-size="10.00" fill="#000000">_body_tree.h</text>
</g>
<!-- Node0&#45;&gt;Node39 -->
<g id="edge73" class="edge">
<title>Node0&#45;&gt;Node39</title>
<path fill="none" stroke="#191970" d="M1602.5238,-493.843C1689.2841,-485.4854 1828.6455,-469.465 1947,-444 1951.4461,-443.0434 1956.0194,-441.943 1960.5972,-440.7578"/>
<polygon fill="#191970" stroke="#191970" points="1961.8431,-444.0464 1970.5782,-438.0506 1960.0107,-437.2905 1961.8431,-444.0464"/>
</g>
<!-- Node40 -->
<g id="node41" class="node">
<title>Node40</title>
<polygon fill="#ffffff" stroke="#bfbfbf" points="2096.5,-408 2096.5,-438 2239.5,-438 2239.5,-408 2096.5,-408"/>
<text text-anchor="start" x="2104.5" y="-426" font-family="Helvetica,sans-Serif" font-size="10.00" fill="#000000">drake/systems/controllers</text>
<text text-anchor="middle" x="2168" y="-415" font-family="Helvetica,sans-Serif" font-size="10.00" fill="#000000">/side.h</text>
</g>
<!-- Node0&#45;&gt;Node40 -->
<g id="edge74" class="edge">
<title>Node0&#45;&gt;Node40</title>
<path fill="none" stroke="#191970" d="M1602.808,-496.6269C1714.1117,-489.9003 1916.5127,-474.4682 2087,-444 2092.7717,-442.9685 2098.7368,-441.7403 2104.6909,-440.4031"/>
<polygon fill="#191970" stroke="#191970" points="2105.7273,-443.7551 2114.6645,-438.0651 2104.1296,-436.9398 2105.7273,-443.7551"/>
</g>
<!-- Node41 -->
<g id="node42" class="node">
<title>Node41</title>
<polygon fill="#ffffff" stroke="#bfbfbf" points="2257.5,-408 2257.5,-438 2400.5,-438 2400.5,-408 2257.5,-408"/>
<text text-anchor="start" x="2265.5" y="-426" font-family="Helvetica,sans-Serif" font-size="10.00" fill="#000000">drake/systems/controllers</text>
<text text-anchor="middle" x="2329" y="-415" font-family="Helvetica,sans-Serif" font-size="10.00" fill="#000000">/zmpUtil.h</text>
</g>
<!-- Node0&#45;&gt;Node41 -->
<g id="edge75" class="edge">
<title>Node0&#45;&gt;Node41</title>
<path fill="none" stroke="#191970" d="M1602.5203,-499.3242C1738.7677,-495.5084 2016.952,-483.1918 2249,-444 2254.8959,-443.0042 2260.9903,-441.7768 2267.0628,-440.4194"/>
<polygon fill="#191970" stroke="#191970" points="2268.2893,-443.7265 2277.2226,-438.0302 2266.6869,-436.9123 2268.2893,-443.7265"/>
</g>
<!-- Node42 -->
<g id="node43" class="node">
<title>Node42</title>
<polygon fill="#ffffff" stroke="#bfbfbf" points="2419,-408 2419,-438 2585,-438 2585,-408 2419,-408"/>
<text text-anchor="start" x="2427" y="-426" font-family="Helvetica,sans-Serif" font-size="10.00" fill="#000000">drake/systems/robotInterfaces</text>
<text text-anchor="middle" x="2502" y="-415" font-family="Helvetica,sans-Serif" font-size="10.00" fill="#000000">/BodyMotionData.h</text>
</g>
<!-- Node0&#45;&gt;Node42 -->
<g id="edge76" class="edge">
<title>Node0&#45;&gt;Node42</title>
<path fill="none" stroke="#191970" d="M1602.6489,-497.3682C1793.3349,-488.81 2255.6452,-466.4058 2410,-444 2417.3276,-442.9363 2424.9353,-441.5937 2432.4959,-440.1038"/>
<polygon fill="#191970" stroke="#191970" points="2433.2903,-443.5138 2442.3804,-438.0714 2431.8804,-436.6572 2433.2903,-443.5138"/>
</g>
<!-- Node7&#45;&gt;Node3 -->
<g id="edge9" class="edge">
<title>Node7&#45;&gt;Node3</title>
<path fill="none" stroke="#191970" d="M489.6036,-404.5186C528.505,-393.9472 570.0777,-380.0285 584,-366 619.5721,-330.1564 628.7968,-267.9032 631.1787,-236.2314"/>
<polygon fill="#191970" stroke="#191970" points="634.6842,-236.2418 631.7828,-226.052 627.6965,-235.8271 634.6842,-236.2418"/>
</g>
<!-- Node7&#45;&gt;Node4 -->
<g id="edge10" class="edge">
<title>Node7&#45;&gt;Node4</title>
<path fill="none" stroke="#191970" d="M399.0869,-402.3557C383.1429,-371.8398 359.0532,-313.4084 379,-268 381.9581,-261.2659 454.1365,-197.0176 489.21,-166.0421"/>
<polygon fill="#191970" stroke="#191970" points="491.6912,-168.5205 496.8752,-159.2805 487.0606,-163.271 491.6912,-168.5205"/>
</g>
<!-- Node8 -->
<g id="node9" class="node">
<title>Node8</title>
<polygon fill="#ffffff" stroke="#bfbfbf" points="112,-6 112,-25 170,-25 170,-6 112,-6"/>
<text text-anchor="middle" x="141" y="-13" font-family="Helvetica,sans-Serif" font-size="10.00" fill="#000000">memory</text>
</g>
<!-- Node7&#45;&gt;Node8 -->
<g id="edge8" class="edge">
<title>Node7&#45;&gt;Node8</title>
<path fill="none" stroke="#191970" d="M332.2414,-412.6271C212.9006,-394.6741 0,-352.9183 0,-283.5 0,-283.5 0,-283.5 0,-149.5 0,-108.555 12.2561,-96.1596 41,-67 57.9649,-49.7898 81.8956,-37.1841 102.0933,-28.753"/>
<polygon fill="#191970" stroke="#191970" points="103.6632,-31.8953 111.6618,-24.9475 101.0763,-25.3909 103.6632,-31.8953"/>
</g>
<!-- Node9 -->
<g id="node10" class="node">
<title>Node9</title>
<g id="a_node10"><a xlink:href="drake__assert_8h.html" target="_top" xlink:title="Provides Drake&#39;s assertion implementation. ">
<polygon fill="#ffffff" stroke="#000000" points="1116.5,-67.5 1116.5,-97.5 1237.5,-97.5 1237.5,-67.5 1116.5,-67.5"/>
<text text-anchor="start" x="1124.5" y="-85.5" font-family="Helvetica,sans-Serif" font-size="10.00" fill="#000000">drake/common/drake</text>
<text text-anchor="middle" x="1177" y="-74.5" font-family="Helvetica,sans-Serif" font-size="10.00" fill="#000000">_assert.h</text>
</a>
</g>
</g>
<!-- Node7&#45;&gt;Node9 -->
<g id="edge11" class="edge">
<title>Node7&#45;&gt;Node9</title>
<path fill="none" stroke="#191970" d="M489.5889,-421.0581C710.9227,-413.7722 1331.4101,-380.2519 1455,-232 1463.8223,-221.4173 1463.3084,-211.9908 1455,-201 1419.6215,-154.199 1380.0316,-192.1052 1328,-165 1308.6697,-154.9301 1308.5133,-145.503 1290,-134 1269.9228,-121.5253 1246.3167,-110.2898 1225.8868,-101.5202"/>
<polygon fill="#191970" stroke="#191970" points="1227.0204,-98.1999 1216.4459,-97.544 1224.3034,-104.6511 1227.0204,-98.1999"/>
</g>
<!-- Node11 -->
<g id="node12" class="node">
<title>Node11</title>
<g id="a_node12"><a xlink:href="drake__copyable_8h.html" target="_top" xlink:title="Provides careful macros to selectively enable or disable the special member functions for copy&#45;constr...">
<polygon fill="#ffffff" stroke="#000000" points="188.5,-.5 188.5,-30.5 309.5,-30.5 309.5,-.5 188.5,-.5"/>
<text text-anchor="start" x="196.5" y="-18.5" font-family="Helvetica,sans-Serif" font-size="10.00" fill="#000000">drake/common/drake</text>
<text text-anchor="middle" x="249" y="-7.5" font-family="Helvetica,sans-Serif" font-size="10.00" fill="#000000">_copyable.h</text>
</a>
</g>
</g>
<!-- Node7&#45;&gt;Node11 -->
<g id="edge13" class="edge">
<title>Node7&#45;&gt;Node11</title>
<path fill="none" stroke="#191970" d="M332.4574,-406.6928C233.4415,-383.8294 76,-338.7832 76,-283.5 76,-283.5 76,-283.5 76,-149.5 76,-90.7892 139.0446,-54.1302 189.0174,-34.2944"/>
<polygon fill="#191970" stroke="#191970" points="190.4074,-37.51 198.4962,-30.6674 187.9057,-30.9723 190.4074,-37.51"/>
</g>
<!-- Node12 -->
<g id="node13" class="node">
<title>Node12</title>
<g id="a_node13"><a xlink:href="eigen__types_8h.html" target="_top" xlink:title="This file contains abbreviated definitions for certain specializations of Eigen::Matrix that are comm...">
<polygon fill="#ffffff" stroke="#000000" points="332,-67.5 332,-97.5 452,-97.5 452,-67.5 332,-67.5"/>
<text text-anchor="start" x="340" y="-85.5" font-family="Helvetica,sans-Serif" font-size="10.00" fill="#000000">drake/common/eigen</text>
<text text-anchor="middle" x="392" y="-74.5" font-family="Helvetica,sans-Serif" font-size="10.00" fill="#000000">_types.h</text>
</a>
</g>
</g>
<!-- Node7&#45;&gt;Node12 -->
<g id="edge14" class="edge">
<title>Node7&#45;&gt;Node12</title>
<path fill="none" stroke="#191970" d="M332.4614,-407.1379C268.9397,-389.1897 190,-352.9198 190,-283.5 190,-283.5 190,-283.5 190,-216.5 190,-151.4554 263.6305,-116.1074 321.9835,-98.307"/>
<polygon fill="#191970" stroke="#191970" points="323.3268,-101.5607 331.9403,-95.3915 321.3596,-94.8427 323.3268,-101.5607"/>
</g>
<!-- Node7&#45;&gt;Node15 -->
<g id="edge19" class="edge">
<title>Node7&#45;&gt;Node15</title>
<path fill="none" stroke="#191970" d="M436.2658,-402.4183C447.9573,-392.8944 461.8422,-381.5836 473.663,-371.9543"/>
<polygon fill="#191970" stroke="#191970" points="475.9219,-374.6285 481.4645,-365.5991 471.5009,-369.2013 475.9219,-374.6285"/>
</g>
<!-- Node10 -->
<g id="node11" class="node">
<title>Node10</title>
<polygon fill="#ffffff" stroke="#bfbfbf" points="1142.5,-6 1142.5,-25 1211.5,-25 1211.5,-6 1142.5,-6"/>
<text text-anchor="middle" x="1177" y="-13" font-family="Helvetica,sans-Serif" font-size="10.00" fill="#000000">type_traits</text>
</g>
<!-- Node9&#45;&gt;Node10 -->
<g id="edge12" class="edge">
<title>Node9&#45;&gt;Node10</title>
<path fill="none" stroke="#191970" d="M1177,-67.2967C1177,-57.7699 1177,-45.3954 1177,-35.1306"/>
<polygon fill="#191970" stroke="#191970" points="1180.5001,-35.0549 1177,-25.055 1173.5001,-35.055 1180.5001,-35.0549"/>
</g>
<!-- Node12&#45;&gt;Node8 -->
<g id="edge15" class="edge">
<title>Node12&#45;&gt;Node8</title>
<path fill="none" stroke="#191970" d="M331.985,-70.2716C289.1927,-60.9841 230.5262,-47.0903 180,-31 177.7155,-30.2725 175.3739,-29.4759 173.0277,-28.64"/>
<polygon fill="#191970" stroke="#191970" points="174.0828,-25.2977 163.4907,-25.0589 171.6221,-31.8509 174.0828,-25.2977"/>
</g>
<!-- Node12&#45;&gt;Node11 -->
<g id="edge18" class="edge">
<title>Node12&#45;&gt;Node11</title>
<path fill="none" stroke="#191970" d="M359.908,-67.4639C339.445,-57.8763 312.7194,-45.3545 290.6306,-35.0052"/>
<polygon fill="#191970" stroke="#191970" points="292.02,-31.7911 281.4796,-30.7177 289.05,-38.1299 292.02,-31.7911"/>
</g>
<!-- Node13 -->
<g id="node14" class="node">
<title>Node13</title>
<polygon fill="#ffffff" stroke="#bfbfbf" points="755.5,-6 755.5,-25 832.5,-25 832.5,-6 755.5,-6"/>
<text text-anchor="middle" x="794" y="-13" font-family="Helvetica,sans-Serif" font-size="10.00" fill="#000000">Eigen/Dense</text>
</g>
<!-- Node12&#45;&gt;Node13 -->
<g id="edge16" class="edge">
<title>Node12&#45;&gt;Node13</title>
<path fill="none" stroke="#191970" d="M452.1835,-72.4694C532.0952,-59.1508 671.6835,-35.8861 745.3234,-23.6128"/>
<polygon fill="#191970" stroke="#191970" points="745.975,-27.0525 755.2635,-21.9561 744.8242,-20.1478 745.975,-27.0525"/>
</g>
<!-- Node14 -->
<g id="node15" class="node">
<title>Node14</title>
<g id="a_node15"><a xlink:href="constants_8h.html" target="_top" xlink:title="drake/common/constants.h">
<polygon fill="#ffffff" stroke="#000000" points="327.5,-6 327.5,-25 476.5,-25 476.5,-6 327.5,-6"/>
<text text-anchor="middle" x="402" y="-13" font-family="Helvetica,sans-Serif" font-size="10.00" fill="#000000">drake/common/constants.h</text>
</a>
</g>
</g>
<!-- Node12&#45;&gt;Node14 -->
<g id="edge17" class="edge">
<title>Node12&#45;&gt;Node14</title>
<path fill="none" stroke="#191970" d="M394.2692,-67.2967C395.6911,-57.7699 397.538,-45.3954 399.0701,-35.1306"/>
<polygon fill="#191970" stroke="#191970" points="402.5593,-35.4621 400.5739,-25.055 395.636,-34.4287 402.5593,-35.4621"/>
</g>
<!-- Node15&#45;&gt;Node3 -->
<g id="edge22" class="edge">
<title>Node15&#45;&gt;Node3</title>
<path fill="none" stroke="#191970" d="M528.7516,-335.3535C544.4504,-326.1885 563.5713,-313.4864 578,-299 597.0737,-279.8501 613.1608,-252.9396 622.6899,-235.1258"/>
<polygon fill="#191970" stroke="#191970" points="625.9031,-236.5324 627.4012,-226.044 619.6894,-233.3089 625.9031,-236.5324"/>
</g>
<!-- Node15&#45;&gt;Node4 -->
<g id="edge23" class="edge">
<title>Node15&#45;&gt;Node4</title>
<path fill="none" stroke="#191970" d="M519.373,-335.0644C529.3873,-325.809 540.6149,-313.1127 546,-299 550.9118,-286.1275 549.3126,-281.3736 546,-268 541.6502,-250.439 533.3053,-248.9574 527,-232 519.2683,-211.2064 514.0489,-186.2533 511.067,-169.274"/>
<polygon fill="#191970" stroke="#191970" points="514.517,-168.6834 509.4267,-159.3915 507.6114,-169.8297 514.517,-168.6834"/>
</g>
<!-- Node15&#45;&gt;Node8 -->
<g id="edge21" class="edge">
<title>Node15&#45;&gt;Node8</title>
<path fill="none" stroke="#191970" d="M425.4609,-343.2323C339.9171,-334.2007 205.335,-317.6802 158,-299 97.7968,-275.2416 38,-281.2216 38,-216.5 38,-216.5 38,-216.5 38,-149.5 38,-111.3133 39.2536,-97.6728 62,-67 73.984,-50.84 92.6655,-38.3278 108.8535,-29.6849"/>
<polygon fill="#191970" stroke="#191970" points="110.6835,-32.6816 118.0272,-25.0449 107.524,-26.4352 110.6835,-32.6816"/>
</g>
<!-- Node15&#45;&gt;Node11 -->
<g id="edge24" class="edge">
<title>Node15&#45;&gt;Node11</title>
<path fill="none" stroke="#191970" d="M425.1176,-340.0781C312.8667,-322.324 114,-281.6734 114,-216.5 114,-216.5 114,-216.5 114,-149.5 114,-96.4986 167.0632,-57.285 206.6541,-35.4036"/>
<polygon fill="#191970" stroke="#191970" points="208.4591,-38.4075 215.6292,-30.6075 205.1599,-32.2338 208.4591,-38.4075"/>
</g>
<!-- Node15&#45;&gt;Node12 -->
<g id="edge25" class="edge">
<title>Node15&#45;&gt;Node12</title>
<path fill="none" stroke="#191970" d="M425.3691,-338.2662C365.3808,-324.0306 285.0621,-294.0038 247,-232 214.0084,-178.256 293.273,-128.3512 347.1491,-102"/>
<polygon fill="#191970" stroke="#191970" points="348.7039,-105.1362 356.2179,-97.6669 345.686,-98.8201 348.7039,-105.1362"/>
</g>
<!-- Node16 -->
<g id="node17" class="node">
<title>Node16</title>
<polygon fill="#ffffff" stroke="#bfbfbf" points="1555,-6 1555,-25 1599,-25 1599,-6 1555,-6"/>
<text text-anchor="middle" x="1577" y="-13" font-family="Helvetica,sans-Serif" font-size="10.00" fill="#000000">limits</text>
</g>
<!-- Node15&#45;&gt;Node16 -->
<g id="edge20" class="edge">
<title>Node15&#45;&gt;Node16</title>
<path fill="none" stroke="#191970" d="M574.5164,-348.6232C737.2331,-342.9368 1135.3525,-320.3555 1455,-232 1529.3076,-211.4602 1572.2928,-229.1841 1615,-165 1642.5761,-123.5563 1610.0713,-63.4769 1590.1967,-33.6751"/>
<polygon fill="#191970" stroke="#191970" points="1592.8485,-31.3564 1584.2799,-25.125 1587.0924,-35.3398 1592.8485,-31.3564"/>
</g>
<!-- Node17 -->
<g id="node18" class="node">
<title>Node17</title>
<g id="a_node18"><a xlink:href="polynomial_8h.html" target="_top" xlink:title="drake/common/polynomial.h">
<polygon fill="#ffffff" stroke="#000000" points="822.5,-274 822.5,-293 979.5,-293 979.5,-274 822.5,-274"/>
<text text-anchor="middle" x="901" y="-281" font-family="Helvetica,sans-Serif" font-size="10.00" fill="#000000">drake/common/polynomial.h</text>
</a>
</g>
</g>
<!-- Node15&#45;&gt;Node17 -->
<g id="edge26" class="edge">
<title>Node15&#45;&gt;Node17</title>
<path fill="none" stroke="#191970" d="M574.9546,-337.9764C649.2798,-325.558 762.1193,-306.7045 833.6656,-294.7504"/>
<polygon fill="#191970" stroke="#191970" points="834.6261,-298.1385 843.9125,-293.0383 833.4724,-291.2342 834.6261,-298.1385"/>
</g>
<!-- Node35 -->
<g id="node36" class="node">
<title>Node35</title>
<g id="a_node36"><a xlink:href="piecewise__trajectory_8h.html" target="_top" xlink:title="drake/common/trajectories\l/piecewise_trajectory.h">
<polygon fill="#ffffff" stroke="#000000" points="387.5,-268.5 387.5,-298.5 536.5,-298.5 536.5,-268.5 387.5,-268.5"/>
<text text-anchor="start" x="395.5" y="-286.5" font-family="Helvetica,sans-Serif" font-size="10.00" fill="#000000">drake/common/trajectories</text>
<text text-anchor="middle" x="462" y="-275.5" font-family="Helvetica,sans-Serif" font-size="10.00" fill="#000000">/piecewise_trajectory.h</text>
</a>
</g>
</g>
<!-- Node15&#45;&gt;Node35 -->
<g id="edge60" class="edge">
<title>Node15&#45;&gt;Node35</title>
<path fill="none" stroke="#191970" d="M491.3772,-335.2967C486.713,-327.0729 480.8453,-316.7272 475.5826,-307.4483"/>
<polygon fill="#191970" stroke="#191970" points="478.5665,-305.6148 470.5887,-298.6432 472.4777,-309.0683 478.5665,-305.6148"/>
</g>
<!-- Node17&#45;&gt;Node1 -->
<g id="edge28" class="edge">
<title>Node17&#45;&gt;Node1</title>
<path fill="none" stroke="#191970" d="M979.5883,-277.1384C1085.3675,-268.055 1267.7057,-250.4198 1332,-232 1333.9167,-231.4509 1335.8614,-230.8022 1337.7981,-230.0868"/>
<polygon fill="#191970" stroke="#191970" points="1339.3922,-233.2132 1347.2493,-226.1056 1336.6748,-226.7622 1339.3922,-233.2132"/>
</g>
<!-- Node17&#45;&gt;Node2 -->
<g id="edge32" class="edge">
<title>Node17&#45;&gt;Node2</title>
<path fill="none" stroke="#191970" d="M979.8013,-278.6961C1098.5651,-270.873 1317.564,-254.0167 1393,-232 1394.7076,-231.5016 1396.4342,-230.9117 1398.1527,-230.2579"/>
<polygon fill="#191970" stroke="#191970" points="1399.9986,-233.2678 1407.7166,-226.0095 1397.1568,-226.8705 1399.9986,-233.2678"/>
</g>
<!-- Node17&#45;&gt;Node3 -->
<g id="edge33" class="edge">
<title>Node17&#45;&gt;Node3</title>
<path fill="none" stroke="#191970" d="M862.7445,-273.9717C809.9564,-260.8237 715.6321,-237.3303 665.4894,-224.8412"/>
<polygon fill="#191970" stroke="#191970" points="666.3324,-221.4443 655.783,-222.4236 664.6406,-228.2368 666.3324,-221.4443"/>
</g>
<!-- Node17&#45;&gt;Node4 -->
<g id="edge34" class="edge">
<title>Node17&#45;&gt;Node4</title>
<path fill="none" stroke="#191970" d="M860.4912,-273.9873C827.5532,-265.4123 780.4128,-251.1995 742,-232 720.6023,-221.305 719.651,-211.1726 698,-201 650.6219,-178.7398 591.9224,-164.6809 552.4089,-156.9781"/>
<polygon fill="#191970" stroke="#191970" points="553.0231,-153.5322 542.5463,-155.1098 551.7202,-160.4099 553.0231,-153.5322"/>
</g>
<!-- Node17&#45;&gt;Node9 -->
<g id="edge59" class="edge">
<title>Node17&#45;&gt;Node9</title>
<path fill="none" stroke="#191970" d="M979.9328,-278.8048C1089.9451,-271.4433 1278.3014,-255.5495 1299,-232 1338.5586,-186.9928 1263.2799,-131.8955 1214.3257,-102.7797"/>
<polygon fill="#191970" stroke="#191970" points="1215.9276,-99.6623 1205.5248,-97.6538 1212.4045,-105.7112 1215.9276,-99.6623"/>
</g>
<!-- Node18 -->
<g id="node19" class="node">
<title>Node18</title>
<polygon fill="#ffffff" stroke="#bfbfbf" points="750.5,-207 750.5,-226 809.5,-226 809.5,-207 750.5,-207"/>
<text text-anchor="middle" x="780" y="-214" font-family="Helvetica,sans-Serif" font-size="10.00" fill="#000000">complex</text>
</g>
<!-- Node17&#45;&gt;Node18 -->
<g id="edge27" class="edge">
<title>Node17&#45;&gt;Node18</title>
<path fill="none" stroke="#191970" d="M883.6637,-273.9005C863.447,-262.7062 829.8128,-244.0823 806.3576,-231.0947"/>
<polygon fill="#191970" stroke="#191970" points="807.7481,-227.8639 797.3042,-226.0817 804.3571,-233.9878 807.7481,-227.8639"/>
</g>
<!-- Node19 -->
<g id="node20" class="node">
<title>Node19</title>
<polygon fill="#ffffff" stroke="#bfbfbf" points="536,-207 536,-226 590,-226 590,-207 536,-207"/>
<text text-anchor="middle" x="563" y="-214" font-family="Helvetica,sans-Serif" font-size="10.00" fill="#000000">random</text>
</g>
<!-- Node17&#45;&gt;Node19 -->
<g id="edge29" class="edge">
<title>Node17&#45;&gt;Node19</title>
<path fill="none" stroke="#191970" d="M822.2552,-275.0006C760.8754,-267.1895 673.9413,-253.5091 600,-232 597.6866,-231.327 595.3228,-230.5529 592.9645,-229.7173"/>
<polygon fill="#191970" stroke="#191970" points="594.0329,-226.3779 583.4435,-226.0371 591.5091,-232.9072 594.0329,-226.3779"/>
</g>
<!-- Node20 -->
<g id="node21" class="node">
<title>Node20</title>
<polygon fill="#ffffff" stroke="#bfbfbf" points="828,-207 828,-226 860,-226 860,-207 828,-207"/>
<text text-anchor="middle" x="844" y="-214" font-family="Helvetica,sans-Serif" font-size="10.00" fill="#000000">set</text>
</g>
<!-- Node17&#45;&gt;Node20 -->
<g id="edge30" class="edge">
<title>Node17&#45;&gt;Node20</title>
<path fill="none" stroke="#191970" d="M892.8333,-273.9005C883.9446,-263.4525 869.55,-246.5325 858.6869,-233.7635"/>
<polygon fill="#191970" stroke="#191970" points="861.2972,-231.4303 852.1516,-226.0817 855.9656,-235.9662 861.2972,-231.4303"/>
</g>
<!-- Node21 -->
<g id="node22" class="node">
<title>Node21</title>
<polygon fill="#ffffff" stroke="#bfbfbf" points="1036.5,-207 1036.5,-226 1101.5,-226 1101.5,-207 1036.5,-207"/>
<text text-anchor="middle" x="1069" y="-214" font-family="Helvetica,sans-Serif" font-size="10.00" fill="#000000">stdexcept</text>
</g>
<!-- Node17&#45;&gt;Node21 -->
<g id="edge31" class="edge">
<title>Node17&#45;&gt;Node21</title>
<path fill="none" stroke="#191970" d="M925.0703,-273.9005C954.013,-262.3579 1002.7621,-242.9163 1035.4017,-229.8993"/>
<polygon fill="#191970" stroke="#191970" points="1036.9823,-233.0371 1044.9743,-226.0817 1034.3892,-226.5351 1036.9823,-233.0371"/>
</g>
<!-- Node22 -->
<g id="node23" class="node">
<title>Node22</title>
<polygon fill="#ffffff" stroke="#bfbfbf" points="1120,-207 1120,-226 1290,-226 1290,-207 1120,-207"/>
<text text-anchor="middle" x="1205" y="-214" font-family="Helvetica,sans-Serif" font-size="10.00" fill="#000000">unsupported/Eigen/Polynomials</text>
</g>
<!-- Node17&#45;&gt;Node22 -->
<g id="edge35" class="edge">
<title>Node17&#45;&gt;Node22</title>
<path fill="none" stroke="#191970" d="M944.2329,-273.9717C998.7786,-261.9501 1092.5665,-241.2797 1151.5508,-228.2799"/>
<polygon fill="#191970" stroke="#191970" points="1152.4117,-231.6743 1161.424,-226.1039 1150.905,-224.8383 1152.4117,-231.6743"/>
</g>
<!-- Node23 -->
<g id="node24" class="node">
<title>Node23</title>
<g id="a_node24"><a xlink:href="common_2autodiff_8h.html" target="_top" xlink:title="drake/common/autodiff.h">
<polygon fill="#ffffff" stroke="#000000" points="878,-207 878,-226 1018,-226 1018,-207 878,-207"/>
<text text-anchor="middle" x="948" y="-214" font-family="Helvetica,sans-Serif" font-size="10.00" fill="#000000">drake/common/autodiff.h</text>
</a>
</g>
</g>
<!-- Node17&#45;&gt;Node23 -->
<g id="edge36" class="edge">
<title>Node17&#45;&gt;Node23</title>
<path fill="none" stroke="#191970" d="M907.734,-273.9005C914.9236,-263.6515 926.4819,-247.1747 935.3748,-234.4976"/>
<polygon fill="#191970" stroke="#191970" points="938.401,-236.2783 941.2785,-226.0817 932.6704,-232.2582 938.401,-236.2783"/>
</g>
<!-- Node23&#45;&gt;Node4 -->
<g id="edge37" class="edge">
<title>Node23&#45;&gt;Node4</title>
<path fill="none" stroke="#191970" d="M901.7053,-206.9984C890.986,-204.9147 879.6111,-202.7966 869,-201 755.4512,-181.7747 620.9923,-163.8676 552.676,-155.113"/>
<polygon fill="#191970" stroke="#191970" points="553.0524,-151.6327 542.6897,-153.8381 552.1659,-158.5764 553.0524,-151.6327"/>
</g>
<!-- Node24 -->
<g id="node25" class="node">
<title>Node24</title>
<polygon fill="#ffffff" stroke="#bfbfbf" points="1042.5,-140 1042.5,-159 1193.5,-159 1193.5,-140 1042.5,-140"/>
<text text-anchor="middle" x="1118" y="-147" font-family="Helvetica,sans-Serif" font-size="10.00" fill="#000000">unsupported/Eigen/AutoDiff</text>
</g>
<!-- Node23&#45;&gt;Node24 -->
<g id="edge38" class="edge">
<title>Node23&#45;&gt;Node24</title>
<path fill="none" stroke="#191970" d="M972.3569,-206.9005C1001.6441,-195.3579 1050.9735,-175.9163 1084.0018,-162.8993"/>
<polygon fill="#191970" stroke="#191970" points="1085.6682,-166.0046 1093.6883,-159.0817 1083.1014,-159.4922 1085.6682,-166.0046"/>
</g>
<!-- Node25 -->
<g id="node26" class="node">
<title>Node25</title>
<g id="a_node26"><a xlink:href="eigen__autodiff__limits_8h.html" target="_top" xlink:title="drake/common/eigen\l_autodiff_limits.h">
<polygon fill="#ffffff" stroke="#000000" points="1486,-134.5 1486,-164.5 1606,-164.5 1606,-134.5 1486,-134.5"/>
<text text-anchor="start" x="1494" y="-152.5" font-family="Helvetica,sans-Serif" font-size="10.00" fill="#000000">drake/common/eigen</text>
<text text-anchor="middle" x="1546" y="-141.5" font-family="Helvetica,sans-Serif" font-size="10.00" fill="#000000">_autodiff_limits.h</text>
</a>
</g>
</g>
<!-- Node23&#45;&gt;Node25 -->
<g id="edge39" class="edge">
<title>Node23&#45;&gt;Node25</title>
<path fill="none" stroke="#191970" d="M992.7043,-206.9271C1004.1673,-204.7236 1016.506,-202.5693 1028,-201 1223.0627,-174.3677 1277.2764,-194.3264 1475.7093,-165.0535"/>
<polygon fill="#191970" stroke="#191970" points="1476.5131,-168.4722 1485.8837,-163.5284 1475.4753,-161.5495 1476.5131,-168.4722"/>
</g>
<!-- Node26 -->
<g id="node27" class="node">
<title>Node26</title>
<g id="a_node27"><a xlink:href="eigen__autodiff__types_8h.html" target="_top" xlink:title="This file contains abbreviated definitions for certain uses of AutoDiffScalar that are commonly used ...">
<polygon fill="#ffffff" stroke="#000000" points="734,-134.5 734,-164.5 854,-164.5 854,-134.5 734,-134.5"/>
<text text-anchor="start" x="742" y="-152.5" font-family="Helvetica,sans-Serif" font-size="10.00" fill="#000000">drake/common/eigen</text>
<text text-anchor="middle" x="794" y="-141.5" font-family="Helvetica,sans-Serif" font-size="10.00" fill="#000000">_autodiff_types.h</text>
</a>
</g>
</g>
<!-- Node23&#45;&gt;Node26 -->
<g id="edge41" class="edge">
<title>Node23&#45;&gt;Node26</title>
<path fill="none" stroke="#191970" d="M925.9356,-206.9005C903.0707,-196.9528 866.7207,-181.1382 837.9599,-168.6254"/>
<polygon fill="#191970" stroke="#191970" points="839.0937,-165.3018 828.5276,-164.5218 836.3011,-171.7207 839.0937,-165.3018"/>
</g>
<!-- Node27 -->
<g id="node28" class="node">
<title>Node27</title>
<g id="a_node28"><a xlink:href="autodiffxd_8h.html" target="_top" xlink:title="drake/common/autodiffxd.h">
<polygon fill="#ffffff" stroke="#000000" points="872,-140 872,-159 1024,-159 1024,-140 872,-140"/>
<text text-anchor="middle" x="948" y="-147" font-family="Helvetica,sans-Serif" font-size="10.00" fill="#000000">drake/common/autodiffxd.h</text>
</a>
</g>
</g>
<!-- Node23&#45;&gt;Node27 -->
<g id="edge45" class="edge">
<title>Node23&#45;&gt;Node27</title>
<path fill="none" stroke="#191970" d="M948,-206.9005C948,-197.149 948,-181.7597 948,-169.3695"/>
<polygon fill="#191970" stroke="#191970" points="951.5001,-169.0816 948,-159.0817 944.5001,-169.0817 951.5001,-169.0816"/>
</g>
<!-- Node30 -->
<g id="node31" class="node">
<title>Node30</title>
<g id="a_node31"><a xlink:href="autodiff__overloads_8h.html" target="_top" xlink:title="Overloads for STL mathematical operations on AutoDiffScalar. ">
<polygon fill="#ffffff" stroke="#000000" points="1336.5,-134.5 1336.5,-164.5 1467.5,-164.5 1467.5,-134.5 1336.5,-134.5"/>
<text text-anchor="start" x="1344.5" y="-152.5" font-family="Helvetica,sans-Serif" font-size="10.00" fill="#000000">drake/common/autodiff</text>
<text text-anchor="middle" x="1402" y="-141.5" font-family="Helvetica,sans-Serif" font-size="10.00" fill="#000000">_overloads.h</text>
</a>
</g>
</g>
<!-- Node23&#45;&gt;Node30 -->
<g id="edge49" class="edge">
<title>Node23&#45;&gt;Node30</title>
<path fill="none" stroke="#191970" d="M994.8784,-206.9736C1005.7335,-204.8911 1017.253,-202.7797 1028,-201 1130.8268,-183.972 1250.2175,-168.2271 1325.9175,-158.7416"/>
<polygon fill="#191970" stroke="#191970" points="1326.8134,-162.157 1336.3029,-157.4452 1325.9463,-155.2109 1326.8134,-162.157"/>
</g>
<!-- Node25&#45;&gt;Node16 -->
<g id="edge40" class="edge">
<title>Node25&#45;&gt;Node16</title>
<path fill="none" stroke="#191970" d="M1555.7002,-134.3867C1561.538,-124.4591 1568.4975,-110.9561 1572,-98 1577.5984,-77.2913 1578.3632,-52.6341 1578.0307,-35.7026"/>
<polygon fill="#191970" stroke="#191970" points="1581.5165,-35.2308 1577.671,-25.3585 1574.5207,-35.4741 1581.5165,-35.2308"/>
</g>
<!-- Node26&#45;&gt;Node10 -->
<g id="edge42" class="edge">
<title>Node26&#45;&gt;Node10</title>
<path fill="none" stroke="#191970" d="M810.4464,-134.4208C831.9171,-115.6031 871.4414,-83.8512 911,-67 984.7891,-35.5673 1078.2889,-23.1595 1132.5073,-18.3778"/>
<polygon fill="#191970" stroke="#191970" points="1132.8106,-21.8647 1142.4849,-17.5452 1132.2285,-14.889 1132.8106,-21.8647"/>
</g>
<!-- Node26&#45;&gt;Node12 -->
<g id="edge44" class="edge">
<title>Node26&#45;&gt;Node12</title>
<path fill="none" stroke="#191970" d="M733.8165,-139.4694C661.1829,-127.3638 539.2481,-107.0413 462.3435,-94.2239"/>
<polygon fill="#191970" stroke="#191970" points="462.7052,-90.736 452.2658,-92.5443 461.5543,-97.6408 462.7052,-90.736"/>
</g>
<!-- Node26&#45;&gt;Node13 -->
<g id="edge43" class="edge">
<title>Node26&#45;&gt;Node13</title>
<path fill="none" stroke="#191970" d="M794,-134.389C794,-110.0735 794,-62.2644 794,-35.2698"/>
<polygon fill="#191970" stroke="#191970" points="797.5001,-35.1041 794,-25.1042 790.5001,-35.1042 797.5001,-35.1041"/>
</g>
<!-- Node27&#45;&gt;Node13 -->
<g id="edge48" class="edge">
<title>Node27&#45;&gt;Node13</title>
<path fill="none" stroke="#191970" d="M936.9247,-139.8631C910.8414,-117.1672 845.3062,-60.1431 812.8359,-31.8897"/>
<polygon fill="#191970" stroke="#191970" points="814.8164,-28.9735 804.9749,-25.0496 810.2214,-34.2543 814.8164,-28.9735"/>
</g>
<!-- Node28 -->
<g id="node29" class="node">
<title>Node28</title>
<polygon fill="#ffffff" stroke="#bfbfbf" points="1023.5,-73 1023.5,-92 1070.5,-92 1070.5,-73 1023.5,-73"/>
<text text-anchor="middle" x="1047" y="-80" font-family="Helvetica,sans-Serif" font-size="10.00" fill="#000000">cmath</text>
</g>
<!-- Node27&#45;&gt;Node28 -->
<g id="edge46" class="edge">
<title>Node27&#45;&gt;Node28</title>
<path fill="none" stroke="#191970" d="M962.1843,-139.9005C978.4311,-128.9052 1005.2691,-110.7422 1024.4034,-97.7927"/>
<polygon fill="#191970" stroke="#191970" points="1026.522,-100.5851 1032.842,-92.0817 1022.5986,-94.7879 1026.522,-100.5851"/>
</g>
<!-- Node29 -->
<g id="node30" class="node">
<title>Node29</title>
<polygon fill="#ffffff" stroke="#bfbfbf" points="919.5,-73 919.5,-92 976.5,-92 976.5,-73 919.5,-73"/>
<text text-anchor="middle" x="948" y="-80" font-family="Helvetica,sans-Serif" font-size="10.00" fill="#000000">ostream</text>
</g>
<!-- Node27&#45;&gt;Node29 -->
<g id="edge47" class="edge">
<title>Node27&#45;&gt;Node29</title>
<path fill="none" stroke="#191970" d="M948,-139.9005C948,-130.149 948,-114.7597 948,-102.3695"/>
<polygon fill="#191970" stroke="#191970" points="951.5001,-102.0816 948,-92.0817 944.5001,-102.0817 951.5001,-102.0816"/>
</g>
<!-- Node30&#45;&gt;Node9 -->
<g id="edge56" class="edge">
<title>Node30&#45;&gt;Node9</title>
<path fill="none" stroke="#191970" d="M1351.5056,-134.4639C1317.7528,-124.4131 1273.1708,-111.1375 1237.5175,-100.5208"/>
<polygon fill="#191970" stroke="#191970" points="1238.2976,-97.1013 1227.7146,-97.6017 1236.2998,-103.8101 1238.2976,-97.1013"/>
</g>
<!-- Node30&#45;&gt;Node16 -->
<g id="edge51" class="edge">
<title>Node30&#45;&gt;Node16</title>
<path fill="none" stroke="#191970" d="M1467.6761,-136.0735C1492.4032,-128.3299 1519.2808,-116.3469 1539,-98 1557.3367,-80.9393 1567.5475,-53.2921 1572.6572,-34.7616"/>
<polygon fill="#191970" stroke="#191970" points="1576.0539,-35.6053 1575.0991,-25.0536 1569.2654,-33.8977 1576.0539,-35.6053"/>
</g>
<!-- Node30&#45;&gt;Node28 -->
<g id="edge50" class="edge">
<title>Node30&#45;&gt;Node28</title>
<path fill="none" stroke="#191970" d="M1336.335,-139.4522C1276.5715,-129.9627 1186.0292,-114.7228 1108,-98 1098.9952,-96.0701 1089.3079,-93.731 1080.3635,-91.4612"/>
<polygon fill="#191970" stroke="#191970" points="1081.2143,-88.0661 1070.6567,-88.9535 1079.4633,-94.8436 1081.2143,-88.0661"/>
</g>
<!-- Node31 -->
<g id="node32" class="node">
<title>Node31</title>
<g id="a_node32"><a xlink:href="cond_8h.html" target="_top" xlink:title="drake/common/cond.h">
<polygon fill="#ffffff" stroke="#000000" points="1255.5,-73 1255.5,-92 1380.5,-92 1380.5,-73 1255.5,-73"/>
<text text-anchor="middle" x="1318" y="-80" font-family="Helvetica,sans-Serif" font-size="10.00" fill="#000000">drake/common/cond.h</text>
</a>
</g>
</g>
<!-- Node30&#45;&gt;Node31 -->
<g id="edge52" class="edge">
<title>Node30&#45;&gt;Node31</title>
<path fill="none" stroke="#191970" d="M1382.9391,-134.2967C1369.4703,-123.5537 1351.4615,-109.1895 1337.8252,-98.3129"/>
<polygon fill="#191970" stroke="#191970" points="1339.9796,-95.5544 1329.9794,-92.055 1335.6147,-101.0268 1339.9796,-95.5544"/>
</g>
<!-- Node34 -->
<g id="node35" class="node">
<title>Node34</title>
<g id="a_node35"><a xlink:href="dummy__value_8h.html" target="_top" xlink:title="drake/common/dummy\l_value.h">
<polygon fill="#ffffff" stroke="#000000" points="1398.5,-67.5 1398.5,-97.5 1529.5,-97.5 1529.5,-67.5 1398.5,-67.5"/>
<text text-anchor="start" x="1406.5" y="-85.5" font-family="Helvetica,sans-Serif" font-size="10.00" fill="#000000">drake/common/dummy</text>
<text text-anchor="middle" x="1464" y="-74.5" font-family="Helvetica,sans-Serif" font-size="10.00" fill="#000000">_value.h</text>
</a>
</g>
</g>
<!-- Node30&#45;&gt;Node34 -->
<g id="edge57" class="edge">
<title>Node30&#45;&gt;Node34</title>
<path fill="none" stroke="#191970" d="M1416.0688,-134.2967C1424.0751,-125.6446 1434.255,-114.6438 1443.172,-105.0076"/>
<polygon fill="#191970" stroke="#191970" points="1445.7639,-107.36 1449.9869,-97.6432 1440.6261,-102.6057 1445.7639,-107.36"/>
</g>
<!-- Node31&#45;&gt;Node10 -->
<g id="edge54" class="edge">
<title>Node31&#45;&gt;Node10</title>
<path fill="none" stroke="#191970" d="M1297.7981,-72.9005C1273.821,-61.5072 1233.6479,-42.4178 1206.2679,-29.4075"/>
<polygon fill="#191970" stroke="#191970" points="1207.6987,-26.2123 1197.1644,-25.0817 1204.6944,-32.5348 1207.6987,-26.2123"/>
</g>
<!-- Node32 -->
<g id="node33" class="node">
<title>Node32</title>
<polygon fill="#ffffff" stroke="#bfbfbf" points="1257.5,-6 1257.5,-25 1322.5,-25 1322.5,-6 1257.5,-6"/>
<text text-anchor="middle" x="1290" y="-13" font-family="Helvetica,sans-Serif" font-size="10.00" fill="#000000">functional</text>
</g>
<!-- Node31&#45;&gt;Node32 -->
<g id="edge53" class="edge">
<title>Node31&#45;&gt;Node32</title>
<path fill="none" stroke="#191970" d="M1313.9883,-72.9005C1309.8298,-62.95 1303.2182,-47.1292 1297.9883,-34.6147"/>
<polygon fill="#191970" stroke="#191970" points="1301.0896,-32.9588 1294.0043,-25.0817 1294.6309,-35.658 1301.0896,-32.9588"/>
</g>
<!-- Node33 -->
<g id="node34" class="node">
<title>Node33</title>
<g id="a_node34"><a xlink:href="double__overloads_8h.html" target="_top" xlink:title="Provides necessary operations on double to have it as a ScalarType in drake. ">
<polygon fill="#ffffff" stroke="#000000" points="1341,-.5 1341,-30.5 1467,-30.5 1467,-.5 1341,-.5"/>
<text text-anchor="start" x="1349" y="-18.5" font-family="Helvetica,sans-Serif" font-size="10.00" fill="#000000">drake/common/double</text>
<text text-anchor="middle" x="1404" y="-7.5" font-family="Helvetica,sans-Serif" font-size="10.00" fill="#000000">_overloads.h</text>
</a>
</g>
</g>
<!-- Node31&#45;&gt;Node33 -->
<g id="edge55" class="edge">
<title>Node31&#45;&gt;Node33</title>
<path fill="none" stroke="#191970" d="M1330.3217,-72.9005C1342.3132,-63.5583 1360.9464,-49.0417 1376.4736,-36.945"/>
<polygon fill="#191970" stroke="#191970" points="1378.9808,-39.4286 1384.7183,-30.5218 1374.6787,-33.9065 1378.9808,-39.4286"/>
</g>
<!-- Node34&#45;&gt;Node16 -->
<g id="edge58" class="edge">
<title>Node34&#45;&gt;Node16</title>
<path fill="none" stroke="#191970" d="M1489.3594,-67.4639C1508.0631,-56.3741 1533.3881,-41.3584 1552.005,-30.32"/>
<polygon fill="#191970" stroke="#191970" points="1553.9857,-33.2147 1560.8023,-25.1039 1550.4156,-27.1935 1553.9857,-33.2147"/>
</g>
<!-- Node35&#45;&gt;Node3 -->
<g id="edge63" class="edge">
<title>Node35&#45;&gt;Node3</title>
<path fill="none" stroke="#191970" d="M504.6191,-268.4688C531.8334,-258.6278 567.7471,-245.1893 599,-232 600.3486,-231.4309 601.7228,-230.8381 603.107,-230.2306"/>
<polygon fill="#191970" stroke="#191970" points="604.5566,-233.4163 612.2215,-226.1019 601.6682,-227.04 604.5566,-233.4163"/>
</g>
<!-- Node35&#45;&gt;Node4 -->
<g id="edge64" class="edge">
<title>Node35&#45;&gt;Node4</title>
<path fill="none" stroke="#191970" d="M467.1874,-268.389C475.5717,-243.9649 492.0932,-195.8371 501.337,-168.9095"/>
<polygon fill="#191970" stroke="#191970" points="504.7665,-169.6988 504.703,-159.1042 498.1458,-167.426 504.7665,-169.6988"/>
</g>
<!-- Node35&#45;&gt;Node8 -->
<g id="edge61" class="edge">
<title>Node35&#45;&gt;Node8</title>
<path fill="none" stroke="#191970" d="M387.4891,-272.5672C334.3552,-263.5093 268.6447,-249.3357 247,-232 181.932,-179.8858 153.9455,-77.7889 144.7296,-35.0484"/>
<polygon fill="#191970" stroke="#191970" points="148.1261,-34.1875 142.6955,-25.0903 141.2677,-35.5885 148.1261,-34.1875"/>
</g>
<!-- Node35&#45;&gt;Node19 -->
<g id="edge62" class="edge">
<title>Node35&#45;&gt;Node19</title>
<path fill="none" stroke="#191970" d="M484.6664,-268.4639C501.1549,-257.526 523.4004,-242.769 539.9722,-231.7759"/>
<polygon fill="#191970" stroke="#191970" points="542.1241,-234.5485 548.5224,-226.1039 538.2545,-228.7153 542.1241,-234.5485"/>
</g>
<!-- Node36 -->
<g id="node37" class="node">
<title>Node36</title>
<g id="a_node37"><a xlink:href="common_2trajectories_2trajectory_8h.html" target="_top" xlink:title="drake/common/trajectories\l/trajectory.h">
<polygon fill="#ffffff" stroke="#000000" points="255.5,-201.5 255.5,-231.5 404.5,-231.5 404.5,-201.5 255.5,-201.5"/>
<text text-anchor="start" x="263.5" y="-219.5" font-family="Helvetica,sans-Serif" font-size="10.00" fill="#000000">drake/common/trajectories</text>
<text text-anchor="middle" x="330" y="-208.5" font-family="Helvetica,sans-Serif" font-size="10.00" fill="#000000">/trajectory.h</text>
</a>
</g>
</g>
<!-- Node35&#45;&gt;Node36 -->
<g id="edge65" class="edge">
<title>Node35&#45;&gt;Node36</title>
<path fill="none" stroke="#191970" d="M432.3766,-268.4639C413.6564,-258.9619 389.2579,-246.5779 368.9754,-236.283"/>
<polygon fill="#191970" stroke="#191970" points="370.4825,-233.1229 359.9812,-231.7177 367.3142,-239.3649 370.4825,-233.1229"/>
</g>
<!-- Node36&#45;&gt;Node4 -->
<g id="edge67" class="edge">
<title>Node36&#45;&gt;Node4</title>
<path fill="none" stroke="#191970" d="M369.9467,-201.4639C400.9811,-189.7824 443.5881,-173.7449 473.2279,-162.5884"/>
<polygon fill="#191970" stroke="#191970" points="474.6212,-165.8037 482.7471,-159.0053 472.1552,-159.2525 474.6212,-165.8037"/>
</g>
<!-- Node36&#45;&gt;Node8 -->
<g id="edge66" class="edge">
<title>Node36&#45;&gt;Node8</title>
<path fill="none" stroke="#191970" d="M315.7943,-201.3923C281.3311,-164.741 193.4529,-71.2832 157.1091,-32.6319"/>
<polygon fill="#191970" stroke="#191970" points="159.5739,-30.1438 150.1737,-25.2562 154.4742,-34.939 159.5739,-30.1438"/>
</g>
<!-- Node36&#45;&gt;Node11 -->
<g id="edge68" class="edge">
<title>Node36&#45;&gt;Node11</title>
<path fill="none" stroke="#191970" d="M326.0876,-201.228C318.7753,-173.6964 301.7856,-114.2155 280,-67 275.6975,-57.6752 270.1221,-47.9096 264.8882,-39.4198"/>
<polygon fill="#191970" stroke="#191970" points="267.7283,-37.3629 259.4192,-30.7895 261.8155,-41.1098 267.7283,-37.3629"/>
</g>
<!-- Node36&#45;&gt;Node12 -->
<g id="edge69" class="edge">
<title>Node36&#45;&gt;Node12</title>
<path fill="none" stroke="#191970" d="M336.9917,-201.389C347.5969,-178.4681 367.8611,-134.6712 380.6126,-107.1116"/>
<polygon fill="#191970" stroke="#191970" points="383.916,-108.3068 384.9388,-97.7614 377.5631,-105.3673 383.916,-108.3068"/>
</g>
</g>
</svg>
