<?xml version="1.0" encoding="UTF-8" standalone="no"?>
<!DOCTYPE svg PUBLIC "-//W3C//DTD SVG 1.1//EN"
 "http://www.w3.org/Graphics/SVG/1.1/DTD/svg11.dtd">
<!-- Generated by graphviz version 2.40.1 (20161225.0304)
 -->
<!-- Title: drake/multibody/tree/acceleration_kinematics_cache.h Pages: 1 -->
<svg width="1466pt" height="452pt"
 viewBox="0.00 0.00 1466.00 452.00" xmlns="http://www.w3.org/2000/svg" xmlns:xlink="http://www.w3.org/1999/xlink">
<g id="graph0" class="graph" transform="scale(1 1) rotate(0) translate(4 448)">
<title>drake/multibody/tree/acceleration_kinematics_cache.h</title>
<polygon fill="#ffffff" stroke="transparent" points="-4,4 -4,-448 1462,-448 1462,4 -4,4"/>
<!-- Node0 -->
<g id="node1" class="node">
<title>Node0</title>
<polygon fill="#bfbfbf" stroke="#000000" points="548.5,-402.5 548.5,-443.5 687.5,-443.5 687.5,-402.5 548.5,-402.5"/>
<text text-anchor="start" x="556.5" y="-431.5" font-family="Helvetica,sans-Serif" font-size="10.00" fill="#000000">drake/multibody/tree</text>
<text text-anchor="start" x="556.5" y="-420.5" font-family="Helvetica,sans-Serif" font-size="10.00" fill="#000000">/acceleration_kinematics</text>
<text text-anchor="middle" x="618" y="-409.5" font-family="Helvetica,sans-Serif" font-size="10.00" fill="#000000">_cache.h</text>
</g>
<!-- Node1 -->
<g id="node2" class="node">
<title>Node1</title>
<polygon fill="#ffffff" stroke="#bfbfbf" points="305,-6 305,-25 363,-25 363,-6 305,-6"/>
<text text-anchor="middle" x="334" y="-13" font-family="Helvetica,sans-Serif" font-size="10.00" fill="#000000">memory</text>
</g>
<!-- Node0&#45;&gt;Node1 -->
<g id="edge1" class="edge">
<title>Node0&#45;&gt;Node1</title>
<path fill="none" stroke="#191970" d="M548.0697,-421.93C420.165,-418.9592 154.205,-407.7935 73,-366 29.4672,-343.5951 0,-332.46 0,-283.5 0,-283.5 0,-283.5 0,-149.5 0,-7.3811 161.5001,-73.8666 297,-31 299.158,-30.3173 301.3645,-29.5581 303.5722,-28.7529"/>
<polygon fill="#191970" stroke="#191970" points="305.0751,-31.9234 313.1139,-25.0221 302.526,-25.404 305.0751,-31.9234"/>
</g>
<!-- Node2 -->
<g id="node3" class="node">
<title>Node2</title>
<polygon fill="#ffffff" stroke="#bfbfbf" points="1410.5,-73 1410.5,-92 1457.5,-92 1457.5,-73 1410.5,-73"/>
<text text-anchor="middle" x="1434" y="-80" font-family="Helvetica,sans-Serif" font-size="10.00" fill="#000000">vector</text>
</g>
<!-- Node0&#45;&gt;Node2 -->
<g id="edge2" class="edge">
<title>Node0&#45;&gt;Node2</title>
<path fill="none" stroke="#191970" d="M687.6962,-418.701C825.6627,-409.8322 1129.0308,-388.4489 1231,-366 1335.8348,-342.9202 1458,-390.8453 1458,-283.5 1458,-283.5 1458,-283.5 1458,-216.5 1458,-175.1404 1446.7848,-127.7088 1439.6877,-101.8342"/>
<polygon fill="#191970" stroke="#191970" points="1443.0361,-100.8128 1436.9429,-92.1455 1436.3012,-102.7208 1443.0361,-100.8128"/>
</g>
<!-- Node3 -->
<g id="node4" class="node">
<title>Node3</title>
<g id="a_node4"><a xlink:href="drake__assert_8h.html" target="_top" xlink:title="Provides Drake&#39;s assertion implementation. ">
<polygon fill="#ffffff" stroke="#000000" points="737.5,-67.5 737.5,-97.5 858.5,-97.5 858.5,-67.5 737.5,-67.5"/>
<text text-anchor="start" x="745.5" y="-85.5" font-family="Helvetica,sans-Serif" font-size="10.00" fill="#000000">drake/common/drake</text>
<text text-anchor="middle" x="798" y="-74.5" font-family="Helvetica,sans-Serif" font-size="10.00" fill="#000000">_assert.h</text>
</a>
</g>
</g>
<!-- Node0&#45;&gt;Node3 -->
<g id="edge3" class="edge">
<title>Node0&#45;&gt;Node3</title>
<path fill="none" stroke="#191970" d="M650.6678,-402.4321C684.3546,-378.4014 732,-335.2636 732,-283.5 732,-283.5 732,-283.5 732,-216.5 732,-174.0961 758.9267,-131.1924 778.3821,-105.7274"/>
<polygon fill="#191970" stroke="#191970" points="781.2006,-107.8056 784.6439,-97.7859 775.7038,-103.4714 781.2006,-107.8056"/>
</g>
<!-- Node5 -->
<g id="node6" class="node">
<title>Node5</title>
<g id="a_node6"><a xlink:href="drake__copyable_8h.html" target="_top" xlink:title="Provides careful macros to selectively enable or disable the special member functions for copy&#45;constr...">
<polygon fill="#ffffff" stroke="#000000" points="519.5,-.5 519.5,-30.5 640.5,-30.5 640.5,-.5 519.5,-.5"/>
<text text-anchor="start" x="527.5" y="-18.5" font-family="Helvetica,sans-Serif" font-size="10.00" fill="#000000">drake/common/drake</text>
<text text-anchor="middle" x="580" y="-7.5" font-family="Helvetica,sans-Serif" font-size="10.00" fill="#000000">_copyable.h</text>
</a>
</g>
</g>
<!-- Node0&#45;&gt;Node5 -->
<g id="edge5" class="edge">
<title>Node0&#45;&gt;Node5</title>
<path fill="none" stroke="#191970" d="M618,-402.2018C618,-374.9419 618,-325.6406 618,-283.5 618,-283.5 618,-283.5 618,-149.5 618,-110.0468 602.5648,-66.4537 591.3691,-40.0231"/>
<polygon fill="#191970" stroke="#191970" points="594.5399,-38.5383 587.3268,-30.778 588.1262,-41.3427 594.5399,-38.5383"/>
</g>
<!-- Node6 -->
<g id="node7" class="node">
<title>Node6</title>
<g id="a_node7"><a xlink:href="eigen__types_8h.html" target="_top" xlink:title="This file contains abbreviated definitions for certain specializations of Eigen::Matrix that are comm...">
<polygon fill="#ffffff" stroke="#000000" points="142,-67.5 142,-97.5 262,-97.5 262,-67.5 142,-67.5"/>
<text text-anchor="start" x="150" y="-85.5" font-family="Helvetica,sans-Serif" font-size="10.00" fill="#000000">drake/common/eigen</text>
<text text-anchor="middle" x="202" y="-74.5" font-family="Helvetica,sans-Serif" font-size="10.00" fill="#000000">_types.h</text>
</a>
</g>
</g>
<!-- Node0&#45;&gt;Node6 -->
<g id="edge6" class="edge">
<title>Node0&#45;&gt;Node6</title>
<path fill="none" stroke="#191970" d="M548.3267,-420.8252C394.2199,-414.1215 38,-387.3897 38,-283.5 38,-283.5 38,-283.5 38,-216.5 38,-178.7713 32.7673,-162.0494 58,-134 76.9732,-112.9089 105.1941,-100.4521 131.6378,-93.0964"/>
<polygon fill="#191970" stroke="#191970" points="132.8488,-96.399 141.6627,-90.5196 131.1061,-89.6193 132.8488,-96.399"/>
</g>
<!-- Node9 -->
<g id="node10" class="node">
<title>Node9</title>
<g id="a_node10"><a xlink:href="spatial__acceleration_8h.html" target="_top" xlink:title="drake/multibody/math\l/spatial_acceleration.h">
<polygon fill="#ffffff" stroke="#000000" points="457.5,-268.5 457.5,-298.5 584.5,-298.5 584.5,-268.5 457.5,-268.5"/>
<text text-anchor="start" x="465.5" y="-286.5" font-family="Helvetica,sans-Serif" font-size="10.00" fill="#000000">drake/multibody/math</text>
<text text-anchor="middle" x="521" y="-275.5" font-family="Helvetica,sans-Serif" font-size="10.00" fill="#000000">/spatial_acceleration.h</text>
</a>
</g>
</g>
<!-- Node0&#45;&gt;Node9 -->
<g id="edge11" class="edge">
<title>Node0&#45;&gt;Node9</title>
<path fill="none" stroke="#191970" d="M603.6873,-402.4163C585.9794,-376.9498 555.9005,-333.6919 537.3151,-306.9634"/>
<polygon fill="#191970" stroke="#191970" points="540.0698,-304.7944 531.4873,-298.5822 534.3227,-308.7906 540.0698,-304.7944"/>
</g>
<!-- Node14 -->
<g id="node15" class="node">
<title>Node14</title>
<g id="a_node15"><a xlink:href="spatial__velocity_8h.html" target="_top" xlink:title="drake/multibody/math\l/spatial_velocity.h">
<polygon fill="#ffffff" stroke="#000000" points="350.5,-201.5 350.5,-231.5 475.5,-231.5 475.5,-201.5 350.5,-201.5"/>
<text text-anchor="start" x="358.5" y="-219.5" font-family="Helvetica,sans-Serif" font-size="10.00" fill="#000000">drake/multibody/math</text>
<text text-anchor="middle" x="413" y="-208.5" font-family="Helvetica,sans-Serif" font-size="10.00" fill="#000000">/spatial_velocity.h</text>
</a>
</g>
</g>
<!-- Node0&#45;&gt;Node14 -->
<g id="edge31" class="edge">
<title>Node0&#45;&gt;Node14</title>
<path fill="none" stroke="#191970" d="M578.808,-402.3423C541.226,-380.8447 485.0269,-344.0444 449,-299 435.4203,-282.0213 425.9681,-259.131 420.1679,-241.769"/>
<polygon fill="#191970" stroke="#191970" points="423.3637,-240.2643 417.0242,-231.7755 416.6863,-242.3649 423.3637,-240.2643"/>
</g>
<!-- Node15 -->
<g id="node16" class="node">
<title>Node15</title>
<g id="a_node16"><a xlink:href="multibody__tree__indexes_8h.html" target="_top" xlink:title="drake/multibody/tree\l/multibody_tree_indexes.h">
<polygon fill="#ffffff" stroke="#000000" points="804,-268.5 804,-298.5 950,-298.5 950,-268.5 804,-268.5"/>
<text text-anchor="start" x="812" y="-286.5" font-family="Helvetica,sans-Serif" font-size="10.00" fill="#000000">drake/multibody/tree</text>
<text text-anchor="middle" x="877" y="-275.5" font-family="Helvetica,sans-Serif" font-size="10.00" fill="#000000">/multibody_tree_indexes.h</text>
</a>
</g>
</g>
<!-- Node0&#45;&gt;Node15 -->
<g id="edge32" class="edge">
<title>Node0&#45;&gt;Node15</title>
<path fill="none" stroke="#191970" d="M668.6407,-402.43C692.4938,-392.2418 721.1086,-379.2923 746,-366 781.7852,-346.8903 820.9118,-321.6354 846.9996,-304.1249"/>
<polygon fill="#191970" stroke="#191970" points="848.995,-307.0007 855.3233,-298.5034 845.0773,-301.1997 848.995,-307.0007"/>
</g>
<!-- Node25 -->
<g id="node26" class="node">
<title>Node25</title>
<g id="a_node26"><a xlink:href="multibody__tree__topology_8h.html" target="_top" xlink:title="This file defines the topological structures which represent the logical connectivities between multi...">
<polygon fill="#ffffff" stroke="#000000" points="1070.5,-335.5 1070.5,-365.5 1221.5,-365.5 1221.5,-335.5 1070.5,-335.5"/>
<text text-anchor="start" x="1078.5" y="-353.5" font-family="Helvetica,sans-Serif" font-size="10.00" fill="#000000">drake/multibody/tree</text>
<text text-anchor="middle" x="1146" y="-342.5" font-family="Helvetica,sans-Serif" font-size="10.00" fill="#000000">/multibody_tree_topology.h</text>
</a>
</g>
</g>
<!-- Node0&#45;&gt;Node25 -->
<g id="edge52" class="edge">
<title>Node0&#45;&gt;Node25</title>
<path fill="none" stroke="#191970" d="M687.5697,-413.4473C783.5054,-400.2744 956.3072,-376.5468 1060.156,-362.2873"/>
<polygon fill="#191970" stroke="#191970" points="1060.8647,-365.7229 1070.2956,-360.895 1059.9124,-358.788 1060.8647,-365.7229"/>
</g>
<!-- Node4 -->
<g id="node5" class="node">
<title>Node4</title>
<polygon fill="#ffffff" stroke="#bfbfbf" points="917.5,-6 917.5,-25 986.5,-25 986.5,-6 917.5,-6"/>
<text text-anchor="middle" x="952" y="-13" font-family="Helvetica,sans-Serif" font-size="10.00" fill="#000000">type_traits</text>
</g>
<!-- Node3&#45;&gt;Node4 -->
<g id="edge4" class="edge">
<title>Node3&#45;&gt;Node4</title>
<path fill="none" stroke="#191970" d="M832.5606,-67.4639C858.9818,-55.969 895.0979,-40.2561 920.6791,-29.1266"/>
<polygon fill="#191970" stroke="#191970" points="922.1519,-32.3028 929.9253,-25.1039 919.3592,-25.884 922.1519,-32.3028"/>
</g>
<!-- Node6&#45;&gt;Node1 -->
<g id="edge7" class="edge">
<title>Node6&#45;&gt;Node1</title>
<path fill="none" stroke="#191970" d="M231.6234,-67.4639C253.8711,-56.1715 284.1384,-40.8086 305.9861,-29.7192"/>
<polygon fill="#191970" stroke="#191970" points="307.7459,-32.7511 315.0788,-25.1039 304.5776,-26.5091 307.7459,-32.7511"/>
</g>
<!-- Node6&#45;&gt;Node5 -->
<g id="edge10" class="edge">
<title>Node6&#45;&gt;Node5</title>
<path fill="none" stroke="#191970" d="M262.1366,-69.701C266.8233,-68.7655 271.4861,-67.8548 276,-67 355.7144,-51.9052 447.5963,-36.6325 509.2974,-26.6835"/>
<polygon fill="#191970" stroke="#191970" points="509.9969,-30.116 519.3142,-25.0723 508.8852,-23.2048 509.9969,-30.116"/>
</g>
<!-- Node7 -->
<g id="node8" class="node">
<title>Node7</title>
<polygon fill="#ffffff" stroke="#bfbfbf" points="43.5,-6 43.5,-25 120.5,-25 120.5,-6 43.5,-6"/>
<text text-anchor="middle" x="82" y="-13" font-family="Helvetica,sans-Serif" font-size="10.00" fill="#000000">Eigen/Dense</text>
</g>
<!-- Node6&#45;&gt;Node7 -->
<g id="edge8" class="edge">
<title>Node6&#45;&gt;Node7</title>
<path fill="none" stroke="#191970" d="M175.0697,-67.4639C155.0259,-56.2728 127.8217,-41.0838 108.0035,-30.0186"/>
<polygon fill="#191970" stroke="#191970" points="109.6386,-26.923 99.2011,-25.1039 106.2261,-33.0349 109.6386,-26.923"/>
</g>
<!-- Node8 -->
<g id="node9" class="node">
<title>Node8</title>
<g id="a_node9"><a xlink:href="constants_8h.html" target="_top" xlink:title="drake/common/constants.h">
<polygon fill="#ffffff" stroke="#000000" points="138.5,-6 138.5,-25 287.5,-25 287.5,-6 138.5,-6"/>
<text text-anchor="middle" x="213" y="-13" font-family="Helvetica,sans-Serif" font-size="10.00" fill="#000000">drake/common/constants.h</text>
</a>
</g>
</g>
<!-- Node6&#45;&gt;Node8 -->
<g id="edge9" class="edge">
<title>Node6&#45;&gt;Node8</title>
<path fill="none" stroke="#191970" d="M204.4961,-67.2967C206.0602,-57.7699 208.0918,-45.3954 209.7771,-35.1306"/>
<polygon fill="#191970" stroke="#191970" points="213.2649,-35.4899 211.4313,-25.055 206.3573,-34.3558 213.2649,-35.4899"/>
</g>
<!-- Node9&#45;&gt;Node3 -->
<g id="edge13" class="edge">
<title>Node9&#45;&gt;Node3</title>
<path fill="none" stroke="#191970" d="M542.9432,-268.4825C557.5547,-258.3698 577.1011,-244.6241 594,-232 650.2757,-189.9599 660.8453,-174.837 718,-134 732.914,-123.3439 749.9303,-112.2494 764.4239,-103.0987"/>
<polygon fill="#191970" stroke="#191970" points="766.4658,-105.9496 773.0809,-97.6736 762.7487,-100.018 766.4658,-105.9496"/>
</g>
<!-- Node9&#45;&gt;Node5 -->
<g id="edge14" class="edge">
<title>Node9&#45;&gt;Node5</title>
<path fill="none" stroke="#191970" d="M524.6313,-268.1903C527.0435,-257.9542 530.2589,-244.1808 533,-232 548.5475,-162.9113 566.0427,-81.2128 574.6417,-40.7804"/>
<polygon fill="#191970" stroke="#191970" points="578.1199,-41.2505 576.7742,-30.7415 571.2727,-39.7959 578.1199,-41.2505"/>
</g>
<!-- Node9&#45;&gt;Node6 -->
<g id="edge15" class="edge">
<title>Node9&#45;&gt;Node6</title>
<path fill="none" stroke="#191970" d="M457.4124,-274.7727C391.4366,-262.2562 290.2048,-232.7159 234,-165 220.2682,-148.4559 211.9866,-125.3439 207.3001,-107.7898"/>
<polygon fill="#191970" stroke="#191970" points="210.6049,-106.5693 204.8301,-97.6865 203.8052,-108.2317 210.6049,-106.5693"/>
</g>
<!-- Node10 -->
<g id="node11" class="node">
<title>Node10</title>
<polygon fill="#ffffff" stroke="#bfbfbf" points="494,-73 494,-92 538,-92 538,-73 494,-73"/>
<text text-anchor="middle" x="516" y="-80" font-family="Helvetica,sans-Serif" font-size="10.00" fill="#000000">limits</text>
</g>
<!-- Node9&#45;&gt;Node10 -->
<g id="edge12" class="edge">
<title>Node9&#45;&gt;Node10</title>
<path fill="none" stroke="#191970" d="M520.6242,-268.3923C519.7334,-232.5844 517.4939,-142.5545 516.4947,-102.386"/>
<polygon fill="#191970" stroke="#191970" points="519.9904,-102.166 516.2427,-92.2562 512.9925,-102.3402 519.9904,-102.166"/>
</g>
<!-- Node11 -->
<g id="node12" class="node">
<title>Node11</title>
<g id="a_node12"><a xlink:href="convert__time__derivative_8h.html" target="_top" xlink:title="drake/math/convert\l_time_derivative.h">
<polygon fill="#ffffff" stroke="#000000" points="66.5,-134.5 66.5,-164.5 179.5,-164.5 179.5,-134.5 66.5,-134.5"/>
<text text-anchor="start" x="74.5" y="-152.5" font-family="Helvetica,sans-Serif" font-size="10.00" fill="#000000">drake/math/convert</text>
<text text-anchor="middle" x="123" y="-141.5" font-family="Helvetica,sans-Serif" font-size="10.00" fill="#000000">_time_derivative.h</text>
</a>
</g>
</g>
<!-- Node9&#45;&gt;Node11 -->
<g id="edge16" class="edge">
<title>Node9&#45;&gt;Node11</title>
<path fill="none" stroke="#191970" d="M457.4023,-278.705C375.3896,-271.6367 238.0573,-256.5394 194,-232 169.2022,-218.1879 149.0607,-192.1808 136.6488,-173.0451"/>
<polygon fill="#191970" stroke="#191970" points="139.6088,-171.1772 131.3455,-164.5463 133.6701,-174.883 139.6088,-171.1772"/>
</g>
<!-- Node12 -->
<g id="node13" class="node">
<title>Node12</title>
<g id="a_node13"><a xlink:href="spatial__vector_8h.html" target="_top" xlink:title="drake/multibody/math\l/spatial_vector.h">
<polygon fill="#ffffff" stroke="#000000" points="312.5,-134.5 312.5,-164.5 437.5,-164.5 437.5,-134.5 312.5,-134.5"/>
<text text-anchor="start" x="320.5" y="-152.5" font-family="Helvetica,sans-Serif" font-size="10.00" fill="#000000">drake/multibody/math</text>
<text text-anchor="middle" x="375" y="-141.5" font-family="Helvetica,sans-Serif" font-size="10.00" fill="#000000">/spatial_vector.h</text>
</a>
</g>
</g>
<!-- Node9&#45;&gt;Node12 -->
<g id="edge19" class="edge">
<title>Node9&#45;&gt;Node12</title>
<path fill="none" stroke="#191970" d="M517.8168,-268.2675C513.3287,-250.1676 503.5354,-220.0316 485,-201 471.4073,-187.0434 453.2983,-176.4528 435.7035,-168.6165"/>
<polygon fill="#191970" stroke="#191970" points="436.5883,-165.1919 426.0134,-164.5425 433.8753,-171.6447 436.5883,-165.1919"/>
</g>
<!-- Node9&#45;&gt;Node14 -->
<g id="edge25" class="edge">
<title>Node9&#45;&gt;Node14</title>
<path fill="none" stroke="#191970" d="M496.7627,-268.4639C481.8601,-259.2188 462.5594,-247.2452 446.2417,-237.1222"/>
<polygon fill="#191970" stroke="#191970" points="447.8728,-234.0153 437.5301,-231.7177 444.1826,-239.9636 447.8728,-234.0153"/>
</g>
<!-- Node11&#45;&gt;Node6 -->
<g id="edge18" class="edge">
<title>Node11&#45;&gt;Node6</title>
<path fill="none" stroke="#191970" d="M140.9263,-134.2967C151.431,-125.3876 164.8721,-113.9882 176.4692,-104.1527"/>
<polygon fill="#191970" stroke="#191970" points="178.7819,-106.7806 184.1446,-97.6432 174.2542,-101.442 178.7819,-106.7806"/>
</g>
<!-- Node11&#45;&gt;Node7 -->
<g id="edge17" class="edge">
<title>Node11&#45;&gt;Node7</title>
<path fill="none" stroke="#191970" d="M118.3765,-134.389C110.9035,-109.9649 96.1778,-61.8371 87.9387,-34.9095"/>
<polygon fill="#191970" stroke="#191970" points="91.2113,-33.6425 84.9386,-25.1042 84.5176,-35.6906 91.2113,-33.6425"/>
</g>
<!-- Node12&#45;&gt;Node3 -->
<g id="edge22" class="edge">
<title>Node12&#45;&gt;Node3</title>
<path fill="none" stroke="#191970" d="M437.8706,-139.5418C515.2282,-127.2889 646.2258,-106.5399 727.0951,-93.7308"/>
<polygon fill="#191970" stroke="#191970" points="727.8589,-97.1535 737.1882,-92.1321 726.7638,-90.2397 727.8589,-97.1535"/>
</g>
<!-- Node12&#45;&gt;Node5 -->
<g id="edge23" class="edge">
<title>Node12&#45;&gt;Node5</title>
<path fill="none" stroke="#191970" d="M393.4725,-134.3211C414.8546,-117.0692 451.4401,-88.5171 485,-67 502.5898,-55.7223 522.8556,-44.5098 540.1397,-35.4403"/>
<polygon fill="#191970" stroke="#191970" points="542.1352,-38.3481 549.3992,-30.6355 538.911,-32.1348 542.1352,-38.3481"/>
</g>
<!-- Node12&#45;&gt;Node6 -->
<g id="edge24" class="edge">
<title>Node12&#45;&gt;Node6</title>
<path fill="none" stroke="#191970" d="M336.1754,-134.4639C310.8887,-124.6708 277.6971,-111.8162 250.6532,-101.3426"/>
<polygon fill="#191970" stroke="#191970" points="251.583,-97.9494 240.9939,-97.6017 249.055,-104.477 251.583,-97.9494"/>
</g>
<!-- Node12&#45;&gt;Node10 -->
<g id="edge20" class="edge">
<title>Node12&#45;&gt;Node10</title>
<path fill="none" stroke="#191970" d="M406.6432,-134.4639C430.6208,-123.0702 463.3193,-107.5327 486.7017,-96.4219"/>
<polygon fill="#191970" stroke="#191970" points="488.2588,-99.5571 495.7888,-92.1039 485.2544,-93.2346 488.2588,-99.5571"/>
</g>
<!-- Node13 -->
<g id="node14" class="node">
<title>Node13</title>
<polygon fill="#ffffff" stroke="#bfbfbf" points="354.5,-73 354.5,-92 395.5,-92 395.5,-73 354.5,-73"/>
<text text-anchor="middle" x="375" y="-80" font-family="Helvetica,sans-Serif" font-size="10.00" fill="#000000">tuple</text>
</g>
<!-- Node12&#45;&gt;Node13 -->
<g id="edge21" class="edge">
<title>Node12&#45;&gt;Node13</title>
<path fill="none" stroke="#191970" d="M375,-134.2967C375,-124.7699 375,-112.3954 375,-102.1306"/>
<polygon fill="#191970" stroke="#191970" points="378.5001,-102.0549 375,-92.055 371.5001,-102.055 378.5001,-102.0549"/>
</g>
<!-- Node14&#45;&gt;Node3 -->
<g id="edge27" class="edge">
<title>Node14&#45;&gt;Node3</title>
<path fill="none" stroke="#191970" d="M453.8359,-201.4132C499.5488,-184.6122 575.8891,-156.8165 642,-134 674.8213,-122.6726 711.7045,-110.4723 741.3642,-100.7909"/>
<polygon fill="#191970" stroke="#191970" points="742.7058,-104.035 751.1295,-97.6091 740.5372,-97.3793 742.7058,-104.035"/>
</g>
<!-- Node14&#45;&gt;Node5 -->
<g id="edge28" class="edge">
<title>Node14&#45;&gt;Node5</title>
<path fill="none" stroke="#191970" d="M351.6617,-201.4253C333.1452,-193.697 314.8647,-182.1497 304,-165 278.6401,-124.97 307.2612,-94.2917 346,-67 371.998,-48.6842 450.4184,-33.8754 509.3645,-24.9183"/>
<polygon fill="#191970" stroke="#191970" points="510.0114,-28.3606 519.3853,-23.423 508.9782,-21.4373 510.0114,-28.3606"/>
</g>
<!-- Node14&#45;&gt;Node6 -->
<g id="edge29" class="edge">
<title>Node14&#45;&gt;Node6</title>
<path fill="none" stroke="#191970" d="M350.3878,-201.8817C324.0125,-193.7867 293.9475,-181.8647 270,-165 247.6989,-149.2948 228.5939,-124.4351 216.3643,-106.1061"/>
<polygon fill="#191970" stroke="#191970" points="219.2984,-104.198 210.929,-97.7016 213.4205,-107.9993 219.2984,-104.198"/>
</g>
<!-- Node14&#45;&gt;Node10 -->
<g id="edge26" class="edge">
<title>Node14&#45;&gt;Node10</title>
<path fill="none" stroke="#191970" d="M424.6152,-201.389C443.8061,-176.4222 482.0359,-126.6864 502.4361,-100.1462"/>
<polygon fill="#191970" stroke="#191970" points="505.2984,-102.1656 508.6177,-92.1042 499.7484,-97.8996 505.2984,-102.1656"/>
</g>
<!-- Node14&#45;&gt;Node12 -->
<g id="edge30" class="edge">
<title>Node14&#45;&gt;Node12</title>
<path fill="none" stroke="#191970" d="M404.3772,-201.2967C399.713,-193.0729 393.8453,-182.7272 388.5826,-173.4483"/>
<polygon fill="#191970" stroke="#191970" points="391.5665,-171.6148 383.5887,-164.6432 385.4777,-175.0683 391.5665,-171.6148"/>
</g>
<!-- Node16 -->
<g id="node17" class="node">
<title>Node16</title>
<g id="a_node17"><a xlink:href="type__safe__index_8h.html" target="_top" xlink:title="drake/common/type_safe\l_index.h">
<polygon fill="#ffffff" stroke="#000000" points="806.5,-201.5 806.5,-231.5 947.5,-231.5 947.5,-201.5 806.5,-201.5"/>
<text text-anchor="start" x="814.5" y="-219.5" font-family="Helvetica,sans-Serif" font-size="10.00" fill="#000000">drake/common/type_safe</text>
<text text-anchor="middle" x="877" y="-208.5" font-family="Helvetica,sans-Serif" font-size="10.00" fill="#000000">_index.h</text>
</a>
</g>
</g>
<!-- Node15&#45;&gt;Node16 -->
<g id="edge33" class="edge">
<title>Node15&#45;&gt;Node16</title>
<path fill="none" stroke="#191970" d="M877,-268.2967C877,-260.5013 877,-250.7991 877,-241.9064"/>
<polygon fill="#191970" stroke="#191970" points="880.5001,-241.6431 877,-231.6432 873.5001,-241.6432 880.5001,-241.6431"/>
</g>
<!-- Node16&#45;&gt;Node3 -->
<g id="edge37" class="edge">
<title>Node16&#45;&gt;Node3</title>
<path fill="none" stroke="#191970" d="M880.0668,-201.4149C882.7901,-183.9945 884.7345,-155.0396 873,-134 865.8184,-121.1236 853.9027,-110.7904 841.66,-102.8576"/>
<polygon fill="#191970" stroke="#191970" points="843.1248,-99.6545 832.7506,-97.5035 839.5191,-105.6545 843.1248,-99.6545"/>
</g>
<!-- Node16&#45;&gt;Node10 -->
<g id="edge35" class="edge">
<title>Node16&#45;&gt;Node10</title>
<path fill="none" stroke="#191970" d="M836.2904,-201.389C763.6781,-174.4359 613.2975,-118.616 547.7261,-94.2765"/>
<polygon fill="#191970" stroke="#191970" points="548.9133,-90.9838 538.3203,-90.7851 546.4773,-97.5463 548.9133,-90.9838"/>
</g>
<!-- Node17 -->
<g id="node18" class="node">
<title>Node17</title>
<polygon fill="#ffffff" stroke="#bfbfbf" points="798.5,-140 798.5,-159 863.5,-159 863.5,-140 798.5,-140"/>
<text text-anchor="middle" x="831" y="-147" font-family="Helvetica,sans-Serif" font-size="10.00" fill="#000000">functional</text>
</g>
<!-- Node16&#45;&gt;Node17 -->
<g id="edge34" class="edge">
<title>Node16&#45;&gt;Node17</title>
<path fill="none" stroke="#191970" d="M866.5619,-201.2967C859.6732,-191.2631 850.6158,-178.0709 843.366,-167.5113"/>
<polygon fill="#191970" stroke="#191970" points="846.1056,-165.318 837.5601,-159.055 840.3348,-169.28 846.1056,-165.318"/>
</g>
<!-- Node18 -->
<g id="node19" class="node">
<title>Node18</title>
<polygon fill="#ffffff" stroke="#bfbfbf" points="980,-73 980,-92 1024,-92 1024,-73 980,-73"/>
<text text-anchor="middle" x="1002" y="-80" font-family="Helvetica,sans-Serif" font-size="10.00" fill="#000000">string</text>
</g>
<!-- Node16&#45;&gt;Node18 -->
<g id="edge36" class="edge">
<title>Node16&#45;&gt;Node18</title>
<path fill="none" stroke="#191970" d="M840.789,-201.4422C808.5467,-185.8634 769.4165,-160.1824 790,-134 812.0006,-106.0151 915.9882,-91.3611 969.7033,-85.549"/>
<polygon fill="#191970" stroke="#191970" points="970.1536,-89.0211 979.7368,-84.5031 969.4278,-82.0588 970.1536,-89.0211"/>
</g>
<!-- Node19 -->
<g id="node20" class="node">
<title>Node19</title>
<g id="a_node20"><a xlink:href="drake__throw_8h.html" target="_top" xlink:title="Provides a convenient wrapper to throw an exception when a condition is unmet. ">
<polygon fill="#ffffff" stroke="#000000" points="920.5,-134.5 920.5,-164.5 1041.5,-164.5 1041.5,-134.5 920.5,-134.5"/>
<text text-anchor="start" x="928.5" y="-152.5" font-family="Helvetica,sans-Serif" font-size="10.00" fill="#000000">drake/common/drake</text>
<text text-anchor="middle" x="981" y="-141.5" font-family="Helvetica,sans-Serif" font-size="10.00" fill="#000000">_throw.h</text>
</a>
</g>
</g>
<!-- Node16&#45;&gt;Node19 -->
<g id="edge38" class="edge">
<title>Node16&#45;&gt;Node19</title>
<path fill="none" stroke="#191970" d="M900.3396,-201.4639C914.5574,-192.3044 932.9323,-180.4667 948.5522,-170.4038"/>
<polygon fill="#191970" stroke="#191970" points="950.8674,-173.0758 957.3784,-164.7177 947.0764,-167.1912 950.8674,-173.0758"/>
</g>
<!-- Node20 -->
<g id="node21" class="node">
<title>Node20</title>
<g id="a_node21"><a xlink:href="nice__type__name_8h.html" target="_top" xlink:title="drake/common/nice_type\l_name.h">
<polygon fill="#ffffff" stroke="#000000" points="1136,-134.5 1136,-164.5 1276,-164.5 1276,-134.5 1136,-134.5"/>
<text text-anchor="start" x="1144" y="-152.5" font-family="Helvetica,sans-Serif" font-size="10.00" fill="#000000">drake/common/nice_type</text>
<text text-anchor="middle" x="1206" y="-141.5" font-family="Helvetica,sans-Serif" font-size="10.00" fill="#000000">_name.h</text>
</a>
</g>
</g>
<!-- Node16&#45;&gt;Node20 -->
<g id="edge41" class="edge">
<title>Node16&#45;&gt;Node20</title>
<path fill="none" stroke="#191970" d="M947.5788,-202.1268C999.9254,-191.4666 1071.3542,-176.9203 1125.8506,-165.8222"/>
<polygon fill="#191970" stroke="#191970" points="1126.7204,-169.217 1135.8208,-163.7918 1125.3235,-162.3578 1126.7204,-169.217"/>
</g>
<!-- Node19&#45;&gt;Node3 -->
<g id="edge40" class="edge">
<title>Node19&#45;&gt;Node3</title>
<path fill="none" stroke="#191970" d="M939.9312,-134.4639C912.9482,-124.5849 877.456,-111.5905 848.7143,-101.0675"/>
<polygon fill="#191970" stroke="#191970" points="849.8417,-97.7531 839.2479,-97.6017 847.435,-104.3264 849.8417,-97.7531"/>
</g>
<!-- Node19&#45;&gt;Node4 -->
<g id="edge39" class="edge">
<title>Node19&#45;&gt;Node4</title>
<path fill="none" stroke="#191970" d="M977.7297,-134.389C972.4439,-109.9649 962.0282,-61.8371 956.2006,-34.9095"/>
<polygon fill="#191970" stroke="#191970" points="959.6146,-34.1375 954.0785,-25.1042 952.773,-35.6183 959.6146,-34.1375"/>
</g>
<!-- Node20&#45;&gt;Node1 -->
<g id="edge42" class="edge">
<title>Node20&#45;&gt;Node1</title>
<path fill="none" stroke="#191970" d="M1156.309,-134.4517C1130.328,-125.5939 1098.5061,-113.1505 1072,-98 1052.7766,-87.0122 1053.6418,-75.0117 1033,-67 924.6029,-24.9279 626.9211,-40.0721 511,-31 463.5573,-27.2871 409.0164,-22.4202 373.1614,-19.1386"/>
<polygon fill="#191970" stroke="#191970" points="373.3927,-15.6452 363.1144,-18.2158 372.7523,-22.6159 373.3927,-15.6452"/>
</g>
<!-- Node20&#45;&gt;Node2 -->
<g id="edge46" class="edge">
<title>Node20&#45;&gt;Node2</title>
<path fill="none" stroke="#191970" d="M1257.1677,-134.4639C1300.9713,-121.5918 1362.7738,-103.4305 1400.5182,-92.3389"/>
<polygon fill="#191970" stroke="#191970" points="1401.8837,-95.5858 1410.4912,-89.4083 1399.9101,-88.8697 1401.8837,-95.5858"/>
</g>
<!-- Node20&#45;&gt;Node18 -->
<g id="edge43" class="edge">
<title>Node20&#45;&gt;Node18</title>
<path fill="none" stroke="#191970" d="M1151.4037,-134.4007C1118.2964,-124.8409 1075.3696,-111.7262 1038,-98 1036.1796,-97.3313 1034.3183,-96.6195 1032.4478,-95.8823"/>
<polygon fill="#191970" stroke="#191970" points="1033.7453,-92.6315 1023.1654,-92.0683 1031.0849,-99.1062 1033.7453,-92.6315"/>
</g>
<!-- Node21 -->
<g id="node22" class="node">
<title>Node21</title>
<polygon fill="#ffffff" stroke="#bfbfbf" points="1080.5,-73 1080.5,-92 1137.5,-92 1137.5,-73 1080.5,-73"/>
<text text-anchor="middle" x="1109" y="-80" font-family="Helvetica,sans-Serif" font-size="10.00" fill="#000000">typeinfo</text>
</g>
<!-- Node20&#45;&gt;Node21 -->
<g id="edge44" class="edge">
<title>Node20&#45;&gt;Node21</title>
<path fill="none" stroke="#191970" d="M1183.9892,-134.2967C1168.2892,-123.4524 1147.2472,-108.9182 1131.449,-98.006"/>
<polygon fill="#191970" stroke="#191970" points="1133.0505,-94.8585 1122.8333,-92.055 1129.0722,-100.6181 1133.0505,-94.8585"/>
</g>
<!-- Node22 -->
<g id="node23" class="node">
<title>Node22</title>
<polygon fill="#ffffff" stroke="#bfbfbf" points="1321.5,-6 1321.5,-25 1366.5,-25 1366.5,-6 1321.5,-6"/>
<text text-anchor="middle" x="1344" y="-13" font-family="Helvetica,sans-Serif" font-size="10.00" fill="#000000">utility</text>
</g>
<!-- Node20&#45;&gt;Node22 -->
<g id="edge45" class="edge">
<title>Node20&#45;&gt;Node22</title>
<path fill="none" stroke="#191970" d="M1269.2836,-134.473C1289.7116,-126.7083 1310.7391,-115.1263 1325,-98 1339.7204,-80.3219 1343.5431,-53.422 1344.2912,-35.1845"/>
<polygon fill="#191970" stroke="#191970" points="1347.7918,-35.1555 1344.4296,-25.1084 1340.7925,-35.0593 1347.7918,-35.1555"/>
</g>
<!-- Node23 -->
<g id="node24" class="node">
<title>Node23</title>
<g id="a_node24"><a xlink:href="never__destroyed_8h.html" target="_top" xlink:title="drake/common/never\l_destroyed.h">
<polygon fill="#ffffff" stroke="#000000" points="1194.5,-67.5 1194.5,-97.5 1315.5,-97.5 1315.5,-67.5 1194.5,-67.5"/>
<text text-anchor="start" x="1202.5" y="-85.5" font-family="Helvetica,sans-Serif" font-size="10.00" fill="#000000">drake/common/never</text>
<text text-anchor="middle" x="1255" y="-74.5" font-family="Helvetica,sans-Serif" font-size="10.00" fill="#000000">_destroyed.h</text>
</a>
</g>
</g>
<!-- Node20&#45;&gt;Node23 -->
<g id="edge47" class="edge">
<title>Node20&#45;&gt;Node23</title>
<path fill="none" stroke="#191970" d="M1217.1189,-134.2967C1223.2585,-125.9016 1231.0154,-115.2952 1237.9086,-105.8698"/>
<polygon fill="#191970" stroke="#191970" points="1240.847,-107.781 1243.9251,-97.6432 1235.1968,-103.6488 1240.847,-107.781"/>
</g>
<!-- Node23&#45;&gt;Node4 -->
<g id="edge49" class="edge">
<title>Node23&#45;&gt;Node4</title>
<path fill="none" stroke="#191970" d="M1194.4117,-69.1026C1135.963,-56.1783 1048.8666,-36.9193 996.5336,-25.3474"/>
<polygon fill="#191970" stroke="#191970" points="997.0691,-21.8813 986.5493,-23.1396 995.5577,-28.7162 997.0691,-21.8813"/>
</g>
<!-- Node23&#45;&gt;Node5 -->
<g id="edge51" class="edge">
<title>Node23&#45;&gt;Node5</title>
<path fill="none" stroke="#191970" d="M1194.118,-69.2903C1189.3526,-68.4484 1184.605,-67.6711 1180,-67 989.8843,-39.2946 763.5446,-24.8279 650.9473,-18.8696"/>
<polygon fill="#191970" stroke="#191970" points="650.9081,-15.3629 640.7391,-18.3363 650.5428,-22.3534 650.9081,-15.3629"/>
</g>
<!-- Node23&#45;&gt;Node22 -->
<g id="edge50" class="edge">
<title>Node23&#45;&gt;Node22</title>
<path fill="none" stroke="#191970" d="M1275.1955,-67.2967C1289.466,-56.5537 1308.5468,-42.1895 1322.9948,-31.3129"/>
<polygon fill="#191970" stroke="#191970" points="1325.4234,-33.8656 1331.3076,-25.055 1321.2133,-28.2731 1325.4234,-33.8656"/>
</g>
<!-- Node24 -->
<g id="node25" class="node">
<title>Node24</title>
<polygon fill="#ffffff" stroke="#bfbfbf" points="1236.5,-6 1236.5,-25 1273.5,-25 1273.5,-6 1236.5,-6"/>
<text text-anchor="middle" x="1255" y="-13" font-family="Helvetica,sans-Serif" font-size="10.00" fill="#000000">new</text>
</g>
<!-- Node23&#45;&gt;Node24 -->
<g id="edge48" class="edge">
<title>Node23&#45;&gt;Node24</title>
<path fill="none" stroke="#191970" d="M1255,-67.2967C1255,-57.7699 1255,-45.3954 1255,-35.1306"/>
<polygon fill="#191970" stroke="#191970" points="1258.5001,-35.0549 1255,-25.055 1251.5001,-35.055 1258.5001,-35.0549"/>
</g>
<!-- Node25&#45;&gt;Node2 -->
<g id="edge58" class="edge">
<title>Node25&#45;&gt;Node2</title>
<path fill="none" stroke="#191970" d="M1221.8032,-344.1806C1286.3104,-337.1885 1372.191,-323.5197 1396,-299 1448.7121,-244.7145 1442.5658,-144.6415 1437.1147,-102.2753"/>
<polygon fill="#191970" stroke="#191970" points="1440.5801,-101.7843 1435.7125,-92.3739 1433.6493,-102.7659 1440.5801,-101.7843"/>
</g>
<!-- Node25&#45;&gt;Node3 -->
<g id="edge59" class="edge">
<title>Node25&#45;&gt;Node3</title>
<path fill="none" stroke="#191970" d="M1137.5934,-335.361C1132.0664,-325.1971 1124.8093,-311.4399 1119,-299 1085.4389,-227.1334 1112.1552,-184.5095 1051,-134 1023.6893,-111.4435 933.6722,-97.1095 868.783,-89.4426"/>
<polygon fill="#191970" stroke="#191970" points="868.9328,-85.9368 858.5979,-88.2692 868.1315,-92.8908 868.9328,-85.9368"/>
</g>
<!-- Node25&#45;&gt;Node5 -->
<g id="edge60" class="edge">
<title>Node25&#45;&gt;Node5</title>
<path fill="none" stroke="#191970" d="M1146.8955,-335.4502C1148.5244,-318.063 1153.1094,-289.1392 1166,-268 1207.4683,-199.9964 1330.6949,-199.2386 1285,-134 1258.1402,-95.6522 1226.8565,-120.8636 1186,-98 1166.6777,-87.1871 1167.5536,-75.2354 1147,-67 1101.9925,-48.9663 792.8846,-28.3224 650.9635,-19.6638"/>
<polygon fill="#191970" stroke="#191970" points="650.8234,-16.1489 640.6296,-19.0365 650.3991,-23.1361 650.8234,-16.1489"/>
</g>
<!-- Node25&#45;&gt;Node15 -->
<g id="edge62" class="edge">
<title>Node25&#45;&gt;Node15</title>
<path fill="none" stroke="#191970" d="M1085.6311,-335.4639C1044.6742,-325.2627 990.3802,-311.7397 947.4466,-301.0462"/>
<polygon fill="#191970" stroke="#191970" points="948.1816,-297.6224 937.6322,-298.6017 946.4898,-304.4149 948.1816,-297.6224"/>
</g>
<!-- Node25&#45;&gt;Node18 -->
<g id="edge56" class="edge">
<title>Node25&#45;&gt;Node18</title>
<path fill="none" stroke="#191970" d="M1141.7948,-335.2674C1128.3559,-286.6601 1087.1416,-138.1804 1084,-134 1080.0278,-128.7143 1049.9689,-110.4753 1027.3866,-97.2"/>
<polygon fill="#191970" stroke="#191970" points="1028.9654,-94.0688 1018.5662,-92.0425 1025.432,-100.1116 1028.9654,-94.0688"/>
</g>
<!-- Node25&#45;&gt;Node19 -->
<g id="edge61" class="edge">
<title>Node25&#45;&gt;Node19</title>
<path fill="none" stroke="#191970" d="M1108.9155,-335.405C1091.2105,-326.7791 1070.7278,-314.5572 1056,-299 1021.3844,-262.435 999.2527,-206.8151 988.5745,-174.7291"/>
<polygon fill="#191970" stroke="#191970" points="991.7799,-173.2631 985.3907,-164.8115 985.1148,-175.4027 991.7799,-173.2631"/>
</g>
<!-- Node25&#45;&gt;Node22 -->
<g id="edge57" class="edge">
<title>Node25&#45;&gt;Node22</title>
<path fill="none" stroke="#191970" d="M1221.5725,-341.1253C1275.9956,-332.8407 1343.1822,-318.9503 1363,-299 1389.5172,-272.3056 1382,-254.1265 1382,-216.5 1382,-216.5 1382,-216.5 1382,-149.5 1382,-107.2065 1364.2624,-60.1555 1353.0243,-34.5895"/>
<polygon fill="#191970" stroke="#191970" points="1356.1341,-32.9726 1348.8127,-25.3143 1349.7604,-35.8667 1356.1341,-32.9726"/>
</g>
<!-- Node26 -->
<g id="node27" class="node">
<title>Node26</title>
<polygon fill="#ffffff" stroke="#bfbfbf" points="1290,-274 1290,-293 1354,-293 1354,-274 1290,-274"/>
<text text-anchor="middle" x="1322" y="-281" font-family="Helvetica,sans-Serif" font-size="10.00" fill="#000000">algorithm</text>
</g>
<!-- Node25&#45;&gt;Node26 -->
<g id="edge53" class="edge">
<title>Node25&#45;&gt;Node26</title>
<path fill="none" stroke="#191970" d="M1185.4978,-335.4639C1216.1836,-323.7824 1258.3118,-307.7449 1287.6186,-296.5884"/>
<polygon fill="#191970" stroke="#191970" points="1288.9304,-299.8341 1297.0309,-293.0053 1286.4399,-293.2921 1288.9304,-299.8341"/>
</g>
<!-- Node27 -->
<g id="node28" class="node">
<title>Node27</title>
<polygon fill="#ffffff" stroke="#bfbfbf" points="1174.5,-274 1174.5,-293 1221.5,-293 1221.5,-274 1174.5,-274"/>
<text text-anchor="middle" x="1198" y="-281" font-family="Helvetica,sans-Serif" font-size="10.00" fill="#000000">queue</text>
</g>
<!-- Node25&#45;&gt;Node27 -->
<g id="edge54" class="edge">
<title>Node25&#45;&gt;Node27</title>
<path fill="none" stroke="#191970" d="M1157.7996,-335.2967C1165.6655,-325.1618 1176.0327,-311.804 1184.2688,-301.1921"/>
<polygon fill="#191970" stroke="#191970" points="1187.2179,-303.1008 1190.5842,-293.055 1181.688,-298.8089 1187.2179,-303.1008"/>
</g>
<!-- Node28 -->
<g id="node29" class="node">
<title>Node28</title>
<polygon fill="#ffffff" stroke="#bfbfbf" points="1240,-274 1240,-293 1272,-293 1272,-274 1240,-274"/>
<text text-anchor="middle" x="1256" y="-281" font-family="Helvetica,sans-Serif" font-size="10.00" fill="#000000">set</text>
</g>
<!-- Node25&#45;&gt;Node28 -->
<g id="edge55" class="edge">
<title>Node25&#45;&gt;Node28</title>
<path fill="none" stroke="#191970" d="M1170.9604,-335.4689C1187.9198,-325.2334 1210.8461,-311.3527 1231,-299 1231.2939,-298.8199 1231.5897,-298.6385 1231.887,-298.456"/>
<polygon fill="#191970" stroke="#191970" points="1234.0047,-301.2621 1240.6787,-293.0336 1230.33,-295.3041 1234.0047,-301.2621"/>
</g>
</g>
</svg>
