<?xml version="1.0" encoding="UTF-8" standalone="no"?>
<!DOCTYPE svg PUBLIC "-//W3C//DTD SVG 1.1//EN"
 "http://www.w3.org/Graphics/SVG/1.1/DTD/svg11.dtd">
<!-- Generated by graphviz version 2.40.1 (20161225.0304)
 -->
<!-- Title: drake/attic/systems/sensors/test/accelerometer_test/accelerometer_example_diagram.h Pages: 1 -->
<svg width="1005pt" height="139pt"
 viewBox="0.00 0.00 1004.50 139.00" xmlns="http://www.w3.org/2000/svg" xmlns:xlink="http://www.w3.org/1999/xlink">
<g id="graph0" class="graph" transform="scale(1 1) rotate(0) translate(4 135)">
<title>drake/attic/systems/sensors/test/accelerometer_test/accelerometer_example_diagram.h</title>
<polygon fill="#ffffff" stroke="transparent" points="-4,4 -4,-135 1000.5,-135 1000.5,4 -4,4"/>
<!-- Node0 -->
<g id="node1" class="node">
<title>Node0</title>
<polygon fill="#bfbfbf" stroke="#000000" points="386,-78.5 386,-130.5 548,-130.5 548,-78.5 386,-78.5"/>
<text text-anchor="start" x="394" y="-118.5" font-family="Helvetica,sans-Serif" font-size="10.00" fill="#000000">drake/attic/systems</text>
<text text-anchor="start" x="394" y="-107.5" font-family="Helvetica,sans-Serif" font-size="10.00" fill="#000000">/sensors/test/accelerometer</text>
<text text-anchor="start" x="394" y="-96.5" font-family="Helvetica,sans-Serif" font-size="10.00" fill="#000000">_test/accelerometer_example</text>
<text text-anchor="middle" x="467" y="-85.5" font-family="Helvetica,sans-Serif" font-size="10.00" fill="#000000">_diagram.h</text>
</g>
<!-- Node1 -->
<g id="node2" class="node">
<title>Node1</title>
<polygon fill="#ffffff" stroke="#bfbfbf" points="0,-11.5 0,-30.5 58,-30.5 58,-11.5 0,-11.5"/>
<text text-anchor="middle" x="29" y="-18.5" font-family="Helvetica,sans-Serif" font-size="10.00" fill="#000000">memory</text>
</g>
<!-- Node0&#45;&gt;Node1 -->
<g id="edge1" class="edge">
<title>Node0&#45;&gt;Node1</title>
<path fill="none" stroke="#191970" d="M385.7077,-100.125C303.4506,-93.7874 173.5601,-78.491 67,-42 62.1732,-40.3471 57.2422,-38.1001 52.5997,-35.6888"/>
<polygon fill="#191970" stroke="#191970" points="54.0357,-32.4815 43.601,-30.6462 50.6137,-38.5881 54.0357,-32.4815"/>
</g>
<!-- Node2 -->
<g id="node3" class="node">
<title>Node2</title>
<g id="a_node3"><a xlink:href="drake__copyable_8h.html" target="_top" xlink:title="Provides careful macros to selectively enable or disable the special member functions for copy&#45;constr...">
<polygon fill="#ffffff" stroke="#000000" points="76.5,-6 76.5,-36 197.5,-36 197.5,-6 76.5,-6"/>
<text text-anchor="start" x="84.5" y="-24" font-family="Helvetica,sans-Serif" font-size="10.00" fill="#000000">drake/common/drake</text>
<text text-anchor="middle" x="137" y="-13" font-family="Helvetica,sans-Serif" font-size="10.00" fill="#000000">_copyable.h</text>
</a>
</g>
</g>
<!-- Node0&#45;&gt;Node2 -->
<g id="edge2" class="edge">
<title>Node0&#45;&gt;Node2</title>
<path fill="none" stroke="#191970" d="M385.8968,-86.2254C334.4596,-74.334 266.6108,-58.0931 207,-42 203.2486,-40.9873 199.393,-39.9163 195.5118,-38.8155"/>
<polygon fill="#191970" stroke="#191970" points="196.4344,-35.439 185.8563,-36.0341 194.4967,-42.1655 196.4344,-35.439"/>
</g>
<!-- Node3 -->
<g id="node4" class="node">
<title>Node3</title>
<polygon fill="#ffffff" stroke="#bfbfbf" points="216,-6 216,-36 384,-36 384,-6 216,-6"/>
<text text-anchor="start" x="224" y="-24" font-family="Helvetica,sans-Serif" font-size="10.00" fill="#000000">drake/multibody/rigid</text>
<text text-anchor="middle" x="300" y="-13" font-family="Helvetica,sans-Serif" font-size="10.00" fill="#000000">_body_plant/drake_visualizer.h</text>
</g>
<!-- Node0&#45;&gt;Node3 -->
<g id="edge3" class="edge">
<title>Node0&#45;&gt;Node3</title>
<path fill="none" stroke="#191970" d="M414.6184,-78.3092C390.3458,-66.1729 361.9793,-51.9897 339.5389,-40.7694"/>
<polygon fill="#191970" stroke="#191970" points="340.8231,-37.4985 330.3135,-36.1568 337.6925,-43.7595 340.8231,-37.4985"/>
</g>
<!-- Node4 -->
<g id="node5" class="node">
<title>Node4</title>
<polygon fill="#ffffff" stroke="#bfbfbf" points="402,-.5 402,-41.5 532,-41.5 532,-.5 402,-.5"/>
<text text-anchor="start" x="410" y="-29.5" font-family="Helvetica,sans-Serif" font-size="10.00" fill="#000000">drake/multibody/rigid</text>
<text text-anchor="start" x="410" y="-18.5" font-family="Helvetica,sans-Serif" font-size="10.00" fill="#000000">_body_plant/rigid_body</text>
<text text-anchor="middle" x="467" y="-7.5" font-family="Helvetica,sans-Serif" font-size="10.00" fill="#000000">_plant.h</text>
</g>
<!-- Node0&#45;&gt;Node4 -->
<g id="edge4" class="edge">
<title>Node0&#45;&gt;Node4</title>
<path fill="none" stroke="#191970" d="M467,-78.0801C467,-69.724 467,-60.4164 467,-51.7824"/>
<polygon fill="#191970" stroke="#191970" points="470.5001,-51.694 467,-41.6941 463.5001,-51.6941 470.5001,-51.694"/>
</g>
<!-- Node5 -->
<g id="node6" class="node">
<title>Node5</title>
<polygon fill="#ffffff" stroke="#bfbfbf" points="550,-6 550,-36 672,-36 672,-6 550,-6"/>
<text text-anchor="start" x="558" y="-24" font-family="Helvetica,sans-Serif" font-size="10.00" fill="#000000">drake/multibody/rigid</text>
<text text-anchor="middle" x="611" y="-13" font-family="Helvetica,sans-Serif" font-size="10.00" fill="#000000">_body_tree.h</text>
</g>
<!-- Node0&#45;&gt;Node5 -->
<g id="edge5" class="edge">
<title>Node0&#45;&gt;Node5</title>
<path fill="none" stroke="#191970" d="M512.1674,-78.3092C532.8168,-66.3354 556.9022,-52.3692 576.1264,-41.2218"/>
<polygon fill="#191970" stroke="#191970" points="577.9663,-44.2009 584.8614,-36.1568 574.4548,-38.1453 577.9663,-44.2009"/>
</g>
<!-- Node6 -->
<g id="node7" class="node">
<title>Node6</title>
<polygon fill="#ffffff" stroke="#bfbfbf" points="690.5,-6 690.5,-36 819.5,-36 819.5,-6 690.5,-6"/>
<text text-anchor="start" x="698.5" y="-24" font-family="Helvetica,sans-Serif" font-size="10.00" fill="#000000">drake/systems/sensors</text>
<text text-anchor="middle" x="755" y="-13" font-family="Helvetica,sans-Serif" font-size="10.00" fill="#000000">/accelerometer.h</text>
</g>
<!-- Node0&#45;&gt;Node6 -->
<g id="edge6" class="edge">
<title>Node0&#45;&gt;Node6</title>
<path fill="none" stroke="#191970" d="M548.3744,-80.9071C594.3609,-67.5742 650.9301,-51.173 693.2452,-38.9046"/>
<polygon fill="#191970" stroke="#191970" points="694.2325,-42.2626 702.8623,-36.1163 692.2832,-35.5394 694.2325,-42.2626"/>
</g>
<!-- Node7 -->
<g id="node8" class="node">
<title>Node7</title>
<polygon fill="#ffffff" stroke="#bfbfbf" points="837.5,-.5 837.5,-41.5 996.5,-41.5 996.5,-.5 837.5,-.5"/>
<text text-anchor="start" x="845.5" y="-29.5" font-family="Helvetica,sans-Serif" font-size="10.00" fill="#000000">drake/systems/sensors</text>
<text text-anchor="start" x="845.5" y="-18.5" font-family="Helvetica,sans-Serif" font-size="10.00" fill="#000000">/test/accelerometer_test</text>
<text text-anchor="middle" x="917" y="-7.5" font-family="Helvetica,sans-Serif" font-size="10.00" fill="#000000">/accelerometer_test_logger.h</text>
</g>
<!-- Node0&#45;&gt;Node7 -->
<g id="edge7" class="edge">
<title>Node0&#45;&gt;Node7</title>
<path fill="none" stroke="#191970" d="M548.1489,-91.9963C619.3984,-80.6716 726.0322,-62.886 827.6117,-42.2352"/>
<polygon fill="#191970" stroke="#191970" points="828.3292,-45.6611 837.4249,-40.228 826.9263,-38.8031 828.3292,-45.6611"/>
</g>
</g>
</svg>
