<?xml version="1.0" encoding="UTF-8" standalone="no"?>
<!DOCTYPE svg PUBLIC "-//W3C//DTD SVG 1.1//EN"
 "http://www.w3.org/Graphics/SVG/1.1/DTD/svg11.dtd">
<!-- Generated by graphviz version 2.40.1 (20161225.0304)
 -->
<!-- Title: drake/examples/allegro_hand/allegro_lcm.h Pages: 1 -->
<svg width="616pt" height="117pt"
 viewBox="0.00 0.00 616.00 117.00" xmlns="http://www.w3.org/2000/svg" xmlns:xlink="http://www.w3.org/1999/xlink">
<g id="graph0" class="graph" transform="scale(1 1) rotate(0) translate(4 113)">
<title>drake/examples/allegro_hand/allegro_lcm.h</title>
<polygon fill="#ffffff" stroke="transparent" points="-4,4 -4,-113 612,-113 612,4 -4,4"/>
<!-- Node153 -->
<g id="node1" class="node">
<title>Node153</title>
<polygon fill="#bfbfbf" stroke="#000000" points="244,-78.5 244,-108.5 376,-108.5 376,-78.5 244,-78.5"/>
<text text-anchor="start" x="252" y="-96.5" font-family="Helvetica,sans-Serif" font-size="10.00" fill="#000000">drake/examples/allegro</text>
<text text-anchor="middle" x="310" y="-85.5" font-family="Helvetica,sans-Serif" font-size="10.00" fill="#000000">_hand/allegro_lcm.h</text>
</g>
<!-- Node154 -->
<g id="node2" class="node">
<title>Node154</title>
<g id="a_node2"><a xlink:href="allegro__lcm_8cc.html" target="_top" xlink:title="drake/examples/allegro\l_hand/allegro_lcm.cc">
<polygon fill="#ffffff" stroke="#000000" points="0,-6 0,-36 132,-36 132,-6 0,-6"/>
<text text-anchor="start" x="8" y="-24" font-family="Helvetica,sans-Serif" font-size="10.00" fill="#000000">drake/examples/allegro</text>
<text text-anchor="middle" x="66" y="-13" font-family="Helvetica,sans-Serif" font-size="10.00" fill="#000000">_hand/allegro_lcm.cc</text>
</a>
</g>
</g>
<!-- Node153&#45;&gt;Node154 -->
<g id="edge1" class="edge">
<title>Node153&#45;&gt;Node154</title>
<path fill="none" stroke="#191970" d="M249.8466,-75.6266C208.8724,-63.4518 155.244,-47.5172 116.4922,-36.0028"/>
<polygon fill="#191970" stroke="#191970" points="248.8603,-78.9847 259.443,-78.478 250.8541,-72.2746 248.8603,-78.9847"/>
</g>
<!-- Node155 -->
<g id="node3" class="node">
<title>Node155</title>
<g id="a_node3"><a xlink:href="allegro__single__object__simulation_8cc.html" target="_top" xlink:title="This file set up a simulation environment of an allegro hand and an object. ">
<polygon fill="#ffffff" stroke="#000000" points="150.5,-.5 150.5,-41.5 307.5,-41.5 307.5,-.5 150.5,-.5"/>
<text text-anchor="start" x="158.5" y="-29.5" font-family="Helvetica,sans-Serif" font-size="10.00" fill="#000000">drake/examples/allegro</text>
<text text-anchor="start" x="158.5" y="-18.5" font-family="Helvetica,sans-Serif" font-size="10.00" fill="#000000">_hand/joint_control/allegro</text>
<text text-anchor="middle" x="229" y="-7.5" font-family="Helvetica,sans-Serif" font-size="10.00" fill="#000000">_single_object_simulation.cc</text>
</a>
</g>
</g>
<!-- Node153&#45;&gt;Node155 -->
<g id="edge2" class="edge">
<title>Node153&#45;&gt;Node155</title>
<path fill="none" stroke="#191970" d="M285.4659,-71.5405C274.8016,-61.9953 262.379,-50.8762 251.9051,-41.5015"/>
<polygon fill="#191970" stroke="#191970" points="283.4312,-74.4166 293.2167,-78.478 288.0998,-69.2007 283.4312,-74.4166"/>
</g>
<!-- Node156 -->
<g id="node4" class="node">
<title>Node156</title>
<g id="a_node4"><a xlink:href="run__twisting__mug_8cc.html" target="_top" xlink:title="This file set up an example about control the allegro hand based on position. ">
<polygon fill="#ffffff" stroke="#000000" points="326,-.5 326,-41.5 458,-41.5 458,-.5 326,-.5"/>
<text text-anchor="start" x="334" y="-29.5" font-family="Helvetica,sans-Serif" font-size="10.00" fill="#000000">drake/examples/allegro</text>
<text text-anchor="start" x="334" y="-18.5" font-family="Helvetica,sans-Serif" font-size="10.00" fill="#000000">_hand/joint_control/run</text>
<text text-anchor="middle" x="392" y="-7.5" font-family="Helvetica,sans-Serif" font-size="10.00" fill="#000000">_twisting_mug.cc</text>
</a>
</g>
</g>
<!-- Node153&#45;&gt;Node156 -->
<g id="edge3" class="edge">
<title>Node153&#45;&gt;Node156</title>
<path fill="none" stroke="#191970" d="M334.52,-71.8207C345.3861,-62.2135 358.105,-50.9681 368.8121,-41.5015"/>
<polygon fill="#191970" stroke="#191970" points="332.1639,-69.232 326.9905,-78.478 336.8005,-74.4763 332.1639,-69.232"/>
</g>
<!-- Node157 -->
<g id="node5" class="node">
<title>Node157</title>
<g id="a_node5"><a xlink:href="allegro__lcm__test_8cc.html" target="_top" xlink:title="drake/examples/allegro\l_hand/test/allegro_lcm\l_test.cc">
<polygon fill="#ffffff" stroke="#000000" points="476,-.5 476,-41.5 608,-41.5 608,-.5 476,-.5"/>
<text text-anchor="start" x="484" y="-29.5" font-family="Helvetica,sans-Serif" font-size="10.00" fill="#000000">drake/examples/allegro</text>
<text text-anchor="start" x="484" y="-18.5" font-family="Helvetica,sans-Serif" font-size="10.00" fill="#000000">_hand/test/allegro_lcm</text>
<text text-anchor="middle" x="542" y="-7.5" font-family="Helvetica,sans-Serif" font-size="10.00" fill="#000000">_test.cc</text>
</a>
</g>
</g>
<!-- Node153&#45;&gt;Node157 -->
<g id="edge4" class="edge">
<title>Node153&#45;&gt;Node157</title>
<path fill="none" stroke="#191970" d="M368.0055,-75.3733C400.9426,-65.0804 442.2785,-52.163 476.3952,-41.5015"/>
<polygon fill="#191970" stroke="#191970" points="366.5714,-72.1545 358.0705,-78.478 368.6593,-78.8358 366.5714,-72.1545"/>
</g>
</g>
</svg>
