<?xml version="1.0" encoding="UTF-8" standalone="no"?>
<!DOCTYPE svg PUBLIC "-//W3C//DTD SVG 1.1//EN"
 "http://www.w3.org/Graphics/SVG/1.1/DTD/svg11.dtd">
<!-- Generated by graphviz version 2.40.1 (20161225.0304)
 -->
<!-- Title: drake/examples/humanoid_controller/atlas_command_translator_system.cc Pages: 1 -->
<svg width="633pt" height="206pt"
 viewBox="0.00 0.00 633.00 206.00" xmlns="http://www.w3.org/2000/svg" xmlns:xlink="http://www.w3.org/1999/xlink">
<g id="graph0" class="graph" transform="scale(1 1) rotate(0) translate(4 202)">
<title>drake/examples/humanoid_controller/atlas_command_translator_system.cc</title>
<polygon fill="#ffffff" stroke="transparent" points="-4,4 -4,-202 629,-202 629,4 -4,4"/>
<!-- Node0 -->
<g id="node1" class="node">
<title>Node0</title>
<polygon fill="#bfbfbf" stroke="#000000" points="153.5,-156.5 153.5,-197.5 302.5,-197.5 302.5,-156.5 153.5,-156.5"/>
<text text-anchor="start" x="161.5" y="-185.5" font-family="Helvetica,sans-Serif" font-size="10.00" fill="#000000">drake/examples/humanoid</text>
<text text-anchor="start" x="161.5" y="-174.5" font-family="Helvetica,sans-Serif" font-size="10.00" fill="#000000">_controller/atlas_command</text>
<text text-anchor="middle" x="228" y="-163.5" font-family="Helvetica,sans-Serif" font-size="10.00" fill="#000000">_translator_system.cc</text>
</g>
<!-- Node1 -->
<g id="node2" class="node">
<title>Node1</title>
<g id="a_node2"><a xlink:href="atlas__command__translator__system_8h.html" target="_top" xlink:title="drake/examples/humanoid\l_controller/atlas_command\l_translator_system.h">
<polygon fill="#ffffff" stroke="#000000" points="153.5,-78.5 153.5,-119.5 302.5,-119.5 302.5,-78.5 153.5,-78.5"/>
<text text-anchor="start" x="161.5" y="-107.5" font-family="Helvetica,sans-Serif" font-size="10.00" fill="#000000">drake/examples/humanoid</text>
<text text-anchor="start" x="161.5" y="-96.5" font-family="Helvetica,sans-Serif" font-size="10.00" fill="#000000">_controller/atlas_command</text>
<text text-anchor="middle" x="228" y="-85.5" font-family="Helvetica,sans-Serif" font-size="10.00" fill="#000000">_translator_system.h</text>
</a>
</g>
</g>
<!-- Node0&#45;&gt;Node1 -->
<g id="edge1" class="edge">
<title>Node0&#45;&gt;Node1</title>
<path fill="none" stroke="#191970" d="M228,-156.0974C228,-148.077 228,-138.7444 228,-129.9772"/>
<polygon fill="#191970" stroke="#191970" points="231.5001,-129.6898 228,-119.6898 224.5001,-129.6898 231.5001,-129.6898"/>
</g>
<!-- Node2 -->
<g id="node3" class="node">
<title>Node2</title>
<polygon fill="#ffffff" stroke="#bfbfbf" points="0,-11.5 0,-30.5 58,-30.5 58,-11.5 0,-11.5"/>
<text text-anchor="middle" x="29" y="-18.5" font-family="Helvetica,sans-Serif" font-size="10.00" fill="#000000">memory</text>
</g>
<!-- Node0&#45;&gt;Node2 -->
<g id="edge6" class="edge">
<title>Node0&#45;&gt;Node2</title>
<path fill="none" stroke="#191970" d="M188.8535,-156.4615C170.9095,-146.3763 149.7357,-133.5025 132,-120 98.3759,-94.4014 63.8837,-59.0237 44.5734,-38.2234"/>
<polygon fill="#191970" stroke="#191970" points="47.0665,-35.7637 37.7235,-30.7677 41.9117,-40.4996 47.0665,-35.7637"/>
</g>
<!-- Node3 -->
<g id="node4" class="node">
<title>Node3</title>
<polygon fill="#ffffff" stroke="#bfbfbf" points="76,-6 76,-36 216,-36 216,-6 76,-6"/>
<text text-anchor="start" x="84" y="-24" font-family="Helvetica,sans-Serif" font-size="10.00" fill="#000000">bot_core/atlas_command</text>
<text text-anchor="middle" x="146" y="-13" font-family="Helvetica,sans-Serif" font-size="10.00" fill="#000000">_t.hpp</text>
</g>
<!-- Node0&#45;&gt;Node3 -->
<g id="edge7" class="edge">
<title>Node0&#45;&gt;Node3</title>
<path fill="none" stroke="#191970" d="M181.7329,-156.2594C167.2995,-147.3078 153.0606,-135.3139 145,-120 132.9461,-97.0994 135.4167,-66.8917 139.4966,-45.8934"/>
<polygon fill="#191970" stroke="#191970" points="142.9168,-46.6364 141.64,-36.1187 136.0792,-45.137 142.9168,-46.6364"/>
</g>
<!-- Node6 -->
<g id="node7" class="node">
<title>Node6</title>
<polygon fill="#ffffff" stroke="#bfbfbf" points="320.5,-78.5 320.5,-119.5 487.5,-119.5 487.5,-78.5 320.5,-78.5"/>
<text text-anchor="start" x="328.5" y="-107.5" font-family="Helvetica,sans-Serif" font-size="10.00" fill="#000000">drake/systems/controllers</text>
<text text-anchor="start" x="328.5" y="-96.5" font-family="Helvetica,sans-Serif" font-size="10.00" fill="#000000">/qp_inverse_dynamics/qp</text>
<text text-anchor="middle" x="404" y="-85.5" font-family="Helvetica,sans-Serif" font-size="10.00" fill="#000000">_inverse_dynamics_common.h</text>
</g>
<!-- Node0&#45;&gt;Node6 -->
<g id="edge8" class="edge">
<title>Node0&#45;&gt;Node6</title>
<path fill="none" stroke="#191970" d="M274.7027,-156.3022C297.3584,-146.2616 324.737,-134.1279 348.4568,-123.6157"/>
<polygon fill="#191970" stroke="#191970" points="349.9655,-126.7755 357.6898,-119.5239 347.1292,-120.3758 349.9655,-126.7755"/>
</g>
<!-- Node7 -->
<g id="node8" class="node">
<title>Node7</title>
<polygon fill="#ffffff" stroke="#bfbfbf" points="505,-89.5 505,-108.5 625,-108.5 625,-89.5 505,-89.5"/>
<text text-anchor="middle" x="565" y="-96.5" font-family="Helvetica,sans-Serif" font-size="10.00" fill="#000000">drake/util/drakeUtil.h</text>
</g>
<!-- Node0&#45;&gt;Node7 -->
<g id="edge9" class="edge">
<title>Node0&#45;&gt;Node7</title>
<path fill="none" stroke="#191970" d="M302.6398,-163.073C356.8643,-152.4974 431.8515,-136.9248 497,-120 506.5857,-117.5098 516.8352,-114.5202 526.3931,-111.588"/>
<polygon fill="#191970" stroke="#191970" points="527.5423,-114.896 536.0462,-108.5766 525.4576,-108.2136 527.5423,-114.896"/>
</g>
<!-- Node1&#45;&gt;Node2 -->
<g id="edge2" class="edge">
<title>Node1&#45;&gt;Node2</title>
<path fill="none" stroke="#191970" d="M162.02,-78.3757C132.5092,-68.457 97.5589,-55.7409 67,-42 62.7077,-40.0699 58.2487,-37.8322 53.9596,-35.5516"/>
<polygon fill="#191970" stroke="#191970" points="55.419,-32.3594 44.9724,-30.5935 52.0376,-38.4886 55.419,-32.3594"/>
</g>
<!-- Node1&#45;&gt;Node3 -->
<g id="edge3" class="edge">
<title>Node1&#45;&gt;Node3</title>
<path fill="none" stroke="#191970" d="M206.0255,-78.0974C194.6932,-67.3179 180.8693,-54.1684 169.3454,-43.2066"/>
<polygon fill="#191970" stroke="#191970" points="171.4516,-40.3795 161.7937,-36.0233 166.6271,-45.4514 171.4516,-40.3795"/>
</g>
<!-- Node4 -->
<g id="node5" class="node">
<title>Node4</title>
<g id="a_node5"><a xlink:href="drake__copyable_8h.html" target="_top" xlink:title="Provides careful macros to selectively enable or disable the special member functions for copy&#45;constr...">
<polygon fill="#ffffff" stroke="#000000" points="234.5,-6 234.5,-36 355.5,-36 355.5,-6 234.5,-6"/>
<text text-anchor="start" x="242.5" y="-24" font-family="Helvetica,sans-Serif" font-size="10.00" fill="#000000">drake/common/drake</text>
<text text-anchor="middle" x="295" y="-13" font-family="Helvetica,sans-Serif" font-size="10.00" fill="#000000">_copyable.h</text>
</a>
</g>
</g>
<!-- Node1&#45;&gt;Node4 -->
<g id="edge4" class="edge">
<title>Node1&#45;&gt;Node4</title>
<path fill="none" stroke="#191970" d="M245.9548,-78.0974C254.9742,-67.5972 265.9254,-54.848 275.1897,-44.0628"/>
<polygon fill="#191970" stroke="#191970" points="278.0243,-46.1342 281.8853,-36.2679 272.7143,-41.573 278.0243,-46.1342"/>
</g>
<!-- Node5 -->
<g id="node6" class="node">
<title>Node5</title>
<polygon fill="#ffffff" stroke="#bfbfbf" points="374,-.5 374,-41.5 530,-41.5 530,-.5 374,-.5"/>
<text text-anchor="start" x="382" y="-29.5" font-family="Helvetica,sans-Serif" font-size="10.00" fill="#000000">drake/systems/controllers</text>
<text text-anchor="start" x="382" y="-18.5" font-family="Helvetica,sans-Serif" font-size="10.00" fill="#000000">/qp_inverse_dynamics/qp</text>
<text text-anchor="middle" x="452" y="-7.5" font-family="Helvetica,sans-Serif" font-size="10.00" fill="#000000">_output_translator_system.h</text>
</g>
<!-- Node1&#45;&gt;Node5 -->
<g id="edge5" class="edge">
<title>Node1&#45;&gt;Node5</title>
<path fill="none" stroke="#191970" d="M287.1464,-78.4044C316.6204,-68.1411 352.4308,-55.6714 383.1357,-44.9795"/>
<polygon fill="#191970" stroke="#191970" points="384.618,-48.1696 392.9109,-41.5757 382.3161,-41.5589 384.618,-48.1696"/>
</g>
</g>
</svg>
