<?xml version="1.0" encoding="UTF-8" standalone="no"?>
<!DOCTYPE svg PUBLIC "-//W3C//DTD SVG 1.1//EN"
 "http://www.w3.org/Graphics/SVG/1.1/DTD/svg11.dtd">
<!-- Generated by graphviz version 2.40.1 (20161225.0304)
 -->
<!-- Title: drake/examples/humanoid_controller/atlas_command_translator_system.h Pages: 1 -->
<!--zoomable 217 -->
<svg id="main" version="1.1" xmlns="http://www.w3.org/2000/svg" xmlns:xlink="http://www.w3.org/1999/xlink" xml:space="preserve" onload="init(evt)">
<style type="text/css"><![CDATA[
.edge:hover path { stroke: red; }
.edge:hover polygon { stroke: red; fill: red; }
]]></style>
<script type="text/javascript"><![CDATA[
var edges = document.getElementsByTagName('g');
if (edges && edges.length) {
  for (var i=0;i<edges.length;i++) {
    if (edges[i].id.substr(0,4)=='edge') {
      edges[i].setAttribute('class','edge');
    }
  }
}
]]></script>
        <defs>
                <circle id="rim" cx="0" cy="0" r="7"/>
                <circle id="rim2" cx="0" cy="0" r="3.5"/>
                <g id="zoomPlus">
                        <use xlink:href="#rim" fill="#404040">
                                <set attributeName="fill" to="#808080" begin="zoomplus.mouseover" end="zoomplus.mouseout"/>
                        </use>
                        <path d="M-4,0h8M0,-4v8" fill="none" stroke="white" stroke-width="1.5" pointer-events="none"/>
                </g>
                <g id="zoomMin">
                        <use xlink:href="#rim" fill="#404040">
                                <set attributeName="fill" to="#808080" begin="zoomminus.mouseover" end="zoomminus.mouseout"/>
                        </use>
                        <path d="M-4,0h8" fill="none" stroke="white" stroke-width="1.5" pointer-events="none"/>
                </g>
                <g id="dirArrow">
                        <path fill="none" stroke="white" stroke-width="1.5" d="M0,-3.0v7 M-2.5,-0.5L0,-3.0L2.5,-0.5"/>
                </g>
               <g id="resetDef">
                       <use xlink:href="#rim2" fill="#404040">
                               <set attributeName="fill" to="#808080" begin="reset.mouseover" end="reset.mouseout"/>
                       </use>
               </g>
        </defs>

<script type="text/javascript">
var viewWidth = 539;
var viewHeight = 217;
var sectionId = 'dynsection-1';
</script>
<script xlink:href="svgpan.js"/>
<svg id="graph" class="graph">
<g id="viewport">
<title>drake/examples/humanoid_controller/atlas_command_translator_system.h</title>
<polygon fill="#ffffff" stroke="transparent" points="-4,4 -4,-213 534.5,-213 534.5,4 -4,4"/>
<!-- Node5 -->
<g id="node1" class="node">
<title>Node5</title>
<polygon fill="#bfbfbf" stroke="#000000" points="183,-167.5 183,-208.5 332,-208.5 332,-167.5 183,-167.5"/>
<text text-anchor="start" x="191" y="-196.5" font-family="Helvetica,sans-Serif" font-size="10.00" fill="#000000">drake/examples/humanoid</text>
<text text-anchor="start" x="191" y="-185.5" font-family="Helvetica,sans-Serif" font-size="10.00" fill="#000000">_controller/atlas_command</text>
<text text-anchor="middle" x="257.5" y="-174.5" font-family="Helvetica,sans-Serif" font-size="10.00" fill="#000000">_translator_system.h</text>
</g>
<!-- Node6 -->
<g id="node2" class="node">
<title>Node6</title>
<g id="a_node2"><a xlink:href="atlas__command__translator__system_8cc.html" target="_top" xlink:title="drake/examples/humanoid\l_controller/atlas_command\l_translator_system.cc">
<polygon fill="#ffffff" stroke="#000000" points="0,-84 0,-125 149,-125 149,-84 0,-84"/>
<text text-anchor="start" x="8" y="-113" font-family="Helvetica,sans-Serif" font-size="10.00" fill="#000000">drake/examples/humanoid</text>
<text text-anchor="start" x="8" y="-102" font-family="Helvetica,sans-Serif" font-size="10.00" fill="#000000">_controller/atlas_command</text>
<text text-anchor="middle" x="74.5" y="-91" font-family="Helvetica,sans-Serif" font-size="10.00" fill="#000000">_translator_system.cc</text>
</a>
</g>
</g>
<!-- Node5&#45;&gt;Node6 -->
<g id="edge1" class="edge">
<title>Node5&#45;&gt;Node6</title>
<path fill="none" stroke="#191970" d="M203.0745,-163.1665C176.4468,-151.0167 144.7774,-136.5665 119.5324,-125.0476"/>
<polygon fill="#191970" stroke="#191970" points="201.7134,-166.3925 212.264,-167.3595 204.6192,-160.0242 201.7134,-166.3925"/>
</g>
<!-- Node7 -->
<g id="node3" class="node">
<title>Node7</title>
<g id="a_node3"><a xlink:href="humanoid__controller_8h.html" target="_top" xlink:title="drake/examples/humanoid\l_controller/humanoid_controller.h">
<polygon fill="#ffffff" stroke="#000000" points="167,-89.5 167,-119.5 348,-119.5 348,-89.5 167,-89.5"/>
<text text-anchor="start" x="175" y="-107.5" font-family="Helvetica,sans-Serif" font-size="10.00" fill="#000000">drake/examples/humanoid</text>
<text text-anchor="middle" x="257.5" y="-96.5" font-family="Helvetica,sans-Serif" font-size="10.00" fill="#000000">_controller/humanoid_controller.h</text>
</a>
</g>
</g>
<!-- Node5&#45;&gt;Node7 -->
<g id="edge2" class="edge">
<title>Node5&#45;&gt;Node7</title>
<path fill="none" stroke="#191970" d="M257.5,-157.0892C257.5,-144.3184 257.5,-130.0939 257.5,-119.6621"/>
<polygon fill="#191970" stroke="#191970" points="254.0001,-157.3595 257.5,-167.3595 261.0001,-157.3596 254.0001,-157.3595"/>
</g>
<!-- Node9 -->
<g id="node5" class="node">
<title>Node9</title>
<g id="a_node5"><a xlink:href="atlas__command__translator__system__test_8cc.html" target="_top" xlink:title="drake/examples/humanoid\l_controller/test/atlas\l_command_translator_system\l_test.cc">
<polygon fill="#ffffff" stroke="#000000" points="366.5,-78.5 366.5,-130.5 530.5,-130.5 530.5,-78.5 366.5,-78.5"/>
<text text-anchor="start" x="374.5" y="-118.5" font-family="Helvetica,sans-Serif" font-size="10.00" fill="#000000">drake/examples/humanoid</text>
<text text-anchor="start" x="374.5" y="-107.5" font-family="Helvetica,sans-Serif" font-size="10.00" fill="#000000">_controller/test/atlas</text>
<text text-anchor="start" x="374.5" y="-96.5" font-family="Helvetica,sans-Serif" font-size="10.00" fill="#000000">_command_translator_system</text>
<text text-anchor="middle" x="448.5" y="-85.5" font-family="Helvetica,sans-Serif" font-size="10.00" fill="#000000">_test.cc</text>
</a>
</g>
</g>
<!-- Node5&#45;&gt;Node9 -->
<g id="edge4" class="edge">
<title>Node5&#45;&gt;Node9</title>
<path fill="none" stroke="#191970" d="M313.8838,-163.3506C337.4652,-153.0414 364.8933,-141.0506 388.8153,-130.5925"/>
<polygon fill="#191970" stroke="#191970" points="312.4742,-160.1469 304.7135,-167.3595 315.2782,-166.5608 312.4742,-160.1469"/>
</g>
<!-- Node8 -->
<g id="node4" class="node">
<title>Node8</title>
<g id="a_node4"><a xlink:href="valkyrie__balancing__demo_8cc.html" target="_top" xlink:title="drake/examples/humanoid\l_controller/valkyrie_balancing\l_demo.cc">
<polygon fill="#ffffff" stroke="#000000" points="175.5,-.5 175.5,-41.5 339.5,-41.5 339.5,-.5 175.5,-.5"/>
<text text-anchor="start" x="183.5" y="-29.5" font-family="Helvetica,sans-Serif" font-size="10.00" fill="#000000">drake/examples/humanoid</text>
<text text-anchor="start" x="183.5" y="-18.5" font-family="Helvetica,sans-Serif" font-size="10.00" fill="#000000">_controller/valkyrie_balancing</text>
<text text-anchor="middle" x="257.5" y="-7.5" font-family="Helvetica,sans-Serif" font-size="10.00" fill="#000000">_demo.cc</text>
</a>
</g>
</g>
<!-- Node7&#45;&gt;Node8 -->
<g id="edge3" class="edge">
<title>Node7&#45;&gt;Node8</title>
<path fill="none" stroke="#191970" d="M257.5,-78.9112C257.5,-66.9282 257.5,-52.8447 257.5,-41.5668"/>
<polygon fill="#191970" stroke="#191970" points="254.0001,-79.1848 257.5,-89.1848 261.0001,-79.1848 254.0001,-79.1848"/>
</g>
</g>
</svg>
        <g id="navigator" transform="translate(0 0)" fill="#404254">
                <rect fill="#f2f5e9" fill-opacity="0.5" stroke="#606060" stroke-width=".5" x="0" y="0" width="60" height="60"/>
                <use id="zoomplus" xlink:href="#zoomPlus" x="17" y="9" onmousedown="handleZoom(evt,'in')"/>
                <use id="zoomminus" xlink:href="#zoomMin" x="42" y="9" onmousedown="handleZoom(evt,'out')"/>
                <use id="reset" xlink:href="#resetDef" x="30" y="36" onmousedown="handleReset()"/>
                <g id="arrowUp" xlink:href="#dirArrow" transform="translate(30 24)" onmousedown="handlePan(0,-1)">
                  <use xlink:href="#rim" fill="#404040">
                        <set attributeName="fill" to="#808080" begin="arrowUp.mouseover" end="arrowUp.mouseout"/>
                  </use>
                  <path fill="none" stroke="white" stroke-width="1.5" d="M0,-3.0v7 M-2.5,-0.5L0,-3.0L2.5,-0.5"/>
                </g>
                <g id="arrowRight" xlink:href="#dirArrow" transform="rotate(90) translate(36 -43)" onmousedown="handlePan(1,0)">
                  <use xlink:href="#rim" fill="#404040">
                        <set attributeName="fill" to="#808080" begin="arrowRight.mouseover" end="arrowRight.mouseout"/>
                  </use>
                  <path fill="none" stroke="white" stroke-width="1.5" d="M0,-3.0v7 M-2.5,-0.5L0,-3.0L2.5,-0.5"/>
                </g>
                <g id="arrowDown" xlink:href="#dirArrow" transform="rotate(180) translate(-30 -48)" onmousedown="handlePan(0,1)">
                  <use xlink:href="#rim" fill="#404040">
                        <set attributeName="fill" to="#808080" begin="arrowDown.mouseover" end="arrowDown.mouseout"/>
                  </use>
                  <path fill="none" stroke="white" stroke-width="1.5" d="M0,-3.0v7 M-2.5,-0.5L0,-3.0L2.5,-0.5"/>
                </g>
                <g id="arrowLeft" xlink:href="#dirArrow" transform="rotate(270) translate(-36 17)" onmousedown="handlePan(-1,0)">
                  <use xlink:href="#rim" fill="#404040">
                        <set attributeName="fill" to="#808080" begin="arrowLeft.mouseover" end="arrowLeft.mouseout"/>
                  </use>
                  <path fill="none" stroke="white" stroke-width="1.5" d="M0,-3.0v7 M-2.5,-0.5L0,-3.0L2.5,-0.5"/>
                </g>
        </g>
        <svg viewBox="0 0 15 15" width="100%" height="30px" preserveAspectRatio="xMaxYMin meet">
         <g id="arrow_out" transform="scale(0.3 0.3)">
          <a xlink:href="atlas__command__translator__system_8h__dep__incl_org.svg" target="_base">
           <rect id="button" ry="5" rx="5" y="6" x="6" height="38" width="38"
                fill="#f2f5e9" fill-opacity="0.5" stroke="#606060" stroke-width="1.0"/>
           <path id="arrow"
             d="M 11.500037,31.436501 C 11.940474,20.09759 22.043105,11.32322 32.158766,21.979434 L 37.068811,17.246167 C 37.068811,17.246167 37.088388,32 37.088388,32 L 22.160133,31.978069 C 22.160133,31.978069 26.997745,27.140456 26.997745,27.140456 C 18.528582,18.264221 13.291696,25.230495 11.500037,31.436501 z"
             style="fill:#404040;"/>
          </a>
         </g>
        </svg>
</svg>
