<?xml version="1.0" encoding="UTF-8" standalone="no"?>
<!DOCTYPE svg PUBLIC "-//W3C//DTD SVG 1.1//EN"
 "http://www.w3.org/Graphics/SVG/1.1/DTD/svg11.dtd">
<!-- Generated by graphviz version 2.40.1 (20161225.0304)
 -->
<!-- Title: drake/attic/multibody/rigid_body.cc Pages: 1 -->
<svg width="1061pt" height="307pt"
 viewBox="0.00 0.00 1060.50 307.00" xmlns="http://www.w3.org/2000/svg" xmlns:xlink="http://www.w3.org/1999/xlink">
<g id="graph0" class="graph" transform="scale(1 1) rotate(0) translate(4 303)">
<title>drake/attic/multibody/rigid_body.cc</title>
<polygon fill="#ffffff" stroke="transparent" points="-4,4 -4,-303 1056.5,-303 1056.5,4 -4,4"/>
<!-- Node0 -->
<g id="node1" class="node">
<title>Node0</title>
<polygon fill="#bfbfbf" stroke="#000000" points="469,-268.5 469,-298.5 591,-298.5 591,-268.5 469,-268.5"/>
<text text-anchor="start" x="477" y="-286.5" font-family="Helvetica,sans-Serif" font-size="10.00" fill="#000000">drake/attic/multibody</text>
<text text-anchor="middle" x="530" y="-275.5" font-family="Helvetica,sans-Serif" font-size="10.00" fill="#000000">/rigid_body.cc</text>
</g>
<!-- Node1 -->
<g id="node2" class="node">
<title>Node1</title>
<polygon fill="#ffffff" stroke="#bfbfbf" points="215,-201.5 215,-231.5 337,-231.5 337,-201.5 215,-201.5"/>
<text text-anchor="start" x="223" y="-219.5" font-family="Helvetica,sans-Serif" font-size="10.00" fill="#000000">drake/multibody/rigid</text>
<text text-anchor="middle" x="276" y="-208.5" font-family="Helvetica,sans-Serif" font-size="10.00" fill="#000000">_body.h</text>
</g>
<!-- Node0&#45;&gt;Node1 -->
<g id="edge1" class="edge">
<title>Node0&#45;&gt;Node1</title>
<path fill="none" stroke="#191970" d="M472.9974,-268.4639C434.4872,-258.3057 383.4894,-244.8535 343.031,-234.1814"/>
<polygon fill="#191970" stroke="#191970" points="343.8132,-230.7681 333.2512,-231.6017 342.0277,-237.5366 343.8132,-230.7681"/>
</g>
<!-- Node2 -->
<g id="node3" class="node">
<title>Node2</title>
<polygon fill="#ffffff" stroke="#bfbfbf" points="355,-207 355,-226 419,-226 419,-207 355,-207"/>
<text text-anchor="middle" x="387" y="-214" font-family="Helvetica,sans-Serif" font-size="10.00" fill="#000000">algorithm</text>
</g>
<!-- Node0&#45;&gt;Node2 -->
<g id="edge2" class="edge">
<title>Node0&#45;&gt;Node2</title>
<path fill="none" stroke="#191970" d="M497.908,-268.4639C473.5902,-257.0702 440.4279,-241.5327 416.7138,-230.4219"/>
<polygon fill="#191970" stroke="#191970" points="418.0382,-227.1773 407.4979,-226.1039 415.0683,-233.5161 418.0382,-227.1773"/>
</g>
<!-- Node3 -->
<g id="node4" class="node">
<title>Node3</title>
<polygon fill="#ffffff" stroke="#bfbfbf" points="437.5,-207 437.5,-226 502.5,-226 502.5,-207 437.5,-207"/>
<text text-anchor="middle" x="470" y="-214" font-family="Helvetica,sans-Serif" font-size="10.00" fill="#000000">stdexcept</text>
</g>
<!-- Node0&#45;&gt;Node3 -->
<g id="edge3" class="edge">
<title>Node0&#45;&gt;Node3</title>
<path fill="none" stroke="#191970" d="M516.3851,-268.2967C507.1276,-257.9591 494.8673,-244.2684 485.2765,-233.5588"/>
<polygon fill="#191970" stroke="#191970" points="487.8353,-231.1696 478.5567,-226.055 482.6206,-235.8394 487.8353,-231.1696"/>
</g>
<!-- Node4 -->
<g id="node5" class="node">
<title>Node4</title>
<g id="a_node5"><a xlink:href="common_2autodiff_8h.html" target="_top" xlink:title="drake/common/autodiff.h">
<polygon fill="#ffffff" stroke="#000000" points="521,-207 521,-226 661,-226 661,-207 521,-207"/>
<text text-anchor="middle" x="591" y="-214" font-family="Helvetica,sans-Serif" font-size="10.00" fill="#000000">drake/common/autodiff.h</text>
</a>
</g>
</g>
<!-- Node0&#45;&gt;Node4 -->
<g id="edge4" class="edge">
<title>Node0&#45;&gt;Node4</title>
<path fill="none" stroke="#191970" d="M543.8418,-268.2967C553.2537,-257.9591 565.7183,-244.2684 575.4689,-233.5588"/>
<polygon fill="#191970" stroke="#191970" points="578.1565,-235.8057 582.3007,-226.055 572.9804,-231.0931 578.1565,-235.8057"/>
</g>
<!-- Node25 -->
<g id="node26" class="node">
<title>Node25</title>
<g id="a_node26"><a xlink:href="text__logging_8h.html" target="_top" xlink:title="This is the entry point for all text logging within Drake. ">
<polygon fill="#ffffff" stroke="#000000" points="679.5,-207 679.5,-226 842.5,-226 842.5,-207 679.5,-207"/>
<text text-anchor="middle" x="761" y="-214" font-family="Helvetica,sans-Serif" font-size="10.00" fill="#000000">drake/common/text_logging.h</text>
</a>
</g>
</g>
<!-- Node0&#45;&gt;Node25 -->
<g id="edge32" class="edge">
<title>Node0&#45;&gt;Node25</title>
<path fill="none" stroke="#191970" d="M581.8409,-268.4639C622.9915,-256.5284 679.8205,-240.0456 718.3589,-228.8678"/>
<polygon fill="#191970" stroke="#191970" points="719.5989,-232.1524 728.228,-226.0053 717.6489,-225.4295 719.5989,-232.1524"/>
</g>
<!-- Node26 -->
<g id="node27" class="node">
<title>Node26</title>
<polygon fill="#ffffff" stroke="#bfbfbf" points="860.5,-201.5 860.5,-231.5 1003.5,-231.5 1003.5,-201.5 860.5,-201.5"/>
<text text-anchor="start" x="868.5" y="-219.5" font-family="Helvetica,sans-Serif" font-size="10.00" fill="#000000">drake/util/drakeGeometry</text>
<text text-anchor="middle" x="932" y="-208.5" font-family="Helvetica,sans-Serif" font-size="10.00" fill="#000000">Util.h</text>
</g>
<!-- Node0&#45;&gt;Node26 -->
<g id="edge34" class="edge">
<title>Node0&#45;&gt;Node26</title>
<path fill="none" stroke="#191970" d="M591.2307,-274.318C653.9297,-264.7777 754.4587,-249.1002 850.6036,-232.2185"/>
<polygon fill="#191970" stroke="#191970" points="851.2518,-235.6583 860.4922,-230.4751 850.0364,-228.7646 851.2518,-235.6583"/>
</g>
<!-- Node5 -->
<g id="node6" class="node">
<title>Node5</title>
<polygon fill="#ffffff" stroke="#bfbfbf" points="556.5,-140 556.5,-159 625.5,-159 625.5,-140 556.5,-140"/>
<text text-anchor="middle" x="591" y="-147" font-family="Helvetica,sans-Serif" font-size="10.00" fill="#000000">Eigen/Core</text>
</g>
<!-- Node4&#45;&gt;Node5 -->
<g id="edge5" class="edge">
<title>Node4&#45;&gt;Node5</title>
<path fill="none" stroke="#191970" d="M591,-206.9005C591,-197.149 591,-181.7597 591,-169.3695"/>
<polygon fill="#191970" stroke="#191970" points="594.5001,-169.0816 591,-159.0817 587.5001,-169.0817 594.5001,-169.0816"/>
</g>
<!-- Node6 -->
<g id="node7" class="node">
<title>Node6</title>
<polygon fill="#ffffff" stroke="#bfbfbf" points="643.5,-140 643.5,-159 794.5,-159 794.5,-140 643.5,-140"/>
<text text-anchor="middle" x="719" y="-147" font-family="Helvetica,sans-Serif" font-size="10.00" fill="#000000">unsupported/Eigen/AutoDiff</text>
</g>
<!-- Node4&#45;&gt;Node6 -->
<g id="edge6" class="edge">
<title>Node4&#45;&gt;Node6</title>
<path fill="none" stroke="#191970" d="M609.3393,-206.9005C630.9156,-195.6067 666.9391,-176.7506 691.7766,-163.7497"/>
<polygon fill="#191970" stroke="#191970" points="693.4582,-166.8201 700.6947,-159.0817 690.2119,-160.6183 693.4582,-166.8201"/>
</g>
<!-- Node7 -->
<g id="node8" class="node">
<title>Node7</title>
<g id="a_node8"><a xlink:href="eigen__autodiff__limits_8h.html" target="_top" xlink:title="drake/common/eigen\l_autodiff_limits.h">
<polygon fill="#ffffff" stroke="#000000" points="16,-134.5 16,-164.5 136,-164.5 136,-134.5 16,-134.5"/>
<text text-anchor="start" x="24" y="-152.5" font-family="Helvetica,sans-Serif" font-size="10.00" fill="#000000">drake/common/eigen</text>
<text text-anchor="middle" x="76" y="-141.5" font-family="Helvetica,sans-Serif" font-size="10.00" fill="#000000">_autodiff_limits.h</text>
</a>
</g>
</g>
<!-- Node4&#45;&gt;Node7 -->
<g id="edge7" class="edge">
<title>Node4&#45;&gt;Node7</title>
<path fill="none" stroke="#191970" d="M545.57,-206.9721C534.6071,-204.8431 522.9082,-202.7118 512,-201 476.7783,-195.4727 260.1423,-170.515 146.0875,-157.4817"/>
<polygon fill="#191970" stroke="#191970" points="146.3814,-153.9926 136.0487,-156.335 145.5869,-160.9473 146.3814,-153.9926"/>
</g>
<!-- Node9 -->
<g id="node10" class="node">
<title>Node9</title>
<g id="a_node10"><a xlink:href="eigen__autodiff__types_8h.html" target="_top" xlink:title="This file contains abbreviated definitions for certain uses of AutoDiffScalar that are commonly used ...">
<polygon fill="#ffffff" stroke="#000000" points="813,-134.5 813,-164.5 933,-164.5 933,-134.5 813,-134.5"/>
<text text-anchor="start" x="821" y="-152.5" font-family="Helvetica,sans-Serif" font-size="10.00" fill="#000000">drake/common/eigen</text>
<text text-anchor="middle" x="873" y="-141.5" font-family="Helvetica,sans-Serif" font-size="10.00" fill="#000000">_autodiff_types.h</text>
</a>
</g>
</g>
<!-- Node4&#45;&gt;Node9 -->
<g id="edge9" class="edge">
<title>Node4&#45;&gt;Node9</title>
<path fill="none" stroke="#191970" d="M631.1042,-206.9717C675.7674,-196.3602 748.7938,-179.01 802.9428,-166.1448"/>
<polygon fill="#191970" stroke="#191970" points="803.9027,-169.5142 812.8228,-163.7974 802.2846,-162.7038 803.9027,-169.5142"/>
</g>
<!-- Node16 -->
<g id="node17" class="node">
<title>Node16</title>
<g id="a_node17"><a xlink:href="autodiffxd_8h.html" target="_top" xlink:title="drake/common/autodiffxd.h">
<polygon fill="#ffffff" stroke="#000000" points="386,-140 386,-159 538,-159 538,-140 386,-140"/>
<text text-anchor="middle" x="462" y="-147" font-family="Helvetica,sans-Serif" font-size="10.00" fill="#000000">drake/common/autodiffxd.h</text>
</a>
</g>
</g>
<!-- Node4&#45;&gt;Node16 -->
<g id="edge17" class="edge">
<title>Node4&#45;&gt;Node16</title>
<path fill="none" stroke="#191970" d="M572.5174,-206.9005C550.7725,-195.6067 514.4677,-176.7506 489.436,-163.7497"/>
<polygon fill="#191970" stroke="#191970" points="490.9359,-160.5849 480.4483,-159.0817 487.7095,-166.797 490.9359,-160.5849"/>
</g>
<!-- Node19 -->
<g id="node20" class="node">
<title>Node19</title>
<g id="a_node20"><a xlink:href="autodiff__overloads_8h.html" target="_top" xlink:title="Overloads for STL mathematical operations on AutoDiffScalar. ">
<polygon fill="#ffffff" stroke="#000000" points="221.5,-134.5 221.5,-164.5 352.5,-164.5 352.5,-134.5 221.5,-134.5"/>
<text text-anchor="start" x="229.5" y="-152.5" font-family="Helvetica,sans-Serif" font-size="10.00" fill="#000000">drake/common/autodiff</text>
<text text-anchor="middle" x="287" y="-141.5" font-family="Helvetica,sans-Serif" font-size="10.00" fill="#000000">_overloads.h</text>
</a>
</g>
</g>
<!-- Node4&#45;&gt;Node19 -->
<g id="edge21" class="edge">
<title>Node4&#45;&gt;Node19</title>
<path fill="none" stroke="#191970" d="M547.7671,-206.9717C499.6522,-196.3674 421.0028,-179.0335 362.6415,-166.171"/>
<polygon fill="#191970" stroke="#191970" points="363.2452,-162.7201 352.7262,-163.9857 361.7385,-169.556 363.2452,-162.7201"/>
</g>
<!-- Node8 -->
<g id="node9" class="node">
<title>Node8</title>
<polygon fill="#ffffff" stroke="#bfbfbf" points="0,-6 0,-25 44,-25 44,-6 0,-6"/>
<text text-anchor="middle" x="22" y="-13" font-family="Helvetica,sans-Serif" font-size="10.00" fill="#000000">limits</text>
</g>
<!-- Node7&#45;&gt;Node8 -->
<g id="edge8" class="edge">
<title>Node7&#45;&gt;Node8</title>
<path fill="none" stroke="#191970" d="M44.8046,-134.3802C30.8335,-125.8126 15.7783,-113.6483 8,-98 -2.0544,-77.7728 5.2689,-51.6828 12.5698,-34.3133"/>
<polygon fill="#191970" stroke="#191970" points="15.7594,-35.7542 16.7343,-25.2043 9.3932,-32.8436 15.7594,-35.7542"/>
</g>
<!-- Node10 -->
<g id="node11" class="node">
<title>Node10</title>
<polygon fill="#ffffff" stroke="#bfbfbf" points="368.5,-6 368.5,-25 437.5,-25 437.5,-6 368.5,-6"/>
<text text-anchor="middle" x="403" y="-13" font-family="Helvetica,sans-Serif" font-size="10.00" fill="#000000">type_traits</text>
</g>
<!-- Node9&#45;&gt;Node10 -->
<g id="edge10" class="edge">
<title>Node9&#45;&gt;Node10</title>
<path fill="none" stroke="#191970" d="M828.6453,-134.43C777.1073,-117.152 689.3663,-88.4539 613,-67 556.2898,-51.0681 490.1993,-35.3176 447.536,-25.5122"/>
<polygon fill="#191970" stroke="#191970" points="448.2726,-22.0904 437.7438,-23.2715 446.7111,-28.914 448.2726,-22.0904"/>
</g>
<!-- Node11 -->
<g id="node12" class="node">
<title>Node11</title>
<polygon fill="#ffffff" stroke="#bfbfbf" points="593.5,-6 593.5,-25 670.5,-25 670.5,-6 593.5,-6"/>
<text text-anchor="middle" x="632" y="-13" font-family="Helvetica,sans-Serif" font-size="10.00" fill="#000000">Eigen/Dense</text>
</g>
<!-- Node9&#45;&gt;Node11 -->
<g id="edge11" class="edge">
<title>Node9&#45;&gt;Node11</title>
<path fill="none" stroke="#191970" d="M845.8227,-134.389C799.0651,-108.3909 704.0041,-55.5355 658.0417,-29.9796"/>
<polygon fill="#191970" stroke="#191970" points="659.7139,-26.9048 649.2732,-25.1042 656.3122,-33.0227 659.7139,-26.9048"/>
</g>
<!-- Node12 -->
<g id="node13" class="node">
<title>Node12</title>
<g id="a_node13"><a xlink:href="eigen__types_8h.html" target="_top" xlink:title="This file contains abbreviated definitions for certain specializations of Eigen::Matrix that are comm...">
<polygon fill="#ffffff" stroke="#000000" points="813,-67.5 813,-97.5 933,-97.5 933,-67.5 813,-67.5"/>
<text text-anchor="start" x="821" y="-85.5" font-family="Helvetica,sans-Serif" font-size="10.00" fill="#000000">drake/common/eigen</text>
<text text-anchor="middle" x="873" y="-74.5" font-family="Helvetica,sans-Serif" font-size="10.00" fill="#000000">_types.h</text>
</a>
</g>
</g>
<!-- Node9&#45;&gt;Node12 -->
<g id="edge12" class="edge">
<title>Node9&#45;&gt;Node12</title>
<path fill="none" stroke="#191970" d="M873,-134.2967C873,-126.5013 873,-116.7991 873,-107.9064"/>
<polygon fill="#191970" stroke="#191970" points="876.5001,-107.6431 873,-97.6432 869.5001,-107.6432 876.5001,-107.6431"/>
</g>
<!-- Node12&#45;&gt;Node11 -->
<g id="edge14" class="edge">
<title>Node12&#45;&gt;Node11</title>
<path fill="none" stroke="#191970" d="M813.2219,-67.3977C774.9864,-57.5287 724.4091,-44.0858 680,-31 676.85,-30.0718 673.5929,-29.083 670.3277,-28.0711"/>
<polygon fill="#191970" stroke="#191970" points="671.1962,-24.6751 660.6064,-25.0044 669.0902,-31.3508 671.1962,-24.6751"/>
</g>
<!-- Node13 -->
<g id="node14" class="node">
<title>Node13</title>
<polygon fill="#ffffff" stroke="#bfbfbf" points="855,-6 855,-25 913,-25 913,-6 855,-6"/>
<text text-anchor="middle" x="884" y="-13" font-family="Helvetica,sans-Serif" font-size="10.00" fill="#000000">memory</text>
</g>
<!-- Node12&#45;&gt;Node13 -->
<g id="edge13" class="edge">
<title>Node12&#45;&gt;Node13</title>
<path fill="none" stroke="#191970" d="M875.4961,-67.2967C877.0602,-57.7699 879.0918,-45.3954 880.7771,-35.1306"/>
<polygon fill="#191970" stroke="#191970" points="884.2649,-35.4899 882.4313,-25.055 877.3573,-34.3558 884.2649,-35.4899"/>
</g>
<!-- Node14 -->
<g id="node15" class="node">
<title>Node14</title>
<g id="a_node15"><a xlink:href="constants_8h.html" target="_top" xlink:title="drake/common/constants.h">
<polygon fill="#ffffff" stroke="#000000" points="688.5,-6 688.5,-25 837.5,-25 837.5,-6 688.5,-6"/>
<text text-anchor="middle" x="763" y="-13" font-family="Helvetica,sans-Serif" font-size="10.00" fill="#000000">drake/common/constants.h</text>
</a>
</g>
</g>
<!-- Node12&#45;&gt;Node14 -->
<g id="edge15" class="edge">
<title>Node12&#45;&gt;Node14</title>
<path fill="none" stroke="#191970" d="M848.3139,-67.4639C830.1898,-56.4247 805.6791,-41.4954 787.58,-30.4715"/>
<polygon fill="#191970" stroke="#191970" points="789.1288,-27.3167 778.7676,-25.1039 785.4874,-33.2951 789.1288,-27.3167"/>
</g>
<!-- Node15 -->
<g id="node16" class="node">
<title>Node15</title>
<g id="a_node16"><a xlink:href="drake__copyable_8h.html" target="_top" xlink:title="Provides careful macros to selectively enable or disable the special member functions for copy&#45;constr...">
<polygon fill="#ffffff" stroke="#000000" points="931.5,-.5 931.5,-30.5 1052.5,-30.5 1052.5,-.5 931.5,-.5"/>
<text text-anchor="start" x="939.5" y="-18.5" font-family="Helvetica,sans-Serif" font-size="10.00" fill="#000000">drake/common/drake</text>
<text text-anchor="middle" x="992" y="-7.5" font-family="Helvetica,sans-Serif" font-size="10.00" fill="#000000">_copyable.h</text>
</a>
</g>
</g>
<!-- Node12&#45;&gt;Node15 -->
<g id="edge16" class="edge">
<title>Node12&#45;&gt;Node15</title>
<path fill="none" stroke="#191970" d="M899.7059,-67.4639C916.2784,-58.1332 937.7871,-46.0232 955.8711,-35.8415"/>
<polygon fill="#191970" stroke="#191970" points="957.9748,-38.6737 964.9715,-30.7177 954.5405,-32.574 957.9748,-38.6737"/>
</g>
<!-- Node16&#45;&gt;Node11 -->
<g id="edge20" class="edge">
<title>Node16&#45;&gt;Node11</title>
<path fill="none" stroke="#191970" d="M504.2539,-139.9622C543.5701,-130.254 598.2463,-114.3464 613,-98 628.4134,-80.9228 632.0817,-53.889 632.6052,-35.4567"/>
<polygon fill="#191970" stroke="#191970" points="636.1052,-35.2562 632.6016,-25.2575 629.1052,-35.2587 636.1052,-35.2562"/>
</g>
<!-- Node17 -->
<g id="node18" class="node">
<title>Node17</title>
<polygon fill="#ffffff" stroke="#bfbfbf" points="481.5,-73 481.5,-92 528.5,-92 528.5,-73 481.5,-73"/>
<text text-anchor="middle" x="505" y="-80" font-family="Helvetica,sans-Serif" font-size="10.00" fill="#000000">cmath</text>
</g>
<!-- Node16&#45;&gt;Node17 -->
<g id="edge18" class="edge">
<title>Node16&#45;&gt;Node17</title>
<path fill="none" stroke="#191970" d="M468.1609,-139.9005C474.7386,-129.6515 485.3133,-113.1747 493.4493,-100.4976"/>
<polygon fill="#191970" stroke="#191970" points="496.3949,-102.388 498.8506,-92.0817 490.5037,-98.6071 496.3949,-102.388"/>
</g>
<!-- Node18 -->
<g id="node19" class="node">
<title>Node18</title>
<polygon fill="#ffffff" stroke="#bfbfbf" points="546.5,-73 546.5,-92 603.5,-92 603.5,-73 546.5,-73"/>
<text text-anchor="middle" x="575" y="-80" font-family="Helvetica,sans-Serif" font-size="10.00" fill="#000000">ostream</text>
</g>
<!-- Node16&#45;&gt;Node18 -->
<g id="edge19" class="edge">
<title>Node16&#45;&gt;Node18</title>
<path fill="none" stroke="#191970" d="M478.1901,-139.9005C496.9863,-128.7559 528.2016,-110.2477 550.0924,-97.2682"/>
<polygon fill="#191970" stroke="#191970" points="552.0233,-100.1924 558.8399,-92.0817 548.4531,-94.1712 552.0233,-100.1924"/>
</g>
<!-- Node19&#45;&gt;Node8 -->
<g id="edge23" class="edge">
<title>Node19&#45;&gt;Node8</title>
<path fill="none" stroke="#191970" d="M221.4708,-143.7107C157.4809,-136.7054 66.1624,-122.6644 41,-98 24.4068,-81.7352 21.0616,-54.0981 20.9301,-35.3363"/>
<polygon fill="#191970" stroke="#191970" points="24.4317,-35.3025 21.1608,-25.2252 17.4335,-35.1428 24.4317,-35.3025"/>
</g>
<!-- Node19&#45;&gt;Node17 -->
<g id="edge22" class="edge">
<title>Node19&#45;&gt;Node17</title>
<path fill="none" stroke="#191970" d="M352.4828,-134.4537C388.546,-125.4025 433.8103,-112.7776 473,-98 474.4079,-97.4691 475.8378,-96.8988 477.2727,-96.3014"/>
<polygon fill="#191970" stroke="#191970" points="478.9479,-99.3859 486.6362,-92.0961 476.08,-93.0003 478.9479,-99.3859"/>
</g>
<!-- Node20 -->
<g id="node21" class="node">
<title>Node20</title>
<g id="a_node21"><a xlink:href="cond_8h.html" target="_top" xlink:title="drake/common/cond.h">
<polygon fill="#ffffff" stroke="#000000" points="199.5,-73 199.5,-92 324.5,-92 324.5,-73 199.5,-73"/>
<text text-anchor="middle" x="262" y="-80" font-family="Helvetica,sans-Serif" font-size="10.00" fill="#000000">drake/common/cond.h</text>
</a>
</g>
</g>
<!-- Node19&#45;&gt;Node20 -->
<g id="edge24" class="edge">
<title>Node19&#45;&gt;Node20</title>
<path fill="none" stroke="#191970" d="M281.3271,-134.2967C277.6967,-124.5672 272.958,-111.8675 269.0815,-101.4784"/>
<polygon fill="#191970" stroke="#191970" points="272.3404,-100.2004 265.5653,-92.055 265.7821,-102.6476 272.3404,-100.2004"/>
</g>
<!-- Node23 -->
<g id="node24" class="node">
<title>Node23</title>
<g id="a_node24"><a xlink:href="drake__assert_8h.html" target="_top" xlink:title="Provides Drake&#39;s assertion implementation. ">
<polygon fill="#ffffff" stroke="#000000" points="342.5,-67.5 342.5,-97.5 463.5,-97.5 463.5,-67.5 342.5,-67.5"/>
<text text-anchor="start" x="350.5" y="-85.5" font-family="Helvetica,sans-Serif" font-size="10.00" fill="#000000">drake/common/drake</text>
<text text-anchor="middle" x="403" y="-74.5" font-family="Helvetica,sans-Serif" font-size="10.00" fill="#000000">_assert.h</text>
</a>
</g>
</g>
<!-- Node19&#45;&gt;Node23 -->
<g id="edge28" class="edge">
<title>Node19&#45;&gt;Node23</title>
<path fill="none" stroke="#191970" d="M313.0327,-134.4639C329.1874,-125.1332 350.1538,-113.0232 367.782,-102.8415"/>
<polygon fill="#191970" stroke="#191970" points="369.744,-105.7501 376.6529,-97.7177 366.2429,-99.6885 369.744,-105.7501"/>
</g>
<!-- Node24 -->
<g id="node25" class="node">
<title>Node24</title>
<g id="a_node25"><a xlink:href="dummy__value_8h.html" target="_top" xlink:title="drake/common/dummy\l_value.h">
<polygon fill="#ffffff" stroke="#000000" points="50.5,-67.5 50.5,-97.5 181.5,-97.5 181.5,-67.5 50.5,-67.5"/>
<text text-anchor="start" x="58.5" y="-85.5" font-family="Helvetica,sans-Serif" font-size="10.00" fill="#000000">drake/common/dummy</text>
<text text-anchor="middle" x="116" y="-74.5" font-family="Helvetica,sans-Serif" font-size="10.00" fill="#000000">_value.h</text>
</a>
</g>
</g>
<!-- Node19&#45;&gt;Node24 -->
<g id="edge30" class="edge">
<title>Node19&#45;&gt;Node24</title>
<path fill="none" stroke="#191970" d="M248.6243,-134.4639C223.6299,-124.6708 190.822,-111.8162 164.0908,-101.3426"/>
<polygon fill="#191970" stroke="#191970" points="165.1308,-97.9911 154.5431,-97.6017 162.5771,-104.5086 165.1308,-97.9911"/>
</g>
<!-- Node20&#45;&gt;Node10 -->
<g id="edge26" class="edge">
<title>Node20&#45;&gt;Node10</title>
<path fill="none" stroke="#191970" d="M282.2019,-72.9005C306.179,-61.5072 346.3521,-42.4178 373.7321,-29.4075"/>
<polygon fill="#191970" stroke="#191970" points="375.3056,-32.5348 382.8356,-25.0817 372.3013,-26.2123 375.3056,-32.5348"/>
</g>
<!-- Node21 -->
<g id="node22" class="node">
<title>Node21</title>
<polygon fill="#ffffff" stroke="#bfbfbf" points="127.5,-6 127.5,-25 192.5,-25 192.5,-6 127.5,-6"/>
<text text-anchor="middle" x="160" y="-13" font-family="Helvetica,sans-Serif" font-size="10.00" fill="#000000">functional</text>
</g>
<!-- Node20&#45;&gt;Node21 -->
<g id="edge25" class="edge">
<title>Node20&#45;&gt;Node21</title>
<path fill="none" stroke="#191970" d="M247.3859,-72.9005C230.571,-61.8554 202.7451,-43.5776 183.0142,-30.6172"/>
<polygon fill="#191970" stroke="#191970" points="184.8667,-27.6465 174.587,-25.0817 181.0236,-33.4972 184.8667,-27.6465"/>
</g>
<!-- Node22 -->
<g id="node23" class="node">
<title>Node22</title>
<g id="a_node23"><a xlink:href="double__overloads_8h.html" target="_top" xlink:title="Provides necessary operations on double to have it as a ScalarType in drake. ">
<polygon fill="#ffffff" stroke="#000000" points="211,-.5 211,-30.5 337,-30.5 337,-.5 211,-.5"/>
<text text-anchor="start" x="219" y="-18.5" font-family="Helvetica,sans-Serif" font-size="10.00" fill="#000000">drake/common/double</text>
<text text-anchor="middle" x="274" y="-7.5" font-family="Helvetica,sans-Serif" font-size="10.00" fill="#000000">_overloads.h</text>
</a>
</g>
</g>
<!-- Node20&#45;&gt;Node22 -->
<g id="edge27" class="edge">
<title>Node20&#45;&gt;Node22</title>
<path fill="none" stroke="#191970" d="M263.7193,-72.9005C265.2221,-64.5099 267.4725,-51.9451 269.485,-40.7085"/>
<polygon fill="#191970" stroke="#191970" points="272.9916,-40.9822 271.3095,-30.5218 266.1013,-39.7481 272.9916,-40.9822"/>
</g>
<!-- Node23&#45;&gt;Node10 -->
<g id="edge29" class="edge">
<title>Node23&#45;&gt;Node10</title>
<path fill="none" stroke="#191970" d="M403,-67.2967C403,-57.7699 403,-45.3954 403,-35.1306"/>
<polygon fill="#191970" stroke="#191970" points="406.5001,-35.0549 403,-25.055 399.5001,-35.055 406.5001,-35.0549"/>
</g>
<!-- Node24&#45;&gt;Node8 -->
<g id="edge31" class="edge">
<title>Node24&#45;&gt;Node8</title>
<path fill="none" stroke="#191970" d="M94.6699,-67.2967C79.4555,-56.4524 59.0643,-41.9182 43.7547,-31.006"/>
<polygon fill="#191970" stroke="#191970" points="45.5802,-28.0091 35.4055,-25.055 41.5172,-33.7093 45.5802,-28.0091"/>
</g>
<!-- Node25&#45;&gt;Node15 -->
<g id="edge33" class="edge">
<title>Node25&#45;&gt;Node15</title>
<path fill="none" stroke="#191970" d="M814.7412,-206.9445C861.2014,-197.6814 923.693,-182.4915 942,-165 976.6672,-131.8769 987.3022,-74.0724 990.5619,-40.8813"/>
<polygon fill="#191970" stroke="#191970" points="994.0727,-40.8944 991.4087,-30.6399 987.0965,-40.3175 994.0727,-40.8944"/>
</g>
</g>
</svg>
