<?xml version="1.0" encoding="UTF-8" standalone="no"?>
<!DOCTYPE svg PUBLIC "-//W3C//DTD SVG 1.1//EN"
 "http://www.w3.org/Graphics/SVG/1.1/DTD/svg11.dtd">
<!-- Generated by graphviz version 2.40.1 (20161225.0304)
 -->
<!-- Title: drake/attic/multibody/parsers/urdf_parser.cc Pages: 1 -->
<!--zoomable 251 -->
<svg id="main" version="1.1" xmlns="http://www.w3.org/2000/svg" xmlns:xlink="http://www.w3.org/1999/xlink" xml:space="preserve" onload="init(evt)">
<style type="text/css"><![CDATA[
.edge:hover path { stroke: red; }
.edge:hover polygon { stroke: red; fill: red; }
]]></style>
<script type="text/javascript"><![CDATA[
var edges = document.getElementsByTagName('g');
if (edges && edges.length) {
  for (var i=0;i<edges.length;i++) {
    if (edges[i].id.substr(0,4)=='edge') {
      edges[i].setAttribute('class','edge');
    }
  }
}
]]></script>
        <defs>
                <circle id="rim" cx="0" cy="0" r="7"/>
                <circle id="rim2" cx="0" cy="0" r="3.5"/>
                <g id="zoomPlus">
                        <use xlink:href="#rim" fill="#404040">
                                <set attributeName="fill" to="#808080" begin="zoomplus.mouseover" end="zoomplus.mouseout"/>
                        </use>
                        <path d="M-4,0h8M0,-4v8" fill="none" stroke="white" stroke-width="1.5" pointer-events="none"/>
                </g>
                <g id="zoomMin">
                        <use xlink:href="#rim" fill="#404040">
                                <set attributeName="fill" to="#808080" begin="zoomminus.mouseover" end="zoomminus.mouseout"/>
                        </use>
                        <path d="M-4,0h8" fill="none" stroke="white" stroke-width="1.5" pointer-events="none"/>
                </g>
                <g id="dirArrow">
                        <path fill="none" stroke="white" stroke-width="1.5" d="M0,-3.0v7 M-2.5,-0.5L0,-3.0L2.5,-0.5"/>
                </g>
               <g id="resetDef">
                       <use xlink:href="#rim2" fill="#404040">
                               <set attributeName="fill" to="#808080" begin="reset.mouseover" end="reset.mouseout"/>
                       </use>
               </g>
        </defs>

<script type="text/javascript">
var viewWidth = 1951;
var viewHeight = 251;
var sectionId = 'dynsection-0';
</script>
<script xlink:href="svgpan.js"/>
<svg id="graph" class="graph">
<g id="viewport">
<title>drake/attic/multibody/parsers/urdf_parser.cc</title>
<polygon fill="#ffffff" stroke="transparent" points="-4,4 -4,-247 1947,-247 1947,4 -4,4"/>
<!-- Node0 -->
<g id="node1" class="node">
<title>Node0</title>
<polygon fill="#bfbfbf" stroke="#000000" points="735,-212.5 735,-242.5 863,-242.5 863,-212.5 735,-212.5"/>
<text text-anchor="start" x="743" y="-230.5" font-family="Helvetica,sans-Serif" font-size="10.00" fill="#000000">drake/attic/multibody</text>
<text text-anchor="middle" x="799" y="-219.5" font-family="Helvetica,sans-Serif" font-size="10.00" fill="#000000">/parsers/urdf_parser.cc</text>
</g>
<!-- Node1 -->
<g id="node2" class="node">
<title>Node1</title>
<polygon fill="#ffffff" stroke="#bfbfbf" points="0,-140 0,-170 136,-170 136,-140 0,-140"/>
<text text-anchor="start" x="8" y="-158" font-family="Helvetica,sans-Serif" font-size="10.00" fill="#000000">drake/multibody/parsers</text>
<text text-anchor="middle" x="68" y="-147" font-family="Helvetica,sans-Serif" font-size="10.00" fill="#000000">/urdf_parser.h</text>
</g>
<!-- Node0&#45;&gt;Node1 -->
<g id="edge1" class="edge">
<title>Node0&#45;&gt;Node1</title>
<path fill="none" stroke="#191970" d="M734.9103,-226.4327C617.2057,-223.5931 359.03,-213.2727 145,-176 139.3157,-175.0101 133.4433,-173.7866 127.5945,-172.4317"/>
<polygon fill="#191970" stroke="#191970" points="128.3555,-169.0148 117.8109,-170.0455 126.6968,-175.8154 128.3555,-169.0148"/>
</g>
<!-- Node2 -->
<g id="node3" class="node">
<title>Node2</title>
<polygon fill="#ffffff" stroke="#bfbfbf" points="154,-145.5 154,-164.5 218,-164.5 218,-145.5 154,-145.5"/>
<text text-anchor="middle" x="186" y="-152.5" font-family="Helvetica,sans-Serif" font-size="10.00" fill="#000000">algorithm</text>
</g>
<!-- Node0&#45;&gt;Node2 -->
<g id="edge2" class="edge">
<title>Node0&#45;&gt;Node2</title>
<path fill="none" stroke="#191970" d="M734.9343,-224.8136C606.2952,-218.9156 320.8651,-203.1514 227,-176 221.4302,-174.3889 215.7268,-172.006 210.4122,-169.4178"/>
<polygon fill="#191970" stroke="#191970" points="211.8575,-166.2232 201.3787,-164.6594 208.5951,-172.4166 211.8575,-166.2232"/>
</g>
<!-- Node3 -->
<g id="node4" class="node">
<title>Node3</title>
<polygon fill="#ffffff" stroke="#bfbfbf" points="236.5,-145.5 236.5,-164.5 291.5,-164.5 291.5,-145.5 236.5,-145.5"/>
<text text-anchor="middle" x="264" y="-152.5" font-family="Helvetica,sans-Serif" font-size="10.00" fill="#000000">fstream</text>
</g>
<!-- Node0&#45;&gt;Node3 -->
<g id="edge3" class="edge">
<title>Node0&#45;&gt;Node3</title>
<path fill="none" stroke="#191970" d="M734.7329,-224.1435C618.9866,-217.5547 380.164,-201.3269 301,-176 296.1547,-174.4499 291.2384,-172.2138 286.64,-169.773"/>
<polygon fill="#191970" stroke="#191970" points="288.1786,-166.6193 277.7722,-164.6298 284.6666,-172.6746 288.1786,-166.6193"/>
</g>
<!-- Node4 -->
<g id="node5" class="node">
<title>Node4</title>
<polygon fill="#ffffff" stroke="#bfbfbf" points="310,-145.5 310,-164.5 354,-164.5 354,-145.5 310,-145.5"/>
<text text-anchor="middle" x="332" y="-152.5" font-family="Helvetica,sans-Serif" font-size="10.00" fill="#000000">limits</text>
</g>
<!-- Node0&#45;&gt;Node4 -->
<g id="edge4" class="edge">
<title>Node0&#45;&gt;Node4</title>
<path fill="none" stroke="#191970" d="M734.7713,-223.6583C630.566,-216.801 429.607,-200.8047 363,-176 359.1355,-174.5608 355.2826,-172.5454 351.673,-170.3277"/>
<polygon fill="#191970" stroke="#191970" points="353.5602,-167.378 343.3331,-164.6111 349.6026,-173.1518 353.5602,-167.378"/>
</g>
<!-- Node5 -->
<g id="node6" class="node">
<title>Node5</title>
<polygon fill="#ffffff" stroke="#bfbfbf" points="372,-145.5 372,-164.5 428,-164.5 428,-145.5 372,-145.5"/>
<text text-anchor="middle" x="400" y="-152.5" font-family="Helvetica,sans-Serif" font-size="10.00" fill="#000000">sstream</text>
</g>
<!-- Node0&#45;&gt;Node5 -->
<g id="edge5" class="edge">
<title>Node0&#45;&gt;Node5</title>
<path fill="none" stroke="#191970" d="M734.7632,-224.4197C662.2223,-219.5326 541.3502,-207.1095 442,-176 436.4569,-174.2643 430.7458,-171.868 425.3898,-169.3134"/>
<polygon fill="#191970" stroke="#191970" points="426.744,-166.0752 416.2452,-164.6524 423.5652,-172.3119 426.744,-166.0752"/>
</g>
<!-- Node6 -->
<g id="node7" class="node">
<title>Node6</title>
<polygon fill="#ffffff" stroke="#bfbfbf" points="434,-6 434,-25 478,-25 478,-6 434,-6"/>
<text text-anchor="middle" x="456" y="-13" font-family="Helvetica,sans-Serif" font-size="10.00" fill="#000000">string</text>
</g>
<!-- Node0&#45;&gt;Node6 -->
<g id="edge6" class="edge">
<title>Node0&#45;&gt;Node6</title>
<path fill="none" stroke="#191970" d="M734.9835,-221.4645C645.7251,-212.4335 492.7591,-194.4804 475,-176 438.3183,-137.8285 445.3852,-68.7432 451.6396,-35.0446"/>
<polygon fill="#191970" stroke="#191970" points="455.1053,-35.5653 453.6652,-25.0688 448.2452,-34.1723 455.1053,-35.5653"/>
</g>
<!-- Node7 -->
<g id="node8" class="node">
<title>Node7</title>
<polygon fill="#ffffff" stroke="#bfbfbf" points="776.5,-145.5 776.5,-164.5 821.5,-164.5 821.5,-145.5 776.5,-145.5"/>
<text text-anchor="middle" x="799" y="-152.5" font-family="Helvetica,sans-Serif" font-size="10.00" fill="#000000">utility</text>
</g>
<!-- Node0&#45;&gt;Node7 -->
<g id="edge7" class="edge">
<title>Node0&#45;&gt;Node7</title>
<path fill="none" stroke="#191970" d="M799,-212.478C799,-201.6657 799,-186.9631 799,-175.1348"/>
<polygon fill="#191970" stroke="#191970" points="802.5001,-174.8956 799,-164.8957 795.5001,-174.8957 802.5001,-174.8956"/>
</g>
<!-- Node8 -->
<g id="node9" class="node">
<title>Node8</title>
<polygon fill="#ffffff" stroke="#bfbfbf" points="839.5,-145.5 839.5,-164.5 886.5,-164.5 886.5,-145.5 839.5,-145.5"/>
<text text-anchor="middle" x="863" y="-152.5" font-family="Helvetica,sans-Serif" font-size="10.00" fill="#000000">vector</text>
</g>
<!-- Node0&#45;&gt;Node8 -->
<g id="edge8" class="edge">
<title>Node0&#45;&gt;Node8</title>
<path fill="none" stroke="#191970" d="M812.2608,-212.478C822.4943,-200.8854 836.6754,-184.8209 847.4445,-172.6214"/>
<polygon fill="#191970" stroke="#191970" points="850.2705,-174.7088 854.2645,-164.8957 845.0226,-170.0763 850.2705,-174.7088"/>
</g>
<!-- Node9 -->
<g id="node10" class="node">
<title>Node9</title>
<g id="a_node10"><a xlink:href="drake__assert_8h.html" target="_top" xlink:title="Provides Drake&#39;s assertion implementation. ">
<polygon fill="#ffffff" stroke="#000000" points="904.5,-140 904.5,-170 1025.5,-170 1025.5,-140 904.5,-140"/>
<text text-anchor="start" x="912.5" y="-158" font-family="Helvetica,sans-Serif" font-size="10.00" fill="#000000">drake/common/drake</text>
<text text-anchor="middle" x="965" y="-147" font-family="Helvetica,sans-Serif" font-size="10.00" fill="#000000">_assert.h</text>
</a>
</g>
</g>
<!-- Node0&#45;&gt;Node9 -->
<g id="edge9" class="edge">
<title>Node0&#45;&gt;Node9</title>
<path fill="none" stroke="#191970" d="M833.3953,-212.478C858.8802,-201.3475 893.8046,-186.0944 921.2719,-174.0981"/>
<polygon fill="#191970" stroke="#191970" points="922.8855,-177.2127 930.6488,-170.0028 920.0838,-170.7978 922.8855,-177.2127"/>
</g>
<!-- Node11 -->
<g id="node12" class="node">
<title>Node11</title>
<g id="a_node12"><a xlink:href="eigen__types_8h.html" target="_top" xlink:title="This file contains abbreviated definitions for certain specializations of Eigen::Matrix that are comm...">
<polygon fill="#ffffff" stroke="#000000" points="638,-140 638,-170 758,-170 758,-140 638,-140"/>
<text text-anchor="start" x="646" y="-158" font-family="Helvetica,sans-Serif" font-size="10.00" fill="#000000">drake/common/eigen</text>
<text text-anchor="middle" x="698" y="-147" font-family="Helvetica,sans-Serif" font-size="10.00" fill="#000000">_types.h</text>
</a>
</g>
</g>
<!-- Node0&#45;&gt;Node11 -->
<g id="edge11" class="edge">
<title>Node0&#45;&gt;Node11</title>
<path fill="none" stroke="#191970" d="M778.0727,-212.478C763.3117,-201.8821 743.3459,-187.5502 727.0442,-175.8486"/>
<polygon fill="#191970" stroke="#191970" points="729.0652,-172.9909 718.9005,-170.0028 724.9832,-178.6775 729.0652,-172.9909"/>
</g>
<!-- Node16 -->
<g id="node17" class="node">
<title>Node16</title>
<polygon fill="#ffffff" stroke="#bfbfbf" points="1043.5,-140 1043.5,-170 1170.5,-170 1170.5,-140 1043.5,-140"/>
<text text-anchor="start" x="1051.5" y="-158" font-family="Helvetica,sans-Serif" font-size="10.00" fill="#000000">drake/multibody/joints</text>
<text text-anchor="middle" x="1107" y="-147" font-family="Helvetica,sans-Serif" font-size="10.00" fill="#000000">/drake_joints.h</text>
</g>
<!-- Node0&#45;&gt;Node16 -->
<g id="edge16" class="edge">
<title>Node0&#45;&gt;Node16</title>
<path fill="none" stroke="#191970" d="M863.1353,-214.7508C910.7579,-204.9822 977.19,-190.7197 1035,-176 1039.0457,-174.9699 1043.2074,-173.8684 1047.3926,-172.7295"/>
<polygon fill="#191970" stroke="#191970" points="1048.4568,-176.0666 1057.1571,-170.0205 1046.5854,-169.3214 1048.4568,-176.0666"/>
</g>
<!-- Node17 -->
<g id="node18" class="node">
<title>Node17</title>
<polygon fill="#ffffff" stroke="#bfbfbf" points="1188.5,-140 1188.5,-170 1315.5,-170 1315.5,-140 1188.5,-140"/>
<text text-anchor="start" x="1196.5" y="-158" font-family="Helvetica,sans-Serif" font-size="10.00" fill="#000000">drake/multibody/joints</text>
<text text-anchor="middle" x="1252" y="-147" font-family="Helvetica,sans-Serif" font-size="10.00" fill="#000000">/floating_base_types.h</text>
</g>
<!-- Node0&#45;&gt;Node17 -->
<g id="edge17" class="edge">
<title>Node0&#45;&gt;Node17</title>
<path fill="none" stroke="#191970" d="M863.206,-221.7779C939.3432,-214.3132 1069.8166,-199.3782 1180,-176 1184.6889,-175.0051 1189.5181,-173.8621 1194.3503,-172.6342"/>
<polygon fill="#191970" stroke="#191970" points="1195.4605,-175.9609 1204.2293,-170.0146 1193.6662,-169.1947 1195.4605,-175.9609"/>
</g>
<!-- Node18 -->
<g id="node19" class="node">
<title>Node18</title>
<polygon fill="#ffffff" stroke="#bfbfbf" points="1333.5,-140 1333.5,-170 1474.5,-170 1474.5,-140 1333.5,-140"/>
<text text-anchor="start" x="1341.5" y="-158" font-family="Helvetica,sans-Serif" font-size="10.00" fill="#000000">drake/multibody/material</text>
<text text-anchor="middle" x="1404" y="-147" font-family="Helvetica,sans-Serif" font-size="10.00" fill="#000000">_map.h</text>
</g>
<!-- Node0&#45;&gt;Node18 -->
<g id="edge18" class="edge">
<title>Node0&#45;&gt;Node18</title>
<path fill="none" stroke="#191970" d="M863.0195,-224.5847C962.5153,-219.3022 1159.9862,-205.8069 1325,-176 1330.6364,-174.9819 1336.4592,-173.7628 1342.2694,-172.4315"/>
<polygon fill="#191970" stroke="#191970" points="1343.091,-175.8338 1352.0006,-170.1007 1341.4604,-169.0263 1343.091,-175.8338"/>
</g>
<!-- Node19 -->
<g id="node20" class="node">
<title>Node19</title>
<polygon fill="#ffffff" stroke="#bfbfbf" points="1493,-140 1493,-170 1643,-170 1643,-140 1493,-140"/>
<text text-anchor="start" x="1501" y="-158" font-family="Helvetica,sans-Serif" font-size="10.00" fill="#000000">drake/multibody/parsers</text>
<text text-anchor="middle" x="1568" y="-147" font-family="Helvetica,sans-Serif" font-size="10.00" fill="#000000">/model_instance_id_table.h</text>
</g>
<!-- Node0&#45;&gt;Node19 -->
<g id="edge19" class="edge">
<title>Node0&#45;&gt;Node19</title>
<path fill="none" stroke="#191970" d="M863.1705,-226.3056C984.952,-223.2379 1257.653,-212.5301 1484,-176 1490.3302,-174.9784 1496.8831,-173.7141 1503.4087,-172.3165"/>
<polygon fill="#191970" stroke="#191970" points="1504.6149,-175.6329 1513.6047,-170.0262 1503.0807,-168.8031 1504.6149,-175.6329"/>
</g>
<!-- Node20 -->
<g id="node21" class="node">
<title>Node20</title>
<polygon fill="#ffffff" stroke="#bfbfbf" points="1661,-140 1661,-170 1797,-170 1797,-140 1661,-140"/>
<text text-anchor="start" x="1669" y="-158" font-family="Helvetica,sans-Serif" font-size="10.00" fill="#000000">drake/multibody/parsers</text>
<text text-anchor="middle" x="1729" y="-147" font-family="Helvetica,sans-Serif" font-size="10.00" fill="#000000">/xml_util.h</text>
</g>
<!-- Node0&#45;&gt;Node20 -->
<g id="edge20" class="edge">
<title>Node0&#45;&gt;Node20</title>
<path fill="none" stroke="#191970" d="M863.2041,-225.3382C1034.6053,-219.2932 1500.2153,-201.0056 1652,-176 1657.7807,-175.0477 1663.7523,-173.8371 1669.6941,-172.4795"/>
<polygon fill="#191970" stroke="#191970" points="1670.7305,-175.8298 1679.6266,-170.0757 1669.0839,-169.0262 1670.7305,-175.8298"/>
</g>
<!-- Node21 -->
<g id="node22" class="node">
<title>Node21</title>
<g id="a_node22"><a xlink:href="parser__path__utils_8h.html" target="_top" xlink:title="drake/multibody/parsing\l/parser_path_utils.h">
<polygon fill="#ffffff" stroke="#000000" points="484,-140 484,-170 620,-170 620,-140 484,-140"/>
<text text-anchor="start" x="492" y="-158" font-family="Helvetica,sans-Serif" font-size="10.00" fill="#000000">drake/multibody/parsing</text>
<text text-anchor="middle" x="552" y="-147" font-family="Helvetica,sans-Serif" font-size="10.00" fill="#000000">/parser_path_utils.h</text>
</a>
</g>
</g>
<!-- Node0&#45;&gt;Node21 -->
<g id="edge21" class="edge">
<title>Node0&#45;&gt;Node21</title>
<path fill="none" stroke="#191970" d="M747.8214,-212.478C708.5764,-200.9587 654.2874,-185.0236 612.8237,-172.8531"/>
<polygon fill="#191970" stroke="#191970" points="613.694,-169.461 603.113,-170.0028 611.7224,-176.1776 613.694,-169.461"/>
</g>
<!-- Node25 -->
<g id="node26" class="node">
<title>Node25</title>
<polygon fill="#ffffff" stroke="#bfbfbf" points="1815,-134.5 1815,-175.5 1943,-175.5 1943,-134.5 1815,-134.5"/>
<text text-anchor="start" x="1823" y="-163.5" font-family="Helvetica,sans-Serif" font-size="10.00" fill="#000000">drake/multibody/rigid</text>
<text text-anchor="start" x="1823" y="-152.5" font-family="Helvetica,sans-Serif" font-size="10.00" fill="#000000">_body_plant/compliant</text>
<text text-anchor="middle" x="1879" y="-141.5" font-family="Helvetica,sans-Serif" font-size="10.00" fill="#000000">_material.h</text>
</g>
<!-- Node0&#45;&gt;Node25 -->
<g id="edge28" class="edge">
<title>Node0&#45;&gt;Node25</title>
<path fill="none" stroke="#191970" d="M863.1535,-226.1389C1051.9025,-221.8359 1604.1001,-207.0344 1804.5637,-175.9963"/>
<polygon fill="#191970" stroke="#191970" points="1805.3819,-179.4097 1814.6973,-174.3626 1804.2677,-172.4989 1805.3819,-179.4097"/>
</g>
<!-- Node10 -->
<g id="node11" class="node">
<title>Node10</title>
<polygon fill="#ffffff" stroke="#bfbfbf" points="1052.5,-73 1052.5,-92 1121.5,-92 1121.5,-73 1052.5,-73"/>
<text text-anchor="middle" x="1087" y="-80" font-family="Helvetica,sans-Serif" font-size="10.00" fill="#000000">type_traits</text>
</g>
<!-- Node9&#45;&gt;Node10 -->
<g id="edge10" class="edge">
<title>Node9&#45;&gt;Node10</title>
<path fill="none" stroke="#191970" d="M990.2785,-139.978C1011.3143,-127.4772 1041.1009,-109.7761 1062.046,-97.3292"/>
<polygon fill="#191970" stroke="#191970" points="1063.8981,-100.3 1070.7067,-92.1825 1060.322,-94.2824 1063.8981,-100.3"/>
</g>
<!-- Node12 -->
<g id="node13" class="node">
<title>Node12</title>
<polygon fill="#ffffff" stroke="#bfbfbf" points="714,-73 714,-92 772,-92 772,-73 714,-73"/>
<text text-anchor="middle" x="743" y="-80" font-family="Helvetica,sans-Serif" font-size="10.00" fill="#000000">memory</text>
</g>
<!-- Node11&#45;&gt;Node12 -->
<g id="edge12" class="edge">
<title>Node11&#45;&gt;Node12</title>
<path fill="none" stroke="#191970" d="M707.324,-139.978C714.3118,-128.7198 723.9176,-113.2439 731.4014,-101.1866"/>
<polygon fill="#191970" stroke="#191970" points="734.5579,-102.7379 736.8579,-92.3957 728.6104,-99.0463 734.5579,-102.7379"/>
</g>
<!-- Node13 -->
<g id="node14" class="node">
<title>Node13</title>
<polygon fill="#ffffff" stroke="#bfbfbf" points="790.5,-73 790.5,-92 867.5,-92 867.5,-73 790.5,-73"/>
<text text-anchor="middle" x="829" y="-80" font-family="Helvetica,sans-Serif" font-size="10.00" fill="#000000">Eigen/Dense</text>
</g>
<!-- Node11&#45;&gt;Node13 -->
<g id="edge13" class="edge">
<title>Node11&#45;&gt;Node13</title>
<path fill="none" stroke="#191970" d="M725.1433,-139.978C747.8322,-127.4211 780.0019,-109.6173 802.5071,-97.1621"/>
<polygon fill="#191970" stroke="#191970" points="804.4501,-100.0871 811.5047,-92.1825 801.0605,-93.9625 804.4501,-100.0871"/>
</g>
<!-- Node14 -->
<g id="node15" class="node">
<title>Node14</title>
<g id="a_node15"><a xlink:href="constants_8h.html" target="_top" xlink:title="drake/common/constants.h">
<polygon fill="#ffffff" stroke="#000000" points="885.5,-73 885.5,-92 1034.5,-92 1034.5,-73 885.5,-73"/>
<text text-anchor="middle" x="960" y="-80" font-family="Helvetica,sans-Serif" font-size="10.00" fill="#000000">drake/common/constants.h</text>
</a>
</g>
</g>
<!-- Node11&#45;&gt;Node14 -->
<g id="edge14" class="edge">
<title>Node11&#45;&gt;Node14</title>
<path fill="none" stroke="#191970" d="M747.6596,-139.9058C754.4844,-137.8888 761.4093,-135.8721 768,-134 817.3695,-119.9767 874.1712,-104.8672 913.1107,-94.6656"/>
<polygon fill="#191970" stroke="#191970" points="914.3146,-97.9685 923.1039,-92.0525 912.5437,-91.1962 914.3146,-97.9685"/>
</g>
<!-- Node15 -->
<g id="node16" class="node">
<title>Node15</title>
<g id="a_node16"><a xlink:href="drake__copyable_8h.html" target="_top" xlink:title="Provides careful macros to selectively enable or disable the special member functions for copy&#45;constr...">
<polygon fill="#ffffff" stroke="#000000" points="691.5,-.5 691.5,-30.5 812.5,-30.5 812.5,-.5 691.5,-.5"/>
<text text-anchor="start" x="699.5" y="-18.5" font-family="Helvetica,sans-Serif" font-size="10.00" fill="#000000">drake/common/drake</text>
<text text-anchor="middle" x="752" y="-7.5" font-family="Helvetica,sans-Serif" font-size="10.00" fill="#000000">_copyable.h</text>
</a>
</g>
</g>
<!-- Node11&#45;&gt;Node15 -->
<g id="edge15" class="edge">
<title>Node11&#45;&gt;Node15</title>
<path fill="none" stroke="#191970" d="M696.3266,-139.9705C694.9424,-121.8636 694.625,-90.8995 705,-67 709.7237,-56.1185 717.7185,-46.0211 725.7877,-37.7021"/>
<polygon fill="#191970" stroke="#191970" points="728.381,-40.0628 733.1273,-30.5906 723.51,-35.0355 728.381,-40.0628"/>
</g>
<!-- Node21&#45;&gt;Node6 -->
<g id="edge22" class="edge">
<title>Node21&#45;&gt;Node6</title>
<path fill="none" stroke="#191970" d="M541.5436,-139.8055C523.7301,-113.9204 487.5761,-61.3841 468.4738,-33.626"/>
<polygon fill="#191970" stroke="#191970" points="471.2528,-31.4903 462.7005,-25.2366 465.4863,-35.4587 471.2528,-31.4903"/>
</g>
<!-- Node22 -->
<g id="node23" class="node">
<title>Node22</title>
<g id="a_node23"><a xlink:href="multibody_2parsing_2package__map_8h.html" target="_top" xlink:title="drake/multibody/parsing\l/package_map.h">
<polygon fill="#ffffff" stroke="#000000" points="522,-67.5 522,-97.5 658,-97.5 658,-67.5 522,-67.5"/>
<text text-anchor="start" x="530" y="-85.5" font-family="Helvetica,sans-Serif" font-size="10.00" fill="#000000">drake/multibody/parsing</text>
<text text-anchor="middle" x="590" y="-74.5" font-family="Helvetica,sans-Serif" font-size="10.00" fill="#000000">/package_map.h</text>
</a>
</g>
</g>
<!-- Node21&#45;&gt;Node22 -->
<g id="edge23" class="edge">
<title>Node21&#45;&gt;Node22</title>
<path fill="none" stroke="#191970" d="M559.8736,-139.978C564.9178,-130.3542 571.5773,-117.6485 577.3522,-106.6307"/>
<polygon fill="#191970" stroke="#191970" points="580.5941,-107.9848 582.1365,-97.5028 574.3941,-104.7351 580.5941,-107.9848"/>
</g>
<!-- Node22&#45;&gt;Node6 -->
<g id="edge25" class="edge">
<title>Node22&#45;&gt;Node6</title>
<path fill="none" stroke="#191970" d="M559.9278,-67.4639C537.343,-56.1715 506.6171,-40.8086 484.4384,-29.7192"/>
<polygon fill="#191970" stroke="#191970" points="485.7174,-26.4456 475.2078,-25.1039 482.5869,-32.7066 485.7174,-26.4456"/>
</g>
<!-- Node22&#45;&gt;Node15 -->
<g id="edge26" class="edge">
<title>Node22&#45;&gt;Node15</title>
<path fill="none" stroke="#191970" d="M626.356,-67.4639C649.931,-57.7137 680.8435,-44.9289 706.1068,-34.4805"/>
<polygon fill="#191970" stroke="#191970" points="707.5823,-37.6579 715.4855,-30.6017 704.9069,-31.1893 707.5823,-37.6579"/>
</g>
<!-- Node23 -->
<g id="node24" class="node">
<title>Node23</title>
<polygon fill="#ffffff" stroke="#bfbfbf" points="496,-6 496,-25 534,-25 534,-6 496,-6"/>
<text text-anchor="middle" x="515" y="-13" font-family="Helvetica,sans-Serif" font-size="10.00" fill="#000000">map</text>
</g>
<!-- Node22&#45;&gt;Node23 -->
<g id="edge24" class="edge">
<title>Node22&#45;&gt;Node23</title>
<path fill="none" stroke="#191970" d="M572.9813,-67.2967C561.1825,-56.7564 545.4816,-42.7303 533.3943,-31.9323"/>
<polygon fill="#191970" stroke="#191970" points="535.4853,-29.107 525.6959,-25.055 530.8217,-34.3273 535.4853,-29.107"/>
</g>
<!-- Node24 -->
<g id="node25" class="node">
<title>Node24</title>
<g id="a_node25"><a xlink:href="drake__deprecated_8h.html" target="_top" xlink:title="Provides a portable macro for use in generating compile&#45;time warnings for use of code that is permitt...">
<polygon fill="#ffffff" stroke="#000000" points="552.5,-.5 552.5,-30.5 673.5,-30.5 673.5,-.5 552.5,-.5"/>
<text text-anchor="start" x="560.5" y="-18.5" font-family="Helvetica,sans-Serif" font-size="10.00" fill="#000000">drake/common/drake</text>
<text text-anchor="middle" x="613" y="-7.5" font-family="Helvetica,sans-Serif" font-size="10.00" fill="#000000">_deprecated.h</text>
</a>
</g>
</g>
<!-- Node22&#45;&gt;Node24 -->
<g id="edge27" class="edge">
<title>Node22&#45;&gt;Node24</title>
<path fill="none" stroke="#191970" d="M595.2191,-67.2967C597.9539,-59.3299 601.3724,-49.3718 604.4793,-40.3213"/>
<polygon fill="#191970" stroke="#191970" points="607.8651,-41.2378 607.8016,-30.6432 601.2443,-38.965 607.8651,-41.2378"/>
</g>
</g>
</svg>
        <g id="navigator" transform="translate(0 0)" fill="#404254">
                <rect fill="#f2f5e9" fill-opacity="0.5" stroke="#606060" stroke-width=".5" x="0" y="0" width="60" height="60"/>
                <use id="zoomplus" xlink:href="#zoomPlus" x="17" y="9" onmousedown="handleZoom(evt,'in')"/>
                <use id="zoomminus" xlink:href="#zoomMin" x="42" y="9" onmousedown="handleZoom(evt,'out')"/>
                <use id="reset" xlink:href="#resetDef" x="30" y="36" onmousedown="handleReset()"/>
                <g id="arrowUp" xlink:href="#dirArrow" transform="translate(30 24)" onmousedown="handlePan(0,-1)">
                  <use xlink:href="#rim" fill="#404040">
                        <set attributeName="fill" to="#808080" begin="arrowUp.mouseover" end="arrowUp.mouseout"/>
                  </use>
                  <path fill="none" stroke="white" stroke-width="1.5" d="M0,-3.0v7 M-2.5,-0.5L0,-3.0L2.5,-0.5"/>
                </g>
                <g id="arrowRight" xlink:href="#dirArrow" transform="rotate(90) translate(36 -43)" onmousedown="handlePan(1,0)">
                  <use xlink:href="#rim" fill="#404040">
                        <set attributeName="fill" to="#808080" begin="arrowRight.mouseover" end="arrowRight.mouseout"/>
                  </use>
                  <path fill="none" stroke="white" stroke-width="1.5" d="M0,-3.0v7 M-2.5,-0.5L0,-3.0L2.5,-0.5"/>
                </g>
                <g id="arrowDown" xlink:href="#dirArrow" transform="rotate(180) translate(-30 -48)" onmousedown="handlePan(0,1)">
                  <use xlink:href="#rim" fill="#404040">
                        <set attributeName="fill" to="#808080" begin="arrowDown.mouseover" end="arrowDown.mouseout"/>
                  </use>
                  <path fill="none" stroke="white" stroke-width="1.5" d="M0,-3.0v7 M-2.5,-0.5L0,-3.0L2.5,-0.5"/>
                </g>
                <g id="arrowLeft" xlink:href="#dirArrow" transform="rotate(270) translate(-36 17)" onmousedown="handlePan(-1,0)">
                  <use xlink:href="#rim" fill="#404040">
                        <set attributeName="fill" to="#808080" begin="arrowLeft.mouseover" end="arrowLeft.mouseout"/>
                  </use>
                  <path fill="none" stroke="white" stroke-width="1.5" d="M0,-3.0v7 M-2.5,-0.5L0,-3.0L2.5,-0.5"/>
                </g>
        </g>
        <svg viewBox="0 0 15 15" width="100%" height="30px" preserveAspectRatio="xMaxYMin meet">
         <g id="arrow_out" transform="scale(0.3 0.3)">
          <a xlink:href="attic_2multibody_2parsers_2urdf__parser_8cc__incl_org.svg" target="_base">
           <rect id="button" ry="5" rx="5" y="6" x="6" height="38" width="38"
                fill="#f2f5e9" fill-opacity="0.5" stroke="#606060" stroke-width="1.0"/>
           <path id="arrow"
             d="M 11.500037,31.436501 C 11.940474,20.09759 22.043105,11.32322 32.158766,21.979434 L 37.068811,17.246167 C 37.068811,17.246167 37.088388,32 37.088388,32 L 22.160133,31.978069 C 22.160133,31.978069 26.997745,27.140456 26.997745,27.140456 C 18.528582,18.264221 13.291696,25.230495 11.500037,31.436501 z"
             style="fill:#404040;"/>
          </a>
         </g>
        </svg>
</svg>
