<?xml version="1.0" encoding="UTF-8" standalone="no"?>
<!DOCTYPE svg PUBLIC "-//W3C//DTD SVG 1.1//EN"
 "http://www.w3.org/Graphics/SVG/1.1/DTD/svg11.dtd">
<!-- Generated by graphviz version 2.40.1 (20161225.0304)
 -->
<!-- Title: drake/attic/multibody/rigid_body_plant/contact_info.h Pages: 1 -->
<!--zoomable 240 -->
<svg id="main" version="1.1" xmlns="http://www.w3.org/2000/svg" xmlns:xlink="http://www.w3.org/1999/xlink" xml:space="preserve" onload="init(evt)">
<style type="text/css"><![CDATA[
.edge:hover path { stroke: red; }
.edge:hover polygon { stroke: red; fill: red; }
]]></style>
<script type="text/javascript"><![CDATA[
var edges = document.getElementsByTagName('g');
if (edges && edges.length) {
  for (var i=0;i<edges.length;i++) {
    if (edges[i].id.substr(0,4)=='edge') {
      edges[i].setAttribute('class','edge');
    }
  }
}
]]></script>
        <defs>
                <circle id="rim" cx="0" cy="0" r="7"/>
                <circle id="rim2" cx="0" cy="0" r="3.5"/>
                <g id="zoomPlus">
                        <use xlink:href="#rim" fill="#404040">
                                <set attributeName="fill" to="#808080" begin="zoomplus.mouseover" end="zoomplus.mouseout"/>
                        </use>
                        <path d="M-4,0h8M0,-4v8" fill="none" stroke="white" stroke-width="1.5" pointer-events="none"/>
                </g>
                <g id="zoomMin">
                        <use xlink:href="#rim" fill="#404040">
                                <set attributeName="fill" to="#808080" begin="zoomminus.mouseover" end="zoomminus.mouseout"/>
                        </use>
                        <path d="M-4,0h8" fill="none" stroke="white" stroke-width="1.5" pointer-events="none"/>
                </g>
                <g id="dirArrow">
                        <path fill="none" stroke="white" stroke-width="1.5" d="M0,-3.0v7 M-2.5,-0.5L0,-3.0L2.5,-0.5"/>
                </g>
               <g id="resetDef">
                       <use xlink:href="#rim2" fill="#404040">
                               <set attributeName="fill" to="#808080" begin="reset.mouseover" end="reset.mouseout"/>
                       </use>
               </g>
        </defs>

<script type="text/javascript">
var viewWidth = 953;
var viewHeight = 240;
var sectionId = 'dynsection-0';
</script>
<script xlink:href="svgpan.js"/>
<svg id="graph" class="graph">
<g id="viewport">
<title>drake/attic/multibody/rigid_body_plant/contact_info.h</title>
<polygon fill="#ffffff" stroke="transparent" points="-4,4 -4,-236 949,-236 949,4 -4,4"/>
<!-- Node0 -->
<g id="node1" class="node">
<title>Node0</title>
<polygon fill="#bfbfbf" stroke="#000000" points="257,-190.5 257,-231.5 397,-231.5 397,-190.5 257,-190.5"/>
<text text-anchor="start" x="265" y="-219.5" font-family="Helvetica,sans-Serif" font-size="10.00" fill="#000000">drake/attic/multibody</text>
<text text-anchor="start" x="265" y="-208.5" font-family="Helvetica,sans-Serif" font-size="10.00" fill="#000000">/rigid_body_plant/contact</text>
<text text-anchor="middle" x="327" y="-197.5" font-family="Helvetica,sans-Serif" font-size="10.00" fill="#000000">_info.h</text>
</g>
<!-- Node1 -->
<g id="node2" class="node">
<title>Node1</title>
<polygon fill="#ffffff" stroke="#bfbfbf" points="0,-62 0,-81 58,-81 58,-62 0,-62"/>
<text text-anchor="middle" x="29" y="-69" font-family="Helvetica,sans-Serif" font-size="10.00" fill="#000000">memory</text>
</g>
<!-- Node0&#45;&gt;Node1 -->
<g id="edge1" class="edge">
<title>Node0&#45;&gt;Node1</title>
<path fill="none" stroke="#191970" d="M256.9752,-201.5348C193.0388,-191.7598 104.31,-174.9959 76,-154 54.7613,-138.2485 41.6854,-109.8448 34.8816,-90.8293"/>
<polygon fill="#191970" stroke="#191970" points="38.1333,-89.5153 31.6604,-81.1277 31.4899,-91.7212 38.1333,-89.5153"/>
</g>
<!-- Node2 -->
<g id="node3" class="node">
<title>Node2</title>
<polygon fill="#ffffff" stroke="#bfbfbf" points="76.5,-62 76.5,-81 121.5,-81 121.5,-62 76.5,-62"/>
<text text-anchor="middle" x="99" y="-69" font-family="Helvetica,sans-Serif" font-size="10.00" fill="#000000">utility</text>
</g>
<!-- Node0&#45;&gt;Node2 -->
<g id="edge2" class="edge">
<title>Node0&#45;&gt;Node2</title>
<path fill="none" stroke="#191970" d="M256.7179,-203.7301C194.2211,-195.6431 109.623,-180.1453 89,-154 74.817,-136.0192 82.0666,-108.6189 89.6233,-90.3927"/>
<polygon fill="#191970" stroke="#191970" points="92.8966,-91.6489 93.8334,-81.0955 86.5199,-88.7612 92.8966,-91.6489"/>
</g>
<!-- Node3 -->
<g id="node4" class="node">
<title>Node3</title>
<polygon fill="#ffffff" stroke="#bfbfbf" points="252.5,-129 252.5,-148 299.5,-148 299.5,-129 252.5,-129"/>
<text text-anchor="middle" x="276" y="-136" font-family="Helvetica,sans-Serif" font-size="10.00" fill="#000000">vector</text>
</g>
<!-- Node0&#45;&gt;Node3 -->
<g id="edge3" class="edge">
<title>Node0&#45;&gt;Node3</title>
<path fill="none" stroke="#191970" d="M312.5219,-190.4183C304.9599,-179.6685 295.7967,-166.6424 288.5405,-156.3271"/>
<polygon fill="#191970" stroke="#191970" points="291.359,-154.2507 282.7428,-148.0853 285.6337,-158.2782 291.359,-154.2507"/>
</g>
<!-- Node4 -->
<g id="node5" class="node">
<title>Node4</title>
<g id="a_node5"><a xlink:href="copyable__unique__ptr_8h.html" target="_top" xlink:title="drake/common/copyable\l_unique_ptr.h">
<polygon fill="#ffffff" stroke="#000000" points="97.5,-123.5 97.5,-153.5 234.5,-153.5 234.5,-123.5 97.5,-123.5"/>
<text text-anchor="start" x="105.5" y="-141.5" font-family="Helvetica,sans-Serif" font-size="10.00" fill="#000000">drake/common/copyable</text>
<text text-anchor="middle" x="166" y="-130.5" font-family="Helvetica,sans-Serif" font-size="10.00" fill="#000000">_unique_ptr.h</text>
</a>
</g>
</g>
<!-- Node0&#45;&gt;Node4 -->
<g id="edge4" class="edge">
<title>Node0&#45;&gt;Node4</title>
<path fill="none" stroke="#191970" d="M281.2945,-190.4183C258.5178,-180.1617 231.1393,-167.8329 208.7784,-157.7636"/>
<polygon fill="#191970" stroke="#191970" points="210.0857,-154.5138 199.5304,-153.5991 207.2115,-160.8965 210.0857,-154.5138"/>
</g>
<!-- Node9 -->
<g id="node10" class="node">
<title>Node9</title>
<g id="a_node10"><a xlink:href="drake__copyable_8h.html" target="_top" xlink:title="Provides careful macros to selectively enable or disable the special member functions for copy&#45;constr...">
<polygon fill="#ffffff" stroke="#000000" points="317.5,-123.5 317.5,-153.5 438.5,-153.5 438.5,-123.5 317.5,-123.5"/>
<text text-anchor="start" x="325.5" y="-141.5" font-family="Helvetica,sans-Serif" font-size="10.00" fill="#000000">drake/common/drake</text>
<text text-anchor="middle" x="378" y="-130.5" font-family="Helvetica,sans-Serif" font-size="10.00" fill="#000000">_copyable.h</text>
</a>
</g>
</g>
<!-- Node0&#45;&gt;Node9 -->
<g id="edge11" class="edge">
<title>Node0&#45;&gt;Node9</title>
<path fill="none" stroke="#191970" d="M341.4781,-190.4183C347.7268,-181.5354 355.0689,-171.0981 361.5249,-161.9205"/>
<polygon fill="#191970" stroke="#191970" points="364.4877,-163.7919 367.3786,-153.5991 358.7623,-159.7644 364.4877,-163.7919"/>
</g>
<!-- Node10 -->
<g id="node11" class="node">
<title>Node10</title>
<polygon fill="#ffffff" stroke="#bfbfbf" points="457,-123.5 457,-153.5 597,-153.5 597,-123.5 457,-123.5"/>
<text text-anchor="start" x="465" y="-141.5" font-family="Helvetica,sans-Serif" font-size="10.00" fill="#000000">drake/multibody/collision</text>
<text text-anchor="middle" x="527" y="-130.5" font-family="Helvetica,sans-Serif" font-size="10.00" fill="#000000">/element.h</text>
</g>
<!-- Node0&#45;&gt;Node10 -->
<g id="edge12" class="edge">
<title>Node0&#45;&gt;Node10</title>
<path fill="none" stroke="#191970" d="M383.777,-190.4183C412.7026,-179.9328 447.6028,-167.2815 475.7098,-157.0927"/>
<polygon fill="#191970" stroke="#191970" points="477.1387,-160.2976 485.3473,-153.5991 474.7531,-153.7167 477.1387,-160.2976"/>
</g>
<!-- Node11 -->
<g id="node12" class="node">
<title>Node11</title>
<polygon fill="#ffffff" stroke="#bfbfbf" points="615.5,-123.5 615.5,-153.5 772.5,-153.5 772.5,-123.5 615.5,-123.5"/>
<text text-anchor="start" x="623.5" y="-141.5" font-family="Helvetica,sans-Serif" font-size="10.00" fill="#000000">drake/multibody/rigid</text>
<text text-anchor="middle" x="694" y="-130.5" font-family="Helvetica,sans-Serif" font-size="10.00" fill="#000000">_body_plant/contact_detail.h</text>
</g>
<!-- Node0&#45;&gt;Node11 -->
<g id="edge13" class="edge">
<title>Node0&#45;&gt;Node11</title>
<path fill="none" stroke="#191970" d="M397.3271,-197.1071C457.2879,-185.2619 543.6987,-168.1917 607.8106,-155.5265"/>
<polygon fill="#191970" stroke="#191970" points="608.7692,-158.9049 617.9012,-153.5331 607.4125,-152.0376 608.7692,-158.9049"/>
</g>
<!-- Node12 -->
<g id="node13" class="node">
<title>Node12</title>
<polygon fill="#ffffff" stroke="#bfbfbf" points="791,-123.5 791,-153.5 945,-153.5 945,-123.5 791,-123.5"/>
<text text-anchor="start" x="799" y="-141.5" font-family="Helvetica,sans-Serif" font-size="10.00" fill="#000000">drake/multibody/rigid</text>
<text text-anchor="middle" x="868" y="-130.5" font-family="Helvetica,sans-Serif" font-size="10.00" fill="#000000">_body_plant/contact_force.h</text>
</g>
<!-- Node0&#45;&gt;Node12 -->
<g id="edge14" class="edge">
<title>Node0&#45;&gt;Node12</title>
<path fill="none" stroke="#191970" d="M397.3136,-203.3772C484.7519,-193.6322 638.8111,-175.5926 780.4985,-154.1853"/>
<polygon fill="#191970" stroke="#191970" points="781.317,-157.6011 790.6775,-152.6382 780.2651,-150.6806 781.317,-157.6011"/>
</g>
<!-- Node4&#45;&gt;Node1 -->
<g id="edge7" class="edge">
<title>Node4&#45;&gt;Node1</title>
<path fill="none" stroke="#191970" d="M135.2545,-123.4639C112.0606,-112.1209 80.4684,-96.6707 57.7706,-85.5703"/>
<polygon fill="#191970" stroke="#191970" points="59.1588,-82.3531 48.6379,-81.1039 56.0835,-88.6414 59.1588,-82.3531"/>
</g>
<!-- Node4&#45;&gt;Node2 -->
<g id="edge8" class="edge">
<title>Node4&#45;&gt;Node2</title>
<path fill="none" stroke="#191970" d="M150.7967,-123.2967C140.3578,-112.8578 126.4997,-98.9997 115.7446,-88.2446"/>
<polygon fill="#191970" stroke="#191970" points="118.101,-85.6512 108.555,-81.055 113.1512,-90.601 118.101,-85.6512"/>
</g>
<!-- Node5 -->
<g id="node6" class="node">
<title>Node5</title>
<polygon fill="#ffffff" stroke="#bfbfbf" points="139.5,-62 139.5,-81 192.5,-81 192.5,-62 139.5,-62"/>
<text text-anchor="middle" x="166" y="-69" font-family="Helvetica,sans-Serif" font-size="10.00" fill="#000000">cstddef</text>
</g>
<!-- Node4&#45;&gt;Node5 -->
<g id="edge5" class="edge">
<title>Node4&#45;&gt;Node5</title>
<path fill="none" stroke="#191970" d="M166,-123.2967C166,-113.7699 166,-101.3954 166,-91.1306"/>
<polygon fill="#191970" stroke="#191970" points="169.5001,-91.0549 166,-81.055 162.5001,-91.055 169.5001,-91.0549"/>
</g>
<!-- Node6 -->
<g id="node7" class="node">
<title>Node6</title>
<polygon fill="#ffffff" stroke="#bfbfbf" points="211,-62 211,-81 271,-81 271,-62 211,-62"/>
<text text-anchor="middle" x="241" y="-69" font-family="Helvetica,sans-Serif" font-size="10.00" fill="#000000">iostream</text>
</g>
<!-- Node4&#45;&gt;Node6 -->
<g id="edge6" class="edge">
<title>Node4&#45;&gt;Node6</title>
<path fill="none" stroke="#191970" d="M183.0187,-123.2967C194.8175,-112.7564 210.5184,-98.7303 222.6057,-87.9323"/>
<polygon fill="#191970" stroke="#191970" points="225.1783,-90.3273 230.3041,-81.055 220.5147,-85.107 225.1783,-90.3273"/>
</g>
<!-- Node7 -->
<g id="node8" class="node">
<title>Node7</title>
<g id="a_node8"><a xlink:href="drake__assert_8h.html" target="_top" xlink:title="Provides Drake&#39;s assertion implementation. ">
<polygon fill="#ffffff" stroke="#000000" points="289.5,-56.5 289.5,-86.5 410.5,-86.5 410.5,-56.5 289.5,-56.5"/>
<text text-anchor="start" x="297.5" y="-74.5" font-family="Helvetica,sans-Serif" font-size="10.00" fill="#000000">drake/common/drake</text>
<text text-anchor="middle" x="350" y="-63.5" font-family="Helvetica,sans-Serif" font-size="10.00" fill="#000000">_assert.h</text>
</a>
</g>
</g>
<!-- Node4&#45;&gt;Node7 -->
<g id="edge9" class="edge">
<title>Node4&#45;&gt;Node7</title>
<path fill="none" stroke="#191970" d="M207.2932,-123.4639C234.4236,-113.5849 270.1098,-100.5905 299.0086,-90.0675"/>
<polygon fill="#191970" stroke="#191970" points="300.3278,-93.312 308.5267,-86.6017 297.9327,-86.7345 300.3278,-93.312"/>
</g>
<!-- Node8 -->
<g id="node9" class="node">
<title>Node8</title>
<polygon fill="#ffffff" stroke="#bfbfbf" points="315.5,-.5 315.5,-19.5 384.5,-19.5 384.5,-.5 315.5,-.5"/>
<text text-anchor="middle" x="350" y="-7.5" font-family="Helvetica,sans-Serif" font-size="10.00" fill="#000000">type_traits</text>
</g>
<!-- Node7&#45;&gt;Node8 -->
<g id="edge10" class="edge">
<title>Node7&#45;&gt;Node8</title>
<path fill="none" stroke="#191970" d="M350,-56.2977C350,-48.3834 350,-38.6043 350,-30.0759"/>
<polygon fill="#191970" stroke="#191970" points="353.5001,-29.8469 350,-19.8469 346.5001,-29.847 353.5001,-29.8469"/>
</g>
</g>
</svg>
        <g id="navigator" transform="translate(0 0)" fill="#404254">
                <rect fill="#f2f5e9" fill-opacity="0.5" stroke="#606060" stroke-width=".5" x="0" y="0" width="60" height="60"/>
                <use id="zoomplus" xlink:href="#zoomPlus" x="17" y="9" onmousedown="handleZoom(evt,'in')"/>
                <use id="zoomminus" xlink:href="#zoomMin" x="42" y="9" onmousedown="handleZoom(evt,'out')"/>
                <use id="reset" xlink:href="#resetDef" x="30" y="36" onmousedown="handleReset()"/>
                <g id="arrowUp" xlink:href="#dirArrow" transform="translate(30 24)" onmousedown="handlePan(0,-1)">
                  <use xlink:href="#rim" fill="#404040">
                        <set attributeName="fill" to="#808080" begin="arrowUp.mouseover" end="arrowUp.mouseout"/>
                  </use>
                  <path fill="none" stroke="white" stroke-width="1.5" d="M0,-3.0v7 M-2.5,-0.5L0,-3.0L2.5,-0.5"/>
                </g>
                <g id="arrowRight" xlink:href="#dirArrow" transform="rotate(90) translate(36 -43)" onmousedown="handlePan(1,0)">
                  <use xlink:href="#rim" fill="#404040">
                        <set attributeName="fill" to="#808080" begin="arrowRight.mouseover" end="arrowRight.mouseout"/>
                  </use>
                  <path fill="none" stroke="white" stroke-width="1.5" d="M0,-3.0v7 M-2.5,-0.5L0,-3.0L2.5,-0.5"/>
                </g>
                <g id="arrowDown" xlink:href="#dirArrow" transform="rotate(180) translate(-30 -48)" onmousedown="handlePan(0,1)">
                  <use xlink:href="#rim" fill="#404040">
                        <set attributeName="fill" to="#808080" begin="arrowDown.mouseover" end="arrowDown.mouseout"/>
                  </use>
                  <path fill="none" stroke="white" stroke-width="1.5" d="M0,-3.0v7 M-2.5,-0.5L0,-3.0L2.5,-0.5"/>
                </g>
                <g id="arrowLeft" xlink:href="#dirArrow" transform="rotate(270) translate(-36 17)" onmousedown="handlePan(-1,0)">
                  <use xlink:href="#rim" fill="#404040">
                        <set attributeName="fill" to="#808080" begin="arrowLeft.mouseover" end="arrowLeft.mouseout"/>
                  </use>
                  <path fill="none" stroke="white" stroke-width="1.5" d="M0,-3.0v7 M-2.5,-0.5L0,-3.0L2.5,-0.5"/>
                </g>
        </g>
        <svg viewBox="0 0 15 15" width="100%" height="30px" preserveAspectRatio="xMaxYMin meet">
         <g id="arrow_out" transform="scale(0.3 0.3)">
          <a xlink:href="attic_2multibody_2rigid__body__plant_2contact__info_8h__incl_org.svg" target="_base">
           <rect id="button" ry="5" rx="5" y="6" x="6" height="38" width="38"
                fill="#f2f5e9" fill-opacity="0.5" stroke="#606060" stroke-width="1.0"/>
           <path id="arrow"
             d="M 11.500037,31.436501 C 11.940474,20.09759 22.043105,11.32322 32.158766,21.979434 L 37.068811,17.246167 C 37.068811,17.246167 37.088388,32 37.088388,32 L 22.160133,31.978069 C 22.160133,31.978069 26.997745,27.140456 26.997745,27.140456 C 18.528582,18.264221 13.291696,25.230495 11.500037,31.436501 z"
             style="fill:#404040;"/>
          </a>
         </g>
        </svg>
</svg>
