<?xml version="1.0" encoding="UTF-8" standalone="no"?>
<!DOCTYPE svg PUBLIC "-//W3C//DTD SVG 1.1//EN"
 "http://www.w3.org/Graphics/SVG/1.1/DTD/svg11.dtd">
<!-- Generated by graphviz version 2.40.1 (20161225.0304)
 -->
<!-- Title: drake/math/autodiff.cc Pages: 1 -->
<!--zoomable 341 -->
<svg id="main" version="1.1" xmlns="http://www.w3.org/2000/svg" xmlns:xlink="http://www.w3.org/1999/xlink" xml:space="preserve" onload="init(evt)">
<style type="text/css"><![CDATA[
.edge:hover path { stroke: red; }
.edge:hover polygon { stroke: red; fill: red; }
]]></style>
<script type="text/javascript"><![CDATA[
var edges = document.getElementsByTagName('g');
if (edges && edges.length) {
  for (var i=0;i<edges.length;i++) {
    if (edges[i].id.substr(0,4)=='edge') {
      edges[i].setAttribute('class','edge');
    }
  }
}
]]></script>
        <defs>
                <circle id="rim" cx="0" cy="0" r="7"/>
                <circle id="rim2" cx="0" cy="0" r="3.5"/>
                <g id="zoomPlus">
                        <use xlink:href="#rim" fill="#404040">
                                <set attributeName="fill" to="#808080" begin="zoomplus.mouseover" end="zoomplus.mouseout"/>
                        </use>
                        <path d="M-4,0h8M0,-4v8" fill="none" stroke="white" stroke-width="1.5" pointer-events="none"/>
                </g>
                <g id="zoomMin">
                        <use xlink:href="#rim" fill="#404040">
                                <set attributeName="fill" to="#808080" begin="zoomminus.mouseover" end="zoomminus.mouseout"/>
                        </use>
                        <path d="M-4,0h8" fill="none" stroke="white" stroke-width="1.5" pointer-events="none"/>
                </g>
                <g id="dirArrow">
                        <path fill="none" stroke="white" stroke-width="1.5" d="M0,-3.0v7 M-2.5,-0.5L0,-3.0L2.5,-0.5"/>
                </g>
               <g id="resetDef">
                       <use xlink:href="#rim2" fill="#404040">
                               <set attributeName="fill" to="#808080" begin="reset.mouseover" end="reset.mouseout"/>
                       </use>
               </g>
        </defs>

<script type="text/javascript">
var viewWidth = 1333;
var viewHeight = 341;
var sectionId = 'dynsection-0';
</script>
<script xlink:href="svgpan.js"/>
<svg id="graph" class="graph">
<g id="viewport">
<title>drake/math/autodiff.cc</title>
<polygon fill="#ffffff" stroke="transparent" points="-4,4 -4,-337 1328.5,-337 1328.5,4 -4,4"/>
<!-- Node0 -->
<g id="node1" class="node">
<title>Node0</title>
<polygon fill="#bfbfbf" stroke="#000000" points="928,-313.5 928,-332.5 1056,-332.5 1056,-313.5 928,-313.5"/>
<text text-anchor="middle" x="992" y="-320.5" font-family="Helvetica,sans-Serif" font-size="10.00" fill="#000000">drake/math/autodiff.cc</text>
</g>
<!-- Node1 -->
<g id="node2" class="node">
<title>Node1</title>
<g id="a_node2"><a xlink:href="math_2autodiff_8h.html" target="_top" xlink:title="Utilities for arithmetic on AutoDiffScalar. ">
<polygon fill="#ffffff" stroke="#000000" points="930.5,-257.5 930.5,-276.5 1053.5,-276.5 1053.5,-257.5 930.5,-257.5"/>
<text text-anchor="middle" x="992" y="-264.5" font-family="Helvetica,sans-Serif" font-size="10.00" fill="#000000">drake/math/autodiff.h</text>
</a>
</g>
</g>
<!-- Node0&#45;&gt;Node1 -->
<g id="edge1" class="edge">
<title>Node0&#45;&gt;Node1</title>
<path fill="none" stroke="#191970" d="M992,-313.2455C992,-305.9382 992,-295.6944 992,-286.7046"/>
<polygon fill="#191970" stroke="#191970" points="995.5001,-286.6426 992,-276.6427 988.5001,-286.6427 995.5001,-286.6426"/>
</g>
<!-- Node2 -->
<g id="node3" class="node">
<title>Node2</title>
<polygon fill="#ffffff" stroke="#bfbfbf" points="481.5,-73 481.5,-92 528.5,-92 528.5,-73 481.5,-73"/>
<text text-anchor="middle" x="505" y="-80" font-family="Helvetica,sans-Serif" font-size="10.00" fill="#000000">cmath</text>
</g>
<!-- Node1&#45;&gt;Node2 -->
<g id="edge2" class="edge">
<title>Node1&#45;&gt;Node2</title>
<path fill="none" stroke="#191970" d="M930.1672,-262.8975C824.7527,-255.5306 614.6955,-239.1277 543,-221 480.0245,-205.0771 444.0745,-219.0193 408,-165 400.3484,-153.5422 400.9003,-145.8077 408,-134 409.9971,-130.6785 448.5974,-110.7961 476.4925,-96.7328"/>
<polygon fill="#191970" stroke="#191970" points="478.1106,-99.8368 485.4739,-92.2189 474.9672,-93.5823 478.1106,-99.8368"/>
</g>
<!-- Node3 -->
<g id="node4" class="node">
<title>Node3</title>
<polygon fill="#ffffff" stroke="#bfbfbf" points="1020.5,-201.5 1020.5,-220.5 1061.5,-220.5 1061.5,-201.5 1020.5,-201.5"/>
<text text-anchor="middle" x="1041" y="-208.5" font-family="Helvetica,sans-Serif" font-size="10.00" fill="#000000">tuple</text>
</g>
<!-- Node1&#45;&gt;Node3 -->
<g id="edge3" class="edge">
<title>Node1&#45;&gt;Node3</title>
<path fill="none" stroke="#191970" d="M1000.5351,-257.2455C1007.4912,-249.2958 1017.4883,-237.8706 1025.8051,-228.3656"/>
<polygon fill="#191970" stroke="#191970" points="1028.6116,-230.4732 1032.5627,-220.6427 1023.3436,-225.8637 1028.6116,-230.4732"/>
</g>
<!-- Node4 -->
<g id="node5" class="node">
<title>Node4</title>
<polygon fill="#ffffff" stroke="#bfbfbf" points="865.5,-6 865.5,-25 942.5,-25 942.5,-6 865.5,-6"/>
<text text-anchor="middle" x="904" y="-13" font-family="Helvetica,sans-Serif" font-size="10.00" fill="#000000">Eigen/Dense</text>
</g>
<!-- Node1&#45;&gt;Node4 -->
<g id="edge4" class="edge">
<title>Node1&#45;&gt;Node4</title>
<path fill="none" stroke="#191970" d="M991.8777,-257.3529C991.3282,-235.0183 988.3955,-178.2827 973,-134 959.6016,-95.4616 933.2171,-55.4125 917.2396,-33.1485"/>
<polygon fill="#191970" stroke="#191970" points="920.0166,-31.0166 911.2894,-25.0093 914.3656,-35.1478 920.0166,-31.0166"/>
</g>
<!-- Node5 -->
<g id="node6" class="node">
<title>Node5</title>
<g id="a_node6"><a xlink:href="common_2autodiff_8h.html" target="_top" xlink:title="drake/common/autodiff.h">
<polygon fill="#ffffff" stroke="#000000" points="552,-201.5 552,-220.5 692,-220.5 692,-201.5 552,-201.5"/>
<text text-anchor="middle" x="622" y="-208.5" font-family="Helvetica,sans-Serif" font-size="10.00" fill="#000000">drake/common/autodiff.h</text>
</a>
</g>
</g>
<!-- Node1&#45;&gt;Node5 -->
<g id="edge5" class="edge">
<title>Node1&#45;&gt;Node5</title>
<path fill="none" stroke="#191970" d="M930.4867,-257.6899C865.6577,-247.8779 763.5957,-232.4307 694.7994,-222.0183"/>
<polygon fill="#191970" stroke="#191970" points="695.3101,-218.5558 684.8989,-220.5198 694.2625,-225.477 695.3101,-218.5558"/>
</g>
<!-- Node24 -->
<g id="node25" class="node">
<title>Node24</title>
<g id="a_node25"><a xlink:href="unused_8h.html" target="_top" xlink:title="drake/common/unused.h">
<polygon fill="#ffffff" stroke="#000000" points="1079.5,-201.5 1079.5,-220.5 1216.5,-220.5 1216.5,-201.5 1079.5,-201.5"/>
<text text-anchor="middle" x="1148" y="-208.5" font-family="Helvetica,sans-Serif" font-size="10.00" fill="#000000">drake/common/unused.h</text>
</a>
</g>
</g>
<!-- Node1&#45;&gt;Node24 -->
<g id="edge33" class="edge">
<title>Node1&#45;&gt;Node24</title>
<path fill="none" stroke="#191970" d="M1018.8174,-257.3733C1044.5332,-248.1419 1083.538,-234.1402 1111.9599,-223.9375"/>
<polygon fill="#191970" stroke="#191970" points="1113.3032,-227.174 1121.5326,-220.5011 1110.9381,-220.5857 1113.3032,-227.174"/>
</g>
<!-- Node6 -->
<g id="node7" class="node">
<title>Node6</title>
<polygon fill="#ffffff" stroke="#bfbfbf" points="587.5,-140 587.5,-159 656.5,-159 656.5,-140 587.5,-140"/>
<text text-anchor="middle" x="622" y="-147" font-family="Helvetica,sans-Serif" font-size="10.00" fill="#000000">Eigen/Core</text>
</g>
<!-- Node5&#45;&gt;Node6 -->
<g id="edge6" class="edge">
<title>Node5&#45;&gt;Node6</title>
<path fill="none" stroke="#191970" d="M622,-201.3906C622,-192.8657 622,-180.1392 622,-169.4235"/>
<polygon fill="#191970" stroke="#191970" points="625.5001,-169.2448 622,-159.2449 618.5001,-169.2449 625.5001,-169.2448"/>
</g>
<!-- Node7 -->
<g id="node8" class="node">
<title>Node7</title>
<polygon fill="#ffffff" stroke="#bfbfbf" points="674.5,-140 674.5,-159 825.5,-159 825.5,-140 674.5,-140"/>
<text text-anchor="middle" x="750" y="-147" font-family="Helvetica,sans-Serif" font-size="10.00" fill="#000000">unsupported/Eigen/AutoDiff</text>
</g>
<!-- Node5&#45;&gt;Node7 -->
<g id="edge7" class="edge">
<title>Node5&#45;&gt;Node7</title>
<path fill="none" stroke="#191970" d="M642,-201.3906C663.2289,-191.1908 696.9762,-174.9763 721.096,-163.3875"/>
<polygon fill="#191970" stroke="#191970" points="722.6426,-166.5275 730.1404,-159.0419 719.6111,-160.2179 722.6426,-166.5275"/>
</g>
<!-- Node8 -->
<g id="node9" class="node">
<title>Node8</title>
<g id="a_node9"><a xlink:href="eigen__autodiff__limits_8h.html" target="_top" xlink:title="drake/common/eigen\l_autodiff_limits.h">
<polygon fill="#ffffff" stroke="#000000" points="2,-134.5 2,-164.5 122,-164.5 122,-134.5 2,-134.5"/>
<text text-anchor="start" x="10" y="-152.5" font-family="Helvetica,sans-Serif" font-size="10.00" fill="#000000">drake/common/eigen</text>
<text text-anchor="middle" x="62" y="-141.5" font-family="Helvetica,sans-Serif" font-size="10.00" fill="#000000">_autodiff_limits.h</text>
</a>
</g>
</g>
<!-- Node5&#45;&gt;Node8 -->
<g id="edge8" class="edge">
<title>Node5&#45;&gt;Node8</title>
<path fill="none" stroke="#191970" d="M551.8393,-203.5058C467.7406,-194.4955 322.5498,-178.8536 198,-165 176.6882,-162.6295 153.5035,-160.0044 132.4141,-157.5986"/>
<polygon fill="#191970" stroke="#191970" points="132.5794,-154.0948 122.2468,-156.4373 131.7849,-161.0496 132.5794,-154.0948"/>
</g>
<!-- Node10 -->
<g id="node11" class="node">
<title>Node10</title>
<g id="a_node11"><a xlink:href="eigen__autodiff__types_8h.html" target="_top" xlink:title="This file contains abbreviated definitions for certain uses of AutoDiffScalar that are commonly used ...">
<polygon fill="#ffffff" stroke="#000000" points="844,-134.5 844,-164.5 964,-164.5 964,-134.5 844,-134.5"/>
<text text-anchor="start" x="852" y="-152.5" font-family="Helvetica,sans-Serif" font-size="10.00" fill="#000000">drake/common/eigen</text>
<text text-anchor="middle" x="904" y="-141.5" font-family="Helvetica,sans-Serif" font-size="10.00" fill="#000000">_autodiff_types.h</text>
</a>
</g>
</g>
<!-- Node5&#45;&gt;Node10 -->
<g id="edge10" class="edge">
<title>Node5&#45;&gt;Node10</title>
<path fill="none" stroke="#191970" d="M666.2703,-201.4514C707.0725,-192.6379 769.5829,-179.1031 833.7777,-165.0436"/>
<polygon fill="#191970" stroke="#191970" points="834.6556,-168.4344 843.6745,-162.8748 833.1571,-161.5966 834.6556,-168.4344"/>
</g>
<!-- Node16 -->
<g id="node17" class="node">
<title>Node16</title>
<g id="a_node17"><a xlink:href="autodiffxd_8h.html" target="_top" xlink:title="drake/common/autodiffxd.h">
<polygon fill="#ffffff" stroke="#000000" points="417,-140 417,-159 569,-159 569,-140 417,-140"/>
<text text-anchor="middle" x="493" y="-147" font-family="Helvetica,sans-Serif" font-size="10.00" fill="#000000">drake/common/autodiffxd.h</text>
</a>
</g>
</g>
<!-- Node5&#45;&gt;Node16 -->
<g id="edge18" class="edge">
<title>Node5&#45;&gt;Node16</title>
<path fill="none" stroke="#191970" d="M601.8438,-201.3906C580.449,-191.1908 546.438,-174.9763 522.1298,-163.3875"/>
<polygon fill="#191970" stroke="#191970" points="523.5476,-160.186 513.0147,-159.0419 520.5352,-166.5047 523.5476,-160.186"/>
</g>
<!-- Node18 -->
<g id="node19" class="node">
<title>Node18</title>
<g id="a_node19"><a xlink:href="autodiff__overloads_8h.html" target="_top" xlink:title="Overloads for STL mathematical operations on AutoDiffScalar. ">
<polygon fill="#ffffff" stroke="#000000" points="207.5,-134.5 207.5,-164.5 338.5,-164.5 338.5,-134.5 207.5,-134.5"/>
<text text-anchor="start" x="215.5" y="-152.5" font-family="Helvetica,sans-Serif" font-size="10.00" fill="#000000">drake/common/autodiff</text>
<text text-anchor="middle" x="273" y="-141.5" font-family="Helvetica,sans-Serif" font-size="10.00" fill="#000000">_overloads.h</text>
</a>
</g>
</g>
<!-- Node5&#45;&gt;Node18 -->
<g id="edge22" class="edge">
<title>Node5&#45;&gt;Node18</title>
<path fill="none" stroke="#191970" d="M567.8517,-201.4581C509.0296,-191.0926 414.6343,-174.4585 348.5374,-162.811"/>
<polygon fill="#191970" stroke="#191970" points="349.0463,-159.3469 338.5906,-161.0582 347.8314,-166.2406 349.0463,-159.3469"/>
</g>
<!-- Node9 -->
<g id="node10" class="node">
<title>Node9</title>
<polygon fill="#ffffff" stroke="#bfbfbf" points="0,-6 0,-25 44,-25 44,-6 0,-6"/>
<text text-anchor="middle" x="22" y="-13" font-family="Helvetica,sans-Serif" font-size="10.00" fill="#000000">limits</text>
</g>
<!-- Node8&#45;&gt;Node9 -->
<g id="edge9" class="edge">
<title>Node8&#45;&gt;Node9</title>
<path fill="none" stroke="#191970" d="M38.778,-134.322C27.1899,-125.3119 14.3229,-112.7675 8,-98 -.8077,-77.4291 6.0519,-51.7456 12.9138,-34.549"/>
<polygon fill="#191970" stroke="#191970" points="16.2623,-35.6258 17.0466,-25.06 9.8446,-32.8306 16.2623,-35.6258"/>
</g>
<!-- Node10&#45;&gt;Node4 -->
<g id="edge12" class="edge">
<title>Node10&#45;&gt;Node4</title>
<path fill="none" stroke="#191970" d="M904,-134.389C904,-110.0735 904,-62.2644 904,-35.2698"/>
<polygon fill="#191970" stroke="#191970" points="907.5001,-35.1041 904,-25.1042 900.5001,-35.1042 907.5001,-35.1041"/>
</g>
<!-- Node11 -->
<g id="node12" class="node">
<title>Node11</title>
<polygon fill="#ffffff" stroke="#bfbfbf" points="368.5,-6 368.5,-25 437.5,-25 437.5,-6 368.5,-6"/>
<text text-anchor="middle" x="403" y="-13" font-family="Helvetica,sans-Serif" font-size="10.00" fill="#000000">type_traits</text>
</g>
<!-- Node10&#45;&gt;Node11 -->
<g id="edge11" class="edge">
<title>Node10&#45;&gt;Node11</title>
<path fill="none" stroke="#191970" d="M852.7156,-134.444C794.5155,-117.4898 696.6694,-89.3859 612,-67 555.4742,-52.055 489.976,-36.1415 447.5859,-26.0255"/>
<polygon fill="#191970" stroke="#191970" points="448.3917,-22.6195 437.8529,-23.7078 446.7701,-29.4291 448.3917,-22.6195"/>
</g>
<!-- Node12 -->
<g id="node13" class="node">
<title>Node12</title>
<g id="a_node13"><a xlink:href="eigen__types_8h.html" target="_top" xlink:title="This file contains abbreviated definitions for certain specializations of Eigen::Matrix that are comm...">
<polygon fill="#ffffff" stroke="#000000" points="1020,-67.5 1020,-97.5 1140,-97.5 1140,-67.5 1020,-67.5"/>
<text text-anchor="start" x="1028" y="-85.5" font-family="Helvetica,sans-Serif" font-size="10.00" fill="#000000">drake/common/eigen</text>
<text text-anchor="middle" x="1080" y="-74.5" font-family="Helvetica,sans-Serif" font-size="10.00" fill="#000000">_types.h</text>
</a>
</g>
</g>
<!-- Node10&#45;&gt;Node12 -->
<g id="edge13" class="edge">
<title>Node10&#45;&gt;Node12</title>
<path fill="none" stroke="#191970" d="M943.4978,-134.4639C969.3359,-124.6278 1003.2866,-111.7034 1030.8647,-101.2049"/>
<polygon fill="#191970" stroke="#191970" points="1032.2294,-104.4305 1040.3299,-97.6017 1029.7389,-97.8885 1032.2294,-104.4305"/>
</g>
<!-- Node12&#45;&gt;Node4 -->
<g id="edge15" class="edge">
<title>Node12&#45;&gt;Node4</title>
<path fill="none" stroke="#191970" d="M1040.5022,-67.4639C1009.8164,-55.7824 967.6882,-39.7449 938.3814,-28.5884"/>
<polygon fill="#191970" stroke="#191970" points="939.5601,-25.2921 928.9691,-25.0053 937.0696,-31.8341 939.5601,-25.2921"/>
</g>
<!-- Node13 -->
<g id="node14" class="node">
<title>Node13</title>
<polygon fill="#ffffff" stroke="#bfbfbf" points="1100,-6 1100,-25 1158,-25 1158,-6 1100,-6"/>
<text text-anchor="middle" x="1129" y="-13" font-family="Helvetica,sans-Serif" font-size="10.00" fill="#000000">memory</text>
</g>
<!-- Node12&#45;&gt;Node13 -->
<g id="edge14" class="edge">
<title>Node12&#45;&gt;Node13</title>
<path fill="none" stroke="#191970" d="M1091.1189,-67.2967C1098.5309,-57.1618 1108.3,-43.804 1116.061,-33.1921"/>
<polygon fill="#191970" stroke="#191970" points="1118.9339,-35.1928 1122.012,-25.055 1113.2837,-31.0606 1118.9339,-35.1928"/>
</g>
<!-- Node14 -->
<g id="node15" class="node">
<title>Node14</title>
<g id="a_node15"><a xlink:href="constants_8h.html" target="_top" xlink:title="drake/common/constants.h">
<polygon fill="#ffffff" stroke="#000000" points="1175.5,-6 1175.5,-25 1324.5,-25 1324.5,-6 1175.5,-6"/>
<text text-anchor="middle" x="1250" y="-13" font-family="Helvetica,sans-Serif" font-size="10.00" fill="#000000">drake/common/constants.h</text>
</a>
</g>
</g>
<!-- Node12&#45;&gt;Node14 -->
<g id="edge16" class="edge">
<title>Node12&#45;&gt;Node14</title>
<path fill="none" stroke="#191970" d="M1118.1513,-67.4639C1147.5745,-55.8677 1187.8893,-39.9789 1216.1686,-28.8335"/>
<polygon fill="#191970" stroke="#191970" points="1217.6117,-32.0269 1225.6318,-25.1039 1215.045,-25.5144 1217.6117,-32.0269"/>
</g>
<!-- Node15 -->
<g id="node16" class="node">
<title>Node15</title>
<g id="a_node16"><a xlink:href="drake__copyable_8h.html" target="_top" xlink:title="Provides careful macros to selectively enable or disable the special member functions for copy&#45;constr...">
<polygon fill="#ffffff" stroke="#000000" points="960.5,-.5 960.5,-30.5 1081.5,-30.5 1081.5,-.5 960.5,-.5"/>
<text text-anchor="start" x="968.5" y="-18.5" font-family="Helvetica,sans-Serif" font-size="10.00" fill="#000000">drake/common/drake</text>
<text text-anchor="middle" x="1021" y="-7.5" font-family="Helvetica,sans-Serif" font-size="10.00" fill="#000000">_copyable.h</text>
</a>
</g>
</g>
<!-- Node12&#45;&gt;Node15 -->
<g id="edge17" class="edge">
<title>Node12&#45;&gt;Node15</title>
<path fill="none" stroke="#191970" d="M1066.612,-67.2967C1059.0685,-58.7303 1049.4973,-47.8614 1041.0726,-38.2943"/>
<polygon fill="#191970" stroke="#191970" points="1043.5706,-35.835 1034.335,-30.6432 1038.3171,-40.4612 1043.5706,-35.835"/>
</g>
<!-- Node16&#45;&gt;Node2 -->
<g id="edge19" class="edge">
<title>Node16&#45;&gt;Node2</title>
<path fill="none" stroke="#191970" d="M494.7193,-139.9005C496.4837,-130.0495 499.2785,-114.4451 501.509,-101.9912"/>
<polygon fill="#191970" stroke="#191970" points="504.966,-102.5421 503.2839,-92.0817 498.0756,-101.308 504.966,-102.5421"/>
</g>
<!-- Node16&#45;&gt;Node4 -->
<g id="edge21" class="edge">
<title>Node16&#45;&gt;Node4</title>
<path fill="none" stroke="#191970" d="M522.2286,-139.9705C594.7608,-116.3225 783.0413,-54.9367 864.9656,-28.2265"/>
<polygon fill="#191970" stroke="#191970" points="866.2229,-31.498 874.6454,-25.0706 864.053,-24.8428 866.2229,-31.498"/>
</g>
<!-- Node17 -->
<g id="node18" class="node">
<title>Node17</title>
<polygon fill="#ffffff" stroke="#bfbfbf" points="546.5,-73 546.5,-92 603.5,-92 603.5,-73 546.5,-73"/>
<text text-anchor="middle" x="575" y="-80" font-family="Helvetica,sans-Serif" font-size="10.00" fill="#000000">ostream</text>
</g>
<!-- Node16&#45;&gt;Node17 -->
<g id="edge20" class="edge">
<title>Node16&#45;&gt;Node17</title>
<path fill="none" stroke="#191970" d="M504.7486,-139.9005C517.9011,-129.1539 539.4336,-111.5603 555.1983,-98.6794"/>
<polygon fill="#191970" stroke="#191970" points="557.7439,-101.1193 563.2732,-92.0817 553.3148,-95.6986 557.7439,-101.1193"/>
</g>
<!-- Node18&#45;&gt;Node2 -->
<g id="edge23" class="edge">
<title>Node18&#45;&gt;Node2</title>
<path fill="none" stroke="#191970" d="M338.9061,-135.6891C378.1138,-126.6754 428.5272,-113.6807 472,-98 473.5965,-97.4242 475.2205,-96.7989 476.8489,-96.1409"/>
<polygon fill="#191970" stroke="#191970" points="478.2884,-99.3316 486.0597,-92.1304 475.4938,-92.9136 478.2884,-99.3316"/>
</g>
<!-- Node18&#45;&gt;Node9 -->
<g id="edge24" class="edge">
<title>Node18&#45;&gt;Node9</title>
<path fill="none" stroke="#191970" d="M207.4922,-142.765C147.3516,-135.2381 64.1751,-120.9924 41,-98 24.5053,-81.6354 21.137,-54.0217 20.9733,-35.2925"/>
<polygon fill="#191970" stroke="#191970" points="24.4744,-35.2723 21.1844,-25.2013 17.4759,-35.1259 24.4744,-35.2723"/>
</g>
<!-- Node19 -->
<g id="node20" class="node">
<title>Node19</title>
<g id="a_node20"><a xlink:href="cond_8h.html" target="_top" xlink:title="drake/common/cond.h">
<polygon fill="#ffffff" stroke="#000000" points="199.5,-73 199.5,-92 324.5,-92 324.5,-73 199.5,-73"/>
<text text-anchor="middle" x="262" y="-80" font-family="Helvetica,sans-Serif" font-size="10.00" fill="#000000">drake/common/cond.h</text>
</a>
</g>
</g>
<!-- Node18&#45;&gt;Node19 -->
<g id="edge25" class="edge">
<title>Node18&#45;&gt;Node19</title>
<path fill="none" stroke="#191970" d="M270.5039,-134.2967C268.9398,-124.7699 266.9082,-112.3954 265.2229,-102.1306"/>
<polygon fill="#191970" stroke="#191970" points="268.6427,-101.3558 263.5687,-92.055 261.7351,-102.4899 268.6427,-101.3558"/>
</g>
<!-- Node22 -->
<g id="node23" class="node">
<title>Node22</title>
<g id="a_node23"><a xlink:href="drake__assert_8h.html" target="_top" xlink:title="Provides Drake&#39;s assertion implementation. ">
<polygon fill="#ffffff" stroke="#000000" points="342.5,-67.5 342.5,-97.5 463.5,-97.5 463.5,-67.5 342.5,-67.5"/>
<text text-anchor="start" x="350.5" y="-85.5" font-family="Helvetica,sans-Serif" font-size="10.00" fill="#000000">drake/common/drake</text>
<text text-anchor="middle" x="403" y="-74.5" font-family="Helvetica,sans-Serif" font-size="10.00" fill="#000000">_assert.h</text>
</a>
</g>
</g>
<!-- Node18&#45;&gt;Node22 -->
<g id="edge29" class="edge">
<title>Node18&#45;&gt;Node22</title>
<path fill="none" stroke="#191970" d="M302.1745,-134.4639C320.5281,-125.0047 344.4235,-112.6894 364.345,-102.4222"/>
<polygon fill="#191970" stroke="#191970" points="366.1876,-105.4101 373.473,-97.7177 362.9807,-99.1879 366.1876,-105.4101"/>
</g>
<!-- Node23 -->
<g id="node24" class="node">
<title>Node23</title>
<g id="a_node24"><a xlink:href="dummy__value_8h.html" target="_top" xlink:title="drake/common/dummy\l_value.h">
<polygon fill="#ffffff" stroke="#000000" points="50.5,-67.5 50.5,-97.5 181.5,-97.5 181.5,-67.5 50.5,-67.5"/>
<text text-anchor="start" x="58.5" y="-85.5" font-family="Helvetica,sans-Serif" font-size="10.00" fill="#000000">drake/common/dummy</text>
<text text-anchor="middle" x="116" y="-74.5" font-family="Helvetica,sans-Serif" font-size="10.00" fill="#000000">_value.h</text>
</a>
</g>
</g>
<!-- Node18&#45;&gt;Node23 -->
<g id="edge31" class="edge">
<title>Node18&#45;&gt;Node23</title>
<path fill="none" stroke="#191970" d="M237.7661,-134.4639C215.0194,-124.7567 185.2241,-112.0415 160.8007,-101.6188"/>
<polygon fill="#191970" stroke="#191970" points="161.9588,-98.3077 151.3875,-97.6017 159.2113,-104.7459 161.9588,-98.3077"/>
</g>
<!-- Node19&#45;&gt;Node11 -->
<g id="edge27" class="edge">
<title>Node19&#45;&gt;Node11</title>
<path fill="none" stroke="#191970" d="M282.2019,-72.9005C306.179,-61.5072 346.3521,-42.4178 373.7321,-29.4075"/>
<polygon fill="#191970" stroke="#191970" points="375.3056,-32.5348 382.8356,-25.0817 372.3013,-26.2123 375.3056,-32.5348"/>
</g>
<!-- Node20 -->
<g id="node21" class="node">
<title>Node20</title>
<polygon fill="#ffffff" stroke="#bfbfbf" points="127.5,-6 127.5,-25 192.5,-25 192.5,-6 127.5,-6"/>
<text text-anchor="middle" x="160" y="-13" font-family="Helvetica,sans-Serif" font-size="10.00" fill="#000000">functional</text>
</g>
<!-- Node19&#45;&gt;Node20 -->
<g id="edge26" class="edge">
<title>Node19&#45;&gt;Node20</title>
<path fill="none" stroke="#191970" d="M247.3859,-72.9005C230.571,-61.8554 202.7451,-43.5776 183.0142,-30.6172"/>
<polygon fill="#191970" stroke="#191970" points="184.8667,-27.6465 174.587,-25.0817 181.0236,-33.4972 184.8667,-27.6465"/>
</g>
<!-- Node21 -->
<g id="node22" class="node">
<title>Node21</title>
<g id="a_node22"><a xlink:href="double__overloads_8h.html" target="_top" xlink:title="Provides necessary operations on double to have it as a ScalarType in drake. ">
<polygon fill="#ffffff" stroke="#000000" points="211,-.5 211,-30.5 337,-30.5 337,-.5 211,-.5"/>
<text text-anchor="start" x="219" y="-18.5" font-family="Helvetica,sans-Serif" font-size="10.00" fill="#000000">drake/common/double</text>
<text text-anchor="middle" x="274" y="-7.5" font-family="Helvetica,sans-Serif" font-size="10.00" fill="#000000">_overloads.h</text>
</a>
</g>
</g>
<!-- Node19&#45;&gt;Node21 -->
<g id="edge28" class="edge">
<title>Node19&#45;&gt;Node21</title>
<path fill="none" stroke="#191970" d="M263.7193,-72.9005C265.2221,-64.5099 267.4725,-51.9451 269.485,-40.7085"/>
<polygon fill="#191970" stroke="#191970" points="272.9916,-40.9822 271.3095,-30.5218 266.1013,-39.7481 272.9916,-40.9822"/>
</g>
<!-- Node22&#45;&gt;Node11 -->
<g id="edge30" class="edge">
<title>Node22&#45;&gt;Node11</title>
<path fill="none" stroke="#191970" d="M403,-67.2967C403,-57.7699 403,-45.3954 403,-35.1306"/>
<polygon fill="#191970" stroke="#191970" points="406.5001,-35.0549 403,-25.055 399.5001,-35.055 406.5001,-35.0549"/>
</g>
<!-- Node23&#45;&gt;Node9 -->
<g id="edge32" class="edge">
<title>Node23&#45;&gt;Node9</title>
<path fill="none" stroke="#191970" d="M94.6699,-67.2967C79.4555,-56.4524 59.0643,-41.9182 43.7547,-31.006"/>
<polygon fill="#191970" stroke="#191970" points="45.5802,-28.0091 35.4055,-25.055 41.5172,-33.7093 45.5802,-28.0091"/>
</g>
</g>
</svg>
        <g id="navigator" transform="translate(0 0)" fill="#404254">
                <rect fill="#f2f5e9" fill-opacity="0.5" stroke="#606060" stroke-width=".5" x="0" y="0" width="60" height="60"/>
                <use id="zoomplus" xlink:href="#zoomPlus" x="17" y="9" onmousedown="handleZoom(evt,'in')"/>
                <use id="zoomminus" xlink:href="#zoomMin" x="42" y="9" onmousedown="handleZoom(evt,'out')"/>
                <use id="reset" xlink:href="#resetDef" x="30" y="36" onmousedown="handleReset()"/>
                <g id="arrowUp" xlink:href="#dirArrow" transform="translate(30 24)" onmousedown="handlePan(0,-1)">
                  <use xlink:href="#rim" fill="#404040">
                        <set attributeName="fill" to="#808080" begin="arrowUp.mouseover" end="arrowUp.mouseout"/>
                  </use>
                  <path fill="none" stroke="white" stroke-width="1.5" d="M0,-3.0v7 M-2.5,-0.5L0,-3.0L2.5,-0.5"/>
                </g>
                <g id="arrowRight" xlink:href="#dirArrow" transform="rotate(90) translate(36 -43)" onmousedown="handlePan(1,0)">
                  <use xlink:href="#rim" fill="#404040">
                        <set attributeName="fill" to="#808080" begin="arrowRight.mouseover" end="arrowRight.mouseout"/>
                  </use>
                  <path fill="none" stroke="white" stroke-width="1.5" d="M0,-3.0v7 M-2.5,-0.5L0,-3.0L2.5,-0.5"/>
                </g>
                <g id="arrowDown" xlink:href="#dirArrow" transform="rotate(180) translate(-30 -48)" onmousedown="handlePan(0,1)">
                  <use xlink:href="#rim" fill="#404040">
                        <set attributeName="fill" to="#808080" begin="arrowDown.mouseover" end="arrowDown.mouseout"/>
                  </use>
                  <path fill="none" stroke="white" stroke-width="1.5" d="M0,-3.0v7 M-2.5,-0.5L0,-3.0L2.5,-0.5"/>
                </g>
                <g id="arrowLeft" xlink:href="#dirArrow" transform="rotate(270) translate(-36 17)" onmousedown="handlePan(-1,0)">
                  <use xlink:href="#rim" fill="#404040">
                        <set attributeName="fill" to="#808080" begin="arrowLeft.mouseover" end="arrowLeft.mouseout"/>
                  </use>
                  <path fill="none" stroke="white" stroke-width="1.5" d="M0,-3.0v7 M-2.5,-0.5L0,-3.0L2.5,-0.5"/>
                </g>
        </g>
        <svg viewBox="0 0 15 15" width="100%" height="30px" preserveAspectRatio="xMaxYMin meet">
         <g id="arrow_out" transform="scale(0.3 0.3)">
          <a xlink:href="autodiff_8cc__incl_org.svg" target="_base">
           <rect id="button" ry="5" rx="5" y="6" x="6" height="38" width="38"
                fill="#f2f5e9" fill-opacity="0.5" stroke="#606060" stroke-width="1.0"/>
           <path id="arrow"
             d="M 11.500037,31.436501 C 11.940474,20.09759 22.043105,11.32322 32.158766,21.979434 L 37.068811,17.246167 C 37.068811,17.246167 37.088388,32 37.088388,32 L 22.160133,31.978069 C 22.160133,31.978069 26.997745,27.140456 26.997745,27.140456 C 18.528582,18.264221 13.291696,25.230495 11.500037,31.436501 z"
             style="fill:#404040;"/>
          </a>
         </g>
        </svg>
</svg>
