<?xml version="1.0" encoding="UTF-8" standalone="no"?>
<!DOCTYPE svg PUBLIC "-//W3C//DTD SVG 1.1//EN"
 "http://www.w3.org/Graphics/SVG/1.1/DTD/svg11.dtd">
<!-- Generated by graphviz version 2.40.1 (20161225.0304)
 -->
<!-- Title: drake/systems/framework/basic_vector.h Pages: 1 -->
<svg width="1120pt" height="296pt"
 viewBox="0.00 0.00 1119.50 296.00" xmlns="http://www.w3.org/2000/svg" xmlns:xlink="http://www.w3.org/1999/xlink">
<g id="graph0" class="graph" transform="scale(1 1) rotate(0) translate(4 292)">
<title>drake/systems/framework/basic_vector.h</title>
<polygon fill="#ffffff" stroke="transparent" points="-4,4 -4,-292 1115.5,-292 1115.5,4 -4,4"/>
<!-- Node0 -->
<g id="node1" class="node">
<title>Node0</title>
<polygon fill="#bfbfbf" stroke="#000000" points="373.5,-257.5 373.5,-287.5 518.5,-287.5 518.5,-257.5 373.5,-257.5"/>
<text text-anchor="start" x="381.5" y="-275.5" font-family="Helvetica,sans-Serif" font-size="10.00" fill="#000000">drake/systems/framework</text>
<text text-anchor="middle" x="446" y="-264.5" font-family="Helvetica,sans-Serif" font-size="10.00" fill="#000000">/basic_vector.h</text>
</g>
<!-- Node1 -->
<g id="node2" class="node">
<title>Node1</title>
<polygon fill="#ffffff" stroke="#bfbfbf" points="0,-196 0,-215 50,-215 50,-196 0,-196"/>
<text text-anchor="middle" x="25" y="-203" font-family="Helvetica,sans-Serif" font-size="10.00" fill="#000000">cstdint</text>
</g>
<!-- Node0&#45;&gt;Node1 -->
<g id="edge1" class="edge">
<title>Node0&#45;&gt;Node1</title>
<path fill="none" stroke="#191970" d="M373.3715,-269.2298C294.6085,-264.2164 165.8293,-251.7211 59,-221 57.0361,-220.4352 55.0408,-219.7748 53.0514,-219.0507"/>
<polygon fill="#191970" stroke="#191970" points="53.9077,-215.6184 43.3281,-215.0492 51.2436,-222.0916 53.9077,-215.6184"/>
</g>
<!-- Node2 -->
<g id="node3" class="node">
<title>Node2</title>
<polygon fill="#ffffff" stroke="#bfbfbf" points="68.5,-196 68.5,-215 151.5,-215 151.5,-196 68.5,-196"/>
<text text-anchor="middle" x="110" y="-203" font-family="Helvetica,sans-Serif" font-size="10.00" fill="#000000">initializer_list</text>
</g>
<!-- Node0&#45;&gt;Node2 -->
<g id="edge2" class="edge">
<title>Node0&#45;&gt;Node2</title>
<path fill="none" stroke="#191970" d="M373.4794,-261.7827C315.5885,-252.6553 232.6034,-238.2883 161,-221 157.1136,-220.0617 153.0865,-218.9986 149.0768,-217.8796"/>
<polygon fill="#191970" stroke="#191970" points="149.815,-214.4494 139.2357,-215.0221 147.8631,-221.1718 149.815,-214.4494"/>
</g>
<!-- Node3 -->
<g id="node4" class="node">
<title>Node3</title>
<polygon fill="#ffffff" stroke="#bfbfbf" points="170,-196 170,-215 230,-215 230,-196 170,-196"/>
<text text-anchor="middle" x="200" y="-203" font-family="Helvetica,sans-Serif" font-size="10.00" fill="#000000">iostream</text>
</g>
<!-- Node0&#45;&gt;Node3 -->
<g id="edge3" class="edge">
<title>Node0&#45;&gt;Node3</title>
<path fill="none" stroke="#191970" d="M375.395,-257.4141C335.0691,-248.1824 283.7748,-235.3953 239,-221 236.7175,-220.2662 234.3774,-219.4649 232.0323,-218.6256"/>
<polygon fill="#191970" stroke="#191970" points="233.0896,-215.2839 222.4976,-215.0372 230.6239,-221.8353 233.0896,-215.2839"/>
</g>
<!-- Node4 -->
<g id="node5" class="node">
<title>Node4</title>
<polygon fill="#ffffff" stroke="#bfbfbf" points="333,-129 333,-148 377,-148 377,-129 333,-129"/>
<text text-anchor="middle" x="355" y="-136" font-family="Helvetica,sans-Serif" font-size="10.00" fill="#000000">limits</text>
</g>
<!-- Node0&#45;&gt;Node4 -->
<g id="edge4" class="edge">
<title>Node0&#45;&gt;Node4</title>
<path fill="none" stroke="#191970" d="M435.738,-257.389C418.8567,-232.5307 385.3005,-183.1184 367.2196,-156.4937"/>
<polygon fill="#191970" stroke="#191970" points="370.0358,-154.4106 361.5222,-148.1042 364.2449,-158.3432 370.0358,-154.4106"/>
</g>
<!-- Node5 -->
<g id="node6" class="node">
<title>Node5</title>
<polygon fill="#ffffff" stroke="#bfbfbf" points="466,-62 466,-81 524,-81 524,-62 466,-62"/>
<text text-anchor="middle" x="495" y="-69" font-family="Helvetica,sans-Serif" font-size="10.00" fill="#000000">memory</text>
</g>
<!-- Node0&#45;&gt;Node5 -->
<g id="edge5" class="edge">
<title>Node0&#45;&gt;Node5</title>
<path fill="none" stroke="#191970" d="M446.9672,-257.3111C449.0327,-229.9113 454.9753,-170.6322 470,-123 473.5948,-111.6037 479.3275,-99.5521 484.397,-89.9747"/>
<polygon fill="#191970" stroke="#191970" points="487.5692,-91.4695 489.3224,-81.0207 481.4359,-88.0957 487.5692,-91.4695"/>
</g>
<!-- Node6 -->
<g id="node7" class="node">
<title>Node6</title>
<polygon fill="#ffffff" stroke="#bfbfbf" points="753.5,-196 753.5,-215 818.5,-215 818.5,-196 753.5,-196"/>
<text text-anchor="middle" x="786" y="-203" font-family="Helvetica,sans-Serif" font-size="10.00" fill="#000000">stdexcept</text>
</g>
<!-- Node0&#45;&gt;Node6 -->
<g id="edge6" class="edge">
<title>Node0&#45;&gt;Node6</title>
<path fill="none" stroke="#191970" d="M518.5594,-262.7303C578.23,-253.9844 664.7423,-239.6666 739,-221 742.4373,-220.136 745.9871,-219.1479 749.524,-218.0983"/>
<polygon fill="#191970" stroke="#191970" points="750.8512,-221.3506 759.3533,-215.0289 748.7646,-214.6688 750.8512,-221.3506"/>
</g>
<!-- Node7 -->
<g id="node8" class="node">
<title>Node7</title>
<polygon fill="#ffffff" stroke="#bfbfbf" points="512.5,-129 512.5,-148 557.5,-148 557.5,-129 512.5,-129"/>
<text text-anchor="middle" x="535" y="-136" font-family="Helvetica,sans-Serif" font-size="10.00" fill="#000000">utility</text>
</g>
<!-- Node0&#45;&gt;Node7 -->
<g id="edge7" class="edge">
<title>Node0&#45;&gt;Node7</title>
<path fill="none" stroke="#191970" d="M464.5541,-257.2207C475.3305,-247.6457 488.5929,-234.5773 498,-221 511.7702,-201.1253 522.3646,-175.3002 528.6198,-157.8804"/>
<polygon fill="#191970" stroke="#191970" points="531.99,-158.8433 531.9434,-148.2486 525.3729,-156.5599 531.99,-158.8433"/>
</g>
<!-- Node8 -->
<g id="node9" class="node">
<title>Node8</title>
<polygon fill="#ffffff" stroke="#bfbfbf" points="542.5,-62 542.5,-81 619.5,-81 619.5,-62 542.5,-62"/>
<text text-anchor="middle" x="581" y="-69" font-family="Helvetica,sans-Serif" font-size="10.00" fill="#000000">Eigen/Dense</text>
</g>
<!-- Node0&#45;&gt;Node8 -->
<g id="edge8" class="edge">
<title>Node0&#45;&gt;Node8</title>
<path fill="none" stroke="#191970" d="M452.3898,-257.2325C456.6258,-247.0143 462.2561,-233.245 467,-221 483.7628,-177.7323 474.1983,-159.3806 503,-123 515.5455,-107.1533 534.3475,-94.5355 550.3482,-85.7559"/>
<polygon fill="#191970" stroke="#191970" points="552.1372,-88.7702 559.377,-81.0348 548.8935,-82.567 552.1372,-88.7702"/>
</g>
<!-- Node9 -->
<g id="node10" class="node">
<title>Node9</title>
<g id="a_node10"><a xlink:href="drake__throw_8h.html" target="_top" xlink:title="Provides a convenient wrapper to throw an exception when a condition is unmet. ">
<polygon fill="#ffffff" stroke="#000000" points="910.5,-123.5 910.5,-153.5 1031.5,-153.5 1031.5,-123.5 910.5,-123.5"/>
<text text-anchor="start" x="918.5" y="-141.5" font-family="Helvetica,sans-Serif" font-size="10.00" fill="#000000">drake/common/drake</text>
<text text-anchor="middle" x="971" y="-130.5" font-family="Helvetica,sans-Serif" font-size="10.00" fill="#000000">_throw.h</text>
</a>
</g>
</g>
<!-- Node0&#45;&gt;Node9 -->
<g id="edge9" class="edge">
<title>Node0&#45;&gt;Node9</title>
<path fill="none" stroke="#191970" d="M518.6316,-267.3834C572.4159,-261.4298 646.3905,-248.5966 706,-221 726.0933,-211.6977 725.0414,-199.5877 745,-190 748.6174,-188.2623 835.5208,-168.6843 900.4844,-154.1799"/>
<polygon fill="#191970" stroke="#191970" points="901.3037,-157.5833 910.3014,-151.9894 899.7792,-150.7513 901.3037,-157.5833"/>
</g>
<!-- Node12 -->
<g id="node13" class="node">
<title>Node12</title>
<g id="a_node13"><a xlink:href="dummy__value_8h.html" target="_top" xlink:title="drake/common/dummy\l_value.h">
<polygon fill="#ffffff" stroke="#000000" points="248.5,-190.5 248.5,-220.5 379.5,-220.5 379.5,-190.5 248.5,-190.5"/>
<text text-anchor="start" x="256.5" y="-208.5" font-family="Helvetica,sans-Serif" font-size="10.00" fill="#000000">drake/common/dummy</text>
<text text-anchor="middle" x="314" y="-197.5" font-family="Helvetica,sans-Serif" font-size="10.00" fill="#000000">_value.h</text>
</a>
</g>
</g>
<!-- Node0&#45;&gt;Node12 -->
<g id="edge13" class="edge">
<title>Node0&#45;&gt;Node12</title>
<path fill="none" stroke="#191970" d="M416.3766,-257.4639C397.6564,-247.9619 373.2579,-235.5779 352.9754,-225.283"/>
<polygon fill="#191970" stroke="#191970" points="354.4825,-222.1229 343.9812,-220.7177 351.3142,-228.3649 354.4825,-222.1229"/>
</g>
<!-- Node13 -->
<g id="node14" class="node">
<title>Node13</title>
<g id="a_node14"><a xlink:href="vector__base_8h.html" target="_top" xlink:title="drake/systems/framework\l/vector_base.h">
<polygon fill="#ffffff" stroke="#000000" points="551.5,-190.5 551.5,-220.5 696.5,-220.5 696.5,-190.5 551.5,-190.5"/>
<text text-anchor="start" x="559.5" y="-208.5" font-family="Helvetica,sans-Serif" font-size="10.00" fill="#000000">drake/systems/framework</text>
<text text-anchor="middle" x="624" y="-197.5" font-family="Helvetica,sans-Serif" font-size="10.00" fill="#000000">/vector_base.h</text>
</a>
</g>
</g>
<!-- Node0&#45;&gt;Node13 -->
<g id="edge15" class="edge">
<title>Node0&#45;&gt;Node13</title>
<path fill="none" stroke="#191970" d="M485.9467,-257.4639C512.0783,-247.6278 546.4149,-234.7034 574.3064,-224.2049"/>
<polygon fill="#191970" stroke="#191970" points="575.7531,-227.4001 583.8791,-220.6017 573.2871,-220.8489 575.7531,-227.4001"/>
</g>
<!-- Node10 -->
<g id="node11" class="node">
<title>Node10</title>
<polygon fill="#ffffff" stroke="#bfbfbf" points="971.5,-.5 971.5,-19.5 1040.5,-19.5 1040.5,-.5 971.5,-.5"/>
<text text-anchor="middle" x="1006" y="-7.5" font-family="Helvetica,sans-Serif" font-size="10.00" fill="#000000">type_traits</text>
</g>
<!-- Node9&#45;&gt;Node10 -->
<g id="edge10" class="edge">
<title>Node9&#45;&gt;Node10</title>
<path fill="none" stroke="#191970" d="M971.4528,-123.2536C972.3126,-106.4313 974.8013,-78.7292 982,-56 985.0104,-46.4949 989.9043,-36.6098 994.4901,-28.4502"/>
<polygon fill="#191970" stroke="#191970" points="997.5325,-30.1813 999.6007,-19.7903 991.504,-26.6236 997.5325,-30.1813"/>
</g>
<!-- Node11 -->
<g id="node12" class="node">
<title>Node11</title>
<g id="a_node12"><a xlink:href="drake__assert_8h.html" target="_top" xlink:title="Provides Drake&#39;s assertion implementation. ">
<polygon fill="#ffffff" stroke="#000000" points="990.5,-56.5 990.5,-86.5 1111.5,-86.5 1111.5,-56.5 990.5,-56.5"/>
<text text-anchor="start" x="998.5" y="-74.5" font-family="Helvetica,sans-Serif" font-size="10.00" fill="#000000">drake/common/drake</text>
<text text-anchor="middle" x="1051" y="-63.5" font-family="Helvetica,sans-Serif" font-size="10.00" fill="#000000">_assert.h</text>
</a>
</g>
</g>
<!-- Node9&#45;&gt;Node11 -->
<g id="edge11" class="edge">
<title>Node9&#45;&gt;Node11</title>
<path fill="none" stroke="#191970" d="M989.1532,-123.2967C999.7909,-114.3876 1013.4022,-102.9882 1025.146,-93.1527"/>
<polygon fill="#191970" stroke="#191970" points="1027.4993,-95.7472 1032.9186,-86.6432 1023.0048,-90.3806 1027.4993,-95.7472"/>
</g>
<!-- Node11&#45;&gt;Node10 -->
<g id="edge12" class="edge">
<title>Node11&#45;&gt;Node10</title>
<path fill="none" stroke="#191970" d="M1039.8764,-56.2977C1033.6299,-47.7609 1025.796,-37.0545 1019.2353,-28.0883"/>
<polygon fill="#191970" stroke="#191970" points="1021.9348,-25.8505 1013.2051,-19.8469 1016.2856,-29.984 1021.9348,-25.8505"/>
</g>
<!-- Node12&#45;&gt;Node4 -->
<g id="edge14" class="edge">
<title>Node12&#45;&gt;Node4</title>
<path fill="none" stroke="#191970" d="M323.3035,-190.2967C329.3814,-180.3645 337.3534,-167.3371 343.7819,-156.8321"/>
<polygon fill="#191970" stroke="#191970" points="346.9186,-158.4115 349.1529,-148.055 340.9478,-154.7578 346.9186,-158.4115"/>
</g>
<!-- Node13&#45;&gt;Node5 -->
<g id="edge17" class="edge">
<title>Node13&#45;&gt;Node5</title>
<path fill="none" stroke="#191970" d="M615.4696,-190.3838C605.1716,-172.9342 586.6445,-143.9519 566,-123 552.1043,-108.8974 534.0097,-95.8358 519.5654,-86.3954"/>
<polygon fill="#191970" stroke="#191970" points="521.4277,-83.4318 511.1137,-81.0084 517.6652,-89.3347 521.4277,-83.4318"/>
</g>
<!-- Node13&#45;&gt;Node7 -->
<g id="edge18" class="edge">
<title>Node13&#45;&gt;Node7</title>
<path fill="none" stroke="#191970" d="M603.8045,-190.2967C589.534,-179.5537 570.4532,-165.1895 556.0052,-154.3129"/>
<polygon fill="#191970" stroke="#191970" points="557.7867,-151.2731 547.6924,-148.055 553.5766,-156.8656 557.7867,-151.2731"/>
</g>
<!-- Node13&#45;&gt;Node8 -->
<g id="edge19" class="edge">
<title>Node13&#45;&gt;Node8</title>
<path fill="none" stroke="#191970" d="M619.9778,-190.499C615.4456,-173.8914 607.7018,-146.3764 600,-123 596.4522,-112.2316 592.0985,-100.3496 588.4542,-90.7146"/>
<polygon fill="#191970" stroke="#191970" points="591.6941,-89.3879 584.8498,-81.3005 585.1568,-91.8909 591.6941,-89.3879"/>
</g>
<!-- Node13&#45;&gt;Node9 -->
<g id="edge21" class="edge">
<title>Node13&#45;&gt;Node9</title>
<path fill="none" stroke="#191970" d="M696.757,-192.2633C760.7191,-180.5774 850.0573,-164.1235 900.2316,-154.105"/>
<polygon fill="#191970" stroke="#191970" points="901.2106,-157.4781 910.3206,-152.0689 899.8258,-150.6164 901.2106,-157.4781"/>
</g>
<!-- Node14 -->
<g id="node15" class="node">
<title>Node14</title>
<polygon fill="#ffffff" stroke="#bfbfbf" points="828,-129 828,-148 892,-148 892,-129 828,-129"/>
<text text-anchor="middle" x="860" y="-136" font-family="Helvetica,sans-Serif" font-size="10.00" fill="#000000">algorithm</text>
</g>
<!-- Node13&#45;&gt;Node14 -->
<g id="edge16" class="edge">
<title>Node13&#45;&gt;Node14</title>
<path fill="none" stroke="#191970" d="M683.3153,-190.4059C720.9225,-180.5935 770.507,-167.2089 814,-154 816.7971,-153.1505 819.6807,-152.2467 822.5761,-151.3188"/>
<polygon fill="#191970" stroke="#191970" points="823.9427,-154.5542 832.3566,-148.1155 821.764,-147.9019 823.9427,-154.5542"/>
</g>
<!-- Node15 -->
<g id="node16" class="node">
<title>Node15</title>
<g id="a_node16"><a xlink:href="drake__copyable_8h.html" target="_top" xlink:title="Provides careful macros to selectively enable or disable the special member functions for copy&#45;constr...">
<polygon fill="#ffffff" stroke="#000000" points="804.5,-56.5 804.5,-86.5 925.5,-86.5 925.5,-56.5 804.5,-56.5"/>
<text text-anchor="start" x="812.5" y="-74.5" font-family="Helvetica,sans-Serif" font-size="10.00" fill="#000000">drake/common/drake</text>
<text text-anchor="middle" x="865" y="-63.5" font-family="Helvetica,sans-Serif" font-size="10.00" fill="#000000">_copyable.h</text>
</a>
</g>
</g>
<!-- Node13&#45;&gt;Node15 -->
<g id="edge20" class="edge">
<title>Node13&#45;&gt;Node15</title>
<path fill="none" stroke="#191970" d="M692.257,-190.4712C720.9685,-182.3263 753.9218,-170.4782 781,-154 794.9188,-145.5298 824.0777,-115.615 844.0977,-94.2493"/>
<polygon fill="#191970" stroke="#191970" points="846.7621,-96.5239 851.0148,-86.8201 841.6389,-91.7539 846.7621,-96.5239"/>
</g>
<!-- Node16 -->
<g id="node17" class="node">
<title>Node16</title>
<g id="a_node17"><a xlink:href="eigen__types_8h.html" target="_top" xlink:title="This file contains abbreviated definitions for certain specializations of Eigen::Matrix that are comm...">
<polygon fill="#ffffff" stroke="#000000" points="652,-123.5 652,-153.5 772,-153.5 772,-123.5 652,-123.5"/>
<text text-anchor="start" x="660" y="-141.5" font-family="Helvetica,sans-Serif" font-size="10.00" fill="#000000">drake/common/eigen</text>
<text text-anchor="middle" x="712" y="-130.5" font-family="Helvetica,sans-Serif" font-size="10.00" fill="#000000">_types.h</text>
</a>
</g>
</g>
<!-- Node13&#45;&gt;Node16 -->
<g id="edge22" class="edge">
<title>Node13&#45;&gt;Node16</title>
<path fill="none" stroke="#191970" d="M643.9686,-190.2967C655.7825,-181.302 670.9306,-169.7687 683.9327,-159.8694"/>
<polygon fill="#191970" stroke="#191970" points="686.2743,-162.4857 692.1105,-153.6432 682.0338,-156.9162 686.2743,-162.4857"/>
</g>
<!-- Node16&#45;&gt;Node5 -->
<g id="edge23" class="edge">
<title>Node16&#45;&gt;Node5</title>
<path fill="none" stroke="#191970" d="M653.8688,-123.4705C618.6081,-113.9358 572.8717,-100.8229 533,-87 531.0814,-86.3349 529.1191,-85.6257 527.1464,-84.8906"/>
<polygon fill="#191970" stroke="#191970" points="527.9417,-81.4446 517.353,-81.0822 525.4046,-87.9686 527.9417,-81.4446"/>
</g>
<!-- Node16&#45;&gt;Node8 -->
<g id="edge24" class="edge">
<title>Node16&#45;&gt;Node8</title>
<path fill="none" stroke="#191970" d="M682.601,-123.4639C660.5219,-112.1715 630.4839,-96.8086 608.8017,-85.7192"/>
<polygon fill="#191970" stroke="#191970" points="610.2747,-82.5414 599.7778,-81.1039 607.0872,-88.7736 610.2747,-82.5414"/>
</g>
<!-- Node16&#45;&gt;Node15 -->
<g id="edge26" class="edge">
<title>Node16&#45;&gt;Node15</title>
<path fill="none" stroke="#191970" d="M746.3362,-123.4639C768.5034,-113.7567 797.5396,-101.0415 821.3408,-90.6188"/>
<polygon fill="#191970" stroke="#191970" points="822.7578,-93.8191 830.5141,-86.6017 819.9499,-87.407 822.7578,-93.8191"/>
</g>
<!-- Node17 -->
<g id="node18" class="node">
<title>Node17</title>
<g id="a_node18"><a xlink:href="constants_8h.html" target="_top" xlink:title="drake/common/constants.h">
<polygon fill="#ffffff" stroke="#000000" points="637.5,-62 637.5,-81 786.5,-81 786.5,-62 637.5,-62"/>
<text text-anchor="middle" x="712" y="-69" font-family="Helvetica,sans-Serif" font-size="10.00" fill="#000000">drake/common/constants.h</text>
</a>
</g>
</g>
<!-- Node16&#45;&gt;Node17 -->
<g id="edge25" class="edge">
<title>Node16&#45;&gt;Node17</title>
<path fill="none" stroke="#191970" d="M712,-123.2967C712,-113.7699 712,-101.3954 712,-91.1306"/>
<polygon fill="#191970" stroke="#191970" points="715.5001,-91.0549 712,-81.055 708.5001,-91.055 715.5001,-91.0549"/>
</g>
</g>
</svg>
