<?xml version="1.0" encoding="UTF-8" standalone="no"?>
<!DOCTYPE svg PUBLIC "-//W3C//DTD SVG 1.1//EN"
 "http://www.w3.org/Graphics/SVG/1.1/DTD/svg11.dtd">
<!-- Generated by graphviz version 2.40.1 (20161225.0304)
 -->
<!-- Title: drake/systems/framework/cache_entry.cc Pages: 1 -->
<svg width="3203pt" height="642pt"
 viewBox="0.00 0.00 3202.70 642.00" xmlns="http://www.w3.org/2000/svg" xmlns:xlink="http://www.w3.org/1999/xlink">
<g id="graph0" class="graph" transform="scale(1 1) rotate(0) translate(4 638)">
<title>drake/systems/framework/cache_entry.cc</title>
<polygon fill="#ffffff" stroke="transparent" points="-4,4 -4,-638 3198.7008,-638 3198.7008,4 -4,4"/>
<!-- Node0 -->
<g id="node1" class="node">
<title>Node0</title>
<polygon fill="#bfbfbf" stroke="#000000" points="2274.5,-603.5 2274.5,-633.5 2419.5,-633.5 2419.5,-603.5 2274.5,-603.5"/>
<text text-anchor="start" x="2282.5" y="-621.5" font-family="Helvetica,sans-Serif" font-size="10.00" fill="#000000">drake/systems/framework</text>
<text text-anchor="middle" x="2347" y="-610.5" font-family="Helvetica,sans-Serif" font-size="10.00" fill="#000000">/cache_entry.cc</text>
</g>
<!-- Node1 -->
<g id="node2" class="node">
<title>Node1</title>
<g id="a_node2"><a xlink:href="cache__entry_8h.html" target="_top" xlink:title="drake/systems/framework\l/cache_entry.h">
<polygon fill="#ffffff" stroke="#000000" points="1417.5,-536.5 1417.5,-566.5 1562.5,-566.5 1562.5,-536.5 1417.5,-536.5"/>
<text text-anchor="start" x="1425.5" y="-554.5" font-family="Helvetica,sans-Serif" font-size="10.00" fill="#000000">drake/systems/framework</text>
<text text-anchor="middle" x="1490" y="-543.5" font-family="Helvetica,sans-Serif" font-size="10.00" fill="#000000">/cache_entry.h</text>
</a>
</g>
</g>
<!-- Node0&#45;&gt;Node1 -->
<g id="edge1" class="edge">
<title>Node0&#45;&gt;Node1</title>
<path fill="none" stroke="#191970" d="M2274.3024,-612.8165C2115.7761,-600.423 1739.8399,-571.0324 1572.6418,-557.9609"/>
<polygon fill="#191970" stroke="#191970" points="1572.9024,-554.4707 1562.66,-557.1805 1572.3567,-561.4494 1572.9024,-554.4707"/>
</g>
<!-- Node3 -->
<g id="node4" class="node">
<title>Node3</title>
<polygon fill="#ffffff" stroke="#bfbfbf" points="1954,-73 1954,-92 2012,-92 2012,-73 1954,-73"/>
<text text-anchor="middle" x="1983" y="-80" font-family="Helvetica,sans-Serif" font-size="10.00" fill="#000000">memory</text>
</g>
<!-- Node0&#45;&gt;Node3 -->
<g id="edge134" class="edge">
<title>Node0&#45;&gt;Node3</title>
<path fill="none" stroke="#191970" d="M2419.8273,-609.8676C2537.645,-593.8494 2757,-554.6118 2757,-484.5 2757,-484.5 2757,-484.5 2757,-283.5 2757,-238.9329 2737.5404,-225.0196 2700,-201 2621.3419,-150.672 2576.5422,-206.7217 2493,-165 2474.9971,-156.0092 2478.3366,-142.289 2460,-134 2383.111,-99.2425 2165.7204,-108.5308 2082,-98 2062.2849,-95.5201 2040.4548,-92.1676 2022.3216,-89.2148"/>
<polygon fill="#191970" stroke="#191970" points="2022.8274,-85.751 2012.3913,-87.578 2021.6889,-92.6578 2022.8274,-85.751"/>
</g>
<!-- Node20 -->
<g id="node21" class="node">
<title>Node20</title>
<g id="a_node21"><a xlink:href="drake__assert_8h.html" target="_top" xlink:title="Provides Drake&#39;s assertion implementation. ">
<polygon fill="#ffffff" stroke="#000000" points="2090.5,-67.5 2090.5,-97.5 2211.5,-97.5 2211.5,-67.5 2090.5,-67.5"/>
<text text-anchor="start" x="2098.5" y="-85.5" font-family="Helvetica,sans-Serif" font-size="10.00" fill="#000000">drake/common/drake</text>
<text text-anchor="middle" x="2151" y="-74.5" font-family="Helvetica,sans-Serif" font-size="10.00" fill="#000000">_assert.h</text>
</a>
</g>
</g>
<!-- Node0&#45;&gt;Node20 -->
<g id="edge136" class="edge">
<title>Node0&#45;&gt;Node20</title>
<path fill="none" stroke="#191970" d="M2419.696,-613.2229C2533.1558,-604.4592 2742.3806,-585.9811 2771,-567 2924.0824,-465.4716 3070.8423,-349.7019 2963,-201 2955.9657,-191.3005 2769.7423,-136.3835 2758,-134 2657.1364,-113.5263 2358.7868,-94.4161 2221.5374,-86.4302"/>
<polygon fill="#191970" stroke="#191970" points="2221.7272,-82.9354 2211.5417,-85.8517 2221.3227,-89.9237 2221.7272,-82.9354"/>
</g>
<!-- Node31 -->
<g id="node32" class="node">
<title>Node31</title>
<g id="a_node32"><a xlink:href="nice__type__name_8h.html" target="_top" xlink:title="drake/common/nice_type\l_name.h">
<polygon fill="#ffffff" stroke="#000000" points="720,-134.5 720,-164.5 860,-164.5 860,-134.5 720,-134.5"/>
<text text-anchor="start" x="728" y="-152.5" font-family="Helvetica,sans-Serif" font-size="10.00" fill="#000000">drake/common/nice_type</text>
<text text-anchor="middle" x="790" y="-141.5" font-family="Helvetica,sans-Serif" font-size="10.00" fill="#000000">_name.h</text>
</a>
</g>
</g>
<!-- Node0&#45;&gt;Node31 -->
<g id="edge137" class="edge">
<title>Node0&#45;&gt;Node31</title>
<path fill="none" stroke="#191970" d="M2274.2895,-618.0262C1890.1031,-615.0572 114,-595.3374 114,-484.5 114,-484.5 114,-484.5 114,-417.5 114,-339.9444 140.6196,-312.6966 204,-268 284.6328,-211.1368 568.6947,-173.3766 709.5634,-157.7072"/>
<polygon fill="#191970" stroke="#191970" points="710.308,-161.1464 719.8646,-156.5724 709.5415,-154.1885 710.308,-161.1464"/>
</g>
<!-- Node32 -->
<g id="node33" class="node">
<title>Node32</title>
<polygon fill="#ffffff" stroke="#bfbfbf" points="625.5,-73 625.5,-92 682.5,-92 682.5,-73 625.5,-73"/>
<text text-anchor="middle" x="654" y="-80" font-family="Helvetica,sans-Serif" font-size="10.00" fill="#000000">typeinfo</text>
</g>
<!-- Node0&#45;&gt;Node32 -->
<g id="edge135" class="edge">
<title>Node0&#45;&gt;Node32</title>
<path fill="none" stroke="#191970" d="M2274.4212,-617.7036C1933.5621,-613.8245 499.9476,-595.9113 302,-567 164.3204,-546.8912 0,-623.6404 0,-484.5 0,-484.5 0,-484.5 0,-283.5 0,-153.9855 474.5534,-99.2711 615.1812,-85.9005"/>
<polygon fill="#191970" stroke="#191970" points="615.8466,-89.3537 625.4779,-84.9391 615.1958,-82.384 615.8466,-89.3537"/>
</g>
<!-- Node47 -->
<g id="node48" class="node">
<title>Node47</title>
<polygon fill="#ffffff" stroke="#bfbfbf" points="3051.5,-542 3051.5,-561 3116.5,-561 3116.5,-542 3051.5,-542"/>
<text text-anchor="middle" x="3084" y="-549" font-family="Helvetica,sans-Serif" font-size="10.00" fill="#000000">exception</text>
</g>
<!-- Node0&#45;&gt;Node47 -->
<g id="edge133" class="edge">
<title>Node0&#45;&gt;Node47</title>
<path fill="none" stroke="#191970" d="M2419.5331,-615.3299C2571.8287,-608.307 2920.4392,-590.207 3037,-567 3040.9631,-566.2109 3045.0564,-565.1887 3049.0982,-564.0455"/>
<polygon fill="#191970" stroke="#191970" points="3050.4073,-567.3047 3058.9359,-561.0188 3048.3488,-560.6142 3050.4073,-567.3047"/>
</g>
<!-- Node2 -->
<g id="node3" class="node">
<title>Node2</title>
<polygon fill="#ffffff" stroke="#bfbfbf" points="2198.5,-140 2198.5,-159 2263.5,-159 2263.5,-140 2198.5,-140"/>
<text text-anchor="middle" x="2231" y="-147" font-family="Helvetica,sans-Serif" font-size="10.00" fill="#000000">functional</text>
</g>
<!-- Node1&#45;&gt;Node2 -->
<g id="edge2" class="edge">
<title>Node1&#45;&gt;Node2</title>
<path fill="none" stroke="#191970" d="M1562.6284,-546.735C1757.457,-532.9876 2277,-489.5711 2277,-417.5 2277,-417.5 2277,-417.5 2277,-283.5 2277,-240.289 2255.3369,-193.2794 2241.7432,-168.0344"/>
<polygon fill="#191970" stroke="#191970" points="2244.7447,-166.2302 2236.8259,-159.1914 2238.6269,-169.6321 2244.7447,-166.2302"/>
</g>
<!-- Node1&#45;&gt;Node3 -->
<g id="edge3" class="edge">
<title>Node1&#45;&gt;Node3</title>
<path fill="none" stroke="#191970" d="M1562.6289,-548.1422C1703.9159,-541.1763 2010.931,-523.796 2114,-500 2208.0904,-478.2769 2315,-514.0655 2315,-417.5 2315,-417.5 2315,-417.5 2315,-283.5 2315,-214.4833 2324.1368,-180.3501 2273,-134 2268.3486,-129.784 2100.0948,-101.7168 2022.0437,-88.883"/>
<polygon fill="#191970" stroke="#191970" points="2022.5342,-85.4167 2012.0992,-87.25 2021.3999,-92.3242 2022.5342,-85.4167"/>
</g>
<!-- Node4 -->
<g id="node5" class="node">
<title>Node4</title>
<polygon fill="#ffffff" stroke="#bfbfbf" points="446,-274 446,-293 478,-293 478,-274 446,-274"/>
<text text-anchor="middle" x="462" y="-281" font-family="Helvetica,sans-Serif" font-size="10.00" fill="#000000">set</text>
</g>
<!-- Node1&#45;&gt;Node4 -->
<g id="edge4" class="edge">
<title>Node1&#45;&gt;Node4</title>
<path fill="none" stroke="#191970" d="M1417.3784,-546.7698C1296.8928,-538.4856 1060.9248,-520.2911 980,-500 781.8482,-450.3155 560.9458,-336.8684 487.3636,-297.3677"/>
<polygon fill="#191970" stroke="#191970" points="488.8212,-294.1772 478.3588,-292.5069 485.496,-300.337 488.8212,-294.1772"/>
</g>
<!-- Node5 -->
<g id="node6" class="node">
<title>Node5</title>
<polygon fill="#ffffff" stroke="#bfbfbf" points="257,-73 257,-92 301,-92 301,-73 257,-73"/>
<text text-anchor="middle" x="279" y="-80" font-family="Helvetica,sans-Serif" font-size="10.00" fill="#000000">string</text>
</g>
<!-- Node1&#45;&gt;Node5 -->
<g id="edge5" class="edge">
<title>Node1&#45;&gt;Node5</title>
<path fill="none" stroke="#191970" d="M1417.4483,-550.4283C1207.1121,-546.946 599.5889,-534.1345 404,-500 304.1476,-482.5736 252.1009,-509.843 186,-433 98.5106,-331.2926 221.119,-156.0421 264.6693,-100.1615"/>
<polygon fill="#191970" stroke="#191970" points="267.472,-102.2601 270.9358,-92.2475 261.984,-97.9146 267.472,-102.2601"/>
</g>
<!-- Node6 -->
<g id="node7" class="node">
<title>Node6</title>
<polygon fill="#ffffff" stroke="#bfbfbf" points="597.5,-6 597.5,-25 642.5,-25 642.5,-6 597.5,-6"/>
<text text-anchor="middle" x="620" y="-13" font-family="Helvetica,sans-Serif" font-size="10.00" fill="#000000">utility</text>
</g>
<!-- Node1&#45;&gt;Node6 -->
<g id="edge6" class="edge">
<title>Node1&#45;&gt;Node6</title>
<path fill="none" stroke="#191970" d="M1417.1022,-550.1407C1164.9775,-545.2182 339.0154,-527.1705 223,-500 135.3444,-479.4713 38,-507.5274 38,-417.5 38,-417.5 38,-417.5 38,-283.5 38,-163.3221 96.0197,-127.2563 200,-67 265.8979,-28.8124 500.5851,-18.6998 587.402,-16.2354"/>
<polygon fill="#191970" stroke="#191970" points="587.5679,-19.7323 597.4704,-15.9655 587.3802,-12.7348 587.5679,-19.7323"/>
</g>
<!-- Node7 -->
<g id="node8" class="node">
<title>Node7</title>
<g id="a_node8"><a xlink:href="drake__copyable_8h.html" target="_top" xlink:title="Provides careful macros to selectively enable or disable the special member functions for copy&#45;constr...">
<polygon fill="#ffffff" stroke="#000000" points="2754.5,-.5 2754.5,-30.5 2875.5,-30.5 2875.5,-.5 2754.5,-.5"/>
<text text-anchor="start" x="2762.5" y="-18.5" font-family="Helvetica,sans-Serif" font-size="10.00" fill="#000000">drake/common/drake</text>
<text text-anchor="middle" x="2815" y="-7.5" font-family="Helvetica,sans-Serif" font-size="10.00" fill="#000000">_copyable.h</text>
</a>
</g>
</g>
<!-- Node1&#45;&gt;Node7 -->
<g id="edge7" class="edge">
<title>Node1&#45;&gt;Node7</title>
<path fill="none" stroke="#191970" d="M1562.7968,-548.0239C1721.2808,-540.1832 2093.3206,-520.2228 2218,-500 2624.091,-434.1327 2793.3547,-501.7181 3104,-232 3164.2827,-179.6595 3227.3018,-127.3163 3175,-67 3156.3301,-45.4692 2984.9284,-28.6921 2885.516,-20.6729"/>
<polygon fill="#191970" stroke="#191970" points="2885.7838,-17.1832 2875.5373,-19.8778 2885.2277,-24.1611 2885.7838,-17.1832"/>
</g>
<!-- Node8 -->
<g id="node9" class="node">
<title>Node8</title>
<g id="a_node9"><a xlink:href="context__base_8h.html" target="_top" xlink:title="drake/systems/framework\l/context_base.h">
<polygon fill="#ffffff" stroke="#000000" points="988.5,-469.5 988.5,-499.5 1133.5,-499.5 1133.5,-469.5 988.5,-469.5"/>
<text text-anchor="start" x="996.5" y="-487.5" font-family="Helvetica,sans-Serif" font-size="10.00" fill="#000000">drake/systems/framework</text>
<text text-anchor="middle" x="1061" y="-476.5" font-family="Helvetica,sans-Serif" font-size="10.00" fill="#000000">/context_base.h</text>
</a>
</g>
</g>
<!-- Node1&#45;&gt;Node8 -->
<g id="edge8" class="edge">
<title>Node1&#45;&gt;Node8</title>
<path fill="none" stroke="#191970" d="M1417.226,-540.1344C1341.4592,-528.3013 1222.9906,-509.7992 1143.7216,-497.4192"/>
<polygon fill="#191970" stroke="#191970" points="1144.1924,-493.9504 1133.7721,-495.8653 1143.1122,-500.8666 1144.1924,-493.9504"/>
</g>
<!-- Node23 -->
<g id="node24" class="node">
<title>Node23</title>
<g id="a_node24"><a xlink:href="framework__common_8h.html" target="_top" xlink:title="drake/systems/framework\l/framework_common.h">
<polygon fill="#ffffff" stroke="#000000" points="1512.5,-268.5 1512.5,-298.5 1657.5,-298.5 1657.5,-268.5 1512.5,-268.5"/>
<text text-anchor="start" x="1520.5" y="-286.5" font-family="Helvetica,sans-Serif" font-size="10.00" fill="#000000">drake/systems/framework</text>
<text text-anchor="middle" x="1585" y="-275.5" font-family="Helvetica,sans-Serif" font-size="10.00" fill="#000000">/framework_common.h</text>
</a>
</g>
</g>
<!-- Node1&#45;&gt;Node23 -->
<g id="edge131" class="edge">
<title>Node1&#45;&gt;Node23</title>
<path fill="none" stroke="#191970" d="M1495.3798,-536.3233C1511.0884,-492.0084 1556.9961,-362.5005 1576.2947,-308.0582"/>
<polygon fill="#191970" stroke="#191970" points="1579.6369,-309.105 1579.6792,-298.5103 1573.0392,-306.7662 1579.6369,-309.105"/>
</g>
<!-- Node33 -->
<g id="node34" class="node">
<title>Node33</title>
<g id="a_node34"><a xlink:href="value_8h.html" target="_top" xlink:title="drake/systems/framework\l/value.h">
<polygon fill="#ffffff" stroke="#000000" points="717.5,-201.5 717.5,-231.5 862.5,-231.5 862.5,-201.5 717.5,-201.5"/>
<text text-anchor="start" x="725.5" y="-219.5" font-family="Helvetica,sans-Serif" font-size="10.00" fill="#000000">drake/systems/framework</text>
<text text-anchor="middle" x="790" y="-208.5" font-family="Helvetica,sans-Serif" font-size="10.00" fill="#000000">/value.h</text>
</a>
</g>
</g>
<!-- Node1&#45;&gt;Node33 -->
<g id="edge132" class="edge">
<title>Node1&#45;&gt;Node33</title>
<path fill="none" stroke="#191970" d="M1417.3208,-547.8528C1143.5481,-533.6419 190,-479.6821 190,-417.5 190,-417.5 190,-417.5 190,-350.5 190,-238.9672 318.6101,-294.2903 427,-268 521.6749,-245.0363 632.8938,-231.1228 707.0349,-223.6461"/>
<polygon fill="#191970" stroke="#191970" points="707.6391,-227.1034 717.2448,-222.6335 706.9482,-220.1376 707.6391,-227.1034"/>
</g>
<!-- Node8&#45;&gt;Node2 -->
<g id="edge11" class="edge">
<title>Node8&#45;&gt;Node2</title>
<path fill="none" stroke="#191970" d="M1133.6979,-482.7912C1349.1794,-477.443 1974.9311,-459.7694 2063,-433 2131.3692,-412.2185 2201,-421.9578 2201,-350.5 2201,-350.5 2201,-350.5 2201,-283.5 2201,-241.7804 2215.019,-194.481 2223.8904,-168.7261"/>
<polygon fill="#191970" stroke="#191970" points="2227.2655,-169.6811 2227.3214,-159.0864 2220.6708,-167.3338 2227.2655,-169.6811"/>
</g>
<!-- Node8&#45;&gt;Node3 -->
<g id="edge12" class="edge">
<title>Node8&#45;&gt;Node3</title>
<path fill="none" stroke="#191970" d="M1133.7873,-483.1607C1349.9571,-477.4991 1980.9095,-448.2511 2106,-299 2162.1979,-231.9477 2039.3168,-303.8228 1985,-232 1970.0242,-212.1976 1976.313,-138.511 1980.4487,-102.528"/>
<polygon fill="#191970" stroke="#191970" points="1983.9613,-102.6338 1981.6861,-92.2861 1977.0118,-101.7941 1983.9613,-102.6338"/>
</g>
<!-- Node8&#45;&gt;Node5 -->
<g id="edge13" class="edge">
<title>Node8&#45;&gt;Node5</title>
<path fill="none" stroke="#191970" d="M988.4331,-482.3066C850.5341,-477.4793 555.7627,-463.8188 459,-433 369.9676,-404.6433 336.3824,-383.7342 297,-299 266.0376,-232.3821 271.77,-141.8096 276.2831,-102.2964"/>
<polygon fill="#191970" stroke="#191970" points="279.7828,-102.5161 277.5475,-92.1598 272.8366,-101.6496 279.7828,-102.5161"/>
</g>
<!-- Node8&#45;&gt;Node6 -->
<g id="edge14" class="edge">
<title>Node8&#45;&gt;Node6</title>
<path fill="none" stroke="#191970" d="M988.4331,-482.3066C850.5341,-477.4793 555.7627,-463.8188 459,-433 369.9676,-404.6433 343.5355,-380.0266 297,-299 243.0986,-205.1479 151.5623,-148.3034 223,-67 246.97,-39.7197 496.4188,-22.6568 587.1978,-17.3114"/>
<polygon fill="#191970" stroke="#191970" points="587.675,-20.7898 597.456,-16.7178 587.2705,-13.8015 587.675,-20.7898"/>
</g>
<!-- Node9 -->
<g id="node10" class="node">
<title>Node9</title>
<polygon fill="#ffffff" stroke="#bfbfbf" points="2685,-140 2685,-159 2749,-159 2749,-140 2685,-140"/>
<text text-anchor="middle" x="2717" y="-147" font-family="Helvetica,sans-Serif" font-size="10.00" fill="#000000">algorithm</text>
</g>
<!-- Node8&#45;&gt;Node9 -->
<g id="edge9" class="edge">
<title>Node8&#45;&gt;Node9</title>
<path fill="none" stroke="#191970" d="M1133.9425,-482.7101C1403.1423,-475.528 2340.0453,-445.2691 2627,-366 2772.8604,-325.7072 2856.6735,-358.3149 2940,-232 3009.7061,-126.3323 2919.6469,-207.1465 2763,-165 2759.8262,-164.1461 2756.5519,-163.1926 2753.2812,-162.1897"/>
<polygon fill="#191970" stroke="#191970" points="2754.1758,-158.8012 2743.5848,-159.083 2752.04,-165.4674 2754.1758,-158.8012"/>
</g>
<!-- Node10 -->
<g id="node11" class="node">
<title>Node10</title>
<polygon fill="#ffffff" stroke="#bfbfbf" points="1076,-207 1076,-226 1126,-226 1126,-207 1076,-207"/>
<text text-anchor="middle" x="1101" y="-214" font-family="Helvetica,sans-Serif" font-size="10.00" fill="#000000">cstdint</text>
</g>
<!-- Node8&#45;&gt;Node10 -->
<g id="edge10" class="edge">
<title>Node8&#45;&gt;Node10</title>
<path fill="none" stroke="#191970" d="M1063.2652,-469.3233C1070.0872,-423.6161 1090.4361,-287.2783 1098.0666,-236.1539"/>
<polygon fill="#191970" stroke="#191970" points="1101.5537,-236.4997 1099.5683,-226.0926 1094.6304,-235.4663 1101.5537,-236.4997"/>
</g>
<!-- Node11 -->
<g id="node12" class="node">
<title>Node11</title>
<polygon fill="#ffffff" stroke="#bfbfbf" points="704.5,-73 704.5,-92 751.5,-92 751.5,-73 704.5,-73"/>
<text text-anchor="middle" x="728" y="-80" font-family="Helvetica,sans-Serif" font-size="10.00" fill="#000000">vector</text>
</g>
<!-- Node8&#45;&gt;Node11 -->
<g id="edge15" class="edge">
<title>Node8&#45;&gt;Node11</title>
<path fill="none" stroke="#191970" d="M988.3007,-477.562C817.9747,-460.5547 404.5438,-414.6168 366,-366 293.2356,-274.2194 384.6144,-182.9941 491,-134 573.0359,-96.2197 604.3871,-123.6014 691,-98 693.3105,-97.3171 695.6721,-96.5357 698.029,-95.6949"/>
<polygon fill="#191970" stroke="#191970" points="699.4886,-98.8829 707.5469,-92.0043 696.9579,-92.3563 699.4886,-98.8829"/>
</g>
<!-- Node12 -->
<g id="node13" class="node">
<title>Node12</title>
<g id="a_node13"><a xlink:href="reset__on__copy_8h.html" target="_top" xlink:title="drake/common/reset\l_on_copy.h">
<polygon fill="#ffffff" stroke="#000000" points="856,-268.5 856,-298.5 974,-298.5 974,-268.5 856,-268.5"/>
<text text-anchor="start" x="864" y="-286.5" font-family="Helvetica,sans-Serif" font-size="10.00" fill="#000000">drake/common/reset</text>
<text text-anchor="middle" x="915" y="-275.5" font-family="Helvetica,sans-Serif" font-size="10.00" fill="#000000">_on_copy.h</text>
</a>
</g>
</g>
<!-- Node8&#45;&gt;Node12 -->
<g id="edge16" class="edge">
<title>Node8&#45;&gt;Node12</title>
<path fill="none" stroke="#191970" d="M1055.6906,-469.4782C1049.2876,-452.3704 1037.5498,-423.9503 1023,-402 998.5439,-365.1047 962.7972,-328.3213 939.224,-305.7476"/>
<polygon fill="#191970" stroke="#191970" points="941.3996,-302.9877 931.7302,-298.6573 936.5886,-308.0725 941.3996,-302.9877"/>
</g>
<!-- Node14 -->
<g id="node15" class="node">
<title>Node14</title>
<g id="a_node15"><a xlink:href="unused_8h.html" target="_top" xlink:title="drake/common/unused.h">
<polygon fill="#ffffff" stroke="#000000" points="876.5,-408 876.5,-427 1013.5,-427 1013.5,-408 876.5,-408"/>
<text text-anchor="middle" x="945" y="-415" font-family="Helvetica,sans-Serif" font-size="10.00" fill="#000000">drake/common/unused.h</text>
</a>
</g>
</g>
<!-- Node8&#45;&gt;Node14 -->
<g id="edge19" class="edge">
<title>Node8&#45;&gt;Node14</title>
<path fill="none" stroke="#191970" d="M1034.9673,-469.4639C1015.6794,-458.3234 989.5322,-443.2212 970.3972,-432.1691"/>
<polygon fill="#191970" stroke="#191970" points="972.0376,-429.0747 961.6277,-427.1039 968.5365,-435.1363 972.0376,-429.0747"/>
</g>
<!-- Node15 -->
<g id="node16" class="node">
<title>Node15</title>
<g id="a_node16"><a xlink:href="cache_8h.html" target="_top" xlink:title="Declares CacheEntryValue and Cache, which is the container for cache entry values. ">
<polygon fill="#ffffff" stroke="#000000" points="775.5,-335.5 775.5,-365.5 920.5,-365.5 920.5,-335.5 775.5,-335.5"/>
<text text-anchor="start" x="783.5" y="-353.5" font-family="Helvetica,sans-Serif" font-size="10.00" fill="#000000">drake/systems/framework</text>
<text text-anchor="middle" x="848" y="-342.5" font-family="Helvetica,sans-Serif" font-size="10.00" fill="#000000">/cache.h</text>
</a>
</g>
</g>
<!-- Node8&#45;&gt;Node15 -->
<g id="edge20" class="edge">
<title>Node8&#45;&gt;Node15</title>
<path fill="none" stroke="#191970" d="M988.482,-473.0543C941.0977,-464.1357 884.9675,-450.361 868,-433 853.344,-418.004 848.8011,-394.194 847.6572,-375.9991"/>
<polygon fill="#191970" stroke="#191970" points="851.1483,-375.6657 847.3247,-365.7849 844.152,-375.8935 851.1483,-375.6657"/>
</g>
<!-- Node8&#45;&gt;Node33 -->
<g id="edge130" class="edge">
<title>Node8&#45;&gt;Node33</title>
<path fill="none" stroke="#191970" d="M988.4124,-474.0134C838.3728,-450.6777 502.5872,-389.3008 437,-299 428.9033,-287.8524 427.9883,-278.4219 437,-268 454.4526,-247.8165 608.3728,-231.4692 707.12,-222.9396"/>
<polygon fill="#191970" stroke="#191970" points="707.4249,-226.4264 717.091,-222.0886 706.8296,-219.4518 707.4249,-226.4264"/>
</g>
<!-- Node35 -->
<g id="node36" class="node">
<title>Node35</title>
<g id="a_node36"><a xlink:href="dependency__tracker_8h.html" target="_top" xlink:title="Declares DependencyTracker and DependencyGraph which is the container for trackers. ">
<polygon fill="#ffffff" stroke="#000000" points="1133.5,-402.5 1133.5,-432.5 1278.5,-432.5 1278.5,-402.5 1133.5,-402.5"/>
<text text-anchor="start" x="1141.5" y="-420.5" font-family="Helvetica,sans-Serif" font-size="10.00" fill="#000000">drake/systems/framework</text>
<text text-anchor="middle" x="1206" y="-409.5" font-family="Helvetica,sans-Serif" font-size="10.00" fill="#000000">/dependency_tracker.h</text>
</a>
</g>
</g>
<!-- Node8&#45;&gt;Node35 -->
<g id="edge81" class="edge">
<title>Node8&#45;&gt;Node35</title>
<path fill="none" stroke="#191970" d="M1093.5408,-469.4639C1114.3631,-459.8426 1141.5804,-447.2663 1164.0236,-436.896"/>
<polygon fill="#191970" stroke="#191970" points="1165.7076,-439.9735 1173.3172,-432.6017 1162.7714,-433.6191 1165.7076,-439.9735"/>
</g>
<!-- Node38 -->
<g id="node39" class="node">
<title>Node38</title>
<g id="a_node39"><a xlink:href="fixed__input__port__value_8h.html" target="_top" xlink:title="drake/systems/framework\l/fixed_input_port_value.h">
<polygon fill="#ffffff" stroke="#000000" points="1347.5,-335.5 1347.5,-365.5 1492.5,-365.5 1492.5,-335.5 1347.5,-335.5"/>
<text text-anchor="start" x="1355.5" y="-353.5" font-family="Helvetica,sans-Serif" font-size="10.00" fill="#000000">drake/systems/framework</text>
<text text-anchor="middle" x="1420" y="-342.5" font-family="Helvetica,sans-Serif" font-size="10.00" fill="#000000">/fixed_input_port_value.h</text>
</a>
</g>
</g>
<!-- Node8&#45;&gt;Node38 -->
<g id="edge94" class="edge">
<title>Node8&#45;&gt;Node38</title>
<path fill="none" stroke="#191970" d="M1133.6945,-474.3944C1179.2003,-466.5275 1238.3997,-453.4376 1288,-433 1326.6118,-417.0902 1366.7065,-390.3266 1392.4245,-371.61"/>
<polygon fill="#191970" stroke="#191970" points="1394.6034,-374.352 1400.5722,-365.5985 1390.4474,-368.7192 1394.6034,-374.352"/>
</g>
<!-- Node12&#45;&gt;Node6 -->
<g id="edge18" class="edge">
<title>Node12&#45;&gt;Node6</title>
<path fill="none" stroke="#191970" d="M855.708,-273.9598C758.7248,-256.9683 573.2872,-218.191 537,-165 525.4295,-148.0396 537.083,-83.0925 547,-67 556.9056,-50.926 573.8975,-38.4938 588.9964,-29.8746"/>
<polygon fill="#191970" stroke="#191970" points="590.9175,-32.8158 598.0727,-25.0021 587.6065,-26.6483 590.9175,-32.8158"/>
</g>
<!-- Node13 -->
<g id="node14" class="node">
<title>Node13</title>
<polygon fill="#ffffff" stroke="#bfbfbf" points="1204.5,-6 1204.5,-25 1273.5,-25 1273.5,-6 1204.5,-6"/>
<text text-anchor="middle" x="1239" y="-13" font-family="Helvetica,sans-Serif" font-size="10.00" fill="#000000">type_traits</text>
</g>
<!-- Node12&#45;&gt;Node13 -->
<g id="edge17" class="edge">
<title>Node12&#45;&gt;Node13</title>
<path fill="none" stroke="#191970" d="M934.7035,-268.4684C957.0191,-251.5967 994.6237,-223.6245 1028,-201 1099.2461,-152.7051 1132.4588,-160.155 1192,-98 1209.9206,-79.2927 1223.5512,-52.4627 1231.4053,-34.533"/>
<polygon fill="#191970" stroke="#191970" points="1234.7076,-35.7088 1235.351,-25.1335 1228.2532,-32.9993 1234.7076,-35.7088"/>
</g>
<!-- Node15&#45;&gt;Node3 -->
<g id="edge22" class="edge">
<title>Node15&#45;&gt;Node3</title>
<path fill="none" stroke="#191970" d="M906.8674,-335.4482C1046.0187,-299.8954 1387.515,-212.8095 1440,-201 1520.4449,-182.8993 1546.7552,-198.723 1622,-165 1642.8467,-155.657 1641.9898,-142.9693 1663,-134 1712.9426,-112.6794 1869.4727,-94.2339 1943.4814,-86.4473"/>
<polygon fill="#191970" stroke="#191970" points="1944.195,-89.8921 1953.7794,-85.3767 1943.4711,-82.9296 1944.195,-89.8921"/>
</g>
<!-- Node15&#45;&gt;Node4 -->
<g id="edge23" class="edge">
<title>Node15&#45;&gt;Node4</title>
<path fill="none" stroke="#191970" d="M775.4995,-347.0754C702.4228,-341.9978 587.147,-329.5075 492,-299 490.5346,-298.5301 489.0543,-297.9937 487.5775,-297.4092"/>
<polygon fill="#191970" stroke="#191970" points="488.628,-294.0404 478.0793,-293.0525 485.7095,-300.403 488.628,-294.0404"/>
</g>
<!-- Node15&#45;&gt;Node5 -->
<g id="edge25" class="edge">
<title>Node15&#45;&gt;Node5</title>
<path fill="none" stroke="#191970" d="M779.7157,-335.4769C740.732,-326.2655 691.1729,-313.4778 648,-299 540.7096,-263.0208 517.9195,-243.3985 413,-201 372.2904,-184.5491 353.5296,-194.4911 321,-165 302.088,-147.8545 290.476,-120.2277 284.3856,-101.7249"/>
<polygon fill="#191970" stroke="#191970" points="287.6938,-100.5741 281.4242,-92.0334 280.9993,-102.6197 287.6938,-100.5741"/>
</g>
<!-- Node15&#45;&gt;Node6 -->
<g id="edge26" class="edge">
<title>Node15&#45;&gt;Node6</title>
<path fill="none" stroke="#191970" d="M775.4336,-342.4146C716.9143,-334.7133 632.9635,-320.9802 562,-299 527.3208,-288.2585 445.3764,-248.4253 413,-232 406.2771,-228.5893 300.5785,-170.0706 295,-165 268.0836,-140.5344 258.9528,-132.6857 248,-98 243.8513,-84.8617 238.9503,-77.3889 248,-67 270.1997,-41.5152 500.4867,-23.5277 587.2092,-17.6116"/>
<polygon fill="#191970" stroke="#191970" points="587.5429,-21.0971 597.2858,-16.9346 587.0737,-14.1129 587.5429,-21.0971"/>
</g>
<!-- Node15&#45;&gt;Node10 -->
<g id="edge21" class="edge">
<title>Node15&#45;&gt;Node10</title>
<path fill="none" stroke="#191970" d="M920.5822,-336.2371C951.3958,-328.2051 986.8517,-316.234 1016,-299 1045.0357,-281.8325 1071.7581,-252.7963 1087.2119,-234.1479"/>
<polygon fill="#191970" stroke="#191970" points="1090.1061,-236.135 1093.6707,-226.1578 1084.6622,-231.7345 1090.1061,-236.135"/>
</g>
<!-- Node15&#45;&gt;Node11 -->
<g id="edge27" class="edge">
<title>Node15&#45;&gt;Node11</title>
<path fill="none" stroke="#191970" d="M794.2514,-335.4503C723.0677,-312.229 600.7349,-260.078 551,-165 502.5229,-72.3265 664.9592,-106.7512 691,-98 693.0919,-97.297 695.2328,-96.5306 697.3786,-95.7271"/>
<polygon fill="#191970" stroke="#191970" points="698.6669,-98.9815 706.6799,-92.0502 696.0935,-92.4717 698.6669,-98.9815"/>
</g>
<!-- Node15&#45;&gt;Node12 -->
<g id="edge41" class="edge">
<title>Node15&#45;&gt;Node12</title>
<path fill="none" stroke="#191970" d="M863.2033,-335.2967C871.941,-326.559 883.0743,-315.4257 892.7782,-305.7218"/>
<polygon fill="#191970" stroke="#191970" points="895.2606,-308.1892 899.8568,-298.6432 890.3108,-303.2394 895.2606,-308.1892"/>
</g>
<!-- Node16 -->
<g id="node17" class="node">
<title>Node16</title>
<polygon fill="#ffffff" stroke="#bfbfbf" points="560.5,-140 560.5,-159 625.5,-159 625.5,-140 560.5,-140"/>
<text text-anchor="middle" x="593" y="-147" font-family="Helvetica,sans-Serif" font-size="10.00" fill="#000000">stdexcept</text>
</g>
<!-- Node15&#45;&gt;Node16 -->
<g id="edge24" class="edge">
<title>Node15&#45;&gt;Node16</title>
<path fill="none" stroke="#191970" d="M828.8336,-335.3923C781.8374,-298.3483 661.221,-203.2742 613.1827,-165.4087"/>
<polygon fill="#191970" stroke="#191970" points="615.1118,-162.4727 605.0916,-159.031 610.7785,-167.9703 615.1118,-162.4727"/>
</g>
<!-- Node17 -->
<g id="node18" class="node">
<title>Node17</title>
<g id="a_node18"><a xlink:href="copyable__unique__ptr_8h.html" target="_top" xlink:title="drake/common/copyable\l_unique_ptr.h">
<polygon fill="#ffffff" stroke="#000000" points="1440.5,-134.5 1440.5,-164.5 1577.5,-164.5 1577.5,-134.5 1440.5,-134.5"/>
<text text-anchor="start" x="1448.5" y="-152.5" font-family="Helvetica,sans-Serif" font-size="10.00" fill="#000000">drake/common/copyable</text>
<text text-anchor="middle" x="1509" y="-141.5" font-family="Helvetica,sans-Serif" font-size="10.00" fill="#000000">_unique_ptr.h</text>
</a>
</g>
</g>
<!-- Node15&#45;&gt;Node17 -->
<g id="edge28" class="edge">
<title>Node15&#45;&gt;Node17</title>
<path fill="none" stroke="#191970" d="M905.9472,-335.4069C931.057,-327.1556 959.9226,-315.2431 983,-299 1029.9111,-265.9816 1016.1446,-227.5442 1067,-201 1138.0782,-163.9004 1346.6323,-176.3695 1426,-165 1427.306,-164.8129 1428.6227,-164.6198 1429.9478,-164.4214"/>
<polygon fill="#191970" stroke="#191970" points="1430.896,-167.8155 1440.2318,-162.8062 1429.8098,-160.9002 1430.896,-167.8155"/>
</g>
<!-- Node15&#45;&gt;Node20 -->
<g id="edge35" class="edge">
<title>Node15&#45;&gt;Node20</title>
<path fill="none" stroke="#191970" d="M920.5068,-341.458C1115.3807,-317.0381 1640.9381,-250.3618 1718,-232 1863.0401,-197.4407 2027.8735,-133.3182 2105.7188,-101.4691"/>
<polygon fill="#191970" stroke="#191970" points="2107.302,-104.6025 2115.2213,-97.5644 2104.6415,-98.1278 2107.302,-104.6025"/>
</g>
<!-- Node21 -->
<g id="node22" class="node">
<title>Node21</title>
<g id="a_node22"><a xlink:href="never__destroyed_8h.html" target="_top" xlink:title="drake/common/never\l_destroyed.h">
<polygon fill="#ffffff" stroke="#000000" points="1030.5,-67.5 1030.5,-97.5 1151.5,-97.5 1151.5,-67.5 1030.5,-67.5"/>
<text text-anchor="start" x="1038.5" y="-85.5" font-family="Helvetica,sans-Serif" font-size="10.00" fill="#000000">drake/common/never</text>
<text text-anchor="middle" x="1091" y="-74.5" font-family="Helvetica,sans-Serif" font-size="10.00" fill="#000000">_destroyed.h</text>
</a>
</g>
</g>
<!-- Node15&#45;&gt;Node21 -->
<g id="edge36" class="edge">
<title>Node15&#45;&gt;Node21</title>
<path fill="none" stroke="#191970" d="M843.8678,-335.2897C840.0358,-318.0089 836.3721,-289.4304 847,-268 869.7029,-222.2214 995.67,-140.727 1057.1831,-102.871"/>
<polygon fill="#191970" stroke="#191970" points="1059.0711,-105.819 1065.7712,-97.6117 1055.4154,-99.8494 1059.0711,-105.819"/>
</g>
<!-- Node15&#45;&gt;Node23 -->
<g id="edge42" class="edge">
<title>Node15&#45;&gt;Node23</title>
<path fill="none" stroke="#191970" d="M920.6834,-343.8924C1058.4613,-331.3672 1356.8195,-304.2437 1502.1241,-291.0342"/>
<polygon fill="#191970" stroke="#191970" points="1502.6752,-294.4986 1512.3173,-290.1075 1502.0414,-287.5273 1502.6752,-294.4986"/>
</g>
<!-- Node15&#45;&gt;Node33 -->
<g id="edge68" class="edge">
<title>Node15&#45;&gt;Node33</title>
<path fill="none" stroke="#191970" d="M836.3014,-335.4368C829.0608,-325.5292 820.0278,-312.0296 814,-299 805.4715,-280.5649 799.2254,-258.3992 795.2467,-241.6878"/>
<polygon fill="#191970" stroke="#191970" points="798.5815,-240.5671 792.9583,-231.5877 791.7545,-242.1139 798.5815,-240.5671"/>
</g>
<!-- Node17&#45;&gt;Node3 -->
<g id="edge31" class="edge">
<title>Node17&#45;&gt;Node3</title>
<path fill="none" stroke="#191970" d="M1577.7932,-136.359C1582.5962,-135.5321 1587.3674,-134.7371 1592,-134 1720.3104,-113.5842 1873.2347,-95.1382 1943.7835,-86.9592"/>
<polygon fill="#191970" stroke="#191970" points="1944.45,-90.4056 1953.9826,-85.7819 1943.6472,-83.4518 1944.45,-90.4056"/>
</g>
<!-- Node17&#45;&gt;Node6 -->
<g id="edge32" class="edge">
<title>Node17&#45;&gt;Node6</title>
<path fill="none" stroke="#191970" d="M1487.8211,-134.3677C1459.2371,-114.8633 1405.999,-81.7137 1355,-67 1220.2008,-28.1092 776.764,-18.0546 652.5805,-15.973"/>
<polygon fill="#191970" stroke="#191970" points="652.6068,-12.473 642.5514,-15.8108 652.4935,-19.4721 652.6068,-12.473"/>
</g>
<!-- Node18 -->
<g id="node19" class="node">
<title>Node18</title>
<polygon fill="#ffffff" stroke="#bfbfbf" points="1292.5,-73 1292.5,-92 1345.5,-92 1345.5,-73 1292.5,-73"/>
<text text-anchor="middle" x="1319" y="-80" font-family="Helvetica,sans-Serif" font-size="10.00" fill="#000000">cstddef</text>
</g>
<!-- Node17&#45;&gt;Node18 -->
<g id="edge29" class="edge">
<title>Node17&#45;&gt;Node18</title>
<path fill="none" stroke="#191970" d="M1464.2206,-134.3963C1434.5738,-124.3048 1394.874,-110.616 1360,-98 1357.9069,-97.2428 1355.7569,-96.4563 1353.5902,-95.657"/>
<polygon fill="#191970" stroke="#191970" points="1354.7025,-92.3364 1344.1098,-92.1228 1352.2573,-98.8955 1354.7025,-92.3364"/>
</g>
<!-- Node19 -->
<g id="node20" class="node">
<title>Node19</title>
<polygon fill="#ffffff" stroke="#bfbfbf" points="1677,-73 1677,-92 1737,-92 1737,-73 1677,-73"/>
<text text-anchor="middle" x="1707" y="-80" font-family="Helvetica,sans-Serif" font-size="10.00" fill="#000000">iostream</text>
</g>
<!-- Node17&#45;&gt;Node19 -->
<g id="edge30" class="edge">
<title>Node17&#45;&gt;Node19</title>
<path fill="none" stroke="#191970" d="M1553.4351,-134.4639C1588.2567,-122.6808 1636.1761,-106.4657 1669.1778,-95.2984"/>
<polygon fill="#191970" stroke="#191970" points="1670.5592,-98.526 1678.9098,-92.0053 1668.3155,-91.8953 1670.5592,-98.526"/>
</g>
<!-- Node17&#45;&gt;Node20 -->
<g id="edge33" class="edge">
<title>Node17&#45;&gt;Node20</title>
<path fill="none" stroke="#191970" d="M1577.6118,-142.5929C1604.2702,-139.9096 1635.0606,-136.8108 1663,-134 1822.1104,-117.9929 1862.0432,-115.467 2021,-98 2040.1514,-95.8955 2060.873,-93.4853 2080.0253,-91.2026"/>
<polygon fill="#191970" stroke="#191970" points="2080.6683,-94.6507 2090.1813,-89.9867 2079.8361,-87.7003 2080.6683,-94.6507"/>
</g>
<!-- Node20&#45;&gt;Node13 -->
<g id="edge34" class="edge">
<title>Node20&#45;&gt;Node13</title>
<path fill="none" stroke="#191970" d="M2090.2252,-74.5793C2068.4201,-71.916 2043.6327,-69.093 2021,-67 1741.2109,-41.1255 1403.9302,-23.4823 1283.996,-17.6284"/>
<polygon fill="#191970" stroke="#191970" points="1283.8961,-14.1195 1273.7382,-17.1307 1283.5568,-21.1113 1283.8961,-14.1195"/>
</g>
<!-- Node21&#45;&gt;Node6 -->
<g id="edge39" class="edge">
<title>Node21&#45;&gt;Node6</title>
<path fill="none" stroke="#191970" d="M1030.4905,-69.5916C1025.5962,-68.6705 1020.7203,-67.7936 1016,-67 881.9865,-44.4698 721.0351,-26.2488 652.9646,-18.9467"/>
<polygon fill="#191970" stroke="#191970" points="653.1702,-15.4489 642.8556,-17.8695 652.4284,-22.4095 653.1702,-15.4489"/>
</g>
<!-- Node21&#45;&gt;Node7 -->
<g id="edge40" class="edge">
<title>Node21&#45;&gt;Node7</title>
<path fill="none" stroke="#191970" d="M1151.7973,-76.8887C1189.7718,-73.5647 1239.7002,-69.5226 1284,-67 1846.5991,-34.9636 2526.7156,-20.6786 2744.4022,-16.7068"/>
<polygon fill="#191970" stroke="#191970" points="2744.4814,-20.206 2754.4163,-16.5254 2744.3546,-13.2072 2744.4814,-20.206"/>
</g>
<!-- Node21&#45;&gt;Node13 -->
<g id="edge38" class="edge">
<title>Node21&#45;&gt;Node13</title>
<path fill="none" stroke="#191970" d="M1124.2141,-67.4639C1149.494,-56.0196 1184.0092,-40.3945 1208.5739,-29.274"/>
<polygon fill="#191970" stroke="#191970" points="1210.1188,-32.4166 1217.7854,-25.1039 1207.2319,-26.0396 1210.1188,-32.4166"/>
</g>
<!-- Node22 -->
<g id="node23" class="node">
<title>Node22</title>
<polygon fill="#ffffff" stroke="#bfbfbf" points="1072.5,-6 1072.5,-25 1109.5,-25 1109.5,-6 1072.5,-6"/>
<text text-anchor="middle" x="1091" y="-13" font-family="Helvetica,sans-Serif" font-size="10.00" fill="#000000">new</text>
</g>
<!-- Node21&#45;&gt;Node22 -->
<g id="edge37" class="edge">
<title>Node21&#45;&gt;Node22</title>
<path fill="none" stroke="#191970" d="M1091,-67.2967C1091,-57.7699 1091,-45.3954 1091,-35.1306"/>
<polygon fill="#191970" stroke="#191970" points="1094.5001,-35.0549 1091,-25.055 1087.5001,-35.055 1094.5001,-35.0549"/>
</g>
<!-- Node23&#45;&gt;Node3 -->
<g id="edge44" class="edge">
<title>Node23&#45;&gt;Node3</title>
<path fill="none" stroke="#191970" d="M1657.5389,-270.7532C1729.314,-255.3142 1839.5189,-223.7399 1918,-165 1941.4952,-147.4148 1961.1394,-119.3325 1972.4882,-100.9026"/>
<polygon fill="#191970" stroke="#191970" points="1975.531,-102.6337 1977.6433,-92.2515 1969.5176,-99.0504 1975.531,-102.6337"/>
</g>
<!-- Node23&#45;&gt;Node5 -->
<g id="edge45" class="edge">
<title>Node23&#45;&gt;Node5</title>
<path fill="none" stroke="#191970" d="M1512.2195,-282.5245C1361.5561,-279.7803 1004.7652,-269.5255 708,-232 630.9508,-222.2572 433.9306,-200.7782 365,-165 334.584,-149.2127 307.5258,-119.3187 292.2129,-100.1809"/>
<polygon fill="#191970" stroke="#191970" points="294.9352,-97.9801 286.0338,-92.2341 289.4091,-102.2769 294.9352,-97.9801"/>
</g>
<!-- Node23&#45;&gt;Node9 -->
<g id="edge43" class="edge">
<title>Node23&#45;&gt;Node9</title>
<path fill="none" stroke="#191970" d="M1657.8839,-277.5674C1764.6631,-268.6985 1969.8479,-250.9832 2144,-232 2173.6136,-228.772 2647.0888,-172.1781 2676,-165 2679.005,-164.2539 2682.0904,-163.3535 2685.1549,-162.3665"/>
<polygon fill="#191970" stroke="#191970" points="2686.4691,-165.6147 2694.7475,-159.0028 2684.1527,-159.0091 2686.4691,-165.6147"/>
</g>
<!-- Node23&#45;&gt;Node11 -->
<g id="edge46" class="edge">
<title>Node23&#45;&gt;Node11</title>
<path fill="none" stroke="#191970" d="M1517.6381,-268.4761C1441.9146,-251.6713 1315.2584,-223.8157 1206,-201 1126.1384,-184.323 1105.3658,-183.8962 1026,-165 929.3509,-141.9888 816.6977,-109.1312 761.6931,-92.6904"/>
<polygon fill="#191970" stroke="#191970" points="762.3802,-89.2425 751.7962,-89.7232 760.3699,-95.9476 762.3802,-89.2425"/>
</g>
<!-- Node23&#45;&gt;Node20 -->
<g id="edge47" class="edge">
<title>Node23&#45;&gt;Node20</title>
<path fill="none" stroke="#191970" d="M1657.562,-274.2153C1714.6365,-265.9434 1795.8007,-252.0273 1865,-232 1941.8203,-209.7671 1961.5835,-202.91 2032,-165 2065.3167,-147.0633 2100.5929,-121.6993 2124.0074,-103.8422"/>
<polygon fill="#191970" stroke="#191970" points="2126.285,-106.5057 2132.0714,-97.6306 2122.0134,-100.9602 2126.285,-106.5057"/>
</g>
<!-- Node24 -->
<g id="node25" class="node">
<title>Node24</title>
<g id="a_node25"><a xlink:href="drake__optional_8h.html" target="_top" xlink:title="Provides drake::optional as an alias for the appropriate implementation of std::optional or std::expe...">
<polygon fill="#ffffff" stroke="#000000" points="1587.5,-201.5 1587.5,-231.5 1708.5,-231.5 1708.5,-201.5 1587.5,-201.5"/>
<text text-anchor="start" x="1595.5" y="-219.5" font-family="Helvetica,sans-Serif" font-size="10.00" fill="#000000">drake/common/drake</text>
<text text-anchor="middle" x="1648" y="-208.5" font-family="Helvetica,sans-Serif" font-size="10.00" fill="#000000">_optional.h</text>
</a>
</g>
</g>
<!-- Node23&#45;&gt;Node24 -->
<g id="edge48" class="edge">
<title>Node23&#45;&gt;Node24</title>
<path fill="none" stroke="#191970" d="M1599.2957,-268.2967C1607.4312,-259.6446 1617.7752,-248.6438 1626.8361,-239.0076"/>
<polygon fill="#191970" stroke="#191970" points="1629.4604,-241.326 1633.7609,-231.6432 1624.3608,-236.5308 1629.4604,-241.326"/>
</g>
<!-- Node27 -->
<g id="node28" class="node">
<title>Node27</title>
<g id="a_node28"><a xlink:href="drake__variant_8h.html" target="_top" xlink:title="Provides drake::variant as an alias for the appropriate implementation of std::variant or or stx::var...">
<polygon fill="#ffffff" stroke="#000000" points="1448.5,-201.5 1448.5,-231.5 1569.5,-231.5 1569.5,-201.5 1448.5,-201.5"/>
<text text-anchor="start" x="1456.5" y="-219.5" font-family="Helvetica,sans-Serif" font-size="10.00" fill="#000000">drake/common/drake</text>
<text text-anchor="middle" x="1509" y="-208.5" font-family="Helvetica,sans-Serif" font-size="10.00" fill="#000000">_variant.h</text>
</a>
</g>
</g>
<!-- Node23&#45;&gt;Node27 -->
<g id="edge51" class="edge">
<title>Node23&#45;&gt;Node27</title>
<path fill="none" stroke="#191970" d="M1567.7544,-268.2967C1557.7458,-259.4733 1544.9664,-248.2072 1533.8836,-238.4368"/>
<polygon fill="#191970" stroke="#191970" points="1535.9932,-235.6307 1526.1773,-231.6432 1531.3641,-240.8816 1535.9932,-235.6307"/>
</g>
<!-- Node28 -->
<g id="node29" class="node">
<title>Node28</title>
<g id="a_node29"><a xlink:href="type__safe__index_8h.html" target="_top" xlink:title="drake/common/type_safe\l_index.h">
<polygon fill="#ffffff" stroke="#000000" points="1993.5,-201.5 1993.5,-231.5 2134.5,-231.5 2134.5,-201.5 1993.5,-201.5"/>
<text text-anchor="start" x="2001.5" y="-219.5" font-family="Helvetica,sans-Serif" font-size="10.00" fill="#000000">drake/common/type_safe</text>
<text text-anchor="middle" x="2064" y="-208.5" font-family="Helvetica,sans-Serif" font-size="10.00" fill="#000000">_index.h</text>
</a>
</g>
</g>
<!-- Node23&#45;&gt;Node28 -->
<g id="edge53" class="edge">
<title>Node23&#45;&gt;Node28</title>
<path fill="none" stroke="#191970" d="M1657.7498,-273.3241C1745.4101,-261.0627 1892.2371,-240.5253 1983.3034,-227.7874"/>
<polygon fill="#191970" stroke="#191970" points="1983.8851,-231.2402 1993.3038,-226.3886 1982.9153,-224.3077 1983.8851,-231.2402"/>
</g>
<!-- Node25 -->
<g id="node26" class="node">
<title>Node25</title>
<polygon fill="#ffffff" stroke="#bfbfbf" points="1672,-140 1672,-159 1762,-159 1762,-140 1672,-140"/>
<text text-anchor="middle" x="1717" y="-147" font-family="Helvetica,sans-Serif" font-size="10.00" fill="#000000">stx/variant.hpp</text>
</g>
<!-- Node24&#45;&gt;Node25 -->
<g id="edge49" class="edge">
<title>Node24&#45;&gt;Node25</title>
<path fill="none" stroke="#191970" d="M1663.6572,-201.2967C1674.4077,-190.8578 1688.6794,-176.9997 1699.7555,-166.2446"/>
<polygon fill="#191970" stroke="#191970" points="1702.4237,-168.5323 1707.1598,-159.055 1697.5473,-163.5103 1702.4237,-168.5323"/>
</g>
<!-- Node26 -->
<g id="node27" class="node">
<title>Node26</title>
<polygon fill="#ffffff" stroke="#bfbfbf" points="1780.5,-140 1780.5,-159 1875.5,-159 1875.5,-140 1780.5,-140"/>
<text text-anchor="middle" x="1828" y="-147" font-family="Helvetica,sans-Serif" font-size="10.00" fill="#000000">stx/optional.hpp</text>
</g>
<!-- Node24&#45;&gt;Node26 -->
<g id="edge50" class="edge">
<title>Node24&#45;&gt;Node26</title>
<path fill="none" stroke="#191970" d="M1688.3955,-201.4639C1719.7787,-189.7824 1762.8644,-173.7449 1792.8372,-162.5884"/>
<polygon fill="#191970" stroke="#191970" points="1794.3125,-165.7739 1802.4634,-159.0053 1791.8706,-159.2136 1794.3125,-165.7739"/>
</g>
<!-- Node27&#45;&gt;Node25 -->
<g id="edge52" class="edge">
<title>Node27&#45;&gt;Node25</title>
<path fill="none" stroke="#191970" d="M1555.6793,-201.4639C1592.4173,-189.63 1643.0333,-173.3258 1677.715,-162.1543"/>
<polygon fill="#191970" stroke="#191970" points="1679.0458,-165.4028 1687.4911,-159.0053 1676.8995,-158.7399 1679.0458,-165.4028"/>
</g>
<!-- Node28&#45;&gt;Node2 -->
<g id="edge54" class="edge">
<title>Node28&#45;&gt;Node2</title>
<path fill="none" stroke="#191970" d="M2101.4781,-201.4639C2130.382,-189.8677 2169.9854,-173.9789 2197.7657,-162.8335"/>
<polygon fill="#191970" stroke="#191970" points="2199.0842,-166.0758 2207.0619,-159.1039 2196.4777,-159.5791 2199.0842,-166.0758"/>
</g>
<!-- Node28&#45;&gt;Node5 -->
<g id="edge56" class="edge">
<title>Node28&#45;&gt;Node5</title>
<path fill="none" stroke="#191970" d="M1993.4341,-213.152C1923.518,-209.8788 1813.3786,-204.8412 1718,-201 1494.2606,-191.9894 930.0369,-211.5118 711,-165 674.9131,-157.337 669.6191,-143.6054 634,-134 517.7606,-102.6537 374.6406,-89.2819 311.5217,-84.6129"/>
<polygon fill="#191970" stroke="#191970" points="311.6154,-81.1107 301.3911,-83.8881 311.1159,-88.0929 311.6154,-81.1107"/>
</g>
<!-- Node28&#45;&gt;Node20 -->
<g id="edge57" class="edge">
<title>Node28&#45;&gt;Node20</title>
<path fill="none" stroke="#191970" d="M2103.5314,-201.3194C2119.5004,-193.0765 2136.3962,-181.1948 2146,-165 2156.1828,-147.8289 2156.7745,-124.9553 2155.1923,-107.6488"/>
<polygon fill="#191970" stroke="#191970" points="2158.664,-107.2025 2153.9926,-97.6931 2151.7142,-108.0401 2158.664,-107.2025"/>
</g>
<!-- Node29 -->
<g id="node30" class="node">
<title>Node29</title>
<polygon fill="#ffffff" stroke="#bfbfbf" points="2407,-140 2407,-159 2451,-159 2451,-140 2407,-140"/>
<text text-anchor="middle" x="2429" y="-147" font-family="Helvetica,sans-Serif" font-size="10.00" fill="#000000">limits</text>
</g>
<!-- Node28&#45;&gt;Node29 -->
<g id="edge55" class="edge">
<title>Node28&#45;&gt;Node29</title>
<path fill="none" stroke="#191970" d="M2134.8085,-203.5023C2213.8504,-188.9932 2338.3102,-166.1472 2396.7145,-155.4264"/>
<polygon fill="#191970" stroke="#191970" points="2397.6216,-158.8184 2406.8253,-153.5704 2396.3577,-151.9335 2397.6216,-158.8184"/>
</g>
<!-- Node30 -->
<g id="node31" class="node">
<title>Node30</title>
<g id="a_node31"><a xlink:href="drake__throw_8h.html" target="_top" xlink:title="Provides a convenient wrapper to throw an exception when a condition is unmet. ">
<polygon fill="#ffffff" stroke="#000000" points="2545.5,-134.5 2545.5,-164.5 2666.5,-164.5 2666.5,-134.5 2545.5,-134.5"/>
<text text-anchor="start" x="2553.5" y="-152.5" font-family="Helvetica,sans-Serif" font-size="10.00" fill="#000000">drake/common/drake</text>
<text text-anchor="middle" x="2606" y="-141.5" font-family="Helvetica,sans-Serif" font-size="10.00" fill="#000000">_throw.h</text>
</a>
</g>
</g>
<!-- Node28&#45;&gt;Node30 -->
<g id="edge58" class="edge">
<title>Node28&#45;&gt;Node30</title>
<path fill="none" stroke="#191970" d="M2134.579,-207.7753C2238.4835,-194.931 2431.5074,-171.0701 2535.4152,-158.2254"/>
<polygon fill="#191970" stroke="#191970" points="2535.9975,-161.6802 2545.4925,-156.9797 2535.1386,-154.7331 2535.9975,-161.6802"/>
</g>
<!-- Node28&#45;&gt;Node31 -->
<g id="edge61" class="edge">
<title>Node28&#45;&gt;Node31</title>
<path fill="none" stroke="#191970" d="M1993.3701,-212.9855C1829.8741,-204.8231 1412.6948,-183.8415 1064,-165 998.8563,-161.48 925.0128,-157.2912 870.4122,-154.1561"/>
<polygon fill="#191970" stroke="#191970" points="870.287,-150.6432 860.1026,-153.5635 869.8853,-157.6316 870.287,-150.6432"/>
</g>
<!-- Node30&#45;&gt;Node13 -->
<g id="edge59" class="edge">
<title>Node30&#45;&gt;Node13</title>
<path fill="none" stroke="#191970" d="M2549.4171,-134.4211C2474.7869,-115.216 2339.081,-82.6472 2221,-67 2036.04,-42.4905 1451.0488,-22.2908 1283.9645,-16.9086"/>
<polygon fill="#191970" stroke="#191970" points="1283.6789,-13.3978 1273.5719,-16.5757 1283.4547,-20.3942 1283.6789,-13.3978"/>
</g>
<!-- Node30&#45;&gt;Node20 -->
<g id="edge60" class="edge">
<title>Node30&#45;&gt;Node20</title>
<path fill="none" stroke="#191970" d="M2545.4858,-136.6197C2540.5925,-135.6923 2535.7182,-134.8063 2531,-134 2423.6047,-115.6476 2298.2263,-99.7133 2221.7452,-90.6053"/>
<polygon fill="#191970" stroke="#191970" points="2222.0878,-87.1215 2211.7454,-89.4202 2221.264,-94.0729 2222.0878,-87.1215"/>
</g>
<!-- Node31&#45;&gt;Node3 -->
<g id="edge62" class="edge">
<title>Node31&#45;&gt;Node3</title>
<path fill="none" stroke="#191970" d="M860.1804,-145.996C1018.3175,-138.0399 1414.5786,-117.7639 1746,-98 1815.645,-93.8468 1896.7609,-88.4125 1943.7595,-85.2049"/>
<polygon fill="#191970" stroke="#191970" points="1944.0801,-88.6912 1953.8179,-84.5168 1943.6023,-81.7075 1944.0801,-88.6912"/>
</g>
<!-- Node31&#45;&gt;Node5 -->
<g id="edge63" class="edge">
<title>Node31&#45;&gt;Node5</title>
<path fill="none" stroke="#191970" d="M719.9289,-136.232C715.2204,-135.4449 710.5447,-134.6927 706,-134 559.2561,-111.6341 382.9291,-92.9489 311.4534,-85.715"/>
<polygon fill="#191970" stroke="#191970" points="311.5931,-82.2115 301.2929,-84.6925 310.8922,-89.1763 311.5931,-82.2115"/>
</g>
<!-- Node31&#45;&gt;Node6 -->
<g id="edge65" class="edge">
<title>Node31&#45;&gt;Node6</title>
<path fill="none" stroke="#191970" d="M788.3577,-134.3603C785.6001,-116.0702 778.3937,-85.4624 760,-67 730.933,-37.8246 683.956,-25.0235 652.536,-19.5117"/>
<polygon fill="#191970" stroke="#191970" points="652.9529,-16.0339 642.5253,-17.9088 651.8461,-22.9459 652.9529,-16.0339"/>
</g>
<!-- Node31&#45;&gt;Node11 -->
<g id="edge66" class="edge">
<title>Node31&#45;&gt;Node11</title>
<path fill="none" stroke="#191970" d="M775.9312,-134.2967C766.3651,-123.9591 753.6962,-110.2684 743.7857,-99.5588"/>
<polygon fill="#191970" stroke="#191970" points="746.2027,-97.0175 736.8419,-92.055 741.065,-101.7718 746.2027,-97.0175"/>
</g>
<!-- Node31&#45;&gt;Node21 -->
<g id="edge67" class="edge">
<title>Node31&#45;&gt;Node21</title>
<path fill="none" stroke="#191970" d="M857.5503,-134.4639C906.0355,-123.6715 971.2245,-109.161 1020.3927,-98.2166"/>
<polygon fill="#191970" stroke="#191970" points="1021.3153,-101.5969 1030.316,-96.0077 1019.7944,-94.7642 1021.3153,-101.5969"/>
</g>
<!-- Node31&#45;&gt;Node32 -->
<g id="edge64" class="edge">
<title>Node31&#45;&gt;Node32</title>
<path fill="none" stroke="#191970" d="M759.4789,-134.4639C736.4543,-123.1209 705.0928,-107.6707 682.5606,-96.5703"/>
<polygon fill="#191970" stroke="#191970" points="684.0118,-93.3836 673.4945,-92.1039 680.9183,-99.6629 684.0118,-93.3836"/>
</g>
<!-- Node33&#45;&gt;Node3 -->
<g id="edge69" class="edge">
<title>Node33&#45;&gt;Node3</title>
<path fill="none" stroke="#191970" d="M862.8075,-212.3292C1056.3506,-201.1726 1570.0648,-171.078 1587,-165 1609.1748,-157.0415 1608.1627,-142.8427 1630,-134 1686.3811,-111.1694 1864.0714,-93.0538 1943.7131,-85.8592"/>
<polygon fill="#191970" stroke="#191970" points="1944.1781,-89.3317 1953.8275,-84.9568 1943.556,-82.3594 1944.1781,-89.3317"/>
</g>
<!-- Node33&#45;&gt;Node5 -->
<g id="edge71" class="edge">
<title>Node33&#45;&gt;Node5</title>
<path fill="none" stroke="#191970" d="M717.2197,-208.5125C630.7243,-198.5335 491.8385,-180.8401 442,-165 389.6792,-148.3709 333.592,-116.5123 302.7514,-97.6214"/>
<polygon fill="#191970" stroke="#191970" points="304.3655,-94.5039 294.0229,-92.2062 300.6752,-100.4522 304.3655,-94.5039"/>
</g>
<!-- Node33&#45;&gt;Node6 -->
<g id="edge74" class="edge">
<title>Node33&#45;&gt;Node6</title>
<path fill="none" stroke="#191970" d="M717.4,-210.7278C654.9222,-204.0742 571.6659,-190.5933 551,-165 517.04,-122.9427 570.9005,-61.4451 601.3695,-32.1757"/>
<polygon fill="#191970" stroke="#191970" points="603.983,-34.5238 608.898,-25.138 599.2027,-29.4102 603.983,-34.5238"/>
</g>
<!-- Node33&#45;&gt;Node7 -->
<g id="edge76" class="edge">
<title>Node33&#45;&gt;Node7</title>
<path fill="none" stroke="#191970" d="M862.7273,-211.0609C1004.5447,-200.2806 1308.2931,-176.2727 1355,-165 1390.8619,-156.3447 1397.0952,-145.9433 1432,-134 1535.1619,-98.7012 1560.3717,-84.4513 1668,-67 1876.7167,-33.1579 2527.2209,-20.0382 2743.9429,-16.5366"/>
<polygon fill="#191970" stroke="#191970" points="2744.2951,-20.0315 2754.2379,-16.3722 2744.1833,-13.0324 2744.2951,-20.0315"/>
</g>
<!-- Node33&#45;&gt;Node13 -->
<g id="edge72" class="edge">
<title>Node33&#45;&gt;Node13</title>
<path fill="none" stroke="#191970" d="M862.5757,-204.5265C940.8849,-189.154 1066.9817,-157.1147 1161,-98 1188.2462,-80.8688 1212.4674,-52.0288 1226.4384,-33.3854"/>
<polygon fill="#191970" stroke="#191970" points="1229.3804,-35.2911 1232.4418,-25.1482 1223.7234,-31.1682 1229.3804,-35.2911"/>
</g>
<!-- Node33&#45;&gt;Node16 -->
<g id="edge70" class="edge">
<title>Node33&#45;&gt;Node16</title>
<path fill="none" stroke="#191970" d="M745.7894,-201.4639C711.1435,-189.6808 663.4663,-173.4657 630.6312,-162.2984"/>
<polygon fill="#191970" stroke="#191970" points="631.5428,-158.9116 620.9484,-159.0053 629.2888,-165.5388 631.5428,-158.9116"/>
</g>
<!-- Node33&#45;&gt;Node17 -->
<g id="edge75" class="edge">
<title>Node33&#45;&gt;Node17</title>
<path fill="none" stroke="#191970" d="M862.7174,-211.04C1017.8069,-199.333 1371.4068,-172.2879 1426,-165 1427.3077,-164.8254 1428.626,-164.644 1429.9526,-164.4563"/>
<polygon fill="#191970" stroke="#191970" points="1430.8777,-167.8567 1440.2459,-162.9083 1429.8366,-160.9345 1430.8777,-167.8567"/>
</g>
<!-- Node33&#45;&gt;Node31 -->
<g id="edge80" class="edge">
<title>Node33&#45;&gt;Node31</title>
<path fill="none" stroke="#191970" d="M790,-201.2967C790,-193.5013 790,-183.7991 790,-174.9064"/>
<polygon fill="#191970" stroke="#191970" points="793.5001,-174.6431 790,-164.6432 786.5001,-174.6432 793.5001,-174.6431"/>
</g>
<!-- Node33&#45;&gt;Node32 -->
<g id="edge73" class="edge">
<title>Node33&#45;&gt;Node32</title>
<path fill="none" stroke="#191970" d="M761.3867,-201.4966C745.458,-192.2916 725.899,-179.5037 711,-165 691.2125,-145.7375 674.0622,-118.6712 663.8782,-100.8676"/>
<polygon fill="#191970" stroke="#191970" points="666.8857,-99.0742 658.9646,-92.0381 660.769,-102.4781 666.8857,-99.0742"/>
</g>
<!-- Node34 -->
<g id="node35" class="node">
<title>Node34</title>
<g id="a_node35"><a xlink:href="is__cloneable_8h.html" target="_top" xlink:title="drake/common/is_cloneable.h">
<polygon fill="#ffffff" stroke="#000000" points="1182.5,-140 1182.5,-159 1345.5,-159 1345.5,-140 1182.5,-140"/>
<text text-anchor="middle" x="1264" y="-147" font-family="Helvetica,sans-Serif" font-size="10.00" fill="#000000">drake/common/is_cloneable.h</text>
</a>
</g>
</g>
<!-- Node33&#45;&gt;Node34 -->
<g id="edge77" class="edge">
<title>Node33&#45;&gt;Node34</title>
<path fill="none" stroke="#191970" d="M862.5064,-206.2512C950.0315,-193.8795 1096.6185,-173.1594 1186.3744,-160.4724"/>
<polygon fill="#191970" stroke="#191970" points="1187.0804,-163.9075 1196.492,-159.0423 1186.1006,-156.9764 1187.0804,-163.9075"/>
</g>
<!-- Node34&#45;&gt;Node3 -->
<g id="edge78" class="edge">
<title>Node34&#45;&gt;Node3</title>
<path fill="none" stroke="#191970" d="M1345.7784,-141.8795C1500.5043,-127.4614 1830.719,-96.6903 1943.9493,-86.1389"/>
<polygon fill="#191970" stroke="#191970" points="1944.2755,-89.6238 1953.9076,-85.211 1943.626,-82.654 1944.2755,-89.6238"/>
</g>
<!-- Node34&#45;&gt;Node13 -->
<g id="edge79" class="edge">
<title>Node34&#45;&gt;Node13</title>
<path fill="none" stroke="#191970" d="M1262.2021,-139.8631C1258.1299,-118.0364 1248.1344,-64.4605 1242.6864,-35.2589"/>
<polygon fill="#191970" stroke="#191970" points="1246.0564,-34.2381 1240.7816,-25.0496 1239.1751,-35.5219 1246.0564,-34.2381"/>
</g>
<!-- Node35&#45;&gt;Node3 -->
<g id="edge83" class="edge">
<title>Node35&#45;&gt;Node3</title>
<path fill="none" stroke="#191970" d="M1227.9188,-402.2919C1253.7478,-384.756 1298.3108,-355.6926 1339,-335 1409.5496,-299.1218 1427.8511,-289.5833 1504,-268 1596.7922,-241.6993 1625.3537,-258.8101 1718,-232 1752.2528,-222.0879 1758.9256,-214.3263 1792,-201 1833.1105,-184.4358 1847.4891,-188.6088 1885,-165 1902.0307,-154.2811 1902.7669,-147.1489 1918,-134 1932.3455,-121.6173 1949.1227,-108.3534 1962.0386,-98.3879"/>
<polygon fill="#191970" stroke="#191970" points="1964.478,-100.9281 1970.2862,-92.0671 1960.22,-95.3721 1964.478,-100.9281"/>
</g>
<!-- Node35&#45;&gt;Node5 -->
<g id="edge84" class="edge">
<title>Node35&#45;&gt;Node5</title>
<path fill="none" stroke="#191970" d="M1133.4582,-410.8561C1099.869,-407.9081 1059.4194,-404.5396 1023,-402 950.0676,-396.9143 424.5099,-409.8359 366,-366 280.5901,-302.0106 276.4554,-155.7702 277.9741,-102.4356"/>
<polygon fill="#191970" stroke="#191970" points="281.4783,-102.3936 278.3698,-92.265 274.4836,-102.1214 281.4783,-102.3936"/>
</g>
<!-- Node35&#45;&gt;Node6 -->
<g id="edge86" class="edge">
<title>Node35&#45;&gt;Node6</title>
<path fill="none" stroke="#191970" d="M1133.4455,-411.0314C1099.8537,-408.1195 1059.4056,-404.7308 1023,-402 900.6382,-392.8216 584.3793,-415.27 472,-366 353.3822,-313.9949 330.1777,-274.4951 261,-165 237.1571,-127.2613 209.6251,-100.6126 239,-67 261.8446,-40.8598 499.1825,-23.1941 587.3029,-17.4927"/>
<polygon fill="#191970" stroke="#191970" points="587.5278,-20.9856 597.2851,-16.857 587.0828,-13.9998 587.5278,-20.9856"/>
</g>
<!-- Node35&#45;&gt;Node7 -->
<g id="edge89" class="edge">
<title>Node35&#45;&gt;Node7</title>
<path fill="none" stroke="#191970" d="M1278.5531,-412.7852C1403.6563,-404.49 1668.007,-386.2353 1891,-366 2008.0218,-355.381 2863.7544,-321.4063 2940,-232 2948.9402,-221.5167 2947.1767,-212.761 2940,-201 2921.777,-171.1366 2895.6375,-188.8038 2870,-165 2844.4164,-141.2462 2841.2532,-130.6898 2829,-98 2822.0566,-79.4759 2818.5387,-57.316 2816.7667,-40.6294"/>
<polygon fill="#191970" stroke="#191970" points="2820.2405,-40.1833 2815.8359,-30.5475 2813.2701,-40.8269 2820.2405,-40.1833"/>
</g>
<!-- Node35&#45;&gt;Node10 -->
<g id="edge82" class="edge">
<title>Node35&#45;&gt;Node10</title>
<path fill="none" stroke="#191970" d="M1210.647,-402.3007C1215.0181,-385.2787 1219.7047,-357.1722 1211,-335 1193.4891,-290.3971 1150.4212,-252.5883 1123.6656,-232.3448"/>
<polygon fill="#191970" stroke="#191970" points="1125.4056,-229.2796 1115.2778,-226.1686 1121.2551,-234.9163 1125.4056,-229.2796"/>
</g>
<!-- Node35&#45;&gt;Node11 -->
<g id="edge87" class="edge">
<title>Node35&#45;&gt;Node11</title>
<path fill="none" stroke="#191970" d="M1133.3328,-410.8909C1045.8808,-402.5001 894.7247,-386.6029 766,-366 618.6519,-342.4164 531.4037,-414.5664 437,-299 384.4199,-234.6329 397.7091,-225.8366 539,-134 597.2089,-96.1652 624.9836,-119.4846 691,-98 693.0985,-97.317 695.2445,-96.5657 697.3939,-95.7733"/>
<polygon fill="#191970" stroke="#191970" points="698.6721,-99.0316 706.7036,-92.1218 696.1161,-92.5149 698.6721,-99.0316"/>
</g>
<!-- Node35&#45;&gt;Node15 -->
<g id="edge92" class="edge">
<title>Node35&#45;&gt;Node15</title>
<path fill="none" stroke="#191970" d="M1133.1218,-403.8608C1074.4428,-392.879 991.9511,-377.4406 930.7853,-365.9933"/>
<polygon fill="#191970" stroke="#191970" points="931.2493,-362.5195 920.7761,-364.1201 929.9616,-369.4 931.2493,-362.5195"/>
</g>
<!-- Node35&#45;&gt;Node20 -->
<g id="edge88" class="edge">
<title>Node35&#45;&gt;Node20</title>
<path fill="none" stroke="#191970" d="M1278.5013,-412.9995C1464.915,-400.6315 1956.7131,-362.7443 2106,-299 2193.5176,-261.6307 2231.8395,-250.7998 2273,-165 2278.9593,-152.5777 2280.6159,-145.4815 2273,-134 2265.3551,-122.4746 2237.9487,-110.4073 2211.0444,-100.8532"/>
<polygon fill="#191970" stroke="#191970" points="2212.177,-97.5415 2201.5822,-97.5836 2209.8908,-104.1577 2212.177,-97.5415"/>
</g>
<!-- Node35&#45;&gt;Node23 -->
<g id="edge93" class="edge">
<title>Node35&#45;&gt;Node23</title>
<path fill="none" stroke="#191970" d="M1278.831,-409.9003C1353.5529,-401.211 1464.0666,-385.6195 1502,-366 1529.1956,-351.9342 1553.1349,-325.8398 1568.2275,-306.7527"/>
<polygon fill="#191970" stroke="#191970" points="1571.0179,-308.8655 1574.3285,-298.8012 1565.4643,-304.6044 1571.0179,-308.8655"/>
</g>
<!-- Node36 -->
<g id="node37" class="node">
<title>Node36</title>
<polygon fill="#ffffff" stroke="#bfbfbf" points="1108.5,-341 1108.5,-360 1201.5,-360 1201.5,-341 1108.5,-341"/>
<text text-anchor="middle" x="1155" y="-348" font-family="Helvetica,sans-Serif" font-size="10.00" fill="#000000">unordered_map</text>
</g>
<!-- Node35&#45;&gt;Node36 -->
<g id="edge85" class="edge">
<title>Node35&#45;&gt;Node36</title>
<path fill="none" stroke="#191970" d="M1194.4273,-402.2967C1186.7127,-392.1618 1176.5449,-378.804 1168.4671,-368.1921"/>
<polygon fill="#191970" stroke="#191970" points="1171.1151,-365.8921 1162.2732,-360.055 1165.5451,-370.1319 1171.1151,-365.8921"/>
</g>
<!-- Node37 -->
<g id="node38" class="node">
<title>Node37</title>
<g id="a_node38"><a xlink:href="text__logging_8h.html" target="_top" xlink:title="This is the entry point for all text logging within Drake. ">
<polygon fill="#ffffff" stroke="#000000" points="2454.5,-341 2454.5,-360 2617.5,-360 2617.5,-341 2454.5,-341"/>
<text text-anchor="middle" x="2536" y="-348" font-family="Helvetica,sans-Serif" font-size="10.00" fill="#000000">drake/common/text_logging.h</text>
</a>
</g>
</g>
<!-- Node35&#45;&gt;Node37 -->
<g id="edge90" class="edge">
<title>Node35&#45;&gt;Node37</title>
<path fill="none" stroke="#191970" d="M1278.9254,-413.8263C1505.0731,-402.4339 2194.3126,-367.7128 2444.2446,-355.1223"/>
<polygon fill="#191970" stroke="#191970" points="2444.5709,-358.6104 2454.3821,-354.6116 2444.2187,-351.6192 2444.5709,-358.6104"/>
</g>
<!-- Node37&#45;&gt;Node7 -->
<g id="edge91" class="edge">
<title>Node37&#45;&gt;Node7</title>
<path fill="none" stroke="#191970" d="M2617.5298,-345.1787C2756.2585,-334.2397 3028.8958,-303.9288 3087,-232 3095.6578,-221.2823 3095.7176,-211.6691 3087,-201 3036.2063,-138.8354 2979.1311,-205.8085 2910,-165 2862.7212,-137.0911 2835.1825,-75.3996 2822.8449,-40.6181"/>
<polygon fill="#191970" stroke="#191970" points="2826.0261,-39.1005 2819.499,-30.755 2819.3971,-41.3493 2826.0261,-39.1005"/>
</g>
<!-- Node38&#45;&gt;Node2 -->
<g id="edge96" class="edge">
<title>Node38&#45;&gt;Node2</title>
<path fill="none" stroke="#191970" d="M1492.6074,-345.8287C1607.9786,-337.8898 1827.8013,-320.5136 1903,-299 1933.3865,-290.3067 1937.0576,-278.1177 1967,-268 2043.0527,-242.3012 2072.7853,-269.0529 2144,-232 2174.585,-216.0867 2202.0121,-186.2297 2217.5645,-167.1338"/>
<polygon fill="#191970" stroke="#191970" points="2220.3783,-169.2182 2223.8432,-159.206 2214.8908,-164.8722 2220.3783,-169.2182"/>
</g>
<!-- Node38&#45;&gt;Node3 -->
<g id="edge97" class="edge">
<title>Node38&#45;&gt;Node3</title>
<path fill="none" stroke="#191970" d="M1492.628,-338.5191C1542.2421,-329.5666 1609.2091,-315.9689 1667,-299 1746.9097,-275.5364 1767.627,-269.4801 1842,-232 1891.4353,-207.0872 1911.0358,-207.0841 1947,-165 1962.8807,-146.417 1972.795,-119.742 1978.1051,-101.8017"/>
<polygon fill="#191970" stroke="#191970" points="1981.4842,-102.7135 1980.7693,-92.1429 1974.7362,-100.8522 1981.4842,-102.7135"/>
</g>
<!-- Node38&#45;&gt;Node6 -->
<g id="edge98" class="edge">
<title>Node38&#45;&gt;Node6</title>
<path fill="none" stroke="#191970" d="M1402.7607,-335.3986C1382.3911,-317.9629 1347.0774,-288.9936 1314,-268 1258.4521,-232.7449 1243.9328,-223.1996 1182,-201 1112.5693,-176.1128 1090.3272,-187.2279 1020,-165 911.7075,-130.7727 890.7287,-105.8297 784,-67 738.8875,-50.5873 685.716,-34.4668 652.4252,-24.7516"/>
<polygon fill="#191970" stroke="#191970" points="653.342,-21.3733 642.7628,-21.9489 651.3919,-28.0962 653.342,-21.3733"/>
</g>
<!-- Node38&#45;&gt;Node7 -->
<g id="edge101" class="edge">
<title>Node38&#45;&gt;Node7</title>
<path fill="none" stroke="#191970" d="M1492.6242,-349.4104C1669.1134,-346.2603 2134.4562,-334.9412 2521,-299 2735.4764,-279.0578 2800.2985,-310.2096 3001,-232 3093.9027,-195.7975 3217.9771,-142.6274 3153,-67 3135.8084,-46.9906 2979.5015,-29.9366 2885.5794,-21.3825"/>
<polygon fill="#191970" stroke="#191970" points="2885.8444,-17.8923 2875.5709,-20.4816 2885.2168,-24.8641 2885.8444,-17.8923"/>
</g>
<!-- Node38&#45;&gt;Node11 -->
<g id="edge99" class="edge">
<title>Node38&#45;&gt;Node11</title>
<path fill="none" stroke="#191970" d="M1394.0107,-335.477C1334.3089,-301.1969 1188.4068,-218.7921 1135,-201 1039.7522,-169.2689 1004.7658,-203.3864 912,-165 890.2304,-155.9918 889.8161,-145.034 869,-134 833.8813,-115.3846 790.5609,-100.6706 761.2767,-91.8168"/>
<polygon fill="#191970" stroke="#191970" points="762.1227,-88.4171 751.5404,-88.9327 760.1345,-95.1288 762.1227,-88.4171"/>
</g>
<!-- Node38&#45;&gt;Node12 -->
<g id="edge103" class="edge">
<title>Node38&#45;&gt;Node12</title>
<path fill="none" stroke="#191970" d="M1347.3572,-341.1986C1268.2805,-331.0282 1138.1152,-314.1549 1026,-299 1012.4232,-297.1648 997.9179,-295.1666 984.0219,-293.2338"/>
<polygon fill="#191970" stroke="#191970" points="984.4207,-289.7556 974.0332,-291.8413 983.4541,-296.6886 984.4207,-289.7556"/>
</g>
<!-- Node38&#45;&gt;Node17 -->
<g id="edge100" class="edge">
<title>Node38&#45;&gt;Node17</title>
<path fill="none" stroke="#191970" d="M1418.3487,-335.2681C1416.0133,-306.767 1414.5266,-244.3464 1440,-201 1447.3132,-188.5557 1458.9265,-178.172 1470.5554,-170.0649"/>
<polygon fill="#191970" stroke="#191970" points="1472.5099,-172.9688 1478.9646,-164.5672 1468.6794,-167.1098 1472.5099,-172.9688"/>
</g>
<!-- Node38&#45;&gt;Node18 -->
<g id="edge95" class="edge">
<title>Node38&#45;&gt;Node18</title>
<path fill="none" stroke="#191970" d="M1417.2072,-335.4574C1410.1447,-299.3618 1389.6289,-205.5281 1355,-134 1349.1769,-121.9721 1340.6835,-109.6629 1333.4087,-100.0958"/>
<polygon fill="#191970" stroke="#191970" points="1336.1111,-97.87 1327.182,-92.1673 1330.6059,-102.1936 1336.1111,-97.87"/>
</g>
<!-- Node38&#45;&gt;Node23 -->
<g id="edge128" class="edge">
<title>Node38&#45;&gt;Node23</title>
<path fill="none" stroke="#191970" d="M1457.0292,-335.4639C1481.0408,-325.7137 1512.5258,-312.9289 1538.2569,-302.4805"/>
<polygon fill="#191970" stroke="#191970" points="1539.8608,-305.6069 1547.8093,-298.6017 1537.2272,-299.1212 1539.8608,-305.6069"/>
</g>
<!-- Node38&#45;&gt;Node33 -->
<g id="edge129" class="edge">
<title>Node38&#45;&gt;Node33</title>
<path fill="none" stroke="#191970" d="M1349.2605,-335.4538C1231.2716,-310.3578 995.0182,-260.107 870.7132,-233.6676"/>
<polygon fill="#191970" stroke="#191970" points="871.3745,-230.23 860.8651,-231.5729 869.9181,-237.0768 871.3745,-230.23"/>
</g>
<!-- Node39 -->
<g id="node40" class="node">
<title>Node39</title>
<g id="a_node40"><a xlink:href="drake__deprecated_8h.html" target="_top" xlink:title="Provides a portable macro for use in generating compile&#45;time warnings for use of code that is permitt...">
<polygon fill="#ffffff" stroke="#000000" points="1975.5,-268.5 1975.5,-298.5 2096.5,-298.5 2096.5,-268.5 1975.5,-268.5"/>
<text text-anchor="start" x="1983.5" y="-286.5" font-family="Helvetica,sans-Serif" font-size="10.00" fill="#000000">drake/common/drake</text>
<text text-anchor="middle" x="2036" y="-275.5" font-family="Helvetica,sans-Serif" font-size="10.00" fill="#000000">_deprecated.h</text>
</a>
</g>
</g>
<!-- Node38&#45;&gt;Node39 -->
<g id="edge102" class="edge">
<title>Node38&#45;&gt;Node39</title>
<path fill="none" stroke="#191970" d="M1492.9364,-346.088C1597.1442,-339.2109 1794.4633,-324.0593 1961,-299 1962.2943,-298.8052 1963.5999,-298.6026 1964.9141,-298.3928"/>
<polygon fill="#191970" stroke="#191970" points="1965.8377,-301.7862 1975.1109,-296.6619 1964.6661,-294.8849 1965.8377,-301.7862"/>
</g>
<!-- Node40 -->
<g id="node41" class="node">
<title>Node40</title>
<g id="a_node41"><a xlink:href="basic__vector_8h.html" target="_top" xlink:title="drake/systems/framework\l/basic_vector.h">
<polygon fill="#ffffff" stroke="#000000" points="2366.5,-268.5 2366.5,-298.5 2511.5,-298.5 2511.5,-268.5 2366.5,-268.5"/>
<text text-anchor="start" x="2374.5" y="-286.5" font-family="Helvetica,sans-Serif" font-size="10.00" fill="#000000">drake/systems/framework</text>
<text text-anchor="middle" x="2439" y="-275.5" font-family="Helvetica,sans-Serif" font-size="10.00" fill="#000000">/basic_vector.h</text>
</a>
</g>
</g>
<!-- Node38&#45;&gt;Node40 -->
<g id="edge104" class="edge">
<title>Node38&#45;&gt;Node40</title>
<path fill="none" stroke="#191970" d="M1492.875,-345.7084C1677.2488,-333.5857 2161.3999,-301.7524 2356.1291,-288.9488"/>
<polygon fill="#191970" stroke="#191970" points="2356.5516,-292.4287 2366.3004,-288.2801 2356.0923,-285.4438 2356.5516,-292.4287"/>
</g>
<!-- Node40&#45;&gt;Node3 -->
<g id="edge109" class="edge">
<title>Node40&#45;&gt;Node3</title>
<path fill="none" stroke="#191970" d="M2431.4311,-268.0814C2415.2368,-236.9053 2374.0084,-166.5785 2317,-134 2225.2605,-81.5738 2186.4179,-114.1721 2082,-98 2062.2192,-94.9364 2040.221,-91.4956 2021.9943,-88.6355"/>
<polygon fill="#191970" stroke="#191970" points="2022.4419,-85.163 2012.02,-87.0693 2021.356,-92.0783 2022.4419,-85.163"/>
</g>
<!-- Node40&#45;&gt;Node6 -->
<g id="edge111" class="edge">
<title>Node40&#45;&gt;Node6</title>
<path fill="none" stroke="#191970" d="M2366.2323,-280.0531C2143.8903,-269.4808 1485.7552,-237.8727 1440,-232 1372.4784,-223.3336 1356.8812,-213.6954 1290,-201 1197.827,-183.5037 1169.4072,-199.0876 1082,-165 1030.7739,-145.0225 1022.4833,-130.3179 978,-98 960.3665,-85.189 959.8844,-75.9259 940,-67 888.8518,-44.04 723.4408,-25.6199 652.6426,-18.5836"/>
<polygon fill="#191970" stroke="#191970" points="652.8094,-15.0833 642.5156,-17.591 652.1264,-22.0499 652.8094,-15.0833"/>
</g>
<!-- Node40&#45;&gt;Node10 -->
<g id="edge105" class="edge">
<title>Node40&#45;&gt;Node10</title>
<path fill="none" stroke="#191970" d="M2366.2504,-279.9862C2298.7924,-276.7582 2195.6217,-271.8983 2106,-268 1710.495,-250.7965 1610.3748,-266.4774 1216,-232 1189.1456,-229.6523 1158.9457,-225.5242 1136.2344,-222.1182"/>
<polygon fill="#191970" stroke="#191970" points="1136.464,-218.6128 1126.0504,-220.5643 1135.4081,-225.5327 1136.464,-218.6128"/>
</g>
<!-- Node40&#45;&gt;Node16 -->
<g id="edge110" class="edge">
<title>Node40&#45;&gt;Node16</title>
<path fill="none" stroke="#191970" d="M2366.3481,-280.1485C2147.0267,-269.9931 1500.8498,-239.7813 1406,-232 1285.176,-222.0878 1255.7113,-212.2016 1135,-201 910.9486,-180.2088 848.8849,-217.1604 630,-165 627.36,-164.3709 624.6663,-163.5741 621.9966,-162.6754"/>
<polygon fill="#191970" stroke="#191970" points="623.1619,-159.374 612.5708,-159.0908 620.6736,-165.9169 623.1619,-159.374"/>
</g>
<!-- Node40&#45;&gt;Node19 -->
<g id="edge107" class="edge">
<title>Node40&#45;&gt;Node19</title>
<path fill="none" stroke="#191970" d="M2366.1995,-280.9723C2255.4884,-276.173 2050.7199,-263.2715 1985,-232 1928.8084,-205.2624 1938.7394,-165.3762 1885,-134 1841.5761,-108.6465 1784.8218,-95.0543 1747.2033,-88.3128"/>
<polygon fill="#191970" stroke="#191970" points="1747.5744,-84.8255 1737.1274,-86.5889 1746.3939,-91.7252 1747.5744,-84.8255"/>
</g>
<!-- Node40&#45;&gt;Node29 -->
<g id="edge108" class="edge">
<title>Node40&#45;&gt;Node29</title>
<path fill="none" stroke="#191970" d="M2473.1893,-268.4711C2487.9558,-260.045 2503.7206,-247.9734 2512,-232 2518.3403,-219.7678 2518.6986,-213.0397 2512,-201 2505.967,-190.1567 2479.7081,-174.881 2458.3192,-163.784"/>
<polygon fill="#191970" stroke="#191970" points="2459.7253,-160.5725 2449.225,-159.1599 2456.5526,-166.8122 2459.7253,-160.5725"/>
</g>
<!-- Node40&#45;&gt;Node30 -->
<g id="edge113" class="edge">
<title>Node40&#45;&gt;Node30</title>
<path fill="none" stroke="#191970" d="M2511.684,-279.2471C2580.4503,-273.5251 2676.5379,-260.5439 2700,-232 2719.9528,-207.7254 2687.3091,-184.532 2655.1576,-168.9544"/>
<polygon fill="#191970" stroke="#191970" points="2656.2464,-165.6014 2645.7018,-164.5703 2653.3019,-171.952 2656.2464,-165.6014"/>
</g>
<!-- Node41 -->
<g id="node42" class="node">
<title>Node41</title>
<polygon fill="#ffffff" stroke="#bfbfbf" points="2419.5,-207 2419.5,-226 2502.5,-226 2502.5,-207 2419.5,-207"/>
<text text-anchor="middle" x="2461" y="-214" font-family="Helvetica,sans-Serif" font-size="10.00" fill="#000000">initializer_list</text>
</g>
<!-- Node40&#45;&gt;Node41 -->
<g id="edge106" class="edge">
<title>Node40&#45;&gt;Node41</title>
<path fill="none" stroke="#191970" d="M2443.9921,-268.2967C2447.1536,-258.6685 2451.2702,-246.1318 2454.6615,-235.8038"/>
<polygon fill="#191970" stroke="#191970" points="2458.0681,-236.6478 2457.8625,-226.055 2451.4175,-234.464 2458.0681,-236.6478"/>
</g>
<!-- Node42 -->
<g id="node43" class="node">
<title>Node42</title>
<polygon fill="#ffffff" stroke="#bfbfbf" points="3066.5,-73 3066.5,-92 3143.5,-92 3143.5,-73 3066.5,-73"/>
<text text-anchor="middle" x="3105" y="-80" font-family="Helvetica,sans-Serif" font-size="10.00" fill="#000000">Eigen/Dense</text>
</g>
<!-- Node40&#45;&gt;Node42 -->
<g id="edge112" class="edge">
<title>Node40&#45;&gt;Node42</title>
<path fill="none" stroke="#191970" d="M2511.9229,-279.188C2630.9387,-271.617 2861.5369,-254.5702 2940,-232 3004.7555,-213.3729 3031.29,-215.4109 3076,-165 3091.7671,-147.2224 3099.0947,-120.3446 3102.4087,-102.1394"/>
<polygon fill="#191970" stroke="#191970" points="3105.8939,-102.5066 3103.993,-92.0837 3098.9792,-101.4171 3105.8939,-102.5066"/>
</g>
<!-- Node43 -->
<g id="node44" class="node">
<title>Node43</title>
<g id="a_node44"><a xlink:href="dummy__value_8h.html" target="_top" xlink:title="drake/common/dummy\l_value.h">
<polygon fill="#ffffff" stroke="#000000" points="2559.5,-201.5 2559.5,-231.5 2690.5,-231.5 2690.5,-201.5 2559.5,-201.5"/>
<text text-anchor="start" x="2567.5" y="-219.5" font-family="Helvetica,sans-Serif" font-size="10.00" fill="#000000">drake/common/dummy</text>
<text text-anchor="middle" x="2625" y="-208.5" font-family="Helvetica,sans-Serif" font-size="10.00" fill="#000000">_value.h</text>
</a>
</g>
</g>
<!-- Node40&#45;&gt;Node43 -->
<g id="edge114" class="edge">
<title>Node40&#45;&gt;Node43</title>
<path fill="none" stroke="#191970" d="M2480.742,-268.4639C2508.1674,-258.5849 2544.2414,-245.5905 2573.4544,-235.0675"/>
<polygon fill="#191970" stroke="#191970" points="2574.8538,-238.2836 2583.0759,-231.6017 2572.4815,-231.6979 2574.8538,-238.2836"/>
</g>
<!-- Node44 -->
<g id="node45" class="node">
<title>Node44</title>
<g id="a_node45"><a xlink:href="vector__base_8h.html" target="_top" xlink:title="drake/systems/framework\l/vector_base.h">
<polygon fill="#ffffff" stroke="#000000" points="2785.5,-201.5 2785.5,-231.5 2930.5,-231.5 2930.5,-201.5 2785.5,-201.5"/>
<text text-anchor="start" x="2793.5" y="-219.5" font-family="Helvetica,sans-Serif" font-size="10.00" fill="#000000">drake/systems/framework</text>
<text text-anchor="middle" x="2858" y="-208.5" font-family="Helvetica,sans-Serif" font-size="10.00" fill="#000000">/vector_base.h</text>
</a>
</g>
</g>
<!-- Node40&#45;&gt;Node44 -->
<g id="edge116" class="edge">
<title>Node40&#45;&gt;Node44</title>
<path fill="none" stroke="#191970" d="M2511.5059,-271.906C2584.9185,-260.167 2698.2967,-242.0373 2775.1986,-229.7403"/>
<polygon fill="#191970" stroke="#191970" points="2776.0075,-233.1555 2785.3293,-228.1204 2774.9021,-226.2433 2776.0075,-233.1555"/>
</g>
<!-- Node43&#45;&gt;Node29 -->
<g id="edge115" class="edge">
<title>Node43&#45;&gt;Node29</title>
<path fill="none" stroke="#191970" d="M2574.1326,-201.4818C2542.4759,-191.8021 2501.0638,-178.5327 2465,-165 2463.1843,-164.3187 2461.3267,-163.5969 2459.459,-162.8522"/>
<polygon fill="#191970" stroke="#191970" points="2460.7627,-159.6039 2450.184,-159.0181 2458.0884,-166.073 2460.7627,-159.6039"/>
</g>
<!-- Node44&#45;&gt;Node3 -->
<g id="edge118" class="edge">
<title>Node44&#45;&gt;Node3</title>
<path fill="none" stroke="#191970" d="M2785.3912,-203.4315C2780.5231,-202.5962 2775.6918,-201.7787 2771,-201 2667.1966,-183.7707 2634.5916,-204.343 2537,-165 2514.8134,-156.0557 2515.4667,-142.2155 2493,-134 2320.7867,-71.0262 2264.0179,-120.1945 2082,-98 2062.2756,-95.5949 2040.4445,-92.2504 2022.3131,-89.2836"/>
<polygon fill="#191970" stroke="#191970" points="2022.822,-85.8203 2012.3841,-87.6367 2021.6765,-92.7259 2022.822,-85.8203"/>
</g>
<!-- Node44&#45;&gt;Node6 -->
<g id="edge119" class="edge">
<title>Node44&#45;&gt;Node6</title>
<path fill="none" stroke="#191970" d="M2785.3299,-208.2317C2758.5429,-205.4846 2727.9242,-202.6967 2700,-201 2530.7095,-190.7135 1339.5379,-201.9093 1174,-165 1101.9421,-148.9336 1086.2707,-134.3284 1022,-98 1001.1749,-86.2288 1000.2301,-75.8358 978,-67 918.9252,-43.5196 729.347,-24.9652 652.6568,-18.2331"/>
<polygon fill="#191970" stroke="#191970" points="652.8749,-14.739 642.61,-17.3623 652.2704,-21.7128 652.8749,-14.739"/>
</g>
<!-- Node44&#45;&gt;Node7 -->
<g id="edge121" class="edge">
<title>Node44&#45;&gt;Node7</title>
<path fill="none" stroke="#191970" d="M2844.2308,-201.4704C2825.8414,-180.2694 2794.1684,-139.513 2782,-98 2778.1245,-84.7785 2778.1272,-80.2223 2782,-67 2784.9243,-57.0161 2790.4433,-47.1314 2796.1428,-38.7322"/>
<polygon fill="#191970" stroke="#191970" points="2799.0188,-40.7281 2802.0465,-30.5751 2793.3481,-36.624 2799.0188,-40.7281"/>
</g>
<!-- Node44&#45;&gt;Node9 -->
<g id="edge117" class="edge">
<title>Node44&#45;&gt;Node9</title>
<path fill="none" stroke="#191970" d="M2826.3568,-201.4639C2802.3792,-190.0702 2769.6807,-174.5327 2746.2983,-163.4219"/>
<polygon fill="#191970" stroke="#191970" points="2747.7456,-160.2346 2737.2112,-159.1039 2744.7412,-166.5571 2747.7456,-160.2346"/>
</g>
<!-- Node44&#45;&gt;Node30 -->
<g id="edge122" class="edge">
<title>Node44&#45;&gt;Node30</title>
<path fill="none" stroke="#191970" d="M2801.4463,-201.4639C2763.2393,-191.3057 2712.643,-177.8535 2672.5032,-167.1814"/>
<polygon fill="#191970" stroke="#191970" points="2673.364,-163.7887 2662.8004,-164.6017 2671.5653,-170.5537 2673.364,-163.7887"/>
</g>
<!-- Node44&#45;&gt;Node42 -->
<g id="edge120" class="edge">
<title>Node44&#45;&gt;Node42</title>
<path fill="none" stroke="#191970" d="M2930.7702,-208.8934C2968.4738,-202.1056 3013.6761,-189.2689 3048,-165 3071.014,-148.7278 3087.7167,-120.0403 3096.8861,-101.1494"/>
<polygon fill="#191970" stroke="#191970" points="3100.0768,-102.5883 3101.0929,-92.0423 3093.722,-99.6528 3100.0768,-102.5883"/>
</g>
<!-- Node45 -->
<g id="node46" class="node">
<title>Node45</title>
<g id="a_node46"><a xlink:href="eigen__types_8h.html" target="_top" xlink:title="This file contains abbreviated definitions for certain specializations of Eigen::Matrix that are comm...">
<polygon fill="#ffffff" stroke="#000000" points="2919,-134.5 2919,-164.5 3039,-164.5 3039,-134.5 2919,-134.5"/>
<text text-anchor="start" x="2927" y="-152.5" font-family="Helvetica,sans-Serif" font-size="10.00" fill="#000000">drake/common/eigen</text>
<text text-anchor="middle" x="2979" y="-141.5" font-family="Helvetica,sans-Serif" font-size="10.00" fill="#000000">_types.h</text>
</a>
</g>
</g>
<!-- Node44&#45;&gt;Node45 -->
<g id="edge123" class="edge">
<title>Node44&#45;&gt;Node45</title>
<path fill="none" stroke="#191970" d="M2885.1548,-201.4639C2902.0831,-192.0903 2924.0767,-179.9121 2942.5168,-169.7015"/>
<polygon fill="#191970" stroke="#191970" points="2944.4643,-172.6239 2951.5172,-164.7177 2941.0734,-166.5 2944.4643,-172.6239"/>
</g>
<!-- Node45&#45;&gt;Node3 -->
<g id="edge124" class="edge">
<title>Node45&#45;&gt;Node3</title>
<path fill="none" stroke="#191970" d="M2918.9868,-145.0171C2874.5474,-141.7641 2812.5128,-137.3629 2758,-134 2457.7007,-115.4743 2381.2366,-129.3103 2082,-98 2062.2374,-95.9322 2040.4022,-92.624 2022.2779,-89.594"/>
<polygon fill="#191970" stroke="#191970" points="2022.8002,-86.1326 2012.3541,-87.9014 2021.6232,-93.0329 2022.8002,-86.1326"/>
</g>
<!-- Node45&#45;&gt;Node7 -->
<g id="edge127" class="edge">
<title>Node45&#45;&gt;Node7</title>
<path fill="none" stroke="#191970" d="M2996.0611,-134.4677C3013.7031,-117.097 3036.5241,-88.1887 3020,-67 3003.3842,-45.6937 2938.0516,-31.8586 2885.547,-23.9495"/>
<polygon fill="#191970" stroke="#191970" points="2885.9724,-20.4745 2875.5717,-22.4937 2884.9615,-27.4012 2885.9724,-20.4745"/>
</g>
<!-- Node45&#45;&gt;Node42 -->
<g id="edge125" class="edge">
<title>Node45&#45;&gt;Node42</title>
<path fill="none" stroke="#191970" d="M3007.2769,-134.4639C3028.418,-123.2222 3057.1458,-107.9463 3077.9784,-96.8686"/>
<polygon fill="#191970" stroke="#191970" points="3079.7528,-99.8892 3086.9389,-92.1039 3076.4663,-93.7087 3079.7528,-99.8892"/>
</g>
<!-- Node46 -->
<g id="node47" class="node">
<title>Node46</title>
<g id="a_node47"><a xlink:href="constants_8h.html" target="_top" xlink:title="drake/common/constants.h">
<polygon fill="#ffffff" stroke="#000000" points="2861.5,-73 2861.5,-92 3010.5,-92 3010.5,-73 2861.5,-73"/>
<text text-anchor="middle" x="2936" y="-80" font-family="Helvetica,sans-Serif" font-size="10.00" fill="#000000">drake/common/constants.h</text>
</a>
</g>
</g>
<!-- Node45&#45;&gt;Node46 -->
<g id="edge126" class="edge">
<title>Node45&#45;&gt;Node46</title>
<path fill="none" stroke="#191970" d="M2969.2426,-134.2967C2962.8032,-124.2631 2954.3365,-111.0709 2947.5595,-100.5113"/>
<polygon fill="#191970" stroke="#191970" points="2950.4791,-98.5804 2942.1323,-92.055 2944.588,-102.3613 2950.4791,-98.5804"/>
</g>
</g>
</svg>
