<?xml version="1.0" encoding="UTF-8" standalone="no"?>
<!DOCTYPE svg PUBLIC "-//W3C//DTD SVG 1.1//EN"
 "http://www.w3.org/Graphics/SVG/1.1/DTD/svg11.dtd">
<!-- Generated by graphviz version 2.40.1 (20161225.0304)
 -->
<!-- Title: drake/systems/framework/cache_entry.cc Pages: 1 -->
<svg width="3319pt" height="642pt"
 viewBox="0.00 0.00 3318.60 642.00" xmlns="http://www.w3.org/2000/svg" xmlns:xlink="http://www.w3.org/1999/xlink">
<g id="graph0" class="graph" transform="scale(1 1) rotate(0) translate(4 638)">
<title>drake/systems/framework/cache_entry.cc</title>
<polygon fill="#ffffff" stroke="transparent" points="-4,4 -4,-638 3314.5993,-638 3314.5993,4 -4,4"/>
<!-- Node0 -->
<g id="node1" class="node">
<title>Node0</title>
<polygon fill="#bfbfbf" stroke="#000000" points="2486.5,-603.5 2486.5,-633.5 2631.5,-633.5 2631.5,-603.5 2486.5,-603.5"/>
<text text-anchor="start" x="2494.5" y="-621.5" font-family="Helvetica,sans-Serif" font-size="10.00" fill="#000000">drake/systems/framework</text>
<text text-anchor="middle" x="2559" y="-610.5" font-family="Helvetica,sans-Serif" font-size="10.00" fill="#000000">/cache_entry.cc</text>
</g>
<!-- Node1 -->
<g id="node2" class="node">
<title>Node1</title>
<g id="a_node2"><a xlink:href="cache__entry_8h.html" target="_top" xlink:title="drake/systems/framework\l/cache_entry.h">
<polygon fill="#ffffff" stroke="#000000" points="1621.5,-536.5 1621.5,-566.5 1766.5,-566.5 1766.5,-536.5 1621.5,-536.5"/>
<text text-anchor="start" x="1629.5" y="-554.5" font-family="Helvetica,sans-Serif" font-size="10.00" fill="#000000">drake/systems/framework</text>
<text text-anchor="middle" x="1694" y="-543.5" font-family="Helvetica,sans-Serif" font-size="10.00" fill="#000000">/cache_entry.h</text>
</a>
</g>
</g>
<!-- Node0&#45;&gt;Node1 -->
<g id="edge1" class="edge">
<title>Node0&#45;&gt;Node1</title>
<path fill="none" stroke="#191970" d="M2486.3676,-612.8741C2326.5557,-600.4956 1945.2847,-570.9637 1776.6488,-557.9017"/>
<polygon fill="#191970" stroke="#191970" points="1776.8243,-554.4049 1766.5838,-557.1221 1776.2836,-561.384 1776.8243,-554.4049"/>
</g>
<!-- Node3 -->
<g id="node4" class="node">
<title>Node3</title>
<polygon fill="#ffffff" stroke="#bfbfbf" points="1932,-73 1932,-92 1990,-92 1990,-73 1932,-73"/>
<text text-anchor="middle" x="1961" y="-80" font-family="Helvetica,sans-Serif" font-size="10.00" fill="#000000">memory</text>
</g>
<!-- Node0&#45;&gt;Node3 -->
<g id="edge132" class="edge">
<title>Node0&#45;&gt;Node3</title>
<path fill="none" stroke="#191970" d="M2631.587,-610.1276C2750.3205,-594.3892 2973,-555.419 2973,-484.5 2973,-484.5 2973,-484.5 2973,-350.5 2973,-270.4102 2727.8836,-213.3039 2664,-165 2647.9488,-152.8634 2649.4732,-141.9798 2631,-134 2511.229,-82.2628 2174.4994,-113.8664 2045,-98 2030.1943,-96.186 2014.0553,-93.4046 1999.9165,-90.696"/>
<polygon fill="#191970" stroke="#191970" points="2000.5096,-87.2457 1990.0224,-88.7515 1999.1597,-94.1143 2000.5096,-87.2457"/>
</g>
<!-- Node20 -->
<g id="node21" class="node">
<title>Node20</title>
<g id="a_node21"><a xlink:href="drake__assert_8h.html" target="_top" xlink:title="Provides Drake&#39;s assertion implementation. ">
<polygon fill="#ffffff" stroke="#000000" points="2139.5,-67.5 2139.5,-97.5 2260.5,-97.5 2260.5,-67.5 2139.5,-67.5"/>
<text text-anchor="start" x="2147.5" y="-85.5" font-family="Helvetica,sans-Serif" font-size="10.00" fill="#000000">drake/common/drake</text>
<text text-anchor="middle" x="2200" y="-74.5" font-family="Helvetica,sans-Serif" font-size="10.00" fill="#000000">_assert.h</text>
</a>
</g>
</g>
<!-- Node0&#45;&gt;Node20 -->
<g id="edge134" class="edge">
<title>Node0&#45;&gt;Node20</title>
<path fill="none" stroke="#191970" d="M2631.6959,-616.5736C2737.6163,-612.6332 2928.1617,-600.9264 2987,-567 3026.7346,-544.0889 3049,-530.3667 3049,-484.5 3049,-484.5 3049,-484.5 3049,-283.5 3049,-183.8817 2977.7274,-161.5694 2882,-134 2768.7876,-101.395 2421.297,-88.3932 2270.7593,-84.1949"/>
<polygon fill="#191970" stroke="#191970" points="2270.7919,-80.6946 2260.6997,-83.9193 2270.6001,-87.6919 2270.7919,-80.6946"/>
</g>
<!-- Node30 -->
<g id="node31" class="node">
<title>Node30</title>
<g id="a_node31"><a xlink:href="nice__type__name_8h.html" target="_top" xlink:title="drake/common/nice_type\l_name.h">
<polygon fill="#ffffff" stroke="#000000" points="796,-134.5 796,-164.5 936,-164.5 936,-134.5 796,-134.5"/>
<text text-anchor="start" x="804" y="-152.5" font-family="Helvetica,sans-Serif" font-size="10.00" fill="#000000">drake/common/nice_type</text>
<text text-anchor="middle" x="866" y="-141.5" font-family="Helvetica,sans-Serif" font-size="10.00" fill="#000000">_name.h</text>
</a>
</g>
</g>
<!-- Node0&#45;&gt;Node30 -->
<g id="edge135" class="edge">
<title>Node0&#45;&gt;Node30</title>
<path fill="none" stroke="#191970" d="M2486.482,-618.2819C2088.7465,-616.6215 190,-602.515 190,-484.5 190,-484.5 190,-484.5 190,-350.5 190,-305.9329 209.6646,-292.337 247,-268 334.9475,-210.6716 638.8513,-172.7055 785.5387,-157.286"/>
<polygon fill="#191970" stroke="#191970" points="786.2398,-160.732 795.8234,-156.2148 785.5146,-153.7697 786.2398,-160.732"/>
</g>
<!-- Node31 -->
<g id="node32" class="node">
<title>Node31</title>
<polygon fill="#ffffff" stroke="#bfbfbf" points="715.5,-73 715.5,-92 772.5,-92 772.5,-73 715.5,-73"/>
<text text-anchor="middle" x="744" y="-80" font-family="Helvetica,sans-Serif" font-size="10.00" fill="#000000">typeinfo</text>
</g>
<!-- Node0&#45;&gt;Node31 -->
<g id="edge133" class="edge">
<title>Node0&#45;&gt;Node31</title>
<path fill="none" stroke="#191970" d="M2486.3024,-617.7714C2128.6397,-614.0568 564.3401,-596.2539 349,-567 207.2987,-547.7499 38,-627.5029 38,-484.5 38,-484.5 38,-484.5 38,-283.5 38,-143.6301 557.064,-95.8439 705.0506,-85.0622"/>
<polygon fill="#191970" stroke="#191970" points="705.7236,-88.5232 715.4496,-84.3214 705.2261,-81.5409 705.7236,-88.5232"/>
</g>
<!-- Node46 -->
<g id="node47" class="node">
<title>Node46</title>
<polygon fill="#ffffff" stroke="#bfbfbf" points="3077.5,-542 3077.5,-561 3142.5,-561 3142.5,-542 3077.5,-542"/>
<text text-anchor="middle" x="3110" y="-549" font-family="Helvetica,sans-Serif" font-size="10.00" fill="#000000">exception</text>
</g>
<!-- Node0&#45;&gt;Node46 -->
<g id="edge131" class="edge">
<title>Node0&#45;&gt;Node46</title>
<path fill="none" stroke="#191970" d="M2631.5406,-616.0181C2730.1595,-611.5287 2911.6052,-599.2991 3063,-567 3066.8601,-566.1765 3070.8482,-565.1494 3074.7942,-564.0184"/>
<polygon fill="#191970" stroke="#191970" points="3075.895,-567.3416 3084.4189,-561.0494 3073.8315,-560.6526 3075.895,-567.3416"/>
</g>
<!-- Node2 -->
<g id="node3" class="node">
<title>Node2</title>
<polygon fill="#ffffff" stroke="#bfbfbf" points="2312.5,-140 2312.5,-159 2377.5,-159 2377.5,-140 2312.5,-140"/>
<text text-anchor="middle" x="2345" y="-147" font-family="Helvetica,sans-Serif" font-size="10.00" fill="#000000">functional</text>
</g>
<!-- Node1&#45;&gt;Node2 -->
<g id="edge2" class="edge">
<title>Node1&#45;&gt;Node2</title>
<path fill="none" stroke="#191970" d="M1766.5843,-548.3632C1932.075,-540.8609 2324.5973,-520.9408 2344,-500 2431.6023,-405.4534 2374.9235,-227.4104 2352.7494,-168.7691"/>
<polygon fill="#191970" stroke="#191970" points="2355.9373,-167.3095 2349.0531,-159.256 2349.4125,-169.8448 2355.9373,-167.3095"/>
</g>
<!-- Node1&#45;&gt;Node3 -->
<g id="edge3" class="edge">
<title>Node1&#45;&gt;Node3</title>
<path fill="none" stroke="#191970" d="M1766.9078,-546.4076C1878.5399,-538.1036 2086.4123,-520.4992 2158,-500 2239.5074,-476.6603 2330,-502.2832 2330,-417.5 2330,-417.5 2330,-417.5 2330,-350.5 2330,-225.93 2170.9695,-312.6131 2076,-232 2035.7756,-197.8562 2041.9691,-175.1928 2009,-134 1999.3579,-121.9528 1987.5519,-109.2627 1978.0615,-99.4939"/>
<polygon fill="#191970" stroke="#191970" points="1980.542,-97.0246 1971.0323,-92.3538 1975.5537,-101.9355 1980.542,-97.0246"/>
</g>
<!-- Node4 -->
<g id="node5" class="node">
<title>Node4</title>
<polygon fill="#ffffff" stroke="#bfbfbf" points="446,-274 446,-293 478,-293 478,-274 446,-274"/>
<text text-anchor="middle" x="462" y="-281" font-family="Helvetica,sans-Serif" font-size="10.00" fill="#000000">set</text>
</g>
<!-- Node1&#45;&gt;Node4 -->
<g id="edge4" class="edge">
<title>Node1&#45;&gt;Node4</title>
<path fill="none" stroke="#191970" d="M1621.176,-548.4048C1521.1739,-543.1999 1336.0838,-530.1398 1181,-500 867.8719,-439.1451 788.1877,-417.4285 492,-299 490.5711,-298.4287 489.1198,-297.8115 487.6657,-297.164"/>
<polygon fill="#191970" stroke="#191970" points="488.7647,-293.808 478.2375,-292.6128 485.7216,-300.112 488.7647,-293.808"/>
</g>
<!-- Node5 -->
<g id="node6" class="node">
<title>Node5</title>
<polygon fill="#ffffff" stroke="#bfbfbf" points="371,-73 371,-92 415,-92 415,-73 371,-73"/>
<text text-anchor="middle" x="393" y="-80" font-family="Helvetica,sans-Serif" font-size="10.00" fill="#000000">string</text>
</g>
<!-- Node1&#45;&gt;Node5 -->
<g id="edge5" class="edge">
<title>Node1&#45;&gt;Node5</title>
<path fill="none" stroke="#191970" d="M1621.4934,-550.2806C1389.7008,-546.1067 668.3724,-530.9107 437,-500 273.8685,-478.2061 76,-582.0809 76,-417.5 76,-417.5 76,-417.5 76,-350.5 76,-202.0838 281.1487,-119.0196 361.378,-92.2097"/>
<polygon fill="#191970" stroke="#191970" points="362.543,-95.5112 370.9609,-89.0777 360.3683,-88.8575 362.543,-95.5112"/>
</g>
<!-- Node6 -->
<g id="node7" class="node">
<title>Node6</title>
<polygon fill="#ffffff" stroke="#bfbfbf" points="714.5,-6 714.5,-25 759.5,-25 759.5,-6 714.5,-6"/>
<text text-anchor="middle" x="737" y="-13" font-family="Helvetica,sans-Serif" font-size="10.00" fill="#000000">utility</text>
</g>
<!-- Node1&#45;&gt;Node6 -->
<g id="edge6" class="edge">
<title>Node1&#45;&gt;Node6</title>
<path fill="none" stroke="#191970" d="M1621.3612,-550.6591C1316.7005,-546.9425 154.4049,-530.7946 83,-500 35.2403,-479.4028 0,-469.5119 0,-417.5 0,-417.5 0,-417.5 0,-149.5 0,-74.1929 76.0092,-89.1017 148,-67 253.3042,-34.6708 596.0465,-20.3512 704.0746,-16.5673"/>
<polygon fill="#191970" stroke="#191970" points="704.4811,-20.0555 714.3551,-16.2144 704.2409,-13.0596 704.4811,-20.0555"/>
</g>
<!-- Node7 -->
<g id="node8" class="node">
<title>Node7</title>
<g id="a_node8"><a xlink:href="drake__copyable_8h.html" target="_top" xlink:title="Provides careful macros to selectively enable or disable the special member functions for copy&#45;constr...">
<polygon fill="#ffffff" stroke="#000000" points="2881.5,-.5 2881.5,-30.5 3002.5,-30.5 3002.5,-.5 2881.5,-.5"/>
<text text-anchor="start" x="2889.5" y="-18.5" font-family="Helvetica,sans-Serif" font-size="10.00" fill="#000000">drake/common/drake</text>
<text text-anchor="middle" x="2942" y="-7.5" font-family="Helvetica,sans-Serif" font-size="10.00" fill="#000000">_copyable.h</text>
</a>
</g>
</g>
<!-- Node1&#45;&gt;Node7 -->
<g id="edge7" class="edge">
<title>Node1&#45;&gt;Node7</title>
<path fill="none" stroke="#191970" d="M1766.5774,-548.3066C1916.2699,-541.3349 2254.7398,-523.4781 2368,-500 2782.258,-414.127 2958.2535,-462.5491 3259,-165 3292.4424,-131.9131 3329.7989,-102.5607 3299,-67 3280.5633,-45.7129 3111.7685,-28.9135 3013.0235,-20.8055"/>
<polygon fill="#191970" stroke="#191970" points="3013.0632,-17.2973 3002.813,-19.9775 3012.4973,-24.2744 3013.0632,-17.2973"/>
</g>
<!-- Node8 -->
<g id="node9" class="node">
<title>Node8</title>
<g id="a_node9"><a xlink:href="context__base_8h.html" target="_top" xlink:title="drake/systems/framework\l/context_base.h">
<polygon fill="#ffffff" stroke="#000000" points="1189.5,-469.5 1189.5,-499.5 1334.5,-499.5 1334.5,-469.5 1189.5,-469.5"/>
<text text-anchor="start" x="1197.5" y="-487.5" font-family="Helvetica,sans-Serif" font-size="10.00" fill="#000000">drake/systems/framework</text>
<text text-anchor="middle" x="1262" y="-476.5" font-family="Helvetica,sans-Serif" font-size="10.00" fill="#000000">/context_base.h</text>
</a>
</g>
</g>
<!-- Node1&#45;&gt;Node8 -->
<g id="edge8" class="edge">
<title>Node1&#45;&gt;Node8</title>
<path fill="none" stroke="#191970" d="M1621.2056,-540.2101C1544.7618,-528.3543 1424.7647,-509.7436 1344.77,-497.337"/>
<polygon fill="#191970" stroke="#191970" points="1345.1503,-493.8542 1334.732,-495.7802 1344.0774,-500.7715 1345.1503,-493.8542"/>
</g>
<!-- Node23 -->
<g id="node24" class="node">
<title>Node23</title>
<g id="a_node24"><a xlink:href="framework__common_8h.html" target="_top" xlink:title="drake/systems/framework\l/framework_common.h">
<polygon fill="#ffffff" stroke="#000000" points="1628.5,-268.5 1628.5,-298.5 1773.5,-298.5 1773.5,-268.5 1628.5,-268.5"/>
<text text-anchor="start" x="1636.5" y="-286.5" font-family="Helvetica,sans-Serif" font-size="10.00" fill="#000000">drake/systems/framework</text>
<text text-anchor="middle" x="1701" y="-275.5" font-family="Helvetica,sans-Serif" font-size="10.00" fill="#000000">/framework_common.h</text>
</a>
</g>
</g>
<!-- Node1&#45;&gt;Node23 -->
<g id="edge129" class="edge">
<title>Node1&#45;&gt;Node23</title>
<path fill="none" stroke="#191970" d="M1766.7884,-547.3989C1944.176,-534.9314 2374.3783,-488.3994 2235,-335 2206.8515,-304.0198 1901.6637,-303.0306 1860,-299 1835.2515,-296.6058 1808.3378,-293.9876 1783.8103,-291.596"/>
<polygon fill="#191970" stroke="#191970" points="1784.1126,-288.1089 1773.82,-290.6215 1783.4329,-295.0759 1784.1126,-288.1089"/>
</g>
<!-- Node32 -->
<g id="node33" class="node">
<title>Node32</title>
<g id="a_node33"><a xlink:href="value_8h.html" target="_top" xlink:title="drake/systems/framework\l/value.h">
<polygon fill="#ffffff" stroke="#000000" points="824.5,-201.5 824.5,-231.5 969.5,-231.5 969.5,-201.5 824.5,-201.5"/>
<text text-anchor="start" x="832.5" y="-219.5" font-family="Helvetica,sans-Serif" font-size="10.00" fill="#000000">drake/systems/framework</text>
<text text-anchor="middle" x="897" y="-208.5" font-family="Helvetica,sans-Serif" font-size="10.00" fill="#000000">/value.h</text>
</a>
</g>
</g>
<!-- Node1&#45;&gt;Node32 -->
<g id="edge130" class="edge">
<title>Node1&#45;&gt;Node32</title>
<path fill="none" stroke="#191970" d="M1621.3008,-548.7104C1325.4923,-536.8891 228,-488.2623 228,-417.5 228,-417.5 228,-417.5 228,-350.5 228,-254.7563 334.2582,-291.7869 427,-268 498.1044,-249.7628 699.2624,-231.871 814.0466,-222.7436"/>
<polygon fill="#191970" stroke="#191970" points="814.5044,-226.2184 824.1975,-221.9413 813.9528,-219.2401 814.5044,-226.2184"/>
</g>
<!-- Node8&#45;&gt;Node2 -->
<g id="edge11" class="edge">
<title>Node8&#45;&gt;Node2</title>
<path fill="none" stroke="#191970" d="M1334.7252,-481.5395C1496.4574,-474.623 1881.753,-456.2151 2010,-433 2112.6708,-414.4147 2154.8657,-432.8223 2235,-366 2299.2026,-312.4628 2329.9404,-211.9789 2340.5373,-169.3894"/>
<polygon fill="#191970" stroke="#191970" points="2343.9963,-169.9721 2342.9051,-159.4336 2337.1862,-168.3524 2343.9963,-169.9721"/>
</g>
<!-- Node8&#45;&gt;Node3 -->
<g id="edge12" class="edge">
<title>Node8&#45;&gt;Node3</title>
<path fill="none" stroke="#191970" d="M1334.7277,-477.6729C1504.7331,-460.0208 1919.7554,-406.5498 1999,-299 2013.0044,-279.9934 2040.1551,-296.6124 1991,-134 1987.4072,-122.1143 1980.5908,-110.0556 1974.3624,-100.5976"/>
<polygon fill="#191970" stroke="#191970" points="1977.0483,-98.3289 1968.4712,-92.1092 1971.2976,-102.3201 1977.0483,-98.3289"/>
</g>
<!-- Node8&#45;&gt;Node5 -->
<g id="edge13" class="edge">
<title>Node8&#45;&gt;Node5</title>
<path fill="none" stroke="#191970" d="M1189.2867,-481.7601C1033.8541,-475.4878 673.682,-458.6232 554,-433 468.8979,-414.7802 432.7666,-426.2883 370,-366 293.5004,-292.5209 263.4682,-227.2625 314,-134 324.0687,-115.4169 344.0717,-102.4797 361.4293,-94.2198"/>
<polygon fill="#191970" stroke="#191970" points="362.9936,-97.355 370.7204,-90.106 360.1596,-90.9543 362.9936,-97.355"/>
</g>
<!-- Node8&#45;&gt;Node6 -->
<g id="edge14" class="edge">
<title>Node8&#45;&gt;Node6</title>
<path fill="none" stroke="#191970" d="M1189.2867,-481.7601C1033.8541,-475.4878 673.682,-458.6232 554,-433 468.8979,-414.7802 451.7516,-395.8496 370,-366 288.6406,-336.2936 253.3954,-354.6191 187,-299 160.5875,-276.8744 159.4141,-264.5097 148,-232 122.9678,-160.7033 122.9397,-103.6861 189,-67 234.0728,-41.9691 592.6064,-22.5411 704.0598,-17.0583"/>
<polygon fill="#191970" stroke="#191970" points="704.5334,-20.5395 714.3513,-16.5573 704.1929,-13.5478 704.5334,-20.5395"/>
</g>
<!-- Node9 -->
<g id="node10" class="node">
<title>Node9</title>
<polygon fill="#ffffff" stroke="#bfbfbf" points="2558,-140 2558,-159 2622,-159 2622,-140 2558,-140"/>
<text text-anchor="middle" x="2590" y="-147" font-family="Helvetica,sans-Serif" font-size="10.00" fill="#000000">algorithm</text>
</g>
<!-- Node8&#45;&gt;Node9 -->
<g id="edge9" class="edge">
<title>Node8&#45;&gt;Node9</title>
<path fill="none" stroke="#191970" d="M1334.5706,-482.2312C1511.3007,-476.3597 1960.32,-459.2673 2108,-433 2378.6708,-384.8567 2547.1055,-465.0134 2693,-232 2700.3116,-220.3224 2700.2434,-212.7201 2693,-201 2685.2771,-188.504 2652.4804,-173.3842 2625.9412,-162.7705"/>
<polygon fill="#191970" stroke="#191970" points="2627.0926,-159.4627 2616.5048,-159.0773 2624.5413,-165.9812 2627.0926,-159.4627"/>
</g>
<!-- Node10 -->
<g id="node11" class="node">
<title>Node10</title>
<polygon fill="#ffffff" stroke="#bfbfbf" points="1292,-207 1292,-226 1342,-226 1342,-207 1292,-207"/>
<text text-anchor="middle" x="1317" y="-214" font-family="Helvetica,sans-Serif" font-size="10.00" fill="#000000">cstdint</text>
</g>
<!-- Node8&#45;&gt;Node10 -->
<g id="edge10" class="edge">
<title>Node8&#45;&gt;Node10</title>
<path fill="none" stroke="#191970" d="M1265.1146,-469.3233C1274.4948,-423.6161 1302.4746,-287.2783 1312.9666,-236.1539"/>
<polygon fill="#191970" stroke="#191970" points="1316.4495,-236.592 1315.0314,-226.0926 1309.5924,-235.1848 1316.4495,-236.592"/>
</g>
<!-- Node11 -->
<g id="node12" class="node">
<title>Node11</title>
<polygon fill="#ffffff" stroke="#bfbfbf" points="790.5,-73 790.5,-92 837.5,-92 837.5,-73 790.5,-73"/>
<text text-anchor="middle" x="814" y="-80" font-family="Helvetica,sans-Serif" font-size="10.00" fill="#000000">vector</text>
</g>
<!-- Node8&#45;&gt;Node11 -->
<g id="edge15" class="edge">
<title>Node8&#45;&gt;Node11</title>
<path fill="none" stroke="#191970" d="M1189.4289,-480.6413C1052.6256,-472.9736 761.497,-454.6762 663,-433 577.5953,-414.205 556.8802,-403.7509 478,-366 414.2305,-335.4808 342,-354.1964 342,-283.5 342,-283.5 342,-283.5 342,-216.5 342,-14.4057 587.5951,-156.6231 781,-98 782.9081,-97.4216 784.8463,-96.7509 786.7782,-96.0193"/>
<polygon fill="#191970" stroke="#191970" points="788.3885,-99.1378 796.2181,-92 785.6463,-92.6973 788.3885,-99.1378"/>
</g>
<!-- Node12 -->
<g id="node13" class="node">
<title>Node12</title>
<g id="a_node13"><a xlink:href="reset__on__copy_8h.html" target="_top" xlink:title="drake/common/reset\l_on_copy.h">
<polygon fill="#ffffff" stroke="#000000" points="1133,-268.5 1133,-298.5 1251,-298.5 1251,-268.5 1133,-268.5"/>
<text text-anchor="start" x="1141" y="-286.5" font-family="Helvetica,sans-Serif" font-size="10.00" fill="#000000">drake/common/reset</text>
<text text-anchor="middle" x="1192" y="-275.5" font-family="Helvetica,sans-Serif" font-size="10.00" fill="#000000">_on_copy.h</text>
</a>
</g>
</g>
<!-- Node8&#45;&gt;Node12 -->
<g id="edge16" class="edge">
<title>Node8&#45;&gt;Node12</title>
<path fill="none" stroke="#191970" d="M1256.7386,-469.3923C1244.7248,-434.8956 1215.1853,-350.075 1200.5302,-307.994"/>
<polygon fill="#191970" stroke="#191970" points="1203.8212,-306.8014 1197.2269,-298.5088 1197.2106,-309.1036 1203.8212,-306.8014"/>
</g>
<!-- Node14 -->
<g id="node15" class="node">
<title>Node14</title>
<g id="a_node15"><a xlink:href="unused_8h.html" target="_top" xlink:title="drake/common/unused.h">
<polygon fill="#ffffff" stroke="#000000" points="1077.5,-408 1077.5,-427 1214.5,-427 1214.5,-408 1077.5,-408"/>
<text text-anchor="middle" x="1146" y="-415" font-family="Helvetica,sans-Serif" font-size="10.00" fill="#000000">drake/common/unused.h</text>
</a>
</g>
</g>
<!-- Node8&#45;&gt;Node14 -->
<g id="edge19" class="edge">
<title>Node8&#45;&gt;Node14</title>
<path fill="none" stroke="#191970" d="M1235.9673,-469.4639C1216.6794,-458.3234 1190.5322,-443.2212 1171.3972,-432.1691"/>
<polygon fill="#191970" stroke="#191970" points="1173.0376,-429.0747 1162.6277,-427.1039 1169.5365,-435.1363 1173.0376,-429.0747"/>
</g>
<!-- Node15 -->
<g id="node16" class="node">
<title>Node15</title>
<g id="a_node16"><a xlink:href="cache_8h.html" target="_top" xlink:title="Declares CacheEntryValue and Cache, which is the container for cache entry values. ">
<polygon fill="#ffffff" stroke="#000000" points="976.5,-335.5 976.5,-365.5 1121.5,-365.5 1121.5,-335.5 976.5,-335.5"/>
<text text-anchor="start" x="984.5" y="-353.5" font-family="Helvetica,sans-Serif" font-size="10.00" fill="#000000">drake/systems/framework</text>
<text text-anchor="middle" x="1049" y="-342.5" font-family="Helvetica,sans-Serif" font-size="10.00" fill="#000000">/cache.h</text>
</a>
</g>
</g>
<!-- Node8&#45;&gt;Node15 -->
<g id="edge20" class="edge">
<title>Node8&#45;&gt;Node15</title>
<path fill="none" stroke="#191970" d="M1189.482,-473.0543C1142.0977,-464.1357 1085.9675,-450.361 1069,-433 1054.344,-418.004 1049.8011,-394.194 1048.6572,-375.9991"/>
<polygon fill="#191970" stroke="#191970" points="1052.1483,-375.6657 1048.3247,-365.7849 1045.152,-375.8935 1052.1483,-375.6657"/>
</g>
<!-- Node8&#45;&gt;Node32 -->
<g id="edge128" class="edge">
<title>Node8&#45;&gt;Node32</title>
<path fill="none" stroke="#191970" d="M1189.3561,-479.4424C1005.7957,-465.0013 531.2389,-416.7812 437,-299 428.3923,-288.242 427.8156,-278.27 437,-268 461.6192,-240.4707 688.0836,-225.9222 813.8106,-219.9074"/>
<polygon fill="#191970" stroke="#191970" points="814.344,-223.3863 824.1685,-219.4203 814.0151,-216.394 814.344,-223.3863"/>
</g>
<!-- Node34 -->
<g id="node35" class="node">
<title>Node34</title>
<g id="a_node35"><a xlink:href="dependency__tracker_8h.html" target="_top" xlink:title="Declares DependencyTracker and DependencyGraph which is the container for trackers. ">
<polygon fill="#ffffff" stroke="#000000" points="1334.5,-402.5 1334.5,-432.5 1479.5,-432.5 1479.5,-402.5 1334.5,-402.5"/>
<text text-anchor="start" x="1342.5" y="-420.5" font-family="Helvetica,sans-Serif" font-size="10.00" fill="#000000">drake/systems/framework</text>
<text text-anchor="middle" x="1407" y="-409.5" font-family="Helvetica,sans-Serif" font-size="10.00" fill="#000000">/dependency_tracker.h</text>
</a>
</g>
</g>
<!-- Node8&#45;&gt;Node34 -->
<g id="edge79" class="edge">
<title>Node8&#45;&gt;Node34</title>
<path fill="none" stroke="#191970" d="M1294.5408,-469.4639C1315.3631,-459.8426 1342.5804,-447.2663 1365.0236,-436.896"/>
<polygon fill="#191970" stroke="#191970" points="1366.7076,-439.9735 1374.3172,-432.6017 1363.7714,-433.6191 1366.7076,-439.9735"/>
</g>
<!-- Node37 -->
<g id="node38" class="node">
<title>Node37</title>
<g id="a_node38"><a xlink:href="fixed__input__port__value_8h.html" target="_top" xlink:title="drake/systems/framework\l/fixed_input_port_value.h">
<polygon fill="#ffffff" stroke="#000000" points="1628.5,-335.5 1628.5,-365.5 1773.5,-365.5 1773.5,-335.5 1628.5,-335.5"/>
<text text-anchor="start" x="1636.5" y="-353.5" font-family="Helvetica,sans-Serif" font-size="10.00" fill="#000000">drake/systems/framework</text>
<text text-anchor="middle" x="1701" y="-342.5" font-family="Helvetica,sans-Serif" font-size="10.00" fill="#000000">/fixed_input_port_value.h</text>
</a>
</g>
</g>
<!-- Node8&#45;&gt;Node37 -->
<g id="edge92" class="edge">
<title>Node8&#45;&gt;Node37</title>
<path fill="none" stroke="#191970" d="M1334.5362,-470.8965C1379.4584,-461.7706 1438.0909,-448.5868 1489,-433 1548.5593,-414.7648 1615.1966,-387.6854 1657.5853,-369.5803"/>
<polygon fill="#191970" stroke="#191970" points="1659.228,-372.684 1667.0347,-365.5212 1656.4651,-366.2523 1659.228,-372.684"/>
</g>
<!-- Node12&#45;&gt;Node6 -->
<g id="edge18" class="edge">
<title>Node12&#45;&gt;Node6</title>
<path fill="none" stroke="#191970" d="M1132.9264,-281.0839C997.8788,-274.1344 673.5437,-248.8684 613,-165 597.5522,-143.6008 621.6099,-77.2625 630,-67 648.8393,-43.9564 680.4612,-30.5245 704.4559,-23.1921"/>
<polygon fill="#191970" stroke="#191970" points="705.5543,-26.5185 714.2129,-20.4128 703.6366,-19.7863 705.5543,-26.5185"/>
</g>
<!-- Node13 -->
<g id="node14" class="node">
<title>Node13</title>
<polygon fill="#ffffff" stroke="#bfbfbf" points="1320.5,-6 1320.5,-25 1389.5,-25 1389.5,-6 1320.5,-6"/>
<text text-anchor="middle" x="1355" y="-13" font-family="Helvetica,sans-Serif" font-size="10.00" fill="#000000">type_traits</text>
</g>
<!-- Node12&#45;&gt;Node13 -->
<g id="edge17" class="edge">
<title>Node12&#45;&gt;Node13</title>
<path fill="none" stroke="#191970" d="M1194.5183,-268.2592C1199.9929,-239.1947 1215.3763,-175.0875 1250,-134 1270.0396,-110.2192 1288.4663,-120.4368 1310,-98 1327.7542,-79.5012 1340.6689,-52.6237 1347.9951,-34.6263"/>
<polygon fill="#191970" stroke="#191970" points="1351.3035,-35.7752 1351.6572,-25.1863 1344.7773,-33.2435 1351.3035,-35.7752"/>
</g>
<!-- Node15&#45;&gt;Node3 -->
<g id="edge22" class="edge">
<title>Node15&#45;&gt;Node3</title>
<path fill="none" stroke="#191970" d="M1061.4359,-335.315C1078.8252,-314.3553 1109.8588,-278.0081 1124,-268 1139.6486,-256.9251 1264.4336,-205.7772 1283,-201 1431.0185,-162.9144 1476.6804,-201.8958 1625,-165 1660.8005,-156.0943 1666.6437,-144.532 1702,-134 1778.4566,-111.2249 1870.6407,-95.6169 1921.8455,-87.9555"/>
<polygon fill="#191970" stroke="#191970" points="1922.4432,-91.4053 1931.8264,-86.4854 1921.4231,-84.48 1922.4432,-91.4053"/>
</g>
<!-- Node15&#45;&gt;Node4 -->
<g id="edge23" class="edge">
<title>Node15&#45;&gt;Node4</title>
<path fill="none" stroke="#191970" d="M976.4698,-347.2484C846.9116,-340.868 580.9562,-325.018 492,-299 490.3366,-298.5135 488.6573,-297.9326 486.988,-297.2857"/>
<polygon fill="#191970" stroke="#191970" points="488.2668,-294.0222 477.7162,-293.0552 485.361,-300.3906 488.2668,-294.0222"/>
</g>
<!-- Node15&#45;&gt;Node5 -->
<g id="edge25" class="edge">
<title>Node15&#45;&gt;Node5</title>
<path fill="none" stroke="#191970" d="M976.4524,-344.2195C912.373,-337.3377 816.961,-323.8114 737,-299 602.9345,-257.4004 558.5336,-255.2253 451,-165 429.6113,-147.0539 412.3636,-119.4531 402.3975,-101.1895"/>
<polygon fill="#191970" stroke="#191970" points="405.3824,-99.3457 397.6298,-92.1243 399.187,-102.6041 405.3824,-99.3457"/>
</g>
<!-- Node15&#45;&gt;Node6 -->
<g id="edge26" class="edge">
<title>Node15&#45;&gt;Node6</title>
<path fill="none" stroke="#191970" d="M976.1185,-344.3531C874.4719,-335.2884 695.5709,-317.4108 633,-299 489.1405,-256.6709 414.3714,-238.5153 362,-98 357.1882,-85.0898 352.9446,-77.384 362,-67 384.4152,-41.296 617.0645,-23.4143 704.2489,-17.5707"/>
<polygon fill="#191970" stroke="#191970" points="704.6252,-21.0536 714.373,-16.9027 704.1643,-14.0688 704.6252,-21.0536"/>
</g>
<!-- Node15&#45;&gt;Node10 -->
<g id="edge21" class="edge">
<title>Node15&#45;&gt;Node10</title>
<path fill="none" stroke="#191970" d="M1121.7107,-338.4416C1173.4473,-328.813 1237.5969,-314.4189 1260,-299 1283.218,-283.0202 1299.8666,-254.2552 1308.9688,-235.268"/>
<polygon fill="#191970" stroke="#191970" points="1312.1805,-236.6604 1313.1395,-226.109 1305.8099,-233.7594 1312.1805,-236.6604"/>
</g>
<!-- Node15&#45;&gt;Node11 -->
<g id="edge27" class="edge">
<title>Node15&#45;&gt;Node11</title>
<path fill="none" stroke="#191970" d="M976.3623,-343.2997C876.58,-328.9914 701.0615,-286.9211 627,-165 568.5659,-68.805 701.6378,-125.5723 781,-98 782.6443,-97.4287 784.316,-96.8014 785.9905,-96.1365"/>
<polygon fill="#191970" stroke="#191970" points="787.649,-99.2325 795.4363,-92.0486 784.8688,-92.8083 787.649,-99.2325"/>
</g>
<!-- Node15&#45;&gt;Node12 -->
<g id="edge41" class="edge">
<title>Node15&#45;&gt;Node12</title>
<path fill="none" stroke="#191970" d="M1081.092,-335.4639C1101.555,-325.8763 1128.2806,-313.3545 1150.3694,-303.0052"/>
<polygon fill="#191970" stroke="#191970" points="1151.95,-306.1299 1159.5204,-298.7177 1148.98,-299.7911 1151.95,-306.1299"/>
</g>
<!-- Node16 -->
<g id="node17" class="node">
<title>Node16</title>
<polygon fill="#ffffff" stroke="#bfbfbf" points="636.5,-140 636.5,-159 701.5,-159 701.5,-140 636.5,-140"/>
<text text-anchor="middle" x="669" y="-147" font-family="Helvetica,sans-Serif" font-size="10.00" fill="#000000">stdexcept</text>
</g>
<!-- Node15&#45;&gt;Node16 -->
<g id="edge24" class="edge">
<title>Node15&#45;&gt;Node16</title>
<path fill="none" stroke="#191970" d="M1018.106,-335.4143C973.1122,-313.3174 887.0615,-270.5804 815,-232 772.1532,-209.0606 723.1046,-180.9579 694.1615,-164.1799"/>
<polygon fill="#191970" stroke="#191970" points="695.9092,-161.1475 685.5041,-159.1513 692.3933,-167.2005 695.9092,-161.1475"/>
</g>
<!-- Node17 -->
<g id="node18" class="node">
<title>Node17</title>
<g id="a_node18"><a xlink:href="copyable__unique__ptr_8h.html" target="_top" xlink:title="drake/common/copyable\l_unique_ptr.h">
<polygon fill="#ffffff" stroke="#000000" points="1478.5,-134.5 1478.5,-164.5 1615.5,-164.5 1615.5,-134.5 1478.5,-134.5"/>
<text text-anchor="start" x="1486.5" y="-152.5" font-family="Helvetica,sans-Serif" font-size="10.00" fill="#000000">drake/common/copyable</text>
<text text-anchor="middle" x="1547" y="-141.5" font-family="Helvetica,sans-Serif" font-size="10.00" fill="#000000">_unique_ptr.h</text>
</a>
</g>
</g>
<!-- Node15&#45;&gt;Node17 -->
<g id="edge28" class="edge">
<title>Node15&#45;&gt;Node17</title>
<path fill="none" stroke="#191970" d="M1053.3965,-335.2662C1059.3048,-317.165 1071.392,-287.0277 1091,-268 1141.0798,-219.4022 1166.2867,-221.471 1233,-201 1332.3346,-170.5191 1361.585,-182.5392 1464,-165 1465.3004,-164.7773 1466.6119,-164.5511 1467.9322,-164.3219"/>
<polygon fill="#191970" stroke="#191970" points="1468.9451,-167.6975 1478.186,-162.5153 1467.7304,-160.8037 1468.9451,-167.6975"/>
</g>
<!-- Node15&#45;&gt;Node20 -->
<g id="edge35" class="edge">
<title>Node15&#45;&gt;Node20</title>
<path fill="none" stroke="#191970" d="M1121.583,-342.7918C1252.6857,-327.9423 1537.0972,-291.4763 1771,-232 1913.7602,-195.6992 2076.5479,-132.796 2154.1603,-101.4258"/>
<polygon fill="#191970" stroke="#191970" points="2155.6927,-104.5812 2163.6431,-97.5783 2153.0608,-98.0948 2155.6927,-104.5812"/>
</g>
<!-- Node21 -->
<g id="node22" class="node">
<title>Node21</title>
<g id="a_node22"><a xlink:href="never__destroyed_8h.html" target="_top" xlink:title="drake/common/never\l_destroyed.h">
<polygon fill="#ffffff" stroke="#000000" points="1148.5,-67.5 1148.5,-97.5 1269.5,-97.5 1269.5,-67.5 1148.5,-67.5"/>
<text text-anchor="start" x="1156.5" y="-85.5" font-family="Helvetica,sans-Serif" font-size="10.00" fill="#000000">drake/common/never</text>
<text text-anchor="middle" x="1209" y="-74.5" font-family="Helvetica,sans-Serif" font-size="10.00" fill="#000000">_destroyed.h</text>
</a>
</g>
</g>
<!-- Node15&#45;&gt;Node21 -->
<g id="edge36" class="edge">
<title>Node15&#45;&gt;Node21</title>
<path fill="none" stroke="#191970" d="M1049.591,-335.2551C1050.7387,-318.1922 1054.1095,-290.0492 1064,-268 1093.8917,-201.3613 1152.6924,-137.3799 1185.4865,-104.8086"/>
<polygon fill="#191970" stroke="#191970" points="1188.1534,-107.0955 1192.8439,-97.5955 1183.2529,-102.0969 1188.1534,-107.0955"/>
</g>
<!-- Node15&#45;&gt;Node23 -->
<g id="edge42" class="edge">
<title>Node15&#45;&gt;Node23</title>
<path fill="none" stroke="#191970" d="M1121.913,-345.8532C1229.7645,-338.5275 1438.0415,-322.6498 1614,-299 1615.473,-298.802 1616.9591,-298.5968 1618.4552,-298.3852"/>
<polygon fill="#191970" stroke="#191970" points="1619.0631,-301.8335 1628.4418,-296.905 1618.0366,-294.9091 1619.0631,-301.8335"/>
</g>
<!-- Node15&#45;&gt;Node32 -->
<g id="edge66" class="edge">
<title>Node15&#45;&gt;Node32</title>
<path fill="none" stroke="#191970" d="M1031.8591,-335.389C1005.0611,-311.7644 953.1064,-265.9623 922.0915,-238.6202"/>
<polygon fill="#191970" stroke="#191970" points="924.1273,-235.7489 914.3114,-231.7614 919.4982,-240.9998 924.1273,-235.7489"/>
</g>
<!-- Node17&#45;&gt;Node3 -->
<g id="edge31" class="edge">
<title>Node17&#45;&gt;Node3</title>
<path fill="none" stroke="#191970" d="M1615.8137,-136.4834C1620.6118,-135.6268 1625.3764,-134.7912 1630,-134 1735.1257,-116.0101 1859.4981,-97.366 1921.5927,-88.2371"/>
<polygon fill="#191970" stroke="#191970" points="1922.3423,-91.6647 1931.7283,-86.7503 1921.3262,-84.7388 1922.3423,-91.6647"/>
</g>
<!-- Node17&#45;&gt;Node6 -->
<g id="edge32" class="edge">
<title>Node17&#45;&gt;Node6</title>
<path fill="none" stroke="#191970" d="M1478.3156,-140.2097C1462.7608,-138.1371 1446.3153,-135.9705 1431,-134 1301.7462,-117.3698 1261.5741,-144.9344 1140,-98 1117.6836,-89.3846 1118.2318,-75.8314 1096,-67 1036.7589,-43.467 846.6519,-24.9432 769.7478,-18.2262"/>
<polygon fill="#191970" stroke="#191970" points="769.9368,-14.7296 759.6731,-17.3575 769.3354,-21.7037 769.9368,-14.7296"/>
</g>
<!-- Node18 -->
<g id="node19" class="node">
<title>Node18</title>
<polygon fill="#ffffff" stroke="#bfbfbf" points="2053.5,-73 2053.5,-92 2106.5,-92 2106.5,-73 2053.5,-73"/>
<text text-anchor="middle" x="2080" y="-80" font-family="Helvetica,sans-Serif" font-size="10.00" fill="#000000">cstddef</text>
</g>
<!-- Node17&#45;&gt;Node18 -->
<g id="edge29" class="edge">
<title>Node17&#45;&gt;Node18</title>
<path fill="none" stroke="#191970" d="M1615.7883,-142.3075C1723.4411,-130.9418 1926.8753,-108.9936 1999,-98 2013.55,-95.7822 2029.4756,-92.8463 2043.3259,-90.1265"/>
<polygon fill="#191970" stroke="#191970" points="2044.3343,-93.4944 2053.4556,-88.1043 2042.9639,-86.6298 2044.3343,-93.4944"/>
</g>
<!-- Node19 -->
<g id="node20" class="node">
<title>Node19</title>
<polygon fill="#ffffff" stroke="#bfbfbf" points="1585,-73 1585,-92 1645,-92 1645,-73 1585,-73"/>
<text text-anchor="middle" x="1615" y="-80" font-family="Helvetica,sans-Serif" font-size="10.00" fill="#000000">iostream</text>
</g>
<!-- Node17&#45;&gt;Node19 -->
<g id="edge30" class="edge">
<title>Node17&#45;&gt;Node19</title>
<path fill="none" stroke="#191970" d="M1562.4303,-134.2967C1573.025,-123.8578 1587.0899,-109.9997 1598.0054,-99.2446"/>
<polygon fill="#191970" stroke="#191970" points="1600.6356,-101.5666 1605.3024,-92.055 1595.7227,-96.5804 1600.6356,-101.5666"/>
</g>
<!-- Node17&#45;&gt;Node20 -->
<g id="edge33" class="edge">
<title>Node17&#45;&gt;Node20</title>
<path fill="none" stroke="#191970" d="M1615.6541,-142.442C1642.5715,-139.7252 1673.7271,-136.6428 1702,-134 1885.8927,-116.8108 1932.9763,-122.7857 2116,-98 2120.2157,-97.4291 2124.5415,-96.7915 2128.8996,-96.1093"/>
<polygon fill="#191970" stroke="#191970" points="2129.7848,-99.5113 2139.0909,-94.4471 2128.6579,-92.6026 2129.7848,-99.5113"/>
</g>
<!-- Node20&#45;&gt;Node13 -->
<g id="edge34" class="edge">
<title>Node20&#45;&gt;Node13</title>
<path fill="none" stroke="#191970" d="M2139.109,-70.4146C2131.352,-69.1256 2123.504,-67.9431 2116,-67 1845.3017,-32.9795 1517.4095,-20.3615 1399.7212,-16.7319"/>
<polygon fill="#191970" stroke="#191970" points="1399.7482,-13.2312 1389.647,-16.4275 1399.5367,-20.228 1399.7482,-13.2312"/>
</g>
<!-- Node21&#45;&gt;Node6 -->
<g id="edge39" class="edge">
<title>Node21&#45;&gt;Node6</title>
<path fill="none" stroke="#191970" d="M1148.4908,-69.5899C1143.5964,-68.6692 1138.7204,-67.7928 1134,-67 999.65,-44.4355 838.2912,-26.2327 770.0482,-18.9411"/>
<polygon fill="#191970" stroke="#191970" points="770.2271,-15.4405 759.9135,-17.8655 769.4883,-22.4014 770.2271,-15.4405"/>
</g>
<!-- Node21&#45;&gt;Node7 -->
<g id="edge40" class="edge">
<title>Node21&#45;&gt;Node7</title>
<path fill="none" stroke="#191970" d="M1269.7142,-79.8516C1342.4932,-76.6963 1468.1519,-71.3104 1576,-67 2071.8764,-47.181 2669.0973,-25.3771 2871.2236,-18.0553"/>
<polygon fill="#191970" stroke="#191970" points="2871.539,-21.5462 2881.4058,-17.6866 2871.2856,-14.5508 2871.539,-21.5462"/>
</g>
<!-- Node21&#45;&gt;Node13 -->
<g id="edge38" class="edge">
<title>Node21&#45;&gt;Node13</title>
<path fill="none" stroke="#191970" d="M1241.7652,-67.4639C1266.5932,-56.0702 1300.4512,-40.5327 1324.6628,-29.4219"/>
<polygon fill="#191970" stroke="#191970" points="1326.4432,-32.4559 1334.0721,-25.1039 1323.5236,-26.0938 1326.4432,-32.4559"/>
</g>
<!-- Node22 -->
<g id="node23" class="node">
<title>Node22</title>
<polygon fill="#ffffff" stroke="#bfbfbf" points="1190.5,-6 1190.5,-25 1227.5,-25 1227.5,-6 1190.5,-6"/>
<text text-anchor="middle" x="1209" y="-13" font-family="Helvetica,sans-Serif" font-size="10.00" fill="#000000">new</text>
</g>
<!-- Node21&#45;&gt;Node22 -->
<g id="edge37" class="edge">
<title>Node21&#45;&gt;Node22</title>
<path fill="none" stroke="#191970" d="M1209,-67.2967C1209,-57.7699 1209,-45.3954 1209,-35.1306"/>
<polygon fill="#191970" stroke="#191970" points="1212.5001,-35.0549 1209,-25.055 1205.5001,-35.055 1212.5001,-35.0549"/>
</g>
<!-- Node23&#45;&gt;Node3 -->
<g id="edge44" class="edge">
<title>Node23&#45;&gt;Node3</title>
<path fill="none" stroke="#191970" d="M1735.8688,-268.425C1804.1101,-238.7682 1949.2821,-174.8585 1956,-165 1968.58,-146.5389 1967.7081,-120.0194 1965.0932,-102.0709"/>
<polygon fill="#191970" stroke="#191970" points="1968.5276,-101.3922 1963.3445,-92.1517 1961.6339,-102.6075 1968.5276,-101.3922"/>
</g>
<!-- Node23&#45;&gt;Node5 -->
<g id="edge45" class="edge">
<title>Node23&#45;&gt;Node5</title>
<path fill="none" stroke="#191970" d="M1628.4842,-280.7413C1446.0726,-273.5676 971.5726,-253.393 815,-232 675.769,-212.9765 634.192,-222.567 506,-165 468.637,-148.2214 431.4698,-117.7543 410.4499,-98.91"/>
<polygon fill="#191970" stroke="#191970" points="412.7144,-96.2382 402.97,-92.0792 407.994,-101.4071 412.7144,-96.2382"/>
</g>
<!-- Node23&#45;&gt;Node9 -->
<g id="edge43" class="edge">
<title>Node23&#45;&gt;Node9</title>
<path fill="none" stroke="#191970" d="M1773.82,-276.3785C1800.8805,-273.7381 1831.8417,-270.7241 1860,-268 2026.6549,-251.8775 2069.5221,-257.5116 2235,-232 2376.0309,-210.2574 2412.0925,-205.2343 2549,-165 2551.5804,-164.2417 2554.2299,-163.3973 2556.88,-162.505"/>
<polygon fill="#191970" stroke="#191970" points="2558.1105,-165.7823 2566.3588,-159.1327 2555.7641,-159.1872 2558.1105,-165.7823"/>
</g>
<!-- Node23&#45;&gt;Node11 -->
<g id="edge46" class="edge">
<title>Node23&#45;&gt;Node11</title>
<path fill="none" stroke="#191970" d="M1651.2151,-268.4334C1589.1641,-250.1454 1479.6193,-219.4677 1384,-201 1259.9421,-177.0397 1224.8343,-194.6004 1102,-165 1062.5011,-155.4816 1054.8413,-145.9214 1016,-134 957.2779,-115.9766 887.6298,-99.2147 847.355,-89.9639"/>
<polygon fill="#191970" stroke="#191970" points="848.0597,-86.5348 837.5317,-87.723 846.5028,-93.3595 848.0597,-86.5348"/>
</g>
<!-- Node23&#45;&gt;Node20 -->
<g id="edge47" class="edge">
<title>Node23&#45;&gt;Node20</title>
<path fill="none" stroke="#191970" d="M1757.9913,-268.4264C1862.5207,-240.5569 2077.0626,-182.2407 2108,-165 2136.2039,-149.2826 2163.0428,-123.5322 2180.3739,-104.9775"/>
<polygon fill="#191970" stroke="#191970" points="2183.031,-107.2583 2187.1957,-97.5163 2177.8648,-102.5349 2183.031,-107.2583"/>
</g>
<!-- Node24 -->
<g id="node25" class="node">
<title>Node24</title>
<g id="a_node25"><a xlink:href="drake__optional_8h.html" target="_top" xlink:title="Provides drake::optional as an alias for the appropriate implementation of std::optional or std::expe...">
<polygon fill="#ffffff" stroke="#000000" points="1640.5,-201.5 1640.5,-231.5 1761.5,-231.5 1761.5,-201.5 1640.5,-201.5"/>
<text text-anchor="start" x="1648.5" y="-219.5" font-family="Helvetica,sans-Serif" font-size="10.00" fill="#000000">drake/common/drake</text>
<text text-anchor="middle" x="1701" y="-208.5" font-family="Helvetica,sans-Serif" font-size="10.00" fill="#000000">_optional.h</text>
</a>
</g>
</g>
<!-- Node23&#45;&gt;Node24 -->
<g id="edge48" class="edge">
<title>Node23&#45;&gt;Node24</title>
<path fill="none" stroke="#191970" d="M1701,-268.2967C1701,-260.5013 1701,-250.7991 1701,-241.9064"/>
<polygon fill="#191970" stroke="#191970" points="1704.5001,-241.6431 1701,-231.6432 1697.5001,-241.6432 1704.5001,-241.6431"/>
</g>
<!-- Node27 -->
<g id="node28" class="node">
<title>Node27</title>
<g id="a_node28"><a xlink:href="type__safe__index_8h.html" target="_top" xlink:title="drake/common/type_safe\l_index.h">
<polygon fill="#ffffff" stroke="#000000" points="2084.5,-201.5 2084.5,-231.5 2225.5,-231.5 2225.5,-201.5 2084.5,-201.5"/>
<text text-anchor="start" x="2092.5" y="-219.5" font-family="Helvetica,sans-Serif" font-size="10.00" fill="#000000">drake/common/type_safe</text>
<text text-anchor="middle" x="2155" y="-208.5" font-family="Helvetica,sans-Serif" font-size="10.00" fill="#000000">_index.h</text>
</a>
</g>
</g>
<!-- Node23&#45;&gt;Node27 -->
<g id="edge51" class="edge">
<title>Node23&#45;&gt;Node27</title>
<path fill="none" stroke="#191970" d="M1773.6911,-272.7725C1855.8584,-260.6464 1989.2462,-240.9615 2074.5016,-228.3797"/>
<polygon fill="#191970" stroke="#191970" points="2075.014,-231.8421 2084.3959,-226.9196 2073.992,-224.9171 2075.014,-231.8421"/>
</g>
<!-- Node25 -->
<g id="node26" class="node">
<title>Node25</title>
<polygon fill="#ffffff" stroke="#bfbfbf" points="1824,-140 1824,-159 1914,-159 1914,-140 1824,-140"/>
<text text-anchor="middle" x="1869" y="-147" font-family="Helvetica,sans-Serif" font-size="10.00" fill="#000000">stx/variant.hpp</text>
</g>
<!-- Node24&#45;&gt;Node25 -->
<g id="edge49" class="edge">
<title>Node24&#45;&gt;Node25</title>
<path fill="none" stroke="#191970" d="M1738.7025,-201.4639C1767.7795,-189.8677 1807.62,-173.9789 1835.5666,-162.8335"/>
<polygon fill="#191970" stroke="#191970" points="1836.9265,-166.0594 1844.9185,-159.1039 1834.3334,-159.5574 1836.9265,-166.0594"/>
</g>
<!-- Node26 -->
<g id="node27" class="node">
<title>Node26</title>
<polygon fill="#ffffff" stroke="#bfbfbf" points="1710.5,-140 1710.5,-159 1805.5,-159 1805.5,-140 1710.5,-140"/>
<text text-anchor="middle" x="1758" y="-147" font-family="Helvetica,sans-Serif" font-size="10.00" fill="#000000">stx/optional.hpp</text>
</g>
<!-- Node24&#45;&gt;Node26 -->
<g id="edge50" class="edge">
<title>Node24&#45;&gt;Node26</title>
<path fill="none" stroke="#191970" d="M1713.9342,-201.2967C1722.6426,-191.0605 1734.148,-177.5366 1743.2186,-166.8746"/>
<polygon fill="#191970" stroke="#191970" points="1746.0571,-168.9395 1749.8711,-159.055 1740.7255,-164.4036 1746.0571,-168.9395"/>
</g>
<!-- Node27&#45;&gt;Node2 -->
<g id="edge52" class="edge">
<title>Node27&#45;&gt;Node2</title>
<path fill="none" stroke="#191970" d="M2197.6397,-201.4639C2230.9104,-189.7316 2276.6415,-173.6054 2308.2956,-162.4431"/>
<polygon fill="#191970" stroke="#191970" points="2309.7779,-165.6317 2318.0447,-159.0053 2307.4499,-159.0302 2309.7779,-165.6317"/>
</g>
<!-- Node27&#45;&gt;Node5 -->
<g id="edge54" class="edge">
<title>Node27&#45;&gt;Node5</title>
<path fill="none" stroke="#191970" d="M2084.2287,-213.5633C2007.1829,-210.3849 1880.3415,-205.2069 1771,-201 1552.3488,-192.5874 1001.0215,-210.5402 787,-165 750.9163,-157.322 745.5363,-143.9076 710,-134 608.1196,-105.5954 483.17,-91.009 425.2783,-85.3584"/>
<polygon fill="#191970" stroke="#191970" points="425.5564,-81.8692 415.2698,-84.406 424.8932,-88.8377 425.5564,-81.8692"/>
</g>
<!-- Node27&#45;&gt;Node20 -->
<g id="edge55" class="edge">
<title>Node27&#45;&gt;Node20</title>
<path fill="none" stroke="#191970" d="M2213.039,-201.3962C2231.2552,-193.6248 2249.3671,-182.0582 2260,-165 2267.2882,-153.3077 2265.7528,-146.5193 2260,-134 2254.4821,-121.9921 2244.6299,-111.7327 2234.4832,-103.6048"/>
<polygon fill="#191970" stroke="#191970" points="2236.4696,-100.7201 2226.3599,-97.5507 2232.2866,-106.3328 2236.4696,-100.7201"/>
</g>
<!-- Node28 -->
<g id="node29" class="node">
<title>Node28</title>
<polygon fill="#ffffff" stroke="#bfbfbf" points="2496,-140 2496,-159 2540,-159 2540,-140 2496,-140"/>
<text text-anchor="middle" x="2518" y="-147" font-family="Helvetica,sans-Serif" font-size="10.00" fill="#000000">limits</text>
</g>
<!-- Node27&#45;&gt;Node28 -->
<g id="edge53" class="edge">
<title>Node27&#45;&gt;Node28</title>
<path fill="none" stroke="#191970" d="M2225.8518,-203.4227C2304.3239,-188.9388 2427.419,-166.2188 2485.5422,-155.4908"/>
<polygon fill="#191970" stroke="#191970" points="2486.415,-158.8889 2495.6136,-153.6319 2485.1444,-152.0052 2486.415,-158.8889"/>
</g>
<!-- Node29 -->
<g id="node30" class="node">
<title>Node29</title>
<g id="a_node30"><a xlink:href="drake__throw_8h.html" target="_top" xlink:title="Provides a convenient wrapper to throw an exception when a condition is unmet. ">
<polygon fill="#ffffff" stroke="#000000" points="2716.5,-134.5 2716.5,-164.5 2837.5,-164.5 2837.5,-134.5 2716.5,-134.5"/>
<text text-anchor="start" x="2724.5" y="-152.5" font-family="Helvetica,sans-Serif" font-size="10.00" fill="#000000">drake/common/drake</text>
<text text-anchor="middle" x="2777" y="-141.5" font-family="Helvetica,sans-Serif" font-size="10.00" fill="#000000">_throw.h</text>
</a>
</g>
</g>
<!-- Node27&#45;&gt;Node29 -->
<g id="edge56" class="edge">
<title>Node27&#45;&gt;Node29</title>
<path fill="none" stroke="#191970" d="M2225.7457,-208.8795C2345.3258,-195.9987 2586.0714,-170.0663 2705.8942,-157.1593"/>
<polygon fill="#191970" stroke="#191970" points="2706.4894,-160.6155 2716.057,-156.0646 2705.7396,-153.6558 2706.4894,-160.6155"/>
</g>
<!-- Node27&#45;&gt;Node30 -->
<g id="edge59" class="edge">
<title>Node27&#45;&gt;Node30</title>
<path fill="none" stroke="#191970" d="M2084.3227,-212.8263C1862.5097,-201.2969 1181.0171,-165.874 946.3712,-153.6776"/>
<polygon fill="#191970" stroke="#191970" points="946.3738,-150.1731 936.2055,-153.1492 946.0103,-157.1636 946.3738,-150.1731"/>
</g>
<!-- Node29&#45;&gt;Node13 -->
<g id="edge57" class="edge">
<title>Node29&#45;&gt;Node13</title>
<path fill="none" stroke="#191970" d="M2716.1019,-136.9836C2710.6627,-135.9437 2705.2354,-134.9343 2700,-134 2509.5914,-100.0184 2462.3438,-87.348 2270,-67 1936.8652,-31.7577 1532.7729,-19.6496 1399.7839,-16.461"/>
<polygon fill="#191970" stroke="#191970" points="1399.6622,-12.9573 1389.5827,-16.2213 1399.4977,-19.9553 1399.6622,-12.9573"/>
</g>
<!-- Node29&#45;&gt;Node20 -->
<g id="edge58" class="edge">
<title>Node29&#45;&gt;Node20</title>
<path fill="none" stroke="#191970" d="M2716.1052,-136.3758C2711.3428,-135.5144 2706.5992,-134.7093 2702,-134 2548.9625,-110.3985 2367.9557,-94.8381 2270.5481,-87.4656"/>
<polygon fill="#191970" stroke="#191970" points="2270.7594,-83.9717 2260.5256,-86.7136 2270.2356,-90.952 2270.7594,-83.9717"/>
</g>
<!-- Node30&#45;&gt;Node3 -->
<g id="edge60" class="edge">
<title>Node30&#45;&gt;Node3</title>
<path fill="none" stroke="#191970" d="M936.1629,-145.2069C1145.1885,-132.4172 1759.2635,-94.8437 1921.3797,-84.9243"/>
<polygon fill="#191970" stroke="#191970" points="1922.0608,-88.3892 1931.8283,-84.2849 1921.6332,-81.4023 1922.0608,-88.3892"/>
</g>
<!-- Node30&#45;&gt;Node5 -->
<g id="edge61" class="edge">
<title>Node30&#45;&gt;Node5</title>
<path fill="none" stroke="#191970" d="M795.9527,-139.5779C692.0587,-124.8614 501.2378,-97.8318 425.3567,-87.0833"/>
<polygon fill="#191970" stroke="#191970" points="425.8254,-83.6148 415.4333,-85.6777 424.8436,-90.5456 425.8254,-83.6148"/>
</g>
<!-- Node30&#45;&gt;Node6 -->
<g id="edge63" class="edge">
<title>Node30&#45;&gt;Node6</title>
<path fill="none" stroke="#191970" d="M866.1028,-134.4004C865.4516,-116.4315 861.8244,-86.4243 846,-67 826.7991,-43.4311 794.2971,-30.0283 769.7688,-22.8429"/>
<polygon fill="#191970" stroke="#191970" points="770.3751,-19.3807 759.8069,-20.1326 768.5373,-26.1351 770.3751,-19.3807"/>
</g>
<!-- Node30&#45;&gt;Node11 -->
<g id="edge64" class="edge">
<title>Node30&#45;&gt;Node11</title>
<path fill="none" stroke="#191970" d="M854.2004,-134.2967C846.3345,-124.1618 835.9673,-110.804 827.7312,-100.1921"/>
<polygon fill="#191970" stroke="#191970" points="830.312,-97.8089 821.4158,-92.055 824.7821,-102.1008 830.312,-97.8089"/>
</g>
<!-- Node30&#45;&gt;Node21 -->
<g id="edge65" class="edge">
<title>Node30&#45;&gt;Node21</title>
<path fill="none" stroke="#191970" d="M936.2389,-135.7799C995.2493,-124.2531 1079.1793,-107.8586 1138.3149,-96.3073"/>
<polygon fill="#191970" stroke="#191970" points="1139.176,-99.7053 1148.3195,-94.353 1137.834,-92.8352 1139.176,-99.7053"/>
</g>
<!-- Node30&#45;&gt;Node31 -->
<g id="edge62" class="edge">
<title>Node30&#45;&gt;Node31</title>
<path fill="none" stroke="#191970" d="M838.6208,-134.4639C818.243,-123.2728 790.5854,-108.0838 770.4368,-97.0186"/>
<polygon fill="#191970" stroke="#191970" points="771.9377,-93.8498 761.4877,-92.1039 768.5681,-99.9855 771.9377,-93.8498"/>
</g>
<!-- Node32&#45;&gt;Node3 -->
<g id="edge67" class="edge">
<title>Node32&#45;&gt;Node3</title>
<path fill="none" stroke="#191970" d="M969.6159,-209.2229C995.8845,-206.6068 1025.7758,-203.6489 1053,-201 1220.967,-184.6571 1274.4845,-228.1101 1431,-165 1451.5355,-156.7197 1449.5043,-142.3783 1470,-134 1551.7983,-100.5621 1820.382,-87.5783 1921.7773,-83.7922"/>
<polygon fill="#191970" stroke="#191970" points="1922.0321,-87.2854 1931.8983,-83.4243 1921.7777,-80.29 1922.0321,-87.2854"/>
</g>
<!-- Node32&#45;&gt;Node5 -->
<g id="edge69" class="edge">
<title>Node32&#45;&gt;Node5</title>
<path fill="none" stroke="#191970" d="M824.369,-208.7343C762.3521,-201.022 671.2012,-187.1092 594,-165 530.5856,-146.8391 460.0165,-114.9932 421.6581,-96.6329"/>
<polygon fill="#191970" stroke="#191970" points="422.7015,-93.2501 412.1745,-92.0533 419.6575,-99.5536 422.7015,-93.2501"/>
</g>
<!-- Node32&#45;&gt;Node6 -->
<g id="edge72" class="edge">
<title>Node32&#45;&gt;Node6</title>
<path fill="none" stroke="#191970" d="M824.4899,-212.8149C753.2161,-207.4949 651.6388,-194.7826 627,-165 587.7845,-117.5975 668.2421,-57.7484 711.6843,-30.3824"/>
<polygon fill="#191970" stroke="#191970" points="713.6582,-33.2773 720.3361,-25.052 709.9864,-27.3176 713.6582,-33.2773"/>
</g>
<!-- Node32&#45;&gt;Node7 -->
<g id="edge74" class="edge">
<title>Node32&#45;&gt;Node7</title>
<path fill="none" stroke="#191970" d="M969.7941,-213.4469C1200.3633,-203.6995 1900.73,-173.4702 1923,-165 1955.5032,-152.6377 2012.5415,-79.4792 2045,-67 2121.2495,-37.6847 2673.343,-21.8618 2871.4651,-17.0795"/>
<polygon fill="#191970" stroke="#191970" points="2871.5605,-20.5783 2881.4739,-16.8401 2871.3931,-13.5803 2871.5605,-20.5783"/>
</g>
<!-- Node32&#45;&gt;Node13 -->
<g id="edge70" class="edge">
<title>Node32&#45;&gt;Node13</title>
<path fill="none" stroke="#191970" d="M948.131,-201.4066C1048.8889,-171.5579 1264.6373,-107.0767 1279,-98 1305.8798,-81.013 1329.3884,-52.1333 1342.8913,-33.4421"/>
<polygon fill="#191970" stroke="#191970" points="1345.8086,-35.378 1348.6871,-25.1817 1340.0783,-31.3574 1345.8086,-35.378"/>
</g>
<!-- Node32&#45;&gt;Node16 -->
<g id="edge68" class="edge">
<title>Node32&#45;&gt;Node16</title>
<path fill="none" stroke="#191970" d="M841.7744,-201.4249C805.8363,-191.4577 758.0071,-177.8968 716,-165 713.0559,-164.0961 710.0149,-163.1415 706.9618,-162.1681"/>
<polygon fill="#191970" stroke="#191970" points="707.8645,-158.7816 697.2727,-159.0338 705.71,-165.4418 707.8645,-158.7816"/>
</g>
<!-- Node32&#45;&gt;Node17 -->
<g id="edge73" class="edge">
<title>Node32&#45;&gt;Node17</title>
<path fill="none" stroke="#191970" d="M969.605,-209.1086C995.8725,-206.4814 1025.7659,-203.5456 1053,-201 1235.5702,-183.9348 1282.327,-189.86 1464,-165 1465.3071,-164.8211 1466.6249,-164.6357 1467.951,-164.4443"/>
<polygon fill="#191970" stroke="#191970" points="1468.884,-167.8425 1478.2412,-162.8733 1467.8274,-160.9227 1468.884,-167.8425"/>
</g>
<!-- Node32&#45;&gt;Node30 -->
<g id="edge78" class="edge">
<title>Node32&#45;&gt;Node30</title>
<path fill="none" stroke="#191970" d="M889.9656,-201.2967C886.2003,-193.1586 881.4734,-182.9425 877.2149,-173.7386"/>
<polygon fill="#191970" stroke="#191970" points="880.3822,-172.2491 873.0065,-164.6432 874.0293,-175.1885 880.3822,-172.2491"/>
</g>
<!-- Node32&#45;&gt;Node31 -->
<g id="edge71" class="edge">
<title>Node32&#45;&gt;Node31</title>
<path fill="none" stroke="#191970" d="M847.927,-201.4575C827.2378,-193.2402 804.0516,-181.3403 787,-165 768.5755,-147.3442 756.5147,-120.0584 749.9803,-101.7538"/>
<polygon fill="#191970" stroke="#191970" points="753.2601,-100.5255 746.7653,-92.1549 746.6225,-102.7487 753.2601,-100.5255"/>
</g>
<!-- Node33 -->
<g id="node34" class="node">
<title>Node33</title>
<g id="a_node34"><a xlink:href="is__cloneable_8h.html" target="_top" xlink:title="drake/common/is_cloneable.h">
<polygon fill="#ffffff" stroke="#000000" points="1258.5,-140 1258.5,-159 1421.5,-159 1421.5,-140 1258.5,-140"/>
<text text-anchor="middle" x="1340" y="-147" font-family="Helvetica,sans-Serif" font-size="10.00" fill="#000000">drake/common/is_cloneable.h</text>
</a>
</g>
</g>
<!-- Node32&#45;&gt;Node33 -->
<g id="edge75" class="edge">
<title>Node32&#45;&gt;Node33</title>
<path fill="none" stroke="#191970" d="M969.6564,-205.5113C1051.7757,-193.0915 1184.6964,-172.9884 1266.9696,-160.5452"/>
<polygon fill="#191970" stroke="#191970" points="1267.6283,-163.9855 1276.9925,-159.0294 1266.5815,-157.0642 1267.6283,-163.9855"/>
</g>
<!-- Node33&#45;&gt;Node3 -->
<g id="edge76" class="edge">
<title>Node33&#45;&gt;Node3</title>
<path fill="none" stroke="#191970" d="M1395.2476,-139.9764C1408.5682,-137.8473 1422.7735,-135.7148 1436,-134 1617.0965,-110.5211 1834.5837,-92.3738 1921.909,-85.4965"/>
<polygon fill="#191970" stroke="#191970" points="1922.2057,-88.9841 1931.902,-84.7141 1921.6592,-82.0054 1922.2057,-88.9841"/>
</g>
<!-- Node33&#45;&gt;Node13 -->
<g id="edge77" class="edge">
<title>Node33&#45;&gt;Node13</title>
<path fill="none" stroke="#191970" d="M1342.3037,-139.6891C1344.6321,-129.3728 1348.1435,-112.6376 1350,-98 1352.6992,-76.7184 1353.951,-52.1575 1354.5254,-35.4051"/>
<polygon fill="#191970" stroke="#191970" points="1358.0302,-35.2893 1354.8243,-25.1912 1351.0332,-35.0845 1358.0302,-35.2893"/>
</g>
<!-- Node34&#45;&gt;Node3 -->
<g id="edge81" class="edge">
<title>Node34&#45;&gt;Node3</title>
<path fill="none" stroke="#191970" d="M1428.3176,-402.2065C1451.5394,-385.5777 1489.8117,-358.2622 1523,-335 1565.9056,-304.9268 1572.1424,-289.3292 1620,-268 1683.0168,-239.9146 1708.1145,-260.3781 1771,-232 1792.8044,-222.1604 1793.648,-211.786 1815,-201 1860.1614,-178.1867 1885.3121,-198.7583 1923,-165 1941.6561,-148.2891 1951.79,-120.5576 1956.7952,-101.9128"/>
<polygon fill="#191970" stroke="#191970" points="1960.2103,-102.6812 1959.1752,-92.137 1953.409,-101.0253 1960.2103,-102.6812"/>
</g>
<!-- Node34&#45;&gt;Node5 -->
<g id="edge82" class="edge">
<title>Node34&#45;&gt;Node5</title>
<path fill="none" stroke="#191970" d="M1334.4542,-410.9121C1300.8643,-407.9756 1260.4151,-404.6006 1224,-402 949.1241,-382.3694 875.7723,-417.23 605,-366 510.8171,-348.1806 473.5093,-360.5169 400,-299 338.6403,-247.6506 293.1704,-206.0325 328,-134 335.6089,-118.2636 350.6198,-105.8703 364.3007,-97.1884"/>
<polygon fill="#191970" stroke="#191970" points="366.1943,-100.1347 373.0078,-92.0213 362.6219,-94.1148 366.1943,-100.1347"/>
</g>
<!-- Node34&#45;&gt;Node6 -->
<g id="edge84" class="edge">
<title>Node34&#45;&gt;Node6</title>
<path fill="none" stroke="#191970" d="M1334.4674,-410.7202C1300.8801,-407.7442 1260.4295,-404.3913 1224,-402 1052.6268,-390.7507 618.212,-409.2307 452,-366 379.9124,-347.2505 152,-290.986 152,-216.5 152,-216.5 152,-216.5 152,-149.5 152,-35.3379 580.6515,-18.4347 704.1023,-15.9338"/>
<polygon fill="#191970" stroke="#191970" points="704.4917,-19.4274 714.4258,-15.7445 704.3632,-12.4285 704.4917,-19.4274"/>
</g>
<!-- Node34&#45;&gt;Node7 -->
<g id="edge87" class="edge">
<title>Node34&#45;&gt;Node7</title>
<path fill="none" stroke="#191970" d="M1479.7938,-410.3769C1569.9157,-401.3053 1728.035,-384.5629 1863,-366 1948.1976,-354.282 1968.5127,-344.3741 2054,-335 2330.5803,-304.6716 2403.1337,-335.2532 2679,-299 2746.4952,-290.1301 2762.2896,-281.5643 2829,-268 2908.9484,-251.744 2957.2765,-295.0926 3009,-232 3035.328,-199.885 2983.5556,-170.2616 2959,-98 2952.6315,-79.2589 2948.2451,-57.2731 2945.525,-40.7126"/>
<polygon fill="#191970" stroke="#191970" points="2948.964,-40.0482 2943.9742,-30.702 2942.0465,-41.12 2948.964,-40.0482"/>
</g>
<!-- Node34&#45;&gt;Node10 -->
<g id="edge80" class="edge">
<title>Node34&#45;&gt;Node10</title>
<path fill="none" stroke="#191970" d="M1410.9721,-402.2498C1414.6601,-385.4241 1418.6634,-357.7192 1412,-335 1399.321,-291.77 1361.2503,-253.4605 1337.3286,-232.7595"/>
<polygon fill="#191970" stroke="#191970" points="1339.4276,-229.9515 1329.5221,-226.1924 1334.9214,-235.3082 1339.4276,-229.9515"/>
</g>
<!-- Node34&#45;&gt;Node11 -->
<g id="edge85" class="edge">
<title>Node34&#45;&gt;Node11</title>
<path fill="none" stroke="#191970" d="M1334.3009,-411.2585C1113.9608,-391.9988 466.7652,-332.7649 437,-299 356.9018,-208.1387 286.1526,-283.806 610,-134 680.4895,-101.3928 707.3579,-122.6746 781,-98 782.6505,-97.447 784.3272,-96.8339 786.0054,-96.1801"/>
<polygon fill="#191970" stroke="#191970" points="787.6515,-99.2825 795.462,-92.1239 784.892,-92.8493 787.6515,-99.2825"/>
</g>
<!-- Node34&#45;&gt;Node15 -->
<g id="edge90" class="edge">
<title>Node34&#45;&gt;Node15</title>
<path fill="none" stroke="#191970" d="M1334.1218,-403.8608C1275.4428,-392.879 1192.9511,-377.4406 1131.7853,-365.9933"/>
<polygon fill="#191970" stroke="#191970" points="1132.2493,-362.5195 1121.7761,-364.1201 1130.9616,-369.4 1132.2493,-362.5195"/>
</g>
<!-- Node34&#45;&gt;Node20 -->
<g id="edge86" class="edge">
<title>Node34&#45;&gt;Node20</title>
<path fill="none" stroke="#191970" d="M1479.6142,-410.1581C1618.4588,-394.9731 1915.2475,-356.6432 1999,-299 2044.629,-267.5955 2033.7086,-236.7727 2076,-201 2101.5109,-179.4213 2117.0722,-187.2497 2142,-165 2160.6255,-148.3755 2176.4969,-124.6747 2186.9035,-106.9386"/>
<polygon fill="#191970" stroke="#191970" points="2190.2091,-108.2055 2192.1055,-97.7817 2184.1227,-104.7477 2190.2091,-108.2055"/>
</g>
<!-- Node34&#45;&gt;Node23 -->
<g id="edge91" class="edge">
<title>Node34&#45;&gt;Node23</title>
<path fill="none" stroke="#191970" d="M1440.154,-402.389C1493.7836,-377.9456 1599.5027,-329.7607 1658.5556,-302.8454"/>
<polygon fill="#191970" stroke="#191970" points="1660.3193,-305.888 1667.9671,-298.5558 1657.4161,-299.5184 1660.3193,-305.888"/>
</g>
<!-- Node35 -->
<g id="node36" class="node">
<title>Node35</title>
<polygon fill="#ffffff" stroke="#bfbfbf" points="1309.5,-341 1309.5,-360 1402.5,-360 1402.5,-341 1309.5,-341"/>
<text text-anchor="middle" x="1356" y="-348" font-family="Helvetica,sans-Serif" font-size="10.00" fill="#000000">unordered_map</text>
</g>
<!-- Node34&#45;&gt;Node35 -->
<g id="edge83" class="edge">
<title>Node34&#45;&gt;Node35</title>
<path fill="none" stroke="#191970" d="M1395.4273,-402.2967C1387.7127,-392.1618 1377.5449,-378.804 1369.4671,-368.1921"/>
<polygon fill="#191970" stroke="#191970" points="1372.1151,-365.8921 1363.2732,-360.055 1366.5451,-370.1319 1372.1151,-365.8921"/>
</g>
<!-- Node36 -->
<g id="node37" class="node">
<title>Node36</title>
<g id="a_node37"><a xlink:href="text__logging_8h.html" target="_top" xlink:title="This is the entry point for all text logging within Drake. ">
<polygon fill="#ffffff" stroke="#000000" points="2062.5,-341 2062.5,-360 2225.5,-360 2225.5,-341 2062.5,-341"/>
<text text-anchor="middle" x="2144" y="-348" font-family="Helvetica,sans-Serif" font-size="10.00" fill="#000000">drake/common/text_logging.h</text>
</a>
</g>
</g>
<!-- Node34&#45;&gt;Node36 -->
<g id="edge88" class="edge">
<title>Node34&#45;&gt;Node36</title>
<path fill="none" stroke="#191970" d="M1479.7669,-413.5526C1598.8516,-406.6668 1842.6711,-390.7842 2048,-366 2058.2883,-364.7582 2069.1621,-363.2207 2079.7491,-361.6008"/>
<polygon fill="#191970" stroke="#191970" points="2080.4452,-365.0345 2089.7833,-360.0294 2079.3621,-358.1188 2080.4452,-365.0345"/>
</g>
<!-- Node36&#45;&gt;Node7 -->
<g id="edge89" class="edge">
<title>Node36&#45;&gt;Node7</title>
<path fill="none" stroke="#191970" d="M2225.7035,-348.7475C2354.6452,-344.9978 2612.8948,-333.4933 2829,-299 2859.7365,-294.094 3081.8025,-256.5002 3101,-232 3109.4978,-221.155 3107.9557,-212.8931 3101,-201 3084.524,-172.8286 3062.1882,-185.7519 3037,-165 3006.8257,-140.1402 3001.0409,-130.9511 2980,-98 2968.3333,-79.7294 2958.2389,-57.2916 2951.3922,-40.4306"/>
<polygon fill="#191970" stroke="#191970" points="2954.4934,-38.7545 2947.5639,-30.7399 2947.983,-41.3265 2954.4934,-38.7545"/>
</g>
<!-- Node37&#45;&gt;Node2 -->
<g id="edge94" class="edge">
<title>Node37&#45;&gt;Node2</title>
<path fill="none" stroke="#191970" d="M1739.4538,-335.4671C1762.2397,-326.0268 1791.3789,-313.0125 1816,-299 1836.7904,-287.1677 1837.5677,-276.3091 1860,-268 2017.0081,-209.843 2078.8738,-292.4845 2235,-232 2240.0649,-230.0378 2293.5435,-189.1536 2324.025,-165.6912"/>
<polygon fill="#191970" stroke="#191970" points="2326.5258,-168.1828 2332.3107,-159.3066 2322.2532,-162.6379 2326.5258,-168.1828"/>
</g>
<!-- Node37&#45;&gt;Node3 -->
<g id="edge95" class="edge">
<title>Node37&#45;&gt;Node3</title>
<path fill="none" stroke="#191970" d="M1728.0909,-335.2812C1744.5048,-325.6284 1765.5685,-312.4583 1783,-299 1798.9282,-286.7024 1800.1585,-280.4091 1816,-268 1882.2836,-216.0782 1934.7821,-238.9723 1975,-165 1985.8474,-145.0485 1978.2273,-118.7015 1970.6486,-101.2087"/>
<polygon fill="#191970" stroke="#191970" points="1973.7603,-99.6013 1966.331,-92.0477 1967.4283,-102.5856 1973.7603,-99.6013"/>
</g>
<!-- Node37&#45;&gt;Node6 -->
<g id="edge96" class="edge">
<title>Node37&#45;&gt;Node6</title>
<path fill="none" stroke="#191970" d="M1669.6488,-335.4594C1591.443,-297.9616 1393.4558,-203.1707 1386,-201 1261.2995,-164.6938 1221.3537,-198.9822 1096,-165 989.5449,-136.141 970.0042,-108.9603 868,-67 834.5335,-53.2333 795.9516,-38.1613 769.3701,-27.9004"/>
<polygon fill="#191970" stroke="#191970" points="770.3955,-24.5448 759.8058,-24.2162 767.8793,-31.0769 770.3955,-24.5448"/>
</g>
<!-- Node37&#45;&gt;Node7 -->
<g id="edge99" class="edge">
<title>Node37&#45;&gt;Node7</title>
<path fill="none" stroke="#191970" d="M1773.5178,-347.1425C1984.6961,-337.3006 2589.9341,-308.6108 2679,-299 2862.1375,-279.2382 2912.3431,-287.4484 3088,-232 3153.399,-211.3559 3173.4741,-207.874 3227,-165 3265.6476,-134.0434 3312.2693,-104.5585 3280,-67 3262.8084,-46.9906 3106.5015,-29.9366 3012.5794,-21.3825"/>
<polygon fill="#191970" stroke="#191970" points="3012.8444,-17.8923 3002.5709,-20.4816 3012.2168,-24.8641 3012.8444,-17.8923"/>
</g>
<!-- Node37&#45;&gt;Node11 -->
<g id="edge97" class="edge">
<title>Node37&#45;&gt;Node11</title>
<path fill="none" stroke="#191970" d="M1628.1762,-338.9902C1587.2844,-330.9386 1535.9921,-318.1393 1493,-299 1444.4632,-277.3923 1437.5534,-262.4273 1394,-232 1374.6866,-218.5073 1372.9868,-209.4641 1351,-201 1215.3747,-148.7891 1167.1376,-199.6463 1026,-165 1021.4224,-163.8763 905.7206,-118.5274 847.219,-95.5546"/>
<polygon fill="#191970" stroke="#191970" points="848.2601,-92.2032 837.6727,-91.8051 845.701,-98.7187 848.2601,-92.2032"/>
</g>
<!-- Node37&#45;&gt;Node12 -->
<g id="edge101" class="edge">
<title>Node37&#45;&gt;Node12</title>
<path fill="none" stroke="#191970" d="M1628.1968,-343.9592C1541.3979,-335.6864 1392.0972,-319.9542 1265,-299 1263.7416,-298.7925 1262.4721,-298.5781 1261.1941,-298.3576"/>
<polygon fill="#191970" stroke="#191970" points="1261.74,-294.8996 1251.2762,-296.5608 1260.4921,-301.7874 1261.74,-294.8996"/>
</g>
<!-- Node37&#45;&gt;Node17 -->
<g id="edge98" class="edge">
<title>Node37&#45;&gt;Node17</title>
<path fill="none" stroke="#191970" d="M1668.7902,-335.4004C1652.579,-326.5652 1633.5479,-314.1584 1620,-299 1586.6246,-261.657 1564.9706,-206.3131 1554.4715,-174.4861"/>
<polygon fill="#191970" stroke="#191970" points="1557.7094,-173.119 1551.3378,-164.6542 1551.0399,-175.2448 1557.7094,-173.119"/>
</g>
<!-- Node37&#45;&gt;Node18 -->
<g id="edge93" class="edge">
<title>Node37&#45;&gt;Node18</title>
<path fill="none" stroke="#191970" d="M1773.7455,-346.9761C1951.4998,-338.2261 2404.3494,-315.0568 2555,-299 2567.2116,-297.6985 2984.0012,-241.3186 2992,-232 3000.9738,-221.5455 2999.9577,-212.2473 2992,-201 2964.2338,-161.7553 2932.5977,-187.2833 2890,-165 2869.124,-154.0796 2869.2311,-141.7999 2847,-134 2696.6721,-81.2567 2287.9438,-125.3678 2131,-98 2126.2366,-97.1694 2121.2932,-96.0321 2116.4415,-94.748"/>
<polygon fill="#191970" stroke="#191970" points="2117.2762,-91.3464 2106.699,-91.9571 2115.3485,-98.0757 2117.2762,-91.3464"/>
</g>
<!-- Node37&#45;&gt;Node23 -->
<g id="edge126" class="edge">
<title>Node37&#45;&gt;Node23</title>
<path fill="none" stroke="#191970" d="M1701,-335.2967C1701,-327.5013 1701,-317.7991 1701,-308.9064"/>
<polygon fill="#191970" stroke="#191970" points="1704.5001,-308.6431 1701,-298.6432 1697.5001,-308.6432 1704.5001,-308.6431"/>
</g>
<!-- Node37&#45;&gt;Node32 -->
<g id="edge127" class="edge">
<title>Node37&#45;&gt;Node32</title>
<path fill="none" stroke="#191970" d="M1628.2757,-337.6335C1570.865,-327.3988 1488.7593,-312.59 1417,-299 1347.1172,-285.7654 1330.1244,-279.8886 1260,-268 1164.2502,-251.767 1053.6929,-236.5904 979.9892,-226.977"/>
<polygon fill="#191970" stroke="#191970" points="980.207,-223.4759 969.8393,-225.6579 979.3048,-230.4176 980.207,-223.4759"/>
</g>
<!-- Node38 -->
<g id="node39" class="node">
<title>Node38</title>
<g id="a_node39"><a xlink:href="drake__deprecated_8h.html" target="_top" xlink:title="Provides a portable macro for use in generating compile&#45;time warnings for use of code that is permitt...">
<polygon fill="#ffffff" stroke="#000000" points="1868.5,-268.5 1868.5,-298.5 1989.5,-298.5 1989.5,-268.5 1868.5,-268.5"/>
<text text-anchor="start" x="1876.5" y="-286.5" font-family="Helvetica,sans-Serif" font-size="10.00" fill="#000000">drake/common/drake</text>
<text text-anchor="middle" x="1929" y="-275.5" font-family="Helvetica,sans-Serif" font-size="10.00" fill="#000000">_deprecated.h</text>
</a>
</g>
</g>
<!-- Node37&#45;&gt;Node38 -->
<g id="edge100" class="edge">
<title>Node37&#45;&gt;Node38</title>
<path fill="none" stroke="#191970" d="M1752.1677,-335.4639C1786.3705,-325.4131 1831.5469,-312.1375 1867.6756,-301.5208"/>
<polygon fill="#191970" stroke="#191970" points="1869.0017,-304.7792 1877.6092,-298.6017 1867.028,-298.0631 1869.0017,-304.7792"/>
</g>
<!-- Node39 -->
<g id="node40" class="node">
<title>Node39</title>
<g id="a_node40"><a xlink:href="basic__vector_8h.html" target="_top" xlink:title="drake/systems/framework\l/basic_vector.h">
<polygon fill="#ffffff" stroke="#000000" points="2400.5,-268.5 2400.5,-298.5 2545.5,-298.5 2545.5,-268.5 2400.5,-268.5"/>
<text text-anchor="start" x="2408.5" y="-286.5" font-family="Helvetica,sans-Serif" font-size="10.00" fill="#000000">drake/systems/framework</text>
<text text-anchor="middle" x="2473" y="-275.5" font-family="Helvetica,sans-Serif" font-size="10.00" fill="#000000">/basic_vector.h</text>
</a>
</g>
</g>
<!-- Node37&#45;&gt;Node39 -->
<g id="edge102" class="edge">
<title>Node37&#45;&gt;Node39</title>
<path fill="none" stroke="#191970" d="M1773.6279,-344.1968C1917.5516,-331.706 2238.1544,-303.8817 2390.0833,-290.6961"/>
<polygon fill="#191970" stroke="#191970" points="2390.6247,-294.1624 2400.2846,-289.8108 2390.0194,-287.1886 2390.6247,-294.1624"/>
</g>
<!-- Node39&#45;&gt;Node3 -->
<g id="edge107" class="edge">
<title>Node39&#45;&gt;Node3</title>
<path fill="none" stroke="#191970" d="M2456.5679,-268.4896C2446.7081,-258.813 2434.4771,-245.5439 2426,-232 2401.1291,-192.2637 2424.3622,-162.3125 2387,-134 2326.0924,-87.8452 2120.6325,-108.9418 2045,-98 2030.2373,-95.8643 2014.1075,-93.0139 1999.964,-90.3403"/>
<polygon fill="#191970" stroke="#191970" points="2000.5452,-86.888 1990.0643,-88.4374 1999.2239,-93.7622 2000.5452,-86.888"/>
</g>
<!-- Node39&#45;&gt;Node6 -->
<g id="edge109" class="edge">
<title>Node39&#45;&gt;Node6</title>
<path fill="none" stroke="#191970" d="M2400.3863,-282.5137C2253.03,-279.7623 1908.5509,-269.5141 1622,-232 1553.2053,-222.9937 1537.53,-211.838 1469,-201 1329.8185,-178.9886 1285.8009,-214.845 1154,-165 1105.3336,-146.5951 1099.5208,-129.3558 1058,-98 1040.6066,-84.8648 1039.7921,-76.1287 1020,-67 975.7549,-46.5929 834.5304,-27.3735 769.8798,-19.3883"/>
<polygon fill="#191970" stroke="#191970" points="770.1749,-15.8984 759.8244,-18.1609 769.3266,-22.8469 770.1749,-15.8984"/>
</g>
<!-- Node39&#45;&gt;Node10 -->
<g id="edge103" class="edge">
<title>Node39&#45;&gt;Node10</title>
<path fill="none" stroke="#191970" d="M2400.4467,-280.8663C2235.9984,-274.6519 1822.3446,-257.643 1477,-232 1434.1171,-228.8158 1384.8931,-223.8496 1352.4961,-220.3999"/>
<polygon fill="#191970" stroke="#191970" points="1352.5044,-216.8808 1342.1878,-219.293 1351.7569,-223.8408 1352.5044,-216.8808"/>
</g>
<!-- Node39&#45;&gt;Node16 -->
<g id="edge108" class="edge">
<title>Node39&#45;&gt;Node16</title>
<path fill="none" stroke="#191970" d="M2400.3324,-281.6445C2245.4931,-277.1982 1871.7282,-263.8439 1560,-232 1466.581,-222.457 1444.4218,-210.5154 1351,-201 1065.365,-171.9069 985.7967,-229.4016 706,-165 703.3552,-164.3912 700.6582,-163.6086 697.9863,-162.7193"/>
<polygon fill="#191970" stroke="#191970" points="699.1484,-159.4169 688.5569,-159.1502 696.6704,-165.9636 699.1484,-159.4169"/>
</g>
<!-- Node39&#45;&gt;Node19 -->
<g id="edge105" class="edge">
<title>Node39&#45;&gt;Node19</title>
<path fill="none" stroke="#191970" d="M2400.3991,-281.6287C2201.216,-276.1562 1659.1269,-258.853 1632,-232 1624.2417,-224.32 1626.4319,-144.8223 1625,-134 1623.6089,-123.4865 1621.4145,-111.8828 1619.4354,-102.3556"/>
<polygon fill="#191970" stroke="#191970" points="1622.7998,-101.3534 1617.2718,-92.315 1615.9569,-102.8279 1622.7998,-101.3534"/>
</g>
<!-- Node39&#45;&gt;Node28 -->
<g id="edge106" class="edge">
<title>Node39&#45;&gt;Node28</title>
<path fill="none" stroke="#191970" d="M2545.5356,-274.5429C2597.0546,-266.517 2659.8414,-252.7699 2676,-232 2684.4601,-221.1256 2684.3084,-211.9908 2676,-201 2640.6215,-154.199 2603.6995,-186.2117 2549,-165 2547.6325,-164.4697 2546.2444,-163.8999 2544.852,-163.3029"/>
<polygon fill="#191970" stroke="#191970" points="2546.3184,-160.1249 2535.7734,-159.0989 2543.377,-166.4769 2546.3184,-160.1249"/>
</g>
<!-- Node39&#45;&gt;Node29 -->
<g id="edge111" class="edge">
<title>Node39&#45;&gt;Node29</title>
<path fill="none" stroke="#191970" d="M2545.6635,-276.5685C2590.3481,-269.9293 2647.5521,-257.0157 2693,-232 2719.986,-217.1462 2744.309,-191.1915 2759.7527,-172.3528"/>
<polygon fill="#191970" stroke="#191970" points="2762.5046,-174.5156 2766.0054,-164.5159 2757.0327,-170.1499 2762.5046,-174.5156"/>
</g>
<!-- Node40 -->
<g id="node41" class="node">
<title>Node40</title>
<polygon fill="#ffffff" stroke="#bfbfbf" points="2434.5,-207 2434.5,-226 2517.5,-226 2517.5,-207 2434.5,-207"/>
<text text-anchor="middle" x="2476" y="-214" font-family="Helvetica,sans-Serif" font-size="10.00" fill="#000000">initializer_list</text>
</g>
<!-- Node39&#45;&gt;Node40 -->
<g id="edge104" class="edge">
<title>Node39&#45;&gt;Node40</title>
<path fill="none" stroke="#191970" d="M2473.6807,-268.2967C2474.1073,-258.7699 2474.6614,-246.3954 2475.121,-236.1306"/>
<polygon fill="#191970" stroke="#191970" points="2478.6213,-236.2016 2475.5722,-226.055 2471.6283,-235.8884 2478.6213,-236.2016"/>
</g>
<!-- Node41 -->
<g id="node42" class="node">
<title>Node41</title>
<polygon fill="#ffffff" stroke="#bfbfbf" points="3193.5,-73 3193.5,-92 3270.5,-92 3270.5,-73 3193.5,-73"/>
<text text-anchor="middle" x="3232" y="-80" font-family="Helvetica,sans-Serif" font-size="10.00" fill="#000000">Eigen/Dense</text>
</g>
<!-- Node39&#45;&gt;Node41 -->
<g id="edge110" class="edge">
<title>Node39&#45;&gt;Node41</title>
<path fill="none" stroke="#191970" d="M2545.9178,-281.0227C2647.002,-276.5134 2835.0073,-264.2336 2992,-232 3088.7965,-212.1258 3133.3938,-234.1326 3204,-165 3221.085,-148.2716 3227.7466,-120.7434 3230.3431,-102.1328"/>
<polygon fill="#191970" stroke="#191970" points="3233.8302,-102.4429 3231.4709,-92.1141 3226.8742,-101.6598 3233.8302,-102.4429"/>
</g>
<!-- Node42 -->
<g id="node43" class="node">
<title>Node42</title>
<g id="a_node43"><a xlink:href="dummy__value_8h.html" target="_top" xlink:title="drake/common/dummy\l_value.h">
<polygon fill="#ffffff" stroke="#000000" points="2535.5,-201.5 2535.5,-231.5 2666.5,-231.5 2666.5,-201.5 2535.5,-201.5"/>
<text text-anchor="start" x="2543.5" y="-219.5" font-family="Helvetica,sans-Serif" font-size="10.00" fill="#000000">drake/common/dummy</text>
<text text-anchor="middle" x="2601" y="-208.5" font-family="Helvetica,sans-Serif" font-size="10.00" fill="#000000">_value.h</text>
</a>
</g>
</g>
<!-- Node39&#45;&gt;Node42 -->
<g id="edge112" class="edge">
<title>Node39&#45;&gt;Node42</title>
<path fill="none" stroke="#191970" d="M2501.7257,-268.4639C2519.7969,-259.0047 2543.3247,-246.6894 2562.9396,-236.4222"/>
<polygon fill="#191970" stroke="#191970" points="2564.6908,-239.4562 2571.9273,-231.7177 2561.4445,-233.2544 2564.6908,-239.4562"/>
</g>
<!-- Node43 -->
<g id="node44" class="node">
<title>Node43</title>
<g id="a_node44"><a xlink:href="vector__base_8h.html" target="_top" xlink:title="drake/systems/framework\l/vector_base.h">
<polygon fill="#ffffff" stroke="#000000" points="2837.5,-201.5 2837.5,-231.5 2982.5,-231.5 2982.5,-201.5 2837.5,-201.5"/>
<text text-anchor="start" x="2845.5" y="-219.5" font-family="Helvetica,sans-Serif" font-size="10.00" fill="#000000">drake/systems/framework</text>
<text text-anchor="middle" x="2910" y="-208.5" font-family="Helvetica,sans-Serif" font-size="10.00" fill="#000000">/vector_base.h</text>
</a>
</g>
</g>
<!-- Node39&#45;&gt;Node43 -->
<g id="edge114" class="edge">
<title>Node39&#45;&gt;Node43</title>
<path fill="none" stroke="#191970" d="M2545.8302,-273.4373C2616.6952,-263.4919 2727.369,-247.5509 2823,-232 2824.467,-231.7614 2825.9475,-231.5188 2827.4385,-231.2726"/>
<polygon fill="#191970" stroke="#191970" points="2828.1129,-234.7085 2837.3971,-229.6041 2826.9562,-227.8047 2828.1129,-234.7085"/>
</g>
<!-- Node42&#45;&gt;Node28 -->
<g id="edge113" class="edge">
<title>Node42&#45;&gt;Node28</title>
<path fill="none" stroke="#191970" d="M2582.166,-201.2967C2568.9831,-190.6551 2551.3985,-176.4602 2537.9716,-165.6217"/>
<polygon fill="#191970" stroke="#191970" points="2539.8164,-162.6128 2529.8368,-159.055 2535.4195,-168.0596 2539.8164,-162.6128"/>
</g>
<!-- Node43&#45;&gt;Node3 -->
<g id="edge116" class="edge">
<title>Node43&#45;&gt;Node3</title>
<path fill="none" stroke="#191970" d="M2837.2531,-204.6178C2797.8193,-196.5491 2748.9243,-183.8531 2708,-165 2686.273,-154.9908 2686.5845,-141.8858 2664,-134 2533.9139,-88.5784 2181.7925,-114.5335 2045,-98 2030.1914,-96.2101 2014.0517,-93.4339 1999.9132,-90.7227"/>
<polygon fill="#191970" stroke="#191970" points="2000.5072,-87.2726 1990.0195,-88.7751 1999.1551,-94.1407 2000.5072,-87.2726"/>
</g>
<!-- Node43&#45;&gt;Node6 -->
<g id="edge117" class="edge">
<title>Node43&#45;&gt;Node6</title>
<path fill="none" stroke="#191970" d="M2837.3142,-210.9168C2791.1397,-207.5603 2730.0931,-203.4733 2676,-201 2517.6705,-193.7607 1404.7504,-199.2483 1250,-165 1177.1219,-148.8711 1159.7377,-136.8441 1096,-98 1077.3881,-86.6572 1077.8866,-75.9211 1058,-67 1006.6903,-43.9826 840.7634,-25.5945 769.7443,-18.5752"/>
<polygon fill="#191970" stroke="#191970" points="769.8782,-15.0717 759.5858,-17.585 769.199,-22.0387 769.8782,-15.0717"/>
</g>
<!-- Node43&#45;&gt;Node7 -->
<g id="edge119" class="edge">
<title>Node43&#45;&gt;Node7</title>
<path fill="none" stroke="#191970" d="M2907.0707,-201.2502C2902.4032,-173.7539 2895.1378,-114.327 2909,-67 2911.9243,-57.0161 2917.4433,-47.1314 2923.1428,-38.7322"/>
<polygon fill="#191970" stroke="#191970" points="2926.0188,-40.7281 2929.0465,-30.5751 2920.3481,-36.624 2926.0188,-40.7281"/>
</g>
<!-- Node43&#45;&gt;Node9 -->
<g id="edge115" class="edge">
<title>Node43&#45;&gt;Node9</title>
<path fill="none" stroke="#191970" d="M2838.1858,-201.4639C2774.7851,-188.1894 2684.5188,-169.2899 2632.1246,-158.3198"/>
<polygon fill="#191970" stroke="#191970" points="2632.675,-154.8593 2622.1699,-156.2356 2631.2404,-161.7107 2632.675,-154.8593"/>
</g>
<!-- Node43&#45;&gt;Node29 -->
<g id="edge120" class="edge">
<title>Node43&#45;&gt;Node29</title>
<path fill="none" stroke="#191970" d="M2880.1522,-201.4639C2861.2901,-191.9619 2836.7069,-179.5779 2816.2707,-169.283"/>
<polygon fill="#191970" stroke="#191970" points="2817.7138,-166.091 2807.2083,-164.7177 2814.5645,-172.3425 2817.7138,-166.091"/>
</g>
<!-- Node43&#45;&gt;Node41 -->
<g id="edge118" class="edge">
<title>Node43&#45;&gt;Node41</title>
<path fill="none" stroke="#191970" d="M2982.5099,-208.6246C3049.7364,-200.2246 3143.9127,-185.3262 3175,-165 3198.5905,-149.5755 3215.1405,-120.6634 3224.1198,-101.493"/>
<polygon fill="#191970" stroke="#191970" points="3227.3706,-102.7961 3228.2245,-92.2357 3220.9714,-99.9587 3227.3706,-102.7961"/>
</g>
<!-- Node44 -->
<g id="node45" class="node">
<title>Node44</title>
<g id="a_node45"><a xlink:href="eigen__types_8h.html" target="_top" xlink:title="This file contains abbreviated definitions for certain specializations of Eigen::Matrix that are comm...">
<polygon fill="#ffffff" stroke="#000000" points="3046,-134.5 3046,-164.5 3166,-164.5 3166,-134.5 3046,-134.5"/>
<text text-anchor="start" x="3054" y="-152.5" font-family="Helvetica,sans-Serif" font-size="10.00" fill="#000000">drake/common/eigen</text>
<text text-anchor="middle" x="3106" y="-141.5" font-family="Helvetica,sans-Serif" font-size="10.00" fill="#000000">_types.h</text>
</a>
</g>
</g>
<!-- Node43&#45;&gt;Node44 -->
<g id="edge121" class="edge">
<title>Node43&#45;&gt;Node44</title>
<path fill="none" stroke="#191970" d="M2953.9862,-201.4639C2983.0117,-191.5419 3021.2303,-178.4774 3052.0842,-167.9304"/>
<polygon fill="#191970" stroke="#191970" points="3053.4916,-171.1482 3061.8219,-164.6017 3051.2274,-164.5245 3053.4916,-171.1482"/>
</g>
<!-- Node44&#45;&gt;Node3 -->
<g id="edge122" class="edge">
<title>Node44&#45;&gt;Node3</title>
<path fill="none" stroke="#191970" d="M3045.8303,-145.6442C2993.3467,-142.3419 2915.1509,-137.5686 2847,-134 2490.6848,-115.342 2399.501,-138.4686 2045,-98 2030.1798,-96.3082 2014.0377,-93.5529 1999.9005,-90.8311"/>
<polygon fill="#191970" stroke="#191970" points="2000.4979,-87.3815 1990.0082,-88.8708 1999.1371,-94.248 2000.4979,-87.3815"/>
</g>
<!-- Node44&#45;&gt;Node7 -->
<g id="edge125" class="edge">
<title>Node44&#45;&gt;Node7</title>
<path fill="none" stroke="#191970" d="M3123.0611,-134.4677C3140.7031,-117.097 3163.5241,-88.1887 3147,-67 3130.3842,-45.6937 3065.0516,-31.8586 3012.547,-23.9495"/>
<polygon fill="#191970" stroke="#191970" points="3012.9724,-20.4745 3002.5717,-22.4937 3011.9615,-27.4012 3012.9724,-20.4745"/>
</g>
<!-- Node44&#45;&gt;Node41 -->
<g id="edge123" class="edge">
<title>Node44&#45;&gt;Node41</title>
<path fill="none" stroke="#191970" d="M3134.2769,-134.4639C3155.418,-123.2222 3184.1458,-107.9463 3204.9784,-96.8686"/>
<polygon fill="#191970" stroke="#191970" points="3206.7528,-99.8892 3213.9389,-92.1039 3203.4663,-93.7087 3206.7528,-99.8892"/>
</g>
<!-- Node45 -->
<g id="node46" class="node">
<title>Node45</title>
<g id="a_node46"><a xlink:href="constants_8h.html" target="_top" xlink:title="drake/common/constants.h">
<polygon fill="#ffffff" stroke="#000000" points="2988.5,-73 2988.5,-92 3137.5,-92 3137.5,-73 2988.5,-73"/>
<text text-anchor="middle" x="3063" y="-80" font-family="Helvetica,sans-Serif" font-size="10.00" fill="#000000">drake/common/constants.h</text>
</a>
</g>
</g>
<!-- Node44&#45;&gt;Node45 -->
<g id="edge124" class="edge">
<title>Node44&#45;&gt;Node45</title>
<path fill="none" stroke="#191970" d="M3096.2426,-134.2967C3089.8032,-124.2631 3081.3365,-111.0709 3074.5595,-100.5113"/>
<polygon fill="#191970" stroke="#191970" points="3077.4791,-98.5804 3069.1323,-92.055 3071.588,-102.3613 3077.4791,-98.5804"/>
</g>
</g>
</svg>
