<?xml version="1.0" encoding="UTF-8" standalone="no"?>
<!DOCTYPE svg PUBLIC "-//W3C//DTD SVG 1.1//EN"
 "http://www.w3.org/Graphics/SVG/1.1/DTD/svg11.dtd">
<!-- Generated by graphviz version 2.40.1 (20161225.0304)
 -->
<!-- Title: drake/systems/framework/cache.h Pages: 1 -->
<svg width="2081pt" height="374pt"
 viewBox="0.00 0.00 2080.50 374.00" xmlns="http://www.w3.org/2000/svg" xmlns:xlink="http://www.w3.org/1999/xlink">
<g id="graph0" class="graph" transform="scale(1 1) rotate(0) translate(4 370)">
<title>drake/systems/framework/cache.h</title>
<polygon fill="#ffffff" stroke="transparent" points="-4,4 -4,-370 2076.5,-370 2076.5,4 -4,4"/>
<!-- Node0 -->
<g id="node1" class="node">
<title>Node0</title>
<polygon fill="#bfbfbf" stroke="#000000" points="784.5,-335.5 784.5,-365.5 929.5,-365.5 929.5,-335.5 784.5,-335.5"/>
<text text-anchor="start" x="792.5" y="-353.5" font-family="Helvetica,sans-Serif" font-size="10.00" fill="#000000">drake/systems/framework</text>
<text text-anchor="middle" x="857" y="-342.5" font-family="Helvetica,sans-Serif" font-size="10.00" fill="#000000">/cache.h</text>
</g>
<!-- Node1 -->
<g id="node2" class="node">
<title>Node1</title>
<polygon fill="#ffffff" stroke="#bfbfbf" points="0,-274 0,-293 50,-293 50,-274 0,-274"/>
<text text-anchor="middle" x="25" y="-281" font-family="Helvetica,sans-Serif" font-size="10.00" fill="#000000">cstdint</text>
</g>
<!-- Node0&#45;&gt;Node1 -->
<g id="edge1" class="edge">
<title>Node0&#45;&gt;Node1</title>
<path fill="none" stroke="#191970" d="M784.4918,-348.6886C615.5996,-344.0016 200.0209,-329.6417 64,-299 61.1346,-298.3545 58.2046,-297.528 55.3014,-296.5934"/>
<polygon fill="#191970" stroke="#191970" points="56.2607,-293.2184 45.6664,-293.1058 53.8781,-299.8005 56.2607,-293.2184"/>
</g>
<!-- Node2 -->
<g id="node3" class="node">
<title>Node2</title>
<polygon fill="#ffffff" stroke="#bfbfbf" points="544,-73 544,-92 602,-92 602,-73 544,-73"/>
<text text-anchor="middle" x="573" y="-80" font-family="Helvetica,sans-Serif" font-size="10.00" fill="#000000">memory</text>
</g>
<!-- Node0&#45;&gt;Node2 -->
<g id="edge2" class="edge">
<title>Node0&#45;&gt;Node2</title>
<path fill="none" stroke="#191970" d="M786.0417,-335.4857C703.1301,-313.726 569.6992,-264.6084 510,-165 502.9171,-153.1822 504.0972,-146.4493 510,-134 517.3271,-118.5467 531.8132,-106.1919 545.0488,-97.461"/>
<polygon fill="#191970" stroke="#191970" points="547.231,-100.2275 553.9087,-92.0019 543.559,-94.2679 547.231,-100.2275"/>
</g>
<!-- Node3 -->
<g id="node4" class="node">
<title>Node3</title>
<polygon fill="#ffffff" stroke="#bfbfbf" points="1909,-274 1909,-293 1941,-293 1941,-274 1909,-274"/>
<text text-anchor="middle" x="1925" y="-281" font-family="Helvetica,sans-Serif" font-size="10.00" fill="#000000">set</text>
</g>
<!-- Node0&#45;&gt;Node3 -->
<g id="edge3" class="edge">
<title>Node0&#45;&gt;Node3</title>
<path fill="none" stroke="#191970" d="M929.8765,-348.6743C1150.641,-342.8941 1802.6117,-323.8974 1895,-299 1896.7123,-298.5386 1898.4388,-297.9697 1900.1523,-297.3254"/>
<polygon fill="#191970" stroke="#191970" points="1901.9688,-300.3449 1909.6333,-293.0302 1899.0801,-293.9687 1901.9688,-300.3449"/>
</g>
<!-- Node4 -->
<g id="node5" class="node">
<title>Node4</title>
<polygon fill="#ffffff" stroke="#bfbfbf" points="824.5,-140 824.5,-159 889.5,-159 889.5,-140 824.5,-140"/>
<text text-anchor="middle" x="857" y="-147" font-family="Helvetica,sans-Serif" font-size="10.00" fill="#000000">stdexcept</text>
</g>
<!-- Node0&#45;&gt;Node4 -->
<g id="edge4" class="edge">
<title>Node0&#45;&gt;Node4</title>
<path fill="none" stroke="#191970" d="M857,-335.3923C857,-299.5844 857,-209.5545 857,-169.386"/>
<polygon fill="#191970" stroke="#191970" points="860.5001,-169.2562 857,-159.2562 853.5001,-169.2562 860.5001,-169.2562"/>
</g>
<!-- Node5 -->
<g id="node6" class="node">
<title>Node5</title>
<polygon fill="#ffffff" stroke="#bfbfbf" points="1130,-73 1130,-92 1174,-92 1174,-73 1130,-73"/>
<text text-anchor="middle" x="1152" y="-80" font-family="Helvetica,sans-Serif" font-size="10.00" fill="#000000">string</text>
</g>
<!-- Node0&#45;&gt;Node5 -->
<g id="edge5" class="edge">
<title>Node0&#45;&gt;Node5</title>
<path fill="none" stroke="#191970" d="M911.1886,-335.4636C937.7745,-326.8522 969.6615,-314.6254 996,-299 1063.4967,-258.9574 1074.1638,-234.2987 1111,-165 1122.439,-143.4803 1134.7862,-118.3501 1142.9078,-101.5315"/>
<polygon fill="#191970" stroke="#191970" points="1146.196,-102.7695 1147.3727,-92.2402 1139.8867,-99.7375 1146.196,-102.7695"/>
</g>
<!-- Node6 -->
<g id="node7" class="node">
<title>Node6</title>
<polygon fill="#ffffff" stroke="#bfbfbf" points="342.5,-6 342.5,-25 387.5,-25 387.5,-6 342.5,-6"/>
<text text-anchor="middle" x="365" y="-13" font-family="Helvetica,sans-Serif" font-size="10.00" fill="#000000">utility</text>
</g>
<!-- Node0&#45;&gt;Node6 -->
<g id="edge6" class="edge">
<title>Node0&#45;&gt;Node6</title>
<path fill="none" stroke="#191970" d="M784.3569,-346.197C654.9125,-338.1299 389.4555,-319.6705 299,-299 196.7917,-275.6439 78,-321.343 78,-216.5 78,-216.5 78,-216.5 78,-149.5 78,-107.3006 90.9557,-91.9354 125,-67 157.7699,-42.9981 274.8214,-26.1848 332.4592,-19.1636"/>
<polygon fill="#191970" stroke="#191970" points="332.981,-22.6263 342.4963,-17.967 332.1523,-15.6755 332.981,-22.6263"/>
</g>
<!-- Node7 -->
<g id="node8" class="node">
<title>Node7</title>
<polygon fill="#ffffff" stroke="#bfbfbf" points="1641.5,-73 1641.5,-92 1688.5,-92 1688.5,-73 1641.5,-73"/>
<text text-anchor="middle" x="1665" y="-80" font-family="Helvetica,sans-Serif" font-size="10.00" fill="#000000">vector</text>
</g>
<!-- Node0&#45;&gt;Node7 -->
<g id="edge7" class="edge">
<title>Node0&#45;&gt;Node7</title>
<path fill="none" stroke="#191970" d="M929.8743,-347.6402C1151.0633,-338.1903 1803.2217,-304.3595 1862,-232 1915.686,-165.9094 1767.9656,-112.4971 1698.6729,-91.7832"/>
<polygon fill="#191970" stroke="#191970" points="1699.2398,-88.3024 1688.6594,-88.8544 1697.2747,-95.0209 1699.2398,-88.3024"/>
</g>
<!-- Node8 -->
<g id="node9" class="node">
<title>Node8</title>
<g id="a_node9"><a xlink:href="copyable__unique__ptr_8h.html" target="_top" xlink:title="drake/common/copyable\l_unique_ptr.h">
<polygon fill="#ffffff" stroke="#000000" points="182.5,-134.5 182.5,-164.5 319.5,-164.5 319.5,-134.5 182.5,-134.5"/>
<text text-anchor="start" x="190.5" y="-152.5" font-family="Helvetica,sans-Serif" font-size="10.00" fill="#000000">drake/common/copyable</text>
<text text-anchor="middle" x="251" y="-141.5" font-family="Helvetica,sans-Serif" font-size="10.00" fill="#000000">_unique_ptr.h</text>
</a>
</g>
</g>
<!-- Node0&#45;&gt;Node8 -->
<g id="edge8" class="edge">
<title>Node0&#45;&gt;Node8</title>
<path fill="none" stroke="#191970" d="M784.2531,-347.0686C649.371,-340.1648 370.7972,-323.1645 334,-299 289.6986,-269.9075 266.8207,-208.6832 257.0313,-174.2929"/>
<polygon fill="#191970" stroke="#191970" points="260.3863,-173.2913 254.4042,-164.5468 253.6275,-175.1132 260.3863,-173.2913"/>
</g>
<!-- Node11 -->
<g id="node12" class="node">
<title>Node11</title>
<g id="a_node12"><a xlink:href="drake__assert_8h.html" target="_top" xlink:title="Provides Drake&#39;s assertion implementation. ">
<polygon fill="#ffffff" stroke="#000000" points="1307.5,-67.5 1307.5,-97.5 1428.5,-97.5 1428.5,-67.5 1307.5,-67.5"/>
<text text-anchor="start" x="1315.5" y="-85.5" font-family="Helvetica,sans-Serif" font-size="10.00" fill="#000000">drake/common/drake</text>
<text text-anchor="middle" x="1368" y="-74.5" font-family="Helvetica,sans-Serif" font-size="10.00" fill="#000000">_assert.h</text>
</a>
</g>
</g>
<!-- Node0&#45;&gt;Node11 -->
<g id="edge15" class="edge">
<title>Node0&#45;&gt;Node11</title>
<path fill="none" stroke="#191970" d="M929.5276,-348.9538C1089.8033,-344.9454 1463.6528,-332.1231 1510,-299 1573.0055,-253.9717 1613.3687,-195.2654 1566,-134 1550.2404,-113.617 1488.753,-99.7967 1438.4282,-91.647"/>
<polygon fill="#191970" stroke="#191970" points="1438.9509,-88.1863 1428.5289,-90.0925 1437.8648,-95.1016 1438.9509,-88.1863"/>
</g>
<!-- Node13 -->
<g id="node14" class="node">
<title>Node13</title>
<g id="a_node14"><a xlink:href="never__destroyed_8h.html" target="_top" xlink:title="drake/common/never\l_destroyed.h">
<polygon fill="#ffffff" stroke="#000000" points="862.5,-67.5 862.5,-97.5 983.5,-97.5 983.5,-67.5 862.5,-67.5"/>
<text text-anchor="start" x="870.5" y="-85.5" font-family="Helvetica,sans-Serif" font-size="10.00" fill="#000000">drake/common/never</text>
<text text-anchor="middle" x="923" y="-74.5" font-family="Helvetica,sans-Serif" font-size="10.00" fill="#000000">_destroyed.h</text>
</a>
</g>
</g>
<!-- Node0&#45;&gt;Node13 -->
<g id="edge16" class="edge">
<title>Node0&#45;&gt;Node13</title>
<path fill="none" stroke="#191970" d="M892.3987,-335.4965C947.6834,-309.864 1052.5787,-251.8482 1095,-165 1117.3852,-119.1713 1050.5919,-98.6253 993.8143,-89.5281"/>
<polygon fill="#191970" stroke="#191970" points="994.1263,-86.0358 983.7171,-88.0103 993.0857,-92.958 994.1263,-86.0358"/>
</g>
<!-- Node16 -->
<g id="node17" class="node">
<title>Node16</title>
<g id="a_node17"><a xlink:href="reset__on__copy_8h.html" target="_top" xlink:title="drake/common/reset\l_on_copy.h">
<polygon fill="#ffffff" stroke="#000000" points="294,-67.5 294,-97.5 412,-97.5 412,-67.5 294,-67.5"/>
<text text-anchor="start" x="302" y="-85.5" font-family="Helvetica,sans-Serif" font-size="10.00" fill="#000000">drake/common/reset</text>
<text text-anchor="middle" x="353" y="-74.5" font-family="Helvetica,sans-Serif" font-size="10.00" fill="#000000">_on_copy.h</text>
</a>
</g>
</g>
<!-- Node0&#45;&gt;Node16 -->
<g id="edge21" class="edge">
<title>Node0&#45;&gt;Node16</title>
<path fill="none" stroke="#191970" d="M784.4849,-344.1416C734.8306,-337.6522 668.5406,-324.6898 615,-299 511.3657,-249.2742 413.7423,-149.8624 372.991,-105.1756"/>
<polygon fill="#191970" stroke="#191970" points="375.5767,-102.8166 366.2768,-97.7408 370.3816,-107.5082 375.5767,-102.8166"/>
</g>
<!-- Node17 -->
<g id="node18" class="node">
<title>Node17</title>
<g id="a_node18"><a xlink:href="framework__common_8h.html" target="_top" xlink:title="drake/systems/framework\l/framework_common.h">
<polygon fill="#ffffff" stroke="#000000" points="1355.5,-268.5 1355.5,-298.5 1500.5,-298.5 1500.5,-268.5 1355.5,-268.5"/>
<text text-anchor="start" x="1363.5" y="-286.5" font-family="Helvetica,sans-Serif" font-size="10.00" fill="#000000">drake/systems/framework</text>
<text text-anchor="middle" x="1428" y="-275.5" font-family="Helvetica,sans-Serif" font-size="10.00" fill="#000000">/framework_common.h</text>
</a>
</g>
</g>
<!-- Node0&#45;&gt;Node17 -->
<g id="edge24" class="edge">
<title>Node0&#45;&gt;Node17</title>
<path fill="none" stroke="#191970" d="M929.6073,-341.9804C1035.9249,-329.5053 1233.4318,-306.3302 1345.238,-293.2111"/>
<polygon fill="#191970" stroke="#191970" points="1345.9293,-296.6541 1355.4533,-292.0125 1345.1135,-289.7018 1345.9293,-296.6541"/>
</g>
<!-- Node29 -->
<g id="node30" class="node">
<title>Node29</title>
<g id="a_node30"><a xlink:href="value_8h.html" target="_top" xlink:title="drake/systems/framework\l/value.h">
<polygon fill="#ffffff" stroke="#000000" points="647.5,-201.5 647.5,-231.5 792.5,-231.5 792.5,-201.5 647.5,-201.5"/>
<text text-anchor="start" x="655.5" y="-219.5" font-family="Helvetica,sans-Serif" font-size="10.00" fill="#000000">drake/systems/framework</text>
<text text-anchor="middle" x="720" y="-208.5" font-family="Helvetica,sans-Serif" font-size="10.00" fill="#000000">/value.h</text>
</a>
</g>
</g>
<!-- Node0&#45;&gt;Node29 -->
<g id="edge50" class="edge">
<title>Node0&#45;&gt;Node29</title>
<path fill="none" stroke="#191970" d="M841.5507,-335.389C817.4999,-311.8649 770.9677,-266.3517 742.9733,-238.9702"/>
<polygon fill="#191970" stroke="#191970" points="745.1993,-236.2517 735.6031,-231.7614 740.3047,-241.2559 745.1993,-236.2517"/>
</g>
<!-- Node8&#45;&gt;Node2 -->
<g id="edge11" class="edge">
<title>Node8&#45;&gt;Node2</title>
<path fill="none" stroke="#191970" d="M319.6821,-135.209C384.963,-121.6257 480.8283,-101.6786 533.9448,-90.6264"/>
<polygon fill="#191970" stroke="#191970" points="534.8991,-94.0029 543.9764,-88.5391 533.473,-87.1497 534.8991,-94.0029"/>
</g>
<!-- Node8&#45;&gt;Node6 -->
<g id="edge12" class="edge">
<title>Node8&#45;&gt;Node6</title>
<path fill="none" stroke="#191970" d="M197.8969,-134.3735C157.1151,-120.062 111.4419,-96.4164 135,-67 159.3809,-36.5562 274.9922,-22.8952 332.4414,-17.9037"/>
<polygon fill="#191970" stroke="#191970" points="332.7811,-21.3876 342.4565,-17.0705 332.2007,-14.4117 332.7811,-21.3876"/>
</g>
<!-- Node9 -->
<g id="node10" class="node">
<title>Node9</title>
<polygon fill="#ffffff" stroke="#bfbfbf" points="144.5,-73 144.5,-92 197.5,-92 197.5,-73 144.5,-73"/>
<text text-anchor="middle" x="171" y="-80" font-family="Helvetica,sans-Serif" font-size="10.00" fill="#000000">cstddef</text>
</g>
<!-- Node8&#45;&gt;Node9 -->
<g id="edge9" class="edge">
<title>Node8&#45;&gt;Node9</title>
<path fill="none" stroke="#191970" d="M232.8468,-134.2967C220.1404,-123.6551 203.1913,-109.4602 190.2498,-98.6217"/>
<polygon fill="#191970" stroke="#191970" points="192.3227,-95.7924 182.4089,-92.055 187.8282,-101.159 192.3227,-95.7924"/>
</g>
<!-- Node10 -->
<g id="node11" class="node">
<title>Node10</title>
<polygon fill="#ffffff" stroke="#bfbfbf" points="216,-73 216,-92 276,-92 276,-73 216,-73"/>
<text text-anchor="middle" x="246" y="-80" font-family="Helvetica,sans-Serif" font-size="10.00" fill="#000000">iostream</text>
</g>
<!-- Node8&#45;&gt;Node10 -->
<g id="edge10" class="edge">
<title>Node8&#45;&gt;Node10</title>
<path fill="none" stroke="#191970" d="M249.8654,-134.2967C249.1545,-124.7699 248.231,-112.3954 247.465,-102.1306"/>
<polygon fill="#191970" stroke="#191970" points="250.9476,-101.7667 246.7131,-92.055 243.9671,-102.2877 250.9476,-101.7667"/>
</g>
<!-- Node8&#45;&gt;Node11 -->
<g id="edge13" class="edge">
<title>Node8&#45;&gt;Node11</title>
<path fill="none" stroke="#191970" d="M319.5456,-145.4876C373.9049,-142.3208 451.8096,-137.8159 520,-134 814.6398,-117.5121 888.5998,-118.3214 1183,-98 1220.7522,-95.3941 1262.7893,-91.9182 1297.2399,-88.9184"/>
<polygon fill="#191970" stroke="#191970" points="1297.5524,-92.4045 1307.2089,-88.0453 1296.9416,-85.4312 1297.5524,-92.4045"/>
</g>
<!-- Node12 -->
<g id="node13" class="node">
<title>Node12</title>
<polygon fill="#ffffff" stroke="#bfbfbf" points="751.5,-6 751.5,-25 820.5,-25 820.5,-6 751.5,-6"/>
<text text-anchor="middle" x="786" y="-13" font-family="Helvetica,sans-Serif" font-size="10.00" fill="#000000">type_traits</text>
</g>
<!-- Node11&#45;&gt;Node12 -->
<g id="edge14" class="edge">
<title>Node11&#45;&gt;Node12</title>
<path fill="none" stroke="#191970" d="M1307.0311,-71.1032C1297.9867,-69.6038 1288.7632,-68.1806 1280,-67 1110.1196,-44.1139 1066.2485,-50.9642 896,-31 874.469,-28.4752 850.6383,-25.1792 830.6785,-22.2761"/>
<polygon fill="#191970" stroke="#191970" points="831.0287,-18.7901 820.6263,-20.7999 830.0116,-25.7158 831.0287,-18.7901"/>
</g>
<!-- Node13&#45;&gt;Node6 -->
<g id="edge19" class="edge">
<title>Node13&#45;&gt;Node6</title>
<path fill="none" stroke="#191970" d="M862.103,-69.3894C857.3411,-68.5249 852.5983,-67.7154 848,-67 696.9769,-43.5047 657.9627,-47.3505 506,-31 469.0903,-27.0287 426.7594,-22.36 398.1894,-19.1922"/>
<polygon fill="#191970" stroke="#191970" points="398.2785,-15.6806 387.9534,-18.0561 397.5063,-22.6379 398.2785,-15.6806"/>
</g>
<!-- Node13&#45;&gt;Node12 -->
<g id="edge18" class="edge">
<title>Node13&#45;&gt;Node12</title>
<path fill="none" stroke="#191970" d="M892.2545,-67.4639C869.0606,-56.1209 837.4684,-40.6707 814.7706,-29.5703"/>
<polygon fill="#191970" stroke="#191970" points="816.1588,-26.3531 805.6379,-25.1039 813.0835,-32.6414 816.1588,-26.3531"/>
</g>
<!-- Node14 -->
<g id="node15" class="node">
<title>Node14</title>
<polygon fill="#ffffff" stroke="#bfbfbf" points="904.5,-6 904.5,-25 941.5,-25 941.5,-6 904.5,-6"/>
<text text-anchor="middle" x="923" y="-13" font-family="Helvetica,sans-Serif" font-size="10.00" fill="#000000">new</text>
</g>
<!-- Node13&#45;&gt;Node14 -->
<g id="edge17" class="edge">
<title>Node13&#45;&gt;Node14</title>
<path fill="none" stroke="#191970" d="M923,-67.2967C923,-57.7699 923,-45.3954 923,-35.1306"/>
<polygon fill="#191970" stroke="#191970" points="926.5001,-35.0549 923,-25.055 919.5001,-35.055 926.5001,-35.0549"/>
</g>
<!-- Node15 -->
<g id="node16" class="node">
<title>Node15</title>
<g id="a_node16"><a xlink:href="drake__copyable_8h.html" target="_top" xlink:title="Provides careful macros to selectively enable or disable the special member functions for copy&#45;constr...">
<polygon fill="#ffffff" stroke="#000000" points="514.5,-.5 514.5,-30.5 635.5,-30.5 635.5,-.5 514.5,-.5"/>
<text text-anchor="start" x="522.5" y="-18.5" font-family="Helvetica,sans-Serif" font-size="10.00" fill="#000000">drake/common/drake</text>
<text text-anchor="middle" x="575" y="-7.5" font-family="Helvetica,sans-Serif" font-size="10.00" fill="#000000">_copyable.h</text>
</a>
</g>
</g>
<!-- Node13&#45;&gt;Node15 -->
<g id="edge20" class="edge">
<title>Node13&#45;&gt;Node15</title>
<path fill="none" stroke="#191970" d="M862.4361,-69.8895C857.5539,-68.9016 852.6957,-67.9281 848,-67 779.2908,-53.4203 700.691,-38.676 645.5287,-28.4576"/>
<polygon fill="#191970" stroke="#191970" points="645.979,-24.9816 635.5091,-26.6036 644.7053,-31.8647 645.979,-24.9816"/>
</g>
<!-- Node16&#45;&gt;Node6 -->
<g id="edge23" class="edge">
<title>Node16&#45;&gt;Node6</title>
<path fill="none" stroke="#191970" d="M355.723,-67.2967C357.4293,-57.7699 359.6456,-45.3954 361.4841,-35.1306"/>
<polygon fill="#191970" stroke="#191970" points="364.9708,-35.5154 363.2887,-25.055 358.0804,-34.2813 364.9708,-35.5154"/>
</g>
<!-- Node16&#45;&gt;Node12 -->
<g id="edge22" class="edge">
<title>Node16&#45;&gt;Node12</title>
<path fill="none" stroke="#191970" d="M412.2989,-73.3244C500.0781,-59.742 662.6598,-34.585 741.2114,-22.4303"/>
<polygon fill="#191970" stroke="#191970" points="741.9221,-25.8621 751.2693,-20.874 740.8516,-18.9444 741.9221,-25.8621"/>
</g>
<!-- Node17&#45;&gt;Node2 -->
<g id="edge26" class="edge">
<title>Node17&#45;&gt;Node2</title>
<path fill="none" stroke="#191970" d="M1355.4678,-276.2155C1256.5076,-264.0526 1075.6472,-233.7885 937,-165 917.4751,-155.3129 918.8973,-142.8972 899,-134 848.2302,-111.2979 687.0096,-93.413 612.0355,-86.0932"/>
<polygon fill="#191970" stroke="#191970" points="612.3388,-82.6063 602.0492,-85.131 611.6675,-89.574 612.3388,-82.6063"/>
</g>
<!-- Node17&#45;&gt;Node5 -->
<g id="edge27" class="edge">
<title>Node17&#45;&gt;Node5</title>
<path fill="none" stroke="#191970" d="M1355.1453,-268.9012C1325.9391,-260.9277 1292.903,-249.0913 1266,-232 1214.0428,-198.9918 1176.7698,-133.4835 1160.7429,-101.2727"/>
<polygon fill="#191970" stroke="#191970" points="1163.797,-99.5486 1156.2942,-92.0681 1157.4945,-102.5947 1163.797,-99.5486"/>
</g>
<!-- Node17&#45;&gt;Node7 -->
<g id="edge28" class="edge">
<title>Node17&#45;&gt;Node7</title>
<path fill="none" stroke="#191970" d="M1471.5456,-268.4436C1493.0878,-259.7608 1518.7435,-247.4775 1539,-232 1589.3789,-193.5067 1633.3192,-131.5974 1653.3968,-100.9344"/>
<polygon fill="#191970" stroke="#191970" points="1656.5844,-102.4488 1659.0549,-92.1461 1650.6987,-98.6595 1656.5844,-102.4488"/>
</g>
<!-- Node17&#45;&gt;Node11 -->
<g id="edge29" class="edge">
<title>Node17&#45;&gt;Node11</title>
<path fill="none" stroke="#191970" d="M1456.1384,-268.4602C1502.4158,-241.7761 1585.8705,-184.2253 1548,-134 1534.4917,-116.0848 1483.2029,-102.5146 1438.8117,-93.8134"/>
<polygon fill="#191970" stroke="#191970" points="1439.3554,-90.3541 1428.8774,-91.9229 1438.0468,-97.2307 1439.3554,-90.3541"/>
</g>
<!-- Node18 -->
<g id="node19" class="node">
<title>Node18</title>
<polygon fill="#ffffff" stroke="#bfbfbf" points="1275,-207 1275,-226 1339,-226 1339,-207 1275,-207"/>
<text text-anchor="middle" x="1307" y="-214" font-family="Helvetica,sans-Serif" font-size="10.00" fill="#000000">algorithm</text>
</g>
<!-- Node17&#45;&gt;Node18 -->
<g id="edge25" class="edge">
<title>Node17&#45;&gt;Node18</title>
<path fill="none" stroke="#191970" d="M1400.8452,-268.4639C1380.6344,-257.2728 1353.2036,-242.0838 1333.2201,-231.0186"/>
<polygon fill="#191970" stroke="#191970" points="1334.7883,-227.8862 1324.3444,-226.1039 1331.3973,-234.0101 1334.7883,-227.8862"/>
</g>
<!-- Node19 -->
<g id="node20" class="node">
<title>Node19</title>
<g id="a_node20"><a xlink:href="drake__optional_8h.html" target="_top" xlink:title="Provides drake::optional as an alias for the appropriate implementation of std::optional or std::expe...">
<polygon fill="#ffffff" stroke="#000000" points="1909.5,-134.5 1909.5,-164.5 2030.5,-164.5 2030.5,-134.5 1909.5,-134.5"/>
<text text-anchor="start" x="1917.5" y="-152.5" font-family="Helvetica,sans-Serif" font-size="10.00" fill="#000000">drake/common/drake</text>
<text text-anchor="middle" x="1970" y="-141.5" font-family="Helvetica,sans-Serif" font-size="10.00" fill="#000000">_optional.h</text>
</a>
</g>
</g>
<!-- Node17&#45;&gt;Node19 -->
<g id="edge30" class="edge">
<title>Node17&#45;&gt;Node19</title>
<path fill="none" stroke="#191970" d="M1500.6921,-276.5837C1552.1279,-269.7995 1621.8359,-256.7143 1679,-232 1700.9574,-222.5069 1701.0577,-210.528 1723,-201 1779.4788,-176.4752 1848.4034,-163.3558 1899.0782,-156.5109"/>
<polygon fill="#191970" stroke="#191970" points="1899.8168,-159.9444 1909.2818,-155.1838 1898.9139,-153.0028 1899.8168,-159.9444"/>
</g>
<!-- Node22 -->
<g id="node23" class="node">
<title>Node22</title>
<g id="a_node23"><a xlink:href="drake__variant_8h.html" target="_top" xlink:title="Provides drake::variant as an alias for the appropriate implementation of std::variant or or stx::var...">
<polygon fill="#ffffff" stroke="#000000" points="1731.5,-201.5 1731.5,-231.5 1852.5,-231.5 1852.5,-201.5 1731.5,-201.5"/>
<text text-anchor="start" x="1739.5" y="-219.5" font-family="Helvetica,sans-Serif" font-size="10.00" fill="#000000">drake/common/drake</text>
<text text-anchor="middle" x="1792" y="-208.5" font-family="Helvetica,sans-Serif" font-size="10.00" fill="#000000">_variant.h</text>
</a>
</g>
</g>
<!-- Node17&#45;&gt;Node22 -->
<g id="edge33" class="edge">
<title>Node17&#45;&gt;Node22</title>
<path fill="none" stroke="#191970" d="M1500.5512,-271.1393C1559.0612,-261.0341 1643.4321,-246.1542 1717,-232 1718.4689,-231.7174 1719.9535,-231.4297 1721.4496,-231.1379"/>
<polygon fill="#191970" stroke="#191970" points="1722.3143,-234.5348 1731.4463,-229.163 1720.9576,-227.6675 1722.3143,-234.5348"/>
</g>
<!-- Node23 -->
<g id="node24" class="node">
<title>Node23</title>
<g id="a_node24"><a xlink:href="type__safe__index_8h.html" target="_top" xlink:title="drake/common/type_safe\l_index.h">
<polygon fill="#ffffff" stroke="#000000" points="1357.5,-201.5 1357.5,-231.5 1498.5,-231.5 1498.5,-201.5 1357.5,-201.5"/>
<text text-anchor="start" x="1365.5" y="-219.5" font-family="Helvetica,sans-Serif" font-size="10.00" fill="#000000">drake/common/type_safe</text>
<text text-anchor="middle" x="1428" y="-208.5" font-family="Helvetica,sans-Serif" font-size="10.00" fill="#000000">_index.h</text>
</a>
</g>
</g>
<!-- Node17&#45;&gt;Node23 -->
<g id="edge35" class="edge">
<title>Node17&#45;&gt;Node23</title>
<path fill="none" stroke="#191970" d="M1428,-268.2967C1428,-260.5013 1428,-250.7991 1428,-241.9064"/>
<polygon fill="#191970" stroke="#191970" points="1431.5001,-241.6431 1428,-231.6432 1424.5001,-241.6432 1431.5001,-241.6431"/>
</g>
<!-- Node20 -->
<g id="node21" class="node">
<title>Node20</title>
<polygon fill="#ffffff" stroke="#bfbfbf" points="1869,-73 1869,-92 1959,-92 1959,-73 1869,-73"/>
<text text-anchor="middle" x="1914" y="-80" font-family="Helvetica,sans-Serif" font-size="10.00" fill="#000000">stx/variant.hpp</text>
</g>
<!-- Node19&#45;&gt;Node20 -->
<g id="edge31" class="edge">
<title>Node19&#45;&gt;Node20</title>
<path fill="none" stroke="#191970" d="M1957.2927,-134.2967C1948.7371,-124.0605 1937.4335,-110.5366 1928.5221,-99.8746"/>
<polygon fill="#191970" stroke="#191970" points="1931.0849,-97.4832 1921.9862,-92.055 1925.7139,-101.9724 1931.0849,-97.4832"/>
</g>
<!-- Node21 -->
<g id="node22" class="node">
<title>Node21</title>
<polygon fill="#ffffff" stroke="#bfbfbf" points="1977.5,-73 1977.5,-92 2072.5,-92 2072.5,-73 1977.5,-73"/>
<text text-anchor="middle" x="2025" y="-80" font-family="Helvetica,sans-Serif" font-size="10.00" fill="#000000">stx/optional.hpp</text>
</g>
<!-- Node19&#45;&gt;Node21 -->
<g id="edge32" class="edge">
<title>Node19&#45;&gt;Node21</title>
<path fill="none" stroke="#191970" d="M1982.4804,-134.2967C1990.8832,-124.0605 2001.9849,-110.5366 2010.7373,-99.8746"/>
<polygon fill="#191970" stroke="#191970" points="2013.5167,-102.005 2017.1564,-92.055 2008.1061,-97.5635 2013.5167,-102.005"/>
</g>
<!-- Node22&#45;&gt;Node19 -->
<g id="edge34" class="edge">
<title>Node22&#45;&gt;Node19</title>
<path fill="none" stroke="#191970" d="M1831.9467,-201.4639C1858.0783,-191.6278 1892.4149,-178.7034 1920.3064,-168.2049"/>
<polygon fill="#191970" stroke="#191970" points="1921.7531,-171.4001 1929.8791,-164.6017 1919.2871,-164.8489 1921.7531,-171.4001"/>
</g>
<!-- Node23&#45;&gt;Node5 -->
<g id="edge38" class="edge">
<title>Node23&#45;&gt;Node5</title>
<path fill="none" stroke="#191970" d="M1364.7926,-201.471C1321.4756,-190.5962 1268.3155,-175.9482 1248,-165 1231.0412,-155.8607 1192.2825,-120.543 1169.539,-99.1916"/>
<polygon fill="#191970" stroke="#191970" points="1171.8989,-96.6062 1162.2242,-92.2876 1167.0941,-101.6969 1171.8989,-96.6062"/>
</g>
<!-- Node23&#45;&gt;Node11 -->
<g id="edge39" class="edge">
<title>Node23&#45;&gt;Node11</title>
<path fill="none" stroke="#191970" d="M1474.0196,-201.4133C1510.829,-186.8096 1553.0715,-162.7029 1532,-134 1520.4,-118.1988 1477.5197,-105.0532 1438.5168,-95.9986"/>
<polygon fill="#191970" stroke="#191970" points="1439.2308,-92.5718 1428.7057,-93.7856 1437.6905,-99.4002 1439.2308,-92.5718"/>
</g>
<!-- Node24 -->
<g id="node25" class="node">
<title>Node24</title>
<polygon fill="#ffffff" stroke="#bfbfbf" points="1395.5,-140 1395.5,-159 1460.5,-159 1460.5,-140 1395.5,-140"/>
<text text-anchor="middle" x="1428" y="-147" font-family="Helvetica,sans-Serif" font-size="10.00" fill="#000000">functional</text>
</g>
<!-- Node23&#45;&gt;Node24 -->
<g id="edge36" class="edge">
<title>Node23&#45;&gt;Node24</title>
<path fill="none" stroke="#191970" d="M1428,-201.2967C1428,-191.7699 1428,-179.3954 1428,-169.1306"/>
<polygon fill="#191970" stroke="#191970" points="1431.5001,-169.0549 1428,-159.055 1424.5001,-169.055 1431.5001,-169.0549"/>
</g>
<!-- Node25 -->
<g id="node26" class="node">
<title>Node25</title>
<polygon fill="#ffffff" stroke="#bfbfbf" points="1479,-140 1479,-159 1523,-159 1523,-140 1479,-140"/>
<text text-anchor="middle" x="1501" y="-147" font-family="Helvetica,sans-Serif" font-size="10.00" fill="#000000">limits</text>
</g>
<!-- Node23&#45;&gt;Node25 -->
<g id="edge37" class="edge">
<title>Node23&#45;&gt;Node25</title>
<path fill="none" stroke="#191970" d="M1444.5648,-201.2967C1456.049,-190.7564 1471.3312,-176.7303 1483.0962,-165.9323"/>
<polygon fill="#191970" stroke="#191970" points="1485.5886,-168.3954 1490.5894,-159.055 1480.8553,-163.2382 1485.5886,-168.3954"/>
</g>
<!-- Node26 -->
<g id="node27" class="node">
<title>Node26</title>
<g id="a_node27"><a xlink:href="drake__throw_8h.html" target="_top" xlink:title="Provides a convenient wrapper to throw an exception when a condition is unmet. ">
<polygon fill="#ffffff" stroke="#000000" points="1256.5,-134.5 1256.5,-164.5 1377.5,-164.5 1377.5,-134.5 1256.5,-134.5"/>
<text text-anchor="start" x="1264.5" y="-152.5" font-family="Helvetica,sans-Serif" font-size="10.00" fill="#000000">drake/common/drake</text>
<text text-anchor="middle" x="1317" y="-141.5" font-family="Helvetica,sans-Serif" font-size="10.00" fill="#000000">_throw.h</text>
</a>
</g>
</g>
<!-- Node23&#45;&gt;Node26 -->
<g id="edge40" class="edge">
<title>Node23&#45;&gt;Node26</title>
<path fill="none" stroke="#191970" d="M1403.0894,-201.4639C1387.7729,-192.2188 1367.9361,-180.2452 1351.1651,-170.1222"/>
<polygon fill="#191970" stroke="#191970" points="1352.5815,-166.889 1342.2115,-164.7177 1348.9641,-172.8819 1352.5815,-166.889"/>
</g>
<!-- Node27 -->
<g id="node28" class="node">
<title>Node27</title>
<g id="a_node28"><a xlink:href="nice__type__name_8h.html" target="_top" xlink:title="drake/common/nice_type\l_name.h">
<polygon fill="#ffffff" stroke="#000000" points="946,-134.5 946,-164.5 1086,-164.5 1086,-134.5 946,-134.5"/>
<text text-anchor="start" x="954" y="-152.5" font-family="Helvetica,sans-Serif" font-size="10.00" fill="#000000">drake/common/nice_type</text>
<text text-anchor="middle" x="1016" y="-141.5" font-family="Helvetica,sans-Serif" font-size="10.00" fill="#000000">_name.h</text>
</a>
</g>
</g>
<!-- Node23&#45;&gt;Node27 -->
<g id="edge43" class="edge">
<title>Node23&#45;&gt;Node27</title>
<path fill="none" stroke="#191970" d="M1357.3562,-202.6638C1354.1961,-202.0919 1351.0661,-201.5346 1348,-201 1262.1909,-186.0373 1163.5196,-171.0067 1096.1913,-161.0789"/>
<polygon fill="#191970" stroke="#191970" points="1096.4792,-157.5837 1086.0763,-159.5911 1095.4604,-164.5092 1096.4792,-157.5837"/>
</g>
<!-- Node26&#45;&gt;Node11 -->
<g id="edge42" class="edge">
<title>Node26&#45;&gt;Node11</title>
<path fill="none" stroke="#191970" d="M1328.5727,-134.2967C1334.9629,-125.9016 1343.0365,-115.2952 1350.211,-105.8698"/>
<polygon fill="#191970" stroke="#191970" points="1353.2012,-107.7201 1356.4731,-97.6432 1347.6312,-103.4803 1353.2012,-107.7201"/>
</g>
<!-- Node26&#45;&gt;Node12 -->
<g id="edge41" class="edge">
<title>Node26&#45;&gt;Node12</title>
<path fill="none" stroke="#191970" d="M1298.3645,-134.3854C1273.6311,-115.2204 1227.8412,-82.7775 1183,-67 1061.7324,-24.3318 1023.4302,-47.9692 896,-31 874.5112,-28.1384 850.6855,-24.8015 830.7183,-21.9583"/>
<polygon fill="#191970" stroke="#191970" points="831.0556,-18.471 820.6611,-20.5216 830.0657,-25.4007 831.0556,-18.471"/>
</g>
<!-- Node27&#45;&gt;Node2 -->
<g id="edge44" class="edge">
<title>Node27&#45;&gt;Node2</title>
<path fill="none" stroke="#191970" d="M945.9102,-136.3502C941.2063,-135.5345 936.5366,-134.7436 932,-134 816.1046,-115.0022 678.5141,-96.3488 612.3665,-87.6231"/>
<polygon fill="#191970" stroke="#191970" points="612.7489,-84.1433 602.3779,-86.3094 611.8361,-91.0836 612.7489,-84.1433"/>
</g>
<!-- Node27&#45;&gt;Node5 -->
<g id="edge45" class="edge">
<title>Node27&#45;&gt;Node5</title>
<path fill="none" stroke="#191970" d="M1046.5211,-134.4639C1069.5457,-123.1209 1100.9072,-107.6707 1123.4394,-96.5703"/>
<polygon fill="#191970" stroke="#191970" points="1125.0817,-99.6629 1132.5055,-92.1039 1121.9882,-93.3836 1125.0817,-99.6629"/>
</g>
<!-- Node27&#45;&gt;Node6 -->
<g id="edge47" class="edge">
<title>Node27&#45;&gt;Node6</title>
<path fill="none" stroke="#191970" d="M950.3541,-134.478C919.9939,-126.0818 884.0803,-114.0329 854,-98 834.4602,-87.5852 835.4559,-75.475 815,-67 810.1543,-64.9924 500.558,-30.5308 397.7664,-19.1295"/>
<polygon fill="#191970" stroke="#191970" points="397.9777,-15.6316 387.6529,-18.0081 397.2062,-22.5889 397.9777,-15.6316"/>
</g>
<!-- Node27&#45;&gt;Node7 -->
<g id="edge48" class="edge">
<title>Node27&#45;&gt;Node7</title>
<path fill="none" stroke="#191970" d="M1086.071,-142.2662C1224.7264,-127.952 1529.468,-96.4917 1631.1916,-85.9902"/>
<polygon fill="#191970" stroke="#191970" points="1631.6246,-89.4642 1641.2123,-84.9557 1630.9057,-82.5012 1631.6246,-89.4642"/>
</g>
<!-- Node27&#45;&gt;Node13 -->
<g id="edge49" class="edge">
<title>Node27&#45;&gt;Node13</title>
<path fill="none" stroke="#191970" d="M994.8969,-134.2967C982.2928,-125.2163 966.0976,-113.5488 952.27,-103.587"/>
<polygon fill="#191970" stroke="#191970" points="954.1792,-100.6488 944.0196,-97.6432 950.0874,-106.3284 954.1792,-100.6488"/>
</g>
<!-- Node28 -->
<g id="node29" class="node">
<title>Node28</title>
<polygon fill="#ffffff" stroke="#bfbfbf" points="748.5,-73 748.5,-92 805.5,-92 805.5,-73 748.5,-73"/>
<text text-anchor="middle" x="777" y="-80" font-family="Helvetica,sans-Serif" font-size="10.00" fill="#000000">typeinfo</text>
</g>
<!-- Node27&#45;&gt;Node28 -->
<g id="edge46" class="edge">
<title>Node27&#45;&gt;Node28</title>
<path fill="none" stroke="#191970" d="M952.9239,-134.443C914.3034,-124.8494 864.0111,-111.6845 820,-98 817.3905,-97.1886 814.7049,-96.315 812.0109,-95.4107"/>
<polygon fill="#191970" stroke="#191970" points="812.9341,-92.0264 802.3393,-92.057 810.6408,-98.6401 812.9341,-92.0264"/>
</g>
<!-- Node29&#45;&gt;Node2 -->
<g id="edge51" class="edge">
<title>Node29&#45;&gt;Node2</title>
<path fill="none" stroke="#191970" d="M647.4701,-207.2269C596.907,-199.1005 535.7879,-185.3684 520,-165 502.8747,-142.9063 529.5235,-115.2132 550.837,-98.1936"/>
<polygon fill="#191970" stroke="#191970" points="553.1022,-100.8677 558.9278,-92.0182 548.8551,-95.3033 553.1022,-100.8677"/>
</g>
<!-- Node29&#45;&gt;Node4 -->
<g id="edge52" class="edge">
<title>Node29&#45;&gt;Node4</title>
<path fill="none" stroke="#191970" d="M750.7455,-201.4639C773.9394,-190.1209 805.5316,-174.6707 828.2294,-163.5703"/>
<polygon fill="#191970" stroke="#191970" points="829.9165,-166.6414 837.3621,-159.1039 826.8412,-160.3531 829.9165,-166.6414"/>
</g>
<!-- Node29&#45;&gt;Node5 -->
<g id="edge53" class="edge">
<title>Node29&#45;&gt;Node5</title>
<path fill="none" stroke="#191970" d="M732.5458,-201.4461C749.3947,-182.3468 781.2595,-149.9748 816,-134 869.915,-109.2081 1046.48,-91.5856 1119.7183,-85.1683"/>
<polygon fill="#191970" stroke="#191970" points="1120.0851,-88.6498 1129.7473,-84.3033 1119.4835,-81.6757 1120.0851,-88.6498"/>
</g>
<!-- Node29&#45;&gt;Node6 -->
<g id="edge56" class="edge">
<title>Node29&#45;&gt;Node6</title>
<path fill="none" stroke="#191970" d="M647.2261,-205.3886C591.4458,-195.8594 519.9349,-181.1422 495,-165 449.1844,-135.3403 457.6801,-107.4145 421,-67 409.6819,-54.5296 395.7468,-41.7063 384.609,-31.9749"/>
<polygon fill="#191970" stroke="#191970" points="386.5899,-29.062 376.7268,-25.1929 382.0244,-34.3683 386.5899,-29.062"/>
</g>
<!-- Node29&#45;&gt;Node8 -->
<g id="edge57" class="edge">
<title>Node29&#45;&gt;Node8</title>
<path fill="none" stroke="#191970" d="M647.4901,-206.1414C561.4562,-193.8509 418.5342,-173.4335 329.8242,-160.7606"/>
<polygon fill="#191970" stroke="#191970" points="330.2101,-157.2803 319.8156,-159.3308 329.2201,-164.2099 330.2101,-157.2803"/>
</g>
<!-- Node29&#45;&gt;Node12 -->
<g id="edge54" class="edge">
<title>Node29&#45;&gt;Node12</title>
<path fill="none" stroke="#191970" d="M719.1719,-201.2688C718.2555,-173.2956 719.1037,-112.441 740,-67 746.1043,-53.7256 756.8222,-41.4181 766.3772,-32.1654"/>
<polygon fill="#191970" stroke="#191970" points="769.0083,-34.5011 774.0032,-25.1576 764.2718,-29.3468 769.0083,-34.5011"/>
</g>
<!-- Node29&#45;&gt;Node15 -->
<g id="edge58" class="edge">
<title>Node29&#45;&gt;Node15</title>
<path fill="none" stroke="#191970" d="M647.4685,-208.2482C593.7436,-200.4677 527.0285,-186.7092 510,-165 479.0828,-125.5846 521.991,-69.2059 551.4177,-38.1633"/>
<polygon fill="#191970" stroke="#191970" points="554.0803,-40.446 558.5555,-30.8427 549.0684,-35.5592 554.0803,-40.446"/>
</g>
<!-- Node29&#45;&gt;Node27 -->
<g id="edge62" class="edge">
<title>Node29&#45;&gt;Node27</title>
<path fill="none" stroke="#191970" d="M786.4282,-201.4639C831.8602,-191.1803 892.2062,-177.5209 939.6254,-166.7875"/>
<polygon fill="#191970" stroke="#191970" points="940.5574,-170.1652 949.538,-164.5438 939.012,-163.3379 940.5574,-170.1652"/>
</g>
<!-- Node29&#45;&gt;Node28 -->
<g id="edge55" class="edge">
<title>Node29&#45;&gt;Node28</title>
<path fill="none" stroke="#191970" d="M726.4278,-201.389C736.8633,-176.8564 757.4716,-128.4088 768.8959,-101.5517"/>
<polygon fill="#191970" stroke="#191970" points="772.221,-102.6763 772.9146,-92.1042 765.7795,-99.9362 772.221,-102.6763"/>
</g>
<!-- Node30 -->
<g id="node31" class="node">
<title>Node30</title>
<g id="a_node31"><a xlink:href="is__cloneable_8h.html" target="_top" xlink:title="drake/common/is_cloneable.h">
<polygon fill="#ffffff" stroke="#000000" points="528.5,-140 528.5,-159 691.5,-159 691.5,-140 528.5,-140"/>
<text text-anchor="middle" x="610" y="-147" font-family="Helvetica,sans-Serif" font-size="10.00" fill="#000000">drake/common/is_cloneable.h</text>
</a>
</g>
</g>
<!-- Node29&#45;&gt;Node30 -->
<g id="edge59" class="edge">
<title>Node29&#45;&gt;Node30</title>
<path fill="none" stroke="#191970" d="M695.3139,-201.4639C677.1898,-190.4247 652.6791,-175.4954 634.58,-164.4715"/>
<polygon fill="#191970" stroke="#191970" points="636.1288,-161.3167 625.7676,-159.1039 632.4874,-167.2951 636.1288,-161.3167"/>
</g>
<!-- Node30&#45;&gt;Node2 -->
<g id="edge60" class="edge">
<title>Node30&#45;&gt;Node2</title>
<path fill="none" stroke="#191970" d="M604.6988,-139.9005C599.0938,-129.751 590.1161,-113.4941 583.1435,-100.8679"/>
<polygon fill="#191970" stroke="#191970" points="586.1895,-99.1435 578.2914,-92.0817 580.0618,-102.5275 586.1895,-99.1435"/>
</g>
<!-- Node30&#45;&gt;Node12 -->
<g id="edge61" class="edge">
<title>Node30&#45;&gt;Node12</title>
<path fill="none" stroke="#191970" d="M620.2592,-139.8504C637.4054,-123.9173 673.2377,-91.4409 706,-67 723.7081,-53.7897 744.7498,-40.3254 760.8081,-30.4785"/>
<polygon fill="#191970" stroke="#191970" points="762.8913,-33.3084 769.6243,-25.128 759.2596,-27.3242 762.8913,-33.3084"/>
</g>
</g>
</svg>
