<?xml version="1.0" encoding="UTF-8" standalone="no"?>
<!DOCTYPE svg PUBLIC "-//W3C//DTD SVG 1.1//EN"
 "http://www.w3.org/Graphics/SVG/1.1/DTD/svg11.dtd">
<!-- Generated by graphviz version 2.40.1 (20161225.0304)
 -->
<!-- Title: drake/common/proto/call_python.h Pages: 1 -->
<svg width="425pt" height="117pt"
 viewBox="0.00 0.00 425.00 117.00" xmlns="http://www.w3.org/2000/svg" xmlns:xlink="http://www.w3.org/1999/xlink">
<g id="graph0" class="graph" transform="scale(1 1) rotate(0) translate(4 113)">
<title>drake/common/proto/call_python.h</title>
<polygon fill="#ffffff" stroke="transparent" points="-4,4 -4,-113 421,-113 421,4 -4,4"/>
<!-- Node18 -->
<g id="node1" class="node">
<title>Node18</title>
<polygon fill="#bfbfbf" stroke="#000000" points="145,-78.5 145,-108.5 264,-108.5 264,-78.5 145,-78.5"/>
<text text-anchor="start" x="153" y="-96.5" font-family="Helvetica,sans-Serif" font-size="10.00" fill="#000000">drake/common/proto</text>
<text text-anchor="middle" x="204.5" y="-85.5" font-family="Helvetica,sans-Serif" font-size="10.00" fill="#000000">/call_python.h</text>
</g>
<!-- Node19 -->
<g id="node2" class="node">
<title>Node19</title>
<g id="a_node2"><a xlink:href="call__python_8cc.html" target="_top" xlink:title="drake/common/proto\l/call_python.cc">
<polygon fill="#ffffff" stroke="#000000" points="0,-6 0,-36 119,-36 119,-6 0,-6"/>
<text text-anchor="start" x="8" y="-24" font-family="Helvetica,sans-Serif" font-size="10.00" fill="#000000">drake/common/proto</text>
<text text-anchor="middle" x="59.5" y="-13" font-family="Helvetica,sans-Serif" font-size="10.00" fill="#000000">/call_python.cc</text>
</a>
</g>
</g>
<!-- Node18&#45;&gt;Node19 -->
<g id="edge1" class="edge">
<title>Node18&#45;&gt;Node19</title>
<path fill="none" stroke="#191970" d="M165.3157,-73.9079C141.4644,-61.9822 111.4655,-46.9828 89.5056,-36.0028"/>
<polygon fill="#191970" stroke="#191970" points="163.9464,-77.1363 174.4559,-78.478 167.0769,-70.8753 163.9464,-77.1363"/>
</g>
<!-- Node20 -->
<g id="node3" class="node">
<title>Node20</title>
<g id="a_node3"><a xlink:href="call__python__server__test_8cc.html" target="_top" xlink:title="drake/common/proto\l/test/call_python_server\l_test.cc">
<polygon fill="#ffffff" stroke="#000000" points="137.5,-.5 137.5,-41.5 271.5,-41.5 271.5,-.5 137.5,-.5"/>
<text text-anchor="start" x="145.5" y="-29.5" font-family="Helvetica,sans-Serif" font-size="10.00" fill="#000000">drake/common/proto</text>
<text text-anchor="start" x="145.5" y="-18.5" font-family="Helvetica,sans-Serif" font-size="10.00" fill="#000000">/test/call_python_server</text>
<text text-anchor="middle" x="204.5" y="-7.5" font-family="Helvetica,sans-Serif" font-size="10.00" fill="#000000">_test.cc</text>
</a>
</g>
</g>
<!-- Node18&#45;&gt;Node20 -->
<g id="edge2" class="edge">
<title>Node18&#45;&gt;Node20</title>
<path fill="none" stroke="#191970" d="M204.5,-68.4016C204.5,-59.6173 204.5,-49.8652 204.5,-41.5015"/>
<polygon fill="#191970" stroke="#191970" points="201.0001,-68.4779 204.5,-78.478 208.0001,-68.478 201.0001,-68.4779"/>
</g>
<!-- Node21 -->
<g id="node4" class="node">
<title>Node21</title>
<g id="a_node4"><a xlink:href="backward__reachability_8cc.html" target="_top" xlink:title="drake/examples/cubic\l_polynomial/backward\l_reachability.cc">
<polygon fill="#ffffff" stroke="#000000" points="290,-.5 290,-41.5 417,-41.5 417,-.5 290,-.5"/>
<text text-anchor="start" x="298" y="-29.5" font-family="Helvetica,sans-Serif" font-size="10.00" fill="#000000">drake/examples/cubic</text>
<text text-anchor="start" x="298" y="-18.5" font-family="Helvetica,sans-Serif" font-size="10.00" fill="#000000">_polynomial/backward</text>
<text text-anchor="middle" x="353.5" y="-7.5" font-family="Helvetica,sans-Serif" font-size="10.00" fill="#000000">_reachability.cc</text>
</a>
</g>
</g>
<!-- Node18&#45;&gt;Node21 -->
<g id="edge3" class="edge">
<title>Node18&#45;&gt;Node21</title>
<path fill="none" stroke="#191970" d="M244.5182,-74.0281C265.1871,-63.971 290.3992,-51.7034 311.3659,-41.5015"/>
<polygon fill="#191970" stroke="#191970" points="242.8336,-70.9554 235.3729,-78.478 245.8963,-77.2498 242.8336,-70.9554"/>
</g>
</g>
</svg>
