<?xml version="1.0" encoding="UTF-8" standalone="no"?>
<!DOCTYPE svg PUBLIC "-//W3C//DTD SVG 1.1//EN"
 "http://www.w3.org/Graphics/SVG/1.1/DTD/svg11.dtd">
<!-- Generated by graphviz version 2.40.1 (20161225.0304)
 -->
<!-- Title: drake/common/proto/call_matlab.h Pages: 1 -->
<!--zoomable 195 -->
<svg id="main" version="1.1" xmlns="http://www.w3.org/2000/svg" xmlns:xlink="http://www.w3.org/1999/xlink" xml:space="preserve" onload="init(evt)">
<style type="text/css"><![CDATA[
.edge:hover path { stroke: red; }
.edge:hover polygon { stroke: red; fill: red; }
]]></style>
<script type="text/javascript"><![CDATA[
var edges = document.getElementsByTagName('g');
if (edges && edges.length) {
  for (var i=0;i<edges.length;i++) {
    if (edges[i].id.substr(0,4)=='edge') {
      edges[i].setAttribute('class','edge');
    }
  }
}
]]></script>
        <defs>
                <circle id="rim" cx="0" cy="0" r="7"/>
                <circle id="rim2" cx="0" cy="0" r="3.5"/>
                <g id="zoomPlus">
                        <use xlink:href="#rim" fill="#404040">
                                <set attributeName="fill" to="#808080" begin="zoomplus.mouseover" end="zoomplus.mouseout"/>
                        </use>
                        <path d="M-4,0h8M0,-4v8" fill="none" stroke="white" stroke-width="1.5" pointer-events="none"/>
                </g>
                <g id="zoomMin">
                        <use xlink:href="#rim" fill="#404040">
                                <set attributeName="fill" to="#808080" begin="zoomminus.mouseover" end="zoomminus.mouseout"/>
                        </use>
                        <path d="M-4,0h8" fill="none" stroke="white" stroke-width="1.5" pointer-events="none"/>
                </g>
                <g id="dirArrow">
                        <path fill="none" stroke="white" stroke-width="1.5" d="M0,-3.0v7 M-2.5,-0.5L0,-3.0L2.5,-0.5"/>
                </g>
               <g id="resetDef">
                       <use xlink:href="#rim2" fill="#404040">
                               <set attributeName="fill" to="#808080" begin="reset.mouseover" end="reset.mouseout"/>
                       </use>
               </g>
        </defs>

<script type="text/javascript">
var viewWidth = 1766;
var viewHeight = 195;
var sectionId = 'dynsection-1';
</script>
<script xlink:href="svgpan.js"/>
<svg id="graph" class="graph">
<g id="viewport">
<title>drake/common/proto/call_matlab.h</title>
<polygon fill="#ffffff" stroke="transparent" points="-4,4 -4,-191 1761.5,-191 1761.5,4 -4,4"/>
<!-- Node11 -->
<g id="node1" class="node">
<title>Node11</title>
<polygon fill="#bfbfbf" stroke="#000000" points="801.5,-156.5 801.5,-186.5 920.5,-186.5 920.5,-156.5 801.5,-156.5"/>
<text text-anchor="start" x="809.5" y="-174.5" font-family="Helvetica,sans-Serif" font-size="10.00" fill="#000000">drake/common/proto</text>
<text text-anchor="middle" x="861" y="-163.5" font-family="Helvetica,sans-Serif" font-size="10.00" fill="#000000">/call_matlab.h</text>
</g>
<!-- Node12 -->
<g id="node2" class="node">
<title>Node12</title>
<g id="a_node2"><a xlink:href="trajectory__optimization__test_8cc.html" target="_top" xlink:title="drake/automotive/test\l/trajectory_optimization\l_test.cc">
<polygon fill="#ffffff" stroke="#000000" points="0,-78.5 0,-119.5 134,-119.5 134,-78.5 0,-78.5"/>
<text text-anchor="start" x="8" y="-107.5" font-family="Helvetica,sans-Serif" font-size="10.00" fill="#000000">drake/automotive/test</text>
<text text-anchor="start" x="8" y="-96.5" font-family="Helvetica,sans-Serif" font-size="10.00" fill="#000000">/trajectory_optimization</text>
<text text-anchor="middle" x="67" y="-85.5" font-family="Helvetica,sans-Serif" font-size="10.00" fill="#000000">_test.cc</text>
</a>
</g>
</g>
<!-- Node11&#45;&gt;Node12 -->
<g id="edge1" class="edge">
<title>Node11&#45;&gt;Node12</title>
<path fill="none" stroke="#191970" d="M790.9913,-168.2479C635.6721,-160.7449 266.2519,-141.2328 143,-120 140.1671,-119.512 137.2875,-118.9627 134.388,-118.3655"/>
<polygon fill="#191970" stroke="#191970" points="791.1964,-171.7617 801.353,-168.7459 791.5326,-164.7697 791.1964,-171.7617"/>
</g>
<!-- Node13 -->
<g id="node3" class="node">
<title>Node13</title>
<g id="a_node3"><a xlink:href="call__matlab_8cc.html" target="_top" xlink:title="drake/common/proto\l/call_matlab.cc">
<polygon fill="#ffffff" stroke="#000000" points="152.5,-84 152.5,-114 271.5,-114 271.5,-84 152.5,-84"/>
<text text-anchor="start" x="160.5" y="-102" font-family="Helvetica,sans-Serif" font-size="10.00" fill="#000000">drake/common/proto</text>
<text text-anchor="middle" x="212" y="-91" font-family="Helvetica,sans-Serif" font-size="10.00" fill="#000000">/call_matlab.cc</text>
</a>
</g>
</g>
<!-- Node11&#45;&gt;Node13 -->
<g id="edge2" class="edge">
<title>Node11&#45;&gt;Node13</title>
<path fill="none" stroke="#191970" d="M790.8783,-169.9421C681.1714,-166.4609 462.6894,-155.3196 281,-120 273.0105,-118.4469 264.6298,-116.3286 256.5717,-114.0323"/>
<polygon fill="#191970" stroke="#191970" points="791.0485,-173.4489 801.1507,-170.2557 791.2621,-166.4521 791.0485,-173.4489"/>
</g>
<!-- Node14 -->
<g id="node4" class="node">
<title>Node14</title>
<g id="a_node4"><a xlink:href="call__python_8h.html" target="_top" xlink:title="Utilities for calling Python from C++. ">
<polygon fill="#ffffff" stroke="#000000" points="289.5,-84 289.5,-114 408.5,-114 408.5,-84 289.5,-84"/>
<text text-anchor="start" x="297.5" y="-102" font-family="Helvetica,sans-Serif" font-size="10.00" fill="#000000">drake/common/proto</text>
<text text-anchor="middle" x="349" y="-91" font-family="Helvetica,sans-Serif" font-size="10.00" fill="#000000">/call_python.h</text>
</a>
</g>
</g>
<!-- Node11&#45;&gt;Node14 -->
<g id="edge3" class="edge">
<title>Node11&#45;&gt;Node14</title>
<path fill="none" stroke="#191970" d="M791.2334,-167.2794C703.4289,-161.0799 548.3273,-147.1776 418,-120 410.2775,-118.3896 402.1771,-116.3 394.3525,-114.0646"/>
<polygon fill="#191970" stroke="#191970" points="791.1226,-170.78 801.3407,-167.9799 791.6067,-163.7968 791.1226,-170.78"/>
</g>
<!-- Node18 -->
<g id="node8" class="node">
<title>Node18</title>
<g id="a_node8"><a xlink:href="call__matlab__test_8cc.html" target="_top" xlink:title="drake/common/proto\l/test/call_matlab_test.cc">
<polygon fill="#ffffff" stroke="#000000" points="427,-84 427,-114 563,-114 563,-84 427,-84"/>
<text text-anchor="start" x="435" y="-102" font-family="Helvetica,sans-Serif" font-size="10.00" fill="#000000">drake/common/proto</text>
<text text-anchor="middle" x="495" y="-91" font-family="Helvetica,sans-Serif" font-size="10.00" fill="#000000">/test/call_matlab_test.cc</text>
</a>
</g>
</g>
<!-- Node11&#45;&gt;Node18 -->
<g id="edge7" class="edge">
<title>Node11&#45;&gt;Node18</title>
<path fill="none" stroke="#191970" d="M791.5288,-160.7978C732.9871,-151.3686 647.1534,-136.58 573,-120 565.0622,-118.2252 556.7174,-116.1766 548.5575,-114.0695"/>
<polygon fill="#191970" stroke="#191970" points="790.9796,-164.2544 801.4073,-162.3798 792.0866,-157.3425 790.9796,-164.2544"/>
</g>
<!-- Node19 -->
<g id="node9" class="node">
<title>Node19</title>
<g id="a_node9"><a xlink:href="run__lqr__w__estimator_8cc.html" target="_top" xlink:title="drake/examples/acrobot\l/run_lqr_w_estimator.cc">
<polygon fill="#ffffff" stroke="#000000" points="581.5,-84 581.5,-114 716.5,-114 716.5,-84 581.5,-84"/>
<text text-anchor="start" x="589.5" y="-102" font-family="Helvetica,sans-Serif" font-size="10.00" fill="#000000">drake/examples/acrobot</text>
<text text-anchor="middle" x="649" y="-91" font-family="Helvetica,sans-Serif" font-size="10.00" fill="#000000">/run_lqr_w_estimator.cc</text>
</a>
</g>
</g>
<!-- Node11&#45;&gt;Node19 -->
<g id="edge8" class="edge">
<title>Node11&#45;&gt;Node19</title>
<path fill="none" stroke="#191970" d="M807.3784,-153.1624C771.9575,-141.0491 726.1137,-125.3714 692.8703,-114.0028"/>
<polygon fill="#191970" stroke="#191970" points="806.4789,-156.5538 817.0735,-156.478 808.744,-149.9304 806.4789,-156.5538"/>
</g>
<!-- Node20 -->
<g id="node10" class="node">
<title>Node20</title>
<g id="a_node10"><a xlink:href="plot__limit__cycle_8cc.html" target="_top" xlink:title="drake/examples/van\l_der_pol/plot_limit\l_cycle.cc">
<polygon fill="#ffffff" stroke="#000000" points="735,-78.5 735,-119.5 851,-119.5 851,-78.5 735,-78.5"/>
<text text-anchor="start" x="743" y="-107.5" font-family="Helvetica,sans-Serif" font-size="10.00" fill="#000000">drake/examples/van</text>
<text text-anchor="start" x="743" y="-96.5" font-family="Helvetica,sans-Serif" font-size="10.00" fill="#000000">_der_pol/plot_limit</text>
<text text-anchor="middle" x="793" y="-85.5" font-family="Helvetica,sans-Serif" font-size="10.00" fill="#000000">_cycle.cc</text>
</a>
</g>
</g>
<!-- Node11&#45;&gt;Node20 -->
<g id="edge9" class="edge">
<title>Node11&#45;&gt;Node20</title>
<path fill="none" stroke="#191970" d="M839.8751,-148.9772C831.0424,-139.5599 820.8494,-128.6924 812.229,-119.5015"/>
<polygon fill="#191970" stroke="#191970" points="837.5164,-151.5785 846.9104,-156.478 842.6221,-146.7897 837.5164,-151.5785"/>
</g>
<!-- Node21 -->
<g id="node11" class="node">
<title>Node21</title>
<g id="a_node11"><a xlink:href="zmp__example_8cc.html" target="_top" xlink:title="drake/examples/zmp\l/zmp_example.cc">
<polygon fill="#ffffff" stroke="#000000" points="869.5,-84 869.5,-114 988.5,-114 988.5,-84 869.5,-84"/>
<text text-anchor="start" x="877.5" y="-102" font-family="Helvetica,sans-Serif" font-size="10.00" fill="#000000">drake/examples/zmp</text>
<text text-anchor="middle" x="929" y="-91" font-family="Helvetica,sans-Serif" font-size="10.00" fill="#000000">/zmp_example.cc</text>
</a>
</g>
</g>
<!-- Node11&#45;&gt;Node21 -->
<g id="edge10" class="edge">
<title>Node11&#45;&gt;Node21</title>
<path fill="none" stroke="#191970" d="M882.1002,-149.0035C892.7786,-137.6184 905.4502,-124.1083 914.9284,-114.0028"/>
<polygon fill="#191970" stroke="#191970" points="879.3779,-146.7897 875.0896,-156.478 884.4836,-151.5785 879.3779,-146.7897"/>
</g>
<!-- Node22 -->
<g id="node12" class="node">
<title>Node22</title>
<g id="a_node12"><a xlink:href="plot__feasible__rotation__matrices_8cc.html" target="_top" xlink:title="drake/solvers/test\l/plot_feasible_rotation\l_matrices.cc">
<polygon fill="#ffffff" stroke="#000000" points="1007,-78.5 1007,-119.5 1133,-119.5 1133,-78.5 1007,-78.5"/>
<text text-anchor="start" x="1015" y="-107.5" font-family="Helvetica,sans-Serif" font-size="10.00" fill="#000000">drake/solvers/test</text>
<text text-anchor="start" x="1015" y="-96.5" font-family="Helvetica,sans-Serif" font-size="10.00" fill="#000000">/plot_feasible_rotation</text>
<text text-anchor="middle" x="1070" y="-85.5" font-family="Helvetica,sans-Serif" font-size="10.00" fill="#000000">_matrices.cc</text>
</a>
</g>
</g>
<!-- Node11&#45;&gt;Node22 -->
<g id="edge11" class="edge">
<title>Node11&#45;&gt;Node22</title>
<path fill="none" stroke="#191970" d="M914.024,-153.1065C943.5683,-142.8579 980.4297,-130.071 1010.8991,-119.5015"/>
<polygon fill="#191970" stroke="#191970" points="912.6056,-149.8939 904.3049,-156.478 914.8997,-156.5073 912.6056,-149.8939"/>
</g>
<!-- Node23 -->
<g id="node13" class="node">
<title>Node23</title>
<g id="a_node13"><a xlink:href="plot__rotation__mccormick__envelope_8cc.html" target="_top" xlink:title="drake/solvers/test\l/plot_rotation_mccormick\l_envelope.cc">
<polygon fill="#ffffff" stroke="#000000" points="1151.5,-78.5 1151.5,-119.5 1292.5,-119.5 1292.5,-78.5 1151.5,-78.5"/>
<text text-anchor="start" x="1159.5" y="-107.5" font-family="Helvetica,sans-Serif" font-size="10.00" fill="#000000">drake/solvers/test</text>
<text text-anchor="start" x="1159.5" y="-96.5" font-family="Helvetica,sans-Serif" font-size="10.00" fill="#000000">/plot_rotation_mccormick</text>
<text text-anchor="middle" x="1222" y="-85.5" font-family="Helvetica,sans-Serif" font-size="10.00" fill="#000000">_envelope.cc</text>
</a>
</g>
</g>
<!-- Node11&#45;&gt;Node23 -->
<g id="edge12" class="edge">
<title>Node11&#45;&gt;Node23</title>
<path fill="none" stroke="#191970" d="M930.7298,-160.2253C987.7698,-150.6419 1070.4112,-135.9324 1142,-120 1145.0836,-119.3137 1148.2281,-118.5903 1151.4001,-117.8412"/>
<polygon fill="#191970" stroke="#191970" points="930.0264,-156.7943 920.7404,-161.8953 931.1806,-163.6985 930.0264,-156.7943"/>
</g>
<!-- Node24 -->
<g id="node14" class="node">
<title>Node24</title>
<g id="a_node14"><a xlink:href="rotation__constraint__visualization_8cc.html" target="_top" xlink:title="drake/solvers/test\l/rotation_constraint\l_visualization.cc">
<polygon fill="#ffffff" stroke="#000000" points="1311,-78.5 1311,-119.5 1423,-119.5 1423,-78.5 1311,-78.5"/>
<text text-anchor="start" x="1319" y="-107.5" font-family="Helvetica,sans-Serif" font-size="10.00" fill="#000000">drake/solvers/test</text>
<text text-anchor="start" x="1319" y="-96.5" font-family="Helvetica,sans-Serif" font-size="10.00" fill="#000000">/rotation_constraint</text>
<text text-anchor="middle" x="1367" y="-85.5" font-family="Helvetica,sans-Serif" font-size="10.00" fill="#000000">_visualization.cc</text>
</a>
</g>
</g>
<!-- Node11&#45;&gt;Node24 -->
<g id="edge13" class="edge">
<title>Node11&#45;&gt;Node24</title>
<path fill="none" stroke="#191970" d="M930.8951,-167.5839C1018.446,-161.7103 1172.6771,-148.1559 1302,-120 1304.8969,-119.3693 1307.8479,-118.6615 1310.8148,-117.8977"/>
<polygon fill="#191970" stroke="#191970" points="930.564,-164.098 920.8149,-168.2459 931.0228,-171.083 930.564,-164.098"/>
</g>
<!-- Node25 -->
<g id="node15" class="node">
<title>Node25</title>
<g id="a_node15"><a xlink:href="dynamic__programming__test_8cc.html" target="_top" xlink:title="drake/systems/controllers\l/test/dynamic_programming\l_test.cc">
<polygon fill="#ffffff" stroke="#000000" points="1441.5,-78.5 1441.5,-119.5 1596.5,-119.5 1596.5,-78.5 1441.5,-78.5"/>
<text text-anchor="start" x="1449.5" y="-107.5" font-family="Helvetica,sans-Serif" font-size="10.00" fill="#000000">drake/systems/controllers</text>
<text text-anchor="start" x="1449.5" y="-96.5" font-family="Helvetica,sans-Serif" font-size="10.00" fill="#000000">/test/dynamic_programming</text>
<text text-anchor="middle" x="1519" y="-85.5" font-family="Helvetica,sans-Serif" font-size="10.00" fill="#000000">_test.cc</text>
</a>
</g>
</g>
<!-- Node11&#45;&gt;Node25 -->
<g id="edge14" class="edge">
<title>Node11&#45;&gt;Node25</title>
<path fill="none" stroke="#191970" d="M930.661,-168.5191C1038.6364,-163.1572 1252.662,-149.5673 1432,-120 1435.0662,-119.4945 1438.1843,-118.9398 1441.3275,-118.3467"/>
<polygon fill="#191970" stroke="#191970" points="930.365,-165.0293 920.5475,-169.0126 930.7063,-172.021 930.365,-165.0293"/>
</g>
<!-- Node26 -->
<g id="node16" class="node">
<title>Node26</title>
<g id="a_node16"><a xlink:href="beam__model__test_8cc.html" target="_top" xlink:title="drake/systems/sensors\l/test/beam_model_test.cc">
<polygon fill="#ffffff" stroke="#000000" points="1614.5,-84 1614.5,-114 1757.5,-114 1757.5,-84 1614.5,-84"/>
<text text-anchor="start" x="1622.5" y="-102" font-family="Helvetica,sans-Serif" font-size="10.00" fill="#000000">drake/systems/sensors</text>
<text text-anchor="middle" x="1686" y="-91" font-family="Helvetica,sans-Serif" font-size="10.00" fill="#000000">/test/beam_model_test.cc</text>
</a>
</g>
</g>
<!-- Node11&#45;&gt;Node26 -->
<g id="edge15" class="edge">
<title>Node11&#45;&gt;Node26</title>
<path fill="none" stroke="#191970" d="M930.7981,-168.3523C1090.217,-160.8908 1477.2162,-141.1616 1606,-120 1615.2101,-118.4866 1624.9007,-116.3879 1634.234,-114.0987"/>
<polygon fill="#191970" stroke="#191970" points="930.458,-164.8643 920.6318,-168.8259 930.7838,-171.8567 930.458,-164.8643"/>
</g>
<!-- Node15 -->
<g id="node5" class="node">
<title>Node15</title>
<g id="a_node5"><a xlink:href="call__python_8cc.html" target="_top" xlink:title="drake/common/proto\l/call_python.cc">
<polygon fill="#ffffff" stroke="#000000" points="144.5,-6 144.5,-36 263.5,-36 263.5,-6 144.5,-6"/>
<text text-anchor="start" x="152.5" y="-24" font-family="Helvetica,sans-Serif" font-size="10.00" fill="#000000">drake/common/proto</text>
<text text-anchor="middle" x="204" y="-13" font-family="Helvetica,sans-Serif" font-size="10.00" fill="#000000">/call_python.cc</text>
</a>
</g>
</g>
<!-- Node14&#45;&gt;Node15 -->
<g id="edge4" class="edge">
<title>Node14&#45;&gt;Node15</title>
<path fill="none" stroke="#191970" d="M311.9448,-79.0669C287.1816,-65.746 255.101,-48.4888 232.3664,-36.2592"/>
<polygon fill="#191970" stroke="#191970" points="310.5778,-82.3057 321.0425,-83.9608 313.894,-76.1411 310.5778,-82.3057"/>
</g>
<!-- Node16 -->
<g id="node6" class="node">
<title>Node16</title>
<g id="a_node6"><a xlink:href="call__python__server__test_8cc.html" target="_top" xlink:title="drake/common/proto\l/test/call_python_server\l_test.cc">
<polygon fill="#ffffff" stroke="#000000" points="282,-.5 282,-41.5 416,-41.5 416,-.5 282,-.5"/>
<text text-anchor="start" x="290" y="-29.5" font-family="Helvetica,sans-Serif" font-size="10.00" fill="#000000">drake/common/proto</text>
<text text-anchor="start" x="290" y="-18.5" font-family="Helvetica,sans-Serif" font-size="10.00" fill="#000000">/test/call_python_server</text>
<text text-anchor="middle" x="349" y="-7.5" font-family="Helvetica,sans-Serif" font-size="10.00" fill="#000000">_test.cc</text>
</a>
</g>
</g>
<!-- Node14&#45;&gt;Node16 -->
<g id="edge5" class="edge">
<title>Node14&#45;&gt;Node16</title>
<path fill="none" stroke="#191970" d="M349,-73.8044C349,-63.3919 349,-51.4721 349,-41.5956"/>
<polygon fill="#191970" stroke="#191970" points="345.5001,-73.9608 349,-83.9608 352.5001,-73.9608 345.5001,-73.9608"/>
</g>
<!-- Node17 -->
<g id="node7" class="node">
<title>Node17</title>
<g id="a_node7"><a xlink:href="backward__reachability_8cc.html" target="_top" xlink:title="drake/examples/cubic\l_polynomial/backward\l_reachability.cc">
<polygon fill="#ffffff" stroke="#000000" points="434.5,-.5 434.5,-41.5 561.5,-41.5 561.5,-.5 434.5,-.5"/>
<text text-anchor="start" x="442.5" y="-29.5" font-family="Helvetica,sans-Serif" font-size="10.00" fill="#000000">drake/examples/cubic</text>
<text text-anchor="start" x="442.5" y="-18.5" font-family="Helvetica,sans-Serif" font-size="10.00" fill="#000000">_polynomial/backward</text>
<text text-anchor="middle" x="498" y="-7.5" font-family="Helvetica,sans-Serif" font-size="10.00" fill="#000000">_reachability.cc</text>
</a>
</g>
</g>
<!-- Node14&#45;&gt;Node17 -->
<g id="edge6" class="edge">
<title>Node14&#45;&gt;Node17</title>
<path fill="none" stroke="#191970" d="M386.7675,-79.2291C408.7464,-67.7234 436.4143,-53.2395 458.6571,-41.5956"/>
<polygon fill="#191970" stroke="#191970" points="384.9649,-76.2221 377.7287,-83.9608 388.2115,-82.4237 384.9649,-76.2221"/>
</g>
</g>
</svg>
        <g id="navigator" transform="translate(0 0)" fill="#404254">
                <rect fill="#f2f5e9" fill-opacity="0.5" stroke="#606060" stroke-width=".5" x="0" y="0" width="60" height="60"/>
                <use id="zoomplus" xlink:href="#zoomPlus" x="17" y="9" onmousedown="handleZoom(evt,'in')"/>
                <use id="zoomminus" xlink:href="#zoomMin" x="42" y="9" onmousedown="handleZoom(evt,'out')"/>
                <use id="reset" xlink:href="#resetDef" x="30" y="36" onmousedown="handleReset()"/>
                <g id="arrowUp" xlink:href="#dirArrow" transform="translate(30 24)" onmousedown="handlePan(0,-1)">
                  <use xlink:href="#rim" fill="#404040">
                        <set attributeName="fill" to="#808080" begin="arrowUp.mouseover" end="arrowUp.mouseout"/>
                  </use>
                  <path fill="none" stroke="white" stroke-width="1.5" d="M0,-3.0v7 M-2.5,-0.5L0,-3.0L2.5,-0.5"/>
                </g>
                <g id="arrowRight" xlink:href="#dirArrow" transform="rotate(90) translate(36 -43)" onmousedown="handlePan(1,0)">
                  <use xlink:href="#rim" fill="#404040">
                        <set attributeName="fill" to="#808080" begin="arrowRight.mouseover" end="arrowRight.mouseout"/>
                  </use>
                  <path fill="none" stroke="white" stroke-width="1.5" d="M0,-3.0v7 M-2.5,-0.5L0,-3.0L2.5,-0.5"/>
                </g>
                <g id="arrowDown" xlink:href="#dirArrow" transform="rotate(180) translate(-30 -48)" onmousedown="handlePan(0,1)">
                  <use xlink:href="#rim" fill="#404040">
                        <set attributeName="fill" to="#808080" begin="arrowDown.mouseover" end="arrowDown.mouseout"/>
                  </use>
                  <path fill="none" stroke="white" stroke-width="1.5" d="M0,-3.0v7 M-2.5,-0.5L0,-3.0L2.5,-0.5"/>
                </g>
                <g id="arrowLeft" xlink:href="#dirArrow" transform="rotate(270) translate(-36 17)" onmousedown="handlePan(-1,0)">
                  <use xlink:href="#rim" fill="#404040">
                        <set attributeName="fill" to="#808080" begin="arrowLeft.mouseover" end="arrowLeft.mouseout"/>
                  </use>
                  <path fill="none" stroke="white" stroke-width="1.5" d="M0,-3.0v7 M-2.5,-0.5L0,-3.0L2.5,-0.5"/>
                </g>
        </g>
        <svg viewBox="0 0 15 15" width="100%" height="30px" preserveAspectRatio="xMaxYMin meet">
         <g id="arrow_out" transform="scale(0.3 0.3)">
          <a xlink:href="call__matlab_8h__dep__incl_org.svg" target="_base">
           <rect id="button" ry="5" rx="5" y="6" x="6" height="38" width="38"
                fill="#f2f5e9" fill-opacity="0.5" stroke="#606060" stroke-width="1.0"/>
           <path id="arrow"
             d="M 11.500037,31.436501 C 11.940474,20.09759 22.043105,11.32322 32.158766,21.979434 L 37.068811,17.246167 C 37.068811,17.246167 37.088388,32 37.088388,32 L 22.160133,31.978069 C 22.160133,31.978069 26.997745,27.140456 26.997745,27.140456 C 18.528582,18.264221 13.291696,25.230495 11.500037,31.436501 z"
             style="fill:#404040;"/>
          </a>
         </g>
        </svg>
</svg>
