<?xml version="1.0" encoding="UTF-8" standalone="no"?>
<!DOCTYPE svg PUBLIC "-//W3C//DTD SVG 1.1//EN"
 "http://www.w3.org/Graphics/SVG/1.1/DTD/svg11.dtd">
<!-- Generated by graphviz version 2.40.1 (20161225.0304)
 -->
<!-- Title: drake/systems/sensors/camera_info.h Pages: 1 -->
<svg width="797pt" height="184pt"
 viewBox="0.00 0.00 796.50 184.00" xmlns="http://www.w3.org/2000/svg" xmlns:xlink="http://www.w3.org/1999/xlink">
<g id="graph0" class="graph" transform="scale(1 1) rotate(0) translate(4 180)">
<title>drake/systems/sensors/camera_info.h</title>
<polygon fill="#ffffff" stroke="transparent" points="-4,4 -4,-180 792.5,-180 792.5,4 -4,4"/>
<!-- Node3 -->
<g id="node1" class="node">
<title>Node3</title>
<polygon fill="#bfbfbf" stroke="#000000" points="359,-145.5 359,-175.5 488,-175.5 488,-145.5 359,-145.5"/>
<text text-anchor="start" x="367" y="-163.5" font-family="Helvetica,sans-Serif" font-size="10.00" fill="#000000">drake/systems/sensors</text>
<text text-anchor="middle" x="423.5" y="-152.5" font-family="Helvetica,sans-Serif" font-size="10.00" fill="#000000">/camera_info.h</text>
</g>
<!-- Node4 -->
<g id="node2" class="node">
<title>Node4</title>
<g id="a_node2"><a xlink:href="rgbd__camera_8cc.html" target="_top" xlink:title="drake/attic/systems\l/sensors/rgbd_camera.cc">
<polygon fill="#ffffff" stroke="#000000" points="0,-78.5 0,-108.5 137,-108.5 137,-78.5 0,-78.5"/>
<text text-anchor="start" x="8" y="-96.5" font-family="Helvetica,sans-Serif" font-size="10.00" fill="#000000">drake/attic/systems</text>
<text text-anchor="middle" x="68.5" y="-85.5" font-family="Helvetica,sans-Serif" font-size="10.00" fill="#000000">/sensors/rgbd_camera.cc</text>
</a>
</g>
</g>
<!-- Node3&#45;&gt;Node4 -->
<g id="edge1" class="edge">
<title>Node3&#45;&gt;Node4</title>
<path fill="none" stroke="#191970" d="M349.0094,-147.0235C292.9946,-136.8111 214.3773,-122.3115 145.5,-109 142.8223,-108.4825 140.093,-107.9513 137.3366,-107.4116"/>
<polygon fill="#191970" stroke="#191970" points="348.3822,-150.4668 358.8476,-148.8154 349.6366,-143.5801 348.3822,-150.4668"/>
</g>
<!-- Node5 -->
<g id="node3" class="node">
<title>Node5</title>
<g id="a_node3"><a xlink:href="rgbd__camera_8h.html" target="_top" xlink:title="drake/attic/systems\l/sensors/rgbd_camera.h">
<polygon fill="#ffffff" stroke="#000000" points="155,-78.5 155,-108.5 288,-108.5 288,-78.5 155,-78.5"/>
<text text-anchor="start" x="163" y="-96.5" font-family="Helvetica,sans-Serif" font-size="10.00" fill="#000000">drake/attic/systems</text>
<text text-anchor="middle" x="221.5" y="-85.5" font-family="Helvetica,sans-Serif" font-size="10.00" fill="#000000">/sensors/rgbd_camera.h</text>
</a>
</g>
</g>
<!-- Node3&#45;&gt;Node5 -->
<g id="edge2" class="edge">
<title>Node3&#45;&gt;Node5</title>
<path fill="none" stroke="#191970" d="M368.5557,-142.2759C336.72,-131.7165 297.1158,-118.5805 267.0305,-108.6017"/>
<polygon fill="#191970" stroke="#191970" points="367.5738,-145.6377 378.1673,-145.4639 369.7776,-138.9936 367.5738,-145.6377"/>
</g>
<!-- Node6 -->
<g id="node4" class="node">
<title>Node6</title>
<g id="a_node4"><a xlink:href="depth__image__to__point__cloud_8h.html" target="_top" xlink:title="drake/perception/depth\l_image_to_point_cloud.h">
<polygon fill="#ffffff" stroke="#000000" points="306.5,-78.5 306.5,-108.5 444.5,-108.5 444.5,-78.5 306.5,-78.5"/>
<text text-anchor="start" x="314.5" y="-96.5" font-family="Helvetica,sans-Serif" font-size="10.00" fill="#000000">drake/perception/depth</text>
<text text-anchor="middle" x="375.5" y="-85.5" font-family="Helvetica,sans-Serif" font-size="10.00" fill="#000000">_image_to_point_cloud.h</text>
</a>
</g>
</g>
<!-- Node3&#45;&gt;Node6 -->
<g id="edge3" class="edge">
<title>Node3&#45;&gt;Node6</title>
<path fill="none" stroke="#191970" d="M406.709,-137.0626C399.9524,-127.6315 392.3556,-117.0276 386.3488,-108.6432"/>
<polygon fill="#191970" stroke="#191970" points="403.939,-139.2059 412.6081,-145.2967 409.6294,-135.1292 403.939,-139.2059"/>
</g>
<!-- Node9 -->
<g id="node7" class="node">
<title>Node9</title>
<g id="a_node7"><a xlink:href="depth__image__to__point__cloud__test_8cc.html" target="_top" xlink:title="drake/perception/test\l/depth_image_to_point\l_cloud_test.cc">
<polygon fill="#ffffff" stroke="#000000" points="436.5,-.5 436.5,-41.5 564.5,-41.5 564.5,-.5 436.5,-.5"/>
<text text-anchor="start" x="444.5" y="-29.5" font-family="Helvetica,sans-Serif" font-size="10.00" fill="#000000">drake/perception/test</text>
<text text-anchor="start" x="444.5" y="-18.5" font-family="Helvetica,sans-Serif" font-size="10.00" fill="#000000">/depth_image_to_point</text>
<text text-anchor="middle" x="500.5" y="-7.5" font-family="Helvetica,sans-Serif" font-size="10.00" fill="#000000">_cloud_test.cc</text>
</a>
</g>
</g>
<!-- Node3&#45;&gt;Node9 -->
<g id="edge7" class="edge">
<title>Node3&#45;&gt;Node9</title>
<path fill="none" stroke="#191970" d="M437.745,-136.469C442.7912,-127.8458 448.4639,-118.0243 453.5,-109 466.245,-86.1619 480.3069,-59.6491 489.698,-41.7423"/>
<polygon fill="#191970" stroke="#191970" points="434.6268,-134.8669 432.5752,-145.2612 440.661,-138.415 434.6268,-134.8669"/>
</g>
<!-- Node10 -->
<g id="node8" class="node">
<title>Node10</title>
<g id="a_node8"><a xlink:href="camera__info_8cc.html" target="_top" xlink:title="drake/systems/sensors\l/camera_info.cc">
<polygon fill="#ffffff" stroke="#000000" points="501,-78.5 501,-108.5 630,-108.5 630,-78.5 501,-78.5"/>
<text text-anchor="start" x="509" y="-96.5" font-family="Helvetica,sans-Serif" font-size="10.00" fill="#000000">drake/systems/sensors</text>
<text text-anchor="middle" x="565.5" y="-85.5" font-family="Helvetica,sans-Serif" font-size="10.00" fill="#000000">/camera_info.cc</text>
</a>
</g>
</g>
<!-- Node3&#45;&gt;Node10 -->
<g id="edge8" class="edge">
<title>Node3&#45;&gt;Node10</title>
<path fill="none" stroke="#191970" d="M464.4253,-141.1902C486.3011,-130.8685 512.8496,-118.3421 533.2475,-108.7177"/>
<polygon fill="#191970" stroke="#191970" points="462.9179,-138.0313 455.3676,-145.4639 465.905,-144.362 462.9179,-138.0313"/>
</g>
<!-- Node11 -->
<g id="node9" class="node">
<title>Node11</title>
<g id="a_node9"><a xlink:href="camera__info__test_8cc.html" target="_top" xlink:title="drake/systems/sensors\l/test/camera_info_test.cc">
<polygon fill="#ffffff" stroke="#000000" points="648.5,-78.5 648.5,-108.5 788.5,-108.5 788.5,-78.5 648.5,-78.5"/>
<text text-anchor="start" x="656.5" y="-96.5" font-family="Helvetica,sans-Serif" font-size="10.00" fill="#000000">drake/systems/sensors</text>
<text text-anchor="middle" x="718.5" y="-85.5" font-family="Helvetica,sans-Serif" font-size="10.00" fill="#000000">/test/camera_info_test.cc</text>
</a>
</g>
</g>
<!-- Node3&#45;&gt;Node11 -->
<g id="edge9" class="edge">
<title>Node3&#45;&gt;Node11</title>
<path fill="none" stroke="#191970" d="M498.1612,-143.543C545.6651,-132.754 606.6268,-118.9085 652.3809,-108.5169"/>
<polygon fill="#191970" stroke="#191970" points="497.2155,-140.1686 488.239,-145.7966 498.7659,-146.9948 497.2155,-140.1686"/>
</g>
<!-- Node7 -->
<g id="node5" class="node">
<title>Node7</title>
<g id="a_node5"><a xlink:href="perception__py_8cc.html" target="_top" xlink:title="drake/bindings/pydrake\l/perception_py.cc">
<polygon fill="#ffffff" stroke="#000000" points="126,-6 126,-36 257,-36 257,-6 126,-6"/>
<text text-anchor="start" x="134" y="-24" font-family="Helvetica,sans-Serif" font-size="10.00" fill="#000000">drake/bindings/pydrake</text>
<text text-anchor="middle" x="191.5" y="-13" font-family="Helvetica,sans-Serif" font-size="10.00" fill="#000000">/perception_py.cc</text>
</a>
</g>
</g>
<!-- Node6&#45;&gt;Node7 -->
<g id="edge4" class="edge">
<title>Node6&#45;&gt;Node7</title>
<path fill="none" stroke="#191970" d="M327.7737,-74.6948C297.1994,-62.6478 258.059,-47.2257 229.5761,-36.0028"/>
<polygon fill="#191970" stroke="#191970" points="326.7882,-78.0683 337.3751,-78.478 329.3543,-71.5556 326.7882,-78.0683"/>
</g>
<!-- Node8 -->
<g id="node6" class="node">
<title>Node8</title>
<g id="a_node6"><a xlink:href="depth__image__to__point__cloud_8cc.html" target="_top" xlink:title="drake/perception/depth\l_image_to_point_cloud.cc">
<polygon fill="#ffffff" stroke="#000000" points="275,-6 275,-36 418,-36 418,-6 275,-6"/>
<text text-anchor="start" x="283" y="-24" font-family="Helvetica,sans-Serif" font-size="10.00" fill="#000000">drake/perception/depth</text>
<text text-anchor="middle" x="346.5" y="-13" font-family="Helvetica,sans-Serif" font-size="10.00" fill="#000000">_image_to_point_cloud.cc</text>
</a>
</g>
</g>
<!-- Node6&#45;&gt;Node8 -->
<g id="edge5" class="edge">
<title>Node6&#45;&gt;Node8</title>
<path fill="none" stroke="#191970" d="M365.7051,-69.0128C361.3283,-58.0709 356.3101,-45.5252 352.5011,-36.0028"/>
<polygon fill="#191970" stroke="#191970" points="362.5275,-70.4931 369.4912,-78.478 369.0269,-67.8933 362.5275,-70.4931"/>
</g>
<!-- Node6&#45;&gt;Node9 -->
<g id="edge6" class="edge">
<title>Node6&#45;&gt;Node9</title>
<path fill="none" stroke="#191970" d="M410.4864,-73.2079C427.5527,-63.3094 448.0385,-51.4277 465.1526,-41.5015"/>
<polygon fill="#191970" stroke="#191970" points="408.2944,-70.4331 401.4001,-78.478 411.8064,-76.4883 408.2944,-70.4331"/>
</g>
</g>
</svg>
