<?xml version="1.0" encoding="UTF-8" standalone="no"?>
<!DOCTYPE svg PUBLIC "-//W3C//DTD SVG 1.1//EN"
 "http://www.w3.org/Graphics/SVG/1.1/DTD/svg11.dtd">
<!-- Generated by graphviz version 2.40.1 (20161225.0304)
 -->
<!-- Title: drake/bindings/pydrake/common/test/deprecation_example/cc_module_py.cc Pages: 1 -->
<svg width="231pt" height="240pt"
 viewBox="0.00 0.00 231.29 240.00" xmlns="http://www.w3.org/2000/svg" xmlns:xlink="http://www.w3.org/1999/xlink">
<g id="graph0" class="graph" transform="scale(1 1) rotate(0) translate(4 236)">
<title>drake/bindings/pydrake/common/test/deprecation_example/cc_module_py.cc</title>
<polygon fill="#ffffff" stroke="transparent" points="-4,4 -4,-236 227.2909,-236 227.2909,4 -4,4"/>
<!-- Node0 -->
<g id="node1" class="node">
<title>Node0</title>
<polygon fill="#bfbfbf" stroke="#000000" points="26.2909,-190.5 26.2909,-231.5 177.2909,-231.5 177.2909,-190.5 26.2909,-190.5"/>
<text text-anchor="start" x="34.2909" y="-219.5" font-family="Helvetica,sans-Serif" font-size="10.00" fill="#000000">drake/bindings/pydrake</text>
<text text-anchor="start" x="34.2909" y="-208.5" font-family="Helvetica,sans-Serif" font-size="10.00" fill="#000000">/common/test/deprecation</text>
<text text-anchor="middle" x="101.7909" y="-197.5" font-family="Helvetica,sans-Serif" font-size="10.00" fill="#000000">_example/cc_module_py.cc</text>
</g>
<!-- Node1 -->
<g id="node2" class="node">
<title>Node1</title>
<polygon fill="#ffffff" stroke="#bfbfbf" points="4.2909,-.5 4.2909,-19.5 123.2909,-19.5 123.2909,-.5 4.2909,-.5"/>
<text text-anchor="middle" x="63.7909" y="-7.5" font-family="Helvetica,sans-Serif" font-size="10.00" fill="#000000">pybind11/pybind11.h</text>
</g>
<!-- Node0&#45;&gt;Node1 -->
<g id="edge1" class="edge">
<title>Node0&#45;&gt;Node1</title>
<path fill="none" stroke="#191970" d="M47.5738,-190.4688C31.9255,-181.7211 16.6872,-169.7986 7.7909,-154 -16.5413,-110.7891 23.4759,-54.8894 47.5902,-27.1635"/>
<polygon fill="#191970" stroke="#191970" points="50.39,-29.2844 54.4746,-19.5086 45.1852,-24.6036 50.39,-29.2844"/>
</g>
<!-- Node2 -->
<g id="node3" class="node">
<title>Node2</title>
<g id="a_node3"><a xlink:href="deprecation__pybind_8h.html" target="_top" xlink:title="Provides access to Python deprecation utilities from C++. ">
<polygon fill="#ffffff" stroke="#000000" points="16.7909,-123.5 16.7909,-153.5 186.7909,-153.5 186.7909,-123.5 16.7909,-123.5"/>
<text text-anchor="start" x="24.7909" y="-141.5" font-family="Helvetica,sans-Serif" font-size="10.00" fill="#000000">drake/bindings/pydrake</text>
<text text-anchor="middle" x="101.7909" y="-130.5" font-family="Helvetica,sans-Serif" font-size="10.00" fill="#000000">/common/deprecation_pybind.h</text>
</a>
</g>
</g>
<!-- Node0&#45;&gt;Node2 -->
<g id="edge2" class="edge">
<title>Node0&#45;&gt;Node2</title>
<path fill="none" stroke="#191970" d="M101.7909,-190.4183C101.7909,-182.0849 101.7909,-172.3834 101.7909,-163.6373"/>
<polygon fill="#191970" stroke="#191970" points="105.291,-163.5991 101.7909,-153.5991 98.291,-163.5991 105.291,-163.5991"/>
</g>
<!-- Node3 -->
<g id="node4" class="node">
<title>Node3</title>
<g id="a_node4"><a xlink:href="pydrake__pybind_8h.html" target="_top" xlink:title="drake/bindings/pydrake\l/pydrake_pybind.h">
<polygon fill="#ffffff" stroke="#000000" points="92.2909,-56.5 92.2909,-86.5 223.2909,-86.5 223.2909,-56.5 92.2909,-56.5"/>
<text text-anchor="start" x="100.2909" y="-74.5" font-family="Helvetica,sans-Serif" font-size="10.00" fill="#000000">drake/bindings/pydrake</text>
<text text-anchor="middle" x="157.7909" y="-63.5" font-family="Helvetica,sans-Serif" font-size="10.00" fill="#000000">/pydrake_pybind.h</text>
</a>
</g>
</g>
<!-- Node0&#45;&gt;Node3 -->
<g id="edge6" class="edge">
<title>Node0&#45;&gt;Node3</title>
<path fill="none" stroke="#191970" d="M156.008,-190.4688C171.6563,-181.7211 186.8947,-169.7986 195.7909,-154 206.7623,-134.5163 193.9213,-111.3056 180.2811,-94.4741"/>
<polygon fill="#191970" stroke="#191970" points="182.8084,-92.0457 173.6216,-86.7681 177.5121,-96.6228 182.8084,-92.0457"/>
</g>
<!-- Node2&#45;&gt;Node1 -->
<g id="edge3" class="edge">
<title>Node2&#45;&gt;Node1</title>
<path fill="none" stroke="#191970" d="M96.1037,-123.2846C92.3841,-113.0883 87.5382,-99.3239 83.7909,-87 77.9064,-67.6473 72.2092,-45.2368 68.4108,-29.6009"/>
<polygon fill="#191970" stroke="#191970" points="71.7375,-28.4636 66.0051,-19.5535 64.9299,-30.0936 71.7375,-28.4636"/>
</g>
<!-- Node2&#45;&gt;Node3 -->
<g id="edge4" class="edge">
<title>Node2&#45;&gt;Node3</title>
<path fill="none" stroke="#191970" d="M114.4982,-123.2967C121.5866,-114.816 130.5611,-104.0785 138.4988,-94.5817"/>
<polygon fill="#191970" stroke="#191970" points="141.4063,-96.5606 145.134,-86.6432 136.0353,-92.0714 141.4063,-96.5606"/>
</g>
<!-- Node3&#45;&gt;Node1 -->
<g id="edge5" class="edge">
<title>Node3&#45;&gt;Node1</title>
<path fill="none" stroke="#191970" d="M134.555,-56.2977C120.0576,-46.8127 101.4666,-34.6495 86.9783,-25.1705"/>
<polygon fill="#191970" stroke="#191970" points="88.8452,-22.2094 78.5608,-19.6633 85.0127,-28.0671 88.8452,-22.2094"/>
</g>
</g>
</svg>
