<?xml version="1.0" encoding="UTF-8" standalone="no"?>
<!DOCTYPE svg PUBLIC "-//W3C//DTD SVG 1.1//EN"
 "http://www.w3.org/Graphics/SVG/1.1/DTD/svg11.dtd">
<!-- Generated by graphviz version 2.40.1 (20161225.0304)
 -->
<!-- Title: drake/attic/multibody/collision/collision_filter.h Pages: 1 -->
<svg width="493pt" height="117pt"
 viewBox="0.00 0.00 492.50 117.00" xmlns="http://www.w3.org/2000/svg" xmlns:xlink="http://www.w3.org/1999/xlink">
<g id="graph0" class="graph" transform="scale(1 1) rotate(0) translate(4 113)">
<title>drake/attic/multibody/collision/collision_filter.h</title>
<polygon fill="#ffffff" stroke="transparent" points="-4,4 -4,-113 488.5,-113 488.5,4 -4,4"/>
<!-- Node0 -->
<g id="node1" class="node">
<title>Node0</title>
<polygon fill="#bfbfbf" stroke="#000000" points="153,-67.5 153,-108.5 275,-108.5 275,-67.5 153,-67.5"/>
<text text-anchor="start" x="161" y="-96.5" font-family="Helvetica,sans-Serif" font-size="10.00" fill="#000000">drake/attic/multibody</text>
<text text-anchor="start" x="161" y="-85.5" font-family="Helvetica,sans-Serif" font-size="10.00" fill="#000000">/collision/collision</text>
<text text-anchor="middle" x="214" y="-74.5" font-family="Helvetica,sans-Serif" font-size="10.00" fill="#000000">_filter.h</text>
</g>
<!-- Node1 -->
<g id="node2" class="node">
<title>Node1</title>
<polygon fill="#ffffff" stroke="#bfbfbf" points="0,-6 0,-25 44,-25 44,-6 0,-6"/>
<text text-anchor="middle" x="22" y="-13" font-family="Helvetica,sans-Serif" font-size="10.00" fill="#000000">bitset</text>
</g>
<!-- Node0&#45;&gt;Node1 -->
<g id="edge1" class="edge">
<title>Node0&#45;&gt;Node1</title>
<path fill="none" stroke="#191970" d="M152.9237,-68.3594C122.545,-58.0915 85.4729,-44.8043 53,-31 51.8163,-30.4968 50.6142,-29.9696 49.405,-29.4259"/>
<polygon fill="#191970" stroke="#191970" points="50.7196,-26.1759 40.1837,-25.0594 47.7237,-32.5024 50.7196,-26.1759"/>
</g>
<!-- Node2 -->
<g id="node3" class="node">
<title>Node2</title>
<polygon fill="#ffffff" stroke="#bfbfbf" points="62,-6 62,-25 106,-25 106,-6 62,-6"/>
<text text-anchor="middle" x="84" y="-13" font-family="Helvetica,sans-Serif" font-size="10.00" fill="#000000">string</text>
</g>
<!-- Node0&#45;&gt;Node2 -->
<g id="edge2" class="edge">
<title>Node0&#45;&gt;Node2</title>
<path fill="none" stroke="#191970" d="M177.0949,-67.4183C155.6777,-55.4741 129.2214,-40.7196 109.9927,-29.9959"/>
<polygon fill="#191970" stroke="#191970" points="111.6259,-26.8993 101.1875,-25.0853 108.2164,-33.0129 111.6259,-26.8993"/>
</g>
<!-- Node3 -->
<g id="node4" class="node">
<title>Node3</title>
<polygon fill="#ffffff" stroke="#bfbfbf" points="124.5,-6 124.5,-25 217.5,-25 217.5,-6 124.5,-6"/>
<text text-anchor="middle" x="171" y="-13" font-family="Helvetica,sans-Serif" font-size="10.00" fill="#000000">unordered_map</text>
</g>
<!-- Node0&#45;&gt;Node3 -->
<g id="edge3" class="edge">
<title>Node0&#45;&gt;Node3</title>
<path fill="none" stroke="#191970" d="M201.7929,-67.4183C195.546,-56.8857 188.003,-44.1678 181.9461,-33.9556"/>
<polygon fill="#191970" stroke="#191970" points="184.7968,-31.9009 176.6851,-25.0853 178.7761,-35.4718 184.7968,-31.9009"/>
</g>
<!-- Node4 -->
<g id="node5" class="node">
<title>Node4</title>
<polygon fill="#ffffff" stroke="#bfbfbf" points="235.5,-6 235.5,-25 280.5,-25 280.5,-6 235.5,-6"/>
<text text-anchor="middle" x="258" y="-13" font-family="Helvetica,sans-Serif" font-size="10.00" fill="#000000">utility</text>
</g>
<!-- Node0&#45;&gt;Node4 -->
<g id="edge4" class="edge">
<title>Node0&#45;&gt;Node4</title>
<path fill="none" stroke="#191970" d="M226.4909,-67.4183C232.9491,-56.7771 240.7609,-43.9053 246.9906,-33.6405"/>
<polygon fill="#191970" stroke="#191970" points="249.9865,-35.4501 252.1827,-25.0853 244.0023,-31.8183 249.9865,-35.4501"/>
</g>
<!-- Node5 -->
<g id="node6" class="node">
<title>Node5</title>
<polygon fill="#ffffff" stroke="#bfbfbf" points="298.5,-6 298.5,-25 345.5,-25 345.5,-6 298.5,-6"/>
<text text-anchor="middle" x="322" y="-13" font-family="Helvetica,sans-Serif" font-size="10.00" fill="#000000">vector</text>
</g>
<!-- Node0&#45;&gt;Node5 -->
<g id="edge5" class="edge">
<title>Node0&#45;&gt;Node5</title>
<path fill="none" stroke="#191970" d="M244.6596,-67.4183C261.9671,-55.7999 283.2357,-41.5223 299.0859,-30.8822"/>
<polygon fill="#191970" stroke="#191970" points="301.3692,-33.5649 307.7211,-25.0853 297.4676,-27.753 301.3692,-33.5649"/>
</g>
<!-- Node6 -->
<g id="node7" class="node">
<title>Node6</title>
<g id="a_node7"><a xlink:href="drake__copyable_8h.html" target="_top" xlink:title="Provides careful macros to selectively enable or disable the special member functions for copy&#45;constr...">
<polygon fill="#ffffff" stroke="#000000" points="363.5,-.5 363.5,-30.5 484.5,-30.5 484.5,-.5 363.5,-.5"/>
<text text-anchor="start" x="371.5" y="-18.5" font-family="Helvetica,sans-Serif" font-size="10.00" fill="#000000">drake/common/drake</text>
<text text-anchor="middle" x="424" y="-7.5" font-family="Helvetica,sans-Serif" font-size="10.00" fill="#000000">_copyable.h</text>
</a>
</g>
</g>
<!-- Node0&#45;&gt;Node6 -->
<g id="edge6" class="edge">
<title>Node0&#45;&gt;Node6</title>
<path fill="none" stroke="#191970" d="M273.6159,-67.4183C304.1204,-56.887 340.9531,-44.171 370.5315,-33.9594"/>
<polygon fill="#191970" stroke="#191970" points="371.9543,-37.1709 380.2647,-30.5991 369.6699,-30.5542 371.9543,-37.1709"/>
</g>
</g>
</svg>
