<?xml version="1.0" encoding="UTF-8" standalone="no"?>
<!DOCTYPE svg PUBLIC "-//W3C//DTD SVG 1.1//EN"
 "http://www.w3.org/Graphics/SVG/1.1/DTD/svg11.dtd">
<!-- Generated by graphviz version 2.40.1 (20161225.0304)
 -->
<!-- Title: drake/examples/compass_gait/compass_gait.h Pages: 1 -->
<svg width="658pt" height="117pt"
 viewBox="0.00 0.00 657.50 117.00" xmlns="http://www.w3.org/2000/svg" xmlns:xlink="http://www.w3.org/1999/xlink">
<g id="graph0" class="graph" transform="scale(1 1) rotate(0) translate(4 113)">
<title>drake/examples/compass_gait/compass_gait.h</title>
<polygon fill="#ffffff" stroke="transparent" points="-4,4 -4,-113 653.5,-113 653.5,4 -4,4"/>
<!-- Node114 -->
<g id="node1" class="node">
<title>Node114</title>
<polygon fill="#bfbfbf" stroke="#000000" points="267.5,-78.5 267.5,-108.5 409.5,-108.5 409.5,-78.5 267.5,-78.5"/>
<text text-anchor="start" x="275.5" y="-96.5" font-family="Helvetica,sans-Serif" font-size="10.00" fill="#000000">drake/examples/compass</text>
<text text-anchor="middle" x="338.5" y="-85.5" font-family="Helvetica,sans-Serif" font-size="10.00" fill="#000000">_gait/compass_gait.h</text>
</g>
<!-- Node115 -->
<g id="node2" class="node">
<title>Node115</title>
<g id="a_node2"><a xlink:href="compass__gait__py_8cc.html" target="_top" xlink:title="drake/bindings/pydrake\l/examples/compass_gait_py.cc">
<polygon fill="#ffffff" stroke="#000000" points="0,-6 0,-36 169,-36 169,-6 0,-6"/>
<text text-anchor="start" x="8" y="-24" font-family="Helvetica,sans-Serif" font-size="10.00" fill="#000000">drake/bindings/pydrake</text>
<text text-anchor="middle" x="84.5" y="-13" font-family="Helvetica,sans-Serif" font-size="10.00" fill="#000000">/examples/compass_gait_py.cc</text>
</a>
</g>
</g>
<!-- Node114&#45;&gt;Node115 -->
<g id="edge1" class="edge">
<title>Node114&#45;&gt;Node115</title>
<path fill="none" stroke="#191970" d="M276.1511,-75.7036C233.4634,-63.5191 177.4867,-47.5415 137.0615,-36.0028"/>
<polygon fill="#191970" stroke="#191970" points="275.2944,-79.0988 285.871,-78.478 277.2158,-72.3676 275.2944,-79.0988"/>
</g>
<!-- Node116 -->
<g id="node3" class="node">
<title>Node116</title>
<g id="a_node3"><a xlink:href="compass__gait_8cc.html" target="_top" xlink:title="drake/examples/compass\l_gait/compass_gait.cc">
<polygon fill="#ffffff" stroke="#000000" points="187.5,-6 187.5,-36 329.5,-36 329.5,-6 187.5,-6"/>
<text text-anchor="start" x="195.5" y="-24" font-family="Helvetica,sans-Serif" font-size="10.00" fill="#000000">drake/examples/compass</text>
<text text-anchor="middle" x="258.5" y="-13" font-family="Helvetica,sans-Serif" font-size="10.00" fill="#000000">_gait/compass_gait.cc</text>
</a>
</g>
</g>
<!-- Node114&#45;&gt;Node116 -->
<g id="edge2" class="edge">
<title>Node114&#45;&gt;Node116</title>
<path fill="none" stroke="#191970" d="M314.3984,-71.6579C301.6882,-60.1393 286.4201,-46.3026 275.0548,-36.0028"/>
<polygon fill="#191970" stroke="#191970" points="312.1637,-74.3562 321.9239,-78.478 316.8644,-69.1693 312.1637,-74.3562"/>
</g>
<!-- Node117 -->
<g id="node4" class="node">
<title>Node117</title>
<g id="a_node4"><a xlink:href="compass__gait_2simulate_8cc.html" target="_top" xlink:title="drake/examples/compass\l_gait/simulate.cc">
<polygon fill="#ffffff" stroke="#000000" points="347.5,-6 347.5,-36 489.5,-36 489.5,-6 347.5,-6"/>
<text text-anchor="start" x="355.5" y="-24" font-family="Helvetica,sans-Serif" font-size="10.00" fill="#000000">drake/examples/compass</text>
<text text-anchor="middle" x="418.5" y="-13" font-family="Helvetica,sans-Serif" font-size="10.00" fill="#000000">_gait/simulate.cc</text>
</a>
</g>
</g>
<!-- Node114&#45;&gt;Node117 -->
<g id="edge3" class="edge">
<title>Node114&#45;&gt;Node117</title>
<path fill="none" stroke="#191970" d="M362.6016,-71.6579C375.3118,-60.1393 390.5799,-46.3026 401.9452,-36.0028"/>
<polygon fill="#191970" stroke="#191970" points="360.1356,-69.1693 355.0761,-78.478 364.8363,-74.3562 360.1356,-69.1693"/>
</g>
<!-- Node118 -->
<g id="node5" class="node">
<title>Node118</title>
<g id="a_node5"><a xlink:href="compass__gait__test_8cc.html" target="_top" xlink:title="drake/examples/compass\l_gait/test/compass_gait\l_test.cc">
<polygon fill="#ffffff" stroke="#000000" points="507.5,-.5 507.5,-41.5 649.5,-41.5 649.5,-.5 507.5,-.5"/>
<text text-anchor="start" x="515.5" y="-29.5" font-family="Helvetica,sans-Serif" font-size="10.00" fill="#000000">drake/examples/compass</text>
<text text-anchor="start" x="515.5" y="-18.5" font-family="Helvetica,sans-Serif" font-size="10.00" fill="#000000">_gait/test/compass_gait</text>
<text text-anchor="middle" x="578.5" y="-7.5" font-family="Helvetica,sans-Serif" font-size="10.00" fill="#000000">_test.cc</text>
</a>
</g>
</g>
<!-- Node114&#45;&gt;Node118 -->
<g id="edge4" class="edge">
<title>Node114&#45;&gt;Node118</title>
<path fill="none" stroke="#191970" d="M398.0656,-75.5062C432.2098,-65.1918 475.1877,-52.2089 510.6329,-41.5015"/>
<polygon fill="#191970" stroke="#191970" points="396.7888,-72.2356 388.2282,-78.478 398.8131,-78.9366 396.7888,-72.2356"/>
</g>
</g>
</svg>
