<?xml version="1.0" encoding="UTF-8" standalone="no"?>
<!DOCTYPE svg PUBLIC "-//W3C//DTD SVG 1.1//EN"
 "http://www.w3.org/Graphics/SVG/1.1/DTD/svg11.dtd">
<!-- Generated by graphviz version 2.40.1 (20161225.0304)
 -->
<!-- Title: drake/systems/controllers/test_utilities/compute_torque.h Pages: 1 -->
<!--zoomable 195 -->
<svg id="main" version="1.1" xmlns="http://www.w3.org/2000/svg" xmlns:xlink="http://www.w3.org/1999/xlink" xml:space="preserve" onload="init(evt)">
<style type="text/css"><![CDATA[
.edge:hover path { stroke: red; }
.edge:hover polygon { stroke: red; fill: red; }
]]></style>
<script type="text/javascript"><![CDATA[
var edges = document.getElementsByTagName('g');
if (edges && edges.length) {
  for (var i=0;i<edges.length;i++) {
    if (edges[i].id.substr(0,4)=='edge') {
      edges[i].setAttribute('class','edge');
    }
  }
}
]]></script>
        <defs>
                <circle id="rim" cx="0" cy="0" r="7"/>
                <circle id="rim2" cx="0" cy="0" r="3.5"/>
                <g id="zoomPlus">
                        <use xlink:href="#rim" fill="#404040">
                                <set attributeName="fill" to="#808080" begin="zoomplus.mouseover" end="zoomplus.mouseout"/>
                        </use>
                        <path d="M-4,0h8M0,-4v8" fill="none" stroke="white" stroke-width="1.5" pointer-events="none"/>
                </g>
                <g id="zoomMin">
                        <use xlink:href="#rim" fill="#404040">
                                <set attributeName="fill" to="#808080" begin="zoomminus.mouseover" end="zoomminus.mouseout"/>
                        </use>
                        <path d="M-4,0h8" fill="none" stroke="white" stroke-width="1.5" pointer-events="none"/>
                </g>
                <g id="dirArrow">
                        <path fill="none" stroke="white" stroke-width="1.5" d="M0,-3.0v7 M-2.5,-0.5L0,-3.0L2.5,-0.5"/>
                </g>
               <g id="resetDef">
                       <use xlink:href="#rim2" fill="#404040">
                               <set attributeName="fill" to="#808080" begin="reset.mouseover" end="reset.mouseout"/>
                       </use>
               </g>
        </defs>

<script type="text/javascript">
var viewWidth = 1453;
var viewHeight = 195;
var sectionId = 'dynsection-0';
</script>
<script xlink:href="svgpan.js"/>
<svg id="graph" class="graph">
<g id="viewport">
<title>drake/systems/controllers/test_utilities/compute_torque.h</title>
<polygon fill="#ffffff" stroke="transparent" points="-4,4 -4,-191 1449,-191 1449,4 -4,4"/>
<!-- Node0 -->
<g id="node1" class="node">
<title>Node0</title>
<polygon fill="#bfbfbf" stroke="#000000" points="631.5,-145.5 631.5,-186.5 774.5,-186.5 774.5,-145.5 631.5,-145.5"/>
<text text-anchor="start" x="639.5" y="-174.5" font-family="Helvetica,sans-Serif" font-size="10.00" fill="#000000">drake/systems/controllers</text>
<text text-anchor="start" x="639.5" y="-163.5" font-family="Helvetica,sans-Serif" font-size="10.00" fill="#000000">/test_utilities/compute</text>
<text text-anchor="middle" x="703" y="-152.5" font-family="Helvetica,sans-Serif" font-size="10.00" fill="#000000">_torque.h</text>
</g>
<!-- Node1 -->
<g id="node2" class="node">
<title>Node1</title>
<polygon fill="#ffffff" stroke="#bfbfbf" points="54.5,-78.5 54.5,-97.5 101.5,-97.5 101.5,-78.5 54.5,-78.5"/>
<text text-anchor="middle" x="78" y="-85.5" font-family="Helvetica,sans-Serif" font-size="10.00" fill="#000000">vector</text>
</g>
<!-- Node0&#45;&gt;Node1 -->
<g id="edge1" class="edge">
<title>Node0&#45;&gt;Node1</title>
<path fill="none" stroke="#191970" d="M631.2629,-163.2779C495.348,-157.4343 205.4631,-141.4994 111,-109 106.81,-107.5585 102.6121,-105.4875 98.6825,-103.2016"/>
<polygon fill="#191970" stroke="#191970" points="100.4284,-100.1627 90.1303,-97.6729 96.6281,-106.0413 100.4284,-100.1627"/>
</g>
<!-- Node2 -->
<g id="node3" class="node">
<title>Node2</title>
<g id="a_node3"><a xlink:href="eigen__types_8h.html" target="_top" xlink:title="This file contains abbreviated definitions for certain specializations of Eigen::Matrix that are comm...">
<polygon fill="#ffffff" stroke="#000000" points="120,-73 120,-103 240,-103 240,-73 120,-73"/>
<text text-anchor="start" x="128" y="-91" font-family="Helvetica,sans-Serif" font-size="10.00" fill="#000000">drake/common/eigen</text>
<text text-anchor="middle" x="180" y="-80" font-family="Helvetica,sans-Serif" font-size="10.00" fill="#000000">_types.h</text>
</a>
</g>
</g>
<!-- Node0&#45;&gt;Node2 -->
<g id="edge2" class="edge">
<title>Node0&#45;&gt;Node2</title>
<path fill="none" stroke="#191970" d="M631.2052,-160.7914C541.1736,-153.3909 382.433,-137.4638 249,-109 244.5397,-108.0485 239.9519,-106.9427 235.3632,-105.7458"/>
<polygon fill="#191970" stroke="#191970" points="235.9348,-102.2734 225.3652,-103.0043 234.0837,-109.0242 235.9348,-102.2734"/>
</g>
<!-- Node7 -->
<g id="node8" class="node">
<title>Node7</title>
<polygon fill="#ffffff" stroke="#bfbfbf" points="258,-73 258,-103 412,-103 412,-73 258,-73"/>
<text text-anchor="start" x="266" y="-91" font-family="Helvetica,sans-Serif" font-size="10.00" fill="#000000">drake/multibody/kinematics</text>
<text text-anchor="middle" x="335" y="-80" font-family="Helvetica,sans-Serif" font-size="10.00" fill="#000000">_cache.h</text>
</g>
<!-- Node0&#45;&gt;Node7 -->
<g id="edge7" class="edge">
<title>Node0&#45;&gt;Node7</title>
<path fill="none" stroke="#191970" d="M631.2628,-152.3229C574.1686,-141.2394 492.2973,-124.9038 421,-109 415.9725,-107.8785 410.7873,-106.6908 405.5719,-105.4733"/>
<polygon fill="#191970" stroke="#191970" points="406.0754,-101.996 395.5387,-103.105 404.4672,-108.8088 406.0754,-101.996"/>
</g>
<!-- Node8 -->
<g id="node9" class="node">
<title>Node8</title>
<polygon fill="#ffffff" stroke="#bfbfbf" points="430,-73 430,-103 610,-103 610,-73 430,-73"/>
<text text-anchor="start" x="438" y="-91" font-family="Helvetica,sans-Serif" font-size="10.00" fill="#000000">drake/multibody/multibody</text>
<text text-anchor="middle" x="520" y="-80" font-family="Helvetica,sans-Serif" font-size="10.00" fill="#000000">_tree/math/spatial_acceleration.h</text>
</g>
<!-- Node0&#45;&gt;Node8 -->
<g id="edge8" class="edge">
<title>Node0&#45;&gt;Node8</title>
<path fill="none" stroke="#191970" d="M654.4398,-145.3022C626.5921,-133.4327 591.8817,-118.6381 564.7061,-107.0551"/>
<polygon fill="#191970" stroke="#191970" points="566.0033,-103.8033 555.4317,-103.102 563.2585,-110.2428 566.0033,-103.8033"/>
</g>
<!-- Node9 -->
<g id="node10" class="node">
<title>Node9</title>
<polygon fill="#ffffff" stroke="#bfbfbf" points="628.5,-73 628.5,-103 777.5,-103 777.5,-73 628.5,-73"/>
<text text-anchor="start" x="636.5" y="-91" font-family="Helvetica,sans-Serif" font-size="10.00" fill="#000000">drake/multibody/multibody</text>
<text text-anchor="middle" x="703" y="-80" font-family="Helvetica,sans-Serif" font-size="10.00" fill="#000000">_tree/math/spatial_force.h</text>
</g>
<!-- Node0&#45;&gt;Node9 -->
<g id="edge9" class="edge">
<title>Node0&#45;&gt;Node9</title>
<path fill="none" stroke="#191970" d="M703,-145.0974C703,-135.3178 703,-123.5873 703,-113.3097"/>
<polygon fill="#191970" stroke="#191970" points="706.5001,-113.2678 703,-103.2679 699.5001,-113.2679 706.5001,-113.2678"/>
</g>
<!-- Node10 -->
<g id="node11" class="node">
<title>Node10</title>
<polygon fill="#ffffff" stroke="#bfbfbf" points="795,-67.5 795,-108.5 971,-108.5 971,-67.5 795,-67.5"/>
<text text-anchor="start" x="803" y="-96.5" font-family="Helvetica,sans-Serif" font-size="10.00" fill="#000000">drake/multibody/multibody</text>
<text text-anchor="start" x="803" y="-85.5" font-family="Helvetica,sans-Serif" font-size="10.00" fill="#000000">_tree/multibody_plant/multibody</text>
<text text-anchor="middle" x="883" y="-74.5" font-family="Helvetica,sans-Serif" font-size="10.00" fill="#000000">_plant.h</text>
</g>
<!-- Node0&#45;&gt;Node10 -->
<g id="edge10" class="edge">
<title>Node0&#45;&gt;Node10</title>
<path fill="none" stroke="#191970" d="M750.7641,-145.3022C773.9347,-135.2616 801.9355,-123.1279 826.1945,-112.6157"/>
<polygon fill="#191970" stroke="#191970" points="827.8533,-115.7114 835.6373,-108.5239 825.07,-109.2885 827.8533,-115.7114"/>
</g>
<!-- Node11 -->
<g id="node12" class="node">
<title>Node11</title>
<polygon fill="#ffffff" stroke="#bfbfbf" points="988.5,-67.5 988.5,-108.5 1137.5,-108.5 1137.5,-67.5 988.5,-67.5"/>
<text text-anchor="start" x="996.5" y="-96.5" font-family="Helvetica,sans-Serif" font-size="10.00" fill="#000000">drake/multibody/multibody</text>
<text text-anchor="start" x="996.5" y="-85.5" font-family="Helvetica,sans-Serif" font-size="10.00" fill="#000000">_tree/position_kinematics</text>
<text text-anchor="middle" x="1063" y="-74.5" font-family="Helvetica,sans-Serif" font-size="10.00" fill="#000000">_cache.h</text>
</g>
<!-- Node0&#45;&gt;Node11 -->
<g id="edge11" class="edge">
<title>Node0&#45;&gt;Node11</title>
<path fill="none" stroke="#191970" d="M774.6433,-152.1745C828.2759,-141.6131 903.6745,-126.3198 978.3321,-109.3439"/>
<polygon fill="#191970" stroke="#191970" points="979.4125,-112.6873 988.3815,-107.0474 977.8531,-105.8632 979.4125,-112.6873"/>
</g>
<!-- Node12 -->
<g id="node13" class="node">
<title>Node12</title>
<polygon fill="#ffffff" stroke="#bfbfbf" points="1155.5,-67.5 1155.5,-108.5 1304.5,-108.5 1304.5,-67.5 1155.5,-67.5"/>
<text text-anchor="start" x="1163.5" y="-96.5" font-family="Helvetica,sans-Serif" font-size="10.00" fill="#000000">drake/multibody/multibody</text>
<text text-anchor="start" x="1163.5" y="-85.5" font-family="Helvetica,sans-Serif" font-size="10.00" fill="#000000">_tree/velocity_kinematics</text>
<text text-anchor="middle" x="1230" y="-74.5" font-family="Helvetica,sans-Serif" font-size="10.00" fill="#000000">_cache.h</text>
</g>
<!-- Node0&#45;&gt;Node12 -->
<g id="edge12" class="edge">
<title>Node0&#45;&gt;Node12</title>
<path fill="none" stroke="#191970" d="M774.5473,-159.4868C860.4959,-151.0646 1009.1524,-134.597 1145.2452,-109.2356"/>
<polygon fill="#191970" stroke="#191970" points="1146.2587,-112.6063 1155.4375,-107.3148 1144.9623,-105.7273 1146.2587,-112.6063"/>
</g>
<!-- Node13 -->
<g id="node14" class="node">
<title>Node13</title>
<polygon fill="#ffffff" stroke="#bfbfbf" points="1323,-73 1323,-103 1445,-103 1445,-73 1323,-73"/>
<text text-anchor="start" x="1331" y="-91" font-family="Helvetica,sans-Serif" font-size="10.00" fill="#000000">drake/multibody/rigid</text>
<text text-anchor="middle" x="1384" y="-80" font-family="Helvetica,sans-Serif" font-size="10.00" fill="#000000">_body_tree.h</text>
</g>
<!-- Node0&#45;&gt;Node13 -->
<g id="edge13" class="edge">
<title>Node0&#45;&gt;Node13</title>
<path fill="none" stroke="#191970" d="M774.6775,-163.9153C889.4928,-159.5488 1121.3216,-146.5034 1314,-109 1318.7326,-108.0788 1323.6025,-106.9684 1328.4648,-105.7453"/>
<polygon fill="#191970" stroke="#191970" points="1329.6266,-109.0579 1338.388,-103.1007 1327.8239,-102.294 1329.6266,-109.0579"/>
</g>
<!-- Node3 -->
<g id="node4" class="node">
<title>Node3</title>
<polygon fill="#ffffff" stroke="#bfbfbf" points="0,-6 0,-25 58,-25 58,-6 0,-6"/>
<text text-anchor="middle" x="29" y="-13" font-family="Helvetica,sans-Serif" font-size="10.00" fill="#000000">memory</text>
</g>
<!-- Node2&#45;&gt;Node3 -->
<g id="edge3" class="edge">
<title>Node2&#45;&gt;Node3</title>
<path fill="none" stroke="#191970" d="M148.7127,-72.978C122.2096,-60.2529 84.4835,-42.1394 58.5013,-29.6646"/>
<polygon fill="#191970" stroke="#191970" points="59.696,-26.3557 49.1663,-25.1825 56.6662,-32.666 59.696,-26.3557"/>
</g>
<!-- Node4 -->
<g id="node5" class="node">
<title>Node4</title>
<polygon fill="#ffffff" stroke="#bfbfbf" points="76.5,-6 76.5,-25 153.5,-25 153.5,-6 76.5,-6"/>
<text text-anchor="middle" x="115" y="-13" font-family="Helvetica,sans-Serif" font-size="10.00" fill="#000000">Eigen/Dense</text>
</g>
<!-- Node2&#45;&gt;Node4 -->
<g id="edge4" class="edge">
<title>Node2&#45;&gt;Node4</title>
<path fill="none" stroke="#191970" d="M166.532,-72.978C156.1387,-61.3854 141.7359,-45.3209 130.7985,-33.1214"/>
<polygon fill="#191970" stroke="#191970" points="133.1535,-30.505 123.872,-25.3957 127.9415,-35.1778 133.1535,-30.505"/>
</g>
<!-- Node5 -->
<g id="node6" class="node">
<title>Node5</title>
<g id="a_node6"><a xlink:href="constants_8h.html" target="_top" xlink:title="drake/common/constants.h">
<polygon fill="#ffffff" stroke="#000000" points="171.5,-6 171.5,-25 320.5,-25 320.5,-6 171.5,-6"/>
<text text-anchor="middle" x="246" y="-13" font-family="Helvetica,sans-Serif" font-size="10.00" fill="#000000">drake/common/constants.h</text>
</a>
</g>
</g>
<!-- Node2&#45;&gt;Node5 -->
<g id="edge5" class="edge">
<title>Node2&#45;&gt;Node5</title>
<path fill="none" stroke="#191970" d="M193.6752,-72.978C204.2284,-61.3854 218.8527,-45.3209 229.9584,-33.1214"/>
<polygon fill="#191970" stroke="#191970" points="232.8479,-35.1466 236.9915,-25.3957 227.6715,-30.4343 232.8479,-35.1466"/>
</g>
<!-- Node6 -->
<g id="node7" class="node">
<title>Node6</title>
<g id="a_node7"><a xlink:href="drake__copyable_8h.html" target="_top" xlink:title="Provides careful macros to selectively enable or disable the special member functions for copy&#45;constr...">
<polygon fill="#ffffff" stroke="#000000" points="338.5,-.5 338.5,-30.5 459.5,-30.5 459.5,-.5 338.5,-.5"/>
<text text-anchor="start" x="346.5" y="-18.5" font-family="Helvetica,sans-Serif" font-size="10.00" fill="#000000">drake/common/drake</text>
<text text-anchor="middle" x="399" y="-7.5" font-family="Helvetica,sans-Serif" font-size="10.00" fill="#000000">_copyable.h</text>
</a>
</g>
</g>
<!-- Node2&#45;&gt;Node6 -->
<g id="edge6" class="edge">
<title>Node2&#45;&gt;Node6</title>
<path fill="none" stroke="#191970" d="M225.3769,-72.978C259.8795,-61.5559 307.4965,-45.7923 344.1382,-33.662"/>
<polygon fill="#191970" stroke="#191970" points="345.2879,-36.9683 353.6812,-30.5028 343.0879,-30.323 345.2879,-36.9683"/>
</g>
</g>
</svg>
        <g id="navigator" transform="translate(0 0)" fill="#404254">
                <rect fill="#f2f5e9" fill-opacity="0.5" stroke="#606060" stroke-width=".5" x="0" y="0" width="60" height="60"/>
                <use id="zoomplus" xlink:href="#zoomPlus" x="17" y="9" onmousedown="handleZoom(evt,'in')"/>
                <use id="zoomminus" xlink:href="#zoomMin" x="42" y="9" onmousedown="handleZoom(evt,'out')"/>
                <use id="reset" xlink:href="#resetDef" x="30" y="36" onmousedown="handleReset()"/>
                <g id="arrowUp" xlink:href="#dirArrow" transform="translate(30 24)" onmousedown="handlePan(0,-1)">
                  <use xlink:href="#rim" fill="#404040">
                        <set attributeName="fill" to="#808080" begin="arrowUp.mouseover" end="arrowUp.mouseout"/>
                  </use>
                  <path fill="none" stroke="white" stroke-width="1.5" d="M0,-3.0v7 M-2.5,-0.5L0,-3.0L2.5,-0.5"/>
                </g>
                <g id="arrowRight" xlink:href="#dirArrow" transform="rotate(90) translate(36 -43)" onmousedown="handlePan(1,0)">
                  <use xlink:href="#rim" fill="#404040">
                        <set attributeName="fill" to="#808080" begin="arrowRight.mouseover" end="arrowRight.mouseout"/>
                  </use>
                  <path fill="none" stroke="white" stroke-width="1.5" d="M0,-3.0v7 M-2.5,-0.5L0,-3.0L2.5,-0.5"/>
                </g>
                <g id="arrowDown" xlink:href="#dirArrow" transform="rotate(180) translate(-30 -48)" onmousedown="handlePan(0,1)">
                  <use xlink:href="#rim" fill="#404040">
                        <set attributeName="fill" to="#808080" begin="arrowDown.mouseover" end="arrowDown.mouseout"/>
                  </use>
                  <path fill="none" stroke="white" stroke-width="1.5" d="M0,-3.0v7 M-2.5,-0.5L0,-3.0L2.5,-0.5"/>
                </g>
                <g id="arrowLeft" xlink:href="#dirArrow" transform="rotate(270) translate(-36 17)" onmousedown="handlePan(-1,0)">
                  <use xlink:href="#rim" fill="#404040">
                        <set attributeName="fill" to="#808080" begin="arrowLeft.mouseover" end="arrowLeft.mouseout"/>
                  </use>
                  <path fill="none" stroke="white" stroke-width="1.5" d="M0,-3.0v7 M-2.5,-0.5L0,-3.0L2.5,-0.5"/>
                </g>
        </g>
        <svg viewBox="0 0 15 15" width="100%" height="30px" preserveAspectRatio="xMaxYMin meet">
         <g id="arrow_out" transform="scale(0.3 0.3)">
          <a xlink:href="compute__torque_8h__incl_org.svg" target="_base">
           <rect id="button" ry="5" rx="5" y="6" x="6" height="38" width="38"
                fill="#f2f5e9" fill-opacity="0.5" stroke="#606060" stroke-width="1.0"/>
           <path id="arrow"
             d="M 11.500037,31.436501 C 11.940474,20.09759 22.043105,11.32322 32.158766,21.979434 L 37.068811,17.246167 C 37.068811,17.246167 37.088388,32 37.088388,32 L 22.160133,31.978069 C 22.160133,31.978069 26.997745,27.140456 26.997745,27.140456 C 18.528582,18.264221 13.291696,25.230495 11.500037,31.436501 z"
             style="fill:#404040;"/>
          </a>
         </g>
        </svg>
</svg>
