<?xml version="1.0" encoding="UTF-8" standalone="no"?>
<!DOCTYPE svg PUBLIC "-//W3C//DTD SVG 1.1//EN"
 "http://www.w3.org/Graphics/SVG/1.1/DTD/svg11.dtd">
<!-- Generated by graphviz version 2.40.1 (20161225.0304)
 -->
<!-- Title: drake/multibody/constraint/constraint_solver.h Pages: 1 -->
<!--zoomable 262 -->
<svg id="main" version="1.1" xmlns="http://www.w3.org/2000/svg" xmlns:xlink="http://www.w3.org/1999/xlink" xml:space="preserve" onload="init(evt)">
<style type="text/css"><![CDATA[
.edge:hover path { stroke: red; }
.edge:hover polygon { stroke: red; fill: red; }
]]></style>
<script type="text/javascript"><![CDATA[
var edges = document.getElementsByTagName('g');
if (edges && edges.length) {
  for (var i=0;i<edges.length;i++) {
    if (edges[i].id.substr(0,4)=='edge') {
      edges[i].setAttribute('class','edge');
    }
  }
}
]]></script>
        <defs>
                <circle id="rim" cx="0" cy="0" r="7"/>
                <circle id="rim2" cx="0" cy="0" r="3.5"/>
                <g id="zoomPlus">
                        <use xlink:href="#rim" fill="#404040">
                                <set attributeName="fill" to="#808080" begin="zoomplus.mouseover" end="zoomplus.mouseout"/>
                        </use>
                        <path d="M-4,0h8M0,-4v8" fill="none" stroke="white" stroke-width="1.5" pointer-events="none"/>
                </g>
                <g id="zoomMin">
                        <use xlink:href="#rim" fill="#404040">
                                <set attributeName="fill" to="#808080" begin="zoomminus.mouseover" end="zoomminus.mouseout"/>
                        </use>
                        <path d="M-4,0h8" fill="none" stroke="white" stroke-width="1.5" pointer-events="none"/>
                </g>
                <g id="dirArrow">
                        <path fill="none" stroke="white" stroke-width="1.5" d="M0,-3.0v7 M-2.5,-0.5L0,-3.0L2.5,-0.5"/>
                </g>
               <g id="resetDef">
                       <use xlink:href="#rim2" fill="#404040">
                               <set attributeName="fill" to="#808080" begin="reset.mouseover" end="reset.mouseout"/>
                       </use>
               </g>
        </defs>

<script type="text/javascript">
var viewWidth = 619;
var viewHeight = 262;
var sectionId = 'dynsection-1';
</script>
<script xlink:href="svgpan.js"/>
<svg id="graph" class="graph">
<g id="viewport">
<title>drake/multibody/constraint/constraint_solver.h</title>
<polygon fill="#ffffff" stroke="transparent" points="-4,4 -4,-258 614.5,-258 614.5,4 -4,4"/>
<!-- Node97 -->
<g id="node1" class="node">
<title>Node97</title>
<polygon fill="#bfbfbf" stroke="#000000" points="321.5,-223.5 321.5,-253.5 470.5,-253.5 470.5,-223.5 321.5,-223.5"/>
<text text-anchor="start" x="329.5" y="-241.5" font-family="Helvetica,sans-Serif" font-size="10.00" fill="#000000">drake/multibody/constraint</text>
<text text-anchor="middle" x="396" y="-230.5" font-family="Helvetica,sans-Serif" font-size="10.00" fill="#000000">/constraint_solver.h</text>
</g>
<!-- Node98 -->
<g id="node2" class="node">
<title>Node98</title>
<g id="a_node2"><a xlink:href="rigid__body__plant_8h.html" target="_top" xlink:title="drake/attic/multibody\l/rigid_body_plant/rigid\l_body_plant.h">
<polygon fill="#ffffff" stroke="#000000" points="98.5,-145.5 98.5,-186.5 223.5,-186.5 223.5,-145.5 98.5,-145.5"/>
<text text-anchor="start" x="106.5" y="-174.5" font-family="Helvetica,sans-Serif" font-size="10.00" fill="#000000">drake/attic/multibody</text>
<text text-anchor="start" x="106.5" y="-163.5" font-family="Helvetica,sans-Serif" font-size="10.00" fill="#000000">/rigid_body_plant/rigid</text>
<text text-anchor="middle" x="161" y="-152.5" font-family="Helvetica,sans-Serif" font-size="10.00" fill="#000000">_body_plant.h</text>
</a>
</g>
</g>
<!-- Node97&#45;&gt;Node98 -->
<g id="edge1" class="edge">
<title>Node97&#45;&gt;Node98</title>
<path fill="none" stroke="#191970" d="M337.3681,-220.4114C302.8441,-209.7604 259.1779,-196.2889 223.9322,-185.4153"/>
<polygon fill="#191970" stroke="#191970" points="336.7204,-223.8743 347.3078,-223.478 338.7841,-217.1854 336.7204,-223.8743"/>
</g>
<!-- Node99 -->
<g id="node3" class="node">
<title>Node99</title>
<g id="a_node3"><a xlink:href="rod2d_8h.html" target="_top" xlink:title="drake/examples/rod2d\l/rod2d.h">
<polygon fill="#ffffff" stroke="#000000" points="242,-151 242,-181 368,-181 368,-151 242,-151"/>
<text text-anchor="start" x="250" y="-169" font-family="Helvetica,sans-Serif" font-size="10.00" fill="#000000">drake/examples/rod2d</text>
<text text-anchor="middle" x="305" y="-158" font-family="Helvetica,sans-Serif" font-size="10.00" fill="#000000">/rod2d.h</text>
</a>
</g>
</g>
<!-- Node97&#45;&gt;Node99 -->
<g id="edge2" class="edge">
<title>Node97&#45;&gt;Node99</title>
<path fill="none" stroke="#191970" d="M368.9928,-216.9833C354.4546,-205.4007 336.8811,-191.3998 323.8311,-181.0028"/>
<polygon fill="#191970" stroke="#191970" points="367.1425,-219.9841 377.1447,-223.478 371.5044,-214.5093 367.1425,-219.9841"/>
</g>
<!-- Node103 -->
<g id="node7" class="node">
<title>Node103</title>
<g id="a_node7"><a xlink:href="rod2d__test_8cc.html" target="_top" xlink:title="drake/examples/rod2d\l/test/rod2d_test.cc">
<polygon fill="#ffffff" stroke="#000000" points="288,-73 288,-103 414,-103 414,-73 288,-73"/>
<text text-anchor="start" x="296" y="-91" font-family="Helvetica,sans-Serif" font-size="10.00" fill="#000000">drake/examples/rod2d</text>
<text text-anchor="middle" x="351" y="-80" font-family="Helvetica,sans-Serif" font-size="10.00" fill="#000000">/test/rod2d_test.cc</text>
</a>
</g>
</g>
<!-- Node97&#45;&gt;Node103 -->
<g id="edge8" class="edge">
<title>Node97&#45;&gt;Node103</title>
<path fill="none" stroke="#191970" d="M392.4806,-213.3423C389.435,-194.2896 384.3523,-167.624 377,-145 372.2265,-130.3113 364.7489,-114.3802 359.0359,-103.1044"/>
<polygon fill="#191970" stroke="#191970" points="389.0361,-213.9721 394.0024,-223.3309 395.9563,-212.9177 389.0361,-213.9721"/>
</g>
<!-- Node104 -->
<g id="node8" class="node">
<title>Node104</title>
<g id="a_node8"><a xlink:href="constraint__solver__test_8cc.html" target="_top" xlink:title="drake/multibody/constraint\l/test/constraint_solver\l_test.cc">
<polygon fill="#ffffff" stroke="#000000" points="432.5,-67.5 432.5,-108.5 581.5,-108.5 581.5,-67.5 432.5,-67.5"/>
<text text-anchor="start" x="440.5" y="-96.5" font-family="Helvetica,sans-Serif" font-size="10.00" fill="#000000">drake/multibody/constraint</text>
<text text-anchor="start" x="440.5" y="-85.5" font-family="Helvetica,sans-Serif" font-size="10.00" fill="#000000">/test/constraint_solver</text>
<text text-anchor="middle" x="507" y="-74.5" font-family="Helvetica,sans-Serif" font-size="10.00" fill="#000000">_test.cc</text>
</a>
</g>
</g>
<!-- Node97&#45;&gt;Node104 -->
<g id="edge10" class="edge">
<title>Node97&#45;&gt;Node104</title>
<path fill="none" stroke="#191970" d="M408.789,-214.477C419.568,-195.0372 435.9284,-167.3209 453,-145 462.7719,-132.2233 475.0084,-119.1148 485.3612,-108.6948"/>
<polygon fill="#191970" stroke="#191970" points="405.6938,-212.8422 403.9671,-223.2954 411.8356,-216.2005 405.6938,-212.8422"/>
</g>
<!-- Node105 -->
<g id="node9" class="node">
<title>Node105</title>
<g id="a_node9"><a xlink:href="constraint__solver_8cc.html" target="_top" xlink:title="drake/multibody/constraint\l/constraint_solver.cc">
<polygon fill="#ffffff" stroke="#000000" points="461.5,-151 461.5,-181 610.5,-181 610.5,-151 461.5,-151"/>
<text text-anchor="start" x="469.5" y="-169" font-family="Helvetica,sans-Serif" font-size="10.00" fill="#000000">drake/multibody/constraint</text>
<text text-anchor="middle" x="536" y="-158" font-family="Helvetica,sans-Serif" font-size="10.00" fill="#000000">/constraint_solver.cc</text>
</a>
</g>
</g>
<!-- Node97&#45;&gt;Node105 -->
<g id="edge9" class="edge">
<title>Node97&#45;&gt;Node105</title>
<path fill="none" stroke="#191970" d="M434.1391,-218.7494C457.1182,-206.8495 485.9202,-191.9342 507.0291,-181.0028"/>
<polygon fill="#191970" stroke="#191970" points="432.2785,-215.7714 425.0081,-223.478 435.4976,-221.9873 432.2785,-215.7714"/>
</g>
<!-- Node100 -->
<g id="node4" class="node">
<title>Node100</title>
<g id="a_node4"><a xlink:href="rod2d-inl_8h.html" target="_top" xlink:title="drake/examples/rod2d\l/rod2d&#45;inl.h">
<polygon fill="#ffffff" stroke="#000000" points="0,-73 0,-103 126,-103 126,-73 0,-73"/>
<text text-anchor="start" x="8" y="-91" font-family="Helvetica,sans-Serif" font-size="10.00" fill="#000000">drake/examples/rod2d</text>
<text text-anchor="middle" x="63" y="-80" font-family="Helvetica,sans-Serif" font-size="10.00" fill="#000000">/rod2d&#45;inl.h</text>
</a>
</g>
</g>
<!-- Node99&#45;&gt;Node100 -->
<g id="edge3" class="edge">
<title>Node99&#45;&gt;Node100</title>
<path fill="none" stroke="#191970" d="M248.7784,-147.879C206.6392,-134.2969 149.6359,-115.924 109.929,-103.1259"/>
<polygon fill="#191970" stroke="#191970" points="247.7484,-151.2243 258.34,-150.9608 249.8959,-144.5618 247.7484,-151.2243"/>
</g>
<!-- Node102 -->
<g id="node6" class="node">
<title>Node102</title>
<g id="a_node6"><a xlink:href="rod2d__sim_8cc.html" target="_top" xlink:title="drake/examples/rod2d\l/rod2d_sim.cc">
<polygon fill="#ffffff" stroke="#000000" points="144,-73 144,-103 270,-103 270,-73 144,-73"/>
<text text-anchor="start" x="152" y="-91" font-family="Helvetica,sans-Serif" font-size="10.00" fill="#000000">drake/examples/rod2d</text>
<text text-anchor="middle" x="207" y="-80" font-family="Helvetica,sans-Serif" font-size="10.00" fill="#000000">/rod2d_sim.cc</text>
</a>
</g>
</g>
<!-- Node99&#45;&gt;Node102 -->
<g id="edge5" class="edge">
<title>Node99&#45;&gt;Node102</title>
<path fill="none" stroke="#191970" d="M277.9425,-144.4644C261.5099,-131.3854 240.928,-115.0039 226.1718,-103.2592"/>
<polygon fill="#191970" stroke="#191970" points="276.1007,-147.4718 286.1046,-150.9608 280.46,-141.9948 276.1007,-147.4718"/>
</g>
<!-- Node99&#45;&gt;Node103 -->
<g id="edge6" class="edge">
<title>Node99&#45;&gt;Node103</title>
<path fill="none" stroke="#191970" d="M318.9911,-142.2759C326.469,-129.596 335.4559,-114.3574 342.001,-103.2592"/>
<polygon fill="#191970" stroke="#191970" points="315.9344,-140.5692 313.8693,-150.9608 321.9639,-144.1251 315.9344,-140.5692"/>
</g>
<!-- Node99&#45;&gt;Node104 -->
<g id="edge7" class="edge">
<title>Node99&#45;&gt;Node104</title>
<path fill="none" stroke="#191970" d="M353.4312,-147.2988C383.647,-135.6314 422.5656,-120.6034 453.6626,-108.5956"/>
<polygon fill="#191970" stroke="#191970" points="352.0155,-144.0935 343.9476,-150.9608 354.5371,-150.6236 352.0155,-144.0935"/>
</g>
<!-- Node101 -->
<g id="node5" class="node">
<title>Node101</title>
<g id="a_node5"><a xlink:href="rod2d_8cc.html" target="_top" xlink:title="drake/examples/rod2d\l/rod2d.cc">
<polygon fill="#ffffff" stroke="#000000" points="0,-.5 0,-30.5 126,-30.5 126,-.5 0,-.5"/>
<text text-anchor="start" x="8" y="-18.5" font-family="Helvetica,sans-Serif" font-size="10.00" fill="#000000">drake/examples/rod2d</text>
<text text-anchor="middle" x="63" y="-7.5" font-family="Helvetica,sans-Serif" font-size="10.00" fill="#000000">/rod2d.cc</text>
</a>
</g>
</g>
<!-- Node100&#45;&gt;Node101 -->
<g id="edge4" class="edge">
<title>Node100&#45;&gt;Node101</title>
<path fill="none" stroke="#191970" d="M63,-62.8409C63,-52.0601 63,-39.8309 63,-30.5028"/>
<polygon fill="#191970" stroke="#191970" points="59.5001,-62.9779 63,-72.978 66.5001,-62.978 59.5001,-62.9779"/>
</g>
</g>
</svg>
        <g id="navigator" transform="translate(0 0)" fill="#404254">
                <rect fill="#f2f5e9" fill-opacity="0.5" stroke="#606060" stroke-width=".5" x="0" y="0" width="60" height="60"/>
                <use id="zoomplus" xlink:href="#zoomPlus" x="17" y="9" onmousedown="handleZoom(evt,'in')"/>
                <use id="zoomminus" xlink:href="#zoomMin" x="42" y="9" onmousedown="handleZoom(evt,'out')"/>
                <use id="reset" xlink:href="#resetDef" x="30" y="36" onmousedown="handleReset()"/>
                <g id="arrowUp" xlink:href="#dirArrow" transform="translate(30 24)" onmousedown="handlePan(0,-1)">
                  <use xlink:href="#rim" fill="#404040">
                        <set attributeName="fill" to="#808080" begin="arrowUp.mouseover" end="arrowUp.mouseout"/>
                  </use>
                  <path fill="none" stroke="white" stroke-width="1.5" d="M0,-3.0v7 M-2.5,-0.5L0,-3.0L2.5,-0.5"/>
                </g>
                <g id="arrowRight" xlink:href="#dirArrow" transform="rotate(90) translate(36 -43)" onmousedown="handlePan(1,0)">
                  <use xlink:href="#rim" fill="#404040">
                        <set attributeName="fill" to="#808080" begin="arrowRight.mouseover" end="arrowRight.mouseout"/>
                  </use>
                  <path fill="none" stroke="white" stroke-width="1.5" d="M0,-3.0v7 M-2.5,-0.5L0,-3.0L2.5,-0.5"/>
                </g>
                <g id="arrowDown" xlink:href="#dirArrow" transform="rotate(180) translate(-30 -48)" onmousedown="handlePan(0,1)">
                  <use xlink:href="#rim" fill="#404040">
                        <set attributeName="fill" to="#808080" begin="arrowDown.mouseover" end="arrowDown.mouseout"/>
                  </use>
                  <path fill="none" stroke="white" stroke-width="1.5" d="M0,-3.0v7 M-2.5,-0.5L0,-3.0L2.5,-0.5"/>
                </g>
                <g id="arrowLeft" xlink:href="#dirArrow" transform="rotate(270) translate(-36 17)" onmousedown="handlePan(-1,0)">
                  <use xlink:href="#rim" fill="#404040">
                        <set attributeName="fill" to="#808080" begin="arrowLeft.mouseover" end="arrowLeft.mouseout"/>
                  </use>
                  <path fill="none" stroke="white" stroke-width="1.5" d="M0,-3.0v7 M-2.5,-0.5L0,-3.0L2.5,-0.5"/>
                </g>
        </g>
        <svg viewBox="0 0 15 15" width="100%" height="30px" preserveAspectRatio="xMaxYMin meet">
         <g id="arrow_out" transform="scale(0.3 0.3)">
          <a xlink:href="constraint__solver_8h__dep__incl_org.svg" target="_base">
           <rect id="button" ry="5" rx="5" y="6" x="6" height="38" width="38"
                fill="#f2f5e9" fill-opacity="0.5" stroke="#606060" stroke-width="1.0"/>
           <path id="arrow"
             d="M 11.500037,31.436501 C 11.940474,20.09759 22.043105,11.32322 32.158766,21.979434 L 37.068811,17.246167 C 37.068811,17.246167 37.088388,32 37.088388,32 L 22.160133,31.978069 C 22.160133,31.978069 26.997745,27.140456 26.997745,27.140456 C 18.528582,18.264221 13.291696,25.230495 11.500037,31.436501 z"
             style="fill:#404040;"/>
          </a>
         </g>
        </svg>
</svg>
