<?xml version="1.0" encoding="UTF-8" standalone="no"?>
<!DOCTYPE svg PUBLIC "-//W3C//DTD SVG 1.1//EN"
 "http://www.w3.org/Graphics/SVG/1.1/DTD/svg11.dtd">
<!-- Generated by graphviz version 2.40.1 (20161225.0304)
 -->
<!-- Title: drake/systems/framework/context_base.cc Pages: 1 -->
<svg width="3020pt" height="575pt"
 viewBox="0.00 0.00 3020.00 575.00" xmlns="http://www.w3.org/2000/svg" xmlns:xlink="http://www.w3.org/1999/xlink">
<g id="graph0" class="graph" transform="scale(1 1) rotate(0) translate(4 571)">
<title>drake/systems/framework/context_base.cc</title>
<polygon fill="#ffffff" stroke="transparent" points="-4,4 -4,-571 3016,-571 3016,4 -4,4"/>
<!-- Node0 -->
<g id="node1" class="node">
<title>Node0</title>
<polygon fill="#bfbfbf" stroke="#000000" points="2283.5,-536.5 2283.5,-566.5 2428.5,-566.5 2428.5,-536.5 2283.5,-536.5"/>
<text text-anchor="start" x="2291.5" y="-554.5" font-family="Helvetica,sans-Serif" font-size="10.00" fill="#000000">drake/systems/framework</text>
<text text-anchor="middle" x="2356" y="-543.5" font-family="Helvetica,sans-Serif" font-size="10.00" fill="#000000">/context_base.cc</text>
</g>
<!-- Node1 -->
<g id="node2" class="node">
<title>Node1</title>
<g id="a_node2"><a xlink:href="context__base_8h.html" target="_top" xlink:title="drake/systems/framework\l/context_base.h">
<polygon fill="#ffffff" stroke="#000000" points="1706.5,-469.5 1706.5,-499.5 1851.5,-499.5 1851.5,-469.5 1706.5,-469.5"/>
<text text-anchor="start" x="1714.5" y="-487.5" font-family="Helvetica,sans-Serif" font-size="10.00" fill="#000000">drake/systems/framework</text>
<text text-anchor="middle" x="1779" y="-476.5" font-family="Helvetica,sans-Serif" font-size="10.00" fill="#000000">/context_base.h</text>
</a>
</g>
</g>
<!-- Node0&#45;&gt;Node1 -->
<g id="edge1" class="edge">
<title>Node0&#45;&gt;Node1</title>
<path fill="none" stroke="#191970" d="M2283.2149,-543.0484C2175.5792,-530.5499 1974.5417,-507.2059 1861.5521,-494.0858"/>
<polygon fill="#191970" stroke="#191970" points="1861.9043,-490.6032 1851.5673,-492.9264 1861.0968,-497.5565 1861.9043,-490.6032"/>
</g>
<!-- Node6 -->
<g id="node7" class="node">
<title>Node6</title>
<polygon fill="#ffffff" stroke="#bfbfbf" points="408,-73 408,-92 452,-92 452,-73 408,-73"/>
<text text-anchor="middle" x="430" y="-80" font-family="Helvetica,sans-Serif" font-size="10.00" fill="#000000">string</text>
</g>
<!-- Node0&#45;&gt;Node6 -->
<g id="edge124" class="edge">
<title>Node0&#45;&gt;Node6</title>
<path fill="none" stroke="#191970" d="M2283.2314,-551.2577C1886.2678,-549.4703 0,-534.8054 0,-417.5 0,-417.5 0,-417.5 0,-283.5 0,-148.2725 139.4974,-184.3544 265,-134 321.8343,-111.1968 340.638,-119.4411 398,-98 399.4094,-97.4732 400.8406,-96.9062 402.2765,-96.3114"/>
<polygon fill="#191970" stroke="#191970" points="403.9483,-99.3977 411.6433,-92.115 401.0862,-93.0095 403.9483,-99.3977"/>
</g>
<!-- Node11 -->
<g id="node12" class="node">
<title>Node11</title>
<g id="a_node12"><a xlink:href="unused_8h.html" target="_top" xlink:title="drake/common/unused.h">
<polygon fill="#ffffff" stroke="#000000" points="2846.5,-408 2846.5,-427 2983.5,-427 2983.5,-408 2846.5,-408"/>
<text text-anchor="middle" x="2915" y="-415" font-family="Helvetica,sans-Serif" font-size="10.00" fill="#000000">drake/common/unused.h</text>
</a>
</g>
</g>
<!-- Node0&#45;&gt;Node11 -->
<g id="edge126" class="edge">
<title>Node0&#45;&gt;Node11</title>
<path fill="none" stroke="#191970" d="M2418.7673,-536.4538C2530.9718,-509.5569 2763.7134,-453.7655 2865.5177,-429.3616"/>
<polygon fill="#191970" stroke="#191970" points="2866.3344,-432.7651 2875.243,-427.0303 2864.7025,-425.9579 2866.3344,-432.7651"/>
</g>
<!-- Node31 -->
<g id="node32" class="node">
<title>Node31</title>
<polygon fill="#ffffff" stroke="#bfbfbf" points="1775.5,-73 1775.5,-92 1832.5,-92 1832.5,-73 1775.5,-73"/>
<text text-anchor="middle" x="1804" y="-80" font-family="Helvetica,sans-Serif" font-size="10.00" fill="#000000">typeinfo</text>
</g>
<!-- Node0&#45;&gt;Node31 -->
<g id="edge125" class="edge">
<title>Node0&#45;&gt;Node31</title>
<path fill="none" stroke="#191970" d="M2428.7099,-544.2332C2599.5076,-526.1856 3012,-476.4921 3012,-417.5 3012,-417.5 3012,-417.5 3012,-283.5 3012,-140.464 2864.876,-172.0724 2727,-134 2683.7882,-122.0677 2012.76,-91.7274 1842.8579,-84.2066"/>
<polygon fill="#191970" stroke="#191970" points="1842.774,-80.6995 1832.6292,-83.7546 1842.4649,-87.6927 1842.774,-80.6995"/>
</g>
<!-- Node2 -->
<g id="node3" class="node">
<title>Node2</title>
<polygon fill="#ffffff" stroke="#bfbfbf" points="1378,-140 1378,-159 1442,-159 1442,-140 1378,-140"/>
<text text-anchor="middle" x="1410" y="-147" font-family="Helvetica,sans-Serif" font-size="10.00" fill="#000000">algorithm</text>
</g>
<!-- Node1&#45;&gt;Node2 -->
<g id="edge2" class="edge">
<title>Node1&#45;&gt;Node2</title>
<path fill="none" stroke="#191970" d="M1778.3785,-469.2369C1776.2688,-424.9697 1767.9397,-297.7904 1741,-268 1701.3626,-224.1682 1668.9056,-251.1548 1613,-232 1550.7933,-210.6863 1480.0436,-180.5432 1440.6473,-163.2108"/>
<polygon fill="#191970" stroke="#191970" points="1441.8925,-159.9346 1431.331,-159.0934 1439.0627,-166.3371 1441.8925,-159.9346"/>
</g>
<!-- Node3 -->
<g id="node4" class="node">
<title>Node3</title>
<polygon fill="#ffffff" stroke="#bfbfbf" points="218,-207 218,-226 268,-226 268,-207 218,-207"/>
<text text-anchor="middle" x="243" y="-214" font-family="Helvetica,sans-Serif" font-size="10.00" fill="#000000">cstdint</text>
</g>
<!-- Node1&#45;&gt;Node3 -->
<g id="edge3" class="edge">
<title>Node1&#45;&gt;Node3</title>
<path fill="none" stroke="#191970" d="M1706.3774,-483.4495C1453.0196,-479.0122 610.0238,-457.5471 358,-366 306.6709,-347.3548 284.4357,-344.9985 255,-299 242.9114,-280.1094 241.0605,-253.8617 241.4827,-236.0841"/>
<polygon fill="#191970" stroke="#191970" points="244.9821,-236.1813 241.9857,-226.0191 237.9908,-235.8319 244.9821,-236.1813"/>
</g>
<!-- Node4 -->
<g id="node5" class="node">
<title>Node4</title>
<polygon fill="#ffffff" stroke="#bfbfbf" points="1954.5,-140 1954.5,-159 2019.5,-159 2019.5,-140 1954.5,-140"/>
<text text-anchor="middle" x="1987" y="-147" font-family="Helvetica,sans-Serif" font-size="10.00" fill="#000000">functional</text>
</g>
<!-- Node1&#45;&gt;Node4 -->
<g id="edge4" class="edge">
<title>Node1&#45;&gt;Node4</title>
<path fill="none" stroke="#191970" d="M1832.8641,-469.4483C1852.6391,-461.4983 1873.67,-449.7989 1888,-433 1912.7827,-403.9476 1912,-388.6867 1912,-350.5 1912,-350.5 1912,-350.5 1912,-283.5 1912,-236.5192 1947.539,-190.7224 1969.689,-166.7416"/>
<polygon fill="#191970" stroke="#191970" points="1972.512,-168.8531 1976.8852,-159.2029 1967.4486,-164.0197 1972.512,-168.8531"/>
</g>
<!-- Node5 -->
<g id="node6" class="node">
<title>Node5</title>
<polygon fill="#ffffff" stroke="#bfbfbf" points="1699,-73 1699,-92 1757,-92 1757,-73 1699,-73"/>
<text text-anchor="middle" x="1728" y="-80" font-family="Helvetica,sans-Serif" font-size="10.00" fill="#000000">memory</text>
</g>
<!-- Node1&#45;&gt;Node5 -->
<g id="edge5" class="edge">
<title>Node1&#45;&gt;Node5</title>
<path fill="none" stroke="#191970" d="M1799.6136,-469.2782C1827.5538,-446.7207 1874,-401.5457 1874,-350.5 1874,-350.5 1874,-350.5 1874,-283.5 1874,-215.5505 1947.637,-187.6982 1906,-134 1866.6321,-83.2282 1826.9953,-118.1788 1766,-98 1763.8565,-97.2909 1761.6615,-96.5198 1759.4605,-95.7131"/>
<polygon fill="#191970" stroke="#191970" points="1760.5036,-92.3641 1749.9141,-92.0284 1757.983,-98.8945 1760.5036,-92.3641"/>
</g>
<!-- Node1&#45;&gt;Node6 -->
<g id="edge6" class="edge">
<title>Node1&#45;&gt;Node6</title>
<path fill="none" stroke="#191970" d="M1706.3864,-482.5176C1385.9218,-473.3004 114,-431.6086 114,-350.5 114,-350.5 114,-350.5 114,-283.5 114,-230.2125 157.5745,-231.8833 201,-201 218.9321,-188.247 344.4112,-125.1781 401.6522,-96.6085"/>
<polygon fill="#191970" stroke="#191970" points="403.4804,-99.6079 410.8674,-92.0129 400.3564,-93.3436 403.4804,-99.6079"/>
</g>
<!-- Node7 -->
<g id="node8" class="node">
<title>Node7</title>
<polygon fill="#ffffff" stroke="#bfbfbf" points="2488.5,-6 2488.5,-25 2533.5,-25 2533.5,-6 2488.5,-6"/>
<text text-anchor="middle" x="2511" y="-13" font-family="Helvetica,sans-Serif" font-size="10.00" fill="#000000">utility</text>
</g>
<!-- Node1&#45;&gt;Node7 -->
<g id="edge7" class="edge">
<title>Node1&#45;&gt;Node7</title>
<path fill="none" stroke="#191970" d="M1851.507,-480.0202C2110.4141,-463.0714 2974,-397.9596 2974,-283.5 2974,-283.5 2974,-283.5 2974,-149.5 2974,-99.6464 2942.2351,-89.9922 2898,-67 2836.4143,-34.9894 2625.6766,-21.2354 2543.8523,-17.0145"/>
<polygon fill="#191970" stroke="#191970" points="2543.7984,-13.5075 2533.6358,-16.5029 2543.4482,-20.4988 2543.7984,-13.5075"/>
</g>
<!-- Node8 -->
<g id="node9" class="node">
<title>Node8</title>
<polygon fill="#ffffff" stroke="#bfbfbf" points="147.5,-73 147.5,-92 194.5,-92 194.5,-73 147.5,-73"/>
<text text-anchor="middle" x="171" y="-80" font-family="Helvetica,sans-Serif" font-size="10.00" fill="#000000">vector</text>
</g>
<!-- Node1&#45;&gt;Node8 -->
<g id="edge8" class="edge">
<title>Node1&#45;&gt;Node8</title>
<path fill="none" stroke="#191970" d="M1706.4435,-482.8032C1473.6157,-477.1605 746.906,-457.9613 513,-433 299.9381,-410.2631 38,-564.7717 38,-350.5 38,-350.5 38,-350.5 38,-216.5 38,-158.693 101.1217,-116.9376 140.3945,-96.5526"/>
<polygon fill="#191970" stroke="#191970" points="141.9682,-99.6789 149.3352,-92.0647 138.8278,-93.4229 141.9682,-99.6789"/>
</g>
<!-- Node9 -->
<g id="node10" class="node">
<title>Node9</title>
<g id="a_node10"><a xlink:href="reset__on__copy_8h.html" target="_top" xlink:title="drake/common/reset\l_on_copy.h">
<polygon fill="#ffffff" stroke="#000000" points="1614,-268.5 1614,-298.5 1732,-298.5 1732,-268.5 1614,-268.5"/>
<text text-anchor="start" x="1622" y="-286.5" font-family="Helvetica,sans-Serif" font-size="10.00" fill="#000000">drake/common/reset</text>
<text text-anchor="middle" x="1673" y="-275.5" font-family="Helvetica,sans-Serif" font-size="10.00" fill="#000000">_on_copy.h</text>
</a>
</g>
</g>
<!-- Node1&#45;&gt;Node9 -->
<g id="edge9" class="edge">
<title>Node1&#45;&gt;Node9</title>
<path fill="none" stroke="#191970" d="M1768.7093,-469.4597C1761.9473,-459.3374 1753.0761,-445.5896 1746,-433 1721.8419,-390.0183 1697.4432,-337.8849 1683.8662,-307.9159"/>
<polygon fill="#191970" stroke="#191970" points="1686.99,-306.3286 1679.6927,-298.6474 1680.6073,-309.2027 1686.99,-306.3286"/>
</g>
<!-- Node1&#45;&gt;Node11 -->
<g id="edge12" class="edge">
<title>Node1&#45;&gt;Node11</title>
<path fill="none" stroke="#191970" d="M1851.757,-482.2302C2057.6172,-475.603 2641.5801,-455.3321 2832,-433 2841.088,-431.9342 2850.6789,-430.4666 2859.9871,-428.8565"/>
<polygon fill="#191970" stroke="#191970" points="2860.7173,-432.2814 2869.9393,-427.0657 2859.4775,-425.392 2860.7173,-432.2814"/>
</g>
<!-- Node12 -->
<g id="node13" class="node">
<title>Node12</title>
<g id="a_node13"><a xlink:href="cache_8h.html" target="_top" xlink:title="Declares CacheEntryValue and Cache, which is the container for cache entry values. ">
<polygon fill="#ffffff" stroke="#000000" points="1281.5,-335.5 1281.5,-365.5 1426.5,-365.5 1426.5,-335.5 1281.5,-335.5"/>
<text text-anchor="start" x="1289.5" y="-353.5" font-family="Helvetica,sans-Serif" font-size="10.00" fill="#000000">drake/systems/framework</text>
<text text-anchor="middle" x="1354" y="-342.5" font-family="Helvetica,sans-Serif" font-size="10.00" fill="#000000">/cache.h</text>
</a>
</g>
</g>
<!-- Node1&#45;&gt;Node12 -->
<g id="edge13" class="edge">
<title>Node1&#45;&gt;Node12</title>
<path fill="none" stroke="#191970" d="M1731.0732,-469.389C1652.3486,-444.5676 1495.9777,-395.2647 1411.4454,-368.6122"/>
<polygon fill="#191970" stroke="#191970" points="1412.3413,-365.2249 1401.7516,-365.5558 1410.2363,-371.9009 1412.3413,-365.2249"/>
</g>
<!-- Node32 -->
<g id="node33" class="node">
<title>Node32</title>
<g id="a_node33"><a xlink:href="value_8h.html" target="_top" xlink:title="drake/systems/framework\l/value.h">
<polygon fill="#ffffff" stroke="#000000" points="1655.5,-201.5 1655.5,-231.5 1800.5,-231.5 1800.5,-201.5 1655.5,-201.5"/>
<text text-anchor="start" x="1663.5" y="-219.5" font-family="Helvetica,sans-Serif" font-size="10.00" fill="#000000">drake/systems/framework</text>
<text text-anchor="middle" x="1728" y="-208.5" font-family="Helvetica,sans-Serif" font-size="10.00" fill="#000000">/value.h</text>
</a>
</g>
</g>
<!-- Node1&#45;&gt;Node32 -->
<g id="edge123" class="edge">
<title>Node1&#45;&gt;Node32</title>
<path fill="none" stroke="#191970" d="M1782.0997,-469.3637C1788.8155,-433.0629 1801.9614,-338.813 1774,-268 1769.6852,-257.0725 1761.9328,-246.9643 1754.007,-238.6495"/>
<polygon fill="#191970" stroke="#191970" points="1756.3604,-236.0551 1746.7732,-231.5455 1751.4557,-241.0495 1756.3604,-236.0551"/>
</g>
<!-- Node34 -->
<g id="node35" class="node">
<title>Node34</title>
<g id="a_node35"><a xlink:href="dependency__tracker_8h.html" target="_top" xlink:title="Declares DependencyTracker and DependencyGraph which is the container for trackers. ">
<polygon fill="#ffffff" stroke="#000000" points="922.5,-402.5 922.5,-432.5 1067.5,-432.5 1067.5,-402.5 922.5,-402.5"/>
<text text-anchor="start" x="930.5" y="-420.5" font-family="Helvetica,sans-Serif" font-size="10.00" fill="#000000">drake/systems/framework</text>
<text text-anchor="middle" x="995" y="-409.5" font-family="Helvetica,sans-Serif" font-size="10.00" fill="#000000">/dependency_tracker.h</text>
</a>
</g>
</g>
<!-- Node1&#45;&gt;Node34 -->
<g id="edge74" class="edge">
<title>Node1&#45;&gt;Node34</title>
<path fill="none" stroke="#191970" d="M1706.2982,-478.287C1560.2789,-465.8083 1232.1807,-437.7693 1078.0118,-424.5941"/>
<polygon fill="#191970" stroke="#191970" points="1077.9262,-421.0741 1067.6645,-423.7098 1077.3301,-428.0487 1077.9262,-421.0741"/>
</g>
<!-- Node37 -->
<g id="node38" class="node">
<title>Node37</title>
<g id="a_node38"><a xlink:href="fixed__input__port__value_8h.html" target="_top" xlink:title="drake/systems/framework\l/fixed_input_port_value.h">
<polygon fill="#ffffff" stroke="#000000" points="1940.5,-335.5 1940.5,-365.5 2085.5,-365.5 2085.5,-335.5 1940.5,-335.5"/>
<text text-anchor="start" x="1948.5" y="-353.5" font-family="Helvetica,sans-Serif" font-size="10.00" fill="#000000">drake/systems/framework</text>
<text text-anchor="middle" x="2013" y="-342.5" font-family="Helvetica,sans-Serif" font-size="10.00" fill="#000000">/fixed_input_port_value.h</text>
</a>
</g>
</g>
<!-- Node1&#45;&gt;Node37 -->
<g id="edge87" class="edge">
<title>Node1&#45;&gt;Node37</title>
<path fill="none" stroke="#191970" d="M1839.8604,-469.4742C1867.3754,-461.1323 1899.5698,-449.1288 1926,-433 1952.3484,-416.9211 1977.3636,-391.788 1993.7492,-373.4852"/>
<polygon fill="#191970" stroke="#191970" points="1996.6881,-375.442 2000.6443,-365.6135 1991.4224,-370.8296 1996.6881,-375.442"/>
</g>
<!-- Node9&#45;&gt;Node7 -->
<g id="edge11" class="edge">
<title>Node9&#45;&gt;Node7</title>
<path fill="none" stroke="#191970" d="M1732.0716,-280.6024C1881.0013,-273.0393 2263.8293,-251.9063 2318,-232 2340.1139,-223.8737 2339.218,-209.978 2361,-201 2455.442,-162.0734 2521.6669,-242.6819 2588,-165 2624.0034,-122.8368 2564.2176,-60.959 2530.9469,-31.8184"/>
<polygon fill="#191970" stroke="#191970" points="2533.0116,-28.9791 2523.134,-25.1471 2528.466,-34.3024 2533.0116,-28.9791"/>
</g>
<!-- Node10 -->
<g id="node11" class="node">
<title>Node10</title>
<polygon fill="#ffffff" stroke="#bfbfbf" points="888.5,-6 888.5,-25 957.5,-25 957.5,-6 888.5,-6"/>
<text text-anchor="middle" x="923" y="-13" font-family="Helvetica,sans-Serif" font-size="10.00" fill="#000000">type_traits</text>
</g>
<!-- Node9&#45;&gt;Node10 -->
<g id="edge10" class="edge">
<title>Node9&#45;&gt;Node10</title>
<path fill="none" stroke="#191970" d="M1613.6839,-280.9005C1413.9584,-272.0533 777.3629,-243.0495 759,-232 689.0021,-189.8803 626.5174,-130.4296 678,-67 702.7141,-36.5508 814.3225,-23.4394 878.0418,-18.3526"/>
<polygon fill="#191970" stroke="#191970" points="878.5105,-21.8271 888.2151,-17.5761 877.9777,-14.8474 878.5105,-21.8271"/>
</g>
<!-- Node12&#45;&gt;Node3 -->
<g id="edge14" class="edge">
<title>Node12&#45;&gt;Node3</title>
<path fill="none" stroke="#191970" d="M1281.427,-341.4925C1259.7648,-339.0669 1235.9461,-336.6587 1214,-335 1115.7545,-327.5745 418.5341,-337.87 328,-299 296.3729,-285.4212 269.7688,-254.3348 255.1381,-234.4369"/>
<polygon fill="#191970" stroke="#191970" points="257.9245,-232.3155 249.2834,-226.185 252.2154,-236.3661 257.9245,-232.3155"/>
</g>
<!-- Node12&#45;&gt;Node5 -->
<g id="edge15" class="edge">
<title>Node12&#45;&gt;Node5</title>
<path fill="none" stroke="#191970" d="M1349.4468,-335.4563C1338.649,-296.3979 1316.1664,-190.856 1369,-134 1374.4361,-128.15 1596.8355,-99.2139 1688.8121,-87.468"/>
<polygon fill="#191970" stroke="#191970" points="1689.3682,-90.9255 1698.8453,-86.1888 1688.4829,-83.9817 1689.3682,-90.9255"/>
</g>
<!-- Node12&#45;&gt;Node6 -->
<g id="edge18" class="edge">
<title>Node12&#45;&gt;Node6</title>
<path fill="none" stroke="#191970" d="M1281.4155,-341.6386C1259.753,-339.217 1235.937,-336.7745 1214,-335 1136.0412,-328.6939 580.9831,-333.9243 511,-299 441.5489,-264.3412 425.4769,-237.9634 399,-165 390.8971,-142.6704 404.0231,-117.0827 415.6098,-100.4008"/>
<polygon fill="#191970" stroke="#191970" points="418.6001,-102.2443 421.7439,-92.1266 412.9768,-98.0755 418.6001,-102.2443"/>
</g>
<!-- Node12&#45;&gt;Node7 -->
<g id="edge19" class="edge">
<title>Node12&#45;&gt;Node7</title>
<path fill="none" stroke="#191970" d="M1421.5068,-335.4232C1452.7687,-327.0153 1489.8086,-314.9724 1521,-299 1541.3337,-288.5876 1540.5403,-275.8331 1562,-268 1704.9829,-215.8092 2105.5649,-290.7024 2246,-232 2264.8673,-224.1134 2262.4859,-211.5561 2280,-201 2320.4566,-176.6161 2339.6679,-189.5892 2380,-165 2417.3224,-142.2457 2423.1414,-130.8314 2452,-98 2470.2445,-77.244 2488.2929,-50.9317 2499.5291,-33.6759"/>
<polygon fill="#191970" stroke="#191970" points="2502.5691,-35.4194 2505.0286,-25.1139 2496.6794,-31.6363 2502.5691,-35.4194"/>
</g>
<!-- Node12&#45;&gt;Node8 -->
<g id="edge20" class="edge">
<title>Node12&#45;&gt;Node8</title>
<path fill="none" stroke="#191970" d="M1281.4251,-341.5177C1259.7628,-339.0927 1235.9445,-336.6786 1214,-335 1119.9676,-327.807 451.4063,-338.9948 366,-299 312.7166,-274.048 325.9568,-233.6337 277,-201 237.347,-174.568 204.6299,-203.0965 176,-165 162.5074,-147.046 163.6443,-120.2075 166.5655,-102.0595"/>
<polygon fill="#191970" stroke="#191970" points="170.0408,-102.5221 168.5001,-92.0399 163.1677,-101.195 170.0408,-102.5221"/>
</g>
<!-- Node12&#45;&gt;Node9 -->
<g id="edge34" class="edge">
<title>Node12&#45;&gt;Node9</title>
<path fill="none" stroke="#191970" d="M1426.1313,-335.4558C1475.1674,-325.2146 1541.5071,-311.3326 1600,-299 1601.2479,-298.7369 1602.5078,-298.4711 1603.7769,-298.2032"/>
<polygon fill="#191970" stroke="#191970" points="1604.5807,-301.6107 1613.6408,-296.1185 1603.1331,-294.762 1604.5807,-301.6107"/>
</g>
<!-- Node13 -->
<g id="node14" class="node">
<title>Node13</title>
<polygon fill="#ffffff" stroke="#bfbfbf" points="1290,-274 1290,-293 1322,-293 1322,-274 1290,-274"/>
<text text-anchor="middle" x="1306" y="-281" font-family="Helvetica,sans-Serif" font-size="10.00" fill="#000000">set</text>
</g>
<!-- Node12&#45;&gt;Node13 -->
<g id="edge16" class="edge">
<title>Node12&#45;&gt;Node13</title>
<path fill="none" stroke="#191970" d="M1343.1081,-335.2967C1335.8473,-325.1618 1326.2775,-311.804 1318.675,-301.1921"/>
<polygon fill="#191970" stroke="#191970" points="1321.5144,-299.1458 1312.8454,-293.055 1315.824,-303.2225 1321.5144,-299.1458"/>
</g>
<!-- Node14 -->
<g id="node15" class="node">
<title>Node14</title>
<polygon fill="#ffffff" stroke="#bfbfbf" points="1832.5,-140 1832.5,-159 1897.5,-159 1897.5,-140 1832.5,-140"/>
<text text-anchor="middle" x="1865" y="-147" font-family="Helvetica,sans-Serif" font-size="10.00" fill="#000000">stdexcept</text>
</g>
<!-- Node12&#45;&gt;Node14 -->
<g id="edge17" class="edge">
<title>Node12&#45;&gt;Node14</title>
<path fill="none" stroke="#191970" d="M1394.6062,-335.4874C1419.5973,-325.8603 1452.0801,-312.6447 1480,-299 1504.8633,-286.8491 1507.7809,-276.8536 1534,-268 1650.7865,-228.5641 1704.0626,-296.6715 1809,-232 1832.9845,-217.2187 1849.1065,-187.8877 1857.6693,-168.4809"/>
<polygon fill="#191970" stroke="#191970" points="1860.9533,-169.6987 1861.5553,-159.121 1854.4883,-167.0146 1860.9533,-169.6987"/>
</g>
<!-- Node15 -->
<g id="node16" class="node">
<title>Node15</title>
<g id="a_node16"><a xlink:href="copyable__unique__ptr_8h.html" target="_top" xlink:title="drake/common/copyable\l_unique_ptr.h">
<polygon fill="#ffffff" stroke="#000000" points="2442.5,-134.5 2442.5,-164.5 2579.5,-164.5 2579.5,-134.5 2442.5,-134.5"/>
<text text-anchor="start" x="2450.5" y="-152.5" font-family="Helvetica,sans-Serif" font-size="10.00" fill="#000000">drake/common/copyable</text>
<text text-anchor="middle" x="2511" y="-141.5" font-family="Helvetica,sans-Serif" font-size="10.00" fill="#000000">_unique_ptr.h</text>
</a>
</g>
</g>
<!-- Node12&#45;&gt;Node15 -->
<g id="edge21" class="edge">
<title>Node12&#45;&gt;Node15</title>
<path fill="none" stroke="#191970" d="M1426.5602,-339.5717C1467.6021,-331.6829 1519.1277,-318.8531 1562,-299 1583.3788,-289.1 1582.7808,-275.8337 1605,-268 1888.3325,-168.1065 1994.2036,-324.6089 2280,-232 2304.1589,-224.1716 2304.8519,-211.4453 2328,-201 2360.989,-186.1141 2399.2933,-174.5316 2432.3066,-166.1538"/>
<polygon fill="#191970" stroke="#191970" points="2433.5078,-169.462 2442.3705,-163.6566 2431.8219,-162.668 2433.5078,-169.462"/>
</g>
<!-- Node18 -->
<g id="node19" class="node">
<title>Node18</title>
<g id="a_node19"><a xlink:href="drake__assert_8h.html" target="_top" xlink:title="Provides Drake&#39;s assertion implementation. ">
<polygon fill="#ffffff" stroke="#000000" points="687.5,-67.5 687.5,-97.5 808.5,-97.5 808.5,-67.5 687.5,-67.5"/>
<text text-anchor="start" x="695.5" y="-85.5" font-family="Helvetica,sans-Serif" font-size="10.00" fill="#000000">drake/common/drake</text>
<text text-anchor="middle" x="748" y="-74.5" font-family="Helvetica,sans-Serif" font-size="10.00" fill="#000000">_assert.h</text>
</a>
</g>
</g>
<!-- Node12&#45;&gt;Node18 -->
<g id="edge28" class="edge">
<title>Node12&#45;&gt;Node18</title>
<path fill="none" stroke="#191970" d="M1281.3822,-342.0181C1259.7188,-339.6073 1235.9106,-337.0754 1214,-335 1047.1761,-319.1984 571.3048,-363.1503 467,-232 458.424,-221.2167 459.3821,-212.4802 467,-201 473.8517,-190.6746 621.0057,-132.0601 699.5587,-101.3188"/>
<polygon fill="#191970" stroke="#191970" points="701.205,-104.4333 709.245,-97.5333 698.657,-97.9135 701.205,-104.4333"/>
</g>
<!-- Node19 -->
<g id="node20" class="node">
<title>Node19</title>
<g id="a_node20"><a xlink:href="never__destroyed_8h.html" target="_top" xlink:title="drake/common/never\l_destroyed.h">
<polygon fill="#ffffff" stroke="#000000" points="1115.5,-67.5 1115.5,-97.5 1236.5,-97.5 1236.5,-67.5 1115.5,-67.5"/>
<text text-anchor="start" x="1123.5" y="-85.5" font-family="Helvetica,sans-Serif" font-size="10.00" fill="#000000">drake/common/never</text>
<text text-anchor="middle" x="1176" y="-74.5" font-family="Helvetica,sans-Serif" font-size="10.00" fill="#000000">_destroyed.h</text>
</a>
</g>
</g>
<!-- Node12&#45;&gt;Node19 -->
<g id="edge29" class="edge">
<title>Node12&#45;&gt;Node19</title>
<path fill="none" stroke="#191970" d="M1313.3768,-335.3358C1253.1523,-310.3602 1142.4163,-254.2584 1097,-165 1090.7519,-152.7204 1090.4364,-146.1139 1097,-134 1104.161,-120.7836 1116.3468,-110.4229 1129.0322,-102.5696"/>
<polygon fill="#191970" stroke="#191970" points="1130.8984,-105.5343 1137.8386,-97.529 1127.421,-99.4591 1130.8984,-105.5343"/>
</g>
<!-- Node22 -->
<g id="node23" class="node">
<title>Node22</title>
<g id="a_node23"><a xlink:href="framework__common_8h.html" target="_top" xlink:title="drake/systems/framework\l/framework_common.h">
<polygon fill="#ffffff" stroke="#000000" points="766.5,-268.5 766.5,-298.5 911.5,-298.5 911.5,-268.5 766.5,-268.5"/>
<text text-anchor="start" x="774.5" y="-286.5" font-family="Helvetica,sans-Serif" font-size="10.00" fill="#000000">drake/systems/framework</text>
<text text-anchor="middle" x="839" y="-275.5" font-family="Helvetica,sans-Serif" font-size="10.00" fill="#000000">/framework_common.h</text>
</a>
</g>
</g>
<!-- Node12&#45;&gt;Node22 -->
<g id="edge35" class="edge">
<title>Node12&#45;&gt;Node22</title>
<path fill="none" stroke="#191970" d="M1281.3054,-341.0426C1186.5463,-328.7148 1021.2165,-307.2058 921.7499,-294.2655"/>
<polygon fill="#191970" stroke="#191970" points="922.1084,-290.7827 911.7404,-292.9633 921.2052,-297.7242 922.1084,-290.7827"/>
</g>
<!-- Node12&#45;&gt;Node32 -->
<g id="edge61" class="edge">
<title>Node12&#45;&gt;Node32</title>
<path fill="none" stroke="#191970" d="M1375.0784,-335.4448C1401.9222,-316.9509 1450.3212,-285.8423 1496,-268 1543.9654,-249.2645 1600.3061,-236.5563 1645.4544,-228.4516"/>
<polygon fill="#191970" stroke="#191970" points="1646.2521,-231.8652 1655.4976,-226.6911 1645.0434,-224.9704 1646.2521,-231.8652"/>
</g>
<!-- Node15&#45;&gt;Node5 -->
<g id="edge24" class="edge">
<title>Node15&#45;&gt;Node5</title>
<path fill="none" stroke="#191970" d="M2442.1496,-143.6811C2405.577,-140.6561 2359.8577,-136.9789 2319,-134 2073.354,-116.09 2006.0265,-153.2269 1766,-98 1763.2009,-97.356 1760.3411,-96.5304 1757.509,-95.5965"/>
<polygon fill="#191970" stroke="#191970" points="1758.7091,-92.3086 1748.1161,-92.1099 1756.2731,-98.8711 1758.7091,-92.3086"/>
</g>
<!-- Node15&#45;&gt;Node7 -->
<g id="edge25" class="edge">
<title>Node15&#45;&gt;Node7</title>
<path fill="none" stroke="#191970" d="M2511,-134.389C2511,-110.0735 2511,-62.2644 2511,-35.2698"/>
<polygon fill="#191970" stroke="#191970" points="2514.5001,-35.1041 2511,-25.1042 2507.5001,-35.1042 2514.5001,-35.1041"/>
</g>
<!-- Node16 -->
<g id="node17" class="node">
<title>Node16</title>
<polygon fill="#ffffff" stroke="#bfbfbf" points="2727.5,-73 2727.5,-92 2780.5,-92 2780.5,-73 2727.5,-73"/>
<text text-anchor="middle" x="2754" y="-80" font-family="Helvetica,sans-Serif" font-size="10.00" fill="#000000">cstddef</text>
</g>
<!-- Node15&#45;&gt;Node16 -->
<g id="edge22" class="edge">
<title>Node15&#45;&gt;Node16</title>
<path fill="none" stroke="#191970" d="M2570.6345,-134.4408C2609.1097,-124.5349 2660.1613,-111.0356 2705,-98 2709.0964,-96.8091 2713.3719,-95.5223 2717.6167,-94.2171"/>
<polygon fill="#191970" stroke="#191970" points="2718.8634,-97.4946 2727.3667,-91.1744 2716.7781,-90.8124 2718.8634,-97.4946"/>
</g>
<!-- Node17 -->
<g id="node18" class="node">
<title>Node17</title>
<polygon fill="#ffffff" stroke="#bfbfbf" points="2636,-73 2636,-92 2696,-92 2696,-73 2636,-73"/>
<text text-anchor="middle" x="2666" y="-80" font-family="Helvetica,sans-Serif" font-size="10.00" fill="#000000">iostream</text>
</g>
<!-- Node15&#45;&gt;Node17 -->
<g id="edge23" class="edge">
<title>Node15&#45;&gt;Node17</title>
<path fill="none" stroke="#191970" d="M2545.785,-134.4639C2572.3778,-122.969 2608.7284,-107.2561 2634.4757,-96.1266"/>
<polygon fill="#191970" stroke="#191970" points="2635.9916,-99.2844 2643.782,-92.1039 2633.2141,-92.859 2635.9916,-99.2844"/>
</g>
<!-- Node15&#45;&gt;Node18 -->
<g id="edge26" class="edge">
<title>Node15&#45;&gt;Node18</title>
<path fill="none" stroke="#191970" d="M2442.1873,-143.0918C2405.6252,-139.9027 2359.904,-136.2566 2319,-134 1780.4704,-104.2904 1644.9899,-117.6654 1106,-98 1006.4509,-94.3679 891.373,-89.2153 819.1397,-85.8653"/>
<polygon fill="#191970" stroke="#191970" points="818.952,-82.3529 808.8001,-85.3846 818.6267,-89.3454 818.952,-82.3529"/>
</g>
<!-- Node18&#45;&gt;Node10 -->
<g id="edge27" class="edge">
<title>Node18&#45;&gt;Node10</title>
<path fill="none" stroke="#191970" d="M787.2734,-67.4639C817.7848,-55.7824 859.6737,-39.7449 888.814,-28.5884"/>
<polygon fill="#191970" stroke="#191970" points="890.0852,-31.8495 898.1728,-25.0053 887.5824,-25.3122 890.0852,-31.8495"/>
</g>
<!-- Node19&#45;&gt;Node7 -->
<g id="edge32" class="edge">
<title>Node19&#45;&gt;Node7</title>
<path fill="none" stroke="#191970" d="M1236.8312,-79.447C1469.9073,-67.7496 2301.7947,-25.9994 2478.0418,-17.1541"/>
<polygon fill="#191970" stroke="#191970" points="2478.4264,-20.6393 2488.2384,-16.6423 2478.0755,-13.6481 2478.4264,-20.6393"/>
</g>
<!-- Node19&#45;&gt;Node10 -->
<g id="edge31" class="edge">
<title>Node19&#45;&gt;Node10</title>
<path fill="none" stroke="#191970" d="M1119.2219,-67.4639C1073.3639,-55.3197 1009.7287,-38.4677 967.5063,-27.2862"/>
<polygon fill="#191970" stroke="#191970" points="968.3474,-23.8884 957.7846,-24.7117 966.5553,-30.6551 968.3474,-23.8884"/>
</g>
<!-- Node20 -->
<g id="node21" class="node">
<title>Node20</title>
<polygon fill="#ffffff" stroke="#bfbfbf" points="1157.5,-6 1157.5,-25 1194.5,-25 1194.5,-6 1157.5,-6"/>
<text text-anchor="middle" x="1176" y="-13" font-family="Helvetica,sans-Serif" font-size="10.00" fill="#000000">new</text>
</g>
<!-- Node19&#45;&gt;Node20 -->
<g id="edge30" class="edge">
<title>Node19&#45;&gt;Node20</title>
<path fill="none" stroke="#191970" d="M1176,-67.2967C1176,-57.7699 1176,-45.3954 1176,-35.1306"/>
<polygon fill="#191970" stroke="#191970" points="1179.5001,-35.0549 1176,-25.055 1172.5001,-35.055 1179.5001,-35.0549"/>
</g>
<!-- Node21 -->
<g id="node22" class="node">
<title>Node21</title>
<g id="a_node22"><a xlink:href="drake__copyable_8h.html" target="_top" xlink:title="Provides careful macros to selectively enable or disable the special member functions for copy&#45;constr...">
<polygon fill="#ffffff" stroke="#000000" points="1409.5,-.5 1409.5,-30.5 1530.5,-30.5 1530.5,-.5 1409.5,-.5"/>
<text text-anchor="start" x="1417.5" y="-18.5" font-family="Helvetica,sans-Serif" font-size="10.00" fill="#000000">drake/common/drake</text>
<text text-anchor="middle" x="1470" y="-7.5" font-family="Helvetica,sans-Serif" font-size="10.00" fill="#000000">_copyable.h</text>
</a>
</g>
</g>
<!-- Node19&#45;&gt;Node21 -->
<g id="edge33" class="edge">
<title>Node19&#45;&gt;Node21</title>
<path fill="none" stroke="#191970" d="M1236.5605,-68.6988C1283.8174,-57.9294 1349.5589,-42.9475 1399.2381,-31.626"/>
<polygon fill="#191970" stroke="#191970" points="1400.2935,-34.9753 1409.2659,-29.3408 1398.7381,-28.1503 1400.2935,-34.9753"/>
</g>
<!-- Node22&#45;&gt;Node2 -->
<g id="edge36" class="edge">
<title>Node22&#45;&gt;Node2</title>
<path fill="none" stroke="#191970" d="M903.1147,-268.4538C1021.0138,-240.7857 1269.1988,-182.5427 1368.0637,-159.3414"/>
<polygon fill="#191970" stroke="#191970" points="1369.0508,-162.705 1377.9866,-157.0128 1367.4514,-155.8901 1369.0508,-162.705"/>
</g>
<!-- Node22&#45;&gt;Node5 -->
<g id="edge37" class="edge">
<title>Node22&#45;&gt;Node5</title>
<path fill="none" stroke="#191970" d="M875.6572,-268.4643C920.7605,-250.4196 999.9768,-220.1993 1070,-201 1150.783,-178.8505 1178.125,-198.2674 1255,-165 1276.622,-155.6431 1276.051,-142.5617 1298,-134 1298.57,-133.7777 1582.9351,-99.8166 1688.8564,-87.1721"/>
<polygon fill="#191970" stroke="#191970" points="1689.3126,-90.6426 1698.8272,-85.9819 1688.4828,-83.6919 1689.3126,-90.6426"/>
</g>
<!-- Node22&#45;&gt;Node6 -->
<g id="edge38" class="edge">
<title>Node22&#45;&gt;Node6</title>
<path fill="none" stroke="#191970" d="M783.4304,-268.4014C754.2718,-259.5296 718.3904,-247.0889 688,-232 665.9183,-221.0364 662.5859,-214.5655 642,-201 596.0884,-170.7456 586.125,-160.593 538,-134 504.9346,-115.7287 495.0088,-114.4488 461,-98 460.025,-97.5284 459.0338,-97.0465 458.0335,-96.5581"/>
<polygon fill="#191970" stroke="#191970" points="459.4947,-93.3762 448.9784,-92.088 456.396,-99.653 459.4947,-93.3762"/>
</g>
<!-- Node22&#45;&gt;Node8 -->
<g id="edge39" class="edge">
<title>Node22&#45;&gt;Node8</title>
<path fill="none" stroke="#191970" d="M766.4994,-280.5231C690.387,-275.7784 567.9785,-263.5275 467,-232 359.0979,-198.3108 242.5899,-128.3556 194.1506,-97.5824"/>
<polygon fill="#191970" stroke="#191970" points="195.9625,-94.5865 185.6538,-92.1409 192.1874,-100.4813 195.9625,-94.5865"/>
</g>
<!-- Node22&#45;&gt;Node18 -->
<g id="edge40" class="edge">
<title>Node22&#45;&gt;Node18</title>
<path fill="none" stroke="#191970" d="M801.3423,-268.4846C785.5353,-260.1715 768.6189,-248.1883 759,-232 736.1674,-193.5737 739.0204,-139.417 743.3711,-107.9328"/>
<polygon fill="#191970" stroke="#191970" points="746.8679,-108.2216 744.9329,-97.8049 739.9497,-107.1547 746.8679,-108.2216"/>
</g>
<!-- Node23 -->
<g id="node24" class="node">
<title>Node23</title>
<g id="a_node24"><a xlink:href="drake__optional_8h.html" target="_top" xlink:title="Provides drake::optional as an alias for the appropriate implementation of std::optional or std::expe...">
<polygon fill="#ffffff" stroke="#000000" points="408.5,-134.5 408.5,-164.5 529.5,-164.5 529.5,-134.5 408.5,-134.5"/>
<text text-anchor="start" x="416.5" y="-152.5" font-family="Helvetica,sans-Serif" font-size="10.00" fill="#000000">drake/common/drake</text>
<text text-anchor="middle" x="469" y="-141.5" font-family="Helvetica,sans-Serif" font-size="10.00" fill="#000000">_optional.h</text>
</a>
</g>
</g>
<!-- Node22&#45;&gt;Node23 -->
<g id="edge41" class="edge">
<title>Node22&#45;&gt;Node23</title>
<path fill="none" stroke="#191970" d="M766.4637,-269.95C730.3962,-261.6778 686.7714,-249.3067 650,-232 628.3558,-221.813 627.1443,-212.1878 606,-201 581.3147,-187.9385 552.5728,-176.5996 527.8079,-167.9118"/>
<polygon fill="#191970" stroke="#191970" points="528.7694,-164.5412 518.1747,-164.5943 526.4901,-171.1598 528.7694,-164.5412"/>
</g>
<!-- Node26 -->
<g id="node27" class="node">
<title>Node26</title>
<g id="a_node27"><a xlink:href="drake__variant_8h.html" target="_top" xlink:title="Provides drake::variant as an alias for the appropriate implementation of std::variant or or stx::var...">
<polygon fill="#ffffff" stroke="#000000" points="476.5,-201.5 476.5,-231.5 597.5,-231.5 597.5,-201.5 476.5,-201.5"/>
<text text-anchor="start" x="484.5" y="-219.5" font-family="Helvetica,sans-Serif" font-size="10.00" fill="#000000">drake/common/drake</text>
<text text-anchor="middle" x="537" y="-208.5" font-family="Helvetica,sans-Serif" font-size="10.00" fill="#000000">_variant.h</text>
</a>
</g>
</g>
<!-- Node22&#45;&gt;Node26 -->
<g id="edge44" class="edge">
<title>Node22&#45;&gt;Node26</title>
<path fill="none" stroke="#191970" d="M771.2253,-268.4639C722.4976,-257.6534 656.9547,-243.1125 607.5946,-232.1617"/>
<polygon fill="#191970" stroke="#191970" points="608.1547,-228.701 597.634,-229.9519 606.6386,-235.5348 608.1547,-228.701"/>
</g>
<!-- Node27 -->
<g id="node28" class="node">
<title>Node27</title>
<g id="a_node28"><a xlink:href="type__safe__index_8h.html" target="_top" xlink:title="drake/common/type_safe\l_index.h">
<polygon fill="#ffffff" stroke="#000000" points="768.5,-201.5 768.5,-231.5 909.5,-231.5 909.5,-201.5 768.5,-201.5"/>
<text text-anchor="start" x="776.5" y="-219.5" font-family="Helvetica,sans-Serif" font-size="10.00" fill="#000000">drake/common/type_safe</text>
<text text-anchor="middle" x="839" y="-208.5" font-family="Helvetica,sans-Serif" font-size="10.00" fill="#000000">_index.h</text>
</a>
</g>
</g>
<!-- Node22&#45;&gt;Node27 -->
<g id="edge46" class="edge">
<title>Node22&#45;&gt;Node27</title>
<path fill="none" stroke="#191970" d="M839,-268.2967C839,-260.5013 839,-250.7991 839,-241.9064"/>
<polygon fill="#191970" stroke="#191970" points="842.5001,-241.6431 839,-231.6432 835.5001,-241.6432 842.5001,-241.6431"/>
</g>
<!-- Node24 -->
<g id="node25" class="node">
<title>Node24</title>
<polygon fill="#ffffff" stroke="#bfbfbf" points="470,-73 470,-92 560,-92 560,-73 470,-73"/>
<text text-anchor="middle" x="515" y="-80" font-family="Helvetica,sans-Serif" font-size="10.00" fill="#000000">stx/variant.hpp</text>
</g>
<!-- Node23&#45;&gt;Node24 -->
<g id="edge42" class="edge">
<title>Node23&#45;&gt;Node24</title>
<path fill="none" stroke="#191970" d="M479.4381,-134.2967C486.3268,-124.2631 495.3842,-111.0709 502.634,-100.5113"/>
<polygon fill="#191970" stroke="#191970" points="505.6652,-102.28 508.4399,-92.055 499.8944,-98.318 505.6652,-102.28"/>
</g>
<!-- Node25 -->
<g id="node26" class="node">
<title>Node25</title>
<polygon fill="#ffffff" stroke="#bfbfbf" points="294.5,-73 294.5,-92 389.5,-92 389.5,-73 294.5,-73"/>
<text text-anchor="middle" x="342" y="-80" font-family="Helvetica,sans-Serif" font-size="10.00" fill="#000000">stx/optional.hpp</text>
</g>
<!-- Node23&#45;&gt;Node25 -->
<g id="edge43" class="edge">
<title>Node23&#45;&gt;Node25</title>
<path fill="none" stroke="#191970" d="M440.4987,-134.4639C419.1897,-123.2222 390.234,-107.9463 369.2361,-96.8686"/>
<polygon fill="#191970" stroke="#191970" points="370.6822,-93.6744 360.2044,-92.1039 367.416,-99.8657 370.6822,-93.6744"/>
</g>
<!-- Node26&#45;&gt;Node23 -->
<g id="edge45" class="edge">
<title>Node26&#45;&gt;Node23</title>
<path fill="none" stroke="#191970" d="M521.5697,-201.2967C512.7016,-192.559 501.4022,-181.4257 491.5535,-171.7218"/>
<polygon fill="#191970" stroke="#191970" points="493.949,-169.1685 484.3692,-164.6432 489.036,-174.1548 493.949,-169.1685"/>
</g>
<!-- Node27&#45;&gt;Node4 -->
<g id="edge47" class="edge">
<title>Node27&#45;&gt;Node4</title>
<path fill="none" stroke="#191970" d="M909.7683,-214.3874C1115.6812,-208.0336 1712.1771,-188.1057 1906,-165 1918.5509,-163.5038 1932.0781,-161.1963 1944.4156,-158.8149"/>
<polygon fill="#191970" stroke="#191970" points="1945.3295,-162.2016 1954.4518,-156.8133 1943.9603,-155.3368 1945.3295,-162.2016"/>
</g>
<!-- Node27&#45;&gt;Node6 -->
<g id="edge49" class="edge">
<title>Node27&#45;&gt;Node6</title>
<path fill="none" stroke="#191970" d="M800.9327,-201.3446C755.833,-183.727 678.2028,-154.4587 610,-134 544.7449,-114.4256 524.9889,-121.3837 461,-98 459.5871,-97.4837 458.1545,-96.9204 456.7195,-96.3242"/>
<polygon fill="#191970" stroke="#191970" points="457.9488,-93.0378 447.399,-92.0622 455.0378,-99.4038 457.9488,-93.0378"/>
</g>
<!-- Node27&#45;&gt;Node18 -->
<g id="edge50" class="edge">
<title>Node27&#45;&gt;Node18</title>
<path fill="none" stroke="#191970" d="M828.738,-201.389C813.0358,-178.267 782.9068,-133.9012 764.2239,-106.3901"/>
<polygon fill="#191970" stroke="#191970" points="766.8776,-104.0678 758.3641,-97.7614 761.0867,-108.0004 766.8776,-104.0678"/>
</g>
<!-- Node28 -->
<g id="node29" class="node">
<title>Node28</title>
<polygon fill="#ffffff" stroke="#bfbfbf" points="2674,-140 2674,-159 2718,-159 2718,-140 2674,-140"/>
<text text-anchor="middle" x="2696" y="-147" font-family="Helvetica,sans-Serif" font-size="10.00" fill="#000000">limits</text>
</g>
<!-- Node27&#45;&gt;Node28 -->
<g id="edge48" class="edge">
<title>Node27&#45;&gt;Node28</title>
<path fill="none" stroke="#191970" d="M909.5118,-214.8961C1215.3286,-207.8759 2419.128,-179.5574 2588,-165 2613.6248,-162.791 2642.4495,-158.5649 2663.871,-155.0828"/>
<polygon fill="#191970" stroke="#191970" points="2664.4532,-158.5341 2673.7458,-153.4452 2663.3079,-151.6284 2664.4532,-158.5341"/>
</g>
<!-- Node29 -->
<g id="node30" class="node">
<title>Node29</title>
<g id="a_node30"><a xlink:href="drake__throw_8h.html" target="_top" xlink:title="Provides a convenient wrapper to throw an exception when a condition is unmet. ">
<polygon fill="#ffffff" stroke="#000000" points="814.5,-134.5 814.5,-164.5 935.5,-164.5 935.5,-134.5 814.5,-134.5"/>
<text text-anchor="start" x="822.5" y="-152.5" font-family="Helvetica,sans-Serif" font-size="10.00" fill="#000000">drake/common/drake</text>
<text text-anchor="middle" x="875" y="-141.5" font-family="Helvetica,sans-Serif" font-size="10.00" fill="#000000">_throw.h</text>
</a>
</g>
</g>
<!-- Node27&#45;&gt;Node29 -->
<g id="edge51" class="edge">
<title>Node27&#45;&gt;Node29</title>
<path fill="none" stroke="#191970" d="M847.169,-201.2967C851.5416,-193.1586 857.0309,-182.9425 861.9763,-173.7386"/>
<polygon fill="#191970" stroke="#191970" points="865.2133,-175.1087 866.8634,-164.6432 859.047,-171.7955 865.2133,-175.1087"/>
</g>
<!-- Node30 -->
<g id="node31" class="node">
<title>Node30</title>
<g id="a_node31"><a xlink:href="nice__type__name_8h.html" target="_top" xlink:title="drake/common/nice_type\l_name.h">
<polygon fill="#ffffff" stroke="#000000" points="1106,-134.5 1106,-164.5 1246,-164.5 1246,-134.5 1106,-134.5"/>
<text text-anchor="start" x="1114" y="-152.5" font-family="Helvetica,sans-Serif" font-size="10.00" fill="#000000">drake/common/nice_type</text>
<text text-anchor="middle" x="1176" y="-141.5" font-family="Helvetica,sans-Serif" font-size="10.00" fill="#000000">_name.h</text>
</a>
</g>
</g>
<!-- Node27&#45;&gt;Node30 -->
<g id="edge54" class="edge">
<title>Node27&#45;&gt;Node30</title>
<path fill="none" stroke="#191970" d="M909.6462,-202.4546C963.9954,-191.6493 1039.1299,-176.7116 1095.7467,-165.4554"/>
<polygon fill="#191970" stroke="#191970" points="1096.6104,-168.8523 1105.736,-163.4694 1095.2454,-161.9866 1096.6104,-168.8523"/>
</g>
<!-- Node29&#45;&gt;Node10 -->
<g id="edge52" class="edge">
<title>Node29&#45;&gt;Node10</title>
<path fill="none" stroke="#191970" d="M880.4129,-134.389C889.2007,-109.8564 906.5551,-61.4088 916.1755,-34.5517"/>
<polygon fill="#191970" stroke="#191970" points="919.4824,-35.6987 919.5597,-25.1042 912.8924,-33.3381 919.4824,-35.6987"/>
</g>
<!-- Node29&#45;&gt;Node18 -->
<g id="edge53" class="edge">
<title>Node29&#45;&gt;Node18</title>
<path fill="none" stroke="#191970" d="M846.4987,-134.4639C828.5687,-125.0047 805.2247,-112.6894 785.763,-102.4222"/>
<polygon fill="#191970" stroke="#191970" points="787.3234,-99.2882 776.8456,-97.7177 784.0571,-105.4795 787.3234,-99.2882"/>
</g>
<!-- Node30&#45;&gt;Node5 -->
<g id="edge55" class="edge">
<title>Node30&#45;&gt;Node5</title>
<path fill="none" stroke="#191970" d="M1246.0547,-136.1204C1250.7671,-135.3602 1255.4482,-134.6445 1260,-134 1420.5236,-111.2705 1462.0942,-117.8437 1623,-98 1644.7029,-95.3235 1668.848,-91.7976 1688.5072,-88.7851"/>
<polygon fill="#191970" stroke="#191970" points="1689.2849,-92.2065 1698.632,-87.2184 1688.2144,-85.2888 1689.2849,-92.2065"/>
</g>
<!-- Node30&#45;&gt;Node6 -->
<g id="edge56" class="edge">
<title>Node30&#45;&gt;Node6</title>
<path fill="none" stroke="#191970" d="M1105.9533,-144.8156C928.9141,-132.9288 476.4336,-102.2344 461,-98 459.2846,-97.5293 457.5519,-96.9607 455.8289,-96.323"/>
<polygon fill="#191970" stroke="#191970" points="456.8164,-92.934 446.2532,-92.1162 454.0009,-99.3428 456.8164,-92.934"/>
</g>
<!-- Node30&#45;&gt;Node7 -->
<g id="edge58" class="edge">
<title>Node30&#45;&gt;Node7</title>
<path fill="none" stroke="#191970" d="M1246.3657,-135.8906C1345.0922,-117.3259 1530.5238,-84.3889 1690,-67 1995.3672,-33.7034 2367.1582,-20.003 2478.1937,-16.4744"/>
<polygon fill="#191970" stroke="#191970" points="2478.5207,-19.9659 2488.4065,-16.1553 2478.3021,-12.9694 2478.5207,-19.9659"/>
</g>
<!-- Node30&#45;&gt;Node8 -->
<g id="edge59" class="edge">
<title>Node30&#45;&gt;Node8</title>
<path fill="none" stroke="#191970" d="M1105.963,-144.5987C1059.9385,-141.4326 998.396,-137.3028 944,-134 651.2136,-116.2229 577.007,-125.7817 285,-98 257.8786,-95.4196 227.2955,-91.1888 204.6388,-87.7987"/>
<polygon fill="#191970" stroke="#191970" points="204.9282,-84.3026 194.516,-86.2612 203.877,-91.2232 204.9282,-84.3026"/>
</g>
<!-- Node30&#45;&gt;Node19 -->
<g id="edge60" class="edge">
<title>Node30&#45;&gt;Node19</title>
<path fill="none" stroke="#191970" d="M1176,-134.2967C1176,-126.5013 1176,-116.7991 1176,-107.9064"/>
<polygon fill="#191970" stroke="#191970" points="1179.5001,-107.6431 1176,-97.6432 1172.5001,-107.6432 1179.5001,-107.6431"/>
</g>
<!-- Node30&#45;&gt;Node31 -->
<g id="edge57" class="edge">
<title>Node30&#45;&gt;Node31</title>
<path fill="none" stroke="#191970" d="M1246.2639,-143.6427C1399.9855,-130.7915 1753.4995,-101.0218 1766,-98 1768.7918,-97.3251 1771.6467,-96.4785 1774.4755,-95.5308"/>
<polygon fill="#191970" stroke="#191970" points="1775.721,-98.8018 1783.8633,-92.0229 1773.2708,-92.2446 1775.721,-98.8018"/>
</g>
<!-- Node32&#45;&gt;Node5 -->
<g id="edge62" class="edge">
<title>Node32&#45;&gt;Node5</title>
<path fill="none" stroke="#191970" d="M1728,-201.389C1728,-177.0735 1728,-129.2644 1728,-102.2698"/>
<polygon fill="#191970" stroke="#191970" points="1731.5001,-102.1041 1728,-92.1042 1724.5001,-102.1042 1731.5001,-102.1041"/>
</g>
<!-- Node32&#45;&gt;Node6 -->
<g id="edge64" class="edge">
<title>Node32&#45;&gt;Node6</title>
<path fill="none" stroke="#191970" d="M1655.2002,-214.0243C1467.2091,-207.3768 968.7908,-188.0692 805,-165 743.6111,-156.3536 729.7867,-146.1795 669,-134 577.0095,-115.5684 550.1293,-127.2907 461,-98 459.3887,-97.4705 457.7564,-96.8696 456.1272,-96.2196"/>
<polygon fill="#191970" stroke="#191970" points="457.5549,-93.0241 446.9993,-92.1129 454.6828,-99.4077 457.5549,-93.0241"/>
</g>
<!-- Node32&#45;&gt;Node7 -->
<g id="edge67" class="edge">
<title>Node32&#45;&gt;Node7</title>
<path fill="none" stroke="#191970" d="M1743.4847,-201.3022C1765.5635,-179.948 1805.3664,-142.6926 1823,-134 1941.5861,-75.5423 2357.719,-30.6591 2478.1302,-18.6693"/>
<polygon fill="#191970" stroke="#191970" points="2478.6005,-22.14 2488.2081,-17.6741 2477.9126,-15.1739 2478.6005,-22.14"/>
</g>
<!-- Node32&#45;&gt;Node10 -->
<g id="edge65" class="edge">
<title>Node32&#45;&gt;Node10</title>
<path fill="none" stroke="#191970" d="M1655.4708,-211.7848C1495.0815,-201.1935 1122.4191,-175.6161 1097,-165 1026.1543,-135.4119 963.3401,-65.6121 936.634,-32.9388"/>
<polygon fill="#191970" stroke="#191970" points="939.3496,-30.7305 930.3596,-25.1242 933.8913,-35.1131 939.3496,-30.7305"/>
</g>
<!-- Node32&#45;&gt;Node14 -->
<g id="edge63" class="edge">
<title>Node32&#45;&gt;Node14</title>
<path fill="none" stroke="#191970" d="M1758.7455,-201.4639C1781.9394,-190.1209 1813.5316,-174.6707 1836.2294,-163.5703"/>
<polygon fill="#191970" stroke="#191970" points="1837.9165,-166.6414 1845.3621,-159.1039 1834.8412,-160.3531 1837.9165,-166.6414"/>
</g>
<!-- Node32&#45;&gt;Node15 -->
<g id="edge68" class="edge">
<title>Node32&#45;&gt;Node15</title>
<path fill="none" stroke="#191970" d="M1800.6091,-210.287C1947.7393,-197.6973 2279.9653,-169.2693 2432.1612,-156.2461"/>
<polygon fill="#191970" stroke="#191970" points="2432.6975,-159.7131 2442.3627,-155.3732 2432.1006,-152.7386 2432.6975,-159.7131"/>
</g>
<!-- Node32&#45;&gt;Node21 -->
<g id="edge69" class="edge">
<title>Node32&#45;&gt;Node21</title>
<path fill="none" stroke="#191970" d="M1656.1723,-201.4749C1602.57,-189.7013 1536.9438,-173.8753 1527,-165 1507.9628,-148.0084 1486.8921,-78.4034 1476.5121,-40.4561"/>
<polygon fill="#191970" stroke="#191970" points="1479.8554,-39.4106 1473.8785,-30.6626 1473.0955,-41.2285 1479.8554,-39.4106"/>
</g>
<!-- Node32&#45;&gt;Node30 -->
<g id="edge73" class="edge">
<title>Node32&#45;&gt;Node30</title>
<path fill="none" stroke="#191970" d="M1655.2973,-207.4432C1638.1484,-205.3185 1619.9306,-203.0707 1603,-201 1482.1565,-186.2203 1342.0368,-169.3767 1256.2126,-159.0933"/>
<polygon fill="#191970" stroke="#191970" points="1256.6235,-155.6176 1246.2782,-157.9032 1255.7909,-162.5679 1256.6235,-155.6176"/>
</g>
<!-- Node32&#45;&gt;Node31 -->
<g id="edge66" class="edge">
<title>Node32&#45;&gt;Node31</title>
<path fill="none" stroke="#191970" d="M1736.5704,-201.389C1750.6076,-176.6393 1778.4496,-127.5495 1793.5961,-100.8438"/>
<polygon fill="#191970" stroke="#191970" points="1796.6638,-102.5293 1798.5529,-92.1042 1790.575,-99.0758 1796.6638,-102.5293"/>
</g>
<!-- Node33 -->
<g id="node34" class="node">
<title>Node33</title>
<g id="a_node34"><a xlink:href="is__cloneable_8h.html" target="_top" xlink:title="drake/common/is_cloneable.h">
<polygon fill="#ffffff" stroke="#000000" points="1536.5,-140 1536.5,-159 1699.5,-159 1699.5,-140 1536.5,-140"/>
<text text-anchor="middle" x="1618" y="-147" font-family="Helvetica,sans-Serif" font-size="10.00" fill="#000000">drake/common/is_cloneable.h</text>
</a>
</g>
</g>
<!-- Node32&#45;&gt;Node33 -->
<g id="edge70" class="edge">
<title>Node32&#45;&gt;Node33</title>
<path fill="none" stroke="#191970" d="M1703.3139,-201.4639C1685.1898,-190.4247 1660.6791,-175.4954 1642.58,-164.4715"/>
<polygon fill="#191970" stroke="#191970" points="1644.1288,-161.3167 1633.7676,-159.1039 1640.4874,-167.2951 1644.1288,-161.3167"/>
</g>
<!-- Node33&#45;&gt;Node5 -->
<g id="edge71" class="edge">
<title>Node33&#45;&gt;Node5</title>
<path fill="none" stroke="#191970" d="M1633.7603,-139.9005C1651.9757,-128.8057 1682.173,-110.4128 1703.4677,-97.4424"/>
<polygon fill="#191970" stroke="#191970" points="1705.5491,-100.2728 1712.2689,-92.0817 1701.9077,-94.2945 1705.5491,-100.2728"/>
</g>
<!-- Node33&#45;&gt;Node10 -->
<g id="edge72" class="edge">
<title>Node33&#45;&gt;Node10</title>
<path fill="none" stroke="#191970" d="M1536.4405,-141.9892C1397.1682,-129.0658 1126.4402,-103.479 1106,-98 1046.9235,-82.1646 982.8411,-49.2681 948.3808,-30.1451"/>
<polygon fill="#191970" stroke="#191970" points="949.9082,-26.9888 939.4755,-25.1423 946.4797,-33.0917 949.9082,-26.9888"/>
</g>
<!-- Node34&#45;&gt;Node3 -->
<g id="edge75" class="edge">
<title>Node34&#45;&gt;Node3</title>
<path fill="none" stroke="#191970" d="M922.2473,-413.845C761.4595,-404.4543 382.1885,-374.6825 282,-299 261.7221,-283.682 251.544,-255.1686 246.7703,-236.0106"/>
<polygon fill="#191970" stroke="#191970" points="250.1823,-235.2301 244.5963,-226.2275 243.349,-236.7487 250.1823,-235.2301"/>
</g>
<!-- Node34&#45;&gt;Node5 -->
<g id="edge76" class="edge">
<title>Node34&#45;&gt;Node5</title>
<path fill="none" stroke="#191970" d="M1067.5183,-406.8401C1121.98,-397.6731 1190.9731,-383.2247 1214,-366 1308.996,-294.9406 1247.6722,-200.3726 1346,-134 1353.092,-129.2128 1592.8059,-99.1874 1688.8159,-87.319"/>
<polygon fill="#191970" stroke="#191970" points="1689.4919,-90.7622 1698.9877,-86.0631 1688.6341,-83.815 1689.4919,-90.7622"/>
</g>
<!-- Node34&#45;&gt;Node6 -->
<g id="edge77" class="edge">
<title>Node34&#45;&gt;Node6</title>
<path fill="none" stroke="#191970" d="M922.2138,-415.3041C751.9199,-409.7325 337.6301,-393.5038 281,-366 207.6904,-330.3954 158.6358,-270.6222 201,-201 203.899,-196.2357 341.1272,-127.0437 401.7345,-96.6467"/>
<polygon fill="#191970" stroke="#191970" points="403.3999,-99.7271 410.7714,-92.1171 400.2632,-93.4692 403.3999,-99.7271"/>
</g>
<!-- Node34&#45;&gt;Node7 -->
<g id="edge79" class="edge">
<title>Node34&#45;&gt;Node7</title>
<path fill="none" stroke="#191970" d="M1067.547,-416.3619C1419.9177,-410.3681 2936,-379.0288 2936,-283.5 2936,-283.5 2936,-283.5 2936,-149.5 2936,-97.8024 2900.1215,-90.3548 2854,-67 2799.9808,-39.646 2619.1553,-23.4869 2544.0948,-17.815"/>
<polygon fill="#191970" stroke="#191970" points="2544.0465,-14.3019 2533.8154,-17.0541 2543.5298,-21.2828 2544.0465,-14.3019"/>
</g>
<!-- Node34&#45;&gt;Node8 -->
<g id="edge80" class="edge">
<title>Node34&#45;&gt;Node8</title>
<path fill="none" stroke="#191970" d="M922.2979,-416.2334C742.6627,-412.594 288.0975,-400.092 229,-366 147.4335,-318.9461 169.6532,-258.8541 162,-165 160.8802,-151.2678 160.8096,-147.7263 162,-134 162.9131,-123.4711 164.8574,-111.866 166.706,-102.3418"/>
<polygon fill="#191970" stroke="#191970" points="170.1837,-102.8057 168.7646,-92.3063 163.3265,-101.399 170.1837,-102.8057"/>
</g>
<!-- Node34&#45;&gt;Node12 -->
<g id="edge85" class="edge">
<title>Node34&#45;&gt;Node12</title>
<path fill="none" stroke="#191970" d="M1067.649,-403.9416C1126.6493,-392.9303 1209.8651,-377.3998 1271.3928,-365.9169"/>
<polygon fill="#191970" stroke="#191970" points="1272.2709,-369.3136 1281.459,-364.0383 1270.9866,-362.4324 1272.2709,-369.3136"/>
</g>
<!-- Node34&#45;&gt;Node18 -->
<g id="edge81" class="edge">
<title>Node34&#45;&gt;Node18</title>
<path fill="none" stroke="#191970" d="M922.2836,-416.0966C778.0125,-412.5822 460.6486,-401.01 358,-366 273.7049,-337.2497 235.3903,-317.0635 209,-232 204.9175,-218.841 200.9286,-212.166 209,-201 238.8879,-159.653 269.9408,-182.1224 318,-165 354.3107,-152.0633 361.7099,-143.7609 399,-134 493.5921,-109.2399 605.9335,-95.333 677.0986,-88.3721"/>
<polygon fill="#191970" stroke="#191970" points="677.6721,-91.8333 687.2926,-87.3951 677.0042,-84.8652 677.6721,-91.8333"/>
</g>
<!-- Node34&#45;&gt;Node21 -->
<g id="edge82" class="edge">
<title>Node34&#45;&gt;Node21</title>
<path fill="none" stroke="#191970" d="M993.3162,-402.2788C988.1769,-347.3837 978.7069,-158.0301 1080,-67 1103.2825,-46.0765 1293.2402,-28.7087 1399.201,-20.5349"/>
<polygon fill="#191970" stroke="#191970" points="1399.4801,-24.0239 1409.1847,-19.7728 1398.9473,-17.0442 1399.4801,-24.0239"/>
</g>
<!-- Node34&#45;&gt;Node22 -->
<g id="edge86" class="edge">
<title>Node34&#45;&gt;Node22</title>
<path fill="none" stroke="#191970" d="M991.2871,-402.1843C986.1647,-384.0026 975.299,-353.7859 956,-335 941.3752,-320.764 922.1593,-310.1101 903.5382,-302.3019"/>
<polygon fill="#191970" stroke="#191970" points="904.7618,-299.0219 894.176,-298.5844 902.1784,-305.5278 904.7618,-299.0219"/>
</g>
<!-- Node35 -->
<g id="node36" class="node">
<title>Node35</title>
<polygon fill="#ffffff" stroke="#bfbfbf" points="854.5,-341 854.5,-360 947.5,-360 947.5,-341 854.5,-341"/>
<text text-anchor="middle" x="901" y="-348" font-family="Helvetica,sans-Serif" font-size="10.00" fill="#000000">unordered_map</text>
</g>
<!-- Node34&#45;&gt;Node35 -->
<g id="edge78" class="edge">
<title>Node34&#45;&gt;Node35</title>
<path fill="none" stroke="#191970" d="M973.6699,-402.2967C958.4555,-391.4524 938.0643,-376.9182 922.7547,-366.006"/>
<polygon fill="#191970" stroke="#191970" points="924.5802,-363.0091 914.4055,-360.055 920.5172,-368.7093 924.5802,-363.0091"/>
</g>
<!-- Node36 -->
<g id="node37" class="node">
<title>Node36</title>
<g id="a_node37"><a xlink:href="text__logging_8h.html" target="_top" xlink:title="This is the entry point for all text logging within Drake. ">
<polygon fill="#ffffff" stroke="#000000" points="1042.5,-341 1042.5,-360 1205.5,-360 1205.5,-341 1042.5,-341"/>
<text text-anchor="middle" x="1124" y="-348" font-family="Helvetica,sans-Serif" font-size="10.00" fill="#000000">drake/common/text_logging.h</text>
</a>
</g>
</g>
<!-- Node34&#45;&gt;Node36 -->
<g id="edge83" class="edge">
<title>Node34&#45;&gt;Node36</title>
<path fill="none" stroke="#191970" d="M1023.9501,-402.4639C1045.6922,-391.1715 1075.2716,-375.8086 1096.6227,-364.7192"/>
<polygon fill="#191970" stroke="#191970" points="1098.2477,-367.8192 1105.5089,-360.1039 1095.0212,-361.6071 1098.2477,-367.8192"/>
</g>
<!-- Node36&#45;&gt;Node21 -->
<g id="edge84" class="edge">
<title>Node36&#45;&gt;Node21</title>
<path fill="none" stroke="#191970" d="M1118.9606,-340.9717C1098.2241,-300.3398 1024.3351,-140.2939 1106,-67 1127.4398,-47.7579 1299.6939,-30.0411 1399.3683,-21.2693"/>
<polygon fill="#191970" stroke="#191970" points="1399.7135,-24.7526 1409.3719,-20.3975 1399.1057,-17.779 1399.7135,-24.7526"/>
</g>
<!-- Node37&#45;&gt;Node4 -->
<g id="edge89" class="edge">
<title>Node37&#45;&gt;Node4</title>
<path fill="none" stroke="#191970" d="M2011.0458,-335.3923C2006.4139,-299.5844 1994.7682,-209.5545 1989.5723,-169.386"/>
<polygon fill="#191970" stroke="#191970" points="1993.016,-168.7245 1988.262,-159.2562 1986.0738,-169.6226 1993.016,-168.7245"/>
</g>
<!-- Node37&#45;&gt;Node5 -->
<g id="edge90" class="edge">
<title>Node37&#45;&gt;Node5</title>
<path fill="none" stroke="#191970" d="M2020.4613,-335.3619C2038.4103,-296.5321 2078.8859,-192.356 2028,-134 1989.3757,-89.7056 1822.7649,-113.2175 1766,-98 1763.5311,-97.3381 1761.0079,-96.5574 1758.4942,-95.7041"/>
<polygon fill="#191970" stroke="#191970" points="1759.5728,-92.3708 1748.9802,-92.1512 1757.1239,-98.9285 1759.5728,-92.3708"/>
</g>
<!-- Node37&#45;&gt;Node7 -->
<g id="edge91" class="edge">
<title>Node37&#45;&gt;Node7</title>
<path fill="none" stroke="#191970" d="M2085.7993,-347.1136C2297.4993,-336.3045 2898,-298.4234 2898,-216.5 2898,-216.5 2898,-216.5 2898,-149.5 2898,-94.5787 2855.4077,-90.9839 2806,-67 2759.9397,-44.641 2610.1289,-26.2017 2543.4817,-18.8861"/>
<polygon fill="#191970" stroke="#191970" points="2543.8465,-15.4053 2533.5279,-17.8086 2543.0931,-22.3646 2543.8465,-15.4053"/>
</g>
<!-- Node37&#45;&gt;Node8 -->
<g id="edge92" class="edge">
<title>Node37&#45;&gt;Node8</title>
<path fill="none" stroke="#191970" d="M1940.1981,-348.8296C1708.3168,-343.3019 988.7079,-324.4947 757,-299 590.0142,-280.6266 544.2558,-285.4736 385,-232 322.6307,-211.0581 306.1974,-203.7108 253,-165 226.6189,-145.8029 200.8763,-117.9775 185.4736,-100.0605"/>
<polygon fill="#191970" stroke="#191970" points="187.912,-97.5232 178.7855,-92.142 182.5643,-102.0401 187.912,-97.5232"/>
</g>
<!-- Node37&#45;&gt;Node9 -->
<g id="edge96" class="edge">
<title>Node37&#45;&gt;Node9</title>
<path fill="none" stroke="#191970" d="M1940.4785,-336.209C1881.8804,-324.6617 1799.944,-308.5154 1742.2406,-297.1445"/>
<polygon fill="#191970" stroke="#191970" points="1742.6072,-293.6495 1732.1191,-295.15 1741.2537,-300.5174 1742.6072,-293.6495"/>
</g>
<!-- Node37&#45;&gt;Node15 -->
<g id="edge93" class="edge">
<title>Node37&#45;&gt;Node15</title>
<path fill="none" stroke="#191970" d="M2085.8794,-348.6693C2187.7041,-344.8829 2366.1269,-333.4066 2420,-299 2465.7183,-269.8016 2491.9277,-208.6191 2503.6036,-174.2638"/>
<polygon fill="#191970" stroke="#191970" points="2507.0053,-175.1204 2506.7661,-164.5282 2500.3478,-172.9577 2507.0053,-175.1204"/>
</g>
<!-- Node37&#45;&gt;Node16 -->
<g id="edge88" class="edge">
<title>Node37&#45;&gt;Node16</title>
<path fill="none" stroke="#191970" d="M2085.597,-349.2558C2250.2615,-344.8148 2644.5787,-324.5369 2732,-232 2765.3745,-196.6726 2761.9674,-134.1885 2757.5351,-102.3496"/>
<polygon fill="#191970" stroke="#191970" points="2760.936,-101.4464 2755.922,-92.1131 2754.0213,-102.5361 2760.936,-101.4464"/>
</g>
<!-- Node37&#45;&gt;Node21 -->
<g id="edge94" class="edge">
<title>Node37&#45;&gt;Node21</title>
<path fill="none" stroke="#191970" d="M1963.6322,-335.4128C1931.2299,-325.3849 1887.978,-311.7611 1850,-299 1811.0898,-285.9257 1801.9591,-280.9278 1763,-268 1711.3628,-250.8652 1696.2969,-252.7418 1646,-232 1618.6157,-220.7071 1613.6889,-213.8505 1587,-201 1551.1385,-183.7329 1531.5552,-194.6482 1505,-165 1474.0015,-130.391 1468.9891,-73.6077 1468.9472,-40.8878"/>
<polygon fill="#191970" stroke="#191970" points="1472.4483,-40.8304 1469.0931,-30.7809 1465.449,-40.7292 1472.4483,-40.8304"/>
</g>
<!-- Node37&#45;&gt;Node22 -->
<g id="edge121" class="edge">
<title>Node37&#45;&gt;Node22</title>
<path fill="none" stroke="#191970" d="M1940.447,-346.3594C1733.5158,-334.5499 1141.2666,-300.7503 921.9756,-288.2354"/>
<polygon fill="#191970" stroke="#191970" points="922.0013,-284.7313 911.8181,-287.6557 921.6024,-291.7199 922.0013,-284.7313"/>
</g>
<!-- Node37&#45;&gt;Node32 -->
<g id="edge122" class="edge">
<title>Node37&#45;&gt;Node32</title>
<path fill="none" stroke="#191970" d="M1984.7303,-335.442C1952.4519,-318.4248 1897.9129,-290.2057 1850,-268 1825.4515,-256.6228 1797.6903,-244.8221 1774.8583,-235.3919"/>
<polygon fill="#191970" stroke="#191970" points="1775.9785,-232.0682 1765.3987,-231.5036 1773.3172,-238.5426 1775.9785,-232.0682"/>
</g>
<!-- Node38 -->
<g id="node39" class="node">
<title>Node38</title>
<g id="a_node39"><a xlink:href="drake__deprecated_8h.html" target="_top" xlink:title="Provides a portable macro for use in generating compile&#45;time warnings for use of code that is permitt...">
<polygon fill="#ffffff" stroke="#000000" points="2054.5,-268.5 2054.5,-298.5 2175.5,-298.5 2175.5,-268.5 2054.5,-268.5"/>
<text text-anchor="start" x="2062.5" y="-286.5" font-family="Helvetica,sans-Serif" font-size="10.00" fill="#000000">drake/common/drake</text>
<text text-anchor="middle" x="2115" y="-275.5" font-family="Helvetica,sans-Serif" font-size="10.00" fill="#000000">_deprecated.h</text>
</a>
</g>
</g>
<!-- Node37&#45;&gt;Node38 -->
<g id="edge95" class="edge">
<title>Node37&#45;&gt;Node38</title>
<path fill="none" stroke="#191970" d="M2035.8908,-335.4639C2049.8352,-326.3044 2067.8567,-314.4667 2083.1762,-304.4038"/>
<polygon fill="#191970" stroke="#191970" points="2085.3961,-307.1333 2091.8327,-298.7177 2081.553,-301.2826 2085.3961,-307.1333"/>
</g>
<!-- Node39 -->
<g id="node40" class="node">
<title>Node39</title>
<g id="a_node40"><a xlink:href="basic__vector_8h.html" target="_top" xlink:title="drake/systems/framework\l/basic_vector.h">
<polygon fill="#ffffff" stroke="#000000" points="2266.5,-268.5 2266.5,-298.5 2411.5,-298.5 2411.5,-268.5 2266.5,-268.5"/>
<text text-anchor="start" x="2274.5" y="-286.5" font-family="Helvetica,sans-Serif" font-size="10.00" fill="#000000">drake/systems/framework</text>
<text text-anchor="middle" x="2339" y="-275.5" font-family="Helvetica,sans-Serif" font-size="10.00" fill="#000000">/basic_vector.h</text>
</a>
</g>
</g>
<!-- Node37&#45;&gt;Node39 -->
<g id="edge97" class="edge">
<title>Node37&#45;&gt;Node39</title>
<path fill="none" stroke="#191970" d="M2085.755,-335.5473C2136.3513,-325.1487 2203.8875,-311.2685 2256.4912,-300.4573"/>
<polygon fill="#191970" stroke="#191970" points="2257.3767,-303.8486 2266.4674,-298.407 2255.9675,-296.9919 2257.3767,-303.8486"/>
</g>
<!-- Node39&#45;&gt;Node3 -->
<g id="edge98" class="edge">
<title>Node39&#45;&gt;Node3</title>
<path fill="none" stroke="#191970" d="M2266.1582,-275.023C2240.2555,-272.3247 2210.8598,-269.622 2184,-268 1422.1092,-221.9898 1229.5053,-266.355 467,-232 400.2644,-228.9932 322.4984,-223.0662 278.3751,-219.476"/>
<polygon fill="#191970" stroke="#191970" points="278.4249,-215.9684 268.1721,-218.6386 277.8522,-222.945 278.4249,-215.9684"/>
</g>
<!-- Node39&#45;&gt;Node5 -->
<g id="edge102" class="edge">
<title>Node39&#45;&gt;Node5</title>
<path fill="none" stroke="#191970" d="M2266.3794,-277.7004C2200.0263,-270.8844 2108.4834,-257.165 2083,-232 2051.305,-200.701 2094.8836,-164.0477 2062,-134 2013.0836,-89.3021 1830.1338,-114.6606 1766,-98 1763.3752,-97.3181 1760.6909,-96.4964 1758.0228,-95.5914"/>
<polygon fill="#191970" stroke="#191970" points="1759.1586,-92.2795 1748.5663,-92.0508 1756.7041,-98.8351 1759.1586,-92.2795"/>
</g>
<!-- Node39&#45;&gt;Node7 -->
<g id="edge104" class="edge">
<title>Node39&#45;&gt;Node7</title>
<path fill="none" stroke="#191970" d="M2411.8397,-277.861C2518.4323,-269.0259 2707.0303,-250.9606 2732,-232 2783.5436,-192.8606 2776.0728,-161.4155 2789,-98 2791.752,-84.4999 2797.8105,-77.5926 2789,-67 2758.1518,-29.9122 2610.7872,-19.4163 2544.0153,-16.5417"/>
<polygon fill="#191970" stroke="#191970" points="2543.7783,-13.0296 2533.647,-16.1292 2543.4999,-20.024 2543.7783,-13.0296"/>
</g>
<!-- Node39&#45;&gt;Node14 -->
<g id="edge103" class="edge">
<title>Node39&#45;&gt;Node14</title>
<path fill="none" stroke="#191970" d="M2266.2906,-275.5183C2207.1418,-267.8467 2121.9825,-254.1023 2050,-232 1991.4615,-214.0257 1926.9657,-182.3339 1891.7002,-163.9016"/>
<polygon fill="#191970" stroke="#191970" points="1893.0354,-160.6488 1882.5578,-159.0768 1889.7682,-166.8396 1893.0354,-160.6488"/>
</g>
<!-- Node39&#45;&gt;Node17 -->
<g id="edge100" class="edge">
<title>Node39&#45;&gt;Node17</title>
<path fill="none" stroke="#191970" d="M2375.3347,-268.4689C2451.1793,-237.069 2619.5602,-167.222 2622,-165 2640.9614,-147.7316 2653.2773,-120.355 2659.9283,-101.9241"/>
<polygon fill="#191970" stroke="#191970" points="2663.3117,-102.8443 2663.1971,-92.2501 2656.6801,-100.6035 2663.3117,-102.8443"/>
</g>
<!-- Node39&#45;&gt;Node28 -->
<g id="edge101" class="edge">
<title>Node39&#45;&gt;Node28</title>
<path fill="none" stroke="#191970" d="M2411.6299,-277.5334C2508.2781,-268.8827 2669.2406,-251.7184 2688,-232 2703.68,-215.5184 2703.0451,-187.9322 2700.2657,-169.2411"/>
<polygon fill="#191970" stroke="#191970" points="2703.6678,-168.3866 2698.4368,-159.1733 2696.7806,-169.6378 2703.6678,-168.3866"/>
</g>
<!-- Node39&#45;&gt;Node29 -->
<g id="edge106" class="edge">
<title>Node39&#45;&gt;Node29</title>
<path fill="none" stroke="#191970" d="M2266.4989,-275.7525C2240.4968,-273.1056 2210.9503,-270.2486 2184,-268 1945.184,-248.0745 1884.7979,-252.1411 1646,-232 1353.0835,-207.2944 1279.8813,-199.8679 988,-165 974.3142,-163.3651 959.7168,-161.4734 945.7153,-159.5853"/>
<polygon fill="#191970" stroke="#191970" points="946.0276,-156.0957 935.6469,-158.2149 945.0835,-163.0317 946.0276,-156.0957"/>
</g>
<!-- Node40 -->
<g id="node41" class="node">
<title>Node40</title>
<polygon fill="#ffffff" stroke="#bfbfbf" points="2370.5,-207 2370.5,-226 2453.5,-226 2453.5,-207 2370.5,-207"/>
<text text-anchor="middle" x="2412" y="-214" font-family="Helvetica,sans-Serif" font-size="10.00" fill="#000000">initializer_list</text>
</g>
<!-- Node39&#45;&gt;Node40 -->
<g id="edge99" class="edge">
<title>Node39&#45;&gt;Node40</title>
<path fill="none" stroke="#191970" d="M2355.5648,-268.2967C2367.049,-257.7564 2382.3312,-243.7303 2394.0962,-232.9323"/>
<polygon fill="#191970" stroke="#191970" points="2396.5886,-235.3954 2401.5894,-226.055 2391.8553,-230.2382 2396.5886,-235.3954"/>
</g>
<!-- Node41 -->
<g id="node42" class="node">
<title>Node41</title>
<polygon fill="#ffffff" stroke="#bfbfbf" points="2366.5,-73 2366.5,-92 2443.5,-92 2443.5,-73 2366.5,-73"/>
<text text-anchor="middle" x="2405" y="-80" font-family="Helvetica,sans-Serif" font-size="10.00" fill="#000000">Eigen/Dense</text>
</g>
<!-- Node39&#45;&gt;Node41 -->
<g id="edge105" class="edge">
<title>Node39&#45;&gt;Node41</title>
<path fill="none" stroke="#191970" d="M2411.683,-277.6856C2513.0879,-268.9302 2687.1226,-251.3168 2709,-232 2732.1133,-211.5919 2722.9653,-195.5686 2727,-165 2728.8029,-151.3407 2735.94,-144.4835 2727,-134 2709.4825,-113.4581 2539.3027,-94.9362 2453.6838,-86.8285"/>
<polygon fill="#191970" stroke="#191970" points="2453.9603,-83.3392 2443.6777,-85.8919 2453.3079,-90.3087 2453.9603,-83.3392"/>
</g>
<!-- Node42 -->
<g id="node43" class="node">
<title>Node42</title>
<g id="a_node43"><a xlink:href="dummy__value_8h.html" target="_top" xlink:title="drake/common/dummy\l_value.h">
<polygon fill="#ffffff" stroke="#000000" points="2548.5,-201.5 2548.5,-231.5 2679.5,-231.5 2679.5,-201.5 2548.5,-201.5"/>
<text text-anchor="start" x="2556.5" y="-219.5" font-family="Helvetica,sans-Serif" font-size="10.00" fill="#000000">drake/common/dummy</text>
<text text-anchor="middle" x="2614" y="-208.5" font-family="Helvetica,sans-Serif" font-size="10.00" fill="#000000">_value.h</text>
</a>
</g>
</g>
<!-- Node39&#45;&gt;Node42 -->
<g id="edge107" class="edge">
<title>Node39&#45;&gt;Node42</title>
<path fill="none" stroke="#191970" d="M2400.7154,-268.4639C2442.674,-258.2412 2498.3246,-244.6827 2542.2592,-233.9787"/>
<polygon fill="#191970" stroke="#191970" points="2543.1282,-237.3694 2552.0155,-231.6017 2541.4711,-230.5684 2543.1282,-237.3694"/>
</g>
<!-- Node43 -->
<g id="node44" class="node">
<title>Node43</title>
<g id="a_node44"><a xlink:href="vector__base_8h.html" target="_top" xlink:title="drake/systems/framework\l/vector_base.h">
<polygon fill="#ffffff" stroke="#000000" points="2092.5,-201.5 2092.5,-231.5 2237.5,-231.5 2237.5,-201.5 2092.5,-201.5"/>
<text text-anchor="start" x="2100.5" y="-219.5" font-family="Helvetica,sans-Serif" font-size="10.00" fill="#000000">drake/systems/framework</text>
<text text-anchor="middle" x="2165" y="-208.5" font-family="Helvetica,sans-Serif" font-size="10.00" fill="#000000">/vector_base.h</text>
</a>
</g>
</g>
<!-- Node39&#45;&gt;Node43 -->
<g id="edge109" class="edge">
<title>Node39&#45;&gt;Node43</title>
<path fill="none" stroke="#191970" d="M2299.951,-268.4639C2274.4066,-258.6278 2240.8416,-245.7034 2213.5769,-235.2049"/>
<polygon fill="#191970" stroke="#191970" points="2214.8091,-231.9289 2204.2193,-231.6017 2212.2937,-238.4614 2214.8091,-231.9289"/>
</g>
<!-- Node42&#45;&gt;Node28 -->
<g id="edge108" class="edge">
<title>Node42&#45;&gt;Node28</title>
<path fill="none" stroke="#191970" d="M2632.6071,-201.2967C2645.6311,-190.6551 2663.0039,-176.4602 2676.269,-165.6217"/>
<polygon fill="#191970" stroke="#191970" points="2678.7766,-168.0926 2684.3059,-159.055 2674.3475,-162.6719 2678.7766,-168.0926"/>
</g>
<!-- Node43&#45;&gt;Node2 -->
<g id="edge110" class="edge">
<title>Node43&#45;&gt;Node2</title>
<path fill="none" stroke="#191970" d="M2092.1695,-211.8385C1973.575,-203.9744 1731.423,-186.777 1527,-165 1502.1994,-162.358 1474.5317,-158.7242 1452.3304,-155.639"/>
<polygon fill="#191970" stroke="#191970" points="1452.6161,-152.1449 1442.2266,-154.2206 1451.6429,-159.0769 1452.6161,-152.1449"/>
</g>
<!-- Node43&#45;&gt;Node5 -->
<g id="edge111" class="edge">
<title>Node43&#45;&gt;Node5</title>
<path fill="none" stroke="#191970" d="M2157.8101,-201.2575C2147.8126,-181.9543 2127.7607,-149.3621 2100,-134 1969.3638,-61.7093 1910.7608,-134.5523 1766,-98 1763.3706,-97.3361 1760.683,-96.5269 1758.0128,-95.6304"/>
<polygon fill="#191970" stroke="#191970" points="1759.1452,-92.3174 1748.5525,-92.1044 1756.7005,-98.8766 1759.1452,-92.3174"/>
</g>
<!-- Node43&#45;&gt;Node7 -->
<g id="edge112" class="edge">
<title>Node43&#45;&gt;Node7</title>
<path fill="none" stroke="#191970" d="M2227.2778,-201.442C2263.7793,-191.5365 2305.3326,-178.0373 2319,-165 2352.8027,-132.7557 2323.1973,-99.2443 2357,-67 2390.3684,-35.1699 2443.9705,-22.9902 2478.3244,-18.3445"/>
<polygon fill="#191970" stroke="#191970" points="2478.8187,-21.8103 2488.3243,-17.1313 2477.9755,-14.8613 2478.8187,-21.8103"/>
</g>
<!-- Node43&#45;&gt;Node21 -->
<g id="edge114" class="edge">
<title>Node43&#45;&gt;Node21</title>
<path fill="none" stroke="#191970" d="M2163.1861,-201.3977C2160.0788,-182.5555 2151.899,-150.7778 2131,-134 2058.5228,-75.8151 2014.7405,-122.188 1925,-98 1886.5767,-87.6437 1879.599,-76.6809 1841,-67 1738.2901,-41.2397 1616.1334,-27.4136 1540.8283,-20.7622"/>
<polygon fill="#191970" stroke="#191970" points="1540.7847,-17.2455 1530.5203,-19.8708 1540.1815,-24.2194 1540.7847,-17.2455"/>
</g>
<!-- Node43&#45;&gt;Node29 -->
<g id="edge115" class="edge">
<title>Node43&#45;&gt;Node29</title>
<path fill="none" stroke="#191970" d="M2092.4196,-213.2045C1884.8891,-203.7491 1291.4594,-176.4757 1097,-165 1046.4762,-162.0184 989.5292,-158.0296 945.9623,-154.8451"/>
<polygon fill="#191970" stroke="#191970" points="945.9818,-151.3372 935.7524,-154.0956 945.4693,-158.3184 945.9818,-151.3372"/>
</g>
<!-- Node43&#45;&gt;Node41 -->
<g id="edge113" class="edge">
<title>Node43&#45;&gt;Node41</title>
<path fill="none" stroke="#191970" d="M2237.5873,-202.1053C2281.9315,-192.2556 2333.5551,-178.569 2352,-165 2374.0993,-148.7427 2389.3783,-120.2599 2397.6662,-101.3865"/>
<polygon fill="#191970" stroke="#191970" points="2400.9493,-102.6063 2401.5503,-92.0285 2394.4841,-99.9229 2400.9493,-102.6063"/>
</g>
<!-- Node44 -->
<g id="node45" class="node">
<title>Node44</title>
<g id="a_node45"><a xlink:href="eigen__types_8h.html" target="_top" xlink:title="This file contains abbreviated definitions for certain specializations of Eigen::Matrix that are comm...">
<polygon fill="#ffffff" stroke="#000000" points="2190,-134.5 2190,-164.5 2310,-164.5 2310,-134.5 2190,-134.5"/>
<text text-anchor="start" x="2198" y="-152.5" font-family="Helvetica,sans-Serif" font-size="10.00" fill="#000000">drake/common/eigen</text>
<text text-anchor="middle" x="2250" y="-141.5" font-family="Helvetica,sans-Serif" font-size="10.00" fill="#000000">_types.h</text>
</a>
</g>
</g>
<!-- Node43&#45;&gt;Node44 -->
<g id="edge116" class="edge">
<title>Node43&#45;&gt;Node44</title>
<path fill="none" stroke="#191970" d="M2184.2878,-201.2967C2195.699,-192.302 2210.3307,-180.7687 2222.8896,-170.8694"/>
<polygon fill="#191970" stroke="#191970" points="2225.1016,-173.5824 2230.7885,-164.6432 2220.7683,-168.0849 2225.1016,-173.5824"/>
</g>
<!-- Node44&#45;&gt;Node5 -->
<g id="edge117" class="edge">
<title>Node44&#45;&gt;Node5</title>
<path fill="none" stroke="#191970" d="M2189.8984,-140.7197C2173.1182,-138.3943 2154.8637,-135.982 2138,-134 1973.0298,-114.6105 1927.2701,-137.7876 1766,-98 1763.367,-97.3504 1760.677,-96.5513 1758.005,-95.6616"/>
<polygon fill="#191970" stroke="#191970" points="1759.1348,-92.3477 1748.5418,-92.1473 1756.6978,-98.9098 1759.1348,-92.3477"/>
</g>
<!-- Node44&#45;&gt;Node21 -->
<g id="edge120" class="edge">
<title>Node44&#45;&gt;Node21</title>
<path fill="none" stroke="#191970" d="M2199.8032,-134.4924C2136.349,-116.0476 2023.4972,-84.9898 1925,-67 1790.21,-42.3816 1630.6716,-27.5683 1540.8091,-20.5165"/>
<polygon fill="#191970" stroke="#191970" points="1540.9758,-17.019 1530.7352,-19.7356 1540.4348,-23.998 1540.9758,-17.019"/>
</g>
<!-- Node44&#45;&gt;Node41 -->
<g id="edge118" class="edge">
<title>Node44&#45;&gt;Node41</title>
<path fill="none" stroke="#191970" d="M2284.785,-134.4639C2311.3778,-122.969 2347.7284,-107.2561 2373.4757,-96.1266"/>
<polygon fill="#191970" stroke="#191970" points="2374.9916,-99.2844 2382.782,-92.1039 2372.2141,-92.859 2374.9916,-99.2844"/>
</g>
<!-- Node45 -->
<g id="node46" class="node">
<title>Node45</title>
<g id="a_node46"><a xlink:href="constants_8h.html" target="_top" xlink:title="drake/common/constants.h">
<polygon fill="#ffffff" stroke="#000000" points="2161.5,-73 2161.5,-92 2310.5,-92 2310.5,-73 2161.5,-73"/>
<text text-anchor="middle" x="2236" y="-80" font-family="Helvetica,sans-Serif" font-size="10.00" fill="#000000">drake/common/constants.h</text>
</a>
</g>
</g>
<!-- Node44&#45;&gt;Node45 -->
<g id="edge119" class="edge">
<title>Node44&#45;&gt;Node45</title>
<path fill="none" stroke="#191970" d="M2246.8232,-134.2967C2244.8325,-124.7699 2242.2468,-112.3954 2240.1019,-102.1306"/>
<polygon fill="#191970" stroke="#191970" points="2243.468,-101.1277 2237.9966,-92.055 2236.616,-102.5595 2243.468,-101.1277"/>
</g>
</g>
</svg>
