<?xml version="1.0" encoding="UTF-8" standalone="no"?>
<!DOCTYPE svg PUBLIC "-//W3C//DTD SVG 1.1//EN"
 "http://www.w3.org/Graphics/SVG/1.1/DTD/svg11.dtd">
<!-- Generated by graphviz version 2.40.1 (20161225.0304)
 -->
<!-- Title: drake/attic/multibody/rigid_body_plant/contact_resultant_force_calculator.h Pages: 1 -->
<svg width="618pt" height="117pt"
 viewBox="0.00 0.00 618.00 117.00" xmlns="http://www.w3.org/2000/svg" xmlns:xlink="http://www.w3.org/1999/xlink">
<g id="graph0" class="graph" transform="scale(1 1) rotate(0) translate(4 113)">
<title>drake/attic/multibody/rigid_body_plant/contact_resultant_force_calculator.h</title>
<polygon fill="#ffffff" stroke="transparent" points="-4,4 -4,-113 614,-113 614,4 -4,4"/>
<!-- Node0 -->
<g id="node1" class="node">
<title>Node0</title>
<polygon fill="#bfbfbf" stroke="#000000" points="123,-67.5 123,-108.5 281,-108.5 281,-67.5 123,-67.5"/>
<text text-anchor="start" x="131" y="-96.5" font-family="Helvetica,sans-Serif" font-size="10.00" fill="#000000">drake/attic/multibody</text>
<text text-anchor="start" x="131" y="-85.5" font-family="Helvetica,sans-Serif" font-size="10.00" fill="#000000">/rigid_body_plant/contact</text>
<text text-anchor="middle" x="202" y="-74.5" font-family="Helvetica,sans-Serif" font-size="10.00" fill="#000000">_resultant_force_calculator.h</text>
</g>
<!-- Node1 -->
<g id="node2" class="node">
<title>Node1</title>
<polygon fill="#ffffff" stroke="#bfbfbf" points="0,-6 0,-25 58,-25 58,-6 0,-6"/>
<text text-anchor="middle" x="29" y="-13" font-family="Helvetica,sans-Serif" font-size="10.00" fill="#000000">memory</text>
</g>
<!-- Node0&#45;&gt;Node1 -->
<g id="edge1" class="edge">
<title>Node0&#45;&gt;Node1</title>
<path fill="none" stroke="#191970" d="M152.8879,-67.4183C123.4797,-55.0941 86.932,-39.7779 61.1775,-28.9848"/>
<polygon fill="#191970" stroke="#191970" points="62.4483,-25.7225 51.8726,-25.0853 59.7427,-32.1785 62.4483,-25.7225"/>
</g>
<!-- Node2 -->
<g id="node3" class="node">
<title>Node2</title>
<polygon fill="#ffffff" stroke="#bfbfbf" points="76.5,-6 76.5,-25 123.5,-25 123.5,-6 76.5,-6"/>
<text text-anchor="middle" x="100" y="-13" font-family="Helvetica,sans-Serif" font-size="10.00" fill="#000000">vector</text>
</g>
<!-- Node0&#45;&gt;Node2 -->
<g id="edge2" class="edge">
<title>Node0&#45;&gt;Node2</title>
<path fill="none" stroke="#191970" d="M173.0437,-67.4183C156.6978,-55.7999 136.6107,-41.5223 121.6411,-30.8822"/>
<polygon fill="#191970" stroke="#191970" points="123.6642,-28.0261 113.4856,-25.0853 119.6087,-33.7317 123.6642,-28.0261"/>
</g>
<!-- Node3 -->
<g id="node4" class="node">
<title>Node3</title>
<g id="a_node4"><a xlink:href="drake__copyable_8h.html" target="_top" xlink:title="Provides careful macros to selectively enable or disable the special member functions for copy&#45;constr...">
<polygon fill="#ffffff" stroke="#000000" points="141.5,-.5 141.5,-30.5 262.5,-30.5 262.5,-.5 141.5,-.5"/>
<text text-anchor="start" x="149.5" y="-18.5" font-family="Helvetica,sans-Serif" font-size="10.00" fill="#000000">drake/common/drake</text>
<text text-anchor="middle" x="202" y="-7.5" font-family="Helvetica,sans-Serif" font-size="10.00" fill="#000000">_copyable.h</text>
</a>
</g>
</g>
<!-- Node0&#45;&gt;Node3 -->
<g id="edge3" class="edge">
<title>Node0&#45;&gt;Node3</title>
<path fill="none" stroke="#191970" d="M202,-67.4183C202,-59.0849 202,-49.3834 202,-40.6373"/>
<polygon fill="#191970" stroke="#191970" points="205.5001,-40.5991 202,-30.5991 198.5001,-40.5991 205.5001,-40.5991"/>
</g>
<!-- Node4 -->
<g id="node5" class="node">
<title>Node4</title>
<polygon fill="#ffffff" stroke="#bfbfbf" points="280.5,-.5 280.5,-30.5 437.5,-30.5 437.5,-.5 280.5,-.5"/>
<text text-anchor="start" x="288.5" y="-18.5" font-family="Helvetica,sans-Serif" font-size="10.00" fill="#000000">drake/multibody/rigid</text>
<text text-anchor="middle" x="359" y="-7.5" font-family="Helvetica,sans-Serif" font-size="10.00" fill="#000000">_body_plant/contact_detail.h</text>
</g>
<!-- Node0&#45;&gt;Node4 -->
<g id="edge4" class="edge">
<title>Node0&#45;&gt;Node4</title>
<path fill="none" stroke="#191970" d="M246.5699,-67.4183C268.6816,-57.2075 295.2408,-44.943 316.9921,-34.8986"/>
<polygon fill="#191970" stroke="#191970" points="318.6912,-37.9691 326.3026,-30.5991 315.7565,-31.614 318.6912,-37.9691"/>
</g>
<!-- Node5 -->
<g id="node6" class="node">
<title>Node5</title>
<polygon fill="#ffffff" stroke="#bfbfbf" points="456,-.5 456,-30.5 610,-30.5 610,-.5 456,-.5"/>
<text text-anchor="start" x="464" y="-18.5" font-family="Helvetica,sans-Serif" font-size="10.00" fill="#000000">drake/multibody/rigid</text>
<text text-anchor="middle" x="533" y="-7.5" font-family="Helvetica,sans-Serif" font-size="10.00" fill="#000000">_body_plant/contact_force.h</text>
</g>
<!-- Node0&#45;&gt;Node5 -->
<g id="edge5" class="edge">
<title>Node0&#45;&gt;Node5</title>
<path fill="none" stroke="#191970" d="M281.2827,-70.6344C333.7483,-59.1427 402.2522,-44.1381 454.5474,-32.6837"/>
<polygon fill="#191970" stroke="#191970" points="455.4284,-36.0738 464.448,-30.5152 453.9307,-29.2359 455.4284,-36.0738"/>
</g>
</g>
</svg>
