<?xml version="1.0" encoding="UTF-8" standalone="no"?>
<!DOCTYPE svg PUBLIC "-//W3C//DTD SVG 1.1//EN"
 "http://www.w3.org/Graphics/SVG/1.1/DTD/svg11.dtd">
<!-- Generated by graphviz version 2.40.1 (20161225.0304)
 -->
<!-- Title: drake/attic/multibody/rigid_body_plant/contact_force.h Pages: 1 -->
<svg width="468pt" height="184pt"
 viewBox="0.00 0.00 468.00 184.00" xmlns="http://www.w3.org/2000/svg" xmlns:xlink="http://www.w3.org/1999/xlink">
<g id="graph0" class="graph" transform="scale(1 1) rotate(0) translate(4 180)">
<title>drake/attic/multibody/rigid_body_plant/contact_force.h</title>
<polygon fill="#ffffff" stroke="transparent" points="-4,4 -4,-180 464,-180 464,4 -4,4"/>
<!-- Node0 -->
<g id="node1" class="node">
<title>Node0</title>
<polygon fill="#bfbfbf" stroke="#000000" points="44.5,-134.5 44.5,-175.5 184.5,-175.5 184.5,-134.5 44.5,-134.5"/>
<text text-anchor="start" x="52.5" y="-163.5" font-family="Helvetica,sans-Serif" font-size="10.00" fill="#000000">drake/attic/multibody</text>
<text text-anchor="start" x="52.5" y="-152.5" font-family="Helvetica,sans-Serif" font-size="10.00" fill="#000000">/rigid_body_plant/contact</text>
<text text-anchor="middle" x="114.5" y="-141.5" font-family="Helvetica,sans-Serif" font-size="10.00" fill="#000000">_force.h</text>
</g>
<!-- Node1 -->
<g id="node2" class="node">
<title>Node1</title>
<g id="a_node2"><a xlink:href="drake__copyable_8h.html" target="_top" xlink:title="Provides careful macros to selectively enable or disable the special member functions for copy&#45;constr...">
<polygon fill="#ffffff" stroke="#000000" points="0,-.5 0,-30.5 121,-30.5 121,-.5 0,-.5"/>
<text text-anchor="start" x="8" y="-18.5" font-family="Helvetica,sans-Serif" font-size="10.00" fill="#000000">drake/common/drake</text>
<text text-anchor="middle" x="60.5" y="-7.5" font-family="Helvetica,sans-Serif" font-size="10.00" fill="#000000">_copyable.h</text>
</a>
</g>
</g>
<!-- Node0&#45;&gt;Node1 -->
<g id="edge1" class="edge">
<title>Node0&#45;&gt;Node1</title>
<path fill="none" stroke="#191970" d="M106.5321,-134.4163C96.8027,-109.282 80.3648,-66.8173 69.9907,-40.0177"/>
<polygon fill="#191970" stroke="#191970" points="73.2123,-38.6444 66.3383,-30.5822 66.6843,-41.1714 73.2123,-38.6444"/>
</g>
<!-- Node2 -->
<g id="node3" class="node">
<title>Node2</title>
<g id="a_node3"><a xlink:href="eigen__types_8h.html" target="_top" xlink:title="This file contains abbreviated definitions for certain specializations of Eigen::Matrix that are comm...">
<polygon fill="#ffffff" stroke="#000000" points="108.5,-67.5 108.5,-97.5 228.5,-97.5 228.5,-67.5 108.5,-67.5"/>
<text text-anchor="start" x="116.5" y="-85.5" font-family="Helvetica,sans-Serif" font-size="10.00" fill="#000000">drake/common/eigen</text>
<text text-anchor="middle" x="168.5" y="-74.5" font-family="Helvetica,sans-Serif" font-size="10.00" fill="#000000">_types.h</text>
</a>
</g>
</g>
<!-- Node0&#45;&gt;Node2 -->
<g id="edge2" class="edge">
<title>Node0&#45;&gt;Node2</title>
<path fill="none" stroke="#191970" d="M129.8298,-134.4183C136.5143,-125.4438 144.3804,-114.8827 151.2669,-105.637"/>
<polygon fill="#191970" stroke="#191970" points="154.0873,-107.7097 157.2538,-97.5991 148.4733,-103.5283 154.0873,-107.7097"/>
</g>
<!-- Node2&#45;&gt;Node1 -->
<g id="edge6" class="edge">
<title>Node2&#45;&gt;Node1</title>
<path fill="none" stroke="#191970" d="M144.2627,-67.4639C129.3601,-58.2188 110.0594,-46.2452 93.7417,-36.1222"/>
<polygon fill="#191970" stroke="#191970" points="95.3728,-33.0153 85.0301,-30.7177 91.6826,-38.9636 95.3728,-33.0153"/>
</g>
<!-- Node3 -->
<g id="node4" class="node">
<title>Node3</title>
<polygon fill="#ffffff" stroke="#bfbfbf" points="139.5,-6 139.5,-25 197.5,-25 197.5,-6 139.5,-6"/>
<text text-anchor="middle" x="168.5" y="-13" font-family="Helvetica,sans-Serif" font-size="10.00" fill="#000000">memory</text>
</g>
<!-- Node2&#45;&gt;Node3 -->
<g id="edge3" class="edge">
<title>Node2&#45;&gt;Node3</title>
<path fill="none" stroke="#191970" d="M168.5,-67.2967C168.5,-57.7699 168.5,-45.3954 168.5,-35.1306"/>
<polygon fill="#191970" stroke="#191970" points="172.0001,-35.0549 168.5,-25.055 165.0001,-35.055 172.0001,-35.0549"/>
</g>
<!-- Node4 -->
<g id="node5" class="node">
<title>Node4</title>
<polygon fill="#ffffff" stroke="#bfbfbf" points="216,-6 216,-25 293,-25 293,-6 216,-6"/>
<text text-anchor="middle" x="254.5" y="-13" font-family="Helvetica,sans-Serif" font-size="10.00" fill="#000000">Eigen/Dense</text>
</g>
<!-- Node2&#45;&gt;Node4 -->
<g id="edge4" class="edge">
<title>Node2&#45;&gt;Node4</title>
<path fill="none" stroke="#191970" d="M188.0147,-67.2967C201.8042,-56.5537 220.2418,-42.1895 234.2028,-31.3129"/>
<polygon fill="#191970" stroke="#191970" points="236.4978,-33.9618 242.2354,-25.055 232.1958,-28.4398 236.4978,-33.9618"/>
</g>
<!-- Node5 -->
<g id="node6" class="node">
<title>Node5</title>
<g id="a_node6"><a xlink:href="constants_8h.html" target="_top" xlink:title="drake/common/constants.h">
<polygon fill="#ffffff" stroke="#000000" points="311,-6 311,-25 460,-25 460,-6 311,-6"/>
<text text-anchor="middle" x="385.5" y="-13" font-family="Helvetica,sans-Serif" font-size="10.00" fill="#000000">drake/common/constants.h</text>
</a>
</g>
</g>
<!-- Node2&#45;&gt;Node5 -->
<g id="edge5" class="edge">
<title>Node2&#45;&gt;Node5</title>
<path fill="none" stroke="#191970" d="M217.199,-67.4639C255.6912,-55.5792 308.7864,-39.1858 344.9801,-28.0108"/>
<polygon fill="#191970" stroke="#191970" points="346.1919,-31.2997 354.7142,-25.0053 344.1267,-24.6113 346.1919,-31.2997"/>
</g>
</g>
</svg>
