<?xml version="1.0" encoding="UTF-8" standalone="no"?>
<!DOCTYPE svg PUBLIC "-//W3C//DTD SVG 1.1//EN"
 "http://www.w3.org/Graphics/SVG/1.1/DTD/svg11.dtd">
<!-- Generated by graphviz version 2.40.1 (20161225.0304)
 -->
<!-- Title: drake/systems/analysis/test_utilities/controlled_spring_mass_system.h Pages: 1 -->
<svg width="476pt" height="128pt"
 viewBox="0.00 0.00 476.00 128.00" xmlns="http://www.w3.org/2000/svg" xmlns:xlink="http://www.w3.org/1999/xlink">
<g id="graph0" class="graph" transform="scale(1 1) rotate(0) translate(4 124)">
<title>drake/systems/analysis/test_utilities/controlled_spring_mass_system.h</title>
<polygon fill="#ffffff" stroke="transparent" points="-4,4 -4,-124 472,-124 472,4 -4,4"/>
<!-- Node124 -->
<g id="node1" class="node">
<title>Node124</title>
<polygon fill="#bfbfbf" stroke="#000000" points="152,-78.5 152,-119.5 286,-119.5 286,-78.5 152,-78.5"/>
<text text-anchor="start" x="160" y="-107.5" font-family="Helvetica,sans-Serif" font-size="10.00" fill="#000000">drake/systems/analysis</text>
<text text-anchor="start" x="160" y="-96.5" font-family="Helvetica,sans-Serif" font-size="10.00" fill="#000000">/test_utilities/controlled</text>
<text text-anchor="middle" x="219" y="-85.5" font-family="Helvetica,sans-Serif" font-size="10.00" fill="#000000">_spring_mass_system.h</text>
</g>
<!-- Node125 -->
<g id="node2" class="node">
<title>Node125</title>
<g id="a_node2"><a xlink:href="simulator__test_8cc.html" target="_top" xlink:title="drake/systems/analysis\l/test/simulator_test.cc">
<polygon fill="#ffffff" stroke="#000000" points="0,-6 0,-36 132,-36 132,-6 0,-6"/>
<text text-anchor="start" x="8" y="-24" font-family="Helvetica,sans-Serif" font-size="10.00" fill="#000000">drake/systems/analysis</text>
<text text-anchor="middle" x="66" y="-13" font-family="Helvetica,sans-Serif" font-size="10.00" fill="#000000">/test/simulator_test.cc</text>
</a>
</g>
</g>
<!-- Node124&#45;&gt;Node125 -->
<g id="edge1" class="edge">
<title>Node124&#45;&gt;Node125</title>
<path fill="none" stroke="#191970" d="M169.3036,-73.6646C144.9752,-61.2619 116.5069,-46.7486 95.6232,-36.102"/>
<polygon fill="#191970" stroke="#191970" points="167.9018,-76.8785 178.4005,-78.3022 171.0811,-70.6421 167.9018,-76.8785"/>
</g>
<!-- Node126 -->
<g id="node3" class="node">
<title>Node126</title>
<g id="a_node3"><a xlink:href="controlled__spring__mass__system_8cc.html" target="_top" xlink:title="drake/systems/analysis\l/test_utilities/controlled\l_spring_mass_system.cc">
<polygon fill="#ffffff" stroke="#000000" points="150,-.5 150,-41.5 288,-41.5 288,-.5 150,-.5"/>
<text text-anchor="start" x="158" y="-29.5" font-family="Helvetica,sans-Serif" font-size="10.00" fill="#000000">drake/systems/analysis</text>
<text text-anchor="start" x="158" y="-18.5" font-family="Helvetica,sans-Serif" font-size="10.00" fill="#000000">/test_utilities/controlled</text>
<text text-anchor="middle" x="219" y="-7.5" font-family="Helvetica,sans-Serif" font-size="10.00" fill="#000000">_spring_mass_system.cc</text>
</a>
</g>
</g>
<!-- Node124&#45;&gt;Node126 -->
<g id="edge2" class="edge">
<title>Node124&#45;&gt;Node126</title>
<path fill="none" stroke="#191970" d="M219,-68.0789C219,-59.2178 219,-49.7747 219,-41.6898"/>
<polygon fill="#191970" stroke="#191970" points="215.5001,-68.0974 219,-78.0974 222.5001,-68.0975 215.5001,-68.0974"/>
</g>
<!-- Node127 -->
<g id="node4" class="node">
<title>Node127</title>
<g id="a_node4"><a xlink:href="controlled__spring__mass__system__test_8cc.html" target="_top" xlink:title="drake/systems/analysis\l/test_utilities/test/controlled\l_spring_mass_system_test.cc">
<polygon fill="#ffffff" stroke="#000000" points="306,-.5 306,-41.5 468,-41.5 468,-.5 306,-.5"/>
<text text-anchor="start" x="314" y="-29.5" font-family="Helvetica,sans-Serif" font-size="10.00" fill="#000000">drake/systems/analysis</text>
<text text-anchor="start" x="314" y="-18.5" font-family="Helvetica,sans-Serif" font-size="10.00" fill="#000000">/test_utilities/test/controlled</text>
<text text-anchor="middle" x="387" y="-7.5" font-family="Helvetica,sans-Serif" font-size="10.00" fill="#000000">_spring_mass_system_test.cc</text>
</a>
</g>
</g>
<!-- Node124&#45;&gt;Node127 -->
<g id="edge3" class="edge">
<title>Node124&#45;&gt;Node127</title>
<path fill="none" stroke="#191970" d="M272.7128,-74.0619C295.3244,-63.5637 321.3167,-51.4958 342.7948,-41.5239"/>
<polygon fill="#191970" stroke="#191970" points="271.176,-70.9165 263.5798,-78.3022 274.1239,-77.2656 271.176,-70.9165"/>
</g>
</g>
</svg>
