<?xml version="1.0" encoding="UTF-8" standalone="no"?>
<!DOCTYPE svg PUBLIC "-//W3C//DTD SVG 1.1//EN"
 "http://www.w3.org/Graphics/SVG/1.1/DTD/svg11.dtd">
<!-- Generated by graphviz version 2.40.1 (20161225.0304)
 -->
<!-- Title: drake/attic/systems/robotInterfaces/convex_hull.h Pages: 1 -->
<svg width="153pt" height="106pt"
 viewBox="0.00 0.00 152.50 106.00" xmlns="http://www.w3.org/2000/svg" xmlns:xlink="http://www.w3.org/1999/xlink">
<g id="graph0" class="graph" transform="scale(1 1) rotate(0) translate(4 102)">
<title>drake/attic/systems/robotInterfaces/convex_hull.h</title>
<polygon fill="#ffffff" stroke="transparent" points="-4,4 -4,-102 148.5,-102 148.5,4 -4,4"/>
<!-- Node0 -->
<g id="node1" class="node">
<title>Node0</title>
<polygon fill="#bfbfbf" stroke="#000000" points="0,-56.5 0,-97.5 132,-97.5 132,-56.5 0,-56.5"/>
<text text-anchor="start" x="8" y="-85.5" font-family="Helvetica,sans-Serif" font-size="10.00" fill="#000000">drake/attic/systems</text>
<text text-anchor="start" x="8" y="-74.5" font-family="Helvetica,sans-Serif" font-size="10.00" fill="#000000">/robotInterfaces/convex</text>
<text text-anchor="middle" x="66" y="-63.5" font-family="Helvetica,sans-Serif" font-size="10.00" fill="#000000">_hull.h</text>
</g>
<!-- Node1 -->
<g id="node2" class="node">
<title>Node1</title>
<polygon fill="#ffffff" stroke="#bfbfbf" points="2.5,-.5 2.5,-19.5 49.5,-19.5 49.5,-.5 2.5,-.5"/>
<text text-anchor="middle" x="26" y="-7.5" font-family="Helvetica,sans-Serif" font-size="10.00" fill="#000000">vector</text>
</g>
<!-- Node0&#45;&gt;Node1 -->
<g id="edge1" class="edge">
<title>Node0&#45;&gt;Node1</title>
<path fill="none" stroke="#191970" d="M53.563,-56.168C48.2976,-47.3484 42.2119,-37.155 37.1005,-28.5933"/>
<polygon fill="#191970" stroke="#191970" points="39.9704,-26.5725 31.8391,-19.7805 33.9601,-30.1609 39.9704,-26.5725"/>
</g>
<!-- Node2 -->
<g id="node3" class="node">
<title>Node2</title>
<polygon fill="#ffffff" stroke="#bfbfbf" points="67.5,-.5 67.5,-19.5 144.5,-19.5 144.5,-.5 67.5,-.5"/>
<text text-anchor="middle" x="106" y="-7.5" font-family="Helvetica,sans-Serif" font-size="10.00" fill="#000000">Eigen/Dense</text>
</g>
<!-- Node0&#45;&gt;Node2 -->
<g id="edge2" class="edge">
<title>Node0&#45;&gt;Node2</title>
<path fill="none" stroke="#191970" d="M78.437,-56.168C83.7024,-47.3484 89.7881,-37.155 94.8995,-28.5933"/>
<polygon fill="#191970" stroke="#191970" points="98.0399,-30.1609 100.1609,-19.7805 92.0296,-26.5725 98.0399,-30.1609"/>
</g>
</g>
</svg>
