<?xml version="1.0" encoding="UTF-8" standalone="no"?>
<!DOCTYPE svg PUBLIC "-//W3C//DTD SVG 1.1//EN"
 "http://www.w3.org/Graphics/SVG/1.1/DTD/svg11.dtd">
<!-- Generated by graphviz version 2.40.1 (20161225.0304)
 -->
<!-- Title: drake/attic/multibody/test/debug_manipulator_dynamics.cc Pages: 1 -->
<svg width="752pt" height="184pt"
 viewBox="0.00 0.00 751.50 184.00" xmlns="http://www.w3.org/2000/svg" xmlns:xlink="http://www.w3.org/1999/xlink">
<g id="graph0" class="graph" transform="scale(1 1) rotate(0) translate(4 180)">
<title>drake/attic/multibody/test/debug_manipulator_dynamics.cc</title>
<polygon fill="#ffffff" stroke="transparent" points="-4,4 -4,-180 747.5,-180 747.5,4 -4,4"/>
<!-- Node0 -->
<g id="node1" class="node">
<title>Node0</title>
<polygon fill="#bfbfbf" stroke="#000000" points="175.5,-134.5 175.5,-175.5 311.5,-175.5 311.5,-134.5 175.5,-134.5"/>
<text text-anchor="start" x="183.5" y="-163.5" font-family="Helvetica,sans-Serif" font-size="10.00" fill="#000000">drake/attic/multibody</text>
<text text-anchor="start" x="183.5" y="-152.5" font-family="Helvetica,sans-Serif" font-size="10.00" fill="#000000">/test/debug_manipulator</text>
<text text-anchor="middle" x="243.5" y="-141.5" font-family="Helvetica,sans-Serif" font-size="10.00" fill="#000000">_dynamics.cc</text>
</g>
<!-- Node1 -->
<g id="node2" class="node">
<title>Node1</title>
<polygon fill="#ffffff" stroke="#bfbfbf" points="0,-73 0,-92 49,-92 49,-73 0,-73"/>
<text text-anchor="middle" x="24.5" y="-80" font-family="Helvetica,sans-Serif" font-size="10.00" fill="#000000">cstdlib</text>
</g>
<!-- Node0&#45;&gt;Node1 -->
<g id="edge1" class="edge">
<title>Node0&#45;&gt;Node1</title>
<path fill="none" stroke="#191970" d="M175.1315,-136.2207C139.9198,-125.9756 96.5113,-112.4512 58.5,-98 56.9158,-97.3977 55.3009,-96.757 53.678,-96.0918"/>
<polygon fill="#191970" stroke="#191970" points="55.0229,-92.8603 44.4544,-92.1143 52.251,-99.2881 55.0229,-92.8603"/>
</g>
<!-- Node2 -->
<g id="node3" class="node">
<title>Node2</title>
<polygon fill="#ffffff" stroke="#bfbfbf" points="67.5,-73 67.5,-92 127.5,-92 127.5,-73 67.5,-73"/>
<text text-anchor="middle" x="97.5" y="-80" font-family="Helvetica,sans-Serif" font-size="10.00" fill="#000000">iostream</text>
</g>
<!-- Node0&#45;&gt;Node2 -->
<g id="edge2" class="edge">
<title>Node0&#45;&gt;Node2</title>
<path fill="none" stroke="#191970" d="M202.0528,-134.4183C177.6716,-122.3112 147.4757,-107.3167 125.8129,-96.5595"/>
<polygon fill="#191970" stroke="#191970" points="127.3161,-93.3982 116.8029,-92.0853 124.2028,-99.6678 127.3161,-93.3982"/>
</g>
<!-- Node3 -->
<g id="node4" class="node">
<title>Node3</title>
<polygon fill="#ffffff" stroke="#bfbfbf" points="126.5,-6 126.5,-25 184.5,-25 184.5,-6 126.5,-6"/>
<text text-anchor="middle" x="155.5" y="-13" font-family="Helvetica,sans-Serif" font-size="10.00" fill="#000000">memory</text>
</g>
<!-- Node0&#45;&gt;Node3 -->
<g id="edge3" class="edge">
<title>Node0&#45;&gt;Node3</title>
<path fill="none" stroke="#191970" d="M210.1793,-134.4539C197.231,-124.8812 183.4008,-112.4089 174.5,-98 162.5945,-78.727 158.1376,-52.7564 156.4758,-35.1391"/>
<polygon fill="#191970" stroke="#191970" points="159.9657,-34.8726 155.7488,-25.1532 152.9842,-35.3809 159.9657,-34.8726"/>
</g>
<!-- Node4 -->
<g id="node5" class="node">
<title>Node4</title>
<g id="a_node5"><a xlink:href="eigen__types_8h.html" target="_top" xlink:title="This file contains abbreviated definitions for certain specializations of Eigen::Matrix that are comm...">
<polygon fill="#ffffff" stroke="#000000" points="183.5,-67.5 183.5,-97.5 303.5,-97.5 303.5,-67.5 183.5,-67.5"/>
<text text-anchor="start" x="191.5" y="-85.5" font-family="Helvetica,sans-Serif" font-size="10.00" fill="#000000">drake/common/eigen</text>
<text text-anchor="middle" x="243.5" y="-74.5" font-family="Helvetica,sans-Serif" font-size="10.00" fill="#000000">_types.h</text>
</a>
</g>
</g>
<!-- Node0&#45;&gt;Node4 -->
<g id="edge4" class="edge">
<title>Node0&#45;&gt;Node4</title>
<path fill="none" stroke="#191970" d="M243.5,-134.4183C243.5,-126.0849 243.5,-116.3834 243.5,-107.6373"/>
<polygon fill="#191970" stroke="#191970" points="247.0001,-107.5991 243.5,-97.5991 240.0001,-107.5991 247.0001,-107.5991"/>
</g>
<!-- Node8 -->
<g id="node9" class="node">
<title>Node8</title>
<polygon fill="#ffffff" stroke="#bfbfbf" points="322,-67.5 322,-97.5 449,-97.5 449,-67.5 322,-67.5"/>
<text text-anchor="start" x="330" y="-85.5" font-family="Helvetica,sans-Serif" font-size="10.00" fill="#000000">drake/multibody/joints</text>
<text text-anchor="middle" x="385.5" y="-74.5" font-family="Helvetica,sans-Serif" font-size="10.00" fill="#000000">/floating_base_types.h</text>
</g>
<!-- Node0&#45;&gt;Node8 -->
<g id="edge9" class="edge">
<title>Node0&#45;&gt;Node8</title>
<path fill="none" stroke="#191970" d="M283.8117,-134.4183C303.6314,-124.2991 327.4019,-112.1628 346.9752,-102.1694"/>
<polygon fill="#191970" stroke="#191970" points="348.6118,-105.2636 355.9266,-97.5991 345.4287,-99.0292 348.6118,-105.2636"/>
</g>
<!-- Node9 -->
<g id="node10" class="node">
<title>Node9</title>
<polygon fill="#ffffff" stroke="#bfbfbf" points="467.5,-67.5 467.5,-97.5 603.5,-97.5 603.5,-67.5 467.5,-67.5"/>
<text text-anchor="start" x="475.5" y="-85.5" font-family="Helvetica,sans-Serif" font-size="10.00" fill="#000000">drake/multibody/parsers</text>
<text text-anchor="middle" x="535.5" y="-74.5" font-family="Helvetica,sans-Serif" font-size="10.00" fill="#000000">/urdf_parser.h</text>
</g>
<!-- Node0&#45;&gt;Node9 -->
<g id="edge10" class="edge">
<title>Node0&#45;&gt;Node9</title>
<path fill="none" stroke="#191970" d="M311.5925,-138.0935C357.6907,-126.6478 418.4434,-111.5637 465.0336,-99.9959"/>
<polygon fill="#191970" stroke="#191970" points="465.8882,-103.3901 474.7501,-97.5834 464.2014,-96.5964 465.8882,-103.3901"/>
</g>
<!-- Node10 -->
<g id="node11" class="node">
<title>Node10</title>
<polygon fill="#ffffff" stroke="#bfbfbf" points="621.5,-67.5 621.5,-97.5 743.5,-97.5 743.5,-67.5 621.5,-67.5"/>
<text text-anchor="start" x="629.5" y="-85.5" font-family="Helvetica,sans-Serif" font-size="10.00" fill="#000000">drake/multibody/rigid</text>
<text text-anchor="middle" x="682.5" y="-74.5" font-family="Helvetica,sans-Serif" font-size="10.00" fill="#000000">_body_tree.h</text>
</g>
<!-- Node0&#45;&gt;Node10 -->
<g id="edge11" class="edge">
<title>Node0&#45;&gt;Node10</title>
<path fill="none" stroke="#191970" d="M311.7343,-145.8068C383.7903,-135.7943 500.9065,-118.6573 611.4726,-98.1268"/>
<polygon fill="#191970" stroke="#191970" points="612.2779,-101.5369 621.4643,-96.2587 610.9914,-94.6562 612.2779,-101.5369"/>
</g>
<!-- Node4&#45;&gt;Node3 -->
<g id="edge5" class="edge">
<title>Node4&#45;&gt;Node3</title>
<path fill="none" stroke="#191970" d="M223.5314,-67.2967C209.4213,-56.5537 190.5549,-42.1895 176.2692,-31.3129"/>
<polygon fill="#191970" stroke="#191970" points="178.1264,-28.328 168.0498,-25.055 173.886,-33.8975 178.1264,-28.328"/>
</g>
<!-- Node5 -->
<g id="node6" class="node">
<title>Node5</title>
<polygon fill="#ffffff" stroke="#bfbfbf" points="203,-6 203,-25 280,-25 280,-6 203,-6"/>
<text text-anchor="middle" x="241.5" y="-13" font-family="Helvetica,sans-Serif" font-size="10.00" fill="#000000">Eigen/Dense</text>
</g>
<!-- Node4&#45;&gt;Node5 -->
<g id="edge6" class="edge">
<title>Node4&#45;&gt;Node5</title>
<path fill="none" stroke="#191970" d="M243.0462,-67.2967C242.7618,-57.7699 242.3924,-45.3954 242.086,-35.1306"/>
<polygon fill="#191970" stroke="#191970" points="245.5821,-34.9461 241.7852,-25.055 238.5853,-35.155 245.5821,-34.9461"/>
</g>
<!-- Node6 -->
<g id="node7" class="node">
<title>Node6</title>
<g id="a_node7"><a xlink:href="constants_8h.html" target="_top" xlink:title="drake/common/constants.h">
<polygon fill="#ffffff" stroke="#000000" points="298,-6 298,-25 447,-25 447,-6 298,-6"/>
<text text-anchor="middle" x="372.5" y="-13" font-family="Helvetica,sans-Serif" font-size="10.00" fill="#000000">drake/common/constants.h</text>
</a>
</g>
</g>
<!-- Node4&#45;&gt;Node6 -->
<g id="edge7" class="edge">
<title>Node4&#45;&gt;Node6</title>
<path fill="none" stroke="#191970" d="M272.4501,-67.4639C294.1922,-56.1715 323.7716,-40.8086 345.1227,-29.7192"/>
<polygon fill="#191970" stroke="#191970" points="346.7477,-32.8192 354.0089,-25.1039 343.5212,-26.6071 346.7477,-32.8192"/>
</g>
<!-- Node7 -->
<g id="node8" class="node">
<title>Node7</title>
<g id="a_node8"><a xlink:href="drake__copyable_8h.html" target="_top" xlink:title="Provides careful macros to selectively enable or disable the special member functions for copy&#45;constr...">
<polygon fill="#ffffff" stroke="#000000" points="465,-.5 465,-30.5 586,-30.5 586,-.5 465,-.5"/>
<text text-anchor="start" x="473" y="-18.5" font-family="Helvetica,sans-Serif" font-size="10.00" fill="#000000">drake/common/drake</text>
<text text-anchor="middle" x="525.5" y="-7.5" font-family="Helvetica,sans-Serif" font-size="10.00" fill="#000000">_copyable.h</text>
</a>
</g>
</g>
<!-- Node4&#45;&gt;Node7 -->
<g id="edge8" class="edge">
<title>Node4&#45;&gt;Node7</title>
<path fill="none" stroke="#191970" d="M303.6502,-68.209C347.9562,-57.6824 408.3486,-43.3338 454.9362,-32.2652"/>
<polygon fill="#191970" stroke="#191970" points="456.0365,-35.6013 464.9566,-29.8844 454.4183,-28.7908 456.0365,-35.6013"/>
</g>
</g>
</svg>
