<?xml version="1.0" encoding="UTF-8" standalone="no"?>
<!DOCTYPE svg PUBLIC "-//W3C//DTD SVG 1.1//EN"
 "http://www.w3.org/Graphics/SVG/1.1/DTD/svg11.dtd">
<!-- Generated by graphviz version 2.40.1 (20161225.0304)
 -->
<!-- Title: drake/systems/analysis/dense_output.h Pages: 1 -->
<svg width="609pt" height="173pt"
 viewBox="0.00 0.00 609.00 173.00" xmlns="http://www.w3.org/2000/svg" xmlns:xlink="http://www.w3.org/1999/xlink">
<g id="graph0" class="graph" transform="scale(1 1) rotate(0) translate(4 169)">
<title>drake/systems/analysis/dense_output.h</title>
<polygon fill="#ffffff" stroke="transparent" points="-4,4 -4,-169 605,-169 605,4 -4,4"/>
<!-- Node0 -->
<g id="node1" class="node">
<title>Node0</title>
<polygon fill="#bfbfbf" stroke="#000000" points="109.5,-134.5 109.5,-164.5 241.5,-164.5 241.5,-134.5 109.5,-134.5"/>
<text text-anchor="start" x="117.5" y="-152.5" font-family="Helvetica,sans-Serif" font-size="10.00" fill="#000000">drake/systems/analysis</text>
<text text-anchor="middle" x="175.5" y="-141.5" font-family="Helvetica,sans-Serif" font-size="10.00" fill="#000000">/dense_output.h</text>
</g>
<!-- Node1 -->
<g id="node2" class="node">
<title>Node1</title>
<polygon fill="#ffffff" stroke="#bfbfbf" points="0,-73 0,-92 79,-92 79,-73 0,-73"/>
<text text-anchor="middle" x="39.5" y="-80" font-family="Helvetica,sans-Serif" font-size="10.00" fill="#000000">fmt/format.h</text>
</g>
<!-- Node0&#45;&gt;Node1 -->
<g id="edge1" class="edge">
<title>Node0&#45;&gt;Node1</title>
<path fill="none" stroke="#191970" d="M144.9789,-134.4639C121.9543,-123.1209 90.5928,-107.6707 68.0606,-96.5703"/>
<polygon fill="#191970" stroke="#191970" points="69.5118,-93.3836 58.9945,-92.1039 66.4183,-99.6629 69.5118,-93.3836"/>
</g>
<!-- Node2 -->
<g id="node3" class="node">
<title>Node2</title>
<polygon fill="#ffffff" stroke="#bfbfbf" points="97.5,-73 97.5,-92 183.5,-92 183.5,-73 97.5,-73"/>
<text text-anchor="middle" x="140.5" y="-80" font-family="Helvetica,sans-Serif" font-size="10.00" fill="#000000">fmt/ostream.h</text>
</g>
<!-- Node0&#45;&gt;Node2 -->
<g id="edge2" class="edge">
<title>Node0&#45;&gt;Node2</title>
<path fill="none" stroke="#191970" d="M167.558,-134.2967C162.4225,-124.4658 155.7029,-111.6026 150.2449,-101.1545"/>
<polygon fill="#191970" stroke="#191970" points="153.2239,-99.2979 145.4914,-92.055 147.0194,-102.5391 153.2239,-99.2979"/>
</g>
<!-- Node3 -->
<g id="node4" class="node">
<title>Node3</title>
<g id="a_node4"><a xlink:href="drake__copyable_8h.html" target="_top" xlink:title="Provides careful macros to selectively enable or disable the special member functions for copy&#45;constr...">
<polygon fill="#ffffff" stroke="#000000" points="141,-.5 141,-30.5 262,-30.5 262,-.5 141,-.5"/>
<text text-anchor="start" x="149" y="-18.5" font-family="Helvetica,sans-Serif" font-size="10.00" fill="#000000">drake/common/drake</text>
<text text-anchor="middle" x="201.5" y="-7.5" font-family="Helvetica,sans-Serif" font-size="10.00" fill="#000000">_copyable.h</text>
</a>
</g>
</g>
<!-- Node0&#45;&gt;Node3 -->
<g id="edge3" class="edge">
<title>Node0&#45;&gt;Node3</title>
<path fill="none" stroke="#191970" d="M181.4137,-134.4097C185.1556,-124.2662 189.7837,-110.5137 192.5,-98 196.5973,-79.124 198.8714,-57.393 200.1082,-40.9739"/>
<polygon fill="#191970" stroke="#191970" points="203.6299,-40.768 200.8084,-30.5558 196.6456,-40.2985 203.6299,-40.768"/>
</g>
<!-- Node4 -->
<g id="node5" class="node">
<title>Node4</title>
<g id="a_node5"><a xlink:href="eigen__types_8h.html" target="_top" xlink:title="This file contains abbreviated definitions for certain specializations of Eigen::Matrix that are comm...">
<polygon fill="#ffffff" stroke="#000000" points="249.5,-67.5 249.5,-97.5 369.5,-97.5 369.5,-67.5 249.5,-67.5"/>
<text text-anchor="start" x="257.5" y="-85.5" font-family="Helvetica,sans-Serif" font-size="10.00" fill="#000000">drake/common/eigen</text>
<text text-anchor="middle" x="309.5" y="-74.5" font-family="Helvetica,sans-Serif" font-size="10.00" fill="#000000">_types.h</text>
</a>
</g>
</g>
<!-- Node0&#45;&gt;Node4 -->
<g id="edge4" class="edge">
<title>Node0&#45;&gt;Node4</title>
<path fill="none" stroke="#191970" d="M205.5722,-134.4639C224.5761,-124.9619 249.3442,-112.5779 269.9341,-102.283"/>
<polygon fill="#191970" stroke="#191970" points="271.6855,-105.3204 279.0645,-97.7177 268.555,-99.0594 271.6855,-105.3204"/>
</g>
<!-- Node4&#45;&gt;Node3 -->
<g id="edge8" class="edge">
<title>Node4&#45;&gt;Node3</title>
<path fill="none" stroke="#191970" d="M285.2627,-67.4639C270.3601,-58.2188 251.0594,-46.2452 234.7417,-36.1222"/>
<polygon fill="#191970" stroke="#191970" points="236.3728,-33.0153 226.0301,-30.7177 232.6826,-38.9636 236.3728,-33.0153"/>
</g>
<!-- Node5 -->
<g id="node6" class="node">
<title>Node5</title>
<polygon fill="#ffffff" stroke="#bfbfbf" points="280.5,-6 280.5,-25 338.5,-25 338.5,-6 280.5,-6"/>
<text text-anchor="middle" x="309.5" y="-13" font-family="Helvetica,sans-Serif" font-size="10.00" fill="#000000">memory</text>
</g>
<!-- Node4&#45;&gt;Node5 -->
<g id="edge5" class="edge">
<title>Node4&#45;&gt;Node5</title>
<path fill="none" stroke="#191970" d="M309.5,-67.2967C309.5,-57.7699 309.5,-45.3954 309.5,-35.1306"/>
<polygon fill="#191970" stroke="#191970" points="313.0001,-35.0549 309.5,-25.055 306.0001,-35.055 313.0001,-35.0549"/>
</g>
<!-- Node6 -->
<g id="node7" class="node">
<title>Node6</title>
<polygon fill="#ffffff" stroke="#bfbfbf" points="357,-6 357,-25 434,-25 434,-6 357,-6"/>
<text text-anchor="middle" x="395.5" y="-13" font-family="Helvetica,sans-Serif" font-size="10.00" fill="#000000">Eigen/Dense</text>
</g>
<!-- Node4&#45;&gt;Node6 -->
<g id="edge6" class="edge">
<title>Node4&#45;&gt;Node6</title>
<path fill="none" stroke="#191970" d="M329.0147,-67.2967C342.8042,-56.5537 361.2418,-42.1895 375.2028,-31.3129"/>
<polygon fill="#191970" stroke="#191970" points="377.4978,-33.9618 383.2354,-25.055 373.1958,-28.4398 377.4978,-33.9618"/>
</g>
<!-- Node7 -->
<g id="node8" class="node">
<title>Node7</title>
<g id="a_node8"><a xlink:href="constants_8h.html" target="_top" xlink:title="drake/common/constants.h">
<polygon fill="#ffffff" stroke="#000000" points="452,-6 452,-25 601,-25 601,-6 452,-6"/>
<text text-anchor="middle" x="526.5" y="-13" font-family="Helvetica,sans-Serif" font-size="10.00" fill="#000000">drake/common/constants.h</text>
</a>
</g>
</g>
<!-- Node4&#45;&gt;Node7 -->
<g id="edge7" class="edge">
<title>Node4&#45;&gt;Node7</title>
<path fill="none" stroke="#191970" d="M358.199,-67.4639C396.6912,-55.5792 449.7864,-39.1858 485.9801,-28.0108"/>
<polygon fill="#191970" stroke="#191970" points="487.1919,-31.2997 495.7142,-25.0053 485.1267,-24.6113 487.1919,-31.2997"/>
</g>
</g>
</svg>
