<?xml version="1.0" encoding="UTF-8" standalone="no"?>
<!DOCTYPE svg PUBLIC "-//W3C//DTD SVG 1.1//EN"
 "http://www.w3.org/Graphics/SVG/1.1/DTD/svg11.dtd">
<!-- Generated by graphviz version 2.40.1 (20161225.0304)
 -->
<!-- Title: drake/systems/framework/dependency_tracker.h Pages: 1 -->
<!--zoomable 441 -->
<svg id="main" version="1.1" xmlns="http://www.w3.org/2000/svg" xmlns:xlink="http://www.w3.org/1999/xlink" xml:space="preserve" onload="init(evt)">
<style type="text/css"><![CDATA[
.edge:hover path { stroke: red; }
.edge:hover polygon { stroke: red; fill: red; }
]]></style>
<script type="text/javascript"><![CDATA[
var edges = document.getElementsByTagName('g');
if (edges && edges.length) {
  for (var i=0;i<edges.length;i++) {
    if (edges[i].id.substr(0,4)=='edge') {
      edges[i].setAttribute('class','edge');
    }
  }
}
]]></script>
        <defs>
                <circle id="rim" cx="0" cy="0" r="7"/>
                <circle id="rim2" cx="0" cy="0" r="3.5"/>
                <g id="zoomPlus">
                        <use xlink:href="#rim" fill="#404040">
                                <set attributeName="fill" to="#808080" begin="zoomplus.mouseover" end="zoomplus.mouseout"/>
                        </use>
                        <path d="M-4,0h8M0,-4v8" fill="none" stroke="white" stroke-width="1.5" pointer-events="none"/>
                </g>
                <g id="zoomMin">
                        <use xlink:href="#rim" fill="#404040">
                                <set attributeName="fill" to="#808080" begin="zoomminus.mouseover" end="zoomminus.mouseout"/>
                        </use>
                        <path d="M-4,0h8" fill="none" stroke="white" stroke-width="1.5" pointer-events="none"/>
                </g>
                <g id="dirArrow">
                        <path fill="none" stroke="white" stroke-width="1.5" d="M0,-3.0v7 M-2.5,-0.5L0,-3.0L2.5,-0.5"/>
                </g>
               <g id="resetDef">
                       <use xlink:href="#rim2" fill="#404040">
                               <set attributeName="fill" to="#808080" begin="reset.mouseover" end="reset.mouseout"/>
                       </use>
               </g>
        </defs>

<script type="text/javascript">
var viewWidth = 2231;
var viewHeight = 441;
var sectionId = 'dynsection-0';
</script>
<script xlink:href="svgpan.js"/>
<svg id="graph" class="graph">
<g id="viewport">
<title>drake/systems/framework/dependency_tracker.h</title>
<polygon fill="#ffffff" stroke="transparent" points="-4,4 -4,-437 2226.5,-437 2226.5,4 -4,4"/>
<!-- Node0 -->
<g id="node1" class="node">
<title>Node0</title>
<polygon fill="#bfbfbf" stroke="#000000" points="1527.5,-402.5 1527.5,-432.5 1672.5,-432.5 1672.5,-402.5 1527.5,-402.5"/>
<text text-anchor="start" x="1535.5" y="-420.5" font-family="Helvetica,sans-Serif" font-size="10.00" fill="#000000">drake/systems/framework</text>
<text text-anchor="middle" x="1600" y="-409.5" font-family="Helvetica,sans-Serif" font-size="10.00" fill="#000000">/dependency_tracker.h</text>
</g>
<!-- Node1 -->
<g id="node2" class="node">
<title>Node1</title>
<polygon fill="#ffffff" stroke="#bfbfbf" points="180,-274 180,-293 230,-293 230,-274 180,-274"/>
<text text-anchor="middle" x="205" y="-281" font-family="Helvetica,sans-Serif" font-size="10.00" fill="#000000">cstdint</text>
</g>
<!-- Node0&#45;&gt;Node1 -->
<g id="edge1" class="edge">
<title>Node0&#45;&gt;Node1</title>
<path fill="none" stroke="#191970" d="M1527.2739,-415.8296C1371.4131,-411.7238 993.7665,-398.9627 679,-366 484.4507,-345.6266 432.7561,-350.3382 244,-299 241.3877,-298.2895 238.7121,-297.4587 236.0467,-296.5576"/>
<polygon fill="#191970" stroke="#191970" points="237.1628,-293.2389 226.5692,-293.0748 234.7482,-299.8093 237.1628,-293.2389"/>
</g>
<!-- Node2 -->
<g id="node3" class="node">
<title>Node2</title>
<polygon fill="#ffffff" stroke="#bfbfbf" points="337,-73 337,-92 395,-92 395,-73 337,-73"/>
<text text-anchor="middle" x="366" y="-80" font-family="Helvetica,sans-Serif" font-size="10.00" fill="#000000">memory</text>
</g>
<!-- Node0&#45;&gt;Node2 -->
<g id="edge2" class="edge">
<title>Node0&#45;&gt;Node2</title>
<path fill="none" stroke="#191970" d="M1527.1301,-416.2186C1248.7027,-411.1414 264.57,-391.4658 203,-366 153.159,-345.3854 114,-337.4359 114,-283.5 114,-283.5 114,-283.5 114,-216.5 114,-191.9414 265.1287,-125.0578 333.3137,-96.1315"/>
<polygon fill="#191970" stroke="#191970" points="334.8938,-99.2636 342.7441,-92.1487 332.1703,-92.8151 334.8938,-99.2636"/>
</g>
<!-- Node3 -->
<g id="node4" class="node">
<title>Node3</title>
<polygon fill="#ffffff" stroke="#bfbfbf" points="1362,-73 1362,-92 1406,-92 1406,-73 1362,-73"/>
<text text-anchor="middle" x="1384" y="-80" font-family="Helvetica,sans-Serif" font-size="10.00" fill="#000000">string</text>
</g>
<!-- Node0&#45;&gt;Node3 -->
<g id="edge3" class="edge">
<title>Node0&#45;&gt;Node3</title>
<path fill="none" stroke="#191970" d="M1615.8257,-402.3325C1651.3814,-366.3523 1731.496,-273.4271 1692,-201 1665.6759,-152.7273 1638.4312,-155.9068 1588,-134 1530.0575,-108.8304 1457.2992,-94.1642 1416.1878,-87.297"/>
<polygon fill="#191970" stroke="#191970" points="1416.6328,-83.8236 1406.2018,-85.6792 1415.5133,-90.7335 1416.6328,-83.8236"/>
</g>
<!-- Node4 -->
<g id="node5" class="node">
<title>Node4</title>
<polygon fill="#ffffff" stroke="#bfbfbf" points="2129.5,-341 2129.5,-360 2222.5,-360 2222.5,-341 2129.5,-341"/>
<text text-anchor="middle" x="2176" y="-348" font-family="Helvetica,sans-Serif" font-size="10.00" fill="#000000">unordered_map</text>
</g>
<!-- Node0&#45;&gt;Node4 -->
<g id="edge4" class="edge">
<title>Node0&#45;&gt;Node4</title>
<path fill="none" stroke="#191970" d="M1672.6305,-414.3635C1773.8383,-409.0782 1962.6906,-395.8901 2121,-366 2125.8041,-365.0929 2130.7968,-363.9607 2135.7274,-362.7236"/>
<polygon fill="#191970" stroke="#191970" points="2136.9167,-366.029 2145.6806,-360.0756 2135.1169,-359.2643 2136.9167,-366.029"/>
</g>
<!-- Node5 -->
<g id="node6" class="node">
<title>Node5</title>
<polygon fill="#ffffff" stroke="#bfbfbf" points="237.5,-6 237.5,-25 282.5,-25 282.5,-6 237.5,-6"/>
<text text-anchor="middle" x="260" y="-13" font-family="Helvetica,sans-Serif" font-size="10.00" fill="#000000">utility</text>
</g>
<!-- Node0&#45;&gt;Node5 -->
<g id="edge5" class="edge">
<title>Node0&#45;&gt;Node5</title>
<path fill="none" stroke="#191970" d="M1527.2516,-417.1234C1249.9093,-415.39 267.775,-406.429 134,-366 67.0526,-345.7674 0,-353.4379 0,-283.5 0,-283.5 0,-283.5 0,-149.5 0,-48.3081 157.5359,-23.4603 227.3556,-17.4169"/>
<polygon fill="#191970" stroke="#191970" points="227.6873,-20.9017 237.3815,-16.6271 227.1375,-13.9233 227.6873,-20.9017"/>
</g>
<!-- Node6 -->
<g id="node7" class="node">
<title>Node6</title>
<polygon fill="#ffffff" stroke="#bfbfbf" points="1598.5,-73 1598.5,-92 1645.5,-92 1645.5,-73 1598.5,-73"/>
<text text-anchor="middle" x="1622" y="-80" font-family="Helvetica,sans-Serif" font-size="10.00" fill="#000000">vector</text>
</g>
<!-- Node0&#45;&gt;Node6 -->
<g id="edge6" class="edge">
<title>Node0&#45;&gt;Node6</title>
<path fill="none" stroke="#191970" d="M1666.5112,-402.4232C1687.715,-394.6754 1709.6345,-383.1166 1725,-366 1750.5094,-337.5836 1749,-321.6867 1749,-283.5 1749,-283.5 1749,-283.5 1749,-216.5 1749,-159.9152 1688.6044,-117.6483 1651.1115,-96.8611"/>
<polygon fill="#191970" stroke="#191970" points="1652.5907,-93.683 1642.1235,-92.0434 1649.2837,-99.8525 1652.5907,-93.683"/>
</g>
<!-- Node7 -->
<g id="node8" class="node">
<title>Node7</title>
<g id="a_node8"><a xlink:href="drake__assert_8h.html" target="_top" xlink:title="Provides Drake&#39;s assertion implementation. ">
<polygon fill="#ffffff" stroke="#000000" points="677.5,-67.5 677.5,-97.5 798.5,-97.5 798.5,-67.5 677.5,-67.5"/>
<text text-anchor="start" x="685.5" y="-85.5" font-family="Helvetica,sans-Serif" font-size="10.00" fill="#000000">drake/common/drake</text>
<text text-anchor="middle" x="738" y="-74.5" font-family="Helvetica,sans-Serif" font-size="10.00" fill="#000000">_assert.h</text>
</a>
</g>
</g>
<!-- Node0&#45;&gt;Node7 -->
<g id="edge7" class="edge">
<title>Node0&#45;&gt;Node7</title>
<path fill="none" stroke="#191970" d="M1527.3731,-416.7237C1301.9651,-413.9467 616.3338,-402.6337 397,-366 293.666,-348.7409 233.6742,-382.9508 171,-299 162.7577,-287.9596 162.4104,-278.7725 171,-268 299.1823,-107.2428 434.3789,-249.0947 622,-165 656.5455,-149.5162 691.2837,-123.0223 713.6144,-104.2393"/>
<polygon fill="#191970" stroke="#191970" points="715.9322,-106.8625 721.2567,-97.7028 711.3823,-101.5428 715.9322,-106.8625"/>
</g>
<!-- Node9 -->
<g id="node10" class="node">
<title>Node9</title>
<g id="a_node10"><a xlink:href="drake__copyable_8h.html" target="_top" xlink:title="Provides careful macros to selectively enable or disable the special member functions for copy&#45;constr...">
<polygon fill="#ffffff" stroke="#000000" points="1547.5,-.5 1547.5,-30.5 1668.5,-30.5 1668.5,-.5 1547.5,-.5"/>
<text text-anchor="start" x="1555.5" y="-18.5" font-family="Helvetica,sans-Serif" font-size="10.00" fill="#000000">drake/common/drake</text>
<text text-anchor="middle" x="1608" y="-7.5" font-family="Helvetica,sans-Serif" font-size="10.00" fill="#000000">_copyable.h</text>
</a>
</g>
</g>
<!-- Node0&#45;&gt;Node9 -->
<g id="edge9" class="edge">
<title>Node0&#45;&gt;Node9</title>
<path fill="none" stroke="#191970" d="M1665.3974,-402.4943C1744.174,-380.4057 1872.3562,-330.6189 1924,-232 1958.0301,-167.0162 1975.5707,-122.8387 1928,-67 1912.0126,-48.2338 1767.9567,-31.0269 1678.6641,-22.0386"/>
<polygon fill="#191970" stroke="#191970" points="1678.8922,-18.5441 1668.5947,-21.0364 1678.1989,-25.5097 1678.8922,-18.5441"/>
</g>
<!-- Node10 -->
<g id="node11" class="node">
<title>Node10</title>
<g id="a_node11"><a xlink:href="text__logging_8h.html" target="_top" xlink:title="This is the entry point for all text logging within Drake. ">
<polygon fill="#ffffff" stroke="#000000" points="1948.5,-341 1948.5,-360 2111.5,-360 2111.5,-341 1948.5,-341"/>
<text text-anchor="middle" x="2030" y="-348" font-family="Helvetica,sans-Serif" font-size="10.00" fill="#000000">drake/common/text_logging.h</text>
</a>
</g>
</g>
<!-- Node0&#45;&gt;Node10 -->
<g id="edge10" class="edge">
<title>Node0&#45;&gt;Node10</title>
<path fill="none" stroke="#191970" d="M1672.6698,-406.4467C1740.3437,-396.1173 1844.0263,-380.1999 1934,-366 1942.8787,-364.5987 1952.2167,-363.1099 1961.439,-361.6305"/>
<polygon fill="#191970" stroke="#191970" points="1962.0557,-365.0764 1971.3734,-360.0335 1960.9446,-358.1651 1962.0557,-365.0764"/>
</g>
<!-- Node11 -->
<g id="node12" class="node">
<title>Node11</title>
<g id="a_node12"><a xlink:href="cache_8h.html" target="_top" xlink:title="Declares CacheEntryValue and Cache, which is the container for cache entry values. ">
<polygon fill="#ffffff" stroke="#000000" points="687.5,-335.5 687.5,-365.5 832.5,-365.5 832.5,-335.5 687.5,-335.5"/>
<text text-anchor="start" x="695.5" y="-353.5" font-family="Helvetica,sans-Serif" font-size="10.00" fill="#000000">drake/systems/framework</text>
<text text-anchor="middle" x="760" y="-342.5" font-family="Helvetica,sans-Serif" font-size="10.00" fill="#000000">/cache.h</text>
</a>
</g>
</g>
<!-- Node0&#45;&gt;Node11 -->
<g id="edge12" class="edge">
<title>Node0&#45;&gt;Node11</title>
<path fill="none" stroke="#191970" d="M1527.2904,-411.7005C1371.6253,-399.2844 1006.9526,-370.1974 842.7344,-357.0991"/>
<polygon fill="#191970" stroke="#191970" points="842.9336,-353.6039 832.687,-356.2977 842.377,-360.5818 842.9336,-353.6039"/>
</g>
<!-- Node20 -->
<g id="node21" class="node">
<title>Node20</title>
<g id="a_node21"><a xlink:href="framework__common_8h.html" target="_top" xlink:title="drake/systems/framework\l/framework_common.h">
<polygon fill="#ffffff" stroke="#000000" points="1527.5,-268.5 1527.5,-298.5 1672.5,-298.5 1672.5,-268.5 1527.5,-268.5"/>
<text text-anchor="start" x="1535.5" y="-286.5" font-family="Helvetica,sans-Serif" font-size="10.00" fill="#000000">drake/systems/framework</text>
<text text-anchor="middle" x="1600" y="-275.5" font-family="Helvetica,sans-Serif" font-size="10.00" fill="#000000">/framework_common.h</text>
</a>
</g>
</g>
<!-- Node0&#45;&gt;Node20 -->
<g id="edge74" class="edge">
<title>Node0&#45;&gt;Node20</title>
<path fill="none" stroke="#191970" d="M1600,-402.389C1600,-379.6691 1600,-336.438 1600,-308.8405"/>
<polygon fill="#191970" stroke="#191970" points="1603.5001,-308.7614 1600,-298.7614 1596.5001,-308.7614 1603.5001,-308.7614"/>
</g>
<!-- Node8 -->
<g id="node9" class="node">
<title>Node8</title>
<polygon fill="#ffffff" stroke="#bfbfbf" points="658.5,-6 658.5,-25 727.5,-25 727.5,-6 658.5,-6"/>
<text text-anchor="middle" x="693" y="-13" font-family="Helvetica,sans-Serif" font-size="10.00" fill="#000000">type_traits</text>
</g>
<!-- Node7&#45;&gt;Node8 -->
<g id="edge8" class="edge">
<title>Node7&#45;&gt;Node8</title>
<path fill="none" stroke="#191970" d="M727.7888,-67.2967C721.0499,-57.2631 712.1894,-44.0709 705.0971,-33.5113"/>
<polygon fill="#191970" stroke="#191970" points="707.8986,-31.4049 699.4175,-25.055 702.0876,-35.3078 707.8986,-31.4049"/>
</g>
<!-- Node10&#45;&gt;Node9 -->
<g id="edge11" class="edge">
<title>Node10&#45;&gt;Node9</title>
<path fill="none" stroke="#191970" d="M2028.8964,-340.7633C2026.4932,-318.6889 2021,-263.1326 2021,-216.5 2021,-216.5 2021,-216.5 2021,-149.5 2021,-108.3553 2012.5127,-90.8703 1979,-67 1932.1129,-33.6034 1772.6281,-21.768 1678.7164,-17.6443"/>
<polygon fill="#191970" stroke="#191970" points="1678.8589,-14.1473 1668.7206,-17.2236 1678.5645,-21.1411 1678.8589,-14.1473"/>
</g>
<!-- Node11&#45;&gt;Node1 -->
<g id="edge13" class="edge">
<title>Node11&#45;&gt;Node1</title>
<path fill="none" stroke="#191970" d="M687.0383,-345.7346C565.3261,-337.3633 326.1142,-318.9977 244,-299 241.2126,-298.3212 238.36,-297.4845 235.5283,-296.5545"/>
<polygon fill="#191970" stroke="#191970" points="236.6998,-293.2564 226.1057,-293.1275 234.3071,-299.8348 236.6998,-293.2564"/>
</g>
<!-- Node11&#45;&gt;Node2 -->
<g id="edge14" class="edge">
<title>Node11&#45;&gt;Node2</title>
<path fill="none" stroke="#191970" d="M692.2168,-335.4979C568.3246,-306.503 313.6371,-239.064 266,-165 258.5468,-153.4122 258.8266,-145.7631 266,-134 270.0245,-127.4005 307.3231,-109.2644 335.1974,-96.3866"/>
<polygon fill="#191970" stroke="#191970" points="336.9624,-99.4278 344.5938,-92.0784 334.0449,-93.0647 336.9624,-99.4278"/>
</g>
<!-- Node11&#45;&gt;Node3 -->
<g id="edge17" class="edge">
<title>Node11&#45;&gt;Node3</title>
<path fill="none" stroke="#191970" d="M832.6063,-340.633C944.0676,-322.4483 1159.7614,-274.9425 1306,-165 1331.4544,-145.8633 1355.8468,-118.022 1370.3794,-100.0851"/>
<polygon fill="#191970" stroke="#191970" points="1373.1991,-102.1626 1376.683,-92.1569 1367.7199,-97.8061 1373.1991,-102.1626"/>
</g>
<!-- Node11&#45;&gt;Node5 -->
<g id="edge18" class="edge">
<title>Node11&#45;&gt;Node5</title>
<path fill="none" stroke="#191970" d="M687.338,-345.717C588.1416,-338.4175 416.0232,-322.788 358,-299 248.6747,-254.1795 217.2535,-211.3803 184,-98 180.1224,-84.7791 177.5448,-79.172 184,-67 193.3636,-49.344 211.7877,-36.6286 228.1501,-28.2499"/>
<polygon fill="#191970" stroke="#191970" points="229.9396,-31.2743 237.4617,-23.8131 226.9286,-24.9549 229.9396,-31.2743"/>
</g>
<!-- Node11&#45;&gt;Node6 -->
<g id="edge19" class="edge">
<title>Node11&#45;&gt;Node6</title>
<path fill="none" stroke="#191970" d="M832.6443,-344.2106C994.4676,-329.3381 1379.4998,-288.9296 1496,-232 1554.0398,-203.6379 1595.4197,-134.823 1612.8339,-101.3757"/>
<polygon fill="#191970" stroke="#191970" points="1616.0765,-102.7189 1617.4608,-92.2149 1609.8283,-99.563 1616.0765,-102.7189"/>
</g>
<!-- Node11&#45;&gt;Node7 -->
<g id="edge26" class="edge">
<title>Node11&#45;&gt;Node7</title>
<path fill="none" stroke="#191970" d="M740.1788,-335.4888C715.2235,-315.2045 673.609,-276.4261 657,-232 652.1752,-219.0946 651.7275,-213.729 657,-201 665.6591,-180.095 679.444,-183.1172 693,-165 706.6451,-146.7637 718.7901,-123.8834 727.0134,-106.8469"/>
<polygon fill="#191970" stroke="#191970" points="730.2879,-108.1087 731.3837,-97.5707 723.9554,-105.1253 730.2879,-108.1087"/>
</g>
<!-- Node12 -->
<g id="node13" class="node">
<title>Node12</title>
<polygon fill="#ffffff" stroke="#bfbfbf" points="766,-274 766,-293 798,-293 798,-274 766,-274"/>
<text text-anchor="middle" x="782" y="-281" font-family="Helvetica,sans-Serif" font-size="10.00" fill="#000000">set</text>
</g>
<!-- Node11&#45;&gt;Node12 -->
<g id="edge15" class="edge">
<title>Node11&#45;&gt;Node12</title>
<path fill="none" stroke="#191970" d="M764.9921,-335.2967C768.1536,-325.6685 772.2702,-313.1318 775.6615,-302.8038"/>
<polygon fill="#191970" stroke="#191970" points="779.0681,-303.6478 778.8625,-293.055 772.4175,-301.464 779.0681,-303.6478"/>
</g>
<!-- Node13 -->
<g id="node14" class="node">
<title>Node13</title>
<polygon fill="#ffffff" stroke="#bfbfbf" points="783.5,-140 783.5,-159 848.5,-159 848.5,-140 783.5,-140"/>
<text text-anchor="middle" x="816" y="-147" font-family="Helvetica,sans-Serif" font-size="10.00" fill="#000000">stdexcept</text>
</g>
<!-- Node11&#45;&gt;Node13 -->
<g id="edge16" class="edge">
<title>Node11&#45;&gt;Node13</title>
<path fill="none" stroke="#191970" d="M778.2819,-335.133C788.2925,-325.719 800.0425,-312.844 807,-299 828.2243,-256.7679 823.845,-199.1338 819.5215,-169.2638"/>
<polygon fill="#191970" stroke="#191970" points="822.9576,-168.5862 817.9206,-159.2653 816.0457,-169.6929 822.9576,-168.5862"/>
</g>
<!-- Node14 -->
<g id="node15" class="node">
<title>Node14</title>
<g id="a_node15"><a xlink:href="copyable__unique__ptr_8h.html" target="_top" xlink:title="drake/common/copyable\l_unique_ptr.h">
<polygon fill="#ffffff" stroke="#000000" points="475.5,-134.5 475.5,-164.5 612.5,-164.5 612.5,-134.5 475.5,-134.5"/>
<text text-anchor="start" x="483.5" y="-152.5" font-family="Helvetica,sans-Serif" font-size="10.00" fill="#000000">drake/common/copyable</text>
<text text-anchor="middle" x="544" y="-141.5" font-family="Helvetica,sans-Serif" font-size="10.00" fill="#000000">_unique_ptr.h</text>
</a>
</g>
</g>
<!-- Node11&#45;&gt;Node14 -->
<g id="edge20" class="edge">
<title>Node11&#45;&gt;Node14</title>
<path fill="none" stroke="#191970" d="M687.3744,-336.5614C646.0615,-327.2429 599.698,-313.9731 585,-299 551.9699,-265.3518 544.9464,-207.7409 543.8034,-174.7243"/>
<polygon fill="#191970" stroke="#191970" points="547.2994,-174.4729 543.6122,-164.5404 540.3007,-174.6044 547.2994,-174.4729"/>
</g>
<!-- Node17 -->
<g id="node18" class="node">
<title>Node17</title>
<g id="a_node18"><a xlink:href="never__destroyed_8h.html" target="_top" xlink:title="drake/common/never\l_destroyed.h">
<polygon fill="#ffffff" stroke="#000000" points="1092.5,-67.5 1092.5,-97.5 1213.5,-97.5 1213.5,-67.5 1092.5,-67.5"/>
<text text-anchor="start" x="1100.5" y="-85.5" font-family="Helvetica,sans-Serif" font-size="10.00" fill="#000000">drake/common/never</text>
<text text-anchor="middle" x="1153" y="-74.5" font-family="Helvetica,sans-Serif" font-size="10.00" fill="#000000">_destroyed.h</text>
</a>
</g>
</g>
<!-- Node11&#45;&gt;Node17 -->
<g id="edge27" class="edge">
<title>Node11&#45;&gt;Node17</title>
<path fill="none" stroke="#191970" d="M821.6334,-335.4321C938.279,-305.5332 1183.9684,-235.4846 1232,-165 1239.7586,-153.6145 1238.5636,-146.1139 1232,-134 1224.839,-120.7836 1212.6532,-110.4229 1199.9678,-102.5696"/>
<polygon fill="#191970" stroke="#191970" points="1201.579,-99.4591 1191.1614,-97.529 1198.1016,-105.5343 1201.579,-99.4591"/>
</g>
<!-- Node19 -->
<g id="node20" class="node">
<title>Node19</title>
<g id="a_node20"><a xlink:href="reset__on__copy_8h.html" target="_top" xlink:title="drake/common/reset\l_on_copy.h">
<polygon fill="#ffffff" stroke="#000000" points="201,-67.5 201,-97.5 319,-97.5 319,-67.5 201,-67.5"/>
<text text-anchor="start" x="209" y="-85.5" font-family="Helvetica,sans-Serif" font-size="10.00" fill="#000000">drake/common/reset</text>
<text text-anchor="middle" x="260" y="-74.5" font-family="Helvetica,sans-Serif" font-size="10.00" fill="#000000">_on_copy.h</text>
</a>
</g>
</g>
<!-- Node11&#45;&gt;Node19 -->
<g id="edge32" class="edge">
<title>Node11&#45;&gt;Node19</title>
<path fill="none" stroke="#191970" d="M687.2618,-343.3986C624.924,-336.0831 533.2349,-322.3802 456,-299 386.117,-277.8453 362.7876,-277.8948 306,-232 277.3074,-208.8111 268.4551,-200.0681 257,-165 250.9399,-146.448 252.1756,-124.2898 254.6602,-107.611"/>
<polygon fill="#191970" stroke="#191970" points="258.1474,-107.9861 256.4091,-97.5348 251.2505,-106.789 258.1474,-107.9861"/>
</g>
<!-- Node11&#45;&gt;Node20 -->
<g id="edge35" class="edge">
<title>Node11&#45;&gt;Node20</title>
<path fill="none" stroke="#191970" d="M832.675,-348.1404C967.3055,-343.1903 1264.4308,-329.5522 1513,-299 1514.4752,-298.8187 1515.9633,-298.6289 1517.4612,-298.4315"/>
<polygon fill="#191970" stroke="#191970" points="1518.0412,-301.8845 1527.4577,-297.0286 1517.0683,-294.9525 1518.0412,-301.8845"/>
</g>
<!-- Node32 -->
<g id="node33" class="node">
<title>Node32</title>
<g id="a_node33"><a xlink:href="value_8h.html" target="_top" xlink:title="drake/systems/framework\l/value.h">
<polygon fill="#ffffff" stroke="#000000" points="665.5,-201.5 665.5,-231.5 810.5,-231.5 810.5,-201.5 665.5,-201.5"/>
<text text-anchor="start" x="673.5" y="-219.5" font-family="Helvetica,sans-Serif" font-size="10.00" fill="#000000">drake/systems/framework</text>
<text text-anchor="middle" x="738" y="-208.5" font-family="Helvetica,sans-Serif" font-size="10.00" fill="#000000">/value.h</text>
</a>
</g>
</g>
<!-- Node11&#45;&gt;Node32 -->
<g id="edge61" class="edge">
<title>Node11&#45;&gt;Node32</title>
<path fill="none" stroke="#191970" d="M757.5191,-335.389C753.789,-312.6691 746.6913,-269.438 742.1604,-241.8405"/>
<polygon fill="#191970" stroke="#191970" points="745.5795,-241.0622 740.5056,-231.7614 738.672,-242.1964 745.5795,-241.0622"/>
</g>
<!-- Node14&#45;&gt;Node2 -->
<g id="edge23" class="edge">
<title>Node14&#45;&gt;Node2</title>
<path fill="none" stroke="#191970" d="M504.0533,-134.4639C473.0189,-122.7824 430.4119,-106.7449 400.7721,-95.5884"/>
<polygon fill="#191970" stroke="#191970" points="401.8448,-92.2525 391.2529,-92.0053 399.3788,-98.8037 401.8448,-92.2525"/>
</g>
<!-- Node14&#45;&gt;Node5 -->
<g id="edge24" class="edge">
<title>Node14&#45;&gt;Node5</title>
<path fill="none" stroke="#191970" d="M521.4428,-134.3977C494.3601,-116.6979 447.1776,-87.2209 404,-67 367.0052,-49.6746 322.4639,-34.5721 292.8103,-25.2788"/>
<polygon fill="#191970" stroke="#191970" points="293.5668,-21.8493 282.9792,-22.2398 291.4994,-28.537 293.5668,-21.8493"/>
</g>
<!-- Node14&#45;&gt;Node7 -->
<g id="edge25" class="edge">
<title>Node14&#45;&gt;Node7</title>
<path fill="none" stroke="#191970" d="M587.5374,-134.4639C616.2667,-124.5419 654.0953,-111.4774 684.6344,-100.9304"/>
<polygon fill="#191970" stroke="#191970" points="685.9631,-104.1744 694.2727,-97.6017 683.678,-97.5579 685.9631,-104.1744"/>
</g>
<!-- Node15 -->
<g id="node16" class="node">
<title>Node15</title>
<polygon fill="#ffffff" stroke="#bfbfbf" points="489.5,-73 489.5,-92 542.5,-92 542.5,-73 489.5,-73"/>
<text text-anchor="middle" x="516" y="-80" font-family="Helvetica,sans-Serif" font-size="10.00" fill="#000000">cstddef</text>
</g>
<!-- Node14&#45;&gt;Node15 -->
<g id="edge21" class="edge">
<title>Node14&#45;&gt;Node15</title>
<path fill="none" stroke="#191970" d="M537.6464,-134.2967C533.5803,-124.5672 528.273,-111.8675 523.9313,-101.4784"/>
<polygon fill="#191970" stroke="#191970" points="527.0785,-99.9321 519.9931,-92.055 520.6198,-102.6313 527.0785,-99.9321"/>
</g>
<!-- Node16 -->
<g id="node17" class="node">
<title>Node16</title>
<polygon fill="#ffffff" stroke="#bfbfbf" points="561,-73 561,-92 621,-92 621,-73 561,-73"/>
<text text-anchor="middle" x="591" y="-80" font-family="Helvetica,sans-Serif" font-size="10.00" fill="#000000">iostream</text>
</g>
<!-- Node14&#45;&gt;Node16 -->
<g id="edge22" class="edge">
<title>Node14&#45;&gt;Node16</title>
<path fill="none" stroke="#191970" d="M554.665,-134.2967C561.7035,-124.2631 570.9577,-111.0709 578.3652,-100.5113"/>
<polygon fill="#191970" stroke="#191970" points="581.4197,-102.2516 584.2973,-92.055 575.6891,-98.2316 581.4197,-102.2516"/>
</g>
<!-- Node17&#45;&gt;Node5 -->
<g id="edge30" class="edge">
<title>Node17&#45;&gt;Node5</title>
<path fill="none" stroke="#191970" d="M1092.43,-71.2755C1082.2952,-69.6584 1071.869,-68.1541 1062,-67 764.6054,-32.2205 402.2226,-19.5609 292.8014,-16.3761"/>
<polygon fill="#191970" stroke="#191970" points="292.8192,-12.8753 282.7236,-16.089 292.6198,-19.8725 292.8192,-12.8753"/>
</g>
<!-- Node17&#45;&gt;Node8 -->
<g id="edge29" class="edge">
<title>Node17&#45;&gt;Node8</title>
<path fill="none" stroke="#191970" d="M1092.3441,-71.9077C1082.2196,-70.2146 1071.8191,-68.5211 1062,-67 945.2643,-48.9162 807.2946,-30.4248 737.7945,-21.3103"/>
<polygon fill="#191970" stroke="#191970" points="738.0143,-17.8093 727.6447,-19.9821 737.106,-24.7501 738.0143,-17.8093"/>
</g>
<!-- Node17&#45;&gt;Node9 -->
<g id="edge31" class="edge">
<title>Node17&#45;&gt;Node9</title>
<path fill="none" stroke="#191970" d="M1213.5083,-71.0021C1221.4016,-69.6 1229.3874,-68.2301 1237,-67 1341.2286,-50.1581 1462.4817,-33.9636 1537.2384,-24.3701"/>
<polygon fill="#191970" stroke="#191970" points="1537.9968,-27.8016 1547.4717,-23.0608 1537.1083,-20.8582 1537.9968,-27.8016"/>
</g>
<!-- Node18 -->
<g id="node19" class="node">
<title>Node18</title>
<polygon fill="#ffffff" stroke="#bfbfbf" points="1134.5,-6 1134.5,-25 1171.5,-25 1171.5,-6 1134.5,-6"/>
<text text-anchor="middle" x="1153" y="-13" font-family="Helvetica,sans-Serif" font-size="10.00" fill="#000000">new</text>
</g>
<!-- Node17&#45;&gt;Node18 -->
<g id="edge28" class="edge">
<title>Node17&#45;&gt;Node18</title>
<path fill="none" stroke="#191970" d="M1153,-67.2967C1153,-57.7699 1153,-45.3954 1153,-35.1306"/>
<polygon fill="#191970" stroke="#191970" points="1156.5001,-35.0549 1153,-25.055 1149.5001,-35.055 1156.5001,-35.0549"/>
</g>
<!-- Node19&#45;&gt;Node5 -->
<g id="edge34" class="edge">
<title>Node19&#45;&gt;Node5</title>
<path fill="none" stroke="#191970" d="M260,-67.2967C260,-57.7699 260,-45.3954 260,-35.1306"/>
<polygon fill="#191970" stroke="#191970" points="263.5001,-35.0549 260,-25.055 256.5001,-35.055 263.5001,-35.0549"/>
</g>
<!-- Node19&#45;&gt;Node8 -->
<g id="edge33" class="edge">
<title>Node19&#45;&gt;Node8</title>
<path fill="none" stroke="#191970" d="M319.2775,-68.6801C322.2223,-68.0903 325.1421,-67.5264 328,-67 442.7892,-45.8578 579.2838,-28.7005 648.2905,-20.5815"/>
<polygon fill="#191970" stroke="#191970" points="648.8461,-24.0405 658.3722,-19.4032 648.0335,-17.0878 648.8461,-24.0405"/>
</g>
<!-- Node20&#45;&gt;Node2 -->
<g id="edge37" class="edge">
<title>Node20&#45;&gt;Node2</title>
<path fill="none" stroke="#191970" d="M1527.3487,-282.8245C1261.9419,-279.5871 356.0437,-261.4953 275,-165 266.139,-154.4496 268.0598,-145.9022 275,-134 281.7108,-122.4913 310.6406,-107.25 334.105,-96.3396"/>
<polygon fill="#191970" stroke="#191970" points="335.7697,-99.4274 343.42,-92.0977 332.8686,-93.0568 335.7697,-99.4274"/>
</g>
<!-- Node20&#45;&gt;Node3 -->
<g id="edge38" class="edge">
<title>Node20&#45;&gt;Node3</title>
<path fill="none" stroke="#191970" d="M1598.7332,-268.455C1595.5767,-234.5147 1586.2683,-153.4384 1568,-134 1547.3551,-112.0328 1463.2768,-95.2986 1416.2439,-87.4397"/>
<polygon fill="#191970" stroke="#191970" points="1416.6847,-83.9654 1406.2517,-85.8104 1415.5581,-90.8742 1416.6847,-83.9654"/>
</g>
<!-- Node20&#45;&gt;Node6 -->
<g id="edge39" class="edge">
<title>Node20&#45;&gt;Node6</title>
<path fill="none" stroke="#191970" d="M1599.3858,-268.2611C1599.2473,-251.2036 1600.6873,-223.0653 1610,-201 1617.989,-182.0712 1632.1665,-184.3759 1639,-165 1643.5825,-152.0066 1641.1871,-147.6031 1639,-134 1637.2218,-122.9405 1633.425,-111.038 1629.8697,-101.4644"/>
<polygon fill="#191970" stroke="#191970" points="1633.1226,-100.1724 1626.2136,-92.1402 1626.6057,-102.7278 1633.1226,-100.1724"/>
</g>
<!-- Node20&#45;&gt;Node7 -->
<g id="edge40" class="edge">
<title>Node20&#45;&gt;Node7</title>
<path fill="none" stroke="#191970" d="M1527.3476,-276.7472C1369.8955,-261.251 1002.4124,-220.1828 891,-165 872.9676,-156.0685 874.8347,-145.0242 858,-134 837.9344,-120.8601 813.9589,-109.7851 792.7321,-101.3124"/>
<polygon fill="#191970" stroke="#191970" points="793.7852,-97.9667 783.1966,-97.6046 791.2483,-104.4908 793.7852,-97.9667"/>
</g>
<!-- Node21 -->
<g id="node22" class="node">
<title>Node21</title>
<polygon fill="#ffffff" stroke="#bfbfbf" points="1619,-207 1619,-226 1683,-226 1683,-207 1619,-207"/>
<text text-anchor="middle" x="1651" y="-214" font-family="Helvetica,sans-Serif" font-size="10.00" fill="#000000">algorithm</text>
</g>
<!-- Node20&#45;&gt;Node21 -->
<g id="edge36" class="edge">
<title>Node20&#45;&gt;Node21</title>
<path fill="none" stroke="#191970" d="M1611.5727,-268.2967C1619.2873,-258.1618 1629.4551,-244.804 1637.5329,-234.1921"/>
<polygon fill="#191970" stroke="#191970" points="1640.4549,-236.1319 1643.7268,-226.055 1634.8849,-231.8921 1640.4549,-236.1319"/>
</g>
<!-- Node22 -->
<g id="node23" class="node">
<title>Node22</title>
<g id="a_node23"><a xlink:href="drake__optional_8h.html" target="_top" xlink:title="Provides drake::optional as an alias for the appropriate implementation of std::optional or std::expe...">
<polygon fill="#ffffff" stroke="#000000" points="1796.5,-134.5 1796.5,-164.5 1917.5,-164.5 1917.5,-134.5 1796.5,-134.5"/>
<text text-anchor="start" x="1804.5" y="-152.5" font-family="Helvetica,sans-Serif" font-size="10.00" fill="#000000">drake/common/drake</text>
<text text-anchor="middle" x="1857" y="-141.5" font-family="Helvetica,sans-Serif" font-size="10.00" fill="#000000">_optional.h</text>
</a>
</g>
</g>
<!-- Node20&#45;&gt;Node22 -->
<g id="edge41" class="edge">
<title>Node20&#45;&gt;Node22</title>
<path fill="none" stroke="#191970" d="M1672.8558,-276.2511C1759.0783,-266.9237 1892.9362,-249.7917 1908,-232 1924.0414,-213.0536 1904.6919,-188.5678 1885.3942,-171.2066"/>
<polygon fill="#191970" stroke="#191970" points="1887.6672,-168.545 1877.795,-164.6991 1883.1141,-173.8619 1887.6672,-168.545"/>
</g>
<!-- Node25 -->
<g id="node26" class="node">
<title>Node25</title>
<g id="a_node26"><a xlink:href="drake__variant_8h.html" target="_top" xlink:title="Provides drake::variant as an alias for the appropriate implementation of std::variant or or stx::var...">
<polygon fill="#ffffff" stroke="#000000" points="1777.5,-201.5 1777.5,-231.5 1898.5,-231.5 1898.5,-201.5 1777.5,-201.5"/>
<text text-anchor="start" x="1785.5" y="-219.5" font-family="Helvetica,sans-Serif" font-size="10.00" fill="#000000">drake/common/drake</text>
<text text-anchor="middle" x="1838" y="-208.5" font-family="Helvetica,sans-Serif" font-size="10.00" fill="#000000">_variant.h</text>
</a>
</g>
</g>
<!-- Node20&#45;&gt;Node25 -->
<g id="edge44" class="edge">
<title>Node20&#45;&gt;Node25</title>
<path fill="none" stroke="#191970" d="M1653.4118,-268.4639C1689.2674,-258.3701 1736.6759,-245.024 1774.4689,-234.3848"/>
<polygon fill="#191970" stroke="#191970" points="1775.6778,-237.6806 1784.3552,-231.6017 1773.7809,-230.9425 1775.6778,-237.6806"/>
</g>
<!-- Node26 -->
<g id="node27" class="node">
<title>Node26</title>
<g id="a_node27"><a xlink:href="type__safe__index_8h.html" target="_top" xlink:title="drake/common/type_safe\l_index.h">
<polygon fill="#ffffff" stroke="#000000" points="1345.5,-201.5 1345.5,-231.5 1486.5,-231.5 1486.5,-201.5 1345.5,-201.5"/>
<text text-anchor="start" x="1353.5" y="-219.5" font-family="Helvetica,sans-Serif" font-size="10.00" fill="#000000">drake/common/type_safe</text>
<text text-anchor="middle" x="1416" y="-208.5" font-family="Helvetica,sans-Serif" font-size="10.00" fill="#000000">_index.h</text>
</a>
</g>
</g>
<!-- Node20&#45;&gt;Node26 -->
<g id="edge46" class="edge">
<title>Node20&#45;&gt;Node26</title>
<path fill="none" stroke="#191970" d="M1558.7068,-268.4639C1531.5764,-258.5849 1495.8902,-245.5905 1466.9914,-235.0675"/>
<polygon fill="#191970" stroke="#191970" points="1468.0673,-231.7345 1457.4733,-231.6017 1465.6722,-238.312 1468.0673,-231.7345"/>
</g>
<!-- Node23 -->
<g id="node24" class="node">
<title>Node23</title>
<polygon fill="#ffffff" stroke="#bfbfbf" points="1829,-73 1829,-92 1919,-92 1919,-73 1829,-73"/>
<text text-anchor="middle" x="1874" y="-80" font-family="Helvetica,sans-Serif" font-size="10.00" fill="#000000">stx/variant.hpp</text>
</g>
<!-- Node22&#45;&gt;Node23 -->
<g id="edge42" class="edge">
<title>Node22&#45;&gt;Node23</title>
<path fill="none" stroke="#191970" d="M1860.8576,-134.2967C1863.3005,-124.6685 1866.4815,-112.1318 1869.102,-101.8038"/>
<polygon fill="#191970" stroke="#191970" points="1872.5086,-102.6086 1871.5756,-92.055 1865.7236,-100.887 1872.5086,-102.6086"/>
</g>
<!-- Node24 -->
<g id="node25" class="node">
<title>Node24</title>
<polygon fill="#ffffff" stroke="#bfbfbf" points="1715.5,-73 1715.5,-92 1810.5,-92 1810.5,-73 1715.5,-73"/>
<text text-anchor="middle" x="1763" y="-80" font-family="Helvetica,sans-Serif" font-size="10.00" fill="#000000">stx/optional.hpp</text>
</g>
<!-- Node22&#45;&gt;Node24 -->
<g id="edge43" class="edge">
<title>Node22&#45;&gt;Node24</title>
<path fill="none" stroke="#191970" d="M1835.6699,-134.2967C1820.4555,-123.4524 1800.0643,-108.9182 1784.7547,-98.006"/>
<polygon fill="#191970" stroke="#191970" points="1786.5802,-95.0091 1776.4055,-92.055 1782.5172,-100.7093 1786.5802,-95.0091"/>
</g>
<!-- Node25&#45;&gt;Node22 -->
<g id="edge45" class="edge">
<title>Node25&#45;&gt;Node22</title>
<path fill="none" stroke="#191970" d="M1842.3114,-201.2967C1844.5706,-193.3299 1847.3946,-183.3718 1849.9611,-174.3213"/>
<polygon fill="#191970" stroke="#191970" points="1853.3446,-175.2187 1852.7057,-164.6432 1846.6101,-173.3089 1853.3446,-175.2187"/>
</g>
<!-- Node26&#45;&gt;Node3 -->
<g id="edge49" class="edge">
<title>Node26&#45;&gt;Node3</title>
<path fill="none" stroke="#191970" d="M1412.3914,-201.389C1406.5588,-176.9649 1395.0656,-128.8371 1388.6351,-101.9095"/>
<polygon fill="#191970" stroke="#191970" points="1392.0206,-101.0177 1386.2935,-92.1042 1385.2121,-102.6437 1392.0206,-101.0177"/>
</g>
<!-- Node26&#45;&gt;Node7 -->
<g id="edge50" class="edge">
<title>Node26&#45;&gt;Node7</title>
<path fill="none" stroke="#191970" d="M1345.0996,-213.2774C1230.0772,-207.3211 1008.2891,-192.6043 935,-165 912.6136,-156.5682 912.3362,-144.8174 891,-134 864.0611,-120.3421 832.6899,-109.0568 805.3918,-100.567"/>
<polygon fill="#191970" stroke="#191970" points="806.1205,-97.1303 795.5347,-97.5664 804.082,-103.8269 806.1205,-97.1303"/>
</g>
<!-- Node27 -->
<g id="node28" class="node">
<title>Node27</title>
<polygon fill="#ffffff" stroke="#bfbfbf" points="1493.5,-140 1493.5,-159 1558.5,-159 1558.5,-140 1493.5,-140"/>
<text text-anchor="middle" x="1526" y="-147" font-family="Helvetica,sans-Serif" font-size="10.00" fill="#000000">functional</text>
</g>
<!-- Node26&#45;&gt;Node27 -->
<g id="edge47" class="edge">
<title>Node26&#45;&gt;Node27</title>
<path fill="none" stroke="#191970" d="M1440.6861,-201.4639C1458.8102,-190.4247 1483.3209,-175.4954 1501.42,-164.4715"/>
<polygon fill="#191970" stroke="#191970" points="1503.5126,-167.2951 1510.2324,-159.1039 1499.8712,-161.3167 1503.5126,-167.2951"/>
</g>
<!-- Node28 -->
<g id="node29" class="node">
<title>Node28</title>
<polygon fill="#ffffff" stroke="#bfbfbf" points="1431,-140 1431,-159 1475,-159 1475,-140 1431,-140"/>
<text text-anchor="middle" x="1453" y="-147" font-family="Helvetica,sans-Serif" font-size="10.00" fill="#000000">limits</text>
</g>
<!-- Node26&#45;&gt;Node28 -->
<g id="edge48" class="edge">
<title>Node26&#45;&gt;Node28</title>
<path fill="none" stroke="#191970" d="M1424.3959,-201.2967C1429.8808,-191.3645 1437.0751,-178.3371 1442.8763,-167.8321"/>
<polygon fill="#191970" stroke="#191970" points="1445.953,-169.5009 1447.7234,-159.055 1439.8252,-166.1169 1445.953,-169.5009"/>
</g>
<!-- Node29 -->
<g id="node30" class="node">
<title>Node29</title>
<g id="a_node30"><a xlink:href="drake__throw_8h.html" target="_top" xlink:title="Provides a convenient wrapper to throw an exception when a condition is unmet. ">
<polygon fill="#ffffff" stroke="#000000" points="943.5,-134.5 943.5,-164.5 1064.5,-164.5 1064.5,-134.5 943.5,-134.5"/>
<text text-anchor="start" x="951.5" y="-152.5" font-family="Helvetica,sans-Serif" font-size="10.00" fill="#000000">drake/common/drake</text>
<text text-anchor="middle" x="1004" y="-141.5" font-family="Helvetica,sans-Serif" font-size="10.00" fill="#000000">_throw.h</text>
</a>
</g>
</g>
<!-- Node26&#45;&gt;Node29 -->
<g id="edge51" class="edge">
<title>Node26&#45;&gt;Node29</title>
<path fill="none" stroke="#191970" d="M1345.3519,-207.2997C1278.2649,-198.2357 1174.3811,-183.3536 1074.6067,-165.0381"/>
<polygon fill="#191970" stroke="#191970" points="1075.1243,-161.5745 1064.6545,-163.197 1073.851,-168.4577 1075.1243,-161.5745"/>
</g>
<!-- Node30 -->
<g id="node31" class="node">
<title>Node30</title>
<g id="a_node31"><a xlink:href="nice__type__name_8h.html" target="_top" xlink:title="drake/common/nice_type\l_name.h">
<polygon fill="#ffffff" stroke="#000000" points="1083,-134.5 1083,-164.5 1223,-164.5 1223,-134.5 1083,-134.5"/>
<text text-anchor="start" x="1091" y="-152.5" font-family="Helvetica,sans-Serif" font-size="10.00" fill="#000000">drake/common/nice_type</text>
<text text-anchor="middle" x="1153" y="-141.5" font-family="Helvetica,sans-Serif" font-size="10.00" fill="#000000">_name.h</text>
</a>
</g>
</g>
<!-- Node26&#45;&gt;Node30 -->
<g id="edge54" class="edge">
<title>Node26&#45;&gt;Node30</title>
<path fill="none" stroke="#191970" d="M1356.9777,-201.4639C1317.0186,-191.2842 1264.0747,-177.7966 1222.1406,-167.1138"/>
<polygon fill="#191970" stroke="#191970" points="1222.8343,-163.6788 1212.2798,-164.6017 1221.1062,-170.4621 1222.8343,-163.6788"/>
</g>
<!-- Node29&#45;&gt;Node7 -->
<g id="edge53" class="edge">
<title>Node29&#45;&gt;Node7</title>
<path fill="none" stroke="#191970" d="M944.3044,-134.4639C903.8043,-124.2627 850.1157,-110.7397 807.6609,-100.0462"/>
<polygon fill="#191970" stroke="#191970" points="808.508,-96.6503 797.956,-97.6017 806.7982,-103.4383 808.508,-96.6503"/>
</g>
<!-- Node29&#45;&gt;Node8 -->
<g id="edge52" class="edge">
<title>Node29&#45;&gt;Node8</title>
<path fill="none" stroke="#191970" d="M968.9289,-134.389C907.9603,-108.1196 783.3504,-54.4291 724.7692,-29.1883"/>
<polygon fill="#191970" stroke="#191970" points="725.859,-25.8469 715.2903,-25.1042 723.0891,-32.2756 725.859,-25.8469"/>
</g>
<!-- Node30&#45;&gt;Node2 -->
<g id="edge55" class="edge">
<title>Node30&#45;&gt;Node2</title>
<path fill="none" stroke="#191970" d="M1082.8677,-135.2366C1079.8768,-134.7876 1076.9114,-134.3722 1074,-134 811.6502,-100.4648 743.2197,-123.8343 480,-98 455.1172,-95.5578 427.312,-91.798 405.3915,-88.5931"/>
<polygon fill="#191970" stroke="#191970" points="405.8598,-85.1244 395.4546,-87.1196 404.833,-92.0486 405.8598,-85.1244"/>
</g>
<!-- Node30&#45;&gt;Node3 -->
<g id="edge56" class="edge">
<title>Node30&#45;&gt;Node3</title>
<path fill="none" stroke="#191970" d="M1204.8409,-134.4639C1249.9504,-121.3802 1313.9001,-102.832 1351.9436,-91.7977"/>
<polygon fill="#191970" stroke="#191970" points="1353.3205,-95.0427 1361.9497,-88.8955 1351.3705,-88.3198 1353.3205,-95.0427"/>
</g>
<!-- Node30&#45;&gt;Node5 -->
<g id="edge58" class="edge">
<title>Node30&#45;&gt;Node5</title>
<path fill="none" stroke="#191970" d="M1131.3605,-134.3719C1102.1665,-114.872 1047.8326,-81.7275 996,-67 927.7703,-47.6135 426.6114,-23.22 292.7782,-16.9975"/>
<polygon fill="#191970" stroke="#191970" points="292.8803,-13.4986 282.7292,-16.5324 292.5566,-20.4911 292.8803,-13.4986"/>
</g>
<!-- Node30&#45;&gt;Node6 -->
<g id="edge59" class="edge">
<title>Node30&#45;&gt;Node6</title>
<path fill="none" stroke="#191970" d="M1223.214,-139.4694C1325.7186,-124.8259 1512.3864,-98.1591 1588.4213,-87.297"/>
<polygon fill="#191970" stroke="#191970" points="1588.9911,-90.7512 1598.3956,-85.8721 1588.0011,-83.8215 1588.9911,-90.7512"/>
</g>
<!-- Node30&#45;&gt;Node17 -->
<g id="edge60" class="edge">
<title>Node30&#45;&gt;Node17</title>
<path fill="none" stroke="#191970" d="M1153,-134.2967C1153,-126.5013 1153,-116.7991 1153,-107.9064"/>
<polygon fill="#191970" stroke="#191970" points="1156.5001,-107.6431 1153,-97.6432 1149.5001,-107.6432 1156.5001,-107.6431"/>
</g>
<!-- Node31 -->
<g id="node32" class="node">
<title>Node31</title>
<polygon fill="#ffffff" stroke="#bfbfbf" points="929.5,-73 929.5,-92 986.5,-92 986.5,-73 929.5,-73"/>
<text text-anchor="middle" x="958" y="-80" font-family="Helvetica,sans-Serif" font-size="10.00" fill="#000000">typeinfo</text>
</g>
<!-- Node30&#45;&gt;Node31 -->
<g id="edge57" class="edge">
<title>Node30&#45;&gt;Node31</title>
<path fill="none" stroke="#191970" d="M1109.2382,-134.4639C1074.9441,-122.6808 1027.7509,-106.4657 995.2492,-95.2984"/>
<polygon fill="#191970" stroke="#191970" points="996.2593,-91.9447 985.6646,-92.0053 993.9846,-98.5649 996.2593,-91.9447"/>
</g>
<!-- Node32&#45;&gt;Node2 -->
<g id="edge62" class="edge">
<title>Node32&#45;&gt;Node2</title>
<path fill="none" stroke="#191970" d="M665.4365,-203.134C660.5574,-202.3705 655.7113,-201.6504 651,-201 610.521,-195.4121 312.4438,-195.2756 285,-165 262.582,-140.2687 303.4694,-112.8551 334.8761,-96.6801"/>
<polygon fill="#191970" stroke="#191970" points="336.8348,-99.6155 344.238,-92.0364 333.7243,-93.3445 336.8348,-99.6155"/>
</g>
<!-- Node32&#45;&gt;Node3 -->
<g id="edge64" class="edge">
<title>Node32&#45;&gt;Node3</title>
<path fill="none" stroke="#191970" d="M810.6402,-213.9153C935.0664,-208.7401 1183.448,-194.9359 1265,-165 1305.1778,-150.2516 1344.5469,-118.6319 1366.4133,-99.1039"/>
<polygon fill="#191970" stroke="#191970" points="1368.8732,-101.5974 1373.902,-92.272 1364.1555,-96.426 1368.8732,-101.5974"/>
</g>
<!-- Node32&#45;&gt;Node5 -->
<g id="edge67" class="edge">
<title>Node32&#45;&gt;Node5</title>
<path fill="none" stroke="#191970" d="M665.4837,-213.3872C553.3871,-207.7473 343.7724,-193.6684 275,-165 231.2419,-146.7591 212.4427,-140.7739 192,-98 186.0589,-85.569 185.8673,-79.3376 192,-67 199.8947,-51.1176 215.2857,-38.8241 229.431,-30.2377"/>
<polygon fill="#191970" stroke="#191970" points="231.4765,-33.1017 238.4553,-25.13 228.0285,-27.0098 231.4765,-33.1017"/>
</g>
<!-- Node32&#45;&gt;Node8 -->
<g id="edge65" class="edge">
<title>Node32&#45;&gt;Node8</title>
<path fill="none" stroke="#191970" d="M725.48,-201.2328C708.7623,-179.7561 679.981,-138.6814 669,-98 665.4095,-84.6983 666.0195,-80.4515 669,-67 671.534,-55.5636 676.8812,-43.6558 681.8866,-34.1747"/>
<polygon fill="#191970" stroke="#191970" points="685.0259,-35.7315 686.8466,-25.2943 678.9146,-32.318 685.0259,-35.7315"/>
</g>
<!-- Node32&#45;&gt;Node9 -->
<g id="edge69" class="edge">
<title>Node32&#45;&gt;Node9</title>
<path fill="none" stroke="#191970" d="M810.8145,-214.5858C929.5008,-210.5263 1158.7807,-198.4928 1232,-165 1250.2994,-156.6293 1249.6408,-147.0013 1265,-134 1302.5196,-102.2404 1308.2164,-87.2687 1353,-67 1411.8268,-40.3755 1484.4795,-27.4267 1537.1678,-21.1825"/>
<polygon fill="#191970" stroke="#191970" points="1537.8864,-24.6236 1547.4293,-20.021 1537.0991,-17.668 1537.8864,-24.6236"/>
</g>
<!-- Node32&#45;&gt;Node13 -->
<g id="edge63" class="edge">
<title>Node32&#45;&gt;Node13</title>
<path fill="none" stroke="#191970" d="M755.6994,-201.2967C768.0881,-190.6551 784.6135,-176.4602 797.2315,-165.6217"/>
<polygon fill="#191970" stroke="#191970" points="799.5712,-168.2259 804.8763,-159.055 795.01,-162.9159 799.5712,-168.2259"/>
</g>
<!-- Node32&#45;&gt;Node14 -->
<g id="edge68" class="edge">
<title>Node32&#45;&gt;Node14</title>
<path fill="none" stroke="#191970" d="M694.4626,-201.4639C665.7333,-191.5419 627.9047,-178.4774 597.3656,-167.9304"/>
<polygon fill="#191970" stroke="#191970" points="598.322,-164.5579 587.7273,-164.6017 596.0369,-171.1744 598.322,-164.5579"/>
</g>
<!-- Node32&#45;&gt;Node30 -->
<g id="edge73" class="edge">
<title>Node32&#45;&gt;Node30</title>
<path fill="none" stroke="#191970" d="M810.5676,-206.2681C876.4526,-196.7747 976.5405,-181.8463 1072.9033,-165.1535"/>
<polygon fill="#191970" stroke="#191970" points="1073.5655,-168.591 1082.8169,-163.4276 1072.3648,-161.6947 1073.5655,-168.591"/>
</g>
<!-- Node32&#45;&gt;Node31 -->
<g id="edge66" class="edge">
<title>Node32&#45;&gt;Node31</title>
<path fill="none" stroke="#191970" d="M740.7332,-201.3779C744.881,-182.815 754.5557,-151.6353 775,-134 796.5952,-115.3719 872.4317,-98.4246 919.434,-89.3781"/>
<polygon fill="#191970" stroke="#191970" points="920.1059,-92.8132 929.2818,-87.5168 918.8058,-85.935 920.1059,-92.8132"/>
</g>
<!-- Node33 -->
<g id="node34" class="node">
<title>Node33</title>
<g id="a_node34"><a xlink:href="is__cloneable_8h.html" target="_top" xlink:title="drake/common/is_cloneable.h">
<polygon fill="#ffffff" stroke="#000000" points="294.5,-140 294.5,-159 457.5,-159 457.5,-140 294.5,-140"/>
<text text-anchor="middle" x="376" y="-147" font-family="Helvetica,sans-Serif" font-size="10.00" fill="#000000">drake/common/is_cloneable.h</text>
</a>
</g>
</g>
<!-- Node32&#45;&gt;Node33 -->
<g id="edge70" class="edge">
<title>Node32&#45;&gt;Node33</title>
<path fill="none" stroke="#191970" d="M665.1794,-203.0221C598.3898,-190.6606 500.5591,-172.5538 437.5741,-160.8963"/>
<polygon fill="#191970" stroke="#191970" points="437.8603,-157.3899 427.3903,-159.0115 436.5863,-164.273 437.8603,-157.3899"/>
</g>
<!-- Node33&#45;&gt;Node2 -->
<g id="edge71" class="edge">
<title>Node33&#45;&gt;Node2</title>
<path fill="none" stroke="#191970" d="M374.5672,-139.9005C373.0969,-130.0495 370.7679,-114.4451 368.9091,-101.9912"/>
<polygon fill="#191970" stroke="#191970" points="372.368,-101.4554 367.4301,-92.0817 365.4447,-102.4888 372.368,-101.4554"/>
</g>
<!-- Node33&#45;&gt;Node8 -->
<g id="edge72" class="edge">
<title>Node33&#45;&gt;Node8</title>
<path fill="none" stroke="#191970" d="M385.058,-139.9781C402.018,-122.7261 440.4386,-86.3023 480,-67 534.5603,-40.3796 603.8602,-26.9361 648.3264,-20.5854"/>
<polygon fill="#191970" stroke="#191970" points="648.8137,-24.0514 658.2467,-19.2275 647.8644,-17.116 648.8137,-24.0514"/>
</g>
</g>
</svg>
        <g id="navigator" transform="translate(0 0)" fill="#404254">
                <rect fill="#f2f5e9" fill-opacity="0.5" stroke="#606060" stroke-width=".5" x="0" y="0" width="60" height="60"/>
                <use id="zoomplus" xlink:href="#zoomPlus" x="17" y="9" onmousedown="handleZoom(evt,'in')"/>
                <use id="zoomminus" xlink:href="#zoomMin" x="42" y="9" onmousedown="handleZoom(evt,'out')"/>
                <use id="reset" xlink:href="#resetDef" x="30" y="36" onmousedown="handleReset()"/>
                <g id="arrowUp" xlink:href="#dirArrow" transform="translate(30 24)" onmousedown="handlePan(0,-1)">
                  <use xlink:href="#rim" fill="#404040">
                        <set attributeName="fill" to="#808080" begin="arrowUp.mouseover" end="arrowUp.mouseout"/>
                  </use>
                  <path fill="none" stroke="white" stroke-width="1.5" d="M0,-3.0v7 M-2.5,-0.5L0,-3.0L2.5,-0.5"/>
                </g>
                <g id="arrowRight" xlink:href="#dirArrow" transform="rotate(90) translate(36 -43)" onmousedown="handlePan(1,0)">
                  <use xlink:href="#rim" fill="#404040">
                        <set attributeName="fill" to="#808080" begin="arrowRight.mouseover" end="arrowRight.mouseout"/>
                  </use>
                  <path fill="none" stroke="white" stroke-width="1.5" d="M0,-3.0v7 M-2.5,-0.5L0,-3.0L2.5,-0.5"/>
                </g>
                <g id="arrowDown" xlink:href="#dirArrow" transform="rotate(180) translate(-30 -48)" onmousedown="handlePan(0,1)">
                  <use xlink:href="#rim" fill="#404040">
                        <set attributeName="fill" to="#808080" begin="arrowDown.mouseover" end="arrowDown.mouseout"/>
                  </use>
                  <path fill="none" stroke="white" stroke-width="1.5" d="M0,-3.0v7 M-2.5,-0.5L0,-3.0L2.5,-0.5"/>
                </g>
                <g id="arrowLeft" xlink:href="#dirArrow" transform="rotate(270) translate(-36 17)" onmousedown="handlePan(-1,0)">
                  <use xlink:href="#rim" fill="#404040">
                        <set attributeName="fill" to="#808080" begin="arrowLeft.mouseover" end="arrowLeft.mouseout"/>
                  </use>
                  <path fill="none" stroke="white" stroke-width="1.5" d="M0,-3.0v7 M-2.5,-0.5L0,-3.0L2.5,-0.5"/>
                </g>
        </g>
        <svg viewBox="0 0 15 15" width="100%" height="30px" preserveAspectRatio="xMaxYMin meet">
         <g id="arrow_out" transform="scale(0.3 0.3)">
          <a xlink:href="dependency__tracker_8h__incl_org.svg" target="_base">
           <rect id="button" ry="5" rx="5" y="6" x="6" height="38" width="38"
                fill="#f2f5e9" fill-opacity="0.5" stroke="#606060" stroke-width="1.0"/>
           <path id="arrow"
             d="M 11.500037,31.436501 C 11.940474,20.09759 22.043105,11.32322 32.158766,21.979434 L 37.068811,17.246167 C 37.068811,17.246167 37.088388,32 37.088388,32 L 22.160133,31.978069 C 22.160133,31.978069 26.997745,27.140456 26.997745,27.140456 C 18.528582,18.264221 13.291696,25.230495 11.500037,31.436501 z"
             style="fill:#404040;"/>
          </a>
         </g>
        </svg>
</svg>
