<?xml version="1.0" encoding="UTF-8" standalone="no"?>
<!DOCTYPE svg PUBLIC "-//W3C//DTD SVG 1.1//EN"
 "http://www.w3.org/Graphics/SVG/1.1/DTD/svg11.dtd">
<!-- Generated by graphviz version 2.40.1 (20161225.0304)
 -->
<!-- Title: drake/bindings/pydrake/common/deprecation_pybind.h Pages: 1 -->
<svg width="206pt" height="162pt"
 viewBox="0.00 0.00 205.50 162.00" xmlns="http://www.w3.org/2000/svg" xmlns:xlink="http://www.w3.org/1999/xlink">
<g id="graph0" class="graph" transform="scale(1 1) rotate(0) translate(4 158)">
<title>drake/bindings/pydrake/common/deprecation_pybind.h</title>
<polygon fill="#ffffff" stroke="transparent" points="-4,4 -4,-158 201.5,-158 201.5,4 -4,4"/>
<!-- Node0 -->
<g id="node1" class="node">
<title>Node0</title>
<polygon fill="#bfbfbf" stroke="#000000" points="0,-123.5 0,-153.5 170,-153.5 170,-123.5 0,-123.5"/>
<text text-anchor="start" x="8" y="-141.5" font-family="Helvetica,sans-Serif" font-size="10.00" fill="#000000">drake/bindings/pydrake</text>
<text text-anchor="middle" x="85" y="-130.5" font-family="Helvetica,sans-Serif" font-size="10.00" fill="#000000">/common/deprecation_pybind.h</text>
</g>
<!-- Node1 -->
<g id="node2" class="node">
<title>Node1</title>
<polygon fill="#ffffff" stroke="#bfbfbf" points="25.5,-.5 25.5,-19.5 144.5,-19.5 144.5,-.5 25.5,-.5"/>
<text text-anchor="middle" x="85" y="-7.5" font-family="Helvetica,sans-Serif" font-size="10.00" fill="#000000">pybind11/pybind11.h</text>
</g>
<!-- Node0&#45;&gt;Node1 -->
<g id="edge1" class="edge">
<title>Node0&#45;&gt;Node1</title>
<path fill="none" stroke="#191970" d="M73.9861,-123.1204C67.6513,-113.3048 60.3104,-100.0194 57,-87 53.6048,-73.6471 53.28,-69.2661 57,-56 59.7878,-46.0584 65.3812,-36.1336 70.8407,-28.0613"/>
<polygon fill="#191970" stroke="#191970" points="73.7676,-29.9866 76.7911,-19.8323 68.0952,-25.8849 73.7676,-29.9866"/>
</g>
<!-- Node2 -->
<g id="node3" class="node">
<title>Node2</title>
<g id="a_node3"><a xlink:href="pydrake__pybind_8h.html" target="_top" xlink:title="drake/bindings/pydrake\l/pydrake_pybind.h">
<polygon fill="#ffffff" stroke="#000000" points="66.5,-56.5 66.5,-86.5 197.5,-86.5 197.5,-56.5 66.5,-56.5"/>
<text text-anchor="start" x="74.5" y="-74.5" font-family="Helvetica,sans-Serif" font-size="10.00" fill="#000000">drake/bindings/pydrake</text>
<text text-anchor="middle" x="132" y="-63.5" font-family="Helvetica,sans-Serif" font-size="10.00" fill="#000000">/pydrake_pybind.h</text>
</a>
</g>
</g>
<!-- Node0&#45;&gt;Node2 -->
<g id="edge2" class="edge">
<title>Node0&#45;&gt;Node2</title>
<path fill="none" stroke="#191970" d="M95.665,-123.2967C101.5541,-114.9016 108.9944,-104.2952 115.6062,-94.8698"/>
<polygon fill="#191970" stroke="#191970" points="118.4996,-96.8398 121.3772,-86.6432 112.769,-92.8198 118.4996,-96.8398"/>
</g>
<!-- Node2&#45;&gt;Node1 -->
<g id="edge3" class="edge">
<title>Node2&#45;&gt;Node1</title>
<path fill="none" stroke="#191970" d="M120.382,-56.2977C113.79,-47.672 105.5052,-36.8312 98.6099,-27.8087"/>
<polygon fill="#191970" stroke="#191970" points="101.3783,-25.6671 92.5253,-19.8469 95.8165,-29.9176 101.3783,-25.6671"/>
</g>
</g>
</svg>
