<?xml version="1.0" encoding="UTF-8" standalone="no"?>
<!DOCTYPE svg PUBLIC "-//W3C//DTD SVG 1.1//EN"
 "http://www.w3.org/Graphics/SVG/1.1/DTD/svg11.dtd">
<!-- Generated by graphviz version 2.40.1 (20161225.0304)
 -->
<!-- Title: drake/attic/systems/sensors/depth_sensor_specification.cc Pages: 1 -->
<svg width="308pt" height="173pt"
 viewBox="0.00 0.00 308.00 173.00" xmlns="http://www.w3.org/2000/svg" xmlns:xlink="http://www.w3.org/1999/xlink">
<g id="graph0" class="graph" transform="scale(1 1) rotate(0) translate(4 169)">
<title>drake/attic/systems/sensors/depth_sensor_specification.cc</title>
<polygon fill="#ffffff" stroke="transparent" points="-4,4 -4,-169 304,-169 304,4 -4,4"/>
<!-- Node0 -->
<g id="node1" class="node">
<title>Node0</title>
<polygon fill="#bfbfbf" stroke="#000000" points="97,-123.5 97,-164.5 222,-164.5 222,-123.5 97,-123.5"/>
<text text-anchor="start" x="105" y="-152.5" font-family="Helvetica,sans-Serif" font-size="10.00" fill="#000000">drake/attic/systems</text>
<text text-anchor="start" x="105" y="-141.5" font-family="Helvetica,sans-Serif" font-size="10.00" fill="#000000">/sensors/depth_sensor</text>
<text text-anchor="middle" x="159.5" y="-130.5" font-family="Helvetica,sans-Serif" font-size="10.00" fill="#000000">_specification.cc</text>
</g>
<!-- Node1 -->
<g id="node2" class="node">
<title>Node1</title>
<polygon fill="#ffffff" stroke="#bfbfbf" points="0,-56.5 0,-86.5 161,-86.5 161,-56.5 0,-56.5"/>
<text text-anchor="start" x="8" y="-74.5" font-family="Helvetica,sans-Serif" font-size="10.00" fill="#000000">drake/systems/sensors</text>
<text text-anchor="middle" x="80.5" y="-63.5" font-family="Helvetica,sans-Serif" font-size="10.00" fill="#000000">/depth_sensor_specification.h</text>
</g>
<!-- Node0&#45;&gt;Node1 -->
<g id="edge1" class="edge">
<title>Node0&#45;&gt;Node1</title>
<path fill="none" stroke="#191970" d="M137.0731,-123.4183C126.8948,-114.0775 114.8437,-103.018 104.4851,-93.5117"/>
<polygon fill="#191970" stroke="#191970" points="106.687,-90.7819 96.9528,-86.5991 101.954,-95.9393 106.687,-90.7819"/>
</g>
<!-- Node2 -->
<g id="node3" class="node">
<title>Node2</title>
<g id="a_node3"><a xlink:href="drake__assert_8h.html" target="_top" xlink:title="Provides Drake&#39;s assertion implementation. ">
<polygon fill="#ffffff" stroke="#000000" points="179,-56.5 179,-86.5 300,-86.5 300,-56.5 179,-56.5"/>
<text text-anchor="start" x="187" y="-74.5" font-family="Helvetica,sans-Serif" font-size="10.00" fill="#000000">drake/common/drake</text>
<text text-anchor="middle" x="239.5" y="-63.5" font-family="Helvetica,sans-Serif" font-size="10.00" fill="#000000">_assert.h</text>
</a>
</g>
</g>
<!-- Node0&#45;&gt;Node2 -->
<g id="edge2" class="edge">
<title>Node0&#45;&gt;Node2</title>
<path fill="none" stroke="#191970" d="M182.2108,-123.4183C192.5179,-114.0775 204.7215,-103.018 215.2113,-93.5117"/>
<polygon fill="#191970" stroke="#191970" points="217.7794,-95.9078 222.8389,-86.5991 213.0787,-90.7209 217.7794,-95.9078"/>
</g>
<!-- Node3 -->
<g id="node4" class="node">
<title>Node3</title>
<polygon fill="#ffffff" stroke="#bfbfbf" points="205,-.5 205,-19.5 274,-19.5 274,-.5 205,-.5"/>
<text text-anchor="middle" x="239.5" y="-7.5" font-family="Helvetica,sans-Serif" font-size="10.00" fill="#000000">type_traits</text>
</g>
<!-- Node2&#45;&gt;Node3 -->
<g id="edge3" class="edge">
<title>Node2&#45;&gt;Node3</title>
<path fill="none" stroke="#191970" d="M239.5,-56.2977C239.5,-48.3834 239.5,-38.6043 239.5,-30.0759"/>
<polygon fill="#191970" stroke="#191970" points="243.0001,-29.8469 239.5,-19.8469 236.0001,-29.847 243.0001,-29.8469"/>
</g>
</g>
</svg>
