<?xml version="1.0" encoding="UTF-8" standalone="no"?>
<!DOCTYPE svg PUBLIC "-//W3C//DTD SVG 1.1//EN"
 "http://www.w3.org/Graphics/SVG/1.1/DTD/svg11.dtd">
<!-- Generated by graphviz version 2.40.1 (20161225.0304)
 -->
<!-- Title: drake/multibody/parsing/detail_path_utils.cc Pages: 1 -->
<svg width="975pt" height="240pt"
 viewBox="0.00 0.00 974.50 240.00" xmlns="http://www.w3.org/2000/svg" xmlns:xlink="http://www.w3.org/1999/xlink">
<g id="graph0" class="graph" transform="scale(1 1) rotate(0) translate(4 236)">
<title>drake/multibody/parsing/detail_path_utils.cc</title>
<polygon fill="#ffffff" stroke="transparent" points="-4,4 -4,-236 970.5,-236 970.5,4 -4,4"/>
<!-- Node0 -->
<g id="node1" class="node">
<title>Node0</title>
<polygon fill="#bfbfbf" stroke="#000000" points="446,-201.5 446,-231.5 582,-231.5 582,-201.5 446,-201.5"/>
<text text-anchor="start" x="454" y="-219.5" font-family="Helvetica,sans-Serif" font-size="10.00" fill="#000000">drake/multibody/parsing</text>
<text text-anchor="middle" x="514" y="-208.5" font-family="Helvetica,sans-Serif" font-size="10.00" fill="#000000">/detail_path_utils.cc</text>
</g>
<!-- Node1 -->
<g id="node2" class="node">
<title>Node1</title>
<g id="a_node2"><a xlink:href="detail__path__utils_8h.html" target="_top" xlink:title="drake/multibody/parsing\l/detail_path_utils.h">
<polygon fill="#ffffff" stroke="#000000" points="66,-134.5 66,-164.5 202,-164.5 202,-134.5 66,-134.5"/>
<text text-anchor="start" x="74" y="-152.5" font-family="Helvetica,sans-Serif" font-size="10.00" fill="#000000">drake/multibody/parsing</text>
<text text-anchor="middle" x="134" y="-141.5" font-family="Helvetica,sans-Serif" font-size="10.00" fill="#000000">/detail_path_utils.h</text>
</a>
</g>
</g>
<!-- Node0&#45;&gt;Node1 -->
<g id="edge1" class="edge">
<title>Node0&#45;&gt;Node1</title>
<path fill="none" stroke="#191970" d="M445.6247,-204.4444C379.9431,-192.8636 280.8078,-175.3845 212.0608,-163.2633"/>
<polygon fill="#191970" stroke="#191970" points="212.6017,-159.8048 202.1458,-161.5152 211.3862,-166.6985 212.6017,-159.8048"/>
</g>
<!-- Node2 -->
<g id="node3" class="node">
<title>Node2</title>
<polygon fill="#ffffff" stroke="#bfbfbf" points="0,-6 0,-25 44,-25 44,-6 0,-6"/>
<text text-anchor="middle" x="22" y="-13" font-family="Helvetica,sans-Serif" font-size="10.00" fill="#000000">string</text>
</g>
<!-- Node0&#45;&gt;Node2 -->
<g id="edge9" class="edge">
<title>Node0&#45;&gt;Node2</title>
<path fill="none" stroke="#191970" d="M445.792,-212.8898C325.7,-205.9421 86.3738,-189.2255 57,-165 18.5524,-133.2911 17.5945,-68.162 19.8745,-35.338"/>
<polygon fill="#191970" stroke="#191970" points="23.378,-35.4489 20.7598,-25.1827 16.4044,-34.8409 23.378,-35.4489"/>
</g>
<!-- Node7 -->
<g id="node8" class="node">
<title>Node7</title>
<polygon fill="#ffffff" stroke="#bfbfbf" points="593,-140 593,-159 637,-159 637,-140 593,-140"/>
<text text-anchor="middle" x="615" y="-147" font-family="Helvetica,sans-Serif" font-size="10.00" fill="#000000">regex</text>
</g>
<!-- Node0&#45;&gt;Node7 -->
<g id="edge8" class="edge">
<title>Node0&#45;&gt;Node7</title>
<path fill="none" stroke="#191970" d="M536.6664,-201.4639C553.1549,-190.526 575.4004,-175.769 591.9722,-164.7759"/>
<polygon fill="#191970" stroke="#191970" points="594.1241,-167.5485 600.5224,-159.1039 590.2545,-161.7153 594.1241,-167.5485"/>
</g>
<!-- Node8 -->
<g id="node9" class="node">
<title>Node8</title>
<polygon fill="#ffffff" stroke="#bfbfbf" points="655.5,-140 655.5,-159 702.5,-159 702.5,-140 655.5,-140"/>
<text text-anchor="middle" x="679" y="-147" font-family="Helvetica,sans-Serif" font-size="10.00" fill="#000000">vector</text>
</g>
<!-- Node0&#45;&gt;Node8 -->
<g id="edge10" class="edge">
<title>Node0&#45;&gt;Node8</title>
<path fill="none" stroke="#191970" d="M554.7258,-201.4197C580.9645,-191.5053 615.711,-178.0046 646,-165 647.345,-164.4225 648.7163,-163.8229 650.0981,-163.2098"/>
<polygon fill="#191970" stroke="#191970" points="651.5551,-166.3922 659.2042,-159.0613 648.653,-160.0221 651.5551,-166.3922"/>
</g>
<!-- Node9 -->
<g id="node10" class="node">
<title>Node9</title>
<polygon fill="#ffffff" stroke="#bfbfbf" points="721,-140 721,-159 785,-159 785,-140 721,-140"/>
<text text-anchor="middle" x="753" y="-147" font-family="Helvetica,sans-Serif" font-size="10.00" fill="#000000">spruce.hh</text>
</g>
<!-- Node0&#45;&gt;Node9 -->
<g id="edge11" class="edge">
<title>Node0&#45;&gt;Node9</title>
<path fill="none" stroke="#191970" d="M577.8847,-201.4804C616.6581,-191.9492 666.9912,-178.8366 711,-165 713.5534,-164.1972 716.1798,-163.3299 718.8135,-162.43"/>
<polygon fill="#191970" stroke="#191970" points="720.0054,-165.7209 728.2648,-159.0852 717.67,-159.122 720.0054,-165.7209"/>
</g>
<!-- Node10 -->
<g id="node11" class="node">
<title>Node10</title>
<g id="a_node11"><a xlink:href="drake__assert_8h.html" target="_top" xlink:title="Provides Drake&#39;s assertion implementation. ">
<polygon fill="#ffffff" stroke="#000000" points="314.5,-134.5 314.5,-164.5 435.5,-164.5 435.5,-134.5 314.5,-134.5"/>
<text text-anchor="start" x="322.5" y="-152.5" font-family="Helvetica,sans-Serif" font-size="10.00" fill="#000000">drake/common/drake</text>
<text text-anchor="middle" x="375" y="-141.5" font-family="Helvetica,sans-Serif" font-size="10.00" fill="#000000">_assert.h</text>
</a>
</g>
</g>
<!-- Node0&#45;&gt;Node10 -->
<g id="edge12" class="edge">
<title>Node0&#45;&gt;Node10</title>
<path fill="none" stroke="#191970" d="M482.8057,-201.4639C463.0039,-191.9191 437.1688,-179.4663 415.7539,-169.144"/>
<polygon fill="#191970" stroke="#191970" points="417.099,-165.907 406.5711,-164.7177 414.0595,-172.2127 417.099,-165.907"/>
</g>
<!-- Node12 -->
<g id="node13" class="node">
<title>Node12</title>
<g id="a_node13"><a xlink:href="drake__optional_8h.html" target="_top" xlink:title="Provides drake::optional as an alias for the appropriate implementation of std::optional or std::expe...">
<polygon fill="#ffffff" stroke="#000000" points="803.5,-134.5 803.5,-164.5 924.5,-164.5 924.5,-134.5 803.5,-134.5"/>
<text text-anchor="start" x="811.5" y="-152.5" font-family="Helvetica,sans-Serif" font-size="10.00" fill="#000000">drake/common/drake</text>
<text text-anchor="middle" x="864" y="-141.5" font-family="Helvetica,sans-Serif" font-size="10.00" fill="#000000">_optional.h</text>
</a>
</g>
</g>
<!-- Node0&#45;&gt;Node12 -->
<g id="edge14" class="edge">
<title>Node0&#45;&gt;Node12</title>
<path fill="none" stroke="#191970" d="M582.0275,-204.6945C636.4811,-195.0822 715.0557,-180.85 793.2879,-165.1044"/>
<polygon fill="#191970" stroke="#191970" points="794.2138,-168.4881 803.322,-163.076 792.8268,-161.6269 794.2138,-168.4881"/>
</g>
<!-- Node15 -->
<g id="node16" class="node">
<title>Node15</title>
<g id="a_node16"><a xlink:href="never__destroyed_8h.html" target="_top" xlink:title="drake/common/never\l_destroyed.h">
<polygon fill="#ffffff" stroke="#000000" points="453.5,-134.5 453.5,-164.5 574.5,-164.5 574.5,-134.5 453.5,-134.5"/>
<text text-anchor="start" x="461.5" y="-152.5" font-family="Helvetica,sans-Serif" font-size="10.00" fill="#000000">drake/common/never</text>
<text text-anchor="middle" x="514" y="-141.5" font-family="Helvetica,sans-Serif" font-size="10.00" fill="#000000">_destroyed.h</text>
</a>
</g>
</g>
<!-- Node0&#45;&gt;Node15 -->
<g id="edge17" class="edge">
<title>Node0&#45;&gt;Node15</title>
<path fill="none" stroke="#191970" d="M514,-201.2967C514,-193.5013 514,-183.7991 514,-174.9064"/>
<polygon fill="#191970" stroke="#191970" points="517.5001,-174.6431 514,-164.6432 510.5001,-174.6432 517.5001,-174.6431"/>
</g>
<!-- Node18 -->
<g id="node19" class="node">
<title>Node18</title>
<g id="a_node19"><a xlink:href="text__logging_8h.html" target="_top" xlink:title="This is the entry point for all text logging within Drake. ">
<polygon fill="#ffffff" stroke="#000000" points="220.5,-73 220.5,-92 383.5,-92 383.5,-73 220.5,-73"/>
<text text-anchor="middle" x="302" y="-80" font-family="Helvetica,sans-Serif" font-size="10.00" fill="#000000">drake/common/text_logging.h</text>
</a>
</g>
</g>
<!-- Node0&#45;&gt;Node18 -->
<g id="edge22" class="edge">
<title>Node0&#45;&gt;Node18</title>
<path fill="none" stroke="#191970" d="M445.8099,-208.5854C391.8576,-200.7812 322.7428,-186.817 305,-165 290.7796,-147.5142 292.8976,-120.3807 296.6474,-102.0501"/>
<polygon fill="#191970" stroke="#191970" points="300.0868,-102.7151 298.9968,-92.1765 293.2769,-101.0946 300.0868,-102.7151"/>
</g>
<!-- Node1&#45;&gt;Node2 -->
<g id="edge2" class="edge">
<title>Node1&#45;&gt;Node2</title>
<path fill="none" stroke="#191970" d="M103.0763,-134.366C87.5823,-125.5214 69.5083,-113.1165 57,-98 41.5578,-79.3378 31.9532,-52.8618 26.7973,-34.9783"/>
<polygon fill="#191970" stroke="#191970" points="30.1193,-33.8531 24.1495,-25.1003 23.358,-35.6656 30.1193,-33.8531"/>
</g>
<!-- Node3 -->
<g id="node4" class="node">
<title>Node3</title>
<g id="a_node4"><a xlink:href="multibody_2parsing_2package__map_8h.html" target="_top" xlink:title="drake/multibody/parsing\l/package_map.h">
<polygon fill="#ffffff" stroke="#000000" points="66,-67.5 66,-97.5 202,-97.5 202,-67.5 66,-67.5"/>
<text text-anchor="start" x="74" y="-85.5" font-family="Helvetica,sans-Serif" font-size="10.00" fill="#000000">drake/multibody/parsing</text>
<text text-anchor="middle" x="134" y="-74.5" font-family="Helvetica,sans-Serif" font-size="10.00" fill="#000000">/package_map.h</text>
</a>
</g>
</g>
<!-- Node1&#45;&gt;Node3 -->
<g id="edge3" class="edge">
<title>Node1&#45;&gt;Node3</title>
<path fill="none" stroke="#191970" d="M134,-134.2967C134,-126.5013 134,-116.7991 134,-107.9064"/>
<polygon fill="#191970" stroke="#191970" points="137.5001,-107.6431 134,-97.6432 130.5001,-107.6432 137.5001,-107.6431"/>
</g>
<!-- Node3&#45;&gt;Node2 -->
<g id="edge5" class="edge">
<title>Node3&#45;&gt;Node2</title>
<path fill="none" stroke="#191970" d="M108.865,-67.4639C90.3268,-56.3741 65.226,-41.3584 46.7738,-30.32"/>
<polygon fill="#191970" stroke="#191970" points="48.4328,-27.2341 38.0543,-25.1039 44.8392,-33.2412 48.4328,-27.2341"/>
</g>
<!-- Node4 -->
<g id="node5" class="node">
<title>Node4</title>
<polygon fill="#ffffff" stroke="#bfbfbf" points="62,-6 62,-25 100,-25 100,-6 62,-6"/>
<text text-anchor="middle" x="81" y="-13" font-family="Helvetica,sans-Serif" font-size="10.00" fill="#000000">map</text>
</g>
<!-- Node3&#45;&gt;Node4 -->
<g id="edge4" class="edge">
<title>Node3&#45;&gt;Node4</title>
<path fill="none" stroke="#191970" d="M121.9735,-67.2967C113.9563,-57.1618 103.3898,-43.804 94.9953,-33.1921"/>
<polygon fill="#191970" stroke="#191970" points="97.5075,-30.7264 88.5584,-25.055 92.0175,-35.0692 97.5075,-30.7264"/>
</g>
<!-- Node5 -->
<g id="node6" class="node">
<title>Node5</title>
<g id="a_node6"><a xlink:href="drake__copyable_8h.html" target="_top" xlink:title="Provides careful macros to selectively enable or disable the special member functions for copy&#45;constr...">
<polygon fill="#ffffff" stroke="#000000" points="257.5,-.5 257.5,-30.5 378.5,-30.5 378.5,-.5 257.5,-.5"/>
<text text-anchor="start" x="265.5" y="-18.5" font-family="Helvetica,sans-Serif" font-size="10.00" fill="#000000">drake/common/drake</text>
<text text-anchor="middle" x="318" y="-7.5" font-family="Helvetica,sans-Serif" font-size="10.00" fill="#000000">_copyable.h</text>
</a>
</g>
</g>
<!-- Node3&#45;&gt;Node5 -->
<g id="edge6" class="edge">
<title>Node3&#45;&gt;Node5</title>
<path fill="none" stroke="#191970" d="M175.2932,-67.4639C202.4236,-57.5849 238.1098,-44.5905 267.0086,-34.0675"/>
<polygon fill="#191970" stroke="#191970" points="268.3278,-37.312 276.5267,-30.6017 265.9327,-30.7345 268.3278,-37.312"/>
</g>
<!-- Node6 -->
<g id="node7" class="node">
<title>Node6</title>
<g id="a_node7"><a xlink:href="drake__deprecated_8h.html" target="_top" xlink:title="Provides a portable macro for use in generating compile&#45;time warnings for use of code that is permitt...">
<polygon fill="#ffffff" stroke="#000000" points="118.5,-.5 118.5,-30.5 239.5,-30.5 239.5,-.5 118.5,-.5"/>
<text text-anchor="start" x="126.5" y="-18.5" font-family="Helvetica,sans-Serif" font-size="10.00" fill="#000000">drake/common/drake</text>
<text text-anchor="middle" x="179" y="-7.5" font-family="Helvetica,sans-Serif" font-size="10.00" fill="#000000">_deprecated.h</text>
</a>
</g>
</g>
<!-- Node3&#45;&gt;Node6 -->
<g id="edge7" class="edge">
<title>Node3&#45;&gt;Node6</title>
<path fill="none" stroke="#191970" d="M144.2112,-67.2967C149.7921,-58.9873 156.8281,-48.5115 163.1098,-39.1587"/>
<polygon fill="#191970" stroke="#191970" points="166.1591,-40.896 168.8292,-30.6432 160.3481,-36.9931 166.1591,-40.896"/>
</g>
<!-- Node11 -->
<g id="node12" class="node">
<title>Node11</title>
<polygon fill="#ffffff" stroke="#bfbfbf" points="401.5,-73 401.5,-92 470.5,-92 470.5,-73 401.5,-73"/>
<text text-anchor="middle" x="436" y="-80" font-family="Helvetica,sans-Serif" font-size="10.00" fill="#000000">type_traits</text>
</g>
<!-- Node10&#45;&gt;Node11 -->
<g id="edge13" class="edge">
<title>Node10&#45;&gt;Node11</title>
<path fill="none" stroke="#191970" d="M388.8418,-134.2967C398.2537,-123.9591 410.7183,-110.2684 420.4689,-99.5588"/>
<polygon fill="#191970" stroke="#191970" points="423.1565,-101.8057 427.3007,-92.055 417.9804,-97.0931 423.1565,-101.8057"/>
</g>
<!-- Node13 -->
<g id="node14" class="node">
<title>Node13</title>
<polygon fill="#ffffff" stroke="#bfbfbf" points="763,-73 763,-92 853,-92 853,-73 763,-73"/>
<text text-anchor="middle" x="808" y="-80" font-family="Helvetica,sans-Serif" font-size="10.00" fill="#000000">stx/variant.hpp</text>
</g>
<!-- Node12&#45;&gt;Node13 -->
<g id="edge15" class="edge">
<title>Node12&#45;&gt;Node13</title>
<path fill="none" stroke="#191970" d="M851.2927,-134.2967C842.7371,-124.0605 831.4335,-110.5366 822.5221,-99.8746"/>
<polygon fill="#191970" stroke="#191970" points="825.0849,-97.4832 815.9862,-92.055 819.7139,-101.9724 825.0849,-97.4832"/>
</g>
<!-- Node14 -->
<g id="node15" class="node">
<title>Node14</title>
<polygon fill="#ffffff" stroke="#bfbfbf" points="871.5,-73 871.5,-92 966.5,-92 966.5,-73 871.5,-73"/>
<text text-anchor="middle" x="919" y="-80" font-family="Helvetica,sans-Serif" font-size="10.00" fill="#000000">stx/optional.hpp</text>
</g>
<!-- Node12&#45;&gt;Node14 -->
<g id="edge16" class="edge">
<title>Node12&#45;&gt;Node14</title>
<path fill="none" stroke="#191970" d="M876.4804,-134.2967C884.8832,-124.0605 895.9849,-110.5366 904.7373,-99.8746"/>
<polygon fill="#191970" stroke="#191970" points="907.5167,-102.005 911.1564,-92.055 902.1061,-97.5635 907.5167,-102.005"/>
</g>
<!-- Node15&#45;&gt;Node5 -->
<g id="edge21" class="edge">
<title>Node15&#45;&gt;Node5</title>
<path fill="none" stroke="#191970" d="M511.4871,-134.1847C507.6683,-115.7175 498.6546,-84.9312 479,-67 454.2532,-44.4231 419.5659,-31.7407 388.7228,-24.6178"/>
<polygon fill="#191970" stroke="#191970" points="389.3739,-21.1778 378.8613,-22.495 387.9008,-28.0211 389.3739,-21.1778"/>
</g>
<!-- Node15&#45;&gt;Node11 -->
<g id="edge19" class="edge">
<title>Node15&#45;&gt;Node11</title>
<path fill="none" stroke="#191970" d="M496.3006,-134.2967C483.9119,-123.6551 467.3865,-109.4602 454.7685,-98.6217"/>
<polygon fill="#191970" stroke="#191970" points="456.99,-95.9159 447.1237,-92.055 452.4288,-101.2259 456.99,-95.9159"/>
</g>
<!-- Node16 -->
<g id="node17" class="node">
<title>Node16</title>
<polygon fill="#ffffff" stroke="#bfbfbf" points="527.5,-73 527.5,-92 564.5,-92 564.5,-73 527.5,-73"/>
<text text-anchor="middle" x="546" y="-80" font-family="Helvetica,sans-Serif" font-size="10.00" fill="#000000">new</text>
</g>
<!-- Node15&#45;&gt;Node16 -->
<g id="edge18" class="edge">
<title>Node15&#45;&gt;Node16</title>
<path fill="none" stroke="#191970" d="M521.2613,-134.2967C525.9566,-124.4658 532.1002,-111.6026 537.0904,-101.1545"/>
<polygon fill="#191970" stroke="#191970" points="540.2849,-102.587 541.4364,-92.055 533.9683,-99.5702 540.2849,-102.587"/>
</g>
<!-- Node17 -->
<g id="node18" class="node">
<title>Node17</title>
<polygon fill="#ffffff" stroke="#bfbfbf" points="582.5,-73 582.5,-92 627.5,-92 627.5,-73 582.5,-73"/>
<text text-anchor="middle" x="605" y="-80" font-family="Helvetica,sans-Serif" font-size="10.00" fill="#000000">utility</text>
</g>
<!-- Node15&#45;&gt;Node17 -->
<g id="edge20" class="edge">
<title>Node15&#45;&gt;Node17</title>
<path fill="none" stroke="#191970" d="M534.6493,-134.2967C549.3781,-123.4524 569.1186,-108.9182 583.9396,-98.006"/>
<polygon fill="#191970" stroke="#191970" points="586.0447,-100.8025 592.0224,-92.055 581.8944,-95.1655 586.0447,-100.8025"/>
</g>
<!-- Node18&#45;&gt;Node5 -->
<g id="edge23" class="edge">
<title>Node18&#45;&gt;Node5</title>
<path fill="none" stroke="#191970" d="M304.2924,-72.9005C306.3168,-64.4234 309.3587,-51.6856 312.0629,-40.3614"/>
<polygon fill="#191970" stroke="#191970" points="315.4942,-41.0613 314.4127,-30.5218 308.6856,-39.4353 315.4942,-41.0613"/>
</g>
</g>
</svg>
