<?xml version="1.0" encoding="UTF-8" standalone="no"?>
<!DOCTYPE svg PUBLIC "-//W3C//DTD SVG 1.1//EN"
 "http://www.w3.org/Graphics/SVG/1.1/DTD/svg11.dtd">
<!-- Generated by graphviz version 2.40.1 (20161225.0304)
 -->
<!-- Title: drake/multibody/parsing/detail_common.h Pages: 1 -->
<svg width="630pt" height="106pt"
 viewBox="0.00 0.00 630.00 106.00" xmlns="http://www.w3.org/2000/svg" xmlns:xlink="http://www.w3.org/1999/xlink">
<g id="graph0" class="graph" transform="scale(1 1) rotate(0) translate(4 102)">
<title>drake/multibody/parsing/detail_common.h</title>
<polygon fill="#ffffff" stroke="transparent" points="-4,4 -4,-102 626,-102 626,4 -4,4"/>
<!-- Node7 -->
<g id="node1" class="node">
<title>Node7</title>
<polygon fill="#bfbfbf" stroke="#000000" points="231,-67.5 231,-97.5 367,-97.5 367,-67.5 231,-67.5"/>
<text text-anchor="start" x="239" y="-85.5" font-family="Helvetica,sans-Serif" font-size="10.00" fill="#000000">drake/multibody/parsing</text>
<text text-anchor="middle" x="299" y="-74.5" font-family="Helvetica,sans-Serif" font-size="10.00" fill="#000000">/detail_common.h</text>
</g>
<!-- Node8 -->
<g id="node2" class="node">
<title>Node8</title>
<g id="a_node2"><a xlink:href="detail__common_8cc.html" target="_top" xlink:title="drake/multibody/parsing\l/detail_common.cc">
<polygon fill="#ffffff" stroke="#000000" points="0,-.5 0,-30.5 136,-30.5 136,-.5 0,-.5"/>
<text text-anchor="start" x="8" y="-18.5" font-family="Helvetica,sans-Serif" font-size="10.00" fill="#000000">drake/multibody/parsing</text>
<text text-anchor="middle" x="68" y="-7.5" font-family="Helvetica,sans-Serif" font-size="10.00" fill="#000000">/detail_common.cc</text>
</a>
</g>
</g>
<!-- Node7&#45;&gt;Node8 -->
<g id="edge1" class="edge">
<title>Node7&#45;&gt;Node8</title>
<path fill="none" stroke="#191970" d="M237.1072,-64.5484C200.5431,-53.9432 154.7681,-40.6665 120.067,-30.6017"/>
<polygon fill="#191970" stroke="#191970" points="236.5799,-68.0397 247.1591,-67.4639 238.5299,-61.3167 236.5799,-68.0397"/>
</g>
<!-- Node9 -->
<g id="node3" class="node">
<title>Node9</title>
<g id="a_node3"><a xlink:href="detail__scene__graph_8cc.html" target="_top" xlink:title="drake/multibody/parsing\l/detail_scene_graph.cc">
<polygon fill="#ffffff" stroke="#000000" points="154,-.5 154,-30.5 290,-30.5 290,-.5 154,-.5"/>
<text text-anchor="start" x="162" y="-18.5" font-family="Helvetica,sans-Serif" font-size="10.00" fill="#000000">drake/multibody/parsing</text>
<text text-anchor="middle" x="222" y="-7.5" font-family="Helvetica,sans-Serif" font-size="10.00" fill="#000000">/detail_scene_graph.cc</text>
</a>
</g>
</g>
<!-- Node7&#45;&gt;Node9 -->
<g id="edge2" class="edge">
<title>Node7&#45;&gt;Node9</title>
<path fill="none" stroke="#191970" d="M273.7124,-60.4965C262.476,-50.7193 249.5308,-39.4554 239.4033,-30.6432"/>
<polygon fill="#191970" stroke="#191970" points="271.6861,-63.3728 281.5275,-67.2967 276.281,-58.092 271.6861,-63.3728"/>
</g>
<!-- Node10 -->
<g id="node4" class="node">
<title>Node10</title>
<g id="a_node4"><a xlink:href="detail__urdf__geometry_8cc.html" target="_top" xlink:title="drake/multibody/parsing\l/detail_urdf_geometry.cc">
<polygon fill="#ffffff" stroke="#000000" points="308,-.5 308,-30.5 446,-30.5 446,-.5 308,-.5"/>
<text text-anchor="start" x="316" y="-18.5" font-family="Helvetica,sans-Serif" font-size="10.00" fill="#000000">drake/multibody/parsing</text>
<text text-anchor="middle" x="377" y="-7.5" font-family="Helvetica,sans-Serif" font-size="10.00" fill="#000000">/detail_urdf_geometry.cc</text>
</a>
</g>
</g>
<!-- Node7&#45;&gt;Node10 -->
<g id="edge3" class="edge">
<title>Node7&#45;&gt;Node10</title>
<path fill="none" stroke="#191970" d="M324.616,-60.4965C335.9984,-50.7193 349.1116,-39.4554 359.3706,-30.6432"/>
<polygon fill="#191970" stroke="#191970" points="322.0045,-58.1257 316.6994,-67.2967 326.5657,-63.4357 322.0045,-58.1257"/>
</g>
<!-- Node11 -->
<g id="node5" class="node">
<title>Node11</title>
<g id="a_node5"><a xlink:href="common__parser__test_8cc.html" target="_top" xlink:title="This file contains tests which check the properties of a multibody plant loaded from different format...">
<polygon fill="#ffffff" stroke="#000000" points="464,-.5 464,-30.5 622,-30.5 622,-.5 464,-.5"/>
<text text-anchor="start" x="472" y="-18.5" font-family="Helvetica,sans-Serif" font-size="10.00" fill="#000000">drake/multibody/parsing</text>
<text text-anchor="middle" x="543" y="-7.5" font-family="Helvetica,sans-Serif" font-size="10.00" fill="#000000">/test/common_parser_test.cc</text>
</a>
</g>
</g>
<!-- Node7&#45;&gt;Node11 -->
<g id="edge4" class="edge">
<title>Node7&#45;&gt;Node11</title>
<path fill="none" stroke="#191970" d="M363.8813,-64.6842C402.5843,-54.0568 451.1922,-40.7095 488.0028,-30.6017"/>
<polygon fill="#191970" stroke="#191970" points="362.4746,-61.4409 353.7584,-67.4639 364.3282,-68.191 362.4746,-61.4409"/>
</g>
</g>
</svg>
