<?xml version="1.0" encoding="UTF-8" standalone="no"?>
<!DOCTYPE svg PUBLIC "-//W3C//DTD SVG 1.1//EN"
 "http://www.w3.org/Graphics/SVG/1.1/DTD/svg11.dtd">
<!-- Generated by graphviz version 2.40.1 (20161225.0304)
 -->
<!-- Title: drake/attic/manipulation Pages: 1 -->
<!--zoomable 447 -->
<svg id="main" version="1.1" xmlns="http://www.w3.org/2000/svg" xmlns:xlink="http://www.w3.org/1999/xlink" xml:space="preserve" onload="init(evt)">
<style type="text/css"><![CDATA[
.edge:hover path { stroke: red; }
.edge:hover polygon { stroke: red; fill: red; }
]]></style>
<script type="text/javascript"><![CDATA[
var edges = document.getElementsByTagName('g');
if (edges && edges.length) {
  for (var i=0;i<edges.length;i++) {
    if (edges[i].id.substr(0,4)=='edge') {
      edges[i].setAttribute('class','edge');
    }
  }
}
]]></script>
        <defs>
                <circle id="rim" cx="0" cy="0" r="7"/>
                <circle id="rim2" cx="0" cy="0" r="3.5"/>
                <g id="zoomPlus">
                        <use xlink:href="#rim" fill="#404040">
                                <set attributeName="fill" to="#808080" begin="zoomplus.mouseover" end="zoomplus.mouseout"/>
                        </use>
                        <path d="M-4,0h8M0,-4v8" fill="none" stroke="white" stroke-width="1.5" pointer-events="none"/>
                </g>
                <g id="zoomMin">
                        <use xlink:href="#rim" fill="#404040">
                                <set attributeName="fill" to="#808080" begin="zoomminus.mouseover" end="zoomminus.mouseout"/>
                        </use>
                        <path d="M-4,0h8" fill="none" stroke="white" stroke-width="1.5" pointer-events="none"/>
                </g>
                <g id="dirArrow">
                        <path fill="none" stroke="white" stroke-width="1.5" d="M0,-3.0v7 M-2.5,-0.5L0,-3.0L2.5,-0.5"/>
                </g>
               <g id="resetDef">
                       <use xlink:href="#rim2" fill="#404040">
                               <set attributeName="fill" to="#808080" begin="reset.mouseover" end="reset.mouseout"/>
                       </use>
               </g>
        </defs>

<script type="text/javascript">
var viewWidth = 609;
var viewHeight = 447;
var sectionId = 'dynsection-0';
</script>
<script xlink:href="svgpan.js"/>
<svg id="graph" class="graph">
<g id="viewport">
<title>drake/attic/manipulation</title>
<polygon fill="#ffffff" stroke="transparent" points="-4,4 -4,-443 605,-443 605,4 -4,4"/>
<g id="clust1" class="cluster">
<title>clusterdir_7b0f1d1b5935d57846a5aa36293b3fcc</title>
<g id="a_clust1"><a xlink:href="dir_7b0f1d1b5935d57846a5aa36293b3fcc.html" target="_top" xlink:title="attic">
<polygon fill="#ddddee" stroke="#000000" points="141,-344 141,-431 593,-431 593,-344 141,-344"/>
<text text-anchor="middle" x="367" y="-419" font-family="Helvetica,sans-Serif" font-size="10.00" fill="#000000">attic</text>
</a>
</g>
</g>
<g id="clust2" class="cluster">
<title>clusterdir_f9d44be25dcd657c988860e50ecf11af</title>
<g id="a_clust2"><a xlink:href="dir_f9d44be25dcd657c988860e50ecf11af.html" target="_top">
<polygon fill="#eeeeff" stroke="#000000" points="149,-352 149,-404 585,-404 585,-352 149,-352"/>
</a>
</g>
</g>
<!-- dir_f9d44be25dcd657c988860e50ecf11af -->
<g id="node1" class="node">
<title>dir_f9d44be25dcd657c988860e50ecf11af</title>
<text text-anchor="middle" x="536" y="-375.5" font-family="Helvetica,sans-Serif" font-size="10.00" fill="#000000">manipulation</text>
</g>
<!-- dir_31dfe6f12a06957c39995b3bbe3bd368 -->
<g id="node2" class="node">
<title>dir_31dfe6f12a06957c39995b3bbe3bd368</title>
<g id="a_node2"><a xlink:href="dir_31dfe6f12a06957c39995b3bbe3bd368.html" target="_top" xlink:title="planner">
<polygon fill="#ffffff" stroke="#ff0000" points="211,-396 157,-396 157,-360 211,-360 211,-396"/>
<text text-anchor="middle" x="184" y="-375.5" font-family="Helvetica,sans-Serif" font-size="10.00" fill="#000000">planner</text>
</a>
</g>
</g>
<!-- dir_758aa030403a70af025108ac41d12d0d -->
<g id="node8" class="node">
<title>dir_758aa030403a70af025108ac41d12d0d</title>
<g id="a_node8"><a xlink:href="dir_758aa030403a70af025108ac41d12d0d.html" target="_top" xlink:title="manipulation">
<polygon fill="#ffffff" stroke="#ff0000" points="185.5,-324 104.5,-324 104.5,-288 185.5,-288 185.5,-324"/>
<text text-anchor="middle" x="145" y="-303.5" font-family="Helvetica,sans-Serif" font-size="10.00" fill="#000000">manipulation</text>
</a>
</g>
</g>
<!-- dir_31dfe6f12a06957c39995b3bbe3bd368&#45;&gt;dir_758aa030403a70af025108ac41d12d0d -->
<g id="edge24" class="edge">
<title>dir_31dfe6f12a06957c39995b3bbe3bd368&#45;&gt;dir_758aa030403a70af025108ac41d12d0d</title>
<path fill="none" stroke="#000000" d="M174.1587,-359.8314C169.8043,-351.7925 164.5902,-342.1666 159.7831,-333.2918"/>
<polygon fill="#000000" stroke="#000000" points="162.8143,-331.5392 154.9739,-324.4133 156.6592,-334.8732 162.8143,-331.5392"/>
<g id="a_edge24&#45;headlabel"><a xlink:href="dir_000003_000169.html" target="_top" xlink:title="1">
<text text-anchor="middle" x="167.0228" y="-330.8476" font-family="Helvetica,sans-Serif" font-size="10.00" fill="#000000">1</text>
</a>
</g>
</g>
<!-- dir_a36da230f0956f48b11c85f7d599788f -->
<g id="node9" class="node">
<title>dir_a36da230f0956f48b11c85f7d599788f</title>
<g id="a_node9"><a xlink:href="dir_a36da230f0956f48b11c85f7d599788f.html" target="_top" xlink:title="common">
<polygon fill="#ffffff" stroke="#ff0000" points="285.5,-36 226.5,-36 226.5,0 285.5,0 285.5,-36"/>
<text text-anchor="middle" x="256" y="-15.5" font-family="Helvetica,sans-Serif" font-size="10.00" fill="#000000">common</text>
</a>
</g>
</g>
<!-- dir_31dfe6f12a06957c39995b3bbe3bd368&#45;&gt;dir_a36da230f0956f48b11c85f7d599788f -->
<g id="edge25" class="edge">
<title>dir_31dfe6f12a06957c39995b3bbe3bd368&#45;&gt;dir_a36da230f0956f48b11c85f7d599788f</title>
<path fill="none" stroke="#000000" d="M156.7455,-374.0945C125.272,-368.2796 73.6509,-354.5519 41,-324 8.9045,-293.9678 0,-277.9551 0,-234 0,-234 0,-234 0,-162 0,-115.5795 16.0254,-100.0667 53,-72 78.5451,-52.6092 164.8105,-34.3735 216.3035,-24.8587"/>
<polygon fill="#000000" stroke="#000000" points="217.2074,-28.2518 226.4197,-23.0189 215.9548,-21.3648 217.2074,-28.2518"/>
<g id="a_edge25&#45;headlabel"><a xlink:href="dir_000003_000076.html" target="_top" xlink:title="8">
<text text-anchor="middle" x="214.1789" y="-29.1884" font-family="Helvetica,sans-Serif" font-size="10.00" fill="#000000">8</text>
</a>
</g>
</g>
<!-- dir_b7a0e33b407baa23d8a077e33033c988 -->
<g id="node11" class="node">
<title>dir_b7a0e33b407baa23d8a077e33033c988</title>
<g id="a_node11"><a xlink:href="dir_b7a0e33b407baa23d8a077e33033c988.html" target="_top" xlink:title="systems">
<polygon fill="#ffffff" stroke="#ff0000" points="328,-252 270,-252 270,-216 328,-216 328,-252"/>
<text text-anchor="middle" x="299" y="-231.5" font-family="Helvetica,sans-Serif" font-size="10.00" fill="#000000">systems</text>
</a>
</g>
</g>
<!-- dir_31dfe6f12a06957c39995b3bbe3bd368&#45;&gt;dir_b7a0e33b407baa23d8a077e33033c988 -->
<g id="edge26" class="edge">
<title>dir_31dfe6f12a06957c39995b3bbe3bd368&#45;&gt;dir_b7a0e33b407baa23d8a077e33033c988</title>
<path fill="none" stroke="#000000" d="M198.5648,-359.7623C218.6982,-334.5518 255.148,-288.9103 278.1601,-260.0952"/>
<polygon fill="#000000" stroke="#000000" points="281.048,-262.0877 284.5534,-252.0896 275.5782,-257.7195 281.048,-262.0877"/>
<g id="a_edge26&#45;headlabel"><a xlink:href="dir_000003_000217.html" target="_top" xlink:title="3">
<text text-anchor="middle" x="281.0234" y="-264.1683" font-family="Helvetica,sans-Serif" font-size="10.00" fill="#000000">3</text>
</a>
</g>
</g>
<!-- dir_4df881f44623118bc2feb9306feab623 -->
<g id="node3" class="node">
<title>dir_4df881f44623118bc2feb9306feab623</title>
<g id="a_node3"><a xlink:href="dir_4df881f44623118bc2feb9306feab623.html" target="_top" xlink:title="scene_generation">
<polygon fill="#ffffff" stroke="#ff0000" points="332.5,-396 229.5,-396 229.5,-360 332.5,-360 332.5,-396"/>
<text text-anchor="middle" x="281" y="-375.5" font-family="Helvetica,sans-Serif" font-size="10.00" fill="#000000">scene_generation</text>
</a>
</g>
</g>
<!-- dir_fc0178d6978c9fa2cad6ef3e048a60a7 -->
<g id="node6" class="node">
<title>dir_fc0178d6978c9fa2cad6ef3e048a60a7</title>
<g id="a_node6"><a xlink:href="dir_fc0178d6978c9fa2cad6ef3e048a60a7.html" target="_top" xlink:title="math">
<polygon fill="#ffffff" stroke="#ff0000" points="256,-108 202,-108 202,-72 256,-72 256,-108"/>
<text text-anchor="middle" x="229" y="-87.5" font-family="Helvetica,sans-Serif" font-size="10.00" fill="#000000">math</text>
</a>
</g>
</g>
<!-- dir_4df881f44623118bc2feb9306feab623&#45;&gt;dir_fc0178d6978c9fa2cad6ef3e048a60a7 -->
<g id="edge7" class="edge">
<title>dir_4df881f44623118bc2feb9306feab623&#45;&gt;dir_fc0178d6978c9fa2cad6ef3e048a60a7</title>
<path fill="none" stroke="#000000" d="M253.4139,-359.9332C243.2698,-354.0261 231.4559,-347.9697 220,-344 193.4195,-334.7893 113.2528,-345.4054 95,-324 36.9519,-255.9258 140.2397,-159.0891 196.3392,-114.3659"/>
<polygon fill="#000000" stroke="#000000" points="198.5453,-117.0837 204.249,-108.1552 194.2223,-111.5781 198.5453,-117.0837"/>
<g id="a_edge7&#45;headlabel"><a xlink:href="dir_000005_000093.html" target="_top" xlink:title="1">
<text text-anchor="middle" x="197.4716" y="-119.0367" font-family="Helvetica,sans-Serif" font-size="10.00" fill="#000000">1</text>
</a>
</g>
</g>
<!-- dir_3c3c25df5132fca4f15a988b4c2efab5 -->
<g id="node7" class="node">
<title>dir_3c3c25df5132fca4f15a988b4c2efab5</title>
<g id="a_node7"><a xlink:href="dir_3c3c25df5132fca4f15a988b4c2efab5.html" target="_top" xlink:title="lcm">
<polygon fill="#ffffff" stroke="#ff0000" points="450,-108 396,-108 396,-72 450,-72 450,-108"/>
<text text-anchor="middle" x="423" y="-87.5" font-family="Helvetica,sans-Serif" font-size="10.00" fill="#000000">lcm</text>
</a>
</g>
</g>
<!-- dir_4df881f44623118bc2feb9306feab623&#45;&gt;dir_3c3c25df5132fca4f15a988b4c2efab5 -->
<g id="edge8" class="edge">
<title>dir_4df881f44623118bc2feb9306feab623&#45;&gt;dir_3c3c25df5132fca4f15a988b4c2efab5</title>
<path fill="none" stroke="#000000" d="M296.6141,-359.7955C324.2118,-326.5389 381.3047,-252.6733 409,-180 416.5433,-160.2061 420.0256,-136.4843 421.6315,-118.3651"/>
<polygon fill="#000000" stroke="#000000" points="425.1394,-118.3874 422.3926,-108.1549 418.1588,-117.867 425.1394,-118.3874"/>
<g id="a_edge8&#45;headlabel"><a xlink:href="dir_000005_000167.html" target="_top" xlink:title="3">
<text text-anchor="middle" x="427.7037" y="-119.6831" font-family="Helvetica,sans-Serif" font-size="10.00" fill="#000000">3</text>
</a>
</g>
</g>
<!-- dir_4df881f44623118bc2feb9306feab623&#45;&gt;dir_a36da230f0956f48b11c85f7d599788f -->
<g id="edge9" class="edge">
<title>dir_4df881f44623118bc2feb9306feab623&#45;&gt;dir_a36da230f0956f48b11c85f7d599788f</title>
<path fill="none" stroke="#000000" d="M253.7645,-359.9727C243.5577,-353.9959 231.6131,-347.8843 220,-344 158.305,-323.3646 126.4362,-363.8299 75,-324 40.8052,-297.5211 38,-277.2483 38,-234 38,-234 38,-234 38,-162 38,-77.5703 153.2511,-39.7892 216.1551,-25.4561"/>
<polygon fill="#000000" stroke="#000000" points="217.1212,-28.8277 226.1451,-23.2763 215.6288,-21.9886 217.1212,-28.8277"/>
<g id="a_edge9&#45;headlabel"><a xlink:href="dir_000005_000076.html" target="_top" xlink:title="9">
<text text-anchor="middle" x="214.2144" y="-29.8679" font-family="Helvetica,sans-Serif" font-size="10.00" fill="#000000">9</text>
</a>
</g>
</g>
<!-- dir_4df881f44623118bc2feb9306feab623&#45;&gt;dir_b7a0e33b407baa23d8a077e33033c988 -->
<g id="edge10" class="edge">
<title>dir_4df881f44623118bc2feb9306feab623&#45;&gt;dir_b7a0e33b407baa23d8a077e33033c988</title>
<path fill="none" stroke="#000000" d="M283.2797,-359.7623C286.3499,-335.201 291.8441,-291.2474 295.4557,-262.3541"/>
<polygon fill="#000000" stroke="#000000" points="298.9713,-262.4465 296.7388,-252.0896 292.0254,-261.5782 298.9713,-262.4465"/>
<g id="a_edge10&#45;headlabel"><a xlink:href="dir_000005_000217.html" target="_top" xlink:title="9">
<text text-anchor="middle" x="301.3429" y="-263.8655" font-family="Helvetica,sans-Serif" font-size="10.00" fill="#000000">9</text>
</a>
</g>
</g>
<!-- dir_4452e273e9ecbcc666093545b5a3610a -->
<g id="node4" class="node">
<title>dir_4452e273e9ecbcc666093545b5a3610a</title>
<g id="a_node4"><a xlink:href="dir_4452e273e9ecbcc666093545b5a3610a.html" target="_top" xlink:title="sensors">
<polygon fill="#ffffff" stroke="#000000" points="477,-396 423,-396 423,-360 477,-360 477,-396"/>
<text text-anchor="middle" x="450" y="-375.5" font-family="Helvetica,sans-Serif" font-size="10.00" fill="#000000">sensors</text>
</a>
</g>
</g>
<!-- dir_4452e273e9ecbcc666093545b5a3610a&#45;&gt;dir_3c3c25df5132fca4f15a988b4c2efab5 -->
<g id="edge16" class="edge">
<title>dir_4452e273e9ecbcc666093545b5a3610a&#45;&gt;dir_3c3c25df5132fca4f15a988b4c2efab5</title>
<path fill="none" stroke="#000000" d="M470.4026,-359.5625C479.4941,-349.9675 489.2162,-337.4441 494,-324 520.8188,-248.6292 529.5362,-215.6741 494,-144 486.4948,-128.8625 472.4911,-116.8196 458.8911,-107.983"/>
<polygon fill="#000000" stroke="#000000" points="460.4495,-104.8347 450.0847,-102.6389 456.8179,-110.819 460.4495,-104.8347"/>
<g id="a_edge16&#45;headlabel"><a xlink:href="dir_000007_000167.html" target="_top" xlink:title="1">
<text text-anchor="middle" x="464.9955" y="-101.7722" font-family="Helvetica,sans-Serif" font-size="10.00" fill="#000000">1</text>
</a>
</g>
</g>
<!-- dir_4452e273e9ecbcc666093545b5a3610a&#45;&gt;dir_a36da230f0956f48b11c85f7d599788f -->
<g id="edge17" class="edge">
<title>dir_4452e273e9ecbcc666093545b5a3610a&#45;&gt;dir_a36da230f0956f48b11c85f7d599788f</title>
<path fill="none" stroke="#000000" d="M469.2998,-359.6761C474.9177,-354.5044 481.1255,-348.9423 487,-344 539.1895,-300.092 594,-302.203 594,-234 594,-234 594,-234 594,-162 594,-99.1759 541.2687,-99.9409 485,-72 423.0968,-41.2612 342.9837,-27.5659 295.7751,-21.8126"/>
<polygon fill="#000000" stroke="#000000" points="295.987,-18.3139 285.6506,-20.6396 295.1813,-25.2673 295.987,-18.3139"/>
<g id="a_edge17&#45;headlabel"><a xlink:href="dir_000007_000076.html" target="_top" xlink:title="2">
<text text-anchor="middle" x="299.8845" y="-13.4071" font-family="Helvetica,sans-Serif" font-size="10.00" fill="#000000">2</text>
</a>
</g>
</g>
<!-- dir_4452e273e9ecbcc666093545b5a3610a&#45;&gt;dir_b7a0e33b407baa23d8a077e33033c988 -->
<g id="edge18" class="edge">
<title>dir_4452e273e9ecbcc666093545b5a3610a&#45;&gt;dir_b7a0e33b407baa23d8a077e33033c988</title>
<path fill="none" stroke="#000000" d="M430.8757,-359.7623C404.2129,-334.3354 355.7564,-288.1253 325.5895,-259.3569"/>
<polygon fill="#000000" stroke="#000000" points="327.6213,-256.4581 317.969,-252.0896 322.7903,-261.5239 327.6213,-256.4581"/>
<g id="a_edge18&#45;headlabel"><a xlink:href="dir_000007_000217.html" target="_top" xlink:title="7">
<text text-anchor="middle" x="332.1821" y="-254.3841" font-family="Helvetica,sans-Serif" font-size="10.00" fill="#000000">7</text>
</a>
</g>
</g>
<!-- dir_5e3017e8b22cd6e7c980c931d420ee58 -->
<g id="node5" class="node">
<title>dir_5e3017e8b22cd6e7c980c931d420ee58</title>
<g id="a_node5"><a xlink:href="dir_5e3017e8b22cd6e7c980c931d420ee58.html" target="_top" xlink:title="util">
<polygon fill="#ffffff" stroke="#ff0000" points="405,-396 351,-396 351,-360 405,-360 405,-396"/>
<text text-anchor="middle" x="378" y="-375.5" font-family="Helvetica,sans-Serif" font-size="10.00" fill="#000000">util</text>
</a>
</g>
</g>
<!-- dir_5e3017e8b22cd6e7c980c931d420ee58&#45;&gt;dir_fc0178d6978c9fa2cad6ef3e048a60a7 -->
<g id="edge1" class="edge">
<title>dir_5e3017e8b22cd6e7c980c931d420ee58&#45;&gt;dir_fc0178d6978c9fa2cad6ef3e048a60a7</title>
<path fill="none" stroke="#000000" d="M358.8487,-359.9966C328.965,-331.4935 273.3743,-276.6847 261,-252 239.2054,-208.5236 232.2439,-151.5303 230.0272,-118.0256"/>
<polygon fill="#000000" stroke="#000000" points="233.5205,-117.8061 229.4615,-108.0196 226.5316,-118.2013 233.5205,-117.8061"/>
<g id="a_edge1&#45;headlabel"><a xlink:href="dir_000008_000093.html" target="_top" xlink:title="3">
<text text-anchor="middle" x="236.5581" y="-118.7347" font-family="Helvetica,sans-Serif" font-size="10.00" fill="#000000">3</text>
</a>
</g>
</g>
<!-- dir_5e3017e8b22cd6e7c980c931d420ee58&#45;&gt;dir_3c3c25df5132fca4f15a988b4c2efab5 -->
<g id="edge2" class="edge">
<title>dir_5e3017e8b22cd6e7c980c931d420ee58&#45;&gt;dir_3c3c25df5132fca4f15a988b4c2efab5</title>
<path fill="none" stroke="#000000" d="M387.8459,-359.8639C405.7028,-325.8222 442.8022,-249.51 456,-180 458.9846,-164.2808 460.3336,-159.402 456,-144 453.3339,-134.5243 448.4919,-125.067 443.3238,-116.7759"/>
<polygon fill="#000000" stroke="#000000" points="446.1303,-114.6757 437.6752,-108.2912 440.3034,-118.5549 446.1303,-114.6757"/>
<g id="a_edge2&#45;headlabel"><a xlink:href="dir_000008_000167.html" target="_top" xlink:title="4">
<text text-anchor="middle" x="450.4857" y="-113.5945" font-family="Helvetica,sans-Serif" font-size="10.00" fill="#000000">4</text>
</a>
</g>
</g>
<!-- dir_5e3017e8b22cd6e7c980c931d420ee58&#45;&gt;dir_758aa030403a70af025108ac41d12d0d -->
<g id="edge3" class="edge">
<title>dir_5e3017e8b22cd6e7c980c931d420ee58&#45;&gt;dir_758aa030403a70af025108ac41d12d0d</title>
<path fill="none" stroke="#000000" d="M362.2029,-359.8891C356.1379,-353.9779 348.7884,-347.9302 341,-344 340.7936,-343.8958 253.6683,-327.0256 195.6631,-315.8011"/>
<polygon fill="#000000" stroke="#000000" points="196.0378,-312.3088 185.555,-313.8452 194.7079,-319.1813 196.0378,-312.3088"/>
<g id="a_edge3&#45;headlabel"><a xlink:href="dir_000008_000169.html" target="_top" xlink:title="2">
<text text-anchor="middle" x="200.1063" y="-307.704" font-family="Helvetica,sans-Serif" font-size="10.00" fill="#000000">2</text>
</a>
</g>
</g>
<!-- dir_5e3017e8b22cd6e7c980c931d420ee58&#45;&gt;dir_a36da230f0956f48b11c85f7d599788f -->
<g id="edge4" class="edge">
<title>dir_5e3017e8b22cd6e7c980c931d420ee58&#45;&gt;dir_a36da230f0956f48b11c85f7d599788f</title>
<path fill="none" stroke="#000000" d="M397.544,-359.8996C407.367,-350.015 418.8762,-337.1352 427,-324 486.3852,-227.9809 534.958,-155.5264 459,-72 437.2627,-48.0968 348.3675,-31.4133 295.6929,-23.4063"/>
<polygon fill="#000000" stroke="#000000" points="296.0767,-19.925 285.6716,-21.921 295.0504,-26.8494 296.0767,-19.925"/>
<g id="a_edge4&#45;headlabel"><a xlink:href="dir_000008_000076.html" target="_top" xlink:title="13">
<text text-anchor="middle" x="300.0487" y="-15.1434" font-family="Helvetica,sans-Serif" font-size="10.00" fill="#000000">13</text>
</a>
</g>
</g>
<!-- dir_d739e095b49d8b72164589d00310017d -->
<g id="node10" class="node">
<title>dir_d739e095b49d8b72164589d00310017d</title>
<g id="a_node10"><a xlink:href="dir_d739e095b49d8b72164589d00310017d.html" target="_top" xlink:title="geometry">
<polygon fill="#ffffff" stroke="#ff0000" points="376,-180 312,-180 312,-144 376,-144 376,-180"/>
<text text-anchor="middle" x="344" y="-159.5" font-family="Helvetica,sans-Serif" font-size="10.00" fill="#000000">geometry</text>
</a>
</g>
</g>
<!-- dir_5e3017e8b22cd6e7c980c931d420ee58&#45;&gt;dir_d739e095b49d8b72164589d00310017d -->
<g id="edge5" class="edge">
<title>dir_5e3017e8b22cd6e7c980c931d420ee58&#45;&gt;dir_d739e095b49d8b72164589d00310017d</title>
<path fill="none" stroke="#000000" d="M375.1597,-359.9555C369.2347,-322.3144 355.5201,-235.1867 348.427,-190.1246"/>
<polygon fill="#000000" stroke="#000000" points="351.8686,-189.4792 346.8562,-180.1451 344.9538,-190.5677 351.8686,-189.4792"/>
<g id="a_edge5&#45;headlabel"><a xlink:href="dir_000008_000147.html" target="_top" xlink:title="1">
<text text-anchor="middle" x="355.2322" y="-190.0886" font-family="Helvetica,sans-Serif" font-size="10.00" fill="#000000">1</text>
</a>
</g>
</g>
<!-- dir_5e3017e8b22cd6e7c980c931d420ee58&#45;&gt;dir_b7a0e33b407baa23d8a077e33033c988 -->
<g id="edge6" class="edge">
<title>dir_5e3017e8b22cd6e7c980c931d420ee58&#45;&gt;dir_b7a0e33b407baa23d8a077e33033c988</title>
<path fill="none" stroke="#000000" d="M367.9946,-359.7623C354.3419,-334.8764 329.7673,-290.0822 313.9313,-261.2165"/>
<polygon fill="#000000" stroke="#000000" points="316.8026,-259.1735 308.9242,-252.0896 310.6655,-262.5404 316.8026,-259.1735"/>
<g id="a_edge6&#45;headlabel"><a xlink:href="dir_000008_000217.html" target="_top" xlink:title="8">
<text text-anchor="middle" x="321.0208" y="-258.4593" font-family="Helvetica,sans-Serif" font-size="10.00" fill="#000000">8</text>
</a>
</g>
</g>
<!-- dir_fc0178d6978c9fa2cad6ef3e048a60a7&#45;&gt;dir_a36da230f0956f48b11c85f7d599788f -->
<g id="edge11" class="edge">
<title>dir_fc0178d6978c9fa2cad6ef3e048a60a7&#45;&gt;dir_a36da230f0956f48b11c85f7d599788f</title>
<path fill="none" stroke="#000000" d="M229.8608,-71.8314C232.0685,-63.8771 235.4239,-54.369 239.0776,-45.5723"/>
<polygon fill="#000000" stroke="#000000" points="242.2841,-46.9752 243.119,-36.4133 235.8798,-44.1492 242.2841,-46.9752"/>
<g id="a_edge11&#45;headlabel"><a xlink:href="dir_000093_000076.html" target="_top" xlink:title="87">
<text text-anchor="middle" x="243.4306" y="-48.91" font-family="Helvetica,sans-Serif" font-size="10.00" fill="#000000">87</text>
</a>
</g>
</g>
<!-- dir_3c3c25df5132fca4f15a988b4c2efab5&#45;&gt;dir_a36da230f0956f48b11c85f7d599788f -->
<g id="edge12" class="edge">
<title>dir_3c3c25df5132fca4f15a988b4c2efab5&#45;&gt;dir_a36da230f0956f48b11c85f7d599788f</title>
<path fill="none" stroke="#000000" d="M395.7969,-78.2717C368.4074,-66.4631 325.8911,-48.1327 294.9343,-34.786"/>
<polygon fill="#000000" stroke="#000000" points="296.2963,-31.5619 285.7277,-30.8167 293.5249,-37.9899 296.2963,-31.5619"/>
<g id="a_edge12&#45;headlabel"><a xlink:href="dir_000167_000076.html" target="_top" xlink:title="24">
<text text-anchor="middle" x="300.7212" y="-27.8777" font-family="Helvetica,sans-Serif" font-size="10.00" fill="#000000">24</text>
</a>
</g>
</g>
<!-- dir_758aa030403a70af025108ac41d12d0d&#45;&gt;dir_fc0178d6978c9fa2cad6ef3e048a60a7 -->
<g id="edge13" class="edge">
<title>dir_758aa030403a70af025108ac41d12d0d&#45;&gt;dir_fc0178d6978c9fa2cad6ef3e048a60a7</title>
<path fill="none" stroke="#000000" d="M148.7203,-287.9006C155.3885,-257.3096 170.8749,-193.8437 194,-144 198.3272,-134.6732 204.0665,-125.0735 209.6434,-116.6024"/>
<polygon fill="#000000" stroke="#000000" points="212.5999,-118.479 215.3303,-108.242 206.8119,-114.5419 212.5999,-118.479"/>
<g id="a_edge13&#45;headlabel"><a xlink:href="dir_000169_000093.html" target="_top" xlink:title="10">
<text text-anchor="middle" x="212.9258" y="-120.548" font-family="Helvetica,sans-Serif" font-size="10.00" fill="#000000">10</text>
</a>
</g>
</g>
<!-- dir_758aa030403a70af025108ac41d12d0d&#45;&gt;dir_a36da230f0956f48b11c85f7d599788f -->
<g id="edge14" class="edge">
<title>dir_758aa030403a70af025108ac41d12d0d&#45;&gt;dir_a36da230f0956f48b11c85f7d599788f</title>
<path fill="none" stroke="#000000" d="M144.5309,-287.9973C144.2829,-246.5369 148.4873,-142.4764 193,-72 200.0411,-60.8518 210.101,-50.7724 220.1209,-42.4225"/>
<polygon fill="#000000" stroke="#000000" points="222.4246,-45.0627 228.0895,-36.1095 218.0778,-39.5759 222.4246,-45.0627"/>
<g id="a_edge14&#45;headlabel"><a xlink:href="dir_000169_000076.html" target="_top" xlink:title="52">
<text text-anchor="middle" x="221.3701" y="-47.0203" font-family="Helvetica,sans-Serif" font-size="10.00" fill="#000000">52</text>
</a>
</g>
</g>
<!-- dir_758aa030403a70af025108ac41d12d0d&#45;&gt;dir_b7a0e33b407baa23d8a077e33033c988 -->
<g id="edge15" class="edge">
<title>dir_758aa030403a70af025108ac41d12d0d&#45;&gt;dir_b7a0e33b407baa23d8a077e33033c988</title>
<path fill="none" stroke="#000000" d="M183.8607,-287.8314C207.3549,-276.8471 237.1868,-262.8997 260.5978,-251.9543"/>
<polygon fill="#000000" stroke="#000000" points="262.2989,-255.0226 269.8754,-247.6167 259.3342,-248.6815 262.2989,-255.0226"/>
<g id="a_edge15&#45;headlabel"><a xlink:href="dir_000169_000217.html" target="_top" xlink:title="41">
<text text-anchor="middle" x="260.2451" y="-256.6171" font-family="Helvetica,sans-Serif" font-size="10.00" fill="#000000">41</text>
</a>
</g>
</g>
<!-- dir_a36da230f0956f48b11c85f7d599788f&#45;&gt;dir_fc0178d6978c9fa2cad6ef3e048a60a7 -->
<g id="edge19" class="edge">
<title>dir_a36da230f0956f48b11c85f7d599788f&#45;&gt;dir_fc0178d6978c9fa2cad6ef3e048a60a7</title>
<path fill="none" stroke="#000000" d="M255.071,-36.4133C252.8637,-44.3141 249.5414,-53.7132 245.9269,-62.417"/>
<polygon fill="#000000" stroke="#000000" points="242.6073,-61.27 241.7656,-71.8314 249.0097,-64.1 242.6073,-61.27"/>
<g id="a_edge19&#45;headlabel"><a xlink:href="dir_000076_000093.html" target="_top" xlink:title="4">
<text text-anchor="middle" x="241.4635" y="-54.3344" font-family="Helvetica,sans-Serif" font-size="10.00" fill="#000000">4</text>
</a>
</g>
</g>
<!-- dir_d739e095b49d8b72164589d00310017d&#45;&gt;dir_fc0178d6978c9fa2cad6ef3e048a60a7 -->
<g id="edge20" class="edge">
<title>dir_d739e095b49d8b72164589d00310017d&#45;&gt;dir_fc0178d6978c9fa2cad6ef3e048a60a7</title>
<path fill="none" stroke="#000000" d="M314.9806,-143.8314C299.71,-134.2706 280.8539,-122.4651 264.6949,-112.3481"/>
<polygon fill="#000000" stroke="#000000" points="266.3682,-109.2664 256.0351,-106.9263 262.6536,-115.1995 266.3682,-109.2664"/>
<g id="a_edge20&#45;headlabel"><a xlink:href="dir_000147_000093.html" target="_top" xlink:title="3">
<text text-anchor="middle" x="270.9216" y="-106.2674" font-family="Helvetica,sans-Serif" font-size="10.00" fill="#000000">3</text>
</a>
</g>
</g>
<!-- dir_d739e095b49d8b72164589d00310017d&#45;&gt;dir_3c3c25df5132fca4f15a988b4c2efab5 -->
<g id="edge21" class="edge">
<title>dir_d739e095b49d8b72164589d00310017d&#45;&gt;dir_3c3c25df5132fca4f15a988b4c2efab5</title>
<path fill="none" stroke="#000000" d="M363.935,-143.8314C373.4783,-135.1337 385.0599,-124.5783 395.4306,-115.1265"/>
<polygon fill="#000000" stroke="#000000" points="398.038,-117.4857 403.0713,-108.1628 393.3228,-112.3121 398.038,-117.4857"/>
<g id="a_edge21&#45;headlabel"><a xlink:href="dir_000147_000167.html" target="_top" xlink:title="2">
<text text-anchor="middle" x="397.2938" y="-119.5055" font-family="Helvetica,sans-Serif" font-size="10.00" fill="#000000">2</text>
</a>
</g>
</g>
<!-- dir_d739e095b49d8b72164589d00310017d&#45;&gt;dir_a36da230f0956f48b11c85f7d599788f -->
<g id="edge22" class="edge">
<title>dir_d739e095b49d8b72164589d00310017d&#45;&gt;dir_a36da230f0956f48b11c85f7d599788f</title>
<path fill="none" stroke="#000000" d="M335.9641,-143.8634C327.452,-125.2865 313.1686,-95.8342 298,-72 292.0078,-62.5846 284.7557,-52.8055 277.976,-44.1983"/>
<polygon fill="#000000" stroke="#000000" points="280.6679,-41.9606 271.6772,-36.3553 275.2101,-46.3438 280.6679,-41.9606"/>
<g id="a_edge22&#45;headlabel"><a xlink:href="dir_000147_000076.html" target="_top" xlink:title="74">
<text text-anchor="middle" x="285.1324" y="-40.4853" font-family="Helvetica,sans-Serif" font-size="10.00" fill="#000000">74</text>
</a>
</g>
</g>
<!-- dir_d739e095b49d8b72164589d00310017d&#45;&gt;dir_b7a0e33b407baa23d8a077e33033c988 -->
<g id="edge23" class="edge">
<title>dir_d739e095b49d8b72164589d00310017d&#45;&gt;dir_b7a0e33b407baa23d8a077e33033c988</title>
<path fill="none" stroke="#000000" d="M338.4677,-180.4133C334.1053,-188.654 328.1225,-198.5245 322.075,-207.536"/>
<polygon fill="#000000" stroke="#000000" points="319.1424,-205.6227 316.3078,-215.8314 324.8899,-209.6186 319.1424,-205.6227"/>
<g id="a_edge23&#45;headlabel"><a xlink:href="dir_000147_000217.html" target="_top" xlink:title="16">
<text text-anchor="middle" x="318.863" y="-198.5506" font-family="Helvetica,sans-Serif" font-size="10.00" fill="#000000">16</text>
</a>
</g>
</g>
<!-- dir_b7a0e33b407baa23d8a077e33033c988&#45;&gt;dir_fc0178d6978c9fa2cad6ef3e048a60a7 -->
<g id="edge27" class="edge">
<title>dir_b7a0e33b407baa23d8a077e33033c988&#45;&gt;dir_fc0178d6978c9fa2cad6ef3e048a60a7</title>
<path fill="none" stroke="#000000" d="M288.7666,-215.6611C283.0726,-205.2826 275.9543,-192.0135 270,-180 259.7064,-159.2316 248.8676,-135.3391 240.9211,-117.393"/>
<polygon fill="#000000" stroke="#000000" points="244.059,-115.8339 236.8259,-108.0923 237.6525,-118.6549 244.059,-115.8339"/>
<g id="a_edge27&#45;headlabel"><a xlink:href="dir_000217_000093.html" target="_top" xlink:title="29">
<text text-anchor="middle" x="248.106" y="-115.4796" font-family="Helvetica,sans-Serif" font-size="10.00" fill="#000000">29</text>
</a>
</g>
</g>
<!-- dir_b7a0e33b407baa23d8a077e33033c988&#45;&gt;dir_3c3c25df5132fca4f15a988b4c2efab5 -->
<g id="edge28" class="edge">
<title>dir_b7a0e33b407baa23d8a077e33033c988&#45;&gt;dir_3c3c25df5132fca4f15a988b4c2efab5</title>
<path fill="none" stroke="#000000" d="M328.1415,-221.3632C346.5074,-212.155 369.58,-198.1295 385,-180 400.276,-162.0399 410.1668,-137.0462 416.0165,-117.9539"/>
<polygon fill="#000000" stroke="#000000" points="419.3907,-118.8845 418.7867,-108.3069 412.6626,-116.9524 419.3907,-118.8845"/>
<g id="a_edge28&#45;headlabel"><a xlink:href="dir_000217_000167.html" target="_top" xlink:title="19">
<text text-anchor="middle" x="421.1276" y="-120.6231" font-family="Helvetica,sans-Serif" font-size="10.00" fill="#000000">19</text>
</a>
</g>
</g>
<!-- dir_b7a0e33b407baa23d8a077e33033c988&#45;&gt;dir_a36da230f0956f48b11c85f7d599788f -->
<g id="edge29" class="edge">
<title>dir_b7a0e33b407baa23d8a077e33033c988&#45;&gt;dir_a36da230f0956f48b11c85f7d599788f</title>
<path fill="none" stroke="#000000" d="M295.4078,-215.9555C287.9144,-178.3144 270.5696,-91.1867 261.5989,-46.1246"/>
<polygon fill="#000000" stroke="#000000" points="264.9974,-45.2692 259.6122,-36.1451 258.1321,-46.636 264.9974,-45.2692"/>
<g id="a_edge29&#45;headlabel"><a xlink:href="dir_000217_000076.html" target="_top" xlink:title="555">
<text text-anchor="middle" x="268.4837" y="-45.7404" font-family="Helvetica,sans-Serif" font-size="10.00" fill="#000000">555</text>
</a>
</g>
</g>
<!-- dir_b7a0e33b407baa23d8a077e33033c988&#45;&gt;dir_d739e095b49d8b72164589d00310017d -->
<g id="edge30" class="edge">
<title>dir_b7a0e33b407baa23d8a077e33033c988&#45;&gt;dir_d739e095b49d8b72164589d00310017d</title>
<path fill="none" stroke="#000000" d="M304.403,-215.8314C308.7332,-207.6232 314.6991,-197.7606 320.7452,-188.7323"/>
<polygon fill="#000000" stroke="#000000" points="323.692,-190.6249 326.5157,-180.4133 317.9402,-186.6352 323.692,-190.6249"/>
<g id="a_edge30&#45;headlabel"><a xlink:href="dir_000217_000147.html" target="_top" xlink:title="4">
<text text-anchor="middle" x="323.9762" y="-192.6967" font-family="Helvetica,sans-Serif" font-size="10.00" fill="#000000">4</text>
</a>
</g>
</g>
</g>
</svg>
        <g id="navigator" transform="translate(0 0)" fill="#404254">
                <rect fill="#f2f5e9" fill-opacity="0.5" stroke="#606060" stroke-width=".5" x="0" y="0" width="60" height="60"/>
                <use id="zoomplus" xlink:href="#zoomPlus" x="17" y="9" onmousedown="handleZoom(evt,'in')"/>
                <use id="zoomminus" xlink:href="#zoomMin" x="42" y="9" onmousedown="handleZoom(evt,'out')"/>
                <use id="reset" xlink:href="#resetDef" x="30" y="36" onmousedown="handleReset()"/>
                <g id="arrowUp" xlink:href="#dirArrow" transform="translate(30 24)" onmousedown="handlePan(0,-1)">
                  <use xlink:href="#rim" fill="#404040">
                        <set attributeName="fill" to="#808080" begin="arrowUp.mouseover" end="arrowUp.mouseout"/>
                  </use>
                  <path fill="none" stroke="white" stroke-width="1.5" d="M0,-3.0v7 M-2.5,-0.5L0,-3.0L2.5,-0.5"/>
                </g>
                <g id="arrowRight" xlink:href="#dirArrow" transform="rotate(90) translate(36 -43)" onmousedown="handlePan(1,0)">
                  <use xlink:href="#rim" fill="#404040">
                        <set attributeName="fill" to="#808080" begin="arrowRight.mouseover" end="arrowRight.mouseout"/>
                  </use>
                  <path fill="none" stroke="white" stroke-width="1.5" d="M0,-3.0v7 M-2.5,-0.5L0,-3.0L2.5,-0.5"/>
                </g>
                <g id="arrowDown" xlink:href="#dirArrow" transform="rotate(180) translate(-30 -48)" onmousedown="handlePan(0,1)">
                  <use xlink:href="#rim" fill="#404040">
                        <set attributeName="fill" to="#808080" begin="arrowDown.mouseover" end="arrowDown.mouseout"/>
                  </use>
                  <path fill="none" stroke="white" stroke-width="1.5" d="M0,-3.0v7 M-2.5,-0.5L0,-3.0L2.5,-0.5"/>
                </g>
                <g id="arrowLeft" xlink:href="#dirArrow" transform="rotate(270) translate(-36 17)" onmousedown="handlePan(-1,0)">
                  <use xlink:href="#rim" fill="#404040">
                        <set attributeName="fill" to="#808080" begin="arrowLeft.mouseover" end="arrowLeft.mouseout"/>
                  </use>
                  <path fill="none" stroke="white" stroke-width="1.5" d="M0,-3.0v7 M-2.5,-0.5L0,-3.0L2.5,-0.5"/>
                </g>
        </g>
        <svg viewBox="0 0 15 15" width="100%" height="30px" preserveAspectRatio="xMaxYMin meet">
         <g id="arrow_out" transform="scale(0.3 0.3)">
          <a xlink:href="dir_f9d44be25dcd657c988860e50ecf11af_dep_org.svg" target="_base">
           <rect id="button" ry="5" rx="5" y="6" x="6" height="38" width="38"
                fill="#f2f5e9" fill-opacity="0.5" stroke="#606060" stroke-width="1.0"/>
           <path id="arrow"
             d="M 11.500037,31.436501 C 11.940474,20.09759 22.043105,11.32322 32.158766,21.979434 L 37.068811,17.246167 C 37.068811,17.246167 37.088388,32 37.088388,32 L 22.160133,31.978069 C 22.160133,31.978069 26.997745,27.140456 26.997745,27.140456 C 18.528582,18.264221 13.291696,25.230495 11.500037,31.436501 z"
             style="fill:#404040;"/>
          </a>
         </g>
        </svg>
</svg>
