<?xml version="1.0" encoding="UTF-8" standalone="no"?>
<!DOCTYPE svg PUBLIC "-//W3C//DTD SVG 1.1//EN"
 "http://www.w3.org/Graphics/SVG/1.1/DTD/svg11.dtd">
<!-- Generated by graphviz version 2.40.1 (20161225.0304)
 -->
<!-- Title: drake/multibody/inverse_kinematics Pages: 1 -->
<svg width="418pt" height="447pt"
 viewBox="0.00 0.00 418.20 447.00" xmlns="http://www.w3.org/2000/svg" xmlns:xlink="http://www.w3.org/1999/xlink">
<g id="graph0" class="graph" transform="scale(1 1) rotate(0) translate(4 443)">
<title>drake/multibody/inverse_kinematics</title>
<polygon fill="#ffffff" stroke="transparent" points="-4,4 -4,-443 414.2041,-443 414.2041,4 -4,4"/>
<g id="clust1" class="cluster">
<title>clusterdir_39b8b3c6654246a9c12332c930bc7d3f</title>
<g id="a_clust1"><a xlink:href="dir_39b8b3c6654246a9c12332c930bc7d3f.html" target="_top" xlink:title="multibody">
<polygon fill="#ddddee" stroke="#000000" points="160,-344 160,-431 376,-431 376,-344 160,-344"/>
<text text-anchor="middle" x="268" y="-419" font-family="Helvetica,sans-Serif" font-size="10.00" fill="#000000">multibody</text>
</a>
</g>
</g>
<g id="clust2" class="cluster">
<title>clusterdir_da11cd43e7bab310171e778f62212487</title>
<g id="a_clust2"><a xlink:href="dir_da11cd43e7bab310171e778f62212487.html" target="_top">
<polygon fill="#eeeeff" stroke="#000000" points="168,-352 168,-404 368,-404 368,-352 168,-352"/>
</a>
</g>
</g>
<!-- dir_da11cd43e7bab310171e778f62212487 -->
<g id="node1" class="node">
<title>dir_da11cd43e7bab310171e778f62212487</title>
<text text-anchor="middle" x="304" y="-375.5" font-family="Helvetica,sans-Serif" font-size="10.00" fill="#000000">inverse_kinematics</text>
</g>
<!-- dir_fc0178d6978c9fa2cad6ef3e048a60a7 -->
<g id="node4" class="node">
<title>dir_fc0178d6978c9fa2cad6ef3e048a60a7</title>
<g id="a_node4"><a xlink:href="dir_fc0178d6978c9fa2cad6ef3e048a60a7.html" target="_top" xlink:title="math">
<polygon fill="#ffffff" stroke="#ff0000" points="290,-108 236,-108 236,-72 290,-72 290,-108"/>
<text text-anchor="middle" x="263" y="-87.5" font-family="Helvetica,sans-Serif" font-size="10.00" fill="#000000">math</text>
</a>
</g>
</g>
<!-- dir_da11cd43e7bab310171e778f62212487&#45;&gt;dir_fc0178d6978c9fa2cad6ef3e048a60a7 -->
<g id="edge5" class="edge">
<title>dir_da11cd43e7bab310171e778f62212487&#45;&gt;dir_fc0178d6978c9fa2cad6ef3e048a60a7</title>
<path fill="none" stroke="#000000" d="M360.2223,-361.2808C378.0181,-353.0403 395.7165,-341.0799 406,-324 414.2529,-310.2927 407.534,-303.9263 406,-288 399.749,-223.1017 418.0732,-195.4296 378,-144 358.851,-119.4243 325.823,-105.5287 300.0613,-98.0093"/>
<polygon fill="#000000" stroke="#000000" points="300.8036,-94.5842 290.2359,-95.3418 298.9695,-101.3396 300.8036,-94.5842"/>
<g id="a_edge5&#45;headlabel"><a xlink:href="dir_000015_000095.html" target="_top" xlink:title="8">
<text text-anchor="middle" x="305.0165" y="-90.2858" font-family="Helvetica,sans-Serif" font-size="10.00" fill="#000000">8</text>
</a>
</g>
</g>
<!-- dir_559c8ef22c6aa151f764a7a49835876c -->
<g id="node6" class="node">
<title>dir_559c8ef22c6aa151f764a7a49835876c</title>
<g id="a_node6"><a xlink:href="dir_559c8ef22c6aa151f764a7a49835876c.html" target="_top" xlink:title="multibody_tree">
<polygon fill="#ffffff" stroke="#ff0000" points="168.5,-180 77.5,-180 77.5,-144 168.5,-144 168.5,-180"/>
<text text-anchor="middle" x="123" y="-159.5" font-family="Helvetica,sans-Serif" font-size="10.00" fill="#000000">multibody_tree</text>
</a>
</g>
</g>
<!-- dir_da11cd43e7bab310171e778f62212487&#45;&gt;dir_559c8ef22c6aa151f764a7a49835876c -->
<g id="edge6" class="edge">
<title>dir_da11cd43e7bab310171e778f62212487&#45;&gt;dir_559c8ef22c6aa151f764a7a49835876c</title>
<path fill="none" stroke="#000000" d="M302.1742,-359.7855C297.977,-327.0053 284.81,-257.6216 246,-216 227.9675,-196.6612 201.7815,-183.8602 178.2011,-175.5992"/>
<polygon fill="#000000" stroke="#000000" points="179.2243,-172.2512 168.6311,-172.438 177.0287,-178.898 179.2243,-172.2512"/>
<g id="a_edge6&#45;headlabel"><a xlink:href="dir_000015_000025.html" target="_top" xlink:title="2">
<text text-anchor="middle" x="183.528" y="-168.1826" font-family="Helvetica,sans-Serif" font-size="10.00" fill="#000000">2</text>
</a>
</g>
</g>
<!-- dir_c86b501450b8b8b59405c286cb030cc3 -->
<g id="node7" class="node">
<title>dir_c86b501450b8b8b59405c286cb030cc3</title>
<g id="a_node7"><a xlink:href="dir_c86b501450b8b8b59405c286cb030cc3.html" target="_top" xlink:title="solvers">
<polygon fill="#ffffff" stroke="#ff0000" points="397,-324 343,-324 343,-288 397,-288 397,-324"/>
<text text-anchor="middle" x="370" y="-303.5" font-family="Helvetica,sans-Serif" font-size="10.00" fill="#000000">solvers</text>
</a>
</g>
</g>
<!-- dir_da11cd43e7bab310171e778f62212487&#45;&gt;dir_c86b501450b8b8b59405c286cb030cc3 -->
<g id="edge7" class="edge">
<title>dir_da11cd43e7bab310171e778f62212487&#45;&gt;dir_c86b501450b8b8b59405c286cb030cc3</title>
<path fill="none" stroke="#000000" d="M320.6546,-359.8314C328.4114,-351.3694 337.7802,-341.1489 346.261,-331.8971"/>
<polygon fill="#000000" stroke="#000000" points="348.9439,-334.1499 353.1212,-324.4133 343.7838,-329.4198 348.9439,-334.1499"/>
<g id="a_edge7&#45;headlabel"><a xlink:href="dir_000015_000225.html" target="_top" xlink:title="6">
<text text-anchor="middle" x="348.608" y="-336.2182" font-family="Helvetica,sans-Serif" font-size="10.00" fill="#000000">6</text>
</a>
</g>
</g>
<!-- dir_c998d058a7cc93e310580201e452137a -->
<g id="node2" class="node">
<title>dir_c998d058a7cc93e310580201e452137a</title>
<g id="a_node2"><a xlink:href="dir_c998d058a7cc93e310580201e452137a.html" target="_top" xlink:title="test">
<polygon fill="#ffffff" stroke="#000000" points="230,-396 176,-396 176,-360 230,-360 230,-396"/>
<text text-anchor="middle" x="203" y="-375.5" font-family="Helvetica,sans-Serif" font-size="10.00" fill="#000000">test</text>
</a>
</g>
</g>
<!-- dir_e56f4370c0abfd94d0eb867c3946e12e -->
<g id="node3" class="node">
<title>dir_e56f4370c0abfd94d0eb867c3946e12e</title>
<g id="a_node3"><a xlink:href="dir_e56f4370c0abfd94d0eb867c3946e12e.html" target="_top" xlink:title="parsing">
<polygon fill="#ffffff" stroke="#ff0000" points="167,-324 113,-324 113,-288 167,-288 167,-324"/>
<text text-anchor="middle" x="140" y="-303.5" font-family="Helvetica,sans-Serif" font-size="10.00" fill="#000000">parsing</text>
</a>
</g>
</g>
<!-- dir_c998d058a7cc93e310580201e452137a&#45;&gt;dir_e56f4370c0abfd94d0eb867c3946e12e -->
<g id="edge19" class="edge">
<title>dir_c998d058a7cc93e310580201e452137a&#45;&gt;dir_e56f4370c0abfd94d0eb867c3946e12e</title>
<path fill="none" stroke="#000000" d="M187.1024,-359.8314C179.7722,-351.454 170.934,-341.3531 162.9031,-332.1749"/>
<polygon fill="#000000" stroke="#000000" points="165.3307,-329.6343 156.1116,-324.4133 160.0627,-334.2438 165.3307,-329.6343"/>
<g id="a_edge19&#45;headlabel"><a xlink:href="dir_000212_000020.html" target="_top" xlink:title="1">
<text text-anchor="middle" x="169.8345" y="-327.9698" font-family="Helvetica,sans-Serif" font-size="10.00" fill="#000000">1</text>
</a>
</g>
</g>
<!-- dir_c998d058a7cc93e310580201e452137a&#45;&gt;dir_fc0178d6978c9fa2cad6ef3e048a60a7 -->
<g id="edge20" class="edge">
<title>dir_c998d058a7cc93e310580201e452137a&#45;&gt;dir_fc0178d6978c9fa2cad6ef3e048a60a7</title>
<path fill="none" stroke="#000000" d="M214.2457,-359.8938C228.6288,-336.0063 253.4161,-292.2692 268,-252 279.1624,-221.1784 280.4231,-212.5849 284,-180 285.7459,-164.0955 286.9502,-159.7257 284,-144 282.365,-135.2844 279.3657,-126.1679 276.1358,-117.9601"/>
<polygon fill="#000000" stroke="#000000" points="279.2566,-116.352 272.1577,-108.4871 272.8026,-119.0623 279.2566,-116.352"/>
<g id="a_edge20&#45;headlabel"><a xlink:href="dir_000212_000095.html" target="_top" xlink:title="1">
<text text-anchor="middle" x="283.2661" y="-116.0669" font-family="Helvetica,sans-Serif" font-size="10.00" fill="#000000">1</text>
</a>
</g>
</g>
<!-- dir_5d8dbe7a82c2c188fa06f6391bb290bd -->
<g id="node5" class="node">
<title>dir_5d8dbe7a82c2c188fa06f6391bb290bd</title>
<g id="a_node5"><a xlink:href="dir_5d8dbe7a82c2c188fa06f6391bb290bd.html" target="_top" xlink:title="benchmarks">
<polygon fill="#ffffff" stroke="#ff0000" points="237.5,-252 160.5,-252 160.5,-216 237.5,-216 237.5,-252"/>
<text text-anchor="middle" x="199" y="-231.5" font-family="Helvetica,sans-Serif" font-size="10.00" fill="#000000">benchmarks</text>
</a>
</g>
</g>
<!-- dir_c998d058a7cc93e310580201e452137a&#45;&gt;dir_5d8dbe7a82c2c188fa06f6391bb290bd -->
<g id="edge21" class="edge">
<title>dir_c998d058a7cc93e310580201e452137a&#45;&gt;dir_5d8dbe7a82c2c188fa06f6391bb290bd</title>
<path fill="none" stroke="#000000" d="M202.4934,-359.7623C201.8111,-335.201 200.5902,-291.2474 199.7876,-262.3541"/>
<polygon fill="#000000" stroke="#000000" points="203.2789,-261.9885 199.5025,-252.0896 196.2816,-262.183 203.2789,-261.9885"/>
<g id="a_edge21&#45;headlabel"><a xlink:href="dir_000212_000195.html" target="_top" xlink:title="1">
<text text-anchor="middle" x="206.2168" y="-263.003" font-family="Helvetica,sans-Serif" font-size="10.00" fill="#000000">1</text>
</a>
</g>
</g>
<!-- dir_c998d058a7cc93e310580201e452137a&#45;&gt;dir_559c8ef22c6aa151f764a7a49835876c -->
<g id="edge22" class="edge">
<title>dir_c998d058a7cc93e310580201e452137a&#45;&gt;dir_559c8ef22c6aa151f764a7a49835876c</title>
<path fill="none" stroke="#000000" d="M175.7045,-371.4609C152.0903,-364.2013 119.3906,-349.9261 104,-324 79.1342,-282.1125 96.2645,-223.3717 110.1795,-189.3398"/>
<polygon fill="#000000" stroke="#000000" points="113.4494,-190.5948 114.1628,-180.024 107.0131,-187.8427 113.4494,-190.5948"/>
<g id="a_edge22&#45;headlabel"><a xlink:href="dir_000212_000025.html" target="_top" xlink:title="1">
<text text-anchor="middle" x="114.6469" y="-192.5162" font-family="Helvetica,sans-Serif" font-size="10.00" fill="#000000">1</text>
</a>
</g>
</g>
<!-- dir_c998d058a7cc93e310580201e452137a&#45;&gt;dir_c86b501450b8b8b59405c286cb030cc3 -->
<g id="edge23" class="edge">
<title>dir_c998d058a7cc93e310580201e452137a&#45;&gt;dir_c86b501450b8b8b59405c286cb030cc3</title>
<path fill="none" stroke="#000000" d="M218.8552,-359.9131C224.6973,-354.1461 231.687,-348.1831 239,-344 268.3452,-327.2144 305.7004,-317.3326 333.0058,-311.8748"/>
<polygon fill="#000000" stroke="#000000" points="333.7664,-315.2931 342.9411,-309.9945 332.4647,-308.4152 333.7664,-315.2931"/>
<g id="a_edge23&#45;headlabel"><a xlink:href="dir_000212_000225.html" target="_top" xlink:title="1">
<text text-anchor="middle" x="330.7624" y="-316.2512" font-family="Helvetica,sans-Serif" font-size="10.00" fill="#000000">1</text>
</a>
</g>
</g>
<!-- dir_a36da230f0956f48b11c85f7d599788f -->
<g id="node8" class="node">
<title>dir_a36da230f0956f48b11c85f7d599788f</title>
<g id="a_node8"><a xlink:href="dir_a36da230f0956f48b11c85f7d599788f.html" target="_top" xlink:title="common">
<polygon fill="#ffffff" stroke="#ff0000" points="226.5,-36 167.5,-36 167.5,0 226.5,0 226.5,-36"/>
<text text-anchor="middle" x="197" y="-15.5" font-family="Helvetica,sans-Serif" font-size="10.00" fill="#000000">common</text>
</a>
</g>
</g>
<!-- dir_c998d058a7cc93e310580201e452137a&#45;&gt;dir_a36da230f0956f48b11c85f7d599788f -->
<g id="edge24" class="edge">
<title>dir_c998d058a7cc93e310580201e452137a&#45;&gt;dir_a36da230f0956f48b11c85f7d599788f</title>
<path fill="none" stroke="#000000" d="M175.6225,-372.1437C120.2122,-358.5101 0,-319.123 0,-234 0,-234 0,-234 0,-162 0,-84.868 99.6449,-44.6123 157.199,-27.7941"/>
<polygon fill="#000000" stroke="#000000" points="158.4009,-31.0919 167.0799,-25.0153 156.5058,-24.3533 158.4009,-31.0919"/>
<g id="a_edge24&#45;headlabel"><a xlink:href="dir_000212_000078.html" target="_top" xlink:title="3">
<text text-anchor="middle" x="155.7092" y="-32.2982" font-family="Helvetica,sans-Serif" font-size="10.00" fill="#000000">3</text>
</a>
</g>
</g>
<!-- dir_e56f4370c0abfd94d0eb867c3946e12e&#45;&gt;dir_fc0178d6978c9fa2cad6ef3e048a60a7 -->
<g id="edge1" class="edge">
<title>dir_e56f4370c0abfd94d0eb867c3946e12e&#45;&gt;dir_fc0178d6978c9fa2cad6ef3e048a60a7</title>
<path fill="none" stroke="#000000" d="M167.057,-300.0084C191.9279,-292.9791 227.6352,-278.7235 246,-252 273.506,-211.9746 271.7583,-152.7466 267.6275,-118.092"/>
<polygon fill="#000000" stroke="#000000" points="271.0958,-117.6211 266.2988,-108.1744 264.1578,-118.5507 271.0958,-117.6211"/>
<g id="a_edge1&#45;headlabel"><a xlink:href="dir_000020_000095.html" target="_top" xlink:title="11">
<text text-anchor="middle" x="274.3871" y="-118.3069" font-family="Helvetica,sans-Serif" font-size="10.00" fill="#000000">11</text>
</a>
</g>
</g>
<!-- dir_e56f4370c0abfd94d0eb867c3946e12e&#45;&gt;dir_5d8dbe7a82c2c188fa06f6391bb290bd -->
<g id="edge2" class="edge">
<title>dir_e56f4370c0abfd94d0eb867c3946e12e&#45;&gt;dir_5d8dbe7a82c2c188fa06f6391bb290bd</title>
<path fill="none" stroke="#000000" d="M154.8882,-287.8314C161.753,-279.454 170.0301,-269.3531 177.5511,-260.1749"/>
<polygon fill="#000000" stroke="#000000" points="180.2803,-262.3665 183.9114,-252.4133 174.8659,-257.9297 180.2803,-262.3665"/>
<g id="a_edge2&#45;headlabel"><a xlink:href="dir_000020_000195.html" target="_top" xlink:title="1">
<text text-anchor="middle" x="180.1981" y="-264.4464" font-family="Helvetica,sans-Serif" font-size="10.00" fill="#000000">1</text>
</a>
</g>
</g>
<!-- dir_e56f4370c0abfd94d0eb867c3946e12e&#45;&gt;dir_559c8ef22c6aa151f764a7a49835876c -->
<g id="edge3" class="edge">
<title>dir_e56f4370c0abfd94d0eb867c3946e12e&#45;&gt;dir_559c8ef22c6aa151f764a7a49835876c</title>
<path fill="none" stroke="#000000" d="M133.1738,-287.7623C127.8144,-263.201 122.3506,-219.2474 120.8499,-190.3541"/>
<polygon fill="#000000" stroke="#000000" points="124.3379,-189.956 120.4773,-180.0896 117.3425,-190.21 124.3379,-189.956"/>
<g id="a_edge3&#45;headlabel"><a xlink:href="dir_000020_000025.html" target="_top" xlink:title="11">
<text text-anchor="middle" x="127.3056" y="-190.9453" font-family="Helvetica,sans-Serif" font-size="10.00" fill="#000000">11</text>
</a>
</g>
</g>
<!-- dir_e56f4370c0abfd94d0eb867c3946e12e&#45;&gt;dir_a36da230f0956f48b11c85f7d599788f -->
<g id="edge4" class="edge">
<title>dir_e56f4370c0abfd94d0eb867c3946e12e&#45;&gt;dir_a36da230f0956f48b11c85f7d599788f</title>
<path fill="none" stroke="#000000" d="M121.3579,-287.6382C93.3429,-257.7091 45.9015,-196.4754 68,-144 86.4363,-100.2211 128.3365,-64.074 159.409,-41.8916"/>
<polygon fill="#000000" stroke="#000000" points="161.6498,-44.5964 167.8575,-36.0106 157.6505,-38.8512 161.6498,-44.5964"/>
<g id="a_edge4&#45;headlabel"><a xlink:href="dir_000020_000078.html" target="_top" xlink:title="30">
<text text-anchor="middle" x="160.3217" y="-46.4803" font-family="Helvetica,sans-Serif" font-size="10.00" fill="#000000">30</text>
</a>
</g>
</g>
<!-- dir_fc0178d6978c9fa2cad6ef3e048a60a7&#45;&gt;dir_a36da230f0956f48b11c85f7d599788f -->
<g id="edge8" class="edge">
<title>dir_fc0178d6978c9fa2cad6ef3e048a60a7&#45;&gt;dir_a36da230f0956f48b11c85f7d599788f</title>
<path fill="none" stroke="#000000" d="M240.393,-71.8314C231.8974,-63.454 222.4486,-53.3531 214.4723,-44.1749"/>
<polygon fill="#000000" stroke="#000000" points="217.0349,-41.785 207.9028,-36.4133 211.6918,-46.3074 217.0349,-41.785"/>
<g id="a_edge8&#45;headlabel"><a xlink:href="dir_000095_000078.html" target="_top" xlink:title="87">
<text text-anchor="middle" x="221.5244" y="-40.1945" font-family="Helvetica,sans-Serif" font-size="10.00" fill="#000000">87</text>
</a>
</g>
</g>
<!-- dir_5d8dbe7a82c2c188fa06f6391bb290bd&#45;&gt;dir_fc0178d6978c9fa2cad6ef3e048a60a7 -->
<g id="edge9" class="edge">
<title>dir_5d8dbe7a82c2c188fa06f6391bb290bd&#45;&gt;dir_fc0178d6978c9fa2cad6ef3e048a60a7</title>
<path fill="none" stroke="#000000" d="M207.1056,-215.7623C218.1179,-190.9846 237.9016,-146.4714 250.7361,-117.5939"/>
<polygon fill="#000000" stroke="#000000" points="254.0971,-118.6492 254.9602,-108.0896 247.7004,-115.8062 254.0971,-118.6492"/>
<g id="a_edge9&#45;headlabel"><a xlink:href="dir_000195_000095.html" target="_top" xlink:title="11">
<text text-anchor="middle" x="255.2318" y="-120.5872" font-family="Helvetica,sans-Serif" font-size="10.00" fill="#000000">11</text>
</a>
</g>
</g>
<!-- dir_5d8dbe7a82c2c188fa06f6391bb290bd&#45;&gt;dir_559c8ef22c6aa151f764a7a49835876c -->
<g id="edge10" class="edge">
<title>dir_5d8dbe7a82c2c188fa06f6391bb290bd&#45;&gt;dir_559c8ef22c6aa151f764a7a49835876c</title>
<path fill="none" stroke="#000000" d="M173.8696,-215.8314C164.0153,-207.2848 152.9198,-196.9443 143.549,-187.6198"/>
<polygon fill="#000000" stroke="#000000" points="145.968,-185.088 136.4602,-180.4133 140.9776,-189.9968 145.968,-185.088"/>
<g id="a_edge10&#45;headlabel"><a xlink:href="dir_000195_000025.html" target="_top" xlink:title="5">
<text text-anchor="middle" x="150.5129" y="-183.1595" font-family="Helvetica,sans-Serif" font-size="10.00" fill="#000000">5</text>
</a>
</g>
</g>
<!-- dir_5d8dbe7a82c2c188fa06f6391bb290bd&#45;&gt;dir_a36da230f0956f48b11c85f7d599788f -->
<g id="edge11" class="edge">
<title>dir_5d8dbe7a82c2c188fa06f6391bb290bd&#45;&gt;dir_a36da230f0956f48b11c85f7d599788f</title>
<path fill="none" stroke="#000000" d="M198.8329,-215.9555C198.4851,-178.3938 197.6811,-91.5541 197.2631,-46.4103"/>
<polygon fill="#000000" stroke="#000000" points="200.7605,-46.1122 197.168,-36.1451 193.7608,-46.1771 200.7605,-46.1122"/>
<g id="a_edge11&#45;headlabel"><a xlink:href="dir_000195_000078.html" target="_top" xlink:title="26">
<text text-anchor="middle" x="203.6329" y="-47.1804" font-family="Helvetica,sans-Serif" font-size="10.00" fill="#000000">26</text>
</a>
</g>
</g>
<!-- dir_559c8ef22c6aa151f764a7a49835876c&#45;&gt;dir_e56f4370c0abfd94d0eb867c3946e12e -->
<g id="edge12" class="edge">
<title>dir_559c8ef22c6aa151f764a7a49835876c&#45;&gt;dir_e56f4370c0abfd94d0eb867c3946e12e</title>
<path fill="none" stroke="#000000" d="M129.7939,-180.0896C135.1528,-204.5727 140.6243,-248.5174 142.141,-277.4713"/>
<polygon fill="#000000" stroke="#000000" points="138.6542,-277.898 142.5201,-287.7623 145.6495,-277.6402 138.6542,-277.898"/>
<g id="a_edge12&#45;headlabel"><a xlink:href="dir_000025_000020.html" target="_top" xlink:title="4">
<text text-anchor="middle" x="135.6846" y="-271.9103" font-family="Helvetica,sans-Serif" font-size="10.00" fill="#000000">4</text>
</a>
</g>
</g>
<!-- dir_559c8ef22c6aa151f764a7a49835876c&#45;&gt;dir_fc0178d6978c9fa2cad6ef3e048a60a7 -->
<g id="edge13" class="edge">
<title>dir_559c8ef22c6aa151f764a7a49835876c&#45;&gt;dir_fc0178d6978c9fa2cad6ef3e048a60a7</title>
<path fill="none" stroke="#000000" d="M158.3279,-143.8314C179.2142,-133.0898 205.6101,-119.5148 226.6692,-108.6844"/>
<polygon fill="#000000" stroke="#000000" points="228.3404,-111.7607 235.6326,-104.0747 225.139,-105.5357 228.3404,-111.7607"/>
<g id="a_edge13&#45;headlabel"><a xlink:href="dir_000025_000095.html" target="_top" xlink:title="12">
<text text-anchor="middle" x="226.4423" y="-113.4296" font-family="Helvetica,sans-Serif" font-size="10.00" fill="#000000">12</text>
</a>
</g>
</g>
<!-- dir_559c8ef22c6aa151f764a7a49835876c&#45;&gt;dir_5d8dbe7a82c2c188fa06f6391bb290bd -->
<g id="edge14" class="edge">
<title>dir_559c8ef22c6aa151f764a7a49835876c&#45;&gt;dir_5d8dbe7a82c2c188fa06f6391bb290bd</title>
<path fill="none" stroke="#000000" d="M148.1237,-180.1628C158.0532,-188.7744 169.2438,-199.2081 178.6606,-208.5888"/>
<polygon fill="#000000" stroke="#000000" points="176.27,-211.1497 185.7744,-215.8314 181.2639,-206.2446 176.27,-211.1497"/>
<g id="a_edge14&#45;headlabel"><a xlink:href="dir_000025_000195.html" target="_top" xlink:title="5">
<text text-anchor="middle" x="171.7256" y="-208.0749" font-family="Helvetica,sans-Serif" font-size="10.00" fill="#000000">5</text>
</a>
</g>
</g>
<!-- dir_559c8ef22c6aa151f764a7a49835876c&#45;&gt;dir_a36da230f0956f48b11c85f7d599788f -->
<g id="edge15" class="edge">
<title>dir_559c8ef22c6aa151f764a7a49835876c&#45;&gt;dir_a36da230f0956f48b11c85f7d599788f</title>
<path fill="none" stroke="#000000" d="M132.3722,-143.7623C145.1607,-118.8764 168.18,-74.0822 183.0138,-45.2165"/>
<polygon fill="#000000" stroke="#000000" points="186.2462,-46.5837 187.7039,-36.0896 180.0202,-43.3842 186.2462,-46.5837"/>
<g id="a_edge15&#45;headlabel"><a xlink:href="dir_000025_000078.html" target="_top" xlink:title="37">
<text text-anchor="middle" x="187.1286" y="-48.5786" font-family="Helvetica,sans-Serif" font-size="10.00" fill="#000000">37</text>
</a>
</g>
</g>
<!-- dir_c86b501450b8b8b59405c286cb030cc3&#45;&gt;dir_fc0178d6978c9fa2cad6ef3e048a60a7 -->
<g id="edge16" class="edge">
<title>dir_c86b501450b8b8b59405c286cb030cc3&#45;&gt;dir_fc0178d6978c9fa2cad6ef3e048a60a7</title>
<path fill="none" stroke="#000000" d="M373.4996,-287.7761C378.5948,-255.88 384.5879,-189.0491 356,-144 343.1905,-123.8147 319.9282,-110.3122 299.8744,-101.8573"/>
<polygon fill="#000000" stroke="#000000" points="300.9344,-98.5131 290.3474,-98.105 298.3691,-105.0262 300.9344,-98.5131"/>
<g id="a_edge16&#45;headlabel"><a xlink:href="dir_000225_000095.html" target="_top" xlink:title="34">
<text text-anchor="middle" x="305.3194" y="-94.6886" font-family="Helvetica,sans-Serif" font-size="10.00" fill="#000000">34</text>
</a>
</g>
</g>
<!-- dir_c86b501450b8b8b59405c286cb030cc3&#45;&gt;dir_a36da230f0956f48b11c85f7d599788f -->
<g id="edge17" class="edge">
<title>dir_c86b501450b8b8b59405c286cb030cc3&#45;&gt;dir_a36da230f0956f48b11c85f7d599788f</title>
<path fill="none" stroke="#000000" d="M379.5908,-287.5602C384.3499,-277.373 389.5869,-264.3186 392,-252 401.3044,-204.5011 401.7082,-186.1976 378,-144 346.7032,-88.2955 279.296,-51.6734 236.1562,-32.926"/>
<polygon fill="#000000" stroke="#000000" points="237.3845,-29.6455 226.8107,-28.9786 234.6608,-36.0938 237.3845,-29.6455"/>
<g id="a_edge17&#45;headlabel"><a xlink:href="dir_000225_000078.html" target="_top" xlink:title="197">
<text text-anchor="middle" x="241.8006" y="-25.9285" font-family="Helvetica,sans-Serif" font-size="10.00" fill="#000000">197</text>
</a>
</g>
</g>
<!-- dir_a36da230f0956f48b11c85f7d599788f&#45;&gt;dir_fc0178d6978c9fa2cad6ef3e048a60a7 -->
<g id="edge18" class="edge">
<title>dir_a36da230f0956f48b11c85f7d599788f&#45;&gt;dir_fc0178d6978c9fa2cad6ef3e048a60a7</title>
<path fill="none" stroke="#000000" d="M219.6011,-36.1628C228.1616,-44.6038 237.6906,-54.7956 245.706,-64.0303"/>
<polygon fill="#000000" stroke="#000000" points="243.1701,-66.4521 252.2978,-71.8314 248.5169,-61.9341 243.1701,-66.4521"/>
<g id="a_edge18&#45;headlabel"><a xlink:href="dir_000078_000095.html" target="_top" xlink:title="4">
<text text-anchor="middle" x="238.6814" y="-63.039" font-family="Helvetica,sans-Serif" font-size="10.00" fill="#000000">4</text>
</a>
</g>
</g>
</g>
</svg>
