<?xml version="1.0" encoding="UTF-8" standalone="no"?>
<!DOCTYPE svg PUBLIC "-//W3C//DTD SVG 1.1//EN"
 "http://www.w3.org/Graphics/SVG/1.1/DTD/svg11.dtd">
<!-- Generated by graphviz version 2.40.1 (20161225.0304)
 -->
<!-- Title: drake/systems/controllers Pages: 1 -->
<!--zoomable 591 -->
<svg id="main" version="1.1" xmlns="http://www.w3.org/2000/svg" xmlns:xlink="http://www.w3.org/1999/xlink" xml:space="preserve" onload="init(evt)">
<style type="text/css"><![CDATA[
.edge:hover path { stroke: red; }
.edge:hover polygon { stroke: red; fill: red; }
]]></style>
<script type="text/javascript"><![CDATA[
var edges = document.getElementsByTagName('g');
if (edges && edges.length) {
  for (var i=0;i<edges.length;i++) {
    if (edges[i].id.substr(0,4)=='edge') {
      edges[i].setAttribute('class','edge');
    }
  }
}
]]></script>
        <defs>
                <circle id="rim" cx="0" cy="0" r="7"/>
                <circle id="rim2" cx="0" cy="0" r="3.5"/>
                <g id="zoomPlus">
                        <use xlink:href="#rim" fill="#404040">
                                <set attributeName="fill" to="#808080" begin="zoomplus.mouseover" end="zoomplus.mouseout"/>
                        </use>
                        <path d="M-4,0h8M0,-4v8" fill="none" stroke="white" stroke-width="1.5" pointer-events="none"/>
                </g>
                <g id="zoomMin">
                        <use xlink:href="#rim" fill="#404040">
                                <set attributeName="fill" to="#808080" begin="zoomminus.mouseover" end="zoomminus.mouseout"/>
                        </use>
                        <path d="M-4,0h8" fill="none" stroke="white" stroke-width="1.5" pointer-events="none"/>
                </g>
                <g id="dirArrow">
                        <path fill="none" stroke="white" stroke-width="1.5" d="M0,-3.0v7 M-2.5,-0.5L0,-3.0L2.5,-0.5"/>
                </g>
               <g id="resetDef">
                       <use xlink:href="#rim2" fill="#404040">
                               <set attributeName="fill" to="#808080" begin="reset.mouseover" end="reset.mouseout"/>
                       </use>
               </g>
        </defs>

<script type="text/javascript">
var viewWidth = 915;
var viewHeight = 591;
var sectionId = 'dynsection-0';
</script>
<script xlink:href="svgpan.js"/>
<svg id="graph" class="graph">
<g id="viewport">
<title>drake/systems/controllers</title>
<polygon fill="#ffffff" stroke="transparent" points="-4,4 -4,-587 911,-587 911,4 -4,4"/>
<g id="clust1" class="cluster">
<title>clusterdir_b7a0e33b407baa23d8a077e33033c988</title>
<g id="a_clust1"><a xlink:href="dir_b7a0e33b407baa23d8a077e33033c988.html" target="_top" xlink:title="systems">
<polygon fill="#ddddee" stroke="#000000" points="8,-416 8,-575 180,-575 180,-416 8,-416"/>
<text text-anchor="middle" x="94" y="-563" font-family="Helvetica,sans-Serif" font-size="10.00" fill="#000000">systems</text>
</a>
</g>
</g>
<g id="clust2" class="cluster">
<title>clusterdir_2f3b38a11a8c8b47ab034de75b118c79</title>
<g id="a_clust2"><a xlink:href="dir_2f3b38a11a8c8b47ab034de75b118c79.html" target="_top">
<polygon fill="#eeeeff" stroke="#000000" points="16,-424 16,-548 172,-548 172,-424 16,-424"/>
</a>
</g>
</g>
<!-- dir_2f3b38a11a8c8b47ab034de75b118c79 -->
<g id="node1" class="node">
<title>dir_2f3b38a11a8c8b47ab034de75b118c79</title>
<text text-anchor="middle" x="130" y="-519.5" font-family="Helvetica,sans-Serif" font-size="10.00" fill="#000000">controllers</text>
</g>
<!-- dir_90a47678bc0a869c6c11f834a8ae1688 -->
<g id="node4" class="node">
<title>dir_90a47678bc0a869c6c11f834a8ae1688</title>
<g id="a_node4"><a xlink:href="dir_90a47678bc0a869c6c11f834a8ae1688.html" target="_top" xlink:title="trajectory_optimization">
<polygon fill="#ffffff" stroke="#ff0000" points="859.5,-468 728.5,-468 728.5,-432 859.5,-432 859.5,-468"/>
<text text-anchor="middle" x="794" y="-447.5" font-family="Helvetica,sans-Serif" font-size="10.00" fill="#000000">trajectory_optimization</text>
</a>
</g>
</g>
<!-- dir_2f3b38a11a8c8b47ab034de75b118c79&#45;&gt;dir_90a47678bc0a869c6c11f834a8ae1688 -->
<g id="edge29" class="edge">
<title>dir_2f3b38a11a8c8b47ab034de75b118c79&#45;&gt;dir_90a47678bc0a869c6c11f834a8ae1688</title>
<path fill="none" stroke="#000000" d="M164.0926,-520.3891C254.3059,-515.794 506.5684,-500.7858 714,-468 715.3051,-467.7937 716.6207,-467.5787 717.9444,-467.356"/>
<polygon fill="#000000" stroke="#000000" points="718.9859,-470.7249 728.2086,-465.5102 717.747,-463.8354 718.9859,-470.7249"/>
<g id="a_edge29&#45;headlabel"><a xlink:href="dir_000231_000248.html" target="_top" xlink:title="1">
<text text-anchor="middle" x="715.9505" y="-471.6555" font-family="Helvetica,sans-Serif" font-size="10.00" fill="#000000">1</text>
</a>
</g>
</g>
<!-- dir_9f920ef99dcb5f2ba14ba6c3f54b363c -->
<g id="node5" class="node">
<title>dir_9f920ef99dcb5f2ba14ba6c3f54b363c</title>
<g id="a_node5"><a xlink:href="dir_9f920ef99dcb5f2ba14ba6c3f54b363c.html" target="_top" xlink:title="analysis">
<polygon fill="#ffffff" stroke="#ff0000" points="650.5,-252 593.5,-252 593.5,-216 650.5,-216 650.5,-252"/>
<text text-anchor="middle" x="622" y="-231.5" font-family="Helvetica,sans-Serif" font-size="10.00" fill="#000000">analysis</text>
</a>
</g>
</g>
<!-- dir_2f3b38a11a8c8b47ab034de75b118c79&#45;&gt;dir_9f920ef99dcb5f2ba14ba6c3f54b363c -->
<g id="edge30" class="edge">
<title>dir_2f3b38a11a8c8b47ab034de75b118c79&#45;&gt;dir_9f920ef99dcb5f2ba14ba6c3f54b363c</title>
<path fill="none" stroke="#000000" d="M164.1989,-520.2063C265.092,-514.609 556.4387,-496.1396 588,-468 646.2352,-416.0783 636.7421,-312.2788 627.9869,-262.2468"/>
<polygon fill="#000000" stroke="#000000" points="631.3763,-261.3305 626.0986,-252.1437 624.4955,-262.6165 631.3763,-261.3305"/>
<g id="a_edge30&#45;headlabel"><a xlink:href="dir_000231_000227.html" target="_top" xlink:title="3">
<text text-anchor="middle" x="634.8276" y="-261.8423" font-family="Helvetica,sans-Serif" font-size="10.00" fill="#000000">3</text>
</a>
</g>
</g>
<!-- dir_39b8b3c6654246a9c12332c930bc7d3f -->
<g id="node6" class="node">
<title>dir_39b8b3c6654246a9c12332c930bc7d3f</title>
<g id="a_node6"><a xlink:href="dir_39b8b3c6654246a9c12332c930bc7d3f.html" target="_top" xlink:title="multibody">
<polygon fill="#ffffff" stroke="#ff0000" points="391,-468 325,-468 325,-432 391,-432 391,-468"/>
<text text-anchor="middle" x="358" y="-447.5" font-family="Helvetica,sans-Serif" font-size="10.00" fill="#000000">multibody</text>
</a>
</g>
</g>
<!-- dir_2f3b38a11a8c8b47ab034de75b118c79&#45;&gt;dir_39b8b3c6654246a9c12332c930bc7d3f -->
<g id="edge31" class="edge">
<title>dir_2f3b38a11a8c8b47ab034de75b118c79&#45;&gt;dir_39b8b3c6654246a9c12332c930bc7d3f</title>
<path fill="none" stroke="#000000" d="M164.1339,-511.2209C204.3561,-498.5191 271.235,-477.3995 314.9711,-463.5881"/>
<polygon fill="#000000" stroke="#000000" points="316.2649,-466.8499 324.7468,-460.501 314.157,-460.1749 316.2649,-466.8499"/>
<g id="a_edge31&#45;headlabel"><a xlink:href="dir_000231_000024.html" target="_top" xlink:title="11">
<text text-anchor="middle" x="313.6921" y="-468.1398" font-family="Helvetica,sans-Serif" font-size="10.00" fill="#000000">11</text>
</a>
</g>
</g>
<!-- dir_fc0178d6978c9fa2cad6ef3e048a60a7 -->
<g id="node7" class="node">
<title>dir_fc0178d6978c9fa2cad6ef3e048a60a7</title>
<g id="a_node7"><a xlink:href="dir_fc0178d6978c9fa2cad6ef3e048a60a7.html" target="_top" xlink:title="math">
<polygon fill="#ffffff" stroke="#ff0000" points="628,-108 574,-108 574,-72 628,-72 628,-108"/>
<text text-anchor="middle" x="601" y="-87.5" font-family="Helvetica,sans-Serif" font-size="10.00" fill="#000000">math</text>
</a>
</g>
</g>
<!-- dir_2f3b38a11a8c8b47ab034de75b118c79&#45;&gt;dir_fc0178d6978c9fa2cad6ef3e048a60a7 -->
<g id="edge32" class="edge">
<title>dir_2f3b38a11a8c8b47ab034de75b118c79&#45;&gt;dir_fc0178d6978c9fa2cad6ef3e048a60a7</title>
<path fill="none" stroke="#000000" d="M158.1798,-503.8002C191.9384,-479.5315 244,-433.1626 244,-378 244,-378 244,-378 244,-234 244,-165.5464 472.6027,-114.4385 563.9456,-96.7495"/>
<polygon fill="#000000" stroke="#000000" points="564.7077,-100.1673 573.874,-94.8542 563.395,-93.2915 564.7077,-100.1673"/>
<g id="a_edge32&#45;headlabel"><a xlink:href="dir_000231_000105.html" target="_top" xlink:title="8">
<text text-anchor="middle" x="561.7092" y="-101.1302" font-family="Helvetica,sans-Serif" font-size="10.00" fill="#000000">8</text>
</a>
</g>
</g>
<!-- dir_c86b501450b8b8b59405c286cb030cc3 -->
<g id="node8" class="node">
<title>dir_c86b501450b8b8b59405c286cb030cc3</title>
<g id="a_node8"><a xlink:href="dir_c86b501450b8b8b59405c286cb030cc3.html" target="_top" xlink:title="solvers">
<polygon fill="#ffffff" stroke="#ff0000" points="744,-396 690,-396 690,-360 744,-360 744,-396"/>
<text text-anchor="middle" x="717" y="-375.5" font-family="Helvetica,sans-Serif" font-size="10.00" fill="#000000">solvers</text>
</a>
</g>
</g>
<!-- dir_2f3b38a11a8c8b47ab034de75b118c79&#45;&gt;dir_c86b501450b8b8b59405c286cb030cc3 -->
<g id="edge33" class="edge">
<title>dir_2f3b38a11a8c8b47ab034de75b118c79&#45;&gt;dir_c86b501450b8b8b59405c286cb030cc3</title>
<path fill="none" stroke="#000000" d="M164.3245,-520.5806C277.5475,-515.6298 634.3586,-497.7883 676,-468 696.1894,-453.5575 706.6515,-426.7234 711.934,-406.1002"/>
<polygon fill="#000000" stroke="#000000" points="715.3647,-406.7983 714.1898,-396.2688 708.542,-405.2328 715.3647,-406.7983"/>
<g id="a_edge33&#45;headlabel"><a xlink:href="dir_000231_000225.html" target="_top" xlink:title="1">
<text text-anchor="middle" x="717.3282" y="-408.4369" font-family="Helvetica,sans-Serif" font-size="10.00" fill="#000000">1</text>
</a>
</g>
</g>
<!-- dir_2186f45272e5c29e3ac18ec762ab7501 -->
<g id="node9" class="node">
<title>dir_2186f45272e5c29e3ac18ec762ab7501</title>
<g id="a_node9"><a xlink:href="dir_2186f45272e5c29e3ac18ec762ab7501.html" target="_top" xlink:title="framework">
<polygon fill="#ffffff" stroke="#ff0000" points="613,-324 543,-324 543,-288 613,-288 613,-324"/>
<text text-anchor="middle" x="578" y="-303.5" font-family="Helvetica,sans-Serif" font-size="10.00" fill="#000000">framework</text>
</a>
</g>
</g>
<!-- dir_2f3b38a11a8c8b47ab034de75b118c79&#45;&gt;dir_2186f45272e5c29e3ac18ec762ab7501 -->
<g id="edge34" class="edge">
<title>dir_2f3b38a11a8c8b47ab034de75b118c79&#45;&gt;dir_2186f45272e5c29e3ac18ec762ab7501</title>
<path fill="none" stroke="#000000" d="M164.1496,-520.1488C261.3495,-514.5508 534.3068,-496.4201 562,-468 596.467,-432.6283 591.3339,-370.0607 584.6037,-333.908"/>
<polygon fill="#000000" stroke="#000000" points="588.0174,-333.1309 582.6005,-324.0256 581.157,-334.5216 588.0174,-333.1309"/>
<g id="a_edge34&#45;headlabel"><a xlink:href="dir_000231_000236.html" target="_top" xlink:title="19">
<text text-anchor="middle" x="591.5142" y="-333.5899" font-family="Helvetica,sans-Serif" font-size="10.00" fill="#000000">19</text>
</a>
</g>
</g>
<!-- dir_55f8630d5466d97e74952e939680a0a0 -->
<g id="node10" class="node">
<title>dir_55f8630d5466d97e74952e939680a0a0</title>
<g id="a_node10"><a xlink:href="dir_55f8630d5466d97e74952e939680a0a0.html" target="_top" xlink:title="primitives">
<polygon fill="#ffffff" stroke="#ff0000" points="575,-180 509,-180 509,-144 575,-144 575,-180"/>
<text text-anchor="middle" x="542" y="-159.5" font-family="Helvetica,sans-Serif" font-size="10.00" fill="#000000">primitives</text>
</a>
</g>
</g>
<!-- dir_2f3b38a11a8c8b47ab034de75b118c79&#45;&gt;dir_55f8630d5466d97e74952e939680a0a0 -->
<g id="edge35" class="edge">
<title>dir_2f3b38a11a8c8b47ab034de75b118c79&#45;&gt;dir_55f8630d5466d97e74952e939680a0a0</title>
<path fill="none" stroke="#000000" d="M164.4215,-518.9825C228.6982,-512.7355 363.7523,-496.5324 400,-468 491.3846,-396.0665 526.4377,-251.6099 537.5652,-190.4236"/>
<polygon fill="#000000" stroke="#000000" points="541.0542,-190.7883 539.3178,-180.3367 534.1575,-189.59 541.0542,-190.7883"/>
<g id="a_edge35&#45;headlabel"><a xlink:href="dir_000231_000242.html" target="_top" xlink:title="17">
<text text-anchor="middle" x="543.2363" y="-192.3159" font-family="Helvetica,sans-Serif" font-size="10.00" fill="#000000">17</text>
</a>
</g>
</g>
<!-- dir_a36da230f0956f48b11c85f7d599788f -->
<g id="node11" class="node">
<title>dir_a36da230f0956f48b11c85f7d599788f</title>
<g id="a_node11"><a xlink:href="dir_a36da230f0956f48b11c85f7d599788f.html" target="_top" xlink:title="common">
<polygon fill="#ffffff" stroke="#ff0000" points="630.5,-36 571.5,-36 571.5,0 630.5,0 630.5,-36"/>
<text text-anchor="middle" x="601" y="-15.5" font-family="Helvetica,sans-Serif" font-size="10.00" fill="#000000">common</text>
</a>
</g>
</g>
<!-- dir_2f3b38a11a8c8b47ab034de75b118c79&#45;&gt;dir_a36da230f0956f48b11c85f7d599788f -->
<g id="edge36" class="edge">
<title>dir_2f3b38a11a8c8b47ab034de75b118c79&#45;&gt;dir_a36da230f0956f48b11c85f7d599788f</title>
<path fill="none" stroke="#000000" d="M164.4242,-521.5705C302.4636,-519.5691 811.2417,-509.4185 869,-468 904.2847,-442.6973 907,-421.4193 907,-378 907,-378 907,-378 907,-162 907,-114.1711 887.3969,-99.1199 848,-72 814.7609,-49.119 701.8564,-31.25 640.8664,-22.9963"/>
<polygon fill="#000000" stroke="#000000" points="641.2022,-19.5103 630.828,-21.6613 640.2793,-26.4492 641.2022,-19.5103"/>
<g id="a_edge36&#45;headlabel"><a xlink:href="dir_000231_000086.html" target="_top" xlink:title="42">
<text text-anchor="middle" x="645.1397" y="-14.6696" font-family="Helvetica,sans-Serif" font-size="10.00" fill="#000000">42</text>
</a>
</g>
</g>
<!-- dir_793ec1c1c1757e97ef8dc39d50a9aada -->
<g id="node2" class="node">
<title>dir_793ec1c1c1757e97ef8dc39d50a9aada</title>
<g id="a_node2"><a xlink:href="dir_793ec1c1c1757e97ef8dc39d50a9aada.html" target="_top" xlink:title="test">
<polygon fill="#ffffff" stroke="#000000" points="78,-540 24,-540 24,-504 78,-504 78,-540"/>
<text text-anchor="middle" x="51" y="-519.5" font-family="Helvetica,sans-Serif" font-size="10.00" fill="#000000">test</text>
</a>
</g>
</g>
<!-- dir_0200b18f7e83ea48cc715228d7cee9aa -->
<g id="node3" class="node">
<title>dir_0200b18f7e83ea48cc715228d7cee9aa</title>
<g id="a_node3"><a xlink:href="dir_0200b18f7e83ea48cc715228d7cee9aa.html" target="_top" xlink:title="test_utilities">
<polygon fill="#ffffff" stroke="#000000" points="101.5,-468 24.5,-468 24.5,-432 101.5,-432 101.5,-468"/>
<text text-anchor="middle" x="63" y="-447.5" font-family="Helvetica,sans-Serif" font-size="10.00" fill="#000000">test_utilities</text>
</a>
</g>
</g>
<!-- dir_793ec1c1c1757e97ef8dc39d50a9aada&#45;&gt;dir_0200b18f7e83ea48cc715228d7cee9aa -->
<g id="edge45" class="edge">
<title>dir_793ec1c1c1757e97ef8dc39d50a9aada&#45;&gt;dir_0200b18f7e83ea48cc715228d7cee9aa</title>
<path fill="none" stroke="#000000" d="M54.0281,-503.8314C55.3115,-496.131 56.8376,-486.9743 58.2639,-478.4166"/>
<polygon fill="#000000" stroke="#000000" points="61.7394,-478.8526 59.9311,-468.4133 54.8347,-477.7018 61.7394,-478.8526"/>
<g id="a_edge45&#45;headlabel"><a xlink:href="dir_000232_000233.html" target="_top" xlink:title="2">
<text text-anchor="middle" x="63.9492" y="-480.3651" font-family="Helvetica,sans-Serif" font-size="10.00" fill="#000000">2</text>
</a>
</g>
</g>
<!-- dir_793ec1c1c1757e97ef8dc39d50a9aada&#45;&gt;dir_9f920ef99dcb5f2ba14ba6c3f54b363c -->
<g id="edge39" class="edge">
<title>dir_793ec1c1c1757e97ef8dc39d50a9aada&#45;&gt;dir_9f920ef99dcb5f2ba14ba6c3f54b363c</title>
<path fill="none" stroke="#000000" d="M78.264,-507.6644C81.1779,-506.3446 84.1268,-505.0946 87,-504 144.226,-482.1985 164.3718,-493.6053 220,-468 349.0012,-408.6216 358.4131,-354.295 484,-288 516.4618,-270.864 555.6053,-256.0554 583.8992,-246.3027"/>
<polygon fill="#000000" stroke="#000000" points="585.0819,-249.5975 593.4259,-243.0684 582.8315,-242.969 585.0819,-249.5975"/>
<g id="a_edge39&#45;headlabel"><a xlink:href="dir_000232_000227.html" target="_top" xlink:title="1">
<text text-anchor="middle" x="582.5909" y="-250.9415" font-family="Helvetica,sans-Serif" font-size="10.00" fill="#000000">1</text>
</a>
</g>
</g>
<!-- dir_793ec1c1c1757e97ef8dc39d50a9aada&#45;&gt;dir_39b8b3c6654246a9c12332c930bc7d3f -->
<g id="edge40" class="edge">
<title>dir_793ec1c1c1757e97ef8dc39d50a9aada&#45;&gt;dir_39b8b3c6654246a9c12332c930bc7d3f</title>
<path fill="none" stroke="#000000" d="M78.1649,-507.3849C81.0981,-506.1196 84.0787,-504.9587 87,-504 176.5572,-474.6085 204.152,-489.1731 296,-468 302.164,-466.579 308.6236,-464.9098 314.9488,-463.1707"/>
<polygon fill="#000000" stroke="#000000" points="316.0471,-466.4974 324.7159,-460.4062 314.1407,-459.762 316.0471,-466.4974"/>
<g id="a_edge40&#45;headlabel"><a xlink:href="dir_000232_000024.html" target="_top" xlink:title="4">
<text text-anchor="middle" x="313.3616" y="-467.7083" font-family="Helvetica,sans-Serif" font-size="10.00" fill="#000000">4</text>
</a>
</g>
</g>
<!-- dir_793ec1c1c1757e97ef8dc39d50a9aada&#45;&gt;dir_fc0178d6978c9fa2cad6ef3e048a60a7 -->
<g id="edge41" class="edge">
<title>dir_793ec1c1c1757e97ef8dc39d50a9aada&#45;&gt;dir_fc0178d6978c9fa2cad6ef3e048a60a7</title>
<path fill="none" stroke="#000000" d="M78.4281,-507.3504C104.1204,-493.4249 139.2647,-473.7749 144,-468 244.2639,-345.7233 153.7885,-222.5967 291,-144 337.0853,-117.6017 491.9956,-100.1524 563.8357,-93.2867"/>
<polygon fill="#000000" stroke="#000000" points="564.1803,-96.7698 573.8095,-92.3507 563.5262,-89.8004 564.1803,-96.7698"/>
<g id="a_edge41&#45;headlabel"><a xlink:href="dir_000232_000105.html" target="_top" xlink:title="2">
<text text-anchor="middle" x="560.8667" y="-97.4324" font-family="Helvetica,sans-Serif" font-size="10.00" fill="#000000">2</text>
</a>
</g>
</g>
<!-- dir_793ec1c1c1757e97ef8dc39d50a9aada&#45;&gt;dir_2186f45272e5c29e3ac18ec762ab7501 -->
<g id="edge42" class="edge">
<title>dir_793ec1c1c1757e97ef8dc39d50a9aada&#45;&gt;dir_2186f45272e5c29e3ac18ec762ab7501</title>
<path fill="none" stroke="#000000" d="M78.112,-507.2157C81.0555,-505.9834 84.053,-504.8765 87,-504 221.218,-464.0821 271.3421,-523.2725 400,-468 469.4224,-438.1756 529.5807,-369.6583 558.9259,-331.9893"/>
<polygon fill="#000000" stroke="#000000" points="561.742,-334.0685 565.0459,-324.0019 556.1856,-329.811 561.742,-334.0685"/>
<g id="a_edge42&#45;headlabel"><a xlink:href="dir_000232_000236.html" target="_top" xlink:title="9">
<text text-anchor="middle" x="561.8095" y="-336.1486" font-family="Helvetica,sans-Serif" font-size="10.00" fill="#000000">9</text>
</a>
</g>
</g>
<!-- dir_793ec1c1c1757e97ef8dc39d50a9aada&#45;&gt;dir_55f8630d5466d97e74952e939680a0a0 -->
<g id="edge43" class="edge">
<title>dir_793ec1c1c1757e97ef8dc39d50a9aada&#45;&gt;dir_55f8630d5466d97e74952e939680a0a0</title>
<path fill="none" stroke="#000000" d="M78.3812,-507.9509C81.2723,-506.5753 84.1838,-505.2338 87,-504 128.3569,-485.8804 146.0817,-495.3604 182,-468 204.7706,-450.6547 200.2672,-436.7358 220,-416 317.3755,-313.675 354.7503,-301.7462 467,-216 480.1786,-205.933 494.9415,-195.1924 507.861,-185.9632"/>
<polygon fill="#000000" stroke="#000000" points="509.9294,-188.7871 516.0496,-180.1388 505.8721,-183.0829 509.9294,-188.7871"/>
<g id="a_edge43&#45;headlabel"><a xlink:href="dir_000232_000242.html" target="_top" xlink:title="6">
<text text-anchor="middle" x="508.6459" y="-190.6842" font-family="Helvetica,sans-Serif" font-size="10.00" fill="#000000">6</text>
</a>
</g>
</g>
<!-- dir_793ec1c1c1757e97ef8dc39d50a9aada&#45;&gt;dir_a36da230f0956f48b11c85f7d599788f -->
<g id="edge44" class="edge">
<title>dir_793ec1c1c1757e97ef8dc39d50a9aada&#45;&gt;dir_a36da230f0956f48b11c85f7d599788f</title>
<path fill="none" stroke="#000000" d="M77.1022,-503.968C88.8467,-494.5533 101.8692,-482.0652 110,-468 130.5072,-432.5251 130,-418.9758 130,-378 130,-378 130,-378 130,-162 130,-72.137 447.5103,-32.7644 561.1486,-21.5506"/>
<polygon fill="#000000" stroke="#000000" points="561.5622,-25.027 571.1795,-20.582 560.8894,-18.0594 561.5622,-25.027"/>
<g id="a_edge44&#45;headlabel"><a xlink:href="dir_000232_000086.html" target="_top" xlink:title="17">
<text text-anchor="middle" x="558.2571" y="-25.6985" font-family="Helvetica,sans-Serif" font-size="10.00" fill="#000000">17</text>
</a>
</g>
</g>
<!-- dir_0200b18f7e83ea48cc715228d7cee9aa&#45;&gt;dir_39b8b3c6654246a9c12332c930bc7d3f -->
<g id="edge37" class="edge">
<title>dir_0200b18f7e83ea48cc715228d7cee9aa&#45;&gt;dir_39b8b3c6654246a9c12332c930bc7d3f</title>
<path fill="none" stroke="#000000" d="M101.6035,-450C172.7076,-450 243.8117,-450 314.9158,-450"/>
<polygon fill="#000000" stroke="#000000" points="314.9489,-453.5001 324.9489,-450 314.9489,-446.5001 314.9489,-453.5001"/>
<g id="a_edge37&#45;headlabel"><a xlink:href="dir_000233_000024.html" target="_top" xlink:title="5">
<text text-anchor="middle" x="311.3543" y="-453.8393" font-family="Helvetica,sans-Serif" font-size="10.00" fill="#000000">5</text>
</a>
</g>
</g>
<!-- dir_0200b18f7e83ea48cc715228d7cee9aa&#45;&gt;dir_a36da230f0956f48b11c85f7d599788f -->
<g id="edge38" class="edge">
<title>dir_0200b18f7e83ea48cc715228d7cee9aa&#45;&gt;dir_a36da230f0956f48b11c85f7d599788f</title>
<path fill="none" stroke="#000000" d="M66.108,-431.8777C70.5016,-404.6417 78,-351.4948 78,-306 78,-306 78,-306 78,-162 78,-118.5807 81.2017,-97.9675 116,-72 151.438,-45.5552 451.6145,-26.33 561.1787,-20.1359"/>
<polygon fill="#000000" stroke="#000000" points="561.3823,-23.63 571.1714,-19.5773 560.9916,-16.6409 561.3823,-23.63"/>
<g id="a_edge38&#45;headlabel"><a xlink:href="dir_000233_000086.html" target="_top" xlink:title="1">
<text text-anchor="middle" x="557.9517" y="-24.1654" font-family="Helvetica,sans-Serif" font-size="10.00" fill="#000000">1</text>
</a>
</g>
</g>
<!-- dir_90a47678bc0a869c6c11f834a8ae1688&#45;&gt;dir_fc0178d6978c9fa2cad6ef3e048a60a7 -->
<g id="edge1" class="edge">
<title>dir_90a47678bc0a869c6c11f834a8ae1688&#45;&gt;dir_fc0178d6978c9fa2cad6ef3e048a60a7</title>
<path fill="none" stroke="#000000" d="M793.3843,-431.677C792.343,-413.207 789.5407,-384.0676 782,-360 750.3256,-258.9046 667.773,-160.8861 625.9946,-115.7959"/>
<polygon fill="#000000" stroke="#000000" points="628.3219,-113.1608 618.9301,-108.2573 623.2141,-117.9474 628.3219,-113.1608"/>
<g id="a_edge1&#45;headlabel"><a xlink:href="dir_000248_000105.html" target="_top" xlink:title="6">
<text text-anchor="middle" x="632.8516" y="-111.3423" font-family="Helvetica,sans-Serif" font-size="10.00" fill="#000000">6</text>
</a>
</g>
</g>
<!-- dir_90a47678bc0a869c6c11f834a8ae1688&#45;&gt;dir_c86b501450b8b8b59405c286cb030cc3 -->
<g id="edge2" class="edge">
<title>dir_90a47678bc0a869c6c11f834a8ae1688&#45;&gt;dir_c86b501450b8b8b59405c286cb030cc3</title>
<path fill="none" stroke="#000000" d="M774.5696,-431.8314C765.268,-423.1337 753.9796,-412.5783 743.8714,-403.1265"/>
<polygon fill="#000000" stroke="#000000" points="746.1189,-400.4363 736.4241,-396.1628 741.3379,-405.5493 746.1189,-400.4363"/>
<g id="a_edge2&#45;headlabel"><a xlink:href="dir_000248_000225.html" target="_top" xlink:title="7">
<text text-anchor="middle" x="750.6837" y="-398.3175" font-family="Helvetica,sans-Serif" font-size="10.00" fill="#000000">7</text>
</a>
</g>
</g>
<!-- dir_90a47678bc0a869c6c11f834a8ae1688&#45;&gt;dir_2186f45272e5c29e3ac18ec762ab7501 -->
<g id="edge3" class="edge">
<title>dir_90a47678bc0a869c6c11f834a8ae1688&#45;&gt;dir_2186f45272e5c29e3ac18ec762ab7501</title>
<path fill="none" stroke="#000000" d="M749.0306,-431.8955C727.6811,-422.4643 702.2516,-409.9832 681,-396 652.1518,-377.0184 622.8417,-350.5602 602.9033,-331.2448"/>
<polygon fill="#000000" stroke="#000000" points="605.3319,-328.7242 595.7411,-324.2222 600.431,-333.7225 605.3319,-328.7242"/>
<g id="a_edge3&#45;headlabel"><a xlink:href="dir_000248_000236.html" target="_top" xlink:title="7">
<text text-anchor="middle" x="609.8863" y="-326.7135" font-family="Helvetica,sans-Serif" font-size="10.00" fill="#000000">7</text>
</a>
</g>
</g>
<!-- dir_90a47678bc0a869c6c11f834a8ae1688&#45;&gt;dir_55f8630d5466d97e74952e939680a0a0 -->
<g id="edge4" class="edge">
<title>dir_90a47678bc0a869c6c11f834a8ae1688&#45;&gt;dir_55f8630d5466d97e74952e939680a0a0</title>
<path fill="none" stroke="#000000" d="M788.282,-431.7392C773.8087,-388.3409 731.69,-278.028 660,-216 638.2125,-197.1489 608.7471,-183.6565 584.7113,-174.8731"/>
<polygon fill="#000000" stroke="#000000" points="585.7149,-171.516 575.12,-171.509 583.398,-178.1215 585.7149,-171.516"/>
<g id="a_edge4&#45;headlabel"><a xlink:href="dir_000248_000242.html" target="_top" xlink:title="5">
<text text-anchor="middle" x="590.0466" y="-167.5264" font-family="Helvetica,sans-Serif" font-size="10.00" fill="#000000">5</text>
</a>
</g>
</g>
<!-- dir_90a47678bc0a869c6c11f834a8ae1688&#45;&gt;dir_a36da230f0956f48b11c85f7d599788f -->
<g id="edge5" class="edge">
<title>dir_90a47678bc0a869c6c11f834a8ae1688&#45;&gt;dir_a36da230f0956f48b11c85f7d599788f</title>
<path fill="none" stroke="#000000" d="M811.0187,-431.5779C833.1468,-405.6309 869,-355.8921 869,-306 869,-306 869,-306 869,-162 869,-59.5943 715.282,-29.7072 640.6818,-21.2325"/>
<polygon fill="#000000" stroke="#000000" points="641.0183,-17.7486 630.7047,-20.1734 640.2793,-24.7095 641.0183,-17.7486"/>
<g id="a_edge5&#45;headlabel"><a xlink:href="dir_000248_000086.html" target="_top" xlink:title="12">
<text text-anchor="middle" x="644.8925" y="-12.8045" font-family="Helvetica,sans-Serif" font-size="10.00" fill="#000000">12</text>
</a>
</g>
</g>
<!-- dir_9f920ef99dcb5f2ba14ba6c3f54b363c&#45;&gt;dir_fc0178d6978c9fa2cad6ef3e048a60a7 -->
<g id="edge6" class="edge">
<title>dir_9f920ef99dcb5f2ba14ba6c3f54b363c&#45;&gt;dir_fc0178d6978c9fa2cad6ef3e048a60a7</title>
<path fill="none" stroke="#000000" d="M619.3403,-215.7623C615.7585,-191.201 609.3486,-147.2474 605.135,-118.3541"/>
<polygon fill="#000000" stroke="#000000" points="608.5446,-117.4798 603.6381,-108.0896 601.6179,-118.4901 608.5446,-117.4798"/>
<g id="a_edge6&#45;headlabel"><a xlink:href="dir_000227_000105.html" target="_top" xlink:title="5">
<text text-anchor="middle" x="611.8728" y="-118.1271" font-family="Helvetica,sans-Serif" font-size="10.00" fill="#000000">5</text>
</a>
</g>
</g>
<!-- dir_9f920ef99dcb5f2ba14ba6c3f54b363c&#45;&gt;dir_c86b501450b8b8b59405c286cb030cc3 -->
<g id="edge7" class="edge">
<title>dir_9f920ef99dcb5f2ba14ba6c3f54b363c&#45;&gt;dir_c86b501450b8b8b59405c286cb030cc3</title>
<path fill="none" stroke="#000000" d="M633.9341,-252.0896C650.4419,-277.1119 680.3609,-322.4628 699.4265,-351.3623"/>
<polygon fill="#000000" stroke="#000000" points="696.5398,-353.3425 704.9682,-359.7623 702.3828,-349.4877 696.5398,-353.3425"/>
<g id="a_edge7&#45;headlabel"><a xlink:href="dir_000227_000225.html" target="_top" xlink:title="1">
<text text-anchor="middle" x="692.1904" y="-349.4056" font-family="Helvetica,sans-Serif" font-size="10.00" fill="#000000">1</text>
</a>
</g>
</g>
<!-- dir_9f920ef99dcb5f2ba14ba6c3f54b363c&#45;&gt;dir_2186f45272e5c29e3ac18ec762ab7501 -->
<g id="edge8" class="edge">
<title>dir_9f920ef99dcb5f2ba14ba6c3f54b363c&#45;&gt;dir_2186f45272e5c29e3ac18ec762ab7501</title>
<path fill="none" stroke="#000000" d="M616.7235,-252.4133C612.4755,-260.654 606.6298,-270.5245 600.7074,-279.536"/>
<polygon fill="#000000" stroke="#000000" points="597.7937,-277.5965 595.0555,-287.8314 603.5786,-281.538 597.7937,-277.5965"/>
<g id="a_edge8&#45;headlabel"><a xlink:href="dir_000227_000236.html" target="_top" xlink:title="33">
<text text-anchor="middle" x="597.4713" y="-270.5272" font-family="Helvetica,sans-Serif" font-size="10.00" fill="#000000">33</text>
</a>
</g>
</g>
<!-- dir_9f920ef99dcb5f2ba14ba6c3f54b363c&#45;&gt;dir_55f8630d5466d97e74952e939680a0a0 -->
<g id="edge9" class="edge">
<title>dir_9f920ef99dcb5f2ba14ba6c3f54b363c&#45;&gt;dir_55f8630d5466d97e74952e939680a0a0</title>
<path fill="none" stroke="#000000" d="M595.8602,-215.8314C585.3486,-207.1337 573.4483,-196.5783 563.4498,-187.1265"/>
<polygon fill="#000000" stroke="#000000" points="565.8568,-184.5853 556.2291,-180.1628 560.9975,-189.624 565.8568,-184.5853"/>
<g id="a_edge9&#45;headlabel"><a xlink:href="dir_000227_000242.html" target="_top" xlink:title="7">
<text text-anchor="middle" x="570.4151" y="-182.5369" font-family="Helvetica,sans-Serif" font-size="10.00" fill="#000000">7</text>
</a>
</g>
</g>
<!-- dir_9f920ef99dcb5f2ba14ba6c3f54b363c&#45;&gt;dir_a36da230f0956f48b11c85f7d599788f -->
<g id="edge10" class="edge">
<title>dir_9f920ef99dcb5f2ba14ba6c3f54b363c&#45;&gt;dir_a36da230f0956f48b11c85f7d599788f</title>
<path fill="none" stroke="#000000" d="M628.1661,-215.5652C637.4073,-185.0167 652.2242,-122.282 637,-72 634.0436,-62.2355 628.6748,-52.6229 622.97,-44.2762"/>
<polygon fill="#000000" stroke="#000000" points="625.7129,-42.0973 616.9905,-36.0831 620.0586,-46.2239 625.7129,-42.0973"/>
<g id="a_edge10&#45;headlabel"><a xlink:href="dir_000227_000086.html" target="_top" xlink:title="68">
<text text-anchor="middle" x="630.1253" y="-40.827" font-family="Helvetica,sans-Serif" font-size="10.00" fill="#000000">68</text>
</a>
</g>
</g>
<!-- dir_39b8b3c6654246a9c12332c930bc7d3f&#45;&gt;dir_9f920ef99dcb5f2ba14ba6c3f54b363c -->
<g id="edge11" class="edge">
<title>dir_39b8b3c6654246a9c12332c930bc7d3f&#45;&gt;dir_9f920ef99dcb5f2ba14ba6c3f54b363c</title>
<path fill="none" stroke="#000000" d="M375.1414,-431.9404C392.9257,-413.4247 421.7571,-384.0204 448,-360 484.7713,-326.3428 493.5364,-317.1142 534,-288 549.9334,-276.5357 568.3378,-264.9984 584.1836,-255.5483"/>
<polygon fill="#000000" stroke="#000000" points="586.3448,-258.337 593.1797,-250.2417 582.7883,-252.3078 586.3448,-258.337"/>
<g id="a_edge11&#45;headlabel"><a xlink:href="dir_000024_000227.html" target="_top" xlink:title="10">
<text text-anchor="middle" x="584.6912" y="-260.1088" font-family="Helvetica,sans-Serif" font-size="10.00" fill="#000000">10</text>
</a>
</g>
</g>
<!-- dir_39b8b3c6654246a9c12332c930bc7d3f&#45;&gt;dir_fc0178d6978c9fa2cad6ef3e048a60a7 -->
<g id="edge12" class="edge">
<title>dir_39b8b3c6654246a9c12332c930bc7d3f&#45;&gt;dir_fc0178d6978c9fa2cad6ef3e048a60a7</title>
<path fill="none" stroke="#000000" d="M361.2036,-431.9908C364.811,-413.5153 371.4445,-384.1425 381,-360 421.3366,-258.0873 422.0121,-221.0138 500,-144 518.1983,-126.029 543.6076,-112.4843 564.3871,-103.4549"/>
<polygon fill="#000000" stroke="#000000" points="565.9804,-106.5827 573.8643,-99.505 563.2874,-100.1214 565.9804,-106.5827"/>
<g id="a_edge12&#45;headlabel"><a xlink:href="dir_000024_000105.html" target="_top" xlink:title="85">
<text text-anchor="middle" x="563.7547" y="-108.0863" font-family="Helvetica,sans-Serif" font-size="10.00" fill="#000000">85</text>
</a>
</g>
</g>
<!-- dir_39b8b3c6654246a9c12332c930bc7d3f&#45;&gt;dir_c86b501450b8b8b59405c286cb030cc3 -->
<g id="edge13" class="edge">
<title>dir_39b8b3c6654246a9c12332c930bc7d3f&#45;&gt;dir_c86b501450b8b8b59405c286cb030cc3</title>
<path fill="none" stroke="#000000" d="M391.1304,-443.3555C458.1632,-429.9116 609.4618,-399.5675 679.7769,-385.4654"/>
<polygon fill="#000000" stroke="#000000" points="680.8266,-388.8246 689.9431,-383.4265 679.4501,-381.9613 680.8266,-388.8246"/>
<g id="a_edge13&#45;headlabel"><a xlink:href="dir_000024_000225.html" target="_top" xlink:title="8">
<text text-anchor="middle" x="677.8605" y="-389.8152" font-family="Helvetica,sans-Serif" font-size="10.00" fill="#000000">8</text>
</a>
</g>
</g>
<!-- dir_39b8b3c6654246a9c12332c930bc7d3f&#45;&gt;dir_2186f45272e5c29e3ac18ec762ab7501 -->
<g id="edge14" class="edge">
<title>dir_39b8b3c6654246a9c12332c930bc7d3f&#45;&gt;dir_2186f45272e5c29e3ac18ec762ab7501</title>
<path fill="none" stroke="#000000" d="M390.1533,-431.7908C407.548,-421.6711 429.2496,-408.6077 448,-396 470.1293,-381.1203 474.1875,-375.3404 496,-360 510.5485,-349.7683 526.8601,-338.9062 541.0806,-329.6274"/>
<polygon fill="#000000" stroke="#000000" points="543.1502,-332.4566 549.6301,-324.0744 539.3373,-326.5862 543.1502,-332.4566"/>
<g id="a_edge14&#45;headlabel"><a xlink:href="dir_000024_000236.html" target="_top" xlink:title="67">
<text text-anchor="middle" x="541.6822" y="-334.2957" font-family="Helvetica,sans-Serif" font-size="10.00" fill="#000000">67</text>
</a>
</g>
</g>
<!-- dir_39b8b3c6654246a9c12332c930bc7d3f&#45;&gt;dir_55f8630d5466d97e74952e939680a0a0 -->
<g id="edge15" class="edge">
<title>dir_39b8b3c6654246a9c12332c930bc7d3f&#45;&gt;dir_55f8630d5466d97e74952e939680a0a0</title>
<path fill="none" stroke="#000000" d="M367.0475,-431.9686C387.5536,-391.7342 440.0715,-292.1774 495,-216 501.9012,-206.4291 510.1476,-196.5304 517.7925,-187.8632"/>
<polygon fill="#000000" stroke="#000000" points="520.5115,-190.0737 524.5882,-180.2946 515.303,-185.397 520.5115,-190.0737"/>
<g id="a_edge15&#45;headlabel"><a xlink:href="dir_000024_000242.html" target="_top" xlink:title="1">
<text text-anchor="middle" x="520.2227" y="-192.1452" font-family="Helvetica,sans-Serif" font-size="10.00" fill="#000000">1</text>
</a>
</g>
</g>
<!-- dir_39b8b3c6654246a9c12332c930bc7d3f&#45;&gt;dir_a36da230f0956f48b11c85f7d599788f -->
<g id="edge16" class="edge">
<title>dir_39b8b3c6654246a9c12332c930bc7d3f&#45;&gt;dir_a36da230f0956f48b11c85f7d599788f</title>
<path fill="none" stroke="#000000" d="M338.4645,-431.6712C287.7251,-381.8418 160.4071,-241.1323 230,-144 269.6405,-88.6729 474.0085,-42.8513 561.3464,-25.4821"/>
<polygon fill="#000000" stroke="#000000" points="562.2612,-28.8694 571.3983,-23.5063 560.911,-22.0008 562.2612,-28.8694"/>
<g id="a_edge16&#45;headlabel"><a xlink:href="dir_000024_000086.html" target="_top" xlink:title="319">
<text text-anchor="middle" x="559.2816" y="-29.8486" font-family="Helvetica,sans-Serif" font-size="10.00" fill="#000000">319</text>
</a>
</g>
</g>
<!-- dir_fc0178d6978c9fa2cad6ef3e048a60a7&#45;&gt;dir_a36da230f0956f48b11c85f7d599788f -->
<g id="edge17" class="edge">
<title>dir_fc0178d6978c9fa2cad6ef3e048a60a7&#45;&gt;dir_a36da230f0956f48b11c85f7d599788f</title>
<path fill="none" stroke="#000000" d="M595.0476,-71.8314C594.2972,-64.131 594.0763,-54.9743 594.3849,-46.4166"/>
<polygon fill="#000000" stroke="#000000" points="597.8792,-46.6161 595.024,-36.4133 590.8935,-46.1697 597.8792,-46.6161"/>
<g id="a_edge17&#45;headlabel"><a xlink:href="dir_000105_000086.html" target="_top" xlink:title="87">
<text text-anchor="middle" x="600.4836" y="-47.8844" font-family="Helvetica,sans-Serif" font-size="10.00" fill="#000000">87</text>
</a>
</g>
</g>
<!-- dir_c86b501450b8b8b59405c286cb030cc3&#45;&gt;dir_fc0178d6978c9fa2cad6ef3e048a60a7 -->
<g id="edge18" class="edge">
<title>dir_c86b501450b8b8b59405c286cb030cc3&#45;&gt;dir_fc0178d6978c9fa2cad6ef3e048a60a7</title>
<path fill="none" stroke="#000000" d="M711.2529,-359.8005C701.5675,-329.5905 680.9877,-267.3313 660,-216 645.8148,-181.3061 627.1484,-142.3765 614.6455,-117.0936"/>
<polygon fill="#000000" stroke="#000000" points="617.7642,-115.5046 610.1775,-108.1091 611.4965,-118.6216 617.7642,-115.5046"/>
<g id="a_edge18&#45;headlabel"><a xlink:href="dir_000225_000105.html" target="_top" xlink:title="35">
<text text-anchor="middle" x="621.907" y="-114.959" font-family="Helvetica,sans-Serif" font-size="10.00" fill="#000000">35</text>
</a>
</g>
</g>
<!-- dir_c86b501450b8b8b59405c286cb030cc3&#45;&gt;dir_2186f45272e5c29e3ac18ec762ab7501 -->
<g id="edge19" class="edge">
<title>dir_c86b501450b8b8b59405c286cb030cc3&#45;&gt;dir_2186f45272e5c29e3ac18ec762ab7501</title>
<path fill="none" stroke="#000000" d="M689.8694,-363.9468C670.5652,-353.9474 644.2088,-340.2952 621.9273,-328.7537"/>
<polygon fill="#000000" stroke="#000000" points="623.4681,-325.6102 612.9788,-324.1185 620.2485,-331.8258 623.4681,-325.6102"/>
<g id="a_edge19&#45;headlabel"><a xlink:href="dir_000225_000236.html" target="_top" xlink:title="1">
<text text-anchor="middle" x="627.9658" y="-322.2423" font-family="Helvetica,sans-Serif" font-size="10.00" fill="#000000">1</text>
</a>
</g>
</g>
<!-- dir_c86b501450b8b8b59405c286cb030cc3&#45;&gt;dir_a36da230f0956f48b11c85f7d599788f -->
<g id="edge20" class="edge">
<title>dir_c86b501450b8b8b59405c286cb030cc3&#45;&gt;dir_a36da230f0956f48b11c85f7d599788f</title>
<path fill="none" stroke="#000000" d="M734.2456,-359.6186C756.6688,-333.719 793,-284.0348 793,-234 793,-234 793,-234 793,-162 793,-86.3347 696.3867,-45.5576 640.2276,-28.2463"/>
<polygon fill="#000000" stroke="#000000" points="641.1619,-24.8727 630.5792,-25.3794 639.1681,-31.5828 641.1619,-24.8727"/>
<g id="a_edge20&#45;headlabel"><a xlink:href="dir_000225_000086.html" target="_top" xlink:title="199">
<text text-anchor="middle" x="645.4163" y="-20.6748" font-family="Helvetica,sans-Serif" font-size="10.00" fill="#000000">199</text>
</a>
</g>
</g>
<!-- dir_2186f45272e5c29e3ac18ec762ab7501&#45;&gt;dir_9f920ef99dcb5f2ba14ba6c3f54b363c -->
<g id="edge21" class="edge">
<title>dir_2186f45272e5c29e3ac18ec762ab7501&#45;&gt;dir_9f920ef99dcb5f2ba14ba6c3f54b363c</title>
<path fill="none" stroke="#000000" d="M583.1507,-287.8314C587.3668,-279.6232 593.1958,-269.7606 599.1165,-260.7323"/>
<polygon fill="#000000" stroke="#000000" points="602.0442,-262.6511 604.7714,-252.4133 596.2551,-258.7158 602.0442,-262.6511"/>
<g id="a_edge21&#45;headlabel"><a xlink:href="dir_000236_000227.html" target="_top" xlink:title="1">
<text text-anchor="middle" x="602.3716" y="-264.72" font-family="Helvetica,sans-Serif" font-size="10.00" fill="#000000">1</text>
</a>
</g>
</g>
<!-- dir_2186f45272e5c29e3ac18ec762ab7501&#45;&gt;dir_55f8630d5466d97e74952e939680a0a0 -->
<g id="edge22" class="edge">
<title>dir_2186f45272e5c29e3ac18ec762ab7501&#45;&gt;dir_55f8630d5466d97e74952e939680a0a0</title>
<path fill="none" stroke="#000000" d="M568.7674,-287.7623C560.1294,-263.0928 548.8048,-218.8598 543.5212,-189.9731"/>
<polygon fill="#000000" stroke="#000000" points="546.9696,-189.3732 541.8641,-180.0896 540.0659,-190.5307 546.9696,-189.3732"/>
<g id="a_edge22&#45;headlabel"><a xlink:href="dir_000236_000242.html" target="_top" xlink:title="16">
<text text-anchor="middle" x="550.3641" y="-189.9488" font-family="Helvetica,sans-Serif" font-size="10.00" fill="#000000">16</text>
</a>
</g>
</g>
<!-- dir_2186f45272e5c29e3ac18ec762ab7501&#45;&gt;dir_a36da230f0956f48b11c85f7d599788f -->
<g id="edge23" class="edge">
<title>dir_2186f45272e5c29e3ac18ec762ab7501&#45;&gt;dir_a36da230f0956f48b11c85f7d599788f</title>
<path fill="none" stroke="#000000" d="M613.3481,-292.3644C630.7365,-283.6443 650.0547,-270.4574 660,-252 675.6342,-222.9846 707.9249,-196.4626 654,-72 649.3146,-61.1859 641.4037,-51.3191 633.1035,-43.0639"/>
<polygon fill="#000000" stroke="#000000" points="635.4828,-40.4971 625.7805,-36.2409 630.711,-45.6186 635.4828,-40.4971"/>
<g id="a_edge23&#45;headlabel"><a xlink:href="dir_000236_000086.html" target="_top" xlink:title="215">
<text text-anchor="middle" x="640.0483" y="-38.3701" font-family="Helvetica,sans-Serif" font-size="10.00" fill="#000000">215</text>
</a>
</g>
</g>
<!-- dir_55f8630d5466d97e74952e939680a0a0&#45;&gt;dir_9f920ef99dcb5f2ba14ba6c3f54b363c -->
<g id="edge24" class="edge">
<title>dir_55f8630d5466d97e74952e939680a0a0&#45;&gt;dir_9f920ef99dcb5f2ba14ba6c3f54b363c</title>
<path fill="none" stroke="#000000" d="M568.1327,-180.1628C578.6438,-188.8596 590.5441,-199.4149 600.5435,-208.8672"/>
<polygon fill="#000000" stroke="#000000" points="598.1372,-211.409 607.765,-215.8314 602.9964,-206.3703 598.1372,-211.409"/>
<g id="a_edge24&#45;headlabel"><a xlink:href="dir_000242_000227.html" target="_top" xlink:title="3">
<text text-anchor="middle" x="593.5789" y="-208.4575" font-family="Helvetica,sans-Serif" font-size="10.00" fill="#000000">3</text>
</a>
</g>
</g>
<!-- dir_55f8630d5466d97e74952e939680a0a0&#45;&gt;dir_fc0178d6978c9fa2cad6ef3e048a60a7 -->
<g id="edge25" class="edge">
<title>dir_55f8630d5466d97e74952e939680a0a0&#45;&gt;dir_fc0178d6978c9fa2cad6ef3e048a60a7</title>
<path fill="none" stroke="#000000" d="M556.8882,-143.8314C563.753,-135.454 572.0301,-125.3531 579.5511,-116.1749"/>
<polygon fill="#000000" stroke="#000000" points="582.2803,-118.3665 585.9114,-108.4133 576.8659,-113.9297 582.2803,-118.3665"/>
<g id="a_edge25&#45;headlabel"><a xlink:href="dir_000242_000105.html" target="_top" xlink:title="6">
<text text-anchor="middle" x="582.1981" y="-120.4464" font-family="Helvetica,sans-Serif" font-size="10.00" fill="#000000">6</text>
</a>
</g>
</g>
<!-- dir_55f8630d5466d97e74952e939680a0a0&#45;&gt;dir_2186f45272e5c29e3ac18ec762ab7501 -->
<g id="edge26" class="edge">
<title>dir_55f8630d5466d97e74952e939680a0a0&#45;&gt;dir_2186f45272e5c29e3ac18ec762ab7501</title>
<path fill="none" stroke="#000000" d="M551.1807,-180.0896C559.8079,-204.6805 571.1391,-248.905 576.4469,-277.8531"/>
<polygon fill="#000000" stroke="#000000" points="573.0034,-278.4814 578.1137,-287.7623 579.9064,-277.3202 573.0034,-278.4814"/>
<g id="a_edge26&#45;headlabel"><a xlink:href="dir_000242_000236.html" target="_top" xlink:title="92">
<text text-anchor="middle" x="569.6073" y="-272.9076" font-family="Helvetica,sans-Serif" font-size="10.00" fill="#000000">92</text>
</a>
</g>
</g>
<!-- dir_55f8630d5466d97e74952e939680a0a0&#45;&gt;dir_a36da230f0956f48b11c85f7d599788f -->
<g id="edge27" class="edge">
<title>dir_55f8630d5466d97e74952e939680a0a0&#45;&gt;dir_a36da230f0956f48b11c85f7d599788f</title>
<path fill="none" stroke="#000000" d="M544.7861,-143.8153C548.061,-125.2 554.4339,-95.7176 565,-72 569.2198,-62.5279 575.0581,-52.8874 580.8059,-44.4236"/>
<polygon fill="#000000" stroke="#000000" points="583.7839,-46.274 586.6914,-36.0859 578.0651,-42.2372 583.7839,-46.274"/>
<g id="a_edge27&#45;headlabel"><a xlink:href="dir_000242_000086.html" target="_top" xlink:title="118">
<text text-anchor="middle" x="584.0306" y="-48.348" font-family="Helvetica,sans-Serif" font-size="10.00" fill="#000000">118</text>
</a>
</g>
</g>
<!-- dir_a36da230f0956f48b11c85f7d599788f&#45;&gt;dir_fc0178d6978c9fa2cad6ef3e048a60a7 -->
<g id="edge28" class="edge">
<title>dir_a36da230f0956f48b11c85f7d599788f&#45;&gt;dir_fc0178d6978c9fa2cad6ef3e048a60a7</title>
<path fill="none" stroke="#000000" d="M606.976,-36.4133C607.7071,-44.0593 607.9203,-53.1084 607.6155,-61.5726"/>
<polygon fill="#000000" stroke="#000000" points="604.1048,-61.6264 606.9524,-71.8314 611.0902,-62.078 604.1048,-61.6264"/>
<g id="a_edge28&#45;headlabel"><a xlink:href="dir_000086_000105.html" target="_top" xlink:title="4">
<text text-anchor="middle" x="601.5032" y="-55.3562" font-family="Helvetica,sans-Serif" font-size="10.00" fill="#000000">4</text>
</a>
</g>
</g>
</g>
</svg>
        <g id="navigator" transform="translate(0 0)" fill="#404254">
                <rect fill="#f2f5e9" fill-opacity="0.5" stroke="#606060" stroke-width=".5" x="0" y="0" width="60" height="60"/>
                <use id="zoomplus" xlink:href="#zoomPlus" x="17" y="9" onmousedown="handleZoom(evt,'in')"/>
                <use id="zoomminus" xlink:href="#zoomMin" x="42" y="9" onmousedown="handleZoom(evt,'out')"/>
                <use id="reset" xlink:href="#resetDef" x="30" y="36" onmousedown="handleReset()"/>
                <g id="arrowUp" xlink:href="#dirArrow" transform="translate(30 24)" onmousedown="handlePan(0,-1)">
                  <use xlink:href="#rim" fill="#404040">
                        <set attributeName="fill" to="#808080" begin="arrowUp.mouseover" end="arrowUp.mouseout"/>
                  </use>
                  <path fill="none" stroke="white" stroke-width="1.5" d="M0,-3.0v7 M-2.5,-0.5L0,-3.0L2.5,-0.5"/>
                </g>
                <g id="arrowRight" xlink:href="#dirArrow" transform="rotate(90) translate(36 -43)" onmousedown="handlePan(1,0)">
                  <use xlink:href="#rim" fill="#404040">
                        <set attributeName="fill" to="#808080" begin="arrowRight.mouseover" end="arrowRight.mouseout"/>
                  </use>
                  <path fill="none" stroke="white" stroke-width="1.5" d="M0,-3.0v7 M-2.5,-0.5L0,-3.0L2.5,-0.5"/>
                </g>
                <g id="arrowDown" xlink:href="#dirArrow" transform="rotate(180) translate(-30 -48)" onmousedown="handlePan(0,1)">
                  <use xlink:href="#rim" fill="#404040">
                        <set attributeName="fill" to="#808080" begin="arrowDown.mouseover" end="arrowDown.mouseout"/>
                  </use>
                  <path fill="none" stroke="white" stroke-width="1.5" d="M0,-3.0v7 M-2.5,-0.5L0,-3.0L2.5,-0.5"/>
                </g>
                <g id="arrowLeft" xlink:href="#dirArrow" transform="rotate(270) translate(-36 17)" onmousedown="handlePan(-1,0)">
                  <use xlink:href="#rim" fill="#404040">
                        <set attributeName="fill" to="#808080" begin="arrowLeft.mouseover" end="arrowLeft.mouseout"/>
                  </use>
                  <path fill="none" stroke="white" stroke-width="1.5" d="M0,-3.0v7 M-2.5,-0.5L0,-3.0L2.5,-0.5"/>
                </g>
        </g>
        <svg viewBox="0 0 15 15" width="100%" height="30px" preserveAspectRatio="xMaxYMin meet">
         <g id="arrow_out" transform="scale(0.3 0.3)">
          <a xlink:href="dir_2f3b38a11a8c8b47ab034de75b118c79_dep_org.svg" target="_base">
           <rect id="button" ry="5" rx="5" y="6" x="6" height="38" width="38"
                fill="#f2f5e9" fill-opacity="0.5" stroke="#606060" stroke-width="1.0"/>
           <path id="arrow"
             d="M 11.500037,31.436501 C 11.940474,20.09759 22.043105,11.32322 32.158766,21.979434 L 37.068811,17.246167 C 37.068811,17.246167 37.088388,32 37.088388,32 L 22.160133,31.978069 C 22.160133,31.978069 26.997745,27.140456 26.997745,27.140456 C 18.528582,18.264221 13.291696,25.230495 11.500037,31.436501 z"
             style="fill:#404040;"/>
          </a>
         </g>
        </svg>
</svg>
