<?xml version="1.0" encoding="UTF-8" standalone="no"?>
<!DOCTYPE svg PUBLIC "-//W3C//DTD SVG 1.1//EN"
 "http://www.w3.org/Graphics/SVG/1.1/DTD/svg11.dtd">
<!-- Generated by graphviz version 2.40.1 (20161225.0304)
 -->
<!-- Title: drake/multibody/benchmarks/free_body/test Pages: 1 -->
<svg width="189pt" height="367pt"
 viewBox="0.00 0.00 188.78 367.00" xmlns="http://www.w3.org/2000/svg" xmlns:xlink="http://www.w3.org/1999/xlink">
<g id="graph0" class="graph" transform="scale(1 1) rotate(0) translate(4 363)">
<title>drake/multibody/benchmarks/free_body/test</title>
<polygon fill="#ffffff" stroke="transparent" points="-4,4 -4,-363 184.7793,-363 184.7793,4 -4,4"/>
<g id="clust1" class="cluster">
<title>clusterdir_0767593f2fce2cf954de79364fec17e6</title>
<g id="a_clust1"><a xlink:href="dir_0767593f2fce2cf954de79364fec17e6.html" target="_top" xlink:title="free_body">
<polygon fill="#ddddee" stroke="#000000" points="31.7793,-280 31.7793,-351 101.7793,-351 101.7793,-280 31.7793,-280"/>
<text text-anchor="middle" x="66.7793" y="-339" font-family="Helvetica,sans-Serif" font-size="10.00" fill="#000000">free_body</text>
</a>
</g>
</g>
<!-- dir_695a4fe7505e16f9b0fe353bdb99895c -->
<g id="node1" class="node">
<title>dir_695a4fe7505e16f9b0fe353bdb99895c</title>
<g id="a_node1"><a xlink:href="dir_695a4fe7505e16f9b0fe353bdb99895c.html" target="_top" xlink:title="test">
<polygon fill="#eeeeff" stroke="#000000" points="93.7793,-324 39.7793,-324 39.7793,-288 93.7793,-288 93.7793,-324"/>
<text text-anchor="middle" x="66.7793" y="-303.5" font-family="Helvetica,sans-Serif" font-size="10.00" fill="#000000">test</text>
</a>
</g>
</g>
<!-- dir_fc0178d6978c9fa2cad6ef3e048a60a7 -->
<g id="node2" class="node">
<title>dir_fc0178d6978c9fa2cad6ef3e048a60a7</title>
<g id="a_node2"><a xlink:href="dir_fc0178d6978c9fa2cad6ef3e048a60a7.html" target="_top" xlink:title="math">
<polygon fill="#ffffff" stroke="#ff0000" points="110.7793,-108 56.7793,-108 56.7793,-72 110.7793,-72 110.7793,-108"/>
<text text-anchor="middle" x="83.7793" y="-87.5" font-family="Helvetica,sans-Serif" font-size="10.00" fill="#000000">math</text>
</a>
</g>
</g>
<!-- dir_695a4fe7505e16f9b0fe353bdb99895c&#45;&gt;dir_fc0178d6978c9fa2cad6ef3e048a60a7 -->
<g id="edge2" class="edge">
<title>dir_695a4fe7505e16f9b0fe353bdb99895c&#45;&gt;dir_fc0178d6978c9fa2cad6ef3e048a60a7</title>
<path fill="none" stroke="#000000" d="M70.3931,-287.5785C72.2972,-277.1741 74.4975,-263.9066 75.7793,-252 80.8163,-205.2136 82.6862,-150.479 83.3774,-118.109"/>
<polygon fill="#000000" stroke="#000000" points="86.8782,-118.0975 83.5695,-108.0326 79.8794,-117.964 86.8782,-118.0975"/>
<g id="a_edge2&#45;headlabel"><a xlink:href="dir_000201_000095.html" target="_top" xlink:title="2">
<text text-anchor="middle" x="89.6485" y="-119.2456" font-family="Helvetica,sans-Serif" font-size="10.00" fill="#000000">2</text>
</a>
</g>
</g>
<!-- dir_a36da230f0956f48b11c85f7d599788f -->
<g id="node3" class="node">
<title>dir_a36da230f0956f48b11c85f7d599788f</title>
<g id="a_node3"><a xlink:href="dir_a36da230f0956f48b11c85f7d599788f.html" target="_top" xlink:title="common">
<polygon fill="#ffffff" stroke="#ff0000" points="113.2793,-36 54.2793,-36 54.2793,0 113.2793,0 113.2793,-36"/>
<text text-anchor="middle" x="83.7793" y="-15.5" font-family="Helvetica,sans-Serif" font-size="10.00" fill="#000000">common</text>
</a>
</g>
</g>
<!-- dir_695a4fe7505e16f9b0fe353bdb99895c&#45;&gt;dir_a36da230f0956f48b11c85f7d599788f -->
<g id="edge3" class="edge">
<title>dir_695a4fe7505e16f9b0fe353bdb99895c&#45;&gt;dir_a36da230f0956f48b11c85f7d599788f</title>
<path fill="none" stroke="#000000" d="M39.7567,-290.6789C26.2577,-281.4052 11.2434,-268.2286 3.7793,-252 -2.9064,-237.4638 2.0335,-231.9045 3.7793,-216 10.9331,-150.8303 5.9324,-130.3732 35.7793,-72 41.0257,-61.7393 48.6888,-51.8883 56.3582,-43.4744"/>
<polygon fill="#000000" stroke="#000000" points="58.9514,-45.8269 63.3341,-36.181 53.8927,-40.9884 58.9514,-45.8269"/>
<g id="a_edge3&#45;headlabel"><a xlink:href="dir_000201_000078.html" target="_top" xlink:title="3">
<text text-anchor="middle" x="58.5186" y="-47.887" font-family="Helvetica,sans-Serif" font-size="10.00" fill="#000000">3</text>
</a>
</g>
</g>
<!-- dir_3f9cb8dbb3b4911cb2ecb548acd672c3 -->
<g id="node4" class="node">
<title>dir_3f9cb8dbb3b4911cb2ecb548acd672c3</title>
<g id="a_node4"><a xlink:href="dir_3f9cb8dbb3b4911cb2ecb548acd672c3.html" target="_top" xlink:title="tree">
<polygon fill="#ffffff" stroke="#ff0000" points="66.7793,-252 12.7793,-252 12.7793,-216 66.7793,-216 66.7793,-252"/>
<text text-anchor="middle" x="39.7793" y="-231.5" font-family="Helvetica,sans-Serif" font-size="10.00" fill="#000000">tree</text>
</a>
</g>
</g>
<!-- dir_695a4fe7505e16f9b0fe353bdb99895c&#45;&gt;dir_3f9cb8dbb3b4911cb2ecb548acd672c3 -->
<g id="edge4" class="edge">
<title>dir_695a4fe7505e16f9b0fe353bdb99895c&#45;&gt;dir_3f9cb8dbb3b4911cb2ecb548acd672c3</title>
<path fill="none" stroke="#000000" d="M59.9661,-287.8314C57.015,-279.9617 53.4935,-270.5712 50.2243,-261.8533"/>
<polygon fill="#000000" stroke="#000000" points="53.4727,-260.5476 46.6843,-252.4133 46.9184,-263.0055 53.4727,-260.5476"/>
<g id="a_edge4&#45;headlabel"><a xlink:href="dir_000201_000017.html" target="_top" xlink:title="4">
<text text-anchor="middle" x="57.3933" y="-260.4164" font-family="Helvetica,sans-Serif" font-size="10.00" fill="#000000">4</text>
</a>
</g>
</g>
<!-- dir_b7a0e33b407baa23d8a077e33033c988 -->
<g id="node5" class="node">
<title>dir_b7a0e33b407baa23d8a077e33033c988</title>
<g id="a_node5"><a xlink:href="dir_b7a0e33b407baa23d8a077e33033c988.html" target="_top" xlink:title="systems">
<polygon fill="#ffffff" stroke="#ff0000" points="180.7793,-180 122.7793,-180 122.7793,-144 180.7793,-144 180.7793,-180"/>
<text text-anchor="middle" x="151.7793" y="-159.5" font-family="Helvetica,sans-Serif" font-size="10.00" fill="#000000">systems</text>
</a>
</g>
</g>
<!-- dir_695a4fe7505e16f9b0fe353bdb99895c&#45;&gt;dir_b7a0e33b407baa23d8a077e33033c988 -->
<g id="edge5" class="edge">
<title>dir_695a4fe7505e16f9b0fe353bdb99895c&#45;&gt;dir_b7a0e33b407baa23d8a077e33033c988</title>
<path fill="none" stroke="#000000" d="M82.5898,-287.7282C90.9433,-277.5903 101.0392,-264.5293 108.7793,-252 121.1998,-231.8944 132.5979,-207.648 140.5339,-189.3895"/>
<polygon fill="#000000" stroke="#000000" points="143.7563,-190.7554 144.4631,-180.1841 137.3183,-188.0073 143.7563,-190.7554"/>
<g id="a_edge5&#45;headlabel"><a xlink:href="dir_000201_000218.html" target="_top" xlink:title="2">
<text text-anchor="middle" x="144.9566" y="-192.676" font-family="Helvetica,sans-Serif" font-size="10.00" fill="#000000">2</text>
</a>
</g>
</g>
<!-- dir_fc0178d6978c9fa2cad6ef3e048a60a7&#45;&gt;dir_a36da230f0956f48b11c85f7d599788f -->
<g id="edge1" class="edge">
<title>dir_fc0178d6978c9fa2cad6ef3e048a60a7&#45;&gt;dir_a36da230f0956f48b11c85f7d599788f</title>
<path fill="none" stroke="#000000" d="M77.8269,-71.8314C77.0765,-64.131 76.8556,-54.9743 77.1642,-46.4166"/>
<polygon fill="#000000" stroke="#000000" points="80.6585,-46.6161 77.8033,-36.4133 73.6728,-46.1697 80.6585,-46.6161"/>
<g id="a_edge1&#45;headlabel"><a xlink:href="dir_000095_000078.html" target="_top" xlink:title="87">
<text text-anchor="middle" x="83.2629" y="-47.8844" font-family="Helvetica,sans-Serif" font-size="10.00" fill="#000000">87</text>
</a>
</g>
</g>
<!-- dir_a36da230f0956f48b11c85f7d599788f&#45;&gt;dir_fc0178d6978c9fa2cad6ef3e048a60a7 -->
<g id="edge6" class="edge">
<title>dir_a36da230f0956f48b11c85f7d599788f&#45;&gt;dir_fc0178d6978c9fa2cad6ef3e048a60a7</title>
<path fill="none" stroke="#000000" d="M89.7553,-36.4133C90.4864,-44.0593 90.6996,-53.1084 90.3948,-61.5726"/>
<polygon fill="#000000" stroke="#000000" points="86.8841,-61.6264 89.7317,-71.8314 93.8695,-62.078 86.8841,-61.6264"/>
<g id="a_edge6&#45;headlabel"><a xlink:href="dir_000078_000095.html" target="_top" xlink:title="4">
<text text-anchor="middle" x="84.2825" y="-55.3562" font-family="Helvetica,sans-Serif" font-size="10.00" fill="#000000">4</text>
</a>
</g>
</g>
<!-- dir_3f9cb8dbb3b4911cb2ecb548acd672c3&#45;&gt;dir_fc0178d6978c9fa2cad6ef3e048a60a7 -->
<g id="edge7" class="edge">
<title>dir_3f9cb8dbb3b4911cb2ecb548acd672c3&#45;&gt;dir_fc0178d6978c9fa2cad6ef3e048a60a7</title>
<path fill="none" stroke="#000000" d="M45.352,-215.7623C52.8898,-191.0928 66.4055,-146.8598 75.232,-117.9731"/>
<polygon fill="#000000" stroke="#000000" points="78.6769,-118.6759 78.2519,-108.0896 71.9825,-116.6303 78.6769,-118.6759"/>
<g id="a_edge7&#45;headlabel"><a xlink:href="dir_000017_000095.html" target="_top" xlink:title="38">
<text text-anchor="middle" x="80.3419" y="-120.4433" font-family="Helvetica,sans-Serif" font-size="10.00" fill="#000000">38</text>
</a>
</g>
</g>
<!-- dir_3f9cb8dbb3b4911cb2ecb548acd672c3&#45;&gt;dir_a36da230f0956f48b11c85f7d599788f -->
<g id="edge8" class="edge">
<title>dir_3f9cb8dbb3b4911cb2ecb548acd672c3&#45;&gt;dir_a36da230f0956f48b11c85f7d599788f</title>
<path fill="none" stroke="#000000" d="M37.614,-215.9362C34.6172,-185.3974 31.2813,-122.0066 47.7793,-72 50.9757,-62.3114 56.4147,-52.721 62.11,-44.3713"/>
<polygon fill="#000000" stroke="#000000" points="65.0213,-46.3185 68.0546,-36.1671 59.3529,-42.2112 65.0213,-46.3185"/>
<g id="a_edge8&#45;headlabel"><a xlink:href="dir_000017_000078.html" target="_top" xlink:title="184">
<text text-anchor="middle" x="65.2114" y="-48.3952" font-family="Helvetica,sans-Serif" font-size="10.00" fill="#000000">184</text>
</a>
</g>
</g>
<!-- dir_3f9cb8dbb3b4911cb2ecb548acd672c3&#45;&gt;dir_b7a0e33b407baa23d8a077e33033c988 -->
<g id="edge9" class="edge">
<title>dir_3f9cb8dbb3b4911cb2ecb548acd672c3&#45;&gt;dir_b7a0e33b407baa23d8a077e33033c988</title>
<path fill="none" stroke="#000000" d="M66.8914,-216.5708C81.4214,-207.2301 99.5244,-195.5924 115.276,-185.4664"/>
<polygon fill="#000000" stroke="#000000" points="117.2282,-188.3723 123.7473,-180.0206 113.4428,-182.4841 117.2282,-188.3723"/>
<g id="a_edge9&#45;headlabel"><a xlink:href="dir_000017_000218.html" target="_top" xlink:title="44">
<text text-anchor="middle" x="115.7398" y="-190.2044" font-family="Helvetica,sans-Serif" font-size="10.00" fill="#000000">44</text>
</a>
</g>
</g>
<!-- dir_b7a0e33b407baa23d8a077e33033c988&#45;&gt;dir_fc0178d6978c9fa2cad6ef3e048a60a7 -->
<g id="edge10" class="edge">
<title>dir_b7a0e33b407baa23d8a077e33033c988&#45;&gt;dir_fc0178d6978c9fa2cad6ef3e048a60a7</title>
<path fill="none" stroke="#000000" d="M134.6201,-143.8314C126.6282,-135.3694 116.9755,-125.1489 108.2377,-115.8971"/>
<polygon fill="#000000" stroke="#000000" points="110.5805,-113.2802 101.1696,-108.4133 105.4913,-118.0866 110.5805,-113.2802"/>
<g id="a_edge10&#45;headlabel"><a xlink:href="dir_000218_000095.html" target="_top" xlink:title="29">
<text text-anchor="middle" x="115.1127" y="-111.444" font-family="Helvetica,sans-Serif" font-size="10.00" fill="#000000">29</text>
</a>
</g>
</g>
<!-- dir_b7a0e33b407baa23d8a077e33033c988&#45;&gt;dir_a36da230f0956f48b11c85f7d599788f -->
<g id="edge11" class="edge">
<title>dir_b7a0e33b407baa23d8a077e33033c988&#45;&gt;dir_a36da230f0956f48b11c85f7d599788f</title>
<path fill="none" stroke="#000000" d="M146.7741,-143.8768C141.3185,-125.3105 131.7472,-95.8665 119.7793,-72 115.1312,-62.7306 109.1725,-53.147 103.4462,-44.6731"/>
<polygon fill="#000000" stroke="#000000" points="106.2096,-42.5165 97.6276,-36.3037 100.4621,-46.5123 106.2096,-42.5165"/>
<g id="a_edge11&#45;headlabel"><a xlink:href="dir_000218_000078.html" target="_top" xlink:title="555">
<text text-anchor="middle" x="110.5927" y="-41.3472" font-family="Helvetica,sans-Serif" font-size="10.00" fill="#000000">555</text>
</a>
</g>
</g>
</g>
</svg>
