<?xml version="1.0" encoding="UTF-8" standalone="no"?>
<!DOCTYPE svg PUBLIC "-//W3C//DTD SVG 1.1//EN"
 "http://www.w3.org/Graphics/SVG/1.1/DTD/svg11.dtd">
<!-- Generated by graphviz version 2.40.1 (20161225.0304)
 -->
<!-- Title: drake/attic/systems/controllers/qp_inverse_dynamics/test Pages: 1 -->
<svg width="146pt" height="295pt"
 viewBox="0.00 0.00 146.00 295.00" xmlns="http://www.w3.org/2000/svg" xmlns:xlink="http://www.w3.org/1999/xlink">
<g id="graph0" class="graph" transform="scale(1 1) rotate(0) translate(4 291)">
<title>drake/attic/systems/controllers/qp_inverse_dynamics/test</title>
<polygon fill="#ffffff" stroke="transparent" points="-4,4 -4,-291 142,-291 142,4 -4,4"/>
<g id="clust1" class="cluster">
<title>clusterdir_1ae8df7b06d86142f01d79c110534c51</title>
<g id="a_clust1"><a xlink:href="dir_1ae8df7b06d86142f01d79c110534c51.html" target="_top" xlink:title="qp_inverse_dynamics">
<polygon fill="#ddddee" stroke="#000000" points="8,-208 8,-279 130,-279 130,-208 8,-208"/>
<text text-anchor="middle" x="69" y="-267" font-family="Helvetica,sans-Serif" font-size="10.00" fill="#000000">qp_inverse_dynamics</text>
</a>
</g>
</g>
<!-- dir_4a45edcef9c57c61ba702d05b4d9fcef -->
<g id="node1" class="node">
<title>dir_4a45edcef9c57c61ba702d05b4d9fcef</title>
<g id="a_node1"><a xlink:href="dir_4a45edcef9c57c61ba702d05b4d9fcef.html" target="_top" xlink:title="test">
<polygon fill="#eeeeff" stroke="#000000" points="96,-252 42,-252 42,-216 96,-216 96,-252"/>
<text text-anchor="middle" x="69" y="-231.5" font-family="Helvetica,sans-Serif" font-size="10.00" fill="#000000">test</text>
</a>
</g>
</g>
<!-- dir_a36da230f0956f48b11c85f7d599788f -->
<g id="node2" class="node">
<title>dir_a36da230f0956f48b11c85f7d599788f</title>
<g id="a_node2"><a xlink:href="dir_a36da230f0956f48b11c85f7d599788f.html" target="_top" xlink:title="common">
<polygon fill="#ffffff" stroke="#ff0000" points="75.5,-36 16.5,-36 16.5,0 75.5,0 75.5,-36"/>
<text text-anchor="middle" x="46" y="-15.5" font-family="Helvetica,sans-Serif" font-size="10.00" fill="#000000">common</text>
</a>
</g>
</g>
<!-- dir_4a45edcef9c57c61ba702d05b4d9fcef&#45;&gt;dir_a36da230f0956f48b11c85f7d599788f -->
<g id="edge1" class="edge">
<title>dir_4a45edcef9c57c61ba702d05b4d9fcef&#45;&gt;dir_a36da230f0956f48b11c85f7d599788f</title>
<path fill="none" stroke="#000000" d="M49.95,-215.8859C41.143,-206.1885 31.6254,-193.4808 27,-180 11.4927,-134.8034 24.6829,-78.8059 35.4768,-45.882"/>
<polygon fill="#000000" stroke="#000000" points="38.9169,-46.6408 38.8577,-36.0461 32.2971,-44.3653 38.9169,-46.6408"/>
<g id="a_edge1&#45;headlabel"><a xlink:href="dir_000047_000086.html" target="_top" xlink:title="14">
<text text-anchor="middle" x="40.4336" y="-48.4631" font-family="Helvetica,sans-Serif" font-size="10.00" fill="#000000">14</text>
</a>
</g>
</g>
<!-- dir_bf85a0c13984f214f436b2edc519c6dd -->
<g id="node3" class="node">
<title>dir_bf85a0c13984f214f436b2edc519c6dd</title>
<g id="a_node3"><a xlink:href="dir_bf85a0c13984f214f436b2edc519c6dd.html" target="_top" xlink:title="examples">
<polygon fill="#ffffff" stroke="#ff0000" points="101.5,-180 36.5,-180 36.5,-144 101.5,-144 101.5,-180"/>
<text text-anchor="middle" x="69" y="-159.5" font-family="Helvetica,sans-Serif" font-size="10.00" fill="#000000">examples</text>
</a>
</g>
</g>
<!-- dir_4a45edcef9c57c61ba702d05b4d9fcef&#45;&gt;dir_bf85a0c13984f214f436b2edc519c6dd -->
<g id="edge2" class="edge">
<title>dir_4a45edcef9c57c61ba702d05b4d9fcef&#45;&gt;dir_bf85a0c13984f214f436b2edc519c6dd</title>
<path fill="none" stroke="#000000" d="M69,-215.8314C69,-208.131 69,-198.9743 69,-190.4166"/>
<polygon fill="#000000" stroke="#000000" points="72.5001,-190.4132 69,-180.4133 65.5001,-190.4133 72.5001,-190.4132"/>
<g id="a_edge2&#45;headlabel"><a xlink:href="dir_000047_000113.html" target="_top" xlink:title="1">
<text text-anchor="middle" x="75.3393" y="-191.5079" font-family="Helvetica,sans-Serif" font-size="10.00" fill="#000000">1</text>
</a>
</g>
</g>
<!-- dir_b7a0e33b407baa23d8a077e33033c988 -->
<g id="node4" class="node">
<title>dir_b7a0e33b407baa23d8a077e33033c988</title>
<g id="a_node4"><a xlink:href="dir_b7a0e33b407baa23d8a077e33033c988.html" target="_top" xlink:title="systems">
<polygon fill="#ffffff" stroke="#ff0000" points="132,-108 74,-108 74,-72 132,-72 132,-108"/>
<text text-anchor="middle" x="103" y="-87.5" font-family="Helvetica,sans-Serif" font-size="10.00" fill="#000000">systems</text>
</a>
</g>
</g>
<!-- dir_4a45edcef9c57c61ba702d05b4d9fcef&#45;&gt;dir_b7a0e33b407baa23d8a077e33033c988 -->
<g id="edge3" class="edge">
<title>dir_4a45edcef9c57c61ba702d05b4d9fcef&#45;&gt;dir_b7a0e33b407baa23d8a077e33033c988</title>
<path fill="none" stroke="#000000" d="M87.604,-215.8067C96.2033,-206.0891 105.4937,-193.3872 110,-180 116.7291,-160.0096 114.4481,-136.1632 110.7709,-118.0404"/>
<polygon fill="#000000" stroke="#000000" points="114.1403,-117.0736 108.5021,-108.1037 107.316,-118.6319 114.1403,-117.0736"/>
<g id="a_edge3&#45;headlabel"><a xlink:href="dir_000047_000218.html" target="_top" xlink:title="7">
<text text-anchor="middle" x="117.7085" y="-117.4461" font-family="Helvetica,sans-Serif" font-size="10.00" fill="#000000">7</text>
</a>
</g>
</g>
<!-- dir_bf85a0c13984f214f436b2edc519c6dd&#45;&gt;dir_a36da230f0956f48b11c85f7d599788f -->
<g id="edge4" class="edge">
<title>dir_bf85a0c13984f214f436b2edc519c6dd&#45;&gt;dir_a36da230f0956f48b11c85f7d599788f</title>
<path fill="none" stroke="#000000" d="M66.087,-143.7623C62.1468,-119.0928 55.0818,-74.8598 50.4679,-45.9731"/>
<polygon fill="#000000" stroke="#000000" points="53.9228,-45.4124 48.8893,-36.0896 47.0104,-46.5165 53.9228,-45.4124"/>
<g id="a_edge4&#45;headlabel"><a xlink:href="dir_000113_000086.html" target="_top" xlink:title="228">
<text text-anchor="middle" x="57.2934" y="-46.0142" font-family="Helvetica,sans-Serif" font-size="10.00" fill="#000000">228</text>
</a>
</g>
</g>
<!-- dir_bf85a0c13984f214f436b2edc519c6dd&#45;&gt;dir_b7a0e33b407baa23d8a077e33033c988 -->
<g id="edge5" class="edge">
<title>dir_bf85a0c13984f214f436b2edc519c6dd&#45;&gt;dir_b7a0e33b407baa23d8a077e33033c988</title>
<path fill="none" stroke="#000000" d="M71.6272,-143.8314C74.64,-135.7925 78.9792,-126.1666 83.5409,-117.2918"/>
<polygon fill="#000000" stroke="#000000" points="86.6629,-118.8763 88.3288,-108.4133 80.5016,-115.5537 86.6629,-118.8763"/>
<g id="a_edge5&#45;headlabel"><a xlink:href="dir_000113_000218.html" target="_top" xlink:title="405">
<text text-anchor="middle" x="87.4558" y="-120.8878" font-family="Helvetica,sans-Serif" font-size="10.00" fill="#000000">405</text>
</a>
</g>
</g>
<!-- dir_b7a0e33b407baa23d8a077e33033c988&#45;&gt;dir_a36da230f0956f48b11c85f7d599788f -->
<g id="edge6" class="edge">
<title>dir_b7a0e33b407baa23d8a077e33033c988&#45;&gt;dir_a36da230f0956f48b11c85f7d599788f</title>
<path fill="none" stroke="#000000" d="M88.6165,-71.8314C82.0514,-63.5386 74.1493,-53.557 66.9422,-44.4533"/>
<polygon fill="#000000" stroke="#000000" points="69.5284,-42.0813 60.5772,-36.4133 64.0401,-46.4262 69.5284,-42.0813"/>
<g id="a_edge6&#45;headlabel"><a xlink:href="dir_000218_000086.html" target="_top" xlink:title="548">
<text text-anchor="middle" x="73.9857" y="-40.6373" font-family="Helvetica,sans-Serif" font-size="10.00" fill="#000000">548</text>
</a>
</g>
</g>
<!-- dir_b7a0e33b407baa23d8a077e33033c988&#45;&gt;dir_bf85a0c13984f214f436b2edc519c6dd -->
<g id="edge7" class="edge">
<title>dir_b7a0e33b407baa23d8a077e33033c988&#45;&gt;dir_bf85a0c13984f214f436b2edc519c6dd</title>
<path fill="none" stroke="#000000" d="M100.2809,-108.4133C97.2414,-116.484 92.8866,-126.1182 88.3205,-134.9775"/>
<polygon fill="#000000" stroke="#000000" points="85.2107,-133.3703 83.532,-143.8314 91.3679,-136.7004 85.2107,-133.3703"/>
<g id="a_edge7&#45;headlabel"><a xlink:href="dir_000218_000113.html" target="_top" xlink:title="6">
<text text-anchor="middle" x="84.4232" y="-126.3579" font-family="Helvetica,sans-Serif" font-size="10.00" fill="#000000">6</text>
</a>
</g>
</g>
</g>
</svg>
