<?xml version="1.0" encoding="UTF-8" standalone="no"?>
<!DOCTYPE svg PUBLIC "-//W3C//DTD SVG 1.1//EN"
 "http://www.w3.org/Graphics/SVG/1.1/DTD/svg11.dtd">
<!-- Generated by graphviz version 2.40.1 (20161225.0304)
 -->
<!-- Title: drake/attic/manipulation/scene_generation/test Pages: 1 -->
<svg width="127pt" height="151pt"
 viewBox="0.00 0.00 127.00 151.00" xmlns="http://www.w3.org/2000/svg" xmlns:xlink="http://www.w3.org/1999/xlink">
<g id="graph0" class="graph" transform="scale(1 1) rotate(0) translate(4 147)">
<title>drake/attic/manipulation/scene_generation/test</title>
<polygon fill="#ffffff" stroke="transparent" points="-4,4 -4,-147 123,-147 123,4 -4,4"/>
<g id="clust1" class="cluster">
<title>clusterdir_4df881f44623118bc2feb9306feab623</title>
<g id="a_clust1"><a xlink:href="dir_4df881f44623118bc2feb9306feab623.html" target="_top" xlink:title="scene_generation">
<polygon fill="#ddddee" stroke="#000000" points="8,-64 8,-135 111,-135 111,-64 8,-64"/>
<text text-anchor="middle" x="59.5" y="-123" font-family="Helvetica,sans-Serif" font-size="10.00" fill="#000000">scene_generation</text>
</a>
</g>
</g>
<!-- dir_3f894fb23ee427f0d7fd825fa8be1b2a -->
<g id="node1" class="node">
<title>dir_3f894fb23ee427f0d7fd825fa8be1b2a</title>
<g id="a_node1"><a xlink:href="dir_3f894fb23ee427f0d7fd825fa8be1b2a.html" target="_top" xlink:title="test">
<polygon fill="#eeeeff" stroke="#000000" points="86,-108 32,-108 32,-72 86,-72 86,-108"/>
<text text-anchor="middle" x="59" y="-87.5" font-family="Helvetica,sans-Serif" font-size="10.00" fill="#000000">test</text>
</a>
</g>
</g>
<!-- dir_a36da230f0956f48b11c85f7d599788f -->
<g id="node2" class="node">
<title>dir_a36da230f0956f48b11c85f7d599788f</title>
<g id="a_node2"><a xlink:href="dir_a36da230f0956f48b11c85f7d599788f.html" target="_top" xlink:title="common">
<polygon fill="#ffffff" stroke="#ff0000" points="88.5,-36 29.5,-36 29.5,0 88.5,0 88.5,-36"/>
<text text-anchor="middle" x="59" y="-15.5" font-family="Helvetica,sans-Serif" font-size="10.00" fill="#000000">common</text>
</a>
</g>
</g>
<!-- dir_3f894fb23ee427f0d7fd825fa8be1b2a&#45;&gt;dir_a36da230f0956f48b11c85f7d599788f -->
<g id="edge1" class="edge">
<title>dir_3f894fb23ee427f0d7fd825fa8be1b2a&#45;&gt;dir_a36da230f0956f48b11c85f7d599788f</title>
<path fill="none" stroke="#000000" d="M59,-71.8314C59,-64.131 59,-54.9743 59,-46.4166"/>
<polygon fill="#000000" stroke="#000000" points="62.5001,-46.4132 59,-36.4133 55.5001,-46.4133 62.5001,-46.4132"/>
<g id="a_edge1&#45;headlabel"><a xlink:href="dir_000006_000078.html" target="_top" xlink:title="2">
<text text-anchor="middle" x="65.3393" y="-47.5079" font-family="Helvetica,sans-Serif" font-size="10.00" fill="#000000">2</text>
</a>
</g>
</g>
</g>
</svg>
