<?xml version="1.0" encoding="UTF-8" standalone="no"?>
<!DOCTYPE svg PUBLIC "-//W3C//DTD SVG 1.1//EN"
 "http://www.w3.org/Graphics/SVG/1.1/DTD/svg11.dtd">
<!-- Generated by graphviz version 2.40.1 (20161225.0304)
 -->
<!-- Title: drake/bindings/pydrake/manipulation Pages: 1 -->
<svg width="122pt" height="151pt"
 viewBox="0.00 0.00 122.00 151.00" xmlns="http://www.w3.org/2000/svg" xmlns:xlink="http://www.w3.org/1999/xlink">
<g id="graph0" class="graph" transform="scale(1 1) rotate(0) translate(4 147)">
<title>drake/bindings/pydrake/manipulation</title>
<polygon fill="#ffffff" stroke="transparent" points="-4,4 -4,-147 118,-147 118,4 -4,4"/>
<g id="clust1" class="cluster">
<title>clusterdir_8816e59dc2bf9c067e8fdc1ddb07dc45</title>
<g id="a_clust1"><a xlink:href="dir_8816e59dc2bf9c067e8fdc1ddb07dc45.html" target="_top" xlink:title="pydrake">
<polygon fill="#ddddee" stroke="#000000" points="8,-64 8,-135 106,-135 106,-64 8,-64"/>
<text text-anchor="middle" x="57" y="-123" font-family="Helvetica,sans-Serif" font-size="10.00" fill="#000000">pydrake</text>
</a>
</g>
</g>
<!-- dir_3213a4aa3fd6f4f0468be31d22fc7606 -->
<g id="node1" class="node">
<title>dir_3213a4aa3fd6f4f0468be31d22fc7606</title>
<g id="a_node1"><a xlink:href="dir_3213a4aa3fd6f4f0468be31d22fc7606.html" target="_top" xlink:title="manipulation">
<polygon fill="#eeeeff" stroke="#000000" points="97.5,-108 16.5,-108 16.5,-72 97.5,-72 97.5,-108"/>
<text text-anchor="middle" x="57" y="-87.5" font-family="Helvetica,sans-Serif" font-size="10.00" fill="#000000">manipulation</text>
</a>
</g>
</g>
<!-- dir_758aa030403a70af025108ac41d12d0d -->
<g id="node2" class="node">
<title>dir_758aa030403a70af025108ac41d12d0d</title>
<g id="a_node2"><a xlink:href="dir_758aa030403a70af025108ac41d12d0d.html" target="_top" xlink:title="manipulation">
<polygon fill="#ffffff" stroke="#ff0000" points="97.5,-36 16.5,-36 16.5,0 97.5,0 97.5,-36"/>
<text text-anchor="middle" x="57" y="-15.5" font-family="Helvetica,sans-Serif" font-size="10.00" fill="#000000">manipulation</text>
</a>
</g>
</g>
<!-- dir_3213a4aa3fd6f4f0468be31d22fc7606&#45;&gt;dir_758aa030403a70af025108ac41d12d0d -->
<g id="edge1" class="edge">
<title>dir_3213a4aa3fd6f4f0468be31d22fc7606&#45;&gt;dir_758aa030403a70af025108ac41d12d0d</title>
<path fill="none" stroke="#000000" d="M57,-71.8314C57,-64.131 57,-54.9743 57,-46.4166"/>
<polygon fill="#000000" stroke="#000000" points="60.5001,-46.4132 57,-36.4133 53.5001,-46.4133 60.5001,-46.4132"/>
<g id="a_edge1&#45;headlabel"><a xlink:href="dir_000086_000169.html" target="_top" xlink:title="1">
<text text-anchor="middle" x="63.3393" y="-47.5079" font-family="Helvetica,sans-Serif" font-size="10.00" fill="#000000">1</text>
</a>
</g>
</g>
</g>
</svg>
