<?xml version="1.0" encoding="UTF-8" standalone="no"?>
<!DOCTYPE svg PUBLIC "-//W3C//DTD SVG 1.1//EN"
 "http://www.w3.org/Graphics/SVG/1.1/DTD/svg11.dtd">
<!-- Generated by graphviz version 2.40.1 (20161225.0304)
 -->
<!-- Title: drake/multibody/benchmarks/inclined_plane Pages: 1 -->
<svg width="196pt" height="295pt"
 viewBox="0.00 0.00 195.58 295.00" xmlns="http://www.w3.org/2000/svg" xmlns:xlink="http://www.w3.org/1999/xlink">
<g id="graph0" class="graph" transform="scale(1 1) rotate(0) translate(4 291)">
<title>drake/multibody/benchmarks/inclined_plane</title>
<polygon fill="#ffffff" stroke="transparent" points="-4,4 -4,-291 191.5803,-291 191.5803,4 -4,4"/>
<g id="clust1" class="cluster">
<title>clusterdir_5d8dbe7a82c2c188fa06f6391bb290bd</title>
<g id="a_clust1"><a xlink:href="dir_5d8dbe7a82c2c188fa06f6391bb290bd.html" target="_top" xlink:title="benchmarks">
<polygon fill="#ddddee" stroke="#000000" points="24.5803,-208 24.5803,-279 128.5803,-279 128.5803,-208 24.5803,-208"/>
<text text-anchor="middle" x="76.5803" y="-267" font-family="Helvetica,sans-Serif" font-size="10.00" fill="#000000">benchmarks</text>
</a>
</g>
</g>
<!-- dir_b54e51ce690a91bb5edb8aefc17ffc16 -->
<g id="node1" class="node">
<title>dir_b54e51ce690a91bb5edb8aefc17ffc16</title>
<g id="a_node1"><a xlink:href="dir_b54e51ce690a91bb5edb8aefc17ffc16.html" target="_top" xlink:title="inclined_plane">
<polygon fill="#eeeeff" stroke="#000000" points="120.0803,-252 33.0803,-252 33.0803,-216 120.0803,-216 120.0803,-252"/>
<text text-anchor="middle" x="76.5803" y="-231.5" font-family="Helvetica,sans-Serif" font-size="10.00" fill="#000000">inclined_plane</text>
</a>
</g>
</g>
<!-- dir_fc0178d6978c9fa2cad6ef3e048a60a7 -->
<g id="node2" class="node">
<title>dir_fc0178d6978c9fa2cad6ef3e048a60a7</title>
<g id="a_node2"><a xlink:href="dir_fc0178d6978c9fa2cad6ef3e048a60a7.html" target="_top" xlink:title="math">
<polygon fill="#ffffff" stroke="#ff0000" points="102.5803,-36 48.5803,-36 48.5803,0 102.5803,0 102.5803,-36"/>
<text text-anchor="middle" x="75.5803" y="-15.5" font-family="Helvetica,sans-Serif" font-size="10.00" fill="#000000">math</text>
</a>
</g>
</g>
<!-- dir_b54e51ce690a91bb5edb8aefc17ffc16&#45;&gt;dir_fc0178d6978c9fa2cad6ef3e048a60a7 -->
<g id="edge1" class="edge">
<title>dir_b54e51ce690a91bb5edb8aefc17ffc16&#45;&gt;dir_fc0178d6978c9fa2cad6ef3e048a60a7</title>
<path fill="none" stroke="#000000" d="M62.0042,-215.733C44.3815,-192.3641 15.7029,-149.8829 4.5803,-108 .4736,-92.536 -2.527,-86.3348 4.5803,-72 12.0855,-56.8625 26.0892,-44.8196 39.6892,-35.983"/>
<polygon fill="#000000" stroke="#000000" points="41.7624,-38.819 48.4956,-30.6389 38.1308,-32.8347 41.7624,-38.819"/>
<g id="a_edge1&#45;headlabel"><a xlink:href="dir_000203_000105.html" target="_top" xlink:title="1">
<text text-anchor="middle" x="40.1624" y="-40.6111" font-family="Helvetica,sans-Serif" font-size="10.00" fill="#000000">1</text>
</a>
</g>
</g>
<!-- dir_d739e095b49d8b72164589d00310017d -->
<g id="node3" class="node">
<title>dir_d739e095b49d8b72164589d00310017d</title>
<g id="a_node3"><a xlink:href="dir_d739e095b49d8b72164589d00310017d.html" target="_top" xlink:title="geometry">
<polygon fill="#ffffff" stroke="#ff0000" points="77.5803,-108 13.5803,-108 13.5803,-72 77.5803,-72 77.5803,-108"/>
<text text-anchor="middle" x="45.5803" y="-87.5" font-family="Helvetica,sans-Serif" font-size="10.00" fill="#000000">geometry</text>
</a>
</g>
</g>
<!-- dir_b54e51ce690a91bb5edb8aefc17ffc16&#45;&gt;dir_d739e095b49d8b72164589d00310017d -->
<g id="edge2" class="edge">
<title>dir_b54e51ce690a91bb5edb8aefc17ffc16&#45;&gt;dir_d739e095b49d8b72164589d00310017d</title>
<path fill="none" stroke="#000000" d="M72.6541,-215.7623C67.3433,-191.0928 57.8209,-146.8598 51.6023,-117.9731"/>
<polygon fill="#000000" stroke="#000000" points="55.0008,-117.129 49.4746,-108.0896 48.1576,-118.6023 55.0008,-117.129"/>
<g id="a_edge2&#45;headlabel"><a xlink:href="dir_000203_000159.html" target="_top" xlink:title="1">
<text text-anchor="middle" x="58.533" y="-117.5456" font-family="Helvetica,sans-Serif" font-size="10.00" fill="#000000">1</text>
</a>
</g>
</g>
<!-- dir_3f9cb8dbb3b4911cb2ecb548acd672c3 -->
<g id="node4" class="node">
<title>dir_3f9cb8dbb3b4911cb2ecb548acd672c3</title>
<g id="a_node4"><a xlink:href="dir_3f9cb8dbb3b4911cb2ecb548acd672c3.html" target="_top" xlink:title="tree">
<polygon fill="#ffffff" stroke="#ff0000" points="187.5803,-108 133.5803,-108 133.5803,-72 187.5803,-72 187.5803,-108"/>
<text text-anchor="middle" x="160.5803" y="-87.5" font-family="Helvetica,sans-Serif" font-size="10.00" fill="#000000">tree</text>
</a>
</g>
</g>
<!-- dir_b54e51ce690a91bb5edb8aefc17ffc16&#45;&gt;dir_3f9cb8dbb3b4911cb2ecb548acd672c3 -->
<g id="edge3" class="edge">
<title>dir_b54e51ce690a91bb5edb8aefc17ffc16&#45;&gt;dir_3f9cb8dbb3b4911cb2ecb548acd672c3</title>
<path fill="none" stroke="#000000" d="M106.4168,-215.8066C119.1065,-206.5955 132.9411,-194.3208 141.5803,-180 152.8727,-161.2811 157.5211,-136.8463 159.4021,-118.1613"/>
<polygon fill="#000000" stroke="#000000" points="162.8919,-118.4265 160.2031,-108.1785 155.9144,-117.8665 162.8919,-118.4265"/>
<g id="a_edge3&#45;headlabel"><a xlink:href="dir_000203_000027.html" target="_top" xlink:title="1">
<text text-anchor="middle" x="165.4347" y="-119.7366" font-family="Helvetica,sans-Serif" font-size="10.00" fill="#000000">1</text>
</a>
</g>
</g>
<!-- dir_656f7d340c0f5b4ecaf881820f2aea38 -->
<g id="node5" class="node">
<title>dir_656f7d340c0f5b4ecaf881820f2aea38</title>
<g id="a_node5"><a xlink:href="dir_656f7d340c0f5b4ecaf881820f2aea38.html" target="_top" xlink:title="plant">
<polygon fill="#ffffff" stroke="#ff0000" points="132.5803,-180 78.5803,-180 78.5803,-144 132.5803,-144 132.5803,-180"/>
<text text-anchor="middle" x="105.5803" y="-159.5" font-family="Helvetica,sans-Serif" font-size="10.00" fill="#000000">plant</text>
</a>
</g>
</g>
<!-- dir_b54e51ce690a91bb5edb8aefc17ffc16&#45;&gt;dir_656f7d340c0f5b4ecaf881820f2aea38 -->
<g id="edge4" class="edge">
<title>dir_b54e51ce690a91bb5edb8aefc17ffc16&#45;&gt;dir_656f7d340c0f5b4ecaf881820f2aea38</title>
<path fill="none" stroke="#000000" d="M83.8982,-215.8314C87.0679,-207.9617 90.8502,-198.5712 94.3616,-189.8533"/>
<polygon fill="#000000" stroke="#000000" points="97.6742,-190.9968 98.1638,-180.4133 91.1811,-188.3815 97.6742,-190.9968"/>
<g id="a_edge4&#45;headlabel"><a xlink:href="dir_000203_000034.html" target="_top" xlink:title="1">
<text text-anchor="middle" x="98.965" y="-192.8919" font-family="Helvetica,sans-Serif" font-size="10.00" fill="#000000">1</text>
</a>
</g>
</g>
<!-- dir_d739e095b49d8b72164589d00310017d&#45;&gt;dir_fc0178d6978c9fa2cad6ef3e048a60a7 -->
<g id="edge5" class="edge">
<title>dir_d739e095b49d8b72164589d00310017d&#45;&gt;dir_fc0178d6978c9fa2cad6ef3e048a60a7</title>
<path fill="none" stroke="#000000" d="M53.1506,-71.8314C56.4296,-63.9617 60.3423,-54.5712 63.9748,-45.8533"/>
<polygon fill="#000000" stroke="#000000" points="67.2927,-46.9902 67.9081,-36.4133 60.8311,-44.2979 67.2927,-46.9902"/>
<g id="a_edge5&#45;headlabel"><a xlink:href="dir_000159_000105.html" target="_top" xlink:title="3">
<text text-anchor="middle" x="68.531" y="-48.9003" font-family="Helvetica,sans-Serif" font-size="10.00" fill="#000000">3</text>
</a>
</g>
</g>
<!-- dir_3f9cb8dbb3b4911cb2ecb548acd672c3&#45;&gt;dir_fc0178d6978c9fa2cad6ef3e048a60a7 -->
<g id="edge6" class="edge">
<title>dir_3f9cb8dbb3b4911cb2ecb548acd672c3&#45;&gt;dir_fc0178d6978c9fa2cad6ef3e048a60a7</title>
<path fill="none" stroke="#000000" d="M139.1312,-71.8314C128.7625,-63.0485 116.1574,-52.3712 104.9157,-42.8489"/>
<polygon fill="#000000" stroke="#000000" points="106.9152,-39.9556 97.0225,-36.1628 102.3908,-45.297 106.9152,-39.9556"/>
<g id="a_edge6&#45;headlabel"><a xlink:href="dir_000027_000105.html" target="_top" xlink:title="38">
<text text-anchor="middle" x="111.4932" y="-37.6125" font-family="Helvetica,sans-Serif" font-size="10.00" fill="#000000">38</text>
</a>
</g>
</g>
<!-- dir_3f9cb8dbb3b4911cb2ecb548acd672c3&#45;&gt;dir_656f7d340c0f5b4ecaf881820f2aea38 -->
<g id="edge7" class="edge">
<title>dir_3f9cb8dbb3b4911cb2ecb548acd672c3&#45;&gt;dir_656f7d340c0f5b4ecaf881820f2aea38</title>
<path fill="none" stroke="#000000" d="M152.4906,-108.4133C146.8701,-116.8239 139.3259,-126.9323 131.8794,-136.0923"/>
<polygon fill="#000000" stroke="#000000" points="129.1387,-133.9138 125.4115,-143.8314 134.5099,-138.4027 129.1387,-133.9138"/>
<g id="a_edge7&#45;headlabel"><a xlink:href="dir_000027_000034.html" target="_top" xlink:title="1">
<text text-anchor="middle" x="129.2652" y="-126.8348" font-family="Helvetica,sans-Serif" font-size="10.00" fill="#000000">1</text>
</a>
</g>
</g>
<!-- dir_656f7d340c0f5b4ecaf881820f2aea38&#45;&gt;dir_fc0178d6978c9fa2cad6ef3e048a60a7 -->
<g id="edge8" class="edge">
<title>dir_656f7d340c0f5b4ecaf881820f2aea38&#45;&gt;dir_fc0178d6978c9fa2cad6ef3e048a60a7</title>
<path fill="none" stroke="#000000" d="M101.7808,-143.7623C96.6413,-119.0928 87.4261,-74.8598 81.408,-45.9731"/>
<polygon fill="#000000" stroke="#000000" points="84.815,-45.1656 79.349,-36.0896 77.9622,-46.5933 84.815,-45.1656"/>
<g id="a_edge8&#45;headlabel"><a xlink:href="dir_000034_000105.html" target="_top" xlink:title="15">
<text text-anchor="middle" x="88.3277" y="-45.6056" font-family="Helvetica,sans-Serif" font-size="10.00" fill="#000000">15</text>
</a>
</g>
</g>
<!-- dir_656f7d340c0f5b4ecaf881820f2aea38&#45;&gt;dir_d739e095b49d8b72164589d00310017d -->
<g id="edge9" class="edge">
<title>dir_656f7d340c0f5b4ecaf881820f2aea38&#45;&gt;dir_d739e095b49d8b72164589d00310017d</title>
<path fill="none" stroke="#000000" d="M90.4398,-143.8314C83.4586,-135.454 75.0412,-125.3531 67.3927,-116.1749"/>
<polygon fill="#000000" stroke="#000000" points="70.0153,-113.8548 60.9247,-108.4133 64.6378,-118.3362 70.0153,-113.8548"/>
<g id="a_edge9&#45;headlabel"><a xlink:href="dir_000034_000159.html" target="_top" xlink:title="13">
<text text-anchor="middle" x="74.4977" y="-112.2986" font-family="Helvetica,sans-Serif" font-size="10.00" fill="#000000">13</text>
</a>
</g>
</g>
<!-- dir_656f7d340c0f5b4ecaf881820f2aea38&#45;&gt;dir_3f9cb8dbb3b4911cb2ecb548acd672c3 -->
<g id="edge10" class="edge">
<title>dir_656f7d340c0f5b4ecaf881820f2aea38&#45;&gt;dir_3f9cb8dbb3b4911cb2ecb548acd672c3</title>
<path fill="none" stroke="#000000" d="M113.5067,-143.8314C119.0897,-135.454 126.616,-125.3531 134.0641,-116.1749"/>
<polygon fill="#000000" stroke="#000000" points="136.8207,-118.3344 140.5386,-108.4133 131.4453,-113.8504 136.8207,-118.3344"/>
<g id="a_edge10&#45;headlabel"><a xlink:href="dir_000034_000027.html" target="_top" xlink:title="28">
<text text-anchor="middle" x="136.6984" y="-120.4134" font-family="Helvetica,sans-Serif" font-size="10.00" fill="#000000">28</text>
</a>
</g>
</g>
</g>
</svg>
