<?xml version="1.0" encoding="UTF-8" standalone="no"?>
<!DOCTYPE svg PUBLIC "-//W3C//DTD SVG 1.1//EN"
 "http://www.w3.org/Graphics/SVG/1.1/DTD/svg11.dtd">
<!-- Generated by graphviz version 2.40.1 (20161225.0304)
 -->
<!-- Title: drake/multibody/benchmarks/mass_damper_spring/test Pages: 1 -->
<svg width="145pt" height="151pt"
 viewBox="0.00 0.00 145.00 151.00" xmlns="http://www.w3.org/2000/svg" xmlns:xlink="http://www.w3.org/1999/xlink">
<g id="graph0" class="graph" transform="scale(1 1) rotate(0) translate(4 147)">
<title>drake/multibody/benchmarks/mass_damper_spring/test</title>
<polygon fill="#ffffff" stroke="transparent" points="-4,4 -4,-147 141,-147 141,4 -4,4"/>
<g id="clust1" class="cluster">
<title>clusterdir_7c13d4ecf9df251d512b4733b7b28f01</title>
<g id="a_clust1"><a xlink:href="dir_7c13d4ecf9df251d512b4733b7b28f01.html" target="_top" xlink:title="mass_damper_spring">
<polygon fill="#ddddee" stroke="#000000" points="8,-64 8,-135 129,-135 129,-64 8,-64"/>
<text text-anchor="middle" x="68.5" y="-123" font-family="Helvetica,sans-Serif" font-size="10.00" fill="#000000">mass_damper_spring</text>
</a>
</g>
</g>
<!-- dir_a07817525eb1780d334bb259e565a813 -->
<g id="node1" class="node">
<title>dir_a07817525eb1780d334bb259e565a813</title>
<g id="a_node1"><a xlink:href="dir_a07817525eb1780d334bb259e565a813.html" target="_top" xlink:title="test">
<polygon fill="#eeeeff" stroke="#000000" points="95,-108 41,-108 41,-72 95,-72 95,-108"/>
<text text-anchor="middle" x="68" y="-87.5" font-family="Helvetica,sans-Serif" font-size="10.00" fill="#000000">test</text>
</a>
</g>
</g>
<!-- dir_a36da230f0956f48b11c85f7d599788f -->
<g id="node2" class="node">
<title>dir_a36da230f0956f48b11c85f7d599788f</title>
<g id="a_node2"><a xlink:href="dir_a36da230f0956f48b11c85f7d599788f.html" target="_top" xlink:title="common">
<polygon fill="#ffffff" stroke="#ff0000" points="97.5,-36 38.5,-36 38.5,0 97.5,0 97.5,-36"/>
<text text-anchor="middle" x="68" y="-15.5" font-family="Helvetica,sans-Serif" font-size="10.00" fill="#000000">common</text>
</a>
</g>
</g>
<!-- dir_a07817525eb1780d334bb259e565a813&#45;&gt;dir_a36da230f0956f48b11c85f7d599788f -->
<g id="edge1" class="edge">
<title>dir_a07817525eb1780d334bb259e565a813&#45;&gt;dir_a36da230f0956f48b11c85f7d599788f</title>
<path fill="none" stroke="#000000" d="M68,-71.8314C68,-64.131 68,-54.9743 68,-46.4166"/>
<polygon fill="#000000" stroke="#000000" points="71.5001,-46.4132 68,-36.4133 64.5001,-46.4133 71.5001,-46.4132"/>
<g id="a_edge1&#45;headlabel"><a xlink:href="dir_000207_000077.html" target="_top" xlink:title="2">
<text text-anchor="middle" x="74.3393" y="-47.5079" font-family="Helvetica,sans-Serif" font-size="10.00" fill="#000000">2</text>
</a>
</g>
</g>
</g>
</svg>
