<?xml version="1.0" encoding="UTF-8" standalone="no"?>
<!DOCTYPE svg PUBLIC "-//W3C//DTD SVG 1.1//EN"
 "http://www.w3.org/Graphics/SVG/1.1/DTD/svg11.dtd">
<!-- Generated by graphviz version 2.40.1 (20161225.0304)
 -->
<!-- Title: drake/examples/pr2 Pages: 1 -->
<svg width="205pt" height="303pt"
 viewBox="0.00 0.00 205.00 303.00" xmlns="http://www.w3.org/2000/svg" xmlns:xlink="http://www.w3.org/1999/xlink">
<g id="graph0" class="graph" transform="scale(1 1) rotate(0) translate(4 299)">
<title>drake/examples/pr2</title>
<polygon fill="#ffffff" stroke="transparent" points="-4,4 -4,-299 201,-299 201,4 -4,4"/>
<g id="clust1" class="cluster">
<title>clusterdir_bf85a0c13984f214f436b2edc519c6dd</title>
<g id="a_clust1"><a xlink:href="dir_bf85a0c13984f214f436b2edc519c6dd.html" target="_top" xlink:title="examples">
<polygon fill="#ddddee" stroke="#000000" points="31,-200 31,-287 189,-287 189,-200 31,-200"/>
<text text-anchor="middle" x="110" y="-275" font-family="Helvetica,sans-Serif" font-size="10.00" fill="#000000">examples</text>
</a>
</g>
</g>
<g id="clust2" class="cluster">
<title>clusterdir_ad72195fcec7f07a654cf5cc2d550b04</title>
<g id="a_clust2"><a xlink:href="dir_ad72195fcec7f07a654cf5cc2d550b04.html" target="_top">
<polygon fill="#eeeeff" stroke="#000000" points="39,-208 39,-260 181,-260 181,-208 39,-208"/>
</a>
</g>
</g>
<!-- dir_ad72195fcec7f07a654cf5cc2d550b04 -->
<g id="node1" class="node">
<title>dir_ad72195fcec7f07a654cf5cc2d550b04</title>
<text text-anchor="middle" x="74" y="-231.5" font-family="Helvetica,sans-Serif" font-size="10.00" fill="#000000">pr2</text>
</g>
<!-- dir_3c3c25df5132fca4f15a988b4c2efab5 -->
<g id="node3" class="node">
<title>dir_3c3c25df5132fca4f15a988b4c2efab5</title>
<g id="a_node3"><a xlink:href="dir_3c3c25df5132fca4f15a988b4c2efab5.html" target="_top" xlink:title="lcm">
<polygon fill="#ffffff" stroke="#ff0000" points="54,-108 0,-108 0,-72 54,-72 54,-108"/>
<text text-anchor="middle" x="27" y="-87.5" font-family="Helvetica,sans-Serif" font-size="10.00" fill="#000000">lcm</text>
</a>
</g>
</g>
<!-- dir_ad72195fcec7f07a654cf5cc2d550b04&#45;&gt;dir_3c3c25df5132fca4f15a988b4c2efab5 -->
<g id="edge3" class="edge">
<title>dir_ad72195fcec7f07a654cf5cc2d550b04&#45;&gt;dir_3c3c25df5132fca4f15a988b4c2efab5</title>
<path fill="none" stroke="#000000" d="M51.325,-215.9909C41.2112,-206.4972 30.3802,-193.9355 25,-180 17.4242,-160.3774 18.3667,-136.5121 20.9649,-118.2886"/>
<polygon fill="#000000" stroke="#000000" points="24.4404,-118.7252 22.6341,-108.2855 17.5358,-117.573 24.4404,-118.7252"/>
<g id="a_edge3&#45;headlabel"><a xlink:href="dir_000161_000179.html" target="_top" xlink:title="1">
<text text-anchor="middle" x="26.6493" y="-120.2381" font-family="Helvetica,sans-Serif" font-size="10.00" fill="#000000">1</text>
</a>
</g>
</g>
<!-- dir_a36da230f0956f48b11c85f7d599788f -->
<g id="node4" class="node">
<title>dir_a36da230f0956f48b11c85f7d599788f</title>
<g id="a_node4"><a xlink:href="dir_a36da230f0956f48b11c85f7d599788f.html" target="_top" xlink:title="common">
<polygon fill="#ffffff" stroke="#ff0000" points="130.5,-36 71.5,-36 71.5,0 130.5,0 130.5,-36"/>
<text text-anchor="middle" x="101" y="-15.5" font-family="Helvetica,sans-Serif" font-size="10.00" fill="#000000">common</text>
</a>
</g>
</g>
<!-- dir_ad72195fcec7f07a654cf5cc2d550b04&#45;&gt;dir_a36da230f0956f48b11c85f7d599788f -->
<g id="edge4" class="edge">
<title>dir_ad72195fcec7f07a654cf5cc2d550b04&#45;&gt;dir_a36da230f0956f48b11c85f7d599788f</title>
<path fill="none" stroke="#000000" d="M85.7508,-215.8241C91.5858,-205.7142 98.0139,-192.6495 101,-180 111.7983,-134.2578 108.4989,-79.2041 104.9058,-46.4867"/>
<polygon fill="#000000" stroke="#000000" points="108.3502,-45.811 103.6959,-36.2933 101.399,-46.6361 108.3502,-45.811"/>
<g id="a_edge4&#45;headlabel"><a xlink:href="dir_000161_000086.html" target="_top" xlink:title="2">
<text text-anchor="middle" x="111.5933" y="-46.546" font-family="Helvetica,sans-Serif" font-size="10.00" fill="#000000">2</text>
</a>
</g>
</g>
<!-- dir_b7a0e33b407baa23d8a077e33033c988 -->
<g id="node5" class="node">
<title>dir_b7a0e33b407baa23d8a077e33033c988</title>
<g id="a_node5"><a xlink:href="dir_b7a0e33b407baa23d8a077e33033c988.html" target="_top" xlink:title="systems">
<polygon fill="#ffffff" stroke="#ff0000" points="92,-180 34,-180 34,-144 92,-144 92,-180"/>
<text text-anchor="middle" x="63" y="-159.5" font-family="Helvetica,sans-Serif" font-size="10.00" fill="#000000">systems</text>
</a>
</g>
</g>
<!-- dir_ad72195fcec7f07a654cf5cc2d550b04&#45;&gt;dir_b7a0e33b407baa23d8a077e33033c988 -->
<g id="edge5" class="edge">
<title>dir_ad72195fcec7f07a654cf5cc2d550b04&#45;&gt;dir_b7a0e33b407baa23d8a077e33033c988</title>
<path fill="none" stroke="#000000" d="M71.2242,-215.8314C70.0478,-208.131 68.6489,-198.9743 67.3414,-190.4166"/>
<polygon fill="#000000" stroke="#000000" points="70.7833,-189.7699 65.8131,-180.4133 63.8636,-190.8272 70.7833,-189.7699"/>
<g id="a_edge5&#45;headlabel"><a xlink:href="dir_000161_000218.html" target="_top" xlink:title="4">
<text text-anchor="middle" x="74.1328" y="-190.3946" font-family="Helvetica,sans-Serif" font-size="10.00" fill="#000000">4</text>
</a>
</g>
</g>
<!-- dir_147dc379afcae0e462102ab6ac805117 -->
<g id="node2" class="node">
<title>dir_147dc379afcae0e462102ab6ac805117</title>
<g id="a_node2"><a xlink:href="dir_147dc379afcae0e462102ab6ac805117.html" target="_top" xlink:title="test">
<polygon fill="#ffffff" stroke="#000000" points="173,-252 119,-252 119,-216 173,-216 173,-252"/>
<text text-anchor="middle" x="146" y="-231.5" font-family="Helvetica,sans-Serif" font-size="10.00" fill="#000000">test</text>
</a>
</g>
</g>
<!-- dir_147dc379afcae0e462102ab6ac805117&#45;&gt;dir_a36da230f0956f48b11c85f7d599788f -->
<g id="edge2" class="edge">
<title>dir_147dc379afcae0e462102ab6ac805117&#45;&gt;dir_a36da230f0956f48b11c85f7d599788f</title>
<path fill="none" stroke="#000000" d="M144.6359,-215.7531C142.076,-185.4748 135.5434,-123.1198 122,-72 119.667,-63.1942 116.3566,-53.8607 113.0523,-45.475"/>
<polygon fill="#000000" stroke="#000000" points="116.264,-44.0821 109.235,-36.1547 109.7863,-46.7352 116.264,-44.0821"/>
<g id="a_edge2&#45;headlabel"><a xlink:href="dir_000162_000086.html" target="_top" xlink:title="1">
<text text-anchor="middle" x="120.2538" y="-43.8324" font-family="Helvetica,sans-Serif" font-size="10.00" fill="#000000">1</text>
</a>
</g>
</g>
<!-- dir_3c3c25df5132fca4f15a988b4c2efab5&#45;&gt;dir_a36da230f0956f48b11c85f7d599788f -->
<g id="edge1" class="edge">
<title>dir_3c3c25df5132fca4f15a988b4c2efab5&#45;&gt;dir_a36da230f0956f48b11c85f7d599788f</title>
<path fill="none" stroke="#000000" d="M45.6733,-71.8314C54.5249,-63.219 65.2486,-52.7851 74.8895,-43.4048"/>
<polygon fill="#000000" stroke="#000000" points="77.6061,-45.645 82.3326,-36.1628 72.7246,-40.6279 77.6061,-45.645"/>
<g id="a_edge1&#45;headlabel"><a xlink:href="dir_000179_000086.html" target="_top" xlink:title="24">
<text text-anchor="middle" x="77.0098" y="-47.6866" font-family="Helvetica,sans-Serif" font-size="10.00" fill="#000000">24</text>
</a>
</g>
</g>
<!-- dir_b7a0e33b407baa23d8a077e33033c988&#45;&gt;dir_3c3c25df5132fca4f15a988b4c2efab5 -->
<g id="edge6" class="edge">
<title>dir_b7a0e33b407baa23d8a077e33033c988&#45;&gt;dir_3c3c25df5132fca4f15a988b4c2efab5</title>
<path fill="none" stroke="#000000" d="M53.9157,-143.8314C49.9385,-135.8771 45.1845,-126.369 40.7861,-117.5723"/>
<polygon fill="#000000" stroke="#000000" points="43.8093,-115.7923 36.2066,-108.4133 37.5483,-118.9228 43.8093,-115.7923"/>
<g id="a_edge6&#45;headlabel"><a xlink:href="dir_000218_000179.html" target="_top" xlink:title="18">
<text text-anchor="middle" x="47.9563" y="-115.2377" font-family="Helvetica,sans-Serif" font-size="10.00" fill="#000000">18</text>
</a>
</g>
</g>
<!-- dir_b7a0e33b407baa23d8a077e33033c988&#45;&gt;dir_a36da230f0956f48b11c85f7d599788f -->
<g id="edge7" class="edge">
<title>dir_b7a0e33b407baa23d8a077e33033c988&#45;&gt;dir_a36da230f0956f48b11c85f7d599788f</title>
<path fill="none" stroke="#000000" d="M67.8127,-143.7623C74.3227,-119.0928 85.9953,-74.8598 93.6182,-45.9731"/>
<polygon fill="#000000" stroke="#000000" points="97.0589,-46.6517 96.2264,-36.0896 90.2906,-44.8656 97.0589,-46.6517"/>
<g id="a_edge7&#45;headlabel"><a xlink:href="dir_000218_000086.html" target="_top" xlink:title="542">
<text text-anchor="middle" x="98.8871" y="-48.3517" font-family="Helvetica,sans-Serif" font-size="10.00" fill="#000000">542</text>
</a>
</g>
</g>
</g>
</svg>
