<?xml version="1.0" encoding="UTF-8" standalone="no"?>
<!DOCTYPE svg PUBLIC "-//W3C//DTD SVG 1.1//EN"
 "http://www.w3.org/Graphics/SVG/1.1/DTD/svg11.dtd">
<!-- Generated by graphviz version 2.40.1 (20161225.0304)
 -->
<!-- Title: drake/systems/trajectory_optimization/test Pages: 1 -->
<svg width="198pt" height="295pt"
 viewBox="0.00 0.00 197.70 295.00" xmlns="http://www.w3.org/2000/svg" xmlns:xlink="http://www.w3.org/1999/xlink">
<g id="graph0" class="graph" transform="scale(1 1) rotate(0) translate(4 291)">
<title>drake/systems/trajectory_optimization/test</title>
<polygon fill="#ffffff" stroke="transparent" points="-4,4 -4,-291 193.7041,-291 193.7041,4 -4,4"/>
<g id="clust1" class="cluster">
<title>clusterdir_90a47678bc0a869c6c11f834a8ae1688</title>
<g id="a_clust1"><a xlink:href="dir_90a47678bc0a869c6c11f834a8ae1688.html" target="_top" xlink:title="trajectory_optimization">
<polygon fill="#ddddee" stroke="#000000" points="47,-208 47,-279 178,-279 178,-208 47,-208"/>
<text text-anchor="middle" x="112.5" y="-267" font-family="Helvetica,sans-Serif" font-size="10.00" fill="#000000">trajectory_optimization</text>
</a>
</g>
</g>
<!-- dir_be4d6b30d6b96c7a7a87716b88dd687a -->
<g id="node1" class="node">
<title>dir_be4d6b30d6b96c7a7a87716b88dd687a</title>
<g id="a_node1"><a xlink:href="dir_be4d6b30d6b96c7a7a87716b88dd687a.html" target="_top" xlink:title="test">
<polygon fill="#eeeeff" stroke="#000000" points="139,-252 85,-252 85,-216 139,-216 139,-252"/>
<text text-anchor="middle" x="112" y="-231.5" font-family="Helvetica,sans-Serif" font-size="10.00" fill="#000000">test</text>
</a>
</g>
</g>
<!-- dir_fc0178d6978c9fa2cad6ef3e048a60a7 -->
<g id="node2" class="node">
<title>dir_fc0178d6978c9fa2cad6ef3e048a60a7</title>
<g id="a_node2"><a xlink:href="dir_fc0178d6978c9fa2cad6ef3e048a60a7.html" target="_top" xlink:title="math">
<polygon fill="#ffffff" stroke="#ff0000" points="111,-108 57,-108 57,-72 111,-72 111,-108"/>
<text text-anchor="middle" x="84" y="-87.5" font-family="Helvetica,sans-Serif" font-size="10.00" fill="#000000">math</text>
</a>
</g>
</g>
<!-- dir_be4d6b30d6b96c7a7a87716b88dd687a&#45;&gt;dir_fc0178d6978c9fa2cad6ef3e048a60a7 -->
<g id="edge1" class="edge">
<title>dir_be4d6b30d6b96c7a7a87716b88dd687a&#45;&gt;dir_fc0178d6978c9fa2cad6ef3e048a60a7</title>
<path fill="none" stroke="#000000" d="M108.1674,-215.5187C106.023,-205.0956 103.3219,-191.8294 101,-180 96.9672,-159.4545 92.5856,-136.2345 89.2808,-118.5265"/>
<polygon fill="#000000" stroke="#000000" points="92.6457,-117.477 87.375,-108.2862 85.7638,-118.7578 92.6457,-117.477"/>
<g id="a_edge1&#45;headlabel"><a xlink:href="dir_000249_000105.html" target="_top" xlink:title="2">
<text text-anchor="middle" x="96.0946" y="-117.9915" font-family="Helvetica,sans-Serif" font-size="10.00" fill="#000000">2</text>
</a>
</g>
</g>
<!-- dir_c86b501450b8b8b59405c286cb030cc3 -->
<g id="node3" class="node">
<title>dir_c86b501450b8b8b59405c286cb030cc3</title>
<g id="a_node3"><a xlink:href="dir_c86b501450b8b8b59405c286cb030cc3.html" target="_top" xlink:title="solvers">
<polygon fill="#ffffff" stroke="#ff0000" points="54,-180 0,-180 0,-144 54,-144 54,-180"/>
<text text-anchor="middle" x="27" y="-159.5" font-family="Helvetica,sans-Serif" font-size="10.00" fill="#000000">solvers</text>
</a>
</g>
</g>
<!-- dir_be4d6b30d6b96c7a7a87716b88dd687a&#45;&gt;dir_c86b501450b8b8b59405c286cb030cc3 -->
<g id="edge2" class="edge">
<title>dir_be4d6b30d6b96c7a7a87716b88dd687a&#45;&gt;dir_c86b501450b8b8b59405c286cb030cc3</title>
<path fill="none" stroke="#000000" d="M90.5509,-215.8314C80.1822,-207.0485 67.5771,-196.3712 56.3354,-186.8489"/>
<polygon fill="#000000" stroke="#000000" points="58.3349,-183.9556 48.4422,-180.1628 53.8105,-189.297 58.3349,-183.9556"/>
<g id="a_edge2&#45;headlabel"><a xlink:href="dir_000249_000225.html" target="_top" xlink:title="3">
<text text-anchor="middle" x="62.9129" y="-181.6125" font-family="Helvetica,sans-Serif" font-size="10.00" fill="#000000">3</text>
</a>
</g>
</g>
<!-- dir_55f8630d5466d97e74952e939680a0a0 -->
<g id="node4" class="node">
<title>dir_55f8630d5466d97e74952e939680a0a0</title>
<g id="a_node4"><a xlink:href="dir_55f8630d5466d97e74952e939680a0a0.html" target="_top" xlink:title="primitives">
<polygon fill="#ffffff" stroke="#ff0000" points="176,-180 110,-180 110,-144 176,-144 176,-180"/>
<text text-anchor="middle" x="143" y="-159.5" font-family="Helvetica,sans-Serif" font-size="10.00" fill="#000000">primitives</text>
</a>
</g>
</g>
<!-- dir_be4d6b30d6b96c7a7a87716b88dd687a&#45;&gt;dir_55f8630d5466d97e74952e939680a0a0 -->
<g id="edge3" class="edge">
<title>dir_be4d6b30d6b96c7a7a87716b88dd687a&#45;&gt;dir_55f8630d5466d97e74952e939680a0a0</title>
<path fill="none" stroke="#000000" d="M119.8226,-215.8314C123.2109,-207.9617 127.2541,-198.5712 131.0076,-189.8533"/>
<polygon fill="#000000" stroke="#000000" points="134.3321,-190.9822 135.0721,-180.4133 127.9027,-188.214 134.3321,-190.9822"/>
<g id="a_edge3&#45;headlabel"><a xlink:href="dir_000249_000242.html" target="_top" xlink:title="3">
<text text-anchor="middle" x="135.5185" y="-192.9066" font-family="Helvetica,sans-Serif" font-size="10.00" fill="#000000">3</text>
</a>
</g>
</g>
<!-- dir_a36da230f0956f48b11c85f7d599788f -->
<g id="node5" class="node">
<title>dir_a36da230f0956f48b11c85f7d599788f</title>
<g id="a_node5"><a xlink:href="dir_a36da230f0956f48b11c85f7d599788f.html" target="_top" xlink:title="common">
<polygon fill="#ffffff" stroke="#ff0000" points="113.5,-36 54.5,-36 54.5,0 113.5,0 113.5,-36"/>
<text text-anchor="middle" x="84" y="-15.5" font-family="Helvetica,sans-Serif" font-size="10.00" fill="#000000">common</text>
</a>
</g>
</g>
<!-- dir_be4d6b30d6b96c7a7a87716b88dd687a&#45;&gt;dir_a36da230f0956f48b11c85f7d599788f -->
<g id="edge4" class="edge">
<title>dir_be4d6b30d6b96c7a7a87716b88dd687a&#45;&gt;dir_a36da230f0956f48b11c85f7d599788f</title>
<path fill="none" stroke="#000000" d="M139.088,-221.9489C155.6429,-212.9811 175.4197,-199.0034 185,-180 192.2027,-165.7129 189.4109,-159.38 185,-144 173.2328,-102.9702 139.7385,-66.1773 114.5225,-43.0939"/>
<polygon fill="#000000" stroke="#000000" points="116.7884,-40.425 106.9958,-36.3807 112.129,-45.649 116.7884,-40.425"/>
<g id="a_edge4&#45;headlabel"><a xlink:href="dir_000249_000086.html" target="_top" xlink:title="5">
<text text-anchor="middle" x="121.3608" y="-38.1987" font-family="Helvetica,sans-Serif" font-size="10.00" fill="#000000">5</text>
</a>
</g>
</g>
<!-- dir_fc0178d6978c9fa2cad6ef3e048a60a7&#45;&gt;dir_a36da230f0956f48b11c85f7d599788f -->
<g id="edge5" class="edge">
<title>dir_fc0178d6978c9fa2cad6ef3e048a60a7&#45;&gt;dir_a36da230f0956f48b11c85f7d599788f</title>
<path fill="none" stroke="#000000" d="M78.0476,-71.8314C77.2972,-64.131 77.0763,-54.9743 77.3849,-46.4166"/>
<polygon fill="#000000" stroke="#000000" points="80.8792,-46.6161 78.024,-36.4133 73.8935,-46.1697 80.8792,-46.6161"/>
<g id="a_edge5&#45;headlabel"><a xlink:href="dir_000105_000086.html" target="_top" xlink:title="87">
<text text-anchor="middle" x="83.4836" y="-47.8844" font-family="Helvetica,sans-Serif" font-size="10.00" fill="#000000">87</text>
</a>
</g>
</g>
<!-- dir_c86b501450b8b8b59405c286cb030cc3&#45;&gt;dir_fc0178d6978c9fa2cad6ef3e048a60a7 -->
<g id="edge6" class="edge">
<title>dir_c86b501450b8b8b59405c286cb030cc3&#45;&gt;dir_fc0178d6978c9fa2cad6ef3e048a60a7</title>
<path fill="none" stroke="#000000" d="M41.3835,-143.8314C47.9486,-135.5386 55.8507,-125.557 63.0578,-116.4533"/>
<polygon fill="#000000" stroke="#000000" points="65.9599,-118.4262 69.4228,-108.4133 60.4716,-114.0813 65.9599,-118.4262"/>
<g id="a_edge6&#45;headlabel"><a xlink:href="dir_000225_000105.html" target="_top" xlink:title="35">
<text text-anchor="middle" x="65.9549" y="-120.5069" font-family="Helvetica,sans-Serif" font-size="10.00" fill="#000000">35</text>
</a>
</g>
</g>
<!-- dir_c86b501450b8b8b59405c286cb030cc3&#45;&gt;dir_a36da230f0956f48b11c85f7d599788f -->
<g id="edge7" class="edge">
<title>dir_c86b501450b8b8b59405c286cb030cc3&#45;&gt;dir_a36da230f0956f48b11c85f7d599788f</title>
<path fill="none" stroke="#000000" d="M29.289,-143.8102C32.0761,-125.1908 37.7359,-95.7053 48,-72 52.1202,-62.4842 57.9306,-52.8314 63.6834,-44.3698"/>
<polygon fill="#000000" stroke="#000000" points="66.6604,-46.2222 69.5844,-36.0389 60.9481,-42.1761 66.6604,-46.2222"/>
<g id="a_edge7&#45;headlabel"><a xlink:href="dir_000225_000086.html" target="_top" xlink:title="199">
<text text-anchor="middle" x="66.8996" y="-48.2967" font-family="Helvetica,sans-Serif" font-size="10.00" fill="#000000">199</text>
</a>
</g>
</g>
<!-- dir_55f8630d5466d97e74952e939680a0a0&#45;&gt;dir_fc0178d6978c9fa2cad6ef3e048a60a7 -->
<g id="edge8" class="edge">
<title>dir_55f8630d5466d97e74952e939680a0a0&#45;&gt;dir_fc0178d6978c9fa2cad6ef3e048a60a7</title>
<path fill="none" stroke="#000000" d="M128.1118,-143.8314C121.247,-135.454 112.9699,-125.3531 105.4489,-116.1749"/>
<polygon fill="#000000" stroke="#000000" points="108.1341,-113.9297 99.0886,-108.4133 102.7197,-118.3665 108.1341,-113.9297"/>
<g id="a_edge8&#45;headlabel"><a xlink:href="dir_000242_000105.html" target="_top" xlink:title="6">
<text text-anchor="middle" x="112.6085" y="-112.4104" font-family="Helvetica,sans-Serif" font-size="10.00" fill="#000000">6</text>
</a>
</g>
</g>
<!-- dir_55f8630d5466d97e74952e939680a0a0&#45;&gt;dir_a36da230f0956f48b11c85f7d599788f -->
<g id="edge9" class="edge">
<title>dir_55f8630d5466d97e74952e939680a0a0&#45;&gt;dir_a36da230f0956f48b11c85f7d599788f</title>
<path fill="none" stroke="#000000" d="M140.2139,-143.8153C136.939,-125.2 130.5661,-95.7176 120,-72 115.7802,-62.5279 109.9419,-52.8874 104.1941,-44.4236"/>
<polygon fill="#000000" stroke="#000000" points="106.9349,-42.2372 98.3086,-36.0859 101.2161,-46.274 106.9349,-42.2372"/>
<g id="a_edge9&#45;headlabel"><a xlink:href="dir_000242_000086.html" target="_top" xlink:title="117">
<text text-anchor="middle" x="111.3274" y="-41.0365" font-family="Helvetica,sans-Serif" font-size="10.00" fill="#000000">117</text>
</a>
</g>
</g>
<!-- dir_a36da230f0956f48b11c85f7d599788f&#45;&gt;dir_fc0178d6978c9fa2cad6ef3e048a60a7 -->
<g id="edge10" class="edge">
<title>dir_a36da230f0956f48b11c85f7d599788f&#45;&gt;dir_fc0178d6978c9fa2cad6ef3e048a60a7</title>
<path fill="none" stroke="#000000" d="M89.976,-36.4133C90.7071,-44.0593 90.9203,-53.1084 90.6155,-61.5726"/>
<polygon fill="#000000" stroke="#000000" points="87.1048,-61.6264 89.9524,-71.8314 94.0902,-62.078 87.1048,-61.6264"/>
<g id="a_edge10&#45;headlabel"><a xlink:href="dir_000086_000105.html" target="_top" xlink:title="4">
<text text-anchor="middle" x="84.5032" y="-55.3562" font-family="Helvetica,sans-Serif" font-size="10.00" fill="#000000">4</text>
</a>
</g>
</g>
</g>
</svg>
