<?xml version="1.0" encoding="UTF-8" standalone="no"?>
<!DOCTYPE svg PUBLIC "-//W3C//DTD SVG 1.1//EN"
 "http://www.w3.org/Graphics/SVG/1.1/DTD/svg11.dtd">
<!-- Generated by graphviz version 2.40.1 (20161225.0304)
 -->
<!-- Title: drake/attic/multibody/parsers/test Pages: 1 -->
<svg width="244pt" height="231pt"
 viewBox="0.00 0.00 244.00 231.00" xmlns="http://www.w3.org/2000/svg" xmlns:xlink="http://www.w3.org/1999/xlink">
<g id="graph0" class="graph" transform="scale(1 1) rotate(0) translate(4 227)">
<title>drake/attic/multibody/parsers/test</title>
<polygon fill="#ffffff" stroke="transparent" points="-4,4 -4,-227 240,-227 240,4 -4,4"/>
<g id="clust1" class="cluster">
<title>clusterdir_c31e70eccbc53316c75af88c36f7fc19</title>
<g id="a_clust1"><a xlink:href="dir_c31e70eccbc53316c75af88c36f7fc19.html" target="_top" xlink:title="parsers">
<polygon fill="#ddddee" stroke="#000000" points="8,-128 8,-215 228,-215 228,-128 8,-128"/>
<text text-anchor="middle" x="118" y="-203" font-family="Helvetica,sans-Serif" font-size="10.00" fill="#000000">parsers</text>
</a>
</g>
</g>
<g id="clust2" class="cluster">
<title>clusterdir_372182e66f83112fb384e6a264de14c2</title>
<g id="a_clust2"><a xlink:href="dir_372182e66f83112fb384e6a264de14c2.html" target="_top">
<polygon fill="#eeeeff" stroke="#000000" points="16,-136 16,-188 220,-188 220,-136 16,-136"/>
</a>
</g>
</g>
<!-- dir_372182e66f83112fb384e6a264de14c2 -->
<g id="node1" class="node">
<title>dir_372182e66f83112fb384e6a264de14c2</title>
<text text-anchor="middle" x="51" y="-159.5" font-family="Helvetica,sans-Serif" font-size="10.00" fill="#000000">test</text>
</g>
<!-- dir_fc0178d6978c9fa2cad6ef3e048a60a7 -->
<g id="node3" class="node">
<title>dir_fc0178d6978c9fa2cad6ef3e048a60a7</title>
<g id="a_node3"><a xlink:href="dir_fc0178d6978c9fa2cad6ef3e048a60a7.html" target="_top" xlink:title="math">
<polygon fill="#ffffff" stroke="#ff0000" points="102,-108 48,-108 48,-72 102,-72 102,-108"/>
<text text-anchor="middle" x="75" y="-87.5" font-family="Helvetica,sans-Serif" font-size="10.00" fill="#000000">math</text>
</a>
</g>
</g>
<!-- dir_372182e66f83112fb384e6a264de14c2&#45;&gt;dir_fc0178d6978c9fa2cad6ef3e048a60a7 -->
<g id="edge4" class="edge">
<title>dir_372182e66f83112fb384e6a264de14c2&#45;&gt;dir_fc0178d6978c9fa2cad6ef3e048a60a7</title>
<path fill="none" stroke="#000000" d="M57.0562,-143.8314C59.6512,-136.0463 62.7424,-126.7729 65.6218,-118.1347"/>
<polygon fill="#000000" stroke="#000000" points="69.0203,-119.0069 68.8622,-108.4133 62.3795,-116.7933 69.0203,-119.0069"/>
<g id="a_edge4&#45;headlabel"><a xlink:href="dir_000021_000095.html" target="_top" xlink:title="2">
<text text-anchor="middle" x="70.5772" y="-120.8149" font-family="Helvetica,sans-Serif" font-size="10.00" fill="#000000">2</text>
</a>
</g>
</g>
<!-- dir_8b67696d0facecd5ee3e6433ade9c91e -->
<g id="node2" class="node">
<title>dir_8b67696d0facecd5ee3e6433ade9c91e</title>
<g id="a_node2"><a xlink:href="dir_8b67696d0facecd5ee3e6433ade9c91e.html" target="_top" xlink:title="parsers_frames_test">
<polygon fill="#ffffff" stroke="#000000" points="212,-180 96,-180 96,-144 212,-144 212,-180"/>
<text text-anchor="middle" x="154" y="-159.5" font-family="Helvetica,sans-Serif" font-size="10.00" fill="#000000">parsers_frames_test</text>
</a>
</g>
</g>
<!-- dir_a36da230f0956f48b11c85f7d599788f -->
<g id="node4" class="node">
<title>dir_a36da230f0956f48b11c85f7d599788f</title>
<g id="a_node4"><a xlink:href="dir_a36da230f0956f48b11c85f7d599788f.html" target="_top" xlink:title="common">
<polygon fill="#ffffff" stroke="#ff0000" points="104.5,-36 45.5,-36 45.5,0 104.5,0 104.5,-36"/>
<text text-anchor="middle" x="75" y="-15.5" font-family="Helvetica,sans-Serif" font-size="10.00" fill="#000000">common</text>
</a>
</g>
</g>
<!-- dir_8b67696d0facecd5ee3e6433ade9c91e&#45;&gt;dir_a36da230f0956f48b11c85f7d599788f -->
<g id="edge2" class="edge">
<title>dir_8b67696d0facecd5ee3e6433ade9c91e&#45;&gt;dir_a36da230f0956f48b11c85f7d599788f</title>
<path fill="none" stroke="#000000" d="M146.1706,-143.6854C138.0654,-125.222 124.6914,-96.0877 111,-72 105.7933,-62.8396 99.5867,-53.1659 93.8055,-44.5763"/>
<polygon fill="#000000" stroke="#000000" points="96.5304,-42.3607 87.9946,-36.0844 90.7534,-46.3138 96.5304,-42.3607"/>
<g id="a_edge2&#45;headlabel"><a xlink:href="dir_000022_000078.html" target="_top" xlink:title="1">
<text text-anchor="middle" x="100.9035" y="-41.2238" font-family="Helvetica,sans-Serif" font-size="10.00" fill="#000000">1</text>
</a>
</g>
</g>
<!-- dir_fc0178d6978c9fa2cad6ef3e048a60a7&#45;&gt;dir_a36da230f0956f48b11c85f7d599788f -->
<g id="edge1" class="edge">
<title>dir_fc0178d6978c9fa2cad6ef3e048a60a7&#45;&gt;dir_a36da230f0956f48b11c85f7d599788f</title>
<path fill="none" stroke="#000000" d="M69.0476,-71.8314C68.2972,-64.131 68.0763,-54.9743 68.3849,-46.4166"/>
<polygon fill="#000000" stroke="#000000" points="71.8792,-46.6161 69.024,-36.4133 64.8935,-46.1697 71.8792,-46.6161"/>
<g id="a_edge1&#45;headlabel"><a xlink:href="dir_000095_000078.html" target="_top" xlink:title="87">
<text text-anchor="middle" x="74.4836" y="-47.8844" font-family="Helvetica,sans-Serif" font-size="10.00" fill="#000000">87</text>
</a>
</g>
</g>
<!-- dir_a36da230f0956f48b11c85f7d599788f&#45;&gt;dir_fc0178d6978c9fa2cad6ef3e048a60a7 -->
<g id="edge3" class="edge">
<title>dir_a36da230f0956f48b11c85f7d599788f&#45;&gt;dir_fc0178d6978c9fa2cad6ef3e048a60a7</title>
<path fill="none" stroke="#000000" d="M80.976,-36.4133C81.7071,-44.0593 81.9203,-53.1084 81.6155,-61.5726"/>
<polygon fill="#000000" stroke="#000000" points="78.1048,-61.6264 80.9524,-71.8314 85.0902,-62.078 78.1048,-61.6264"/>
<g id="a_edge3&#45;headlabel"><a xlink:href="dir_000078_000095.html" target="_top" xlink:title="4">
<text text-anchor="middle" x="75.5032" y="-55.3562" font-family="Helvetica,sans-Serif" font-size="10.00" fill="#000000">4</text>
</a>
</g>
</g>
</g>
</svg>
