<?xml version="1.0" encoding="UTF-8" standalone="no"?>
<!DOCTYPE svg PUBLIC "-//W3C//DTD SVG 1.1//EN"
 "http://www.w3.org/Graphics/SVG/1.1/DTD/svg11.dtd">
<!-- Generated by graphviz version 2.40.1 (20161225.0304)
 -->
<!-- Title: drake/common/trajectories Pages: 1 -->
<svg width="204pt" height="231pt"
 viewBox="0.00 0.00 204.00 231.00" xmlns="http://www.w3.org/2000/svg" xmlns:xlink="http://www.w3.org/1999/xlink">
<g id="graph0" class="graph" transform="scale(1 1) rotate(0) translate(4 227)">
<title>drake/common/trajectories</title>
<polygon fill="#ffffff" stroke="transparent" points="-4,4 -4,-227 200,-227 200,4 -4,4"/>
<g id="clust1" class="cluster">
<title>clusterdir_a36da230f0956f48b11c85f7d599788f</title>
<g id="a_clust1"><a xlink:href="dir_a36da230f0956f48b11c85f7d599788f.html" target="_top" xlink:title="common">
<polygon fill="#ddddee" stroke="#000000" points="12,-128 12,-215 188,-215 188,-128 12,-128"/>
<text text-anchor="middle" x="100" y="-203" font-family="Helvetica,sans-Serif" font-size="10.00" fill="#000000">common</text>
</a>
</g>
</g>
<g id="clust2" class="cluster">
<title>clusterdir_5f7a2023092b91a1e02609fa2c012f50</title>
<g id="a_clust2"><a xlink:href="dir_5f7a2023092b91a1e02609fa2c012f50.html" target="_top">
<polygon fill="#eeeeff" stroke="#000000" points="20,-136 20,-188 180,-188 180,-136 20,-136"/>
</a>
</g>
</g>
<!-- dir_5f7a2023092b91a1e02609fa2c012f50 -->
<g id="node1" class="node">
<title>dir_5f7a2023092b91a1e02609fa2c012f50</title>
<text text-anchor="middle" x="136" y="-159.5" font-family="Helvetica,sans-Serif" font-size="10.00" fill="#000000">trajectories</text>
</g>
<!-- dir_3192a44ee462681c673cf42d775f8339 -->
<g id="node2" class="node">
<title>dir_3192a44ee462681c673cf42d775f8339</title>
<g id="a_node2"><a xlink:href="dir_3192a44ee462681c673cf42d775f8339.html" target="_top" xlink:title="test">
<polygon fill="#ffffff" stroke="#000000" points="82,-180 28,-180 28,-144 82,-144 82,-180"/>
<text text-anchor="middle" x="55" y="-159.5" font-family="Helvetica,sans-Serif" font-size="10.00" fill="#000000">test</text>
</a>
</g>
</g>
<!-- dir_fc0178d6978c9fa2cad6ef3e048a60a7 -->
<g id="node3" class="node">
<title>dir_fc0178d6978c9fa2cad6ef3e048a60a7</title>
<g id="a_node3"><a xlink:href="dir_fc0178d6978c9fa2cad6ef3e048a60a7.html" target="_top" xlink:title="math">
<polygon fill="#ffffff" stroke="#ff0000" points="54,-108 0,-108 0,-72 54,-72 54,-108"/>
<text text-anchor="middle" x="27" y="-87.5" font-family="Helvetica,sans-Serif" font-size="10.00" fill="#000000">math</text>
</a>
</g>
</g>
<!-- dir_3192a44ee462681c673cf42d775f8339&#45;&gt;dir_fc0178d6978c9fa2cad6ef3e048a60a7 -->
<g id="edge2" class="edge">
<title>dir_3192a44ee462681c673cf42d775f8339&#45;&gt;dir_fc0178d6978c9fa2cad6ef3e048a60a7</title>
<path fill="none" stroke="#000000" d="M47.9344,-143.8314C44.874,-135.9617 41.2221,-126.5712 37.8318,-117.8533"/>
<polygon fill="#000000" stroke="#000000" points="41.0473,-116.4647 34.1607,-108.4133 34.5232,-119.0019 41.0473,-116.4647"/>
<g id="a_edge2&#45;headlabel"><a xlink:href="dir_000111_000105.html" target="_top" xlink:title="1">
<text text-anchor="middle" x="44.9963" y="-116.2859" font-family="Helvetica,sans-Serif" font-size="10.00" fill="#000000">1</text>
</a>
</g>
</g>
<!-- dir_0d10be3e24b4d05732d552ad443cc60a -->
<g id="node4" class="node">
<title>dir_0d10be3e24b4d05732d552ad443cc60a</title>
<g id="a_node4"><a xlink:href="dir_0d10be3e24b4d05732d552ad443cc60a.html" target="_top" xlink:title="test_utilities">
<polygon fill="#ffffff" stroke="#ff0000" points="92.5,-36 15.5,-36 15.5,0 92.5,0 92.5,-36"/>
<text text-anchor="middle" x="54" y="-15.5" font-family="Helvetica,sans-Serif" font-size="10.00" fill="#000000">test_utilities</text>
</a>
</g>
</g>
<!-- dir_3192a44ee462681c673cf42d775f8339&#45;&gt;dir_0d10be3e24b4d05732d552ad443cc60a -->
<g id="edge3" class="edge">
<title>dir_3192a44ee462681c673cf42d775f8339&#45;&gt;dir_0d10be3e24b4d05732d552ad443cc60a</title>
<path fill="none" stroke="#000000" d="M58.415,-143.5804C60.1709,-133.1767 62.1226,-119.9092 63,-108 64.1756,-92.0432 64.3197,-87.9455 63,-72 62.3055,-63.6085 61.0138,-54.5578 59.6214,-46.3092"/>
<polygon fill="#000000" stroke="#000000" points="63.0544,-45.6235 57.8413,-36.3999 56.1647,-46.8612 63.0544,-45.6235"/>
<g id="a_edge3&#45;headlabel"><a xlink:href="dir_000111_000109.html" target="_top" xlink:title="4">
<text text-anchor="middle" x="66.4844" y="-46.1595" font-family="Helvetica,sans-Serif" font-size="10.00" fill="#000000">4</text>
</a>
</g>
</g>
<!-- dir_fc0178d6978c9fa2cad6ef3e048a60a7&#45;&gt;dir_0d10be3e24b4d05732d552ad443cc60a -->
<g id="edge1" class="edge">
<title>dir_fc0178d6978c9fa2cad6ef3e048a60a7&#45;&gt;dir_0d10be3e24b4d05732d552ad443cc60a</title>
<path fill="none" stroke="#000000" d="M33.8132,-71.8314C36.7644,-63.9617 40.2858,-54.5712 43.555,-45.8533"/>
<polygon fill="#000000" stroke="#000000" points="46.8609,-47.0055 47.095,-36.4133 40.3066,-44.5476 46.8609,-47.0055"/>
<g id="a_edge1&#45;headlabel"><a xlink:href="dir_000105_000109.html" target="_top" xlink:title="21">
<text text-anchor="middle" x="48.2573" y="-48.8682" font-family="Helvetica,sans-Serif" font-size="10.00" fill="#000000">21</text>
</a>
</g>
</g>
</g>
</svg>
