<?xml version="1.0" encoding="UTF-8" standalone="no"?>
<!DOCTYPE svg PUBLIC "-//W3C//DTD SVG 1.1//EN"
 "http://www.w3.org/Graphics/SVG/1.1/DTD/svg11.dtd">
<!-- Generated by graphviz version 2.40.1 (20161225.0304)
 -->
<!-- Title: drake/bindings/pydrake/examples Pages: 1 -->
<svg width="106pt" height="151pt"
 viewBox="0.00 0.00 106.00 151.00" xmlns="http://www.w3.org/2000/svg" xmlns:xlink="http://www.w3.org/1999/xlink">
<g id="graph0" class="graph" transform="scale(1 1) rotate(0) translate(4 147)">
<title>drake/bindings/pydrake/examples</title>
<polygon fill="#ffffff" stroke="transparent" points="-4,4 -4,-147 102,-147 102,4 -4,4"/>
<g id="clust1" class="cluster">
<title>clusterdir_8816e59dc2bf9c067e8fdc1ddb07dc45</title>
<g id="a_clust1"><a xlink:href="dir_8816e59dc2bf9c067e8fdc1ddb07dc45.html" target="_top" xlink:title="pydrake">
<polygon fill="#ddddee" stroke="#000000" points="8,-64 8,-135 90,-135 90,-64 8,-64"/>
<text text-anchor="middle" x="49" y="-123" font-family="Helvetica,sans-Serif" font-size="10.00" fill="#000000">pydrake</text>
</a>
</g>
</g>
<!-- dir_7b439d012948d32419c322e10cd3160d -->
<g id="node1" class="node">
<title>dir_7b439d012948d32419c322e10cd3160d</title>
<g id="a_node1"><a xlink:href="dir_7b439d012948d32419c322e10cd3160d.html" target="_top" xlink:title="examples">
<polygon fill="#eeeeff" stroke="#000000" points="81.5,-108 16.5,-108 16.5,-72 81.5,-72 81.5,-108"/>
<text text-anchor="middle" x="49" y="-87.5" font-family="Helvetica,sans-Serif" font-size="10.00" fill="#000000">examples</text>
</a>
</g>
</g>
<!-- dir_bf85a0c13984f214f436b2edc519c6dd -->
<g id="node2" class="node">
<title>dir_bf85a0c13984f214f436b2edc519c6dd</title>
<g id="a_node2"><a xlink:href="dir_bf85a0c13984f214f436b2edc519c6dd.html" target="_top" xlink:title="examples">
<polygon fill="#ffffff" stroke="#ff0000" points="81.5,-36 16.5,-36 16.5,0 81.5,0 81.5,-36"/>
<text text-anchor="middle" x="49" y="-15.5" font-family="Helvetica,sans-Serif" font-size="10.00" fill="#000000">examples</text>
</a>
</g>
</g>
<!-- dir_7b439d012948d32419c322e10cd3160d&#45;&gt;dir_bf85a0c13984f214f436b2edc519c6dd -->
<g id="edge1" class="edge">
<title>dir_7b439d012948d32419c322e10cd3160d&#45;&gt;dir_bf85a0c13984f214f436b2edc519c6dd</title>
<path fill="none" stroke="#000000" d="M49,-71.8314C49,-64.131 49,-54.9743 49,-46.4166"/>
<polygon fill="#000000" stroke="#000000" points="52.5001,-46.4132 49,-36.4133 45.5001,-46.4133 52.5001,-46.4132"/>
<g id="a_edge1&#45;headlabel"><a xlink:href="dir_000095_000113.html" target="_top" xlink:title="7">
<text text-anchor="middle" x="55.3393" y="-47.5079" font-family="Helvetica,sans-Serif" font-size="10.00" fill="#000000">7</text>
</a>
</g>
</g>
</g>
</svg>
