<?xml version="1.0" encoding="UTF-8" standalone="no"?>
<!DOCTYPE svg PUBLIC "-//W3C//DTD SVG 1.1//EN"
 "http://www.w3.org/Graphics/SVG/1.1/DTD/svg11.dtd">
<!-- Generated by graphviz version 2.40.1 (20161225.0304)
 -->
<!-- Title: drake/bindings Pages: 1 -->
<svg width="946pt" height="519pt"
 viewBox="0.00 0.00 946.00 519.00" xmlns="http://www.w3.org/2000/svg" xmlns:xlink="http://www.w3.org/1999/xlink">
<g id="graph0" class="graph" transform="scale(1 1) rotate(0) translate(4 515)">
<title>drake/bindings</title>
<polygon fill="#ffffff" stroke="transparent" points="-4,4 -4,-515 942,-515 942,4 -4,4"/>
<g id="clust1" class="cluster">
<title>clusterdir_f1666844dc41ec91c14125b680b7be1b</title>
<g id="a_clust1"><a xlink:href="dir_f1666844dc41ec91c14125b680b7be1b.html" target="_top" xlink:title="drake">
<polygon fill="#ddddee" stroke="#000000" points="526,-416 526,-503 690,-503 690,-416 526,-416"/>
<text text-anchor="middle" x="608" y="-491" font-family="Helvetica,sans-Serif" font-size="10.00" fill="#000000">drake</text>
</a>
</g>
</g>
<g id="clust2" class="cluster">
<title>clusterdir_a8013f4957f3230075674e48512c1ba8</title>
<g id="a_clust2"><a xlink:href="dir_a8013f4957f3230075674e48512c1ba8.html" target="_top">
<polygon fill="#eeeeff" stroke="#000000" points="534,-424 534,-476 682,-476 682,-424 534,-424"/>
</a>
</g>
</g>
<!-- dir_a8013f4957f3230075674e48512c1ba8 -->
<g id="node1" class="node">
<title>dir_a8013f4957f3230075674e48512c1ba8</title>
<text text-anchor="middle" x="645" y="-447.5" font-family="Helvetica,sans-Serif" font-size="10.00" fill="#000000">bindings</text>
</g>
<!-- dir_8816e59dc2bf9c067e8fdc1ddb07dc45 -->
<g id="node2" class="node">
<title>dir_8816e59dc2bf9c067e8fdc1ddb07dc45</title>
<g id="a_node2"><a xlink:href="dir_8816e59dc2bf9c067e8fdc1ddb07dc45.html" target="_top" xlink:title="pydrake">
<polygon fill="#ffffff" stroke="#ff0000" points="598,-468 542,-468 542,-432 598,-432 598,-468"/>
<text text-anchor="middle" x="570" y="-447.5" font-family="Helvetica,sans-Serif" font-size="10.00" fill="#000000">pydrake</text>
</a>
</g>
</g>
<!-- dir_39b8b3c6654246a9c12332c930bc7d3f -->
<g id="node3" class="node">
<title>dir_39b8b3c6654246a9c12332c930bc7d3f</title>
<g id="a_node3"><a xlink:href="dir_39b8b3c6654246a9c12332c930bc7d3f.html" target="_top" xlink:title="multibody">
<polygon fill="#ffffff" stroke="#ff0000" points="294,-468 228,-468 228,-432 294,-432 294,-468"/>
<text text-anchor="middle" x="261" y="-447.5" font-family="Helvetica,sans-Serif" font-size="10.00" fill="#000000">multibody</text>
</a>
</g>
</g>
<!-- dir_8816e59dc2bf9c067e8fdc1ddb07dc45&#45;&gt;dir_39b8b3c6654246a9c12332c930bc7d3f -->
<g id="edge1" class="edge">
<title>dir_8816e59dc2bf9c067e8fdc1ddb07dc45&#45;&gt;dir_39b8b3c6654246a9c12332c930bc7d3f</title>
<path fill="none" stroke="#000000" d="M541.9884,-450C462.7779,-450 383.5673,-450 304.3568,-450"/>
<polygon fill="#000000" stroke="#000000" points="304.1934,-446.5001 294.1934,-450 304.1933,-453.5001 304.1934,-446.5001"/>
<g id="a_edge1&#45;headlabel"><a xlink:href="dir_000081_000014.html" target="_top" xlink:title="13">
<text text-anchor="middle" x="307.788" y="-441.1607" font-family="Helvetica,sans-Serif" font-size="10.00" fill="#000000">13</text>
</a>
</g>
</g>
<!-- dir_fc0178d6978c9fa2cad6ef3e048a60a7 -->
<g id="node4" class="node">
<title>dir_fc0178d6978c9fa2cad6ef3e048a60a7</title>
<g id="a_node4"><a xlink:href="dir_fc0178d6978c9fa2cad6ef3e048a60a7.html" target="_top" xlink:title="math">
<polygon fill="#ffffff" stroke="#ff0000" points="453,-108 399,-108 399,-72 453,-72 453,-108"/>
<text text-anchor="middle" x="426" y="-87.5" font-family="Helvetica,sans-Serif" font-size="10.00" fill="#000000">math</text>
</a>
</g>
</g>
<!-- dir_8816e59dc2bf9c067e8fdc1ddb07dc45&#45;&gt;dir_fc0178d6978c9fa2cad6ef3e048a60a7 -->
<g id="edge2" class="edge">
<title>dir_8816e59dc2bf9c067e8fdc1ddb07dc45&#45;&gt;dir_fc0178d6978c9fa2cad6ef3e048a60a7</title>
<path fill="none" stroke="#000000" d="M541.7428,-435.9714C506.1951,-416.493 447.0193,-377.5168 424,-324 394.2891,-254.9261 408.5844,-163.4184 418.7846,-118.0202"/>
<polygon fill="#000000" stroke="#000000" points="422.1923,-118.8185 421.0709,-108.2831 415.3776,-117.2183 422.1923,-118.8185"/>
<g id="a_edge2&#45;headlabel"><a xlink:href="dir_000081_000095.html" target="_top" xlink:title="8">
<text text-anchor="middle" x="424.1347" y="-120.4669" font-family="Helvetica,sans-Serif" font-size="10.00" fill="#000000">8</text>
</a>
</g>
</g>
<!-- dir_3c3c25df5132fca4f15a988b4c2efab5 -->
<g id="node5" class="node">
<title>dir_3c3c25df5132fca4f15a988b4c2efab5</title>
<g id="a_node5"><a xlink:href="dir_3c3c25df5132fca4f15a988b4c2efab5.html" target="_top" xlink:title="lcm">
<polygon fill="#ffffff" stroke="#ff0000" points="704,-108 650,-108 650,-72 704,-72 704,-108"/>
<text text-anchor="middle" x="677" y="-87.5" font-family="Helvetica,sans-Serif" font-size="10.00" fill="#000000">lcm</text>
</a>
</g>
</g>
<!-- dir_8816e59dc2bf9c067e8fdc1ddb07dc45&#45;&gt;dir_3c3c25df5132fca4f15a988b4c2efab5 -->
<g id="edge3" class="edge">
<title>dir_8816e59dc2bf9c067e8fdc1ddb07dc45&#45;&gt;dir_3c3c25df5132fca4f15a988b4c2efab5</title>
<path fill="none" stroke="#000000" d="M585.2635,-431.8862C591.3786,-425.8246 598.8981,-419.6796 607,-416 644.0462,-399.175 759.1585,-423.6584 789,-396 848.3304,-341.01 835.4498,-294.522 816,-216 807.3004,-180.8781 803.5168,-169.654 778,-144 759.9636,-125.8666 734.5534,-112.3227 713.7331,-103.3343"/>
<polygon fill="#000000" stroke="#000000" points="714.8125,-99.9932 704.2339,-99.4064 712.1376,-106.462 714.8125,-99.9932"/>
<g id="a_edge3&#45;headlabel"><a xlink:href="dir_000081_000167.html" target="_top" xlink:title="4">
<text text-anchor="middle" x="719.2193" y="-96.2429" font-family="Helvetica,sans-Serif" font-size="10.00" fill="#000000">4</text>
</a>
</g>
</g>
<!-- dir_c86b501450b8b8b59405c286cb030cc3 -->
<g id="node6" class="node">
<title>dir_c86b501450b8b8b59405c286cb030cc3</title>
<g id="a_node6"><a xlink:href="dir_c86b501450b8b8b59405c286cb030cc3.html" target="_top" xlink:title="solvers">
<polygon fill="#ffffff" stroke="#ff0000" points="339,-396 285,-396 285,-360 339,-360 339,-396"/>
<text text-anchor="middle" x="312" y="-375.5" font-family="Helvetica,sans-Serif" font-size="10.00" fill="#000000">solvers</text>
</a>
</g>
</g>
<!-- dir_8816e59dc2bf9c067e8fdc1ddb07dc45&#45;&gt;dir_c86b501450b8b8b59405c286cb030cc3 -->
<g id="edge4" class="edge">
<title>dir_8816e59dc2bf9c067e8fdc1ddb07dc45&#45;&gt;dir_c86b501450b8b8b59405c286cb030cc3</title>
<path fill="none" stroke="#000000" d="M541.8153,-444.5841C499.9974,-436.1918 419.3211,-418.6271 353,-396 351.5745,-395.5137 350.1299,-394.9978 348.6773,-394.4598"/>
<polygon fill="#000000" stroke="#000000" points="349.6776,-391.0914 339.0914,-390.6628 347.0997,-397.5995 349.6776,-391.0914"/>
<g id="a_edge4&#45;headlabel"><a xlink:href="dir_000081_000226.html" target="_top" xlink:title="6">
<text text-anchor="middle" x="354.0651" y="-387.2754" font-family="Helvetica,sans-Serif" font-size="10.00" fill="#000000">6</text>
</a>
</g>
</g>
<!-- dir_591c7a9d715c1a20315be44d04438991 -->
<g id="node7" class="node">
<title>dir_591c7a9d715c1a20315be44d04438991</title>
<g id="a_node7"><a xlink:href="dir_591c7a9d715c1a20315be44d04438991.html" target="_top" xlink:title="automotive">
<polygon fill="#ffffff" stroke="#ff0000" points="757.5,-396 684.5,-396 684.5,-360 757.5,-360 757.5,-396"/>
<text text-anchor="middle" x="721" y="-375.5" font-family="Helvetica,sans-Serif" font-size="10.00" fill="#000000">automotive</text>
</a>
</g>
</g>
<!-- dir_8816e59dc2bf9c067e8fdc1ddb07dc45&#45;&gt;dir_591c7a9d715c1a20315be44d04438991 -->
<g id="edge5" class="edge">
<title>dir_8816e59dc2bf9c067e8fdc1ddb07dc45&#45;&gt;dir_591c7a9d715c1a20315be44d04438991</title>
<path fill="none" stroke="#000000" d="M586.3803,-431.9416C592.3915,-426.1768 599.5579,-420.208 607,-416 634.4223,-400.4947 645.1926,-406.1938 675,-396 675.0964,-395.967 675.1928,-395.934 675.2894,-395.9009"/>
<polygon fill="#000000" stroke="#000000" points="676.2051,-399.2903 684.4477,-392.6339 673.8531,-392.6973 676.2051,-399.2903"/>
<g id="a_edge5&#45;headlabel"><a xlink:href="dir_000081_000052.html" target="_top" xlink:title="15">
<text text-anchor="middle" x="673.7733" y="-400.6722" font-family="Helvetica,sans-Serif" font-size="10.00" fill="#000000">15</text>
</a>
</g>
</g>
<!-- dir_758aa030403a70af025108ac41d12d0d -->
<g id="node8" class="node">
<title>dir_758aa030403a70af025108ac41d12d0d</title>
<g id="a_node8"><a xlink:href="dir_758aa030403a70af025108ac41d12d0d.html" target="_top" xlink:title="manipulation">
<polygon fill="#ffffff" stroke="#ff0000" points="245.5,-180 164.5,-180 164.5,-144 245.5,-144 245.5,-180"/>
<text text-anchor="middle" x="205" y="-159.5" font-family="Helvetica,sans-Serif" font-size="10.00" fill="#000000">manipulation</text>
</a>
</g>
</g>
<!-- dir_8816e59dc2bf9c067e8fdc1ddb07dc45&#45;&gt;dir_758aa030403a70af025108ac41d12d0d -->
<g id="edge6" class="edge">
<title>dir_8816e59dc2bf9c067e8fdc1ddb07dc45&#45;&gt;dir_758aa030403a70af025108ac41d12d0d</title>
<path fill="none" stroke="#000000" d="M541.5368,-446.9071C477.1544,-439.5719 322.341,-419.9301 276,-396 235.2276,-374.9455 222.1608,-365.2216 202,-324 181.0343,-281.1327 189.1722,-223.9413 197.0485,-190.2335"/>
<polygon fill="#000000" stroke="#000000" points="200.5362,-190.7122 199.5594,-180.1625 193.7441,-189.0188 200.5362,-190.7122"/>
<g id="a_edge6&#45;headlabel"><a xlink:href="dir_000081_000169.html" target="_top" xlink:title="1">
<text text-anchor="middle" x="202.4217" y="-192.3869" font-family="Helvetica,sans-Serif" font-size="10.00" fill="#000000">1</text>
</a>
</g>
</g>
<!-- dir_a36da230f0956f48b11c85f7d599788f -->
<g id="node9" class="node">
<title>dir_a36da230f0956f48b11c85f7d599788f</title>
<g id="a_node9"><a xlink:href="dir_a36da230f0956f48b11c85f7d599788f.html" target="_top" xlink:title="common">
<polygon fill="#ffffff" stroke="#ff0000" points="493.5,-36 434.5,-36 434.5,0 493.5,0 493.5,-36"/>
<text text-anchor="middle" x="464" y="-15.5" font-family="Helvetica,sans-Serif" font-size="10.00" fill="#000000">common</text>
</a>
</g>
</g>
<!-- dir_8816e59dc2bf9c067e8fdc1ddb07dc45&#45;&gt;dir_a36da230f0956f48b11c85f7d599788f -->
<g id="edge7" class="edge">
<title>dir_8816e59dc2bf9c067e8fdc1ddb07dc45&#45;&gt;dir_a36da230f0956f48b11c85f7d599788f</title>
<path fill="none" stroke="#000000" d="M585.2348,-431.8224C591.3467,-425.7538 598.8716,-419.6208 607,-416 692.6431,-377.8506 729.4957,-429.6618 817,-396 879.5539,-371.9363 938,-373.0228 938,-306 938,-306 938,-306 938,-162 938,-98.1421 884.5016,-97.6005 826,-72 768.7564,-46.95 585.8159,-28.5184 504.0946,-21.3205"/>
<polygon fill="#000000" stroke="#000000" points="503.9853,-17.7979 493.7199,-20.4193 503.3795,-24.7716 503.9853,-17.7979"/>
<g id="a_edge7&#45;headlabel"><a xlink:href="dir_000081_000078.html" target="_top" xlink:title="28">
<text text-anchor="middle" x="507.8121" y="-12.7802" font-family="Helvetica,sans-Serif" font-size="10.00" fill="#000000">28</text>
</a>
</g>
</g>
<!-- dir_d739e095b49d8b72164589d00310017d -->
<g id="node10" class="node">
<title>dir_d739e095b49d8b72164589d00310017d</title>
<g id="a_node10"><a xlink:href="dir_d739e095b49d8b72164589d00310017d.html" target="_top" xlink:title="geometry">
<polygon fill="#ffffff" stroke="#ff0000" points="594,-180 530,-180 530,-144 594,-144 594,-180"/>
<text text-anchor="middle" x="562" y="-159.5" font-family="Helvetica,sans-Serif" font-size="10.00" fill="#000000">geometry</text>
</a>
</g>
</g>
<!-- dir_8816e59dc2bf9c067e8fdc1ddb07dc45&#45;&gt;dir_d739e095b49d8b72164589d00310017d -->
<g id="edge8" class="edge">
<title>dir_8816e59dc2bf9c067e8fdc1ddb07dc45&#45;&gt;dir_d739e095b49d8b72164589d00310017d</title>
<path fill="none" stroke="#000000" d="M585.2935,-431.9517C591.4118,-425.8971 598.9257,-419.7399 607,-416 639.5139,-400.9401 743.2861,-422.8627 767,-396 836.7256,-317.0161 681.1603,-222.5343 603.1595,-182.0339"/>
<polygon fill="#000000" stroke="#000000" points="604.5478,-178.8126 594.052,-177.3671 601.3556,-185.0423 604.5478,-178.8126"/>
<g id="a_edge8&#45;headlabel"><a xlink:href="dir_000081_000147.html" target="_top" xlink:title="5">
<text text-anchor="middle" x="609.0417" y="-175.4249" font-family="Helvetica,sans-Serif" font-size="10.00" fill="#000000">5</text>
</a>
</g>
</g>
<!-- dir_0897ed8fd6dd400fbb3f13ca4cf30fd4 -->
<g id="node11" class="node">
<title>dir_0897ed8fd6dd400fbb3f13ca4cf30fd4</title>
<g id="a_node11"><a xlink:href="dir_0897ed8fd6dd400fbb3f13ca4cf30fd4.html" target="_top" xlink:title="perception">
<polygon fill="#ffffff" stroke="#ff0000" points="666,-396 598,-396 598,-360 666,-360 666,-396"/>
<text text-anchor="middle" x="632" y="-375.5" font-family="Helvetica,sans-Serif" font-size="10.00" fill="#000000">perception</text>
</a>
</g>
</g>
<!-- dir_8816e59dc2bf9c067e8fdc1ddb07dc45&#45;&gt;dir_0897ed8fd6dd400fbb3f13ca4cf30fd4 -->
<g id="edge9" class="edge">
<title>dir_8816e59dc2bf9c067e8fdc1ddb07dc45&#45;&gt;dir_0897ed8fd6dd400fbb3f13ca4cf30fd4</title>
<path fill="none" stroke="#000000" d="M585.6452,-431.8314C592.8591,-423.454 601.557,-413.3531 609.4605,-404.1749"/>
<polygon fill="#000000" stroke="#000000" points="612.2711,-406.2748 616.1441,-396.4133 606.9667,-401.7071 612.2711,-406.2748"/>
<g id="a_edge9&#45;headlabel"><a xlink:href="dir_000081_000224.html" target="_top" xlink:title="2">
<text text-anchor="middle" x="612.077" y="-408.3514" font-family="Helvetica,sans-Serif" font-size="10.00" fill="#000000">2</text>
</a>
</g>
</g>
<!-- dir_bf85a0c13984f214f436b2edc519c6dd -->
<g id="node12" class="node">
<title>dir_bf85a0c13984f214f436b2edc519c6dd</title>
<g id="a_node12"><a xlink:href="dir_bf85a0c13984f214f436b2edc519c6dd.html" target="_top" xlink:title="examples">
<polygon fill="#ffffff" stroke="#ff0000" points="359.5,-252 294.5,-252 294.5,-216 359.5,-216 359.5,-252"/>
<text text-anchor="middle" x="327" y="-231.5" font-family="Helvetica,sans-Serif" font-size="10.00" fill="#000000">examples</text>
</a>
</g>
</g>
<!-- dir_8816e59dc2bf9c067e8fdc1ddb07dc45&#45;&gt;dir_bf85a0c13984f214f436b2edc519c6dd -->
<g id="edge10" class="edge">
<title>dir_8816e59dc2bf9c067e8fdc1ddb07dc45&#45;&gt;dir_bf85a0c13984f214f436b2edc519c6dd</title>
<path fill="none" stroke="#000000" d="M541.7503,-442.0325C515.3512,-433.6146 475.7947,-418.4272 447,-396 398.7912,-358.4518 360.5259,-296.7727 341.0632,-261.3395"/>
<polygon fill="#000000" stroke="#000000" points="343.902,-259.229 336.0796,-252.0833 337.7386,-262.5475 343.902,-259.229"/>
<g id="a_edge10&#45;headlabel"><a xlink:href="dir_000081_000103.html" target="_top" xlink:title="7">
<text text-anchor="middle" x="348.106" y="-258.5481" font-family="Helvetica,sans-Serif" font-size="10.00" fill="#000000">7</text>
</a>
</g>
</g>
<!-- dir_b7a0e33b407baa23d8a077e33033c988 -->
<g id="node13" class="node">
<title>dir_b7a0e33b407baa23d8a077e33033c988</title>
<g id="a_node13"><a xlink:href="dir_b7a0e33b407baa23d8a077e33033c988.html" target="_top" xlink:title="systems">
<polygon fill="#ffffff" stroke="#ff0000" points="491,-324 433,-324 433,-288 491,-288 491,-324"/>
<text text-anchor="middle" x="462" y="-303.5" font-family="Helvetica,sans-Serif" font-size="10.00" fill="#000000">systems</text>
</a>
</g>
</g>
<!-- dir_8816e59dc2bf9c067e8fdc1ddb07dc45&#45;&gt;dir_b7a0e33b407baa23d8a077e33033c988 -->
<g id="edge11" class="edge">
<title>dir_8816e59dc2bf9c067e8fdc1ddb07dc45&#45;&gt;dir_b7a0e33b407baa23d8a077e33033c988</title>
<path fill="none" stroke="#000000" d="M556.3217,-431.7623C537.4139,-406.5518 503.1827,-360.9103 481.5714,-332.0952"/>
<polygon fill="#000000" stroke="#000000" points="484.3673,-329.9896 475.5672,-324.0896 478.7672,-334.1897 484.3673,-329.9896"/>
<g id="a_edge11&#45;headlabel"><a xlink:href="dir_000081_000219.html" target="_top" xlink:title="59">
<text text-anchor="middle" x="488.7954" y="-328.6617" font-family="Helvetica,sans-Serif" font-size="10.00" fill="#000000">59</text>
</a>
</g>
</g>
<!-- dir_39b8b3c6654246a9c12332c930bc7d3f&#45;&gt;dir_fc0178d6978c9fa2cad6ef3e048a60a7 -->
<g id="edge12" class="edge">
<title>dir_39b8b3c6654246a9c12332c930bc7d3f&#45;&gt;dir_fc0178d6978c9fa2cad6ef3e048a60a7</title>
<path fill="none" stroke="#000000" d="M243.7271,-431.6651C197.7224,-380.6114 80.6497,-234.6272 155,-144 184.0993,-108.5302 320.9929,-95.9184 388.3624,-91.8083"/>
<polygon fill="#000000" stroke="#000000" points="388.7693,-95.2907 398.5507,-91.2194 388.3654,-88.3024 388.7693,-95.2907"/>
<g id="a_edge12&#45;headlabel"><a xlink:href="dir_000014_000095.html" target="_top" xlink:title="81">
<text text-anchor="middle" x="385.3445" y="-95.8326" font-family="Helvetica,sans-Serif" font-size="10.00" fill="#000000">81</text>
</a>
</g>
</g>
<!-- dir_39b8b3c6654246a9c12332c930bc7d3f&#45;&gt;dir_c86b501450b8b8b59405c286cb030cc3 -->
<g id="edge13" class="edge">
<title>dir_39b8b3c6654246a9c12332c930bc7d3f&#45;&gt;dir_c86b501450b8b8b59405c286cb030cc3</title>
<path fill="none" stroke="#000000" d="M273.8695,-431.8314C279.6835,-423.6232 286.6696,-413.7606 293.0646,-404.7323"/>
<polygon fill="#000000" stroke="#000000" points="296.0331,-406.5966 298.9573,-396.4133 290.321,-402.5505 296.0331,-406.5966"/>
<g id="a_edge13&#45;headlabel"><a xlink:href="dir_000014_000226.html" target="_top" xlink:title="8">
<text text-anchor="middle" x="296.2723" y="-408.671" font-family="Helvetica,sans-Serif" font-size="10.00" fill="#000000">8</text>
</a>
</g>
</g>
<!-- dir_39b8b3c6654246a9c12332c930bc7d3f&#45;&gt;dir_a36da230f0956f48b11c85f7d599788f -->
<g id="edge14" class="edge">
<title>dir_39b8b3c6654246a9c12332c930bc7d3f&#45;&gt;dir_a36da230f0956f48b11c85f7d599788f</title>
<path fill="none" stroke="#000000" d="M227.9442,-447.0791C157.7127,-438.8747 0,-408.9856 0,-306 0,-306 0,-306 0,-162 0,-99.1759 51.651,-97.6506 109,-72 164.8243,-47.0314 343.5853,-28.6176 424.0652,-21.3766"/>
<polygon fill="#000000" stroke="#000000" points="424.6395,-24.8394 434.291,-20.4692 424.0207,-17.8668 424.6395,-24.8394"/>
<g id="a_edge14&#45;headlabel"><a xlink:href="dir_000014_000078.html" target="_top" xlink:title="303">
<text text-anchor="middle" x="421.3098" y="-25.4852" font-family="Helvetica,sans-Serif" font-size="10.00" fill="#000000">303</text>
</a>
</g>
</g>
<!-- dir_39b8b3c6654246a9c12332c930bc7d3f&#45;&gt;dir_d739e095b49d8b72164589d00310017d -->
<g id="edge15" class="edge">
<title>dir_39b8b3c6654246a9c12332c930bc7d3f&#45;&gt;dir_d739e095b49d8b72164589d00310017d</title>
<path fill="none" stroke="#000000" d="M294.1321,-441.0978C345.3834,-425.6754 443.8231,-389.2127 500,-324 533.8429,-284.7136 550.2087,-224.987 557.2972,-190.0898"/>
<polygon fill="#000000" stroke="#000000" points="560.7656,-190.5866 559.2084,-180.1068 553.8905,-189.2704 560.7656,-190.5866"/>
<g id="a_edge15&#45;headlabel"><a xlink:href="dir_000014_000147.html" target="_top" xlink:title="30">
<text text-anchor="middle" x="562.8784" y="-192.1509" font-family="Helvetica,sans-Serif" font-size="10.00" fill="#000000">30</text>
</a>
</g>
</g>
<!-- dir_39b8b3c6654246a9c12332c930bc7d3f&#45;&gt;dir_bf85a0c13984f214f436b2edc519c6dd -->
<g id="edge16" class="edge">
<title>dir_39b8b3c6654246a9c12332c930bc7d3f&#45;&gt;dir_bf85a0c13984f214f436b2edc519c6dd</title>
<path fill="none" stroke="#000000" d="M256.0412,-431.8144C255.9811,-413.4513 260.1207,-384.3934 267,-360 276.8829,-324.9563 293.3782,-286.3858 306.8959,-261.2688"/>
<polygon fill="#000000" stroke="#000000" points="310.0671,-262.7698 311.9109,-252.3366 303.9633,-259.3428 310.0671,-262.7698"/>
<g id="a_edge16&#45;headlabel"><a xlink:href="dir_000014_000103.html" target="_top" xlink:title="1">
<text text-anchor="middle" x="310.783" y="-264.7941" font-family="Helvetica,sans-Serif" font-size="10.00" fill="#000000">1</text>
</a>
</g>
</g>
<!-- dir_39b8b3c6654246a9c12332c930bc7d3f&#45;&gt;dir_b7a0e33b407baa23d8a077e33033c988 -->
<g id="edge17" class="edge">
<title>dir_39b8b3c6654246a9c12332c930bc7d3f&#45;&gt;dir_b7a0e33b407baa23d8a077e33033c988</title>
<path fill="none" stroke="#000000" d="M284.1691,-431.8343C299.9801,-421.7274 320.9559,-408.6622 339,-396 368.9116,-375.0099 401.4888,-348.9443 425.7614,-330.2754"/>
<polygon fill="#000000" stroke="#000000" points="428.1568,-332.8502 433.9826,-324.0009 423.9098,-327.2856 428.1568,-332.8502"/>
<g id="a_edge17&#45;headlabel"><a xlink:href="dir_000014_000219.html" target="_top" xlink:title="72">
<text text-anchor="middle" x="427.0219" y="-334.788" font-family="Helvetica,sans-Serif" font-size="10.00" fill="#000000">72</text>
</a>
</g>
</g>
<!-- dir_fc0178d6978c9fa2cad6ef3e048a60a7&#45;&gt;dir_a36da230f0956f48b11c85f7d599788f -->
<g id="edge18" class="edge">
<title>dir_fc0178d6978c9fa2cad6ef3e048a60a7&#45;&gt;dir_a36da230f0956f48b11c85f7d599788f</title>
<path fill="none" stroke="#000000" d="M429.6366,-71.8314C433.1324,-63.7079 438.0727,-53.9637 443.1844,-45.0118"/>
<polygon fill="#000000" stroke="#000000" points="446.1955,-46.7958 448.3059,-36.4133 440.1815,-43.2137 446.1955,-46.7958"/>
<g id="a_edge18&#45;headlabel"><a xlink:href="dir_000095_000078.html" target="_top" xlink:title="87">
<text text-anchor="middle" x="446.7954" y="-48.837" font-family="Helvetica,sans-Serif" font-size="10.00" fill="#000000">87</text>
</a>
</g>
</g>
<!-- dir_3c3c25df5132fca4f15a988b4c2efab5&#45;&gt;dir_a36da230f0956f48b11c85f7d599788f -->
<g id="edge19" class="edge">
<title>dir_3c3c25df5132fca4f15a988b4c2efab5&#45;&gt;dir_a36da230f0956f48b11c85f7d599788f</title>
<path fill="none" stroke="#000000" d="M649.59,-80.7347C612.4549,-68.1819 545.9288,-45.6942 503.4303,-31.3285"/>
<polygon fill="#000000" stroke="#000000" points="504.2941,-27.926 493.6999,-28.0394 502.0525,-34.5574 504.2941,-27.926"/>
<g id="a_edge19&#45;headlabel"><a xlink:href="dir_000167_000078.html" target="_top" xlink:title="24">
<text text-anchor="middle" x="508.6086" y="-23.8873" font-family="Helvetica,sans-Serif" font-size="10.00" fill="#000000">24</text>
</a>
</g>
</g>
<!-- dir_c86b501450b8b8b59405c286cb030cc3&#45;&gt;dir_fc0178d6978c9fa2cad6ef3e048a60a7 -->
<g id="edge20" class="edge">
<title>dir_c86b501450b8b8b59405c286cb030cc3&#45;&gt;dir_fc0178d6978c9fa2cad6ef3e048a60a7</title>
<path fill="none" stroke="#000000" d="M303.0433,-359.8995C289.1923,-329.3068 266.0514,-265.8386 285,-216 303.7421,-166.7046 354.4849,-129.6606 389.6863,-108.9035"/>
<polygon fill="#000000" stroke="#000000" points="391.7785,-111.7387 398.717,-103.7319 388.2998,-105.6642 391.7785,-111.7387"/>
<g id="a_edge20&#45;headlabel"><a xlink:href="dir_000226_000095.html" target="_top" xlink:title="34">
<text text-anchor="middle" x="390.0701" y="-113.4888" font-family="Helvetica,sans-Serif" font-size="10.00" fill="#000000">34</text>
</a>
</g>
</g>
<!-- dir_c86b501450b8b8b59405c286cb030cc3&#45;&gt;dir_a36da230f0956f48b11c85f7d599788f -->
<g id="edge21" class="edge">
<title>dir_c86b501450b8b8b59405c286cb030cc3&#45;&gt;dir_a36da230f0956f48b11c85f7d599788f</title>
<path fill="none" stroke="#000000" d="M284.8964,-368.4767C207.1713,-339.6445 -6.6267,-248.8221 62,-144 102.6417,-81.9228 331.3754,-39.0987 424.5259,-24.0028"/>
<polygon fill="#000000" stroke="#000000" points="425.0909,-27.457 434.4131,-22.4225 423.986,-20.5448 425.0909,-27.457"/>
<g id="a_edge21&#45;headlabel"><a xlink:href="dir_000226_000078.html" target="_top" xlink:title="197">
<text text-anchor="middle" x="421.9894" y="-28.328" font-family="Helvetica,sans-Serif" font-size="10.00" fill="#000000">197</text>
</a>
</g>
</g>
<!-- dir_c86b501450b8b8b59405c286cb030cc3&#45;&gt;dir_b7a0e33b407baa23d8a077e33033c988 -->
<g id="edge22" class="edge">
<title>dir_c86b501450b8b8b59405c286cb030cc3&#45;&gt;dir_b7a0e33b407baa23d8a077e33033c988</title>
<path fill="none" stroke="#000000" d="M339.2188,-362.1993C362.8541,-350.1804 397.1489,-333.7204 423.5575,-321.7212"/>
<polygon fill="#000000" stroke="#000000" points="425.213,-324.8143 432.8958,-317.5188 422.3403,-318.4309 425.213,-324.8143"/>
<g id="a_edge22&#45;headlabel"><a xlink:href="dir_000226_000219.html" target="_top" xlink:title="1">
<text text-anchor="middle" x="423.1002" y="-326.3786" font-family="Helvetica,sans-Serif" font-size="10.00" fill="#000000">1</text>
</a>
</g>
</g>
<!-- dir_591c7a9d715c1a20315be44d04438991&#45;&gt;dir_fc0178d6978c9fa2cad6ef3e048a60a7 -->
<g id="edge23" class="edge">
<title>dir_591c7a9d715c1a20315be44d04438991&#45;&gt;dir_fc0178d6978c9fa2cad6ef3e048a60a7</title>
<path fill="none" stroke="#000000" d="M719.1705,-359.9721C713.7349,-316.1145 693.6483,-203.1232 627,-144 602.8498,-122.5765 514.4839,-104.751 463.3145,-95.9384"/>
<polygon fill="#000000" stroke="#000000" points="463.7448,-92.4616 453.3016,-94.2472 462.5789,-99.3639 463.7448,-92.4616"/>
<g id="a_edge23&#45;headlabel"><a xlink:href="dir_000052_000095.html" target="_top" xlink:title="23">
<text text-anchor="middle" x="467.7621" y="-87.7606" font-family="Helvetica,sans-Serif" font-size="10.00" fill="#000000">23</text>
</a>
</g>
</g>
<!-- dir_591c7a9d715c1a20315be44d04438991&#45;&gt;dir_3c3c25df5132fca4f15a988b4c2efab5 -->
<g id="edge24" class="edge">
<title>dir_591c7a9d715c1a20315be44d04438991&#45;&gt;dir_3c3c25df5132fca4f15a988b4c2efab5</title>
<path fill="none" stroke="#000000" d="M740.8968,-359.901C770.8527,-330.3408 821.8303,-269.6143 800,-216 782.3496,-172.6515 741.8162,-136.0854 712.0842,-113.6941"/>
<polygon fill="#000000" stroke="#000000" points="714.143,-110.8635 704.0127,-107.7606 709.9969,-116.5036 714.143,-110.8635"/>
<g id="a_edge24&#45;headlabel"><a xlink:href="dir_000052_000167.html" target="_top" xlink:title="4">
<text text-anchor="middle" x="718.7209" y="-108.2049" font-family="Helvetica,sans-Serif" font-size="10.00" fill="#000000">4</text>
</a>
</g>
</g>
<!-- dir_591c7a9d715c1a20315be44d04438991&#45;&gt;dir_a36da230f0956f48b11c85f7d599788f -->
<g id="edge25" class="edge">
<title>dir_591c7a9d715c1a20315be44d04438991&#45;&gt;dir_a36da230f0956f48b11c85f7d599788f</title>
<path fill="none" stroke="#000000" d="M757.6553,-366.904C810.0241,-348.5159 900,-306.3897 900,-234 900,-234 900,-234 900,-162 900,-78.9705 611.3043,-35.7181 503.7499,-22.4853"/>
<polygon fill="#000000" stroke="#000000" points="503.9727,-18.9869 493.6253,-21.2629 503.1336,-25.9364 503.9727,-18.9869"/>
<g id="a_edge25&#45;headlabel"><a xlink:href="dir_000052_000078.html" target="_top" xlink:title="291">
<text text-anchor="middle" x="507.8817" y="-14.0989" font-family="Helvetica,sans-Serif" font-size="10.00" fill="#000000">291</text>
</a>
</g>
</g>
<!-- dir_591c7a9d715c1a20315be44d04438991&#45;&gt;dir_d739e095b49d8b72164589d00310017d -->
<g id="edge26" class="edge">
<title>dir_591c7a9d715c1a20315be44d04438991&#45;&gt;dir_d739e095b49d8b72164589d00310017d</title>
<path fill="none" stroke="#000000" d="M707.7172,-359.9555C679.6585,-321.8379 614.244,-232.973 581.4582,-188.4337"/>
<polygon fill="#000000" stroke="#000000" points="584.1037,-186.1236 575.3568,-180.1451 578.4663,-190.2733 584.1037,-186.1236"/>
<g id="a_edge26&#45;headlabel"><a xlink:href="dir_000052_000147.html" target="_top" xlink:title="4">
<text text-anchor="middle" x="588.5212" y="-184.8353" font-family="Helvetica,sans-Serif" font-size="10.00" fill="#000000">4</text>
</a>
</g>
</g>
<!-- dir_591c7a9d715c1a20315be44d04438991&#45;&gt;dir_b7a0e33b407baa23d8a077e33033c988 -->
<g id="edge27" class="edge">
<title>dir_591c7a9d715c1a20315be44d04438991&#45;&gt;dir_b7a0e33b407baa23d8a077e33033c988</title>
<path fill="none" stroke="#000000" d="M684.4899,-363.2391C681.298,-362.0931 678.1028,-360.9961 675,-360 615.1434,-340.7841 544.0886,-323.9316 501.0544,-314.3622"/>
<polygon fill="#000000" stroke="#000000" points="501.784,-310.939 491.2649,-312.2036 500.2767,-317.7748 501.784,-310.939"/>
<g id="a_edge27&#45;headlabel"><a xlink:href="dir_000052_000219.html" target="_top" xlink:title="77">
<text text-anchor="middle" x="505.9056" y="-306.4403" font-family="Helvetica,sans-Serif" font-size="10.00" fill="#000000">77</text>
</a>
</g>
</g>
<!-- dir_758aa030403a70af025108ac41d12d0d&#45;&gt;dir_39b8b3c6654246a9c12332c930bc7d3f -->
<g id="edge28" class="edge">
<title>dir_758aa030403a70af025108ac41d12d0d&#45;&gt;dir_39b8b3c6654246a9c12332c930bc7d3f</title>
<path fill="none" stroke="#000000" d="M171.4003,-180.1924C158.4596,-189.1207 145.092,-201.1754 138,-216 117.2855,-259.3002 119.8987,-279.5439 138,-324 155.545,-367.0897 195.7006,-403.4778 225.3821,-425.9034"/>
<polygon fill="#000000" stroke="#000000" points="223.3231,-428.7337 233.4486,-431.8523 227.4778,-423.1001 223.3231,-428.7337"/>
<g id="a_edge28&#45;headlabel"><a xlink:href="dir_000169_000014.html" target="_top" xlink:title="3">
<text text-anchor="middle" x="218.7449" y="-426.3853" font-family="Helvetica,sans-Serif" font-size="10.00" fill="#000000">3</text>
</a>
</g>
</g>
<!-- dir_758aa030403a70af025108ac41d12d0d&#45;&gt;dir_fc0178d6978c9fa2cad6ef3e048a60a7 -->
<g id="edge29" class="edge">
<title>dir_758aa030403a70af025108ac41d12d0d&#45;&gt;dir_fc0178d6978c9fa2cad6ef3e048a60a7</title>
<path fill="none" stroke="#000000" d="M245.5348,-148.7941C286.6603,-135.3957 349.7506,-114.8414 389.4014,-101.9235"/>
<polygon fill="#000000" stroke="#000000" points="390.5255,-105.2384 398.9495,-98.8128 388.3571,-98.5827 390.5255,-105.2384"/>
<g id="a_edge29&#45;headlabel"><a xlink:href="dir_000169_000095.html" target="_top" xlink:title="8">
<text text-anchor="middle" x="387.9872" y="-106.5515" font-family="Helvetica,sans-Serif" font-size="10.00" fill="#000000">8</text>
</a>
</g>
</g>
<!-- dir_758aa030403a70af025108ac41d12d0d&#45;&gt;dir_c86b501450b8b8b59405c286cb030cc3 -->
<g id="edge30" class="edge">
<title>dir_758aa030403a70af025108ac41d12d0d&#45;&gt;dir_c86b501450b8b8b59405c286cb030cc3</title>
<path fill="none" stroke="#000000" d="M201.6602,-180.223C196.8352,-212.1177 191.3646,-278.9464 220,-324 226.8542,-334.784 253.0489,-349.6316 275.743,-361.029"/>
<polygon fill="#000000" stroke="#000000" points="274.347,-364.2429 284.8642,-365.5237 277.4413,-357.9639 274.347,-364.2429"/>
<g id="a_edge30&#45;headlabel"><a xlink:href="dir_000169_000226.html" target="_top" xlink:title="3">
<text text-anchor="middle" x="269.8677" y="-362.7008" font-family="Helvetica,sans-Serif" font-size="10.00" fill="#000000">3</text>
</a>
</g>
</g>
<!-- dir_758aa030403a70af025108ac41d12d0d&#45;&gt;dir_a36da230f0956f48b11c85f7d599788f -->
<g id="edge31" class="edge">
<title>dir_758aa030403a70af025108ac41d12d0d&#45;&gt;dir_a36da230f0956f48b11c85f7d599788f</title>
<path fill="none" stroke="#000000" d="M211.2851,-143.9242C219.3556,-123.3991 235.334,-90.3844 260,-72 285.8326,-52.746 372.4626,-34.4592 424.1555,-24.8989"/>
<polygon fill="#000000" stroke="#000000" points="425.0994,-28.2847 434.3106,-23.0498 423.8454,-21.3979 425.0994,-28.2847"/>
<g id="a_edge31&#45;headlabel"><a xlink:href="dir_000169_000078.html" target="_top" xlink:title="52">
<text text-anchor="middle" x="422.0715" y="-29.2219" font-family="Helvetica,sans-Serif" font-size="10.00" fill="#000000">52</text>
</a>
</g>
</g>
<!-- dir_758aa030403a70af025108ac41d12d0d&#45;&gt;dir_bf85a0c13984f214f436b2edc519c6dd -->
<g id="edge32" class="edge">
<title>dir_758aa030403a70af025108ac41d12d0d&#45;&gt;dir_bf85a0c13984f214f436b2edc519c6dd</title>
<path fill="none" stroke="#000000" d="M241.7277,-180.1628C258.2286,-189.3712 277.5025,-200.6631 293.5929,-210.5232"/>
<polygon fill="#000000" stroke="#000000" points="291.8218,-213.5432 302.1666,-215.8314 295.5067,-207.5915 291.8218,-213.5432"/>
<g id="a_edge32&#45;headlabel"><a xlink:href="dir_000169_000103.html" target="_top" xlink:title="1">
<text text-anchor="middle" x="287.271" y="-211.565" font-family="Helvetica,sans-Serif" font-size="10.00" fill="#000000">1</text>
</a>
</g>
</g>
<!-- dir_758aa030403a70af025108ac41d12d0d&#45;&gt;dir_b7a0e33b407baa23d8a077e33033c988 -->
<g id="edge33" class="edge">
<title>dir_758aa030403a70af025108ac41d12d0d&#45;&gt;dir_b7a0e33b407baa23d8a077e33033c988</title>
<path fill="none" stroke="#000000" d="M216.6278,-180.2374C230.5205,-200.598 255.6099,-233.1563 285,-252 327.6447,-279.342 384.9043,-293.4883 422.598,-300.3216"/>
<polygon fill="#000000" stroke="#000000" points="422.2331,-303.8102 432.6823,-302.0598 423.4222,-296.9119 422.2331,-303.8102"/>
<g id="a_edge33&#45;headlabel"><a xlink:href="dir_000169_000219.html" target="_top" xlink:title="40">
<text text-anchor="middle" x="418.2084" y="-303.4977" font-family="Helvetica,sans-Serif" font-size="10.00" fill="#000000">40</text>
</a>
</g>
</g>
<!-- dir_a36da230f0956f48b11c85f7d599788f&#45;&gt;dir_fc0178d6978c9fa2cad6ef3e048a60a7 -->
<g id="edge34" class="edge">
<title>dir_a36da230f0956f48b11c85f7d599788f&#45;&gt;dir_fc0178d6978c9fa2cad6ef3e048a60a7</title>
<path fill="none" stroke="#000000" d="M460.2579,-36.4133C456.77,-44.484 451.88,-54.1182 446.8218,-62.9775"/>
<polygon fill="#000000" stroke="#000000" points="443.6576,-61.45 441.5414,-71.8314 449.6696,-65.0355 443.6576,-61.45"/>
<g id="a_edge34&#45;headlabel"><a xlink:href="dir_000078_000095.html" target="_top" xlink:title="4">
<text text-anchor="middle" x="443.0602" y="-54.4085" font-family="Helvetica,sans-Serif" font-size="10.00" fill="#000000">4</text>
</a>
</g>
</g>
<!-- dir_d739e095b49d8b72164589d00310017d&#45;&gt;dir_fc0178d6978c9fa2cad6ef3e048a60a7 -->
<g id="edge35" class="edge">
<title>dir_d739e095b49d8b72164589d00310017d&#45;&gt;dir_fc0178d6978c9fa2cad6ef3e048a60a7</title>
<path fill="none" stroke="#000000" d="M529.7699,-144.937C509.5166,-134.2146 483.3449,-120.3591 462.3524,-109.2454"/>
<polygon fill="#000000" stroke="#000000" points="463.8846,-106.0964 453.4091,-104.5107 460.6094,-112.2829 463.8846,-106.0964"/>
<g id="a_edge35&#45;headlabel"><a xlink:href="dir_000147_000095.html" target="_top" xlink:title="1">
<text text-anchor="middle" x="468.3899" y="-102.7689" font-family="Helvetica,sans-Serif" font-size="10.00" fill="#000000">1</text>
</a>
</g>
</g>
<!-- dir_d739e095b49d8b72164589d00310017d&#45;&gt;dir_3c3c25df5132fca4f15a988b4c2efab5 -->
<g id="edge36" class="edge">
<title>dir_d739e095b49d8b72164589d00310017d&#45;&gt;dir_3c3c25df5132fca4f15a988b4c2efab5</title>
<path fill="none" stroke="#000000" d="M591.0194,-143.8314C606.29,-134.2706 625.1461,-122.4651 641.3051,-112.3481"/>
<polygon fill="#000000" stroke="#000000" points="643.3464,-115.1995 649.9649,-106.9263 639.6318,-109.2664 643.3464,-115.1995"/>
<g id="a_edge36&#45;headlabel"><a xlink:href="dir_000147_000167.html" target="_top" xlink:title="2">
<text text-anchor="middle" x="641.8064" y="-117.0135" font-family="Helvetica,sans-Serif" font-size="10.00" fill="#000000">2</text>
</a>
</g>
</g>
<!-- dir_d739e095b49d8b72164589d00310017d&#45;&gt;dir_a36da230f0956f48b11c85f7d599788f -->
<g id="edge37" class="edge">
<title>dir_d739e095b49d8b72164589d00310017d&#45;&gt;dir_a36da230f0956f48b11c85f7d599788f</title>
<path fill="none" stroke="#000000" d="M554.6249,-143.8694C546.5423,-125.0372 532.5059,-95.1442 516,-72 508.8108,-61.9194 499.7838,-51.8738 491.2777,-43.2292"/>
<polygon fill="#000000" stroke="#000000" points="493.5672,-40.571 483.996,-36.0275 488.6448,-45.548 493.5672,-40.571"/>
<g id="a_edge37&#45;headlabel"><a xlink:href="dir_000147_000078.html" target="_top" xlink:title="73">
<text text-anchor="middle" x="498.1195" y="-38.5799" font-family="Helvetica,sans-Serif" font-size="10.00" fill="#000000">73</text>
</a>
</g>
</g>
<!-- dir_d739e095b49d8b72164589d00310017d&#45;&gt;dir_b7a0e33b407baa23d8a077e33033c988 -->
<g id="edge38" class="edge">
<title>dir_d739e095b49d8b72164589d00310017d&#45;&gt;dir_b7a0e33b407baa23d8a077e33033c988</title>
<path fill="none" stroke="#000000" d="M554.0961,-180.0896C539.1784,-205.2198 507.7197,-250.8541 485.5931,-279.7351"/>
<polygon fill="#000000" stroke="#000000" points="482.7239,-277.723 479.3382,-287.7623 488.2455,-282.0255 482.7239,-277.723"/>
<g id="a_edge38&#45;headlabel"><a xlink:href="dir_000147_000219.html" target="_top" xlink:title="16">
<text text-anchor="middle" x="482.6936" y="-270.6424" font-family="Helvetica,sans-Serif" font-size="10.00" fill="#000000">16</text>
</a>
</g>
</g>
<!-- dir_0897ed8fd6dd400fbb3f13ca4cf30fd4&#45;&gt;dir_fc0178d6978c9fa2cad6ef3e048a60a7 -->
<g id="edge39" class="edge">
<title>dir_0897ed8fd6dd400fbb3f13ca4cf30fd4&#45;&gt;dir_fc0178d6978c9fa2cad6ef3e048a60a7</title>
<path fill="none" stroke="#000000" d="M635.7183,-359.9262C643.4393,-316.9375 656.3385,-207.4554 603,-144 584.9824,-122.5649 509.4348,-105.2837 463.0582,-96.4379"/>
<polygon fill="#000000" stroke="#000000" points="463.5458,-92.9686 453.0738,-94.5775 462.2635,-99.8501 463.5458,-92.9686"/>
<g id="a_edge39&#45;headlabel"><a xlink:href="dir_000224_000095.html" target="_top" xlink:title="2">
<text text-anchor="middle" x="467.5997" y="-88.3357" font-family="Helvetica,sans-Serif" font-size="10.00" fill="#000000">2</text>
</a>
</g>
</g>
<!-- dir_0897ed8fd6dd400fbb3f13ca4cf30fd4&#45;&gt;dir_a36da230f0956f48b11c85f7d599788f -->
<g id="edge40" class="edge">
<title>dir_0897ed8fd6dd400fbb3f13ca4cf30fd4&#45;&gt;dir_a36da230f0956f48b11c85f7d599788f</title>
<path fill="none" stroke="#000000" d="M646.4786,-359.8855C685.485,-308.7844 785.0967,-161.4081 713,-72 687.158,-39.953 567.2554,-25.9603 503.7372,-20.7098"/>
<polygon fill="#000000" stroke="#000000" points="503.9245,-17.2138 493.6792,-19.9126 503.3714,-24.1919 503.9245,-17.2138"/>
<g id="a_edge40&#45;headlabel"><a xlink:href="dir_000224_000078.html" target="_top" xlink:title="7">
<text text-anchor="middle" x="507.7322" y="-12.1673" font-family="Helvetica,sans-Serif" font-size="10.00" fill="#000000">7</text>
</a>
</g>
</g>
<!-- dir_0897ed8fd6dd400fbb3f13ca4cf30fd4&#45;&gt;dir_b7a0e33b407baa23d8a077e33033c988 -->
<g id="edge41" class="edge">
<title>dir_0897ed8fd6dd400fbb3f13ca4cf30fd4&#45;&gt;dir_b7a0e33b407baa23d8a077e33033c988</title>
<path fill="none" stroke="#000000" d="M597.598,-363.4297C569.5302,-351.5422 529.8896,-334.7532 500.7151,-322.397"/>
<polygon fill="#000000" stroke="#000000" points="501.8274,-319.0672 491.2543,-318.39 499.0975,-325.5129 501.8274,-319.0672"/>
<g id="a_edge41&#45;headlabel"><a xlink:href="dir_000224_000219.html" target="_top" xlink:title="5">
<text text-anchor="middle" x="506.2447" y="-315.3545" font-family="Helvetica,sans-Serif" font-size="10.00" fill="#000000">5</text>
</a>
</g>
</g>
<!-- dir_bf85a0c13984f214f436b2edc519c6dd&#45;&gt;dir_39b8b3c6654246a9c12332c930bc7d3f -->
<g id="edge42" class="edge">
<title>dir_bf85a0c13984f214f436b2edc519c6dd&#45;&gt;dir_39b8b3c6654246a9c12332c930bc7d3f</title>
<path fill="none" stroke="#000000" d="M324.2589,-252.3366C315.7008,-276.4732 296.1454,-320.4793 285,-360 279.2493,-380.3913 275.4132,-404.0422 271.7772,-421.9805"/>
<polygon fill="#000000" stroke="#000000" points="268.3435,-421.3 269.6466,-431.8144 275.1848,-422.7823 268.3435,-421.3"/>
<g id="a_edge42&#45;headlabel"><a xlink:href="dir_000103_000014.html" target="_top" xlink:title="56">
<text text-anchor="middle" x="266.3297" y="-414.6857" font-family="Helvetica,sans-Serif" font-size="10.00" fill="#000000">56</text>
</a>
</g>
</g>
<!-- dir_bf85a0c13984f214f436b2edc519c6dd&#45;&gt;dir_fc0178d6978c9fa2cad6ef3e048a60a7 -->
<g id="edge43" class="edge">
<title>dir_bf85a0c13984f214f436b2edc519c6dd&#45;&gt;dir_fc0178d6978c9fa2cad6ef3e048a60a7</title>
<path fill="none" stroke="#000000" d="M334.6091,-215.8824C342.9274,-197.0608 357.3173,-167.1764 374,-144 381.2334,-133.951 390.2717,-123.9135 398.7746,-115.2667"/>
<polygon fill="#000000" stroke="#000000" points="401.4082,-117.5844 406.0502,-108.0606 396.4823,-112.611 401.4082,-117.5844"/>
<g id="a_edge43&#45;headlabel"><a xlink:href="dir_000103_000095.html" target="_top" xlink:title="24">
<text text-anchor="middle" x="400.8523" y="-119.6312" font-family="Helvetica,sans-Serif" font-size="10.00" fill="#000000">24</text>
</a>
</g>
</g>
<!-- dir_bf85a0c13984f214f436b2edc519c6dd&#45;&gt;dir_3c3c25df5132fca4f15a988b4c2efab5 -->
<g id="edge44" class="edge">
<title>dir_bf85a0c13984f214f436b2edc519c6dd&#45;&gt;dir_3c3c25df5132fca4f15a988b4c2efab5</title>
<path fill="none" stroke="#000000" d="M359.5083,-217.6869C397.6878,-198.8175 463.1623,-167.3567 521,-144 561.166,-127.7797 608.2813,-111.8894 640.1394,-101.5934"/>
<polygon fill="#000000" stroke="#000000" points="641.4672,-104.8431 649.9187,-98.4538 639.3274,-98.1782 641.4672,-104.8431"/>
<g id="a_edge44&#45;headlabel"><a xlink:href="dir_000103_000167.html" target="_top" xlink:title="56">
<text text-anchor="middle" x="638.9126" y="-106.1452" font-family="Helvetica,sans-Serif" font-size="10.00" fill="#000000">56</text>
</a>
</g>
</g>
<!-- dir_bf85a0c13984f214f436b2edc519c6dd&#45;&gt;dir_c86b501450b8b8b59405c286cb030cc3 -->
<g id="edge45" class="edge">
<title>dir_bf85a0c13984f214f436b2edc519c6dd&#45;&gt;dir_c86b501450b8b8b59405c286cb030cc3</title>
<path fill="none" stroke="#000000" d="M325.1157,-252.0896C322.5653,-276.5727 317.9878,-320.5174 314.9717,-349.4713"/>
<polygon fill="#000000" stroke="#000000" points="311.4547,-349.4535 313.8998,-359.7623 318.4171,-350.1788 311.4547,-349.4535"/>
<g id="a_edge45&#45;headlabel"><a xlink:href="dir_000103_000226.html" target="_top" xlink:title="4">
<text text-anchor="middle" x="309.0031" y="-343.0841" font-family="Helvetica,sans-Serif" font-size="10.00" fill="#000000">4</text>
</a>
</g>
</g>
<!-- dir_bf85a0c13984f214f436b2edc519c6dd&#45;&gt;dir_758aa030403a70af025108ac41d12d0d -->
<g id="edge46" class="edge">
<title>dir_bf85a0c13984f214f436b2edc519c6dd&#45;&gt;dir_758aa030403a70af025108ac41d12d0d</title>
<path fill="none" stroke="#000000" d="M294.2042,-218.0209C276.9661,-208.4954 255.9591,-196.2278 238.6113,-185.6019"/>
<polygon fill="#000000" stroke="#000000" points="240.2575,-182.5047 229.9123,-180.2181 236.5736,-188.4569 240.2575,-182.5047"/>
<g id="a_edge46&#45;headlabel"><a xlink:href="dir_000103_000169.html" target="_top" xlink:title="16">
<text text-anchor="middle" x="244.8082" y="-179.4821" font-family="Helvetica,sans-Serif" font-size="10.00" fill="#000000">16</text>
</a>
</g>
</g>
<!-- dir_bf85a0c13984f214f436b2edc519c6dd&#45;&gt;dir_a36da230f0956f48b11c85f7d599788f -->
<g id="edge47" class="edge">
<title>dir_bf85a0c13984f214f436b2edc519c6dd&#45;&gt;dir_a36da230f0956f48b11c85f7d599788f</title>
<path fill="none" stroke="#000000" d="M329.8849,-215.9576C333.1925,-197.4556 339.4257,-168.0621 349,-144 362.6144,-109.7845 365.4697,-99.4647 390,-72 400.3295,-60.4348 413.5249,-49.8461 425.9047,-41.1677"/>
<polygon fill="#000000" stroke="#000000" points="427.9867,-43.9848 434.2998,-35.4763 424.0586,-38.1908 427.9867,-43.9848"/>
<g id="a_edge47&#45;headlabel"><a xlink:href="dir_000103_000078.html" target="_top" xlink:title="228">
<text text-anchor="middle" x="426.6046" y="-45.852" font-family="Helvetica,sans-Serif" font-size="10.00" fill="#000000">228</text>
</a>
</g>
</g>
<!-- dir_bf85a0c13984f214f436b2edc519c6dd&#45;&gt;dir_d739e095b49d8b72164589d00310017d -->
<g id="edge48" class="edge">
<title>dir_bf85a0c13984f214f436b2edc519c6dd&#45;&gt;dir_d739e095b49d8b72164589d00310017d</title>
<path fill="none" stroke="#000000" d="M359.6757,-223.9887C401.6215,-211.1372 474.4483,-188.8243 520.3351,-174.7654"/>
<polygon fill="#000000" stroke="#000000" points="521.4421,-178.0869 529.978,-171.811 519.3914,-171.394 521.4421,-178.0869"/>
<g id="a_edge48&#45;headlabel"><a xlink:href="dir_000103_000147.html" target="_top" xlink:title="53">
<text text-anchor="middle" x="518.8369" y="-179.3546" font-family="Helvetica,sans-Serif" font-size="10.00" fill="#000000">53</text>
</a>
</g>
</g>
<!-- dir_bf85a0c13984f214f436b2edc519c6dd&#45;&gt;dir_b7a0e33b407baa23d8a077e33033c988 -->
<g id="edge49" class="edge">
<title>dir_bf85a0c13984f214f436b2edc519c6dd&#45;&gt;dir_b7a0e33b407baa23d8a077e33033c988</title>
<path fill="none" stroke="#000000" d="M359.8028,-248.5378C379.4902,-258.3637 404.4834,-271.5493 424.8759,-282.8113"/>
<polygon fill="#000000" stroke="#000000" points="423.447,-286.0217 433.8862,-287.8314 426.854,-279.9067 423.447,-286.0217"/>
<g id="a_edge49&#45;headlabel"><a xlink:href="dir_000103_000219.html" target="_top" xlink:title="400">
<text text-anchor="middle" x="418.925" y="-284.2525" font-family="Helvetica,sans-Serif" font-size="10.00" fill="#000000">400</text>
</a>
</g>
</g>
<!-- dir_b7a0e33b407baa23d8a077e33033c988&#45;&gt;dir_39b8b3c6654246a9c12332c930bc7d3f -->
<g id="edge50" class="edge">
<title>dir_b7a0e33b407baa23d8a077e33033c988&#45;&gt;dir_39b8b3c6654246a9c12332c930bc7d3f</title>
<path fill="none" stroke="#000000" d="M447.4212,-324.0009C427.2078,-342.7273 390.4383,-372.535 357,-396 339.8995,-408.0001 320.1659,-420.362 302.9496,-430.2249"/>
<polygon fill="#000000" stroke="#000000" points="301.2066,-427.1895 294.2033,-435.1396 304.6358,-433.2921 301.2066,-427.1895"/>
<g id="a_edge50&#45;headlabel"><a xlink:href="dir_000219_000014.html" target="_top" xlink:title="8">
<text text-anchor="middle" x="302.9495" y="-420.4534" font-family="Helvetica,sans-Serif" font-size="10.00" fill="#000000">8</text>
</a>
</g>
</g>
<!-- dir_b7a0e33b407baa23d8a077e33033c988&#45;&gt;dir_fc0178d6978c9fa2cad6ef3e048a60a7 -->
<g id="edge51" class="edge">
<title>dir_b7a0e33b407baa23d8a077e33033c988&#45;&gt;dir_fc0178d6978c9fa2cad6ef3e048a60a7</title>
<path fill="none" stroke="#000000" d="M457.5618,-287.5725C455.1419,-277.1662 452.2006,-263.8989 450,-252 441.3596,-205.2798 433.7729,-150.525 429.5461,-118.133"/>
<polygon fill="#000000" stroke="#000000" points="432.996,-117.5189 428.2448,-108.0491 426.0535,-118.4149 432.996,-117.5189"/>
<g id="a_edge51&#45;headlabel"><a xlink:href="dir_000219_000095.html" target="_top" xlink:title="29">
<text text-anchor="middle" x="436.2719" y="-118.2206" font-family="Helvetica,sans-Serif" font-size="10.00" fill="#000000">29</text>
</a>
</g>
</g>
<!-- dir_b7a0e33b407baa23d8a077e33033c988&#45;&gt;dir_3c3c25df5132fca4f15a988b4c2efab5 -->
<g id="edge52" class="edge">
<title>dir_b7a0e33b407baa23d8a077e33033c988&#45;&gt;dir_3c3c25df5132fca4f15a988b4c2efab5</title>
<path fill="none" stroke="#000000" d="M488.89,-287.8356C503.0733,-277.8328 520.4921,-264.8644 535,-252 583.4988,-208.9953 631.4131,-149.9694 657.3058,-116.3255"/>
<polygon fill="#000000" stroke="#000000" points="660.1134,-118.4158 663.4012,-108.344 654.5501,-114.1672 660.1134,-118.4158"/>
<g id="a_edge52&#45;headlabel"><a xlink:href="dir_000219_000167.html" target="_top" xlink:title="19">
<text text-anchor="middle" x="660.1882" y="-120.4959" font-family="Helvetica,sans-Serif" font-size="10.00" fill="#000000">19</text>
</a>
</g>
</g>
<!-- dir_b7a0e33b407baa23d8a077e33033c988&#45;&gt;dir_c86b501450b8b8b59405c286cb030cc3 -->
<g id="edge53" class="edge">
<title>dir_b7a0e33b407baa23d8a077e33033c988&#45;&gt;dir_c86b501450b8b8b59405c286cb030cc3</title>
<path fill="none" stroke="#000000" d="M432.7756,-322.8183C408.5554,-335.0803 374.1907,-351.536 348.2358,-363.2794"/>
<polygon fill="#000000" stroke="#000000" points="346.7843,-360.0944 339.0884,-367.3762 349.6455,-366.483 346.7843,-360.0944"/>
<g id="a_edge53&#45;headlabel"><a xlink:href="dir_000219_000226.html" target="_top" xlink:title="9">
<text text-anchor="middle" x="348.9044" y="-353.5339" font-family="Helvetica,sans-Serif" font-size="10.00" fill="#000000">9</text>
</a>
</g>
</g>
<!-- dir_b7a0e33b407baa23d8a077e33033c988&#45;&gt;dir_a36da230f0956f48b11c85f7d599788f -->
<g id="edge54" class="edge">
<title>dir_b7a0e33b407baa23d8a077e33033c988&#45;&gt;dir_a36da230f0956f48b11c85f7d599788f</title>
<path fill="none" stroke="#000000" d="M462.1251,-287.9843C462.4632,-239.2939 463.3972,-104.7961 463.8052,-46.0573"/>
<polygon fill="#000000" stroke="#000000" points="467.3053,-46.033 463.8749,-36.0089 460.3055,-45.9843 467.3053,-46.033"/>
<g id="a_edge54&#45;headlabel"><a xlink:href="dir_000219_000078.html" target="_top" xlink:title="555">
<text text-anchor="middle" x="470.1197" y="-47.1472" font-family="Helvetica,sans-Serif" font-size="10.00" fill="#000000">555</text>
</a>
</g>
</g>
<!-- dir_b7a0e33b407baa23d8a077e33033c988&#45;&gt;dir_d739e095b49d8b72164589d00310017d -->
<g id="edge55" class="edge">
<title>dir_b7a0e33b407baa23d8a077e33033c988&#45;&gt;dir_d739e095b49d8b72164589d00310017d</title>
<path fill="none" stroke="#000000" d="M469.9919,-287.7623C484.9743,-262.5518 516.4471,-216.9103 538.537,-188.0952"/>
<polygon fill="#000000" stroke="#000000" points="541.3903,-190.1278 544.7795,-180.0896 535.8702,-185.8233 541.3903,-190.1278"/>
<g id="a_edge55&#45;headlabel"><a xlink:href="dir_000219_000147.html" target="_top" xlink:title="4">
<text text-anchor="middle" x="541.419" y="-192.2083" font-family="Helvetica,sans-Serif" font-size="10.00" fill="#000000">4</text>
</a>
</g>
</g>
<!-- dir_b7a0e33b407baa23d8a077e33033c988&#45;&gt;dir_bf85a0c13984f214f436b2edc519c6dd -->
<g id="edge56" class="edge">
<title>dir_b7a0e33b407baa23d8a077e33033c988&#45;&gt;dir_bf85a0c13984f214f436b2edc519c6dd</title>
<path fill="none" stroke="#000000" d="M432.884,-293.2936C412.7296,-283.3321 385.8777,-269.2007 364.2027,-257.2322"/>
<polygon fill="#000000" stroke="#000000" points="365.7044,-254.0623 355.2651,-252.2537 362.298,-260.1776 365.7044,-254.0623"/>
<g id="a_edge56&#45;headlabel"><a xlink:href="dir_000219_000103.html" target="_top" xlink:title="6">
<text text-anchor="middle" x="370.2263" y="-250.831" font-family="Helvetica,sans-Serif" font-size="10.00" fill="#000000">6</text>
</a>
</g>
</g>
</g>
</svg>
