<?xml version="1.0" encoding="UTF-8" standalone="no"?>
<!DOCTYPE svg PUBLIC "-//W3C//DTD SVG 1.1//EN"
 "http://www.w3.org/Graphics/SVG/1.1/DTD/svg11.dtd">
<!-- Generated by graphviz version 2.40.1 (20161225.0304)
 -->
<!-- Title: drake/multibody/parsing Pages: 1 -->
<!--zoomable 519 -->
<svg id="main" version="1.1" xmlns="http://www.w3.org/2000/svg" xmlns:xlink="http://www.w3.org/1999/xlink" xml:space="preserve" onload="init(evt)">
<style type="text/css"><![CDATA[
.edge:hover path { stroke: red; }
.edge:hover polygon { stroke: red; fill: red; }
]]></style>
<script type="text/javascript"><![CDATA[
var edges = document.getElementsByTagName('g');
if (edges && edges.length) {
  for (var i=0;i<edges.length;i++) {
    if (edges[i].id.substr(0,4)=='edge') {
      edges[i].setAttribute('class','edge');
    }
  }
}
]]></script>
        <defs>
                <circle id="rim" cx="0" cy="0" r="7"/>
                <circle id="rim2" cx="0" cy="0" r="3.5"/>
                <g id="zoomPlus">
                        <use xlink:href="#rim" fill="#404040">
                                <set attributeName="fill" to="#808080" begin="zoomplus.mouseover" end="zoomplus.mouseout"/>
                        </use>
                        <path d="M-4,0h8M0,-4v8" fill="none" stroke="white" stroke-width="1.5" pointer-events="none"/>
                </g>
                <g id="zoomMin">
                        <use xlink:href="#rim" fill="#404040">
                                <set attributeName="fill" to="#808080" begin="zoomminus.mouseover" end="zoomminus.mouseout"/>
                        </use>
                        <path d="M-4,0h8" fill="none" stroke="white" stroke-width="1.5" pointer-events="none"/>
                </g>
                <g id="dirArrow">
                        <path fill="none" stroke="white" stroke-width="1.5" d="M0,-3.0v7 M-2.5,-0.5L0,-3.0L2.5,-0.5"/>
                </g>
               <g id="resetDef">
                       <use xlink:href="#rim2" fill="#404040">
                               <set attributeName="fill" to="#808080" begin="reset.mouseover" end="reset.mouseout"/>
                       </use>
               </g>
        </defs>

<script type="text/javascript">
var viewWidth = 696;
var viewHeight = 519;
var sectionId = 'dynsection-0';
</script>
<script xlink:href="svgpan.js"/>
<svg id="graph" class="graph">
<g id="viewport">
<title>drake/multibody/parsing</title>
<polygon fill="#ffffff" stroke="transparent" points="-4,4 -4,-515 692,-515 692,4 -4,4"/>
<g id="clust1" class="cluster">
<title>clusterdir_39b8b3c6654246a9c12332c930bc7d3f</title>
<g id="a_clust1"><a xlink:href="dir_39b8b3c6654246a9c12332c930bc7d3f.html" target="_top" xlink:title="multibody">
<polygon fill="#ddddee" stroke="#000000" points="220,-416 220,-503 378,-503 378,-416 220,-416"/>
<text text-anchor="middle" x="299" y="-491" font-family="Helvetica,sans-Serif" font-size="10.00" fill="#000000">multibody</text>
</a>
</g>
</g>
<g id="clust2" class="cluster">
<title>clusterdir_e56f4370c0abfd94d0eb867c3946e12e</title>
<g id="a_clust2"><a xlink:href="dir_e56f4370c0abfd94d0eb867c3946e12e.html" target="_top">
<polygon fill="#eeeeff" stroke="#000000" points="228,-424 228,-476 370,-476 370,-424 228,-424"/>
</a>
</g>
</g>
<!-- dir_e56f4370c0abfd94d0eb867c3946e12e -->
<g id="node1" class="node">
<title>dir_e56f4370c0abfd94d0eb867c3946e12e</title>
<text text-anchor="middle" x="263" y="-447.5" font-family="Helvetica,sans-Serif" font-size="10.00" fill="#000000">parsing</text>
</g>
<!-- dir_fc0178d6978c9fa2cad6ef3e048a60a7 -->
<g id="node3" class="node">
<title>dir_fc0178d6978c9fa2cad6ef3e048a60a7</title>
<g id="a_node3"><a xlink:href="dir_fc0178d6978c9fa2cad6ef3e048a60a7.html" target="_top" xlink:title="math">
<polygon fill="#ffffff" stroke="#ff0000" points="308,-108 254,-108 254,-72 308,-72 308,-108"/>
<text text-anchor="middle" x="281" y="-87.5" font-family="Helvetica,sans-Serif" font-size="10.00" fill="#000000">math</text>
</a>
</g>
</g>
<!-- dir_e56f4370c0abfd94d0eb867c3946e12e&#45;&gt;dir_fc0178d6978c9fa2cad6ef3e048a60a7 -->
<g id="edge1" class="edge">
<title>dir_e56f4370c0abfd94d0eb867c3946e12e&#45;&gt;dir_fc0178d6978c9fa2cad6ef3e048a60a7</title>
<path fill="none" stroke="#000000" d="M235.6711,-438.5969C192.6561,-418.6093 114,-372.9124 114,-306 114,-306 114,-306 114,-234 114,-154.8201 172.4278,-147.2353 244.7862,-110.6259"/>
<polygon fill="#000000" stroke="#000000" points="246.4137,-113.7246 253.6764,-106.0107 243.1885,-107.5118 246.4137,-113.7246"/>
<g id="a_edge1&#45;headlabel"><a xlink:href="dir_000030_000105.html" target="_top" xlink:title="10">
<text text-anchor="middle" x="244.5315" y="-115.4007" font-family="Helvetica,sans-Serif" font-size="10.00" fill="#000000">10</text>
</a>
</g>
</g>
<!-- dir_a36da230f0956f48b11c85f7d599788f -->
<g id="node5" class="node">
<title>dir_a36da230f0956f48b11c85f7d599788f</title>
<g id="a_node5"><a xlink:href="dir_a36da230f0956f48b11c85f7d599788f.html" target="_top" xlink:title="common">
<polygon fill="#ffffff" stroke="#ff0000" points="310.5,-36 251.5,-36 251.5,0 310.5,0 310.5,-36"/>
<text text-anchor="middle" x="281" y="-15.5" font-family="Helvetica,sans-Serif" font-size="10.00" fill="#000000">common</text>
</a>
</g>
</g>
<!-- dir_e56f4370c0abfd94d0eb867c3946e12e&#45;&gt;dir_a36da230f0956f48b11c85f7d599788f -->
<g id="edge2" class="edge">
<title>dir_e56f4370c0abfd94d0eb867c3946e12e&#45;&gt;dir_a36da230f0956f48b11c85f7d599788f</title>
<path fill="none" stroke="#000000" d="M235.845,-447.8377C168.6489,-440.8591 0,-412.7145 0,-306 0,-306 0,-306 0,-162 0,-115.1222 17.0771,-99.557 55,-72 84.4166,-50.6242 184.4799,-32.5751 241.1005,-23.7679"/>
<polygon fill="#000000" stroke="#000000" points="241.7846,-27.2041 251.1404,-22.2323 240.7262,-20.2846 241.7846,-27.2041"/>
<g id="a_edge2&#45;headlabel"><a xlink:href="dir_000030_000086.html" target="_top" xlink:title="33">
<text text-anchor="middle" x="238.6606" y="-28.0541" font-family="Helvetica,sans-Serif" font-size="10.00" fill="#000000">33</text>
</a>
</g>
</g>
<!-- dir_d739e095b49d8b72164589d00310017d -->
<g id="node6" class="node">
<title>dir_d739e095b49d8b72164589d00310017d</title>
<g id="a_node6"><a xlink:href="dir_d739e095b49d8b72164589d00310017d.html" target="_top" xlink:title="geometry">
<polygon fill="#ffffff" stroke="#ff0000" points="282,-396 218,-396 218,-360 282,-360 282,-396"/>
<text text-anchor="middle" x="250" y="-375.5" font-family="Helvetica,sans-Serif" font-size="10.00" fill="#000000">geometry</text>
</a>
</g>
</g>
<!-- dir_e56f4370c0abfd94d0eb867c3946e12e&#45;&gt;dir_d739e095b49d8b72164589d00310017d -->
<g id="edge3" class="edge">
<title>dir_e56f4370c0abfd94d0eb867c3946e12e&#45;&gt;dir_d739e095b49d8b72164589d00310017d</title>
<path fill="none" stroke="#000000" d="M259.7196,-431.8314C258.3292,-424.131 256.6759,-414.9743 255.1308,-406.4166"/>
<polygon fill="#000000" stroke="#000000" points="258.5458,-405.6322 253.3246,-396.4133 251.6572,-406.8761 258.5458,-405.6322"/>
<g id="a_edge3&#45;headlabel"><a xlink:href="dir_000030_000159.html" target="_top" xlink:title="16">
<text text-anchor="middle" x="261.9785" y="-406.1652" font-family="Helvetica,sans-Serif" font-size="10.00" fill="#000000">16</text>
</a>
</g>
</g>
<!-- dir_3f9cb8dbb3b4911cb2ecb548acd672c3 -->
<g id="node7" class="node">
<title>dir_3f9cb8dbb3b4911cb2ecb548acd672c3</title>
<g id="a_node7"><a xlink:href="dir_3f9cb8dbb3b4911cb2ecb548acd672c3.html" target="_top" xlink:title="tree">
<polygon fill="#ffffff" stroke="#ff0000" points="398,-180 344,-180 344,-144 398,-144 398,-180"/>
<text text-anchor="middle" x="371" y="-159.5" font-family="Helvetica,sans-Serif" font-size="10.00" fill="#000000">tree</text>
</a>
</g>
</g>
<!-- dir_e56f4370c0abfd94d0eb867c3946e12e&#45;&gt;dir_3f9cb8dbb3b4911cb2ecb548acd672c3 -->
<g id="edge4" class="edge">
<title>dir_e56f4370c0abfd94d0eb867c3946e12e&#45;&gt;dir_3f9cb8dbb3b4911cb2ecb548acd672c3</title>
<path fill="none" stroke="#000000" d="M235.6039,-441.2209C215.1402,-433.0557 188.6172,-418.6814 176,-396 168.222,-382.0178 170.0346,-374.8464 176,-360 207.7514,-280.9783 288.424,-216.7956 335.4595,-184.5571"/>
<polygon fill="#000000" stroke="#000000" points="337.4963,-187.4051 343.8313,-178.9128 333.5831,-181.601 337.4963,-187.4051"/>
<g id="a_edge4&#45;headlabel"><a xlink:href="dir_000030_000027.html" target="_top" xlink:title="13">
<text text-anchor="middle" x="336.103" y="-189.2687" font-family="Helvetica,sans-Serif" font-size="10.00" fill="#000000">13</text>
</a>
</g>
</g>
<!-- dir_656f7d340c0f5b4ecaf881820f2aea38 -->
<g id="node8" class="node">
<title>dir_656f7d340c0f5b4ecaf881820f2aea38</title>
<g id="a_node8"><a xlink:href="dir_656f7d340c0f5b4ecaf881820f2aea38.html" target="_top" xlink:title="plant">
<polygon fill="#ffffff" stroke="#ff0000" points="407,-252 353,-252 353,-216 407,-216 407,-252"/>
<text text-anchor="middle" x="380" y="-231.5" font-family="Helvetica,sans-Serif" font-size="10.00" fill="#000000">plant</text>
</a>
</g>
</g>
<!-- dir_e56f4370c0abfd94d0eb867c3946e12e&#45;&gt;dir_656f7d340c0f5b4ecaf881820f2aea38 -->
<g id="edge5" class="edge">
<title>dir_e56f4370c0abfd94d0eb867c3946e12e&#45;&gt;dir_656f7d340c0f5b4ecaf881820f2aea38</title>
<path fill="none" stroke="#000000" d="M278.2814,-431.893C297.5055,-408.353 330.479,-365.3474 351,-324 360.868,-304.1171 368.4021,-280.1298 373.3149,-261.9208"/>
<polygon fill="#000000" stroke="#000000" points="376.7127,-262.7611 375.8374,-252.2025 369.9372,-261.0024 376.7127,-262.7611"/>
<g id="a_edge5&#45;headlabel"><a xlink:href="dir_000030_000034.html" target="_top" xlink:title="11">
<text text-anchor="middle" x="378.5578" y="-264.4538" font-family="Helvetica,sans-Serif" font-size="10.00" fill="#000000">11</text>
</a>
</g>
</g>
<!-- dir_7a40f2bc129701c1de07b5fae7197d05 -->
<g id="node2" class="node">
<title>dir_7a40f2bc129701c1de07b5fae7197d05</title>
<g id="a_node2"><a xlink:href="dir_7a40f2bc129701c1de07b5fae7197d05.html" target="_top" xlink:title="test">
<polygon fill="#ffffff" stroke="#000000" points="362,-468 308,-468 308,-432 362,-432 362,-468"/>
<text text-anchor="middle" x="335" y="-447.5" font-family="Helvetica,sans-Serif" font-size="10.00" fill="#000000">test</text>
</a>
</g>
</g>
<!-- dir_7a40f2bc129701c1de07b5fae7197d05&#45;&gt;dir_fc0178d6978c9fa2cad6ef3e048a60a7 -->
<g id="edge13" class="edge">
<title>dir_7a40f2bc129701c1de07b5fae7197d05&#45;&gt;dir_fc0178d6978c9fa2cad6ef3e048a60a7</title>
<path fill="none" stroke="#000000" d="M319.6481,-431.999C313.7488,-426.0981 306.5943,-420.0288 299,-416 262.8025,-396.7971 237.8201,-425.1276 209,-396 180.2461,-366.9393 190,-346.8816 190,-306 190,-306 190,-306 190,-234 190,-186.4235 225.9367,-141.776 252.6436,-115.1645"/>
<polygon fill="#000000" stroke="#000000" points="255.1409,-117.6184 259.894,-108.1496 250.2735,-112.5876 255.1409,-117.6184"/>
<g id="a_edge13&#45;headlabel"><a xlink:href="dir_000216_000105.html" target="_top" xlink:title="7">
<text text-anchor="middle" x="254.5318" y="-119.6584" font-family="Helvetica,sans-Serif" font-size="10.00" fill="#000000">7</text>
</a>
</g>
</g>
<!-- dir_5d8dbe7a82c2c188fa06f6391bb290bd -->
<g id="node4" class="node">
<title>dir_5d8dbe7a82c2c188fa06f6391bb290bd</title>
<g id="a_node4"><a xlink:href="dir_5d8dbe7a82c2c188fa06f6391bb290bd.html" target="_top" xlink:title="benchmarks">
<polygon fill="#ffffff" stroke="#ff0000" points="547.5,-468 470.5,-468 470.5,-432 547.5,-432 547.5,-468"/>
<text text-anchor="middle" x="509" y="-447.5" font-family="Helvetica,sans-Serif" font-size="10.00" fill="#000000">benchmarks</text>
</a>
</g>
</g>
<!-- dir_7a40f2bc129701c1de07b5fae7197d05&#45;&gt;dir_5d8dbe7a82c2c188fa06f6391bb290bd -->
<g id="edge14" class="edge">
<title>dir_7a40f2bc129701c1de07b5fae7197d05&#45;&gt;dir_5d8dbe7a82c2c188fa06f6391bb290bd</title>
<path fill="none" stroke="#000000" d="M362.1875,-450C394.8434,-450 427.4992,-450 460.1551,-450"/>
<polygon fill="#000000" stroke="#000000" points="460.2897,-453.5001 470.2897,-450 460.2896,-446.5001 460.2897,-453.5001"/>
<g id="a_edge14&#45;headlabel"><a xlink:href="dir_000216_000196.html" target="_top" xlink:title="1">
<text text-anchor="middle" x="456.6951" y="-453.8393" font-family="Helvetica,sans-Serif" font-size="10.00" fill="#000000">1</text>
</a>
</g>
</g>
<!-- dir_7a40f2bc129701c1de07b5fae7197d05&#45;&gt;dir_a36da230f0956f48b11c85f7d599788f -->
<g id="edge15" class="edge">
<title>dir_7a40f2bc129701c1de07b5fae7197d05&#45;&gt;dir_a36da230f0956f48b11c85f7d599788f</title>
<path fill="none" stroke="#000000" d="M362.1294,-440.6855C438.5369,-414.0619 650,-337.5311 650,-306 650,-306 650,-306 650,-162 650,-91.9057 416.0077,-42.1323 320.6886,-24.7645"/>
<polygon fill="#000000" stroke="#000000" points="321.0342,-21.2707 310.5731,-22.9486 319.7972,-28.1606 321.0342,-21.2707"/>
<g id="a_edge15&#45;headlabel"><a xlink:href="dir_000216_000086.html" target="_top" xlink:title="19">
<text text-anchor="middle" x="325.0739" y="-16.6112" font-family="Helvetica,sans-Serif" font-size="10.00" fill="#000000">19</text>
</a>
</g>
</g>
<!-- dir_7a40f2bc129701c1de07b5fae7197d05&#45;&gt;dir_d739e095b49d8b72164589d00310017d -->
<g id="edge16" class="edge">
<title>dir_7a40f2bc129701c1de07b5fae7197d05&#45;&gt;dir_d739e095b49d8b72164589d00310017d</title>
<path fill="none" stroke="#000000" d="M316.2608,-431.6487C310.7954,-426.4765 304.7459,-420.9211 299,-416 293.7262,-411.4832 287.9994,-406.8302 282.3826,-402.3964"/>
<polygon fill="#000000" stroke="#000000" points="284.3375,-399.4826 274.2977,-396.0985 280.0358,-405.0049 284.3375,-399.4826"/>
<g id="a_edge16&#45;headlabel"><a xlink:href="dir_000216_000159.html" target="_top" xlink:title="7">
<text text-anchor="middle" x="288.9181" y="-396.9517" font-family="Helvetica,sans-Serif" font-size="10.00" fill="#000000">7</text>
</a>
</g>
</g>
<!-- dir_7a40f2bc129701c1de07b5fae7197d05&#45;&gt;dir_3f9cb8dbb3b4911cb2ecb548acd672c3 -->
<g id="edge17" class="edge">
<title>dir_7a40f2bc129701c1de07b5fae7197d05&#45;&gt;dir_3f9cb8dbb3b4911cb2ecb548acd672c3</title>
<path fill="none" stroke="#000000" d="M358.523,-431.9872C369.5541,-422.4056 382.0009,-409.7692 390,-396 406.6248,-367.3831 403.1576,-356.5757 409,-324 417.4913,-276.6547 432.3747,-261.2277 416,-216 412.2851,-205.7392 405.6748,-196.0579 398.6452,-187.8033"/>
<polygon fill="#000000" stroke="#000000" points="401.18,-185.3886 391.8578,-180.3539 396.0056,-190.1031 401.18,-185.3886"/>
<g id="a_edge17&#45;headlabel"><a xlink:href="dir_000216_000027.html" target="_top" xlink:title="1">
<text text-anchor="middle" x="405.6997" y="-183.6334" font-family="Helvetica,sans-Serif" font-size="10.00" fill="#000000">1</text>
</a>
</g>
</g>
<!-- dir_7a40f2bc129701c1de07b5fae7197d05&#45;&gt;dir_656f7d340c0f5b4ecaf881820f2aea38 -->
<g id="edge18" class="edge">
<title>dir_7a40f2bc129701c1de07b5fae7197d05&#45;&gt;dir_656f7d340c0f5b4ecaf881820f2aea38</title>
<path fill="none" stroke="#000000" d="M346.7218,-431.717C361.17,-407.9911 384.923,-364.7894 394,-324 398.5941,-303.3552 394.5662,-279.7157 389.6716,-261.8461"/>
<polygon fill="#000000" stroke="#000000" points="392.9636,-260.6379 386.7482,-252.0577 386.2564,-262.6411 392.9636,-260.6379"/>
<g id="a_edge18&#45;headlabel"><a xlink:href="dir_000216_000034.html" target="_top" xlink:title="4">
<text text-anchor="middle" x="396.7128" y="-260.7697" font-family="Helvetica,sans-Serif" font-size="10.00" fill="#000000">4</text>
</a>
</g>
</g>
<!-- dir_b7a0e33b407baa23d8a077e33033c988 -->
<g id="node9" class="node">
<title>dir_b7a0e33b407baa23d8a077e33033c988</title>
<g id="a_node9"><a xlink:href="dir_b7a0e33b407baa23d8a077e33033c988.html" target="_top" xlink:title="systems">
<polygon fill="#ffffff" stroke="#ff0000" points="314,-324 256,-324 256,-288 314,-288 314,-324"/>
<text text-anchor="middle" x="285" y="-303.5" font-family="Helvetica,sans-Serif" font-size="10.00" fill="#000000">systems</text>
</a>
</g>
</g>
<!-- dir_7a40f2bc129701c1de07b5fae7197d05&#45;&gt;dir_b7a0e33b407baa23d8a077e33033c988 -->
<g id="edge19" class="edge">
<title>dir_7a40f2bc129701c1de07b5fae7197d05&#45;&gt;dir_b7a0e33b407baa23d8a077e33033c988</title>
<path fill="none" stroke="#000000" d="M328.6675,-431.7623C320.0641,-406.9846 304.6081,-362.4714 294.5812,-333.5939"/>
<polygon fill="#000000" stroke="#000000" points="297.8677,-332.3883 291.2811,-324.0896 291.2549,-334.6844 297.8677,-332.3883"/>
<g id="a_edge19&#45;headlabel"><a xlink:href="dir_000216_000218.html" target="_top" xlink:title="3">
<text text-anchor="middle" x="301.7289" y="-332.3527" font-family="Helvetica,sans-Serif" font-size="10.00" fill="#000000">3</text>
</a>
</g>
</g>
<!-- dir_fc0178d6978c9fa2cad6ef3e048a60a7&#45;&gt;dir_a36da230f0956f48b11c85f7d599788f -->
<g id="edge6" class="edge">
<title>dir_fc0178d6978c9fa2cad6ef3e048a60a7&#45;&gt;dir_a36da230f0956f48b11c85f7d599788f</title>
<path fill="none" stroke="#000000" d="M275.0476,-71.8314C274.2972,-64.131 274.0763,-54.9743 274.3849,-46.4166"/>
<polygon fill="#000000" stroke="#000000" points="277.8792,-46.6161 275.024,-36.4133 270.8935,-46.1697 277.8792,-46.6161"/>
<g id="a_edge6&#45;headlabel"><a xlink:href="dir_000105_000086.html" target="_top" xlink:title="87">
<text text-anchor="middle" x="280.4836" y="-47.8844" font-family="Helvetica,sans-Serif" font-size="10.00" fill="#000000">87</text>
</a>
</g>
</g>
<!-- dir_5d8dbe7a82c2c188fa06f6391bb290bd&#45;&gt;dir_fc0178d6978c9fa2cad6ef3e048a60a7 -->
<g id="edge7" class="edge">
<title>dir_5d8dbe7a82c2c188fa06f6391bb290bd&#45;&gt;dir_fc0178d6978c9fa2cad6ef3e048a60a7</title>
<path fill="none" stroke="#000000" d="M513.6732,-431.6957C517.7008,-413.4874 522.376,-384.7676 519,-360 509.7893,-292.4276 502.117,-273.8483 466,-216 444.0898,-180.9066 440.0699,-168.8593 407,-144 380.0101,-123.7111 344.2365,-109.325 317.7047,-100.5305"/>
<polygon fill="#000000" stroke="#000000" points="318.6172,-97.1478 308.0262,-97.4331 316.4835,-103.8147 318.6172,-97.1478"/>
<g id="a_edge7&#45;headlabel"><a xlink:href="dir_000196_000105.html" target="_top" xlink:title="11">
<text text-anchor="middle" x="322.9061" y="-93.0392" font-family="Helvetica,sans-Serif" font-size="10.00" fill="#000000">11</text>
</a>
</g>
</g>
<!-- dir_5d8dbe7a82c2c188fa06f6391bb290bd&#45;&gt;dir_a36da230f0956f48b11c85f7d599788f -->
<g id="edge8" class="edge">
<title>dir_5d8dbe7a82c2c188fa06f6391bb290bd&#45;&gt;dir_a36da230f0956f48b11c85f7d599788f</title>
<path fill="none" stroke="#000000" d="M547.8403,-438.1307C600.4857,-419.3497 688,-377.3926 688,-306 688,-306 688,-306 688,-162 688,-96.7468 631.5376,-98.7068 572,-72 487.9217,-34.285 378.8341,-22.9109 321.0389,-19.4809"/>
<polygon fill="#000000" stroke="#000000" points="321.0369,-15.9757 310.8618,-18.9283 320.6573,-22.9654 321.0369,-15.9757"/>
<g id="a_edge8&#45;headlabel"><a xlink:href="dir_000196_000086.html" target="_top" xlink:title="26">
<text text-anchor="middle" x="324.7801" y="-10.8354" font-family="Helvetica,sans-Serif" font-size="10.00" fill="#000000">26</text>
</a>
</g>
</g>
<!-- dir_5d8dbe7a82c2c188fa06f6391bb290bd&#45;&gt;dir_d739e095b49d8b72164589d00310017d -->
<g id="edge9" class="edge">
<title>dir_5d8dbe7a82c2c188fa06f6391bb290bd&#45;&gt;dir_d739e095b49d8b72164589d00310017d</title>
<path fill="none" stroke="#000000" d="M470.2251,-439.2209C422.301,-425.8983 341.0636,-403.315 291.7898,-389.6172"/>
<polygon fill="#000000" stroke="#000000" points="292.6544,-386.2249 282.0823,-386.9186 290.7795,-392.9692 292.6544,-386.2249"/>
<g id="a_edge9&#45;headlabel"><a xlink:href="dir_000196_000159.html" target="_top" xlink:title="3">
<text text-anchor="middle" x="296.8781" y="-381.9521" font-family="Helvetica,sans-Serif" font-size="10.00" fill="#000000">3</text>
</a>
</g>
</g>
<!-- dir_5d8dbe7a82c2c188fa06f6391bb290bd&#45;&gt;dir_3f9cb8dbb3b4911cb2ecb548acd672c3 -->
<g id="edge10" class="edge">
<title>dir_5d8dbe7a82c2c188fa06f6391bb290bd&#45;&gt;dir_3f9cb8dbb3b4911cb2ecb548acd672c3</title>
<path fill="none" stroke="#000000" d="M502.1458,-431.9858C491.9717,-390.5011 473.1519,-286.3931 424,-216 416.4665,-205.2109 406.3187,-195.1896 396.8368,-186.7824"/>
<polygon fill="#000000" stroke="#000000" points="398.9614,-183.9931 389.1005,-180.1185 394.3929,-189.2968 398.9614,-183.9931"/>
<g id="a_edge10&#45;headlabel"><a xlink:href="dir_000196_000027.html" target="_top" xlink:title="22">
<text text-anchor="middle" x="403.5379" y="-181.6878" font-family="Helvetica,sans-Serif" font-size="10.00" fill="#000000">22</text>
</a>
</g>
</g>
<!-- dir_5d8dbe7a82c2c188fa06f6391bb290bd&#45;&gt;dir_656f7d340c0f5b4ecaf881820f2aea38 -->
<g id="edge11" class="edge">
<title>dir_5d8dbe7a82c2c188fa06f6391bb290bd&#45;&gt;dir_656f7d340c0f5b4ecaf881820f2aea38</title>
<path fill="none" stroke="#000000" d="M494.2775,-431.9555C468.1748,-394.0762 415.382,-306.0818 391.621,-261.274"/>
<polygon fill="#000000" stroke="#000000" points="394.5956,-259.4075 386.8815,-252.1451 388.383,-262.633 394.5956,-259.4075"/>
<g id="a_edge11&#45;headlabel"><a xlink:href="dir_000196_000034.html" target="_top" xlink:title="4">
<text text-anchor="middle" x="398.7718" y="-258.7896" font-family="Helvetica,sans-Serif" font-size="10.00" fill="#000000">4</text>
</a>
</g>
</g>
<!-- dir_5d8dbe7a82c2c188fa06f6391bb290bd&#45;&gt;dir_b7a0e33b407baa23d8a077e33033c988 -->
<g id="edge12" class="edge">
<title>dir_5d8dbe7a82c2c188fa06f6391bb290bd&#45;&gt;dir_b7a0e33b407baa23d8a077e33033c988</title>
<path fill="none" stroke="#000000" d="M480.6302,-431.7623C440.2358,-405.7945 366.1214,-358.1495 321.625,-329.5446"/>
<polygon fill="#000000" stroke="#000000" points="323.4439,-326.5531 313.1394,-324.0896 319.6585,-332.4414 323.4439,-326.5531"/>
<g id="a_edge12&#45;headlabel"><a xlink:href="dir_000196_000218.html" target="_top" xlink:title="3">
<text text-anchor="middle" x="328.0029" y="-323.6085" font-family="Helvetica,sans-Serif" font-size="10.00" fill="#000000">3</text>
</a>
</g>
</g>
<!-- dir_a36da230f0956f48b11c85f7d599788f&#45;&gt;dir_fc0178d6978c9fa2cad6ef3e048a60a7 -->
<g id="edge20" class="edge">
<title>dir_a36da230f0956f48b11c85f7d599788f&#45;&gt;dir_fc0178d6978c9fa2cad6ef3e048a60a7</title>
<path fill="none" stroke="#000000" d="M286.976,-36.4133C287.7071,-44.0593 287.9203,-53.1084 287.6155,-61.5726"/>
<polygon fill="#000000" stroke="#000000" points="284.1048,-61.6264 286.9524,-71.8314 291.0902,-62.078 284.1048,-61.6264"/>
<g id="a_edge20&#45;headlabel"><a xlink:href="dir_000086_000105.html" target="_top" xlink:title="4">
<text text-anchor="middle" x="281.5032" y="-55.3562" font-family="Helvetica,sans-Serif" font-size="10.00" fill="#000000">4</text>
</a>
</g>
</g>
<!-- dir_d739e095b49d8b72164589d00310017d&#45;&gt;dir_fc0178d6978c9fa2cad6ef3e048a60a7 -->
<g id="edge21" class="edge">
<title>dir_d739e095b49d8b72164589d00310017d&#45;&gt;dir_fc0178d6978c9fa2cad6ef3e048a60a7</title>
<path fill="none" stroke="#000000" d="M248.7188,-359.5162C248.0601,-349.0924 247.3283,-335.8262 247,-324 246.5561,-308.0062 245.6412,-303.9422 247,-288 252.212,-226.8512 266.3217,-156.2212 274.6355,-118.0318"/>
<polygon fill="#000000" stroke="#000000" points="278.0777,-118.6747 276.8145,-108.1555 271.2421,-117.1665 278.0777,-118.6747"/>
<g id="a_edge21&#45;headlabel"><a xlink:href="dir_000159_000105.html" target="_top" xlink:title="3">
<text text-anchor="middle" x="280.076" y="-120.2966" font-family="Helvetica,sans-Serif" font-size="10.00" fill="#000000">3</text>
</a>
</g>
</g>
<!-- dir_d739e095b49d8b72164589d00310017d&#45;&gt;dir_a36da230f0956f48b11c85f7d599788f -->
<g id="edge22" class="edge">
<title>dir_d739e095b49d8b72164589d00310017d&#45;&gt;dir_a36da230f0956f48b11c85f7d599788f</title>
<path fill="none" stroke="#000000" d="M217.8018,-371.7313C158.4954,-358.1111 38,-319.872 38,-234 38,-234 38,-234 38,-162 38,-68.7117 172.1851,-34.5519 241.1286,-23.1575"/>
<polygon fill="#000000" stroke="#000000" points="241.8663,-26.5847 251.2034,-21.5778 240.7819,-19.6692 241.8663,-26.5847"/>
<g id="a_edge22&#45;headlabel"><a xlink:href="dir_000159_000086.html" target="_top" xlink:title="74">
<text text-anchor="middle" x="238.7549" y="-27.4464" font-family="Helvetica,sans-Serif" font-size="10.00" fill="#000000">74</text>
</a>
</g>
</g>
<!-- dir_d739e095b49d8b72164589d00310017d&#45;&gt;dir_b7a0e33b407baa23d8a077e33033c988 -->
<g id="edge23" class="edge">
<title>dir_d739e095b49d8b72164589d00310017d&#45;&gt;dir_b7a0e33b407baa23d8a077e33033c988</title>
<path fill="none" stroke="#000000" d="M252.8796,-359.8314C256.004,-351.7925 260.4769,-342.1666 265.1618,-333.2918"/>
<polygon fill="#000000" stroke="#000000" points="268.2953,-334.8579 270.0731,-324.4133 262.17,-331.4696 268.2953,-334.8579"/>
<g id="a_edge23&#45;headlabel"><a xlink:href="dir_000159_000218.html" target="_top" xlink:title="16">
<text text-anchor="middle" x="269.0399" y="-336.8776" font-family="Helvetica,sans-Serif" font-size="10.00" fill="#000000">16</text>
</a>
</g>
</g>
<!-- dir_3f9cb8dbb3b4911cb2ecb548acd672c3&#45;&gt;dir_fc0178d6978c9fa2cad6ef3e048a60a7 -->
<g id="edge24" class="edge">
<title>dir_3f9cb8dbb3b4911cb2ecb548acd672c3&#45;&gt;dir_fc0178d6978c9fa2cad6ef3e048a60a7</title>
<path fill="none" stroke="#000000" d="M348.2892,-143.8314C337.204,-134.9632 323.7046,-124.1637 311.7148,-114.5718"/>
<polygon fill="#000000" stroke="#000000" points="313.6987,-111.6768 303.7035,-108.1628 309.3258,-117.1429 313.6987,-111.6768"/>
<g id="a_edge24&#45;headlabel"><a xlink:href="dir_000027_000105.html" target="_top" xlink:title="38">
<text text-anchor="middle" x="318.2793" y="-109.2052" font-family="Helvetica,sans-Serif" font-size="10.00" fill="#000000">38</text>
</a>
</g>
</g>
<!-- dir_3f9cb8dbb3b4911cb2ecb548acd672c3&#45;&gt;dir_5d8dbe7a82c2c188fa06f6391bb290bd -->
<g id="edge25" class="edge">
<title>dir_3f9cb8dbb3b4911cb2ecb548acd672c3&#45;&gt;dir_5d8dbe7a82c2c188fa06f6391bb290bd</title>
<path fill="none" stroke="#000000" d="M398.1343,-175.1217C413.0894,-185.0013 430.5593,-199.6151 442,-216 487.5039,-281.1686 507.0111,-375.2333 510.8158,-421.7535"/>
<polygon fill="#000000" stroke="#000000" points="507.3371,-422.2149 511.4334,-431.9858 514.3244,-421.7931 507.3371,-422.2149"/>
<g id="a_edge25&#45;headlabel"><a xlink:href="dir_000027_000196.html" target="_top" xlink:title="6">
<text text-anchor="middle" x="504.2866" y="-416.2978" font-family="Helvetica,sans-Serif" font-size="10.00" fill="#000000">6</text>
</a>
</g>
</g>
<!-- dir_3f9cb8dbb3b4911cb2ecb548acd672c3&#45;&gt;dir_a36da230f0956f48b11c85f7d599788f -->
<g id="edge26" class="edge">
<title>dir_3f9cb8dbb3b4911cb2ecb548acd672c3&#45;&gt;dir_a36da230f0956f48b11c85f7d599788f</title>
<path fill="none" stroke="#000000" d="M360.4913,-143.9168C349.7866,-125.6333 332.5905,-96.6361 317,-72 311.3655,-63.0963 305.0436,-53.4918 299.2885,-44.8866"/>
<polygon fill="#000000" stroke="#000000" points="302.0337,-42.6968 293.5487,-36.352 296.2251,-46.6033 302.0337,-42.6968"/>
<g id="a_edge26&#45;headlabel"><a xlink:href="dir_000027_000086.html" target="_top" xlink:title="184">
<text text-anchor="middle" x="306.3957" y="-41.5951" font-family="Helvetica,sans-Serif" font-size="10.00" fill="#000000">184</text>
</a>
</g>
</g>
<!-- dir_3f9cb8dbb3b4911cb2ecb548acd672c3&#45;&gt;dir_656f7d340c0f5b4ecaf881820f2aea38 -->
<g id="edge27" class="edge">
<title>dir_3f9cb8dbb3b4911cb2ecb548acd672c3&#45;&gt;dir_656f7d340c0f5b4ecaf881820f2aea38</title>
<path fill="none" stroke="#000000" d="M379.2777,-180.4133C380.9645,-188.0593 382.3088,-197.1084 383.062,-205.5726"/>
<polygon fill="#000000" stroke="#000000" points="379.585,-206.0605 383.6813,-215.8314 386.5723,-205.6386 379.585,-206.0605"/>
<g id="a_edge27&#45;headlabel"><a xlink:href="dir_000027_000034.html" target="_top" xlink:title="1">
<text text-anchor="middle" x="376.5344" y="-200.1434" font-family="Helvetica,sans-Serif" font-size="10.00" fill="#000000">1</text>
</a>
</g>
</g>
<!-- dir_3f9cb8dbb3b4911cb2ecb548acd672c3&#45;&gt;dir_b7a0e33b407baa23d8a077e33033c988 -->
<g id="edge28" class="edge">
<title>dir_3f9cb8dbb3b4911cb2ecb548acd672c3&#45;&gt;dir_b7a0e33b407baa23d8a077e33033c988</title>
<path fill="none" stroke="#000000" d="M364.8548,-180.0896C352.4339,-205.1119 325.5899,-250.4628 306.2887,-279.3623"/>
<polygon fill="#000000" stroke="#000000" points="303.3037,-277.5275 300.5651,-287.7623 309.0885,-281.4692 303.3037,-277.5275"/>
<g id="a_edge28&#45;headlabel"><a xlink:href="dir_000027_000218.html" target="_top" xlink:title="45">
<text text-anchor="middle" x="302.9814" y="-270.4582" font-family="Helvetica,sans-Serif" font-size="10.00" fill="#000000">45</text>
</a>
</g>
</g>
<!-- dir_656f7d340c0f5b4ecaf881820f2aea38&#45;&gt;dir_fc0178d6978c9fa2cad6ef3e048a60a7 -->
<g id="edge29" class="edge">
<title>dir_656f7d340c0f5b4ecaf881820f2aea38&#45;&gt;dir_fc0178d6978c9fa2cad6ef3e048a60a7</title>
<path fill="none" stroke="#000000" d="M363.4348,-215.575C354.5943,-205.3921 343.7626,-192.3372 335,-180 320.5337,-159.6324 306.0742,-135.2671 295.7634,-117.0279"/>
<polygon fill="#000000" stroke="#000000" points="298.7075,-115.1215 290.7717,-108.102 292.598,-118.5382 298.7075,-115.1215"/>
<g id="a_edge29&#45;headlabel"><a xlink:href="dir_000034_000105.html" target="_top" xlink:title="15">
<text text-anchor="middle" x="302.9401" y="-114.373" font-family="Helvetica,sans-Serif" font-size="10.00" fill="#000000">15</text>
</a>
</g>
</g>
<!-- dir_656f7d340c0f5b4ecaf881820f2aea38&#45;&gt;dir_5d8dbe7a82c2c188fa06f6391bb290bd -->
<g id="edge30" class="edge">
<title>dir_656f7d340c0f5b4ecaf881820f2aea38&#45;&gt;dir_5d8dbe7a82c2c188fa06f6391bb290bd</title>
<path fill="none" stroke="#000000" d="M394.7918,-252.1451C420.9416,-290.1129 473.7322,-378.1133 497.4419,-422.8447"/>
<polygon fill="#000000" stroke="#000000" points="494.4569,-424.6912 502.1693,-431.9555 500.6703,-421.4672 494.4569,-424.6912"/>
<g id="a_edge30&#45;headlabel"><a xlink:href="dir_000034_000196.html" target="_top" xlink:title="5">
<text text-anchor="middle" x="490.2812" y="-420.3082" font-family="Helvetica,sans-Serif" font-size="10.00" fill="#000000">5</text>
</a>
</g>
</g>
<!-- dir_656f7d340c0f5b4ecaf881820f2aea38&#45;&gt;dir_a36da230f0956f48b11c85f7d599788f -->
<g id="edge31" class="edge">
<title>dir_656f7d340c0f5b4ecaf881820f2aea38&#45;&gt;dir_a36da230f0956f48b11c85f7d599788f</title>
<path fill="none" stroke="#000000" d="M392.4958,-215.8007C403.4803,-197.427 416.3696,-168.361 407,-144 390.2001,-100.3203 349.2567,-64.2651 318.5703,-42.0761"/>
<polygon fill="#000000" stroke="#000000" points="320.4066,-39.0884 310.2158,-36.1905 316.3752,-44.811 320.4066,-39.0884"/>
<g id="a_edge31&#45;headlabel"><a xlink:href="dir_000034_000086.html" target="_top" xlink:title="45">
<text text-anchor="middle" x="324.9804" y="-36.3374" font-family="Helvetica,sans-Serif" font-size="10.00" fill="#000000">45</text>
</a>
</g>
</g>
<!-- dir_656f7d340c0f5b4ecaf881820f2aea38&#45;&gt;dir_d739e095b49d8b72164589d00310017d -->
<g id="edge32" class="edge">
<title>dir_656f7d340c0f5b4ecaf881820f2aea38&#45;&gt;dir_d739e095b49d8b72164589d00310017d</title>
<path fill="none" stroke="#000000" d="M371.0273,-252.2635C361.0266,-271.475 343.5325,-301.9261 323,-324 312.7188,-335.0531 299.9151,-345.3927 287.9146,-354.0062"/>
<polygon fill="#000000" stroke="#000000" points="285.5725,-351.372 279.3658,-359.9585 289.5724,-357.1167 285.5725,-351.372"/>
<g id="a_edge32&#45;headlabel"><a xlink:href="dir_000034_000159.html" target="_top" xlink:title="13">
<text text-anchor="middle" x="286.9001" y="-344.488" font-family="Helvetica,sans-Serif" font-size="10.00" fill="#000000">13</text>
</a>
</g>
</g>
<!-- dir_656f7d340c0f5b4ecaf881820f2aea38&#45;&gt;dir_3f9cb8dbb3b4911cb2ecb548acd672c3 -->
<g id="edge33" class="edge">
<title>dir_656f7d340c0f5b4ecaf881820f2aea38&#45;&gt;dir_3f9cb8dbb3b4911cb2ecb548acd672c3</title>
<path fill="none" stroke="#000000" d="M371.7765,-215.8314C370.0635,-208.131 368.6981,-198.9743 367.937,-190.4166"/>
<polygon fill="#000000" stroke="#000000" points="371.4292,-190.1811 367.3257,-180.4133 364.4423,-190.6082 371.4292,-190.1811"/>
<g id="a_edge33&#45;headlabel"><a xlink:href="dir_000034_000027.html" target="_top" xlink:title="28">
<text text-anchor="middle" x="374.4824" y="-191.0959" font-family="Helvetica,sans-Serif" font-size="10.00" fill="#000000">28</text>
</a>
</g>
</g>
<!-- dir_656f7d340c0f5b4ecaf881820f2aea38&#45;&gt;dir_b7a0e33b407baa23d8a077e33033c988 -->
<g id="edge34" class="edge">
<title>dir_656f7d340c0f5b4ecaf881820f2aea38&#45;&gt;dir_b7a0e33b407baa23d8a077e33033c988</title>
<path fill="none" stroke="#000000" d="M361.9621,-252.1832C350.7319,-261.3725 336.0154,-272.6327 322.4175,-282.4739"/>
<polygon fill="#000000" stroke="#000000" points="320.2411,-279.7273 314.1367,-288.3868 324.3089,-285.4241 320.2411,-279.7273"/>
<g id="a_edge34&#45;headlabel"><a xlink:href="dir_000034_000218.html" target="_top" xlink:title="24">
<text text-anchor="middle" x="321.5165" y="-272.8278" font-family="Helvetica,sans-Serif" font-size="10.00" fill="#000000">24</text>
</a>
</g>
</g>
<!-- dir_b7a0e33b407baa23d8a077e33033c988&#45;&gt;dir_fc0178d6978c9fa2cad6ef3e048a60a7 -->
<g id="edge35" class="edge">
<title>dir_b7a0e33b407baa23d8a077e33033c988&#45;&gt;dir_fc0178d6978c9fa2cad6ef3e048a60a7</title>
<path fill="none" stroke="#000000" d="M284.6658,-287.9555C283.9703,-250.3938 282.3621,-163.5541 281.5261,-118.4103"/>
<polygon fill="#000000" stroke="#000000" points="285.0207,-118.0785 281.336,-108.1451 278.0219,-118.2082 285.0207,-118.0785"/>
<g id="a_edge35&#45;headlabel"><a xlink:href="dir_000218_000105.html" target="_top" xlink:title="27">
<text text-anchor="middle" x="287.9259" y="-119.12" font-family="Helvetica,sans-Serif" font-size="10.00" fill="#000000">27</text>
</a>
</g>
</g>
<!-- dir_b7a0e33b407baa23d8a077e33033c988&#45;&gt;dir_a36da230f0956f48b11c85f7d599788f -->
<g id="edge36" class="edge">
<title>dir_b7a0e33b407baa23d8a077e33033c988&#45;&gt;dir_a36da230f0956f48b11c85f7d599788f</title>
<path fill="none" stroke="#000000" d="M276.2645,-287.7382C258.3994,-247.8618 221.2927,-150.3 245,-72 247.9564,-62.2355 253.3252,-52.6229 259.03,-44.2762"/>
<polygon fill="#000000" stroke="#000000" points="261.9414,-46.2239 265.0095,-36.0831 256.2871,-42.0973 261.9414,-46.2239"/>
<g id="a_edge36&#45;headlabel"><a xlink:href="dir_000218_000086.html" target="_top" xlink:title="548">
<text text-anchor="middle" x="262.1158" y="-48.3013" font-family="Helvetica,sans-Serif" font-size="10.00" fill="#000000">548</text>
</a>
</g>
</g>
<!-- dir_b7a0e33b407baa23d8a077e33033c988&#45;&gt;dir_d739e095b49d8b72164589d00310017d -->
<g id="edge37" class="edge">
<title>dir_b7a0e33b407baa23d8a077e33033c988&#45;&gt;dir_d739e095b49d8b72164589d00310017d</title>
<path fill="none" stroke="#000000" d="M282.0251,-324.4133C278.8735,-332.484 274.3849,-342.1182 269.6958,-350.9775"/>
<polygon fill="#000000" stroke="#000000" points="266.5747,-349.3889 264.7844,-359.8314 272.6959,-352.7845 266.5747,-349.3889"/>
<g id="a_edge37&#45;headlabel"><a xlink:href="dir_000218_000159.html" target="_top" xlink:title="4">
<text text-anchor="middle" x="265.8355" y="-342.3682" font-family="Helvetica,sans-Serif" font-size="10.00" fill="#000000">4</text>
</a>
</g>
</g>
<!-- dir_b7a0e33b407baa23d8a077e33033c988&#45;&gt;dir_3f9cb8dbb3b4911cb2ecb548acd672c3 -->
<g id="edge38" class="edge">
<title>dir_b7a0e33b407baa23d8a077e33033c988&#45;&gt;dir_3f9cb8dbb3b4911cb2ecb548acd672c3</title>
<path fill="none" stroke="#000000" d="M291.2188,-287.7623C303.6964,-262.66 330.5538,-217.3017 349.8253,-188.4671"/>
<polygon fill="#000000" stroke="#000000" points="352.7957,-190.3234 355.5382,-180.0896 347.0125,-186.3795 352.7957,-190.3234"/>
<g id="a_edge38&#45;headlabel"><a xlink:href="dir_000218_000027.html" target="_top" xlink:title="3">
<text text-anchor="middle" x="353.1163" y="-192.3928" font-family="Helvetica,sans-Serif" font-size="10.00" fill="#000000">3</text>
</a>
</g>
</g>
<!-- dir_b7a0e33b407baa23d8a077e33033c988&#45;&gt;dir_656f7d340c0f5b4ecaf881820f2aea38 -->
<g id="edge39" class="edge">
<title>dir_b7a0e33b407baa23d8a077e33033c988&#45;&gt;dir_656f7d340c0f5b4ecaf881820f2aea38</title>
<path fill="none" stroke="#000000" d="M303.0201,-287.8314C314.7399,-278.2407 330.2615,-266.3911 344.3462,-256.2531"/>
<polygon fill="#000000" stroke="#000000" points="346.7519,-258.8378 352.8834,-250.1975 342.702,-253.1283 346.7519,-258.8378"/>
<g id="a_edge39&#45;headlabel"><a xlink:href="dir_000218_000034.html" target="_top" xlink:title="5">
<text text-anchor="middle" x="345.4626" y="-260.7333" font-family="Helvetica,sans-Serif" font-size="10.00" fill="#000000">5</text>
</a>
</g>
</g>
</g>
</svg>
        <g id="navigator" transform="translate(0 0)" fill="#404254">
                <rect fill="#f2f5e9" fill-opacity="0.5" stroke="#606060" stroke-width=".5" x="0" y="0" width="60" height="60"/>
                <use id="zoomplus" xlink:href="#zoomPlus" x="17" y="9" onmousedown="handleZoom(evt,'in')"/>
                <use id="zoomminus" xlink:href="#zoomMin" x="42" y="9" onmousedown="handleZoom(evt,'out')"/>
                <use id="reset" xlink:href="#resetDef" x="30" y="36" onmousedown="handleReset()"/>
                <g id="arrowUp" xlink:href="#dirArrow" transform="translate(30 24)" onmousedown="handlePan(0,-1)">
                  <use xlink:href="#rim" fill="#404040">
                        <set attributeName="fill" to="#808080" begin="arrowUp.mouseover" end="arrowUp.mouseout"/>
                  </use>
                  <path fill="none" stroke="white" stroke-width="1.5" d="M0,-3.0v7 M-2.5,-0.5L0,-3.0L2.5,-0.5"/>
                </g>
                <g id="arrowRight" xlink:href="#dirArrow" transform="rotate(90) translate(36 -43)" onmousedown="handlePan(1,0)">
                  <use xlink:href="#rim" fill="#404040">
                        <set attributeName="fill" to="#808080" begin="arrowRight.mouseover" end="arrowRight.mouseout"/>
                  </use>
                  <path fill="none" stroke="white" stroke-width="1.5" d="M0,-3.0v7 M-2.5,-0.5L0,-3.0L2.5,-0.5"/>
                </g>
                <g id="arrowDown" xlink:href="#dirArrow" transform="rotate(180) translate(-30 -48)" onmousedown="handlePan(0,1)">
                  <use xlink:href="#rim" fill="#404040">
                        <set attributeName="fill" to="#808080" begin="arrowDown.mouseover" end="arrowDown.mouseout"/>
                  </use>
                  <path fill="none" stroke="white" stroke-width="1.5" d="M0,-3.0v7 M-2.5,-0.5L0,-3.0L2.5,-0.5"/>
                </g>
                <g id="arrowLeft" xlink:href="#dirArrow" transform="rotate(270) translate(-36 17)" onmousedown="handlePan(-1,0)">
                  <use xlink:href="#rim" fill="#404040">
                        <set attributeName="fill" to="#808080" begin="arrowLeft.mouseover" end="arrowLeft.mouseout"/>
                  </use>
                  <path fill="none" stroke="white" stroke-width="1.5" d="M0,-3.0v7 M-2.5,-0.5L0,-3.0L2.5,-0.5"/>
                </g>
        </g>
        <svg viewBox="0 0 15 15" width="100%" height="30px" preserveAspectRatio="xMaxYMin meet">
         <g id="arrow_out" transform="scale(0.3 0.3)">
          <a xlink:href="dir_e56f4370c0abfd94d0eb867c3946e12e_dep_org.svg" target="_base">
           <rect id="button" ry="5" rx="5" y="6" x="6" height="38" width="38"
                fill="#f2f5e9" fill-opacity="0.5" stroke="#606060" stroke-width="1.0"/>
           <path id="arrow"
             d="M 11.500037,31.436501 C 11.940474,20.09759 22.043105,11.32322 32.158766,21.979434 L 37.068811,17.246167 C 37.068811,17.246167 37.088388,32 37.088388,32 L 22.160133,31.978069 C 22.160133,31.978069 26.997745,27.140456 26.997745,27.140456 C 18.528582,18.264221 13.291696,25.230495 11.500037,31.436501 z"
             style="fill:#404040;"/>
          </a>
         </g>
        </svg>
</svg>
