<?xml version="1.0" encoding="UTF-8" standalone="no"?>
<!DOCTYPE svg PUBLIC "-//W3C//DTD SVG 1.1//EN"
 "http://www.w3.org/Graphics/SVG/1.1/DTD/svg11.dtd">
<!-- Generated by graphviz version 2.40.1 (20161225.0304)
 -->
<!-- Title: drake/attic/multibody/parsers/test/parsers_frames_test Pages: 1 -->
<svg width="156pt" height="151pt"
 viewBox="0.00 0.00 156.00 151.00" xmlns="http://www.w3.org/2000/svg" xmlns:xlink="http://www.w3.org/1999/xlink">
<g id="graph0" class="graph" transform="scale(1 1) rotate(0) translate(4 147)">
<title>drake/attic/multibody/parsers/test/parsers_frames_test</title>
<polygon fill="#ffffff" stroke="transparent" points="-4,4 -4,-147 152,-147 152,4 -4,4"/>
<g id="clust1" class="cluster">
<title>clusterdir_372182e66f83112fb384e6a264de14c2</title>
<g id="a_clust1"><a xlink:href="dir_372182e66f83112fb384e6a264de14c2.html" target="_top" xlink:title="test">
<polygon fill="#ddddee" stroke="#000000" points="8,-64 8,-135 140,-135 140,-64 8,-64"/>
<text text-anchor="middle" x="74" y="-123" font-family="Helvetica,sans-Serif" font-size="10.00" fill="#000000">test</text>
</a>
</g>
</g>
<!-- dir_8b67696d0facecd5ee3e6433ade9c91e -->
<g id="node1" class="node">
<title>dir_8b67696d0facecd5ee3e6433ade9c91e</title>
<g id="a_node1"><a xlink:href="dir_8b67696d0facecd5ee3e6433ade9c91e.html" target="_top" xlink:title="parsers_frames_test">
<polygon fill="#eeeeff" stroke="#000000" points="132,-108 16,-108 16,-72 132,-72 132,-108"/>
<text text-anchor="middle" x="74" y="-87.5" font-family="Helvetica,sans-Serif" font-size="10.00" fill="#000000">parsers_frames_test</text>
</a>
</g>
</g>
<!-- dir_a36da230f0956f48b11c85f7d599788f -->
<g id="node2" class="node">
<title>dir_a36da230f0956f48b11c85f7d599788f</title>
<g id="a_node2"><a xlink:href="dir_a36da230f0956f48b11c85f7d599788f.html" target="_top" xlink:title="common">
<polygon fill="#ffffff" stroke="#ff0000" points="103.5,-36 44.5,-36 44.5,0 103.5,0 103.5,-36"/>
<text text-anchor="middle" x="74" y="-15.5" font-family="Helvetica,sans-Serif" font-size="10.00" fill="#000000">common</text>
</a>
</g>
</g>
<!-- dir_8b67696d0facecd5ee3e6433ade9c91e&#45;&gt;dir_a36da230f0956f48b11c85f7d599788f -->
<g id="edge1" class="edge">
<title>dir_8b67696d0facecd5ee3e6433ade9c91e&#45;&gt;dir_a36da230f0956f48b11c85f7d599788f</title>
<path fill="none" stroke="#000000" d="M74,-71.8314C74,-64.131 74,-54.9743 74,-46.4166"/>
<polygon fill="#000000" stroke="#000000" points="77.5001,-46.4132 74,-36.4133 70.5001,-46.4133 77.5001,-46.4132"/>
<g id="a_edge1&#45;headlabel"><a xlink:href="dir_000023_000078.html" target="_top" xlink:title="1">
<text text-anchor="middle" x="80.3393" y="-47.5079" font-family="Helvetica,sans-Serif" font-size="10.00" fill="#000000">1</text>
</a>
</g>
</g>
</g>
</svg>
