<?xml version="1.0" encoding="UTF-8" standalone="no"?>
<!DOCTYPE svg PUBLIC "-//W3C//DTD SVG 1.1//EN"
 "http://www.w3.org/Graphics/SVG/1.1/DTD/svg11.dtd">
<!-- Generated by graphviz version 2.40.1 (20161225.0304)
 -->
<!-- Title: drake/geometry/query_results Pages: 1 -->
<svg width="124pt" height="151pt"
 viewBox="0.00 0.00 124.00 151.00" xmlns="http://www.w3.org/2000/svg" xmlns:xlink="http://www.w3.org/1999/xlink">
<g id="graph0" class="graph" transform="scale(1 1) rotate(0) translate(4 147)">
<title>drake/geometry/query_results</title>
<polygon fill="#ffffff" stroke="transparent" points="-4,4 -4,-147 120,-147 120,4 -4,4"/>
<g id="clust1" class="cluster">
<title>clusterdir_d739e095b49d8b72164589d00310017d</title>
<g id="a_clust1"><a xlink:href="dir_d739e095b49d8b72164589d00310017d.html" target="_top" xlink:title="geometry">
<polygon fill="#ddddee" stroke="#000000" points="8,-64 8,-135 108,-135 108,-64 8,-64"/>
<text text-anchor="middle" x="58" y="-123" font-family="Helvetica,sans-Serif" font-size="10.00" fill="#000000">geometry</text>
</a>
</g>
</g>
<!-- dir_3ff34c62de56b2df4097a6c50ce2d7ff -->
<g id="node1" class="node">
<title>dir_3ff34c62de56b2df4097a6c50ce2d7ff</title>
<g id="a_node1"><a xlink:href="dir_3ff34c62de56b2df4097a6c50ce2d7ff.html" target="_top" xlink:title="query_results">
<polygon fill="#eeeeff" stroke="#000000" points="99.5,-108 16.5,-108 16.5,-72 99.5,-72 99.5,-108"/>
<text text-anchor="middle" x="58" y="-87.5" font-family="Helvetica,sans-Serif" font-size="10.00" fill="#000000">query_results</text>
</a>
</g>
</g>
<!-- dir_a36da230f0956f48b11c85f7d599788f -->
<g id="node2" class="node">
<title>dir_a36da230f0956f48b11c85f7d599788f</title>
<g id="a_node2"><a xlink:href="dir_a36da230f0956f48b11c85f7d599788f.html" target="_top" xlink:title="common">
<polygon fill="#ffffff" stroke="#ff0000" points="87.5,-36 28.5,-36 28.5,0 87.5,0 87.5,-36"/>
<text text-anchor="middle" x="58" y="-15.5" font-family="Helvetica,sans-Serif" font-size="10.00" fill="#000000">common</text>
</a>
</g>
</g>
<!-- dir_3ff34c62de56b2df4097a6c50ce2d7ff&#45;&gt;dir_a36da230f0956f48b11c85f7d599788f -->
<g id="edge1" class="edge">
<title>dir_3ff34c62de56b2df4097a6c50ce2d7ff&#45;&gt;dir_a36da230f0956f48b11c85f7d599788f</title>
<path fill="none" stroke="#000000" d="M58,-71.8314C58,-64.131 58,-54.9743 58,-46.4166"/>
<polygon fill="#000000" stroke="#000000" points="61.5001,-46.4132 58,-36.4133 54.5001,-46.4133 61.5001,-46.4132"/>
<g id="a_edge1&#45;headlabel"><a xlink:href="dir_000166_000078.html" target="_top" xlink:title="6">
<text text-anchor="middle" x="64.3393" y="-47.5079" font-family="Helvetica,sans-Serif" font-size="10.00" fill="#000000">6</text>
</a>
</g>
</g>
</g>
</svg>
