<?xml version="1.0" encoding="UTF-8" standalone="no"?>
<!DOCTYPE svg PUBLIC "-//W3C//DTD SVG 1.1//EN"
 "http://www.w3.org/Graphics/SVG/1.1/DTD/svg11.dtd">
<!-- Generated by graphviz version 2.40.1 (20161225.0304)
 -->
<!-- Title: drake/examples/multibody Pages: 1 -->
<svg width="1004pt" height="447pt"
 viewBox="0.00 0.00 1004.00 447.00" xmlns="http://www.w3.org/2000/svg" xmlns:xlink="http://www.w3.org/1999/xlink">
<g id="graph0" class="graph" transform="scale(1 1) rotate(0) translate(4 443)">
<title>drake/examples/multibody</title>
<polygon fill="#ffffff" stroke="transparent" points="-4,4 -4,-443 1000,-443 1000,4 -4,4"/>
<g id="clust1" class="cluster">
<title>clusterdir_bf85a0c13984f214f436b2edc519c6dd</title>
<g id="a_clust1"><a xlink:href="dir_bf85a0c13984f214f436b2edc519c6dd.html" target="_top" xlink:title="examples">
<polygon fill="#ddddee" stroke="#000000" points="112,-344 112,-431 819,-431 819,-344 112,-344"/>
<text text-anchor="middle" x="465.5" y="-419" font-family="Helvetica,sans-Serif" font-size="10.00" fill="#000000">examples</text>
</a>
</g>
</g>
<g id="clust2" class="cluster">
<title>clusterdir_9acdd6771460017440c69ee654743722</title>
<g id="a_clust2"><a xlink:href="dir_9acdd6771460017440c69ee654743722.html" target="_top">
<polygon fill="#eeeeff" stroke="#000000" points="120,-352 120,-404 811,-404 811,-352 120,-352"/>
</a>
</g>
</g>
<!-- dir_9acdd6771460017440c69ee654743722 -->
<g id="node1" class="node">
<title>dir_9acdd6771460017440c69ee654743722</title>
<text text-anchor="middle" x="770" y="-375.5" font-family="Helvetica,sans-Serif" font-size="10.00" fill="#000000">multibody</text>
</g>
<!-- dir_c21d63002f364310b1900007be42046c -->
<g id="node2" class="node">
<title>dir_c21d63002f364310b1900007be42046c</title>
<g id="a_node2"><a xlink:href="dir_c21d63002f364310b1900007be42046c.html" target="_top" xlink:title="acrobot">
<polygon fill="#ffffff" stroke="#000000" points="450,-396 396,-396 396,-360 450,-360 450,-396"/>
<text text-anchor="middle" x="423" y="-375.5" font-family="Helvetica,sans-Serif" font-size="10.00" fill="#000000">acrobot</text>
</a>
</g>
</g>
<!-- dir_39b8b3c6654246a9c12332c930bc7d3f -->
<g id="node8" class="node">
<title>dir_39b8b3c6654246a9c12332c930bc7d3f</title>
<g id="a_node8"><a xlink:href="dir_39b8b3c6654246a9c12332c930bc7d3f.html" target="_top" xlink:title="multibody">
<polygon fill="#ffffff" stroke="#ff0000" points="702,-324 636,-324 636,-288 702,-288 702,-324"/>
<text text-anchor="middle" x="669" y="-303.5" font-family="Helvetica,sans-Serif" font-size="10.00" fill="#000000">multibody</text>
</a>
</g>
</g>
<!-- dir_c21d63002f364310b1900007be42046c&#45;&gt;dir_39b8b3c6654246a9c12332c930bc7d3f -->
<g id="edge26" class="edge">
<title>dir_c21d63002f364310b1900007be42046c&#45;&gt;dir_39b8b3c6654246a9c12332c930bc7d3f</title>
<path fill="none" stroke="#000000" d="M438.7717,-359.8385C444.8344,-353.9225 452.1888,-347.8847 460,-344 488.4808,-329.8355 573.4746,-317.5062 625.8897,-310.9702"/>
<polygon fill="#000000" stroke="#000000" points="626.4122,-314.4324 635.9119,-309.7414 625.5603,-307.4845 626.4122,-314.4324"/>
<g id="a_edge26&#45;headlabel"><a xlink:href="dir_000104_000014.html" target="_top" xlink:title="3">
<text text-anchor="middle" x="623.1898" y="-315.188" font-family="Helvetica,sans-Serif" font-size="10.00" fill="#000000">3</text>
</a>
</g>
</g>
<!-- dir_3c3c25df5132fca4f15a988b4c2efab5 -->
<g id="node10" class="node">
<title>dir_3c3c25df5132fca4f15a988b4c2efab5</title>
<g id="a_node10"><a xlink:href="dir_3c3c25df5132fca4f15a988b4c2efab5.html" target="_top" xlink:title="lcm">
<polygon fill="#ffffff" stroke="#ff0000" points="572,-108 518,-108 518,-72 572,-72 572,-108"/>
<text text-anchor="middle" x="545" y="-87.5" font-family="Helvetica,sans-Serif" font-size="10.00" fill="#000000">lcm</text>
</a>
</g>
</g>
<!-- dir_c21d63002f364310b1900007be42046c&#45;&gt;dir_3c3c25df5132fca4f15a988b4c2efab5 -->
<g id="edge27" class="edge">
<title>dir_c21d63002f364310b1900007be42046c&#45;&gt;dir_3c3c25df5132fca4f15a988b4c2efab5</title>
<path fill="none" stroke="#000000" d="M414.096,-359.6672C400.3955,-328.7321 377.8326,-264.7725 399,-216 420.4747,-166.5196 472.7415,-129.4162 508.5402,-108.7078"/>
<polygon fill="#000000" stroke="#000000" points="510.7082,-111.5041 517.709,-103.5518 507.2771,-105.4026 510.7082,-111.5041"/>
<g id="a_edge27&#45;headlabel"><a xlink:href="dir_000104_000165.html" target="_top" xlink:title="2">
<text text-anchor="middle" x="508.9667" y="-113.2408" font-family="Helvetica,sans-Serif" font-size="10.00" fill="#000000">2</text>
</a>
</g>
</g>
<!-- dir_a36da230f0956f48b11c85f7d599788f -->
<g id="node11" class="node">
<title>dir_a36da230f0956f48b11c85f7d599788f</title>
<g id="a_node11"><a xlink:href="dir_a36da230f0956f48b11c85f7d599788f.html" target="_top" xlink:title="common">
<polygon fill="#ffffff" stroke="#ff0000" points="538.5,-36 479.5,-36 479.5,0 538.5,0 538.5,-36"/>
<text text-anchor="middle" x="509" y="-15.5" font-family="Helvetica,sans-Serif" font-size="10.00" fill="#000000">common</text>
</a>
</g>
</g>
<!-- dir_c21d63002f364310b1900007be42046c&#45;&gt;dir_a36da230f0956f48b11c85f7d599788f -->
<g id="edge28" class="edge">
<title>dir_c21d63002f364310b1900007be42046c&#45;&gt;dir_a36da230f0956f48b11c85f7d599788f</title>
<path fill="none" stroke="#000000" d="M407.5964,-359.801C400.185,-349.8895 392.0464,-337.0153 388,-324 354.4658,-216.1363 354.5053,-163.3102 421,-72 433.2864,-55.1283 452.6012,-42.4331 470.0091,-33.6054"/>
<polygon fill="#000000" stroke="#000000" points="471.9186,-36.5718 479.4272,-29.0971 468.8962,-30.2579 471.9186,-36.5718"/>
<g id="a_edge28&#45;headlabel"><a xlink:href="dir_000104_000076.html" target="_top" xlink:title="5">
<text text-anchor="middle" x="469.9022" y="-38.1847" font-family="Helvetica,sans-Serif" font-size="10.00" fill="#000000">5</text>
</a>
</g>
</g>
<!-- dir_d739e095b49d8b72164589d00310017d -->
<g id="node12" class="node">
<title>dir_d739e095b49d8b72164589d00310017d</title>
<g id="a_node12"><a xlink:href="dir_d739e095b49d8b72164589d00310017d.html" target="_top" xlink:title="geometry">
<polygon fill="#ffffff" stroke="#ff0000" points="472,-252 408,-252 408,-216 472,-216 472,-252"/>
<text text-anchor="middle" x="440" y="-231.5" font-family="Helvetica,sans-Serif" font-size="10.00" fill="#000000">geometry</text>
</a>
</g>
</g>
<!-- dir_c21d63002f364310b1900007be42046c&#45;&gt;dir_d739e095b49d8b72164589d00310017d -->
<g id="edge29" class="edge">
<title>dir_c21d63002f364310b1900007be42046c&#45;&gt;dir_d739e095b49d8b72164589d00310017d</title>
<path fill="none" stroke="#000000" d="M425.1531,-359.7623C428.0527,-335.201 433.2416,-291.2474 436.6526,-262.3541"/>
<polygon fill="#000000" stroke="#000000" points="440.1678,-262.431 437.8644,-252.0896 433.2161,-261.6103 440.1678,-262.431"/>
<g id="a_edge29&#45;headlabel"><a xlink:href="dir_000104_000145.html" target="_top" xlink:title="4">
<text text-anchor="middle" x="442.5661" y="-263.8337" font-family="Helvetica,sans-Serif" font-size="10.00" fill="#000000">4</text>
</a>
</g>
</g>
<!-- dir_b7a0e33b407baa23d8a077e33033c988 -->
<g id="node13" class="node">
<title>dir_b7a0e33b407baa23d8a077e33033c988</title>
<g id="a_node13"><a xlink:href="dir_b7a0e33b407baa23d8a077e33033c988.html" target="_top" xlink:title="systems">
<polygon fill="#ffffff" stroke="#ff0000" points="580,-180 522,-180 522,-144 580,-144 580,-180"/>
<text text-anchor="middle" x="551" y="-159.5" font-family="Helvetica,sans-Serif" font-size="10.00" fill="#000000">systems</text>
</a>
</g>
</g>
<!-- dir_c21d63002f364310b1900007be42046c&#45;&gt;dir_b7a0e33b407baa23d8a077e33033c988 -->
<g id="edge30" class="edge">
<title>dir_c21d63002f364310b1900007be42046c&#45;&gt;dir_b7a0e33b407baa23d8a077e33033c988</title>
<path fill="none" stroke="#000000" d="M433.693,-359.9555C456.1871,-321.9967 508.5036,-233.7127 535.0043,-188.9928"/>
<polygon fill="#000000" stroke="#000000" points="538.1603,-190.5323 540.2474,-180.1451 532.1383,-186.9637 538.1603,-190.5323"/>
<g id="a_edge30&#45;headlabel"><a xlink:href="dir_000104_000217.html" target="_top" xlink:title="11">
<text text-anchor="middle" x="538.7704" y="-192.5722" font-family="Helvetica,sans-Serif" font-size="10.00" fill="#000000">11</text>
</a>
</g>
</g>
<!-- dir_3f04913a7ab8632c0ef2ff721716f56b -->
<g id="node3" class="node">
<title>dir_3f04913a7ab8632c0ef2ff721716f56b</title>
<g id="a_node3"><a xlink:href="dir_3f04913a7ab8632c0ef2ff721716f56b.html" target="_top" xlink:title="bouncing_ball">
<polygon fill="#ffffff" stroke="#000000" points="212,-396 128,-396 128,-360 212,-360 212,-396"/>
<text text-anchor="middle" x="170" y="-375.5" font-family="Helvetica,sans-Serif" font-size="10.00" fill="#000000">bouncing_ball</text>
</a>
</g>
</g>
<!-- dir_fc0178d6978c9fa2cad6ef3e048a60a7 -->
<g id="node9" class="node">
<title>dir_fc0178d6978c9fa2cad6ef3e048a60a7</title>
<g id="a_node9"><a xlink:href="dir_fc0178d6978c9fa2cad6ef3e048a60a7.html" target="_top" xlink:title="math">
<polygon fill="#ffffff" stroke="#ff0000" points="500,-108 446,-108 446,-72 500,-72 500,-108"/>
<text text-anchor="middle" x="473" y="-87.5" font-family="Helvetica,sans-Serif" font-size="10.00" fill="#000000">math</text>
</a>
</g>
</g>
<!-- dir_3f04913a7ab8632c0ef2ff721716f56b&#45;&gt;dir_fc0178d6978c9fa2cad6ef3e048a60a7 -->
<g id="edge13" class="edge">
<title>dir_3f04913a7ab8632c0ef2ff721716f56b&#45;&gt;dir_fc0178d6978c9fa2cad6ef3e048a60a7</title>
<path fill="none" stroke="#000000" d="M127.9514,-368.5692C104.1665,-360.8491 76.3824,-347.2712 62,-324 53.5883,-310.3896 55.6779,-302.698 62,-288 98.7699,-202.5148 131.5427,-187.1342 214,-144 252.1856,-124.0248 373.5448,-104.3202 435.6315,-95.2215"/>
<polygon fill="#000000" stroke="#000000" points="436.3892,-98.6484 445.7842,-93.7509 435.3857,-91.7207 436.3892,-98.6484"/>
<g id="a_edge13&#45;headlabel"><a xlink:href="dir_000136_000093.html" target="_top" xlink:title="1">
<text text-anchor="middle" x="433.2387" y="-99.4735" font-family="Helvetica,sans-Serif" font-size="10.00" fill="#000000">1</text>
</a>
</g>
</g>
<!-- dir_3f04913a7ab8632c0ef2ff721716f56b&#45;&gt;dir_3c3c25df5132fca4f15a988b4c2efab5 -->
<g id="edge14" class="edge">
<title>dir_3f04913a7ab8632c0ef2ff721716f56b&#45;&gt;dir_3c3c25df5132fca4f15a988b4c2efab5</title>
<path fill="none" stroke="#000000" d="M176.7138,-359.9984C184.3002,-341.0057 197.8558,-310.7354 215,-288 272.007,-212.4014 288.8894,-189.3604 372,-144 424.5629,-115.3121 447.7801,-128.7094 508.1451,-107.8509"/>
<polygon fill="#000000" stroke="#000000" points="509.5442,-111.0663 517.7443,-104.3574 507.1502,-104.4884 509.5442,-111.0663"/>
<g id="a_edge14&#45;headlabel"><a xlink:href="dir_000136_000165.html" target="_top" xlink:title="1">
<text text-anchor="middle" x="507.1373" y="-112.4637" font-family="Helvetica,sans-Serif" font-size="10.00" fill="#000000">1</text>
</a>
</g>
</g>
<!-- dir_3f04913a7ab8632c0ef2ff721716f56b&#45;&gt;dir_a36da230f0956f48b11c85f7d599788f -->
<g id="edge15" class="edge">
<title>dir_3f04913a7ab8632c0ef2ff721716f56b&#45;&gt;dir_a36da230f0956f48b11c85f7d599788f</title>
<path fill="none" stroke="#000000" d="M127.9851,-365.6129C103.9408,-356.9238 74.3991,-343.3634 53,-324 18.5793,-292.8539 0,-280.4205 0,-234 0,-234 0,-234 0,-162 0,-64.6082 349.3925,-29.7508 469.227,-20.6596"/>
<polygon fill="#000000" stroke="#000000" points="469.7189,-24.1329 479.4339,-19.9058 469.2033,-17.1519 469.7189,-24.1329"/>
<g id="a_edge15&#45;headlabel"><a xlink:href="dir_000136_000076.html" target="_top" xlink:title="2">
<text text-anchor="middle" x="466.3431" y="-24.7291" font-family="Helvetica,sans-Serif" font-size="10.00" fill="#000000">2</text>
</a>
</g>
</g>
<!-- dir_3f04913a7ab8632c0ef2ff721716f56b&#45;&gt;dir_d739e095b49d8b72164589d00310017d -->
<g id="edge16" class="edge">
<title>dir_3f04913a7ab8632c0ef2ff721716f56b&#45;&gt;dir_d739e095b49d8b72164589d00310017d</title>
<path fill="none" stroke="#000000" d="M195.8162,-359.9012C203.7649,-354.5715 212.6289,-348.8681 221,-344 281.2628,-308.9546 354.0952,-273.7097 398.7222,-252.8763"/>
<polygon fill="#000000" stroke="#000000" points="400.21,-256.0444 407.8023,-248.6547 397.2588,-249.6969 400.21,-256.0444"/>
<g id="a_edge16&#45;headlabel"><a xlink:href="dir_000136_000145.html" target="_top" xlink:title="3">
<text text-anchor="middle" x="398.1475" y="-257.6344" font-family="Helvetica,sans-Serif" font-size="10.00" fill="#000000">3</text>
</a>
</g>
</g>
<!-- dir_3f04913a7ab8632c0ef2ff721716f56b&#45;&gt;dir_b7a0e33b407baa23d8a077e33033c988 -->
<g id="edge17" class="edge">
<title>dir_3f04913a7ab8632c0ef2ff721716f56b&#45;&gt;dir_b7a0e33b407baa23d8a077e33033c988</title>
<path fill="none" stroke="#000000" d="M185.6999,-359.7003C202.4148,-340.7302 230.112,-310.7261 257,-288 300.2156,-251.4735 310.7978,-240.0854 362,-216 411.323,-192.7986 472.6736,-177.5276 511.842,-169.3231"/>
<polygon fill="#000000" stroke="#000000" points="512.6892,-172.7225 521.7867,-167.2923 511.2886,-165.864 512.6892,-172.7225"/>
<g id="a_edge17&#45;headlabel"><a xlink:href="dir_000136_000217.html" target="_top" xlink:title="6">
<text text-anchor="middle" x="509.7353" y="-173.7235" font-family="Helvetica,sans-Serif" font-size="10.00" fill="#000000">6</text>
</a>
</g>
</g>
<!-- dir_bd5117fe6a8e4bc7c5a2296d920848cc -->
<g id="node4" class="node">
<title>dir_bd5117fe6a8e4bc7c5a2296d920848cc</title>
<g id="a_node4"><a xlink:href="dir_bd5117fe6a8e4bc7c5a2296d920848cc.html" target="_top" xlink:title="cart_pole">
<polygon fill="#ffffff" stroke="#ff0000" points="719,-396 657,-396 657,-360 719,-360 719,-396"/>
<text text-anchor="middle" x="688" y="-375.5" font-family="Helvetica,sans-Serif" font-size="10.00" fill="#000000">cart_pole</text>
</a>
</g>
</g>
<!-- dir_bd5117fe6a8e4bc7c5a2296d920848cc&#45;&gt;dir_39b8b3c6654246a9c12332c930bc7d3f -->
<g id="edge41" class="edge">
<title>dir_bd5117fe6a8e4bc7c5a2296d920848cc&#45;&gt;dir_39b8b3c6654246a9c12332c930bc7d3f</title>
<path fill="none" stroke="#000000" d="M683.2055,-359.8314C681.1511,-352.0463 678.704,-342.7729 676.4244,-334.1347"/>
<polygon fill="#000000" stroke="#000000" points="679.7948,-333.1892 673.8591,-324.4133 673.0265,-334.9753 679.7948,-333.1892"/>
<g id="a_edge41&#45;headlabel"><a xlink:href="dir_000138_000014.html" target="_top" xlink:title="2">
<text text-anchor="middle" x="683.4572" y="-333.4404" font-family="Helvetica,sans-Serif" font-size="10.00" fill="#000000">2</text>
</a>
</g>
</g>
<!-- dir_bd5117fe6a8e4bc7c5a2296d920848cc&#45;&gt;dir_3c3c25df5132fca4f15a988b4c2efab5 -->
<g id="edge42" class="edge">
<title>dir_bd5117fe6a8e4bc7c5a2296d920848cc&#45;&gt;dir_3c3c25df5132fca4f15a988b4c2efab5</title>
<path fill="none" stroke="#000000" d="M705.2845,-359.8629C711.8607,-353.9492 719.7655,-347.9066 728,-344 772.4992,-322.8884 805.4717,-361.8397 837,-324 847.242,-311.7077 840.9307,-303.5097 837,-288 816.1796,-205.8481 786.1752,-184.9935 712,-144 670.1287,-120.8595 616.8032,-105.792 581.8218,-97.599"/>
<polygon fill="#000000" stroke="#000000" points="582.5545,-94.1763 572.0274,-95.3725 581.0028,-101.0022 582.5545,-94.1763"/>
<g id="a_edge42&#45;headlabel"><a xlink:href="dir_000138_000165.html" target="_top" xlink:title="1">
<text text-anchor="middle" x="586.689" y="-89.7044" font-family="Helvetica,sans-Serif" font-size="10.00" fill="#000000">1</text>
</a>
</g>
</g>
<!-- dir_bd5117fe6a8e4bc7c5a2296d920848cc&#45;&gt;dir_a36da230f0956f48b11c85f7d599788f -->
<g id="edge43" class="edge">
<title>dir_bd5117fe6a8e4bc7c5a2296d920848cc&#45;&gt;dir_a36da230f0956f48b11c85f7d599788f</title>
<path fill="none" stroke="#000000" d="M704.7273,-359.8529C711.3627,-353.7876 719.4496,-347.6489 728,-344 808.1299,-309.8047 846.3675,-365.4438 923,-324 968.3031,-299.4995 996,-285.5038 996,-234 996,-234 996,-234 996,-162 996,-97.4468 941.3047,-97.4963 882,-72 822.552,-46.442 632.3065,-28.1424 548.8638,-21.1419"/>
<polygon fill="#000000" stroke="#000000" points="549.0166,-17.6426 538.762,-20.306 548.4393,-24.6188 549.0166,-17.6426"/>
<g id="a_edge43&#45;headlabel"><a xlink:href="dir_000138_000076.html" target="_top" xlink:title="6">
<text text-anchor="middle" x="552.8331" y="-12.6094" font-family="Helvetica,sans-Serif" font-size="10.00" fill="#000000">6</text>
</a>
</g>
</g>
<!-- dir_bd5117fe6a8e4bc7c5a2296d920848cc&#45;&gt;dir_d739e095b49d8b72164589d00310017d -->
<g id="edge44" class="edge">
<title>dir_bd5117fe6a8e4bc7c5a2296d920848cc&#45;&gt;dir_d739e095b49d8b72164589d00310017d</title>
<path fill="none" stroke="#000000" d="M668.3317,-359.8078C662.0602,-354.4171 654.9418,-348.7032 648,-344 593.2926,-306.9349 524.671,-272.7901 481.5642,-252.6749"/>
<polygon fill="#000000" stroke="#000000" points="482.7836,-249.3825 472.2385,-248.3564 479.8421,-255.7345 482.7836,-249.3825"/>
<g id="a_edge44&#45;headlabel"><a xlink:href="dir_000138_000145.html" target="_top" xlink:title="2">
<text text-anchor="middle" x="487.2385" y="-245.8165" font-family="Helvetica,sans-Serif" font-size="10.00" fill="#000000">2</text>
</a>
</g>
</g>
<!-- dir_bd5117fe6a8e4bc7c5a2296d920848cc&#45;&gt;dir_b7a0e33b407baa23d8a077e33033c988 -->
<g id="edge45" class="edge">
<title>dir_bd5117fe6a8e4bc7c5a2296d920848cc&#45;&gt;dir_b7a0e33b407baa23d8a077e33033c988</title>
<path fill="none" stroke="#000000" d="M706.1576,-359.7286C714.549,-349.9911 723.6123,-337.2949 728,-324 744.297,-274.6197 722.7632,-249.5096 683,-216 656.1041,-193.334 618.4125,-179.1954 590.188,-171.0996"/>
<polygon fill="#000000" stroke="#000000" points="590.8243,-167.6452 580.2553,-168.3858 588.9793,-174.3977 590.8243,-167.6452"/>
<g id="a_edge45&#45;headlabel"><a xlink:href="dir_000138_000217.html" target="_top" xlink:title="3">
<text text-anchor="middle" x="595.0401" y="-163.3537" font-family="Helvetica,sans-Serif" font-size="10.00" fill="#000000">3</text>
</a>
</g>
</g>
<!-- dir_bf625d68bd1475a25d499b8c243d6bcc -->
<g id="node5" class="node">
<title>dir_bf625d68bd1475a25d499b8c243d6bcc</title>
<g id="a_node5"><a xlink:href="dir_bf625d68bd1475a25d499b8c243d6bcc.html" target="_top" xlink:title="cylinder_with_multicontact">
<polygon fill="#ffffff" stroke="#ff0000" points="378.5,-396 229.5,-396 229.5,-360 378.5,-360 378.5,-396"/>
<text text-anchor="middle" x="304" y="-375.5" font-family="Helvetica,sans-Serif" font-size="10.00" fill="#000000">cylinder_with_multicontact</text>
</a>
</g>
</g>
<!-- dir_bf625d68bd1475a25d499b8c243d6bcc&#45;&gt;dir_3c3c25df5132fca4f15a988b4c2efab5 -->
<g id="edge22" class="edge">
<title>dir_bf625d68bd1475a25d499b8c243d6bcc&#45;&gt;dir_3c3c25df5132fca4f15a988b4c2efab5</title>
<path fill="none" stroke="#000000" d="M305.3353,-359.9253C307.1334,-341.3977 311.1906,-311.984 320,-288 346.6054,-215.5658 355.3705,-190.4368 417,-144 449.7389,-119.3318 466.565,-124.8924 508.6256,-107.8322"/>
<polygon fill="#000000" stroke="#000000" points="510.1769,-110.9756 517.9987,-103.8294 507.4276,-104.5381 510.1769,-110.9756"/>
<g id="a_edge22&#45;headlabel"><a xlink:href="dir_000140_000165.html" target="_top" xlink:title="1">
<text text-anchor="middle" x="507.9862" y="-112.4984" font-family="Helvetica,sans-Serif" font-size="10.00" fill="#000000">1</text>
</a>
</g>
</g>
<!-- dir_bf625d68bd1475a25d499b8c243d6bcc&#45;&gt;dir_a36da230f0956f48b11c85f7d599788f -->
<g id="edge23" class="edge">
<title>dir_bf625d68bd1475a25d499b8c243d6bcc&#45;&gt;dir_a36da230f0956f48b11c85f7d599788f</title>
<path fill="none" stroke="#000000" d="M261.6595,-359.8995C216.684,-337.489 152,-294.7057 152,-234 152,-234 152,-234 152,-162 152,-94.1212 376.7801,-43.2979 469.616,-25.2021"/>
<polygon fill="#000000" stroke="#000000" points="470.3219,-28.6306 479.4815,-23.3058 469.0005,-21.7564 470.3219,-28.6306"/>
<g id="a_edge23&#45;headlabel"><a xlink:href="dir_000140_000076.html" target="_top" xlink:title="4">
<text text-anchor="middle" x="467.3278" y="-29.5973" font-family="Helvetica,sans-Serif" font-size="10.00" fill="#000000">4</text>
</a>
</g>
</g>
<!-- dir_bf625d68bd1475a25d499b8c243d6bcc&#45;&gt;dir_d739e095b49d8b72164589d00310017d -->
<g id="edge24" class="edge">
<title>dir_bf625d68bd1475a25d499b8c243d6bcc&#45;&gt;dir_d739e095b49d8b72164589d00310017d</title>
<path fill="none" stroke="#000000" d="M321.2245,-359.7623C345.1366,-334.4436 388.5106,-288.5182 415.7041,-259.7251"/>
<polygon fill="#000000" stroke="#000000" points="418.5937,-261.763 422.9154,-252.0896 413.5045,-256.9566 418.5937,-261.763"/>
<g id="a_edge24&#45;headlabel"><a xlink:href="dir_000140_000145.html" target="_top" xlink:title="3">
<text text-anchor="middle" x="418.1897" y="-263.8258" font-family="Helvetica,sans-Serif" font-size="10.00" fill="#000000">3</text>
</a>
</g>
</g>
<!-- dir_bf625d68bd1475a25d499b8c243d6bcc&#45;&gt;dir_b7a0e33b407baa23d8a077e33033c988 -->
<g id="edge25" class="edge">
<title>dir_bf625d68bd1475a25d499b8c243d6bcc&#45;&gt;dir_b7a0e33b407baa23d8a077e33033c988</title>
<path fill="none" stroke="#000000" d="M309.5861,-359.9032C320.8756,-326.3669 349.6261,-254.4837 399,-216 432.1848,-190.1346 478.7712,-176.0299 511.5995,-168.7904"/>
<polygon fill="#000000" stroke="#000000" points="512.6657,-172.1434 521.7401,-166.6749 511.2361,-165.2909 512.6657,-172.1434"/>
<g id="a_edge25&#45;headlabel"><a xlink:href="dir_000140_000217.html" target="_top" xlink:title="3">
<text text-anchor="middle" x="509.7266" y="-173.1569" font-family="Helvetica,sans-Serif" font-size="10.00" fill="#000000">3</text>
</a>
</g>
</g>
<!-- dir_0487fffc7ab16493dba1c9b2f071b60c -->
<g id="node6" class="node">
<title>dir_0487fffc7ab16493dba1c9b2f071b60c</title>
<g id="a_node6"><a xlink:href="dir_0487fffc7ab16493dba1c9b2f071b60c.html" target="_top" xlink:title="inclined_plane">
<polygon fill="#ffffff" stroke="#000000" points="638.5,-396 551.5,-396 551.5,-360 638.5,-360 638.5,-396"/>
<text text-anchor="middle" x="595" y="-375.5" font-family="Helvetica,sans-Serif" font-size="10.00" fill="#000000">inclined_plane</text>
</a>
</g>
</g>
<!-- dir_0487fffc7ab16493dba1c9b2f071b60c&#45;&gt;dir_39b8b3c6654246a9c12332c930bc7d3f -->
<g id="edge36" class="edge">
<title>dir_0487fffc7ab16493dba1c9b2f071b60c&#45;&gt;dir_39b8b3c6654246a9c12332c930bc7d3f</title>
<path fill="none" stroke="#000000" d="M613.6733,-359.8314C622.5249,-351.219 633.2486,-340.7851 642.8895,-331.4048"/>
<polygon fill="#000000" stroke="#000000" points="645.6061,-333.645 650.3326,-324.1628 640.7246,-328.6279 645.6061,-333.645"/>
<g id="a_edge36&#45;headlabel"><a xlink:href="dir_000142_000014.html" target="_top" xlink:title="1">
<text text-anchor="middle" x="645.0098" y="-335.6866" font-family="Helvetica,sans-Serif" font-size="10.00" fill="#000000">1</text>
</a>
</g>
</g>
<!-- dir_0487fffc7ab16493dba1c9b2f071b60c&#45;&gt;dir_3c3c25df5132fca4f15a988b4c2efab5 -->
<g id="edge37" class="edge">
<title>dir_0487fffc7ab16493dba1c9b2f071b60c&#45;&gt;dir_3c3c25df5132fca4f15a988b4c2efab5</title>
<path fill="none" stroke="#000000" d="M618.0631,-359.9636C626.9523,-353.9103 637.4992,-347.7509 648,-344 684.2374,-331.0561 794.4103,-352.7377 820,-324 830.6403,-312.0508 826.4866,-302.6261 820,-288 774.8341,-186.1591 646.0113,-126.6427 582.0119,-102.5603"/>
<polygon fill="#000000" stroke="#000000" points="582.9133,-99.1627 572.3197,-98.9984 580.4986,-105.7331 582.9133,-99.1627"/>
<g id="a_edge37&#45;headlabel"><a xlink:href="dir_000142_000165.html" target="_top" xlink:title="1">
<text text-anchor="middle" x="587.2667" y="-95.2376" font-family="Helvetica,sans-Serif" font-size="10.00" fill="#000000">1</text>
</a>
</g>
</g>
<!-- dir_0487fffc7ab16493dba1c9b2f071b60c&#45;&gt;dir_a36da230f0956f48b11c85f7d599788f -->
<g id="edge38" class="edge">
<title>dir_0487fffc7ab16493dba1c9b2f071b60c&#45;&gt;dir_a36da230f0956f48b11c85f7d599788f</title>
<path fill="none" stroke="#000000" d="M618.0422,-359.9047C626.9292,-353.845 637.4799,-347.6966 648,-344 785.9274,-295.5348 958,-380.1945 958,-234 958,-234 958,-234 958,-162 958,-76.4508 658.7105,-34.6067 548.8334,-22.1272"/>
<polygon fill="#000000" stroke="#000000" points="549.1338,-18.6391 538.8079,-21.0107 548.359,-25.5961 549.1338,-18.6391"/>
<g id="a_edge38&#45;headlabel"><a xlink:href="dir_000142_000076.html" target="_top" xlink:title="2">
<text text-anchor="middle" x="553.0206" y="-13.7151" font-family="Helvetica,sans-Serif" font-size="10.00" fill="#000000">2</text>
</a>
</g>
</g>
<!-- dir_0487fffc7ab16493dba1c9b2f071b60c&#45;&gt;dir_d739e095b49d8b72164589d00310017d -->
<g id="edge39" class="edge">
<title>dir_0487fffc7ab16493dba1c9b2f071b60c&#45;&gt;dir_d739e095b49d8b72164589d00310017d</title>
<path fill="none" stroke="#000000" d="M575.3691,-359.7623C547.8835,-334.2272 497.8361,-287.7316 466.8996,-258.9906"/>
<polygon fill="#000000" stroke="#000000" points="469.18,-256.3318 459.4715,-252.0896 464.4155,-261.4602 469.18,-256.3318"/>
<g id="a_edge39&#45;headlabel"><a xlink:href="dir_000142_000145.html" target="_top" xlink:title="2">
<text text-anchor="middle" x="473.7459" y="-254.1982" font-family="Helvetica,sans-Serif" font-size="10.00" fill="#000000">2</text>
</a>
</g>
</g>
<!-- dir_0487fffc7ab16493dba1c9b2f071b60c&#45;&gt;dir_b7a0e33b407baa23d8a077e33033c988 -->
<g id="edge40" class="edge">
<title>dir_0487fffc7ab16493dba1c9b2f071b60c&#45;&gt;dir_b7a0e33b407baa23d8a077e33033c988</title>
<path fill="none" stroke="#000000" d="M620.0976,-359.9839C628.6718,-354.3557 638.4999,-348.4596 648,-344 674.5928,-331.5166 693.6523,-347.708 711,-324 720.4483,-311.0876 717.4172,-302.6567 711,-288 687.7629,-234.9269 628.7189,-198.1727 589.228,-178.5912"/>
<polygon fill="#000000" stroke="#000000" points="590.664,-175.3982 580.1357,-174.2133 587.6272,-181.7051 590.664,-175.3982"/>
<g id="a_edge40&#45;headlabel"><a xlink:href="dir_000142_000217.html" target="_top" xlink:title="2">
<text text-anchor="middle" x="595.1345" y="-171.8994" font-family="Helvetica,sans-Serif" font-size="10.00" fill="#000000">2</text>
</a>
</g>
</g>
<!-- dir_35480803e53a9506d1b0636986f49e21 -->
<g id="node7" class="node">
<title>dir_35480803e53a9506d1b0636986f49e21</title>
<g id="a_node7"><a xlink:href="dir_35480803e53a9506d1b0636986f49e21.html" target="_top" xlink:title="pendulum">
<polygon fill="#ffffff" stroke="#000000" points="533.5,-396 468.5,-396 468.5,-360 533.5,-360 533.5,-396"/>
<text text-anchor="middle" x="501" y="-375.5" font-family="Helvetica,sans-Serif" font-size="10.00" fill="#000000">pendulum</text>
</a>
</g>
</g>
<!-- dir_35480803e53a9506d1b0636986f49e21&#45;&gt;dir_39b8b3c6654246a9c12332c930bc7d3f -->
<g id="edge7" class="edge">
<title>dir_35480803e53a9506d1b0636986f49e21&#45;&gt;dir_39b8b3c6654246a9c12332c930bc7d3f</title>
<path fill="none" stroke="#000000" d="M520.3824,-359.6942C527.1434,-354.0468 535.0397,-348.2124 543,-344 569.0029,-330.2398 600.7236,-320.7084 625.8323,-314.6329"/>
<polygon fill="#000000" stroke="#000000" points="626.8533,-317.9889 635.8017,-312.3164 625.269,-311.1706 626.8533,-317.9889"/>
<g id="a_edge7&#45;headlabel"><a xlink:href="dir_000135_000014.html" target="_top" xlink:title="1">
<text text-anchor="middle" x="623.9946" y="-319.068" font-family="Helvetica,sans-Serif" font-size="10.00" fill="#000000">1</text>
</a>
</g>
</g>
<!-- dir_35480803e53a9506d1b0636986f49e21&#45;&gt;dir_3c3c25df5132fca4f15a988b4c2efab5 -->
<g id="edge8" class="edge">
<title>dir_35480803e53a9506d1b0636986f49e21&#45;&gt;dir_3c3c25df5132fca4f15a988b4c2efab5</title>
<path fill="none" stroke="#000000" d="M518.74,-359.9323C525.7262,-353.8756 534.1845,-347.722 543,-344 577.6363,-329.3762 686.0357,-352.1125 711,-324 775.2537,-251.6433 646.3805,-154.3431 580.5016,-111.6302"/>
<polygon fill="#000000" stroke="#000000" points="582.3426,-108.6531 572.0322,-106.2144 578.5714,-114.5504 582.3426,-108.6531"/>
<g id="a_edge8&#45;headlabel"><a xlink:href="dir_000135_000165.html" target="_top" xlink:title="1">
<text text-anchor="middle" x="586.9005" y="-105.6976" font-family="Helvetica,sans-Serif" font-size="10.00" fill="#000000">1</text>
</a>
</g>
</g>
<!-- dir_35480803e53a9506d1b0636986f49e21&#45;&gt;dir_a36da230f0956f48b11c85f7d599788f -->
<g id="edge9" class="edge">
<title>dir_35480803e53a9506d1b0636986f49e21&#45;&gt;dir_a36da230f0956f48b11c85f7d599788f</title>
<path fill="none" stroke="#000000" d="M518.7127,-359.867C525.696,-353.8033 534.1593,-347.6619 543,-344 582.2238,-327.753 704.5942,-355.5528 733,-324 796.6705,-253.2756 899.3668,-339.6715 624,-72 602.8709,-51.4613 572.4765,-37.6532 548.2411,-29.1442"/>
<polygon fill="#000000" stroke="#000000" points="549.2087,-25.7773 538.6149,-25.9251 546.9887,-32.4159 549.2087,-25.7773"/>
<g id="a_edge9&#45;headlabel"><a xlink:href="dir_000135_000076.html" target="_top" xlink:title="1">
<text text-anchor="middle" x="553.5182" y="-21.7245" font-family="Helvetica,sans-Serif" font-size="10.00" fill="#000000">1</text>
</a>
</g>
</g>
<!-- dir_35480803e53a9506d1b0636986f49e21&#45;&gt;dir_d739e095b49d8b72164589d00310017d -->
<g id="edge10" class="edge">
<title>dir_35480803e53a9506d1b0636986f49e21&#45;&gt;dir_d739e095b49d8b72164589d00310017d</title>
<path fill="none" stroke="#000000" d="M493.2743,-359.7623C482.7782,-334.9846 463.9219,-290.4714 451.6891,-261.5939"/>
<polygon fill="#000000" stroke="#000000" points="454.7864,-259.9323 447.663,-252.0896 448.3408,-262.6628 454.7864,-259.9323"/>
<g id="a_edge10&#45;headlabel"><a xlink:href="dir_000135_000145.html" target="_top" xlink:title="2">
<text text-anchor="middle" x="458.8028" y="-259.6347" font-family="Helvetica,sans-Serif" font-size="10.00" fill="#000000">2</text>
</a>
</g>
</g>
<!-- dir_35480803e53a9506d1b0636986f49e21&#45;&gt;dir_b7a0e33b407baa23d8a077e33033c988 -->
<g id="edge11" class="edge">
<title>dir_35480803e53a9506d1b0636986f49e21&#45;&gt;dir_b7a0e33b407baa23d8a077e33033c988</title>
<path fill="none" stroke="#000000" d="M505.177,-359.9555C513.8902,-322.3144 534.0586,-235.1867 544.4897,-190.1246"/>
<polygon fill="#000000" stroke="#000000" points="547.9543,-190.6768 546.7998,-180.1451 541.1347,-189.0981 547.9543,-190.6768"/>
<g id="a_edge11&#45;headlabel"><a xlink:href="dir_000135_000217.html" target="_top" xlink:title="6">
<text text-anchor="middle" x="549.9099" y="-192.3191" font-family="Helvetica,sans-Serif" font-size="10.00" fill="#000000">6</text>
</a>
</g>
</g>
<!-- dir_39b8b3c6654246a9c12332c930bc7d3f&#45;&gt;dir_fc0178d6978c9fa2cad6ef3e048a60a7 -->
<g id="edge1" class="edge">
<title>dir_39b8b3c6654246a9c12332c930bc7d3f&#45;&gt;dir_fc0178d6978c9fa2cad6ef3e048a60a7</title>
<path fill="none" stroke="#000000" d="M664.9048,-287.8956C656.4713,-254.6679 634.0588,-183.7234 589,-144 561.9237,-120.1298 546.6028,-123.934 509.4441,-107.9362"/>
<polygon fill="#000000" stroke="#000000" points="510.6215,-104.627 500.0688,-103.6824 507.7291,-111.0016 510.6215,-104.627"/>
<g id="a_edge1&#45;headlabel"><a xlink:href="dir_000014_000093.html" target="_top" xlink:title="81">
<text text-anchor="middle" x="515.068" y="-101.0267" font-family="Helvetica,sans-Serif" font-size="10.00" fill="#000000">81</text>
</a>
</g>
</g>
<!-- dir_39b8b3c6654246a9c12332c930bc7d3f&#45;&gt;dir_a36da230f0956f48b11c85f7d599788f -->
<g id="edge2" class="edge">
<title>dir_39b8b3c6654246a9c12332c930bc7d3f&#45;&gt;dir_a36da230f0956f48b11c85f7d599788f</title>
<path fill="none" stroke="#000000" d="M669.1237,-287.7737C668.8448,-269.3789 667.2931,-240.2968 661,-216 643.4394,-148.2009 643.1449,-124.6852 597,-72 583.5475,-56.6408 564.6442,-44.2588 547.8042,-35.2455"/>
<polygon fill="#000000" stroke="#000000" points="549.2046,-32.0305 538.7085,-30.5872 546.0136,-38.2609 549.2046,-32.0305"/>
<g id="a_edge2&#45;headlabel"><a xlink:href="dir_000014_000076.html" target="_top" xlink:title="306">
<text text-anchor="middle" x="553.6983" y="-28.6419" font-family="Helvetica,sans-Serif" font-size="10.00" fill="#000000">306</text>
</a>
</g>
</g>
<!-- dir_39b8b3c6654246a9c12332c930bc7d3f&#45;&gt;dir_d739e095b49d8b72164589d00310017d -->
<g id="edge3" class="edge">
<title>dir_39b8b3c6654246a9c12332c930bc7d3f&#45;&gt;dir_d739e095b49d8b72164589d00310017d</title>
<path fill="none" stroke="#000000" d="M635.9926,-292.991C631.3158,-291.2554 626.5509,-289.544 622,-288 574.4991,-271.8841 519.1528,-255.8449 482.0773,-245.4869"/>
<polygon fill="#000000" stroke="#000000" points="482.6984,-242.0269 472.1263,-242.7208 480.8236,-248.7712 482.6984,-242.0269"/>
<g id="a_edge3&#45;headlabel"><a xlink:href="dir_000014_000145.html" target="_top" xlink:title="32">
<text text-anchor="middle" x="486.9221" y="-237.754" font-family="Helvetica,sans-Serif" font-size="10.00" fill="#000000">32</text>
</a>
</g>
</g>
<!-- dir_39b8b3c6654246a9c12332c930bc7d3f&#45;&gt;dir_b7a0e33b407baa23d8a077e33033c988 -->
<g id="edge4" class="edge">
<title>dir_39b8b3c6654246a9c12332c930bc7d3f&#45;&gt;dir_b7a0e33b407baa23d8a077e33033c988</title>
<path fill="none" stroke="#000000" d="M649.382,-287.7623C626.2982,-262.66 588.8979,-217.3017 567.3203,-188.4671"/>
<polygon fill="#000000" stroke="#000000" points="569.9067,-186.076 561.1651,-180.0896 564.2656,-190.2207 569.9067,-186.076"/>
<g id="a_edge4&#45;headlabel"><a xlink:href="dir_000014_000217.html" target="_top" xlink:title="72">
<text text-anchor="middle" x="574.3231" y="-184.7917" font-family="Helvetica,sans-Serif" font-size="10.00" fill="#000000">72</text>
</a>
</g>
</g>
<!-- dir_fc0178d6978c9fa2cad6ef3e048a60a7&#45;&gt;dir_a36da230f0956f48b11c85f7d599788f -->
<g id="edge5" class="edge">
<title>dir_fc0178d6978c9fa2cad6ef3e048a60a7&#45;&gt;dir_a36da230f0956f48b11c85f7d599788f</title>
<path fill="none" stroke="#000000" d="M476.1319,-71.8314C479.368,-63.7925 483.9746,-54.1666 488.7828,-45.2918"/>
<polygon fill="#000000" stroke="#000000" points="491.9292,-46.8385 493.8174,-36.4133 485.8401,-43.3856 491.9292,-46.8385"/>
<g id="a_edge5&#45;headlabel"><a xlink:href="dir_000093_000076.html" target="_top" xlink:title="87">
<text text-anchor="middle" x="492.626" y="-48.8659" font-family="Helvetica,sans-Serif" font-size="10.00" fill="#000000">87</text>
</a>
</g>
</g>
<!-- dir_3c3c25df5132fca4f15a988b4c2efab5&#45;&gt;dir_a36da230f0956f48b11c85f7d599788f -->
<g id="edge6" class="edge">
<title>dir_3c3c25df5132fca4f15a988b4c2efab5&#45;&gt;dir_a36da230f0956f48b11c85f7d599788f</title>
<path fill="none" stroke="#000000" d="M535.9157,-71.8314C531.9385,-63.8771 527.1845,-54.369 522.7861,-45.5723"/>
<polygon fill="#000000" stroke="#000000" points="525.8093,-43.7923 518.2066,-36.4133 519.5483,-46.9228 525.8093,-43.7923"/>
<g id="a_edge6&#45;headlabel"><a xlink:href="dir_000165_000076.html" target="_top" xlink:title="24">
<text text-anchor="middle" x="529.9563" y="-43.2377" font-family="Helvetica,sans-Serif" font-size="10.00" fill="#000000">24</text>
</a>
</g>
</g>
<!-- dir_a36da230f0956f48b11c85f7d599788f&#45;&gt;dir_fc0178d6978c9fa2cad6ef3e048a60a7 -->
<g id="edge12" class="edge">
<title>dir_a36da230f0956f48b11c85f7d599788f&#45;&gt;dir_fc0178d6978c9fa2cad6ef3e048a60a7</title>
<path fill="none" stroke="#000000" d="M505.7694,-36.4133C502.5057,-44.484 497.8833,-54.1182 493.0711,-62.9775"/>
<polygon fill="#000000" stroke="#000000" points="489.9372,-61.4084 488.0367,-71.8314 496.0222,-64.8684 489.9372,-61.4084"/>
<g id="a_edge12&#45;headlabel"><a xlink:href="dir_000076_000093.html" target="_top" xlink:title="4">
<text text-anchor="middle" x="489.2457" y="-54.3802" font-family="Helvetica,sans-Serif" font-size="10.00" fill="#000000">4</text>
</a>
</g>
</g>
<!-- dir_d739e095b49d8b72164589d00310017d&#45;&gt;dir_fc0178d6978c9fa2cad6ef3e048a60a7 -->
<g id="edge18" class="edge">
<title>dir_d739e095b49d8b72164589d00310017d&#45;&gt;dir_fc0178d6978c9fa2cad6ef3e048a60a7</title>
<path fill="none" stroke="#000000" d="M444.1795,-215.7623C449.8329,-191.0928 459.9696,-146.8598 466.5895,-117.9731"/>
<polygon fill="#000000" stroke="#000000" points="470.0322,-118.6188 468.8545,-108.0896 463.2091,-117.0551 470.0322,-118.6188"/>
<g id="a_edge18&#45;headlabel"><a xlink:href="dir_000145_000093.html" target="_top" xlink:title="1">
<text text-anchor="middle" x="471.9968" y="-120.2568" font-family="Helvetica,sans-Serif" font-size="10.00" fill="#000000">1</text>
</a>
</g>
</g>
<!-- dir_d739e095b49d8b72164589d00310017d&#45;&gt;dir_3c3c25df5132fca4f15a988b4c2efab5 -->
<g id="edge19" class="edge">
<title>dir_d739e095b49d8b72164589d00310017d&#45;&gt;dir_3c3c25df5132fca4f15a988b4c2efab5</title>
<path fill="none" stroke="#000000" d="M453.2983,-215.7623C471.6021,-190.66 504.6758,-145.3017 525.7011,-116.4671"/>
<polygon fill="#000000" stroke="#000000" points="528.7459,-118.2318 531.8097,-108.0896 523.0899,-114.1076 528.7459,-118.2318"/>
<g id="a_edge19&#45;headlabel"><a xlink:href="dir_000145_000165.html" target="_top" xlink:title="2">
<text text-anchor="middle" x="528.9223" y="-120.3091" font-family="Helvetica,sans-Serif" font-size="10.00" fill="#000000">2</text>
</a>
</g>
</g>
<!-- dir_d739e095b49d8b72164589d00310017d&#45;&gt;dir_a36da230f0956f48b11c85f7d599788f -->
<g id="edge20" class="edge">
<title>dir_d739e095b49d8b72164589d00310017d&#45;&gt;dir_a36da230f0956f48b11c85f7d599788f</title>
<path fill="none" stroke="#000000" d="M434.4713,-215.7939C426.0536,-184.4963 413.3495,-119.3009 437,-72 444.2798,-57.4404 457.5584,-45.788 470.7478,-37.0878"/>
<polygon fill="#000000" stroke="#000000" points="472.6598,-40.0209 479.3383,-31.796 468.9884,-34.0609 472.6598,-40.0209"/>
<g id="a_edge20&#45;headlabel"><a xlink:href="dir_000145_000076.html" target="_top" xlink:title="74">
<text text-anchor="middle" x="471.0885" y="-41.8235" font-family="Helvetica,sans-Serif" font-size="10.00" fill="#000000">74</text>
</a>
</g>
</g>
<!-- dir_d739e095b49d8b72164589d00310017d&#45;&gt;dir_b7a0e33b407baa23d8a077e33033c988 -->
<g id="edge21" class="edge">
<title>dir_d739e095b49d8b72164589d00310017d&#45;&gt;dir_b7a0e33b407baa23d8a077e33033c988</title>
<path fill="none" stroke="#000000" d="M462.0576,-215.8314C476.7105,-205.6854 496.18,-193.0115 513.2191,-182.5103"/>
<polygon fill="#000000" stroke="#000000" points="515.1494,-185.4328 521.8695,-177.2418 511.5083,-179.4543 515.1494,-185.4328"/>
<g id="a_edge21&#45;headlabel"><a xlink:href="dir_000145_000217.html" target="_top" xlink:title="16">
<text text-anchor="middle" x="513.5563" y="-187.2274" font-family="Helvetica,sans-Serif" font-size="10.00" fill="#000000">16</text>
</a>
</g>
</g>
<!-- dir_b7a0e33b407baa23d8a077e33033c988&#45;&gt;dir_39b8b3c6654246a9c12332c930bc7d3f -->
<g id="edge31" class="edge">
<title>dir_b7a0e33b407baa23d8a077e33033c988&#45;&gt;dir_39b8b3c6654246a9c12332c930bc7d3f</title>
<path fill="none" stroke="#000000" d="M570.4817,-180.0896C593.5091,-205.1119 630.9122,-250.4628 652.552,-279.3623"/>
<polygon fill="#000000" stroke="#000000" points="649.9847,-281.7791 658.7284,-287.7623 655.6243,-277.6324 649.9847,-281.7791"/>
<g id="a_edge31&#45;headlabel"><a xlink:href="dir_000217_000014.html" target="_top" xlink:title="3">
<text text-anchor="middle" x="645.5679" y="-278.065" font-family="Helvetica,sans-Serif" font-size="10.00" fill="#000000">3</text>
</a>
</g>
</g>
<!-- dir_b7a0e33b407baa23d8a077e33033c988&#45;&gt;dir_fc0178d6978c9fa2cad6ef3e048a60a7 -->
<g id="edge32" class="edge">
<title>dir_b7a0e33b407baa23d8a077e33033c988&#45;&gt;dir_fc0178d6978c9fa2cad6ef3e048a60a7</title>
<path fill="none" stroke="#000000" d="M531.3173,-143.8314C521.8949,-135.1337 510.4599,-124.5783 500.2204,-115.1265"/>
<polygon fill="#000000" stroke="#000000" points="502.3984,-112.3738 492.6764,-108.1628 497.6505,-117.5175 502.3984,-112.3738"/>
<g id="a_edge32&#45;headlabel"><a xlink:href="dir_000217_000093.html" target="_top" xlink:title="29">
<text text-anchor="middle" x="506.9656" y="-110.2257" font-family="Helvetica,sans-Serif" font-size="10.00" fill="#000000">29</text>
</a>
</g>
</g>
<!-- dir_b7a0e33b407baa23d8a077e33033c988&#45;&gt;dir_3c3c25df5132fca4f15a988b4c2efab5 -->
<g id="edge33" class="edge">
<title>dir_b7a0e33b407baa23d8a077e33033c988&#45;&gt;dir_3c3c25df5132fca4f15a988b4c2efab5</title>
<path fill="none" stroke="#000000" d="M549.4859,-143.8314C548.8442,-136.131 548.0812,-126.9743 547.3681,-118.4166"/>
<polygon fill="#000000" stroke="#000000" points="550.8529,-118.088 546.5344,-108.4133 543.8771,-118.6694 550.8529,-118.088"/>
<g id="a_edge33&#45;headlabel"><a xlink:href="dir_000217_000165.html" target="_top" xlink:title="19">
<text text-anchor="middle" x="553.9808" y="-118.9345" font-family="Helvetica,sans-Serif" font-size="10.00" fill="#000000">19</text>
</a>
</g>
</g>
<!-- dir_b7a0e33b407baa23d8a077e33033c988&#45;&gt;dir_a36da230f0956f48b11c85f7d599788f -->
<g id="edge34" class="edge">
<title>dir_b7a0e33b407baa23d8a077e33033c988&#45;&gt;dir_a36da230f0956f48b11c85f7d599788f</title>
<path fill="none" stroke="#000000" d="M565.227,-143.8152C577.9357,-125.1999 592.8588,-95.7175 581,-72 573.7202,-57.4404 560.4416,-45.788 547.2522,-37.0878"/>
<polygon fill="#000000" stroke="#000000" points="549.0116,-34.0609 538.6617,-31.796 545.3402,-40.0209 549.0116,-34.0609"/>
<g id="a_edge34&#45;headlabel"><a xlink:href="dir_000217_000076.html" target="_top" xlink:title="555">
<text text-anchor="middle" x="553.5612" y="-31.0288" font-family="Helvetica,sans-Serif" font-size="10.00" fill="#000000">555</text>
</a>
</g>
</g>
<!-- dir_b7a0e33b407baa23d8a077e33033c988&#45;&gt;dir_d739e095b49d8b72164589d00310017d -->
<g id="edge35" class="edge">
<title>dir_b7a0e33b407baa23d8a077e33033c988&#45;&gt;dir_d739e095b49d8b72164589d00310017d</title>
<path fill="none" stroke="#000000" d="M528.8983,-180.1992C515.1506,-189.7168 497.1749,-201.4528 480.9447,-211.5323"/>
<polygon fill="#000000" stroke="#000000" points="478.8345,-208.7208 472.1454,-216.937 482.4982,-214.6855 478.8345,-208.7208"/>
<g id="a_edge35&#45;headlabel"><a xlink:href="dir_000217_000145.html" target="_top" xlink:title="4">
<text text-anchor="middle" x="480.4115" y="-201.9202" font-family="Helvetica,sans-Serif" font-size="10.00" fill="#000000">4</text>
</a>
</g>
</g>
</g>
</svg>
