<?xml version="1.0" encoding="UTF-8" standalone="no"?>
<!DOCTYPE svg PUBLIC "-//W3C//DTD SVG 1.1//EN"
 "http://www.w3.org/Graphics/SVG/1.1/DTD/svg11.dtd">
<!-- Generated by graphviz version 2.40.1 (20161225.0304)
 -->
<!-- Title: drake/systems/framework/test_utilities Pages: 1 -->
<svg width="206pt" height="159pt"
 viewBox="0.00 0.00 206.00 159.00" xmlns="http://www.w3.org/2000/svg" xmlns:xlink="http://www.w3.org/1999/xlink">
<g id="graph0" class="graph" transform="scale(1 1) rotate(0) translate(4 155)">
<title>drake/systems/framework/test_utilities</title>
<polygon fill="#ffffff" stroke="transparent" points="-4,4 -4,-155 202,-155 202,4 -4,4"/>
<g id="clust1" class="cluster">
<title>clusterdir_2186f45272e5c29e3ac18ec762ab7501</title>
<g id="a_clust1"><a xlink:href="dir_2186f45272e5c29e3ac18ec762ab7501.html" target="_top" xlink:title="framework">
<polygon fill="#ddddee" stroke="#000000" points="8,-56 8,-143 190,-143 190,-56 8,-56"/>
<text text-anchor="middle" x="99" y="-131" font-family="Helvetica,sans-Serif" font-size="10.00" fill="#000000">framework</text>
</a>
</g>
</g>
<g id="clust2" class="cluster">
<title>clusterdir_d3895d447a0b4ed0132fd543feb284e9</title>
<g id="a_clust2"><a xlink:href="dir_d3895d447a0b4ed0132fd543feb284e9.html" target="_top">
<polygon fill="#eeeeff" stroke="#000000" points="16,-64 16,-116 182,-116 182,-64 16,-64"/>
</a>
</g>
</g>
<!-- dir_d3895d447a0b4ed0132fd543feb284e9 -->
<g id="node1" class="node">
<title>dir_d3895d447a0b4ed0132fd543feb284e9</title>
<text text-anchor="middle" x="135" y="-87.5" font-family="Helvetica,sans-Serif" font-size="10.00" fill="#000000">test_utilities</text>
</g>
<!-- dir_118593e6a03d655193f458f7223b808e -->
<g id="node2" class="node">
<title>dir_118593e6a03d655193f458f7223b808e</title>
<g id="a_node2"><a xlink:href="dir_118593e6a03d655193f458f7223b808e.html" target="_top" xlink:title="test">
<polygon fill="#ffffff" stroke="#000000" points="78,-108 24,-108 24,-72 78,-72 78,-108"/>
<text text-anchor="middle" x="51" y="-87.5" font-family="Helvetica,sans-Serif" font-size="10.00" fill="#000000">test</text>
</a>
</g>
</g>
<!-- dir_a36da230f0956f48b11c85f7d599788f -->
<g id="node3" class="node">
<title>dir_a36da230f0956f48b11c85f7d599788f</title>
<g id="a_node3"><a xlink:href="dir_a36da230f0956f48b11c85f7d599788f.html" target="_top" xlink:title="common">
<polygon fill="#ffffff" stroke="#ff0000" points="80.5,-36 21.5,-36 21.5,0 80.5,0 80.5,-36"/>
<text text-anchor="middle" x="51" y="-15.5" font-family="Helvetica,sans-Serif" font-size="10.00" fill="#000000">common</text>
</a>
</g>
</g>
<!-- dir_118593e6a03d655193f458f7223b808e&#45;&gt;dir_a36da230f0956f48b11c85f7d599788f -->
<g id="edge1" class="edge">
<title>dir_118593e6a03d655193f458f7223b808e&#45;&gt;dir_a36da230f0956f48b11c85f7d599788f</title>
<path fill="none" stroke="#000000" d="M51,-71.8314C51,-64.131 51,-54.9743 51,-46.4166"/>
<polygon fill="#000000" stroke="#000000" points="54.5001,-46.4132 51,-36.4133 47.5001,-46.4133 54.5001,-46.4132"/>
<g id="a_edge1&#45;headlabel"><a xlink:href="dir_000239_000086.html" target="_top" xlink:title="2">
<text text-anchor="middle" x="57.3393" y="-47.5079" font-family="Helvetica,sans-Serif" font-size="10.00" fill="#000000">2</text>
</a>
</g>
</g>
</g>
</svg>
