<?xml version="1.0" encoding="UTF-8" standalone="no"?>
<!DOCTYPE svg PUBLIC "-//W3C//DTD SVG 1.1//EN"
 "http://www.w3.org/Graphics/SVG/1.1/DTD/svg11.dtd">
<!-- Generated by graphviz version 2.40.1 (20161225.0304)
 -->
<!-- Title: drake/attic/manipulation Pages: 1 -->
<!--zoomable 519 -->
<svg id="main" version="1.1" xmlns="http://www.w3.org/2000/svg" xmlns:xlink="http://www.w3.org/1999/xlink" xml:space="preserve" onload="init(evt)">
<style type="text/css"><![CDATA[
.edge:hover path { stroke: red; }
.edge:hover polygon { stroke: red; fill: red; }
]]></style>
<script type="text/javascript"><![CDATA[
var edges = document.getElementsByTagName('g');
if (edges && edges.length) {
  for (var i=0;i<edges.length;i++) {
    if (edges[i].id.substr(0,4)=='edge') {
      edges[i].setAttribute('class','edge');
    }
  }
}
]]></script>
        <defs>
                <circle id="rim" cx="0" cy="0" r="7"/>
                <circle id="rim2" cx="0" cy="0" r="3.5"/>
                <g id="zoomPlus">
                        <use xlink:href="#rim" fill="#404040">
                                <set attributeName="fill" to="#808080" begin="zoomplus.mouseover" end="zoomplus.mouseout"/>
                        </use>
                        <path d="M-4,0h8M0,-4v8" fill="none" stroke="white" stroke-width="1.5" pointer-events="none"/>
                </g>
                <g id="zoomMin">
                        <use xlink:href="#rim" fill="#404040">
                                <set attributeName="fill" to="#808080" begin="zoomminus.mouseover" end="zoomminus.mouseout"/>
                        </use>
                        <path d="M-4,0h8" fill="none" stroke="white" stroke-width="1.5" pointer-events="none"/>
                </g>
                <g id="dirArrow">
                        <path fill="none" stroke="white" stroke-width="1.5" d="M0,-3.0v7 M-2.5,-0.5L0,-3.0L2.5,-0.5"/>
                </g>
               <g id="resetDef">
                       <use xlink:href="#rim2" fill="#404040">
                               <set attributeName="fill" to="#808080" begin="reset.mouseover" end="reset.mouseout"/>
                       </use>
               </g>
        </defs>

<script type="text/javascript">
var viewWidth = 661;
var viewHeight = 519;
var sectionId = 'dynsection-0';
</script>
<script xlink:href="svgpan.js"/>
<svg id="graph" class="graph">
<g id="viewport">
<title>drake/attic/manipulation</title>
<polygon fill="#ffffff" stroke="transparent" points="-4,4 -4,-515 656.8191,-515 656.8191,4 -4,4"/>
<g id="clust1" class="cluster">
<title>clusterdir_7b0f1d1b5935d57846a5aa36293b3fcc</title>
<g id="a_clust1"><a xlink:href="dir_7b0f1d1b5935d57846a5aa36293b3fcc.html" target="_top" xlink:title="attic">
<polygon fill="#ddddee" stroke="#000000" points="67.0355,-416 67.0355,-503 591.0355,-503 591.0355,-416 67.0355,-416"/>
<text text-anchor="middle" x="329.0355" y="-491" font-family="Helvetica,sans-Serif" font-size="10.00" fill="#000000">attic</text>
</a>
</g>
</g>
<g id="clust2" class="cluster">
<title>clusterdir_f9d44be25dcd657c988860e50ecf11af</title>
<g id="a_clust2"><a xlink:href="dir_f9d44be25dcd657c988860e50ecf11af.html" target="_top">
<polygon fill="#eeeeff" stroke="#000000" points="75.0355,-424 75.0355,-476 583.0355,-476 583.0355,-424 75.0355,-424"/>
</a>
</g>
</g>
<!-- dir_f9d44be25dcd657c988860e50ecf11af -->
<g id="node1" class="node">
<title>dir_f9d44be25dcd657c988860e50ecf11af</title>
<text text-anchor="middle" x="534.0355" y="-447.5" font-family="Helvetica,sans-Serif" font-size="10.00" fill="#000000">manipulation</text>
</g>
<!-- dir_681e38866efe10abfbdfc3dc9962394b -->
<g id="node2" class="node">
<title>dir_681e38866efe10abfbdfc3dc9962394b</title>
<g id="a_node2"><a xlink:href="dir_681e38866efe10abfbdfc3dc9962394b.html" target="_top" xlink:title="models">
<polygon fill="#ffffff" stroke="#ff0000" points="137.0355,-468 83.0355,-468 83.0355,-432 137.0355,-432 137.0355,-468"/>
<text text-anchor="middle" x="110.0355" y="-447.5" font-family="Helvetica,sans-Serif" font-size="10.00" fill="#000000">models</text>
</a>
</g>
</g>
<!-- dir_a36da230f0956f48b11c85f7d599788f -->
<g id="node10" class="node">
<title>dir_a36da230f0956f48b11c85f7d599788f</title>
<g id="a_node10"><a xlink:href="dir_a36da230f0956f48b11c85f7d599788f.html" target="_top" xlink:title="common">
<polygon fill="#ffffff" stroke="#ff0000" points="415.5355,-108 356.5355,-108 356.5355,-72 415.5355,-72 415.5355,-108"/>
<text text-anchor="middle" x="386.0355" y="-87.5" font-family="Helvetica,sans-Serif" font-size="10.00" fill="#000000">common</text>
</a>
</g>
</g>
<!-- dir_681e38866efe10abfbdfc3dc9962394b&#45;&gt;dir_a36da230f0956f48b11c85f7d599788f -->
<g id="edge1" class="edge">
<title>dir_681e38866efe10abfbdfc3dc9962394b&#45;&gt;dir_a36da230f0956f48b11c85f7d599788f</title>
<path fill="none" stroke="#000000" d="M82.9006,-439.399C63.7279,-430.56 38.8925,-416.1492 24.0355,-396 -.5326,-362.6805 .0355,-347.3978 .0355,-306 .0355,-306 .0355,-306 .0355,-234 .0355,-174.8638 45.1547,-170.4709 98.0355,-144 141.0881,-122.4488 277.9235,-103.2455 346.3214,-94.7"/>
<polygon fill="#000000" stroke="#000000" points="346.796,-98.1681 356.2919,-93.4693 345.9384,-91.2208 346.796,-98.1681"/>
<g id="a_edge1&#45;headlabel"><a xlink:href="dir_000003_000086.html" target="_top" xlink:title="3">
<text text-anchor="middle" x="343.5762" y="-98.9262" font-family="Helvetica,sans-Serif" font-size="10.00" fill="#000000">3</text>
</a>
</g>
</g>
<!-- dir_31dfe6f12a06957c39995b3bbe3bd368 -->
<g id="node3" class="node">
<title>dir_31dfe6f12a06957c39995b3bbe3bd368</title>
<g id="a_node3"><a xlink:href="dir_31dfe6f12a06957c39995b3bbe3bd368.html" target="_top" xlink:title="planner">
<polygon fill="#ffffff" stroke="#ff0000" points="475.0355,-468 421.0355,-468 421.0355,-432 475.0355,-432 475.0355,-468"/>
<text text-anchor="middle" x="448.0355" y="-447.5" font-family="Helvetica,sans-Serif" font-size="10.00" fill="#000000">planner</text>
</a>
</g>
</g>
<!-- dir_758aa030403a70af025108ac41d12d0d -->
<g id="node9" class="node">
<title>dir_758aa030403a70af025108ac41d12d0d</title>
<g id="a_node9"><a xlink:href="dir_758aa030403a70af025108ac41d12d0d.html" target="_top" xlink:title="manipulation">
<polygon fill="#ffffff" stroke="#ff0000" points="565.5355,-396 484.5355,-396 484.5355,-360 565.5355,-360 565.5355,-396"/>
<text text-anchor="middle" x="525.0355" y="-375.5" font-family="Helvetica,sans-Serif" font-size="10.00" fill="#000000">manipulation</text>
</a>
</g>
</g>
<!-- dir_31dfe6f12a06957c39995b3bbe3bd368&#45;&gt;dir_758aa030403a70af025108ac41d12d0d -->
<g id="edge25" class="edge">
<title>dir_31dfe6f12a06957c39995b3bbe3bd368&#45;&gt;dir_758aa030403a70af025108ac41d12d0d</title>
<path fill="none" stroke="#000000" d="M467.061,-431.9684C472.5309,-426.8013 478.5112,-421.1686 484.0355,-416 488.4848,-411.8372 493.2177,-407.4308 497.8274,-403.1506"/>
<polygon fill="#000000" stroke="#000000" points="500.444,-405.4975 505.3972,-396.1318 495.6846,-400.3644 500.444,-405.4975"/>
<g id="a_edge25&#45;headlabel"><a xlink:href="dir_000013_000005.html" target="_top" xlink:title="1">
<text text-anchor="middle" x="499.7386" y="-407.5235" font-family="Helvetica,sans-Serif" font-size="10.00" fill="#000000">1</text>
</a>
</g>
</g>
<!-- dir_31dfe6f12a06957c39995b3bbe3bd368&#45;&gt;dir_a36da230f0956f48b11c85f7d599788f -->
<g id="edge26" class="edge">
<title>dir_31dfe6f12a06957c39995b3bbe3bd368&#45;&gt;dir_a36da230f0956f48b11c85f7d599788f</title>
<path fill="none" stroke="#000000" d="M463.2133,-431.6542C469.0963,-425.7209 476.2849,-419.7193 484.0355,-416 542.2896,-388.0452 579.6332,-438.8045 628.0355,-396 659.0464,-368.5756 652.0355,-347.3978 652.0355,-306 652.0355,-306 652.0355,-306 652.0355,-234 652.0355,-132.5202 500.4621,-102.1932 426.1509,-93.4229"/>
<polygon fill="#000000" stroke="#000000" points="426.0981,-89.8959 415.7748,-92.2794 425.3312,-96.8538 426.0981,-89.8959"/>
<g id="a_edge26&#45;headlabel"><a xlink:href="dir_000013_000086.html" target="_top" xlink:title="8">
<text text-anchor="middle" x="429.982" y="-84.9674" font-family="Helvetica,sans-Serif" font-size="10.00" fill="#000000">8</text>
</a>
</g>
</g>
<!-- dir_b7a0e33b407baa23d8a077e33033c988 -->
<g id="node12" class="node">
<title>dir_b7a0e33b407baa23d8a077e33033c988</title>
<g id="a_node12"><a xlink:href="dir_b7a0e33b407baa23d8a077e33033c988.html" target="_top" xlink:title="systems">
<polygon fill="#ffffff" stroke="#ff0000" points="396.0355,-324 338.0355,-324 338.0355,-288 396.0355,-288 396.0355,-324"/>
<text text-anchor="middle" x="367.0355" y="-303.5" font-family="Helvetica,sans-Serif" font-size="10.00" fill="#000000">systems</text>
</a>
</g>
</g>
<!-- dir_31dfe6f12a06957c39995b3bbe3bd368&#45;&gt;dir_b7a0e33b407baa23d8a077e33033c988 -->
<g id="edge27" class="edge">
<title>dir_31dfe6f12a06957c39995b3bbe3bd368&#45;&gt;dir_b7a0e33b407baa23d8a077e33033c988</title>
<path fill="none" stroke="#000000" d="M437.7768,-431.7623C423.7176,-406.7682 398.3625,-361.6924 382.1335,-332.8409"/>
<polygon fill="#000000" stroke="#000000" points="385.1641,-331.0895 377.2109,-324.0896 379.0631,-334.5213 385.1641,-331.0895"/>
<g id="a_edge27&#45;headlabel"><a xlink:href="dir_000013_000216.html" target="_top" xlink:title="3">
<text text-anchor="middle" x="389.401" y="-330.3305" font-family="Helvetica,sans-Serif" font-size="10.00" fill="#000000">3</text>
</a>
</g>
</g>
<!-- dir_4df881f44623118bc2feb9306feab623 -->
<g id="node4" class="node">
<title>dir_4df881f44623118bc2feb9306feab623</title>
<g id="a_node4"><a xlink:href="dir_4df881f44623118bc2feb9306feab623.html" target="_top" xlink:title="scene_generation">
<polygon fill="#ffffff" stroke="#ff0000" points="258.5355,-468 155.5355,-468 155.5355,-432 258.5355,-432 258.5355,-468"/>
<text text-anchor="middle" x="207.0355" y="-447.5" font-family="Helvetica,sans-Serif" font-size="10.00" fill="#000000">scene_generation</text>
</a>
</g>
</g>
<!-- dir_fc0178d6978c9fa2cad6ef3e048a60a7 -->
<g id="node7" class="node">
<title>dir_fc0178d6978c9fa2cad6ef3e048a60a7</title>
<g id="a_node7"><a xlink:href="dir_fc0178d6978c9fa2cad6ef3e048a60a7.html" target="_top" xlink:title="math">
<polygon fill="#ffffff" stroke="#ff0000" points="527.0355,-36 473.0355,-36 473.0355,0 527.0355,0 527.0355,-36"/>
<text text-anchor="middle" x="500.0355" y="-15.5" font-family="Helvetica,sans-Serif" font-size="10.00" fill="#000000">math</text>
</a>
</g>
</g>
<!-- dir_4df881f44623118bc2feb9306feab623&#45;&gt;dir_fc0178d6978c9fa2cad6ef3e048a60a7 -->
<g id="edge8" class="edge">
<title>dir_4df881f44623118bc2feb9306feab623&#45;&gt;dir_fc0178d6978c9fa2cad6ef3e048a60a7</title>
<path fill="none" stroke="#000000" d="M176.7936,-431.9379C167.1278,-426.4936 156.2771,-420.7168 146.0355,-416 122.7892,-405.2938 111.7327,-412.3411 92.0355,-396 56.1343,-366.2157 38.0355,-352.6476 38.0355,-306 38.0355,-306 38.0355,-306 38.0355,-162 38.0355,-73.1846 353.1686,-32.8507 462.8997,-21.4983"/>
<polygon fill="#000000" stroke="#000000" points="463.2637,-24.9795 472.8601,-20.4896 462.5583,-18.0151 463.2637,-24.9795"/>
<g id="a_edge8&#45;headlabel"><a xlink:href="dir_000015_000103.html" target="_top" xlink:title="1">
<text text-anchor="middle" x="459.9735" y="-25.6664" font-family="Helvetica,sans-Serif" font-size="10.00" fill="#000000">1</text>
</a>
</g>
</g>
<!-- dir_3c3c25df5132fca4f15a988b4c2efab5 -->
<g id="node8" class="node">
<title>dir_3c3c25df5132fca4f15a988b4c2efab5</title>
<g id="a_node8"><a xlink:href="dir_3c3c25df5132fca4f15a988b4c2efab5.html" target="_top" xlink:title="lcm">
<polygon fill="#ffffff" stroke="#ff0000" points="274.0355,-180 220.0355,-180 220.0355,-144 274.0355,-144 274.0355,-180"/>
<text text-anchor="middle" x="247.0355" y="-159.5" font-family="Helvetica,sans-Serif" font-size="10.00" fill="#000000">lcm</text>
</a>
</g>
</g>
<!-- dir_4df881f44623118bc2feb9306feab623&#45;&gt;dir_3c3c25df5132fca4f15a988b4c2efab5 -->
<g id="edge9" class="edge">
<title>dir_4df881f44623118bc2feb9306feab623&#45;&gt;dir_3c3c25df5132fca4f15a988b4c2efab5</title>
<path fill="none" stroke="#000000" d="M172.094,-431.7767C158.8848,-422.9077 145.2978,-410.9055 138.0355,-396 131.0275,-381.6164 135.9772,-375.867 138.0355,-360 146.5507,-294.3591 139.2486,-271.0269 176.0355,-216 184.9867,-202.6106 198.3828,-191.1879 211.1351,-182.3439"/>
<polygon fill="#000000" stroke="#000000" points="213.3703,-185.0627 219.7981,-176.6405 209.5211,-179.216 213.3703,-185.0627"/>
<g id="a_edge9&#45;headlabel"><a xlink:href="dir_000015_000177.html" target="_top" xlink:title="3">
<text text-anchor="middle" x="211.9292" y="-186.9108" font-family="Helvetica,sans-Serif" font-size="10.00" fill="#000000">3</text>
</a>
</g>
</g>
<!-- dir_4df881f44623118bc2feb9306feab623&#45;&gt;dir_a36da230f0956f48b11c85f7d599788f -->
<g id="edge10" class="edge">
<title>dir_4df881f44623118bc2feb9306feab623&#45;&gt;dir_a36da230f0956f48b11c85f7d599788f</title>
<path fill="none" stroke="#000000" d="M172.9588,-431.8248C134.1441,-408.3662 76.0355,-363.6241 76.0355,-306 76.0355,-306 76.0355,-306 76.0355,-234 76.0355,-176.4809 118.7367,-171.9011 169.0355,-144 225.8856,-112.4648 301.2114,-99.0801 346.5171,-93.5937"/>
<polygon fill="#000000" stroke="#000000" points="346.9963,-97.0618 356.535,-92.4505 346.2026,-90.1069 346.9963,-97.0618"/>
<g id="a_edge10&#45;headlabel"><a xlink:href="dir_000015_000086.html" target="_top" xlink:title="9">
<text text-anchor="middle" x="343.7467" y="-97.7902" font-family="Helvetica,sans-Serif" font-size="10.00" fill="#000000">9</text>
</a>
</g>
</g>
<!-- dir_4df881f44623118bc2feb9306feab623&#45;&gt;dir_b7a0e33b407baa23d8a077e33033c988 -->
<g id="edge11" class="edge">
<title>dir_4df881f44623118bc2feb9306feab623&#45;&gt;dir_b7a0e33b407baa23d8a077e33033c988</title>
<path fill="none" stroke="#000000" d="M227.2996,-431.7623C255.6719,-406.2272 307.3337,-359.7316 339.2682,-330.9906"/>
<polygon fill="#000000" stroke="#000000" points="341.8444,-333.3808 346.9359,-324.0896 337.1616,-328.1778 341.8444,-333.3808"/>
<g id="a_edge11&#45;headlabel"><a xlink:href="dir_000015_000216.html" target="_top" xlink:title="9">
<text text-anchor="middle" x="341.0719" y="-335.3959" font-family="Helvetica,sans-Serif" font-size="10.00" fill="#000000">9</text>
</a>
</g>
</g>
<!-- dir_4452e273e9ecbcc666093545b5a3610a -->
<g id="node5" class="node">
<title>dir_4452e273e9ecbcc666093545b5a3610a</title>
<g id="a_node5"><a xlink:href="dir_4452e273e9ecbcc666093545b5a3610a.html" target="_top" xlink:title="sensors">
<polygon fill="#ffffff" stroke="#000000" points="331.0355,-468 277.0355,-468 277.0355,-432 331.0355,-432 331.0355,-468"/>
<text text-anchor="middle" x="304.0355" y="-447.5" font-family="Helvetica,sans-Serif" font-size="10.00" fill="#000000">sensors</text>
</a>
</g>
</g>
<!-- dir_4452e273e9ecbcc666093545b5a3610a&#45;&gt;dir_3c3c25df5132fca4f15a988b4c2efab5 -->
<g id="edge17" class="edge">
<title>dir_4452e273e9ecbcc666093545b5a3610a&#45;&gt;dir_3c3c25df5132fca4f15a988b4c2efab5</title>
<path fill="none" stroke="#000000" d="M287.0992,-431.9044C281.1524,-426.2709 274.1665,-420.3917 267.0355,-416 245.598,-402.7974 228.3548,-416.7083 214.0355,-396 168.5359,-330.1989 192.3676,-293.0098 214.0355,-216 216.7016,-206.5243 221.5436,-197.067 226.7117,-188.7759"/>
<polygon fill="#000000" stroke="#000000" points="229.7321,-190.5549 232.3603,-180.2912 223.9052,-186.6757 229.7321,-190.5549"/>
<g id="a_edge17&#45;headlabel"><a xlink:href="dir_000017_000177.html" target="_top" xlink:title="1">
<text text-anchor="middle" x="230.1035" y="-192.6205" font-family="Helvetica,sans-Serif" font-size="10.00" fill="#000000">1</text>
</a>
</g>
</g>
<!-- dir_4452e273e9ecbcc666093545b5a3610a&#45;&gt;dir_a36da230f0956f48b11c85f7d599788f -->
<g id="edge18" class="edge">
<title>dir_4452e273e9ecbcc666093545b5a3610a&#45;&gt;dir_a36da230f0956f48b11c85f7d599788f</title>
<path fill="none" stroke="#000000" d="M287.7157,-431.833C281.7094,-426.0594 274.5305,-420.1129 267.0355,-416 236.7918,-399.4036 218.2742,-418.3977 192.0355,-396 158.7428,-367.5809 152.0355,-349.7727 152.0355,-306 152.0355,-306 152.0355,-306 152.0355,-234 152.0355,-143.8953 279.4371,-108.3606 346.2288,-95.9225"/>
<polygon fill="#000000" stroke="#000000" points="347.1636,-99.3114 356.3992,-94.1197 345.9418,-92.4189 347.1636,-99.3114"/>
<g id="a_edge18&#45;headlabel"><a xlink:href="dir_000017_000086.html" target="_top" xlink:title="2">
<text text-anchor="middle" x="344.1197" y="-100.2344" font-family="Helvetica,sans-Serif" font-size="10.00" fill="#000000">2</text>
</a>
</g>
</g>
<!-- dir_4452e273e9ecbcc666093545b5a3610a&#45;&gt;dir_b7a0e33b407baa23d8a077e33033c988 -->
<g id="edge19" class="edge">
<title>dir_4452e273e9ecbcc666093545b5a3610a&#45;&gt;dir_b7a0e33b407baa23d8a077e33033c988</title>
<path fill="none" stroke="#000000" d="M312.0145,-431.7623C322.8547,-406.9846 342.3293,-362.4714 354.9632,-333.5939"/>
<polygon fill="#000000" stroke="#000000" points="358.3196,-334.6541 359.1213,-324.0896 351.9065,-331.8483 358.3196,-334.6541"/>
<g id="a_edge19&#45;headlabel"><a xlink:href="dir_000017_000216.html" target="_top" xlink:title="6">
<text text-anchor="middle" x="359.4801" y="-336.5853" font-family="Helvetica,sans-Serif" font-size="10.00" fill="#000000">6</text>
</a>
</g>
</g>
<!-- dir_5e3017e8b22cd6e7c980c931d420ee58 -->
<g id="node6" class="node">
<title>dir_5e3017e8b22cd6e7c980c931d420ee58</title>
<g id="a_node6"><a xlink:href="dir_5e3017e8b22cd6e7c980c931d420ee58.html" target="_top" xlink:title="util">
<polygon fill="#ffffff" stroke="#ff0000" points="403.0355,-468 349.0355,-468 349.0355,-432 403.0355,-432 403.0355,-468"/>
<text text-anchor="middle" x="376.0355" y="-447.5" font-family="Helvetica,sans-Serif" font-size="10.00" fill="#000000">util</text>
</a>
</g>
</g>
<!-- dir_5e3017e8b22cd6e7c980c931d420ee58&#45;&gt;dir_fc0178d6978c9fa2cad6ef3e048a60a7 -->
<g id="edge2" class="edge">
<title>dir_5e3017e8b22cd6e7c980c931d420ee58&#45;&gt;dir_fc0178d6978c9fa2cad6ef3e048a60a7</title>
<path fill="none" stroke="#000000" d="M390.8294,-431.9417C396.773,-425.8861 404.1,-419.7307 412.0355,-416 478.088,-384.9472 516.5792,-439.7043 575.0355,-396 609.9503,-369.8963 614.0355,-349.5941 614.0355,-306 614.0355,-306 614.0355,-306 614.0355,-162 614.0355,-110.5591 568.7619,-66.7654 535.2765,-41.4096"/>
<polygon fill="#000000" stroke="#000000" points="537.183,-38.4672 527.0519,-35.367 533.0384,-44.1084 537.183,-38.4672"/>
<g id="a_edge2&#45;headlabel"><a xlink:href="dir_000018_000103.html" target="_top" xlink:title="3">
<text text-anchor="middle" x="541.7609" y="-35.8074" font-family="Helvetica,sans-Serif" font-size="10.00" fill="#000000">3</text>
</a>
</g>
</g>
<!-- dir_5e3017e8b22cd6e7c980c931d420ee58&#45;&gt;dir_3c3c25df5132fca4f15a988b4c2efab5 -->
<g id="edge3" class="edge">
<title>dir_5e3017e8b22cd6e7c980c931d420ee58&#45;&gt;dir_3c3c25df5132fca4f15a988b4c2efab5</title>
<path fill="none" stroke="#000000" d="M361.2165,-431.5182C353.3307,-421.3187 343.7062,-408.2659 336.0355,-396 297.7745,-334.8182 283.5461,-320.5594 261.0355,-252 254.4686,-231.9995 250.9457,-208.4625 249.0767,-190.4756"/>
<polygon fill="#000000" stroke="#000000" points="252.5448,-189.9692 248.1355,-180.3355 245.5747,-190.6162 252.5448,-189.9692"/>
<g id="a_edge3&#45;headlabel"><a xlink:href="dir_000018_000177.html" target="_top" xlink:title="4">
<text text-anchor="middle" x="255.704" y="-190.7861" font-family="Helvetica,sans-Serif" font-size="10.00" fill="#000000">4</text>
</a>
</g>
</g>
<!-- dir_5e3017e8b22cd6e7c980c931d420ee58&#45;&gt;dir_758aa030403a70af025108ac41d12d0d -->
<g id="edge4" class="edge">
<title>dir_5e3017e8b22cd6e7c980c931d420ee58&#45;&gt;dir_758aa030403a70af025108ac41d12d0d</title>
<path fill="none" stroke="#000000" d="M392.3527,-431.7354C398.128,-426.0906 404.9595,-420.2475 412.0355,-416 431.251,-404.4655 454.4277,-395.8901 474.7768,-389.8342"/>
<polygon fill="#000000" stroke="#000000" points="475.8509,-393.1675 484.5095,-387.0617 473.9332,-386.4353 475.8509,-393.1675"/>
<g id="a_edge4&#45;headlabel"><a xlink:href="dir_000018_000005.html" target="_top" xlink:title="2">
<text text-anchor="middle" x="473.1717" y="-394.3829" font-family="Helvetica,sans-Serif" font-size="10.00" fill="#000000">2</text>
</a>
</g>
</g>
<!-- dir_5e3017e8b22cd6e7c980c931d420ee58&#45;&gt;dir_a36da230f0956f48b11c85f7d599788f -->
<g id="edge5" class="edge">
<title>dir_5e3017e8b22cd6e7c980c931d420ee58&#45;&gt;dir_a36da230f0956f48b11c85f7d599788f</title>
<path fill="none" stroke="#000000" d="M381.5765,-431.8623C388.6781,-407.5792 400.6018,-363.0311 405.0355,-324 413.4504,-249.9214 400.1397,-162.2374 391.8541,-118.2111"/>
<polygon fill="#000000" stroke="#000000" points="395.2611,-117.3946 389.9221,-108.2434 388.389,-118.7267 395.2611,-117.3946"/>
<g id="a_edge5&#45;headlabel"><a xlink:href="dir_000018_000086.html" target="_top" xlink:title="13">
<text text-anchor="middle" x="398.7324" y="-117.8833" font-family="Helvetica,sans-Serif" font-size="10.00" fill="#000000">13</text>
</a>
</g>
</g>
<!-- dir_d739e095b49d8b72164589d00310017d -->
<g id="node11" class="node">
<title>dir_d739e095b49d8b72164589d00310017d</title>
<g id="a_node11"><a xlink:href="dir_d739e095b49d8b72164589d00310017d.html" target="_top" xlink:title="geometry">
<polygon fill="#ffffff" stroke="#ff0000" points="358.0355,-252 294.0355,-252 294.0355,-216 358.0355,-216 358.0355,-252"/>
<text text-anchor="middle" x="326.0355" y="-231.5" font-family="Helvetica,sans-Serif" font-size="10.00" fill="#000000">geometry</text>
</a>
</g>
</g>
<!-- dir_5e3017e8b22cd6e7c980c931d420ee58&#45;&gt;dir_d739e095b49d8b72164589d00310017d -->
<g id="edge6" class="edge">
<title>dir_5e3017e8b22cd6e7c980c931d420ee58&#45;&gt;dir_d739e095b49d8b72164589d00310017d</title>
<path fill="none" stroke="#000000" d="M367.0832,-431.7657C355.7956,-407.7397 336.9141,-363.853 329.0355,-324 324.9992,-303.5828 324.3495,-280.0625 324.6558,-262.1876"/>
<polygon fill="#000000" stroke="#000000" points="328.1562,-262.2184 324.9381,-252.1242 321.159,-262.0221 328.1562,-262.2184"/>
<g id="a_edge6&#45;headlabel"><a xlink:href="dir_000018_000157.html" target="_top" xlink:title="1">
<text text-anchor="middle" x="330.8936" y="-263.3912" font-family="Helvetica,sans-Serif" font-size="10.00" fill="#000000">1</text>
</a>
</g>
</g>
<!-- dir_5e3017e8b22cd6e7c980c931d420ee58&#45;&gt;dir_b7a0e33b407baa23d8a077e33033c988 -->
<g id="edge7" class="edge">
<title>dir_5e3017e8b22cd6e7c980c931d420ee58&#45;&gt;dir_b7a0e33b407baa23d8a077e33033c988</title>
<path fill="none" stroke="#000000" d="M374.8957,-431.7623C373.3606,-407.201 370.6135,-363.2474 368.8076,-334.3541"/>
<polygon fill="#000000" stroke="#000000" points="372.2832,-333.8518 368.1661,-324.0896 365.2968,-334.2885 372.2832,-333.8518"/>
<g id="a_edge7&#45;headlabel"><a xlink:href="dir_000018_000216.html" target="_top" xlink:title="8">
<text text-anchor="middle" x="375.341" y="-334.7623" font-family="Helvetica,sans-Serif" font-size="10.00" fill="#000000">8</text>
</a>
</g>
</g>
<!-- dir_fc0178d6978c9fa2cad6ef3e048a60a7&#45;&gt;dir_a36da230f0956f48b11c85f7d599788f -->
<g id="edge12" class="edge">
<title>dir_fc0178d6978c9fa2cad6ef3e048a60a7&#45;&gt;dir_a36da230f0956f48b11c85f7d599788f</title>
<path fill="none" stroke="#000000" d="M477.2738,-36.133C462.1285,-46.3277 441.9994,-59.0832 424.45,-69.6224"/>
<polygon fill="#000000" stroke="#000000" points="422.3608,-66.7924 415.5481,-74.9064 425.9338,-72.8118 422.3608,-66.7924"/>
<g id="a_edge12&#45;headlabel"><a xlink:href="dir_000103_000086.html" target="_top" xlink:title="87">
<text text-anchor="middle" x="424.0026" y="-60.0161" font-family="Helvetica,sans-Serif" font-size="10.00" fill="#000000">87</text>
</a>
</g>
</g>
<!-- dir_3c3c25df5132fca4f15a988b4c2efab5&#45;&gt;dir_a36da230f0956f48b11c85f7d599788f -->
<g id="edge13" class="edge">
<title>dir_3c3c25df5132fca4f15a988b4c2efab5&#45;&gt;dir_a36da230f0956f48b11c85f7d599788f</title>
<path fill="none" stroke="#000000" d="M274.1661,-147.9468C294.9511,-137.1804 323.9117,-122.1793 347.1586,-110.1377"/>
<polygon fill="#000000" stroke="#000000" points="348.8121,-113.2229 356.0818,-105.5156 345.5925,-107.0073 348.8121,-113.2229"/>
<g id="a_edge13&#45;headlabel"><a xlink:href="dir_000177_000086.html" target="_top" xlink:title="24">
<text text-anchor="middle" x="346.9262" y="-114.8973" font-family="Helvetica,sans-Serif" font-size="10.00" fill="#000000">24</text>
</a>
</g>
</g>
<!-- dir_758aa030403a70af025108ac41d12d0d&#45;&gt;dir_fc0178d6978c9fa2cad6ef3e048a60a7 -->
<g id="edge14" class="edge">
<title>dir_758aa030403a70af025108ac41d12d0d&#45;&gt;dir_fc0178d6978c9fa2cad6ef3e048a60a7</title>
<path fill="none" stroke="#000000" d="M536.1017,-359.6389C551.1013,-332.961 576.0355,-281.4737 576.0355,-234 576.0355,-234 576.0355,-234 576.0355,-162 576.0355,-116.656 546.1971,-71.5999 523.9129,-44.2735"/>
<polygon fill="#000000" stroke="#000000" points="526.394,-41.7856 517.2811,-36.3814 521.0349,-46.2889 526.394,-41.7856"/>
<g id="a_edge14&#45;headlabel"><a xlink:href="dir_000005_000103.html" target="_top" xlink:title="10">
<text text-anchor="middle" x="530.8802" y="-40.211" font-family="Helvetica,sans-Serif" font-size="10.00" fill="#000000">10</text>
</a>
</g>
</g>
<!-- dir_758aa030403a70af025108ac41d12d0d&#45;&gt;dir_a36da230f0956f48b11c85f7d599788f -->
<g id="edge15" class="edge">
<title>dir_758aa030403a70af025108ac41d12d0d&#45;&gt;dir_a36da230f0956f48b11c85f7d599788f</title>
<path fill="none" stroke="#000000" d="M520.9907,-359.8419C511.3209,-318.9287 484.1722,-217.386 438.0355,-144 431.5527,-133.6883 422.8604,-123.6992 414.4404,-115.175"/>
<polygon fill="#000000" stroke="#000000" points="416.7768,-112.5648 407.1734,-108.0898 411.8901,-117.5769 416.7768,-112.5648"/>
<g id="a_edge15&#45;headlabel"><a xlink:href="dir_000005_000086.html" target="_top" xlink:title="50">
<text text-anchor="middle" x="421.3327" y="-110.5413" font-family="Helvetica,sans-Serif" font-size="10.00" fill="#000000">50</text>
</a>
</g>
</g>
<!-- dir_758aa030403a70af025108ac41d12d0d&#45;&gt;dir_b7a0e33b407baa23d8a077e33033c988 -->
<g id="edge16" class="edge">
<title>dir_758aa030403a70af025108ac41d12d0d&#45;&gt;dir_b7a0e33b407baa23d8a077e33033c988</title>
<path fill="none" stroke="#000000" d="M485.1654,-359.8314C460.7924,-348.7247 429.7715,-334.5886 405.6348,-323.5896"/>
<polygon fill="#000000" stroke="#000000" points="406.9695,-320.3516 396.4185,-319.3897 404.0668,-326.7214 406.9695,-320.3516"/>
<g id="a_edge16&#45;headlabel"><a xlink:href="dir_000005_000216.html" target="_top" xlink:title="41">
<text text-anchor="middle" x="411.4179" y="-316.7584" font-family="Helvetica,sans-Serif" font-size="10.00" fill="#000000">41</text>
</a>
</g>
</g>
<!-- dir_a36da230f0956f48b11c85f7d599788f&#45;&gt;dir_fc0178d6978c9fa2cad6ef3e048a60a7 -->
<g id="edge20" class="edge">
<title>dir_a36da230f0956f48b11c85f7d599788f&#45;&gt;dir_fc0178d6978c9fa2cad6ef3e048a60a7</title>
<path fill="none" stroke="#000000" d="M408.8501,-71.8314C424.5583,-61.2597 445.6101,-47.9435 463.586,-37.2003"/>
<polygon fill="#000000" stroke="#000000" points="465.8277,-39.9415 472.6613,-31.845 462.2702,-33.9129 465.8277,-39.9415"/>
<g id="a_edge20&#45;headlabel"><a xlink:href="dir_000086_000103.html" target="_top" xlink:title="4">
<text text-anchor="middle" x="464.1748" y="-41.7136" font-family="Helvetica,sans-Serif" font-size="10.00" fill="#000000">4</text>
</a>
</g>
</g>
<!-- dir_d739e095b49d8b72164589d00310017d&#45;&gt;dir_fc0178d6978c9fa2cad6ef3e048a60a7 -->
<g id="edge21" class="edge">
<title>dir_d739e095b49d8b72164589d00310017d&#45;&gt;dir_fc0178d6978c9fa2cad6ef3e048a60a7</title>
<path fill="none" stroke="#000000" d="M341.1392,-215.5334C349.646,-205.1149 360.4547,-191.8483 370.0355,-180 408.75,-132.1229 453.6513,-76.0465 479.2649,-44.0055"/>
<polygon fill="#000000" stroke="#000000" points="482.1422,-46.0115 485.6513,-36.0146 476.674,-41.6412 482.1422,-46.0115"/>
<g id="a_edge21&#45;headlabel"><a xlink:href="dir_000157_000103.html" target="_top" xlink:title="3">
<text text-anchor="middle" x="482.116" y="-48.092" font-family="Helvetica,sans-Serif" font-size="10.00" fill="#000000">3</text>
</a>
</g>
</g>
<!-- dir_d739e095b49d8b72164589d00310017d&#45;&gt;dir_3c3c25df5132fca4f15a988b4c2efab5 -->
<g id="edge22" class="edge">
<title>dir_d739e095b49d8b72164589d00310017d&#45;&gt;dir_3c3c25df5132fca4f15a988b4c2efab5</title>
<path fill="none" stroke="#000000" d="M306.1005,-215.8314C296.5573,-207.1337 284.9756,-196.5783 274.6049,-187.1265"/>
<polygon fill="#000000" stroke="#000000" points="276.7127,-184.3121 266.9642,-180.1628 271.9975,-189.4857 276.7127,-184.3121"/>
<g id="a_edge22&#45;headlabel"><a xlink:href="dir_000157_000177.html" target="_top" xlink:title="2">
<text text-anchor="middle" x="281.282" y="-182.1349" font-family="Helvetica,sans-Serif" font-size="10.00" fill="#000000">2</text>
</a>
</g>
</g>
<!-- dir_d739e095b49d8b72164589d00310017d&#45;&gt;dir_a36da230f0956f48b11c85f7d599788f -->
<g id="edge23" class="edge">
<title>dir_d739e095b49d8b72164589d00310017d&#45;&gt;dir_a36da230f0956f48b11c85f7d599788f</title>
<path fill="none" stroke="#000000" d="M333.6345,-215.7623C343.9586,-190.9846 362.5058,-146.4714 374.5381,-117.5939"/>
<polygon fill="#000000" stroke="#000000" points="377.8827,-118.6666 378.4982,-108.0896 371.4212,-115.9742 377.8827,-118.6666"/>
<g id="a_edge23&#45;headlabel"><a xlink:href="dir_000157_000086.html" target="_top" xlink:title="74">
<text text-anchor="middle" x="379.1211" y="-120.5767" font-family="Helvetica,sans-Serif" font-size="10.00" fill="#000000">74</text>
</a>
</g>
</g>
<!-- dir_d739e095b49d8b72164589d00310017d&#45;&gt;dir_b7a0e33b407baa23d8a077e33033c988 -->
<g id="edge24" class="edge">
<title>dir_d739e095b49d8b72164589d00310017d&#45;&gt;dir_b7a0e33b407baa23d8a077e33033c988</title>
<path fill="none" stroke="#000000" d="M342.4968,-252.4133C347.8079,-260.3991 353.4256,-269.9155 358.06,-278.6975"/>
<polygon fill="#000000" stroke="#000000" points="355.0295,-280.4623 362.6419,-287.8314 361.2865,-277.3236 355.0295,-280.4623"/>
<g id="a_edge24&#45;headlabel"><a xlink:href="dir_000157_000216.html" target="_top" xlink:title="16">
<text text-anchor="middle" x="350.88" y="-276.0223" font-family="Helvetica,sans-Serif" font-size="10.00" fill="#000000">16</text>
</a>
</g>
</g>
<!-- dir_b7a0e33b407baa23d8a077e33033c988&#45;&gt;dir_fc0178d6978c9fa2cad6ef3e048a60a7 -->
<g id="edge28" class="edge">
<title>dir_b7a0e33b407baa23d8a077e33033c988&#45;&gt;dir_fc0178d6978c9fa2cad6ef3e048a60a7</title>
<path fill="none" stroke="#000000" d="M375.3553,-287.9843C397.934,-239.0919 460.4687,-103.6785 487.4143,-45.33"/>
<polygon fill="#000000" stroke="#000000" points="490.7038,-46.555 491.7189,-36.0089 484.3487,-43.6201 490.7038,-46.555"/>
<g id="a_edge28&#45;headlabel"><a xlink:href="dir_000216_000103.html" target="_top" xlink:title="27">
<text text-anchor="middle" x="491.7745" y="-48.5088" font-family="Helvetica,sans-Serif" font-size="10.00" fill="#000000">27</text>
</a>
</g>
</g>
<!-- dir_b7a0e33b407baa23d8a077e33033c988&#45;&gt;dir_3c3c25df5132fca4f15a988b4c2efab5 -->
<g id="edge29" class="edge">
<title>dir_b7a0e33b407baa23d8a077e33033c988&#45;&gt;dir_3c3c25df5132fca4f15a988b4c2efab5</title>
<path fill="none" stroke="#000000" d="M337.6921,-292.2265C320.4552,-282.9031 299.3178,-269.1652 285.0355,-252 269.955,-233.8755 260.0473,-208.8959 254.1415,-189.8509"/>
<polygon fill="#000000" stroke="#000000" points="257.4963,-188.8531 251.3382,-180.2317 250.7759,-190.8116 257.4963,-188.8531"/>
<g id="a_edge29&#45;headlabel"><a xlink:href="dir_000216_000177.html" target="_top" xlink:title="18">
<text text-anchor="middle" x="261.2279" y="-189.0097" font-family="Helvetica,sans-Serif" font-size="10.00" fill="#000000">18</text>
</a>
</g>
</g>
<!-- dir_b7a0e33b407baa23d8a077e33033c988&#45;&gt;dir_a36da230f0956f48b11c85f7d599788f -->
<g id="edge30" class="edge">
<title>dir_b7a0e33b407baa23d8a077e33033c988&#45;&gt;dir_a36da230f0956f48b11c85f7d599788f</title>
<path fill="none" stroke="#000000" d="M368.6228,-287.9555C371.9338,-250.3144 379.5978,-163.1867 383.5616,-118.1246"/>
<polygon fill="#000000" stroke="#000000" points="387.0496,-118.4133 384.4394,-108.1451 380.0765,-117.7999 387.0496,-118.4133"/>
<g id="a_edge30&#45;headlabel"><a xlink:href="dir_000216_000086.html" target="_top" xlink:title="541">
<text text-anchor="middle" x="389.5631" y="-119.7429" font-family="Helvetica,sans-Serif" font-size="10.00" fill="#000000">541</text>
</a>
</g>
</g>
<!-- dir_b7a0e33b407baa23d8a077e33033c988&#45;&gt;dir_d739e095b49d8b72164589d00310017d -->
<g id="edge31" class="edge">
<title>dir_b7a0e33b407baa23d8a077e33033c988&#45;&gt;dir_d739e095b49d8b72164589d00310017d</title>
<path fill="none" stroke="#000000" d="M350.7371,-287.8314C345.4324,-279.8771 339.8079,-270.369 335.1536,-261.5723"/>
<polygon fill="#000000" stroke="#000000" points="338.1663,-259.7729 330.5448,-252.4133 331.9133,-262.9194 338.1663,-259.7729"/>
<g id="a_edge31&#45;headlabel"><a xlink:href="dir_000216_000157.html" target="_top" xlink:title="4">
<text text-anchor="middle" x="342.3183" y="-259.2077" font-family="Helvetica,sans-Serif" font-size="10.00" fill="#000000">4</text>
</a>
</g>
</g>
</g>
</svg>
        <g id="navigator" transform="translate(0 0)" fill="#404254">
                <rect fill="#f2f5e9" fill-opacity="0.5" stroke="#606060" stroke-width=".5" x="0" y="0" width="60" height="60"/>
                <use id="zoomplus" xlink:href="#zoomPlus" x="17" y="9" onmousedown="handleZoom(evt,'in')"/>
                <use id="zoomminus" xlink:href="#zoomMin" x="42" y="9" onmousedown="handleZoom(evt,'out')"/>
                <use id="reset" xlink:href="#resetDef" x="30" y="36" onmousedown="handleReset()"/>
                <g id="arrowUp" xlink:href="#dirArrow" transform="translate(30 24)" onmousedown="handlePan(0,-1)">
                  <use xlink:href="#rim" fill="#404040">
                        <set attributeName="fill" to="#808080" begin="arrowUp.mouseover" end="arrowUp.mouseout"/>
                  </use>
                  <path fill="none" stroke="white" stroke-width="1.5" d="M0,-3.0v7 M-2.5,-0.5L0,-3.0L2.5,-0.5"/>
                </g>
                <g id="arrowRight" xlink:href="#dirArrow" transform="rotate(90) translate(36 -43)" onmousedown="handlePan(1,0)">
                  <use xlink:href="#rim" fill="#404040">
                        <set attributeName="fill" to="#808080" begin="arrowRight.mouseover" end="arrowRight.mouseout"/>
                  </use>
                  <path fill="none" stroke="white" stroke-width="1.5" d="M0,-3.0v7 M-2.5,-0.5L0,-3.0L2.5,-0.5"/>
                </g>
                <g id="arrowDown" xlink:href="#dirArrow" transform="rotate(180) translate(-30 -48)" onmousedown="handlePan(0,1)">
                  <use xlink:href="#rim" fill="#404040">
                        <set attributeName="fill" to="#808080" begin="arrowDown.mouseover" end="arrowDown.mouseout"/>
                  </use>
                  <path fill="none" stroke="white" stroke-width="1.5" d="M0,-3.0v7 M-2.5,-0.5L0,-3.0L2.5,-0.5"/>
                </g>
                <g id="arrowLeft" xlink:href="#dirArrow" transform="rotate(270) translate(-36 17)" onmousedown="handlePan(-1,0)">
                  <use xlink:href="#rim" fill="#404040">
                        <set attributeName="fill" to="#808080" begin="arrowLeft.mouseover" end="arrowLeft.mouseout"/>
                  </use>
                  <path fill="none" stroke="white" stroke-width="1.5" d="M0,-3.0v7 M-2.5,-0.5L0,-3.0L2.5,-0.5"/>
                </g>
        </g>
        <svg viewBox="0 0 15 15" width="100%" height="30px" preserveAspectRatio="xMaxYMin meet">
         <g id="arrow_out" transform="scale(0.3 0.3)">
          <a xlink:href="dir_f9d44be25dcd657c988860e50ecf11af_dep_org.svg" target="_base">
           <rect id="button" ry="5" rx="5" y="6" x="6" height="38" width="38"
                fill="#f2f5e9" fill-opacity="0.5" stroke="#606060" stroke-width="1.0"/>
           <path id="arrow"
             d="M 11.500037,31.436501 C 11.940474,20.09759 22.043105,11.32322 32.158766,21.979434 L 37.068811,17.246167 C 37.068811,17.246167 37.088388,32 37.088388,32 L 22.160133,31.978069 C 22.160133,31.978069 26.997745,27.140456 26.997745,27.140456 C 18.528582,18.264221 13.291696,25.230495 11.500037,31.436501 z"
             style="fill:#404040;"/>
          </a>
         </g>
        </svg>
</svg>
