<?xml version="1.0" encoding="UTF-8" standalone="no"?>
<!DOCTYPE svg PUBLIC "-//W3C//DTD SVG 1.1//EN"
 "http://www.w3.org/Graphics/SVG/1.1/DTD/svg11.dtd">
<!-- Generated by graphviz version 2.40.1 (20161225.0304)
 -->
<!-- Title: drake/systems/estimators Pages: 1 -->
<svg width="311pt" height="447pt"
 viewBox="0.00 0.00 311.11 447.00" xmlns="http://www.w3.org/2000/svg" xmlns:xlink="http://www.w3.org/1999/xlink">
<g id="graph0" class="graph" transform="scale(1 1) rotate(0) translate(4 443)">
<title>drake/systems/estimators</title>
<polygon fill="#ffffff" stroke="transparent" points="-4,4 -4,-443 307.1091,-443 307.1091,4 -4,4"/>
<g id="clust1" class="cluster">
<title>clusterdir_b7a0e33b407baa23d8a077e33033c988</title>
<g id="a_clust1"><a xlink:href="dir_b7a0e33b407baa23d8a077e33033c988.html" target="_top" xlink:title="systems">
<polygon fill="#ddddee" stroke="#000000" points="101,-344 101,-431 275,-431 275,-344 101,-344"/>
<text text-anchor="middle" x="188" y="-419" font-family="Helvetica,sans-Serif" font-size="10.00" fill="#000000">systems</text>
</a>
</g>
</g>
<g id="clust2" class="cluster">
<title>clusterdir_cf88c7d0113e9d5800c784430b052e12</title>
<g id="a_clust2"><a xlink:href="dir_cf88c7d0113e9d5800c784430b052e12.html" target="_top">
<polygon fill="#eeeeff" stroke="#000000" points="109,-352 109,-404 267,-404 267,-352 109,-352"/>
</a>
</g>
</g>
<!-- dir_cf88c7d0113e9d5800c784430b052e12 -->
<g id="node1" class="node">
<title>dir_cf88c7d0113e9d5800c784430b052e12</title>
<text text-anchor="middle" x="224" y="-375.5" font-family="Helvetica,sans-Serif" font-size="10.00" fill="#000000">estimators</text>
</g>
<!-- dir_fc0178d6978c9fa2cad6ef3e048a60a7 -->
<g id="node3" class="node">
<title>dir_fc0178d6978c9fa2cad6ef3e048a60a7</title>
<g id="a_node3"><a xlink:href="dir_fc0178d6978c9fa2cad6ef3e048a60a7.html" target="_top" xlink:title="math">
<polygon fill="#ffffff" stroke="#ff0000" points="271,-108 217,-108 217,-72 271,-72 271,-108"/>
<text text-anchor="middle" x="244" y="-87.5" font-family="Helvetica,sans-Serif" font-size="10.00" fill="#000000">math</text>
</a>
</g>
</g>
<!-- dir_cf88c7d0113e9d5800c784430b052e12&#45;&gt;dir_fc0178d6978c9fa2cad6ef3e048a60a7 -->
<g id="edge17" class="edge">
<title>dir_cf88c7d0113e9d5800c784430b052e12&#45;&gt;dir_fc0178d6978c9fa2cad6ef3e048a60a7</title>
<path fill="none" stroke="#000000" d="M225.7848,-359.6515C228.1276,-335.1351 232.2629,-290.3292 235,-252 238.3349,-205.3 241.1332,-150.9515 242.6859,-118.5721"/>
<polygon fill="#000000" stroke="#000000" points="246.187,-118.6306 243.1637,-108.4763 239.1948,-118.2997 246.187,-118.6306"/>
<g id="a_edge17&#45;headlabel"><a xlink:href="dir_000235_000095.html" target="_top" xlink:title="1">
<text text-anchor="middle" x="248.8532" y="-119.8554" font-family="Helvetica,sans-Serif" font-size="10.00" fill="#000000">1</text>
</a>
</g>
</g>
<!-- dir_2186f45272e5c29e3ac18ec762ab7501 -->
<g id="node4" class="node">
<title>dir_2186f45272e5c29e3ac18ec762ab7501</title>
<g id="a_node4"><a xlink:href="dir_2186f45272e5c29e3ac18ec762ab7501.html" target="_top" xlink:title="framework">
<polygon fill="#ffffff" stroke="#ff0000" points="158,-324 88,-324 88,-288 158,-288 158,-324"/>
<text text-anchor="middle" x="123" y="-303.5" font-family="Helvetica,sans-Serif" font-size="10.00" fill="#000000">framework</text>
</a>
</g>
</g>
<!-- dir_cf88c7d0113e9d5800c784430b052e12&#45;&gt;dir_2186f45272e5c29e3ac18ec762ab7501 -->
<g id="edge18" class="edge">
<title>dir_cf88c7d0113e9d5800c784430b052e12&#45;&gt;dir_2186f45272e5c29e3ac18ec762ab7501</title>
<path fill="none" stroke="#000000" d="M200.9374,-359.6943C194.2549,-354.5229 186.8996,-348.9564 180,-344 173.48,-339.3162 166.4354,-334.4606 159.5963,-329.8492"/>
<polygon fill="#000000" stroke="#000000" points="161.3572,-326.8164 151.0981,-324.1703 157.4679,-332.6365 161.3572,-326.8164"/>
<g id="a_edge18&#45;headlabel"><a xlink:href="dir_000235_000237.html" target="_top" xlink:title="1">
<text text-anchor="middle" x="165.9234" y="-323.953" font-family="Helvetica,sans-Serif" font-size="10.00" fill="#000000">1</text>
</a>
</g>
</g>
<!-- dir_55f8630d5466d97e74952e939680a0a0 -->
<g id="node5" class="node">
<title>dir_55f8630d5466d97e74952e939680a0a0</title>
<g id="a_node5"><a xlink:href="dir_55f8630d5466d97e74952e939680a0a0.html" target="_top" xlink:title="primitives">
<polygon fill="#ffffff" stroke="#ff0000" points="226,-252 160,-252 160,-216 226,-216 226,-252"/>
<text text-anchor="middle" x="193" y="-231.5" font-family="Helvetica,sans-Serif" font-size="10.00" fill="#000000">primitives</text>
</a>
</g>
</g>
<!-- dir_cf88c7d0113e9d5800c784430b052e12&#45;&gt;dir_55f8630d5466d97e74952e939680a0a0 -->
<g id="edge19" class="edge">
<title>dir_cf88c7d0113e9d5800c784430b052e12&#45;&gt;dir_55f8630d5466d97e74952e939680a0a0</title>
<path fill="none" stroke="#000000" d="M220.0738,-359.7623C214.763,-335.0928 205.2406,-290.8598 199.022,-261.9731"/>
<polygon fill="#000000" stroke="#000000" points="202.4205,-261.129 196.8943,-252.0896 195.5773,-262.6023 202.4205,-261.129"/>
<g id="a_edge19&#45;headlabel"><a xlink:href="dir_000235_000243.html" target="_top" xlink:title="4">
<text text-anchor="middle" x="205.9527" y="-261.5456" font-family="Helvetica,sans-Serif" font-size="10.00" fill="#000000">4</text>
</a>
</g>
</g>
<!-- dir_a36da230f0956f48b11c85f7d599788f -->
<g id="node6" class="node">
<title>dir_a36da230f0956f48b11c85f7d599788f</title>
<g id="a_node6"><a xlink:href="dir_a36da230f0956f48b11c85f7d599788f.html" target="_top" xlink:title="common">
<polygon fill="#ffffff" stroke="#ff0000" points="218.5,-36 159.5,-36 159.5,0 218.5,0 218.5,-36"/>
<text text-anchor="middle" x="189" y="-15.5" font-family="Helvetica,sans-Serif" font-size="10.00" fill="#000000">common</text>
</a>
</g>
</g>
<!-- dir_cf88c7d0113e9d5800c784430b052e12&#45;&gt;dir_a36da230f0956f48b11c85f7d599788f -->
<g id="edge20" class="edge">
<title>dir_cf88c7d0113e9d5800c784430b052e12&#45;&gt;dir_a36da230f0956f48b11c85f7d599788f</title>
<path fill="none" stroke="#000000" d="M241.9263,-359.7434C265.2346,-333.9886 303,-284.4717 303,-234 303,-234 303,-234 303,-162 303,-120.7145 304.7455,-105.0478 280,-72 266.8728,-54.4686 246.2366,-41.5546 227.9323,-32.7596"/>
<polygon fill="#000000" stroke="#000000" points="229.1773,-29.481 218.6249,-28.5331 226.283,-35.8546 229.1773,-29.481"/>
<g id="a_edge20&#45;headlabel"><a xlink:href="dir_000235_000078.html" target="_top" xlink:title="7">
<text text-anchor="middle" x="233.6242" y="-25.882" font-family="Helvetica,sans-Serif" font-size="10.00" fill="#000000">7</text>
</a>
</g>
</g>
<!-- dir_eda6c878856043855e2eed47db808351 -->
<g id="node2" class="node">
<title>dir_eda6c878856043855e2eed47db808351</title>
<g id="a_node2"><a xlink:href="dir_eda6c878856043855e2eed47db808351.html" target="_top" xlink:title="test">
<polygon fill="#ffffff" stroke="#000000" points="171,-396 117,-396 117,-360 171,-360 171,-396"/>
<text text-anchor="middle" x="144" y="-375.5" font-family="Helvetica,sans-Serif" font-size="10.00" fill="#000000">test</text>
</a>
</g>
</g>
<!-- dir_eda6c878856043855e2eed47db808351&#45;&gt;dir_55f8630d5466d97e74952e939680a0a0 -->
<g id="edge10" class="edge">
<title>dir_eda6c878856043855e2eed47db808351&#45;&gt;dir_55f8630d5466d97e74952e939680a0a0</title>
<path fill="none" stroke="#000000" d="M152.4389,-359.725C157.0557,-349.3664 162.6947,-336.096 167,-324 174.2942,-303.5064 181.0636,-279.8601 185.8656,-261.9495"/>
<polygon fill="#000000" stroke="#000000" points="189.2883,-262.696 188.4546,-252.134 182.5198,-260.9106 189.2883,-262.696"/>
<g id="a_edge10&#45;headlabel"><a xlink:href="dir_000236_000243.html" target="_top" xlink:title="2">
<text text-anchor="middle" x="191.117" y="-264.3958" font-family="Helvetica,sans-Serif" font-size="10.00" fill="#000000">2</text>
</a>
</g>
</g>
<!-- dir_eda6c878856043855e2eed47db808351&#45;&gt;dir_a36da230f0956f48b11c85f7d599788f -->
<g id="edge11" class="edge">
<title>dir_eda6c878856043855e2eed47db808351&#45;&gt;dir_a36da230f0956f48b11c85f7d599788f</title>
<path fill="none" stroke="#000000" d="M116.9147,-366.008C75.2014,-345.4821 0,-299.4074 0,-234 0,-234 0,-234 0,-162 0,-87.4385 94.219,-46.3801 149.6095,-28.6846"/>
<polygon fill="#000000" stroke="#000000" points="150.9411,-31.9369 159.4688,-25.6496 148.8816,-25.2467 150.9411,-31.9369"/>
<g id="a_edge11&#45;headlabel"><a xlink:href="dir_000236_000078.html" target="_top" xlink:title="4">
<text text-anchor="middle" x="148.3409" y="-33.208" font-family="Helvetica,sans-Serif" font-size="10.00" fill="#000000">4</text>
</a>
</g>
</g>
<!-- dir_bf85a0c13984f214f436b2edc519c6dd -->
<g id="node7" class="node">
<title>dir_bf85a0c13984f214f436b2edc519c6dd</title>
<g id="a_node7"><a xlink:href="dir_bf85a0c13984f214f436b2edc519c6dd.html" target="_top" xlink:title="examples">
<polygon fill="#ffffff" stroke="#ff0000" points="160.5,-180 95.5,-180 95.5,-144 160.5,-144 160.5,-180"/>
<text text-anchor="middle" x="128" y="-159.5" font-family="Helvetica,sans-Serif" font-size="10.00" fill="#000000">examples</text>
</a>
</g>
</g>
<!-- dir_eda6c878856043855e2eed47db808351&#45;&gt;dir_bf85a0c13984f214f436b2edc519c6dd -->
<g id="edge12" class="edge">
<title>dir_eda6c878856043855e2eed47db808351&#45;&gt;dir_bf85a0c13984f214f436b2edc519c6dd</title>
<path fill="none" stroke="#000000" d="M116.8138,-363.3132C102.7222,-354.0771 86.8533,-340.7342 79,-324 57.6624,-278.533 86.6637,-221.56 108.2946,-188.7159"/>
<polygon fill="#000000" stroke="#000000" points="111.4123,-190.356 114.1522,-180.1216 105.6281,-186.4136 111.4123,-190.356"/>
<g id="a_edge12&#45;headlabel"><a xlink:href="dir_000236_000103.html" target="_top" xlink:title="1">
<text text-anchor="middle" x="111.734" y="-192.4254" font-family="Helvetica,sans-Serif" font-size="10.00" fill="#000000">1</text>
</a>
</g>
</g>
<!-- dir_fc0178d6978c9fa2cad6ef3e048a60a7&#45;&gt;dir_a36da230f0956f48b11c85f7d599788f -->
<g id="edge1" class="edge">
<title>dir_fc0178d6978c9fa2cad6ef3e048a60a7&#45;&gt;dir_a36da230f0956f48b11c85f7d599788f</title>
<path fill="none" stroke="#000000" d="M224.1688,-71.8314C217.0988,-63.6232 209.3665,-53.7606 202.8734,-44.7323"/>
<polygon fill="#000000" stroke="#000000" points="205.6718,-42.626 197.0897,-36.4133 199.9243,-46.6219 205.6718,-42.626"/>
<g id="a_edge1&#45;headlabel"><a xlink:href="dir_000095_000078.html" target="_top" xlink:title="87">
<text text-anchor="middle" x="210.0549" y="-41.4567" font-family="Helvetica,sans-Serif" font-size="10.00" fill="#000000">87</text>
</a>
</g>
</g>
<!-- dir_2186f45272e5c29e3ac18ec762ab7501&#45;&gt;dir_55f8630d5466d97e74952e939680a0a0 -->
<g id="edge2" class="edge">
<title>dir_2186f45272e5c29e3ac18ec762ab7501&#45;&gt;dir_55f8630d5466d97e74952e939680a0a0</title>
<path fill="none" stroke="#000000" d="M134.7116,-287.8314C142.32,-279.1337 152.4101,-268.5783 162.1029,-259.1265"/>
<polygon fill="#000000" stroke="#000000" points="164.5783,-261.6021 169.3899,-252.1628 159.7421,-256.5414 164.5783,-261.6021"/>
<g id="a_edge2&#45;headlabel"><a xlink:href="dir_000237_000243.html" target="_top" xlink:title="16">
<text text-anchor="middle" x="163.9412" y="-263.6382" font-family="Helvetica,sans-Serif" font-size="10.00" fill="#000000">16</text>
</a>
</g>
</g>
<!-- dir_2186f45272e5c29e3ac18ec762ab7501&#45;&gt;dir_a36da230f0956f48b11c85f7d599788f -->
<g id="edge3" class="edge">
<title>dir_2186f45272e5c29e3ac18ec762ab7501&#45;&gt;dir_a36da230f0956f48b11c85f7d599788f</title>
<path fill="none" stroke="#000000" d="M112.1697,-287.6231C95.6726,-257.1579 67.9713,-194.5402 86,-144 100.5388,-103.243 134.5475,-66.1548 159.526,-42.9334"/>
<polygon fill="#000000" stroke="#000000" points="161.9081,-45.4981 166.9564,-36.1833 157.2012,-40.3168 161.9081,-45.4981"/>
<g id="a_edge3&#45;headlabel"><a xlink:href="dir_000237_000078.html" target="_top" xlink:title="210">
<text text-anchor="middle" x="161.1566" y="-47.5166" font-family="Helvetica,sans-Serif" font-size="10.00" fill="#000000">210</text>
</a>
</g>
</g>
<!-- dir_2186f45272e5c29e3ac18ec762ab7501&#45;&gt;dir_bf85a0c13984f214f436b2edc519c6dd -->
<g id="edge4" class="edge">
<title>dir_2186f45272e5c29e3ac18ec762ab7501&#45;&gt;dir_bf85a0c13984f214f436b2edc519c6dd</title>
<path fill="none" stroke="#000000" d="M118.9601,-287.7623C117.3531,-263.201 118.6045,-219.2474 121.5181,-190.3541"/>
<polygon fill="#000000" stroke="#000000" points="125.0331,-190.4274 122.7136,-180.0896 118.0801,-189.6175 125.0331,-190.4274"/>
<g id="a_edge4&#45;headlabel"><a xlink:href="dir_000237_000103.html" target="_top" xlink:title="3">
<text text-anchor="middle" x="127.4375" y="-191.8263" font-family="Helvetica,sans-Serif" font-size="10.00" fill="#000000">3</text>
</a>
</g>
</g>
<!-- dir_55f8630d5466d97e74952e939680a0a0&#45;&gt;dir_fc0178d6978c9fa2cad6ef3e048a60a7 -->
<g id="edge5" class="edge">
<title>dir_55f8630d5466d97e74952e939680a0a0&#45;&gt;dir_fc0178d6978c9fa2cad6ef3e048a60a7</title>
<path fill="none" stroke="#000000" d="M199.4592,-215.7623C208.2346,-190.9846 223.9997,-146.4714 234.2272,-117.5939"/>
<polygon fill="#000000" stroke="#000000" points="237.5539,-118.6844 237.5933,-108.0896 230.9555,-116.3474 237.5539,-118.6844"/>
<g id="a_edge5&#45;headlabel"><a xlink:href="dir_000243_000095.html" target="_top" xlink:title="6">
<text text-anchor="middle" x="239.0303" y="-120.5206" font-family="Helvetica,sans-Serif" font-size="10.00" fill="#000000">6</text>
</a>
</g>
</g>
<!-- dir_55f8630d5466d97e74952e939680a0a0&#45;&gt;dir_2186f45272e5c29e3ac18ec762ab7501 -->
<g id="edge6" class="edge">
<title>dir_55f8630d5466d97e74952e939680a0a0&#45;&gt;dir_2186f45272e5c29e3ac18ec762ab7501</title>
<path fill="none" stroke="#000000" d="M181.0742,-252.4133C173.4781,-261.0787 163.4644,-271.5464 153.847,-280.9223"/>
<polygon fill="#000000" stroke="#000000" points="151.4284,-278.3924 146.6163,-287.8314 156.2644,-283.4534 151.4284,-278.3924"/>
<g id="a_edge6&#45;headlabel"><a xlink:href="dir_000243_000237.html" target="_top" xlink:title="92">
<text text-anchor="middle" x="152.0659" y="-271.3563" font-family="Helvetica,sans-Serif" font-size="10.00" fill="#000000">92</text>
</a>
</g>
</g>
<!-- dir_55f8630d5466d97e74952e939680a0a0&#45;&gt;dir_a36da230f0956f48b11c85f7d599788f -->
<g id="edge7" class="edge">
<title>dir_55f8630d5466d97e74952e939680a0a0&#45;&gt;dir_a36da230f0956f48b11c85f7d599788f</title>
<path fill="none" stroke="#000000" d="M192.6658,-215.9555C191.9703,-178.3938 190.3621,-91.5541 189.5261,-46.4103"/>
<polygon fill="#000000" stroke="#000000" points="193.0207,-46.0785 189.336,-36.1451 186.0219,-46.2082 193.0207,-46.0785"/>
<g id="a_edge7&#45;headlabel"><a xlink:href="dir_000243_000078.html" target="_top" xlink:title="117">
<text text-anchor="middle" x="195.9259" y="-47.12" font-family="Helvetica,sans-Serif" font-size="10.00" fill="#000000">117</text>
</a>
</g>
</g>
<!-- dir_55f8630d5466d97e74952e939680a0a0&#45;&gt;dir_bf85a0c13984f214f436b2edc519c6dd -->
<g id="edge8" class="edge">
<title>dir_55f8630d5466d97e74952e939680a0a0&#45;&gt;dir_bf85a0c13984f214f436b2edc519c6dd</title>
<path fill="none" stroke="#000000" d="M170.6454,-215.8314C162.2661,-207.454 152.9576,-197.3531 145.1087,-188.1749"/>
<polygon fill="#000000" stroke="#000000" points="147.7351,-185.8593 138.6471,-180.4133 142.3553,-190.338 147.7351,-185.8593"/>
<g id="a_edge8&#45;headlabel"><a xlink:href="dir_000243_000103.html" target="_top" xlink:title="1">
<text text-anchor="middle" x="152.217" y="-184.3052" font-family="Helvetica,sans-Serif" font-size="10.00" fill="#000000">1</text>
</a>
</g>
</g>
<!-- dir_a36da230f0956f48b11c85f7d599788f&#45;&gt;dir_fc0178d6978c9fa2cad6ef3e048a60a7 -->
<g id="edge9" class="edge">
<title>dir_a36da230f0956f48b11c85f7d599788f&#45;&gt;dir_fc0178d6978c9fa2cad6ef3e048a60a7</title>
<path fill="none" stroke="#000000" d="M209.0417,-36.4133C216.1246,-44.654 223.851,-54.5245 230.3194,-63.536"/>
<polygon fill="#000000" stroke="#000000" points="227.4981,-65.6095 236.0736,-71.8314 233.2498,-61.6197 227.4981,-65.6095"/>
<g id="a_edge9&#45;headlabel"><a xlink:href="dir_000078_000095.html" target="_top" xlink:title="4">
<text text-anchor="middle" x="223.1164" y="-61.7742" font-family="Helvetica,sans-Serif" font-size="10.00" fill="#000000">4</text>
</a>
</g>
</g>
<!-- dir_bf85a0c13984f214f436b2edc519c6dd&#45;&gt;dir_fc0178d6978c9fa2cad6ef3e048a60a7 -->
<g id="edge13" class="edge">
<title>dir_bf85a0c13984f214f436b2edc519c6dd&#45;&gt;dir_fc0178d6978c9fa2cad6ef3e048a60a7</title>
<path fill="none" stroke="#000000" d="M157.2717,-143.8314C172.6751,-134.2706 191.6951,-122.4651 207.9947,-112.3481"/>
<polygon fill="#000000" stroke="#000000" points="210.0792,-115.1737 216.7299,-106.9263 206.3877,-109.2262 210.0792,-115.1737"/>
<g id="a_edge13&#45;headlabel"><a xlink:href="dir_000103_000095.html" target="_top" xlink:title="24">
<text text-anchor="middle" x="208.5224" y="-116.9817" font-family="Helvetica,sans-Serif" font-size="10.00" fill="#000000">24</text>
</a>
</g>
</g>
<!-- dir_bf85a0c13984f214f436b2edc519c6dd&#45;&gt;dir_2186f45272e5c29e3ac18ec762ab7501 -->
<g id="edge14" class="edge">
<title>dir_bf85a0c13984f214f436b2edc519c6dd&#45;&gt;dir_2186f45272e5c29e3ac18ec762ab7501</title>
<path fill="none" stroke="#000000" d="M132.0302,-180.0896C133.6487,-204.5727 132.4064,-248.5174 129.4995,-277.4713"/>
<polygon fill="#000000" stroke="#000000" points="125.9814,-277.4257 128.3064,-287.7623 132.9349,-278.2319 125.9814,-277.4257"/>
<g id="a_edge14&#45;headlabel"><a xlink:href="dir_000103_000237.html" target="_top" xlink:title="180">
<text text-anchor="middle" x="123.5749" y="-271.0281" font-family="Helvetica,sans-Serif" font-size="10.00" fill="#000000">180</text>
</a>
</g>
</g>
<!-- dir_bf85a0c13984f214f436b2edc519c6dd&#45;&gt;dir_55f8630d5466d97e74952e939680a0a0 -->
<g id="edge15" class="edge">
<title>dir_bf85a0c13984f214f436b2edc519c6dd&#45;&gt;dir_55f8630d5466d97e74952e939680a0a0</title>
<path fill="none" stroke="#000000" d="M150.5991,-180.4133C158.9962,-188.8239 168.2993,-198.9323 176.1196,-208.0923"/>
<polygon fill="#000000" stroke="#000000" points="173.4673,-210.3768 182.5501,-215.8314 178.8512,-205.9032 173.4673,-210.3768"/>
<g id="a_edge15&#45;headlabel"><a xlink:href="dir_000103_000243.html" target="_top" xlink:title="64">
<text text-anchor="middle" x="168.9862" y="-206.9266" font-family="Helvetica,sans-Serif" font-size="10.00" fill="#000000">64</text>
</a>
</g>
</g>
<!-- dir_bf85a0c13984f214f436b2edc519c6dd&#45;&gt;dir_a36da230f0956f48b11c85f7d599788f -->
<g id="edge16" class="edge">
<title>dir_bf85a0c13984f214f436b2edc519c6dd&#45;&gt;dir_a36da230f0956f48b11c85f7d599788f</title>
<path fill="none" stroke="#000000" d="M135.7257,-143.7623C146.2218,-118.9846 165.0781,-74.4714 177.3109,-45.5939"/>
<polygon fill="#000000" stroke="#000000" points="180.6592,-46.6628 181.337,-36.0896 174.2136,-43.9323 180.6592,-46.6628"/>
<g id="a_edge16&#45;headlabel"><a xlink:href="dir_000103_000078.html" target="_top" xlink:title="228">
<text text-anchor="middle" x="181.8715" y="-48.5801" font-family="Helvetica,sans-Serif" font-size="10.00" fill="#000000">228</text>
</a>
</g>
</g>
</g>
</svg>
