<?xml version="1.0" encoding="UTF-8" standalone="no"?>
<!DOCTYPE svg PUBLIC "-//W3C//DTD SVG 1.1//EN"
 "http://www.w3.org/Graphics/SVG/1.1/DTD/svg11.dtd">
<!-- Generated by graphviz version 2.40.1 (20161225.0304)
 -->
<!-- Title: drake/systems/lcm Pages: 1 -->
<svg width="260pt" height="375pt"
 viewBox="0.00 0.00 259.57 375.00" xmlns="http://www.w3.org/2000/svg" xmlns:xlink="http://www.w3.org/1999/xlink">
<g id="graph0" class="graph" transform="scale(1 1) rotate(0) translate(4 371)">
<title>drake/systems/lcm</title>
<polygon fill="#ffffff" stroke="transparent" points="-4,4 -4,-371 255.5684,-371 255.5684,4 -4,4"/>
<g id="clust1" class="cluster">
<title>clusterdir_b7a0e33b407baa23d8a077e33033c988</title>
<g id="a_clust1"><a xlink:href="dir_b7a0e33b407baa23d8a077e33033c988.html" target="_top" xlink:title="systems">
<polygon fill="#ddddee" stroke="#000000" points="8,-272 8,-359 166,-359 166,-272 8,-272"/>
<text text-anchor="middle" x="87" y="-347" font-family="Helvetica,sans-Serif" font-size="10.00" fill="#000000">systems</text>
</a>
</g>
</g>
<g id="clust2" class="cluster">
<title>clusterdir_b001a274ea8b6b5c370fedfcc7a1b81c</title>
<g id="a_clust2"><a xlink:href="dir_b001a274ea8b6b5c370fedfcc7a1b81c.html" target="_top">
<polygon fill="#eeeeff" stroke="#000000" points="16,-280 16,-332 158,-332 158,-280 16,-280"/>
</a>
</g>
</g>
<!-- dir_b001a274ea8b6b5c370fedfcc7a1b81c -->
<g id="node1" class="node">
<title>dir_b001a274ea8b6b5c370fedfcc7a1b81c</title>
<text text-anchor="middle" x="123" y="-303.5" font-family="Helvetica,sans-Serif" font-size="10.00" fill="#000000">lcm</text>
</g>
<!-- dir_9f920ef99dcb5f2ba14ba6c3f54b363c -->
<g id="node3" class="node">
<title>dir_9f920ef99dcb5f2ba14ba6c3f54b363c</title>
<g id="a_node3"><a xlink:href="dir_9f920ef99dcb5f2ba14ba6c3f54b363c.html" target="_top" xlink:title="analysis">
<polygon fill="#ffffff" stroke="#ff0000" points="208.5,-252 151.5,-252 151.5,-216 208.5,-216 208.5,-252"/>
<text text-anchor="middle" x="180" y="-231.5" font-family="Helvetica,sans-Serif" font-size="10.00" fill="#000000">analysis</text>
</a>
</g>
</g>
<!-- dir_b001a274ea8b6b5c370fedfcc7a1b81c&#45;&gt;dir_9f920ef99dcb5f2ba14ba6c3f54b363c -->
<g id="edge16" class="edge">
<title>dir_b001a274ea8b6b5c370fedfcc7a1b81c&#45;&gt;dir_9f920ef99dcb5f2ba14ba6c3f54b363c</title>
<path fill="none" stroke="#000000" d="M137.3835,-287.8314C143.9486,-279.5386 151.8507,-269.557 159.0578,-260.4533"/>
<polygon fill="#000000" stroke="#000000" points="161.9599,-262.4262 165.4228,-252.4133 156.4716,-258.0813 161.9599,-262.4262"/>
<g id="a_edge16&#45;headlabel"><a xlink:href="dir_000239_000226.html" target="_top" xlink:title="3">
<text text-anchor="middle" x="161.9549" y="-264.5069" font-family="Helvetica,sans-Serif" font-size="10.00" fill="#000000">3</text>
</a>
</g>
</g>
<!-- dir_3c3c25df5132fca4f15a988b4c2efab5 -->
<g id="node4" class="node">
<title>dir_3c3c25df5132fca4f15a988b4c2efab5</title>
<g id="a_node4"><a xlink:href="dir_3c3c25df5132fca4f15a988b4c2efab5.html" target="_top" xlink:title="lcm">
<polygon fill="#ffffff" stroke="#ff0000" points="95,-252 41,-252 41,-216 95,-216 95,-252"/>
<text text-anchor="middle" x="68" y="-231.5" font-family="Helvetica,sans-Serif" font-size="10.00" fill="#000000">lcm</text>
</a>
</g>
</g>
<!-- dir_b001a274ea8b6b5c370fedfcc7a1b81c&#45;&gt;dir_3c3c25df5132fca4f15a988b4c2efab5 -->
<g id="edge17" class="edge">
<title>dir_b001a274ea8b6b5c370fedfcc7a1b81c&#45;&gt;dir_3c3c25df5132fca4f15a988b4c2efab5</title>
<path fill="none" stroke="#000000" d="M109.1212,-287.8314C102.7864,-279.5386 95.1616,-269.557 88.2074,-260.4533"/>
<polygon fill="#000000" stroke="#000000" points="90.9175,-258.2353 82.0657,-252.4133 85.3548,-262.4847 90.9175,-258.2353"/>
<g id="a_edge17&#45;headlabel"><a xlink:href="dir_000239_000167.html" target="_top" xlink:title="17">
<text text-anchor="middle" x="95.3558" y="-256.8683" font-family="Helvetica,sans-Serif" font-size="10.00" fill="#000000">17</text>
</a>
</g>
</g>
<!-- dir_2186f45272e5c29e3ac18ec762ab7501 -->
<g id="node5" class="node">
<title>dir_2186f45272e5c29e3ac18ec762ab7501</title>
<g id="a_node5"><a xlink:href="dir_2186f45272e5c29e3ac18ec762ab7501.html" target="_top" xlink:title="framework">
<polygon fill="#ffffff" stroke="#ff0000" points="143,-180 73,-180 73,-144 143,-144 143,-180"/>
<text text-anchor="middle" x="108" y="-159.5" font-family="Helvetica,sans-Serif" font-size="10.00" fill="#000000">framework</text>
</a>
</g>
</g>
<!-- dir_b001a274ea8b6b5c370fedfcc7a1b81c&#45;&gt;dir_2186f45272e5c29e3ac18ec762ab7501 -->
<g id="edge18" class="edge">
<title>dir_b001a274ea8b6b5c370fedfcc7a1b81c&#45;&gt;dir_2186f45272e5c29e3ac18ec762ab7501</title>
<path fill="none" stroke="#000000" d="M121.1002,-287.7623C118.5418,-263.201 113.9633,-219.2474 110.9535,-190.3541"/>
<polygon fill="#000000" stroke="#000000" points="114.4016,-189.6731 109.8843,-180.0896 107.4393,-190.3985 114.4016,-189.6731"/>
<g id="a_edge18&#45;headlabel"><a xlink:href="dir_000239_000235.html" target="_top" xlink:title="18">
<text text-anchor="middle" x="117.598" y="-190.4543" font-family="Helvetica,sans-Serif" font-size="10.00" fill="#000000">18</text>
</a>
</g>
</g>
<!-- dir_a36da230f0956f48b11c85f7d599788f -->
<g id="node7" class="node">
<title>dir_a36da230f0956f48b11c85f7d599788f</title>
<g id="a_node7"><a xlink:href="dir_a36da230f0956f48b11c85f7d599788f.html" target="_top" xlink:title="common">
<polygon fill="#ffffff" stroke="#ff0000" points="153.5,-36 94.5,-36 94.5,0 153.5,0 153.5,-36"/>
<text text-anchor="middle" x="124" y="-15.5" font-family="Helvetica,sans-Serif" font-size="10.00" fill="#000000">common</text>
</a>
</g>
</g>
<!-- dir_b001a274ea8b6b5c370fedfcc7a1b81c&#45;&gt;dir_a36da230f0956f48b11c85f7d599788f -->
<g id="edge19" class="edge">
<title>dir_b001a274ea8b6b5c370fedfcc7a1b81c&#45;&gt;dir_a36da230f0956f48b11c85f7d599788f</title>
<path fill="none" stroke="#000000" d="M150.117,-298.8453C172.7259,-291.2882 203.4979,-276.9245 218,-252 235.8196,-221.3738 284.3963,-189.5528 216,-72 204.474,-52.1902 182.5933,-38.9141 163.0621,-30.4839"/>
<polygon fill="#000000" stroke="#000000" points="164.3023,-27.2103 153.7185,-26.7273 161.6911,-33.705 164.3023,-27.2103"/>
<g id="a_edge19&#45;headlabel"><a xlink:href="dir_000239_000076.html" target="_top" xlink:title="21">
<text text-anchor="middle" x="168.6965" y="-23.4168" font-family="Helvetica,sans-Serif" font-size="10.00" fill="#000000">21</text>
</a>
</g>
</g>
<!-- dir_b54f3a5fd5301e2ed0a6804b77aee083 -->
<g id="node2" class="node">
<title>dir_b54f3a5fd5301e2ed0a6804b77aee083</title>
<g id="a_node2"><a xlink:href="dir_b54f3a5fd5301e2ed0a6804b77aee083.html" target="_top" xlink:title="test">
<polygon fill="#ffffff" stroke="#000000" points="78,-324 24,-324 24,-288 78,-288 78,-324"/>
<text text-anchor="middle" x="51" y="-303.5" font-family="Helvetica,sans-Serif" font-size="10.00" fill="#000000">test</text>
</a>
</g>
</g>
<!-- dir_b54f3a5fd5301e2ed0a6804b77aee083&#45;&gt;dir_9f920ef99dcb5f2ba14ba6c3f54b363c -->
<g id="edge11" class="edge">
<title>dir_b54f3a5fd5301e2ed0a6804b77aee083&#45;&gt;dir_9f920ef99dcb5f2ba14ba6c3f54b363c</title>
<path fill="none" stroke="#000000" d="M67.4794,-287.9961C73.2655,-282.3687 80.0624,-276.47 87,-272 103.7912,-261.1812 124.171,-252.4372 141.5683,-246.0769"/>
<polygon fill="#000000" stroke="#000000" points="143.1468,-249.2318 151.4172,-242.6098 140.8224,-242.629 143.1468,-249.2318"/>
<g id="a_edge11&#45;headlabel"><a xlink:href="dir_000240_000226.html" target="_top" xlink:title="2">
<text text-anchor="middle" x="140.6989" y="-250.6035" font-family="Helvetica,sans-Serif" font-size="10.00" fill="#000000">2</text>
</a>
</g>
</g>
<!-- dir_b54f3a5fd5301e2ed0a6804b77aee083&#45;&gt;dir_3c3c25df5132fca4f15a988b4c2efab5 -->
<g id="edge12" class="edge">
<title>dir_b54f3a5fd5301e2ed0a6804b77aee083&#45;&gt;dir_3c3c25df5132fca4f15a988b4c2efab5</title>
<path fill="none" stroke="#000000" d="M55.2898,-287.8314C57.108,-280.131 59.2699,-270.9743 61.2905,-262.4166"/>
<polygon fill="#000000" stroke="#000000" points="64.7608,-262.95 63.6524,-252.4133 57.9481,-261.3414 64.7608,-262.95"/>
<g id="a_edge12&#45;headlabel"><a xlink:href="dir_000240_000167.html" target="_top" xlink:title="10">
<text text-anchor="middle" x="66.6981" y="-264.6008" font-family="Helvetica,sans-Serif" font-size="10.00" fill="#000000">10</text>
</a>
</g>
</g>
<!-- dir_b54f3a5fd5301e2ed0a6804b77aee083&#45;&gt;dir_2186f45272e5c29e3ac18ec762ab7501 -->
<g id="edge13" class="edge">
<title>dir_b54f3a5fd5301e2ed0a6804b77aee083&#45;&gt;dir_2186f45272e5c29e3ac18ec762ab7501</title>
<path fill="none" stroke="#000000" d="M40.3964,-287.8063C30.8941,-268.9227 20.1335,-238.9884 32,-216 39.0577,-202.3274 51.3536,-191.3629 64.0243,-182.9807"/>
<polygon fill="#000000" stroke="#000000" points="66.1099,-185.8071 72.7963,-177.5886 62.4442,-179.8436 66.1099,-185.8071"/>
<g id="a_edge13&#45;headlabel"><a xlink:href="dir_000240_000235.html" target="_top" xlink:title="6">
<text text-anchor="middle" x="64.5344" y="-187.6083" font-family="Helvetica,sans-Serif" font-size="10.00" fill="#000000">6</text>
</a>
</g>
</g>
<!-- dir_55f8630d5466d97e74952e939680a0a0 -->
<g id="node6" class="node">
<title>dir_55f8630d5466d97e74952e939680a0a0</title>
<g id="a_node6"><a xlink:href="dir_55f8630d5466d97e74952e939680a0a0.html" target="_top" xlink:title="primitives">
<polygon fill="#ffffff" stroke="#ff0000" points="188,-108 122,-108 122,-72 188,-72 188,-108"/>
<text text-anchor="middle" x="155" y="-87.5" font-family="Helvetica,sans-Serif" font-size="10.00" fill="#000000">primitives</text>
</a>
</g>
</g>
<!-- dir_b54f3a5fd5301e2ed0a6804b77aee083&#45;&gt;dir_55f8630d5466d97e74952e939680a0a0 -->
<g id="edge14" class="edge">
<title>dir_b54f3a5fd5301e2ed0a6804b77aee083&#45;&gt;dir_55f8630d5466d97e74952e939680a0a0</title>
<path fill="none" stroke="#000000" d="M38.8183,-287.882C32.7685,-277.7891 26.1022,-264.7221 23,-252 19.2096,-236.4555 18.9049,-231.4671 23,-216 32.425,-180.402 38.1953,-170.271 64,-144 77.9032,-129.8456 96.2716,-118.0231 112.8632,-109.0842"/>
<polygon fill="#000000" stroke="#000000" points="114.5931,-112.1298 121.8584,-104.4183 111.3699,-105.916 114.5931,-112.1298"/>
<g id="a_edge14&#45;headlabel"><a xlink:href="dir_000240_000241.html" target="_top" xlink:title="2">
<text text-anchor="middle" x="112.7096" y="-113.8053" font-family="Helvetica,sans-Serif" font-size="10.00" fill="#000000">2</text>
</a>
</g>
</g>
<!-- dir_b54f3a5fd5301e2ed0a6804b77aee083&#45;&gt;dir_a36da230f0956f48b11c85f7d599788f -->
<g id="edge15" class="edge">
<title>dir_b54f3a5fd5301e2ed0a6804b77aee083&#45;&gt;dir_a36da230f0956f48b11c85f7d599788f</title>
<path fill="none" stroke="#000000" d="M35.886,-287.7768C28.6451,-277.8586 20.7476,-264.9858 17,-252 3.5629,-205.4394 15.0989,-189.418 32,-144 44.7669,-109.6918 50.2323,-101.4315 72,-72 79.3626,-62.0453 88.4341,-52.032 96.9276,-43.3784"/>
<polygon fill="#000000" stroke="#000000" points="99.5637,-45.6929 104.1855,-36.1593 94.6272,-40.7299 99.5637,-45.6929"/>
<g id="a_edge15&#45;headlabel"><a xlink:href="dir_000240_000076.html" target="_top" xlink:title="2">
<text text-anchor="middle" x="99.0174" y="-47.7409" font-family="Helvetica,sans-Serif" font-size="10.00" fill="#000000">2</text>
</a>
</g>
</g>
<!-- dir_9f920ef99dcb5f2ba14ba6c3f54b363c&#45;&gt;dir_2186f45272e5c29e3ac18ec762ab7501 -->
<g id="edge1" class="edge">
<title>dir_9f920ef99dcb5f2ba14ba6c3f54b363c&#45;&gt;dir_2186f45272e5c29e3ac18ec762ab7501</title>
<path fill="none" stroke="#000000" d="M155.879,-215.8314C146.5923,-207.3694 136.1867,-197.1489 127.3891,-187.8971"/>
<polygon fill="#000000" stroke="#000000" points="129.8075,-185.3579 120.4373,-180.4133 124.6788,-190.122 129.8075,-185.3579"/>
<g id="a_edge1&#45;headlabel"><a xlink:href="dir_000226_000235.html" target="_top" xlink:title="33">
<text text-anchor="middle" x="134.3342" y="-183.5592" font-family="Helvetica,sans-Serif" font-size="10.00" fill="#000000">33</text>
</a>
</g>
</g>
<!-- dir_9f920ef99dcb5f2ba14ba6c3f54b363c&#45;&gt;dir_55f8630d5466d97e74952e939680a0a0 -->
<g id="edge2" class="edge">
<title>dir_9f920ef99dcb5f2ba14ba6c3f54b363c&#45;&gt;dir_55f8630d5466d97e74952e939680a0a0</title>
<path fill="none" stroke="#000000" d="M172.1606,-215.7623C165.4366,-191.201 157.5311,-147.2474 154.4252,-118.3541"/>
<polygon fill="#000000" stroke="#000000" points="157.8824,-117.7275 153.4823,-108.0896 150.9118,-118.3679 157.8824,-117.7275"/>
<g id="a_edge2&#45;headlabel"><a xlink:href="dir_000226_000241.html" target="_top" xlink:title="7">
<text text-anchor="middle" x="161.0385" y="-118.5474" font-family="Helvetica,sans-Serif" font-size="10.00" fill="#000000">7</text>
</a>
</g>
</g>
<!-- dir_9f920ef99dcb5f2ba14ba6c3f54b363c&#45;&gt;dir_a36da230f0956f48b11c85f7d599788f -->
<g id="edge3" class="edge">
<title>dir_9f920ef99dcb5f2ba14ba6c3f54b363c&#45;&gt;dir_a36da230f0956f48b11c85f7d599788f</title>
<path fill="none" stroke="#000000" d="M188.0271,-215.8305C200.5463,-184.5881 220.9332,-119.4737 197,-72 192.8984,-63.8642 177.6172,-52.0657 162.0886,-41.5711"/>
<polygon fill="#000000" stroke="#000000" points="163.7797,-38.4937 153.5056,-35.9064 159.9238,-44.336 163.7797,-38.4937"/>
<g id="a_edge3&#45;headlabel"><a xlink:href="dir_000226_000076.html" target="_top" xlink:title="67">
<text text-anchor="middle" x="168.3437" y="-35.604" font-family="Helvetica,sans-Serif" font-size="10.00" fill="#000000">67</text>
</a>
</g>
</g>
<!-- dir_3c3c25df5132fca4f15a988b4c2efab5&#45;&gt;dir_a36da230f0956f48b11c85f7d599788f -->
<g id="edge4" class="edge">
<title>dir_3c3c25df5132fca4f15a988b4c2efab5&#45;&gt;dir_a36da230f0956f48b11c85f7d599788f</title>
<path fill="none" stroke="#000000" d="M64.4077,-215.8212C61.4262,-197.4633 58.4849,-168.4094 64,-144 72.1911,-107.7467 92.11,-69.698 106.7602,-45.0233"/>
<polygon fill="#000000" stroke="#000000" points="109.8865,-46.6179 112.0816,-36.2529 103.902,-42.9867 109.8865,-46.6179"/>
<g id="a_edge4&#45;headlabel"><a xlink:href="dir_000167_000076.html" target="_top" xlink:title="24">
<text text-anchor="middle" x="110.4493" y="-48.6638" font-family="Helvetica,sans-Serif" font-size="10.00" fill="#000000">24</text>
</a>
</g>
</g>
<!-- dir_2186f45272e5c29e3ac18ec762ab7501&#45;&gt;dir_9f920ef99dcb5f2ba14ba6c3f54b363c -->
<g id="edge5" class="edge">
<title>dir_2186f45272e5c29e3ac18ec762ab7501&#45;&gt;dir_9f920ef99dcb5f2ba14ba6c3f54b363c</title>
<path fill="none" stroke="#000000" d="M132.1147,-180.1628C141.4722,-188.6891 151.9667,-199.0016 160.8076,-208.3099"/>
<polygon fill="#000000" stroke="#000000" points="158.4173,-210.8796 167.7838,-215.8314 163.5496,-206.1194 158.4173,-210.8796"/>
<g id="a_edge5&#45;headlabel"><a xlink:href="dir_000235_000226.html" target="_top" xlink:title="1">
<text text-anchor="middle" x="153.8912" y="-207.6749" font-family="Helvetica,sans-Serif" font-size="10.00" fill="#000000">1</text>
</a>
</g>
</g>
<!-- dir_2186f45272e5c29e3ac18ec762ab7501&#45;&gt;dir_55f8630d5466d97e74952e939680a0a0 -->
<g id="edge6" class="edge">
<title>dir_2186f45272e5c29e3ac18ec762ab7501&#45;&gt;dir_55f8630d5466d97e74952e939680a0a0</title>
<path fill="none" stroke="#000000" d="M113.9077,-143.8314C118.4659,-135.6232 124.7058,-125.7606 131.0026,-116.7323"/>
<polygon fill="#000000" stroke="#000000" points="133.9919,-118.5709 137.0042,-108.4133 128.315,-114.4754 133.9919,-118.5709"/>
<g id="a_edge6&#45;headlabel"><a xlink:href="dir_000235_000241.html" target="_top" xlink:title="16">
<text text-anchor="middle" x="134.1915" y="-120.6472" font-family="Helvetica,sans-Serif" font-size="10.00" fill="#000000">16</text>
</a>
</g>
</g>
<!-- dir_2186f45272e5c29e3ac18ec762ab7501&#45;&gt;dir_a36da230f0956f48b11c85f7d599788f -->
<g id="edge7" class="edge">
<title>dir_2186f45272e5c29e3ac18ec762ab7501&#45;&gt;dir_a36da230f0956f48b11c85f7d599788f</title>
<path fill="none" stroke="#000000" d="M108.2313,-143.9999C108.6455,-125.781 109.7982,-96.833 113,-72 114.0839,-63.5934 115.735,-54.538 117.4309,-46.2898"/>
<polygon fill="#000000" stroke="#000000" points="120.8805,-46.8959 119.5637,-36.3833 114.0373,-45.4226 120.8805,-46.8959"/>
<g id="a_edge7&#45;headlabel"><a xlink:href="dir_000235_000076.html" target="_top" xlink:title="211">
<text text-anchor="middle" x="122.8997" y="-48.5076" font-family="Helvetica,sans-Serif" font-size="10.00" fill="#000000">211</text>
</a>
</g>
</g>
<!-- dir_55f8630d5466d97e74952e939680a0a0&#45;&gt;dir_9f920ef99dcb5f2ba14ba6c3f54b363c -->
<g id="edge8" class="edge">
<title>dir_55f8630d5466d97e74952e939680a0a0&#45;&gt;dir_9f920ef99dcb5f2ba14ba6c3f54b363c</title>
<path fill="none" stroke="#000000" d="M162.7988,-108.0896C169.518,-132.5727 177.4308,-176.5174 180.556,-205.4713"/>
<polygon fill="#000000" stroke="#000000" points="177.1016,-206.1268 181.5069,-215.7623 184.0719,-205.4827 177.1016,-206.1268"/>
<g id="a_edge8&#45;headlabel"><a xlink:href="dir_000241_000226.html" target="_top" xlink:title="3">
<text text-anchor="middle" x="173.9437" y="-200.3086" font-family="Helvetica,sans-Serif" font-size="10.00" fill="#000000">3</text>
</a>
</g>
</g>
<!-- dir_55f8630d5466d97e74952e939680a0a0&#45;&gt;dir_2186f45272e5c29e3ac18ec762ab7501 -->
<g id="edge9" class="edge">
<title>dir_55f8630d5466d97e74952e939680a0a0&#45;&gt;dir_2186f45272e5c29e3ac18ec762ab7501</title>
<path fill="none" stroke="#000000" d="M148.9562,-108.4133C144.3649,-116.654 138.1079,-126.5245 131.8101,-135.536"/>
<polygon fill="#000000" stroke="#000000" points="128.8353,-133.6769 125.8125,-143.8314 134.5079,-137.7783 128.8353,-133.6769"/>
<g id="a_edge9&#45;headlabel"><a xlink:href="dir_000241_000235.html" target="_top" xlink:title="92">
<text text-anchor="middle" x="128.6405" y="-126.6004" font-family="Helvetica,sans-Serif" font-size="10.00" fill="#000000">92</text>
</a>
</g>
</g>
<!-- dir_55f8630d5466d97e74952e939680a0a0&#45;&gt;dir_a36da230f0956f48b11c85f7d599788f -->
<g id="edge10" class="edge">
<title>dir_55f8630d5466d97e74952e939680a0a0&#45;&gt;dir_a36da230f0956f48b11c85f7d599788f</title>
<path fill="none" stroke="#000000" d="M147.1774,-71.8314C143.7891,-63.9617 139.7459,-54.5712 135.9924,-45.8533"/>
<polygon fill="#000000" stroke="#000000" points="139.0973,-44.214 131.9279,-36.4133 132.6679,-46.9822 139.0973,-44.214"/>
<g id="a_edge10&#45;headlabel"><a xlink:href="dir_000241_000076.html" target="_top" xlink:title="117">
<text text-anchor="middle" x="143.1266" y="-43.8928" font-family="Helvetica,sans-Serif" font-size="10.00" fill="#000000">117</text>
</a>
</g>
</g>
</g>
</svg>
