<?xml version="1.0" encoding="UTF-8" standalone="no"?>
<!DOCTYPE svg PUBLIC "-//W3C//DTD SVG 1.1//EN"
 "http://www.w3.org/Graphics/SVG/1.1/DTD/svg11.dtd">
<!-- Generated by graphviz version 2.40.1 (20161225.0304)
 -->
<!-- Title: drake/manipulation/perception Pages: 1 -->
<svg width="199pt" height="303pt"
 viewBox="0.00 0.00 198.84 303.00" xmlns="http://www.w3.org/2000/svg" xmlns:xlink="http://www.w3.org/1999/xlink">
<g id="graph0" class="graph" transform="scale(1 1) rotate(0) translate(4 299)">
<title>drake/manipulation/perception</title>
<polygon fill="#ffffff" stroke="transparent" points="-4,4 -4,-299 194.8379,-299 194.8379,4 -4,4"/>
<g id="clust1" class="cluster">
<title>clusterdir_758aa030403a70af025108ac41d12d0d</title>
<g id="a_clust1"><a xlink:href="dir_758aa030403a70af025108ac41d12d0d.html" target="_top" xlink:title="manipulation">
<polygon fill="#ddddee" stroke="#000000" points="8,-200 8,-287 180,-287 180,-200 8,-200"/>
<text text-anchor="middle" x="94" y="-275" font-family="Helvetica,sans-Serif" font-size="10.00" fill="#000000">manipulation</text>
</a>
</g>
</g>
<g id="clust2" class="cluster">
<title>clusterdir_87d00f1bc7afad72962b21d21ea7c9ff</title>
<g id="a_clust2"><a xlink:href="dir_87d00f1bc7afad72962b21d21ea7c9ff.html" target="_top">
<polygon fill="#eeeeff" stroke="#000000" points="16,-208 16,-260 172,-260 172,-208 16,-208"/>
</a>
</g>
</g>
<!-- dir_87d00f1bc7afad72962b21d21ea7c9ff -->
<g id="node1" class="node">
<title>dir_87d00f1bc7afad72962b21d21ea7c9ff</title>
<text text-anchor="middle" x="58" y="-231.5" font-family="Helvetica,sans-Serif" font-size="10.00" fill="#000000">perception</text>
</g>
<!-- dir_fc0178d6978c9fa2cad6ef3e048a60a7 -->
<g id="node3" class="node">
<title>dir_fc0178d6978c9fa2cad6ef3e048a60a7</title>
<g id="a_node3"><a xlink:href="dir_fc0178d6978c9fa2cad6ef3e048a60a7.html" target="_top" xlink:title="math">
<polygon fill="#ffffff" stroke="#ff0000" points="125,-108 71,-108 71,-72 125,-72 125,-108"/>
<text text-anchor="middle" x="98" y="-87.5" font-family="Helvetica,sans-Serif" font-size="10.00" fill="#000000">math</text>
</a>
</g>
</g>
<!-- dir_87d00f1bc7afad72962b21d21ea7c9ff&#45;&gt;dir_fc0178d6978c9fa2cad6ef3e048a60a7 -->
<g id="edge2" class="edge">
<title>dir_87d00f1bc7afad72962b21d21ea7c9ff&#45;&gt;dir_fc0178d6978c9fa2cad6ef3e048a60a7</title>
<path fill="none" stroke="#000000" d="M42.0338,-215.9416C27.7103,-197.4268 10.6945,-168.0233 23,-144 31.2989,-127.7986 46.9724,-115.3515 61.8541,-106.513"/>
<polygon fill="#000000" stroke="#000000" points="63.8948,-109.3837 70.9448,-101.4749 60.5016,-103.2611 63.8948,-109.3837"/>
<g id="a_edge2&#45;headlabel"><a xlink:href="dir_000183_000093.html" target="_top" xlink:title="5">
<text text-anchor="middle" x="62.1271" y="-111.1095" font-family="Helvetica,sans-Serif" font-size="10.00" fill="#000000">5</text>
</a>
</g>
</g>
<!-- dir_a36da230f0956f48b11c85f7d599788f -->
<g id="node4" class="node">
<title>dir_a36da230f0956f48b11c85f7d599788f</title>
<g id="a_node4"><a xlink:href="dir_a36da230f0956f48b11c85f7d599788f.html" target="_top" xlink:title="common">
<polygon fill="#ffffff" stroke="#ff0000" points="127.5,-36 68.5,-36 68.5,0 127.5,0 127.5,-36"/>
<text text-anchor="middle" x="98" y="-15.5" font-family="Helvetica,sans-Serif" font-size="10.00" fill="#000000">common</text>
</a>
</g>
</g>
<!-- dir_87d00f1bc7afad72962b21d21ea7c9ff&#45;&gt;dir_a36da230f0956f48b11c85f7d599788f -->
<g id="edge3" class="edge">
<title>dir_87d00f1bc7afad72962b21d21ea7c9ff&#45;&gt;dir_a36da230f0956f48b11c85f7d599788f</title>
<path fill="none" stroke="#000000" d="M38.5044,-215.9663C29.4897,-206.2894 19.7449,-193.5757 15,-180 9.721,-164.896 11.1531,-159.5307 15,-144 24.6758,-104.937 52.6309,-67.3803 73.4407,-43.5905"/>
<polygon fill="#000000" stroke="#000000" points="76.1161,-45.8496 80.1873,-36.0682 70.9049,-41.1759 76.1161,-45.8496"/>
<g id="a_edge3&#45;headlabel"><a xlink:href="dir_000183_000076.html" target="_top" xlink:title="11">
<text text-anchor="middle" x="75.8298" y="-47.9213" font-family="Helvetica,sans-Serif" font-size="10.00" fill="#000000">11</text>
</a>
</g>
</g>
<!-- dir_f46c9d8bac432799f621aa951345f12b -->
<g id="node5" class="node">
<title>dir_f46c9d8bac432799f621aa951345f12b</title>
<g id="a_node5"><a xlink:href="dir_f46c9d8bac432799f621aa951345f12b.html" target="_top" xlink:title="util">
<polygon fill="#ffffff" stroke="#ff0000" points="162,-180 108,-180 108,-144 162,-144 162,-180"/>
<text text-anchor="middle" x="135" y="-159.5" font-family="Helvetica,sans-Serif" font-size="10.00" fill="#000000">util</text>
</a>
</g>
</g>
<!-- dir_87d00f1bc7afad72962b21d21ea7c9ff&#45;&gt;dir_f46c9d8bac432799f621aa951345f12b -->
<g id="edge4" class="edge">
<title>dir_87d00f1bc7afad72962b21d21ea7c9ff&#45;&gt;dir_f46c9d8bac432799f621aa951345f12b</title>
<path fill="none" stroke="#000000" d="M77.4304,-215.8314C86.732,-207.1337 98.0204,-196.5783 108.1286,-187.1265"/>
<polygon fill="#000000" stroke="#000000" points="110.6621,-189.5493 115.5759,-180.1628 105.8811,-184.4363 110.6621,-189.5493"/>
<g id="a_edge4&#45;headlabel"><a xlink:href="dir_000183_000189.html" target="_top" xlink:title="3">
<text text-anchor="middle" x="109.9757" y="-191.5782" font-family="Helvetica,sans-Serif" font-size="10.00" fill="#000000">3</text>
</a>
</g>
</g>
<!-- dir_b7a0e33b407baa23d8a077e33033c988 -->
<g id="node6" class="node">
<title>dir_b7a0e33b407baa23d8a077e33033c988</title>
<g id="a_node6"><a xlink:href="dir_b7a0e33b407baa23d8a077e33033c988.html" target="_top" xlink:title="systems">
<polygon fill="#ffffff" stroke="#ff0000" points="90,-180 32,-180 32,-144 90,-144 90,-180"/>
<text text-anchor="middle" x="61" y="-159.5" font-family="Helvetica,sans-Serif" font-size="10.00" fill="#000000">systems</text>
</a>
</g>
</g>
<!-- dir_87d00f1bc7afad72962b21d21ea7c9ff&#45;&gt;dir_b7a0e33b407baa23d8a077e33033c988 -->
<g id="edge5" class="edge">
<title>dir_87d00f1bc7afad72962b21d21ea7c9ff&#45;&gt;dir_b7a0e33b407baa23d8a077e33033c988</title>
<path fill="none" stroke="#000000" d="M58.757,-215.8314C59.0779,-208.131 59.4594,-198.9743 59.816,-190.4166"/>
<polygon fill="#000000" stroke="#000000" points="63.3133,-190.5503 60.2328,-180.4133 56.3194,-190.2589 63.3133,-190.5503"/>
<g id="a_edge5&#45;headlabel"><a xlink:href="dir_000183_000217.html" target="_top" xlink:title="9">
<text text-anchor="middle" x="66.0006" y="-191.76" font-family="Helvetica,sans-Serif" font-size="10.00" fill="#000000">9</text>
</a>
</g>
</g>
<!-- dir_9f55c9a2830777c8f60567e697ef38f1 -->
<g id="node2" class="node">
<title>dir_9f55c9a2830777c8f60567e697ef38f1</title>
<g id="a_node2"><a xlink:href="dir_9f55c9a2830777c8f60567e697ef38f1.html" target="_top" xlink:title="test">
<polygon fill="#ffffff" stroke="#000000" points="164,-252 110,-252 110,-216 164,-216 164,-252"/>
<text text-anchor="middle" x="137" y="-231.5" font-family="Helvetica,sans-Serif" font-size="10.00" fill="#000000">test</text>
</a>
</g>
</g>
<!-- dir_9f55c9a2830777c8f60567e697ef38f1&#45;&gt;dir_fc0178d6978c9fa2cad6ef3e048a60a7 -->
<g id="edge7" class="edge">
<title>dir_9f55c9a2830777c8f60567e697ef38f1&#45;&gt;dir_fc0178d6978c9fa2cad6ef3e048a60a7</title>
<path fill="none" stroke="#000000" d="M152.5727,-215.9372C166.5369,-197.4189 183.1056,-168.0126 171,-144 166.6792,-135.4292 149.9513,-122.7938 133.5976,-111.8999"/>
<polygon fill="#000000" stroke="#000000" points="135.4363,-108.9205 125.1475,-106.3926 131.6142,-114.785 135.4363,-108.9205"/>
<g id="a_edge7&#45;headlabel"><a xlink:href="dir_000184_000093.html" target="_top" xlink:title="1">
<text text-anchor="middle" x="139.9981" y="-106.0045" font-family="Helvetica,sans-Serif" font-size="10.00" fill="#000000">1</text>
</a>
</g>
</g>
<!-- dir_9f55c9a2830777c8f60567e697ef38f1&#45;&gt;dir_a36da230f0956f48b11c85f7d599788f -->
<g id="edge8" class="edge">
<title>dir_9f55c9a2830777c8f60567e697ef38f1&#45;&gt;dir_a36da230f0956f48b11c85f7d599788f</title>
<path fill="none" stroke="#000000" d="M160.3909,-215.838C170.6333,-206.3937 181.5459,-193.9182 187,-180 192.8377,-165.103 190.676,-159.572 187,-144 178.7801,-109.18 171.7834,-101.1213 151,-72 143.7995,-61.9108 134.7066,-51.9228 126.0945,-43.332"/>
<polygon fill="#000000" stroke="#000000" points="128.3264,-40.6212 118.7097,-36.1749 123.4547,-45.6478 128.3264,-40.6212"/>
<g id="a_edge8&#45;headlabel"><a xlink:href="dir_000184_000076.html" target="_top" xlink:title="5">
<text text-anchor="middle" x="132.8837" y="-38.584" font-family="Helvetica,sans-Serif" font-size="10.00" fill="#000000">5</text>
</a>
</g>
</g>
<!-- dir_9f55c9a2830777c8f60567e697ef38f1&#45;&gt;dir_f46c9d8bac432799f621aa951345f12b -->
<g id="edge9" class="edge">
<title>dir_9f55c9a2830777c8f60567e697ef38f1&#45;&gt;dir_f46c9d8bac432799f621aa951345f12b</title>
<path fill="none" stroke="#000000" d="M136.4953,-215.8314C136.2814,-208.131 136.0271,-198.9743 135.7894,-190.4166"/>
<polygon fill="#000000" stroke="#000000" points="139.2879,-190.3122 135.5115,-180.4133 132.2906,-190.5066 139.2879,-190.3122"/>
<g id="a_edge9&#45;headlabel"><a xlink:href="dir_000184_000189.html" target="_top" xlink:title="1">
<text text-anchor="middle" x="142.2258" y="-191.3266" font-family="Helvetica,sans-Serif" font-size="10.00" fill="#000000">1</text>
</a>
</g>
</g>
<!-- dir_9f55c9a2830777c8f60567e697ef38f1&#45;&gt;dir_b7a0e33b407baa23d8a077e33033c988 -->
<g id="edge10" class="edge">
<title>dir_9f55c9a2830777c8f60567e697ef38f1&#45;&gt;dir_b7a0e33b407baa23d8a077e33033c988</title>
<path fill="none" stroke="#000000" d="M117.822,-215.8314C108.6412,-207.1337 97.4994,-196.5783 87.5224,-187.1265"/>
<polygon fill="#000000" stroke="#000000" points="89.8385,-184.4995 80.1719,-180.1628 85.0243,-189.5811 89.8385,-184.4995"/>
<g id="a_edge10&#45;headlabel"><a xlink:href="dir_000184_000217.html" target="_top" xlink:title="4">
<text text-anchor="middle" x="94.4007" y="-182.4104" font-family="Helvetica,sans-Serif" font-size="10.00" fill="#000000">4</text>
</a>
</g>
</g>
<!-- dir_fc0178d6978c9fa2cad6ef3e048a60a7&#45;&gt;dir_a36da230f0956f48b11c85f7d599788f -->
<g id="edge1" class="edge">
<title>dir_fc0178d6978c9fa2cad6ef3e048a60a7&#45;&gt;dir_a36da230f0956f48b11c85f7d599788f</title>
<path fill="none" stroke="#000000" d="M92.0476,-71.8314C91.2972,-64.131 91.0763,-54.9743 91.3849,-46.4166"/>
<polygon fill="#000000" stroke="#000000" points="94.8792,-46.6161 92.024,-36.4133 87.8935,-46.1697 94.8792,-46.6161"/>
<g id="a_edge1&#45;headlabel"><a xlink:href="dir_000093_000076.html" target="_top" xlink:title="87">
<text text-anchor="middle" x="97.4836" y="-47.8844" font-family="Helvetica,sans-Serif" font-size="10.00" fill="#000000">87</text>
</a>
</g>
</g>
<!-- dir_a36da230f0956f48b11c85f7d599788f&#45;&gt;dir_fc0178d6978c9fa2cad6ef3e048a60a7 -->
<g id="edge6" class="edge">
<title>dir_a36da230f0956f48b11c85f7d599788f&#45;&gt;dir_fc0178d6978c9fa2cad6ef3e048a60a7</title>
<path fill="none" stroke="#000000" d="M103.976,-36.4133C104.7071,-44.0593 104.9203,-53.1084 104.6155,-61.5726"/>
<polygon fill="#000000" stroke="#000000" points="101.1048,-61.6264 103.9524,-71.8314 108.0902,-62.078 101.1048,-61.6264"/>
<g id="a_edge6&#45;headlabel"><a xlink:href="dir_000076_000093.html" target="_top" xlink:title="4">
<text text-anchor="middle" x="98.5032" y="-55.3562" font-family="Helvetica,sans-Serif" font-size="10.00" fill="#000000">4</text>
</a>
</g>
</g>
<!-- dir_f46c9d8bac432799f621aa951345f12b&#45;&gt;dir_fc0178d6978c9fa2cad6ef3e048a60a7 -->
<g id="edge11" class="edge">
<title>dir_f46c9d8bac432799f621aa951345f12b&#45;&gt;dir_fc0178d6978c9fa2cad6ef3e048a60a7</title>
<path fill="none" stroke="#000000" d="M125.6633,-143.8314C121.5757,-135.8771 116.6896,-126.369 112.1691,-117.5723"/>
<polygon fill="#000000" stroke="#000000" points="115.1461,-115.7078 107.4624,-108.4133 108.9201,-118.9074 115.1461,-115.7078"/>
<g id="a_edge11&#45;headlabel"><a xlink:href="dir_000189_000093.html" target="_top" xlink:title="4">
<text text-anchor="middle" x="119.3144" y="-115.1073" font-family="Helvetica,sans-Serif" font-size="10.00" fill="#000000">4</text>
</a>
</g>
</g>
<!-- dir_f46c9d8bac432799f621aa951345f12b&#45;&gt;dir_a36da230f0956f48b11c85f7d599788f -->
<g id="edge12" class="edge">
<title>dir_f46c9d8bac432799f621aa951345f12b&#45;&gt;dir_a36da230f0956f48b11c85f7d599788f</title>
<path fill="none" stroke="#000000" d="M137.7562,-143.9474C139.9055,-125.4374 141.424,-96.0375 134,-72 130.9894,-62.2521 125.6047,-52.6443 119.9021,-44.297"/>
<polygon fill="#000000" stroke="#000000" points="122.6482,-42.1223 113.9305,-36.1014 116.9907,-46.2447 122.6482,-42.1223"/>
<g id="a_edge12&#45;headlabel"><a xlink:href="dir_000189_000076.html" target="_top" xlink:title="12">
<text text-anchor="middle" x="127.0597" y="-40.8555" font-family="Helvetica,sans-Serif" font-size="10.00" fill="#000000">12</text>
</a>
</g>
</g>
<!-- dir_b7a0e33b407baa23d8a077e33033c988&#45;&gt;dir_fc0178d6978c9fa2cad6ef3e048a60a7 -->
<g id="edge13" class="edge">
<title>dir_b7a0e33b407baa23d8a077e33033c988&#45;&gt;dir_fc0178d6978c9fa2cad6ef3e048a60a7</title>
<path fill="none" stroke="#000000" d="M70.3367,-143.8314C74.4243,-135.8771 79.3104,-126.369 83.8309,-117.5723"/>
<polygon fill="#000000" stroke="#000000" points="87.0799,-118.9074 88.5376,-108.4133 80.8539,-115.7078 87.0799,-118.9074"/>
<g id="a_edge13&#45;headlabel"><a xlink:href="dir_000217_000093.html" target="_top" xlink:title="29">
<text text-anchor="middle" x="87.9623" y="-120.9022" font-family="Helvetica,sans-Serif" font-size="10.00" fill="#000000">29</text>
</a>
</g>
</g>
<!-- dir_b7a0e33b407baa23d8a077e33033c988&#45;&gt;dir_a36da230f0956f48b11c85f7d599788f -->
<g id="edge14" class="edge">
<title>dir_b7a0e33b407baa23d8a077e33033c988&#45;&gt;dir_a36da230f0956f48b11c85f7d599788f</title>
<path fill="none" stroke="#000000" d="M58.2438,-143.9474C56.0945,-125.4374 54.576,-96.0375 62,-72 65.0106,-62.2521 70.3953,-52.6443 76.0979,-44.297"/>
<polygon fill="#000000" stroke="#000000" points="79.0093,-46.2447 82.0695,-36.1014 73.3518,-42.1223 79.0093,-46.2447"/>
<g id="a_edge14&#45;headlabel"><a xlink:href="dir_000217_000076.html" target="_top" xlink:title="555">
<text text-anchor="middle" x="79.1872" y="-48.3219" font-family="Helvetica,sans-Serif" font-size="10.00" fill="#000000">555</text>
</a>
</g>
</g>
</g>
</svg>
