<?xml version="1.0" encoding="UTF-8" standalone="no"?>
<!DOCTYPE svg PUBLIC "-//W3C//DTD SVG 1.1//EN"
 "http://www.w3.org/Graphics/SVG/1.1/DTD/svg11.dtd">
<!-- Generated by graphviz version 2.40.1 (20161225.0304)
 -->
<!-- Title: drake/examples/schunk_wsg Pages: 1 -->
<svg width="204pt" height="375pt"
 viewBox="0.00 0.00 204.00 375.00" xmlns="http://www.w3.org/2000/svg" xmlns:xlink="http://www.w3.org/1999/xlink">
<g id="graph0" class="graph" transform="scale(1 1) rotate(0) translate(4 371)">
<title>drake/examples/schunk_wsg</title>
<polygon fill="#ffffff" stroke="transparent" points="-4,4 -4,-371 200,-371 200,4 -4,4"/>
<g id="clust1" class="cluster">
<title>clusterdir_bf85a0c13984f214f436b2edc519c6dd</title>
<g id="a_clust1"><a xlink:href="dir_bf85a0c13984f214f436b2edc519c6dd.html" target="_top" xlink:title="examples">
<polygon fill="#ddddee" stroke="#000000" points="8,-272 8,-359 188,-359 188,-272 8,-272"/>
<text text-anchor="middle" x="98" y="-347" font-family="Helvetica,sans-Serif" font-size="10.00" fill="#000000">examples</text>
</a>
</g>
</g>
<g id="clust2" class="cluster">
<title>clusterdir_baeec182b8ee0f2b5f25090600d98e1d</title>
<g id="a_clust2"><a xlink:href="dir_baeec182b8ee0f2b5f25090600d98e1d.html" target="_top">
<polygon fill="#eeeeff" stroke="#000000" points="16,-280 16,-332 180,-332 180,-280 16,-280"/>
</a>
</g>
</g>
<!-- dir_baeec182b8ee0f2b5f25090600d98e1d -->
<g id="node1" class="node">
<title>dir_baeec182b8ee0f2b5f25090600d98e1d</title>
<text text-anchor="middle" x="134" y="-303.5" font-family="Helvetica,sans-Serif" font-size="10.00" fill="#000000">schunk_wsg</text>
</g>
<!-- dir_3c3c25df5132fca4f15a988b4c2efab5 -->
<g id="node3" class="node">
<title>dir_3c3c25df5132fca4f15a988b4c2efab5</title>
<g id="a_node3"><a xlink:href="dir_3c3c25df5132fca4f15a988b4c2efab5.html" target="_top" xlink:title="lcm">
<polygon fill="#ffffff" stroke="#ff0000" points="143,-108 89,-108 89,-72 143,-72 143,-108"/>
<text text-anchor="middle" x="116" y="-87.5" font-family="Helvetica,sans-Serif" font-size="10.00" fill="#000000">lcm</text>
</a>
</g>
</g>
<!-- dir_baeec182b8ee0f2b5f25090600d98e1d&#45;&gt;dir_3c3c25df5132fca4f15a988b4c2efab5 -->
<g id="edge4" class="edge">
<title>dir_baeec182b8ee0f2b5f25090600d98e1d&#45;&gt;dir_3c3c25df5132fca4f15a988b4c2efab5</title>
<path fill="none" stroke="#000000" d="M144.4559,-287.6605C149.6458,-277.5026 155.3591,-264.4443 158,-252 161.7517,-234.3213 160.3953,-156.7216 156,-144 152.5711,-134.0755 146.6093,-124.4549 140.3193,-116.1513"/>
<polygon fill="#000000" stroke="#000000" points="143.006,-113.9073 134.0016,-108.3241 137.5589,-118.3039 143.006,-113.9073"/>
<g id="a_edge4&#45;headlabel"><a xlink:href="dir_000170_000179.html" target="_top" xlink:title="3">
<text text-anchor="middle" x="147.473" y="-112.4211" font-family="Helvetica,sans-Serif" font-size="10.00" fill="#000000">3</text>
</a>
</g>
</g>
<!-- dir_758aa030403a70af025108ac41d12d0d -->
<g id="node4" class="node">
<title>dir_758aa030403a70af025108ac41d12d0d</title>
<g id="a_node4"><a xlink:href="dir_758aa030403a70af025108ac41d12d0d.html" target="_top" xlink:title="manipulation">
<polygon fill="#ffffff" stroke="#ff0000" points="133.5,-252 52.5,-252 52.5,-216 133.5,-216 133.5,-252"/>
<text text-anchor="middle" x="93" y="-231.5" font-family="Helvetica,sans-Serif" font-size="10.00" fill="#000000">manipulation</text>
</a>
</g>
</g>
<!-- dir_baeec182b8ee0f2b5f25090600d98e1d&#45;&gt;dir_758aa030403a70af025108ac41d12d0d -->
<g id="edge5" class="edge">
<title>dir_baeec182b8ee0f2b5f25090600d98e1d&#45;&gt;dir_758aa030403a70af025108ac41d12d0d</title>
<path fill="none" stroke="#000000" d="M123.654,-287.8314C119.0763,-279.7925 113.5948,-270.1666 108.5412,-261.2918"/>
<polygon fill="#000000" stroke="#000000" points="111.4752,-259.3712 103.4853,-252.4133 105.3923,-262.8351 111.4752,-259.3712"/>
<g id="a_edge5&#45;headlabel"><a xlink:href="dir_000170_000005.html" target="_top" xlink:title="6">
<text text-anchor="middle" x="115.7212" y="-258.5899" font-family="Helvetica,sans-Serif" font-size="10.00" fill="#000000">6</text>
</a>
</g>
</g>
<!-- dir_a36da230f0956f48b11c85f7d599788f -->
<g id="node5" class="node">
<title>dir_a36da230f0956f48b11c85f7d599788f</title>
<g id="a_node5"><a xlink:href="dir_a36da230f0956f48b11c85f7d599788f.html" target="_top" xlink:title="common">
<polygon fill="#ffffff" stroke="#ff0000" points="145.5,-36 86.5,-36 86.5,0 145.5,0 145.5,-36"/>
<text text-anchor="middle" x="116" y="-15.5" font-family="Helvetica,sans-Serif" font-size="10.00" fill="#000000">common</text>
</a>
</g>
</g>
<!-- dir_baeec182b8ee0f2b5f25090600d98e1d&#45;&gt;dir_a36da230f0956f48b11c85f7d599788f -->
<g id="edge6" class="edge">
<title>dir_baeec182b8ee0f2b5f25090600d98e1d&#45;&gt;dir_a36da230f0956f48b11c85f7d599788f</title>
<path fill="none" stroke="#000000" d="M151.7108,-287.6517C159.8942,-277.8946 168.7304,-265.2041 173,-252 197.6272,-175.8383 198.6248,-145.5322 167,-72 162.4362,-61.3885 154.8218,-51.5914 146.8505,-43.3382"/>
<polygon fill="#000000" stroke="#000000" points="149.1214,-40.6648 139.5069,-36.2135 144.2471,-45.6889 149.1214,-40.6648"/>
<g id="a_edge6&#45;headlabel"><a xlink:href="dir_000170_000086.html" target="_top" xlink:title="7">
<text text-anchor="middle" x="153.6784" y="-38.6299" font-family="Helvetica,sans-Serif" font-size="10.00" fill="#000000">7</text>
</a>
</g>
</g>
<!-- dir_b7a0e33b407baa23d8a077e33033c988 -->
<g id="node6" class="node">
<title>dir_b7a0e33b407baa23d8a077e33033c988</title>
<g id="a_node6"><a xlink:href="dir_b7a0e33b407baa23d8a077e33033c988.html" target="_top" xlink:title="systems">
<polygon fill="#ffffff" stroke="#ff0000" points="147,-180 89,-180 89,-144 147,-144 147,-180"/>
<text text-anchor="middle" x="118" y="-159.5" font-family="Helvetica,sans-Serif" font-size="10.00" fill="#000000">systems</text>
</a>
</g>
</g>
<!-- dir_baeec182b8ee0f2b5f25090600d98e1d&#45;&gt;dir_b7a0e33b407baa23d8a077e33033c988 -->
<g id="edge7" class="edge">
<title>dir_baeec182b8ee0f2b5f25090600d98e1d&#45;&gt;dir_b7a0e33b407baa23d8a077e33033c988</title>
<path fill="none" stroke="#000000" d="M139.1276,-287.8748C143.5376,-269.5587 148.4042,-240.5366 143,-216 141.0195,-207.0081 137.3879,-197.7321 133.4949,-189.4596"/>
<polygon fill="#000000" stroke="#000000" points="136.5038,-187.6522 128.888,-180.2867 130.2484,-190.7939 136.5038,-187.6522"/>
<g id="a_edge7&#45;headlabel"><a xlink:href="dir_000170_000218.html" target="_top" xlink:title="18">
<text text-anchor="middle" x="140.6543" y="-187.0902" font-family="Helvetica,sans-Serif" font-size="10.00" fill="#000000">18</text>
</a>
</g>
</g>
<!-- dir_d8f0705f9b8c336420eb9aff18636e17 -->
<g id="node2" class="node">
<title>dir_d8f0705f9b8c336420eb9aff18636e17</title>
<g id="a_node2"><a xlink:href="dir_d8f0705f9b8c336420eb9aff18636e17.html" target="_top" xlink:title="test">
<polygon fill="#ffffff" stroke="#000000" points="78,-324 24,-324 24,-288 78,-288 78,-324"/>
<text text-anchor="middle" x="51" y="-303.5" font-family="Helvetica,sans-Serif" font-size="10.00" fill="#000000">test</text>
</a>
</g>
</g>
<!-- dir_d8f0705f9b8c336420eb9aff18636e17&#45;&gt;dir_3c3c25df5132fca4f15a988b4c2efab5 -->
<g id="edge8" class="edge">
<title>dir_d8f0705f9b8c336420eb9aff18636e17&#45;&gt;dir_3c3c25df5132fca4f15a988b4c2efab5</title>
<path fill="none" stroke="#000000" d="M42.2377,-287.8326C34.5788,-269.4837 25.7301,-240.4366 33,-216 44.4754,-177.4273 72.0702,-139.7724 92.304,-115.8257"/>
<polygon fill="#000000" stroke="#000000" points="94.961,-118.104 98.8498,-108.2487 89.6639,-113.5279 94.961,-118.104"/>
<g id="a_edge8&#45;headlabel"><a xlink:href="dir_000171_000179.html" target="_top" xlink:title="2">
<text text-anchor="middle" x="94.7596" y="-120.1803" font-family="Helvetica,sans-Serif" font-size="10.00" fill="#000000">2</text>
</a>
</g>
</g>
<!-- dir_d8f0705f9b8c336420eb9aff18636e17&#45;&gt;dir_758aa030403a70af025108ac41d12d0d -->
<g id="edge9" class="edge">
<title>dir_d8f0705f9b8c336420eb9aff18636e17&#45;&gt;dir_758aa030403a70af025108ac41d12d0d</title>
<path fill="none" stroke="#000000" d="M61.5984,-287.8314C66.2877,-279.7925 71.9028,-270.1666 77.0798,-261.2918"/>
<polygon fill="#000000" stroke="#000000" points="80.2434,-262.8146 82.2589,-252.4133 74.1969,-259.2875 80.2434,-262.8146"/>
<g id="a_edge9&#45;headlabel"><a xlink:href="dir_000171_000005.html" target="_top" xlink:title="3">
<text text-anchor="middle" x="80.8847" y="-264.8502" font-family="Helvetica,sans-Serif" font-size="10.00" fill="#000000">3</text>
</a>
</g>
</g>
<!-- dir_d8f0705f9b8c336420eb9aff18636e17&#45;&gt;dir_a36da230f0956f48b11c85f7d599788f -->
<g id="edge10" class="edge">
<title>dir_d8f0705f9b8c336420eb9aff18636e17&#45;&gt;dir_a36da230f0956f48b11c85f7d599788f</title>
<path fill="none" stroke="#000000" d="M40.5441,-287.6605C35.3542,-277.5026 29.6409,-264.4443 27,-252 23.6785,-236.3486 25.0451,-231.8801 27,-216 35.1609,-149.708 36.8189,-129.9677 70,-72 75.6563,-62.1184 83.2267,-52.3312 90.5909,-43.859"/>
<polygon fill="#000000" stroke="#000000" points="93.4196,-45.9486 97.5191,-36.179 88.222,-41.2598 93.4196,-45.9486"/>
<g id="a_edge10&#45;headlabel"><a xlink:href="dir_000171_000086.html" target="_top" xlink:title="5">
<text text-anchor="middle" x="93.1201" y="-48.0194" font-family="Helvetica,sans-Serif" font-size="10.00" fill="#000000">5</text>
</a>
</g>
</g>
<!-- dir_d8f0705f9b8c336420eb9aff18636e17&#45;&gt;dir_b7a0e33b407baa23d8a077e33033c988 -->
<g id="edge11" class="edge">
<title>dir_d8f0705f9b8c336420eb9aff18636e17&#45;&gt;dir_b7a0e33b407baa23d8a077e33033c988</title>
<path fill="none" stroke="#000000" d="M43.8701,-287.6564C37.6955,-268.6505 31.4145,-238.6177 43,-216 50.9355,-200.5081 65.6137,-188.4489 79.895,-179.6951"/>
<polygon fill="#000000" stroke="#000000" points="81.7323,-182.6763 88.672,-174.6706 78.2546,-176.6013 81.7323,-182.6763"/>
<g id="a_edge11&#45;headlabel"><a xlink:href="dir_000171_000218.html" target="_top" xlink:title="12">
<text text-anchor="middle" x="80.0233" y="-184.4262" font-family="Helvetica,sans-Serif" font-size="10.00" fill="#000000">12</text>
</a>
</g>
</g>
<!-- dir_3c3c25df5132fca4f15a988b4c2efab5&#45;&gt;dir_a36da230f0956f48b11c85f7d599788f -->
<g id="edge1" class="edge">
<title>dir_3c3c25df5132fca4f15a988b4c2efab5&#45;&gt;dir_a36da230f0956f48b11c85f7d599788f</title>
<path fill="none" stroke="#000000" d="M116,-71.8314C116,-64.131 116,-54.9743 116,-46.4166"/>
<polygon fill="#000000" stroke="#000000" points="119.5001,-46.4132 116,-36.4133 112.5001,-46.4133 119.5001,-46.4132"/>
<g id="a_edge1&#45;headlabel"><a xlink:href="dir_000179_000086.html" target="_top" xlink:title="24">
<text text-anchor="middle" x="122.3393" y="-47.5079" font-family="Helvetica,sans-Serif" font-size="10.00" fill="#000000">24</text>
</a>
</g>
</g>
<!-- dir_758aa030403a70af025108ac41d12d0d&#45;&gt;dir_a36da230f0956f48b11c85f7d599788f -->
<g id="edge2" class="edge">
<title>dir_758aa030403a70af025108ac41d12d0d&#45;&gt;dir_a36da230f0956f48b11c85f7d599788f</title>
<path fill="none" stroke="#000000" d="M87.2044,-215.5532C78.5457,-184.9876 64.7919,-122.2288 80,-72 82.9564,-62.2355 88.3252,-52.6229 94.03,-44.2762"/>
<polygon fill="#000000" stroke="#000000" points="96.9414,-46.2239 100.0095,-36.0831 91.2871,-42.0973 96.9414,-46.2239"/>
<g id="a_edge2&#45;headlabel"><a xlink:href="dir_000005_000086.html" target="_top" xlink:title="50">
<text text-anchor="middle" x="97.1158" y="-48.3013" font-family="Helvetica,sans-Serif" font-size="10.00" fill="#000000">50</text>
</a>
</g>
</g>
<!-- dir_758aa030403a70af025108ac41d12d0d&#45;&gt;dir_b7a0e33b407baa23d8a077e33033c988 -->
<g id="edge3" class="edge">
<title>dir_758aa030403a70af025108ac41d12d0d&#45;&gt;dir_b7a0e33b407baa23d8a077e33033c988</title>
<path fill="none" stroke="#000000" d="M99.3086,-215.8314C102.0117,-208.0463 105.2316,-198.7729 108.231,-190.1347"/>
<polygon fill="#000000" stroke="#000000" points="111.6327,-191.0081 111.6065,-180.4133 105.02,-188.7119 111.6327,-191.0081"/>
<g id="a_edge3&#45;headlabel"><a xlink:href="dir_000005_000218.html" target="_top" xlink:title="41">
<text text-anchor="middle" x="113.1359" y="-192.8351" font-family="Helvetica,sans-Serif" font-size="10.00" fill="#000000">41</text>
</a>
</g>
</g>
<!-- dir_b7a0e33b407baa23d8a077e33033c988&#45;&gt;dir_3c3c25df5132fca4f15a988b4c2efab5 -->
<g id="edge12" class="edge">
<title>dir_b7a0e33b407baa23d8a077e33033c988&#45;&gt;dir_3c3c25df5132fca4f15a988b4c2efab5</title>
<path fill="none" stroke="#000000" d="M117.4953,-143.8314C117.2814,-136.131 117.0271,-126.9743 116.7894,-118.4166"/>
<polygon fill="#000000" stroke="#000000" points="120.2879,-118.3122 116.5115,-108.4133 113.2906,-118.5066 120.2879,-118.3122"/>
<g id="a_edge12&#45;headlabel"><a xlink:href="dir_000218_000179.html" target="_top" xlink:title="18">
<text text-anchor="middle" x="123.2258" y="-119.3266" font-family="Helvetica,sans-Serif" font-size="10.00" fill="#000000">18</text>
</a>
</g>
</g>
<!-- dir_b7a0e33b407baa23d8a077e33033c988&#45;&gt;dir_a36da230f0956f48b11c85f7d599788f -->
<g id="edge13" class="edge">
<title>dir_b7a0e33b407baa23d8a077e33033c988&#45;&gt;dir_a36da230f0956f48b11c85f7d599788f</title>
<path fill="none" stroke="#000000" d="M133.114,-143.7768C140.3549,-133.8586 148.2524,-120.9858 152,-108 156.4365,-92.6274 156.6365,-87.3135 152,-72 149.0436,-62.2355 143.6748,-52.6229 137.97,-44.2762"/>
<polygon fill="#000000" stroke="#000000" points="140.7129,-42.0973 131.9905,-36.0831 135.0586,-46.2239 140.7129,-42.0973"/>
<g id="a_edge13&#45;headlabel"><a xlink:href="dir_000218_000086.html" target="_top" xlink:title="542">
<text text-anchor="middle" x="145.1253" y="-40.827" font-family="Helvetica,sans-Serif" font-size="10.00" fill="#000000">542</text>
</a>
</g>
</g>
</g>
</svg>
