<?xml version="1.0" encoding="UTF-8" standalone="no"?>
<!DOCTYPE svg PUBLIC "-//W3C//DTD SVG 1.1//EN"
 "http://www.w3.org/Graphics/SVG/1.1/DTD/svg11.dtd">
<!-- Generated by graphviz version 2.40.1 (20161225.0304)
 -->
<!-- Title: drake/attic/multibody/test/rigid_body_tree Pages: 1 -->
<svg width="196pt" height="367pt"
 viewBox="0.00 0.00 196.00 367.00" xmlns="http://www.w3.org/2000/svg" xmlns:xlink="http://www.w3.org/1999/xlink">
<g id="graph0" class="graph" transform="scale(1 1) rotate(0) translate(4 363)">
<title>drake/attic/multibody/test/rigid_body_tree</title>
<polygon fill="#ffffff" stroke="transparent" points="-4,4 -4,-363 192,-363 192,4 -4,4"/>
<g id="clust1" class="cluster">
<title>clusterdir_997fb824b57ab7409830b83b5e22fa5f</title>
<g id="a_clust1"><a xlink:href="dir_997fb824b57ab7409830b83b5e22fa5f.html" target="_top" xlink:title="test">
<polygon fill="#ddddee" stroke="#000000" points="8,-280 8,-351 116,-351 116,-280 8,-280"/>
<text text-anchor="middle" x="62" y="-339" font-family="Helvetica,sans-Serif" font-size="10.00" fill="#000000">test</text>
</a>
</g>
</g>
<!-- dir_a50802d246c43be950f8c77ecaf5ad41 -->
<g id="node1" class="node">
<title>dir_a50802d246c43be950f8c77ecaf5ad41</title>
<g id="a_node1"><a xlink:href="dir_a50802d246c43be950f8c77ecaf5ad41.html" target="_top" xlink:title="rigid_body_tree">
<polygon fill="#eeeeff" stroke="#000000" points="108,-324 16,-324 16,-288 108,-288 108,-324"/>
<text text-anchor="middle" x="62" y="-303.5" font-family="Helvetica,sans-Serif" font-size="10.00" fill="#000000">rigid_body_tree</text>
</a>
</g>
</g>
<!-- dir_39b8b3c6654246a9c12332c930bc7d3f -->
<g id="node2" class="node">
<title>dir_39b8b3c6654246a9c12332c930bc7d3f</title>
<g id="a_node2"><a xlink:href="dir_39b8b3c6654246a9c12332c930bc7d3f.html" target="_top" xlink:title="multibody">
<polygon fill="#ffffff" stroke="#ff0000" points="131,-252 65,-252 65,-216 131,-216 131,-252"/>
<text text-anchor="middle" x="98" y="-231.5" font-family="Helvetica,sans-Serif" font-size="10.00" fill="#000000">multibody</text>
</a>
</g>
</g>
<!-- dir_a50802d246c43be950f8c77ecaf5ad41&#45;&gt;dir_39b8b3c6654246a9c12332c930bc7d3f -->
<g id="edge5" class="edge">
<title>dir_a50802d246c43be950f8c77ecaf5ad41&#45;&gt;dir_39b8b3c6654246a9c12332c930bc7d3f</title>
<path fill="none" stroke="#000000" d="M71.0843,-287.8314C75.0615,-279.8771 79.8155,-270.369 84.2139,-261.5723"/>
<polygon fill="#000000" stroke="#000000" points="87.4517,-262.9228 88.7934,-252.4133 81.1907,-259.7923 87.4517,-262.9228"/>
<g id="a_edge5&#45;headlabel"><a xlink:href="dir_000029_000014.html" target="_top" xlink:title="1">
<text text-anchor="middle" x="88.3837" y="-264.9077" font-family="Helvetica,sans-Serif" font-size="10.00" fill="#000000">1</text>
</a>
</g>
</g>
<!-- dir_fc0178d6978c9fa2cad6ef3e048a60a7 -->
<g id="node3" class="node">
<title>dir_fc0178d6978c9fa2cad6ef3e048a60a7</title>
<g id="a_node3"><a xlink:href="dir_fc0178d6978c9fa2cad6ef3e048a60a7.html" target="_top" xlink:title="math">
<polygon fill="#ffffff" stroke="#ff0000" points="74,-108 20,-108 20,-72 74,-72 74,-108"/>
<text text-anchor="middle" x="47" y="-87.5" font-family="Helvetica,sans-Serif" font-size="10.00" fill="#000000">math</text>
</a>
</g>
</g>
<!-- dir_a50802d246c43be950f8c77ecaf5ad41&#45;&gt;dir_fc0178d6978c9fa2cad6ef3e048a60a7 -->
<g id="edge6" class="edge">
<title>dir_a50802d246c43be950f8c77ecaf5ad41&#45;&gt;dir_fc0178d6978c9fa2cad6ef3e048a60a7</title>
<path fill="none" stroke="#000000" d="M59.6927,-287.5302C58.4552,-277.1107 56.9863,-263.8442 56,-252 52.0939,-205.0904 49.4524,-150.3934 48.0889,-118.0645"/>
<polygon fill="#000000" stroke="#000000" points="51.5831,-117.8497 47.6755,-108.0018 44.589,-118.1371 51.5831,-117.8497"/>
<g id="a_edge6&#45;headlabel"><a xlink:href="dir_000029_000093.html" target="_top" xlink:title="4">
<text text-anchor="middle" x="54.5675" y="-118.8248" font-family="Helvetica,sans-Serif" font-size="10.00" fill="#000000">4</text>
</a>
</g>
</g>
<!-- dir_a36da230f0956f48b11c85f7d599788f -->
<g id="node4" class="node">
<title>dir_a36da230f0956f48b11c85f7d599788f</title>
<g id="a_node4"><a xlink:href="dir_a36da230f0956f48b11c85f7d599788f.html" target="_top" xlink:title="common">
<polygon fill="#ffffff" stroke="#ff0000" points="76.5,-36 17.5,-36 17.5,0 76.5,0 76.5,-36"/>
<text text-anchor="middle" x="47" y="-15.5" font-family="Helvetica,sans-Serif" font-size="10.00" fill="#000000">common</text>
</a>
</g>
</g>
<!-- dir_a50802d246c43be950f8c77ecaf5ad41&#45;&gt;dir_a36da230f0956f48b11c85f7d599788f -->
<g id="edge7" class="edge">
<title>dir_a50802d246c43be950f8c77ecaf5ad41&#45;&gt;dir_a36da230f0956f48b11c85f7d599788f</title>
<path fill="none" stroke="#000000" d="M55.6377,-287.74C43.9715,-253.1818 19.568,-175.6135 11,-108 8.9886,-92.1269 6.3635,-87.3135 11,-72 13.9564,-62.2355 19.3252,-52.6229 25.03,-44.2762"/>
<polygon fill="#000000" stroke="#000000" points="27.9414,-46.2239 31.0095,-36.0831 22.2871,-42.0973 27.9414,-46.2239"/>
<g id="a_edge7&#45;headlabel"><a xlink:href="dir_000029_000076.html" target="_top" xlink:title="30">
<text text-anchor="middle" x="28.1158" y="-48.3013" font-family="Helvetica,sans-Serif" font-size="10.00" fill="#000000">30</text>
</a>
</g>
</g>
<!-- dir_b7a0e33b407baa23d8a077e33033c988 -->
<g id="node5" class="node">
<title>dir_b7a0e33b407baa23d8a077e33033c988</title>
<g id="a_node5"><a xlink:href="dir_b7a0e33b407baa23d8a077e33033c988.html" target="_top" xlink:title="systems">
<polygon fill="#ffffff" stroke="#ff0000" points="188,-180 130,-180 130,-144 188,-144 188,-180"/>
<text text-anchor="middle" x="159" y="-159.5" font-family="Helvetica,sans-Serif" font-size="10.00" fill="#000000">systems</text>
</a>
</g>
</g>
<!-- dir_a50802d246c43be950f8c77ecaf5ad41&#45;&gt;dir_b7a0e33b407baa23d8a077e33033c988 -->
<g id="edge8" class="edge">
<title>dir_a50802d246c43be950f8c77ecaf5ad41&#45;&gt;dir_b7a0e33b407baa23d8a077e33033c988</title>
<path fill="none" stroke="#000000" d="M99.7892,-287.8215C114.4461,-278.9597 130.0619,-266.9508 140,-252 152.1761,-233.6823 156.7501,-209.023 158.3775,-190.1484"/>
<polygon fill="#000000" stroke="#000000" points="161.8769,-190.2678 159.0194,-180.0656 154.8911,-189.823 161.8769,-190.2678"/>
<g id="a_edge8&#45;headlabel"><a xlink:href="dir_000029_000217.html" target="_top" xlink:title="7">
<text text-anchor="middle" x="164.4822" y="-191.5355" font-family="Helvetica,sans-Serif" font-size="10.00" fill="#000000">7</text>
</a>
</g>
</g>
<!-- dir_39b8b3c6654246a9c12332c930bc7d3f&#45;&gt;dir_fc0178d6978c9fa2cad6ef3e048a60a7 -->
<g id="edge1" class="edge">
<title>dir_39b8b3c6654246a9c12332c930bc7d3f&#45;&gt;dir_fc0178d6978c9fa2cad6ef3e048a60a7</title>
<path fill="none" stroke="#000000" d="M91.5408,-215.7623C82.7654,-190.9846 67.0003,-146.4714 56.7728,-117.5939"/>
<polygon fill="#000000" stroke="#000000" points="60.0445,-116.3474 53.4067,-108.0896 53.4461,-118.6844 60.0445,-116.3474"/>
<g id="a_edge1&#45;headlabel"><a xlink:href="dir_000014_000093.html" target="_top" xlink:title="86">
<text text-anchor="middle" x="63.9208" y="-116.2879" font-family="Helvetica,sans-Serif" font-size="10.00" fill="#000000">86</text>
</a>
</g>
</g>
<!-- dir_39b8b3c6654246a9c12332c930bc7d3f&#45;&gt;dir_a36da230f0956f48b11c85f7d599788f -->
<g id="edge2" class="edge">
<title>dir_39b8b3c6654246a9c12332c930bc7d3f&#45;&gt;dir_a36da230f0956f48b11c85f7d599788f</title>
<path fill="none" stroke="#000000" d="M99.159,-215.8894C100.5035,-185.2818 100.6226,-121.7922 83,-72 79.5961,-62.3824 74.0964,-52.8127 68.4093,-44.4602"/>
<polygon fill="#000000" stroke="#000000" points="71.1784,-42.316 62.4949,-36.2457 65.4976,-46.4061 71.1784,-42.316"/>
<g id="a_edge2&#45;headlabel"><a xlink:href="dir_000014_000076.html" target="_top" xlink:title="313">
<text text-anchor="middle" x="75.5828" y="-41.0742" font-family="Helvetica,sans-Serif" font-size="10.00" fill="#000000">313</text>
</a>
</g>
</g>
<!-- dir_39b8b3c6654246a9c12332c930bc7d3f&#45;&gt;dir_b7a0e33b407baa23d8a077e33033c988 -->
<g id="edge3" class="edge">
<title>dir_39b8b3c6654246a9c12332c930bc7d3f&#45;&gt;dir_b7a0e33b407baa23d8a077e33033c988</title>
<path fill="none" stroke="#000000" d="M107.4405,-215.8314C113.785,-207.3694 122.2588,-197.1489 130.5514,-187.8971"/>
<polygon fill="#000000" stroke="#000000" points="133.238,-190.1462 137.4239,-180.4133 128.0821,-185.4115 133.238,-190.1462"/>
<g id="a_edge3&#45;headlabel"><a xlink:href="dir_000014_000217.html" target="_top" xlink:title="78">
<text text-anchor="middle" x="132.8979" y="-192.2142" font-family="Helvetica,sans-Serif" font-size="10.00" fill="#000000">78</text>
</a>
</g>
</g>
<!-- dir_fc0178d6978c9fa2cad6ef3e048a60a7&#45;&gt;dir_a36da230f0956f48b11c85f7d599788f -->
<g id="edge4" class="edge">
<title>dir_fc0178d6978c9fa2cad6ef3e048a60a7&#45;&gt;dir_a36da230f0956f48b11c85f7d599788f</title>
<path fill="none" stroke="#000000" d="M41.0476,-71.8314C40.2972,-64.131 40.0763,-54.9743 40.3849,-46.4166"/>
<polygon fill="#000000" stroke="#000000" points="43.8792,-46.6161 41.024,-36.4133 36.8935,-46.1697 43.8792,-46.6161"/>
<g id="a_edge4&#45;headlabel"><a xlink:href="dir_000093_000076.html" target="_top" xlink:title="87">
<text text-anchor="middle" x="46.4836" y="-47.8844" font-family="Helvetica,sans-Serif" font-size="10.00" fill="#000000">87</text>
</a>
</g>
</g>
<!-- dir_a36da230f0956f48b11c85f7d599788f&#45;&gt;dir_fc0178d6978c9fa2cad6ef3e048a60a7 -->
<g id="edge9" class="edge">
<title>dir_a36da230f0956f48b11c85f7d599788f&#45;&gt;dir_fc0178d6978c9fa2cad6ef3e048a60a7</title>
<path fill="none" stroke="#000000" d="M52.976,-36.4133C53.7071,-44.0593 53.9203,-53.1084 53.6155,-61.5726"/>
<polygon fill="#000000" stroke="#000000" points="50.1048,-61.6264 52.9524,-71.8314 57.0902,-62.078 50.1048,-61.6264"/>
<g id="a_edge9&#45;headlabel"><a xlink:href="dir_000076_000093.html" target="_top" xlink:title="4">
<text text-anchor="middle" x="47.5032" y="-55.3562" font-family="Helvetica,sans-Serif" font-size="10.00" fill="#000000">4</text>
</a>
</g>
</g>
<!-- dir_b7a0e33b407baa23d8a077e33033c988&#45;&gt;dir_39b8b3c6654246a9c12332c930bc7d3f -->
<g id="edge10" class="edge">
<title>dir_b7a0e33b407baa23d8a077e33033c988&#45;&gt;dir_39b8b3c6654246a9c12332c930bc7d3f</title>
<path fill="none" stroke="#000000" d="M149.3759,-180.4133C142.9906,-188.9088 134.4983,-199.1366 126.2094,-208.3696"/>
<polygon fill="#000000" stroke="#000000" points="123.5396,-206.1021 119.3453,-215.8314 128.6914,-210.8412 123.5396,-206.1021"/>
<g id="a_edge10&#45;headlabel"><a xlink:href="dir_000217_000014.html" target="_top" xlink:title="15">
<text text-anchor="middle" x="123.8835" y="-199.0344" font-family="Helvetica,sans-Serif" font-size="10.00" fill="#000000">15</text>
</a>
</g>
</g>
<!-- dir_b7a0e33b407baa23d8a077e33033c988&#45;&gt;dir_fc0178d6978c9fa2cad6ef3e048a60a7 -->
<g id="edge11" class="edge">
<title>dir_b7a0e33b407baa23d8a077e33033c988&#45;&gt;dir_fc0178d6978c9fa2cad6ef3e048a60a7</title>
<path fill="none" stroke="#000000" d="M130.7377,-143.8314C116.2198,-134.4984 98.3745,-123.0264 82.8932,-113.0742"/>
<polygon fill="#000000" stroke="#000000" points="84.3987,-109.8812 74.0942,-107.4177 80.6134,-115.7695 84.3987,-109.8812"/>
<g id="a_edge11&#45;headlabel"><a xlink:href="dir_000217_000093.html" target="_top" xlink:title="27">
<text text-anchor="middle" x="88.9577" y="-106.9366" font-family="Helvetica,sans-Serif" font-size="10.00" fill="#000000">27</text>
</a>
</g>
</g>
<!-- dir_b7a0e33b407baa23d8a077e33033c988&#45;&gt;dir_a36da230f0956f48b11c85f7d599788f -->
<g id="edge12" class="edge">
<title>dir_b7a0e33b407baa23d8a077e33033c988&#45;&gt;dir_a36da230f0956f48b11c85f7d599788f</title>
<path fill="none" stroke="#000000" d="M153.0928,-143.7131C146.2679,-124.4821 133.6657,-94.0148 116,-72 107.1238,-60.9386 95.5609,-50.7718 84.4456,-42.315"/>
<polygon fill="#000000" stroke="#000000" points="86.2213,-39.2774 76.0847,-36.195 82.0866,-44.9258 86.2213,-39.2774"/>
<g id="a_edge12&#45;headlabel"><a xlink:href="dir_000217_000076.html" target="_top" xlink:title="541">
<text text-anchor="middle" x="90.7989" y="-36.6095" font-family="Helvetica,sans-Serif" font-size="10.00" fill="#000000">541</text>
</a>
</g>
</g>
</g>
</svg>
