<?xml version="1.0" encoding="UTF-8" standalone="no"?>
<!DOCTYPE svg PUBLIC "-//W3C//DTD SVG 1.1//EN"
 "http://www.w3.org/Graphics/SVG/1.1/DTD/svg11.dtd">
<!-- Generated by graphviz version 2.40.1 (20161225.0304)
 -->
<!-- Title: drake/automotive/maliput/simple_phase_provider Pages: 1 -->
<svg width="258pt" height="231pt"
 viewBox="0.00 0.00 258.00 231.00" xmlns="http://www.w3.org/2000/svg" xmlns:xlink="http://www.w3.org/1999/xlink">
<g id="graph0" class="graph" transform="scale(1 1) rotate(0) translate(4 227)">
<title>drake/automotive/maliput/simple_phase_provider</title>
<polygon fill="#ffffff" stroke="transparent" points="-4,4 -4,-227 254,-227 254,4 -4,4"/>
<g id="clust1" class="cluster">
<title>clusterdir_4d30b6eba57ad73dabd3ccac6b6f05d2</title>
<g id="a_clust1"><a xlink:href="dir_4d30b6eba57ad73dabd3ccac6b6f05d2.html" target="_top" xlink:title="maliput">
<polygon fill="#ddddee" stroke="#000000" points="8,-128 8,-215 242,-215 242,-128 8,-128"/>
<text text-anchor="middle" x="125" y="-203" font-family="Helvetica,sans-Serif" font-size="10.00" fill="#000000">maliput</text>
</a>
</g>
</g>
<g id="clust2" class="cluster">
<title>clusterdir_b09cf36c46aa730c4fad4b308f085235</title>
<g id="a_clust2"><a xlink:href="dir_b09cf36c46aa730c4fad4b308f085235.html" target="_top">
<polygon fill="#eeeeff" stroke="#000000" points="16,-136 16,-188 234,-188 234,-136 16,-136"/>
</a>
</g>
</g>
<!-- dir_b09cf36c46aa730c4fad4b308f085235 -->
<g id="node1" class="node">
<title>dir_b09cf36c46aa730c4fad4b308f085235</title>
<text text-anchor="middle" x="89" y="-159.5" font-family="Helvetica,sans-Serif" font-size="10.00" fill="#000000">simple_phase_provider</text>
</g>
<!-- dir_290e30af7c6be28b7d4b4743ddbbaf94 -->
<g id="node3" class="node">
<title>dir_290e30af7c6be28b7d4b4743ddbbaf94</title>
<g id="a_node3"><a xlink:href="dir_290e30af7c6be28b7d4b4743ddbbaf94.html" target="_top" xlink:title="api">
<polygon fill="#ffffff" stroke="#ff0000" points="171,-108 117,-108 117,-72 171,-72 171,-108"/>
<text text-anchor="middle" x="144" y="-87.5" font-family="Helvetica,sans-Serif" font-size="10.00" fill="#000000">api</text>
</a>
</g>
</g>
<!-- dir_b09cf36c46aa730c4fad4b308f085235&#45;&gt;dir_290e30af7c6be28b7d4b4743ddbbaf94 -->
<g id="edge3" class="edge">
<title>dir_b09cf36c46aa730c4fad4b308f085235&#45;&gt;dir_290e30af7c6be28b7d4b4743ddbbaf94</title>
<path fill="none" stroke="#000000" d="M102.8788,-143.8314C109.2136,-135.5386 116.8384,-125.557 123.7926,-116.4533"/>
<polygon fill="#000000" stroke="#000000" points="126.6452,-118.4847 129.9343,-108.4133 121.0825,-114.2353 126.6452,-118.4847"/>
<g id="a_edge3&#45;headlabel"><a xlink:href="dir_000070_000053.html" target="_top" xlink:title="7">
<text text-anchor="middle" x="126.7195" y="-120.5647" font-family="Helvetica,sans-Serif" font-size="10.00" fill="#000000">7</text>
</a>
</g>
</g>
<!-- dir_a36da230f0956f48b11c85f7d599788f -->
<g id="node4" class="node">
<title>dir_a36da230f0956f48b11c85f7d599788f</title>
<g id="a_node4"><a xlink:href="dir_a36da230f0956f48b11c85f7d599788f.html" target="_top" xlink:title="common">
<polygon fill="#ffffff" stroke="#ff0000" points="173.5,-36 114.5,-36 114.5,0 173.5,0 173.5,-36"/>
<text text-anchor="middle" x="144" y="-15.5" font-family="Helvetica,sans-Serif" font-size="10.00" fill="#000000">common</text>
</a>
</g>
</g>
<!-- dir_b09cf36c46aa730c4fad4b308f085235&#45;&gt;dir_a36da230f0956f48b11c85f7d599788f -->
<g id="edge4" class="edge">
<title>dir_b09cf36c46aa730c4fad4b308f085235&#45;&gt;dir_a36da230f0956f48b11c85f7d599788f</title>
<path fill="none" stroke="#000000" d="M90.7905,-143.8083C93.0888,-125.1875 98.0345,-95.7008 108,-72 111.9544,-62.5953 117.6152,-53.0879 123.2805,-44.727"/>
<polygon fill="#000000" stroke="#000000" points="126.1959,-46.6664 129.1147,-36.4815 120.4816,-42.6231 126.1959,-46.6664"/>
<g id="a_edge4&#45;headlabel"><a xlink:href="dir_000070_000077.html" target="_top" xlink:title="4">
<text text-anchor="middle" x="126.4374" y="-48.7406" font-family="Helvetica,sans-Serif" font-size="10.00" fill="#000000">4</text>
</a>
</g>
</g>
<!-- dir_3ec1aece3dc28bbaa134801c5b08c4e5 -->
<g id="node2" class="node">
<title>dir_3ec1aece3dc28bbaa134801c5b08c4e5</title>
<g id="a_node2"><a xlink:href="dir_3ec1aece3dc28bbaa134801c5b08c4e5.html" target="_top" xlink:title="test">
<polygon fill="#ffffff" stroke="#000000" points="226,-180 172,-180 172,-144 226,-144 226,-180"/>
<text text-anchor="middle" x="199" y="-159.5" font-family="Helvetica,sans-Serif" font-size="10.00" fill="#000000">test</text>
</a>
</g>
</g>
<!-- dir_3ec1aece3dc28bbaa134801c5b08c4e5&#45;&gt;dir_290e30af7c6be28b7d4b4743ddbbaf94 -->
<g id="edge1" class="edge">
<title>dir_3ec1aece3dc28bbaa134801c5b08c4e5&#45;&gt;dir_290e30af7c6be28b7d4b4743ddbbaf94</title>
<path fill="none" stroke="#000000" d="M185.1212,-143.8314C178.7864,-135.5386 171.1616,-125.557 164.2074,-116.4533"/>
<polygon fill="#000000" stroke="#000000" points="166.9175,-114.2353 158.0657,-108.4133 161.3548,-118.4847 166.9175,-114.2353"/>
<g id="a_edge1&#45;headlabel"><a xlink:href="dir_000071_000053.html" target="_top" xlink:title="4">
<text text-anchor="middle" x="171.3558" y="-112.8683" font-family="Helvetica,sans-Serif" font-size="10.00" fill="#000000">4</text>
</a>
</g>
</g>
<!-- dir_3ec1aece3dc28bbaa134801c5b08c4e5&#45;&gt;dir_a36da230f0956f48b11c85f7d599788f -->
<g id="edge2" class="edge">
<title>dir_3ec1aece3dc28bbaa134801c5b08c4e5&#45;&gt;dir_a36da230f0956f48b11c85f7d599788f</title>
<path fill="none" stroke="#000000" d="M197.2095,-143.8083C194.9112,-125.1875 189.9655,-95.7008 180,-72 176.0456,-62.5953 170.3848,-53.0879 164.7195,-44.727"/>
<polygon fill="#000000" stroke="#000000" points="167.5184,-42.6231 158.8853,-36.4815 161.8041,-46.6664 167.5184,-42.6231"/>
<g id="a_edge2&#45;headlabel"><a xlink:href="dir_000071_000077.html" target="_top" xlink:title="1">
<text text-anchor="middle" x="171.9124" y="-41.4175" font-family="Helvetica,sans-Serif" font-size="10.00" fill="#000000">1</text>
</a>
</g>
</g>
<!-- dir_290e30af7c6be28b7d4b4743ddbbaf94&#45;&gt;dir_a36da230f0956f48b11c85f7d599788f -->
<g id="edge5" class="edge">
<title>dir_290e30af7c6be28b7d4b4743ddbbaf94&#45;&gt;dir_a36da230f0956f48b11c85f7d599788f</title>
<path fill="none" stroke="#000000" d="M144,-71.8314C144,-64.131 144,-54.9743 144,-46.4166"/>
<polygon fill="#000000" stroke="#000000" points="147.5001,-46.4132 144,-36.4133 140.5001,-46.4133 147.5001,-46.4132"/>
<g id="a_edge5&#45;headlabel"><a xlink:href="dir_000053_000077.html" target="_top" xlink:title="42">
<text text-anchor="middle" x="150.3393" y="-47.5079" font-family="Helvetica,sans-Serif" font-size="10.00" fill="#000000">42</text>
</a>
</g>
</g>
</g>
</svg>
