<?xml version="1.0" encoding="UTF-8" standalone="no"?>
<!DOCTYPE svg PUBLIC "-//W3C//DTD SVG 1.1//EN"
 "http://www.w3.org/Graphics/SVG/1.1/DTD/svg11.dtd">
<!-- Generated by graphviz version 2.40.1 (20161225.0304)
 -->
<!-- Title: drake/attic/systems/controllers/test Pages: 1 -->
<svg width="137pt" height="295pt"
 viewBox="0.00 0.00 137.00 295.00" xmlns="http://www.w3.org/2000/svg" xmlns:xlink="http://www.w3.org/1999/xlink">
<g id="graph0" class="graph" transform="scale(1 1) rotate(0) translate(4 291)">
<title>drake/attic/systems/controllers/test</title>
<polygon fill="#ffffff" stroke="transparent" points="-4,4 -4,-291 133,-291 133,4 -4,4"/>
<g id="clust1" class="cluster">
<title>clusterdir_7c1b323f24d1f5ce045fdefb42774691</title>
<g id="a_clust1"><a xlink:href="dir_7c1b323f24d1f5ce045fdefb42774691.html" target="_top" xlink:title="controllers">
<polygon fill="#ddddee" stroke="#000000" points="8,-208 8,-279 78,-279 78,-208 8,-208"/>
<text text-anchor="middle" x="43" y="-267" font-family="Helvetica,sans-Serif" font-size="10.00" fill="#000000">controllers</text>
</a>
</g>
</g>
<!-- dir_555819b4608177955f0da6e7cceb9779 -->
<g id="node1" class="node">
<title>dir_555819b4608177955f0da6e7cceb9779</title>
<g id="a_node1"><a xlink:href="dir_555819b4608177955f0da6e7cceb9779.html" target="_top" xlink:title="test">
<polygon fill="#eeeeff" stroke="#000000" points="70,-252 16,-252 16,-216 70,-216 70,-252"/>
<text text-anchor="middle" x="43" y="-231.5" font-family="Helvetica,sans-Serif" font-size="10.00" fill="#000000">test</text>
</a>
</g>
</g>
<!-- dir_fc0178d6978c9fa2cad6ef3e048a60a7 -->
<g id="node2" class="node">
<title>dir_fc0178d6978c9fa2cad6ef3e048a60a7</title>
<g id="a_node2"><a xlink:href="dir_fc0178d6978c9fa2cad6ef3e048a60a7.html" target="_top" xlink:title="math">
<polygon fill="#ffffff" stroke="#ff0000" points="80,-108 26,-108 26,-72 80,-72 80,-108"/>
<text text-anchor="middle" x="53" y="-87.5" font-family="Helvetica,sans-Serif" font-size="10.00" fill="#000000">math</text>
</a>
</g>
</g>
<!-- dir_555819b4608177955f0da6e7cceb9779&#45;&gt;dir_fc0178d6978c9fa2cad6ef3e048a60a7 -->
<g id="edge1" class="edge">
<title>dir_555819b4608177955f0da6e7cceb9779&#45;&gt;dir_fc0178d6978c9fa2cad6ef3e048a60a7</title>
<path fill="none" stroke="#000000" d="M44.2665,-215.7623C45.9721,-191.201 49.0245,-147.2474 51.031,-118.3541"/>
<polygon fill="#000000" stroke="#000000" points="54.5425,-118.3081 51.7438,-108.0896 47.5593,-117.8231 54.5425,-118.3081"/>
<g id="a_edge1&#45;headlabel"><a xlink:href="dir_000040_000095.html" target="_top" xlink:title="1">
<text text-anchor="middle" x="57.126" y="-119.5907" font-family="Helvetica,sans-Serif" font-size="10.00" fill="#000000">1</text>
</a>
</g>
</g>
<!-- dir_a36da230f0956f48b11c85f7d599788f -->
<g id="node3" class="node">
<title>dir_a36da230f0956f48b11c85f7d599788f</title>
<g id="a_node3"><a xlink:href="dir_a36da230f0956f48b11c85f7d599788f.html" target="_top" xlink:title="common">
<polygon fill="#ffffff" stroke="#ff0000" points="82.5,-36 23.5,-36 23.5,0 82.5,0 82.5,-36"/>
<text text-anchor="middle" x="53" y="-15.5" font-family="Helvetica,sans-Serif" font-size="10.00" fill="#000000">common</text>
</a>
</g>
</g>
<!-- dir_555819b4608177955f0da6e7cceb9779&#45;&gt;dir_a36da230f0956f48b11c85f7d599788f -->
<g id="edge2" class="edge">
<title>dir_555819b4608177955f0da6e7cceb9779&#45;&gt;dir_a36da230f0956f48b11c85f7d599788f</title>
<path fill="none" stroke="#000000" d="M34.7874,-215.6609C22.3289,-185.2499 1.6467,-122.7086 17,-72 19.9564,-62.2355 25.3252,-52.6229 31.03,-44.2762"/>
<polygon fill="#000000" stroke="#000000" points="33.9414,-46.2239 37.0095,-36.0831 28.2871,-42.0973 33.9414,-46.2239"/>
<g id="a_edge2&#45;headlabel"><a xlink:href="dir_000040_000078.html" target="_top" xlink:title="9">
<text text-anchor="middle" x="34.1158" y="-48.3013" font-family="Helvetica,sans-Serif" font-size="10.00" fill="#000000">9</text>
</a>
</g>
</g>
<!-- dir_b7a0e33b407baa23d8a077e33033c988 -->
<g id="node4" class="node">
<title>dir_b7a0e33b407baa23d8a077e33033c988</title>
<g id="a_node4"><a xlink:href="dir_b7a0e33b407baa23d8a077e33033c988.html" target="_top" xlink:title="systems">
<polygon fill="#ffffff" stroke="#ff0000" points="129,-180 71,-180 71,-144 129,-144 129,-180"/>
<text text-anchor="middle" x="100" y="-159.5" font-family="Helvetica,sans-Serif" font-size="10.00" fill="#000000">systems</text>
</a>
</g>
</g>
<!-- dir_555819b4608177955f0da6e7cceb9779&#45;&gt;dir_b7a0e33b407baa23d8a077e33033c988 -->
<g id="edge3" class="edge">
<title>dir_555819b4608177955f0da6e7cceb9779&#45;&gt;dir_b7a0e33b407baa23d8a077e33033c988</title>
<path fill="none" stroke="#000000" d="M57.3835,-215.8314C63.9486,-207.5386 71.8507,-197.557 79.0578,-188.4533"/>
<polygon fill="#000000" stroke="#000000" points="81.9599,-190.4262 85.4228,-180.4133 76.4716,-186.0813 81.9599,-190.4262"/>
<g id="a_edge3&#45;headlabel"><a xlink:href="dir_000040_000219.html" target="_top" xlink:title="4">
<text text-anchor="middle" x="81.9549" y="-192.5069" font-family="Helvetica,sans-Serif" font-size="10.00" fill="#000000">4</text>
</a>
</g>
</g>
<!-- dir_fc0178d6978c9fa2cad6ef3e048a60a7&#45;&gt;dir_a36da230f0956f48b11c85f7d599788f -->
<g id="edge4" class="edge">
<title>dir_fc0178d6978c9fa2cad6ef3e048a60a7&#45;&gt;dir_a36da230f0956f48b11c85f7d599788f</title>
<path fill="none" stroke="#000000" d="M47.0476,-71.8314C46.2972,-64.131 46.0763,-54.9743 46.3849,-46.4166"/>
<polygon fill="#000000" stroke="#000000" points="49.8792,-46.6161 47.024,-36.4133 42.8935,-46.1697 49.8792,-46.6161"/>
<g id="a_edge4&#45;headlabel"><a xlink:href="dir_000095_000078.html" target="_top" xlink:title="87">
<text text-anchor="middle" x="52.4836" y="-47.8844" font-family="Helvetica,sans-Serif" font-size="10.00" fill="#000000">87</text>
</a>
</g>
</g>
<!-- dir_a36da230f0956f48b11c85f7d599788f&#45;&gt;dir_fc0178d6978c9fa2cad6ef3e048a60a7 -->
<g id="edge5" class="edge">
<title>dir_a36da230f0956f48b11c85f7d599788f&#45;&gt;dir_fc0178d6978c9fa2cad6ef3e048a60a7</title>
<path fill="none" stroke="#000000" d="M58.976,-36.4133C59.7071,-44.0593 59.9203,-53.1084 59.6155,-61.5726"/>
<polygon fill="#000000" stroke="#000000" points="56.1048,-61.6264 58.9524,-71.8314 63.0902,-62.078 56.1048,-61.6264"/>
<g id="a_edge5&#45;headlabel"><a xlink:href="dir_000078_000095.html" target="_top" xlink:title="4">
<text text-anchor="middle" x="53.5032" y="-55.3562" font-family="Helvetica,sans-Serif" font-size="10.00" fill="#000000">4</text>
</a>
</g>
</g>
<!-- dir_b7a0e33b407baa23d8a077e33033c988&#45;&gt;dir_fc0178d6978c9fa2cad6ef3e048a60a7 -->
<g id="edge6" class="edge">
<title>dir_b7a0e33b407baa23d8a077e33033c988&#45;&gt;dir_fc0178d6978c9fa2cad6ef3e048a60a7</title>
<path fill="none" stroke="#000000" d="M88.1399,-143.8314C82.8371,-135.7079 76.4763,-125.9637 70.6327,-117.0118"/>
<polygon fill="#000000" stroke="#000000" points="73.4169,-114.8739 65.0198,-108.4133 67.5552,-118.7003 73.4169,-114.8739"/>
<g id="a_edge6&#45;headlabel"><a xlink:href="dir_000219_000095.html" target="_top" xlink:title="29">
<text text-anchor="middle" x="77.7593" y="-113.8319" font-family="Helvetica,sans-Serif" font-size="10.00" fill="#000000">29</text>
</a>
</g>
</g>
<!-- dir_b7a0e33b407baa23d8a077e33033c988&#45;&gt;dir_a36da230f0956f48b11c85f7d599788f -->
<g id="edge7" class="edge">
<title>dir_b7a0e33b407baa23d8a077e33033c988&#45;&gt;dir_a36da230f0956f48b11c85f7d599788f</title>
<path fill="none" stroke="#000000" d="M100.2173,-143.8348C99.8854,-125.2351 97.8046,-95.7649 89,-72 85.4556,-62.4332 79.9148,-52.8784 74.2333,-44.524"/>
<polygon fill="#000000" stroke="#000000" points="77.0102,-42.3903 68.3393,-36.302 71.321,-46.4687 77.0102,-42.3903"/>
<g id="a_edge7&#45;headlabel"><a xlink:href="dir_000219_000078.html" target="_top" xlink:title="555">
<text text-anchor="middle" x="81.4121" y="-41.1576" font-family="Helvetica,sans-Serif" font-size="10.00" fill="#000000">555</text>
</a>
</g>
</g>
</g>
</svg>
