<?xml version="1.0" encoding="UTF-8" standalone="no"?>
<!DOCTYPE svg PUBLIC "-//W3C//DTD SVG 1.1//EN"
 "http://www.w3.org/Graphics/SVG/1.1/DTD/svg11.dtd">
<!-- Generated by graphviz version 2.40.1 (20161225.0304)
 -->
<!-- Title: drake/multibody/plant/test Pages: 1 -->
<svg width="548pt" height="583pt"
 viewBox="0.00 0.00 548.00 583.00" xmlns="http://www.w3.org/2000/svg" xmlns:xlink="http://www.w3.org/1999/xlink">
<g id="graph0" class="graph" transform="scale(1 1) rotate(0) translate(4 579)">
<title>drake/multibody/plant/test</title>
<polygon fill="#ffffff" stroke="transparent" points="-4,4 -4,-579 544,-579 544,4 -4,4"/>
<g id="clust1" class="cluster">
<title>clusterdir_656f7d340c0f5b4ecaf881820f2aea38</title>
<g id="a_clust1"><a xlink:href="dir_656f7d340c0f5b4ecaf881820f2aea38.html" target="_top" xlink:title="plant">
<polygon fill="#ddddee" stroke="#000000" points="258,-496 258,-567 328,-567 328,-496 258,-496"/>
<text text-anchor="middle" x="293" y="-555" font-family="Helvetica,sans-Serif" font-size="10.00" fill="#000000">plant</text>
</a>
</g>
</g>
<!-- dir_adbb1ee2d3f43f66610ca2f4101eae2a -->
<g id="node1" class="node">
<title>dir_adbb1ee2d3f43f66610ca2f4101eae2a</title>
<g id="a_node1"><a xlink:href="dir_adbb1ee2d3f43f66610ca2f4101eae2a.html" target="_top" xlink:title="test">
<polygon fill="#eeeeff" stroke="#000000" points="320,-540 266,-540 266,-504 320,-504 320,-540"/>
<text text-anchor="middle" x="293" y="-519.5" font-family="Helvetica,sans-Serif" font-size="10.00" fill="#000000">test</text>
</a>
</g>
</g>
<!-- dir_e56f4370c0abfd94d0eb867c3946e12e -->
<g id="node2" class="node">
<title>dir_e56f4370c0abfd94d0eb867c3946e12e</title>
<g id="a_node2"><a xlink:href="dir_e56f4370c0abfd94d0eb867c3946e12e.html" target="_top" xlink:title="parsing">
<polygon fill="#ffffff" stroke="#ff0000" points="320,-468 266,-468 266,-432 320,-432 320,-468"/>
<text text-anchor="middle" x="293" y="-447.5" font-family="Helvetica,sans-Serif" font-size="10.00" fill="#000000">parsing</text>
</a>
</g>
</g>
<!-- dir_adbb1ee2d3f43f66610ca2f4101eae2a&#45;&gt;dir_e56f4370c0abfd94d0eb867c3946e12e -->
<g id="edge17" class="edge">
<title>dir_adbb1ee2d3f43f66610ca2f4101eae2a&#45;&gt;dir_e56f4370c0abfd94d0eb867c3946e12e</title>
<path fill="none" stroke="#000000" d="M293,-503.8314C293,-496.131 293,-486.9743 293,-478.4166"/>
<polygon fill="#000000" stroke="#000000" points="296.5001,-478.4132 293,-468.4133 289.5001,-478.4133 296.5001,-478.4132"/>
<g id="a_edge17&#45;headlabel"><a xlink:href="dir_000217_000030.html" target="_top" xlink:title="5">
<text text-anchor="middle" x="299.3393" y="-479.5079" font-family="Helvetica,sans-Serif" font-size="10.00" fill="#000000">5</text>
</a>
</g>
</g>
<!-- dir_fc0178d6978c9fa2cad6ef3e048a60a7 -->
<g id="node3" class="node">
<title>dir_fc0178d6978c9fa2cad6ef3e048a60a7</title>
<g id="a_node3"><a xlink:href="dir_fc0178d6978c9fa2cad6ef3e048a60a7.html" target="_top" xlink:title="math">
<polygon fill="#ffffff" stroke="#ff0000" points="358,-108 304,-108 304,-72 358,-72 358,-108"/>
<text text-anchor="middle" x="331" y="-87.5" font-family="Helvetica,sans-Serif" font-size="10.00" fill="#000000">math</text>
</a>
</g>
</g>
<!-- dir_adbb1ee2d3f43f66610ca2f4101eae2a&#45;&gt;dir_fc0178d6978c9fa2cad6ef3e048a60a7 -->
<g id="edge18" class="edge">
<title>dir_adbb1ee2d3f43f66610ca2f4101eae2a&#45;&gt;dir_fc0178d6978c9fa2cad6ef3e048a60a7</title>
<path fill="none" stroke="#000000" d="M315.2225,-503.7749C326.2846,-493.9542 339.3244,-481.1701 349,-468 391.3644,-410.3349 404.5602,-393.64 421,-324 439.6173,-245.1361 434.9446,-212.7159 392,-144 385.0799,-132.927 375.2178,-122.8177 365.4356,-114.417"/>
<polygon fill="#000000" stroke="#000000" points="367.6215,-111.6833 357.6653,-108.0604 363.1892,-117.1013 367.6215,-111.6833"/>
<g id="a_edge18&#45;headlabel"><a xlink:href="dir_000217_000105.html" target="_top" xlink:title="13">
<text text-anchor="middle" x="372.2015" y="-109.2618" font-family="Helvetica,sans-Serif" font-size="10.00" fill="#000000">13</text>
</a>
</g>
</g>
<!-- dir_5d8dbe7a82c2c188fa06f6391bb290bd -->
<g id="node4" class="node">
<title>dir_5d8dbe7a82c2c188fa06f6391bb290bd</title>
<g id="a_node4"><a xlink:href="dir_5d8dbe7a82c2c188fa06f6391bb290bd.html" target="_top" xlink:title="benchmarks">
<polygon fill="#ffffff" stroke="#ff0000" points="174.5,-396 97.5,-396 97.5,-360 174.5,-360 174.5,-396"/>
<text text-anchor="middle" x="136" y="-375.5" font-family="Helvetica,sans-Serif" font-size="10.00" fill="#000000">benchmarks</text>
</a>
</g>
</g>
<!-- dir_adbb1ee2d3f43f66610ca2f4101eae2a&#45;&gt;dir_5d8dbe7a82c2c188fa06f6391bb290bd -->
<g id="edge19" class="edge">
<title>dir_adbb1ee2d3f43f66610ca2f4101eae2a&#45;&gt;dir_5d8dbe7a82c2c188fa06f6391bb290bd</title>
<path fill="none" stroke="#000000" d="M265.9056,-511.6236C244.5944,-502.4899 215.0805,-487.593 194,-468 174.6934,-450.0557 158.9801,-424.378 148.8027,-405.0392"/>
<polygon fill="#000000" stroke="#000000" points="151.916,-403.4399 144.2598,-396.1164 145.678,-406.6159 151.916,-403.4399"/>
<g id="a_edge19&#45;headlabel"><a xlink:href="dir_000217_000196.html" target="_top" xlink:title="5">
<text text-anchor="middle" x="156.0771" y="-402.855" font-family="Helvetica,sans-Serif" font-size="10.00" fill="#000000">5</text>
</a>
</g>
</g>
<!-- dir_a36da230f0956f48b11c85f7d599788f -->
<g id="node5" class="node">
<title>dir_a36da230f0956f48b11c85f7d599788f</title>
<g id="a_node5"><a xlink:href="dir_a36da230f0956f48b11c85f7d599788f.html" target="_top" xlink:title="common">
<polygon fill="#ffffff" stroke="#ff0000" points="360.5,-36 301.5,-36 301.5,0 360.5,0 360.5,-36"/>
<text text-anchor="middle" x="331" y="-15.5" font-family="Helvetica,sans-Serif" font-size="10.00" fill="#000000">common</text>
</a>
</g>
</g>
<!-- dir_adbb1ee2d3f43f66610ca2f4101eae2a&#45;&gt;dir_a36da230f0956f48b11c85f7d599788f -->
<g id="edge20" class="edge">
<title>dir_adbb1ee2d3f43f66610ca2f4101eae2a&#45;&gt;dir_a36da230f0956f48b11c85f7d599788f</title>
<path fill="none" stroke="#000000" d="M320.3771,-518.9961C384.6865,-510.2696 540,-478.7637 540,-378 540,-378 540,-378 540,-162 540,-80.5671 431.0792,-41.6625 370.4994,-26.3221"/>
<polygon fill="#000000" stroke="#000000" points="371.045,-22.8529 360.5013,-23.8926 369.3921,-29.6549 371.045,-22.8529"/>
<g id="a_edge20&#45;headlabel"><a xlink:href="dir_000217_000086.html" target="_top" xlink:title="19">
<text text-anchor="middle" x="375.2084" y="-18.4426" font-family="Helvetica,sans-Serif" font-size="10.00" fill="#000000">19</text>
</a>
</g>
</g>
<!-- dir_d739e095b49d8b72164589d00310017d -->
<g id="node6" class="node">
<title>dir_d739e095b49d8b72164589d00310017d</title>
<g id="a_node6"><a xlink:href="dir_d739e095b49d8b72164589d00310017d.html" target="_top" xlink:title="geometry">
<polygon fill="#ffffff" stroke="#ff0000" points="394,-324 330,-324 330,-288 394,-288 394,-324"/>
<text text-anchor="middle" x="362" y="-303.5" font-family="Helvetica,sans-Serif" font-size="10.00" fill="#000000">geometry</text>
</a>
</g>
</g>
<!-- dir_adbb1ee2d3f43f66610ca2f4101eae2a&#45;&gt;dir_d739e095b49d8b72164589d00310017d -->
<g id="edge21" class="edge">
<title>dir_adbb1ee2d3f43f66610ca2f4101eae2a&#45;&gt;dir_d739e095b49d8b72164589d00310017d</title>
<path fill="none" stroke="#000000" d="M307.9223,-503.534C315.2933,-493.5493 323.717,-480.6904 329,-468 347.5332,-423.481 355.9537,-367.6219 359.5527,-334.4817"/>
<polygon fill="#000000" stroke="#000000" points="363.0722,-334.4644 360.596,-324.163 356.1077,-333.7602 363.0722,-334.4644"/>
<g id="a_edge21&#45;headlabel"><a xlink:href="dir_000217_000159.html" target="_top" xlink:title="6">
<text text-anchor="middle" x="365.5355" y="-335.8264" font-family="Helvetica,sans-Serif" font-size="10.00" fill="#000000">6</text>
</a>
</g>
</g>
<!-- dir_3f9cb8dbb3b4911cb2ecb548acd672c3 -->
<g id="node7" class="node">
<title>dir_3f9cb8dbb3b4911cb2ecb548acd672c3</title>
<g id="a_node7"><a xlink:href="dir_3f9cb8dbb3b4911cb2ecb548acd672c3.html" target="_top" xlink:title="tree">
<polygon fill="#ffffff" stroke="#ff0000" points="208,-180 154,-180 154,-144 208,-144 208,-180"/>
<text text-anchor="middle" x="181" y="-159.5" font-family="Helvetica,sans-Serif" font-size="10.00" fill="#000000">tree</text>
</a>
</g>
</g>
<!-- dir_adbb1ee2d3f43f66610ca2f4101eae2a&#45;&gt;dir_3f9cb8dbb3b4911cb2ecb548acd672c3 -->
<g id="edge22" class="edge">
<title>dir_adbb1ee2d3f43f66610ca2f4101eae2a&#45;&gt;dir_3f9cb8dbb3b4911cb2ecb548acd672c3</title>
<path fill="none" stroke="#000000" d="M265.9604,-514.928C193.4258,-495.1675 0,-436.9466 0,-378 0,-378 0,-378 0,-306 0,-233.0041 91.2664,-191.0665 144.1836,-172.8855"/>
<polygon fill="#000000" stroke="#000000" points="145.5114,-176.1327 153.9025,-169.6643 143.3091,-169.4882 145.5114,-176.1327"/>
<g id="a_edge22&#45;headlabel"><a xlink:href="dir_000217_000027.html" target="_top" xlink:title="19">
<text text-anchor="middle" x="142.9925" y="-177.4587" font-family="Helvetica,sans-Serif" font-size="10.00" fill="#000000">19</text>
</a>
</g>
</g>
<!-- dir_b7a0e33b407baa23d8a077e33033c988 -->
<g id="node8" class="node">
<title>dir_b7a0e33b407baa23d8a077e33033c988</title>
<g id="a_node8"><a xlink:href="dir_b7a0e33b407baa23d8a077e33033c988.html" target="_top" xlink:title="systems">
<polygon fill="#ffffff" stroke="#ff0000" points="322,-252 264,-252 264,-216 322,-216 322,-252"/>
<text text-anchor="middle" x="293" y="-231.5" font-family="Helvetica,sans-Serif" font-size="10.00" fill="#000000">systems</text>
</a>
</g>
</g>
<!-- dir_adbb1ee2d3f43f66610ca2f4101eae2a&#45;&gt;dir_b7a0e33b407baa23d8a077e33033c988 -->
<g id="edge23" class="edge">
<title>dir_adbb1ee2d3f43f66610ca2f4101eae2a&#45;&gt;dir_b7a0e33b407baa23d8a077e33033c988</title>
<path fill="none" stroke="#000000" d="M277.0095,-503.9169C269.3462,-494.0371 260.9834,-481.1563 257,-468 235.0653,-395.5546 263.3174,-306.2485 280.9025,-261.828"/>
<polygon fill="#000000" stroke="#000000" points="284.2552,-262.8752 284.789,-252.2938 277.7731,-260.2328 284.2552,-262.8752"/>
<g id="a_edge23&#45;headlabel"><a xlink:href="dir_000217_000218.html" target="_top" xlink:title="17">
<text text-anchor="middle" x="285.5276" y="-264.7756" font-family="Helvetica,sans-Serif" font-size="10.00" fill="#000000">17</text>
</a>
</g>
</g>
<!-- dir_e56f4370c0abfd94d0eb867c3946e12e&#45;&gt;dir_fc0178d6978c9fa2cad6ef3e048a60a7 -->
<g id="edge1" class="edge">
<title>dir_e56f4370c0abfd94d0eb867c3946e12e&#45;&gt;dir_fc0178d6978c9fa2cad6ef3e048a60a7</title>
<path fill="none" stroke="#000000" d="M317.1047,-431.8066C344.0811,-409.7529 386.206,-369.8025 403,-324 430.1729,-249.891 380.0343,-160.1646 350.4509,-116.477"/>
<polygon fill="#000000" stroke="#000000" points="353.2342,-114.3487 344.6612,-108.1234 347.4809,-118.3361 353.2342,-114.3487"/>
<g id="a_edge1&#45;headlabel"><a xlink:href="dir_000030_000105.html" target="_top" xlink:title="10">
<text text-anchor="middle" x="357.6154" y="-113.1857" font-family="Helvetica,sans-Serif" font-size="10.00" fill="#000000">10</text>
</a>
</g>
</g>
<!-- dir_e56f4370c0abfd94d0eb867c3946e12e&#45;&gt;dir_5d8dbe7a82c2c188fa06f6391bb290bd -->
<g id="edge2" class="edge">
<title>dir_e56f4370c0abfd94d0eb867c3946e12e&#45;&gt;dir_5d8dbe7a82c2c188fa06f6391bb290bd</title>
<path fill="none" stroke="#000000" d="M265.6527,-437.4586C243.0977,-427.1149 210.5637,-412.1948 183.7291,-399.8885"/>
<polygon fill="#000000" stroke="#000000" points="185.0495,-396.6436 174.5007,-395.6564 182.1315,-403.0064 185.0495,-396.6436"/>
<g id="a_edge2&#45;headlabel"><a xlink:href="dir_000030_000196.html" target="_top" xlink:title="1">
<text text-anchor="middle" x="189.5004" y="-393.0611" font-family="Helvetica,sans-Serif" font-size="10.00" fill="#000000">1</text>
</a>
</g>
</g>
<!-- dir_e56f4370c0abfd94d0eb867c3946e12e&#45;&gt;dir_a36da230f0956f48b11c85f7d599788f -->
<g id="edge3" class="edge">
<title>dir_e56f4370c0abfd94d0eb867c3946e12e&#45;&gt;dir_a36da230f0956f48b11c85f7d599788f</title>
<path fill="none" stroke="#000000" d="M320.3782,-439.0318C340.3251,-429.9274 366.9119,-415.3449 385,-396 409.4351,-369.8671 412.7801,-358.82 421,-324 439.0535,-247.5243 444.1845,-187.0068 385,-72 379.4632,-61.2409 371.0109,-51.2899 362.4257,-42.9383"/>
<polygon fill="#000000" stroke="#000000" points="364.6461,-40.2252 354.9169,-36.0307 359.9068,-45.3769 364.6461,-40.2252"/>
<g id="a_edge3&#45;headlabel"><a xlink:href="dir_000030_000086.html" target="_top" xlink:title="33">
<text text-anchor="middle" x="369.2138" y="-38.0692" font-family="Helvetica,sans-Serif" font-size="10.00" fill="#000000">33</text>
</a>
</g>
</g>
<!-- dir_e56f4370c0abfd94d0eb867c3946e12e&#45;&gt;dir_d739e095b49d8b72164589d00310017d -->
<g id="edge4" class="edge">
<title>dir_e56f4370c0abfd94d0eb867c3946e12e&#45;&gt;dir_d739e095b49d8b72164589d00310017d</title>
<path fill="none" stroke="#000000" d="M301.7389,-431.7623C313.6634,-406.8764 335.1273,-362.0822 348.9588,-333.2165"/>
<polygon fill="#000000" stroke="#000000" points="352.1672,-334.6202 353.3321,-324.0896 345.8544,-331.5953 352.1672,-334.6202"/>
<g id="a_edge4&#45;headlabel"><a xlink:href="dir_000030_000159.html" target="_top" xlink:title="16">
<text text-anchor="middle" x="353.1744" y="-336.5888" font-family="Helvetica,sans-Serif" font-size="10.00" fill="#000000">16</text>
</a>
</g>
</g>
<!-- dir_e56f4370c0abfd94d0eb867c3946e12e&#45;&gt;dir_3f9cb8dbb3b4911cb2ecb548acd672c3 -->
<g id="edge5" class="edge">
<title>dir_e56f4370c0abfd94d0eb867c3946e12e&#45;&gt;dir_3f9cb8dbb3b4911cb2ecb548acd672c3</title>
<path fill="none" stroke="#000000" d="M285.9939,-431.9843C266.9802,-383.0919 214.3194,-247.6785 191.6284,-189.33"/>
<polygon fill="#000000" stroke="#000000" points="194.89,-188.0603 188.0035,-180.0089 188.366,-190.5975 194.89,-188.0603"/>
<g id="a_edge5&#45;headlabel"><a xlink:href="dir_000030_000027.html" target="_top" xlink:title="13">
<text text-anchor="middle" x="198.839" y="-187.8815" font-family="Helvetica,sans-Serif" font-size="10.00" fill="#000000">13</text>
</a>
</g>
</g>
<!-- dir_e56f4370c0abfd94d0eb867c3946e12e&#45;&gt;dir_b7a0e33b407baa23d8a077e33033c988 -->
<g id="edge6" class="edge">
<title>dir_e56f4370c0abfd94d0eb867c3946e12e&#45;&gt;dir_b7a0e33b407baa23d8a077e33033c988</title>
<path fill="none" stroke="#000000" d="M289.0541,-431.9555C285.5956,-394.3144 285.3363,-307.1867 288.2761,-262.1246"/>
<polygon fill="#000000" stroke="#000000" points="291.7664,-262.3844 289.0449,-252.1451 284.7871,-261.8467 291.7664,-262.3844"/>
<g id="a_edge6&#45;headlabel"><a xlink:href="dir_000030_000218.html" target="_top" xlink:title="3">
<text text-anchor="middle" x="294.3213" y="-263.6864" font-family="Helvetica,sans-Serif" font-size="10.00" fill="#000000">3</text>
</a>
</g>
</g>
<!-- dir_fc0178d6978c9fa2cad6ef3e048a60a7&#45;&gt;dir_a36da230f0956f48b11c85f7d599788f -->
<g id="edge7" class="edge">
<title>dir_fc0178d6978c9fa2cad6ef3e048a60a7&#45;&gt;dir_a36da230f0956f48b11c85f7d599788f</title>
<path fill="none" stroke="#000000" d="M325.0476,-71.8314C324.2972,-64.131 324.0763,-54.9743 324.3849,-46.4166"/>
<polygon fill="#000000" stroke="#000000" points="327.8792,-46.6161 325.024,-36.4133 320.8935,-46.1697 327.8792,-46.6161"/>
<g id="a_edge7&#45;headlabel"><a xlink:href="dir_000105_000086.html" target="_top" xlink:title="87">
<text text-anchor="middle" x="330.4836" y="-47.8844" font-family="Helvetica,sans-Serif" font-size="10.00" fill="#000000">87</text>
</a>
</g>
</g>
<!-- dir_5d8dbe7a82c2c188fa06f6391bb290bd&#45;&gt;dir_fc0178d6978c9fa2cad6ef3e048a60a7 -->
<g id="edge8" class="edge">
<title>dir_5d8dbe7a82c2c188fa06f6391bb290bd&#45;&gt;dir_fc0178d6978c9fa2cad6ef3e048a60a7</title>
<path fill="none" stroke="#000000" d="M139.1461,-359.9013C142.9254,-341.0951 150.3874,-311.2231 163,-288 200.9641,-218.0982 266.4065,-150.4924 303.4123,-115.226"/>
<polygon fill="#000000" stroke="#000000" points="305.9853,-117.6104 310.8572,-108.2022 301.1816,-112.5187 305.9853,-117.6104"/>
<g id="a_edge8&#45;headlabel"><a xlink:href="dir_000196_000105.html" target="_top" xlink:title="11">
<text text-anchor="middle" x="305.319" y="-119.6423" font-family="Helvetica,sans-Serif" font-size="10.00" fill="#000000">11</text>
</a>
</g>
</g>
<!-- dir_5d8dbe7a82c2c188fa06f6391bb290bd&#45;&gt;dir_a36da230f0956f48b11c85f7d599788f -->
<g id="edge9" class="edge">
<title>dir_5d8dbe7a82c2c188fa06f6391bb290bd&#45;&gt;dir_a36da230f0956f48b11c85f7d599788f</title>
<path fill="none" stroke="#000000" d="M112.7754,-359.7681C83.7954,-334.78 38,-286.9204 38,-234 38,-234 38,-234 38,-162 38,-106.1505 211.6339,-50.9526 291.5715,-28.4998"/>
<polygon fill="#000000" stroke="#000000" points="292.5937,-31.8485 301.2932,-25.8012 290.7213,-25.1036 292.5937,-31.8485"/>
<g id="a_edge9&#45;headlabel"><a xlink:href="dir_000196_000086.html" target="_top" xlink:title="26">
<text text-anchor="middle" x="289.8895" y="-33.0457" font-family="Helvetica,sans-Serif" font-size="10.00" fill="#000000">26</text>
</a>
</g>
</g>
<!-- dir_5d8dbe7a82c2c188fa06f6391bb290bd&#45;&gt;dir_d739e095b49d8b72164589d00310017d -->
<g id="edge10" class="edge">
<title>dir_5d8dbe7a82c2c188fa06f6391bb290bd&#45;&gt;dir_d739e095b49d8b72164589d00310017d</title>
<path fill="none" stroke="#000000" d="M174.594,-365.7046C215.0938,-352.802 278.5484,-332.5863 320.2089,-319.314"/>
<polygon fill="#000000" stroke="#000000" points="321.3196,-322.6335 329.7853,-316.2631 319.1946,-315.9638 321.3196,-322.6335"/>
<g id="a_edge10&#45;headlabel"><a xlink:href="dir_000196_000159.html" target="_top" xlink:title="3">
<text text-anchor="middle" x="318.7564" y="-323.9299" font-family="Helvetica,sans-Serif" font-size="10.00" fill="#000000">3</text>
</a>
</g>
</g>
<!-- dir_5d8dbe7a82c2c188fa06f6391bb290bd&#45;&gt;dir_3f9cb8dbb3b4911cb2ecb548acd672c3 -->
<g id="edge11" class="edge">
<title>dir_5d8dbe7a82c2c188fa06f6391bb290bd&#45;&gt;dir_3f9cb8dbb3b4911cb2ecb548acd672c3</title>
<path fill="none" stroke="#000000" d="M121.0351,-359.6894C111.8496,-341.4764 103.5976,-312.7531 109,-288 117.0704,-251.0223 138.4056,-212.7071 156.0073,-188.1842"/>
<polygon fill="#000000" stroke="#000000" points="158.8601,-190.2135 162.0496,-180.1101 153.2557,-186.0194 158.8601,-190.2135"/>
<g id="a_edge11&#45;headlabel"><a xlink:href="dir_000196_000027.html" target="_top" xlink:title="22">
<text text-anchor="middle" x="158.9796" y="-192.2926" font-family="Helvetica,sans-Serif" font-size="10.00" fill="#000000">22</text>
</a>
</g>
</g>
<!-- dir_5d8dbe7a82c2c188fa06f6391bb290bd&#45;&gt;dir_b7a0e33b407baa23d8a077e33033c988 -->
<g id="edge12" class="edge">
<title>dir_5d8dbe7a82c2c188fa06f6391bb290bd&#45;&gt;dir_b7a0e33b407baa23d8a077e33033c988</title>
<path fill="none" stroke="#000000" d="M144.2598,-359.8836C153.9337,-340.2327 171.5341,-308.8806 194,-288 211.4999,-271.735 234.8115,-258.7062 254.4177,-249.5242"/>
<polygon fill="#000000" stroke="#000000" points="256.0316,-252.6357 263.7032,-245.3284 253.1491,-246.2568 256.0316,-252.6357"/>
<g id="a_edge12&#45;headlabel"><a xlink:href="dir_000196_000218.html" target="_top" xlink:title="3">
<text text-anchor="middle" x="253.925" y="-254.2033" font-family="Helvetica,sans-Serif" font-size="10.00" fill="#000000">3</text>
</a>
</g>
</g>
<!-- dir_a36da230f0956f48b11c85f7d599788f&#45;&gt;dir_fc0178d6978c9fa2cad6ef3e048a60a7 -->
<g id="edge13" class="edge">
<title>dir_a36da230f0956f48b11c85f7d599788f&#45;&gt;dir_fc0178d6978c9fa2cad6ef3e048a60a7</title>
<path fill="none" stroke="#000000" d="M336.976,-36.4133C337.7071,-44.0593 337.9203,-53.1084 337.6155,-61.5726"/>
<polygon fill="#000000" stroke="#000000" points="334.1048,-61.6264 336.9524,-71.8314 341.0902,-62.078 334.1048,-61.6264"/>
<g id="a_edge13&#45;headlabel"><a xlink:href="dir_000086_000105.html" target="_top" xlink:title="4">
<text text-anchor="middle" x="331.5032" y="-55.3562" font-family="Helvetica,sans-Serif" font-size="10.00" fill="#000000">4</text>
</a>
</g>
</g>
<!-- dir_d739e095b49d8b72164589d00310017d&#45;&gt;dir_fc0178d6978c9fa2cad6ef3e048a60a7 -->
<g id="edge14" class="edge">
<title>dir_d739e095b49d8b72164589d00310017d&#45;&gt;dir_fc0178d6978c9fa2cad6ef3e048a60a7</title>
<path fill="none" stroke="#000000" d="M359.4103,-287.9555C354.0081,-250.3144 341.5036,-163.1867 335.0364,-118.1246"/>
<polygon fill="#000000" stroke="#000000" points="338.4894,-117.5464 333.6042,-108.1451 331.5604,-118.5409 338.4894,-117.5464"/>
<g id="a_edge14&#45;headlabel"><a xlink:href="dir_000159_000105.html" target="_top" xlink:title="3">
<text text-anchor="middle" x="341.8104" y="-118.2012" font-family="Helvetica,sans-Serif" font-size="10.00" fill="#000000">3</text>
</a>
</g>
</g>
<!-- dir_d739e095b49d8b72164589d00310017d&#45;&gt;dir_a36da230f0956f48b11c85f7d599788f -->
<g id="edge15" class="edge">
<title>dir_d739e095b49d8b72164589d00310017d&#45;&gt;dir_a36da230f0956f48b11c85f7d599788f</title>
<path fill="none" stroke="#000000" d="M366.1183,-287.8741C374.4135,-247.8615 390.4326,-149.3926 367,-72 364.0436,-62.2355 358.6748,-52.6229 352.97,-44.2762"/>
<polygon fill="#000000" stroke="#000000" points="355.7129,-42.0973 346.9905,-36.0831 350.0586,-46.2239 355.7129,-42.0973"/>
<g id="a_edge15&#45;headlabel"><a xlink:href="dir_000159_000086.html" target="_top" xlink:title="74">
<text text-anchor="middle" x="360.1253" y="-40.827" font-family="Helvetica,sans-Serif" font-size="10.00" fill="#000000">74</text>
</a>
</g>
</g>
<!-- dir_d739e095b49d8b72164589d00310017d&#45;&gt;dir_b7a0e33b407baa23d8a077e33033c988 -->
<g id="edge16" class="edge">
<title>dir_d739e095b49d8b72164589d00310017d&#45;&gt;dir_b7a0e33b407baa23d8a077e33033c988</title>
<path fill="none" stroke="#000000" d="M338.636,-287.8314C329.7019,-279.3694 319.7221,-269.1489 311.3101,-259.8971"/>
<polygon fill="#000000" stroke="#000000" points="313.9249,-257.5706 304.67,-252.4133 308.6888,-262.2164 313.9249,-257.5706"/>
<g id="a_edge16&#45;headlabel"><a xlink:href="dir_000159_000218.html" target="_top" xlink:title="16">
<text text-anchor="middle" x="318.4344" y="-255.875" font-family="Helvetica,sans-Serif" font-size="10.00" fill="#000000">16</text>
</a>
</g>
</g>
<!-- dir_3f9cb8dbb3b4911cb2ecb548acd672c3&#45;&gt;dir_fc0178d6978c9fa2cad6ef3e048a60a7 -->
<g id="edge24" class="edge">
<title>dir_3f9cb8dbb3b4911cb2ecb548acd672c3&#45;&gt;dir_fc0178d6978c9fa2cad6ef3e048a60a7</title>
<path fill="none" stroke="#000000" d="M208.1639,-148.9613C232.4062,-137.325 268.0925,-120.1956 294.7616,-107.3944"/>
<polygon fill="#000000" stroke="#000000" points="296.2845,-110.5458 303.7852,-103.0631 293.2554,-104.2351 296.2845,-110.5458"/>
<g id="a_edge24&#45;headlabel"><a xlink:href="dir_000027_000105.html" target="_top" xlink:title="38">
<text text-anchor="middle" x="294.2725" y="-112.1609" font-family="Helvetica,sans-Serif" font-size="10.00" fill="#000000">38</text>
</a>
</g>
</g>
<!-- dir_3f9cb8dbb3b4911cb2ecb548acd672c3&#45;&gt;dir_5d8dbe7a82c2c188fa06f6391bb290bd -->
<g id="edge25" class="edge">
<title>dir_3f9cb8dbb3b4911cb2ecb548acd672c3&#45;&gt;dir_5d8dbe7a82c2c188fa06f6391bb290bd</title>
<path fill="none" stroke="#000000" d="M174.4945,-180.1101C161.621,-203.6535 136.0219,-246.6625 127,-288 122.484,-308.692 127.5095,-332.1584 132.1265,-349.9404"/>
<polygon fill="#000000" stroke="#000000" points="128.7671,-350.9268 134.7224,-359.6894 135.5314,-349.1255 128.7671,-350.9268"/>
<g id="a_edge25&#45;headlabel"><a xlink:href="dir_000027_000196.html" target="_top" xlink:title="6">
<text text-anchor="middle" x="125.0985" y="-345.6838" font-family="Helvetica,sans-Serif" font-size="10.00" fill="#000000">6</text>
</a>
</g>
</g>
<!-- dir_3f9cb8dbb3b4911cb2ecb548acd672c3&#45;&gt;dir_a36da230f0956f48b11c85f7d599788f -->
<g id="edge26" class="edge">
<title>dir_3f9cb8dbb3b4911cb2ecb548acd672c3&#45;&gt;dir_a36da230f0956f48b11c85f7d599788f</title>
<path fill="none" stroke="#000000" d="M185.3895,-143.6845C190.9592,-123.8594 202.2956,-92.3556 222,-72 241.15,-52.2171 269.0653,-38.5786 291.8511,-29.957"/>
<polygon fill="#000000" stroke="#000000" points="293.0406,-33.2487 301.2619,-26.5659 290.6675,-26.6632 293.0406,-33.2487"/>
<g id="a_edge26&#45;headlabel"><a xlink:href="dir_000027_000086.html" target="_top" xlink:title="184">
<text text-anchor="middle" x="290.6214" y="-34.6384" font-family="Helvetica,sans-Serif" font-size="10.00" fill="#000000">184</text>
</a>
</g>
</g>
<!-- dir_3f9cb8dbb3b4911cb2ecb548acd672c3&#45;&gt;dir_b7a0e33b407baa23d8a077e33033c988 -->
<g id="edge27" class="edge">
<title>dir_3f9cb8dbb3b4911cb2ecb548acd672c3&#45;&gt;dir_b7a0e33b407baa23d8a077e33033c988</title>
<path fill="none" stroke="#000000" d="M208.3778,-176.0747C224.7156,-185.7487 245.3761,-198.8346 262.2526,-210.121"/>
<polygon fill="#000000" stroke="#000000" points="260.4467,-213.125 270.6901,-215.8314 264.3702,-207.3278 260.4467,-213.125"/>
<g id="a_edge27&#45;headlabel"><a xlink:href="dir_000027_000218.html" target="_top" xlink:title="45">
<text text-anchor="middle" x="255.8784" y="-210.9616" font-family="Helvetica,sans-Serif" font-size="10.00" fill="#000000">45</text>
</a>
</g>
</g>
<!-- dir_b7a0e33b407baa23d8a077e33033c988&#45;&gt;dir_e56f4370c0abfd94d0eb867c3946e12e -->
<g id="edge28" class="edge">
<title>dir_b7a0e33b407baa23d8a077e33033c988&#45;&gt;dir_e56f4370c0abfd94d0eb867c3946e12e</title>
<path fill="none" stroke="#000000" d="M296.9551,-252.1451C300.4006,-289.7945 300.6604,-376.6409 297.7346,-421.7103"/>
<polygon fill="#000000" stroke="#000000" points="294.2239,-421.7163 296.9459,-431.9555 301.2032,-422.2537 294.2239,-421.7163"/>
<g id="a_edge28&#45;headlabel"><a xlink:href="dir_000218_000030.html" target="_top" xlink:title="3">
<text text-anchor="middle" x="291.6688" y="-415.4144" font-family="Helvetica,sans-Serif" font-size="10.00" fill="#000000">3</text>
</a>
</g>
</g>
<!-- dir_b7a0e33b407baa23d8a077e33033c988&#45;&gt;dir_fc0178d6978c9fa2cad6ef3e048a60a7 -->
<g id="edge29" class="edge">
<title>dir_b7a0e33b407baa23d8a077e33033c988&#45;&gt;dir_fc0178d6978c9fa2cad6ef3e048a60a7</title>
<path fill="none" stroke="#000000" d="M297.8127,-215.7623C304.3227,-191.0928 315.9953,-146.8598 323.6182,-117.9731"/>
<polygon fill="#000000" stroke="#000000" points="327.0589,-118.6517 326.2264,-108.0896 320.2906,-116.8656 327.0589,-118.6517"/>
<g id="a_edge29&#45;headlabel"><a xlink:href="dir_000218_000105.html" target="_top" xlink:title="27">
<text text-anchor="middle" x="328.8871" y="-120.3517" font-family="Helvetica,sans-Serif" font-size="10.00" fill="#000000">27</text>
</a>
</g>
</g>
<!-- dir_b7a0e33b407baa23d8a077e33033c988&#45;&gt;dir_a36da230f0956f48b11c85f7d599788f -->
<g id="edge30" class="edge">
<title>dir_b7a0e33b407baa23d8a077e33033c988&#45;&gt;dir_a36da230f0956f48b11c85f7d599788f</title>
<path fill="none" stroke="#000000" d="M289.968,-215.9883C285.5491,-185.5264 279.4476,-122.2459 295,-72 298.0167,-62.254 303.403,-52.6467 309.1054,-44.2993"/>
<polygon fill="#000000" stroke="#000000" points="312.0168,-46.247 315.0762,-36.1035 306.359,-42.1252 312.0168,-46.247"/>
<g id="a_edge30&#45;headlabel"><a xlink:href="dir_000218_000086.html" target="_top" xlink:title="548">
<text text-anchor="middle" x="312.1951" y="-48.3242" font-family="Helvetica,sans-Serif" font-size="10.00" fill="#000000">548</text>
</a>
</g>
</g>
<!-- dir_b7a0e33b407baa23d8a077e33033c988&#45;&gt;dir_d739e095b49d8b72164589d00310017d -->
<g id="edge31" class="edge">
<title>dir_b7a0e33b407baa23d8a077e33033c988&#45;&gt;dir_d739e095b49d8b72164589d00310017d</title>
<path fill="none" stroke="#000000" d="M316.3579,-252.1628C325.3602,-260.6891 335.425,-271.0016 343.878,-280.3099"/>
<polygon fill="#000000" stroke="#000000" points="341.29,-282.6667 350.5408,-287.8314 346.5298,-278.0251 341.29,-282.6667"/>
<g id="a_edge31&#45;headlabel"><a xlink:href="dir_000218_000159.html" target="_top" xlink:title="4">
<text text-anchor="middle" x="336.7812" y="-279.3587" font-family="Helvetica,sans-Serif" font-size="10.00" fill="#000000">4</text>
</a>
</g>
</g>
<!-- dir_b7a0e33b407baa23d8a077e33033c988&#45;&gt;dir_3f9cb8dbb3b4911cb2ecb548acd672c3 -->
<g id="edge32" class="edge">
<title>dir_b7a0e33b407baa23d8a077e33033c988&#45;&gt;dir_3f9cb8dbb3b4911cb2ecb548acd672c3</title>
<path fill="none" stroke="#000000" d="M263.9067,-218.9064C247.902,-209.3732 228.1534,-196.8468 211.8893,-185.9739"/>
<polygon fill="#000000" stroke="#000000" points="213.5015,-182.8389 203.258,-180.133 209.5784,-188.6362 213.5015,-182.8389"/>
<g id="a_edge32&#45;headlabel"><a xlink:href="dir_000218_000027.html" target="_top" xlink:title="3">
<text text-anchor="middle" x="218.0698" y="-180.002" font-family="Helvetica,sans-Serif" font-size="10.00" fill="#000000">3</text>
</a>
</g>
</g>
</g>
</svg>
