<?xml version="1.0" encoding="UTF-8" standalone="no"?>
<!DOCTYPE svg PUBLIC "-//W3C//DTD SVG 1.1//EN"
 "http://www.w3.org/Graphics/SVG/1.1/DTD/svg11.dtd">
<!-- Generated by graphviz version 2.40.1 (20161225.0304)
 -->
<!-- Title: drake/multibody/benchmarks Pages: 1 -->
<svg width="1050pt" height="411pt"
 viewBox="0.00 0.00 1049.68 411.00" xmlns="http://www.w3.org/2000/svg" xmlns:xlink="http://www.w3.org/1999/xlink">
<g id="graph0" class="graph" transform="scale(1 1) rotate(0) translate(4 407)">
<title>drake/multibody/benchmarks</title>
<polygon fill="#ffffff" stroke="transparent" points="-4,4 -4,-407 1045.6779,-407 1045.6779,4 -4,4"/>
<g id="clust1" class="cluster">
<title>clusterdir_39b8b3c6654246a9c12332c930bc7d3f</title>
<g id="a_clust1"><a xlink:href="dir_39b8b3c6654246a9c12332c930bc7d3f.html" target="_top" xlink:title="multibody">
<polygon fill="#ddddee" stroke="#000000" points="8,-272 8,-359 837,-359 837,-272 8,-272"/>
<text text-anchor="middle" x="422.5" y="-347" font-family="Helvetica,sans-Serif" font-size="10.00" fill="#000000">multibody</text>
</a>
</g>
</g>
<g id="clust2" class="cluster">
<title>clusterdir_5d8dbe7a82c2c188fa06f6391bb290bd</title>
<g id="a_clust2"><a xlink:href="dir_5d8dbe7a82c2c188fa06f6391bb290bd.html" target="_top">
<polygon fill="#eeeeff" stroke="#000000" points="16,-280 16,-332 829,-332 829,-280 16,-280"/>
</a>
</g>
</g>
<!-- dir_5d8dbe7a82c2c188fa06f6391bb290bd -->
<g id="node1" class="node">
<title>dir_5d8dbe7a82c2c188fa06f6391bb290bd</title>
<text text-anchor="middle" x="782" y="-303.5" font-family="Helvetica,sans-Serif" font-size="10.00" fill="#000000">benchmarks</text>
</g>
<!-- dir_1b53483452bb55d26e3cb66e1b6a096d -->
<g id="node2" class="node">
<title>dir_1b53483452bb55d26e3cb66e1b6a096d</title>
<g id="a_node2"><a xlink:href="dir_1b53483452bb55d26e3cb66e1b6a096d.html" target="_top" xlink:title="acrobot">
<polygon fill="#ffffff" stroke="#000000" points="339,-324 285,-324 285,-288 339,-288 339,-324"/>
<text text-anchor="middle" x="312" y="-303.5" font-family="Helvetica,sans-Serif" font-size="10.00" fill="#000000">acrobot</text>
</a>
</g>
</g>
<!-- dir_fc0178d6978c9fa2cad6ef3e048a60a7 -->
<g id="node9" class="node">
<title>dir_fc0178d6978c9fa2cad6ef3e048a60a7</title>
<g id="a_node9"><a xlink:href="dir_fc0178d6978c9fa2cad6ef3e048a60a7.html" target="_top" xlink:title="math">
<polygon fill="#ffffff" stroke="#ff0000" points="601,-108 547,-108 547,-72 601,-72 601,-108"/>
<text text-anchor="middle" x="574" y="-87.5" font-family="Helvetica,sans-Serif" font-size="10.00" fill="#000000">math</text>
</a>
</g>
</g>
<!-- dir_1b53483452bb55d26e3cb66e1b6a096d&#45;&gt;dir_fc0178d6978c9fa2cad6ef3e048a60a7 -->
<g id="edge33" class="edge">
<title>dir_1b53483452bb55d26e3cb66e1b6a096d&#45;&gt;dir_fc0178d6978c9fa2cad6ef3e048a60a7</title>
<path fill="none" stroke="#000000" d="M330.4973,-287.7879C362.4054,-256.7586 430.4041,-192.313 493,-144 507.2929,-132.9684 523.7622,-121.7403 538.1024,-112.4007"/>
<polygon fill="#000000" stroke="#000000" points="540.2082,-115.2075 546.7177,-106.8482 536.4161,-109.3237 540.2082,-115.2075"/>
<g id="a_edge33&#45;headlabel"><a xlink:href="dir_000196_000095.html" target="_top" xlink:title="2">
<text text-anchor="middle" x="538.7249" y="-117.0413" font-family="Helvetica,sans-Serif" font-size="10.00" fill="#000000">2</text>
</a>
</g>
</g>
<!-- dir_559c8ef22c6aa151f764a7a49835876c -->
<g id="node10" class="node">
<title>dir_559c8ef22c6aa151f764a7a49835876c</title>
<g id="a_node10"><a xlink:href="dir_559c8ef22c6aa151f764a7a49835876c.html" target="_top" xlink:title="multibody_tree">
<polygon fill="#ffffff" stroke="#ff0000" points="974.5,-324 883.5,-324 883.5,-288 974.5,-288 974.5,-324"/>
<text text-anchor="middle" x="929" y="-303.5" font-family="Helvetica,sans-Serif" font-size="10.00" fill="#000000">multibody_tree</text>
</a>
</g>
</g>
<!-- dir_1b53483452bb55d26e3cb66e1b6a096d&#45;&gt;dir_559c8ef22c6aa151f764a7a49835876c -->
<g id="edge34" class="edge">
<title>dir_1b53483452bb55d26e3cb66e1b6a096d&#45;&gt;dir_559c8ef22c6aa151f764a7a49835876c</title>
<path fill="none" stroke="#000000" d="M319.1046,-324.2951C326.2542,-339.3899 338.9678,-358.9611 358,-363 370.6625,-365.6872 811.3375,-365.6872 824,-363 850.3352,-357.4113 876.9568,-342.8376 896.8049,-329.8263"/>
<polygon fill="#000000" stroke="#000000" points="898.8235,-332.6865 905.1486,-324.1868 894.9036,-326.887 898.8235,-332.6865"/>
<g id="a_edge34&#45;headlabel"><a xlink:href="dir_000196_000025.html" target="_top" xlink:title="1">
<text text-anchor="middle" x="897.4353" y="-334.5517" font-family="Helvetica,sans-Serif" font-size="10.00" fill="#000000">1</text>
</a>
</g>
</g>
<!-- dir_a36da230f0956f48b11c85f7d599788f -->
<g id="node11" class="node">
<title>dir_a36da230f0956f48b11c85f7d599788f</title>
<g id="a_node11"><a xlink:href="dir_a36da230f0956f48b11c85f7d599788f.html" target="_top" xlink:title="common">
<polygon fill="#ffffff" stroke="#ff0000" points="546.5,-36 487.5,-36 487.5,0 546.5,0 546.5,-36"/>
<text text-anchor="middle" x="517" y="-15.5" font-family="Helvetica,sans-Serif" font-size="10.00" fill="#000000">common</text>
</a>
</g>
</g>
<!-- dir_1b53483452bb55d26e3cb66e1b6a096d&#45;&gt;dir_a36da230f0956f48b11c85f7d599788f -->
<g id="edge35" class="edge">
<title>dir_1b53483452bb55d26e3cb66e1b6a096d&#45;&gt;dir_a36da230f0956f48b11c85f7d599788f</title>
<path fill="none" stroke="#000000" d="M319.0636,-287.9661C335.9496,-246.44 381.917,-142.2509 444,-72 453.9963,-60.6886 466.7281,-50.2838 478.7505,-41.6901"/>
<polygon fill="#000000" stroke="#000000" points="481.09,-44.328 487.3299,-35.7656 477.1124,-38.5679 481.09,-44.328"/>
<g id="a_edge35&#45;headlabel"><a xlink:href="dir_000196_000078.html" target="_top" xlink:title="5">
<text text-anchor="middle" x="479.7455" y="-46.2069" font-family="Helvetica,sans-Serif" font-size="10.00" fill="#000000">5</text>
</a>
</g>
</g>
<!-- dir_d739e095b49d8b72164589d00310017d -->
<g id="node12" class="node">
<title>dir_d739e095b49d8b72164589d00310017d</title>
<g id="a_node12"><a xlink:href="dir_d739e095b49d8b72164589d00310017d.html" target="_top" xlink:title="geometry">
<polygon fill="#ffffff" stroke="#ff0000" points="546,-252 482,-252 482,-216 546,-216 546,-252"/>
<text text-anchor="middle" x="514" y="-231.5" font-family="Helvetica,sans-Serif" font-size="10.00" fill="#000000">geometry</text>
</a>
</g>
</g>
<!-- dir_1b53483452bb55d26e3cb66e1b6a096d&#45;&gt;dir_d739e095b49d8b72164589d00310017d -->
<g id="edge36" class="edge">
<title>dir_1b53483452bb55d26e3cb66e1b6a096d&#45;&gt;dir_d739e095b49d8b72164589d00310017d</title>
<path fill="none" stroke="#000000" d="M328.2406,-287.6856C334.2406,-281.9003 341.4356,-275.984 349,-272 387.6557,-251.6408 437.0415,-242.1132 471.6691,-237.7024"/>
<polygon fill="#000000" stroke="#000000" points="472.3936,-241.1412 481.9136,-236.4915 471.5718,-234.1896 472.3936,-241.1412"/>
<g id="a_edge36&#45;headlabel"><a xlink:href="dir_000196_000147.html" target="_top" xlink:title="1">
<text text-anchor="middle" x="469.157" y="-241.8827" font-family="Helvetica,sans-Serif" font-size="10.00" fill="#000000">1</text>
</a>
</g>
</g>
<!-- dir_b39de81840db0f6e9ca1af97863c509e -->
<g id="node3" class="node">
<title>dir_b39de81840db0f6e9ca1af97863c509e</title>
<g id="a_node3"><a xlink:href="dir_b39de81840db0f6e9ca1af97863c509e.html" target="_top" xlink:title="chaotic_babyboot">
<polygon fill="#ffffff" stroke="#ff0000" points="127.5,-324 24.5,-324 24.5,-288 127.5,-288 127.5,-324"/>
<text text-anchor="middle" x="76" y="-303.5" font-family="Helvetica,sans-Serif" font-size="10.00" fill="#000000">chaotic_babyboot</text>
</a>
</g>
</g>
<!-- dir_b39de81840db0f6e9ca1af97863c509e&#45;&gt;dir_a36da230f0956f48b11c85f7d599788f -->
<g id="edge16" class="edge">
<title>dir_b39de81840db0f6e9ca1af97863c509e&#45;&gt;dir_a36da230f0956f48b11c85f7d599788f</title>
<path fill="none" stroke="#000000" d="M94.2225,-287.7335C137.9229,-244.7981 253.577,-136.2492 368,-72 403.0261,-52.3326 446.5622,-37.5348 477.51,-28.449"/>
<polygon fill="#000000" stroke="#000000" points="478.8437,-31.7078 487.4923,-25.5879 476.915,-24.9787 478.8437,-31.7078"/>
<g id="a_edge16&#45;headlabel"><a xlink:href="dir_000197_000078.html" target="_top" xlink:title="1">
<text text-anchor="middle" x="476.1705" y="-32.9275" font-family="Helvetica,sans-Serif" font-size="10.00" fill="#000000">1</text>
</a>
</g>
</g>
<!-- dir_0767593f2fce2cf954de79364fec17e6 -->
<g id="node4" class="node">
<title>dir_0767593f2fce2cf954de79364fec17e6</title>
<g id="a_node4"><a xlink:href="dir_0767593f2fce2cf954de79364fec17e6.html" target="_top" xlink:title="free_body">
<polygon fill="#ffffff" stroke="#ff0000" points="610.5,-324 545.5,-324 545.5,-288 610.5,-288 610.5,-324"/>
<text text-anchor="middle" x="578" y="-303.5" font-family="Helvetica,sans-Serif" font-size="10.00" fill="#000000">free_body</text>
</a>
</g>
</g>
<!-- dir_0767593f2fce2cf954de79364fec17e6&#45;&gt;dir_fc0178d6978c9fa2cad6ef3e048a60a7 -->
<g id="edge18" class="edge">
<title>dir_0767593f2fce2cf954de79364fec17e6&#45;&gt;dir_fc0178d6978c9fa2cad6ef3e048a60a7</title>
<path fill="none" stroke="#000000" d="M582.2675,-287.6221C584.462,-277.2314 586.9016,-263.963 588,-252 592.3885,-204.201 594.0719,-191.6144 588,-144 586.9146,-135.4887 584.9038,-126.4011 582.738,-118.1555"/>
<polygon fill="#000000" stroke="#000000" points="586.0363,-116.9542 579.9698,-108.2681 579.2955,-118.8414 586.0363,-116.9542"/>
<g id="a_edge18&#45;headlabel"><a xlink:href="dir_000200_000095.html" target="_top" xlink:title="5">
<text text-anchor="middle" x="589.7395" y="-117.1502" font-family="Helvetica,sans-Serif" font-size="10.00" fill="#000000">5</text>
</a>
</g>
</g>
<!-- dir_0767593f2fce2cf954de79364fec17e6&#45;&gt;dir_a36da230f0956f48b11c85f7d599788f -->
<g id="edge19" class="edge">
<title>dir_0767593f2fce2cf954de79364fec17e6&#45;&gt;dir_a36da230f0956f48b11c85f7d599788f</title>
<path fill="none" stroke="#000000" d="M559.1141,-287.7235C552.5165,-282.0779 544.8007,-276.2373 537,-272 510.8131,-257.7752 490.6522,-276.0104 473,-252 426.7456,-189.0852 472.7136,-91.6046 499.9859,-44.8297"/>
<polygon fill="#000000" stroke="#000000" points="503.0319,-46.5554 505.1582,-36.1761 497.0234,-42.964 503.0319,-46.5554"/>
<g id="a_edge19&#45;headlabel"><a xlink:href="dir_000200_000078.html" target="_top" xlink:title="6">
<text text-anchor="middle" x="503.6249" y="-48.5975" font-family="Helvetica,sans-Serif" font-size="10.00" fill="#000000">6</text>
</a>
</g>
</g>
<!-- dir_3f9cb8dbb3b4911cb2ecb548acd672c3 -->
<g id="node13" class="node">
<title>dir_3f9cb8dbb3b4911cb2ecb548acd672c3</title>
<g id="a_node13"><a xlink:href="dir_3f9cb8dbb3b4911cb2ecb548acd672c3.html" target="_top" xlink:title="tree">
<polygon fill="#ffffff" stroke="#ff0000" points="793,-403 739,-403 739,-367 793,-367 793,-403"/>
<text text-anchor="middle" x="766" y="-382.5" font-family="Helvetica,sans-Serif" font-size="10.00" fill="#000000">tree</text>
</a>
</g>
</g>
<!-- dir_0767593f2fce2cf954de79364fec17e6&#45;&gt;dir_3f9cb8dbb3b4911cb2ecb548acd672c3 -->
<g id="edge20" class="edge">
<title>dir_0767593f2fce2cf954de79364fec17e6&#45;&gt;dir_3f9cb8dbb3b4911cb2ecb548acd672c3</title>
<path fill="none" stroke="#000000" d="M580.0884,-324.1052C585.9728,-335.9396 597.0909,-350.6917 611,-359 629.971,-370.332 689.1467,-378.1572 728.7922,-382.0833"/>
<polygon fill="#000000" stroke="#000000" points="728.6244,-385.583 738.9101,-383.0421 729.2849,-378.6142 728.6244,-385.583"/>
<g id="a_edge20&#45;headlabel"><a xlink:href="dir_000200_000017.html" target="_top" xlink:title="4">
<text text-anchor="middle" x="724.778" y="-385.5705" font-family="Helvetica,sans-Serif" font-size="10.00" fill="#000000">4</text>
</a>
</g>
</g>
<!-- dir_b7a0e33b407baa23d8a077e33033c988 -->
<g id="node14" class="node">
<title>dir_b7a0e33b407baa23d8a077e33033c988</title>
<g id="a_node14"><a xlink:href="dir_b7a0e33b407baa23d8a077e33033c988.html" target="_top" xlink:title="systems">
<polygon fill="#ffffff" stroke="#ff0000" points="774,-180 716,-180 716,-144 774,-144 774,-180"/>
<text text-anchor="middle" x="745" y="-159.5" font-family="Helvetica,sans-Serif" font-size="10.00" fill="#000000">systems</text>
</a>
</g>
</g>
<!-- dir_0767593f2fce2cf954de79364fec17e6&#45;&gt;dir_b7a0e33b407baa23d8a077e33033c988 -->
<g id="edge21" class="edge">
<title>dir_0767593f2fce2cf954de79364fec17e6&#45;&gt;dir_b7a0e33b407baa23d8a077e33033c988</title>
<path fill="none" stroke="#000000" d="M599.1507,-287.7623C628.8897,-262.119 683.1437,-215.3372 716.4405,-186.6262"/>
<polygon fill="#000000" stroke="#000000" points="718.7333,-189.2706 724.0211,-180.0896 714.1621,-183.9693 718.7333,-189.2706"/>
<g id="a_edge21&#45;headlabel"><a xlink:href="dir_000200_000218.html" target="_top" xlink:title="2">
<text text-anchor="middle" x="717.8652" y="-191.2682" font-family="Helvetica,sans-Serif" font-size="10.00" fill="#000000">2</text>
</a>
</g>
</g>
<!-- dir_b54e51ce690a91bb5edb8aefc17ffc16 -->
<g id="node5" class="node">
<title>dir_b54e51ce690a91bb5edb8aefc17ffc16</title>
<g id="a_node5"><a xlink:href="dir_b54e51ce690a91bb5edb8aefc17ffc16.html" target="_top" xlink:title="inclined_plane">
<polygon fill="#ffffff" stroke="#000000" points="527.5,-324 440.5,-324 440.5,-288 527.5,-288 527.5,-324"/>
<text text-anchor="middle" x="484" y="-303.5" font-family="Helvetica,sans-Serif" font-size="10.00" fill="#000000">inclined_plane</text>
</a>
</g>
</g>
<!-- dir_b54e51ce690a91bb5edb8aefc17ffc16&#45;&gt;dir_fc0178d6978c9fa2cad6ef3e048a60a7 -->
<g id="edge1" class="edge">
<title>dir_b54e51ce690a91bb5edb8aefc17ffc16&#45;&gt;dir_fc0178d6978c9fa2cad6ef3e048a60a7</title>
<path fill="none" stroke="#000000" d="M512.3532,-287.8152C529.7772,-276.0305 549.7413,-261.2131 555,-252 578.8135,-210.2794 579.4097,-152.7149 577.1021,-118.625"/>
<polygon fill="#000000" stroke="#000000" points="580.5724,-118.1163 576.2766,-108.4315 573.5953,-118.6814 580.5724,-118.1163"/>
<g id="a_edge1&#45;headlabel"><a xlink:href="dir_000202_000095.html" target="_top" xlink:title="1">
<text text-anchor="middle" x="583.6925" y="-118.97" font-family="Helvetica,sans-Serif" font-size="10.00" fill="#000000">1</text>
</a>
</g>
</g>
<!-- dir_b54e51ce690a91bb5edb8aefc17ffc16&#45;&gt;dir_559c8ef22c6aa151f764a7a49835876c -->
<g id="edge2" class="edge">
<title>dir_b54e51ce690a91bb5edb8aefc17ffc16&#45;&gt;dir_559c8ef22c6aa151f764a7a49835876c</title>
<path fill="none" stroke="#000000" d="M495.4059,-324.0012C506.2446,-338.903 524.1164,-358.356 546,-363 561.108,-366.2061 808.892,-366.2061 824,-363 850.3352,-357.4113 876.9568,-342.8376 896.8049,-329.8263"/>
<polygon fill="#000000" stroke="#000000" points="898.8235,-332.6865 905.1486,-324.1868 894.9036,-326.887 898.8235,-332.6865"/>
<g id="a_edge2&#45;headlabel"><a xlink:href="dir_000202_000025.html" target="_top" xlink:title="1">
<text text-anchor="middle" x="897.4353" y="-334.5517" font-family="Helvetica,sans-Serif" font-size="10.00" fill="#000000">1</text>
</a>
</g>
</g>
<!-- dir_b54e51ce690a91bb5edb8aefc17ffc16&#45;&gt;dir_d739e095b49d8b72164589d00310017d -->
<g id="edge3" class="edge">
<title>dir_b54e51ce690a91bb5edb8aefc17ffc16&#45;&gt;dir_d739e095b49d8b72164589d00310017d</title>
<path fill="none" stroke="#000000" d="M491.5703,-287.8314C494.8493,-279.9617 498.762,-270.5712 502.3945,-261.8533"/>
<polygon fill="#000000" stroke="#000000" points="505.7124,-262.9902 506.3278,-252.4133 499.2508,-260.2979 505.7124,-262.9902"/>
<g id="a_edge3&#45;headlabel"><a xlink:href="dir_000202_000147.html" target="_top" xlink:title="1">
<text text-anchor="middle" x="506.9507" y="-264.9003" font-family="Helvetica,sans-Serif" font-size="10.00" fill="#000000">1</text>
</a>
</g>
</g>
<!-- dir_fa973aef359a666fa59c209acc8a7d72 -->
<g id="node6" class="node">
<title>dir_fa973aef359a666fa59c209acc8a7d72</title>
<g id="a_node6"><a xlink:href="dir_fa973aef359a666fa59c209acc8a7d72.html" target="_top" xlink:title="kuka_iiwa_robot">
<polygon fill="#ffffff" stroke="#ff0000" points="725.5,-324 628.5,-324 628.5,-288 725.5,-288 725.5,-324"/>
<text text-anchor="middle" x="677" y="-303.5" font-family="Helvetica,sans-Serif" font-size="10.00" fill="#000000">kuka_iiwa_robot</text>
</a>
</g>
</g>
<!-- dir_fa973aef359a666fa59c209acc8a7d72&#45;&gt;dir_fc0178d6978c9fa2cad6ef3e048a60a7 -->
<g id="edge41" class="edge">
<title>dir_fa973aef359a666fa59c209acc8a7d72&#45;&gt;dir_fc0178d6978c9fa2cad6ef3e048a60a7</title>
<path fill="none" stroke="#000000" d="M669.1619,-287.8421C656.0457,-257.6919 628.5663,-195.5167 603,-144 598.6228,-135.1798 593.6211,-125.6809 589.0183,-117.1461"/>
<polygon fill="#000000" stroke="#000000" points="592.0818,-115.4532 584.2287,-108.3412 585.9326,-118.7981 592.0818,-115.4532"/>
<g id="a_edge41&#45;headlabel"><a xlink:href="dir_000203_000095.html" target="_top" xlink:title="2">
<text text-anchor="middle" x="596.2935" y="-114.7541" font-family="Helvetica,sans-Serif" font-size="10.00" fill="#000000">2</text>
</a>
</g>
</g>
<!-- dir_fa973aef359a666fa59c209acc8a7d72&#45;&gt;dir_559c8ef22c6aa151f764a7a49835876c -->
<g id="edge42" class="edge">
<title>dir_fa973aef359a666fa59c209acc8a7d72&#45;&gt;dir_559c8ef22c6aa151f764a7a49835876c</title>
<path fill="none" stroke="#000000" d="M694.0356,-324.3204C704.9829,-335.3601 719.9324,-349.1432 735,-359 738.6631,-361.3963 739.7181,-362.0913 744,-363 761.3905,-366.6905 806.6095,-366.6905 824,-363 850.3352,-357.4113 876.9568,-342.8376 896.8049,-329.8263"/>
<polygon fill="#000000" stroke="#000000" points="898.8235,-332.6865 905.1486,-324.1868 894.9036,-326.887 898.8235,-332.6865"/>
<g id="a_edge42&#45;headlabel"><a xlink:href="dir_000203_000025.html" target="_top" xlink:title="2">
<text text-anchor="middle" x="897.4353" y="-334.5517" font-family="Helvetica,sans-Serif" font-size="10.00" fill="#000000">2</text>
</a>
</g>
</g>
<!-- dir_fa973aef359a666fa59c209acc8a7d72&#45;&gt;dir_a36da230f0956f48b11c85f7d599788f -->
<g id="edge43" class="edge">
<title>dir_fa973aef359a666fa59c209acc8a7d72&#45;&gt;dir_a36da230f0956f48b11c85f7d599788f</title>
<path fill="none" stroke="#000000" d="M676.535,-287.9713C674.5367,-245.5498 664.0948,-138.031 610,-72 595.8296,-54.7028 574.5631,-41.7711 555.9417,-32.9061"/>
<polygon fill="#000000" stroke="#000000" points="557.3306,-29.693 546.7769,-28.7597 554.4451,-36.0706 557.3306,-29.693"/>
<g id="a_edge43&#45;headlabel"><a xlink:href="dir_000203_000078.html" target="_top" xlink:title="7">
<text text-anchor="middle" x="561.7759" y="-26.0878" font-family="Helvetica,sans-Serif" font-size="10.00" fill="#000000">7</text>
</a>
</g>
</g>
<!-- dir_fa973aef359a666fa59c209acc8a7d72&#45;&gt;dir_b7a0e33b407baa23d8a077e33033c988 -->
<g id="edge44" class="edge">
<title>dir_fa973aef359a666fa59c209acc8a7d72&#45;&gt;dir_b7a0e33b407baa23d8a077e33033c988</title>
<path fill="none" stroke="#000000" d="M707.2629,-287.9373C719.6705,-278.8262 732.7903,-266.5946 740,-252 749.3861,-232.9996 750.2411,-208.9164 748.9641,-190.4449"/>
<polygon fill="#000000" stroke="#000000" points="752.4312,-189.9286 748.0143,-180.2984 745.4616,-190.5811 752.4312,-189.9286"/>
<g id="a_edge44&#45;headlabel"><a xlink:href="dir_000203_000218.html" target="_top" xlink:title="1">
<text text-anchor="middle" x="755.593" y="-190.743" font-family="Helvetica,sans-Serif" font-size="10.00" fill="#000000">1</text>
</a>
</g>
</g>
<!-- dir_7c13d4ecf9df251d512b4733b7b28f01 -->
<g id="node7" class="node">
<title>dir_7c13d4ecf9df251d512b4733b7b28f01</title>
<g id="a_node7"><a xlink:href="dir_7c13d4ecf9df251d512b4733b7b28f01.html" target="_top" xlink:title="mass_damper_spring">
<polygon fill="#ffffff" stroke="#ff0000" points="266.5,-324 145.5,-324 145.5,-288 266.5,-288 266.5,-324"/>
<text text-anchor="middle" x="206" y="-303.5" font-family="Helvetica,sans-Serif" font-size="10.00" fill="#000000">mass_damper_spring</text>
</a>
</g>
</g>
<!-- dir_7c13d4ecf9df251d512b4733b7b28f01&#45;&gt;dir_a36da230f0956f48b11c85f7d599788f -->
<g id="edge32" class="edge">
<title>dir_7c13d4ecf9df251d512b4733b7b28f01&#45;&gt;dir_a36da230f0956f48b11c85f7d599788f</title>
<path fill="none" stroke="#000000" d="M218.3375,-287.8141C247.7469,-245.5159 325.9755,-139.0373 412,-72 432.0506,-56.3749 457.3141,-43.2166 478.0353,-33.8015"/>
<polygon fill="#000000" stroke="#000000" points="479.474,-36.9923 487.2012,-29.7437 476.6403,-30.5915 479.474,-36.9923"/>
<g id="a_edge32&#45;headlabel"><a xlink:href="dir_000207_000078.html" target="_top" xlink:title="6">
<text text-anchor="middle" x="477.3365" y="-38.5436" font-family="Helvetica,sans-Serif" font-size="10.00" fill="#000000">6</text>
</a>
</g>
</g>
<!-- dir_0e1ecb96e57b1c1f48b2887ea5038a05 -->
<g id="node8" class="node">
<title>dir_0e1ecb96e57b1c1f48b2887ea5038a05</title>
<g id="a_node8"><a xlink:href="dir_0e1ecb96e57b1c1f48b2887ea5038a05.html" target="_top" xlink:title="pendulum">
<polygon fill="#ffffff" stroke="#000000" points="422.5,-324 357.5,-324 357.5,-288 422.5,-288 422.5,-324"/>
<text text-anchor="middle" x="390" y="-303.5" font-family="Helvetica,sans-Serif" font-size="10.00" fill="#000000">pendulum</text>
</a>
</g>
</g>
<!-- dir_0e1ecb96e57b1c1f48b2887ea5038a05&#45;&gt;dir_fc0178d6978c9fa2cad6ef3e048a60a7 -->
<g id="edge4" class="edge">
<title>dir_0e1ecb96e57b1c1f48b2887ea5038a05&#45;&gt;dir_fc0178d6978c9fa2cad6ef3e048a60a7</title>
<path fill="none" stroke="#000000" d="M405.3713,-287.9555C437.9771,-249.6791 514.1731,-160.2316 551.9547,-115.8793"/>
<polygon fill="#000000" stroke="#000000" points="554.7228,-118.0272 558.5431,-108.1451 549.394,-113.4879 554.7228,-118.0272"/>
<g id="a_edge4&#45;headlabel"><a xlink:href="dir_000209_000095.html" target="_top" xlink:title="1">
<text text-anchor="middle" x="554.5532" y="-120.1047" font-family="Helvetica,sans-Serif" font-size="10.00" fill="#000000">1</text>
</a>
</g>
</g>
<!-- dir_0e1ecb96e57b1c1f48b2887ea5038a05&#45;&gt;dir_559c8ef22c6aa151f764a7a49835876c -->
<g id="edge5" class="edge">
<title>dir_0e1ecb96e57b1c1f48b2887ea5038a05&#45;&gt;dir_559c8ef22c6aa151f764a7a49835876c</title>
<path fill="none" stroke="#000000" d="M398.4727,-324.2084C406.7909,-339.2462 421.1262,-358.7825 441,-363 461.8143,-367.4171 803.1857,-367.4171 824,-363 850.3352,-357.4113 876.9568,-342.8376 896.8049,-329.8263"/>
<polygon fill="#000000" stroke="#000000" points="898.8235,-332.6865 905.1486,-324.1868 894.9036,-326.887 898.8235,-332.6865"/>
<g id="a_edge5&#45;headlabel"><a xlink:href="dir_000209_000025.html" target="_top" xlink:title="1">
<text text-anchor="middle" x="897.4353" y="-334.5517" font-family="Helvetica,sans-Serif" font-size="10.00" fill="#000000">1</text>
</a>
</g>
</g>
<!-- dir_0e1ecb96e57b1c1f48b2887ea5038a05&#45;&gt;dir_a36da230f0956f48b11c85f7d599788f -->
<g id="edge6" class="edge">
<title>dir_0e1ecb96e57b1c1f48b2887ea5038a05&#45;&gt;dir_a36da230f0956f48b11c85f7d599788f</title>
<path fill="none" stroke="#000000" d="M393.062,-287.8543C400.5441,-246.9663 422.4132,-145.472 466,-72 472.1574,-61.6209 480.6285,-51.6137 488.8989,-43.0936"/>
<polygon fill="#000000" stroke="#000000" points="491.4045,-45.5382 496.052,-36.0171 486.4814,-40.5619 491.4045,-45.5382"/>
<g id="a_edge6&#45;headlabel"><a xlink:href="dir_000209_000078.html" target="_top" xlink:title="1">
<text text-anchor="middle" x="490.8459" y="-47.5847" font-family="Helvetica,sans-Serif" font-size="10.00" fill="#000000">1</text>
</a>
</g>
</g>
<!-- dir_0e1ecb96e57b1c1f48b2887ea5038a05&#45;&gt;dir_d739e095b49d8b72164589d00310017d -->
<g id="edge7" class="edge">
<title>dir_0e1ecb96e57b1c1f48b2887ea5038a05&#45;&gt;dir_d739e095b49d8b72164589d00310017d</title>
<path fill="none" stroke="#000000" d="M410.1789,-287.9885C416.8648,-282.4865 424.5155,-276.6636 432,-272 444.6447,-264.121 459.1904,-256.859 472.4874,-250.8402"/>
<polygon fill="#000000" stroke="#000000" points="474.1672,-253.9246 481.9038,-246.6862 471.3419,-247.5201 474.1672,-253.9246"/>
<g id="a_edge7&#45;headlabel"><a xlink:href="dir_000209_000147.html" target="_top" xlink:title="1">
<text text-anchor="middle" x="472.0243" y="-255.4731" font-family="Helvetica,sans-Serif" font-size="10.00" fill="#000000">1</text>
</a>
</g>
</g>
<!-- dir_fc0178d6978c9fa2cad6ef3e048a60a7&#45;&gt;dir_a36da230f0956f48b11c85f7d599788f -->
<g id="edge8" class="edge">
<title>dir_fc0178d6978c9fa2cad6ef3e048a60a7&#45;&gt;dir_a36da230f0956f48b11c85f7d599788f</title>
<path fill="none" stroke="#000000" d="M553.6641,-71.8314C546.3661,-63.6232 538.3599,-53.7606 531.6159,-44.7323"/>
<polygon fill="#000000" stroke="#000000" points="534.2966,-42.4663 525.6012,-36.4133 528.624,-46.5677 534.2966,-42.4663"/>
<g id="a_edge8&#45;headlabel"><a xlink:href="dir_000095_000078.html" target="_top" xlink:title="87">
<text text-anchor="middle" x="538.7036" y="-41.2157" font-family="Helvetica,sans-Serif" font-size="10.00" fill="#000000">87</text>
</a>
</g>
</g>
<!-- dir_559c8ef22c6aa151f764a7a49835876c&#45;&gt;dir_1b53483452bb55d26e3cb66e1b6a096d -->
<g id="edge14" class="edge">
<title>dir_559c8ef22c6aa151f764a7a49835876c&#45;&gt;dir_1b53483452bb55d26e3cb66e1b6a096d</title>
<path fill="none" stroke="#000000" d="M905.1486,-324.1868C884.8422,-338.3275 854.2323,-356.5843 824,-363 811.3375,-365.6872 370.6625,-365.6872 358,-363 342.685,-359.7499 331.4615,-346.4424 323.9362,-333.5029"/>
<polygon fill="#000000" stroke="#000000" points="326.8503,-331.5238 319.1046,-324.2951 320.6518,-334.7764 326.8503,-331.5238"/>
<g id="a_edge14&#45;headlabel"><a xlink:href="dir_000025_000196.html" target="_top" xlink:title="3">
<text text-anchor="middle" x="331.0347" y="-330.8876" font-family="Helvetica,sans-Serif" font-size="10.00" fill="#000000">3</text>
</a>
</g>
</g>
<!-- dir_559c8ef22c6aa151f764a7a49835876c&#45;&gt;dir_b54e51ce690a91bb5edb8aefc17ffc16 -->
<g id="edge9" class="edge">
<title>dir_559c8ef22c6aa151f764a7a49835876c&#45;&gt;dir_b54e51ce690a91bb5edb8aefc17ffc16</title>
<path fill="none" stroke="#000000" d="M905.1486,-324.1868C884.8422,-338.3275 854.2323,-356.5843 824,-363 808.892,-366.2061 561.108,-366.2061 546,-363 527.8777,-359.1542 512.5065,-345.1525 501.6025,-331.99"/>
<polygon fill="#000000" stroke="#000000" points="504.3005,-329.7577 495.4059,-324.0012 498.7694,-334.048 504.3005,-329.7577"/>
<g id="a_edge9&#45;headlabel"><a xlink:href="dir_000025_000202.html" target="_top" xlink:title="1">
<text text-anchor="middle" x="508.7471" y="-328.3578" font-family="Helvetica,sans-Serif" font-size="10.00" fill="#000000">1</text>
</a>
</g>
</g>
<!-- dir_559c8ef22c6aa151f764a7a49835876c&#45;&gt;dir_0e1ecb96e57b1c1f48b2887ea5038a05 -->
<g id="edge10" class="edge">
<title>dir_559c8ef22c6aa151f764a7a49835876c&#45;&gt;dir_0e1ecb96e57b1c1f48b2887ea5038a05</title>
<path fill="none" stroke="#000000" d="M905.1486,-324.1868C884.8422,-338.3275 854.2323,-356.5843 824,-363 803.1857,-367.4171 461.8143,-367.4171 441,-363 424.8525,-359.5733 412.3614,-346.0338 403.7832,-333.011"/>
<polygon fill="#000000" stroke="#000000" points="406.6353,-330.9629 398.4727,-324.2084 400.6415,-334.5789 406.6353,-330.9629"/>
<g id="a_edge10&#45;headlabel"><a xlink:href="dir_000025_000209.html" target="_top" xlink:title="1">
<text text-anchor="middle" x="410.9232" y="-330.0742" font-family="Helvetica,sans-Serif" font-size="10.00" fill="#000000">1</text>
</a>
</g>
</g>
<!-- dir_559c8ef22c6aa151f764a7a49835876c&#45;&gt;dir_fc0178d6978c9fa2cad6ef3e048a60a7 -->
<g id="edge11" class="edge">
<title>dir_559c8ef22c6aa151f764a7a49835876c&#45;&gt;dir_fc0178d6978c9fa2cad6ef3e048a60a7</title>
<path fill="none" stroke="#000000" d="M923.9372,-287.8382C917.843,-268.4341 906.11,-237.5625 888,-216 851.6083,-172.6707 834.5046,-167.4318 783,-144 725.8028,-117.9784 653.8709,-102.8781 611.0437,-95.5559"/>
<polygon fill="#000000" stroke="#000000" points="611.5062,-92.0849 601.0683,-93.9016 610.3609,-98.9906 611.5062,-92.0849"/>
<g id="a_edge11&#45;headlabel"><a xlink:href="dir_000025_000095.html" target="_top" xlink:title="12">
<text text-anchor="middle" x="615.5169" y="-87.3719" font-family="Helvetica,sans-Serif" font-size="10.00" fill="#000000">12</text>
</a>
</g>
</g>
<!-- dir_559c8ef22c6aa151f764a7a49835876c&#45;&gt;dir_a36da230f0956f48b11c85f7d599788f -->
<g id="edge12" class="edge">
<title>dir_559c8ef22c6aa151f764a7a49835876c&#45;&gt;dir_a36da230f0956f48b11c85f7d599788f</title>
<path fill="none" stroke="#000000" d="M928.9575,-287.9258C928.1742,-268.8723 924.7756,-238.5518 912,-216 860.815,-125.6468 822.3773,-115.3189 728,-72 671.3695,-46.0068 600.2162,-31.1022 556.7023,-23.7812"/>
<polygon fill="#000000" stroke="#000000" points="557.2246,-20.3202 546.7916,-22.1648 556.0978,-27.2289 557.2246,-20.3202"/>
<g id="a_edge12&#45;headlabel"><a xlink:href="dir_000025_000078.html" target="_top" xlink:title="37">
<text text-anchor="middle" x="561.2293" y="-15.5964" font-family="Helvetica,sans-Serif" font-size="10.00" fill="#000000">37</text>
</a>
</g>
</g>
<!-- dir_559c8ef22c6aa151f764a7a49835876c&#45;&gt;dir_d739e095b49d8b72164589d00310017d -->
<g id="edge13" class="edge">
<title>dir_559c8ef22c6aa151f764a7a49835876c&#45;&gt;dir_d739e095b49d8b72164589d00310017d</title>
<path fill="none" stroke="#000000" d="M884.6819,-287.9912C868.6324,-282.0896 850.2176,-276.0218 833,-272 735.4515,-249.2139 617.7579,-239.6961 556.2042,-236.0447"/>
<polygon fill="#000000" stroke="#000000" points="556.2828,-232.5436 546.0997,-235.4685 555.8842,-239.5323 556.2828,-232.5436"/>
<g id="a_edge13&#45;headlabel"><a xlink:href="dir_000025_000147.html" target="_top" xlink:title="12">
<text text-anchor="middle" x="560.0332" y="-227.4135" font-family="Helvetica,sans-Serif" font-size="10.00" fill="#000000">12</text>
</a>
</g>
</g>
<!-- dir_559c8ef22c6aa151f764a7a49835876c&#45;&gt;dir_b7a0e33b407baa23d8a077e33033c988 -->
<g id="edge15" class="edge">
<title>dir_559c8ef22c6aa151f764a7a49835876c&#45;&gt;dir_b7a0e33b407baa23d8a077e33033c988</title>
<path fill="none" stroke="#000000" d="M908.8228,-287.7123C891.3458,-268.2005 865.3989,-237.2376 838,-216 821.2975,-203.0535 801.0446,-191.6089 783.6311,-182.6262"/>
<polygon fill="#000000" stroke="#000000" points="784.7921,-179.291 774.2896,-177.8952 781.6294,-185.5358 784.7921,-179.291"/>
<g id="a_edge15&#45;headlabel"><a xlink:href="dir_000025_000218.html" target="_top" xlink:title="22">
<text text-anchor="middle" x="789.2817" y="-175.8821" font-family="Helvetica,sans-Serif" font-size="10.00" fill="#000000">22</text>
</a>
</g>
</g>
<!-- dir_a36da230f0956f48b11c85f7d599788f&#45;&gt;dir_fc0178d6978c9fa2cad6ef3e048a60a7 -->
<g id="edge17" class="edge">
<title>dir_a36da230f0956f48b11c85f7d599788f&#45;&gt;dir_fc0178d6978c9fa2cad6ef3e048a60a7</title>
<path fill="none" stroke="#000000" d="M537.5532,-36.4133C544.865,-44.654 552.8655,-54.5245 559.5843,-63.536"/>
<polygon fill="#000000" stroke="#000000" points="556.8797,-65.7693 565.5689,-71.8314 562.5566,-61.6738 556.8797,-65.7693"/>
<g id="a_edge17&#45;headlabel"><a xlink:href="dir_000078_000095.html" target="_top" xlink:title="4">
<text text-anchor="middle" x="552.474" y="-62.0153" font-family="Helvetica,sans-Serif" font-size="10.00" fill="#000000">4</text>
</a>
</g>
</g>
<!-- dir_d739e095b49d8b72164589d00310017d&#45;&gt;dir_fc0178d6978c9fa2cad6ef3e048a60a7 -->
<g id="edge22" class="edge">
<title>dir_d739e095b49d8b72164589d00310017d&#45;&gt;dir_fc0178d6978c9fa2cad6ef3e048a60a7</title>
<path fill="none" stroke="#000000" d="M521.599,-215.7623C531.9231,-190.9846 550.4703,-146.4714 562.5025,-117.5939"/>
<polygon fill="#000000" stroke="#000000" points="565.8472,-118.6666 566.4627,-108.0896 559.3857,-115.9742 565.8472,-118.6666"/>
<g id="a_edge22&#45;headlabel"><a xlink:href="dir_000147_000095.html" target="_top" xlink:title="1">
<text text-anchor="middle" x="567.0856" y="-120.5767" font-family="Helvetica,sans-Serif" font-size="10.00" fill="#000000">1</text>
</a>
</g>
</g>
<!-- dir_d739e095b49d8b72164589d00310017d&#45;&gt;dir_a36da230f0956f48b11c85f7d599788f -->
<g id="edge23" class="edge">
<title>dir_d739e095b49d8b72164589d00310017d&#45;&gt;dir_a36da230f0956f48b11c85f7d599788f</title>
<path fill="none" stroke="#000000" d="M514.2506,-215.9555C514.7723,-178.3938 515.9784,-91.5541 516.6054,-46.4103"/>
<polygon fill="#000000" stroke="#000000" points="520.1087,-46.1927 516.748,-36.1451 513.1094,-46.0955 520.1087,-46.1927"/>
<g id="a_edge23&#45;headlabel"><a xlink:href="dir_000147_000078.html" target="_top" xlink:title="74">
<text text-anchor="middle" x="522.8979" y="-47.3264" font-family="Helvetica,sans-Serif" font-size="10.00" fill="#000000">74</text>
</a>
</g>
</g>
<!-- dir_d739e095b49d8b72164589d00310017d&#45;&gt;dir_b7a0e33b407baa23d8a077e33033c988 -->
<g id="edge24" class="edge">
<title>dir_d739e095b49d8b72164589d00310017d&#45;&gt;dir_b7a0e33b407baa23d8a077e33033c988</title>
<path fill="none" stroke="#000000" d="M546.4876,-222.2717C588.493,-208.4906 661.2702,-185.8271 706.1464,-172.5687"/>
<polygon fill="#000000" stroke="#000000" points="707.2137,-175.9032 715.8242,-169.7298 705.2433,-169.1862 707.2137,-175.9032"/>
<g id="a_edge24&#45;headlabel"><a xlink:href="dir_000147_000218.html" target="_top" xlink:title="16">
<text text-anchor="middle" x="704.5636" y="-177.1394" font-family="Helvetica,sans-Serif" font-size="10.00" fill="#000000">16</text>
</a>
</g>
</g>
<!-- dir_3f9cb8dbb3b4911cb2ecb548acd672c3&#45;&gt;dir_1b53483452bb55d26e3cb66e1b6a096d -->
<g id="edge29" class="edge">
<title>dir_3f9cb8dbb3b4911cb2ecb548acd672c3&#45;&gt;dir_1b53483452bb55d26e3cb66e1b6a096d</title>
<path fill="none" stroke="#000000" d="M738.7425,-384.6648C651.498,-383.4048 382.8344,-378.0057 349,-359 338.5129,-353.1091 330.3213,-342.8598 324.3413,-332.9346"/>
<polygon fill="#000000" stroke="#000000" points="327.3446,-331.1319 319.4689,-324.045 321.2062,-334.4964 327.3446,-331.1319"/>
<g id="a_edge29&#45;headlabel"><a xlink:href="dir_000017_000196.html" target="_top" xlink:title="2">
<text text-anchor="middle" x="331.5621" y="-330.4194" font-family="Helvetica,sans-Serif" font-size="10.00" fill="#000000">2</text>
</a>
</g>
</g>
<!-- dir_3f9cb8dbb3b4911cb2ecb548acd672c3&#45;&gt;dir_0767593f2fce2cf954de79364fec17e6 -->
<g id="edge28" class="edge">
<title>dir_3f9cb8dbb3b4911cb2ecb548acd672c3&#45;&gt;dir_0767593f2fce2cf954de79364fec17e6</title>
<path fill="none" stroke="#000000" d="M738.8343,-381.791C704.302,-377.7758 647.5113,-370.0573 629,-359 618.1335,-352.5091 608.9706,-342.0853 601.3313,-332.1924"/>
<polygon fill="#000000" stroke="#000000" points="604.0675,-330.0072 595.2687,-324.1052 598.4665,-334.206 604.0675,-330.0072"/>
<g id="a_edge28&#45;headlabel"><a xlink:href="dir_000017_000200.html" target="_top" xlink:title="2">
<text text-anchor="middle" x="608.4954" y="-328.6803" font-family="Helvetica,sans-Serif" font-size="10.00" fill="#000000">2</text>
</a>
</g>
</g>
<!-- dir_3f9cb8dbb3b4911cb2ecb548acd672c3&#45;&gt;dir_fa973aef359a666fa59c209acc8a7d72 -->
<g id="edge31" class="edge">
<title>dir_3f9cb8dbb3b4911cb2ecb548acd672c3&#45;&gt;dir_fa973aef359a666fa59c209acc8a7d72</title>
<path fill="none" stroke="#000000" d="M744.2203,-366.9328C741.1077,-364.2929 737.9595,-361.5912 735,-359 724.7158,-349.9956 713.5955,-339.9194 703.8697,-330.9903"/>
<polygon fill="#000000" stroke="#000000" points="706.1371,-328.3202 696.4114,-324.1176 701.3936,-333.468 706.1371,-328.3202"/>
<g id="a_edge31&#45;headlabel"><a xlink:href="dir_000017_000203.html" target="_top" xlink:title="2">
<text text-anchor="middle" x="710.7045" y="-326.1681" font-family="Helvetica,sans-Serif" font-size="10.00" fill="#000000">2</text>
</a>
</g>
</g>
<!-- dir_3f9cb8dbb3b4911cb2ecb548acd672c3&#45;&gt;dir_fc0178d6978c9fa2cad6ef3e048a60a7 -->
<g id="edge25" class="edge">
<title>dir_3f9cb8dbb3b4911cb2ecb548acd672c3&#45;&gt;dir_fc0178d6978c9fa2cad6ef3e048a60a7</title>
<path fill="none" stroke="#000000" d="M793.4145,-383.7304C849.1605,-380.8671 971.537,-373.0377 984,-359 1009.6715,-330.0848 1000.367,-307.0319 984,-272 917.1616,-128.9388 699.0053,-98.3244 611.1532,-91.7783"/>
<polygon fill="#000000" stroke="#000000" points="611.3193,-88.2816 601.1044,-91.0934 610.8432,-95.2654 611.3193,-88.2816"/>
<g id="a_edge25&#45;headlabel"><a xlink:href="dir_000017_000095.html" target="_top" xlink:title="38">
<text text-anchor="middle" x="615.0987" y="-83.1932" font-family="Helvetica,sans-Serif" font-size="10.00" fill="#000000">38</text>
</a>
</g>
</g>
<!-- dir_3f9cb8dbb3b4911cb2ecb548acd672c3&#45;&gt;dir_559c8ef22c6aa151f764a7a49835876c -->
<g id="edge26" class="edge">
<title>dir_3f9cb8dbb3b4911cb2ecb548acd672c3&#45;&gt;dir_559c8ef22c6aa151f764a7a49835876c</title>
<path fill="none" stroke="#000000" d="M793.0758,-381.7526C814.6181,-378.3442 845.0206,-371.6489 869,-359 882.3228,-351.9724 895.1184,-341.3964 905.4456,-331.5359"/>
<polygon fill="#000000" stroke="#000000" points="908.1986,-333.7347 912.8295,-324.2056 903.2669,-328.767 908.1986,-333.7347"/>
<g id="a_edge26&#45;headlabel"><a xlink:href="dir_000017_000025.html" target="_top" xlink:title="1">
<text text-anchor="middle" x="907.6479" y="-335.7822" font-family="Helvetica,sans-Serif" font-size="10.00" fill="#000000">1</text>
</a>
</g>
</g>
<!-- dir_3f9cb8dbb3b4911cb2ecb548acd672c3&#45;&gt;dir_a36da230f0956f48b11c85f7d599788f -->
<g id="edge27" class="edge">
<title>dir_3f9cb8dbb3b4911cb2ecb548acd672c3&#45;&gt;dir_a36da230f0956f48b11c85f7d599788f</title>
<path fill="none" stroke="#000000" d="M793.0135,-383.7404C852.1392,-380.7466 989.0301,-372.4341 1005,-359 1049.2417,-321.7832 1041,-291.8137 1041,-234 1041,-234 1041,-234 1041,-162 1041,-61.6181 678.9356,-28.6208 556.7328,-20.3425"/>
<polygon fill="#000000" stroke="#000000" points="556.8821,-16.8448 546.6739,-19.6806 556.4225,-23.8297 556.8821,-16.8448"/>
<g id="a_edge27&#45;headlabel"><a xlink:href="dir_000017_000078.html" target="_top" xlink:title="184">
<text text-anchor="middle" x="560.6554" y="-11.7476" font-family="Helvetica,sans-Serif" font-size="10.00" fill="#000000">184</text>
</a>
</g>
</g>
<!-- dir_3f9cb8dbb3b4911cb2ecb548acd672c3&#45;&gt;dir_b7a0e33b407baa23d8a077e33033c988 -->
<g id="edge30" class="edge">
<title>dir_3f9cb8dbb3b4911cb2ecb548acd672c3&#45;&gt;dir_b7a0e33b407baa23d8a077e33033c988</title>
<path fill="none" stroke="#000000" d="M793.2041,-377.8321C809.5975,-372.9013 828.2072,-366.001 833,-359 854.8428,-327.0939 845.7989,-308.487 833,-272 821.248,-238.4976 794.5258,-207.6187 773.5911,-187.1614"/>
<polygon fill="#000000" stroke="#000000" points="775.8365,-184.4667 766.1787,-180.1104 771.012,-189.5386 775.8365,-184.4667"/>
<g id="a_edge30&#45;headlabel"><a xlink:href="dir_000017_000218.html" target="_top" xlink:title="44">
<text text-anchor="middle" x="780.3978" y="-182.3869" font-family="Helvetica,sans-Serif" font-size="10.00" fill="#000000">44</text>
</a>
</g>
</g>
<!-- dir_b7a0e33b407baa23d8a077e33033c988&#45;&gt;dir_fc0178d6978c9fa2cad6ef3e048a60a7 -->
<g id="edge37" class="edge">
<title>dir_b7a0e33b407baa23d8a077e33033c988&#45;&gt;dir_fc0178d6978c9fa2cad6ef3e048a60a7</title>
<path fill="none" stroke="#000000" d="M715.9922,-149.7862C686.8909,-137.533 641.9852,-118.6254 610.4842,-105.3618"/>
<polygon fill="#000000" stroke="#000000" points="611.7453,-102.0952 601.1707,-101.4403 609.0289,-108.5467 611.7453,-102.0952"/>
<g id="a_edge37&#45;headlabel"><a xlink:href="dir_000218_000095.html" target="_top" xlink:title="29">
<text text-anchor="middle" x="616.16" y="-98.3733" font-family="Helvetica,sans-Serif" font-size="10.00" fill="#000000">29</text>
</a>
</g>
</g>
<!-- dir_b7a0e33b407baa23d8a077e33033c988&#45;&gt;dir_559c8ef22c6aa151f764a7a49835876c -->
<g id="edge38" class="edge">
<title>dir_b7a0e33b407baa23d8a077e33033c988&#45;&gt;dir_559c8ef22c6aa151f764a7a49835876c</title>
<path fill="none" stroke="#000000" d="M774.2823,-171.1549C797.9889,-180.5811 830.9784,-196.6051 856,-216 879.76,-234.4169 902.428,-260.1475 916.3413,-279.3817"/>
<polygon fill="#000000" stroke="#000000" points="913.5298,-281.4699 922.0903,-287.7123 919.2911,-277.494 913.5298,-281.4699"/>
<g id="a_edge38&#45;headlabel"><a xlink:href="dir_000218_000025.html" target="_top" xlink:title="5">
<text text-anchor="middle" x="909.1513" y="-277.6241" font-family="Helvetica,sans-Serif" font-size="10.00" fill="#000000">5</text>
</a>
</g>
</g>
<!-- dir_b7a0e33b407baa23d8a077e33033c988&#45;&gt;dir_a36da230f0956f48b11c85f7d599788f -->
<g id="edge39" class="edge">
<title>dir_b7a0e33b407baa23d8a077e33033c988&#45;&gt;dir_a36da230f0956f48b11c85f7d599788f</title>
<path fill="none" stroke="#000000" d="M741.0114,-143.7215C735.619,-123.3232 724.0336,-90.7304 702,-72 680.0911,-53.3756 604.2001,-35.4167 556.6952,-25.6261"/>
<polygon fill="#000000" stroke="#000000" points="557.2252,-22.1624 546.7292,-23.6058 555.8345,-29.0229 557.2252,-22.1624"/>
<g id="a_edge39&#45;headlabel"><a xlink:href="dir_000218_000078.html" target="_top" xlink:title="555">
<text text-anchor="middle" x="561.3123" y="-17.5938" font-family="Helvetica,sans-Serif" font-size="10.00" fill="#000000">555</text>
</a>
</g>
</g>
<!-- dir_b7a0e33b407baa23d8a077e33033c988&#45;&gt;dir_d739e095b49d8b72164589d00310017d -->
<g id="edge40" class="edge">
<title>dir_b7a0e33b407baa23d8a077e33033c988&#45;&gt;dir_d739e095b49d8b72164589d00310017d</title>
<path fill="none" stroke="#000000" d="M715.9897,-172.5846C675.6179,-185.8991 602.5821,-208.6806 556.2036,-222.4395"/>
<polygon fill="#000000" stroke="#000000" points="555.0508,-219.1303 546.4485,-225.3151 557.0301,-225.8447 555.0508,-219.1303"/>
<g id="a_edge40&#45;headlabel"><a xlink:href="dir_000218_000147.html" target="_top" xlink:title="4">
<text text-anchor="middle" x="557.6959" y="-212.8906" font-family="Helvetica,sans-Serif" font-size="10.00" fill="#000000">4</text>
</a>
</g>
</g>
</g>
</svg>
