<?xml version="1.0" encoding="UTF-8" standalone="no"?>
<!DOCTYPE svg PUBLIC "-//W3C//DTD SVG 1.1//EN"
 "http://www.w3.org/Graphics/SVG/1.1/DTD/svg11.dtd">
<!-- Generated by graphviz version 2.40.1 (20161225.0304)
 -->
<!-- Title: drake/systems/controllers/test Pages: 1 -->
<svg width="456pt" height="583pt"
 viewBox="0.00 0.00 456.00 583.00" xmlns="http://www.w3.org/2000/svg" xmlns:xlink="http://www.w3.org/1999/xlink">
<g id="graph0" class="graph" transform="scale(1 1) rotate(0) translate(4 579)">
<title>drake/systems/controllers/test</title>
<polygon fill="#ffffff" stroke="transparent" points="-4,4 -4,-579 452,-579 452,4 -4,4"/>
<g id="clust1" class="cluster">
<title>clusterdir_2f3b38a11a8c8b47ab034de75b118c79</title>
<g id="a_clust1"><a xlink:href="dir_2f3b38a11a8c8b47ab034de75b118c79.html" target="_top" xlink:title="controllers">
<polygon fill="#ddddee" stroke="#000000" points="162,-496 162,-567 232,-567 232,-496 162,-496"/>
<text text-anchor="middle" x="197" y="-555" font-family="Helvetica,sans-Serif" font-size="10.00" fill="#000000">controllers</text>
</a>
</g>
</g>
<!-- dir_793ec1c1c1757e97ef8dc39d50a9aada -->
<g id="node1" class="node">
<title>dir_793ec1c1c1757e97ef8dc39d50a9aada</title>
<g id="a_node1"><a xlink:href="dir_793ec1c1c1757e97ef8dc39d50a9aada.html" target="_top" xlink:title="test">
<polygon fill="#eeeeff" stroke="#000000" points="224,-540 170,-540 170,-504 224,-504 224,-540"/>
<text text-anchor="middle" x="197" y="-519.5" font-family="Helvetica,sans-Serif" font-size="10.00" fill="#000000">test</text>
</a>
</g>
</g>
<!-- dir_9f920ef99dcb5f2ba14ba6c3f54b363c -->
<g id="node2" class="node">
<title>dir_9f920ef99dcb5f2ba14ba6c3f54b363c</title>
<g id="a_node2"><a xlink:href="dir_9f920ef99dcb5f2ba14ba6c3f54b363c.html" target="_top" xlink:title="analysis">
<polygon fill="#ffffff" stroke="#ff0000" points="237.5,-324 180.5,-324 180.5,-288 237.5,-288 237.5,-324"/>
<text text-anchor="middle" x="209" y="-303.5" font-family="Helvetica,sans-Serif" font-size="10.00" fill="#000000">analysis</text>
</a>
</g>
</g>
<!-- dir_793ec1c1c1757e97ef8dc39d50a9aada&#45;&gt;dir_9f920ef99dcb5f2ba14ba6c3f54b363c -->
<g id="edge21" class="edge">
<title>dir_793ec1c1c1757e97ef8dc39d50a9aada&#45;&gt;dir_9f920ef99dcb5f2ba14ba6c3f54b363c</title>
<path fill="none" stroke="#000000" d="M198.0025,-503.9555C200.0892,-466.3938 204.9137,-379.5541 207.4216,-334.4103"/>
<polygon fill="#000000" stroke="#000000" points="210.9318,-334.3238 207.9919,-324.1451 203.9425,-333.9355 210.9318,-334.3238"/>
<g id="a_edge21&#45;headlabel"><a xlink:href="dir_000231_000226.html" target="_top" xlink:title="1">
<text text-anchor="middle" x="213.5674" y="-335.5704" font-family="Helvetica,sans-Serif" font-size="10.00" fill="#000000">1</text>
</a>
</g>
</g>
<!-- dir_39b8b3c6654246a9c12332c930bc7d3f -->
<g id="node3" class="node">
<title>dir_39b8b3c6654246a9c12332c930bc7d3f</title>
<g id="a_node3"><a xlink:href="dir_39b8b3c6654246a9c12332c930bc7d3f.html" target="_top" xlink:title="multibody">
<polygon fill="#ffffff" stroke="#ff0000" points="299,-396 233,-396 233,-360 299,-360 299,-396"/>
<text text-anchor="middle" x="266" y="-375.5" font-family="Helvetica,sans-Serif" font-size="10.00" fill="#000000">multibody</text>
</a>
</g>
</g>
<!-- dir_793ec1c1c1757e97ef8dc39d50a9aada&#45;&gt;dir_39b8b3c6654246a9c12332c930bc7d3f -->
<g id="edge22" class="edge">
<title>dir_793ec1c1c1757e97ef8dc39d50a9aada&#45;&gt;dir_39b8b3c6654246a9c12332c930bc7d3f</title>
<path fill="none" stroke="#000000" d="M205.7389,-503.7623C217.6634,-478.8764 239.1273,-434.0822 252.9588,-405.2165"/>
<polygon fill="#000000" stroke="#000000" points="256.1672,-406.6202 257.3321,-396.0896 249.8544,-403.5953 256.1672,-406.6202"/>
<g id="a_edge22&#45;headlabel"><a xlink:href="dir_000231_000014.html" target="_top" xlink:title="4">
<text text-anchor="middle" x="257.1744" y="-408.5888" font-family="Helvetica,sans-Serif" font-size="10.00" fill="#000000">4</text>
</a>
</g>
</g>
<!-- dir_fc0178d6978c9fa2cad6ef3e048a60a7 -->
<g id="node4" class="node">
<title>dir_fc0178d6978c9fa2cad6ef3e048a60a7</title>
<g id="a_node4"><a xlink:href="dir_fc0178d6978c9fa2cad6ef3e048a60a7.html" target="_top" xlink:title="math">
<polygon fill="#ffffff" stroke="#ff0000" points="156,-108 102,-108 102,-72 156,-72 156,-108"/>
<text text-anchor="middle" x="129" y="-87.5" font-family="Helvetica,sans-Serif" font-size="10.00" fill="#000000">math</text>
</a>
</g>
</g>
<!-- dir_793ec1c1c1757e97ef8dc39d50a9aada&#45;&gt;dir_fc0178d6978c9fa2cad6ef3e048a60a7 -->
<g id="edge23" class="edge">
<title>dir_793ec1c1c1757e97ef8dc39d50a9aada&#45;&gt;dir_fc0178d6978c9fa2cad6ef3e048a60a7</title>
<path fill="none" stroke="#000000" d="M169.6669,-511.8874C124.2065,-493.0943 38,-448.2018 38,-378 38,-378 38,-378 38,-234 38,-186.4235 73.9367,-141.776 100.6436,-115.1645"/>
<polygon fill="#000000" stroke="#000000" points="103.1409,-117.6184 107.894,-108.1496 98.2735,-112.5876 103.1409,-117.6184"/>
<g id="a_edge23&#45;headlabel"><a xlink:href="dir_000231_000093.html" target="_top" xlink:title="2">
<text text-anchor="middle" x="102.5318" y="-119.6584" font-family="Helvetica,sans-Serif" font-size="10.00" fill="#000000">2</text>
</a>
</g>
</g>
<!-- dir_2186f45272e5c29e3ac18ec762ab7501 -->
<g id="node5" class="node">
<title>dir_2186f45272e5c29e3ac18ec762ab7501</title>
<g id="a_node5"><a xlink:href="dir_2186f45272e5c29e3ac18ec762ab7501.html" target="_top" xlink:title="framework">
<polygon fill="#ffffff" stroke="#ff0000" points="382,-252 312,-252 312,-216 382,-216 382,-252"/>
<text text-anchor="middle" x="347" y="-231.5" font-family="Helvetica,sans-Serif" font-size="10.00" fill="#000000">framework</text>
</a>
</g>
</g>
<!-- dir_793ec1c1c1757e97ef8dc39d50a9aada&#45;&gt;dir_2186f45272e5c29e3ac18ec762ab7501 -->
<g id="edge24" class="edge">
<title>dir_793ec1c1c1757e97ef8dc39d50a9aada&#45;&gt;dir_2186f45272e5c29e3ac18ec762ab7501</title>
<path fill="none" stroke="#000000" d="M224.2506,-516.3177C264.1097,-507.3908 335.195,-488.9254 350,-468 394.0513,-405.738 371.8835,-308.9602 356.9261,-261.7681"/>
<polygon fill="#000000" stroke="#000000" points="360.232,-260.617 353.779,-252.214 353.5834,-262.807 360.232,-260.617"/>
<g id="a_edge24&#45;headlabel"><a xlink:href="dir_000231_000235.html" target="_top" xlink:title="9">
<text text-anchor="middle" x="364.0532" y="-260.6429" font-family="Helvetica,sans-Serif" font-size="10.00" fill="#000000">9</text>
</a>
</g>
</g>
<!-- dir_55f8630d5466d97e74952e939680a0a0 -->
<g id="node6" class="node">
<title>dir_55f8630d5466d97e74952e939680a0a0</title>
<g id="a_node6"><a xlink:href="dir_55f8630d5466d97e74952e939680a0a0.html" target="_top" xlink:title="primitives">
<polygon fill="#ffffff" stroke="#ff0000" points="243,-180 177,-180 177,-144 243,-144 243,-180"/>
<text text-anchor="middle" x="210" y="-159.5" font-family="Helvetica,sans-Serif" font-size="10.00" fill="#000000">primitives</text>
</a>
</g>
</g>
<!-- dir_793ec1c1c1757e97ef8dc39d50a9aada&#45;&gt;dir_55f8630d5466d97e74952e939680a0a0 -->
<g id="edge25" class="edge">
<title>dir_793ec1c1c1757e97ef8dc39d50a9aada&#45;&gt;dir_55f8630d5466d97e74952e939680a0a0</title>
<path fill="none" stroke="#000000" d="M187.4567,-503.9269C174.2473,-477.1844 152,-425.1461 152,-378 152,-378 152,-378 152,-306 152,-262.6562 174.8892,-216.9417 191.9093,-188.9402"/>
<polygon fill="#000000" stroke="#000000" points="195.0719,-190.4847 197.4149,-180.1522 189.1398,-186.7684 195.0719,-190.4847"/>
<g id="a_edge25&#45;headlabel"><a xlink:href="dir_000231_000241.html" target="_top" xlink:title="6">
<text text-anchor="middle" x="195.5696" y="-192.5382" font-family="Helvetica,sans-Serif" font-size="10.00" fill="#000000">6</text>
</a>
</g>
</g>
<!-- dir_a36da230f0956f48b11c85f7d599788f -->
<g id="node7" class="node">
<title>dir_a36da230f0956f48b11c85f7d599788f</title>
<g id="a_node7"><a xlink:href="dir_a36da230f0956f48b11c85f7d599788f.html" target="_top" xlink:title="common">
<polygon fill="#ffffff" stroke="#ff0000" points="302.5,-36 243.5,-36 243.5,0 302.5,0 302.5,-36"/>
<text text-anchor="middle" x="273" y="-15.5" font-family="Helvetica,sans-Serif" font-size="10.00" fill="#000000">common</text>
</a>
</g>
</g>
<!-- dir_793ec1c1c1757e97ef8dc39d50a9aada&#45;&gt;dir_a36da230f0956f48b11c85f7d599788f -->
<g id="edge26" class="edge">
<title>dir_793ec1c1c1757e97ef8dc39d50a9aada&#45;&gt;dir_a36da230f0956f48b11c85f7d599788f</title>
<path fill="none" stroke="#000000" d="M169.7791,-517.3159C138.8095,-510.8158 88.1197,-496.49 54,-468 18.1937,-438.1017 0,-424.6476 0,-378 0,-378 0,-378 0,-162 0,-57.8528 157.3582,-28.8432 233.138,-20.9112"/>
<polygon fill="#000000" stroke="#000000" points="233.6504,-24.378 243.2645,-19.9262 232.9726,-17.4109 233.6504,-24.378"/>
<g id="a_edge26&#45;headlabel"><a xlink:href="dir_000231_000076.html" target="_top" xlink:title="17">
<text text-anchor="middle" x="230.3475" y="-25.0518" font-family="Helvetica,sans-Serif" font-size="10.00" fill="#000000">17</text>
</a>
</g>
</g>
<!-- dir_0200b18f7e83ea48cc715228d7cee9aa -->
<g id="node8" class="node">
<title>dir_0200b18f7e83ea48cc715228d7cee9aa</title>
<g id="a_node8"><a xlink:href="dir_0200b18f7e83ea48cc715228d7cee9aa.html" target="_top" xlink:title="test_utilities">
<polygon fill="none" stroke="#000000" points="340.5,-468 263.5,-468 263.5,-432 340.5,-432 340.5,-468"/>
<text text-anchor="middle" x="302" y="-447.5" font-family="Helvetica,sans-Serif" font-size="10.00" fill="#000000">test_utilities</text>
</a>
</g>
</g>
<!-- dir_793ec1c1c1757e97ef8dc39d50a9aada&#45;&gt;dir_0200b18f7e83ea48cc715228d7cee9aa -->
<g id="edge27" class="edge">
<title>dir_793ec1c1c1757e97ef8dc39d50a9aada&#45;&gt;dir_0200b18f7e83ea48cc715228d7cee9aa</title>
<path fill="none" stroke="#000000" d="M223.4959,-503.8314C236.6774,-494.7927 252.7847,-483.7476 266.9711,-474.0198"/>
<polygon fill="#000000" stroke="#000000" points="269.2446,-476.7047 275.5125,-468.1628 265.2859,-470.9316 269.2446,-476.7047"/>
<g id="a_edge27&#45;headlabel"><a xlink:href="dir_000231_000232.html" target="_top" xlink:title="2">
<text text-anchor="middle" x="267.8857" y="-478.5792" font-family="Helvetica,sans-Serif" font-size="10.00" fill="#000000">2</text>
</a>
</g>
</g>
<!-- dir_9f920ef99dcb5f2ba14ba6c3f54b363c&#45;&gt;dir_fc0178d6978c9fa2cad6ef3e048a60a7 -->
<g id="edge1" class="edge">
<title>dir_9f920ef99dcb5f2ba14ba6c3f54b363c&#45;&gt;dir_fc0178d6978c9fa2cad6ef3e048a60a7</title>
<path fill="none" stroke="#000000" d="M202.3168,-287.9555C188.3169,-250.1556 155.8335,-162.4506 139.2061,-117.5564"/>
<polygon fill="#000000" stroke="#000000" points="142.4757,-116.3069 135.7204,-108.1451 135.9115,-118.7382 142.4757,-116.3069"/>
<g id="a_edge1&#45;headlabel"><a xlink:href="dir_000226_000093.html" target="_top" xlink:title="5">
<text text-anchor="middle" x="146.3866" y="-116.1917" font-family="Helvetica,sans-Serif" font-size="10.00" fill="#000000">5</text>
</a>
</g>
</g>
<!-- dir_9f920ef99dcb5f2ba14ba6c3f54b363c&#45;&gt;dir_2186f45272e5c29e3ac18ec762ab7501 -->
<g id="edge2" class="edge">
<title>dir_9f920ef99dcb5f2ba14ba6c3f54b363c&#45;&gt;dir_2186f45272e5c29e3ac18ec762ab7501</title>
<path fill="none" stroke="#000000" d="M237.5331,-288.0171C256.3963,-277.6402 281.3846,-264.5723 302.7697,-253.8892"/>
<polygon fill="#000000" stroke="#000000" points="304.5879,-256.8945 311.9953,-249.3196 301.4808,-250.6218 304.5879,-256.8945"/>
<g id="a_edge2&#45;headlabel"><a xlink:href="dir_000226_000235.html" target="_top" xlink:title="33">
<text text-anchor="middle" x="302.6269" y="-258.5342" font-family="Helvetica,sans-Serif" font-size="10.00" fill="#000000">33</text>
</a>
</g>
</g>
<!-- dir_9f920ef99dcb5f2ba14ba6c3f54b363c&#45;&gt;dir_55f8630d5466d97e74952e939680a0a0 -->
<g id="edge3" class="edge">
<title>dir_9f920ef99dcb5f2ba14ba6c3f54b363c&#45;&gt;dir_55f8630d5466d97e74952e939680a0a0</title>
<path fill="none" stroke="#000000" d="M204.4535,-287.7623C202.1642,-263.201 202.1947,-219.2474 204.3057,-190.3541"/>
<polygon fill="#000000" stroke="#000000" points="207.8188,-190.3598 205.2161,-180.0896 200.8462,-189.7413 207.8188,-190.3598"/>
<g id="a_edge3&#45;headlabel"><a xlink:href="dir_000226_000241.html" target="_top" xlink:title="7">
<text text-anchor="middle" x="210.3295" y="-191.6911" font-family="Helvetica,sans-Serif" font-size="10.00" fill="#000000">7</text>
</a>
</g>
</g>
<!-- dir_9f920ef99dcb5f2ba14ba6c3f54b363c&#45;&gt;dir_a36da230f0956f48b11c85f7d599788f -->
<g id="edge4" class="edge">
<title>dir_9f920ef99dcb5f2ba14ba6c3f54b363c&#45;&gt;dir_a36da230f0956f48b11c85f7d599788f</title>
<path fill="none" stroke="#000000" d="M217.964,-287.8013C222.8311,-277.4667 228.7121,-264.1947 233,-252 258.1334,-180.5209 267.7971,-91.0277 271.2481,-46.2561"/>
<polygon fill="#000000" stroke="#000000" points="274.75,-46.3552 271.9802,-36.1288 267.7682,-45.8504 274.75,-46.3552"/>
<g id="a_edge4&#45;headlabel"><a xlink:href="dir_000226_000076.html" target="_top" xlink:title="67">
<text text-anchor="middle" x="277.3228" y="-47.6451" font-family="Helvetica,sans-Serif" font-size="10.00" fill="#000000">67</text>
</a>
</g>
</g>
<!-- dir_39b8b3c6654246a9c12332c930bc7d3f&#45;&gt;dir_9f920ef99dcb5f2ba14ba6c3f54b363c -->
<g id="edge5" class="edge">
<title>dir_39b8b3c6654246a9c12332c930bc7d3f&#45;&gt;dir_9f920ef99dcb5f2ba14ba6c3f54b363c</title>
<path fill="none" stroke="#000000" d="M251.6165,-359.8314C245.0514,-351.5386 237.1493,-341.557 229.9422,-332.4533"/>
<polygon fill="#000000" stroke="#000000" points="232.5284,-330.0813 223.5772,-324.4133 227.0401,-334.4262 232.5284,-330.0813"/>
<g id="a_edge5&#45;headlabel"><a xlink:href="dir_000014_000226.html" target="_top" xlink:title="10">
<text text-anchor="middle" x="236.9857" y="-328.6373" font-family="Helvetica,sans-Serif" font-size="10.00" fill="#000000">10</text>
</a>
</g>
</g>
<!-- dir_39b8b3c6654246a9c12332c930bc7d3f&#45;&gt;dir_fc0178d6978c9fa2cad6ef3e048a60a7 -->
<g id="edge6" class="edge">
<title>dir_39b8b3c6654246a9c12332c930bc7d3f&#45;&gt;dir_fc0178d6978c9fa2cad6ef3e048a60a7</title>
<path fill="none" stroke="#000000" d="M232.7705,-367.4118C211.7822,-358.9861 185.9021,-345.0623 171,-324 126.4356,-261.0137 124.5598,-165.2395 126.7909,-118.1492"/>
<polygon fill="#000000" stroke="#000000" points="130.2906,-118.2535 127.3689,-108.0696 123.3021,-117.8528 130.2906,-118.2535"/>
<g id="a_edge6&#45;headlabel"><a xlink:href="dir_000014_000093.html" target="_top" xlink:title="86">
<text text-anchor="middle" x="132.9196" y="-119.5048" font-family="Helvetica,sans-Serif" font-size="10.00" fill="#000000">86</text>
</a>
</g>
</g>
<!-- dir_39b8b3c6654246a9c12332c930bc7d3f&#45;&gt;dir_2186f45272e5c29e3ac18ec762ab7501 -->
<g id="edge7" class="edge">
<title>dir_39b8b3c6654246a9c12332c930bc7d3f&#45;&gt;dir_2186f45272e5c29e3ac18ec762ab7501</title>
<path fill="none" stroke="#000000" d="M276.2587,-359.7623C290.3179,-334.7682 315.6731,-289.6924 331.902,-260.8409"/>
<polygon fill="#000000" stroke="#000000" points="334.9724,-262.5213 336.8246,-252.0896 328.8714,-259.0895 334.9724,-262.5213"/>
<g id="a_edge7&#45;headlabel"><a xlink:href="dir_000014_000235.html" target="_top" xlink:title="66">
<text text-anchor="middle" x="335.6848" y="-264.5463" font-family="Helvetica,sans-Serif" font-size="10.00" fill="#000000">66</text>
</a>
</g>
</g>
<!-- dir_39b8b3c6654246a9c12332c930bc7d3f&#45;&gt;dir_55f8630d5466d97e74952e939680a0a0 -->
<g id="edge8" class="edge">
<title>dir_39b8b3c6654246a9c12332c930bc7d3f&#45;&gt;dir_55f8630d5466d97e74952e939680a0a0</title>
<path fill="none" stroke="#000000" d="M263.2712,-359.7518C258.4996,-329.4716 247.6365,-267.114 232,-216 229.3181,-207.2332 225.7805,-197.9112 222.3282,-189.524"/>
<polygon fill="#000000" stroke="#000000" points="225.4988,-188.0356 218.3712,-180.1967 219.0547,-190.7695 225.4988,-188.0356"/>
<g id="a_edge8&#45;headlabel"><a xlink:href="dir_000014_000241.html" target="_top" xlink:title="1">
<text text-anchor="middle" x="229.5164" y="-187.7358" font-family="Helvetica,sans-Serif" font-size="10.00" fill="#000000">1</text>
</a>
</g>
</g>
<!-- dir_39b8b3c6654246a9c12332c930bc7d3f&#45;&gt;dir_a36da230f0956f48b11c85f7d599788f -->
<g id="edge9" class="edge">
<title>dir_39b8b3c6654246a9c12332c930bc7d3f&#45;&gt;dir_a36da230f0956f48b11c85f7d599788f</title>
<path fill="none" stroke="#000000" d="M294.0138,-359.972C324.512,-338.4891 371.5325,-299.4674 391,-252 423.2323,-173.4084 345.6903,-84.9921 301.3462,-42.8817"/>
<polygon fill="#000000" stroke="#000000" points="303.7139,-40.3041 294.0111,-36.0491 298.9427,-45.4262 303.7139,-40.3041"/>
<g id="a_edge9&#45;headlabel"><a xlink:href="dir_000014_000076.html" target="_top" xlink:title="313">
<text text-anchor="middle" x="308.2794" y="-38.1766" font-family="Helvetica,sans-Serif" font-size="10.00" fill="#000000">313</text>
</a>
</g>
</g>
<!-- dir_fc0178d6978c9fa2cad6ef3e048a60a7&#45;&gt;dir_a36da230f0956f48b11c85f7d599788f -->
<g id="edge10" class="edge">
<title>dir_fc0178d6978c9fa2cad6ef3e048a60a7&#45;&gt;dir_a36da230f0956f48b11c85f7d599788f</title>
<path fill="none" stroke="#000000" d="M156.2556,-73.4817C178.3746,-61.7748 209.6578,-46.1346 234.3387,-34.4443"/>
<polygon fill="#000000" stroke="#000000" points="235.875,-37.5896 243.4418,-30.1737 232.902,-31.2524 235.875,-37.5896"/>
<g id="a_edge10&#45;headlabel"><a xlink:href="dir_000093_000076.html" target="_top" xlink:title="87">
<text text-anchor="middle" x="233.8266" y="-39.1867" font-family="Helvetica,sans-Serif" font-size="10.00" fill="#000000">87</text>
</a>
</g>
</g>
<!-- dir_2186f45272e5c29e3ac18ec762ab7501&#45;&gt;dir_9f920ef99dcb5f2ba14ba6c3f54b363c -->
<g id="edge11" class="edge">
<title>dir_2186f45272e5c29e3ac18ec762ab7501&#45;&gt;dir_9f920ef99dcb5f2ba14ba6c3f54b363c</title>
<path fill="none" stroke="#000000" d="M318.0181,-252.2297C297.2978,-263.6165 269.3538,-278.1693 246.8844,-289.2629"/>
<polygon fill="#000000" stroke="#000000" points="245.0751,-286.2514 237.6268,-293.7862 248.1482,-292.5408 245.0751,-286.2514"/>
<g id="a_edge11&#45;headlabel"><a xlink:href="dir_000235_000226.html" target="_top" xlink:title="1">
<text text-anchor="middle" x="247.0584" y="-279.6223" font-family="Helvetica,sans-Serif" font-size="10.00" fill="#000000">1</text>
</a>
</g>
</g>
<!-- dir_2186f45272e5c29e3ac18ec762ab7501&#45;&gt;dir_55f8630d5466d97e74952e939680a0a0 -->
<g id="edge12" class="edge">
<title>dir_2186f45272e5c29e3ac18ec762ab7501&#45;&gt;dir_55f8630d5466d97e74952e939680a0a0</title>
<path fill="none" stroke="#000000" d="M311.9528,-218.5542C292.2378,-208.8078 267.7103,-196.0386 247.6058,-185.1004"/>
<polygon fill="#000000" stroke="#000000" points="249.1637,-181.963 238.713,-180.221 245.7964,-188.0999 249.1637,-181.963"/>
<g id="a_edge12&#45;headlabel"><a xlink:href="dir_000235_000241.html" target="_top" xlink:title="16">
<text text-anchor="middle" x="253.6808" y="-178.7029" font-family="Helvetica,sans-Serif" font-size="10.00" fill="#000000">16</text>
</a>
</g>
</g>
<!-- dir_2186f45272e5c29e3ac18ec762ab7501&#45;&gt;dir_a36da230f0956f48b11c85f7d599788f -->
<g id="edge13" class="edge">
<title>dir_2186f45272e5c29e3ac18ec762ab7501&#45;&gt;dir_a36da230f0956f48b11c85f7d599788f</title>
<path fill="none" stroke="#000000" d="M342.373,-215.7439C334.4977,-185.4525 317.4395,-123.079 298,-72 294.636,-63.1608 290.481,-53.7379 286.5308,-45.2791"/>
<polygon fill="#000000" stroke="#000000" points="289.6748,-43.7407 282.2111,-36.2211 283.3565,-46.7538 289.6748,-43.7407"/>
<g id="a_edge13&#45;headlabel"><a xlink:href="dir_000235_000076.html" target="_top" xlink:title="211">
<text text-anchor="middle" x="293.7848" y="-43.2631" font-family="Helvetica,sans-Serif" font-size="10.00" fill="#000000">211</text>
</a>
</g>
</g>
<!-- dir_55f8630d5466d97e74952e939680a0a0&#45;&gt;dir_9f920ef99dcb5f2ba14ba6c3f54b363c -->
<g id="edge14" class="edge">
<title>dir_55f8630d5466d97e74952e939680a0a0&#45;&gt;dir_9f920ef99dcb5f2ba14ba6c3f54b363c</title>
<path fill="none" stroke="#000000" d="M214.5327,-180.0896C216.8313,-204.5727 216.8096,-248.5174 214.707,-277.4713"/>
<polygon fill="#000000" stroke="#000000" points="211.1916,-277.4935 213.7998,-287.7623 218.1646,-278.1083 211.1916,-277.4935"/>
<g id="a_edge14&#45;headlabel"><a xlink:href="dir_000241_000226.html" target="_top" xlink:title="3">
<text text-anchor="middle" x="208.6789" y="-271.1635" font-family="Helvetica,sans-Serif" font-size="10.00" fill="#000000">3</text>
</a>
</g>
</g>
<!-- dir_55f8630d5466d97e74952e939680a0a0&#45;&gt;dir_fc0178d6978c9fa2cad6ef3e048a60a7 -->
<g id="edge15" class="edge">
<title>dir_55f8630d5466d97e74952e939680a0a0&#45;&gt;dir_fc0178d6978c9fa2cad6ef3e048a60a7</title>
<path fill="none" stroke="#000000" d="M189.5603,-143.8314C179.6795,-135.0485 167.6676,-124.3712 156.955,-114.8489"/>
<polygon fill="#000000" stroke="#000000" points="159.2326,-112.1906 149.4332,-108.1628 154.582,-117.4224 159.2326,-112.1906"/>
<g id="a_edge15&#45;headlabel"><a xlink:href="dir_000241_000093.html" target="_top" xlink:title="6">
<text text-anchor="middle" x="163.8055" y="-109.9566" font-family="Helvetica,sans-Serif" font-size="10.00" fill="#000000">6</text>
</a>
</g>
</g>
<!-- dir_55f8630d5466d97e74952e939680a0a0&#45;&gt;dir_2186f45272e5c29e3ac18ec762ab7501 -->
<g id="edge16" class="edge">
<title>dir_55f8630d5466d97e74952e939680a0a0&#45;&gt;dir_2186f45272e5c29e3ac18ec762ab7501</title>
<path fill="none" stroke="#000000" d="M243.2066,-176.5378C263.2569,-186.408 288.755,-199.6682 309.5113,-210.9633"/>
<polygon fill="#000000" stroke="#000000" points="307.931,-214.0885 318.3815,-215.8314 311.2988,-207.9519 307.931,-214.0885"/>
<g id="a_edge16&#45;headlabel"><a xlink:href="dir_000241_000235.html" target="_top" xlink:title="92">
<text text-anchor="middle" x="303.4138" y="-212.3482" font-family="Helvetica,sans-Serif" font-size="10.00" fill="#000000">92</text>
</a>
</g>
</g>
<!-- dir_55f8630d5466d97e74952e939680a0a0&#45;&gt;dir_a36da230f0956f48b11c85f7d599788f -->
<g id="edge17" class="edge">
<title>dir_55f8630d5466d97e74952e939680a0a0&#45;&gt;dir_a36da230f0956f48b11c85f7d599788f</title>
<path fill="none" stroke="#000000" d="M217.979,-143.7623C228.8192,-118.9846 248.2938,-74.4714 260.9277,-45.5939"/>
<polygon fill="#000000" stroke="#000000" points="264.2841,-46.6541 265.0858,-36.0896 257.871,-43.8483 264.2841,-46.6541"/>
<g id="a_edge17&#45;headlabel"><a xlink:href="dir_000241_000076.html" target="_top" xlink:title="117">
<text text-anchor="middle" x="265.4446" y="-48.5853" font-family="Helvetica,sans-Serif" font-size="10.00" fill="#000000">117</text>
</a>
</g>
</g>
<!-- dir_a36da230f0956f48b11c85f7d599788f&#45;&gt;dir_fc0178d6978c9fa2cad6ef3e048a60a7 -->
<g id="edge18" class="edge">
<title>dir_a36da230f0956f48b11c85f7d599788f&#45;&gt;dir_fc0178d6978c9fa2cad6ef3e048a60a7</title>
<path fill="none" stroke="#000000" d="M243.2564,-35.8313C220.6265,-47.742 189.5233,-63.2487 165.4151,-74.6173"/>
<polygon fill="#000000" stroke="#000000" points="163.8024,-71.5075 156.2204,-78.9078 166.7624,-77.8509 163.8024,-71.5075"/>
<g id="a_edge18&#45;headlabel"><a xlink:href="dir_000076_000093.html" target="_top" xlink:title="4">
<text text-anchor="middle" x="165.8592" y="-64.9146" font-family="Helvetica,sans-Serif" font-size="10.00" fill="#000000">4</text>
</a>
</g>
</g>
<!-- dir_0200b18f7e83ea48cc715228d7cee9aa&#45;&gt;dir_39b8b3c6654246a9c12332c930bc7d3f -->
<g id="edge19" class="edge">
<title>dir_0200b18f7e83ea48cc715228d7cee9aa&#45;&gt;dir_39b8b3c6654246a9c12332c930bc7d3f</title>
<path fill="none" stroke="#000000" d="M292.9157,-431.8314C288.9385,-423.8771 284.1845,-414.369 279.7861,-405.5723"/>
<polygon fill="#000000" stroke="#000000" points="282.8093,-403.7923 275.2066,-396.4133 276.5483,-406.9228 282.8093,-403.7923"/>
<g id="a_edge19&#45;headlabel"><a xlink:href="dir_000232_000014.html" target="_top" xlink:title="5">
<text text-anchor="middle" x="286.9563" y="-403.2377" font-family="Helvetica,sans-Serif" font-size="10.00" fill="#000000">5</text>
</a>
</g>
</g>
<!-- dir_0200b18f7e83ea48cc715228d7cee9aa&#45;&gt;dir_a36da230f0956f48b11c85f7d599788f -->
<g id="edge20" class="edge">
<title>dir_0200b18f7e83ea48cc715228d7cee9aa&#45;&gt;dir_a36da230f0956f48b11c85f7d599788f</title>
<path fill="none" stroke="#000000" d="M325.7824,-431.7492C367.1532,-397.7324 448,-320.2259 448,-234 448,-234 448,-234 448,-162 448,-92.1396 363.8155,-49.915 312.224,-30.5976"/>
<polygon fill="#000000" stroke="#000000" points="313.2806,-27.2579 302.6864,-27.1468 310.899,-33.8403 313.2806,-27.2579"/>
<g id="a_edge20&#45;headlabel"><a xlink:href="dir_000232_000076.html" target="_top" xlink:title="1">
<text text-anchor="middle" x="317.6268" y="-23.3109" font-family="Helvetica,sans-Serif" font-size="10.00" fill="#000000">1</text>
</a>
</g>
</g>
</g>
</svg>
