<?xml version="1.0" encoding="UTF-8" standalone="no"?>
<!DOCTYPE svg PUBLIC "-//W3C//DTD SVG 1.1//EN"
 "http://www.w3.org/Graphics/SVG/1.1/DTD/svg11.dtd">
<!-- Generated by graphviz version 2.40.1 (20161225.0304)
 -->
<!-- Title: drake/multibody/multibody_tree/test Pages: 1 -->
<svg width="356pt" height="511pt"
 viewBox="0.00 0.00 355.95 511.00" xmlns="http://www.w3.org/2000/svg" xmlns:xlink="http://www.w3.org/1999/xlink">
<g id="graph0" class="graph" transform="scale(1 1) rotate(0) translate(4 507)">
<title>drake/multibody/multibody_tree/test</title>
<polygon fill="#ffffff" stroke="transparent" points="-4,4 -4,-507 351.9487,-507 351.9487,4 -4,4"/>
<g id="clust1" class="cluster">
<title>clusterdir_559c8ef22c6aa151f764a7a49835876c</title>
<g id="a_clust1"><a xlink:href="dir_559c8ef22c6aa151f764a7a49835876c.html" target="_top" xlink:title="multibody_tree">
<polygon fill="#ddddee" stroke="#000000" points="92,-424 92,-495 183,-495 183,-424 92,-424"/>
<text text-anchor="middle" x="137.5" y="-483" font-family="Helvetica,sans-Serif" font-size="10.00" fill="#000000">multibody_tree</text>
</a>
</g>
</g>
<!-- dir_ce7c4b5a41aa3f48682273dc7424558d -->
<g id="node1" class="node">
<title>dir_ce7c4b5a41aa3f48682273dc7424558d</title>
<g id="a_node1"><a xlink:href="dir_ce7c4b5a41aa3f48682273dc7424558d.html" target="_top" xlink:title="test">
<polygon fill="#eeeeff" stroke="#000000" points="164,-468 110,-468 110,-432 164,-432 164,-468"/>
<text text-anchor="middle" x="137" y="-447.5" font-family="Helvetica,sans-Serif" font-size="10.00" fill="#000000">test</text>
</a>
</g>
</g>
<!-- dir_fc0178d6978c9fa2cad6ef3e048a60a7 -->
<g id="node2" class="node">
<title>dir_fc0178d6978c9fa2cad6ef3e048a60a7</title>
<g id="a_node2"><a xlink:href="dir_fc0178d6978c9fa2cad6ef3e048a60a7.html" target="_top" xlink:title="math">
<polygon fill="#ffffff" stroke="#ff0000" points="200,-108 146,-108 146,-72 200,-72 200,-108"/>
<text text-anchor="middle" x="173" y="-87.5" font-family="Helvetica,sans-Serif" font-size="10.00" fill="#000000">math</text>
</a>
</g>
</g>
<!-- dir_ce7c4b5a41aa3f48682273dc7424558d&#45;&gt;dir_fc0178d6978c9fa2cad6ef3e048a60a7 -->
<g id="edge7" class="edge">
<title>dir_ce7c4b5a41aa3f48682273dc7424558d&#45;&gt;dir_fc0178d6978c9fa2cad6ef3e048a60a7</title>
<path fill="none" stroke="#000000" d="M113.5384,-431.8196C84.2627,-406.8885 38,-359.092 38,-306 38,-306 38,-306 38,-234 38,-176.017 96.9754,-131.7746 136.9666,-108.4393"/>
<polygon fill="#000000" stroke="#000000" points="138.7024,-111.4786 145.6807,-103.5066 135.2541,-105.3869 138.7024,-111.4786"/>
<g id="a_edge7&#45;headlabel"><a xlink:href="dir_000030_000095.html" target="_top" xlink:title="28">
<text text-anchor="middle" x="136.9728" y="-113.2202" font-family="Helvetica,sans-Serif" font-size="10.00" fill="#000000">28</text>
</a>
</g>
</g>
<!-- dir_5d8dbe7a82c2c188fa06f6391bb290bd -->
<g id="node3" class="node">
<title>dir_5d8dbe7a82c2c188fa06f6391bb290bd</title>
<g id="a_node3"><a xlink:href="dir_5d8dbe7a82c2c188fa06f6391bb290bd.html" target="_top" xlink:title="benchmarks">
<polygon fill="#ffffff" stroke="#ff0000" points="237.5,-396 160.5,-396 160.5,-360 237.5,-360 237.5,-396"/>
<text text-anchor="middle" x="199" y="-375.5" font-family="Helvetica,sans-Serif" font-size="10.00" fill="#000000">benchmarks</text>
</a>
</g>
</g>
<!-- dir_ce7c4b5a41aa3f48682273dc7424558d&#45;&gt;dir_5d8dbe7a82c2c188fa06f6391bb290bd -->
<g id="edge8" class="edge">
<title>dir_ce7c4b5a41aa3f48682273dc7424558d&#45;&gt;dir_5d8dbe7a82c2c188fa06f6391bb290bd</title>
<path fill="none" stroke="#000000" d="M152.6452,-431.8314C159.8591,-423.454 168.557,-413.3531 176.4605,-404.1749"/>
<polygon fill="#000000" stroke="#000000" points="179.2711,-406.2748 183.1441,-396.4133 173.9667,-401.7071 179.2711,-406.2748"/>
<g id="a_edge8&#45;headlabel"><a xlink:href="dir_000030_000195.html" target="_top" xlink:title="6">
<text text-anchor="middle" x="179.077" y="-408.3514" font-family="Helvetica,sans-Serif" font-size="10.00" fill="#000000">6</text>
</a>
</g>
</g>
<!-- dir_0f4dea3f1de878f40681af0a6f59e8fe -->
<g id="node4" class="node">
<title>dir_0f4dea3f1de878f40681af0a6f59e8fe</title>
<g id="a_node4"><a xlink:href="dir_0f4dea3f1de878f40681af0a6f59e8fe.html" target="_top" xlink:title="joints">
<polygon fill="#ffffff" stroke="#ff0000" points="328,-324 274,-324 274,-288 328,-288 328,-324"/>
<text text-anchor="middle" x="301" y="-303.5" font-family="Helvetica,sans-Serif" font-size="10.00" fill="#000000">joints</text>
</a>
</g>
</g>
<!-- dir_ce7c4b5a41aa3f48682273dc7424558d&#45;&gt;dir_0f4dea3f1de878f40681af0a6f59e8fe -->
<g id="edge9" class="edge">
<title>dir_ce7c4b5a41aa3f48682273dc7424558d&#45;&gt;dir_0f4dea3f1de878f40681af0a6f59e8fe</title>
<path fill="none" stroke="#000000" d="M164.1601,-441.4032C187.8848,-432.8416 222.1632,-417.8136 246,-396 265.0681,-378.5503 279.8297,-352.9819 289.2367,-333.5527"/>
<polygon fill="#000000" stroke="#000000" points="292.4968,-334.8427 293.5411,-324.2994 286.1499,-331.8902 292.4968,-334.8427"/>
<g id="a_edge9&#45;headlabel"><a xlink:href="dir_000030_000018.html" target="_top" xlink:title="10">
<text text-anchor="middle" x="293.5551" y="-336.7994" font-family="Helvetica,sans-Serif" font-size="10.00" fill="#000000">10</text>
</a>
</g>
</g>
<!-- dir_a36da230f0956f48b11c85f7d599788f -->
<g id="node5" class="node">
<title>dir_a36da230f0956f48b11c85f7d599788f</title>
<g id="a_node5"><a xlink:href="dir_a36da230f0956f48b11c85f7d599788f.html" target="_top" xlink:title="common">
<polygon fill="#ffffff" stroke="#ff0000" points="202.5,-36 143.5,-36 143.5,0 202.5,0 202.5,-36"/>
<text text-anchor="middle" x="173" y="-15.5" font-family="Helvetica,sans-Serif" font-size="10.00" fill="#000000">common</text>
</a>
</g>
</g>
<!-- dir_ce7c4b5a41aa3f48682273dc7424558d&#45;&gt;dir_a36da230f0956f48b11c85f7d599788f -->
<g id="edge10" class="edge">
<title>dir_ce7c4b5a41aa3f48682273dc7424558d&#45;&gt;dir_a36da230f0956f48b11c85f7d599788f</title>
<path fill="none" stroke="#000000" d="M109.9332,-436.9545C70.0072,-415.5979 0,-369.1473 0,-306 0,-306 0,-306 0,-162 0,-92.7981 82.7826,-50.4307 133.8188,-30.8864"/>
<polygon fill="#000000" stroke="#000000" points="135.0975,-34.1452 143.2602,-27.3909 132.6671,-27.5807 135.0975,-34.1452"/>
<g id="a_edge10&#45;headlabel"><a xlink:href="dir_000030_000078.html" target="_top" xlink:title="47">
<text text-anchor="middle" x="132.7123" y="-35.5559" font-family="Helvetica,sans-Serif" font-size="10.00" fill="#000000">47</text>
</a>
</g>
</g>
<!-- dir_2f5e9df65b9ba7505f42d71f5db981a2 -->
<g id="node6" class="node">
<title>dir_2f5e9df65b9ba7505f42d71f5db981a2</title>
<g id="a_node6"><a xlink:href="dir_2f5e9df65b9ba7505f42d71f5db981a2.html" target="_top" xlink:title="multibody_plant">
<polygon fill="#ffffff" stroke="#ff0000" points="276,-180 180,-180 180,-144 276,-144 276,-180"/>
<text text-anchor="middle" x="228" y="-159.5" font-family="Helvetica,sans-Serif" font-size="10.00" fill="#000000">multibody_plant</text>
</a>
</g>
</g>
<!-- dir_ce7c4b5a41aa3f48682273dc7424558d&#45;&gt;dir_2f5e9df65b9ba7505f42d71f5db981a2 -->
<g id="edge11" class="edge">
<title>dir_ce7c4b5a41aa3f48682273dc7424558d&#45;&gt;dir_2f5e9df65b9ba7505f42d71f5db981a2</title>
<path fill="none" stroke="#000000" d="M138.6588,-431.8312C140.6053,-413.4812 144.432,-384.4333 151,-360 167.8754,-297.2226 198.0122,-227.0347 215.1511,-189.3968"/>
<polygon fill="#000000" stroke="#000000" points="218.421,-190.6629 219.4156,-180.1149 212.0603,-187.7404 218.421,-190.6629"/>
<g id="a_edge11&#45;headlabel"><a xlink:href="dir_000030_000026.html" target="_top" xlink:title="1">
<text text-anchor="middle" x="219.5003" y="-192.6146" font-family="Helvetica,sans-Serif" font-size="10.00" fill="#000000">1</text>
</a>
</g>
</g>
<!-- dir_b7a0e33b407baa23d8a077e33033c988 -->
<g id="node7" class="node">
<title>dir_b7a0e33b407baa23d8a077e33033c988</title>
<g id="a_node7"><a xlink:href="dir_b7a0e33b407baa23d8a077e33033c988.html" target="_top" xlink:title="systems">
<polygon fill="#ffffff" stroke="#ff0000" points="332,-252 274,-252 274,-216 332,-216 332,-252"/>
<text text-anchor="middle" x="303" y="-231.5" font-family="Helvetica,sans-Serif" font-size="10.00" fill="#000000">systems</text>
</a>
</g>
</g>
<!-- dir_ce7c4b5a41aa3f48682273dc7424558d&#45;&gt;dir_b7a0e33b407baa23d8a077e33033c988 -->
<g id="edge12" class="edge">
<title>dir_ce7c4b5a41aa3f48682273dc7424558d&#45;&gt;dir_b7a0e33b407baa23d8a077e33033c988</title>
<path fill="none" stroke="#000000" d="M164.2353,-443.8693C212.3285,-431.2763 309.7927,-397.2911 337,-324 342.5683,-309.0002 341.4365,-303.3726 337,-288 334.2478,-278.4635 329.2576,-268.9881 323.933,-260.6989"/>
<polygon fill="#000000" stroke="#000000" points="326.6595,-258.4863 318.114,-252.2232 320.8886,-262.4483 326.6595,-258.4863"/>
<g id="a_edge12&#45;headlabel"><a xlink:href="dir_000030_000219.html" target="_top" xlink:title="24">
<text text-anchor="middle" x="331.0347" y="-257.3427" font-family="Helvetica,sans-Serif" font-size="10.00" fill="#000000">24</text>
</a>
</g>
</g>
<!-- dir_fc0178d6978c9fa2cad6ef3e048a60a7&#45;&gt;dir_a36da230f0956f48b11c85f7d599788f -->
<g id="edge1" class="edge">
<title>dir_fc0178d6978c9fa2cad6ef3e048a60a7&#45;&gt;dir_a36da230f0956f48b11c85f7d599788f</title>
<path fill="none" stroke="#000000" d="M167.0476,-71.8314C166.2972,-64.131 166.0763,-54.9743 166.3849,-46.4166"/>
<polygon fill="#000000" stroke="#000000" points="169.8792,-46.6161 167.024,-36.4133 162.8935,-46.1697 169.8792,-46.6161"/>
<g id="a_edge1&#45;headlabel"><a xlink:href="dir_000095_000078.html" target="_top" xlink:title="87">
<text text-anchor="middle" x="172.4836" y="-47.8844" font-family="Helvetica,sans-Serif" font-size="10.00" fill="#000000">87</text>
</a>
</g>
</g>
<!-- dir_5d8dbe7a82c2c188fa06f6391bb290bd&#45;&gt;dir_fc0178d6978c9fa2cad6ef3e048a60a7 -->
<g id="edge2" class="edge">
<title>dir_5d8dbe7a82c2c188fa06f6391bb290bd&#45;&gt;dir_fc0178d6978c9fa2cad6ef3e048a60a7</title>
<path fill="none" stroke="#000000" d="M195.5521,-359.8016C189.159,-325.0281 175.6904,-246.6655 171,-180 169.8771,-164.0395 170.7039,-159.9973 171,-144 171.1521,-135.7824 171.4344,-126.865 171.7398,-118.6892"/>
<polygon fill="#000000" stroke="#000000" points="175.2452,-118.621 172.1458,-108.4897 168.2508,-118.3425 175.2452,-118.621"/>
<g id="a_edge2&#45;headlabel"><a xlink:href="dir_000195_000095.html" target="_top" xlink:title="11">
<text text-anchor="middle" x="177.9394" y="-119.8257" font-family="Helvetica,sans-Serif" font-size="10.00" fill="#000000">11</text>
</a>
</g>
</g>
<!-- dir_5d8dbe7a82c2c188fa06f6391bb290bd&#45;&gt;dir_0f4dea3f1de878f40681af0a6f59e8fe -->
<g id="edge3" class="edge">
<title>dir_5d8dbe7a82c2c188fa06f6391bb290bd&#45;&gt;dir_0f4dea3f1de878f40681af0a6f59e8fe</title>
<path fill="none" stroke="#000000" d="M224.7389,-359.8314C237.5437,-350.7927 253.1909,-339.7476 266.9719,-330.0198"/>
<polygon fill="#000000" stroke="#000000" points="269.118,-332.7891 275.2693,-324.1628 265.0812,-327.0703 269.118,-332.7891"/>
<g id="a_edge3&#45;headlabel"><a xlink:href="dir_000195_000018.html" target="_top" xlink:title="7">
<text text-anchor="middle" x="267.8187" y="-334.6816" font-family="Helvetica,sans-Serif" font-size="10.00" fill="#000000">7</text>
</a>
</g>
</g>
<!-- dir_5d8dbe7a82c2c188fa06f6391bb290bd&#45;&gt;dir_a36da230f0956f48b11c85f7d599788f -->
<g id="edge4" class="edge">
<title>dir_5d8dbe7a82c2c188fa06f6391bb290bd&#45;&gt;dir_a36da230f0956f48b11c85f7d599788f</title>
<path fill="none" stroke="#000000" d="M179.2856,-359.5704C154.1758,-333.996 114,-285.0936 114,-234 114,-234 114,-234 114,-162 114,-120.7145 120.1993,-109.7125 137,-72 141.2198,-62.5279 147.0581,-52.8874 152.8059,-44.4236"/>
<polygon fill="#000000" stroke="#000000" points="155.7839,-46.274 158.6914,-36.0859 150.0651,-42.2372 155.7839,-46.274"/>
<g id="a_edge4&#45;headlabel"><a xlink:href="dir_000195_000078.html" target="_top" xlink:title="26">
<text text-anchor="middle" x="156.0306" y="-48.348" font-family="Helvetica,sans-Serif" font-size="10.00" fill="#000000">26</text>
</a>
</g>
</g>
<!-- dir_5d8dbe7a82c2c188fa06f6391bb290bd&#45;&gt;dir_2f5e9df65b9ba7505f42d71f5db981a2 -->
<g id="edge5" class="edge">
<title>dir_5d8dbe7a82c2c188fa06f6391bb290bd&#45;&gt;dir_2f5e9df65b9ba7505f42d71f5db981a2</title>
<path fill="none" stroke="#000000" d="M197.4767,-359.9555C199.0719,-322.3144 210.5103,-235.1867 219.5002,-190.1246"/>
<polygon fill="#000000" stroke="#000000" points="222.9658,-190.6526 221.6087,-180.1451 216.117,-189.2055 222.9658,-190.6526"/>
<g id="a_edge5&#45;headlabel"><a xlink:href="dir_000195_000026.html" target="_top" xlink:title="3">
<text text-anchor="middle" x="225.0007" y="-192.2565" font-family="Helvetica,sans-Serif" font-size="10.00" fill="#000000">3</text>
</a>
</g>
</g>
<!-- dir_5d8dbe7a82c2c188fa06f6391bb290bd&#45;&gt;dir_b7a0e33b407baa23d8a077e33033c988 -->
<g id="edge6" class="edge">
<title>dir_5d8dbe7a82c2c188fa06f6391bb290bd&#45;&gt;dir_b7a0e33b407baa23d8a077e33033c988</title>
<path fill="none" stroke="#000000" d="M212.1717,-359.7623C230.3011,-334.66 263.0599,-289.3017 283.8849,-260.4671"/>
<polygon fill="#000000" stroke="#000000" points="286.9177,-262.2457 289.9353,-252.0896 281.2429,-258.1472 286.9177,-262.2457"/>
<g id="a_edge6&#45;headlabel"><a xlink:href="dir_000195_000219.html" target="_top" xlink:title="3">
<text text-anchor="middle" x="287.1149" y="-264.3221" font-family="Helvetica,sans-Serif" font-size="10.00" fill="#000000">3</text>
</a>
</g>
</g>
<!-- dir_0f4dea3f1de878f40681af0a6f59e8fe&#45;&gt;dir_a36da230f0956f48b11c85f7d599788f -->
<g id="edge13" class="edge">
<title>dir_0f4dea3f1de878f40681af0a6f59e8fe&#45;&gt;dir_a36da230f0956f48b11c85f7d599788f</title>
<path fill="none" stroke="#000000" d="M319.1576,-287.7286C327.549,-277.9911 336.6123,-265.2949 341,-252 356.2075,-205.9207 342.4637,-189.2724 325,-144 311.7469,-109.643 310.8696,-97.1808 284,-72 263.6134,-52.8947 235.2023,-39.2436 212.2277,-30.4465"/>
<polygon fill="#000000" stroke="#000000" points="213.3471,-27.1291 202.7535,-26.9717 210.9368,-33.7011 213.3471,-27.1291"/>
<g id="a_edge13&#45;headlabel"><a xlink:href="dir_000018_000078.html" target="_top" xlink:title="11">
<text text-anchor="middle" x="217.6996" y="-23.2012" font-family="Helvetica,sans-Serif" font-size="10.00" fill="#000000">11</text>
</a>
</g>
</g>
<!-- dir_0f4dea3f1de878f40681af0a6f59e8fe&#45;&gt;dir_b7a0e33b407baa23d8a077e33033c988 -->
<g id="edge14" class="edge">
<title>dir_0f4dea3f1de878f40681af0a6f59e8fe&#45;&gt;dir_b7a0e33b407baa23d8a077e33033c988</title>
<path fill="none" stroke="#000000" d="M301.5047,-287.8314C301.7186,-280.131 301.9729,-270.9743 302.2106,-262.4166"/>
<polygon fill="#000000" stroke="#000000" points="305.7094,-262.5066 302.4885,-252.4133 298.7121,-262.3122 305.7094,-262.5066"/>
<g id="a_edge14&#45;headlabel"><a xlink:href="dir_000018_000219.html" target="_top" xlink:title="4">
<text text-anchor="middle" x="308.4479" y="-263.6787" font-family="Helvetica,sans-Serif" font-size="10.00" fill="#000000">4</text>
</a>
</g>
</g>
<!-- dir_a36da230f0956f48b11c85f7d599788f&#45;&gt;dir_fc0178d6978c9fa2cad6ef3e048a60a7 -->
<g id="edge15" class="edge">
<title>dir_a36da230f0956f48b11c85f7d599788f&#45;&gt;dir_fc0178d6978c9fa2cad6ef3e048a60a7</title>
<path fill="none" stroke="#000000" d="M178.976,-36.4133C179.7071,-44.0593 179.9203,-53.1084 179.6155,-61.5726"/>
<polygon fill="#000000" stroke="#000000" points="176.1048,-61.6264 178.9524,-71.8314 183.0902,-62.078 176.1048,-61.6264"/>
<g id="a_edge15&#45;headlabel"><a xlink:href="dir_000078_000095.html" target="_top" xlink:title="4">
<text text-anchor="middle" x="173.5032" y="-55.3562" font-family="Helvetica,sans-Serif" font-size="10.00" fill="#000000">4</text>
</a>
</g>
</g>
<!-- dir_2f5e9df65b9ba7505f42d71f5db981a2&#45;&gt;dir_fc0178d6978c9fa2cad6ef3e048a60a7 -->
<g id="edge16" class="edge">
<title>dir_2f5e9df65b9ba7505f42d71f5db981a2&#45;&gt;dir_fc0178d6978c9fa2cad6ef3e048a60a7</title>
<path fill="none" stroke="#000000" d="M214.1212,-143.8314C207.7864,-135.5386 200.1616,-125.557 193.2074,-116.4533"/>
<polygon fill="#000000" stroke="#000000" points="195.9175,-114.2353 187.0657,-108.4133 190.3548,-118.4847 195.9175,-114.2353"/>
<g id="a_edge16&#45;headlabel"><a xlink:href="dir_000026_000095.html" target="_top" xlink:title="11">
<text text-anchor="middle" x="200.3558" y="-112.8683" font-family="Helvetica,sans-Serif" font-size="10.00" fill="#000000">11</text>
</a>
</g>
</g>
<!-- dir_2f5e9df65b9ba7505f42d71f5db981a2&#45;&gt;dir_5d8dbe7a82c2c188fa06f6391bb290bd -->
<g id="edge17" class="edge">
<title>dir_2f5e9df65b9ba7505f42d71f5db981a2&#45;&gt;dir_5d8dbe7a82c2c188fa06f6391bb290bd</title>
<path fill="none" stroke="#000000" d="M229.519,-180.1451C227.9063,-217.8741 216.4613,-305.0083 207.4759,-349.9956"/>
<polygon fill="#000000" stroke="#000000" points="204.0144,-349.4475 205.3686,-359.9555 210.8628,-350.8966 204.0144,-349.4475"/>
<g id="a_edge17&#45;headlabel"><a xlink:href="dir_000026_000195.html" target="_top" xlink:title="5">
<text text-anchor="middle" x="201.9806" y="-342.8431" font-family="Helvetica,sans-Serif" font-size="10.00" fill="#000000">5</text>
</a>
</g>
</g>
<!-- dir_2f5e9df65b9ba7505f42d71f5db981a2&#45;&gt;dir_0f4dea3f1de878f40681af0a6f59e8fe -->
<g id="edge18" class="edge">
<title>dir_2f5e9df65b9ba7505f42d71f5db981a2&#45;&gt;dir_0f4dea3f1de878f40681af0a6f59e8fe</title>
<path fill="none" stroke="#000000" d="M234.2255,-180.0634C240.8825,-198.5821 252.2228,-227.9888 265,-252 269.8712,-261.1541 275.8926,-270.7053 281.6077,-279.185"/>
<polygon fill="#000000" stroke="#000000" points="278.8332,-281.3269 287.3915,-287.5724 284.5959,-277.3531 278.8332,-281.3269"/>
<g id="a_edge18&#45;headlabel"><a xlink:href="dir_000026_000018.html" target="_top" xlink:title="9">
<text text-anchor="middle" x="274.4552" y="-277.4795" font-family="Helvetica,sans-Serif" font-size="10.00" fill="#000000">9</text>
</a>
</g>
</g>
<!-- dir_2f5e9df65b9ba7505f42d71f5db981a2&#45;&gt;dir_a36da230f0956f48b11c85f7d599788f -->
<g id="edge19" class="edge">
<title>dir_2f5e9df65b9ba7505f42d71f5db981a2&#45;&gt;dir_a36da230f0956f48b11c85f7d599788f</title>
<path fill="none" stroke="#000000" d="M226.2095,-143.8083C223.9112,-125.1875 218.9655,-95.7008 209,-72 205.0456,-62.5953 199.3848,-53.0879 193.7195,-44.727"/>
<polygon fill="#000000" stroke="#000000" points="196.5184,-42.6231 187.8853,-36.4815 190.8041,-46.6664 196.5184,-42.6231"/>
<g id="a_edge19&#45;headlabel"><a xlink:href="dir_000026_000078.html" target="_top" xlink:title="29">
<text text-anchor="middle" x="200.9124" y="-41.4175" font-family="Helvetica,sans-Serif" font-size="10.00" fill="#000000">29</text>
</a>
</g>
</g>
<!-- dir_2f5e9df65b9ba7505f42d71f5db981a2&#45;&gt;dir_b7a0e33b407baa23d8a077e33033c988 -->
<g id="edge20" class="edge">
<title>dir_2f5e9df65b9ba7505f42d71f5db981a2&#45;&gt;dir_b7a0e33b407baa23d8a077e33033c988</title>
<path fill="none" stroke="#000000" d="M252.8714,-180.1628C262.6814,-188.7744 273.727,-199.2081 283.0135,-208.5888"/>
<polygon fill="#000000" stroke="#000000" points="280.5559,-211.0822 290.0267,-215.8314 285.5846,-206.2127 280.5559,-211.0822"/>
<g id="a_edge20&#45;headlabel"><a xlink:href="dir_000026_000219.html" target="_top" xlink:title="22">
<text text-anchor="middle" x="276.0157" y="-207.975" font-family="Helvetica,sans-Serif" font-size="10.00" fill="#000000">22</text>
</a>
</g>
</g>
<!-- dir_b7a0e33b407baa23d8a077e33033c988&#45;&gt;dir_fc0178d6978c9fa2cad6ef3e048a60a7 -->
<g id="edge21" class="edge">
<title>dir_b7a0e33b407baa23d8a077e33033c988&#45;&gt;dir_fc0178d6978c9fa2cad6ef3e048a60a7</title>
<path fill="none" stroke="#000000" d="M303.9001,-215.845C303.93,-196.1604 301.1089,-164.7789 285,-144 266.6335,-120.3089 235.2366,-106.4307 210.3504,-98.6905"/>
<polygon fill="#000000" stroke="#000000" points="211.065,-95.2536 200.4859,-95.8311 209.1161,-101.9769 211.065,-95.2536"/>
<g id="a_edge21&#45;headlabel"><a xlink:href="dir_000219_000095.html" target="_top" xlink:title="29">
<text text-anchor="middle" x="215.3079" y="-91.0273" font-family="Helvetica,sans-Serif" font-size="10.00" fill="#000000">29</text>
</a>
</g>
</g>
<!-- dir_b7a0e33b407baa23d8a077e33033c988&#45;&gt;dir_a36da230f0956f48b11c85f7d599788f -->
<g id="edge22" class="edge">
<title>dir_b7a0e33b407baa23d8a077e33033c988&#45;&gt;dir_a36da230f0956f48b11c85f7d599788f</title>
<path fill="none" stroke="#000000" d="M308.289,-215.915C312.7824,-197.1199 317.0551,-167.2569 307,-144 287.5729,-99.0661 243.3607,-62.7644 211.0141,-40.8697"/>
<polygon fill="#000000" stroke="#000000" points="212.9265,-37.9383 202.6528,-35.3493 209.0696,-43.78 212.9265,-37.9383"/>
<g id="a_edge22&#45;headlabel"><a xlink:href="dir_000219_000078.html" target="_top" xlink:title="554">
<text text-anchor="middle" x="217.4906" y="-35.0494" font-family="Helvetica,sans-Serif" font-size="10.00" fill="#000000">554</text>
</a>
</g>
</g>
<!-- dir_b7a0e33b407baa23d8a077e33033c988&#45;&gt;dir_2f5e9df65b9ba7505f42d71f5db981a2 -->
<g id="edge23" class="edge">
<title>dir_b7a0e33b407baa23d8a077e33033c988&#45;&gt;dir_2f5e9df65b9ba7505f42d71f5db981a2</title>
<path fill="none" stroke="#000000" d="M278.1219,-215.8314C268.3863,-207.2848 257.4345,-196.9443 248.1932,-187.6198"/>
<polygon fill="#000000" stroke="#000000" points="250.6788,-185.1554 241.2045,-180.4133 245.6537,-190.0287 250.6788,-185.1554"/>
<g id="a_edge23&#45;headlabel"><a xlink:href="dir_000219_000026.html" target="_top" xlink:title="5">
<text text-anchor="middle" x="255.2195" y="-183.2593" font-family="Helvetica,sans-Serif" font-size="10.00" fill="#000000">5</text>
</a>
</g>
</g>
</g>
</svg>
