<?xml version="1.0" encoding="UTF-8" standalone="no"?>
<!DOCTYPE svg PUBLIC "-//W3C//DTD SVG 1.1//EN"
 "http://www.w3.org/Graphics/SVG/1.1/DTD/svg11.dtd">
<!-- Generated by graphviz version 2.40.1 (20161225.0304)
 -->
<!-- Title: drake/systems/primitives/test Pages: 1 -->
<svg width="290pt" height="439pt"
 viewBox="0.00 0.00 290.25 439.00" xmlns="http://www.w3.org/2000/svg" xmlns:xlink="http://www.w3.org/1999/xlink">
<g id="graph0" class="graph" transform="scale(1 1) rotate(0) translate(4 435)">
<title>drake/systems/primitives/test</title>
<polygon fill="#ffffff" stroke="transparent" points="-4,4 -4,-435 286.2536,-435 286.2536,4 -4,4"/>
<g id="clust1" class="cluster">
<title>clusterdir_55f8630d5466d97e74952e939680a0a0</title>
<g id="a_clust1"><a xlink:href="dir_55f8630d5466d97e74952e939680a0a0.html" target="_top" xlink:title="primitives">
<polygon fill="#ddddee" stroke="#000000" points="126,-352 126,-423 196,-423 196,-352 126,-352"/>
<text text-anchor="middle" x="161" y="-411" font-family="Helvetica,sans-Serif" font-size="10.00" fill="#000000">primitives</text>
</a>
</g>
</g>
<!-- dir_d99fad9190f67f9604329c909ee5c234 -->
<g id="node1" class="node">
<title>dir_d99fad9190f67f9604329c909ee5c234</title>
<g id="a_node1"><a xlink:href="dir_d99fad9190f67f9604329c909ee5c234.html" target="_top" xlink:title="test">
<polygon fill="#eeeeff" stroke="#000000" points="188,-396 134,-396 134,-360 188,-360 188,-396"/>
<text text-anchor="middle" x="161" y="-375.5" font-family="Helvetica,sans-Serif" font-size="10.00" fill="#000000">test</text>
</a>
</g>
</g>
<!-- dir_9f920ef99dcb5f2ba14ba6c3f54b363c -->
<g id="node2" class="node">
<title>dir_9f920ef99dcb5f2ba14ba6c3f54b363c</title>
<g id="a_node2"><a xlink:href="dir_9f920ef99dcb5f2ba14ba6c3f54b363c.html" target="_top" xlink:title="analysis">
<polygon fill="#ffffff" stroke="#ff0000" points="189.5,-324 132.5,-324 132.5,-288 189.5,-288 189.5,-324"/>
<text text-anchor="middle" x="161" y="-303.5" font-family="Helvetica,sans-Serif" font-size="10.00" fill="#000000">analysis</text>
</a>
</g>
</g>
<!-- dir_d99fad9190f67f9604329c909ee5c234&#45;&gt;dir_9f920ef99dcb5f2ba14ba6c3f54b363c -->
<g id="edge14" class="edge">
<title>dir_d99fad9190f67f9604329c909ee5c234&#45;&gt;dir_9f920ef99dcb5f2ba14ba6c3f54b363c</title>
<path fill="none" stroke="#000000" d="M161,-359.8314C161,-352.131 161,-342.9743 161,-334.4166"/>
<polygon fill="#000000" stroke="#000000" points="164.5001,-334.4132 161,-324.4133 157.5001,-334.4133 164.5001,-334.4132"/>
<g id="a_edge14&#45;headlabel"><a xlink:href="dir_000243_000227.html" target="_top" xlink:title="3">
<text text-anchor="middle" x="167.3393" y="-335.5079" font-family="Helvetica,sans-Serif" font-size="10.00" fill="#000000">3</text>
</a>
</g>
</g>
<!-- dir_fc0178d6978c9fa2cad6ef3e048a60a7 -->
<g id="node3" class="node">
<title>dir_fc0178d6978c9fa2cad6ef3e048a60a7</title>
<g id="a_node3"><a xlink:href="dir_fc0178d6978c9fa2cad6ef3e048a60a7.html" target="_top" xlink:title="math">
<polygon fill="#ffffff" stroke="#ff0000" points="86,-108 32,-108 32,-72 86,-72 86,-108"/>
<text text-anchor="middle" x="59" y="-87.5" font-family="Helvetica,sans-Serif" font-size="10.00" fill="#000000">math</text>
</a>
</g>
</g>
<!-- dir_d99fad9190f67f9604329c909ee5c234&#45;&gt;dir_fc0178d6978c9fa2cad6ef3e048a60a7 -->
<g id="edge15" class="edge">
<title>dir_d99fad9190f67f9604329c909ee5c234&#45;&gt;dir_fc0178d6978c9fa2cad6ef3e048a60a7</title>
<path fill="none" stroke="#000000" d="M147.6391,-359.7398C140.1931,-349.3859 130.8648,-336.1152 123,-324 85.0593,-265.555 70.7312,-248.9972 61,-180 58.0944,-159.398 57.6699,-135.885 57.9318,-118.0598"/>
<polygon fill="#000000" stroke="#000000" points="61.4315,-118.1074 58.1595,-108.0305 54.4333,-117.9484 61.4315,-118.1074"/>
<g id="a_edge15&#45;headlabel"><a xlink:href="dir_000243_000105.html" target="_top" xlink:title="1">
<text text-anchor="middle" x="64.1885" y="-119.2655" font-family="Helvetica,sans-Serif" font-size="10.00" fill="#000000">1</text>
</a>
</g>
</g>
<!-- dir_2186f45272e5c29e3ac18ec762ab7501 -->
<g id="node4" class="node">
<title>dir_2186f45272e5c29e3ac18ec762ab7501</title>
<g id="a_node4"><a xlink:href="dir_2186f45272e5c29e3ac18ec762ab7501.html" target="_top" xlink:title="framework">
<polygon fill="#ffffff" stroke="#ff0000" points="268,-252 198,-252 198,-216 268,-216 268,-252"/>
<text text-anchor="middle" x="233" y="-231.5" font-family="Helvetica,sans-Serif" font-size="10.00" fill="#000000">framework</text>
</a>
</g>
</g>
<!-- dir_d99fad9190f67f9604329c909ee5c234&#45;&gt;dir_2186f45272e5c29e3ac18ec762ab7501 -->
<g id="edge16" class="edge">
<title>dir_d99fad9190f67f9604329c909ee5c234&#45;&gt;dir_2186f45272e5c29e3ac18ec762ab7501</title>
<path fill="none" stroke="#000000" d="M175.5824,-359.7534C183.2217,-349.6228 192.3452,-336.5609 199,-324 209.5732,-304.0432 218.4625,-280.0601 224.497,-261.8715"/>
<polygon fill="#000000" stroke="#000000" points="227.8886,-262.7578 227.6297,-252.1662 221.227,-260.6075 227.8886,-262.7578"/>
<g id="a_edge16&#45;headlabel"><a xlink:href="dir_000243_000236.html" target="_top" xlink:title="54">
<text text-anchor="middle" x="229.4865" y="-264.5508" font-family="Helvetica,sans-Serif" font-size="10.00" fill="#000000">54</text>
</a>
</g>
</g>
<!-- dir_a36da230f0956f48b11c85f7d599788f -->
<g id="node5" class="node">
<title>dir_a36da230f0956f48b11c85f7d599788f</title>
<g id="a_node5"><a xlink:href="dir_a36da230f0956f48b11c85f7d599788f.html" target="_top" xlink:title="common">
<polygon fill="#ffffff" stroke="#ff0000" points="115.5,-36 56.5,-36 56.5,0 115.5,0 115.5,-36"/>
<text text-anchor="middle" x="86" y="-15.5" font-family="Helvetica,sans-Serif" font-size="10.00" fill="#000000">common</text>
</a>
</g>
</g>
<!-- dir_d99fad9190f67f9604329c909ee5c234&#45;&gt;dir_a36da230f0956f48b11c85f7d599788f -->
<g id="edge17" class="edge">
<title>dir_d99fad9190f67f9604329c909ee5c234&#45;&gt;dir_a36da230f0956f48b11c85f7d599788f</title>
<path fill="none" stroke="#000000" d="M133.6885,-368.1366C87.7545,-349.5876 0,-304.8758 0,-234 0,-234 0,-234 0,-162 0,-120.7145 1.2033,-107.0628 23,-72 29.9613,-60.8018 39.9985,-50.7081 50.022,-42.3606"/>
<polygon fill="#000000" stroke="#000000" points="52.3259,-45.0008 57.9988,-36.0527 47.984,-39.5101 52.3259,-45.0008"/>
<g id="a_edge17&#45;headlabel"><a xlink:href="dir_000243_000086.html" target="_top" xlink:title="32">
<text text-anchor="middle" x="51.2675" y="-46.9575" font-family="Helvetica,sans-Serif" font-size="10.00" fill="#000000">32</text>
</a>
</g>
</g>
<!-- dir_bf85a0c13984f214f436b2edc519c6dd -->
<g id="node6" class="node">
<title>dir_bf85a0c13984f214f436b2edc519c6dd</title>
<g id="a_node6"><a xlink:href="dir_bf85a0c13984f214f436b2edc519c6dd.html" target="_top" xlink:title="examples">
<polygon fill="#ffffff" stroke="#ff0000" points="207.5,-180 142.5,-180 142.5,-144 207.5,-144 207.5,-180"/>
<text text-anchor="middle" x="175" y="-159.5" font-family="Helvetica,sans-Serif" font-size="10.00" fill="#000000">examples</text>
</a>
</g>
</g>
<!-- dir_d99fad9190f67f9604329c909ee5c234&#45;&gt;dir_bf85a0c13984f214f436b2edc519c6dd -->
<g id="edge18" class="edge">
<title>dir_d99fad9190f67f9604329c909ee5c234&#45;&gt;dir_bf85a0c13984f214f436b2edc519c6dd</title>
<path fill="none" stroke="#000000" d="M187.3961,-359.9069C216.2908,-338.2283 260.6834,-298.8978 277,-252 282.2576,-236.8885 285.2529,-229.7073 277,-216 264.0359,-194.4678 239.2871,-181.0719 217.415,-173.0085"/>
<polygon fill="#000000" stroke="#000000" points="218.536,-169.6929 207.9414,-169.77 216.2717,-176.3166 218.536,-169.6929"/>
<g id="a_edge18&#45;headlabel"><a xlink:href="dir_000243_000113.html" target="_top" xlink:title="1">
<text text-anchor="middle" x="222.8557" y="-165.6689" font-family="Helvetica,sans-Serif" font-size="10.00" fill="#000000">1</text>
</a>
</g>
</g>
<!-- dir_9f920ef99dcb5f2ba14ba6c3f54b363c&#45;&gt;dir_fc0178d6978c9fa2cad6ef3e048a60a7 -->
<g id="edge1" class="edge">
<title>dir_9f920ef99dcb5f2ba14ba6c3f54b363c&#45;&gt;dir_fc0178d6978c9fa2cad6ef3e048a60a7</title>
<path fill="none" stroke="#000000" d="M133.8804,-287.7865C121.8588,-278.4135 108.5341,-266.0125 100,-252 74.4,-209.9663 64.7243,-152.5037 61.1096,-118.5181"/>
<polygon fill="#000000" stroke="#000000" points="64.5741,-117.9788 60.1365,-108.3581 57.6059,-118.6463 64.5741,-117.9788"/>
<g id="a_edge1&#45;headlabel"><a xlink:href="dir_000227_000105.html" target="_top" xlink:title="5">
<text text-anchor="middle" x="67.743" y="-118.7863" font-family="Helvetica,sans-Serif" font-size="10.00" fill="#000000">5</text>
</a>
</g>
</g>
<!-- dir_9f920ef99dcb5f2ba14ba6c3f54b363c&#45;&gt;dir_2186f45272e5c29e3ac18ec762ab7501 -->
<g id="edge2" class="edge">
<title>dir_9f920ef99dcb5f2ba14ba6c3f54b363c&#45;&gt;dir_2186f45272e5c29e3ac18ec762ab7501</title>
<path fill="none" stroke="#000000" d="M173.2162,-287.8314C181.0663,-279.1337 191.4496,-268.5783 201.4049,-259.1265"/>
<polygon fill="#000000" stroke="#000000" points="203.9508,-261.5384 208.8853,-252.1628 199.1812,-256.4148 203.9508,-261.5384"/>
<g id="a_edge2&#45;headlabel"><a xlink:href="dir_000227_000236.html" target="_top" xlink:title="33">
<text text-anchor="middle" x="203.2544" y="-263.5658" font-family="Helvetica,sans-Serif" font-size="10.00" fill="#000000">33</text>
</a>
</g>
</g>
<!-- dir_9f920ef99dcb5f2ba14ba6c3f54b363c&#45;&gt;dir_a36da230f0956f48b11c85f7d599788f -->
<g id="edge3" class="edge">
<title>dir_9f920ef99dcb5f2ba14ba6c3f54b363c&#45;&gt;dir_a36da230f0956f48b11c85f7d599788f</title>
<path fill="none" stroke="#000000" d="M156.3084,-287.9843C143.6023,-239.1929 108.4577,-104.2377 93.2116,-45.6927"/>
<polygon fill="#000000" stroke="#000000" points="96.597,-44.8041 90.6898,-36.0089 89.823,-46.5682 96.597,-44.8041"/>
<g id="a_edge3&#45;headlabel"><a xlink:href="dir_000227_000086.html" target="_top" xlink:title="68">
<text text-anchor="middle" x="100.2505" y="-45.0672" font-family="Helvetica,sans-Serif" font-size="10.00" fill="#000000">68</text>
</a>
</g>
</g>
<!-- dir_9f920ef99dcb5f2ba14ba6c3f54b363c&#45;&gt;dir_bf85a0c13984f214f436b2edc519c6dd -->
<g id="edge4" class="edge">
<title>dir_9f920ef99dcb5f2ba14ba6c3f54b363c&#45;&gt;dir_bf85a0c13984f214f436b2edc519c6dd</title>
<path fill="none" stroke="#000000" d="M158.0999,-287.7623C158.0277,-263.0928 162.0619,-218.8598 166.8083,-189.9731"/>
<polygon fill="#000000" stroke="#000000" points="170.2605,-190.5508 168.583,-180.0896 163.3707,-189.3136 170.2605,-190.5508"/>
<g id="a_edge4&#45;headlabel"><a xlink:href="dir_000227_000113.html" target="_top" xlink:title="1">
<text text-anchor="middle" x="172.4199" y="-192.0906" font-family="Helvetica,sans-Serif" font-size="10.00" fill="#000000">1</text>
</a>
</g>
</g>
<!-- dir_fc0178d6978c9fa2cad6ef3e048a60a7&#45;&gt;dir_a36da230f0956f48b11c85f7d599788f -->
<g id="edge5" class="edge">
<title>dir_fc0178d6978c9fa2cad6ef3e048a60a7&#45;&gt;dir_a36da230f0956f48b11c85f7d599788f</title>
<path fill="none" stroke="#000000" d="M59.8608,-71.8314C62.0685,-63.8771 65.4239,-54.369 69.0776,-45.5723"/>
<polygon fill="#000000" stroke="#000000" points="72.2841,-46.9752 73.119,-36.4133 65.8798,-44.1492 72.2841,-46.9752"/>
<g id="a_edge5&#45;headlabel"><a xlink:href="dir_000105_000086.html" target="_top" xlink:title="87">
<text text-anchor="middle" x="73.4306" y="-48.91" font-family="Helvetica,sans-Serif" font-size="10.00" fill="#000000">87</text>
</a>
</g>
</g>
<!-- dir_2186f45272e5c29e3ac18ec762ab7501&#45;&gt;dir_9f920ef99dcb5f2ba14ba6c3f54b363c -->
<g id="edge6" class="edge">
<title>dir_2186f45272e5c29e3ac18ec762ab7501&#45;&gt;dir_9f920ef99dcb5f2ba14ba6c3f54b363c</title>
<path fill="none" stroke="#000000" d="M220.5627,-252.4133C212.7259,-261.0787 202.4215,-271.5464 192.5436,-280.9223"/>
<polygon fill="#000000" stroke="#000000" points="190.0561,-278.4561 185.121,-287.8314 194.8255,-283.5799 190.0561,-278.4561"/>
<g id="a_edge6&#45;headlabel"><a xlink:href="dir_000236_000227.html" target="_top" xlink:title="1">
<text text-anchor="middle" x="190.7528" y="-271.4287" font-family="Helvetica,sans-Serif" font-size="10.00" fill="#000000">1</text>
</a>
</g>
</g>
<!-- dir_2186f45272e5c29e3ac18ec762ab7501&#45;&gt;dir_a36da230f0956f48b11c85f7d599788f -->
<g id="edge7" class="edge">
<title>dir_2186f45272e5c29e3ac18ec762ab7501&#45;&gt;dir_a36da230f0956f48b11c85f7d599788f</title>
<path fill="none" stroke="#000000" d="M232.6838,-215.8483C231.7069,-196.9989 228.3016,-167.0921 217,-144 195.8886,-100.864 153.5796,-64.4846 122.7381,-42.0737"/>
<polygon fill="#000000" stroke="#000000" points="124.5497,-39.0675 114.3705,-36.1291 120.4956,-44.774 124.5497,-39.0675"/>
<g id="a_edge7&#45;headlabel"><a xlink:href="dir_000236_000086.html" target="_top" xlink:title="215">
<text text-anchor="middle" x="129.1245" y="-36.3346" font-family="Helvetica,sans-Serif" font-size="10.00" fill="#000000">215</text>
</a>
</g>
</g>
<!-- dir_2186f45272e5c29e3ac18ec762ab7501&#45;&gt;dir_bf85a0c13984f214f436b2edc519c6dd -->
<g id="edge8" class="edge">
<title>dir_2186f45272e5c29e3ac18ec762ab7501&#45;&gt;dir_bf85a0c13984f214f436b2edc519c6dd</title>
<path fill="none" stroke="#000000" d="M212.4118,-215.8314C204.9998,-207.6232 196.8566,-197.7606 189.9872,-188.7323"/>
<polygon fill="#000000" stroke="#000000" points="192.6069,-186.3873 183.8569,-180.4133 186.9716,-190.5399 192.6069,-186.3873"/>
<g id="a_edge8&#45;headlabel"><a xlink:href="dir_000236_000113.html" target="_top" xlink:title="3">
<text text-anchor="middle" x="197.025" y="-185.0967" font-family="Helvetica,sans-Serif" font-size="10.00" fill="#000000">3</text>
</a>
</g>
</g>
<!-- dir_a36da230f0956f48b11c85f7d599788f&#45;&gt;dir_fc0178d6978c9fa2cad6ef3e048a60a7 -->
<g id="edge9" class="edge">
<title>dir_a36da230f0956f48b11c85f7d599788f&#45;&gt;dir_fc0178d6978c9fa2cad6ef3e048a60a7</title>
<path fill="none" stroke="#000000" d="M85.071,-36.4133C82.8637,-44.3141 79.5414,-53.7132 75.9269,-62.417"/>
<polygon fill="#000000" stroke="#000000" points="72.6073,-61.27 71.7656,-71.8314 79.0097,-64.1 72.6073,-61.27"/>
<g id="a_edge9&#45;headlabel"><a xlink:href="dir_000086_000105.html" target="_top" xlink:title="4">
<text text-anchor="middle" x="71.4635" y="-54.3344" font-family="Helvetica,sans-Serif" font-size="10.00" fill="#000000">4</text>
</a>
</g>
</g>
<!-- dir_bf85a0c13984f214f436b2edc519c6dd&#45;&gt;dir_9f920ef99dcb5f2ba14ba6c3f54b363c -->
<g id="edge10" class="edge">
<title>dir_bf85a0c13984f214f436b2edc519c6dd&#45;&gt;dir_9f920ef99dcb5f2ba14ba6c3f54b363c</title>
<path fill="none" stroke="#000000" d="M177.8996,-180.0896C177.9883,-204.6805 173.9638,-248.905 169.2202,-277.8531"/>
<polygon fill="#000000" stroke="#000000" points="165.7633,-277.302 167.4463,-287.7623 172.6537,-278.5356 165.7633,-277.302"/>
<g id="a_edge10&#45;headlabel"><a xlink:href="dir_000113_000227.html" target="_top" xlink:title="88">
<text text-anchor="middle" x="163.6018" y="-270.7633" font-family="Helvetica,sans-Serif" font-size="10.00" fill="#000000">88</text>
</a>
</g>
</g>
<!-- dir_bf85a0c13984f214f436b2edc519c6dd&#45;&gt;dir_fc0178d6978c9fa2cad6ef3e048a60a7 -->
<g id="edge11" class="edge">
<title>dir_bf85a0c13984f214f436b2edc519c6dd&#45;&gt;dir_fc0178d6978c9fa2cad6ef3e048a60a7</title>
<path fill="none" stroke="#000000" d="M145.7283,-143.8314C130.3249,-134.2706 111.3049,-122.4651 95.0053,-112.3481"/>
<polygon fill="#000000" stroke="#000000" points="96.6123,-109.2262 86.2701,-106.9263 92.9208,-115.1737 96.6123,-109.2262"/>
<g id="a_edge11&#45;headlabel"><a xlink:href="dir_000113_000105.html" target="_top" xlink:title="24">
<text text-anchor="middle" x="101.1638" y="-106.2095" font-family="Helvetica,sans-Serif" font-size="10.00" fill="#000000">24</text>
</a>
</g>
</g>
<!-- dir_bf85a0c13984f214f436b2edc519c6dd&#45;&gt;dir_2186f45272e5c29e3ac18ec762ab7501 -->
<g id="edge12" class="edge">
<title>dir_bf85a0c13984f214f436b2edc519c6dd&#45;&gt;dir_2186f45272e5c29e3ac18ec762ab7501</title>
<path fill="none" stroke="#000000" d="M195.8089,-180.4133C203.2352,-188.654 211.3728,-198.5245 218.2167,-207.536"/>
<polygon fill="#000000" stroke="#000000" points="215.5727,-209.8484 224.3165,-215.8314 221.2122,-205.7015 215.5727,-209.8484"/>
<g id="a_edge12&#45;headlabel"><a xlink:href="dir_000113_000236.html" target="_top" xlink:title="182">
<text text-anchor="middle" x="211.1558" y="-206.1345" font-family="Helvetica,sans-Serif" font-size="10.00" fill="#000000">182</text>
</a>
</g>
</g>
<!-- dir_bf85a0c13984f214f436b2edc519c6dd&#45;&gt;dir_a36da230f0956f48b11c85f7d599788f -->
<g id="edge13" class="edge">
<title>dir_bf85a0c13984f214f436b2edc519c6dd&#45;&gt;dir_a36da230f0956f48b11c85f7d599788f</title>
<path fill="none" stroke="#000000" d="M166.7249,-143.8805C157.9765,-125.3171 143.3423,-95.8754 128,-72 121.9666,-62.6109 114.7035,-52.8389 107.9265,-44.23"/>
<polygon fill="#000000" stroke="#000000" points="110.6204,-41.9948 101.6338,-36.3831 105.1595,-46.3741 110.6204,-41.9948"/>
<g id="a_edge13&#45;headlabel"><a xlink:href="dir_000113_000086.html" target="_top" xlink:title="228">
<text text-anchor="middle" x="115.0842" y="-40.5228" font-family="Helvetica,sans-Serif" font-size="10.00" fill="#000000">228</text>
</a>
</g>
</g>
</g>
</svg>
