<?xml version="1.0" encoding="UTF-8" standalone="no"?>
<!DOCTYPE svg PUBLIC "-//W3C//DTD SVG 1.1//EN"
 "http://www.w3.org/Graphics/SVG/1.1/DTD/svg11.dtd">
<!-- Generated by graphviz version 2.40.1 (20161225.0304)
 -->
<!-- Title: drake/automotive/maliput/geometry_base/test Pages: 1 -->
<svg width="158pt" height="151pt"
 viewBox="0.00 0.00 157.50 151.00" xmlns="http://www.w3.org/2000/svg" xmlns:xlink="http://www.w3.org/1999/xlink">
<g id="graph0" class="graph" transform="scale(1 1) rotate(0) translate(4 147)">
<title>drake/automotive/maliput/geometry_base/test</title>
<polygon fill="#ffffff" stroke="transparent" points="-4,4 -4,-147 153.5,-147 153.5,4 -4,4"/>
<g id="clust1" class="cluster">
<title>clusterdir_1ab0eb48a1846610e92e8212a069d6ce</title>
<g id="a_clust1"><a xlink:href="dir_1ab0eb48a1846610e92e8212a069d6ce.html" target="_top" xlink:title="geometry_base">
<polygon fill="#ddddee" stroke="#000000" points="23,-64 23,-135 115,-135 115,-64 23,-64"/>
<text text-anchor="middle" x="69" y="-123" font-family="Helvetica,sans-Serif" font-size="10.00" fill="#000000">geometry_base</text>
</a>
</g>
</g>
<!-- dir_b523e832304c8bf873531849b9ffb966 -->
<g id="node1" class="node">
<title>dir_b523e832304c8bf873531849b9ffb966</title>
<g id="a_node1"><a xlink:href="dir_b523e832304c8bf873531849b9ffb966.html" target="_top" xlink:title="test">
<polygon fill="#eeeeff" stroke="#000000" points="96,-108 42,-108 42,-72 96,-72 96,-108"/>
<text text-anchor="middle" x="69" y="-87.5" font-family="Helvetica,sans-Serif" font-size="10.00" fill="#000000">test</text>
</a>
</g>
</g>
<!-- dir_290e30af7c6be28b7d4b4743ddbbaf94 -->
<g id="node2" class="node">
<title>dir_290e30af7c6be28b7d4b4743ddbbaf94</title>
<g id="a_node2"><a xlink:href="dir_290e30af7c6be28b7d4b4743ddbbaf94.html" target="_top" xlink:title="api">
<polygon fill="#ffffff" stroke="#ff0000" points="54,-36 0,-36 0,0 54,0 54,-36"/>
<text text-anchor="middle" x="27" y="-15.5" font-family="Helvetica,sans-Serif" font-size="10.00" fill="#000000">api</text>
</a>
</g>
</g>
<!-- dir_b523e832304c8bf873531849b9ffb966&#45;&gt;dir_290e30af7c6be28b7d4b4743ddbbaf94 -->
<g id="edge1" class="edge">
<title>dir_b523e832304c8bf873531849b9ffb966&#45;&gt;dir_290e30af7c6be28b7d4b4743ddbbaf94</title>
<path fill="none" stroke="#000000" d="M58.4016,-71.8314C53.7123,-63.7925 48.0972,-54.1666 42.9202,-45.2918"/>
<polygon fill="#000000" stroke="#000000" points="45.8031,-43.2875 37.7411,-36.4133 39.7566,-46.8146 45.8031,-43.2875"/>
<g id="a_edge1&#45;headlabel"><a xlink:href="dir_000061_000052.html" target="_top" xlink:title="1">
<text text-anchor="middle" x="50.0667" y="-42.4618" font-family="Helvetica,sans-Serif" font-size="10.00" fill="#000000">1</text>
</a>
</g>
</g>
<!-- dir_1af1b530894642018c271bf399836410 -->
<g id="node3" class="node">
<title>dir_1af1b530894642018c271bf399836410</title>
<g id="a_node3"><a xlink:href="dir_1af1b530894642018c271bf399836410.html" target="_top" xlink:title="test_utilities">
<polygon fill="none" stroke="#000000" points="149.5,-36 72.5,-36 72.5,0 149.5,0 149.5,-36"/>
<text text-anchor="middle" x="111" y="-15.5" font-family="Helvetica,sans-Serif" font-size="10.00" fill="#000000">test_utilities</text>
</a>
</g>
</g>
<!-- dir_b523e832304c8bf873531849b9ffb966&#45;&gt;dir_1af1b530894642018c271bf399836410 -->
<g id="edge2" class="edge">
<title>dir_b523e832304c8bf873531849b9ffb966&#45;&gt;dir_1af1b530894642018c271bf399836410</title>
<path fill="none" stroke="#000000" d="M79.5984,-71.8314C84.2877,-63.7925 89.9028,-54.1666 95.0798,-45.2918"/>
<polygon fill="#000000" stroke="#000000" points="98.2434,-46.8146 100.2589,-36.4133 92.1969,-43.2875 98.2434,-46.8146"/>
<g id="a_edge2&#45;headlabel"><a xlink:href="dir_000061_000062.html" target="_top" xlink:title="1">
<text text-anchor="middle" x="98.8847" y="-48.8502" font-family="Helvetica,sans-Serif" font-size="10.00" fill="#000000">1</text>
</a>
</g>
</g>
</g>
</svg>
