<?xml version="1.0" encoding="UTF-8" standalone="no"?>
<!DOCTYPE svg PUBLIC "-//W3C//DTD SVG 1.1//EN"
 "http://www.w3.org/Graphics/SVG/1.1/DTD/svg11.dtd">
<!-- Generated by graphviz version 2.40.1 (20161225.0304)
 -->
<!-- Title: drake/examples/bouncing_ball Pages: 1 -->
<svg width="212pt" height="231pt"
 viewBox="0.00 0.00 212.00 231.00" xmlns="http://www.w3.org/2000/svg" xmlns:xlink="http://www.w3.org/1999/xlink">
<g id="graph0" class="graph" transform="scale(1 1) rotate(0) translate(4 227)">
<title>drake/examples/bouncing_ball</title>
<polygon fill="#ffffff" stroke="transparent" points="-4,4 -4,-227 208,-227 208,4 -4,4"/>
<g id="clust1" class="cluster">
<title>clusterdir_bf85a0c13984f214f436b2edc519c6dd</title>
<g id="a_clust1"><a xlink:href="dir_bf85a0c13984f214f436b2edc519c6dd.html" target="_top" xlink:title="examples">
<polygon fill="#ddddee" stroke="#000000" points="8,-128 8,-215 196,-215 196,-128 8,-128"/>
<text text-anchor="middle" x="102" y="-203" font-family="Helvetica,sans-Serif" font-size="10.00" fill="#000000">examples</text>
</a>
</g>
</g>
<g id="clust2" class="cluster">
<title>clusterdir_4aa43041a9cb7441d26dd3284a5677ba</title>
<g id="a_clust2"><a xlink:href="dir_4aa43041a9cb7441d26dd3284a5677ba.html" target="_top">
<polygon fill="#eeeeff" stroke="#000000" points="16,-136 16,-188 188,-188 188,-136 16,-136"/>
</a>
</g>
</g>
<!-- dir_4aa43041a9cb7441d26dd3284a5677ba -->
<g id="node1" class="node">
<title>dir_4aa43041a9cb7441d26dd3284a5677ba</title>
<text text-anchor="middle" x="66" y="-159.5" font-family="Helvetica,sans-Serif" font-size="10.00" fill="#000000">bouncing_ball</text>
</g>
<!-- dir_a36da230f0956f48b11c85f7d599788f -->
<g id="node3" class="node">
<title>dir_a36da230f0956f48b11c85f7d599788f</title>
<g id="a_node3"><a xlink:href="dir_a36da230f0956f48b11c85f7d599788f.html" target="_top" xlink:title="common">
<polygon fill="#ffffff" stroke="#ff0000" points="123.5,-36 64.5,-36 64.5,0 123.5,0 123.5,-36"/>
<text text-anchor="middle" x="94" y="-15.5" font-family="Helvetica,sans-Serif" font-size="10.00" fill="#000000">common</text>
</a>
</g>
</g>
<!-- dir_4aa43041a9cb7441d26dd3284a5677ba&#45;&gt;dir_a36da230f0956f48b11c85f7d599788f -->
<g id="edge2" class="edge">
<title>dir_4aa43041a9cb7441d26dd3284a5677ba&#45;&gt;dir_a36da230f0956f48b11c85f7d599788f</title>
<path fill="none" stroke="#000000" d="M69.5462,-143.7623C74.3431,-119.0928 82.9439,-74.8598 88.5608,-45.9731"/>
<polygon fill="#000000" stroke="#000000" points="92.0095,-46.5738 90.4826,-36.0896 85.1381,-45.2377 92.0095,-46.5738"/>
<g id="a_edge2&#45;headlabel"><a xlink:href="dir_000115_000078.html" target="_top" xlink:title="1">
<text text-anchor="middle" x="94.1105" y="-48.1443" font-family="Helvetica,sans-Serif" font-size="10.00" fill="#000000">1</text>
</a>
</g>
</g>
<!-- dir_b7a0e33b407baa23d8a077e33033c988 -->
<g id="node4" class="node">
<title>dir_b7a0e33b407baa23d8a077e33033c988</title>
<g id="a_node4"><a xlink:href="dir_b7a0e33b407baa23d8a077e33033c988.html" target="_top" xlink:title="systems">
<polygon fill="#ffffff" stroke="#ff0000" points="152,-108 94,-108 94,-72 152,-72 152,-108"/>
<text text-anchor="middle" x="123" y="-87.5" font-family="Helvetica,sans-Serif" font-size="10.00" fill="#000000">systems</text>
</a>
</g>
</g>
<!-- dir_4aa43041a9cb7441d26dd3284a5677ba&#45;&gt;dir_b7a0e33b407baa23d8a077e33033c988 -->
<g id="edge3" class="edge">
<title>dir_4aa43041a9cb7441d26dd3284a5677ba&#45;&gt;dir_b7a0e33b407baa23d8a077e33033c988</title>
<path fill="none" stroke="#000000" d="M80.3835,-143.8314C86.9486,-135.5386 94.8507,-125.557 102.0578,-116.4533"/>
<polygon fill="#000000" stroke="#000000" points="104.9599,-118.4262 108.4228,-108.4133 99.4716,-114.0813 104.9599,-118.4262"/>
<g id="a_edge3&#45;headlabel"><a xlink:href="dir_000115_000219.html" target="_top" xlink:title="6">
<text text-anchor="middle" x="104.9549" y="-120.5069" font-family="Helvetica,sans-Serif" font-size="10.00" fill="#000000">6</text>
</a>
</g>
</g>
<!-- dir_9d742811577f21b107313c8c48278a84 -->
<g id="node2" class="node">
<title>dir_9d742811577f21b107313c8c48278a84</title>
<g id="a_node2"><a xlink:href="dir_9d742811577f21b107313c8c48278a84.html" target="_top" xlink:title="test">
<polygon fill="#ffffff" stroke="#000000" points="180,-180 126,-180 126,-144 180,-144 180,-180"/>
<text text-anchor="middle" x="153" y="-159.5" font-family="Helvetica,sans-Serif" font-size="10.00" fill="#000000">test</text>
</a>
</g>
</g>
<!-- dir_9d742811577f21b107313c8c48278a84&#45;&gt;dir_b7a0e33b407baa23d8a077e33033c988 -->
<g id="edge1" class="edge">
<title>dir_9d742811577f21b107313c8c48278a84&#45;&gt;dir_b7a0e33b407baa23d8a077e33033c988</title>
<path fill="none" stroke="#000000" d="M145.4297,-143.8314C142.1507,-135.9617 138.238,-126.5712 134.6055,-117.8533"/>
<polygon fill="#000000" stroke="#000000" points="137.7492,-116.2979 130.6722,-108.4133 131.2876,-118.9902 137.7492,-116.2979"/>
<g id="a_edge1&#45;headlabel"><a xlink:href="dir_000116_000219.html" target="_top" xlink:title="3">
<text text-anchor="middle" x="141.7525" y="-116.024" font-family="Helvetica,sans-Serif" font-size="10.00" fill="#000000">3</text>
</a>
</g>
</g>
<!-- dir_b7a0e33b407baa23d8a077e33033c988&#45;&gt;dir_a36da230f0956f48b11c85f7d599788f -->
<g id="edge4" class="edge">
<title>dir_b7a0e33b407baa23d8a077e33033c988&#45;&gt;dir_a36da230f0956f48b11c85f7d599788f</title>
<path fill="none" stroke="#000000" d="M115.6821,-71.8314C112.5124,-63.9617 108.73,-54.5712 105.2187,-45.8533"/>
<polygon fill="#000000" stroke="#000000" points="108.3992,-44.3815 101.4165,-36.4133 101.9061,-46.9968 108.3992,-44.3815"/>
<g id="a_edge4&#45;headlabel"><a xlink:href="dir_000219_000078.html" target="_top" xlink:title="555">
<text text-anchor="middle" x="112.3758" y="-44.155" font-family="Helvetica,sans-Serif" font-size="10.00" fill="#000000">555</text>
</a>
</g>
</g>
</g>
</svg>
