<?xml version="1.0" encoding="UTF-8" standalone="no"?>
<!DOCTYPE svg PUBLIC "-//W3C//DTD SVG 1.1//EN"
 "http://www.w3.org/Graphics/SVG/1.1/DTD/svg11.dtd">
<!-- Generated by graphviz version 2.40.1 (20161225.0304)
 -->
<!-- Title: drake/examples/contact_model Pages: 1 -->
<svg width="194pt" height="367pt"
 viewBox="0.00 0.00 194.00 367.00" xmlns="http://www.w3.org/2000/svg" xmlns:xlink="http://www.w3.org/1999/xlink">
<g id="graph0" class="graph" transform="scale(1 1) rotate(0) translate(4 363)">
<title>drake/examples/contact_model</title>
<polygon fill="#ffffff" stroke="transparent" points="-4,4 -4,-363 190,-363 190,4 -4,4"/>
<g id="clust1" class="cluster">
<title>clusterdir_bf85a0c13984f214f436b2edc519c6dd</title>
<g id="a_clust1"><a xlink:href="dir_bf85a0c13984f214f436b2edc519c6dd.html" target="_top" xlink:title="examples">
<polygon fill="#ddddee" stroke="#000000" points="8,-280 8,-351 112,-351 112,-280 8,-280"/>
<text text-anchor="middle" x="60" y="-339" font-family="Helvetica,sans-Serif" font-size="10.00" fill="#000000">examples</text>
</a>
</g>
</g>
<!-- dir_6b2320bda979284e8728d7a33f9634d5 -->
<g id="node1" class="node">
<title>dir_6b2320bda979284e8728d7a33f9634d5</title>
<g id="a_node1"><a xlink:href="dir_6b2320bda979284e8728d7a33f9634d5.html" target="_top" xlink:title="contact_model">
<polygon fill="#eeeeff" stroke="#000000" points="104.5,-324 15.5,-324 15.5,-288 104.5,-288 104.5,-324"/>
<text text-anchor="middle" x="60" y="-303.5" font-family="Helvetica,sans-Serif" font-size="10.00" fill="#000000">contact_model</text>
</a>
</g>
</g>
<!-- dir_3c3c25df5132fca4f15a988b4c2efab5 -->
<g id="node2" class="node">
<title>dir_3c3c25df5132fca4f15a988b4c2efab5</title>
<g id="a_node2"><a xlink:href="dir_3c3c25df5132fca4f15a988b4c2efab5.html" target="_top" xlink:title="lcm">
<polygon fill="#ffffff" stroke="#ff0000" points="144,-108 90,-108 90,-72 144,-72 144,-108"/>
<text text-anchor="middle" x="117" y="-87.5" font-family="Helvetica,sans-Serif" font-size="10.00" fill="#000000">lcm</text>
</a>
</g>
</g>
<!-- dir_6b2320bda979284e8728d7a33f9634d5&#45;&gt;dir_3c3c25df5132fca4f15a988b4c2efab5 -->
<g id="edge2" class="edge">
<title>dir_6b2320bda979284e8728d7a33f9634d5&#45;&gt;dir_3c3c25df5132fca4f15a988b4c2efab5</title>
<path fill="none" stroke="#000000" d="M56.3745,-287.8136C53.3672,-269.4499 50.4062,-240.3915 56,-216 64.3337,-179.6609 84.5834,-141.6293 99.4758,-116.982"/>
<polygon fill="#000000" stroke="#000000" points="102.6088,-118.5698 104.8852,-108.2224 96.6529,-114.8918 102.6088,-118.5698"/>
<g id="a_edge2&#45;headlabel"><a xlink:href="dir_000120_000167.html" target="_top" xlink:title="3">
<text text-anchor="middle" x="103.1359" y="-120.6201" font-family="Helvetica,sans-Serif" font-size="10.00" fill="#000000">3</text>
</a>
</g>
</g>
<!-- dir_a36da230f0956f48b11c85f7d599788f -->
<g id="node3" class="node">
<title>dir_a36da230f0956f48b11c85f7d599788f</title>
<g id="a_node3"><a xlink:href="dir_a36da230f0956f48b11c85f7d599788f.html" target="_top" xlink:title="common">
<polygon fill="#ffffff" stroke="#ff0000" points="118.5,-36 59.5,-36 59.5,0 118.5,0 118.5,-36"/>
<text text-anchor="middle" x="89" y="-15.5" font-family="Helvetica,sans-Serif" font-size="10.00" fill="#000000">common</text>
</a>
</g>
</g>
<!-- dir_6b2320bda979284e8728d7a33f9634d5&#45;&gt;dir_a36da230f0956f48b11c85f7d599788f -->
<g id="edge3" class="edge">
<title>dir_6b2320bda979284e8728d7a33f9634d5&#45;&gt;dir_a36da230f0956f48b11c85f7d599788f</title>
<path fill="none" stroke="#000000" d="M55.3066,-287.6463C52.8929,-277.2631 50.2092,-263.9943 49,-252 41.422,-176.8333 65.2044,-89.3376 79.3222,-45.7071"/>
<polygon fill="#000000" stroke="#000000" points="82.6864,-46.6818 82.5102,-36.0884 76.0418,-44.4795 82.6864,-46.6818"/>
<g id="a_edge3&#45;headlabel"><a xlink:href="dir_000120_000078.html" target="_top" xlink:title="5">
<text text-anchor="middle" x="84.2506" y="-48.4871" font-family="Helvetica,sans-Serif" font-size="10.00" fill="#000000">5</text>
</a>
</g>
</g>
<!-- dir_d739e095b49d8b72164589d00310017d -->
<g id="node4" class="node">
<title>dir_d739e095b49d8b72164589d00310017d</title>
<g id="a_node4"><a xlink:href="dir_d739e095b49d8b72164589d00310017d.html" target="_top" xlink:title="geometry">
<polygon fill="#ffffff" stroke="#ff0000" points="129,-252 65,-252 65,-216 129,-216 129,-252"/>
<text text-anchor="middle" x="97" y="-231.5" font-family="Helvetica,sans-Serif" font-size="10.00" fill="#000000">geometry</text>
</a>
</g>
</g>
<!-- dir_6b2320bda979284e8728d7a33f9634d5&#45;&gt;dir_d739e095b49d8b72164589d00310017d -->
<g id="edge4" class="edge">
<title>dir_6b2320bda979284e8728d7a33f9634d5&#45;&gt;dir_d739e095b49d8b72164589d00310017d</title>
<path fill="none" stroke="#000000" d="M69.3367,-287.8314C73.4243,-279.8771 78.3104,-270.369 82.8309,-261.5723"/>
<polygon fill="#000000" stroke="#000000" points="86.0799,-262.9074 87.5376,-252.4133 79.8539,-259.7078 86.0799,-262.9074"/>
<g id="a_edge4&#45;headlabel"><a xlink:href="dir_000120_000147.html" target="_top" xlink:title="3">
<text text-anchor="middle" x="86.9623" y="-264.9022" font-family="Helvetica,sans-Serif" font-size="10.00" fill="#000000">3</text>
</a>
</g>
</g>
<!-- dir_b7a0e33b407baa23d8a077e33033c988 -->
<g id="node5" class="node">
<title>dir_b7a0e33b407baa23d8a077e33033c988</title>
<g id="a_node5"><a xlink:href="dir_b7a0e33b407baa23d8a077e33033c988.html" target="_top" xlink:title="systems">
<polygon fill="#ffffff" stroke="#ff0000" points="186,-180 128,-180 128,-144 186,-144 186,-180"/>
<text text-anchor="middle" x="157" y="-159.5" font-family="Helvetica,sans-Serif" font-size="10.00" fill="#000000">systems</text>
</a>
</g>
</g>
<!-- dir_6b2320bda979284e8728d7a33f9634d5&#45;&gt;dir_b7a0e33b407baa23d8a077e33033c988 -->
<g id="edge5" class="edge">
<title>dir_6b2320bda979284e8728d7a33f9634d5&#45;&gt;dir_b7a0e33b407baa23d8a077e33033c988</title>
<path fill="none" stroke="#000000" d="M97.7892,-287.8215C112.4461,-278.9597 128.0619,-266.9508 138,-252 150.1761,-233.6823 154.7501,-209.023 156.3775,-190.1484"/>
<polygon fill="#000000" stroke="#000000" points="159.8769,-190.2678 157.0194,-180.0656 152.8911,-189.823 159.8769,-190.2678"/>
<g id="a_edge5&#45;headlabel"><a xlink:href="dir_000120_000219.html" target="_top" xlink:title="11">
<text text-anchor="middle" x="162.4822" y="-191.5355" font-family="Helvetica,sans-Serif" font-size="10.00" fill="#000000">11</text>
</a>
</g>
</g>
<!-- dir_3c3c25df5132fca4f15a988b4c2efab5&#45;&gt;dir_a36da230f0956f48b11c85f7d599788f -->
<g id="edge1" class="edge">
<title>dir_3c3c25df5132fca4f15a988b4c2efab5&#45;&gt;dir_a36da230f0956f48b11c85f7d599788f</title>
<path fill="none" stroke="#000000" d="M109.9344,-71.8314C106.874,-63.9617 103.2221,-54.5712 99.8318,-45.8533"/>
<polygon fill="#000000" stroke="#000000" points="103.0473,-44.4647 96.1607,-36.4133 96.5232,-47.0019 103.0473,-44.4647"/>
<g id="a_edge1&#45;headlabel"><a xlink:href="dir_000167_000078.html" target="_top" xlink:title="24">
<text text-anchor="middle" x="106.9963" y="-44.2859" font-family="Helvetica,sans-Serif" font-size="10.00" fill="#000000">24</text>
</a>
</g>
</g>
<!-- dir_d739e095b49d8b72164589d00310017d&#45;&gt;dir_3c3c25df5132fca4f15a988b4c2efab5 -->
<g id="edge6" class="edge">
<title>dir_d739e095b49d8b72164589d00310017d&#45;&gt;dir_3c3c25df5132fca4f15a988b4c2efab5</title>
<path fill="none" stroke="#000000" d="M99.533,-215.7623C102.9443,-191.201 109.049,-147.2474 113.0619,-118.3541"/>
<polygon fill="#000000" stroke="#000000" points="116.5785,-118.4761 114.4876,-108.0896 109.6451,-117.513 116.5785,-118.4761"/>
<g id="a_edge6&#45;headlabel"><a xlink:href="dir_000147_000167.html" target="_top" xlink:title="2">
<text text-anchor="middle" x="118.8964" y="-119.9271" font-family="Helvetica,sans-Serif" font-size="10.00" fill="#000000">2</text>
</a>
</g>
</g>
<!-- dir_d739e095b49d8b72164589d00310017d&#45;&gt;dir_a36da230f0956f48b11c85f7d599788f -->
<g id="edge7" class="edge">
<title>dir_d739e095b49d8b72164589d00310017d&#45;&gt;dir_a36da230f0956f48b11c85f7d599788f</title>
<path fill="none" stroke="#000000" d="M93.1041,-215.5615C87.2249,-185.5247 77.1585,-124.1431 81,-72 81.6169,-63.6264 82.7649,-54.5812 84.0026,-46.3322"/>
<polygon fill="#000000" stroke="#000000" points="87.4648,-46.8463 85.585,-36.4196 80.5523,-45.7428 87.4648,-46.8463"/>
<g id="a_edge7&#45;headlabel"><a xlink:href="dir_000147_000078.html" target="_top" xlink:title="73">
<text text-anchor="middle" x="89.702" y="-48.3436" font-family="Helvetica,sans-Serif" font-size="10.00" fill="#000000">73</text>
</a>
</g>
</g>
<!-- dir_d739e095b49d8b72164589d00310017d&#45;&gt;dir_b7a0e33b407baa23d8a077e33033c988 -->
<g id="edge8" class="edge">
<title>dir_d739e095b49d8b72164589d00310017d&#45;&gt;dir_b7a0e33b407baa23d8a077e33033c988</title>
<path fill="none" stroke="#000000" d="M106.1881,-215.8314C112.4151,-207.3694 120.747,-197.1489 128.9111,-187.8971"/>
<polygon fill="#000000" stroke="#000000" points="131.5677,-190.1776 135.6796,-180.4133 126.376,-185.4822 131.5677,-190.1776"/>
<g id="a_edge8&#45;headlabel"><a xlink:href="dir_000147_000219.html" target="_top" xlink:title="16">
<text text-anchor="middle" x="131.2623" y="-192.2481" font-family="Helvetica,sans-Serif" font-size="10.00" fill="#000000">16</text>
</a>
</g>
</g>
<!-- dir_b7a0e33b407baa23d8a077e33033c988&#45;&gt;dir_3c3c25df5132fca4f15a988b4c2efab5 -->
<g id="edge9" class="edge">
<title>dir_b7a0e33b407baa23d8a077e33033c988&#45;&gt;dir_3c3c25df5132fca4f15a988b4c2efab5</title>
<path fill="none" stroke="#000000" d="M146.9063,-143.8314C142.4403,-135.7925 137.0925,-126.1666 132.1621,-117.2918"/>
<polygon fill="#000000" stroke="#000000" points="135.1456,-115.4551 127.2296,-108.4133 129.0265,-118.8546 135.1456,-115.4551"/>
<g id="a_edge9&#45;headlabel"><a xlink:href="dir_000219_000167.html" target="_top" xlink:title="19">
<text text-anchor="middle" x="139.3732" y="-114.7185" font-family="Helvetica,sans-Serif" font-size="10.00" fill="#000000">19</text>
</a>
</g>
</g>
<!-- dir_b7a0e33b407baa23d8a077e33033c988&#45;&gt;dir_a36da230f0956f48b11c85f7d599788f -->
<g id="edge10" class="edge">
<title>dir_b7a0e33b407baa23d8a077e33033c988&#45;&gt;dir_a36da230f0956f48b11c85f7d599788f</title>
<path fill="none" stroke="#000000" d="M160.302,-143.704C162.8154,-124.7369 164.1844,-94.7354 153,-72 147.1262,-60.0599 137.2711,-49.7548 127.0325,-41.442"/>
<polygon fill="#000000" stroke="#000000" points="128.8919,-38.4595 118.8079,-35.2091 124.6639,-44.0385 128.8919,-38.4595"/>
<g id="a_edge10&#45;headlabel"><a xlink:href="dir_000219_000078.html" target="_top" xlink:title="554">
<text text-anchor="middle" x="133.4716" y="-35.8677" font-family="Helvetica,sans-Serif" font-size="10.00" fill="#000000">554</text>
</a>
</g>
</g>
<!-- dir_b7a0e33b407baa23d8a077e33033c988&#45;&gt;dir_d739e095b49d8b72164589d00310017d -->
<g id="edge11" class="edge">
<title>dir_b7a0e33b407baa23d8a077e33033c988&#45;&gt;dir_d739e095b49d8b72164589d00310017d</title>
<path fill="none" stroke="#000000" d="M147.6316,-180.4133C141.3643,-188.9088 133.0141,-199.1366 124.8534,-208.3696"/>
<polygon fill="#000000" stroke="#000000" points="122.2134,-206.0706 118.0929,-215.8314 127.401,-210.7706 122.2134,-206.0706"/>
<g id="a_edge11&#45;headlabel"><a xlink:href="dir_000219_000147.html" target="_top" xlink:title="4">
<text text-anchor="middle" x="122.5228" y="-199.0004" font-family="Helvetica,sans-Serif" font-size="10.00" fill="#000000">4</text>
</a>
</g>
</g>
</g>
</svg>
