<?xml version="1.0" encoding="UTF-8" standalone="no"?>
<!DOCTYPE svg PUBLIC "-//W3C//DTD SVG 1.1//EN"
 "http://www.w3.org/Graphics/SVG/1.1/DTD/svg11.dtd">
<!-- Generated by graphviz version 2.40.1 (20161225.0304)
 -->
<!-- Title: drake/multibody/plant Pages: 1 -->
<svg width="616pt" height="519pt"
 viewBox="0.00 0.00 616.00 519.00" xmlns="http://www.w3.org/2000/svg" xmlns:xlink="http://www.w3.org/1999/xlink">
<g id="graph0" class="graph" transform="scale(1 1) rotate(0) translate(4 515)">
<title>drake/multibody/plant</title>
<polygon fill="#ffffff" stroke="transparent" points="-4,4 -4,-515 612,-515 612,4 -4,4"/>
<g id="clust1" class="cluster">
<title>clusterdir_39b8b3c6654246a9c12332c930bc7d3f</title>
<g id="a_clust1"><a xlink:href="dir_39b8b3c6654246a9c12332c930bc7d3f.html" target="_top" xlink:title="multibody">
<polygon fill="#ddddee" stroke="#000000" points="160,-416 160,-503 318,-503 318,-416 160,-416"/>
<text text-anchor="middle" x="239" y="-491" font-family="Helvetica,sans-Serif" font-size="10.00" fill="#000000">multibody</text>
</a>
</g>
</g>
<g id="clust2" class="cluster">
<title>clusterdir_656f7d340c0f5b4ecaf881820f2aea38</title>
<g id="a_clust2"><a xlink:href="dir_656f7d340c0f5b4ecaf881820f2aea38.html" target="_top">
<polygon fill="#eeeeff" stroke="#000000" points="168,-424 168,-476 310,-476 310,-424 168,-424"/>
</a>
</g>
</g>
<!-- dir_656f7d340c0f5b4ecaf881820f2aea38 -->
<g id="node1" class="node">
<title>dir_656f7d340c0f5b4ecaf881820f2aea38</title>
<text text-anchor="middle" x="203" y="-447.5" font-family="Helvetica,sans-Serif" font-size="10.00" fill="#000000">plant</text>
</g>
<!-- dir_fc0178d6978c9fa2cad6ef3e048a60a7 -->
<g id="node4" class="node">
<title>dir_fc0178d6978c9fa2cad6ef3e048a60a7</title>
<g id="a_node4"><a xlink:href="dir_fc0178d6978c9fa2cad6ef3e048a60a7.html" target="_top" xlink:title="math">
<polygon fill="#ffffff" stroke="#ff0000" points="402,-108 348,-108 348,-72 402,-72 402,-108"/>
<text text-anchor="middle" x="375" y="-87.5" font-family="Helvetica,sans-Serif" font-size="10.00" fill="#000000">math</text>
</a>
</g>
</g>
<!-- dir_656f7d340c0f5b4ecaf881820f2aea38&#45;&gt;dir_fc0178d6978c9fa2cad6ef3e048a60a7 -->
<g id="edge27" class="edge">
<title>dir_656f7d340c0f5b4ecaf881820f2aea38&#45;&gt;dir_fc0178d6978c9fa2cad6ef3e048a60a7</title>
<path fill="none" stroke="#000000" d="M179.8505,-431.7622C168.9112,-422.1253 156.4338,-409.5073 148,-396 105.3424,-327.6813 88.7959,-286.9053 127,-216 169.3555,-137.39 279.8991,-106.6046 338.0366,-95.5679"/>
<polygon fill="#000000" stroke="#000000" points="338.6951,-99.0057 347.9157,-93.7874 337.4535,-92.1167 338.6951,-99.0057"/>
<g id="a_edge27&#45;headlabel"><a xlink:href="dir_000024_000093.html" target="_top" xlink:title="15">
<text text-anchor="middle" x="335.661" y="-99.9374" font-family="Helvetica,sans-Serif" font-size="10.00" fill="#000000">15</text>
</a>
</g>
</g>
<!-- dir_a36da230f0956f48b11c85f7d599788f -->
<g id="node6" class="node">
<title>dir_a36da230f0956f48b11c85f7d599788f</title>
<g id="a_node6"><a xlink:href="dir_a36da230f0956f48b11c85f7d599788f.html" target="_top" xlink:title="common">
<polygon fill="#ffffff" stroke="#ff0000" points="404.5,-36 345.5,-36 345.5,0 404.5,0 404.5,-36"/>
<text text-anchor="middle" x="375" y="-15.5" font-family="Helvetica,sans-Serif" font-size="10.00" fill="#000000">common</text>
</a>
</g>
</g>
<!-- dir_656f7d340c0f5b4ecaf881820f2aea38&#45;&gt;dir_a36da230f0956f48b11c85f7d599788f -->
<g id="edge28" class="edge">
<title>dir_656f7d340c0f5b4ecaf881820f2aea38&#45;&gt;dir_a36da230f0956f48b11c85f7d599788f</title>
<path fill="none" stroke="#000000" d="M175.6225,-444.1437C120.2122,-430.5101 0,-391.123 0,-306 0,-306 0,-306 0,-162 0,-90.7595 238.8428,-41.513 335.3023,-24.5292"/>
<polygon fill="#000000" stroke="#000000" points="336.0063,-27.9594 345.2609,-22.8016 334.8098,-21.0624 336.0063,-27.9594"/>
<g id="a_edge28&#45;headlabel"><a xlink:href="dir_000024_000076.html" target="_top" xlink:title="39">
<text text-anchor="middle" x="332.9499" y="-28.8712" font-family="Helvetica,sans-Serif" font-size="10.00" fill="#000000">39</text>
</a>
</g>
</g>
<!-- dir_d739e095b49d8b72164589d00310017d -->
<g id="node7" class="node">
<title>dir_d739e095b49d8b72164589d00310017d</title>
<g id="a_node7"><a xlink:href="dir_d739e095b49d8b72164589d00310017d.html" target="_top" xlink:title="geometry">
<polygon fill="#ffffff" stroke="#ff0000" points="222,-252 158,-252 158,-216 222,-216 222,-252"/>
<text text-anchor="middle" x="190" y="-231.5" font-family="Helvetica,sans-Serif" font-size="10.00" fill="#000000">geometry</text>
</a>
</g>
</g>
<!-- dir_656f7d340c0f5b4ecaf881820f2aea38&#45;&gt;dir_d739e095b49d8b72164589d00310017d -->
<g id="edge29" class="edge">
<title>dir_656f7d340c0f5b4ecaf881820f2aea38&#45;&gt;dir_d739e095b49d8b72164589d00310017d</title>
<path fill="none" stroke="#000000" d="M191.2492,-431.8241C185.4142,-421.7142 178.9861,-408.6495 176,-396 164.9719,-349.284 169.9281,-335.6144 176,-288 177.0854,-279.4887 179.0962,-270.4011 181.262,-262.1555"/>
<polygon fill="#000000" stroke="#000000" points="184.7045,-262.8414 184.0302,-252.2681 177.9637,-260.9542 184.7045,-262.8414"/>
<g id="a_edge29&#45;headlabel"><a xlink:href="dir_000024_000147.html" target="_top" xlink:title="13">
<text text-anchor="middle" x="186.4696" y="-264.5684" font-family="Helvetica,sans-Serif" font-size="10.00" fill="#000000">13</text>
</a>
</g>
</g>
<!-- dir_b7a0e33b407baa23d8a077e33033c988 -->
<g id="node9" class="node">
<title>dir_b7a0e33b407baa23d8a077e33033c988</title>
<g id="a_node9"><a xlink:href="dir_b7a0e33b407baa23d8a077e33033c988.html" target="_top" xlink:title="systems">
<polygon fill="#ffffff" stroke="#ff0000" points="332,-180 274,-180 274,-144 332,-144 332,-180"/>
<text text-anchor="middle" x="303" y="-159.5" font-family="Helvetica,sans-Serif" font-size="10.00" fill="#000000">systems</text>
</a>
</g>
</g>
<!-- dir_656f7d340c0f5b4ecaf881820f2aea38&#45;&gt;dir_b7a0e33b407baa23d8a077e33033c988 -->
<g id="edge30" class="edge">
<title>dir_656f7d340c0f5b4ecaf881820f2aea38&#45;&gt;dir_b7a0e33b407baa23d8a077e33033c988</title>
<path fill="none" stroke="#000000" d="M187.2053,-431.7723C179.5042,-421.8528 170.8727,-408.9803 166,-396 137.7594,-320.77 102.5217,-281.5504 149,-216 162.5587,-196.8776 222.9337,-179.9139 263.9365,-170.3079"/>
<polygon fill="#000000" stroke="#000000" points="264.9359,-173.6698 273.9033,-168.0274 263.3745,-166.8461 264.9359,-173.6698"/>
<g id="a_edge30&#45;headlabel"><a xlink:href="dir_000024_000217.html" target="_top" xlink:title="23">
<text text-anchor="middle" x="262.0651" y="-174.7392" font-family="Helvetica,sans-Serif" font-size="10.00" fill="#000000">23</text>
</a>
</g>
</g>
<!-- dir_adbb1ee2d3f43f66610ca2f4101eae2a -->
<g id="node2" class="node">
<title>dir_adbb1ee2d3f43f66610ca2f4101eae2a</title>
<g id="a_node2"><a xlink:href="dir_adbb1ee2d3f43f66610ca2f4101eae2a.html" target="_top" xlink:title="test">
<polygon fill="#ffffff" stroke="#000000" points="302,-468 248,-468 248,-432 302,-432 302,-468"/>
<text text-anchor="middle" x="275" y="-447.5" font-family="Helvetica,sans-Serif" font-size="10.00" fill="#000000">test</text>
</a>
</g>
</g>
<!-- dir_e56f4370c0abfd94d0eb867c3946e12e -->
<g id="node3" class="node">
<title>dir_e56f4370c0abfd94d0eb867c3946e12e</title>
<g id="a_node3"><a xlink:href="dir_e56f4370c0abfd94d0eb867c3946e12e.html" target="_top" xlink:title="parsing">
<polygon fill="#ffffff" stroke="#ff0000" points="302,-396 248,-396 248,-360 302,-360 302,-396"/>
<text text-anchor="middle" x="275" y="-375.5" font-family="Helvetica,sans-Serif" font-size="10.00" fill="#000000">parsing</text>
</a>
</g>
</g>
<!-- dir_adbb1ee2d3f43f66610ca2f4101eae2a&#45;&gt;dir_e56f4370c0abfd94d0eb867c3946e12e -->
<g id="edge16" class="edge">
<title>dir_adbb1ee2d3f43f66610ca2f4101eae2a&#45;&gt;dir_e56f4370c0abfd94d0eb867c3946e12e</title>
<path fill="none" stroke="#000000" d="M275,-431.8314C275,-424.131 275,-414.9743 275,-406.4166"/>
<polygon fill="#000000" stroke="#000000" points="278.5001,-406.4132 275,-396.4133 271.5001,-406.4133 278.5001,-406.4132"/>
<g id="a_edge16&#45;headlabel"><a xlink:href="dir_000216_000020.html" target="_top" xlink:title="5">
<text text-anchor="middle" x="281.3393" y="-407.5079" font-family="Helvetica,sans-Serif" font-size="10.00" fill="#000000">5</text>
</a>
</g>
</g>
<!-- dir_adbb1ee2d3f43f66610ca2f4101eae2a&#45;&gt;dir_fc0178d6978c9fa2cad6ef3e048a60a7 -->
<g id="edge17" class="edge">
<title>dir_adbb1ee2d3f43f66610ca2f4101eae2a&#45;&gt;dir_fc0178d6978c9fa2cad6ef3e048a60a7</title>
<path fill="none" stroke="#000000" d="M302.2292,-447.2007C338.3643,-442.2853 402.6389,-429.243 446,-396 476.1361,-372.896 476.7498,-358.7765 492,-324 511.573,-279.3658 526.412,-262.2361 511,-216 494.6957,-167.087 445.5471,-130.0532 411.0409,-109.1833"/>
<polygon fill="#000000" stroke="#000000" points="412.5707,-106.0229 402.1749,-103.9787 409.0269,-112.0596 412.5707,-106.0229"/>
<g id="a_edge17&#45;headlabel"><a xlink:href="dir_000216_000093.html" target="_top" xlink:title="13">
<text text-anchor="middle" x="417.108" y="-102.8941" font-family="Helvetica,sans-Serif" font-size="10.00" fill="#000000">13</text>
</a>
</g>
</g>
<!-- dir_5d8dbe7a82c2c188fa06f6391bb290bd -->
<g id="node5" class="node">
<title>dir_5d8dbe7a82c2c188fa06f6391bb290bd</title>
<g id="a_node5"><a xlink:href="dir_5d8dbe7a82c2c188fa06f6391bb290bd.html" target="_top" xlink:title="benchmarks">
<polygon fill="#ffffff" stroke="#ff0000" points="465.5,-324 388.5,-324 388.5,-288 465.5,-288 465.5,-324"/>
<text text-anchor="middle" x="427" y="-303.5" font-family="Helvetica,sans-Serif" font-size="10.00" fill="#000000">benchmarks</text>
</a>
</g>
</g>
<!-- dir_adbb1ee2d3f43f66610ca2f4101eae2a&#45;&gt;dir_5d8dbe7a82c2c188fa06f6391bb290bd -->
<g id="edge18" class="edge">
<title>dir_adbb1ee2d3f43f66610ca2f4101eae2a&#45;&gt;dir_5d8dbe7a82c2c188fa06f6391bb290bd</title>
<path fill="none" stroke="#000000" d="M302.3112,-439.8522C323.745,-430.8478 353.318,-416.0132 374,-396 392.3934,-378.2013 406.6163,-352.6687 415.6758,-333.3419"/>
<polygon fill="#000000" stroke="#000000" points="418.9028,-334.6998 419.8207,-324.1448 412.521,-331.8237 418.9028,-334.6998"/>
<g id="a_edge18&#45;headlabel"><a xlink:href="dir_000216_000195.html" target="_top" xlink:title="5">
<text text-anchor="middle" x="420.0145" y="-336.6435" font-family="Helvetica,sans-Serif" font-size="10.00" fill="#000000">5</text>
</a>
</g>
</g>
<!-- dir_adbb1ee2d3f43f66610ca2f4101eae2a&#45;&gt;dir_a36da230f0956f48b11c85f7d599788f -->
<g id="edge19" class="edge">
<title>dir_adbb1ee2d3f43f66610ca2f4101eae2a&#45;&gt;dir_a36da230f0956f48b11c85f7d599788f</title>
<path fill="none" stroke="#000000" d="M302.2508,-444.3757C381.7809,-427.186 608,-372.4506 608,-306 608,-306 608,-306 608,-162 608,-72.1744 481.1429,-36.507 414.6366,-23.98"/>
<polygon fill="#000000" stroke="#000000" points="414.9705,-20.4841 404.5096,-22.1635 413.7345,-27.3742 414.9705,-20.4841"/>
<g id="a_edge19&#45;headlabel"><a xlink:href="dir_000216_000076.html" target="_top" xlink:title="17">
<text text-anchor="middle" x="419.0099" y="-15.824" font-family="Helvetica,sans-Serif" font-size="10.00" fill="#000000">17</text>
</a>
</g>
</g>
<!-- dir_adbb1ee2d3f43f66610ca2f4101eae2a&#45;&gt;dir_d739e095b49d8b72164589d00310017d -->
<g id="edge20" class="edge">
<title>dir_adbb1ee2d3f43f66610ca2f4101eae2a&#45;&gt;dir_d739e095b49d8b72164589d00310017d</title>
<path fill="none" stroke="#000000" d="M260.9118,-431.813C253.5945,-421.6999 244.9619,-408.6356 239,-396 217.8428,-351.1597 203.2881,-295.0488 195.8239,-262.0062"/>
<polygon fill="#000000" stroke="#000000" points="199.2183,-261.1458 193.6502,-252.1322 192.382,-262.6508 199.2183,-261.1458"/>
<g id="a_edge20&#45;headlabel"><a xlink:href="dir_000216_000147.html" target="_top" xlink:title="6">
<text text-anchor="middle" x="202.764" y="-261.546" font-family="Helvetica,sans-Serif" font-size="10.00" fill="#000000">6</text>
</a>
</g>
</g>
<!-- dir_3f9cb8dbb3b4911cb2ecb548acd672c3 -->
<g id="node8" class="node">
<title>dir_3f9cb8dbb3b4911cb2ecb548acd672c3</title>
<g id="a_node8"><a xlink:href="dir_3f9cb8dbb3b4911cb2ecb548acd672c3.html" target="_top" xlink:title="tree">
<polygon fill="#ffffff" stroke="#ff0000" points="502,-252 448,-252 448,-216 502,-216 502,-252"/>
<text text-anchor="middle" x="475" y="-231.5" font-family="Helvetica,sans-Serif" font-size="10.00" fill="#000000">tree</text>
</a>
</g>
</g>
<!-- dir_adbb1ee2d3f43f66610ca2f4101eae2a&#45;&gt;dir_3f9cb8dbb3b4911cb2ecb548acd672c3 -->
<g id="edge21" class="edge">
<title>dir_adbb1ee2d3f43f66610ca2f4101eae2a&#45;&gt;dir_3f9cb8dbb3b4911cb2ecb548acd672c3</title>
<path fill="none" stroke="#000000" d="M302.2247,-443.3694C349.346,-430.1489 443.9488,-395.4252 474,-324 482.2064,-304.4951 482.0104,-280.4412 480.0052,-262.1091"/>
<polygon fill="#000000" stroke="#000000" points="483.4556,-261.5043 478.6653,-252.0543 476.517,-262.429 483.4556,-261.5043"/>
<g id="a_edge21&#45;headlabel"><a xlink:href="dir_000216_000017.html" target="_top" xlink:title="2">
<text text-anchor="middle" x="486.7448" y="-262.1924" font-family="Helvetica,sans-Serif" font-size="10.00" fill="#000000">2</text>
</a>
</g>
</g>
<!-- dir_adbb1ee2d3f43f66610ca2f4101eae2a&#45;&gt;dir_b7a0e33b407baa23d8a077e33033c988 -->
<g id="edge22" class="edge">
<title>dir_adbb1ee2d3f43f66610ca2f4101eae2a&#45;&gt;dir_b7a0e33b407baa23d8a077e33033c988</title>
<path fill="none" stroke="#000000" d="M290.9905,-431.9169C298.6538,-422.0371 307.0166,-409.1563 311,-396 332.7012,-324.3259 319.0247,-234.6246 309.6506,-189.9624"/>
<polygon fill="#000000" stroke="#000000" points="313.0544,-189.1436 307.4995,-180.1218 306.2159,-190.6385 313.0544,-189.1436"/>
<g id="a_edge22&#45;headlabel"><a xlink:href="dir_000216_000217.html" target="_top" xlink:title="17">
<text text-anchor="middle" x="316.5957" y="-189.549" font-family="Helvetica,sans-Serif" font-size="10.00" fill="#000000">17</text>
</a>
</g>
</g>
<!-- dir_e56f4370c0abfd94d0eb867c3946e12e&#45;&gt;dir_fc0178d6978c9fa2cad6ef3e048a60a7 -->
<g id="edge1" class="edge">
<title>dir_e56f4370c0abfd94d0eb867c3946e12e&#45;&gt;dir_fc0178d6978c9fa2cad6ef3e048a60a7</title>
<path fill="none" stroke="#000000" d="M286.5832,-359.5091C292.635,-349.3069 299.835,-336.2545 305,-324 335.3414,-252.0122 358.2652,-162.4487 368.7338,-117.8884"/>
<polygon fill="#000000" stroke="#000000" points="372.1608,-118.6034 371.0088,-108.0714 365.3415,-117.023 372.1608,-118.6034"/>
<g id="a_edge1&#45;headlabel"><a xlink:href="dir_000020_000093.html" target="_top" xlink:title="11">
<text text-anchor="middle" x="374.1153" y="-120.2462" font-family="Helvetica,sans-Serif" font-size="10.00" fill="#000000">11</text>
</a>
</g>
</g>
<!-- dir_e56f4370c0abfd94d0eb867c3946e12e&#45;&gt;dir_5d8dbe7a82c2c188fa06f6391bb290bd -->
<g id="edge2" class="edge">
<title>dir_e56f4370c0abfd94d0eb867c3946e12e&#45;&gt;dir_5d8dbe7a82c2c188fa06f6391bb290bd</title>
<path fill="none" stroke="#000000" d="M302.1746,-365.1278C323.6973,-354.9329 354.2797,-340.4465 379.7862,-328.3645"/>
<polygon fill="#000000" stroke="#000000" points="381.3884,-331.4784 388.9275,-324.0344 378.3917,-325.1522 381.3884,-331.4784"/>
<g id="a_edge2&#45;headlabel"><a xlink:href="dir_000020_000195.html" target="_top" xlink:title="1">
<text text-anchor="middle" x="379.3552" y="-333.0831" font-family="Helvetica,sans-Serif" font-size="10.00" fill="#000000">1</text>
</a>
</g>
</g>
<!-- dir_e56f4370c0abfd94d0eb867c3946e12e&#45;&gt;dir_a36da230f0956f48b11c85f7d599788f -->
<g id="edge3" class="edge">
<title>dir_e56f4370c0abfd94d0eb867c3946e12e&#45;&gt;dir_a36da230f0956f48b11c85f7d599788f</title>
<path fill="none" stroke="#000000" d="M247.9124,-362.8239C204.9496,-336.54 128.071,-279.2566 149,-216 174.0454,-140.3015 193.9445,-122.0664 256,-72 279.5888,-52.9685 310.965,-39.0945 335.5769,-30.1779"/>
<polygon fill="#000000" stroke="#000000" points="337.039,-33.3747 345.3266,-26.7742 334.7318,-26.7659 337.039,-33.3747"/>
<g id="a_edge3&#45;headlabel"><a xlink:href="dir_000020_000076.html" target="_top" xlink:title="29">
<text text-anchor="middle" x="334.5811" y="-34.7401" font-family="Helvetica,sans-Serif" font-size="10.00" fill="#000000">29</text>
</a>
</g>
</g>
<!-- dir_e56f4370c0abfd94d0eb867c3946e12e&#45;&gt;dir_d739e095b49d8b72164589d00310017d -->
<g id="edge4" class="edge">
<title>dir_e56f4370c0abfd94d0eb867c3946e12e&#45;&gt;dir_d739e095b49d8b72164589d00310017d</title>
<path fill="none" stroke="#000000" d="M264.2347,-359.7623C249.4813,-334.7682 222.874,-289.6924 205.8436,-260.8409"/>
<polygon fill="#000000" stroke="#000000" points="208.7753,-258.9221 200.6779,-252.0896 202.7471,-262.4804 208.7753,-258.9221"/>
<g id="a_edge4&#45;headlabel"><a xlink:href="dir_000020_000147.html" target="_top" xlink:title="16">
<text text-anchor="middle" x="213.0476" y="-258.0744" font-family="Helvetica,sans-Serif" font-size="10.00" fill="#000000">16</text>
</a>
</g>
</g>
<!-- dir_e56f4370c0abfd94d0eb867c3946e12e&#45;&gt;dir_b7a0e33b407baa23d8a077e33033c988 -->
<g id="edge5" class="edge">
<title>dir_e56f4370c0abfd94d0eb867c3946e12e&#45;&gt;dir_b7a0e33b407baa23d8a077e33033c988</title>
<path fill="none" stroke="#000000" d="M270.7747,-359.9477C269.6488,-329.9492 274.9963,-267.9873 283,-216 284.3041,-207.5294 286.0424,-198.375 288.1369,-190.0525"/>
<polygon fill="#000000" stroke="#000000" points="291.5089,-190.9904 290.8633,-180.4153 284.7732,-189.0849 291.5089,-190.9904"/>
<g id="a_edge5&#45;headlabel"><a xlink:href="dir_000020_000217.html" target="_top" xlink:title="3">
<text text-anchor="middle" x="293.2625" y="-192.7222" font-family="Helvetica,sans-Serif" font-size="10.00" fill="#000000">3</text>
</a>
</g>
</g>
<!-- dir_fc0178d6978c9fa2cad6ef3e048a60a7&#45;&gt;dir_a36da230f0956f48b11c85f7d599788f -->
<g id="edge6" class="edge">
<title>dir_fc0178d6978c9fa2cad6ef3e048a60a7&#45;&gt;dir_a36da230f0956f48b11c85f7d599788f</title>
<path fill="none" stroke="#000000" d="M369.0476,-71.8314C368.2972,-64.131 368.0763,-54.9743 368.3849,-46.4166"/>
<polygon fill="#000000" stroke="#000000" points="371.8792,-46.6161 369.024,-36.4133 364.8935,-46.1697 371.8792,-46.6161"/>
<g id="a_edge6&#45;headlabel"><a xlink:href="dir_000093_000076.html" target="_top" xlink:title="87">
<text text-anchor="middle" x="374.4836" y="-47.8844" font-family="Helvetica,sans-Serif" font-size="10.00" fill="#000000">87</text>
</a>
</g>
</g>
<!-- dir_5d8dbe7a82c2c188fa06f6391bb290bd&#45;&gt;dir_fc0178d6978c9fa2cad6ef3e048a60a7 -->
<g id="edge7" class="edge">
<title>dir_5d8dbe7a82c2c188fa06f6391bb290bd&#45;&gt;dir_fc0178d6978c9fa2cad6ef3e048a60a7</title>
<path fill="none" stroke="#000000" d="M424.1372,-287.8289C419.1978,-257.6597 408.2214,-195.4578 394,-144 391.6285,-135.4191 388.5903,-126.2315 385.6423,-117.9126"/>
<polygon fill="#000000" stroke="#000000" points="388.8511,-116.4952 382.142,-108.2952 382.2732,-118.8893 388.8511,-116.4952"/>
<g id="a_edge7&#45;headlabel"><a xlink:href="dir_000195_000093.html" target="_top" xlink:title="11">
<text text-anchor="middle" x="392.7485" y="-116.402" font-family="Helvetica,sans-Serif" font-size="10.00" fill="#000000">11</text>
</a>
</g>
</g>
<!-- dir_5d8dbe7a82c2c188fa06f6391bb290bd&#45;&gt;dir_a36da230f0956f48b11c85f7d599788f -->
<g id="edge8" class="edge">
<title>dir_5d8dbe7a82c2c188fa06f6391bb290bd&#45;&gt;dir_a36da230f0956f48b11c85f7d599788f</title>
<path fill="none" stroke="#000000" d="M465.804,-291.2744C482.8991,-282.6129 501.2801,-269.8036 511,-252 518.667,-237.9566 514.5009,-231.6123 511,-216 495.5136,-146.938 486.9746,-127.4583 443,-72 434.1927,-60.8927 422.681,-50.6595 411.64,-42.1569"/>
<polygon fill="#000000" stroke="#000000" points="413.4593,-39.1488 403.3412,-36.0064 409.2913,-44.7727 413.4593,-39.1488"/>
<g id="a_edge8&#45;headlabel"><a xlink:href="dir_000195_000076.html" target="_top" xlink:title="26">
<text text-anchor="middle" x="418.0378" y="-36.508" font-family="Helvetica,sans-Serif" font-size="10.00" fill="#000000">26</text>
</a>
</g>
</g>
<!-- dir_5d8dbe7a82c2c188fa06f6391bb290bd&#45;&gt;dir_d739e095b49d8b72164589d00310017d -->
<g id="edge9" class="edge">
<title>dir_5d8dbe7a82c2c188fa06f6391bb290bd&#45;&gt;dir_d739e095b49d8b72164589d00310017d</title>
<path fill="none" stroke="#000000" d="M388.3944,-294.2717C345.3485,-281.1945 275.975,-260.119 231.71,-246.6714"/>
<polygon fill="#000000" stroke="#000000" points="232.7054,-243.3159 222.1198,-243.7579 230.6706,-250.0137 232.7054,-243.3159"/>
<g id="a_edge9&#45;headlabel"><a xlink:href="dir_000195_000147.html" target="_top" xlink:title="3">
<text text-anchor="middle" x="236.9701" y="-239.1441" font-family="Helvetica,sans-Serif" font-size="10.00" fill="#000000">3</text>
</a>
</g>
</g>
<!-- dir_5d8dbe7a82c2c188fa06f6391bb290bd&#45;&gt;dir_3f9cb8dbb3b4911cb2ecb548acd672c3 -->
<g id="edge10" class="edge">
<title>dir_5d8dbe7a82c2c188fa06f6391bb290bd&#45;&gt;dir_3f9cb8dbb3b4911cb2ecb548acd672c3</title>
<path fill="none" stroke="#000000" d="M433.16,-287.8314C437.8322,-279.6232 444.2091,-269.7606 450.6313,-260.7323"/>
<polygon fill="#000000" stroke="#000000" points="453.6442,-262.5431 456.7485,-252.4133 448.0047,-258.3963 453.6442,-262.5431"/>
<g id="a_edge10&#45;headlabel"><a xlink:href="dir_000195_000017.html" target="_top" xlink:title="4">
<text text-anchor="middle" x="453.8022" y="-264.6211" font-family="Helvetica,sans-Serif" font-size="10.00" fill="#000000">4</text>
</a>
</g>
</g>
<!-- dir_5d8dbe7a82c2c188fa06f6391bb290bd&#45;&gt;dir_b7a0e33b407baa23d8a077e33033c988 -->
<g id="edge11" class="edge">
<title>dir_5d8dbe7a82c2c188fa06f6391bb290bd&#45;&gt;dir_b7a0e33b407baa23d8a077e33033c988</title>
<path fill="none" stroke="#000000" d="M411.2953,-287.7623C389.4931,-262.4436 349.9462,-216.5182 325.1521,-187.7251"/>
<polygon fill="#000000" stroke="#000000" points="327.7546,-185.3835 318.5772,-180.0896 322.4502,-189.9512 327.7546,-185.3835"/>
<g id="a_edge11&#45;headlabel"><a xlink:href="dir_000195_000217.html" target="_top" xlink:title="3">
<text text-anchor="middle" x="332.2517" y="-183.7547" font-family="Helvetica,sans-Serif" font-size="10.00" fill="#000000">3</text>
</a>
</g>
</g>
<!-- dir_a36da230f0956f48b11c85f7d599788f&#45;&gt;dir_fc0178d6978c9fa2cad6ef3e048a60a7 -->
<g id="edge12" class="edge">
<title>dir_a36da230f0956f48b11c85f7d599788f&#45;&gt;dir_fc0178d6978c9fa2cad6ef3e048a60a7</title>
<path fill="none" stroke="#000000" d="M380.976,-36.4133C381.7071,-44.0593 381.9203,-53.1084 381.6155,-61.5726"/>
<polygon fill="#000000" stroke="#000000" points="378.1048,-61.6264 380.9524,-71.8314 385.0902,-62.078 378.1048,-61.6264"/>
<g id="a_edge12&#45;headlabel"><a xlink:href="dir_000076_000093.html" target="_top" xlink:title="4">
<text text-anchor="middle" x="375.5032" y="-55.3562" font-family="Helvetica,sans-Serif" font-size="10.00" fill="#000000">4</text>
</a>
</g>
</g>
<!-- dir_d739e095b49d8b72164589d00310017d&#45;&gt;dir_fc0178d6978c9fa2cad6ef3e048a60a7 -->
<g id="edge13" class="edge">
<title>dir_d739e095b49d8b72164589d00310017d&#45;&gt;dir_fc0178d6978c9fa2cad6ef3e048a60a7</title>
<path fill="none" stroke="#000000" d="M201.6917,-215.8303C215.0863,-196.1327 238.6163,-164.7401 265,-144 287.1453,-126.5917 315.8089,-112.7456 338.324,-103.4336"/>
<polygon fill="#000000" stroke="#000000" points="339.8977,-106.5735 347.8745,-99.6006 337.2904,-100.0771 339.8977,-106.5735"/>
<g id="a_edge13&#45;headlabel"><a xlink:href="dir_000147_000093.html" target="_top" xlink:title="3">
<text text-anchor="middle" x="337.6192" y="-108.0472" font-family="Helvetica,sans-Serif" font-size="10.00" fill="#000000">3</text>
</a>
</g>
</g>
<!-- dir_d739e095b49d8b72164589d00310017d&#45;&gt;dir_a36da230f0956f48b11c85f7d599788f -->
<g id="edge14" class="edge">
<title>dir_d739e095b49d8b72164589d00310017d&#45;&gt;dir_a36da230f0956f48b11c85f7d599788f</title>
<path fill="none" stroke="#000000" d="M194.6976,-215.8207C200.2484,-196.6796 210.8261,-166.2866 227,-144 257.5664,-101.8816 305.0155,-64.7827 337.9137,-41.9406"/>
<polygon fill="#000000" stroke="#000000" points="340.082,-44.6981 346.3622,-36.1652 336.1316,-38.9193 340.082,-44.6981"/>
<g id="a_edge14&#45;headlabel"><a xlink:href="dir_000147_000076.html" target="_top" xlink:title="74">
<text text-anchor="middle" x="338.7168" y="-46.5706" font-family="Helvetica,sans-Serif" font-size="10.00" fill="#000000">74</text>
</a>
</g>
</g>
<!-- dir_d739e095b49d8b72164589d00310017d&#45;&gt;dir_b7a0e33b407baa23d8a077e33033c988 -->
<g id="edge15" class="edge">
<title>dir_d739e095b49d8b72164589d00310017d&#45;&gt;dir_b7a0e33b407baa23d8a077e33033c988</title>
<path fill="none" stroke="#000000" d="M212.5623,-215.8314C227.6014,-205.6145 247.596,-192.8341 265.0126,-182.2903"/>
<polygon fill="#000000" stroke="#000000" points="267.0609,-185.1435 273.8454,-177.0059 263.467,-179.1365 267.0609,-185.1435"/>
<g id="a_edge15&#45;headlabel"><a xlink:href="dir_000147_000217.html" target="_top" xlink:title="16">
<text text-anchor="middle" x="265.4338" y="-186.9255" font-family="Helvetica,sans-Serif" font-size="10.00" fill="#000000">16</text>
</a>
</g>
</g>
<!-- dir_3f9cb8dbb3b4911cb2ecb548acd672c3&#45;&gt;dir_fc0178d6978c9fa2cad6ef3e048a60a7 -->
<g id="edge23" class="edge">
<title>dir_3f9cb8dbb3b4911cb2ecb548acd672c3&#45;&gt;dir_fc0178d6978c9fa2cad6ef3e048a60a7</title>
<path fill="none" stroke="#000000" d="M468.5414,-215.6829C461.3412,-196.6986 448.5062,-166.6832 432,-144 424.418,-133.5806 414.6633,-123.4931 405.3743,-114.913"/>
<polygon fill="#000000" stroke="#000000" points="407.5266,-112.1424 397.739,-108.0861 402.8608,-117.3607 407.5266,-112.1424"/>
<g id="a_edge23&#45;headlabel"><a xlink:href="dir_000017_000093.html" target="_top" xlink:title="38">
<text text-anchor="middle" x="412.0987" y="-109.9217" font-family="Helvetica,sans-Serif" font-size="10.00" fill="#000000">38</text>
</a>
</g>
</g>
<!-- dir_3f9cb8dbb3b4911cb2ecb548acd672c3&#45;&gt;dir_5d8dbe7a82c2c188fa06f6391bb290bd -->
<g id="edge24" class="edge">
<title>dir_3f9cb8dbb3b4911cb2ecb548acd672c3&#45;&gt;dir_5d8dbe7a82c2c188fa06f6391bb290bd</title>
<path fill="none" stroke="#000000" d="M468.7005,-252.4133C463.9947,-260.654 457.6006,-270.5245 451.1776,-279.536"/>
<polygon fill="#000000" stroke="#000000" points="448.1795,-277.7047 445.0648,-287.8314 453.8148,-281.8573 448.1795,-277.7047"/>
<g id="a_edge24&#45;headlabel"><a xlink:href="dir_000017_000195.html" target="_top" xlink:title="6">
<text text-anchor="middle" x="448.0262" y="-270.6266" font-family="Helvetica,sans-Serif" font-size="10.00" fill="#000000">6</text>
</a>
</g>
</g>
<!-- dir_3f9cb8dbb3b4911cb2ecb548acd672c3&#45;&gt;dir_a36da230f0956f48b11c85f7d599788f -->
<g id="edge25" class="edge">
<title>dir_3f9cb8dbb3b4911cb2ecb548acd672c3&#45;&gt;dir_a36da230f0956f48b11c85f7d599788f</title>
<path fill="none" stroke="#000000" d="M473.3637,-215.8477C471.2342,-197.2582 466.5862,-167.7961 457,-144 441.9948,-106.7523 415.4065,-68.764 396.5784,-44.3798"/>
<polygon fill="#000000" stroke="#000000" points="399.2008,-42.0521 390.274,-36.3457 393.6938,-46.3734 399.2008,-42.0521"/>
<g id="a_edge25&#45;headlabel"><a xlink:href="dir_000017_000076.html" target="_top" xlink:title="184">
<text text-anchor="middle" x="403.6535" y="-40.6272" font-family="Helvetica,sans-Serif" font-size="10.00" fill="#000000">184</text>
</a>
</g>
</g>
<!-- dir_3f9cb8dbb3b4911cb2ecb548acd672c3&#45;&gt;dir_b7a0e33b407baa23d8a077e33033c988 -->
<g id="edge26" class="edge">
<title>dir_3f9cb8dbb3b4911cb2ecb548acd672c3&#45;&gt;dir_b7a0e33b407baa23d8a077e33033c988</title>
<path fill="none" stroke="#000000" d="M447.7461,-222.5914C419.1598,-210.625 373.9855,-191.7148 341.7088,-178.2037"/>
<polygon fill="#000000" stroke="#000000" points="342.7146,-174.8305 332.1387,-174.1976 340.0116,-181.2876 342.7146,-174.8305"/>
<g id="a_edge26&#45;headlabel"><a xlink:href="dir_000017_000217.html" target="_top" xlink:title="45">
<text text-anchor="middle" x="347.1267" y="-171.0994" font-family="Helvetica,sans-Serif" font-size="10.00" fill="#000000">45</text>
</a>
</g>
</g>
<!-- dir_b7a0e33b407baa23d8a077e33033c988&#45;&gt;dir_e56f4370c0abfd94d0eb867c3946e12e -->
<g id="edge31" class="edge">
<title>dir_b7a0e33b407baa23d8a077e33033c988&#45;&gt;dir_e56f4370c0abfd94d0eb867c3946e12e</title>
<path fill="none" stroke="#000000" d="M306.7171,-180.4153C305.5277,-190.8177 302.8343,-204.0853 301,-216 293.8092,-262.7073 288.7624,-317.4661 283.6213,-349.8623"/>
<polygon fill="#000000" stroke="#000000" points="280.1325,-349.4964 281.8709,-359.9477 287.0294,-350.6935 280.1325,-349.4964"/>
<g id="a_edge31&#45;headlabel"><a xlink:href="dir_000217_000020.html" target="_top" xlink:title="3">
<text text-anchor="middle" x="277.9497" y="-342.9693" font-family="Helvetica,sans-Serif" font-size="10.00" fill="#000000">3</text>
</a>
</g>
</g>
<!-- dir_b7a0e33b407baa23d8a077e33033c988&#45;&gt;dir_fc0178d6978c9fa2cad6ef3e048a60a7 -->
<g id="edge32" class="edge">
<title>dir_b7a0e33b407baa23d8a077e33033c988&#45;&gt;dir_fc0178d6978c9fa2cad6ef3e048a60a7</title>
<path fill="none" stroke="#000000" d="M321.1686,-143.8314C329.7152,-135.2848 340.0557,-124.9443 349.3802,-115.6198"/>
<polygon fill="#000000" stroke="#000000" points="351.9905,-117.9592 356.5867,-108.4133 347.0408,-113.0095 351.9905,-117.9592"/>
<g id="a_edge32&#45;headlabel"><a xlink:href="dir_000217_000093.html" target="_top" xlink:title="29">
<text text-anchor="middle" x="351.4564" y="-120.0087" font-family="Helvetica,sans-Serif" font-size="10.00" fill="#000000">29</text>
</a>
</g>
</g>
<!-- dir_b7a0e33b407baa23d8a077e33033c988&#45;&gt;dir_a36da230f0956f48b11c85f7d599788f -->
<g id="edge33" class="edge">
<title>dir_b7a0e33b407baa23d8a077e33033c988&#45;&gt;dir_a36da230f0956f48b11c85f7d599788f</title>
<path fill="none" stroke="#000000" d="M308.9822,-143.9232C315.3995,-125.3939 326.3864,-95.9789 339,-72 343.8275,-62.8228 349.8366,-53.2651 355.5539,-44.7865"/>
<polygon fill="#000000" stroke="#000000" points="358.5412,-46.62 361.3445,-36.4027 352.7815,-42.6418 358.5412,-46.62"/>
<g id="a_edge33&#45;headlabel"><a xlink:href="dir_000217_000076.html" target="_top" xlink:title="555">
<text text-anchor="middle" x="358.8346" y="-48.6912" font-family="Helvetica,sans-Serif" font-size="10.00" fill="#000000">555</text>
</a>
</g>
</g>
<!-- dir_b7a0e33b407baa23d8a077e33033c988&#45;&gt;dir_d739e095b49d8b72164589d00310017d -->
<g id="edge34" class="edge">
<title>dir_b7a0e33b407baa23d8a077e33033c988&#45;&gt;dir_d739e095b49d8b72164589d00310017d</title>
<path fill="none" stroke="#000000" d="M280.5061,-180.1222C266.2003,-189.8432 247.391,-201.8951 230.5823,-212.1338"/>
<polygon fill="#000000" stroke="#000000" points="228.7673,-209.1411 222.0093,-217.3008 232.3807,-215.1365 228.7673,-209.1411"/>
<g id="a_edge34&#45;headlabel"><a xlink:href="dir_000217_000147.html" target="_top" xlink:title="4">
<text text-anchor="middle" x="230.3804" y="-202.3539" font-family="Helvetica,sans-Serif" font-size="10.00" fill="#000000">4</text>
</a>
</g>
</g>
</g>
</svg>
