<?xml version="1.0" encoding="UTF-8" standalone="no"?>
<!DOCTYPE svg PUBLIC "-//W3C//DTD SVG 1.1//EN"
 "http://www.w3.org/Graphics/SVG/1.1/DTD/svg11.dtd">
<!-- Generated by graphviz version 2.40.1 (20161225.0304)
 -->
<!-- Title: drake/multibody/tree Pages: 1 -->
<svg width="283pt" height="394pt"
 viewBox="0.00 0.00 282.71 393.68" xmlns="http://www.w3.org/2000/svg" xmlns:xlink="http://www.w3.org/1999/xlink">
<g id="graph0" class="graph" transform="scale(1 1) rotate(0) translate(4 389.6755)">
<title>drake/multibody/tree</title>
<polygon fill="#ffffff" stroke="transparent" points="-4,4 -4,-389.6755 278.7075,-389.6755 278.7075,4 -4,4"/>
<g id="clust1" class="cluster">
<title>clusterdir_39b8b3c6654246a9c12332c930bc7d3f</title>
<g id="a_clust1"><a xlink:href="dir_39b8b3c6654246a9c12332c930bc7d3f.html" target="_top" xlink:title="multibody">
<polygon fill="#ddddee" stroke="#000000" points="8,-272 8,-359 166,-359 166,-272 8,-272"/>
<text text-anchor="middle" x="87" y="-347" font-family="Helvetica,sans-Serif" font-size="10.00" fill="#000000">multibody</text>
</a>
</g>
</g>
<g id="clust2" class="cluster">
<title>clusterdir_3f9cb8dbb3b4911cb2ecb548acd672c3</title>
<g id="a_clust2"><a xlink:href="dir_3f9cb8dbb3b4911cb2ecb548acd672c3.html" target="_top">
<polygon fill="#eeeeff" stroke="#000000" points="16,-280 16,-332 158,-332 158,-280 16,-280"/>
</a>
</g>
</g>
<!-- dir_3f9cb8dbb3b4911cb2ecb548acd672c3 -->
<g id="node1" class="node">
<title>dir_3f9cb8dbb3b4911cb2ecb548acd672c3</title>
<text text-anchor="middle" x="123" y="-303.5" font-family="Helvetica,sans-Serif" font-size="10.00" fill="#000000">tree</text>
</g>
<!-- dir_db567a41efd47fbbf246d6626984cb83 -->
<g id="node2" class="node">
<title>dir_db567a41efd47fbbf246d6626984cb83</title>
<g id="a_node2"><a xlink:href="dir_db567a41efd47fbbf246d6626984cb83.html" target="_top" xlink:title="test">
<polygon fill="#ffffff" stroke="#000000" points="78,-324 24,-324 24,-288 78,-288 78,-324"/>
<text text-anchor="middle" x="51" y="-303.5" font-family="Helvetica,sans-Serif" font-size="10.00" fill="#000000">test</text>
</a>
</g>
</g>
<!-- dir_fc0178d6978c9fa2cad6ef3e048a60a7 -->
<g id="node3" class="node">
<title>dir_fc0178d6978c9fa2cad6ef3e048a60a7</title>
<g id="a_node3"><a xlink:href="dir_fc0178d6978c9fa2cad6ef3e048a60a7.html" target="_top" xlink:title="math">
<polygon fill="#ffffff" stroke="#ff0000" points="207,-108 153,-108 153,-72 207,-72 207,-108"/>
<text text-anchor="middle" x="180" y="-87.5" font-family="Helvetica,sans-Serif" font-size="10.00" fill="#000000">math</text>
</a>
</g>
</g>
<!-- dir_db567a41efd47fbbf246d6626984cb83&#45;&gt;dir_fc0178d6978c9fa2cad6ef3e048a60a7 -->
<g id="edge11" class="edge">
<title>dir_db567a41efd47fbbf246d6626984cb83&#45;&gt;dir_fc0178d6978c9fa2cad6ef3e048a60a7</title>
<path fill="none" stroke="#000000" d="M51.1142,-287.8399C52.1928,-255.7499 58.4912,-188.237 91,-144 104.1238,-126.1415 125.0955,-113.0016 143.3855,-104.1573"/>
<polygon fill="#000000" stroke="#000000" points="145.0106,-107.2629 152.6498,-99.9217 142.0999,-100.8967 145.0106,-107.2629"/>
<g id="a_edge11&#45;headlabel"><a xlink:href="dir_000030_000095.html" target="_top" xlink:title="28">
<text text-anchor="middle" x="142.922" y="-108.8397" font-family="Helvetica,sans-Serif" font-size="10.00" fill="#000000">28</text>
</a>
</g>
</g>
<!-- dir_5d8dbe7a82c2c188fa06f6391bb290bd -->
<g id="node4" class="node">
<title>dir_5d8dbe7a82c2c188fa06f6391bb290bd</title>
<g id="a_node4"><a xlink:href="dir_5d8dbe7a82c2c188fa06f6391bb290bd.html" target="_top" xlink:title="benchmarks">
<polygon fill="#ffffff" stroke="#ff0000" points="251.5,-324 174.5,-324 174.5,-288 251.5,-288 251.5,-324"/>
<text text-anchor="middle" x="213" y="-303.5" font-family="Helvetica,sans-Serif" font-size="10.00" fill="#000000">benchmarks</text>
</a>
</g>
</g>
<!-- dir_db567a41efd47fbbf246d6626984cb83&#45;&gt;dir_5d8dbe7a82c2c188fa06f6391bb290bd -->
<g id="edge12" class="edge">
<title>dir_db567a41efd47fbbf246d6626984cb83&#45;&gt;dir_5d8dbe7a82c2c188fa06f6391bb290bd</title>
<path fill="none" stroke="#000000" d="M56.7294,-324.0384C63.2342,-341.1355 75.6695,-365.8155 96,-377 118.1962,-389.2109 130.0215,-387.6662 153,-377 172.6381,-367.8843 188.1711,-348.8243 198.5085,-332.746"/>
<polygon fill="#000000" stroke="#000000" points="201.4993,-334.564 203.71,-324.2024 195.5202,-330.9238 201.4993,-334.564"/>
<g id="a_edge12&#45;headlabel"><a xlink:href="dir_000030_000195.html" target="_top" xlink:title="6">
<text text-anchor="middle" x="202.0552" y="-336.6108" font-family="Helvetica,sans-Serif" font-size="10.00" fill="#000000">6</text>
</a>
</g>
</g>
<!-- dir_559c8ef22c6aa151f764a7a49835876c -->
<g id="node5" class="node">
<title>dir_559c8ef22c6aa151f764a7a49835876c</title>
<g id="a_node5"><a xlink:href="dir_559c8ef22c6aa151f764a7a49835876c.html" target="_top" xlink:title="multibody_tree">
<polygon fill="#ffffff" stroke="#ff0000" points="246.5,-252 155.5,-252 155.5,-216 246.5,-216 246.5,-252"/>
<text text-anchor="middle" x="201" y="-231.5" font-family="Helvetica,sans-Serif" font-size="10.00" fill="#000000">multibody_tree</text>
</a>
</g>
</g>
<!-- dir_db567a41efd47fbbf246d6626984cb83&#45;&gt;dir_559c8ef22c6aa151f764a7a49835876c -->
<g id="edge13" class="edge">
<title>dir_db567a41efd47fbbf246d6626984cb83&#45;&gt;dir_559c8ef22c6aa151f764a7a49835876c</title>
<path fill="none" stroke="#000000" d="M67.3106,-287.7244C73.0855,-282.0789 79.9184,-276.2381 87,-272 104.994,-261.2312 126.4329,-253.0605 145.8374,-247.108"/>
<polygon fill="#000000" stroke="#000000" points="146.8631,-250.4546 155.4719,-244.279 144.8909,-243.7382 146.8631,-250.4546"/>
<g id="a_edge13&#45;headlabel"><a xlink:href="dir_000030_000025.html" target="_top" xlink:title="1">
<text text-anchor="middle" x="144.214" y="-251.6916" font-family="Helvetica,sans-Serif" font-size="10.00" fill="#000000">1</text>
</a>
</g>
</g>
<!-- dir_a36da230f0956f48b11c85f7d599788f -->
<g id="node6" class="node">
<title>dir_a36da230f0956f48b11c85f7d599788f</title>
<g id="a_node6"><a xlink:href="dir_a36da230f0956f48b11c85f7d599788f.html" target="_top" xlink:title="common">
<polygon fill="#ffffff" stroke="#ff0000" points="209.5,-36 150.5,-36 150.5,0 209.5,0 209.5,-36"/>
<text text-anchor="middle" x="180" y="-15.5" font-family="Helvetica,sans-Serif" font-size="10.00" fill="#000000">common</text>
</a>
</g>
</g>
<!-- dir_db567a41efd47fbbf246d6626984cb83&#45;&gt;dir_a36da230f0956f48b11c85f7d599788f -->
<g id="edge14" class="edge">
<title>dir_db567a41efd47fbbf246d6626984cb83&#45;&gt;dir_a36da230f0956f48b11c85f7d599788f</title>
<path fill="none" stroke="#000000" d="M48.9558,-287.7808C46.2929,-256.4633 44.5302,-191.2389 69,-144 89.6581,-104.1195 125.6529,-66.6061 151.0431,-43.0543"/>
<polygon fill="#000000" stroke="#000000" points="153.5224,-45.5302 158.5536,-36.2062 148.806,-40.3576 153.5224,-45.5302"/>
<g id="a_edge14&#45;headlabel"><a xlink:href="dir_000030_000078.html" target="_top" xlink:title="50">
<text text-anchor="middle" x="152.7792" y="-47.5502" font-family="Helvetica,sans-Serif" font-size="10.00" fill="#000000">50</text>
</a>
</g>
</g>
<!-- dir_b7a0e33b407baa23d8a077e33033c988 -->
<g id="node7" class="node">
<title>dir_b7a0e33b407baa23d8a077e33033c988</title>
<g id="a_node7"><a xlink:href="dir_b7a0e33b407baa23d8a077e33033c988.html" target="_top" xlink:title="systems">
<polygon fill="#ffffff" stroke="#ff0000" points="158,-180 100,-180 100,-144 158,-144 158,-180"/>
<text text-anchor="middle" x="129" y="-159.5" font-family="Helvetica,sans-Serif" font-size="10.00" fill="#000000">systems</text>
</a>
</g>
</g>
<!-- dir_db567a41efd47fbbf246d6626984cb83&#45;&gt;dir_b7a0e33b407baa23d8a077e33033c988 -->
<g id="edge15" class="edge">
<title>dir_db567a41efd47fbbf246d6626984cb83&#45;&gt;dir_b7a0e33b407baa23d8a077e33033c988</title>
<path fill="none" stroke="#000000" d="M60.8788,-287.7623C74.3586,-262.8764 98.6221,-218.0822 114.2577,-189.2165"/>
<polygon fill="#000000" stroke="#000000" points="117.5161,-190.5496 119.2015,-180.0896 111.361,-187.2155 117.5161,-190.5496"/>
<g id="a_edge15&#45;headlabel"><a xlink:href="dir_000030_000218.html" target="_top" xlink:title="27">
<text text-anchor="middle" x="118.3006" y="-192.5625" font-family="Helvetica,sans-Serif" font-size="10.00" fill="#000000">27</text>
</a>
</g>
</g>
<!-- dir_fc0178d6978c9fa2cad6ef3e048a60a7&#45;&gt;dir_a36da230f0956f48b11c85f7d599788f -->
<g id="edge1" class="edge">
<title>dir_fc0178d6978c9fa2cad6ef3e048a60a7&#45;&gt;dir_a36da230f0956f48b11c85f7d599788f</title>
<path fill="none" stroke="#000000" d="M174.0476,-71.8314C173.2972,-64.131 173.0763,-54.9743 173.3849,-46.4166"/>
<polygon fill="#000000" stroke="#000000" points="176.8792,-46.6161 174.024,-36.4133 169.8935,-46.1697 176.8792,-46.6161"/>
<g id="a_edge1&#45;headlabel"><a xlink:href="dir_000095_000078.html" target="_top" xlink:title="87">
<text text-anchor="middle" x="179.4836" y="-47.8844" font-family="Helvetica,sans-Serif" font-size="10.00" fill="#000000">87</text>
</a>
</g>
</g>
<!-- dir_5d8dbe7a82c2c188fa06f6391bb290bd&#45;&gt;dir_db567a41efd47fbbf246d6626984cb83 -->
<g id="edge4" class="edge">
<title>dir_5d8dbe7a82c2c188fa06f6391bb290bd&#45;&gt;dir_db567a41efd47fbbf246d6626984cb83</title>
<path fill="none" stroke="#000000" d="M203.71,-324.2024C193.7834,-341.424 176.2748,-366.1963 153,-377 130.0215,-387.6662 118.1962,-389.2109 96,-377 79.1638,-367.7378 67.7421,-349.2206 60.619,-333.4191"/>
<polygon fill="#000000" stroke="#000000" points="63.7928,-331.9352 56.7294,-324.0384 57.3266,-334.6164 63.7928,-331.9352"/>
<g id="a_edge4&#45;headlabel"><a xlink:href="dir_000195_000030.html" target="_top" xlink:title="1">
<text text-anchor="middle" x="67.7923" y="-331.6682" font-family="Helvetica,sans-Serif" font-size="10.00" fill="#000000">1</text>
</a>
</g>
</g>
<!-- dir_5d8dbe7a82c2c188fa06f6391bb290bd&#45;&gt;dir_fc0178d6978c9fa2cad6ef3e048a60a7 -->
<g id="edge2" class="edge">
<title>dir_5d8dbe7a82c2c188fa06f6391bb290bd&#45;&gt;dir_fc0178d6978c9fa2cad6ef3e048a60a7</title>
<path fill="none" stroke="#000000" d="M232.4956,-287.9663C241.5103,-278.2894 251.2551,-265.5757 256,-252 261.279,-236.896 260.2889,-231.4145 256,-216 245.464,-178.1332 220.14,-140.27 201.6095,-116.0841"/>
<polygon fill="#000000" stroke="#000000" points="204.2951,-113.8369 195.3737,-108.1221 198.7842,-118.1531 204.2951,-113.8369"/>
<g id="a_edge2&#45;headlabel"><a xlink:href="dir_000195_000095.html" target="_top" xlink:title="11">
<text text-anchor="middle" x="208.7468" y="-112.4162" font-family="Helvetica,sans-Serif" font-size="10.00" fill="#000000">11</text>
</a>
</g>
</g>
<!-- dir_5d8dbe7a82c2c188fa06f6391bb290bd&#45;&gt;dir_559c8ef22c6aa151f764a7a49835876c -->
<g id="edge3" class="edge">
<title>dir_5d8dbe7a82c2c188fa06f6391bb290bd&#45;&gt;dir_559c8ef22c6aa151f764a7a49835876c</title>
<path fill="none" stroke="#000000" d="M204.0195,-287.8314C201.9857,-280.131 200.2387,-270.9743 199.121,-262.4166"/>
<polygon fill="#000000" stroke="#000000" points="202.597,-262.003 198.0929,-252.4133 195.6337,-262.7187 202.597,-262.003"/>
<g id="a_edge3&#45;headlabel"><a xlink:href="dir_000195_000025.html" target="_top" xlink:title="5">
<text text-anchor="middle" x="205.7889" y="-262.7885" font-family="Helvetica,sans-Serif" font-size="10.00" fill="#000000">5</text>
</a>
</g>
</g>
<!-- dir_5d8dbe7a82c2c188fa06f6391bb290bd&#45;&gt;dir_a36da230f0956f48b11c85f7d599788f -->
<g id="edge5" class="edge">
<title>dir_5d8dbe7a82c2c188fa06f6391bb290bd&#45;&gt;dir_a36da230f0956f48b11c85f7d599788f</title>
<path fill="none" stroke="#000000" d="M240.9609,-287.862C252.554,-278.6621 264.7402,-266.3809 271,-252 277.3858,-237.3296 273.0583,-231.867 271,-216 262.4848,-150.3591 265.7182,-129.5392 233,-72 227.0238,-61.49 218.494,-51.5572 210.0193,-43.1451"/>
<polygon fill="#000000" stroke="#000000" points="212.3191,-40.5027 202.6516,-36.1679 207.5058,-45.5853 212.3191,-40.5027"/>
<g id="a_edge5&#45;headlabel"><a xlink:href="dir_000195_000078.html" target="_top" xlink:title="26">
<text text-anchor="middle" x="216.8813" y="-38.4128" font-family="Helvetica,sans-Serif" font-size="10.00" fill="#000000">26</text>
</a>
</g>
</g>
<!-- dir_5d8dbe7a82c2c188fa06f6391bb290bd&#45;&gt;dir_b7a0e33b407baa23d8a077e33033c988 -->
<g id="edge6" class="edge">
<title>dir_5d8dbe7a82c2c188fa06f6391bb290bd&#45;&gt;dir_b7a0e33b407baa23d8a077e33033c988</title>
<path fill="none" stroke="#000000" d="M182.6335,-287.94C169.7342,-278.7558 155.6952,-266.4653 147,-252 135.7619,-233.3043 131.3957,-208.8678 129.7655,-190.1763"/>
<polygon fill="#000000" stroke="#000000" points="133.2574,-189.9357 129.1027,-180.1894 126.2727,-190.3993 133.2574,-189.9357"/>
<g id="a_edge6&#45;headlabel"><a xlink:href="dir_000195_000218.html" target="_top" xlink:title="3">
<text text-anchor="middle" x="136.3284" y="-190.8344" font-family="Helvetica,sans-Serif" font-size="10.00" fill="#000000">3</text>
</a>
</g>
</g>
<!-- dir_559c8ef22c6aa151f764a7a49835876c&#45;&gt;dir_fc0178d6978c9fa2cad6ef3e048a60a7 -->
<g id="edge7" class="edge">
<title>dir_559c8ef22c6aa151f764a7a49835876c&#45;&gt;dir_fc0178d6978c9fa2cad6ef3e048a60a7</title>
<path fill="none" stroke="#000000" d="M198.3403,-215.7623C194.7585,-191.201 188.3486,-147.2474 184.135,-118.3541"/>
<polygon fill="#000000" stroke="#000000" points="187.5446,-117.4798 182.6381,-108.0896 180.6179,-118.4901 187.5446,-117.4798"/>
<g id="a_edge7&#45;headlabel"><a xlink:href="dir_000025_000095.html" target="_top" xlink:title="12">
<text text-anchor="middle" x="190.8728" y="-118.1271" font-family="Helvetica,sans-Serif" font-size="10.00" fill="#000000">12</text>
</a>
</g>
</g>
<!-- dir_559c8ef22c6aa151f764a7a49835876c&#45;&gt;dir_5d8dbe7a82c2c188fa06f6391bb290bd -->
<g id="edge8" class="edge">
<title>dir_559c8ef22c6aa151f764a7a49835876c&#45;&gt;dir_5d8dbe7a82c2c188fa06f6391bb290bd</title>
<path fill="none" stroke="#000000" d="M210.0449,-252.4133C212.0726,-260.1442 213.8099,-269.3097 214.9142,-277.8545"/>
<polygon fill="#000000" stroke="#000000" points="211.4347,-278.2348 215.9243,-287.8314 218.3991,-277.5296 211.4347,-278.2348"/>
<g id="a_edge8&#45;headlabel"><a xlink:href="dir_000025_000195.html" target="_top" xlink:title="5">
<text text-anchor="middle" x="208.2479" y="-272.4444" font-family="Helvetica,sans-Serif" font-size="10.00" fill="#000000">5</text>
</a>
</g>
</g>
<!-- dir_559c8ef22c6aa151f764a7a49835876c&#45;&gt;dir_a36da230f0956f48b11c85f7d599788f -->
<g id="edge9" class="edge">
<title>dir_559c8ef22c6aa151f764a7a49835876c&#45;&gt;dir_a36da230f0956f48b11c85f7d599788f</title>
<path fill="none" stroke="#000000" d="M207.1661,-215.5652C216.4073,-185.0167 231.2242,-122.282 216,-72 213.0436,-62.2355 207.6748,-52.6229 201.97,-44.2762"/>
<polygon fill="#000000" stroke="#000000" points="204.7129,-42.0973 195.9905,-36.0831 199.0586,-46.2239 204.7129,-42.0973"/>
<g id="a_edge9&#45;headlabel"><a xlink:href="dir_000025_000078.html" target="_top" xlink:title="37">
<text text-anchor="middle" x="209.1253" y="-40.827" font-family="Helvetica,sans-Serif" font-size="10.00" fill="#000000">37</text>
</a>
</g>
</g>
<!-- dir_559c8ef22c6aa151f764a7a49835876c&#45;&gt;dir_b7a0e33b407baa23d8a077e33033c988 -->
<g id="edge10" class="edge">
<title>dir_559c8ef22c6aa151f764a7a49835876c&#45;&gt;dir_b7a0e33b407baa23d8a077e33033c988</title>
<path fill="none" stroke="#000000" d="M176.879,-215.8314C167.5923,-207.3694 157.1867,-197.1489 148.3891,-187.8971"/>
<polygon fill="#000000" stroke="#000000" points="150.8075,-185.3579 141.4373,-180.4133 145.6788,-190.122 150.8075,-185.3579"/>
<g id="a_edge10&#45;headlabel"><a xlink:href="dir_000025_000218.html" target="_top" xlink:title="22">
<text text-anchor="middle" x="155.3342" y="-183.5592" font-family="Helvetica,sans-Serif" font-size="10.00" fill="#000000">22</text>
</a>
</g>
</g>
<!-- dir_a36da230f0956f48b11c85f7d599788f&#45;&gt;dir_fc0178d6978c9fa2cad6ef3e048a60a7 -->
<g id="edge16" class="edge">
<title>dir_a36da230f0956f48b11c85f7d599788f&#45;&gt;dir_fc0178d6978c9fa2cad6ef3e048a60a7</title>
<path fill="none" stroke="#000000" d="M185.976,-36.4133C186.7071,-44.0593 186.9203,-53.1084 186.6155,-61.5726"/>
<polygon fill="#000000" stroke="#000000" points="183.1048,-61.6264 185.9524,-71.8314 190.0902,-62.078 183.1048,-61.6264"/>
<g id="a_edge16&#45;headlabel"><a xlink:href="dir_000078_000095.html" target="_top" xlink:title="4">
<text text-anchor="middle" x="180.5032" y="-55.3562" font-family="Helvetica,sans-Serif" font-size="10.00" fill="#000000">4</text>
</a>
</g>
</g>
<!-- dir_b7a0e33b407baa23d8a077e33033c988&#45;&gt;dir_fc0178d6978c9fa2cad6ef3e048a60a7 -->
<g id="edge17" class="edge">
<title>dir_b7a0e33b407baa23d8a077e33033c988&#45;&gt;dir_fc0178d6978c9fa2cad6ef3e048a60a7</title>
<path fill="none" stroke="#000000" d="M141.8695,-143.8314C147.6835,-135.6232 154.6696,-125.7606 161.0646,-116.7323"/>
<polygon fill="#000000" stroke="#000000" points="164.0331,-118.5966 166.9573,-108.4133 158.321,-114.5505 164.0331,-118.5966"/>
<g id="a_edge17&#45;headlabel"><a xlink:href="dir_000218_000095.html" target="_top" xlink:title="29">
<text text-anchor="middle" x="164.2723" y="-120.671" font-family="Helvetica,sans-Serif" font-size="10.00" fill="#000000">29</text>
</a>
</g>
</g>
<!-- dir_b7a0e33b407baa23d8a077e33033c988&#45;&gt;dir_559c8ef22c6aa151f764a7a49835876c -->
<g id="edge18" class="edge">
<title>dir_b7a0e33b407baa23d8a077e33033c988&#45;&gt;dir_559c8ef22c6aa151f764a7a49835876c</title>
<path fill="none" stroke="#000000" d="M153.1147,-180.1628C162.4722,-188.6891 172.9667,-199.0016 181.8076,-208.3099"/>
<polygon fill="#000000" stroke="#000000" points="179.4173,-210.8796 188.7838,-215.8314 184.5496,-206.1194 179.4173,-210.8796"/>
<g id="a_edge18&#45;headlabel"><a xlink:href="dir_000218_000025.html" target="_top" xlink:title="5">
<text text-anchor="middle" x="174.8912" y="-207.6749" font-family="Helvetica,sans-Serif" font-size="10.00" fill="#000000">5</text>
</a>
</g>
</g>
<!-- dir_b7a0e33b407baa23d8a077e33033c988&#45;&gt;dir_a36da230f0956f48b11c85f7d599788f -->
<g id="edge19" class="edge">
<title>dir_b7a0e33b407baa23d8a077e33033c988&#45;&gt;dir_a36da230f0956f48b11c85f7d599788f</title>
<path fill="none" stroke="#000000" d="M129.7893,-143.8147C131.1065,-125.199 134.6215,-95.7162 144,-72 147.7518,-62.5126 153.3532,-52.9811 159.0266,-44.6235"/>
<polygon fill="#000000" stroke="#000000" points="161.9402,-46.5658 164.8903,-36.39 156.2383,-42.505 161.9402,-46.5658"/>
<g id="a_edge19&#45;headlabel"><a xlink:href="dir_000218_000078.html" target="_top" xlink:title="555">
<text text-anchor="middle" x="162.1677" y="-48.6408" font-family="Helvetica,sans-Serif" font-size="10.00" fill="#000000">555</text>
</a>
</g>
</g>
</g>
</svg>
