<?xml version="1.0" encoding="UTF-8" standalone="no"?>
<!DOCTYPE svg PUBLIC "-//W3C//DTD SVG 1.1//EN"
 "http://www.w3.org/Graphics/SVG/1.1/DTD/svg11.dtd">
<!-- Generated by graphviz version 2.40.1 (20161225.0304)
 -->
<!-- Title: drake/attic/systems/controllers/plan_eval/test Pages: 1 -->
<svg width="161pt" height="295pt"
 viewBox="0.00 0.00 160.50 295.00" xmlns="http://www.w3.org/2000/svg" xmlns:xlink="http://www.w3.org/1999/xlink">
<g id="graph0" class="graph" transform="scale(1 1) rotate(0) translate(4 291)">
<title>drake/attic/systems/controllers/plan_eval/test</title>
<polygon fill="#ffffff" stroke="transparent" points="-4,4 -4,-291 156.5,-291 156.5,4 -4,4"/>
<g id="clust1" class="cluster">
<title>clusterdir_3a8cb50c16f7f57e93f49c720e3bff8e</title>
<g id="a_clust1"><a xlink:href="dir_3a8cb50c16f7f57e93f49c720e3bff8e.html" target="_top" xlink:title="plan_eval">
<polygon fill="#ddddee" stroke="#000000" points="74.5,-208 74.5,-279 144.5,-279 144.5,-208 74.5,-208"/>
<text text-anchor="middle" x="109.5" y="-267" font-family="Helvetica,sans-Serif" font-size="10.00" fill="#000000">plan_eval</text>
</a>
</g>
</g>
<!-- dir_bfb903dc7be5b738f3e318dd32938288 -->
<g id="node1" class="node">
<title>dir_bfb903dc7be5b738f3e318dd32938288</title>
<g id="a_node1"><a xlink:href="dir_bfb903dc7be5b738f3e318dd32938288.html" target="_top" xlink:title="test">
<polygon fill="#eeeeff" stroke="#000000" points="136.5,-252 82.5,-252 82.5,-216 136.5,-216 136.5,-252"/>
<text text-anchor="middle" x="109.5" y="-231.5" font-family="Helvetica,sans-Serif" font-size="10.00" fill="#000000">test</text>
</a>
</g>
</g>
<!-- dir_758aa030403a70af025108ac41d12d0d -->
<g id="node2" class="node">
<title>dir_758aa030403a70af025108ac41d12d0d</title>
<g id="a_node2"><a xlink:href="dir_758aa030403a70af025108ac41d12d0d.html" target="_top" xlink:title="manipulation">
<polygon fill="#ffffff" stroke="#ff0000" points="81,-180 0,-180 0,-144 81,-144 81,-180"/>
<text text-anchor="middle" x="40.5" y="-159.5" font-family="Helvetica,sans-Serif" font-size="10.00" fill="#000000">manipulation</text>
</a>
</g>
</g>
<!-- dir_bfb903dc7be5b738f3e318dd32938288&#45;&gt;dir_758aa030403a70af025108ac41d12d0d -->
<g id="edge1" class="edge">
<title>dir_bfb903dc7be5b738f3e318dd32938288&#45;&gt;dir_758aa030403a70af025108ac41d12d0d</title>
<path fill="none" stroke="#000000" d="M92.0884,-215.8314C83.979,-207.3694 74.1844,-197.1489 65.318,-187.8971"/>
<polygon fill="#000000" stroke="#000000" points="67.5921,-185.2115 58.146,-180.4133 62.5382,-190.0549 67.5921,-185.2115"/>
<g id="a_edge1&#45;headlabel"><a xlink:href="dir_000035_000169.html" target="_top" xlink:title="1">
<text text-anchor="middle" x="72.1291" y="-183.3422" font-family="Helvetica,sans-Serif" font-size="10.00" fill="#000000">1</text>
</a>
</g>
</g>
<!-- dir_a36da230f0956f48b11c85f7d599788f -->
<g id="node3" class="node">
<title>dir_a36da230f0956f48b11c85f7d599788f</title>
<g id="a_node3"><a xlink:href="dir_a36da230f0956f48b11c85f7d599788f.html" target="_top" xlink:title="common">
<polygon fill="#ffffff" stroke="#ff0000" points="123,-36 64,-36 64,0 123,0 123,-36"/>
<text text-anchor="middle" x="93.5" y="-15.5" font-family="Helvetica,sans-Serif" font-size="10.00" fill="#000000">common</text>
</a>
</g>
</g>
<!-- dir_bfb903dc7be5b738f3e318dd32938288&#45;&gt;dir_a36da230f0956f48b11c85f7d599788f -->
<g id="edge2" class="edge">
<title>dir_bfb903dc7be5b738f3e318dd32938288&#45;&gt;dir_a36da230f0956f48b11c85f7d599788f</title>
<path fill="none" stroke="#000000" d="M117.1092,-215.5761C128.6003,-185.0432 147.434,-122.3306 131.5,-72 128.4185,-62.2664 122.8817,-52.7695 116.9711,-44.5228"/>
<polygon fill="#000000" stroke="#000000" points="119.6248,-42.2316 110.7635,-36.4239 114.069,-46.49 119.6248,-42.2316"/>
<g id="a_edge2&#45;headlabel"><a xlink:href="dir_000035_000076.html" target="_top" xlink:title="4">
<text text-anchor="middle" x="124.065" y="-40.8573" font-family="Helvetica,sans-Serif" font-size="10.00" fill="#000000">4</text>
</a>
</g>
</g>
<!-- dir_b7a0e33b407baa23d8a077e33033c988 -->
<g id="node4" class="node">
<title>dir_b7a0e33b407baa23d8a077e33033c988</title>
<g id="a_node4"><a xlink:href="dir_b7a0e33b407baa23d8a077e33033c988.html" target="_top" xlink:title="systems">
<polygon fill="#ffffff" stroke="#ff0000" points="122.5,-108 64.5,-108 64.5,-72 122.5,-72 122.5,-108"/>
<text text-anchor="middle" x="93.5" y="-87.5" font-family="Helvetica,sans-Serif" font-size="10.00" fill="#000000">systems</text>
</a>
</g>
</g>
<!-- dir_bfb903dc7be5b738f3e318dd32938288&#45;&gt;dir_b7a0e33b407baa23d8a077e33033c988 -->
<g id="edge3" class="edge">
<title>dir_bfb903dc7be5b738f3e318dd32938288&#45;&gt;dir_b7a0e33b407baa23d8a077e33033c988</title>
<path fill="none" stroke="#000000" d="M107.4736,-215.7623C104.7446,-191.201 99.8608,-147.2474 96.6505,-118.3541"/>
<polygon fill="#000000" stroke="#000000" points="100.093,-117.6419 95.51,-108.0896 93.1358,-118.415 100.093,-117.6419"/>
<g id="a_edge3&#45;headlabel"><a xlink:href="dir_000035_000217.html" target="_top" xlink:title="1">
<text text-anchor="middle" x="103.3117" y="-118.401" font-family="Helvetica,sans-Serif" font-size="10.00" fill="#000000">1</text>
</a>
</g>
</g>
<!-- dir_758aa030403a70af025108ac41d12d0d&#45;&gt;dir_a36da230f0956f48b11c85f7d599788f -->
<g id="edge4" class="edge">
<title>dir_758aa030403a70af025108ac41d12d0d&#45;&gt;dir_a36da230f0956f48b11c85f7d599788f</title>
<path fill="none" stroke="#000000" d="M41.1661,-143.7651C42.3853,-125.1098 45.8234,-95.5961 55.5,-72 59.4384,-62.3963 65.3447,-52.8306 71.3341,-44.4776"/>
<polygon fill="#000000" stroke="#000000" points="74.303,-46.3536 77.5268,-36.2611 68.7129,-42.1404 74.303,-46.3536"/>
<g id="a_edge4&#45;headlabel"><a xlink:href="dir_000169_000076.html" target="_top" xlink:title="52">
<text text-anchor="middle" x="74.4069" y="-48.433" font-family="Helvetica,sans-Serif" font-size="10.00" fill="#000000">52</text>
</a>
</g>
</g>
<!-- dir_758aa030403a70af025108ac41d12d0d&#45;&gt;dir_b7a0e33b407baa23d8a077e33033c988 -->
<g id="edge5" class="edge">
<title>dir_758aa030403a70af025108ac41d12d0d&#45;&gt;dir_b7a0e33b407baa23d8a077e33033c988</title>
<path fill="none" stroke="#000000" d="M53.8741,-143.8314C59.9162,-135.6232 67.1763,-125.7606 73.8221,-116.7323"/>
<polygon fill="#000000" stroke="#000000" points="76.8363,-118.5415 79.9458,-108.4133 71.1989,-114.3918 76.8363,-118.5415"/>
<g id="a_edge5&#45;headlabel"><a xlink:href="dir_000169_000217.html" target="_top" xlink:title="41">
<text text-anchor="middle" x="76.9919" y="-120.6195" font-family="Helvetica,sans-Serif" font-size="10.00" fill="#000000">41</text>
</a>
</g>
</g>
<!-- dir_b7a0e33b407baa23d8a077e33033c988&#45;&gt;dir_a36da230f0956f48b11c85f7d599788f -->
<g id="edge6" class="edge">
<title>dir_b7a0e33b407baa23d8a077e33033c988&#45;&gt;dir_a36da230f0956f48b11c85f7d599788f</title>
<path fill="none" stroke="#000000" d="M93.5,-71.8314C93.5,-64.131 93.5,-54.9743 93.5,-46.4166"/>
<polygon fill="#000000" stroke="#000000" points="97.0001,-46.4132 93.5,-36.4133 90.0001,-46.4133 97.0001,-46.4132"/>
<g id="a_edge6&#45;headlabel"><a xlink:href="dir_000217_000076.html" target="_top" xlink:title="555">
<text text-anchor="middle" x="99.8393" y="-47.5079" font-family="Helvetica,sans-Serif" font-size="10.00" fill="#000000">555</text>
</a>
</g>
</g>
</g>
</svg>
