<?xml version="1.0" encoding="UTF-8" standalone="no"?>
<!DOCTYPE svg PUBLIC "-//W3C//DTD SVG 1.1//EN"
 "http://www.w3.org/Graphics/SVG/1.1/DTD/svg11.dtd">
<!-- Generated by graphviz version 2.40.1 (20161225.0304)
 -->
<!-- Title: drake/bindings/pydrake/common Pages: 1 -->
<svg width="188pt" height="159pt"
 viewBox="0.00 0.00 188.00 159.00" xmlns="http://www.w3.org/2000/svg" xmlns:xlink="http://www.w3.org/1999/xlink">
<g id="graph0" class="graph" transform="scale(1 1) rotate(0) translate(4 155)">
<title>drake/bindings/pydrake/common</title>
<polygon fill="#ffffff" stroke="transparent" points="-4,4 -4,-155 184,-155 184,4 -4,4"/>
<g id="clust1" class="cluster">
<title>clusterdir_8816e59dc2bf9c067e8fdc1ddb07dc45</title>
<g id="a_clust1"><a xlink:href="dir_8816e59dc2bf9c067e8fdc1ddb07dc45.html" target="_top" xlink:title="pydrake">
<polygon fill="#ddddee" stroke="#000000" points="8,-56 8,-143 172,-143 172,-56 8,-56"/>
<text text-anchor="middle" x="90" y="-131" font-family="Helvetica,sans-Serif" font-size="10.00" fill="#000000">pydrake</text>
</a>
</g>
</g>
<g id="clust2" class="cluster">
<title>clusterdir_747259117fa90714ed7dadfdb71f4370</title>
<g id="a_clust2"><a xlink:href="dir_747259117fa90714ed7dadfdb71f4370.html" target="_top">
<polygon fill="#eeeeff" stroke="#000000" points="16,-64 16,-116 164,-116 164,-64 16,-64"/>
</a>
</g>
</g>
<!-- dir_747259117fa90714ed7dadfdb71f4370 -->
<g id="node1" class="node">
<title>dir_747259117fa90714ed7dadfdb71f4370</title>
<text text-anchor="middle" x="126" y="-87.5" font-family="Helvetica,sans-Serif" font-size="10.00" fill="#000000">common</text>
</g>
<!-- dir_a36da230f0956f48b11c85f7d599788f -->
<g id="node3" class="node">
<title>dir_a36da230f0956f48b11c85f7d599788f</title>
<g id="a_node3"><a xlink:href="dir_a36da230f0956f48b11c85f7d599788f.html" target="_top" xlink:title="common">
<polygon fill="#ffffff" stroke="#ff0000" points="117.5,-36 58.5,-36 58.5,0 117.5,0 117.5,-36"/>
<text text-anchor="middle" x="88" y="-15.5" font-family="Helvetica,sans-Serif" font-size="10.00" fill="#000000">common</text>
</a>
</g>
</g>
<!-- dir_747259117fa90714ed7dadfdb71f4370&#45;&gt;dir_a36da230f0956f48b11c85f7d599788f -->
<g id="edge1" class="edge">
<title>dir_747259117fa90714ed7dadfdb71f4370&#45;&gt;dir_a36da230f0956f48b11c85f7d599788f</title>
<path fill="none" stroke="#000000" d="M116.411,-71.8314C112.1683,-63.7925 107.0879,-54.1666 102.404,-45.2918"/>
<polygon fill="#000000" stroke="#000000" points="105.4811,-43.6235 97.7181,-36.4133 99.2904,-46.8908 105.4811,-43.6235"/>
<g id="a_edge1&#45;headlabel"><a xlink:href="dir_000082_000078.html" target="_top" xlink:title="21">
<text text-anchor="middle" x="109.6699" y="-42.9772" font-family="Helvetica,sans-Serif" font-size="10.00" fill="#000000">21</text>
</a>
</g>
</g>
<!-- dir_bc025fc95131c05dbefe894a51fdcb9b -->
<g id="node2" class="node">
<title>dir_bc025fc95131c05dbefe894a51fdcb9b</title>
<g id="a_node2"><a xlink:href="dir_bc025fc95131c05dbefe894a51fdcb9b.html" target="_top" xlink:title="test">
<polygon fill="#ffffff" stroke="#ff0000" points="78,-108 24,-108 24,-72 78,-72 78,-108"/>
<text text-anchor="middle" x="51" y="-87.5" font-family="Helvetica,sans-Serif" font-size="10.00" fill="#000000">test</text>
</a>
</g>
</g>
<!-- dir_bc025fc95131c05dbefe894a51fdcb9b&#45;&gt;dir_a36da230f0956f48b11c85f7d599788f -->
<g id="edge2" class="edge">
<title>dir_bc025fc95131c05dbefe894a51fdcb9b&#45;&gt;dir_a36da230f0956f48b11c85f7d599788f</title>
<path fill="none" stroke="#000000" d="M60.3367,-71.8314C64.4243,-63.8771 69.3104,-54.369 73.8309,-45.5723"/>
<polygon fill="#000000" stroke="#000000" points="77.0799,-46.9074 78.5376,-36.4133 70.8539,-43.7078 77.0799,-46.9074"/>
<g id="a_edge2&#45;headlabel"><a xlink:href="dir_000083_000078.html" target="_top" xlink:title="5">
<text text-anchor="middle" x="77.9623" y="-48.9022" font-family="Helvetica,sans-Serif" font-size="10.00" fill="#000000">5</text>
</a>
</g>
</g>
</g>
</svg>
