<?xml version="1.0" encoding="UTF-8" standalone="no"?>
<!DOCTYPE svg PUBLIC "-//W3C//DTD SVG 1.1//EN"
 "http://www.w3.org/Graphics/SVG/1.1/DTD/svg11.dtd">
<!-- Generated by graphviz version 2.40.1 (20161225.0304)
 -->
<!-- Title: drake/multibody/inverse_kinematics Pages: 1 -->
<svg width="280pt" height="375pt"
 viewBox="0.00 0.00 280.41 375.00" xmlns="http://www.w3.org/2000/svg" xmlns:xlink="http://www.w3.org/1999/xlink">
<g id="graph0" class="graph" transform="scale(1 1) rotate(0) translate(4 371)">
<title>drake/multibody/inverse_kinematics</title>
<polygon fill="#ffffff" stroke="transparent" points="-4,4 -4,-371 276.4123,-371 276.4123,4 -4,4"/>
<g id="clust1" class="cluster">
<title>clusterdir_39b8b3c6654246a9c12332c930bc7d3f</title>
<g id="a_clust1"><a xlink:href="dir_39b8b3c6654246a9c12332c930bc7d3f.html" target="_top" xlink:title="multibody">
<polygon fill="#ddddee" stroke="#000000" points="48.4123,-272 48.4123,-359 264.4123,-359 264.4123,-272 48.4123,-272"/>
<text text-anchor="middle" x="156.4123" y="-347" font-family="Helvetica,sans-Serif" font-size="10.00" fill="#000000">multibody</text>
</a>
</g>
</g>
<g id="clust2" class="cluster">
<title>clusterdir_da11cd43e7bab310171e778f62212487</title>
<g id="a_clust2"><a xlink:href="dir_da11cd43e7bab310171e778f62212487.html" target="_top">
<polygon fill="#eeeeff" stroke="#000000" points="56.4123,-280 56.4123,-332 256.4123,-332 256.4123,-280 56.4123,-280"/>
</a>
</g>
</g>
<!-- dir_da11cd43e7bab310171e778f62212487 -->
<g id="node1" class="node">
<title>dir_da11cd43e7bab310171e778f62212487</title>
<text text-anchor="middle" x="192.4123" y="-303.5" font-family="Helvetica,sans-Serif" font-size="10.00" fill="#000000">inverse_kinematics</text>
</g>
<!-- dir_fc0178d6978c9fa2cad6ef3e048a60a7 -->
<g id="node3" class="node">
<title>dir_fc0178d6978c9fa2cad6ef3e048a60a7</title>
<g id="a_node3"><a xlink:href="dir_fc0178d6978c9fa2cad6ef3e048a60a7.html" target="_top" xlink:title="math">
<polygon fill="#ffffff" stroke="#ff0000" points="158.4123,-108 104.4123,-108 104.4123,-72 158.4123,-72 158.4123,-108"/>
<text text-anchor="middle" x="131.4123" y="-87.5" font-family="Helvetica,sans-Serif" font-size="10.00" fill="#000000">math</text>
</a>
</g>
</g>
<!-- dir_da11cd43e7bab310171e778f62212487&#45;&gt;dir_fc0178d6978c9fa2cad6ef3e048a60a7 -->
<g id="edge1" class="edge">
<title>dir_da11cd43e7bab310171e778f62212487&#45;&gt;dir_fc0178d6978c9fa2cad6ef3e048a60a7</title>
<path fill="none" stroke="#000000" d="M223.8684,-287.9802C236.4436,-278.9479 249.5512,-266.7662 256.4123,-252 263.1545,-237.4899 261.0489,-231.3135 256.4123,-216 245.2674,-179.191 235.2844,-171.5137 208.4123,-144 196.3398,-131.6393 181.0912,-120.2706 167.3549,-111.1859"/>
<polygon fill="#000000" stroke="#000000" points="168.9004,-108.0187 158.5953,-105.5583 165.1168,-113.9081 168.9004,-108.0187"/>
<g id="a_edge1&#45;headlabel"><a xlink:href="dir_000015_000095.html" target="_top" xlink:title="8">
<text text-anchor="middle" x="173.4594" y="-105.0729" font-family="Helvetica,sans-Serif" font-size="10.00" fill="#000000">8</text>
</a>
</g>
</g>
<!-- dir_559c8ef22c6aa151f764a7a49835876c -->
<g id="node5" class="node">
<title>dir_559c8ef22c6aa151f764a7a49835876c</title>
<g id="a_node5"><a xlink:href="dir_559c8ef22c6aa151f764a7a49835876c.html" target="_top" xlink:title="multibody_tree">
<polygon fill="#ffffff" stroke="#ff0000" points="176.9123,-180 85.9123,-180 85.9123,-144 176.9123,-144 176.9123,-180"/>
<text text-anchor="middle" x="131.4123" y="-159.5" font-family="Helvetica,sans-Serif" font-size="10.00" fill="#000000">multibody_tree</text>
</a>
</g>
</g>
<!-- dir_da11cd43e7bab310171e778f62212487&#45;&gt;dir_559c8ef22c6aa151f764a7a49835876c -->
<g id="edge2" class="edge">
<title>dir_da11cd43e7bab310171e778f62212487&#45;&gt;dir_559c8ef22c6aa151f764a7a49835876c</title>
<path fill="none" stroke="#000000" d="M184.6866,-287.7623C174.1905,-262.9846 155.3342,-218.4714 143.1014,-189.5939"/>
<polygon fill="#000000" stroke="#000000" points="146.1987,-187.9323 139.0753,-180.0896 139.7531,-190.6628 146.1987,-187.9323"/>
<g id="a_edge2&#45;headlabel"><a xlink:href="dir_000015_000017.html" target="_top" xlink:title="8">
<text text-anchor="middle" x="150.2151" y="-187.6347" font-family="Helvetica,sans-Serif" font-size="10.00" fill="#000000">8</text>
</a>
</g>
</g>
<!-- dir_c86b501450b8b8b59405c286cb030cc3 -->
<g id="node6" class="node">
<title>dir_c86b501450b8b8b59405c286cb030cc3</title>
<g id="a_node6"><a xlink:href="dir_c86b501450b8b8b59405c286cb030cc3.html" target="_top" xlink:title="solvers">
<polygon fill="#ffffff" stroke="#ff0000" points="247.4123,-252 193.4123,-252 193.4123,-216 247.4123,-216 247.4123,-252"/>
<text text-anchor="middle" x="220.4123" y="-231.5" font-family="Helvetica,sans-Serif" font-size="10.00" fill="#000000">solvers</text>
</a>
</g>
</g>
<!-- dir_da11cd43e7bab310171e778f62212487&#45;&gt;dir_c86b501450b8b8b59405c286cb030cc3 -->
<g id="edge3" class="edge">
<title>dir_da11cd43e7bab310171e778f62212487&#45;&gt;dir_c86b501450b8b8b59405c286cb030cc3</title>
<path fill="none" stroke="#000000" d="M199.4779,-287.8314C202.5383,-279.9617 206.1902,-270.5712 209.5805,-261.8533"/>
<polygon fill="#000000" stroke="#000000" points="212.8891,-263.0019 213.2516,-252.4133 206.3651,-260.4647 212.8891,-263.0019"/>
<g id="a_edge3&#45;headlabel"><a xlink:href="dir_000015_000226.html" target="_top" xlink:title="6">
<text text-anchor="middle" x="214.2325" y="-264.8812" font-family="Helvetica,sans-Serif" font-size="10.00" fill="#000000">6</text>
</a>
</g>
</g>
<!-- dir_c998d058a7cc93e310580201e452137a -->
<g id="node2" class="node">
<title>dir_c998d058a7cc93e310580201e452137a</title>
<g id="a_node2"><a xlink:href="dir_c998d058a7cc93e310580201e452137a.html" target="_top" xlink:title="test">
<polygon fill="#ffffff" stroke="#000000" points="118.4123,-324 64.4123,-324 64.4123,-288 118.4123,-288 118.4123,-324"/>
<text text-anchor="middle" x="91.4123" y="-303.5" font-family="Helvetica,sans-Serif" font-size="10.00" fill="#000000">test</text>
</a>
</g>
</g>
<!-- dir_c998d058a7cc93e310580201e452137a&#45;&gt;dir_fc0178d6978c9fa2cad6ef3e048a60a7 -->
<g id="edge14" class="edge">
<title>dir_c998d058a7cc93e310580201e452137a&#45;&gt;dir_fc0178d6978c9fa2cad6ef3e048a60a7</title>
<path fill="none" stroke="#000000" d="M64.1375,-295.456C45.877,-286.7912 23.268,-272.5697 12.4123,-252 4.9445,-237.8497 7.7027,-231.2911 12.4123,-216 26.0129,-171.8418 66.1159,-135.3227 96.0323,-113.1671"/>
<polygon fill="#000000" stroke="#000000" points="98.1019,-115.9899 104.1696,-107.3046 94.0101,-110.3103 98.1019,-115.9899"/>
<g id="a_edge14&#45;headlabel"><a xlink:href="dir_000212_000095.html" target="_top" xlink:title="1">
<text text-anchor="middle" x="96.8451" y="-117.8947" font-family="Helvetica,sans-Serif" font-size="10.00" fill="#000000">1</text>
</a>
</g>
</g>
<!-- dir_5d8dbe7a82c2c188fa06f6391bb290bd -->
<g id="node4" class="node">
<title>dir_5d8dbe7a82c2c188fa06f6391bb290bd</title>
<g id="a_node4"><a xlink:href="dir_5d8dbe7a82c2c188fa06f6391bb290bd.html" target="_top" xlink:title="benchmarks">
<polygon fill="#ffffff" stroke="#ff0000" points="98.9123,-252 21.9123,-252 21.9123,-216 98.9123,-216 98.9123,-252"/>
<text text-anchor="middle" x="60.4123" y="-231.5" font-family="Helvetica,sans-Serif" font-size="10.00" fill="#000000">benchmarks</text>
</a>
</g>
</g>
<!-- dir_c998d058a7cc93e310580201e452137a&#45;&gt;dir_5d8dbe7a82c2c188fa06f6391bb290bd -->
<g id="edge15" class="edge">
<title>dir_c998d058a7cc93e310580201e452137a&#45;&gt;dir_5d8dbe7a82c2c188fa06f6391bb290bd</title>
<path fill="none" stroke="#000000" d="M83.5897,-287.8314C80.2014,-279.9617 76.1582,-270.5712 72.4047,-261.8533"/>
<polygon fill="#000000" stroke="#000000" points="75.5096,-260.214 68.3402,-252.4133 69.0802,-262.9822 75.5096,-260.214"/>
<g id="a_edge15&#45;headlabel"><a xlink:href="dir_000212_000195.html" target="_top" xlink:title="1">
<text text-anchor="middle" x="79.5389" y="-259.8928" font-family="Helvetica,sans-Serif" font-size="10.00" fill="#000000">1</text>
</a>
</g>
</g>
<!-- dir_c998d058a7cc93e310580201e452137a&#45;&gt;dir_559c8ef22c6aa151f764a7a49835876c -->
<g id="edge16" class="edge">
<title>dir_c998d058a7cc93e310580201e452137a&#45;&gt;dir_559c8ef22c6aa151f764a7a49835876c</title>
<path fill="none" stroke="#000000" d="M97.0178,-287.5419C100.1467,-277.1262 104.0748,-263.8594 107.4123,-252 113.2349,-231.3102 119.4809,-207.8437 124.1411,-190.0611"/>
<polygon fill="#000000" stroke="#000000" points="127.5468,-190.8715 126.6865,-180.3117 120.7738,-189.1032 127.5468,-190.8715"/>
<g id="a_edge16&#45;headlabel"><a xlink:href="dir_000212_000017.html" target="_top" xlink:title="2">
<text text-anchor="middle" x="129.386" y="-192.5668" font-family="Helvetica,sans-Serif" font-size="10.00" fill="#000000">2</text>
</a>
</g>
</g>
<!-- dir_c998d058a7cc93e310580201e452137a&#45;&gt;dir_c86b501450b8b8b59405c286cb030cc3 -->
<g id="edge17" class="edge">
<title>dir_c998d058a7cc93e310580201e452137a&#45;&gt;dir_c86b501450b8b8b59405c286cb030cc3</title>
<path fill="none" stroke="#000000" d="M107.8917,-287.9961C113.6778,-282.3687 120.4747,-276.47 127.4123,-272 144.7316,-260.841 165.8687,-251.8893 183.6129,-245.4839"/>
<polygon fill="#000000" stroke="#000000" points="184.7826,-248.7828 193.0759,-242.1895 182.4811,-242.172 184.7826,-248.7828"/>
<g id="a_edge17&#45;headlabel"><a xlink:href="dir_000212_000226.html" target="_top" xlink:title="1">
<text text-anchor="middle" x="182.3213" y="-250.146" font-family="Helvetica,sans-Serif" font-size="10.00" fill="#000000">1</text>
</a>
</g>
</g>
<!-- dir_a36da230f0956f48b11c85f7d599788f -->
<g id="node7" class="node">
<title>dir_a36da230f0956f48b11c85f7d599788f</title>
<g id="a_node7"><a xlink:href="dir_a36da230f0956f48b11c85f7d599788f.html" target="_top" xlink:title="common">
<polygon fill="#ffffff" stroke="#ff0000" points="132.9123,-36 73.9123,-36 73.9123,0 132.9123,0 132.9123,-36"/>
<text text-anchor="middle" x="103.4123" y="-15.5" font-family="Helvetica,sans-Serif" font-size="10.00" fill="#000000">common</text>
</a>
</g>
</g>
<!-- dir_c998d058a7cc93e310580201e452137a&#45;&gt;dir_a36da230f0956f48b11c85f7d599788f -->
<g id="edge18" class="edge">
<title>dir_c998d058a7cc93e310580201e452137a&#45;&gt;dir_a36da230f0956f48b11c85f7d599788f</title>
<path fill="none" stroke="#000000" d="M64.0162,-297.2209C43.5525,-289.0557 17.0295,-274.6814 4.4123,-252 -3.3657,-238.0178 1.1821,-231.6705 4.4123,-216 18.4798,-147.7547 32.7835,-133.028 66.4123,-72 71.46,-62.8397 77.6602,-53.2868 83.532,-44.8073"/>
<polygon fill="#000000" stroke="#000000" points="86.5478,-46.6048 89.47,-36.4209 80.8348,-42.5597 86.5478,-46.6048"/>
<g id="a_edge18&#45;headlabel"><a xlink:href="dir_000212_000078.html" target="_top" xlink:title="3">
<text text-anchor="middle" x="86.7878" y="-48.6792" font-family="Helvetica,sans-Serif" font-size="10.00" fill="#000000">3</text>
</a>
</g>
</g>
<!-- dir_fc0178d6978c9fa2cad6ef3e048a60a7&#45;&gt;dir_a36da230f0956f48b11c85f7d599788f -->
<g id="edge4" class="edge">
<title>dir_fc0178d6978c9fa2cad6ef3e048a60a7&#45;&gt;dir_a36da230f0956f48b11c85f7d599788f</title>
<path fill="none" stroke="#000000" d="M118.3943,-71.8314C114.6082,-64.0463 110.7844,-54.7729 107.7489,-46.1347"/>
<polygon fill="#000000" stroke="#000000" points="111.0106,-44.8463 104.597,-36.4133 104.3518,-47.0053 111.0106,-44.8463"/>
<g id="a_edge4&#45;headlabel"><a xlink:href="dir_000095_000078.html" target="_top" xlink:title="87">
<text text-anchor="middle" x="114.82" y="-44.8901" font-family="Helvetica,sans-Serif" font-size="10.00" fill="#000000">87</text>
</a>
</g>
</g>
<!-- dir_5d8dbe7a82c2c188fa06f6391bb290bd&#45;&gt;dir_fc0178d6978c9fa2cad6ef3e048a60a7 -->
<g id="edge5" class="edge">
<title>dir_5d8dbe7a82c2c188fa06f6391bb290bd&#45;&gt;dir_fc0178d6978c9fa2cad6ef3e048a60a7</title>
<path fill="none" stroke="#000000" d="M60.4494,-215.7064C61.1986,-196.7414 64.4206,-166.7414 76.4123,-144 82.0605,-133.2887 90.5879,-123.4025 99.2533,-115.0966"/>
<polygon fill="#000000" stroke="#000000" points="101.7771,-117.5328 106.835,-108.2232 97.0755,-112.3468 101.7771,-117.5328"/>
<g id="a_edge5&#45;headlabel"><a xlink:href="dir_000195_000095.html" target="_top" xlink:title="11">
<text text-anchor="middle" x="101.021" y="-119.5507" font-family="Helvetica,sans-Serif" font-size="10.00" fill="#000000">11</text>
</a>
</g>
</g>
<!-- dir_5d8dbe7a82c2c188fa06f6391bb290bd&#45;&gt;dir_559c8ef22c6aa151f764a7a49835876c -->
<g id="edge6" class="edge">
<title>dir_5d8dbe7a82c2c188fa06f6391bb290bd&#45;&gt;dir_559c8ef22c6aa151f764a7a49835876c</title>
<path fill="none" stroke="#000000" d="M72.3762,-215.8314C80.1054,-207.1337 90.3422,-196.5783 100.1662,-187.1265"/>
<polygon fill="#000000" stroke="#000000" points="102.6764,-189.5702 107.5499,-180.1628 97.8735,-184.4778 102.6764,-189.5702"/>
<g id="a_edge6&#45;headlabel"><a xlink:href="dir_000195_000017.html" target="_top" xlink:title="27">
<text text-anchor="middle" x="102.0094" y="-191.6021" font-family="Helvetica,sans-Serif" font-size="10.00" fill="#000000">27</text>
</a>
</g>
</g>
<!-- dir_5d8dbe7a82c2c188fa06f6391bb290bd&#45;&gt;dir_a36da230f0956f48b11c85f7d599788f -->
<g id="edge7" class="edge">
<title>dir_5d8dbe7a82c2c188fa06f6391bb290bd&#45;&gt;dir_a36da230f0956f48b11c85f7d599788f</title>
<path fill="none" stroke="#000000" d="M58.9814,-215.9252C57.9153,-197.6483 57.2705,-168.6561 61.4123,-144 67.2801,-109.0697 81.2279,-70.6928 91.4465,-45.5819"/>
<polygon fill="#000000" stroke="#000000" points="94.6889,-46.9001 95.2911,-36.3223 88.224,-44.2158 94.6889,-46.9001"/>
<g id="a_edge7&#45;headlabel"><a xlink:href="dir_000195_000078.html" target="_top" xlink:title="26">
<text text-anchor="middle" x="95.9328" y="-48.8086" font-family="Helvetica,sans-Serif" font-size="10.00" fill="#000000">26</text>
</a>
</g>
</g>
<!-- dir_559c8ef22c6aa151f764a7a49835876c&#45;&gt;dir_fc0178d6978c9fa2cad6ef3e048a60a7 -->
<g id="edge8" class="edge">
<title>dir_559c8ef22c6aa151f764a7a49835876c&#45;&gt;dir_fc0178d6978c9fa2cad6ef3e048a60a7</title>
<path fill="none" stroke="#000000" d="M131.4123,-143.8314C131.4123,-136.131 131.4123,-126.9743 131.4123,-118.4166"/>
<polygon fill="#000000" stroke="#000000" points="134.9124,-118.4132 131.4123,-108.4133 127.9124,-118.4133 134.9124,-118.4132"/>
<g id="a_edge8&#45;headlabel"><a xlink:href="dir_000017_000095.html" target="_top" xlink:title="50">
<text text-anchor="middle" x="137.7516" y="-119.5079" font-family="Helvetica,sans-Serif" font-size="10.00" fill="#000000">50</text>
</a>
</g>
</g>
<!-- dir_559c8ef22c6aa151f764a7a49835876c&#45;&gt;dir_5d8dbe7a82c2c188fa06f6391bb290bd -->
<g id="edge9" class="edge">
<title>dir_559c8ef22c6aa151f764a7a49835876c&#45;&gt;dir_5d8dbe7a82c2c188fa06f6391bb290bd</title>
<path fill="none" stroke="#000000" d="M119.2308,-180.4133C111.5143,-189.0787 101.3553,-199.5464 91.6076,-208.9223"/>
<polygon fill="#000000" stroke="#000000" points="89.1551,-206.4242 84.281,-215.8314 93.9576,-211.517 89.1551,-206.4242"/>
<g id="a_edge9&#45;headlabel"><a xlink:href="dir_000017_000195.html" target="_top" xlink:title="11">
<text text-anchor="middle" x="89.8224" y="-199.3925" font-family="Helvetica,sans-Serif" font-size="10.00" fill="#000000">11</text>
</a>
</g>
</g>
<!-- dir_559c8ef22c6aa151f764a7a49835876c&#45;&gt;dir_a36da230f0956f48b11c85f7d599788f -->
<g id="edge10" class="edge">
<title>dir_559c8ef22c6aa151f764a7a49835876c&#45;&gt;dir_a36da230f0956f48b11c85f7d599788f</title>
<path fill="none" stroke="#000000" d="M115.4218,-143.9169C107.7585,-134.0371 99.3957,-121.1563 95.4123,-108 89.3324,-87.9194 91.7892,-64.2546 95.5222,-46.2321"/>
<polygon fill="#000000" stroke="#000000" points="98.966,-46.8743 97.8127,-36.3424 92.1466,-45.2948 98.966,-46.8743"/>
<g id="a_edge10&#45;headlabel"><a xlink:href="dir_000017_000078.html" target="_top" xlink:title="221">
<text text-anchor="middle" x="100.9211" y="-48.5168" font-family="Helvetica,sans-Serif" font-size="10.00" fill="#000000">221</text>
</a>
</g>
</g>
<!-- dir_c86b501450b8b8b59405c286cb030cc3&#45;&gt;dir_fc0178d6978c9fa2cad6ef3e048a60a7 -->
<g id="edge11" class="edge">
<title>dir_c86b501450b8b8b59405c286cb030cc3&#45;&gt;dir_fc0178d6978c9fa2cad6ef3e048a60a7</title>
<path fill="none" stroke="#000000" d="M216.005,-215.6754C210.8824,-196.6851 201.1932,-166.6647 186.4123,-144 179.5594,-133.4919 170.3496,-123.4382 161.4283,-114.9153"/>
<polygon fill="#000000" stroke="#000000" points="163.7902,-112.3324 154.0602,-108.1398 159.052,-117.485 163.7902,-112.3324"/>
<g id="a_edge11&#45;headlabel"><a xlink:href="dir_000226_000095.html" target="_top" xlink:title="34">
<text text-anchor="middle" x="168.358" y="-110.1756" font-family="Helvetica,sans-Serif" font-size="10.00" fill="#000000">34</text>
</a>
</g>
</g>
<!-- dir_c86b501450b8b8b59405c286cb030cc3&#45;&gt;dir_a36da230f0956f48b11c85f7d599788f -->
<g id="edge12" class="edge">
<title>dir_c86b501450b8b8b59405c286cb030cc3&#45;&gt;dir_a36da230f0956f48b11c85f7d599788f</title>
<path fill="none" stroke="#000000" d="M220.0301,-215.9524C219.1748,-197.4463 216.5184,-168.0495 208.4123,-144 196.6504,-109.1043 190.9602,-100.3116 167.4123,-72 158.5227,-61.312 147.3444,-51.0741 136.8276,-42.4414"/>
<polygon fill="#000000" stroke="#000000" points="138.9644,-39.6687 128.9632,-36.1719 134.6008,-45.1423 138.9644,-39.6687"/>
<g id="a_edge12&#45;headlabel"><a xlink:href="dir_000226_000078.html" target="_top" xlink:title="197">
<text text-anchor="middle" x="143.545" y="-37.1893" font-family="Helvetica,sans-Serif" font-size="10.00" fill="#000000">197</text>
</a>
</g>
</g>
<!-- dir_a36da230f0956f48b11c85f7d599788f&#45;&gt;dir_fc0178d6978c9fa2cad6ef3e048a60a7 -->
<g id="edge13" class="edge">
<title>dir_a36da230f0956f48b11c85f7d599788f&#45;&gt;dir_fc0178d6978c9fa2cad6ef3e048a60a7</title>
<path fill="none" stroke="#000000" d="M116.549,-36.4133C120.3359,-44.2292 124.1517,-53.5113 127.1707,-62.136"/>
<polygon fill="#000000" stroke="#000000" points="123.8973,-63.3893 130.2991,-71.8314 130.5591,-61.2397 123.8973,-63.3893"/>
<g id="a_edge13&#45;headlabel"><a xlink:href="dir_000078_000095.html" target="_top" xlink:title="4">
<text text-anchor="middle" x="120.0915" y="-58.3403" font-family="Helvetica,sans-Serif" font-size="10.00" fill="#000000">4</text>
</a>
</g>
</g>
</g>
</svg>
