<?xml version="1.0" encoding="UTF-8" standalone="no"?>
<!DOCTYPE svg PUBLIC "-//W3C//DTD SVG 1.1//EN"
 "http://www.w3.org/Graphics/SVG/1.1/DTD/svg11.dtd">
<!-- Generated by graphviz version 2.40.1 (20161225.0304)
 -->
<!-- Title: drake/automotive/maliput/api/test Pages: 1 -->
<svg width="157pt" height="295pt"
 viewBox="0.00 0.00 156.50 295.00" xmlns="http://www.w3.org/2000/svg" xmlns:xlink="http://www.w3.org/1999/xlink">
<g id="graph0" class="graph" transform="scale(1 1) rotate(0) translate(4 291)">
<title>drake/automotive/maliput/api/test</title>
<polygon fill="#ffffff" stroke="transparent" points="-4,4 -4,-291 152.5,-291 152.5,4 -4,4"/>
<g id="clust1" class="cluster">
<title>clusterdir_290e30af7c6be28b7d4b4743ddbbaf94</title>
<g id="a_clust1"><a xlink:href="dir_290e30af7c6be28b7d4b4743ddbbaf94.html" target="_top" xlink:title="api">
<polygon fill="#ddddee" stroke="#000000" points="8,-208 8,-279 78,-279 78,-208 8,-208"/>
<text text-anchor="middle" x="43" y="-267" font-family="Helvetica,sans-Serif" font-size="10.00" fill="#000000">api</text>
</a>
</g>
</g>
<!-- dir_0f7cadbb61d7950ba348e72a2c37d640 -->
<g id="node1" class="node">
<title>dir_0f7cadbb61d7950ba348e72a2c37d640</title>
<g id="a_node1"><a xlink:href="dir_0f7cadbb61d7950ba348e72a2c37d640.html" target="_top" xlink:title="test">
<polygon fill="#eeeeff" stroke="#000000" points="70,-252 16,-252 16,-216 70,-216 70,-252"/>
<text text-anchor="middle" x="43" y="-231.5" font-family="Helvetica,sans-Serif" font-size="10.00" fill="#000000">test</text>
</a>
</g>
</g>
<!-- dir_6892ff053b236a6124ca401466209a56 -->
<g id="node2" class="node">
<title>dir_6892ff053b236a6124ca401466209a56</title>
<g id="a_node2"><a xlink:href="dir_6892ff053b236a6124ca401466209a56.html" target="_top" xlink:title="rules">
<polygon fill="none" stroke="#000000" points="85,-108 31,-108 31,-72 85,-72 85,-108"/>
<text text-anchor="middle" x="58" y="-87.5" font-family="Helvetica,sans-Serif" font-size="10.00" fill="#000000">rules</text>
</a>
</g>
</g>
<!-- dir_0f7cadbb61d7950ba348e72a2c37d640&#45;&gt;dir_6892ff053b236a6124ca401466209a56 -->
<g id="edge2" class="edge">
<title>dir_0f7cadbb61d7950ba348e72a2c37d640&#45;&gt;dir_6892ff053b236a6124ca401466209a56</title>
<path fill="none" stroke="#000000" d="M44.8998,-215.7623C47.4582,-191.201 52.0367,-147.2474 55.0465,-118.3541"/>
<polygon fill="#000000" stroke="#000000" points="58.5607,-118.3985 56.1157,-108.0896 51.5984,-117.6731 58.5607,-118.3985"/>
<g id="a_edge2&#45;headlabel"><a xlink:href="dir_000058_000057.html" target="_top" xlink:title="9">
<text text-anchor="middle" x="61.0123" y="-119.7679" font-family="Helvetica,sans-Serif" font-size="10.00" fill="#000000">9</text>
</a>
</g>
</g>
<!-- dir_a36da230f0956f48b11c85f7d599788f -->
<g id="node3" class="node">
<title>dir_a36da230f0956f48b11c85f7d599788f</title>
<g id="a_node3"><a xlink:href="dir_a36da230f0956f48b11c85f7d599788f.html" target="_top" xlink:title="common">
<polygon fill="#ffffff" stroke="#ff0000" points="87.5,-36 28.5,-36 28.5,0 87.5,0 87.5,-36"/>
<text text-anchor="middle" x="58" y="-15.5" font-family="Helvetica,sans-Serif" font-size="10.00" fill="#000000">common</text>
</a>
</g>
</g>
<!-- dir_0f7cadbb61d7950ba348e72a2c37d640&#45;&gt;dir_a36da230f0956f48b11c85f7d599788f -->
<g id="edge3" class="edge">
<title>dir_0f7cadbb61d7950ba348e72a2c37d640&#45;&gt;dir_a36da230f0956f48b11c85f7d599788f</title>
<path fill="none" stroke="#000000" d="M35.7195,-215.6111C24.7261,-185.1286 6.7138,-122.4868 22,-72 24.9564,-62.2355 30.3252,-52.6229 36.03,-44.2762"/>
<polygon fill="#000000" stroke="#000000" points="38.9414,-46.2239 42.0095,-36.0831 33.2871,-42.0973 38.9414,-46.2239"/>
<g id="a_edge3&#45;headlabel"><a xlink:href="dir_000058_000076.html" target="_top" xlink:title="4">
<text text-anchor="middle" x="39.1158" y="-48.3013" font-family="Helvetica,sans-Serif" font-size="10.00" fill="#000000">4</text>
</a>
</g>
</g>
<!-- dir_de04752c3b549bcfd093367dd8e535ce -->
<g id="node4" class="node">
<title>dir_de04752c3b549bcfd093367dd8e535ce</title>
<g id="a_node4"><a xlink:href="dir_de04752c3b549bcfd093367dd8e535ce.html" target="_top" xlink:title="test_utilities">
<polygon fill="none" stroke="#000000" points="148.5,-180 71.5,-180 71.5,-144 148.5,-144 148.5,-180"/>
<text text-anchor="middle" x="110" y="-159.5" font-family="Helvetica,sans-Serif" font-size="10.00" fill="#000000">test_utilities</text>
</a>
</g>
</g>
<!-- dir_0f7cadbb61d7950ba348e72a2c37d640&#45;&gt;dir_de04752c3b549bcfd093367dd8e535ce -->
<g id="edge4" class="edge">
<title>dir_0f7cadbb61d7950ba348e72a2c37d640&#45;&gt;dir_de04752c3b549bcfd093367dd8e535ce</title>
<path fill="none" stroke="#000000" d="M59.9069,-215.8314C67.7813,-207.3694 77.292,-197.1489 85.9013,-187.8971"/>
<polygon fill="#000000" stroke="#000000" points="88.6153,-190.1183 92.8654,-180.4133 83.4908,-185.3497 88.6153,-190.1183"/>
<g id="a_edge4&#45;headlabel"><a xlink:href="dir_000058_000059.html" target="_top" xlink:title="5">
<text text-anchor="middle" x="88.2451" y="-192.184" font-family="Helvetica,sans-Serif" font-size="10.00" fill="#000000">5</text>
</a>
</g>
</g>
<!-- dir_6892ff053b236a6124ca401466209a56&#45;&gt;dir_a36da230f0956f48b11c85f7d599788f -->
<g id="edge1" class="edge">
<title>dir_6892ff053b236a6124ca401466209a56&#45;&gt;dir_a36da230f0956f48b11c85f7d599788f</title>
<path fill="none" stroke="#000000" d="M58,-71.8314C58,-64.131 58,-54.9743 58,-46.4166"/>
<polygon fill="#000000" stroke="#000000" points="61.5001,-46.4132 58,-36.4133 54.5001,-46.4133 61.5001,-46.4132"/>
<g id="a_edge1&#45;headlabel"><a xlink:href="dir_000057_000076.html" target="_top" xlink:title="13">
<text text-anchor="middle" x="64.3393" y="-47.5079" font-family="Helvetica,sans-Serif" font-size="10.00" fill="#000000">13</text>
</a>
</g>
</g>
<!-- dir_de04752c3b549bcfd093367dd8e535ce&#45;&gt;dir_6892ff053b236a6124ca401466209a56 -->
<g id="edge5" class="edge">
<title>dir_de04752c3b549bcfd093367dd8e535ce&#45;&gt;dir_6892ff053b236a6124ca401466209a56</title>
<path fill="none" stroke="#000000" d="M96.8782,-143.8314C90.9501,-135.6232 83.8271,-125.7606 77.3067,-116.7323"/>
<polygon fill="#000000" stroke="#000000" points="79.9908,-114.4708 71.2985,-108.4133 74.316,-118.5693 79.9908,-114.4708"/>
<g id="a_edge5&#45;headlabel"><a xlink:href="dir_000059_000057.html" target="_top" xlink:title="3">
<text text-anchor="middle" x="84.3971" y="-113.2226" font-family="Helvetica,sans-Serif" font-size="10.00" fill="#000000">3</text>
</a>
</g>
</g>
<!-- dir_de04752c3b549bcfd093367dd8e535ce&#45;&gt;dir_a36da230f0956f48b11c85f7d599788f -->
<g id="edge6" class="edge">
<title>dir_de04752c3b549bcfd093367dd8e535ce&#45;&gt;dir_a36da230f0956f48b11c85f7d599788f</title>
<path fill="none" stroke="#000000" d="M108.9599,-143.8118C107.397,-125.1938 103.524,-95.7093 94,-72 90.1971,-62.533 84.5807,-53.0074 78.9093,-44.649"/>
<polygon fill="#000000" stroke="#000000" points="81.7003,-42.5343 73.0531,-36.4125 75.9954,-46.5906 81.7003,-42.5343"/>
<g id="a_edge6&#45;headlabel"><a xlink:href="dir_000059_000076.html" target="_top" xlink:title="3">
<text text-anchor="middle" x="86.0972" y="-41.3186" font-family="Helvetica,sans-Serif" font-size="10.00" fill="#000000">3</text>
</a>
</g>
</g>
</g>
</svg>
