<?xml version="1.0" encoding="UTF-8" standalone="no"?>
<!DOCTYPE svg PUBLIC "-//W3C//DTD SVG 1.1//EN"
 "http://www.w3.org/Graphics/SVG/1.1/DTD/svg11.dtd">
<!-- Generated by graphviz version 2.40.1 (20161225.0304)
 -->
<!-- Title: drake/automotive/maliput/simplerulebook Pages: 1 -->
<svg width="220pt" height="231pt"
 viewBox="0.00 0.00 220.00 231.00" xmlns="http://www.w3.org/2000/svg" xmlns:xlink="http://www.w3.org/1999/xlink">
<g id="graph0" class="graph" transform="scale(1 1) rotate(0) translate(4 227)">
<title>drake/automotive/maliput/simplerulebook</title>
<polygon fill="#ffffff" stroke="transparent" points="-4,4 -4,-227 216,-227 216,4 -4,4"/>
<g id="clust1" class="cluster">
<title>clusterdir_4d30b6eba57ad73dabd3ccac6b6f05d2</title>
<g id="a_clust1"><a xlink:href="dir_4d30b6eba57ad73dabd3ccac6b6f05d2.html" target="_top" xlink:title="maliput">
<polygon fill="#ddddee" stroke="#000000" points="8,-128 8,-215 204,-215 204,-128 8,-128"/>
<text text-anchor="middle" x="106" y="-203" font-family="Helvetica,sans-Serif" font-size="10.00" fill="#000000">maliput</text>
</a>
</g>
</g>
<g id="clust2" class="cluster">
<title>clusterdir_69d4ed86cd902e7a86160e64a4555459</title>
<g id="a_clust2"><a xlink:href="dir_69d4ed86cd902e7a86160e64a4555459.html" target="_top">
<polygon fill="#eeeeff" stroke="#000000" points="16,-136 16,-188 196,-188 196,-136 16,-136"/>
</a>
</g>
</g>
<!-- dir_69d4ed86cd902e7a86160e64a4555459 -->
<g id="node1" class="node">
<title>dir_69d4ed86cd902e7a86160e64a4555459</title>
<text text-anchor="middle" x="70" y="-159.5" font-family="Helvetica,sans-Serif" font-size="10.00" fill="#000000">simplerulebook</text>
</g>
<!-- dir_290e30af7c6be28b7d4b4743ddbbaf94 -->
<g id="node3" class="node">
<title>dir_290e30af7c6be28b7d4b4743ddbbaf94</title>
<g id="a_node3"><a xlink:href="dir_290e30af7c6be28b7d4b4743ddbbaf94.html" target="_top" xlink:title="api">
<polygon fill="#ffffff" stroke="#ff0000" points="142,-108 88,-108 88,-72 142,-72 142,-108"/>
<text text-anchor="middle" x="115" y="-87.5" font-family="Helvetica,sans-Serif" font-size="10.00" fill="#000000">api</text>
</a>
</g>
</g>
<!-- dir_69d4ed86cd902e7a86160e64a4555459&#45;&gt;dir_290e30af7c6be28b7d4b4743ddbbaf94 -->
<g id="edge3" class="edge">
<title>dir_69d4ed86cd902e7a86160e64a4555459&#45;&gt;dir_290e30af7c6be28b7d4b4743ddbbaf94</title>
<path fill="none" stroke="#000000" d="M81.3554,-143.8314C86.4326,-135.7079 92.5227,-125.9637 98.1176,-117.0118"/>
<polygon fill="#000000" stroke="#000000" points="101.1597,-118.7483 103.4917,-108.4133 95.2237,-115.0383 101.1597,-118.7483"/>
<g id="a_edge3&#45;headlabel"><a xlink:href="dir_000073_000054.html" target="_top" xlink:title="21">
<text text-anchor="middle" x="101.6623" y="-120.8013" font-family="Helvetica,sans-Serif" font-size="10.00" fill="#000000">21</text>
</a>
</g>
</g>
<!-- dir_a36da230f0956f48b11c85f7d599788f -->
<g id="node4" class="node">
<title>dir_a36da230f0956f48b11c85f7d599788f</title>
<g id="a_node4"><a xlink:href="dir_a36da230f0956f48b11c85f7d599788f.html" target="_top" xlink:title="common">
<polygon fill="#ffffff" stroke="#ff0000" points="144.5,-36 85.5,-36 85.5,0 144.5,0 144.5,-36"/>
<text text-anchor="middle" x="115" y="-15.5" font-family="Helvetica,sans-Serif" font-size="10.00" fill="#000000">common</text>
</a>
</g>
</g>
<!-- dir_69d4ed86cd902e7a86160e64a4555459&#45;&gt;dir_a36da230f0956f48b11c85f7d599788f -->
<g id="edge4" class="edge">
<title>dir_69d4ed86cd902e7a86160e64a4555459&#45;&gt;dir_a36da230f0956f48b11c85f7d599788f</title>
<path fill="none" stroke="#000000" d="M69.2774,-143.8501C69.115,-125.2626 70.4775,-95.8019 79,-72 82.4392,-62.3949 87.9492,-52.8289 93.6349,-44.4759"/>
<polygon fill="#000000" stroke="#000000" points="96.5467,-46.4216 99.5441,-36.2596 90.8638,-42.3344 96.5467,-46.4216"/>
<g id="a_edge4&#45;headlabel"><a xlink:href="dir_000073_000078.html" target="_top" xlink:title="7">
<text text-anchor="middle" x="96.753" y="-48.4976" font-family="Helvetica,sans-Serif" font-size="10.00" fill="#000000">7</text>
</a>
</g>
</g>
<!-- dir_1abfcf164c1d84c8c7d90dc6c8584177 -->
<g id="node2" class="node">
<title>dir_1abfcf164c1d84c8c7d90dc6c8584177</title>
<g id="a_node2"><a xlink:href="dir_1abfcf164c1d84c8c7d90dc6c8584177.html" target="_top" xlink:title="test">
<polygon fill="#ffffff" stroke="#000000" points="188,-180 134,-180 134,-144 188,-144 188,-180"/>
<text text-anchor="middle" x="161" y="-159.5" font-family="Helvetica,sans-Serif" font-size="10.00" fill="#000000">test</text>
</a>
</g>
</g>
<!-- dir_1abfcf164c1d84c8c7d90dc6c8584177&#45;&gt;dir_290e30af7c6be28b7d4b4743ddbbaf94 -->
<g id="edge1" class="edge">
<title>dir_1abfcf164c1d84c8c7d90dc6c8584177&#45;&gt;dir_290e30af7c6be28b7d4b4743ddbbaf94</title>
<path fill="none" stroke="#000000" d="M149.3923,-143.8314C144.2022,-135.7079 137.9768,-125.9637 132.2575,-117.0118"/>
<polygon fill="#000000" stroke="#000000" points="135.0974,-114.9559 126.764,-108.4133 129.1985,-118.7246 135.0974,-114.9559"/>
<g id="a_edge1&#45;headlabel"><a xlink:href="dir_000074_000054.html" target="_top" xlink:title="13">
<text text-anchor="middle" x="139.4253" y="-113.9564" font-family="Helvetica,sans-Serif" font-size="10.00" fill="#000000">13</text>
</a>
</g>
</g>
<!-- dir_1abfcf164c1d84c8c7d90dc6c8584177&#45;&gt;dir_a36da230f0956f48b11c85f7d599788f -->
<g id="edge2" class="edge">
<title>dir_1abfcf164c1d84c8c7d90dc6c8584177&#45;&gt;dir_a36da230f0956f48b11c85f7d599788f</title>
<path fill="none" stroke="#000000" d="M161.4698,-143.842C161.3849,-125.248 159.6632,-95.7823 151,-72 147.5081,-62.414 141.9827,-52.8535 136.299,-44.4998"/>
<polygon fill="#000000" stroke="#000000" points="139.073,-42.3622 130.3975,-36.2807 133.387,-46.445 139.073,-42.3622"/>
<g id="a_edge2&#45;headlabel"><a xlink:href="dir_000074_000078.html" target="_top" xlink:title="2">
<text text-anchor="middle" x="143.4759" y="-41.1261" font-family="Helvetica,sans-Serif" font-size="10.00" fill="#000000">2</text>
</a>
</g>
</g>
<!-- dir_290e30af7c6be28b7d4b4743ddbbaf94&#45;&gt;dir_a36da230f0956f48b11c85f7d599788f -->
<g id="edge5" class="edge">
<title>dir_290e30af7c6be28b7d4b4743ddbbaf94&#45;&gt;dir_a36da230f0956f48b11c85f7d599788f</title>
<path fill="none" stroke="#000000" d="M115,-71.8314C115,-64.131 115,-54.9743 115,-46.4166"/>
<polygon fill="#000000" stroke="#000000" points="118.5001,-46.4132 115,-36.4133 111.5001,-46.4133 118.5001,-46.4132"/>
<g id="a_edge5&#45;headlabel"><a xlink:href="dir_000054_000078.html" target="_top" xlink:title="42">
<text text-anchor="middle" x="121.3393" y="-47.5079" font-family="Helvetica,sans-Serif" font-size="10.00" fill="#000000">42</text>
</a>
</g>
</g>
</g>
</svg>
