<?xml version="1.0" encoding="UTF-8" standalone="no"?>
<!DOCTYPE svg PUBLIC "-//W3C//DTD SVG 1.1//EN"
 "http://www.w3.org/Graphics/SVG/1.1/DTD/svg11.dtd">
<!-- Generated by graphviz version 2.40.1 (20161225.0304)
 -->
<!-- Title: drake/examples/van_der_pol/test Pages: 1 -->
<svg width="100pt" height="151pt"
 viewBox="0.00 0.00 100.00 151.00" xmlns="http://www.w3.org/2000/svg" xmlns:xlink="http://www.w3.org/1999/xlink">
<g id="graph0" class="graph" transform="scale(1 1) rotate(0) translate(4 147)">
<title>drake/examples/van_der_pol/test</title>
<polygon fill="#ffffff" stroke="transparent" points="-4,4 -4,-147 96,-147 96,4 -4,4"/>
<g id="clust1" class="cluster">
<title>clusterdir_8f847be5c0c53e92edc6178d5e17891e</title>
<g id="a_clust1"><a xlink:href="dir_8f847be5c0c53e92edc6178d5e17891e.html" target="_top" xlink:title="van_der_pol">
<polygon fill="#ddddee" stroke="#000000" points="8,-64 8,-135 84,-135 84,-64 8,-64"/>
<text text-anchor="middle" x="46" y="-123" font-family="Helvetica,sans-Serif" font-size="10.00" fill="#000000">van_der_pol</text>
</a>
</g>
</g>
<!-- dir_9609a09dd335f01fff90ba0423688138 -->
<g id="node1" class="node">
<title>dir_9609a09dd335f01fff90ba0423688138</title>
<g id="a_node1"><a xlink:href="dir_9609a09dd335f01fff90ba0423688138.html" target="_top" xlink:title="test">
<polygon fill="#eeeeff" stroke="#000000" points="73,-108 19,-108 19,-72 73,-72 73,-108"/>
<text text-anchor="middle" x="46" y="-87.5" font-family="Helvetica,sans-Serif" font-size="10.00" fill="#000000">test</text>
</a>
</g>
</g>
<!-- dir_b7a0e33b407baa23d8a077e33033c988 -->
<g id="node2" class="node">
<title>dir_b7a0e33b407baa23d8a077e33033c988</title>
<g id="a_node2"><a xlink:href="dir_b7a0e33b407baa23d8a077e33033c988.html" target="_top" xlink:title="systems">
<polygon fill="#ffffff" stroke="#ff0000" points="75,-36 17,-36 17,0 75,0 75,-36"/>
<text text-anchor="middle" x="46" y="-15.5" font-family="Helvetica,sans-Serif" font-size="10.00" fill="#000000">systems</text>
</a>
</g>
</g>
<!-- dir_9609a09dd335f01fff90ba0423688138&#45;&gt;dir_b7a0e33b407baa23d8a077e33033c988 -->
<g id="edge1" class="edge">
<title>dir_9609a09dd335f01fff90ba0423688138&#45;&gt;dir_b7a0e33b407baa23d8a077e33033c988</title>
<path fill="none" stroke="#000000" d="M46,-71.8314C46,-64.131 46,-54.9743 46,-46.4166"/>
<polygon fill="#000000" stroke="#000000" points="49.5001,-46.4132 46,-36.4133 42.5001,-46.4133 49.5001,-46.4132"/>
<g id="a_edge1&#45;headlabel"><a xlink:href="dir_000164_000218.html" target="_top" xlink:title="1">
<text text-anchor="middle" x="52.3393" y="-47.5079" font-family="Helvetica,sans-Serif" font-size="10.00" fill="#000000">1</text>
</a>
</g>
</g>
</g>
</svg>
