<?xml version="1.0" encoding="UTF-8" standalone="no"?>
<!DOCTYPE svg PUBLIC "-//W3C//DTD SVG 1.1//EN"
 "http://www.w3.org/Graphics/SVG/1.1/DTD/svg11.dtd">
<!-- Generated by graphviz version 2.40.1 (20161225.0304)
 -->
<!-- Title: drake/attic/systems/sensors Pages: 1 -->
<svg width="194pt" height="303pt"
 viewBox="0.00 0.00 194.21 303.00" xmlns="http://www.w3.org/2000/svg" xmlns:xlink="http://www.w3.org/1999/xlink">
<g id="graph0" class="graph" transform="scale(1 1) rotate(0) translate(4 299)">
<title>drake/attic/systems/sensors</title>
<polygon fill="#ffffff" stroke="transparent" points="-4,4 -4,-299 190.2107,-299 190.2107,4 -4,4"/>
<g id="clust1" class="cluster">
<title>clusterdir_bcfe1842cfe9bcfc41bdfe8a2fba9642</title>
<g id="a_clust1"><a xlink:href="dir_bcfe1842cfe9bcfc41bdfe8a2fba9642.html" target="_top" xlink:title="systems">
<polygon fill="#ddddee" stroke="#000000" points="8,-200 8,-287 166,-287 166,-200 8,-200"/>
<text text-anchor="middle" x="87" y="-275" font-family="Helvetica,sans-Serif" font-size="10.00" fill="#000000">systems</text>
</a>
</g>
</g>
<g id="clust2" class="cluster">
<title>clusterdir_8e713d172419bd52c3cd47cf4cbba8ac</title>
<g id="a_clust2"><a xlink:href="dir_8e713d172419bd52c3cd47cf4cbba8ac.html" target="_top">
<polygon fill="#eeeeff" stroke="#000000" points="16,-208 16,-260 158,-260 158,-208 16,-208"/>
</a>
</g>
</g>
<!-- dir_8e713d172419bd52c3cd47cf4cbba8ac -->
<g id="node1" class="node">
<title>dir_8e713d172419bd52c3cd47cf4cbba8ac</title>
<text text-anchor="middle" x="51" y="-231.5" font-family="Helvetica,sans-Serif" font-size="10.00" fill="#000000">sensors</text>
</g>
<!-- dir_fc0178d6978c9fa2cad6ef3e048a60a7 -->
<g id="node3" class="node">
<title>dir_fc0178d6978c9fa2cad6ef3e048a60a7</title>
<g id="a_node3"><a xlink:href="dir_fc0178d6978c9fa2cad6ef3e048a60a7.html" target="_top" xlink:title="math">
<polygon fill="#ffffff" stroke="#ff0000" points="58,-108 4,-108 4,-72 58,-72 58,-108"/>
<text text-anchor="middle" x="31" y="-87.5" font-family="Helvetica,sans-Serif" font-size="10.00" fill="#000000">math</text>
</a>
</g>
</g>
<!-- dir_8e713d172419bd52c3cd47cf4cbba8ac&#45;&gt;dir_fc0178d6978c9fa2cad6ef3e048a60a7 -->
<g id="edge7" class="edge">
<title>dir_8e713d172419bd52c3cd47cf4cbba8ac&#45;&gt;dir_fc0178d6978c9fa2cad6ef3e048a60a7</title>
<path fill="none" stroke="#000000" d="M48.467,-215.7623C45.0557,-191.201 38.951,-147.2474 34.9381,-118.3541"/>
<polygon fill="#000000" stroke="#000000" points="38.3549,-117.513 33.5124,-108.0896 31.4215,-118.4761 38.3549,-117.513"/>
<g id="a_edge7&#45;headlabel"><a xlink:href="dir_000043_000093.html" target="_top" xlink:title="1">
<text text-anchor="middle" x="41.6616" y="-118.1829" font-family="Helvetica,sans-Serif" font-size="10.00" fill="#000000">1</text>
</a>
</g>
</g>
<!-- dir_60d1a1a0427122d50d895532165cc828 -->
<g id="node2" class="node">
<title>dir_60d1a1a0427122d50d895532165cc828</title>
<g id="a_node2"><a xlink:href="dir_60d1a1a0427122d50d895532165cc828.html" target="_top" xlink:title="test">
<polygon fill="#ffffff" stroke="#ff0000" points="150,-252 96,-252 96,-216 150,-216 150,-252"/>
<text text-anchor="middle" x="123" y="-231.5" font-family="Helvetica,sans-Serif" font-size="10.00" fill="#000000">test</text>
</a>
</g>
</g>
<!-- dir_3c3c25df5132fca4f15a988b4c2efab5 -->
<g id="node4" class="node">
<title>dir_3c3c25df5132fca4f15a988b4c2efab5</title>
<g id="a_node4"><a xlink:href="dir_3c3c25df5132fca4f15a988b4c2efab5.html" target="_top" xlink:title="lcm">
<polygon fill="#ffffff" stroke="#ff0000" points="168,-108 114,-108 114,-72 168,-72 168,-108"/>
<text text-anchor="middle" x="141" y="-87.5" font-family="Helvetica,sans-Serif" font-size="10.00" fill="#000000">lcm</text>
</a>
</g>
</g>
<!-- dir_60d1a1a0427122d50d895532165cc828&#45;&gt;dir_3c3c25df5132fca4f15a988b4c2efab5 -->
<g id="edge1" class="edge">
<title>dir_60d1a1a0427122d50d895532165cc828&#45;&gt;dir_3c3c25df5132fca4f15a988b4c2efab5</title>
<path fill="none" stroke="#000000" d="M125.2797,-215.7623C128.3499,-191.201 133.8441,-147.2474 137.4557,-118.3541"/>
<polygon fill="#000000" stroke="#000000" points="140.9713,-118.4465 138.7388,-108.0896 134.0254,-117.5782 140.9713,-118.4465"/>
<g id="a_edge1&#45;headlabel"><a xlink:href="dir_000044_000167.html" target="_top" xlink:title="1">
<text text-anchor="middle" x="143.3429" y="-119.8655" font-family="Helvetica,sans-Serif" font-size="10.00" fill="#000000">1</text>
</a>
</g>
</g>
<!-- dir_a36da230f0956f48b11c85f7d599788f -->
<g id="node5" class="node">
<title>dir_a36da230f0956f48b11c85f7d599788f</title>
<g id="a_node5"><a xlink:href="dir_a36da230f0956f48b11c85f7d599788f.html" target="_top" xlink:title="common">
<polygon fill="#ffffff" stroke="#ff0000" points="115.5,-36 56.5,-36 56.5,0 115.5,0 115.5,-36"/>
<text text-anchor="middle" x="86" y="-15.5" font-family="Helvetica,sans-Serif" font-size="10.00" fill="#000000">common</text>
</a>
</g>
</g>
<!-- dir_60d1a1a0427122d50d895532165cc828&#45;&gt;dir_a36da230f0956f48b11c85f7d599788f -->
<g id="edge2" class="edge">
<title>dir_60d1a1a0427122d50d895532165cc828&#45;&gt;dir_a36da230f0956f48b11c85f7d599788f</title>
<path fill="none" stroke="#000000" d="M138.4378,-215.7862C162.7517,-184.7543 204.5051,-120.305 177,-72 165.8799,-52.4706 144.6076,-39.275 125.4251,-30.8193"/>
<polygon fill="#000000" stroke="#000000" points="126.5208,-27.4858 115.9405,-26.9318 123.866,-33.9629 126.5208,-27.4858"/>
<g id="a_edge2&#45;headlabel"><a xlink:href="dir_000044_000076.html" target="_top" xlink:title="12">
<text text-anchor="middle" x="130.9237" y="-23.7219" font-family="Helvetica,sans-Serif" font-size="10.00" fill="#000000">12</text>
</a>
</g>
</g>
<!-- dir_b7a0e33b407baa23d8a077e33033c988 -->
<g id="node6" class="node">
<title>dir_b7a0e33b407baa23d8a077e33033c988</title>
<g id="a_node6"><a xlink:href="dir_b7a0e33b407baa23d8a077e33033c988.html" target="_top" xlink:title="systems">
<polygon fill="#ffffff" stroke="#ff0000" points="116,-180 58,-180 58,-144 116,-144 116,-180"/>
<text text-anchor="middle" x="87" y="-159.5" font-family="Helvetica,sans-Serif" font-size="10.00" fill="#000000">systems</text>
</a>
</g>
</g>
<!-- dir_60d1a1a0427122d50d895532165cc828&#45;&gt;dir_b7a0e33b407baa23d8a077e33033c988 -->
<g id="edge3" class="edge">
<title>dir_60d1a1a0427122d50d895532165cc828&#45;&gt;dir_b7a0e33b407baa23d8a077e33033c988</title>
<path fill="none" stroke="#000000" d="M113.9157,-215.8314C109.9385,-207.8771 105.1845,-198.369 100.7861,-189.5723"/>
<polygon fill="#000000" stroke="#000000" points="103.8093,-187.7923 96.2066,-180.4133 97.5483,-190.9228 103.8093,-187.7923"/>
<g id="a_edge3&#45;headlabel"><a xlink:href="dir_000044_000217.html" target="_top" xlink:title="11">
<text text-anchor="middle" x="107.9563" y="-187.2377" font-family="Helvetica,sans-Serif" font-size="10.00" fill="#000000">11</text>
</a>
</g>
</g>
<!-- dir_fc0178d6978c9fa2cad6ef3e048a60a7&#45;&gt;dir_a36da230f0956f48b11c85f7d599788f -->
<g id="edge4" class="edge">
<title>dir_fc0178d6978c9fa2cad6ef3e048a60a7&#45;&gt;dir_a36da230f0956f48b11c85f7d599788f</title>
<path fill="none" stroke="#000000" d="M38.9264,-71.8314C44.5094,-63.454 52.0357,-53.3531 59.4838,-44.1749"/>
<polygon fill="#000000" stroke="#000000" points="62.2404,-46.3344 65.9583,-36.4133 56.865,-41.8504 62.2404,-46.3344"/>
<g id="a_edge4&#45;headlabel"><a xlink:href="dir_000093_000076.html" target="_top" xlink:title="87">
<text text-anchor="middle" x="62.1181" y="-48.4134" font-family="Helvetica,sans-Serif" font-size="10.00" fill="#000000">87</text>
</a>
</g>
</g>
<!-- dir_3c3c25df5132fca4f15a988b4c2efab5&#45;&gt;dir_a36da230f0956f48b11c85f7d599788f -->
<g id="edge5" class="edge">
<title>dir_3c3c25df5132fca4f15a988b4c2efab5&#45;&gt;dir_a36da230f0956f48b11c85f7d599788f</title>
<path fill="none" stroke="#000000" d="M127.1212,-71.8314C120.7864,-63.5386 113.1616,-53.557 106.2074,-44.4533"/>
<polygon fill="#000000" stroke="#000000" points="108.9175,-42.2353 100.0657,-36.4133 103.3548,-46.4847 108.9175,-42.2353"/>
<g id="a_edge5&#45;headlabel"><a xlink:href="dir_000167_000076.html" target="_top" xlink:title="24">
<text text-anchor="middle" x="113.3558" y="-40.8683" font-family="Helvetica,sans-Serif" font-size="10.00" fill="#000000">24</text>
</a>
</g>
</g>
<!-- dir_a36da230f0956f48b11c85f7d599788f&#45;&gt;dir_fc0178d6978c9fa2cad6ef3e048a60a7 -->
<g id="edge6" class="edge">
<title>dir_a36da230f0956f48b11c85f7d599788f&#45;&gt;dir_fc0178d6978c9fa2cad6ef3e048a60a7</title>
<path fill="none" stroke="#000000" d="M77.9103,-36.4133C72.2898,-44.8239 64.7456,-54.9323 57.2991,-64.0923"/>
<polygon fill="#000000" stroke="#000000" points="54.5584,-61.9138 50.8312,-71.8314 59.9296,-66.4027 54.5584,-61.9138"/>
<g id="a_edge6&#45;headlabel"><a xlink:href="dir_000076_000093.html" target="_top" xlink:title="4">
<text text-anchor="middle" x="54.6849" y="-54.8348" font-family="Helvetica,sans-Serif" font-size="10.00" fill="#000000">4</text>
</a>
</g>
</g>
<!-- dir_b7a0e33b407baa23d8a077e33033c988&#45;&gt;dir_fc0178d6978c9fa2cad6ef3e048a60a7 -->
<g id="edge8" class="edge">
<title>dir_b7a0e33b407baa23d8a077e33033c988&#45;&gt;dir_fc0178d6978c9fa2cad6ef3e048a60a7</title>
<path fill="none" stroke="#000000" d="M72.8688,-143.8314C66.4189,-135.5386 58.6555,-125.557 51.5748,-116.4533"/>
<polygon fill="#000000" stroke="#000000" points="54.2236,-114.158 45.3214,-108.4133 48.6981,-118.4556 54.2236,-114.158"/>
<g id="a_edge8&#45;headlabel"><a xlink:href="dir_000217_000093.html" target="_top" xlink:title="29">
<text text-anchor="middle" x="58.6716" y="-112.7523" font-family="Helvetica,sans-Serif" font-size="10.00" fill="#000000">29</text>
</a>
</g>
</g>
<!-- dir_b7a0e33b407baa23d8a077e33033c988&#45;&gt;dir_3c3c25df5132fca4f15a988b4c2efab5 -->
<g id="edge9" class="edge">
<title>dir_b7a0e33b407baa23d8a077e33033c988&#45;&gt;dir_3c3c25df5132fca4f15a988b4c2efab5</title>
<path fill="none" stroke="#000000" d="M100.6265,-143.8314C106.846,-135.5386 114.3322,-125.557 121.16,-116.4533"/>
<polygon fill="#000000" stroke="#000000" points="123.99,-118.5133 127.19,-108.4133 118.39,-114.3133 123.99,-118.5133"/>
<g id="a_edge9&#45;headlabel"><a xlink:href="dir_000217_000167.html" target="_top" xlink:title="19">
<text text-anchor="middle" x="124.1047" y="-120.5925" font-family="Helvetica,sans-Serif" font-size="10.00" fill="#000000">19</text>
</a>
</g>
</g>
<!-- dir_b7a0e33b407baa23d8a077e33033c988&#45;&gt;dir_a36da230f0956f48b11c85f7d599788f -->
<g id="edge10" class="edge">
<title>dir_b7a0e33b407baa23d8a077e33033c988&#45;&gt;dir_a36da230f0956f48b11c85f7d599788f</title>
<path fill="none" stroke="#000000" d="M86.8733,-143.7623C86.7028,-119.201 86.3976,-75.2474 86.1969,-46.3541"/>
<polygon fill="#000000" stroke="#000000" points="89.6951,-46.065 86.1256,-36.0896 82.6952,-46.1137 89.6951,-46.065"/>
<g id="a_edge10&#45;headlabel"><a xlink:href="dir_000217_000076.html" target="_top" xlink:title="555">
<text text-anchor="middle" x="92.5591" y="-47.1399" font-family="Helvetica,sans-Serif" font-size="10.00" fill="#000000">555</text>
</a>
</g>
</g>
</g>
</svg>
