<?xml version="1.0" encoding="UTF-8" standalone="no"?>
<!DOCTYPE svg PUBLIC "-//W3C//DTD SVG 1.1//EN"
 "http://www.w3.org/Graphics/SVG/1.1/DTD/svg11.dtd">
<!-- Generated by graphviz version 2.40.1 (20161225.0304)
 -->
<!-- Title: drake/automotive/maliput/rndf/directed_waypoint.h Pages: 1 -->
<svg width="1062pt" height="251pt"
 viewBox="0.00 0.00 1062.00 251.00" xmlns="http://www.w3.org/2000/svg" xmlns:xlink="http://www.w3.org/1999/xlink">
<g id="graph0" class="graph" transform="scale(1 1) rotate(0) translate(4 247)">
<title>drake/automotive/maliput/rndf/directed_waypoint.h</title>
<polygon fill="#ffffff" stroke="transparent" points="-4,4 -4,-247 1058,-247 1058,4 -4,4"/>
<!-- Node6 -->
<g id="node1" class="node">
<title>Node6</title>
<polygon fill="#bfbfbf" stroke="#000000" points="636,-212.5 636,-242.5 780,-242.5 780,-212.5 636,-212.5"/>
<text text-anchor="start" x="644" y="-230.5" font-family="Helvetica,sans-Serif" font-size="10.00" fill="#000000">drake/automotive/maliput</text>
<text text-anchor="middle" x="708" y="-219.5" font-family="Helvetica,sans-Serif" font-size="10.00" fill="#000000">/rndf/directed_waypoint.h</text>
</g>
<!-- Node7 -->
<g id="node2" class="node">
<title>Node7</title>
<g id="a_node2"><a xlink:href="rndf_2builder_8h.html" target="_top" xlink:title="drake/automotive/maliput\l/rndf/builder.h">
<polygon fill="#ffffff" stroke="#000000" points="162,-67.5 162,-97.5 306,-97.5 306,-67.5 162,-67.5"/>
<text text-anchor="start" x="170" y="-85.5" font-family="Helvetica,sans-Serif" font-size="10.00" fill="#000000">drake/automotive/maliput</text>
<text text-anchor="middle" x="234" y="-74.5" font-family="Helvetica,sans-Serif" font-size="10.00" fill="#000000">/rndf/builder.h</text>
</a>
</g>
</g>
<!-- Node6&#45;&gt;Node7 -->
<g id="edge1" class="edge">
<title>Node6&#45;&gt;Node7</title>
<path fill="none" stroke="#191970" d="M625.4529,-220.0349C537.8635,-211.2822 405.7768,-195.4669 359,-176 314.2133,-157.3613 270.9446,-119.0749 248.9677,-97.7294"/>
<polygon fill="#191970" stroke="#191970" points="625.3439,-223.5411 635.6396,-221.0411 626.0321,-216.575 625.3439,-223.5411"/>
</g>
<!-- Node9 -->
<g id="node4" class="node">
<title>Node9</title>
<g id="a_node4"><a xlink:href="rndf_2loader_8cc.html" target="_top" xlink:title="drake/automotive/maliput\l/rndf/loader.cc">
<polygon fill="#ffffff" stroke="#000000" points="324,-.5 324,-30.5 468,-30.5 468,-.5 324,-.5"/>
<text text-anchor="start" x="332" y="-18.5" font-family="Helvetica,sans-Serif" font-size="10.00" fill="#000000">drake/automotive/maliput</text>
<text text-anchor="middle" x="396" y="-7.5" font-family="Helvetica,sans-Serif" font-size="10.00" fill="#000000">/rndf/loader.cc</text>
</a>
</g>
</g>
<!-- Node6&#45;&gt;Node9 -->
<g id="edge11" class="edge">
<title>Node6&#45;&gt;Node9</title>
<path fill="none" stroke="#191970" d="M713.2875,-202.303C719.0686,-167.0909 723.4136,-103.4026 689,-67 659.5509,-35.8489 545.0956,-23.4426 468.2589,-18.5696"/>
<polygon fill="#191970" stroke="#191970" points="709.8233,-201.7919 711.4886,-212.255 716.7116,-203.0371 709.8233,-201.7919"/>
</g>
<!-- Node11 -->
<g id="node6" class="node">
<title>Node11</title>
<g id="a_node6"><a xlink:href="rndf_2connection_8h.html" target="_top" xlink:title="drake/automotive/maliput\l/rndf/connection.h">
<polygon fill="#ffffff" stroke="#000000" points="368,-140 368,-170 512,-170 512,-140 368,-140"/>
<text text-anchor="start" x="376" y="-158" font-family="Helvetica,sans-Serif" font-size="10.00" fill="#000000">drake/automotive/maliput</text>
<text text-anchor="middle" x="440" y="-147" font-family="Helvetica,sans-Serif" font-size="10.00" fill="#000000">/rndf/connection.h</text>
</a>
</g>
</g>
<!-- Node6&#45;&gt;Node11 -->
<g id="edge5" class="edge">
<title>Node6&#45;&gt;Node11</title>
<path fill="none" stroke="#191970" d="M642.7828,-209.8573C597.6717,-197.6537 538.2915,-181.5901 495.4586,-170.0028"/>
<polygon fill="#191970" stroke="#191970" points="641.9032,-213.2451 652.4702,-212.478 643.7312,-206.488 641.9032,-213.2451"/>
</g>
<!-- Node14 -->
<g id="node9" class="node">
<title>Node14</title>
<g id="a_node9"><a xlink:href="directed__waypoint_8cc.html" target="_top" xlink:title="drake/automotive/maliput\l/rndf/directed_waypoint.cc">
<polygon fill="#ffffff" stroke="#000000" points="736,-140 736,-170 882,-170 882,-140 736,-140"/>
<text text-anchor="start" x="744" y="-158" font-family="Helvetica,sans-Serif" font-size="10.00" fill="#000000">drake/automotive/maliput</text>
<text text-anchor="middle" x="809" y="-147" font-family="Helvetica,sans-Serif" font-size="10.00" fill="#000000">/rndf/directed_waypoint.cc</text>
</a>
</g>
</g>
<!-- Node6&#45;&gt;Node14 -->
<g id="edge10" class="edge">
<title>Node6&#45;&gt;Node14</title>
<path fill="none" stroke="#191970" d="M737.0738,-206.6302C753.3799,-194.9253 773.3448,-180.5941 788.0995,-170.0028"/>
<polygon fill="#191970" stroke="#191970" points="735.01,-203.8032 728.9273,-212.478 739.092,-209.4898 735.01,-203.8032"/>
</g>
<!-- Node15 -->
<g id="node10" class="node">
<title>Node15</title>
<g id="a_node10"><a xlink:href="directed__waypoint__test_8cc.html" target="_top" xlink:title="drake/automotive/maliput\l/rndf/test/directed_waypoint\l_test.cc">
<polygon fill="#ffffff" stroke="#000000" points="900,-134.5 900,-175.5 1054,-175.5 1054,-134.5 900,-134.5"/>
<text text-anchor="start" x="908" y="-163.5" font-family="Helvetica,sans-Serif" font-size="10.00" fill="#000000">drake/automotive/maliput</text>
<text text-anchor="start" x="908" y="-152.5" font-family="Helvetica,sans-Serif" font-size="10.00" fill="#000000">/rndf/test/directed_waypoint</text>
<text text-anchor="middle" x="977" y="-141.5" font-family="Helvetica,sans-Serif" font-size="10.00" fill="#000000">_test.cc</text>
</a>
</g>
</g>
<!-- Node6&#45;&gt;Node15 -->
<g id="edge12" class="edge">
<title>Node6&#45;&gt;Node15</title>
<path fill="none" stroke="#191970" d="M773.7798,-209.7712C812.2055,-199.4149 860.8632,-186.3008 900.9323,-175.5015"/>
<polygon fill="#191970" stroke="#191970" points="772.4816,-206.4962 763.737,-212.478 774.3033,-213.255 772.4816,-206.4962"/>
</g>
<!-- Node8 -->
<g id="node3" class="node">
<title>Node8</title>
<g id="a_node3"><a xlink:href="rndf_2builder_8cc.html" target="_top" xlink:title="drake/automotive/maliput\l/rndf/builder.cc">
<polygon fill="#ffffff" stroke="#000000" points="0,-.5 0,-30.5 144,-30.5 144,-.5 0,-.5"/>
<text text-anchor="start" x="8" y="-18.5" font-family="Helvetica,sans-Serif" font-size="10.00" fill="#000000">drake/automotive/maliput</text>
<text text-anchor="middle" x="72" y="-7.5" font-family="Helvetica,sans-Serif" font-size="10.00" fill="#000000">/rndf/builder.cc</text>
</a>
</g>
</g>
<!-- Node7&#45;&gt;Node8 -->
<g id="edge2" class="edge">
<title>Node7&#45;&gt;Node8</title>
<path fill="none" stroke="#191970" d="M188.2765,-63.5897C163.0386,-53.1518 132.1224,-40.3654 108.5145,-30.6017"/>
<polygon fill="#191970" stroke="#191970" points="187.0655,-66.8763 197.644,-67.4639 189.7408,-60.4077 187.0655,-66.8763"/>
</g>
<!-- Node7&#45;&gt;Node9 -->
<g id="edge3" class="edge">
<title>Node7&#45;&gt;Node9</title>
<path fill="none" stroke="#191970" d="M279.7235,-63.5897C304.9614,-53.1518 335.8776,-40.3654 359.4855,-30.6017"/>
<polygon fill="#191970" stroke="#191970" points="278.2592,-60.4077 270.356,-67.4639 280.9345,-66.8763 278.2592,-60.4077"/>
</g>
<!-- Node10 -->
<g id="node5" class="node">
<title>Node10</title>
<g id="a_node5"><a xlink:href="builder__test_8cc.html" target="_top" xlink:title="drake/automotive/maliput\l/rndf/test/builder_test.cc">
<polygon fill="#ffffff" stroke="#000000" points="162,-.5 162,-30.5 306,-30.5 306,-.5 162,-.5"/>
<text text-anchor="start" x="170" y="-18.5" font-family="Helvetica,sans-Serif" font-size="10.00" fill="#000000">drake/automotive/maliput</text>
<text text-anchor="middle" x="234" y="-7.5" font-family="Helvetica,sans-Serif" font-size="10.00" fill="#000000">/rndf/test/builder_test.cc</text>
</a>
</g>
</g>
<!-- Node7&#45;&gt;Node10 -->
<g id="edge4" class="edge">
<title>Node7&#45;&gt;Node10</title>
<path fill="none" stroke="#191970" d="M234,-57.0249C234,-48.128 234,-38.4287 234,-30.6432"/>
<polygon fill="#191970" stroke="#191970" points="230.5001,-57.2966 234,-67.2967 237.5001,-57.2967 230.5001,-57.2966"/>
</g>
<!-- Node11&#45;&gt;Node7 -->
<g id="edge6" class="edge">
<title>Node11&#45;&gt;Node7</title>
<path fill="none" stroke="#191970" d="M387.4542,-136.5069C353.097,-124.4152 308.7932,-108.8228 276.6287,-97.5028"/>
<polygon fill="#191970" stroke="#191970" points="386.7218,-139.9596 397.3167,-139.978 389.0458,-133.3566 386.7218,-139.9596"/>
</g>
<!-- Node11&#45;&gt;Node9 -->
<g id="edge8" class="edge">
<title>Node11&#45;&gt;Node9</title>
<path fill="none" stroke="#191970" d="M392.1602,-135.0789C376.8317,-126.1351 361.6109,-113.936 353,-98 340.4078,-74.6957 361.5965,-47.392 378.4523,-30.7772"/>
<polygon fill="#191970" stroke="#191970" points="390.6924,-138.2648 401.1487,-139.9724 394.0395,-132.1169 390.6924,-138.2648"/>
</g>
<!-- Node12 -->
<g id="node7" class="node">
<title>Node12</title>
<g id="a_node7"><a xlink:href="rndf_2connection_8cc.html" target="_top" xlink:title="drake/automotive/maliput\l/rndf/connection.cc">
<polygon fill="#ffffff" stroke="#000000" points="536,-67.5 536,-97.5 680,-97.5 680,-67.5 536,-67.5"/>
<text text-anchor="start" x="544" y="-85.5" font-family="Helvetica,sans-Serif" font-size="10.00" fill="#000000">drake/automotive/maliput</text>
<text text-anchor="middle" x="608" y="-74.5" font-family="Helvetica,sans-Serif" font-size="10.00" fill="#000000">/rndf/connection.cc</text>
</a>
</g>
</g>
<!-- Node11&#45;&gt;Node12 -->
<g id="edge7" class="edge">
<title>Node11&#45;&gt;Node12</title>
<path fill="none" stroke="#191970" d="M484.303,-135.8811C512.11,-123.8811 547.4539,-108.6285 573.2349,-97.5028"/>
<polygon fill="#191970" stroke="#191970" points="482.6044,-132.8021 474.8097,-139.978 485.3781,-139.2292 482.6044,-132.8021"/>
</g>
<!-- Node13 -->
<g id="node8" class="node">
<title>Node13</title>
<g id="a_node8"><a xlink:href="connection__test_8cc.html" target="_top" xlink:title="drake/automotive/maliput\l/rndf/test/connection_test.cc">
<polygon fill="#ffffff" stroke="#000000" points="362.5,-67.5 362.5,-97.5 517.5,-97.5 517.5,-67.5 362.5,-67.5"/>
<text text-anchor="start" x="370.5" y="-85.5" font-family="Helvetica,sans-Serif" font-size="10.00" fill="#000000">drake/automotive/maliput</text>
<text text-anchor="middle" x="440" y="-74.5" font-family="Helvetica,sans-Serif" font-size="10.00" fill="#000000">/rndf/test/connection_test.cc</text>
</a>
</g>
</g>
<!-- Node11&#45;&gt;Node13 -->
<g id="edge9" class="edge">
<title>Node11&#45;&gt;Node13</title>
<path fill="none" stroke="#191970" d="M440,-129.8409C440,-119.0601 440,-106.8309 440,-97.5028"/>
<polygon fill="#191970" stroke="#191970" points="436.5001,-129.9779 440,-139.978 443.5001,-129.978 436.5001,-129.9779"/>
</g>
</g>
</svg>
