<?xml version="1.0" encoding="UTF-8" standalone="no"?>
<!DOCTYPE svg PUBLIC "-//W3C//DTD SVG 1.1//EN"
 "http://www.w3.org/Graphics/SVG/1.1/DTD/svg11.dtd">
<!-- Generated by graphviz version 2.40.1 (20161225.0304)
 -->
<!-- Title: drake/automotive/maliput/rndf/directed_waypoint.h Pages: 1 -->
<svg width="567pt" height="106pt"
 viewBox="0.00 0.00 567.00 106.00" xmlns="http://www.w3.org/2000/svg" xmlns:xlink="http://www.w3.org/1999/xlink">
<g id="graph0" class="graph" transform="scale(1 1) rotate(0) translate(4 102)">
<title>drake/automotive/maliput/rndf/directed_waypoint.h</title>
<polygon fill="#ffffff" stroke="transparent" points="-4,4 -4,-102 563,-102 563,4 -4,4"/>
<!-- Node0 -->
<g id="node1" class="node">
<title>Node0</title>
<polygon fill="#bfbfbf" stroke="#000000" points="124.5,-67.5 124.5,-97.5 268.5,-97.5 268.5,-67.5 124.5,-67.5"/>
<text text-anchor="start" x="132.5" y="-85.5" font-family="Helvetica,sans-Serif" font-size="10.00" fill="#000000">drake/automotive/maliput</text>
<text text-anchor="middle" x="196.5" y="-74.5" font-family="Helvetica,sans-Serif" font-size="10.00" fill="#000000">/rndf/directed_waypoint.h</text>
</g>
<!-- Node1 -->
<g id="node2" class="node">
<title>Node1</title>
<polygon fill="#ffffff" stroke="#bfbfbf" points="0,-6 0,-25 45,-25 45,-6 0,-6"/>
<text text-anchor="middle" x="22.5" y="-13" font-family="Helvetica,sans-Serif" font-size="10.00" fill="#000000">utility</text>
</g>
<!-- Node0&#45;&gt;Node1 -->
<g id="edge1" class="edge">
<title>Node0&#45;&gt;Node1</title>
<path fill="none" stroke="#191970" d="M150.5641,-67.4993C122.2565,-57.8766 85.3968,-44.6615 53.5,-31 52.3177,-30.4936 51.1167,-29.9637 49.9084,-29.4178"/>
<polygon fill="#191970" stroke="#191970" points="51.2257,-26.1689 40.6909,-25.0425 48.224,-32.4926 51.2257,-26.1689"/>
</g>
<!-- Node2 -->
<g id="node3" class="node">
<title>Node2</title>
<polygon fill="#ffffff" stroke="#bfbfbf" points="63,-6 63,-25 110,-25 110,-6 63,-6"/>
<text text-anchor="middle" x="86.5" y="-13" font-family="Helvetica,sans-Serif" font-size="10.00" fill="#000000">vector</text>
</g>
<!-- Node0&#45;&gt;Node2 -->
<g id="edge2" class="edge">
<title>Node0&#45;&gt;Node2</title>
<path fill="none" stroke="#191970" d="M171.8139,-67.4639C153.6898,-56.4247 129.1791,-41.4954 111.08,-30.4715"/>
<polygon fill="#191970" stroke="#191970" points="112.6288,-27.3167 102.2676,-25.1039 108.9874,-33.2951 112.6288,-27.3167"/>
</g>
<!-- Node3 -->
<g id="node4" class="node">
<title>Node3</title>
<polygon fill="#ffffff" stroke="#bfbfbf" points="128,-6 128,-25 265,-25 265,-6 128,-6"/>
<text text-anchor="middle" x="196.5" y="-13" font-family="Helvetica,sans-Serif" font-size="10.00" fill="#000000">ignition/math/Vector3.hh</text>
</g>
<!-- Node0&#45;&gt;Node3 -->
<g id="edge3" class="edge">
<title>Node0&#45;&gt;Node3</title>
<path fill="none" stroke="#191970" d="M196.5,-67.2967C196.5,-57.7699 196.5,-45.3954 196.5,-35.1306"/>
<polygon fill="#191970" stroke="#191970" points="200.0001,-35.0549 196.5,-25.055 193.0001,-35.055 200.0001,-35.0549"/>
</g>
<!-- Node4 -->
<g id="node5" class="node">
<title>Node4</title>
<polygon fill="#ffffff" stroke="#bfbfbf" points="283,-6 283,-25 420,-25 420,-6 283,-6"/>
<text text-anchor="middle" x="351.5" y="-13" font-family="Helvetica,sans-Serif" font-size="10.00" fill="#000000">ignition/rndf/UniqueId.hh</text>
</g>
<!-- Node0&#45;&gt;Node4 -->
<g id="edge4" class="edge">
<title>Node0&#45;&gt;Node4</title>
<path fill="none" stroke="#191970" d="M231.285,-67.4639C257.8778,-55.969 294.2284,-40.2561 319.9757,-29.1266"/>
<polygon fill="#191970" stroke="#191970" points="321.4916,-32.2844 329.282,-25.1039 318.7141,-25.859 321.4916,-32.2844"/>
</g>
<!-- Node5 -->
<g id="node6" class="node">
<title>Node5</title>
<g id="a_node6"><a xlink:href="drake__copyable_8h.html" target="_top" xlink:title="Provides careful macros to selectively enable or disable the special member functions for copy&#45;constr...">
<polygon fill="#ffffff" stroke="#000000" points="438,-.5 438,-30.5 559,-30.5 559,-.5 438,-.5"/>
<text text-anchor="start" x="446" y="-18.5" font-family="Helvetica,sans-Serif" font-size="10.00" fill="#000000">drake/common/drake</text>
<text text-anchor="middle" x="498.5" y="-7.5" font-family="Helvetica,sans-Serif" font-size="10.00" fill="#000000">_copyable.h</text>
</a>
</g>
</g>
<!-- Node0&#45;&gt;Node5 -->
<g id="edge5" class="edge">
<title>Node0&#45;&gt;Node5</title>
<path fill="none" stroke="#191970" d="M264.8225,-67.4634C308.8192,-57.7655 367.5213,-44.7983 427.8348,-31.3677"/>
<polygon fill="#191970" stroke="#191970" points="428.9209,-34.7116 437.9206,-29.1208 427.3987,-27.8791 428.9209,-34.7116"/>
</g>
</g>
</svg>
