<?xml version="1.0" encoding="UTF-8" standalone="no"?>
<!DOCTYPE svg PUBLIC "-//W3C//DTD SVG 1.1//EN"
 "http://www.w3.org/Graphics/SVG/1.1/DTD/svg11.dtd">
<!-- Generated by graphviz version 2.40.1 (20161225.0304)
 -->
<!-- Title: drake/math/discrete_algebraic_riccati_equation.cc Pages: 1 -->
<svg width="512pt" height="229pt"
 viewBox="0.00 0.00 512.00 229.00" xmlns="http://www.w3.org/2000/svg" xmlns:xlink="http://www.w3.org/1999/xlink">
<g id="graph0" class="graph" transform="scale(1 1) rotate(0) translate(4 225)">
<title>drake/math/discrete_algebraic_riccati_equation.cc</title>
<polygon fill="#ffffff" stroke="transparent" points="-4,4 -4,-225 508,-225 508,4 -4,4"/>
<!-- Node0 -->
<g id="node1" class="node">
<title>Node0</title>
<polygon fill="#bfbfbf" stroke="#000000" points="223.5,-190.5 223.5,-220.5 387.5,-220.5 387.5,-190.5 223.5,-190.5"/>
<text text-anchor="start" x="231.5" y="-208.5" font-family="Helvetica,sans-Serif" font-size="10.00" fill="#000000">drake/math/discrete</text>
<text text-anchor="middle" x="305.5" y="-197.5" font-family="Helvetica,sans-Serif" font-size="10.00" fill="#000000">_algebraic_riccati_equation.cc</text>
</g>
<!-- Node1 -->
<g id="node2" class="node">
<title>Node1</title>
<g id="a_node2"><a xlink:href="discrete__algebraic__riccati__equation_8h.html" target="_top" xlink:title="drake/math/discrete\l_algebraic_riccati_equation.h">
<polygon fill="#ffffff" stroke="#000000" points="9,-123.5 9,-153.5 168,-153.5 168,-123.5 9,-123.5"/>
<text text-anchor="start" x="17" y="-141.5" font-family="Helvetica,sans-Serif" font-size="10.00" fill="#000000">drake/math/discrete</text>
<text text-anchor="middle" x="88.5" y="-130.5" font-family="Helvetica,sans-Serif" font-size="10.00" fill="#000000">_algebraic_riccati_equation.h</text>
</a>
</g>
</g>
<!-- Node0&#45;&gt;Node1 -->
<g id="edge1" class="edge">
<title>Node0&#45;&gt;Node1</title>
<path fill="none" stroke="#191970" d="M256.801,-190.4639C224.3874,-180.456 181.6187,-167.2509 147.3071,-156.657"/>
<polygon fill="#191970" stroke="#191970" points="147.9989,-153.2077 137.4114,-153.6017 145.9338,-159.8961 147.9989,-153.2077"/>
</g>
<!-- Node5 -->
<g id="node6" class="node">
<title>Node5</title>
<g id="a_node6"><a xlink:href="drake__assert_8h.html" target="_top" xlink:title="Provides Drake&#39;s assertion implementation. ">
<polygon fill="#ffffff" stroke="#000000" points="297,-56.5 297,-86.5 418,-86.5 418,-56.5 297,-56.5"/>
<text text-anchor="start" x="305" y="-74.5" font-family="Helvetica,sans-Serif" font-size="10.00" fill="#000000">drake/common/drake</text>
<text text-anchor="middle" x="357.5" y="-63.5" font-family="Helvetica,sans-Serif" font-size="10.00" fill="#000000">_assert.h</text>
</a>
</g>
</g>
<!-- Node0&#45;&gt;Node5 -->
<g id="edge5" class="edge">
<title>Node0&#45;&gt;Node5</title>
<path fill="none" stroke="#191970" d="M315.8192,-190.2823C322.2067,-180.3131 330.1768,-166.8029 335.5,-154 343.2028,-135.4738 348.9104,-113.4756 352.5792,-96.8557"/>
<polygon fill="#191970" stroke="#191970" points="356.0607,-97.3079 354.6962,-86.8013 349.2109,-95.8656 356.0607,-97.3079"/>
</g>
<!-- Node7 -->
<g id="node8" class="node">
<title>Node7</title>
<g id="a_node8"><a xlink:href="drake__throw_8h.html" target="_top" xlink:title="Provides a convenient wrapper to throw an exception when a condition is unmet. ">
<polygon fill="#ffffff" stroke="#000000" points="383,-123.5 383,-153.5 504,-153.5 504,-123.5 383,-123.5"/>
<text text-anchor="start" x="391" y="-141.5" font-family="Helvetica,sans-Serif" font-size="10.00" fill="#000000">drake/common/drake</text>
<text text-anchor="middle" x="443.5" y="-130.5" font-family="Helvetica,sans-Serif" font-size="10.00" fill="#000000">_throw.h</text>
</a>
</g>
</g>
<!-- Node0&#45;&gt;Node7 -->
<g id="edge7" class="edge">
<title>Node0&#45;&gt;Node7</title>
<path fill="none" stroke="#191970" d="M336.4699,-190.4639C356.1292,-180.9191 381.7784,-168.4663 403.0393,-158.144"/>
<polygon fill="#191970" stroke="#191970" points="404.6888,-161.2339 412.156,-153.7177 401.6315,-154.9368 404.6888,-161.2339"/>
</g>
<!-- Node8 -->
<g id="node9" class="node">
<title>Node8</title>
<g id="a_node9"><a xlink:href="is__approx__equal__abstol_8h.html" target="_top" xlink:title="drake/common/is_approx\l_equal_abstol.h">
<polygon fill="#ffffff" stroke="#000000" points="186.5,-123.5 186.5,-153.5 326.5,-153.5 326.5,-123.5 186.5,-123.5"/>
<text text-anchor="start" x="194.5" y="-141.5" font-family="Helvetica,sans-Serif" font-size="10.00" fill="#000000">drake/common/is_approx</text>
<text text-anchor="middle" x="256.5" y="-130.5" font-family="Helvetica,sans-Serif" font-size="10.00" fill="#000000">_equal_abstol.h</text>
</a>
</g>
</g>
<!-- Node0&#45;&gt;Node8 -->
<g id="edge10" class="edge">
<title>Node0&#45;&gt;Node8</title>
<path fill="none" stroke="#191970" d="M294.3811,-190.2967C288.2415,-181.9016 280.4846,-171.2952 273.5914,-161.8698"/>
<polygon fill="#191970" stroke="#191970" points="276.3032,-159.6488 267.5749,-153.6432 270.653,-163.781 276.3032,-159.6488"/>
</g>
<!-- Node2 -->
<g id="node3" class="node">
<title>Node2</title>
<polygon fill="#ffffff" stroke="#bfbfbf" points="0,-62 0,-81 47,-81 47,-62 0,-62"/>
<text text-anchor="middle" x="23.5" y="-69" font-family="Helvetica,sans-Serif" font-size="10.00" fill="#000000">cmath</text>
</g>
<!-- Node1&#45;&gt;Node2 -->
<g id="edge2" class="edge">
<title>Node1&#45;&gt;Node2</title>
<path fill="none" stroke="#191970" d="M73.7505,-123.2967C63.6232,-112.8578 50.1788,-98.9997 39.7448,-88.2446"/>
<polygon fill="#191970" stroke="#191970" points="42.245,-85.7953 32.7697,-81.055 37.2208,-90.6695 42.245,-85.7953"/>
</g>
<!-- Node3 -->
<g id="node4" class="node">
<title>Node3</title>
<polygon fill="#ffffff" stroke="#bfbfbf" points="65,-62 65,-81 114,-81 114,-62 65,-62"/>
<text text-anchor="middle" x="89.5" y="-69" font-family="Helvetica,sans-Serif" font-size="10.00" fill="#000000">cstdlib</text>
</g>
<!-- Node1&#45;&gt;Node3 -->
<g id="edge3" class="edge">
<title>Node1&#45;&gt;Node3</title>
<path fill="none" stroke="#191970" d="M88.7269,-123.2967C88.8691,-113.7699 89.0538,-101.3954 89.207,-91.1306"/>
<polygon fill="#191970" stroke="#191970" points="92.7077,-91.1061 89.3574,-81.055 85.7084,-91.0016 92.7077,-91.1061"/>
</g>
<!-- Node4 -->
<g id="node5" class="node">
<title>Node4</title>
<polygon fill="#ffffff" stroke="#bfbfbf" points="135,-62 135,-81 212,-81 212,-62 135,-62"/>
<text text-anchor="middle" x="173.5" y="-69" font-family="Helvetica,sans-Serif" font-size="10.00" fill="#000000">Eigen/Dense</text>
</g>
<!-- Node1&#45;&gt;Node4 -->
<g id="edge4" class="edge">
<title>Node1&#45;&gt;Node4</title>
<path fill="none" stroke="#191970" d="M107.7878,-123.2967C121.4169,-112.5537 139.6402,-98.1895 153.4388,-87.3129"/>
<polygon fill="#191970" stroke="#191970" points="155.6911,-89.9942 161.378,-81.055 151.3578,-84.4967 155.6911,-89.9942"/>
</g>
<!-- Node6 -->
<g id="node7" class="node">
<title>Node6</title>
<polygon fill="#ffffff" stroke="#bfbfbf" points="367,-.5 367,-19.5 436,-19.5 436,-.5 367,-.5"/>
<text text-anchor="middle" x="401.5" y="-7.5" font-family="Helvetica,sans-Serif" font-size="10.00" fill="#000000">type_traits</text>
</g>
<!-- Node5&#45;&gt;Node6 -->
<g id="edge6" class="edge">
<title>Node5&#45;&gt;Node6</title>
<path fill="none" stroke="#191970" d="M368.3764,-56.2977C374.4841,-47.7609 382.1439,-37.0545 388.5588,-28.0883"/>
<polygon fill="#191970" stroke="#191970" points="391.4829,-30.0163 394.455,-19.8469 385.7899,-25.9433 391.4829,-30.0163"/>
</g>
<!-- Node7&#45;&gt;Node5 -->
<g id="edge9" class="edge">
<title>Node7&#45;&gt;Node5</title>
<path fill="none" stroke="#191970" d="M423.9853,-123.2967C412.4398,-114.302 397.636,-102.7687 384.9294,-92.8694"/>
<polygon fill="#191970" stroke="#191970" points="386.9771,-90.028 376.9375,-86.6432 382.6751,-95.55 386.9771,-90.028"/>
</g>
<!-- Node7&#45;&gt;Node6 -->
<g id="edge8" class="edge">
<title>Node7&#45;&gt;Node6</title>
<path fill="none" stroke="#191970" d="M441.7238,-123.2282C439.4527,-106.3836 434.7857,-78.6621 426.5,-56 423.0453,-46.551 417.9044,-36.6734 413.1812,-28.5044"/>
<polygon fill="#191970" stroke="#191970" points="416.1126,-26.5876 407.9546,-19.8275 410.1164,-30.1994 416.1126,-26.5876"/>
</g>
<!-- Node8&#45;&gt;Node4 -->
<g id="edge12" class="edge">
<title>Node8&#45;&gt;Node4</title>
<path fill="none" stroke="#191970" d="M237.666,-123.2967C224.4831,-112.6551 206.8985,-98.4602 193.4716,-87.6217"/>
<polygon fill="#191970" stroke="#191970" points="195.3164,-84.6128 185.3368,-81.055 190.9195,-90.0596 195.3164,-84.6128"/>
</g>
<!-- Node9 -->
<g id="node10" class="node">
<title>Node9</title>
<polygon fill="#ffffff" stroke="#bfbfbf" points="232,-62 232,-81 279,-81 279,-62 232,-62"/>
<text text-anchor="middle" x="255.5" y="-69" font-family="Helvetica,sans-Serif" font-size="10.00" fill="#000000">vector</text>
</g>
<!-- Node8&#45;&gt;Node9 -->
<g id="edge11" class="edge">
<title>Node8&#45;&gt;Node9</title>
<path fill="none" stroke="#191970" d="M256.2731,-123.2967C256.1309,-113.7699 255.9462,-101.3954 255.793,-91.1306"/>
<polygon fill="#191970" stroke="#191970" points="259.2916,-91.0016 255.6426,-81.055 252.2923,-91.1061 259.2916,-91.0016"/>
</g>
</g>
</svg>
