<?xml version="1.0" encoding="UTF-8" standalone="no"?>
<!DOCTYPE svg PUBLIC "-//W3C//DTD SVG 1.1//EN"
 "http://www.w3.org/Graphics/SVG/1.1/DTD/svg11.dtd">
<!-- Generated by graphviz version 2.40.1 (20161225.0304)
 -->
<!-- Title: drake/automotive/maliput/dragway/lane.h Pages: 1 -->
<!--zoomable 396 -->
<svg id="main" version="1.1" xmlns="http://www.w3.org/2000/svg" xmlns:xlink="http://www.w3.org/1999/xlink" xml:space="preserve" onload="init(evt)">
<style type="text/css"><![CDATA[
.edge:hover path { stroke: red; }
.edge:hover polygon { stroke: red; fill: red; }
]]></style>
<script type="text/javascript"><![CDATA[
var edges = document.getElementsByTagName('g');
if (edges && edges.length) {
  for (var i=0;i<edges.length;i++) {
    if (edges[i].id.substr(0,4)=='edge') {
      edges[i].setAttribute('class','edge');
    }
  }
}
]]></script>
        <defs>
                <circle id="rim" cx="0" cy="0" r="7"/>
                <circle id="rim2" cx="0" cy="0" r="3.5"/>
                <g id="zoomPlus">
                        <use xlink:href="#rim" fill="#404040">
                                <set attributeName="fill" to="#808080" begin="zoomplus.mouseover" end="zoomplus.mouseout"/>
                        </use>
                        <path d="M-4,0h8M0,-4v8" fill="none" stroke="white" stroke-width="1.5" pointer-events="none"/>
                </g>
                <g id="zoomMin">
                        <use xlink:href="#rim" fill="#404040">
                                <set attributeName="fill" to="#808080" begin="zoomminus.mouseover" end="zoomminus.mouseout"/>
                        </use>
                        <path d="M-4,0h8" fill="none" stroke="white" stroke-width="1.5" pointer-events="none"/>
                </g>
                <g id="dirArrow">
                        <path fill="none" stroke="white" stroke-width="1.5" d="M0,-3.0v7 M-2.5,-0.5L0,-3.0L2.5,-0.5"/>
                </g>
               <g id="resetDef">
                       <use xlink:href="#rim2" fill="#404040">
                               <set attributeName="fill" to="#808080" begin="reset.mouseover" end="reset.mouseout"/>
                       </use>
               </g>
        </defs>

<script type="text/javascript">
var viewWidth = 2424;
var viewHeight = 396;
var sectionId = 'dynsection-1';
</script>
<script xlink:href="svgpan.js"/>
<svg id="graph" class="graph">
<g id="viewport">
<title>drake/automotive/maliput/dragway/lane.h</title>
<polygon fill="#ffffff" stroke="transparent" points="-4,4 -4,-392 2420,-392 2420,4 -4,4"/>
<!-- Node73 -->
<g id="node1" class="node">
<title>Node73</title>
<polygon fill="#bfbfbf" stroke="#000000" points="869,-357.5 869,-387.5 1013,-387.5 1013,-357.5 869,-357.5"/>
<text text-anchor="start" x="877" y="-375.5" font-family="Helvetica,sans-Serif" font-size="10.00" fill="#000000">drake/automotive/maliput</text>
<text text-anchor="middle" x="941" y="-364.5" font-family="Helvetica,sans-Serif" font-size="10.00" fill="#000000">/dragway/lane.h</text>
</g>
<!-- Node74 -->
<g id="node2" class="node">
<title>Node74</title>
<g id="a_node2"><a xlink:href="dragway_2branch__point_8cc.html" target="_top" xlink:title="drake/automotive/maliput\l/dragway/branch_point.cc">
<polygon fill="#ffffff" stroke="#000000" points="669,-290.5 669,-320.5 813,-320.5 813,-290.5 669,-290.5"/>
<text text-anchor="start" x="677" y="-308.5" font-family="Helvetica,sans-Serif" font-size="10.00" fill="#000000">drake/automotive/maliput</text>
<text text-anchor="middle" x="741" y="-297.5" font-family="Helvetica,sans-Serif" font-size="10.00" fill="#000000">/dragway/branch_point.cc</text>
</a>
</g>
</g>
<!-- Node73&#45;&gt;Node74 -->
<g id="edge1" class="edge">
<title>Node73&#45;&gt;Node74</title>
<path fill="none" stroke="#191970" d="M886.5997,-354.2759C855.0792,-343.7165 815.8671,-330.5805 786.0797,-320.6017"/>
<polygon fill="#191970" stroke="#191970" points="885.5222,-357.6061 896.1161,-357.4639 887.7458,-350.9686 885.5222,-357.6061"/>
</g>
<!-- Node75 -->
<g id="node3" class="node">
<title>Node75</title>
<g id="a_node3"><a xlink:href="dragway_2lane_8cc.html" target="_top" xlink:title="drake/automotive/maliput\l/dragway/lane.cc">
<polygon fill="#ffffff" stroke="#000000" points="2272,-84 2272,-114 2416,-114 2416,-84 2272,-84"/>
<text text-anchor="start" x="2280" y="-102" font-family="Helvetica,sans-Serif" font-size="10.00" fill="#000000">drake/automotive/maliput</text>
<text text-anchor="middle" x="2344" y="-91" font-family="Helvetica,sans-Serif" font-size="10.00" fill="#000000">/dragway/lane.cc</text>
</a>
</g>
</g>
<!-- Node73&#45;&gt;Node75 -->
<g id="edge2" class="edge">
<title>Node73&#45;&gt;Node75</title>
<path fill="none" stroke="#191970" d="M1023.3864,-360.2551C1202.091,-333.2162 1638.3758,-264.6169 2000,-187 2103.6691,-164.7491 2223.3199,-132.6732 2290.6792,-114.0191"/>
<polygon fill="#191970" stroke="#191970" points="1022.6379,-356.8283 1013.2727,-361.7825 1023.6833,-363.7498 1022.6379,-356.8283"/>
</g>
<!-- Node76 -->
<g id="node4" class="node">
<title>Node76</title>
<g id="a_node4"><a xlink:href="dragway_2segment_8cc.html" target="_top" xlink:title="drake/automotive/maliput\l/dragway/segment.cc">
<polygon fill="#ffffff" stroke="#000000" points="869,-156.5 869,-186.5 1013,-186.5 1013,-156.5 869,-156.5"/>
<text text-anchor="start" x="877" y="-174.5" font-family="Helvetica,sans-Serif" font-size="10.00" fill="#000000">drake/automotive/maliput</text>
<text text-anchor="middle" x="941" y="-163.5" font-family="Helvetica,sans-Serif" font-size="10.00" fill="#000000">/dragway/segment.cc</text>
</a>
</g>
</g>
<!-- Node73&#45;&gt;Node76 -->
<g id="edge3" class="edge">
<title>Node73&#45;&gt;Node76</title>
<path fill="none" stroke="#191970" d="M941,-347.348C941,-305.0061 941,-220.7637 941,-186.5088"/>
<polygon fill="#191970" stroke="#191970" points="937.5001,-347.3923 941,-357.3923 944.5001,-347.3924 937.5001,-347.3923"/>
</g>
<!-- Node77 -->
<g id="node5" class="node">
<title>Node77</title>
<g id="a_node5"><a xlink:href="dragway_2segment_8h.html" target="_top" xlink:title="drake/automotive/maliput\l/dragway/segment.h">
<polygon fill="#ffffff" stroke="#000000" points="1007,-290.5 1007,-320.5 1151,-320.5 1151,-290.5 1007,-290.5"/>
<text text-anchor="start" x="1015" y="-308.5" font-family="Helvetica,sans-Serif" font-size="10.00" fill="#000000">drake/automotive/maliput</text>
<text text-anchor="middle" x="1079" y="-297.5" font-family="Helvetica,sans-Serif" font-size="10.00" fill="#000000">/dragway/segment.h</text>
</a>
</g>
</g>
<!-- Node73&#45;&gt;Node77 -->
<g id="edge4" class="edge">
<title>Node73&#45;&gt;Node77</title>
<path fill="none" stroke="#191970" d="M981.0575,-353.0518C1002.2623,-342.7567 1027.9212,-330.2991 1047.656,-320.7177"/>
<polygon fill="#191970" stroke="#191970" points="979.4371,-349.9478 971.9699,-357.4639 982.4944,-356.2448 979.4371,-349.9478"/>
</g>
<!-- Node87 -->
<g id="node15" class="node">
<title>Node87</title>
<g id="a_node15"><a xlink:href="dragway__test_8cc.html" target="_top" xlink:title="drake/automotive/maliput\l/dragway/test/dragway_test.cc">
<polygon fill="#ffffff" stroke="#000000" points="0,-84 0,-114 166,-114 166,-84 0,-84"/>
<text text-anchor="start" x="8" y="-102" font-family="Helvetica,sans-Serif" font-size="10.00" fill="#000000">drake/automotive/maliput</text>
<text text-anchor="middle" x="83" y="-91" font-family="Helvetica,sans-Serif" font-size="10.00" fill="#000000">/dragway/test/dragway_test.cc</text>
</a>
</g>
</g>
<!-- Node73&#45;&gt;Node87 -->
<g id="edge34" class="edge">
<title>Node73&#45;&gt;Node87</title>
<path fill="none" stroke="#191970" d="M915.7767,-351.029C892.732,-332.423 857.0112,-306.0383 822,-290 759.5787,-261.4054 313.8826,-153.9273 146.3987,-114.0302"/>
<polygon fill="#191970" stroke="#191970" points="913.716,-353.8654 923.6686,-357.4983 918.1538,-348.4518 913.716,-353.8654"/>
</g>
<!-- Node77&#45;&gt;Node75 -->
<g id="edge32" class="edge">
<title>Node77&#45;&gt;Node75</title>
<path fill="none" stroke="#191970" d="M1161.266,-295.4432C1354.5815,-271.1957 1852.4532,-205.1649 2263,-120 2271.3925,-118.259 2280.219,-116.2051 2288.8336,-114.075"/>
<polygon fill="#191970" stroke="#191970" points="1160.6721,-291.9902 1151.1839,-296.7045 1161.5411,-298.936 1160.6721,-291.9902"/>
</g>
<!-- Node77&#45;&gt;Node76 -->
<g id="edge33" class="edge">
<title>Node77&#45;&gt;Node76</title>
<path fill="none" stroke="#191970" d="M1040.5905,-285.3876C1026.3003,-276.8419 1010.5282,-266.0577 998,-254 976.8018,-233.5979 958.7509,-204.1789 948.9302,-186.5395"/>
<polygon fill="#191970" stroke="#191970" points="1038.8478,-288.4229 1049.2545,-290.4106 1042.3587,-282.367 1038.8478,-288.4229"/>
</g>
<!-- Node78 -->
<g id="node6" class="node">
<title>Node78</title>
<g id="a_node6"><a xlink:href="dragway_2junction_8cc.html" target="_top" xlink:title="drake/automotive/maliput\l/dragway/junction.cc">
<polygon fill="#ffffff" stroke="#000000" points="2110,-84 2110,-114 2254,-114 2254,-84 2110,-84"/>
<text text-anchor="start" x="2118" y="-102" font-family="Helvetica,sans-Serif" font-size="10.00" fill="#000000">drake/automotive/maliput</text>
<text text-anchor="middle" x="2182" y="-91" font-family="Helvetica,sans-Serif" font-size="10.00" fill="#000000">/dragway/junction.cc</text>
</a>
</g>
</g>
<!-- Node77&#45;&gt;Node78 -->
<g id="edge5" class="edge">
<title>Node77&#45;&gt;Node78</title>
<path fill="none" stroke="#191970" d="M1148.6388,-287.9709C1273.0254,-257.224 1541.9252,-193.3019 1772,-156 1917.199,-132.459 1956.3167,-146.527 2101,-120 2109.8593,-118.3757 2119.1785,-116.3064 2128.215,-114.1029"/>
<polygon fill="#191970" stroke="#191970" points="1147.7197,-284.5927 1138.8548,-290.3947 1149.403,-291.3873 1147.7197,-284.5927"/>
</g>
<!-- Node79 -->
<g id="node7" class="node">
<title>Node79</title>
<g id="a_node7"><a xlink:href="dragway_2junction_8h.html" target="_top" xlink:title="drake/automotive/maliput\l/dragway/junction.h">
<polygon fill="#ffffff" stroke="#000000" points="1007,-223.5 1007,-253.5 1151,-253.5 1151,-223.5 1007,-223.5"/>
<text text-anchor="start" x="1015" y="-241.5" font-family="Helvetica,sans-Serif" font-size="10.00" fill="#000000">drake/automotive/maliput</text>
<text text-anchor="middle" x="1079" y="-230.5" font-family="Helvetica,sans-Serif" font-size="10.00" fill="#000000">/dragway/junction.h</text>
</a>
</g>
</g>
<!-- Node77&#45;&gt;Node79 -->
<g id="edge6" class="edge">
<title>Node77&#45;&gt;Node79</title>
<path fill="none" stroke="#191970" d="M1079,-280.0249C1079,-271.128 1079,-261.4287 1079,-253.6432"/>
<polygon fill="#191970" stroke="#191970" points="1075.5001,-280.2966 1079,-290.2967 1082.5001,-280.2967 1075.5001,-280.2966"/>
</g>
<!-- Node79&#45;&gt;Node76 -->
<g id="edge30" class="edge">
<title>Node79&#45;&gt;Node76</title>
<path fill="none" stroke="#191970" d="M1038.9425,-219.0518C1017.7377,-208.7567 992.0788,-196.2991 972.344,-186.7177"/>
<polygon fill="#191970" stroke="#191970" points="1037.5056,-222.2448 1048.0301,-223.4639 1040.5629,-215.9478 1037.5056,-222.2448"/>
</g>
<!-- Node79&#45;&gt;Node78 -->
<g id="edge7" class="edge">
<title>Node79&#45;&gt;Node78</title>
<path fill="none" stroke="#191970" d="M1161.1662,-225.655C1275.6343,-208.0878 1489.6913,-176.4239 1673,-156 1862.72,-134.8618 1912.819,-152.069 2101,-120 2110.1654,-118.4381 2119.8106,-116.3446 2129.1229,-114.083"/>
<polygon fill="#191970" stroke="#191970" points="1160.4294,-222.227 1151.0776,-227.2063 1161.4934,-229.1457 1160.4294,-222.227"/>
</g>
<!-- Node80 -->
<g id="node8" class="node">
<title>Node80</title>
<g id="a_node8"><a xlink:href="dragway_2road__geometry_8cc.html" target="_top" xlink:title="drake/automotive/maliput\l/dragway/road_geometry.cc">
<polygon fill="#ffffff" stroke="#000000" points="184,-84 184,-114 336,-114 336,-84 184,-84"/>
<text text-anchor="start" x="192" y="-102" font-family="Helvetica,sans-Serif" font-size="10.00" fill="#000000">drake/automotive/maliput</text>
<text text-anchor="middle" x="260" y="-91" font-family="Helvetica,sans-Serif" font-size="10.00" fill="#000000">/dragway/road_geometry.cc</text>
</a>
</g>
</g>
<!-- Node79&#45;&gt;Node80 -->
<g id="edge8" class="edge">
<title>Node79&#45;&gt;Node80</title>
<path fill="none" stroke="#191970" d="M1078.9786,-213.4303C1077.4932,-194.4919 1072.0945,-169.5254 1055,-156 993.4895,-107.3321 427.6666,-130.9549 350,-120 339.5143,-118.521 328.4532,-116.4088 317.8104,-114.0882"/>
<polygon fill="#191970" stroke="#191970" points="1075.4856,-213.6631 1079.4554,-223.4861 1082.4777,-213.3315 1075.4856,-213.6631"/>
</g>
<!-- Node81 -->
<g id="node9" class="node">
<title>Node81</title>
<g id="a_node9"><a xlink:href="dragway_2road__geometry_8h.html" target="_top" xlink:title="drake/automotive/maliput\l/dragway/road_geometry.h">
<polygon fill="#ffffff" stroke="#000000" points="1107,-156.5 1107,-186.5 1255,-186.5 1255,-156.5 1107,-156.5"/>
<text text-anchor="start" x="1115" y="-174.5" font-family="Helvetica,sans-Serif" font-size="10.00" fill="#000000">drake/automotive/maliput</text>
<text text-anchor="middle" x="1181" y="-163.5" font-family="Helvetica,sans-Serif" font-size="10.00" fill="#000000">/dragway/road_geometry.h</text>
</a>
</g>
</g>
<!-- Node79&#45;&gt;Node81 -->
<g id="edge9" class="edge">
<title>Node79&#45;&gt;Node81</title>
<path fill="none" stroke="#191970" d="M1110.5209,-217.7951C1125.8045,-207.7558 1143.8348,-195.9124 1157.8327,-186.7177"/>
<polygon fill="#191970" stroke="#191970" points="1108.3274,-215.0484 1101.8908,-223.4639 1112.1705,-220.8991 1108.3274,-215.0484"/>
</g>
<!-- Node79&#45;&gt;Node87 -->
<g id="edge31" class="edge">
<title>Node79&#45;&gt;Node87</title>
<path fill="none" stroke="#191970" d="M1069.4813,-214.1561C1060.4411,-194.6719 1044.8176,-168.5941 1022,-156 939.5318,-110.4819 268.3586,-132.5329 175,-120 164.121,-118.5395 152.6347,-116.4051 141.6043,-114.0495"/>
<polygon fill="#191970" stroke="#191970" points="1066.2948,-215.605 1073.5026,-223.3702 1072.7104,-212.805 1066.2948,-215.605"/>
</g>
<!-- Node81&#45;&gt;Node75 -->
<g id="edge17" class="edge">
<title>Node81&#45;&gt;Node75</title>
<path fill="none" stroke="#191970" d="M1265.2716,-169.7341C1484.8915,-164.7725 2071.0519,-149.1314 2263,-120 2272.6232,-118.5395 2282.7575,-116.4051 2292.4762,-114.0495"/>
<polygon fill="#191970" stroke="#191970" points="1265.0126,-166.239 1255.0936,-169.9623 1265.1696,-173.2372 1265.0126,-166.239"/>
</g>
<!-- Node81&#45;&gt;Node78 -->
<g id="edge16" class="edge">
<title>Node81&#45;&gt;Node78</title>
<path fill="none" stroke="#191970" d="M1265.2214,-167.2378C1484.7064,-156.0696 2060.1334,-126.377 2101,-120 2110.4735,-118.5217 2120.446,-116.4099 2130.0306,-114.0894"/>
<polygon fill="#191970" stroke="#191970" points="1264.8517,-163.752 1255.0424,-167.7555 1265.2072,-170.743 1264.8517,-163.752"/>
</g>
<!-- Node81&#45;&gt;Node80 -->
<g id="edge18" class="edge">
<title>Node81&#45;&gt;Node80</title>
<path fill="none" stroke="#191970" d="M1096.3737,-156.3907C1095.2427,-156.2554 1094.1177,-156.125 1093,-156 764.439,-119.2524 677.429,-165.749 350,-120 339.3535,-118.5124 328.115,-116.3651 317.3237,-114.0052"/>
<polygon fill="#191970" stroke="#191970" points="1096.3099,-159.9118 1106.6779,-157.7312 1097.213,-152.9703 1096.3099,-159.9118"/>
</g>
<!-- Node82 -->
<g id="node10" class="node">
<title>Node82</title>
<g id="a_node10"><a xlink:href="automotive__demo_8cc.html" target="_top" xlink:title="drake/automotive/automotive\l_demo.cc">
<polygon fill="#ffffff" stroke="#000000" points="211.5,-6 211.5,-36 374.5,-36 374.5,-6 211.5,-6"/>
<text text-anchor="start" x="219.5" y="-24" font-family="Helvetica,sans-Serif" font-size="10.00" fill="#000000">drake/automotive/automotive</text>
<text text-anchor="middle" x="293" y="-13" font-family="Helvetica,sans-Serif" font-size="10.00" fill="#000000">_demo.cc</text>
</a>
</g>
</g>
<!-- Node81&#45;&gt;Node82 -->
<g id="edge10" class="edge">
<title>Node81&#45;&gt;Node82</title>
<path fill="none" stroke="#191970" d="M1096.8387,-158.1489C1090.4728,-157.3492 1084.1397,-156.6195 1078,-156 1001.0649,-148.2373 452.8431,-153.1846 383,-120 360.263,-109.1969 361.9273,-96.6318 345,-78 332.2095,-63.9215 317.6092,-47.9237 307.1422,-36.4675"/>
<polygon fill="#191970" stroke="#191970" points="1096.4765,-161.6312 1106.8459,-159.4571 1097.384,-154.6903 1096.4765,-161.6312"/>
</g>
<!-- Node83 -->
<g id="node11" class="node">
<title>Node83</title>
<g id="a_node11"><a xlink:href="create__trajectory__params_8h.html" target="_top" xlink:title="drake/automotive/create\l_trajectory_params.h">
<polygon fill="#ffffff" stroke="#000000" points="392.5,-84 392.5,-114 529.5,-114 529.5,-84 392.5,-84"/>
<text text-anchor="start" x="400.5" y="-102" font-family="Helvetica,sans-Serif" font-size="10.00" fill="#000000">drake/automotive/create</text>
<text text-anchor="middle" x="461" y="-91" font-family="Helvetica,sans-Serif" font-size="10.00" fill="#000000">_trajectory_params.h</text>
</a>
</g>
</g>
<!-- Node81&#45;&gt;Node83 -->
<g id="edge11" class="edge">
<title>Node81&#45;&gt;Node83</title>
<path fill="none" stroke="#191970" d="M1096.3705,-156.4177C1095.2406,-156.2739 1094.1166,-156.1345 1093,-156 850.2319,-126.7484 785.5301,-158.1472 544,-120 534.31,-118.4696 524.0996,-116.3324 514.2813,-114.0032"/>
<polygon fill="#191970" stroke="#191970" points="1096.2864,-159.9385 1106.6675,-157.8211 1097.2318,-153.0026 1096.2864,-159.9385"/>
</g>
<!-- Node85 -->
<g id="node13" class="node">
<title>Node85</title>
<g id="a_node13"><a xlink:href="automotive__simulator__test_8cc.html" target="_top" xlink:title="drake/automotive/test\l/automotive_simulator\l_test.cc">
<polygon fill="#ffffff" stroke="#000000" points="548,-.5 548,-41.5 676,-41.5 676,-.5 548,-.5"/>
<text text-anchor="start" x="556" y="-29.5" font-family="Helvetica,sans-Serif" font-size="10.00" fill="#000000">drake/automotive/test</text>
<text text-anchor="start" x="556" y="-18.5" font-family="Helvetica,sans-Serif" font-size="10.00" fill="#000000">/automotive_simulator</text>
<text text-anchor="middle" x="612" y="-7.5" font-family="Helvetica,sans-Serif" font-size="10.00" fill="#000000">_test.cc</text>
</a>
</g>
</g>
<!-- Node81&#45;&gt;Node85 -->
<g id="edge20" class="edge">
<title>Node81&#45;&gt;Node85</title>
<path fill="none" stroke="#191970" d="M1096.3697,-156.4243C1095.24,-156.2784 1094.1163,-156.1369 1093,-156 1035.9545,-149.0056 616.1996,-162.0298 577,-120 556.6084,-98.1362 576.7076,-63.6558 593.7874,-41.6967"/>
<polygon fill="#191970" stroke="#191970" points="1096.2806,-159.945 1106.6648,-157.8431 1097.2363,-153.0105 1096.2806,-159.945"/>
</g>
<!-- Node86 -->
<g id="node14" class="node">
<title>Node86</title>
<g id="a_node14"><a xlink:href="dragway__to__urdf_8cc.html" target="_top" xlink:title="drake/automotive/maliput\l/dragway/dragway_to_urdf.cc">
<polygon fill="#ffffff" stroke="#000000" points="586,-84 586,-114 746,-114 746,-84 586,-84"/>
<text text-anchor="start" x="594" y="-102" font-family="Helvetica,sans-Serif" font-size="10.00" fill="#000000">drake/automotive/maliput</text>
<text text-anchor="middle" x="666" y="-91" font-family="Helvetica,sans-Serif" font-size="10.00" fill="#000000">/dragway/dragway_to_urdf.cc</text>
</a>
</g>
</g>
<!-- Node81&#45;&gt;Node86 -->
<g id="edge15" class="edge">
<title>Node81&#45;&gt;Node86</title>
<path fill="none" stroke="#191970" d="M1096.3621,-156.4823C1095.2348,-156.3183 1094.1136,-156.1574 1093,-156 943.8519,-134.9232 904.5136,-145.1612 756,-120 746.192,-118.3383 735.8559,-116.2498 725.8227,-114.0386"/>
<polygon fill="#191970" stroke="#191970" points="1096.2283,-160.0018 1106.6393,-158.0365 1097.2751,-153.0805 1096.2283,-160.0018"/>
</g>
<!-- Node81&#45;&gt;Node87 -->
<g id="edge19" class="edge">
<title>Node81&#45;&gt;Node87</title>
<path fill="none" stroke="#191970" d="M1096.7559,-160.1727C1082.8269,-158.5771 1068.5223,-157.1065 1055,-156 664.8656,-124.0771 562.9994,-171.7726 175,-120 164.1198,-118.5482 152.633,-116.4179 141.6024,-114.0637"/>
<polygon fill="#191970" stroke="#191970" points="1096.4755,-163.6637 1106.8153,-161.3532 1097.2915,-156.7114 1096.4755,-163.6637"/>
</g>
<!-- Node88 -->
<g id="node16" class="node">
<title>Node88</title>
<g id="a_node16"><a xlink:href="calc__ongoing__road__position__test_8cc.html" target="_top" xlink:title="drake/automotive/test\l/calc_ongoing_road_position\l_test.cc">
<polygon fill="#ffffff" stroke="#000000" points="764.5,-78.5 764.5,-119.5 919.5,-119.5 919.5,-78.5 764.5,-78.5"/>
<text text-anchor="start" x="772.5" y="-107.5" font-family="Helvetica,sans-Serif" font-size="10.00" fill="#000000">drake/automotive/test</text>
<text text-anchor="start" x="772.5" y="-96.5" font-family="Helvetica,sans-Serif" font-size="10.00" fill="#000000">/calc_ongoing_road_position</text>
<text text-anchor="middle" x="842" y="-85.5" font-family="Helvetica,sans-Serif" font-size="10.00" fill="#000000">_test.cc</text>
</a>
</g>
</g>
<!-- Node81&#45;&gt;Node88 -->
<g id="edge21" class="edge">
<title>Node81&#45;&gt;Node88</title>
<path fill="none" stroke="#191970" d="M1097.0374,-155.1113C1047.9568,-145.3391 984.8636,-132.4464 929,-120 925.9668,-119.3242 922.8765,-118.6258 919.7566,-117.9125"/>
<polygon fill="#191970" stroke="#191970" points="1096.4846,-158.5698 1106.975,-157.0854 1097.8486,-151.704 1096.4846,-158.5698"/>
</g>
<!-- Node89 -->
<g id="node17" class="node">
<title>Node89</title>
<g id="a_node17"><a xlink:href="idm__controller__test_8cc.html" target="_top" xlink:title="drake/automotive/test\l/idm_controller_test.cc">
<polygon fill="#ffffff" stroke="#000000" points="938,-84 938,-114 1066,-114 1066,-84 938,-84"/>
<text text-anchor="start" x="946" y="-102" font-family="Helvetica,sans-Serif" font-size="10.00" fill="#000000">drake/automotive/test</text>
<text text-anchor="middle" x="1002" y="-91" font-family="Helvetica,sans-Serif" font-size="10.00" fill="#000000">/idm_controller_test.cc</text>
</a>
</g>
</g>
<!-- Node81&#45;&gt;Node89 -->
<g id="edge22" class="edge">
<title>Node81&#45;&gt;Node89</title>
<path fill="none" stroke="#191970" d="M1134.5706,-152.6948C1104.8271,-140.6478 1066.7503,-125.2257 1039.0414,-114.0028"/>
<polygon fill="#191970" stroke="#191970" points="1133.3285,-155.9679 1143.9111,-156.478 1135.9564,-149.4798 1133.3285,-155.9679"/>
</g>
<!-- Node90 -->
<g id="node18" class="node">
<title>Node90</title>
<g id="a_node18"><a xlink:href="maliput__railcar__test_8cc.html" target="_top" xlink:title="drake/automotive/test\l/maliput_railcar_test.cc">
<polygon fill="#ffffff" stroke="#000000" points="1084.5,-84 1084.5,-114 1215.5,-114 1215.5,-84 1084.5,-84"/>
<text text-anchor="start" x="1092.5" y="-102" font-family="Helvetica,sans-Serif" font-size="10.00" fill="#000000">drake/automotive/test</text>
<text text-anchor="middle" x="1150" y="-91" font-family="Helvetica,sans-Serif" font-size="10.00" fill="#000000">/maliput_railcar_test.cc</text>
</a>
</g>
</g>
<!-- Node81&#45;&gt;Node90 -->
<g id="edge23" class="edge">
<title>Node81&#45;&gt;Node90</title>
<path fill="none" stroke="#191970" d="M1170.5296,-147.0128C1165.851,-136.0709 1160.4867,-123.5252 1156.415,-114.0028"/>
<polygon fill="#191970" stroke="#191970" points="1167.427,-148.6593 1174.5768,-156.478 1173.8633,-145.9072 1167.427,-148.6593"/>
</g>
<!-- Node91 -->
<g id="node19" class="node">
<title>Node91</title>
<g id="a_node19"><a xlink:href="mobil__planner__test_8cc.html" target="_top" xlink:title="drake/automotive/test\l/mobil_planner_test.cc">
<polygon fill="#ffffff" stroke="#000000" points="1233.5,-84 1233.5,-114 1360.5,-114 1360.5,-84 1233.5,-84"/>
<text text-anchor="start" x="1241.5" y="-102" font-family="Helvetica,sans-Serif" font-size="10.00" fill="#000000">drake/automotive/test</text>
<text text-anchor="middle" x="1297" y="-91" font-family="Helvetica,sans-Serif" font-size="10.00" fill="#000000">/mobil_planner_test.cc</text>
</a>
</g>
</g>
<!-- Node81&#45;&gt;Node91 -->
<g id="edge24" class="edge">
<title>Node81&#45;&gt;Node91</title>
<path fill="none" stroke="#191970" d="M1213.621,-151.1119C1232.4873,-139.3205 1255.8163,-124.7398 1272.9955,-114.0028"/>
<polygon fill="#191970" stroke="#191970" points="1211.6603,-148.2099 1205.0353,-156.478 1215.3703,-154.1459 1211.6603,-148.2099"/>
</g>
<!-- Node92 -->
<g id="node20" class="node">
<title>Node92</title>
<g id="a_node20"><a xlink:href="pose__selector__test_8cc.html" target="_top" xlink:title="drake/automotive/test\l/pose_selector_test.cc">
<polygon fill="#ffffff" stroke="#000000" points="1378.5,-84 1378.5,-114 1503.5,-114 1503.5,-84 1378.5,-84"/>
<text text-anchor="start" x="1386.5" y="-102" font-family="Helvetica,sans-Serif" font-size="10.00" fill="#000000">drake/automotive/test</text>
<text text-anchor="middle" x="1441" y="-91" font-family="Helvetica,sans-Serif" font-size="10.00" fill="#000000">/pose_selector_test.cc</text>
</a>
</g>
</g>
<!-- Node81&#45;&gt;Node92 -->
<g id="edge25" class="edge">
<title>Node81&#45;&gt;Node92</title>
<path fill="none" stroke="#191970" d="M1247.2989,-153.8092C1283.5937,-144.0303 1329.3321,-131.5536 1370,-120 1376.6771,-118.1031 1383.6964,-116.072 1390.6164,-114.0478"/>
<polygon fill="#191970" stroke="#191970" points="1246.0716,-150.5148 1237.3243,-156.4928 1247.8903,-157.2745 1246.0716,-150.5148"/>
</g>
<!-- Node93 -->
<g id="node21" class="node">
<title>Node93</title>
<g id="a_node21"><a xlink:href="pure__pursuit__controller__test_8cc.html" target="_top" xlink:title="drake/automotive/test\l/pure_pursuit_controller\l_test.cc">
<polygon fill="#ffffff" stroke="#000000" points="1522,-78.5 1522,-119.5 1654,-119.5 1654,-78.5 1522,-78.5"/>
<text text-anchor="start" x="1530" y="-107.5" font-family="Helvetica,sans-Serif" font-size="10.00" fill="#000000">drake/automotive/test</text>
<text text-anchor="start" x="1530" y="-96.5" font-family="Helvetica,sans-Serif" font-size="10.00" fill="#000000">/pure_pursuit_controller</text>
<text text-anchor="middle" x="1588" y="-85.5" font-family="Helvetica,sans-Serif" font-size="10.00" fill="#000000">_test.cc</text>
</a>
</g>
</g>
<!-- Node81&#45;&gt;Node93 -->
<g id="edge26" class="edge">
<title>Node81&#45;&gt;Node93</title>
<path fill="none" stroke="#191970" d="M1265.4522,-161.2254C1332.8582,-152.347 1429.4995,-138.099 1513,-120 1515.9072,-119.3698 1518.8687,-118.6929 1521.8536,-117.9819"/>
<polygon fill="#191970" stroke="#191970" points="1264.7709,-157.7846 1255.3083,-162.5501 1265.6774,-164.7257 1264.7709,-157.7846"/>
</g>
<!-- Node94 -->
<g id="node22" class="node">
<title>Node94</title>
<g id="a_node22"><a xlink:href="pure__pursuit__test_8cc.html" target="_top" xlink:title="drake/automotive/test\l/pure_pursuit_test.cc">
<polygon fill="#ffffff" stroke="#000000" points="1672.5,-84 1672.5,-114 1797.5,-114 1797.5,-84 1672.5,-84"/>
<text text-anchor="start" x="1680.5" y="-102" font-family="Helvetica,sans-Serif" font-size="10.00" fill="#000000">drake/automotive/test</text>
<text text-anchor="middle" x="1735" y="-91" font-family="Helvetica,sans-Serif" font-size="10.00" fill="#000000">/pure_pursuit_test.cc</text>
</a>
</g>
</g>
<!-- Node81&#45;&gt;Node94 -->
<g id="edge27" class="edge">
<title>Node81&#45;&gt;Node94</title>
<path fill="none" stroke="#191970" d="M1265.1201,-167.0442C1361.8477,-160.8764 1525.0531,-147.2628 1663,-120 1671.0475,-118.4096 1679.4945,-116.3301 1687.6572,-114.0986"/>
<polygon fill="#191970" stroke="#191970" points="1264.8663,-163.5532 1255.1046,-167.6713 1265.3038,-170.5395 1264.8663,-163.5532"/>
</g>
<!-- Node95 -->
<g id="node23" class="node">
<title>Node95</title>
<g id="a_node23"><a xlink:href="road__path__test_8cc.html" target="_top" xlink:title="drake/automotive/test\l/road_path_test.cc">
<polygon fill="#ffffff" stroke="#000000" points="1815.5,-84 1815.5,-114 1940.5,-114 1940.5,-84 1815.5,-84"/>
<text text-anchor="start" x="1823.5" y="-102" font-family="Helvetica,sans-Serif" font-size="10.00" fill="#000000">drake/automotive/test</text>
<text text-anchor="middle" x="1878" y="-91" font-family="Helvetica,sans-Serif" font-size="10.00" fill="#000000">/road_path_test.cc</text>
</a>
</g>
</g>
<!-- Node81&#45;&gt;Node95 -->
<g id="edge28" class="edge">
<title>Node81&#45;&gt;Node95</title>
<path fill="none" stroke="#191970" d="M1265.3269,-166.7176C1411.3657,-158.075 1705.4622,-138.9839 1807,-120 1815.213,-118.4645 1823.8325,-116.3549 1832.1228,-114.0617"/>
<polygon fill="#191970" stroke="#191970" points="1264.8495,-163.2395 1255.0726,-167.3217 1265.2612,-170.2274 1264.8495,-163.2395"/>
</g>
<!-- Node96 -->
<g id="node24" class="node">
<title>Node96</title>
<g id="a_node24"><a xlink:href="dragway__py_8cc.html" target="_top" xlink:title="drake/bindings/pydrake\l/maliput/dragway_py.cc">
<polygon fill="#ffffff" stroke="#000000" points="1958.5,-84 1958.5,-114 2091.5,-114 2091.5,-84 1958.5,-84"/>
<text text-anchor="start" x="1966.5" y="-102" font-family="Helvetica,sans-Serif" font-size="10.00" fill="#000000">drake/bindings/pydrake</text>
<text text-anchor="middle" x="2025" y="-91" font-family="Helvetica,sans-Serif" font-size="10.00" fill="#000000">/maliput/dragway_py.cc</text>
</a>
</g>
</g>
<!-- Node81&#45;&gt;Node96 -->
<g id="edge29" class="edge">
<title>Node81&#45;&gt;Node96</title>
<path fill="none" stroke="#191970" d="M1265.2945,-166.8393C1450.9622,-156.4314 1883.9975,-131.3257 1950,-120 1958.7957,-118.4907 1968.0412,-116.3638 1976.9199,-114.0381"/>
<polygon fill="#191970" stroke="#191970" points="1265.0901,-163.3452 1255.3014,-167.3987 1265.4814,-170.3343 1265.0901,-163.3452"/>
</g>
<!-- Node83&#45;&gt;Node82 -->
<g id="edge12" class="edge">
<title>Node83&#45;&gt;Node82</title>
<path fill="none" stroke="#191970" d="M419.1686,-79.5783C390.2291,-66.1421 352.2734,-48.5198 325.5788,-36.1259"/>
<polygon fill="#191970" stroke="#191970" points="418.0639,-82.9242 428.6079,-83.9608 421.0117,-76.5751 418.0639,-82.9242"/>
</g>
<!-- Node84 -->
<g id="node12" class="node">
<title>Node84</title>
<g id="a_node12"><a xlink:href="create__trajectory__params_8cc.html" target="_top" xlink:title="drake/automotive/create\l_trajectory_params.cc">
<polygon fill="#ffffff" stroke="#000000" points="392.5,-6 392.5,-36 529.5,-36 529.5,-6 392.5,-6"/>
<text text-anchor="start" x="400.5" y="-24" font-family="Helvetica,sans-Serif" font-size="10.00" fill="#000000">drake/automotive/create</text>
<text text-anchor="middle" x="461" y="-13" font-family="Helvetica,sans-Serif" font-size="10.00" fill="#000000">_trajectory_params.cc</text>
</a>
</g>
</g>
<!-- Node83&#45;&gt;Node84 -->
<g id="edge13" class="edge">
<title>Node83&#45;&gt;Node84</title>
<path fill="none" stroke="#191970" d="M461,-73.7875C461,-61.4187 461,-46.9264 461,-36.2592"/>
<polygon fill="#191970" stroke="#191970" points="457.5001,-73.9608 461,-83.9608 464.5001,-73.9608 457.5001,-73.9608"/>
</g>
<!-- Node83&#45;&gt;Node85 -->
<g id="edge14" class="edge">
<title>Node83&#45;&gt;Node85</title>
<path fill="none" stroke="#191970" d="M499.2745,-79.2291C521.5484,-67.7234 549.5876,-53.2395 572.129,-41.5956"/>
<polygon fill="#191970" stroke="#191970" points="497.3927,-76.2617 490.1143,-83.9608 500.6053,-82.481 497.3927,-76.2617"/>
</g>
</g>
</svg>
        <g id="navigator" transform="translate(0 0)" fill="#404254">
                <rect fill="#f2f5e9" fill-opacity="0.5" stroke="#606060" stroke-width=".5" x="0" y="0" width="60" height="60"/>
                <use id="zoomplus" xlink:href="#zoomPlus" x="17" y="9" onmousedown="handleZoom(evt,'in')"/>
                <use id="zoomminus" xlink:href="#zoomMin" x="42" y="9" onmousedown="handleZoom(evt,'out')"/>
                <use id="reset" xlink:href="#resetDef" x="30" y="36" onmousedown="handleReset()"/>
                <g id="arrowUp" xlink:href="#dirArrow" transform="translate(30 24)" onmousedown="handlePan(0,-1)">
                  <use xlink:href="#rim" fill="#404040">
                        <set attributeName="fill" to="#808080" begin="arrowUp.mouseover" end="arrowUp.mouseout"/>
                  </use>
                  <path fill="none" stroke="white" stroke-width="1.5" d="M0,-3.0v7 M-2.5,-0.5L0,-3.0L2.5,-0.5"/>
                </g>
                <g id="arrowRight" xlink:href="#dirArrow" transform="rotate(90) translate(36 -43)" onmousedown="handlePan(1,0)">
                  <use xlink:href="#rim" fill="#404040">
                        <set attributeName="fill" to="#808080" begin="arrowRight.mouseover" end="arrowRight.mouseout"/>
                  </use>
                  <path fill="none" stroke="white" stroke-width="1.5" d="M0,-3.0v7 M-2.5,-0.5L0,-3.0L2.5,-0.5"/>
                </g>
                <g id="arrowDown" xlink:href="#dirArrow" transform="rotate(180) translate(-30 -48)" onmousedown="handlePan(0,1)">
                  <use xlink:href="#rim" fill="#404040">
                        <set attributeName="fill" to="#808080" begin="arrowDown.mouseover" end="arrowDown.mouseout"/>
                  </use>
                  <path fill="none" stroke="white" stroke-width="1.5" d="M0,-3.0v7 M-2.5,-0.5L0,-3.0L2.5,-0.5"/>
                </g>
                <g id="arrowLeft" xlink:href="#dirArrow" transform="rotate(270) translate(-36 17)" onmousedown="handlePan(-1,0)">
                  <use xlink:href="#rim" fill="#404040">
                        <set attributeName="fill" to="#808080" begin="arrowLeft.mouseover" end="arrowLeft.mouseout"/>
                  </use>
                  <path fill="none" stroke="white" stroke-width="1.5" d="M0,-3.0v7 M-2.5,-0.5L0,-3.0L2.5,-0.5"/>
                </g>
        </g>
        <svg viewBox="0 0 15 15" width="100%" height="30px" preserveAspectRatio="xMaxYMin meet">
         <g id="arrow_out" transform="scale(0.3 0.3)">
          <a xlink:href="dragway_2lane_8h__dep__incl_org.svg" target="_base">
           <rect id="button" ry="5" rx="5" y="6" x="6" height="38" width="38"
                fill="#f2f5e9" fill-opacity="0.5" stroke="#606060" stroke-width="1.0"/>
           <path id="arrow"
             d="M 11.500037,31.436501 C 11.940474,20.09759 22.043105,11.32322 32.158766,21.979434 L 37.068811,17.246167 C 37.068811,17.246167 37.088388,32 37.088388,32 L 22.160133,31.978069 C 22.160133,31.978069 26.997745,27.140456 26.997745,27.140456 C 18.528582,18.264221 13.291696,25.230495 11.500037,31.436501 z"
             style="fill:#404040;"/>
          </a>
         </g>
        </svg>
</svg>
