<?xml version="1.0" encoding="UTF-8" standalone="no"?>
<!DOCTYPE svg PUBLIC "-//W3C//DTD SVG 1.1//EN"
 "http://www.w3.org/Graphics/SVG/1.1/DTD/svg11.dtd">
<!-- Generated by graphviz version 2.40.1 (20161225.0304)
 -->
<!-- Title: drake/automotive/maliput/dragway/junction.h Pages: 1 -->
<!--zoomable 262 -->
<svg id="main" version="1.1" xmlns="http://www.w3.org/2000/svg" xmlns:xlink="http://www.w3.org/1999/xlink" xml:space="preserve" onload="init(evt)">
<style type="text/css"><![CDATA[
.edge:hover path { stroke: red; }
.edge:hover polygon { stroke: red; fill: red; }
]]></style>
<script type="text/javascript"><![CDATA[
var edges = document.getElementsByTagName('g');
if (edges && edges.length) {
  for (var i=0;i<edges.length;i++) {
    if (edges[i].id.substr(0,4)=='edge') {
      edges[i].setAttribute('class','edge');
    }
  }
}
]]></script>
        <defs>
                <circle id="rim" cx="0" cy="0" r="7"/>
                <circle id="rim2" cx="0" cy="0" r="3.5"/>
                <g id="zoomPlus">
                        <use xlink:href="#rim" fill="#404040">
                                <set attributeName="fill" to="#808080" begin="zoomplus.mouseover" end="zoomplus.mouseout"/>
                        </use>
                        <path d="M-4,0h8M0,-4v8" fill="none" stroke="white" stroke-width="1.5" pointer-events="none"/>
                </g>
                <g id="zoomMin">
                        <use xlink:href="#rim" fill="#404040">
                                <set attributeName="fill" to="#808080" begin="zoomminus.mouseover" end="zoomminus.mouseout"/>
                        </use>
                        <path d="M-4,0h8" fill="none" stroke="white" stroke-width="1.5" pointer-events="none"/>
                </g>
                <g id="dirArrow">
                        <path fill="none" stroke="white" stroke-width="1.5" d="M0,-3.0v7 M-2.5,-0.5L0,-3.0L2.5,-0.5"/>
                </g>
               <g id="resetDef">
                       <use xlink:href="#rim2" fill="#404040">
                               <set attributeName="fill" to="#808080" begin="reset.mouseover" end="reset.mouseout"/>
                       </use>
               </g>
        </defs>

<script type="text/javascript">
var viewWidth = 2425;
var viewHeight = 262;
var sectionId = 'dynsection-1';
</script>
<script xlink:href="svgpan.js"/>
<svg id="graph" class="graph">
<g id="viewport">
<title>drake/automotive/maliput/dragway/junction.h</title>
<polygon fill="#ffffff" stroke="transparent" points="-4,4 -4,-258 2420.5,-258 2420.5,4 -4,4"/>
<!-- Node79 -->
<g id="node1" class="node">
<title>Node79</title>
<polygon fill="#bfbfbf" stroke="#000000" points="343,-223.5 343,-253.5 487,-253.5 487,-223.5 343,-223.5"/>
<text text-anchor="start" x="351" y="-241.5" font-family="Helvetica,sans-Serif" font-size="10.00" fill="#000000">drake/automotive/maliput</text>
<text text-anchor="middle" x="415" y="-230.5" font-family="Helvetica,sans-Serif" font-size="10.00" fill="#000000">/dragway/junction.h</text>
</g>
<!-- Node80 -->
<g id="node2" class="node">
<title>Node80</title>
<g id="a_node2"><a xlink:href="dragway_2junction_8cc.html" target="_top" xlink:title="drake/automotive/maliput\l/dragway/junction.cc">
<polygon fill="#ffffff" stroke="#000000" points="0,-84 0,-114 144,-114 144,-84 0,-84"/>
<text text-anchor="start" x="8" y="-102" font-family="Helvetica,sans-Serif" font-size="10.00" fill="#000000">drake/automotive/maliput</text>
<text text-anchor="middle" x="72" y="-91" font-family="Helvetica,sans-Serif" font-size="10.00" fill="#000000">/dragway/junction.cc</text>
</a>
</g>
</g>
<!-- Node79&#45;&gt;Node80 -->
<g id="edge1" class="edge">
<title>Node79&#45;&gt;Node80</title>
<path fill="none" stroke="#191970" d="M368.6673,-219.6562C299.8952,-191.6862 172.1617,-139.7363 109.1379,-114.1042"/>
<polygon fill="#191970" stroke="#191970" points="367.3853,-222.9132 377.9671,-223.4385 370.0225,-216.4289 367.3853,-222.9132"/>
</g>
<!-- Node81 -->
<g id="node3" class="node">
<title>Node81</title>
<g id="a_node3"><a xlink:href="dragway_2road__geometry_8cc.html" target="_top" xlink:title="drake/automotive/maliput\l/dragway/road_geometry.cc">
<polygon fill="#ffffff" stroke="#000000" points="162,-84 162,-114 314,-114 314,-84 162,-84"/>
<text text-anchor="start" x="170" y="-102" font-family="Helvetica,sans-Serif" font-size="10.00" fill="#000000">drake/automotive/maliput</text>
<text text-anchor="middle" x="238" y="-91" font-family="Helvetica,sans-Serif" font-size="10.00" fill="#000000">/dragway/road_geometry.cc</text>
</a>
</g>
</g>
<!-- Node79&#45;&gt;Node81 -->
<g id="edge2" class="edge">
<title>Node79&#45;&gt;Node81</title>
<path fill="none" stroke="#191970" d="M387.5693,-216.8809C351.4256,-188.3947 288.7601,-139.0059 257.2553,-114.1758"/>
<polygon fill="#191970" stroke="#191970" points="385.7005,-219.8644 395.721,-223.3055 390.0335,-214.3666 385.7005,-219.8644"/>
</g>
<!-- Node82 -->
<g id="node4" class="node">
<title>Node82</title>
<g id="a_node4"><a xlink:href="dragway_2road__geometry_8h.html" target="_top" xlink:title="drake/automotive/maliput\l/dragway/road_geometry.h">
<polygon fill="#ffffff" stroke="#000000" points="1089,-156.5 1089,-186.5 1237,-186.5 1237,-156.5 1089,-156.5"/>
<text text-anchor="start" x="1097" y="-174.5" font-family="Helvetica,sans-Serif" font-size="10.00" fill="#000000">drake/automotive/maliput</text>
<text text-anchor="middle" x="1163" y="-163.5" font-family="Helvetica,sans-Serif" font-size="10.00" fill="#000000">/dragway/road_geometry.h</text>
</a>
</g>
</g>
<!-- Node79&#45;&gt;Node82 -->
<g id="edge3" class="edge">
<title>Node79&#45;&gt;Node82</title>
<path fill="none" stroke="#191970" d="M497.344,-231.1243C644.0079,-217.9873 948.2384,-190.7367 1088.8182,-178.1446"/>
<polygon fill="#191970" stroke="#191970" points="496.7087,-227.6671 487.0609,-232.0453 497.3333,-234.6392 496.7087,-227.6671"/>
</g>
<!-- Node89 -->
<g id="node11" class="node">
<title>Node89</title>
<g id="a_node11"><a xlink:href="dragway__test_8cc.html" target="_top" xlink:title="drake/automotive/maliput\l/dragway/test/dragway_test.cc">
<polygon fill="#ffffff" stroke="#000000" points="332,-84 332,-114 498,-114 498,-84 332,-84"/>
<text text-anchor="start" x="340" y="-102" font-family="Helvetica,sans-Serif" font-size="10.00" fill="#000000">drake/automotive/maliput</text>
<text text-anchor="middle" x="415" y="-91" font-family="Helvetica,sans-Serif" font-size="10.00" fill="#000000">/dragway/test/dragway_test.cc</text>
</a>
</g>
</g>
<!-- Node79&#45;&gt;Node89 -->
<g id="edge25" class="edge">
<title>Node79&#45;&gt;Node89</title>
<path fill="none" stroke="#191970" d="M415,-213.1668C415,-184.2706 415,-137.9582 415,-114.1758"/>
<polygon fill="#191970" stroke="#191970" points="411.5001,-213.3055 415,-223.3055 418.5001,-213.3055 411.5001,-213.3055"/>
</g>
<!-- Node99 -->
<g id="node21" class="node">
<title>Node99</title>
<g id="a_node21"><a xlink:href="dragway_2segment_8cc.html" target="_top" xlink:title="drake/automotive/maliput\l/dragway/segment.cc">
<polygon fill="#ffffff" stroke="#000000" points="1255,-156.5 1255,-186.5 1399,-186.5 1399,-156.5 1255,-156.5"/>
<text text-anchor="start" x="1263" y="-174.5" font-family="Helvetica,sans-Serif" font-size="10.00" fill="#000000">drake/automotive/maliput</text>
<text text-anchor="middle" x="1327" y="-163.5" font-family="Helvetica,sans-Serif" font-size="10.00" fill="#000000">/dragway/segment.cc</text>
</a>
</g>
</g>
<!-- Node79&#45;&gt;Node99 -->
<g id="edge24" class="edge">
<title>Node79&#45;&gt;Node99</title>
<path fill="none" stroke="#191970" d="M497.2905,-236.8648C646.8825,-233.1229 973.1553,-221.4183 1246,-187 1248.841,-186.6416 1251.7325,-186.2446 1254.6492,-185.8172"/>
<polygon fill="#191970" stroke="#191970" points="497.1729,-233.3665 487.2616,-237.1102 497.3443,-240.3644 497.1729,-233.3665"/>
</g>
<!-- Node82&#45;&gt;Node80 -->
<g id="edge10" class="edge">
<title>Node82&#45;&gt;Node80</title>
<path fill="none" stroke="#191970" d="M1078.8208,-169.405C869.6843,-163.8466 330.5759,-147.2577 153,-120 143.3793,-118.5232 133.2462,-116.381 123.5279,-114.0229"/>
<polygon fill="#191970" stroke="#191970" points="1078.7385,-172.904 1088.8274,-169.6692 1078.9233,-165.9064 1078.7385,-172.904"/>
</g>
<!-- Node82&#45;&gt;Node81 -->
<g id="edge12" class="edge">
<title>Node82&#45;&gt;Node81</title>
<path fill="none" stroke="#191970" d="M1078.6309,-168.2711C895.5796,-160.9484 466.8752,-141.9979 323,-120 313.0828,-118.4837 302.6295,-116.3534 292.5756,-114.0266"/>
<polygon fill="#191970" stroke="#191970" points="1078.6145,-171.7732 1088.7459,-168.6739 1078.8931,-164.7787 1078.6145,-171.7732"/>
</g>
<!-- Node83 -->
<g id="node5" class="node">
<title>Node83</title>
<g id="a_node5"><a xlink:href="automotive__demo_8cc.html" target="_top" xlink:title="drake/automotive/automotive\l_demo.cc">
<polygon fill="#ffffff" stroke="#000000" points="1105.5,-6 1105.5,-36 1268.5,-36 1268.5,-6 1105.5,-6"/>
<text text-anchor="start" x="1113.5" y="-24" font-family="Helvetica,sans-Serif" font-size="10.00" fill="#000000">drake/automotive/automotive</text>
<text text-anchor="middle" x="1187" y="-13" font-family="Helvetica,sans-Serif" font-size="10.00" fill="#000000">_demo.cc</text>
</a>
</g>
</g>
<!-- Node82&#45;&gt;Node83 -->
<g id="edge4" class="edge">
<title>Node82&#45;&gt;Node83</title>
<path fill="none" stroke="#191970" d="M1207.3573,-151.1431C1219.5053,-143.2467 1231.1916,-132.9341 1238,-120 1246.6949,-103.482 1244.6622,-95.4373 1238,-78 1231.6495,-61.3784 1217.9738,-46.5403 1206.3815,-36.1727"/>
<polygon fill="#191970" stroke="#191970" points="1205.2625,-148.3185 1198.4931,-156.4687 1208.8676,-154.3188 1205.2625,-148.3185"/>
</g>
<!-- Node84 -->
<g id="node6" class="node">
<title>Node84</title>
<g id="a_node6"><a xlink:href="create__trajectory__params_8h.html" target="_top" xlink:title="drake/automotive/create\l_trajectory_params.h">
<polygon fill="#ffffff" stroke="#000000" points="1286.5,-84 1286.5,-114 1423.5,-114 1423.5,-84 1286.5,-84"/>
<text text-anchor="start" x="1294.5" y="-102" font-family="Helvetica,sans-Serif" font-size="10.00" fill="#000000">drake/automotive/create</text>
<text text-anchor="middle" x="1355" y="-91" font-family="Helvetica,sans-Serif" font-size="10.00" fill="#000000">_trajectory_params.h</text>
</a>
</g>
</g>
<!-- Node82&#45;&gt;Node84 -->
<g id="edge5" class="edge">
<title>Node82&#45;&gt;Node84</title>
<path fill="none" stroke="#191970" d="M1212.3875,-152.8511C1244.3512,-140.7814 1285.4185,-125.2743 1315.2684,-114.0028"/>
<polygon fill="#191970" stroke="#191970" points="1210.9014,-149.671 1202.7825,-156.478 1213.3742,-156.2196 1210.9014,-149.671"/>
</g>
<!-- Node86 -->
<g id="node8" class="node">
<title>Node86</title>
<g id="a_node8"><a xlink:href="automotive__simulator__test_8cc.html" target="_top" xlink:title="drake/automotive/test\l/automotive_simulator\l_test.cc">
<polygon fill="#ffffff" stroke="#000000" points="1442,-.5 1442,-41.5 1570,-41.5 1570,-.5 1442,-.5"/>
<text text-anchor="start" x="1450" y="-29.5" font-family="Helvetica,sans-Serif" font-size="10.00" fill="#000000">drake/automotive/test</text>
<text text-anchor="start" x="1450" y="-18.5" font-family="Helvetica,sans-Serif" font-size="10.00" fill="#000000">/automotive_simulator</text>
<text text-anchor="middle" x="1506" y="-7.5" font-family="Helvetica,sans-Serif" font-size="10.00" fill="#000000">_test.cc</text>
</a>
</g>
</g>
<!-- Node82&#45;&gt;Node86 -->
<g id="edge14" class="edge">
<title>Node82&#45;&gt;Node86</title>
<path fill="none" stroke="#191970" d="M1247.0427,-155.7784C1325.2135,-141.1001 1429.9826,-121.2621 1432,-120 1447.8268,-110.0986 1476.3252,-67.9214 1492.9581,-41.9175"/>
<polygon fill="#191970" stroke="#191970" points="1246.3514,-152.3469 1237.1687,-157.6316 1247.6427,-159.2268 1246.3514,-152.3469"/>
</g>
<!-- Node87 -->
<g id="node9" class="node">
<title>Node87</title>
<g id="a_node9"><a xlink:href="dragway__to__urdf_8cc.html" target="_top" xlink:title="drake/automotive/maliput\l/dragway/dragway_to_urdf.cc">
<polygon fill="#ffffff" stroke="#000000" points="1480,-84 1480,-114 1640,-114 1640,-84 1480,-84"/>
<text text-anchor="start" x="1488" y="-102" font-family="Helvetica,sans-Serif" font-size="10.00" fill="#000000">drake/automotive/maliput</text>
<text text-anchor="middle" x="1560" y="-91" font-family="Helvetica,sans-Serif" font-size="10.00" fill="#000000">/dragway/dragway_to_urdf.cc</text>
</a>
</g>
</g>
<!-- Node82&#45;&gt;Node87 -->
<g id="edge9" class="edge">
<title>Node82&#45;&gt;Node87</title>
<path fill="none" stroke="#191970" d="M1247.235,-155.8119C1345.287,-138.8792 1371.8584,-138.2026 1466,-120 1475.4402,-118.1747 1485.3819,-116.1099 1495.1235,-114.0053"/>
<polygon fill="#191970" stroke="#191970" points="1246.4486,-152.396 1237.1968,-157.5587 1247.6488,-159.2924 1246.4486,-152.396"/>
</g>
<!-- Node88 -->
<g id="node10" class="node">
<title>Node88</title>
<g id="a_node10"><a xlink:href="dragway_2lane_8cc.html" target="_top" xlink:title="drake/automotive/maliput\l/dragway/lane.cc">
<polygon fill="#ffffff" stroke="#000000" points="1658,-84 1658,-114 1802,-114 1802,-84 1658,-84"/>
<text text-anchor="start" x="1666" y="-102" font-family="Helvetica,sans-Serif" font-size="10.00" fill="#000000">drake/automotive/maliput</text>
<text text-anchor="middle" x="1730" y="-91" font-family="Helvetica,sans-Serif" font-size="10.00" fill="#000000">/dragway/lane.cc</text>
</a>
</g>
</g>
<!-- Node82&#45;&gt;Node88 -->
<g id="edge11" class="edge">
<title>Node82&#45;&gt;Node88</title>
<path fill="none" stroke="#191970" d="M1247.1543,-155.9328C1425.9075,-132.1441 1475.0113,-150.1143 1649,-120 1658.1613,-118.4143 1667.8045,-116.309 1677.116,-114.0429"/>
<polygon fill="#191970" stroke="#191970" points="1246.5935,-152.4767 1237.1546,-157.2888 1247.5342,-159.4132 1246.5935,-152.4767"/>
</g>
<!-- Node82&#45;&gt;Node89 -->
<g id="edge13" class="edge">
<title>Node82&#45;&gt;Node89</title>
<path fill="none" stroke="#191970" d="M1078.5207,-168.8121C953.1625,-163.9339 710.7622,-151.0835 507,-120 496.6348,-118.4188 485.7021,-116.3157 475.1337,-114.0505"/>
<polygon fill="#191970" stroke="#191970" points="1078.6859,-172.3209 1088.8121,-169.2049 1078.9529,-165.326 1078.6859,-172.3209"/>
</g>
<!-- Node90 -->
<g id="node12" class="node">
<title>Node90</title>
<g id="a_node12"><a xlink:href="calc__ongoing__road__position__test_8cc.html" target="_top" xlink:title="drake/automotive/test\l/calc_ongoing_road_position\l_test.cc">
<polygon fill="#ffffff" stroke="#000000" points="1820.5,-78.5 1820.5,-119.5 1975.5,-119.5 1975.5,-78.5 1820.5,-78.5"/>
<text text-anchor="start" x="1828.5" y="-107.5" font-family="Helvetica,sans-Serif" font-size="10.00" fill="#000000">drake/automotive/test</text>
<text text-anchor="start" x="1828.5" y="-96.5" font-family="Helvetica,sans-Serif" font-size="10.00" fill="#000000">/calc_ongoing_road_position</text>
<text text-anchor="middle" x="1898" y="-85.5" font-family="Helvetica,sans-Serif" font-size="10.00" fill="#000000">_test.cc</text>
</a>
</g>
</g>
<!-- Node82&#45;&gt;Node90 -->
<g id="edge15" class="edge">
<title>Node82&#45;&gt;Node90</title>
<path fill="none" stroke="#191970" d="M1247.2685,-155.9488C1497.4703,-125.7006 1565.494,-157.1648 1811,-120 1814.0726,-119.5349 1817.1961,-119.0142 1820.3438,-118.4496"/>
<polygon fill="#191970" stroke="#191970" points="1246.64,-152.4996 1237.1422,-157.1945 1247.4947,-159.4472 1246.64,-152.4996"/>
</g>
<!-- Node91 -->
<g id="node13" class="node">
<title>Node91</title>
<g id="a_node13"><a xlink:href="idm__controller__test_8cc.html" target="_top" xlink:title="drake/automotive/test\l/idm_controller_test.cc">
<polygon fill="#ffffff" stroke="#000000" points="1994,-84 1994,-114 2122,-114 2122,-84 1994,-84"/>
<text text-anchor="start" x="2002" y="-102" font-family="Helvetica,sans-Serif" font-size="10.00" fill="#000000">drake/automotive/test</text>
<text text-anchor="middle" x="2058" y="-91" font-family="Helvetica,sans-Serif" font-size="10.00" fill="#000000">/idm_controller_test.cc</text>
</a>
</g>
</g>
<!-- Node82&#45;&gt;Node91 -->
<g id="edge16" class="edge">
<title>Node82&#45;&gt;Node91</title>
<path fill="none" stroke="#191970" d="M1247.3774,-155.9566C1574.4288,-118.8677 1663.9258,-173.2627 1985,-120 1993.7166,-118.554 2002.8708,-116.4265 2011.6366,-114.0732"/>
<polygon fill="#191970" stroke="#191970" points="1246.668,-152.5151 1237.1355,-157.139 1247.4709,-159.4689 1246.668,-152.5151"/>
</g>
<!-- Node92 -->
<g id="node14" class="node">
<title>Node92</title>
<g id="a_node14"><a xlink:href="maliput__railcar__test_8cc.html" target="_top" xlink:title="drake/automotive/test\l/maliput_railcar_test.cc">
<polygon fill="#ffffff" stroke="#000000" points="2140.5,-84 2140.5,-114 2271.5,-114 2271.5,-84 2140.5,-84"/>
<text text-anchor="start" x="2148.5" y="-102" font-family="Helvetica,sans-Serif" font-size="10.00" fill="#000000">drake/automotive/test</text>
<text text-anchor="middle" x="2206" y="-91" font-family="Helvetica,sans-Serif" font-size="10.00" fill="#000000">/maliput_railcar_test.cc</text>
</a>
</g>
</g>
<!-- Node82&#45;&gt;Node92 -->
<g id="edge17" class="edge">
<title>Node82&#45;&gt;Node92</title>
<path fill="none" stroke="#191970" d="M1247.3225,-155.9715C1638.9793,-112.9349 1745.4952,-180.9602 2131,-120 2140.0819,-118.5639 2149.6307,-116.409 2158.7577,-114.0186"/>
<polygon fill="#191970" stroke="#191970" points="1246.6819,-152.5212 1237.132,-157.1092 1247.4586,-159.478 1246.6819,-152.5212"/>
</g>
<!-- Node93 -->
<g id="node15" class="node">
<title>Node93</title>
<g id="a_node15"><a xlink:href="mobil__planner__test_8cc.html" target="_top" xlink:title="drake/automotive/test\l/mobil_planner_test.cc">
<polygon fill="#ffffff" stroke="#000000" points="2289.5,-84 2289.5,-114 2416.5,-114 2416.5,-84 2289.5,-84"/>
<text text-anchor="start" x="2297.5" y="-102" font-family="Helvetica,sans-Serif" font-size="10.00" fill="#000000">drake/automotive/test</text>
<text text-anchor="middle" x="2353" y="-91" font-family="Helvetica,sans-Serif" font-size="10.00" fill="#000000">/mobil_planner_test.cc</text>
</a>
</g>
</g>
<!-- Node82&#45;&gt;Node93 -->
<g id="edge18" class="edge">
<title>Node82&#45;&gt;Node93</title>
<path fill="none" stroke="#191970" d="M1247.3223,-155.9785C1705.3318,-106.8828 1829.8767,-192.4694 2281,-120 2289.7421,-118.5957 2298.92,-116.4557 2307.6854,-114.07"/>
<polygon fill="#191970" stroke="#191970" points="1246.6924,-152.5263 1237.1296,-157.0873 1247.4495,-159.4852 1246.6924,-152.5263"/>
</g>
<!-- Node94 -->
<g id="node16" class="node">
<title>Node94</title>
<g id="a_node16"><a xlink:href="pose__selector__test_8cc.html" target="_top" xlink:title="drake/automotive/test\l/pose_selector_test.cc">
<polygon fill="#ffffff" stroke="#000000" points="516.5,-84 516.5,-114 641.5,-114 641.5,-84 516.5,-84"/>
<text text-anchor="start" x="524.5" y="-102" font-family="Helvetica,sans-Serif" font-size="10.00" fill="#000000">drake/automotive/test</text>
<text text-anchor="middle" x="579" y="-91" font-family="Helvetica,sans-Serif" font-size="10.00" fill="#000000">/pose_selector_test.cc</text>
</a>
</g>
</g>
<!-- Node82&#45;&gt;Node94 -->
<g id="edge19" class="edge">
<title>Node82&#45;&gt;Node94</title>
<path fill="none" stroke="#191970" d="M1078.3619,-167.7495C976.2653,-162.1333 799.7954,-148.9283 651,-120 642.8198,-118.4096 634.2297,-116.302 625.946,-114.035"/>
<polygon fill="#191970" stroke="#191970" points="1078.4398,-171.2587 1088.6136,-168.3016 1078.8164,-164.2688 1078.4398,-171.2587"/>
</g>
<!-- Node95 -->
<g id="node17" class="node">
<title>Node95</title>
<g id="a_node17"><a xlink:href="pure__pursuit__controller__test_8cc.html" target="_top" xlink:title="drake/automotive/test\l/pure_pursuit_controller\l_test.cc">
<polygon fill="#ffffff" stroke="#000000" points="660,-78.5 660,-119.5 792,-119.5 792,-78.5 660,-78.5"/>
<text text-anchor="start" x="668" y="-107.5" font-family="Helvetica,sans-Serif" font-size="10.00" fill="#000000">drake/automotive/test</text>
<text text-anchor="start" x="668" y="-96.5" font-family="Helvetica,sans-Serif" font-size="10.00" fill="#000000">/pure_pursuit_controller</text>
<text text-anchor="middle" x="726" y="-85.5" font-family="Helvetica,sans-Serif" font-size="10.00" fill="#000000">_test.cc</text>
</a>
</g>
</g>
<!-- Node82&#45;&gt;Node95 -->
<g id="edge20" class="edge">
<title>Node82&#45;&gt;Node95</title>
<path fill="none" stroke="#191970" d="M1078.5063,-162.6699C1004.7893,-154.2085 895.1896,-139.7966 801,-120 798.0888,-119.3881 795.1242,-118.7264 792.1366,-118.0277"/>
<polygon fill="#191970" stroke="#191970" points="1078.3334,-166.1727 1088.6647,-163.8243 1079.1238,-159.2174 1078.3334,-166.1727"/>
</g>
<!-- Node96 -->
<g id="node18" class="node">
<title>Node96</title>
<g id="a_node18"><a xlink:href="pure__pursuit__test_8cc.html" target="_top" xlink:title="drake/automotive/test\l/pure_pursuit_test.cc">
<polygon fill="#ffffff" stroke="#000000" points="810.5,-84 810.5,-114 935.5,-114 935.5,-84 810.5,-84"/>
<text text-anchor="start" x="818.5" y="-102" font-family="Helvetica,sans-Serif" font-size="10.00" fill="#000000">drake/automotive/test</text>
<text text-anchor="middle" x="873" y="-91" font-family="Helvetica,sans-Serif" font-size="10.00" fill="#000000">/pure_pursuit_test.cc</text>
</a>
</g>
</g>
<!-- Node82&#45;&gt;Node96 -->
<g id="edge21" class="edge">
<title>Node82&#45;&gt;Node96</title>
<path fill="none" stroke="#191970" d="M1084.8196,-154.2451C1042.9155,-144.7124 990.4843,-132.3295 944,-120 937.0422,-118.1545 929.731,-116.1115 922.5539,-114.0458"/>
<polygon fill="#191970" stroke="#191970" points="1084.16,-157.6843 1094.6863,-156.4814 1085.7073,-150.8575 1084.16,-157.6843"/>
</g>
<!-- Node97 -->
<g id="node19" class="node">
<title>Node97</title>
<g id="a_node19"><a xlink:href="road__path__test_8cc.html" target="_top" xlink:title="drake/automotive/test\l/road_path_test.cc">
<polygon fill="#ffffff" stroke="#000000" points="953.5,-84 953.5,-114 1078.5,-114 1078.5,-84 953.5,-84"/>
<text text-anchor="start" x="961.5" y="-102" font-family="Helvetica,sans-Serif" font-size="10.00" fill="#000000">drake/automotive/test</text>
<text text-anchor="middle" x="1016" y="-91" font-family="Helvetica,sans-Serif" font-size="10.00" fill="#000000">/road_path_test.cc</text>
</a>
</g>
</g>
<!-- Node82&#45;&gt;Node97 -->
<g id="edge22" class="edge">
<title>Node82&#45;&gt;Node97</title>
<path fill="none" stroke="#191970" d="M1123.2753,-151.9079C1099.0949,-139.9822 1068.6823,-124.9828 1046.4195,-114.0028"/>
<polygon fill="#191970" stroke="#191970" points="1122.0248,-155.1936 1132.5415,-156.478 1125.1211,-148.9156 1122.0248,-155.1936"/>
</g>
<!-- Node98 -->
<g id="node20" class="node">
<title>Node98</title>
<g id="a_node20"><a xlink:href="dragway__py_8cc.html" target="_top" xlink:title="drake/bindings/pydrake\l/maliput/dragway_py.cc">
<polygon fill="#ffffff" stroke="#000000" points="1096.5,-84 1096.5,-114 1229.5,-114 1229.5,-84 1096.5,-84"/>
<text text-anchor="start" x="1104.5" y="-102" font-family="Helvetica,sans-Serif" font-size="10.00" fill="#000000">drake/bindings/pydrake</text>
<text text-anchor="middle" x="1163" y="-91" font-family="Helvetica,sans-Serif" font-size="10.00" fill="#000000">/maliput/dragway_py.cc</text>
</a>
</g>
</g>
<!-- Node82&#45;&gt;Node98 -->
<g id="edge23" class="edge">
<title>Node82&#45;&gt;Node98</title>
<path fill="none" stroke="#191970" d="M1163,-146.3409C1163,-135.5601 1163,-123.3309 1163,-114.0028"/>
<polygon fill="#191970" stroke="#191970" points="1159.5001,-146.4779 1163,-156.478 1166.5001,-146.478 1159.5001,-146.4779"/>
</g>
<!-- Node84&#45;&gt;Node83 -->
<g id="edge6" class="edge">
<title>Node84&#45;&gt;Node83</title>
<path fill="none" stroke="#191970" d="M1313.1686,-79.5783C1284.2291,-66.1421 1246.2734,-48.5198 1219.5788,-36.1259"/>
<polygon fill="#191970" stroke="#191970" points="1312.0639,-82.9242 1322.6079,-83.9608 1315.0117,-76.5751 1312.0639,-82.9242"/>
</g>
<!-- Node85 -->
<g id="node7" class="node">
<title>Node85</title>
<g id="a_node7"><a xlink:href="create__trajectory__params_8cc.html" target="_top" xlink:title="drake/automotive/create\l_trajectory_params.cc">
<polygon fill="#ffffff" stroke="#000000" points="1286.5,-6 1286.5,-36 1423.5,-36 1423.5,-6 1286.5,-6"/>
<text text-anchor="start" x="1294.5" y="-24" font-family="Helvetica,sans-Serif" font-size="10.00" fill="#000000">drake/automotive/create</text>
<text text-anchor="middle" x="1355" y="-13" font-family="Helvetica,sans-Serif" font-size="10.00" fill="#000000">_trajectory_params.cc</text>
</a>
</g>
</g>
<!-- Node84&#45;&gt;Node85 -->
<g id="edge7" class="edge">
<title>Node84&#45;&gt;Node85</title>
<path fill="none" stroke="#191970" d="M1355,-73.7875C1355,-61.4187 1355,-46.9264 1355,-36.2592"/>
<polygon fill="#191970" stroke="#191970" points="1351.5001,-73.9608 1355,-83.9608 1358.5001,-73.9608 1351.5001,-73.9608"/>
</g>
<!-- Node84&#45;&gt;Node86 -->
<g id="edge8" class="edge">
<title>Node84&#45;&gt;Node86</title>
<path fill="none" stroke="#191970" d="M1393.2745,-79.2291C1415.5484,-67.7234 1443.5876,-53.2395 1466.129,-41.5956"/>
<polygon fill="#191970" stroke="#191970" points="1391.3927,-76.2617 1384.1143,-83.9608 1394.6053,-82.481 1391.3927,-76.2617"/>
</g>
</g>
</svg>
        <g id="navigator" transform="translate(0 0)" fill="#404254">
                <rect fill="#f2f5e9" fill-opacity="0.5" stroke="#606060" stroke-width=".5" x="0" y="0" width="60" height="60"/>
                <use id="zoomplus" xlink:href="#zoomPlus" x="17" y="9" onmousedown="handleZoom(evt,'in')"/>
                <use id="zoomminus" xlink:href="#zoomMin" x="42" y="9" onmousedown="handleZoom(evt,'out')"/>
                <use id="reset" xlink:href="#resetDef" x="30" y="36" onmousedown="handleReset()"/>
                <g id="arrowUp" xlink:href="#dirArrow" transform="translate(30 24)" onmousedown="handlePan(0,-1)">
                  <use xlink:href="#rim" fill="#404040">
                        <set attributeName="fill" to="#808080" begin="arrowUp.mouseover" end="arrowUp.mouseout"/>
                  </use>
                  <path fill="none" stroke="white" stroke-width="1.5" d="M0,-3.0v7 M-2.5,-0.5L0,-3.0L2.5,-0.5"/>
                </g>
                <g id="arrowRight" xlink:href="#dirArrow" transform="rotate(90) translate(36 -43)" onmousedown="handlePan(1,0)">
                  <use xlink:href="#rim" fill="#404040">
                        <set attributeName="fill" to="#808080" begin="arrowRight.mouseover" end="arrowRight.mouseout"/>
                  </use>
                  <path fill="none" stroke="white" stroke-width="1.5" d="M0,-3.0v7 M-2.5,-0.5L0,-3.0L2.5,-0.5"/>
                </g>
                <g id="arrowDown" xlink:href="#dirArrow" transform="rotate(180) translate(-30 -48)" onmousedown="handlePan(0,1)">
                  <use xlink:href="#rim" fill="#404040">
                        <set attributeName="fill" to="#808080" begin="arrowDown.mouseover" end="arrowDown.mouseout"/>
                  </use>
                  <path fill="none" stroke="white" stroke-width="1.5" d="M0,-3.0v7 M-2.5,-0.5L0,-3.0L2.5,-0.5"/>
                </g>
                <g id="arrowLeft" xlink:href="#dirArrow" transform="rotate(270) translate(-36 17)" onmousedown="handlePan(-1,0)">
                  <use xlink:href="#rim" fill="#404040">
                        <set attributeName="fill" to="#808080" begin="arrowLeft.mouseover" end="arrowLeft.mouseout"/>
                  </use>
                  <path fill="none" stroke="white" stroke-width="1.5" d="M0,-3.0v7 M-2.5,-0.5L0,-3.0L2.5,-0.5"/>
                </g>
        </g>
        <svg viewBox="0 0 15 15" width="100%" height="30px" preserveAspectRatio="xMaxYMin meet">
         <g id="arrow_out" transform="scale(0.3 0.3)">
          <a xlink:href="dragway_2junction_8h__dep__incl_org.svg" target="_base">
           <rect id="button" ry="5" rx="5" y="6" x="6" height="38" width="38"
                fill="#f2f5e9" fill-opacity="0.5" stroke="#606060" stroke-width="1.0"/>
           <path id="arrow"
             d="M 11.500037,31.436501 C 11.940474,20.09759 22.043105,11.32322 32.158766,21.979434 L 37.068811,17.246167 C 37.068811,17.246167 37.088388,32 37.088388,32 L 22.160133,31.978069 C 22.160133,31.978069 26.997745,27.140456 26.997745,27.140456 C 18.528582,18.264221 13.291696,25.230495 11.500037,31.436501 z"
             style="fill:#404040;"/>
          </a>
         </g>
        </svg>
</svg>
