<?xml version="1.0" encoding="UTF-8" standalone="no"?>
<!DOCTYPE svg PUBLIC "-//W3C//DTD SVG 1.1//EN"
 "http://www.w3.org/Graphics/SVG/1.1/DTD/svg11.dtd">
<!-- Generated by graphviz version 2.40.1 (20161225.0304)
 -->
<!-- Title: drake/automotive/maliput/dragway/road_geometry.h Pages: 1 -->
<svg width="2566pt" height="195pt"
 viewBox="0.00 0.00 2566.00 195.00" xmlns="http://www.w3.org/2000/svg" xmlns:xlink="http://www.w3.org/1999/xlink">
<g id="graph0" class="graph" transform="scale(1 1) rotate(0) translate(4 191)">
<title>drake/automotive/maliput/dragway/road_geometry.h</title>
<polygon fill="#ffffff" stroke="transparent" points="-4,4 -4,-191 2562,-191 2562,4 -4,4"/>
<!-- Node80 -->
<g id="node1" class="node">
<title>Node80</title>
<polygon fill="#bfbfbf" stroke="#000000" points="1234.5,-156.5 1234.5,-186.5 1382.5,-186.5 1382.5,-156.5 1234.5,-156.5"/>
<text text-anchor="start" x="1242.5" y="-174.5" font-family="Helvetica,sans-Serif" font-size="10.00" fill="#000000">drake/automotive/maliput</text>
<text text-anchor="middle" x="1308.5" y="-163.5" font-family="Helvetica,sans-Serif" font-size="10.00" fill="#000000">/dragway/road_geometry.h</text>
</g>
<!-- Node81 -->
<g id="node2" class="node">
<title>Node81</title>
<g id="a_node2"><a xlink:href="automotive__demo_8cc.html" target="_top" xlink:title="drake/automotive/automotive\l_demo.cc">
<polygon fill="#ffffff" stroke="#000000" points="0,-6 0,-36 163,-36 163,-6 0,-6"/>
<text text-anchor="start" x="8" y="-24" font-family="Helvetica,sans-Serif" font-size="10.00" fill="#000000">drake/automotive/automotive</text>
<text text-anchor="middle" x="81.5" y="-13" font-family="Helvetica,sans-Serif" font-size="10.00" fill="#000000">_demo.cc</text>
</a>
</g>
</g>
<!-- Node80&#45;&gt;Node81 -->
<g id="edge1" class="edge">
<title>Node80&#45;&gt;Node81</title>
<path fill="none" stroke="#191970" d="M1224.1466,-169.4486C968.8355,-163.0068 218.9366,-142.2814 171.5,-120 133.0252,-101.9281 103.5672,-59.1042 89.8955,-36.1507"/>
<polygon fill="#191970" stroke="#191970" points="1224.3904,-172.9557 1234.4752,-169.7082 1224.5663,-165.9579 1224.3904,-172.9557"/>
</g>
<!-- Node82 -->
<g id="node3" class="node">
<title>Node82</title>
<g id="a_node3"><a xlink:href="create__trajectory__params_8h.html" target="_top" xlink:title="drake/automotive/create\l_trajectory_params.h">
<polygon fill="#ffffff" stroke="#000000" points="181,-84 181,-114 318,-114 318,-84 181,-84"/>
<text text-anchor="start" x="189" y="-102" font-family="Helvetica,sans-Serif" font-size="10.00" fill="#000000">drake/automotive/create</text>
<text text-anchor="middle" x="249.5" y="-91" font-family="Helvetica,sans-Serif" font-size="10.00" fill="#000000">_trajectory_params.h</text>
</a>
</g>
</g>
<!-- Node80&#45;&gt;Node82 -->
<g id="edge2" class="edge">
<title>Node80&#45;&gt;Node82</title>
<path fill="none" stroke="#191970" d="M1224.292,-169.168C1020.1962,-163.1753 503.3604,-145.8693 332.5,-120 322.8004,-118.5314 312.5854,-116.4243 302.7655,-114.1054"/>
<polygon fill="#191970" stroke="#191970" points="1224.2601,-172.6685 1234.358,-169.4618 1224.4644,-165.6715 1224.2601,-172.6685"/>
</g>
<!-- Node84 -->
<g id="node5" class="node">
<title>Node84</title>
<g id="a_node5"><a xlink:href="automotive__simulator__test_8cc.html" target="_top" xlink:title="drake/automotive/test\l/automotive_simulator\l_test.cc">
<polygon fill="#ffffff" stroke="#000000" points="336.5,-.5 336.5,-41.5 464.5,-41.5 464.5,-.5 336.5,-.5"/>
<text text-anchor="start" x="344.5" y="-29.5" font-family="Helvetica,sans-Serif" font-size="10.00" fill="#000000">drake/automotive/test</text>
<text text-anchor="start" x="344.5" y="-18.5" font-family="Helvetica,sans-Serif" font-size="10.00" fill="#000000">/automotive_simulator</text>
<text text-anchor="middle" x="400.5" y="-7.5" font-family="Helvetica,sans-Serif" font-size="10.00" fill="#000000">_test.cc</text>
</a>
</g>
</g>
<!-- Node80&#45;&gt;Node84 -->
<g id="edge11" class="edge">
<title>Node80&#45;&gt;Node84</title>
<path fill="none" stroke="#191970" d="M1224.3361,-170.0075C998.6077,-165.596 394.8002,-150.944 365.5,-120 344.944,-98.2907 365.0894,-63.7668 382.2237,-41.7565"/>
<polygon fill="#191970" stroke="#191970" points="1224.4068,-173.5095 1234.4727,-170.2037 1224.5423,-166.5108 1224.4068,-173.5095"/>
</g>
<!-- Node85 -->
<g id="node6" class="node">
<title>Node85</title>
<g id="a_node6"><a xlink:href="dragway__to__urdf_8cc.html" target="_top" xlink:title="drake/automotive/maliput\l/dragway/dragway_to_urdf.cc">
<polygon fill="#ffffff" stroke="#000000" points="374.5,-84 374.5,-114 534.5,-114 534.5,-84 374.5,-84"/>
<text text-anchor="start" x="382.5" y="-102" font-family="Helvetica,sans-Serif" font-size="10.00" fill="#000000">drake/automotive/maliput</text>
<text text-anchor="middle" x="454.5" y="-91" font-family="Helvetica,sans-Serif" font-size="10.00" fill="#000000">/dragway/dragway_to_urdf.cc</text>
</a>
</g>
</g>
<!-- Node80&#45;&gt;Node85 -->
<g id="edge6" class="edge">
<title>Node80&#45;&gt;Node85</title>
<path fill="none" stroke="#191970" d="M1224.1508,-170.3459C1082.675,-167.4009 788.9339,-156.9601 543.5,-120 533.2959,-118.4633 522.5358,-116.3532 512.16,-114.0598"/>
<polygon fill="#191970" stroke="#191970" points="1224.4147,-173.8518 1234.4829,-170.5532 1224.5552,-166.8532 1224.4147,-173.8518"/>
</g>
<!-- Node86 -->
<g id="node7" class="node">
<title>Node86</title>
<g id="a_node7"><a xlink:href="dragway_2junction_8cc.html" target="_top" xlink:title="drake/automotive/maliput\l/dragway/junction.cc">
<polygon fill="#ffffff" stroke="#000000" points="552.5,-84 552.5,-114 696.5,-114 696.5,-84 552.5,-84"/>
<text text-anchor="start" x="560.5" y="-102" font-family="Helvetica,sans-Serif" font-size="10.00" fill="#000000">drake/automotive/maliput</text>
<text text-anchor="middle" x="624.5" y="-91" font-family="Helvetica,sans-Serif" font-size="10.00" fill="#000000">/dragway/junction.cc</text>
</a>
</g>
</g>
<!-- Node80&#45;&gt;Node86 -->
<g id="edge7" class="edge">
<title>Node80&#45;&gt;Node86</title>
<path fill="none" stroke="#191970" d="M1223.8619,-168.7658C1106.6751,-163.9614 888.7158,-151.344 705.5,-120 696.3356,-118.4322 686.6909,-116.3358 677.3788,-114.0731"/>
<polygon fill="#191970" stroke="#191970" points="1224.0611,-172.2765 1234.1933,-169.1797 1224.3414,-165.2821 1224.0611,-172.2765"/>
</g>
<!-- Node87 -->
<g id="node8" class="node">
<title>Node87</title>
<g id="a_node8"><a xlink:href="dragway_2lane_8cc.html" target="_top" xlink:title="drake/automotive/maliput\l/dragway/lane.cc">
<polygon fill="#ffffff" stroke="#000000" points="714.5,-84 714.5,-114 858.5,-114 858.5,-84 714.5,-84"/>
<text text-anchor="start" x="722.5" y="-102" font-family="Helvetica,sans-Serif" font-size="10.00" fill="#000000">drake/automotive/maliput</text>
<text text-anchor="middle" x="786.5" y="-91" font-family="Helvetica,sans-Serif" font-size="10.00" fill="#000000">/dragway/lane.cc</text>
</a>
</g>
</g>
<!-- Node80&#45;&gt;Node87 -->
<g id="edge8" class="edge">
<title>Node80&#45;&gt;Node87</title>
<path fill="none" stroke="#191970" d="M1224.241,-165.1258C1135.1068,-157.5761 990.6137,-143.0349 867.5,-120 858.6466,-118.3435 849.3306,-116.2576 840.2952,-114.0475"/>
<polygon fill="#191970" stroke="#191970" points="1224.0383,-168.621 1234.2955,-165.9676 1224.6224,-161.6454 1224.0383,-168.621"/>
</g>
<!-- Node88 -->
<g id="node9" class="node">
<title>Node88</title>
<g id="a_node9"><a xlink:href="dragway_2road__geometry_8cc.html" target="_top" xlink:title="drake/automotive/maliput\l/dragway/road_geometry.cc">
<polygon fill="#ffffff" stroke="#000000" points="876.5,-84 876.5,-114 1028.5,-114 1028.5,-84 876.5,-84"/>
<text text-anchor="start" x="884.5" y="-102" font-family="Helvetica,sans-Serif" font-size="10.00" fill="#000000">drake/automotive/maliput</text>
<text text-anchor="middle" x="952.5" y="-91" font-family="Helvetica,sans-Serif" font-size="10.00" fill="#000000">/dragway/road_geometry.cc</text>
</a>
</g>
</g>
<!-- Node80&#45;&gt;Node88 -->
<g id="edge9" class="edge">
<title>Node80&#45;&gt;Node88</title>
<path fill="none" stroke="#191970" d="M1224.2338,-156.7059C1170.6217,-146.9926 1099.8064,-133.6064 1037.5,-120 1029.1836,-118.1839 1020.4383,-116.1574 1011.8496,-114.0996"/>
<polygon fill="#191970" stroke="#191970" points="1223.9156,-160.205 1234.3783,-158.5373 1225.1592,-153.3163 1223.9156,-160.205"/>
</g>
<!-- Node89 -->
<g id="node10" class="node">
<title>Node89</title>
<g id="a_node10"><a xlink:href="dragway__test_8cc.html" target="_top" xlink:title="drake/automotive/maliput\l/dragway/test/dragway_test.cc">
<polygon fill="#ffffff" stroke="#000000" points="1046.5,-84 1046.5,-114 1212.5,-114 1212.5,-84 1046.5,-84"/>
<text text-anchor="start" x="1054.5" y="-102" font-family="Helvetica,sans-Serif" font-size="10.00" fill="#000000">drake/automotive/maliput</text>
<text text-anchor="middle" x="1129.5" y="-91" font-family="Helvetica,sans-Serif" font-size="10.00" fill="#000000">/dragway/test/dragway_test.cc</text>
</a>
</g>
</g>
<!-- Node80&#45;&gt;Node89 -->
<g id="edge10" class="edge">
<title>Node80&#45;&gt;Node89</title>
<path fill="none" stroke="#191970" d="M1262.0706,-152.6948C1232.3271,-140.6478 1194.2503,-125.2257 1166.5414,-114.0028"/>
<polygon fill="#191970" stroke="#191970" points="1260.8285,-155.9679 1271.4111,-156.478 1263.4564,-149.4798 1260.8285,-155.9679"/>
</g>
<!-- Node90 -->
<g id="node11" class="node">
<title>Node90</title>
<g id="a_node11"><a xlink:href="calc__ongoing__road__position__test_8cc.html" target="_top" xlink:title="drake/automotive/test\l/calc_ongoing_road_position\l_test.cc">
<polygon fill="#ffffff" stroke="#000000" points="1231,-78.5 1231,-119.5 1386,-119.5 1386,-78.5 1231,-78.5"/>
<text text-anchor="start" x="1239" y="-107.5" font-family="Helvetica,sans-Serif" font-size="10.00" fill="#000000">drake/automotive/test</text>
<text text-anchor="start" x="1239" y="-96.5" font-family="Helvetica,sans-Serif" font-size="10.00" fill="#000000">/calc_ongoing_road_position</text>
<text text-anchor="middle" x="1308.5" y="-85.5" font-family="Helvetica,sans-Serif" font-size="10.00" fill="#000000">_test.cc</text>
</a>
</g>
</g>
<!-- Node80&#45;&gt;Node90 -->
<g id="edge12" class="edge">
<title>Node80&#45;&gt;Node90</title>
<path fill="none" stroke="#191970" d="M1308.5,-146.4016C1308.5,-137.6173 1308.5,-127.8652 1308.5,-119.5015"/>
<polygon fill="#191970" stroke="#191970" points="1305.0001,-146.4779 1308.5,-156.478 1312.0001,-146.478 1305.0001,-146.4779"/>
</g>
<!-- Node91 -->
<g id="node12" class="node">
<title>Node91</title>
<g id="a_node12"><a xlink:href="idm__controller__test_8cc.html" target="_top" xlink:title="drake/automotive/test\l/idm_controller_test.cc">
<polygon fill="#ffffff" stroke="#000000" points="1404.5,-84 1404.5,-114 1532.5,-114 1532.5,-84 1404.5,-84"/>
<text text-anchor="start" x="1412.5" y="-102" font-family="Helvetica,sans-Serif" font-size="10.00" fill="#000000">drake/automotive/test</text>
<text text-anchor="middle" x="1468.5" y="-91" font-family="Helvetica,sans-Serif" font-size="10.00" fill="#000000">/idm_controller_test.cc</text>
</a>
</g>
</g>
<!-- Node80&#45;&gt;Node91 -->
<g id="edge13" class="edge">
<title>Node80&#45;&gt;Node91</title>
<path fill="none" stroke="#191970" d="M1351.0407,-152.2237C1377.47,-140.248 1410.9443,-125.0799 1435.3904,-114.0028"/>
<polygon fill="#191970" stroke="#191970" points="1349.3161,-149.1626 1341.6521,-156.478 1352.2052,-155.5386 1349.3161,-149.1626"/>
</g>
<!-- Node92 -->
<g id="node13" class="node">
<title>Node92</title>
<g id="a_node13"><a xlink:href="maliput__railcar__test_8cc.html" target="_top" xlink:title="drake/automotive/test\l/maliput_railcar_test.cc">
<polygon fill="#ffffff" stroke="#000000" points="1551,-84 1551,-114 1682,-114 1682,-84 1551,-84"/>
<text text-anchor="start" x="1559" y="-102" font-family="Helvetica,sans-Serif" font-size="10.00" fill="#000000">drake/automotive/test</text>
<text text-anchor="middle" x="1616.5" y="-91" font-family="Helvetica,sans-Serif" font-size="10.00" fill="#000000">/maliput_railcar_test.cc</text>
</a>
</g>
</g>
<!-- Node80&#45;&gt;Node92 -->
<g id="edge14" class="edge">
<title>Node80&#45;&gt;Node92</title>
<path fill="none" stroke="#191970" d="M1391.3448,-154.3574C1435.973,-144.8289 1491.9018,-132.415 1541.5,-120 1548.8455,-118.1613 1556.5662,-116.1222 1564.1465,-114.0583"/>
<polygon fill="#191970" stroke="#191970" points="1390.4735,-150.9644 1381.4206,-156.4686 1391.93,-157.8112 1390.4735,-150.9644"/>
</g>
<!-- Node93 -->
<g id="node14" class="node">
<title>Node93</title>
<g id="a_node14"><a xlink:href="mobil__planner__test_8cc.html" target="_top" xlink:title="drake/automotive/test\l/mobil_planner_test.cc">
<polygon fill="#ffffff" stroke="#000000" points="1700,-84 1700,-114 1827,-114 1827,-84 1700,-84"/>
<text text-anchor="start" x="1708" y="-102" font-family="Helvetica,sans-Serif" font-size="10.00" fill="#000000">drake/automotive/test</text>
<text text-anchor="middle" x="1763.5" y="-91" font-family="Helvetica,sans-Serif" font-size="10.00" fill="#000000">/mobil_planner_test.cc</text>
</a>
</g>
</g>
<!-- Node80&#45;&gt;Node93 -->
<g id="edge15" class="edge">
<title>Node80&#45;&gt;Node93</title>
<path fill="none" stroke="#191970" d="M1393.1029,-163.8083C1471.1273,-155.8458 1589.8967,-141.521 1691.5,-120 1699.3977,-118.3272 1707.6931,-116.2329 1715.7303,-114.0193"/>
<polygon fill="#191970" stroke="#191970" points="1392.4436,-160.3569 1382.8451,-164.8424 1393.1458,-167.3216 1392.4436,-160.3569"/>
</g>
<!-- Node94 -->
<g id="node15" class="node">
<title>Node94</title>
<g id="a_node15"><a xlink:href="pose__selector__test_8cc.html" target="_top" xlink:title="drake/automotive/test\l/pose_selector_test.cc">
<polygon fill="#ffffff" stroke="#000000" points="1845,-84 1845,-114 1970,-114 1970,-84 1845,-84"/>
<text text-anchor="start" x="1853" y="-102" font-family="Helvetica,sans-Serif" font-size="10.00" fill="#000000">drake/automotive/test</text>
<text text-anchor="middle" x="1907.5" y="-91" font-family="Helvetica,sans-Serif" font-size="10.00" fill="#000000">/pose_selector_test.cc</text>
</a>
</g>
</g>
<!-- Node80&#45;&gt;Node94 -->
<g id="edge16" class="edge">
<title>Node80&#45;&gt;Node94</title>
<path fill="none" stroke="#191970" d="M1392.8017,-168.2248C1497.6242,-163.0215 1681.6448,-150.1678 1836.5,-120 1844.5749,-118.4269 1853.0499,-116.3279 1861.2202,-114.0641"/>
<polygon fill="#191970" stroke="#191970" points="1392.4163,-164.7393 1382.5975,-168.7195 1392.7553,-171.7311 1392.4163,-164.7393"/>
</g>
<!-- Node95 -->
<g id="node16" class="node">
<title>Node95</title>
<g id="a_node16"><a xlink:href="pure__pursuit__controller__test_8cc.html" target="_top" xlink:title="drake/automotive/test\l/pure_pursuit_controller\l_test.cc">
<polygon fill="#ffffff" stroke="#000000" points="1988.5,-78.5 1988.5,-119.5 2120.5,-119.5 2120.5,-78.5 1988.5,-78.5"/>
<text text-anchor="start" x="1996.5" y="-107.5" font-family="Helvetica,sans-Serif" font-size="10.00" fill="#000000">drake/automotive/test</text>
<text text-anchor="start" x="1996.5" y="-96.5" font-family="Helvetica,sans-Serif" font-size="10.00" fill="#000000">/pure_pursuit_controller</text>
<text text-anchor="middle" x="2054.5" y="-85.5" font-family="Helvetica,sans-Serif" font-size="10.00" fill="#000000">_test.cc</text>
</a>
</g>
</g>
<!-- Node80&#45;&gt;Node95 -->
<g id="edge17" class="edge">
<title>Node80&#45;&gt;Node95</title>
<path fill="none" stroke="#191970" d="M1393.0148,-167.0899C1547.3661,-158.6905 1869.1379,-139.4908 1979.5,-120 1982.4294,-119.4826 1985.4092,-118.8991 1988.4092,-118.2646"/>
<polygon fill="#191970" stroke="#191970" points="1392.4409,-163.6158 1382.6449,-167.6517 1392.8196,-170.6055 1392.4409,-163.6158"/>
</g>
<!-- Node96 -->
<g id="node17" class="node">
<title>Node96</title>
<g id="a_node17"><a xlink:href="pure__pursuit__test_8cc.html" target="_top" xlink:title="drake/automotive/test\l/pure_pursuit_test.cc">
<polygon fill="#ffffff" stroke="#000000" points="2139,-84 2139,-114 2264,-114 2264,-84 2139,-84"/>
<text text-anchor="start" x="2147" y="-102" font-family="Helvetica,sans-Serif" font-size="10.00" fill="#000000">drake/automotive/test</text>
<text text-anchor="middle" x="2201.5" y="-91" font-family="Helvetica,sans-Serif" font-size="10.00" fill="#000000">/pure_pursuit_test.cc</text>
</a>
</g>
</g>
<!-- Node80&#45;&gt;Node96 -->
<g id="edge18" class="edge">
<title>Node80&#45;&gt;Node96</title>
<path fill="none" stroke="#191970" d="M1392.9614,-168.5723C1573.0797,-161.9417 1989.8626,-144.4329 2129.5,-120 2137.9651,-118.5188 2146.8511,-116.4056 2155.3782,-114.0846"/>
<polygon fill="#191970" stroke="#191970" points="1392.6083,-165.0828 1382.743,-168.9461 1392.8643,-172.0781 1392.6083,-165.0828"/>
</g>
<!-- Node97 -->
<g id="node18" class="node">
<title>Node97</title>
<g id="a_node18"><a xlink:href="road__path__test_8cc.html" target="_top" xlink:title="drake/automotive/test\l/road_path_test.cc">
<polygon fill="#ffffff" stroke="#000000" points="2282,-84 2282,-114 2407,-114 2407,-84 2282,-84"/>
<text text-anchor="start" x="2290" y="-102" font-family="Helvetica,sans-Serif" font-size="10.00" fill="#000000">drake/automotive/test</text>
<text text-anchor="middle" x="2344.5" y="-91" font-family="Helvetica,sans-Serif" font-size="10.00" fill="#000000">/road_path_test.cc</text>
</a>
</g>
</g>
<!-- Node80&#45;&gt;Node97 -->
<g id="edge19" class="edge">
<title>Node80&#45;&gt;Node97</title>
<path fill="none" stroke="#191970" d="M1392.8617,-169.5318C1595.5179,-164.395 2105.3972,-148.9333 2273.5,-120 2281.9876,-118.5392 2290.8957,-116.4045 2299.4228,-114.0489"/>
<polygon fill="#191970" stroke="#191970" points="1392.4818,-166.0402 1382.573,-169.7904 1392.6578,-173.038 1392.4818,-166.0402"/>
</g>
<!-- Node98 -->
<g id="node19" class="node">
<title>Node98</title>
<g id="a_node19"><a xlink:href="dragway__py_8cc.html" target="_top" xlink:title="drake/bindings/pydrake\l/maliput/dragway_py.cc">
<polygon fill="#ffffff" stroke="#000000" points="2425,-84 2425,-114 2558,-114 2558,-84 2425,-84"/>
<text text-anchor="start" x="2433" y="-102" font-family="Helvetica,sans-Serif" font-size="10.00" fill="#000000">drake/bindings/pydrake</text>
<text text-anchor="middle" x="2491.5" y="-91" font-family="Helvetica,sans-Serif" font-size="10.00" fill="#000000">/maliput/dragway_py.cc</text>
</a>
</g>
</g>
<!-- Node80&#45;&gt;Node98 -->
<g id="edge20" class="edge">
<title>Node80&#45;&gt;Node98</title>
<path fill="none" stroke="#191970" d="M1392.8941,-170.0502C1616.3432,-165.8163 2219.6642,-151.7103 2416.5,-120 2425.4442,-118.5591 2434.8439,-116.434 2443.848,-114.0815"/>
<polygon fill="#191970" stroke="#191970" points="1392.7958,-166.5513 1382.8633,-170.2385 1392.9272,-173.5501 1392.7958,-166.5513"/>
</g>
<!-- Node82&#45;&gt;Node81 -->
<g id="edge3" class="edge">
<title>Node82&#45;&gt;Node81</title>
<path fill="none" stroke="#191970" d="M207.6686,-79.5783C178.7291,-66.1421 140.7734,-48.5198 114.0788,-36.1259"/>
<polygon fill="#191970" stroke="#191970" points="206.5639,-82.9242 217.1079,-83.9608 209.5117,-76.5751 206.5639,-82.9242"/>
</g>
<!-- Node83 -->
<g id="node4" class="node">
<title>Node83</title>
<g id="a_node4"><a xlink:href="create__trajectory__params_8cc.html" target="_top" xlink:title="drake/automotive/create\l_trajectory_params.cc">
<polygon fill="#ffffff" stroke="#000000" points="181,-6 181,-36 318,-36 318,-6 181,-6"/>
<text text-anchor="start" x="189" y="-24" font-family="Helvetica,sans-Serif" font-size="10.00" fill="#000000">drake/automotive/create</text>
<text text-anchor="middle" x="249.5" y="-13" font-family="Helvetica,sans-Serif" font-size="10.00" fill="#000000">_trajectory_params.cc</text>
</a>
</g>
</g>
<!-- Node82&#45;&gt;Node83 -->
<g id="edge4" class="edge">
<title>Node82&#45;&gt;Node83</title>
<path fill="none" stroke="#191970" d="M249.5,-73.7875C249.5,-61.4187 249.5,-46.9264 249.5,-36.2592"/>
<polygon fill="#191970" stroke="#191970" points="246.0001,-73.9608 249.5,-83.9608 253.0001,-73.9608 246.0001,-73.9608"/>
</g>
<!-- Node82&#45;&gt;Node84 -->
<g id="edge5" class="edge">
<title>Node82&#45;&gt;Node84</title>
<path fill="none" stroke="#191970" d="M287.7745,-79.2291C310.0484,-67.7234 338.0876,-53.2395 360.629,-41.5956"/>
<polygon fill="#191970" stroke="#191970" points="285.8927,-76.2617 278.6143,-83.9608 289.1053,-82.481 285.8927,-76.2617"/>
</g>
</g>
</svg>
