<?xml version="1.0" encoding="UTF-8" standalone="no"?>
<!DOCTYPE svg PUBLIC "-//W3C//DTD SVG 1.1//EN"
 "http://www.w3.org/Graphics/SVG/1.1/DTD/svg11.dtd">
<!-- Generated by graphviz version 2.40.1 (20161225.0304)
 -->
<!-- Title: drake/bindings/pydrake/common/drake_variant_pybind.h Pages: 1 -->
<svg width="163pt" height="128pt"
 viewBox="0.00 0.00 163.00 128.00" xmlns="http://www.w3.org/2000/svg" xmlns:xlink="http://www.w3.org/1999/xlink">
<g id="graph0" class="graph" transform="scale(1 1) rotate(0) translate(4 124)">
<title>drake/bindings/pydrake/common/drake_variant_pybind.h</title>
<polygon fill="#ffffff" stroke="transparent" points="-4,4 -4,-124 159,-124 159,4 -4,4"/>
<!-- Node4 -->
<g id="node1" class="node">
<title>Node4</title>
<polygon fill="#bfbfbf" stroke="#000000" points="11,-78.5 11,-119.5 144,-119.5 144,-78.5 11,-78.5"/>
<text text-anchor="start" x="19" y="-107.5" font-family="Helvetica,sans-Serif" font-size="10.00" fill="#000000">drake/bindings/pydrake</text>
<text text-anchor="start" x="19" y="-96.5" font-family="Helvetica,sans-Serif" font-size="10.00" fill="#000000">/common/drake_variant</text>
<text text-anchor="middle" x="77.5" y="-85.5" font-family="Helvetica,sans-Serif" font-size="10.00" fill="#000000">_pybind.h</text>
</g>
<!-- Node5 -->
<g id="node2" class="node">
<title>Node5</title>
<g id="a_node2"><a xlink:href="drake__variant__pybind__test_8cc.html" target="_top" xlink:title="drake/bindings/pydrake\l/common/test/drake_variant\l_pybind_test.cc">
<polygon fill="#ffffff" stroke="#000000" points="0,-.5 0,-41.5 155,-41.5 155,-.5 0,-.5"/>
<text text-anchor="start" x="8" y="-29.5" font-family="Helvetica,sans-Serif" font-size="10.00" fill="#000000">drake/bindings/pydrake</text>
<text text-anchor="start" x="8" y="-18.5" font-family="Helvetica,sans-Serif" font-size="10.00" fill="#000000">/common/test/drake_variant</text>
<text text-anchor="middle" x="77.5" y="-7.5" font-family="Helvetica,sans-Serif" font-size="10.00" fill="#000000">_pybind_test.cc</text>
</a>
</g>
</g>
<!-- Node4&#45;&gt;Node5 -->
<g id="edge1" class="edge">
<title>Node4&#45;&gt;Node5</title>
<path fill="none" stroke="#191970" d="M77.5,-68.0789C77.5,-59.2178 77.5,-49.7747 77.5,-41.6898"/>
<polygon fill="#191970" stroke="#191970" points="74.0001,-68.0974 77.5,-78.0974 81.0001,-68.0975 74.0001,-68.0974"/>
</g>
</g>
</svg>
