<?xml version="1.0" encoding="UTF-8" standalone="no"?>
<!DOCTYPE svg PUBLIC "-//W3C//DTD SVG 1.1//EN"
 "http://www.w3.org/Graphics/SVG/1.1/DTD/svg11.dtd">
<!-- Generated by graphviz version 2.40.1 (20161225.0304)
 -->
<!-- Title: drake/common/test_utilities/drake_cc_googletest_main.cc Pages: 1 -->
<svg width="352pt" height="229pt"
 viewBox="0.00 0.00 352.00 229.00" xmlns="http://www.w3.org/2000/svg" xmlns:xlink="http://www.w3.org/1999/xlink">
<g id="graph0" class="graph" transform="scale(1 1) rotate(0) translate(4 225)">
<title>drake/common/test_utilities/drake_cc_googletest_main.cc</title>
<polygon fill="#ffffff" stroke="transparent" points="-4,4 -4,-225 348,-225 348,4 -4,4"/>
<!-- Node0 -->
<g id="node1" class="node">
<title>Node0</title>
<polygon fill="#bfbfbf" stroke="#000000" points="36.5,-190.5 36.5,-220.5 200.5,-220.5 200.5,-190.5 36.5,-190.5"/>
<text text-anchor="start" x="44.5" y="-208.5" font-family="Helvetica,sans-Serif" font-size="10.00" fill="#000000">drake/common/test_utilities</text>
<text text-anchor="middle" x="118.5" y="-197.5" font-family="Helvetica,sans-Serif" font-size="10.00" fill="#000000">/drake_cc_googletest_main.cc</text>
</g>
<!-- Node1 -->
<g id="node2" class="node">
<title>Node1</title>
<polygon fill="#ffffff" stroke="#bfbfbf" points="0,-129 0,-148 95,-148 95,-129 0,-129"/>
<text text-anchor="middle" x="47.5" y="-136" font-family="Helvetica,sans-Serif" font-size="10.00" fill="#000000">gmock/gmock.h</text>
</g>
<!-- Node0&#45;&gt;Node1 -->
<g id="edge1" class="edge">
<title>Node0&#45;&gt;Node1</title>
<path fill="none" stroke="#191970" d="M102.389,-190.2967C91.2195,-179.7564 76.356,-165.7303 64.9133,-154.9323"/>
<polygon fill="#191970" stroke="#191970" points="67.3006,-152.3727 57.6254,-148.055 62.4963,-157.4638 67.3006,-152.3727"/>
</g>
<!-- Node2 -->
<g id="node3" class="node">
<title>Node2</title>
<g id="a_node3"><a xlink:href="text__logging__gflags_8h.html" target="_top" xlink:title="This file defines gflags settings to control spdlog levels. ">
<polygon fill="#ffffff" stroke="#000000" points="113.5,-123.5 113.5,-153.5 267.5,-153.5 267.5,-123.5 113.5,-123.5"/>
<text text-anchor="start" x="121.5" y="-141.5" font-family="Helvetica,sans-Serif" font-size="10.00" fill="#000000">drake/common/text_logging</text>
<text text-anchor="middle" x="190.5" y="-130.5" font-family="Helvetica,sans-Serif" font-size="10.00" fill="#000000">_gflags.h</text>
</a>
</g>
</g>
<!-- Node0&#45;&gt;Node2 -->
<g id="edge2" class="edge">
<title>Node0&#45;&gt;Node2</title>
<path fill="none" stroke="#191970" d="M134.8379,-190.2967C144.2277,-181.559 156.1918,-170.4257 166.6198,-160.7218"/>
<polygon fill="#191970" stroke="#191970" points="169.2903,-163.0178 174.2267,-153.6432 164.5217,-157.8933 169.2903,-163.0178"/>
</g>
<!-- Node3 -->
<g id="node4" class="node">
<title>Node3</title>
<polygon fill="#ffffff" stroke="#bfbfbf" points="74,-67.5 74,-86.5 163,-86.5 163,-67.5 74,-67.5"/>
<text text-anchor="middle" x="118.5" y="-74.5" font-family="Helvetica,sans-Serif" font-size="10.00" fill="#000000">gflags/gflags.h</text>
</g>
<!-- Node2&#45;&gt;Node3 -->
<g id="edge3" class="edge">
<title>Node2&#45;&gt;Node3</title>
<path fill="none" stroke="#191970" d="M172.7022,-123.2977C162.0833,-114.2274 148.5969,-102.7077 137.7333,-93.4285"/>
<polygon fill="#191970" stroke="#191970" points="139.9051,-90.6805 130.0281,-86.8469 135.3587,-96.0031 139.9051,-90.6805"/>
</g>
<!-- Node4 -->
<g id="node5" class="node">
<title>Node4</title>
<g id="a_node5"><a xlink:href="text__logging_8h.html" target="_top" xlink:title="This is the entry point for all text logging within Drake. ">
<polygon fill="#ffffff" stroke="#000000" points="181,-67.5 181,-86.5 344,-86.5 344,-67.5 181,-67.5"/>
<text text-anchor="middle" x="262.5" y="-74.5" font-family="Helvetica,sans-Serif" font-size="10.00" fill="#000000">drake/common/text_logging.h</text>
</a>
</g>
</g>
<!-- Node2&#45;&gt;Node4 -->
<g id="edge4" class="edge">
<title>Node2&#45;&gt;Node4</title>
<path fill="none" stroke="#191970" d="M208.2978,-123.2977C218.9167,-114.2274 232.4031,-102.7077 243.2667,-93.4285"/>
<polygon fill="#191970" stroke="#191970" points="245.6413,-96.0031 250.9719,-86.8469 241.0949,-90.6805 245.6413,-96.0031"/>
</g>
<!-- Node5 -->
<g id="node6" class="node">
<title>Node5</title>
<g id="a_node6"><a xlink:href="drake__copyable_8h.html" target="_top" xlink:title="Provides careful macros to selectively enable or disable the special member functions for copy&#45;constr...">
<polygon fill="#ffffff" stroke="#000000" points="202,-.5 202,-30.5 323,-30.5 323,-.5 202,-.5"/>
<text text-anchor="start" x="210" y="-18.5" font-family="Helvetica,sans-Serif" font-size="10.00" fill="#000000">drake/common/drake</text>
<text text-anchor="middle" x="262.5" y="-7.5" font-family="Helvetica,sans-Serif" font-size="10.00" fill="#000000">_copyable.h</text>
</a>
</g>
</g>
<!-- Node4&#45;&gt;Node5 -->
<g id="edge5" class="edge">
<title>Node4&#45;&gt;Node5</title>
<path fill="none" stroke="#191970" d="M262.5,-67.3906C262.5,-60.2234 262.5,-50.0862 262.5,-40.671"/>
<polygon fill="#191970" stroke="#191970" points="266.0001,-40.5446 262.5,-30.5446 259.0001,-40.5446 266.0001,-40.5446"/>
</g>
</g>
</svg>
