<?xml version="1.0" encoding="UTF-8" standalone="no"?>
<!DOCTYPE svg PUBLIC "-//W3C//DTD SVG 1.1//EN"
 "http://www.w3.org/Graphics/SVG/1.1/DTD/svg11.dtd">
<!-- Generated by graphviz version 2.40.1 (20161225.0304)
 -->
<!-- Title: drake/attic/multibody/joints/drake_joints.h Pages: 1 -->
<svg width="1184pt" height="117pt"
 viewBox="0.00 0.00 1184.00 117.00" xmlns="http://www.w3.org/2000/svg" xmlns:xlink="http://www.w3.org/1999/xlink">
<g id="graph0" class="graph" transform="scale(1 1) rotate(0) translate(4 113)">
<title>drake/attic/multibody/joints/drake_joints.h</title>
<polygon fill="#ffffff" stroke="transparent" points="-4,4 -4,-113 1180,-113 1180,4 -4,4"/>
<!-- Node0 -->
<g id="node1" class="node">
<title>Node0</title>
<polygon fill="#bfbfbf" stroke="#000000" points="510.5,-78.5 510.5,-108.5 632.5,-108.5 632.5,-78.5 510.5,-78.5"/>
<text text-anchor="start" x="518.5" y="-96.5" font-family="Helvetica,sans-Serif" font-size="10.00" fill="#000000">drake/attic/multibody</text>
<text text-anchor="middle" x="571.5" y="-85.5" font-family="Helvetica,sans-Serif" font-size="10.00" fill="#000000">/joints/drake_joints.h</text>
</g>
<!-- Node1 -->
<g id="node2" class="node">
<title>Node1</title>
<polygon fill="#ffffff" stroke="#bfbfbf" points="0,-6 0,-36 127,-36 127,-6 0,-6"/>
<text text-anchor="start" x="8" y="-24" font-family="Helvetica,sans-Serif" font-size="10.00" fill="#000000">drake/multibody/joints</text>
<text text-anchor="middle" x="63.5" y="-13" font-family="Helvetica,sans-Serif" font-size="10.00" fill="#000000">/drake_joint.h</text>
</g>
<!-- Node0&#45;&gt;Node1 -->
<g id="edge1" class="edge">
<title>Node0&#45;&gt;Node1</title>
<path fill="none" stroke="#191970" d="M510.334,-89.4969C425.5206,-83.2173 267.703,-68.8931 135.5,-42 130.7271,-41.0291 125.8119,-39.8936 120.8977,-38.6622"/>
<polygon fill="#191970" stroke="#191970" points="121.4195,-35.1805 110.8581,-36.0223 119.6393,-41.9504 121.4195,-35.1805"/>
</g>
<!-- Node2 -->
<g id="node3" class="node">
<title>Node2</title>
<polygon fill="#ffffff" stroke="#bfbfbf" points="145,-6 145,-36 272,-36 272,-6 145,-6"/>
<text text-anchor="start" x="153" y="-24" font-family="Helvetica,sans-Serif" font-size="10.00" fill="#000000">drake/multibody/joints</text>
<text text-anchor="middle" x="208.5" y="-13" font-family="Helvetica,sans-Serif" font-size="10.00" fill="#000000">/fixed_joint.h</text>
</g>
<!-- Node0&#45;&gt;Node2 -->
<g id="edge2" class="edge">
<title>Node0&#45;&gt;Node2</title>
<path fill="none" stroke="#191970" d="M510.3574,-84.6579C451.2006,-75.6382 359.1885,-60.3811 280.5,-42 276.1751,-40.9897 271.7245,-39.8759 267.2585,-38.704"/>
<polygon fill="#191970" stroke="#191970" points="268.0667,-35.2969 257.4997,-36.0634 266.2383,-42.0539 268.0667,-35.2969"/>
</g>
<!-- Node3 -->
<g id="node4" class="node">
<title>Node3</title>
<polygon fill="#ffffff" stroke="#bfbfbf" points="290,-6 290,-36 417,-36 417,-6 290,-6"/>
<text text-anchor="start" x="298" y="-24" font-family="Helvetica,sans-Serif" font-size="10.00" fill="#000000">drake/multibody/joints</text>
<text text-anchor="middle" x="353.5" y="-13" font-family="Helvetica,sans-Serif" font-size="10.00" fill="#000000">/helical_joint.h</text>
</g>
<!-- Node0&#45;&gt;Node3 -->
<g id="edge3" class="edge">
<title>Node0&#45;&gt;Node3</title>
<path fill="none" stroke="#191970" d="M526.3303,-78.478C491.9852,-67.0559 444.5857,-51.2923 408.1113,-39.162"/>
<polygon fill="#191970" stroke="#191970" points="409.2054,-35.8375 398.6119,-36.0028 406.9964,-42.4798 409.2054,-35.8375"/>
</g>
<!-- Node4 -->
<g id="node5" class="node">
<title>Node4</title>
<polygon fill="#ffffff" stroke="#bfbfbf" points="435,-6 435,-36 562,-36 562,-6 435,-6"/>
<text text-anchor="start" x="443" y="-24" font-family="Helvetica,sans-Serif" font-size="10.00" fill="#000000">drake/multibody/joints</text>
<text text-anchor="middle" x="498.5" y="-13" font-family="Helvetica,sans-Serif" font-size="10.00" fill="#000000">/prismatic_joint.h</text>
</g>
<!-- Node0&#45;&gt;Node4 -->
<g id="edge4" class="edge">
<title>Node0&#45;&gt;Node4</title>
<path fill="none" stroke="#191970" d="M556.3744,-78.478C546.097,-68.271 532.3288,-54.5971 520.7999,-43.1471"/>
<polygon fill="#191970" stroke="#191970" points="523.168,-40.5662 513.6063,-36.0028 518.2353,-45.5329 523.168,-40.5662"/>
</g>
<!-- Node5 -->
<g id="node6" class="node">
<title>Node5</title>
<polygon fill="#ffffff" stroke="#bfbfbf" points="580,-6 580,-36 711,-36 711,-6 580,-6"/>
<text text-anchor="start" x="588" y="-24" font-family="Helvetica,sans-Serif" font-size="10.00" fill="#000000">drake/multibody/joints</text>
<text text-anchor="middle" x="645.5" y="-13" font-family="Helvetica,sans-Serif" font-size="10.00" fill="#000000">/quaternion_ball_joint.h</text>
</g>
<!-- Node0&#45;&gt;Node5 -->
<g id="edge5" class="edge">
<title>Node0&#45;&gt;Node5</title>
<path fill="none" stroke="#191970" d="M586.8328,-78.478C597.251,-68.271 611.2078,-54.5971 622.8947,-43.1471"/>
<polygon fill="#191970" stroke="#191970" points="625.4931,-45.5012 630.1868,-36.0028 620.5943,-40.501 625.4931,-45.5012"/>
</g>
<!-- Node6 -->
<g id="node7" class="node">
<title>Node6</title>
<polygon fill="#ffffff" stroke="#bfbfbf" points="729,-6 729,-36 880,-36 880,-6 729,-6"/>
<text text-anchor="start" x="737" y="-24" font-family="Helvetica,sans-Serif" font-size="10.00" fill="#000000">drake/multibody/joints</text>
<text text-anchor="middle" x="804.5" y="-13" font-family="Helvetica,sans-Serif" font-size="10.00" fill="#000000">/quaternion_floating_joint.h</text>
</g>
<!-- Node0&#45;&gt;Node6 -->
<g id="edge6" class="edge">
<title>Node0&#45;&gt;Node6</title>
<path fill="none" stroke="#191970" d="M619.7778,-78.478C656.6422,-67.0073 707.5783,-51.158 746.6281,-39.0074"/>
<polygon fill="#191970" stroke="#191970" points="747.7756,-42.3159 756.2841,-36.0028 745.6958,-35.632 747.7756,-42.3159"/>
</g>
<!-- Node7 -->
<g id="node8" class="node">
<title>Node7</title>
<polygon fill="#ffffff" stroke="#bfbfbf" points="898,-6 898,-36 1025,-36 1025,-6 898,-6"/>
<text text-anchor="start" x="906" y="-24" font-family="Helvetica,sans-Serif" font-size="10.00" fill="#000000">drake/multibody/joints</text>
<text text-anchor="middle" x="961.5" y="-13" font-family="Helvetica,sans-Serif" font-size="10.00" fill="#000000">/revolute_joint.h</text>
</g>
<!-- Node0&#45;&gt;Node7 -->
<g id="edge7" class="edge">
<title>Node0&#45;&gt;Node7</title>
<path fill="none" stroke="#191970" d="M632.5945,-85.8833C696.9348,-77.3319 800.9878,-61.9953 889.5,-42 893.9056,-41.0048 898.4392,-39.8937 902.9852,-38.7164"/>
<polygon fill="#191970" stroke="#191970" points="904.161,-42.0248 912.9122,-36.0527 902.3468,-35.264 904.161,-42.0248"/>
</g>
<!-- Node8 -->
<g id="node9" class="node">
<title>Node8</title>
<polygon fill="#ffffff" stroke="#bfbfbf" points="1043,-.5 1043,-41.5 1176,-41.5 1176,-.5 1043,-.5"/>
<text text-anchor="start" x="1051" y="-29.5" font-family="Helvetica,sans-Serif" font-size="10.00" fill="#000000">drake/multibody/joints</text>
<text text-anchor="start" x="1051" y="-18.5" font-family="Helvetica,sans-Serif" font-size="10.00" fill="#000000">/roll_pitch_yaw_floating</text>
<text text-anchor="middle" x="1109.5" y="-7.5" font-family="Helvetica,sans-Serif" font-size="10.00" fill="#000000">_joint.h</text>
</g>
<!-- Node0&#45;&gt;Node8 -->
<g id="edge8" class="edge">
<title>Node0&#45;&gt;Node8</title>
<path fill="none" stroke="#191970" d="M632.6472,-89.8693C719.6972,-84.0019 884.3804,-70.3202 1032.7757,-42.1921"/>
<polygon fill="#191970" stroke="#191970" points="1033.8187,-45.5557 1042.9779,-40.2302 1032.4968,-38.6817 1033.8187,-45.5557"/>
</g>
</g>
</svg>
