<?xml version="1.0" encoding="UTF-8" standalone="no"?>
<!DOCTYPE svg PUBLIC "-//W3C//DTD SVG 1.1//EN"
 "http://www.w3.org/Graphics/SVG/1.1/DTD/svg11.dtd">
<!-- Generated by graphviz version 2.40.1 (20161225.0304)
 -->
<!-- Title: drake/attic/multibody/collision/drake_collision.cc Pages: 1 -->
<svg width="762pt" height="162pt"
 viewBox="0.00 0.00 762.00 162.00" xmlns="http://www.w3.org/2000/svg" xmlns:xlink="http://www.w3.org/1999/xlink">
<g id="graph0" class="graph" transform="scale(1 1) rotate(0) translate(4 158)">
<title>drake/attic/multibody/collision/drake_collision.cc</title>
<polygon fill="#ffffff" stroke="transparent" points="-4,4 -4,-158 758,-158 758,4 -4,4"/>
<!-- Node0 -->
<g id="node1" class="node">
<title>Node0</title>
<polygon fill="#bfbfbf" stroke="#000000" points="293,-123.5 293,-153.5 443,-153.5 443,-123.5 293,-123.5"/>
<text text-anchor="start" x="301" y="-141.5" font-family="Helvetica,sans-Serif" font-size="10.00" fill="#000000">drake/attic/multibody</text>
<text text-anchor="middle" x="368" y="-130.5" font-family="Helvetica,sans-Serif" font-size="10.00" fill="#000000">/collision/drake_collision.cc</text>
</g>
<!-- Node1 -->
<g id="node2" class="node">
<title>Node1</title>
<polygon fill="#ffffff" stroke="#bfbfbf" points="0,-56.5 0,-86.5 140,-86.5 140,-56.5 0,-56.5"/>
<text text-anchor="start" x="8" y="-74.5" font-family="Helvetica,sans-Serif" font-size="10.00" fill="#000000">drake/multibody/collision</text>
<text text-anchor="middle" x="70" y="-63.5" font-family="Helvetica,sans-Serif" font-size="10.00" fill="#000000">/drake_collision.h</text>
</g>
<!-- Node0&#45;&gt;Node1 -->
<g id="edge1" class="edge">
<title>Node0&#45;&gt;Node1</title>
<path fill="none" stroke="#191970" d="M301.123,-123.4639C255.384,-113.1803 194.6303,-99.5209 146.8906,-88.7875"/>
<polygon fill="#191970" stroke="#191970" points="147.4353,-85.3227 136.9111,-86.5438 145.8998,-92.1522 147.4353,-85.3227"/>
</g>
<!-- Node2 -->
<g id="node3" class="node">
<title>Node2</title>
<g id="a_node3"><a xlink:href="drake__assert_8h.html" target="_top" xlink:title="Provides Drake&#39;s assertion implementation. ">
<polygon fill="#ffffff" stroke="#000000" points="158.5,-56.5 158.5,-86.5 279.5,-86.5 279.5,-56.5 158.5,-56.5"/>
<text text-anchor="start" x="166.5" y="-74.5" font-family="Helvetica,sans-Serif" font-size="10.00" fill="#000000">drake/common/drake</text>
<text text-anchor="middle" x="219" y="-63.5" font-family="Helvetica,sans-Serif" font-size="10.00" fill="#000000">_assert.h</text>
</a>
</g>
</g>
<!-- Node0&#45;&gt;Node2 -->
<g id="edge2" class="edge">
<title>Node0&#45;&gt;Node2</title>
<path fill="none" stroke="#191970" d="M334.5615,-123.4639C313.0693,-113.7996 284.9469,-101.154 261.8258,-90.7572"/>
<polygon fill="#191970" stroke="#191970" points="263.1401,-87.5107 252.5844,-86.6017 260.2693,-93.895 263.1401,-87.5107"/>
</g>
<!-- Node4 -->
<g id="node5" class="node">
<title>Node4</title>
<polygon fill="#ffffff" stroke="#bfbfbf" points="298,-56.5 298,-86.5 438,-86.5 438,-56.5 298,-56.5"/>
<text text-anchor="start" x="306" y="-74.5" font-family="Helvetica,sans-Serif" font-size="10.00" fill="#000000">drake/multibody/collision</text>
<text text-anchor="middle" x="368" y="-63.5" font-family="Helvetica,sans-Serif" font-size="10.00" fill="#000000">/collision_filter.h</text>
</g>
<!-- Node0&#45;&gt;Node4 -->
<g id="edge4" class="edge">
<title>Node0&#45;&gt;Node4</title>
<path fill="none" stroke="#191970" d="M368,-123.2967C368,-115.5013 368,-105.7991 368,-96.9064"/>
<polygon fill="#191970" stroke="#191970" points="371.5001,-96.6431 368,-86.6432 364.5001,-96.6432 371.5001,-96.6431"/>
</g>
<!-- Node5 -->
<g id="node6" class="node">
<title>Node5</title>
<polygon fill="#ffffff" stroke="#bfbfbf" points="456,-56.5 456,-86.5 596,-86.5 596,-56.5 456,-56.5"/>
<text text-anchor="start" x="464" y="-74.5" font-family="Helvetica,sans-Serif" font-size="10.00" fill="#000000">drake/multibody/collision</text>
<text text-anchor="middle" x="526" y="-63.5" font-family="Helvetica,sans-Serif" font-size="10.00" fill="#000000">/fcl_model.h</text>
</g>
<!-- Node0&#45;&gt;Node5 -->
<g id="edge5" class="edge">
<title>Node0&#45;&gt;Node5</title>
<path fill="none" stroke="#191970" d="M403.4583,-123.4639C426.3499,-113.7567 456.335,-101.0415 480.914,-90.6188"/>
<polygon fill="#191970" stroke="#191970" points="482.547,-93.728 490.3871,-86.6017 479.8142,-87.2835 482.547,-93.728"/>
</g>
<!-- Node6 -->
<g id="node7" class="node">
<title>Node6</title>
<polygon fill="#ffffff" stroke="#bfbfbf" points="614,-56.5 614,-86.5 754,-86.5 754,-56.5 614,-56.5"/>
<text text-anchor="start" x="622" y="-74.5" font-family="Helvetica,sans-Serif" font-size="10.00" fill="#000000">drake/multibody/collision</text>
<text text-anchor="middle" x="684" y="-63.5" font-family="Helvetica,sans-Serif" font-size="10.00" fill="#000000">/unusable_model.h</text>
</g>
<!-- Node0&#45;&gt;Node6 -->
<g id="edge6" class="edge">
<title>Node0&#45;&gt;Node6</title>
<path fill="none" stroke="#191970" d="M438.9166,-123.4639C487.8772,-113.083 553.0621,-99.2622 603.898,-88.4837"/>
<polygon fill="#191970" stroke="#191970" points="604.8082,-91.8686 613.8648,-86.3704 603.3562,-85.0208 604.8082,-91.8686"/>
</g>
<!-- Node3 -->
<g id="node4" class="node">
<title>Node3</title>
<polygon fill="#ffffff" stroke="#bfbfbf" points="184.5,-.5 184.5,-19.5 253.5,-19.5 253.5,-.5 184.5,-.5"/>
<text text-anchor="middle" x="219" y="-7.5" font-family="Helvetica,sans-Serif" font-size="10.00" fill="#000000">type_traits</text>
</g>
<!-- Node2&#45;&gt;Node3 -->
<g id="edge3" class="edge">
<title>Node2&#45;&gt;Node3</title>
<path fill="none" stroke="#191970" d="M219,-56.2977C219,-48.3834 219,-38.6043 219,-30.0759"/>
<polygon fill="#191970" stroke="#191970" points="222.5001,-29.8469 219,-19.8469 215.5001,-29.847 222.5001,-29.8469"/>
</g>
</g>
</svg>
