<?xml version="1.0" encoding="UTF-8" standalone="no"?>
<!DOCTYPE svg PUBLIC "-//W3C//DTD SVG 1.1//EN"
 "http://www.w3.org/Graphics/SVG/1.1/DTD/svg11.dtd">
<!-- Generated by graphviz version 2.40.1 (20161225.0304)
 -->
<!-- Title: drake/multibody/benchmarks/kuka_iiwa_robot/drake_kuka_iiwa_robot.h Pages: 1 -->
<svg width="578pt" height="128pt"
 viewBox="0.00 0.00 578.00 128.00" xmlns="http://www.w3.org/2000/svg" xmlns:xlink="http://www.w3.org/1999/xlink">
<g id="graph0" class="graph" transform="scale(1 1) rotate(0) translate(4 124)">
<title>drake/multibody/benchmarks/kuka_iiwa_robot/drake_kuka_iiwa_robot.h</title>
<polygon fill="#ffffff" stroke="transparent" points="-4,4 -4,-124 574,-124 574,4 -4,4"/>
<!-- Node204 -->
<g id="node1" class="node">
<title>Node204</title>
<polygon fill="#bfbfbf" stroke="#000000" points="200,-78.5 200,-119.5 360,-119.5 360,-78.5 200,-78.5"/>
<text text-anchor="start" x="208" y="-107.5" font-family="Helvetica,sans-Serif" font-size="10.00" fill="#000000">drake/multibody/benchmarks</text>
<text text-anchor="start" x="208" y="-96.5" font-family="Helvetica,sans-Serif" font-size="10.00" fill="#000000">/kuka_iiwa_robot/drake_kuka</text>
<text text-anchor="middle" x="280" y="-85.5" font-family="Helvetica,sans-Serif" font-size="10.00" fill="#000000">_iiwa_robot.h</text>
</g>
<!-- Node205 -->
<g id="node2" class="node">
<title>Node205</title>
<g id="a_node2"><a xlink:href="drake__kuka__iiwa__robot_8cc.html" target="_top" xlink:title="drake/multibody/benchmarks\l/kuka_iiwa_robot/drake_kuka\l_iiwa_robot.cc">
<polygon fill="#ffffff" stroke="#000000" points="0,-.5 0,-41.5 160,-41.5 160,-.5 0,-.5"/>
<text text-anchor="start" x="8" y="-29.5" font-family="Helvetica,sans-Serif" font-size="10.00" fill="#000000">drake/multibody/benchmarks</text>
<text text-anchor="start" x="8" y="-18.5" font-family="Helvetica,sans-Serif" font-size="10.00" fill="#000000">/kuka_iiwa_robot/drake_kuka</text>
<text text-anchor="middle" x="80" y="-7.5" font-family="Helvetica,sans-Serif" font-size="10.00" fill="#000000">_iiwa_robot.cc</text>
</a>
</g>
</g>
<!-- Node204&#45;&gt;Node205 -->
<g id="edge1" class="edge">
<title>Node204&#45;&gt;Node205</title>
<path fill="none" stroke="#191970" d="M217.7475,-74.7215C190.4865,-64.0897 158.8391,-51.7473 132.7581,-41.5757"/>
<polygon fill="#191970" stroke="#191970" points="216.6025,-78.0317 227.1907,-78.4044 219.1459,-71.5101 216.6025,-78.0317"/>
</g>
<!-- Node206 -->
<g id="node3" class="node">
<title>Node206</title>
<g id="a_node3"><a xlink:href="kuka__iiwa__robot__inverse__dynamics__test_8cc.html" target="_top" xlink:title="drake/multibody/benchmarks\l/kuka_iiwa_robot/test/kuka\l_iiwa_robot_inverse_dynamics_test.cc">
<polygon fill="#ffffff" stroke="#000000" points="178,-.5 178,-41.5 382,-41.5 382,-.5 178,-.5"/>
<text text-anchor="start" x="186" y="-29.5" font-family="Helvetica,sans-Serif" font-size="10.00" fill="#000000">drake/multibody/benchmarks</text>
<text text-anchor="start" x="186" y="-18.5" font-family="Helvetica,sans-Serif" font-size="10.00" fill="#000000">/kuka_iiwa_robot/test/kuka</text>
<text text-anchor="middle" x="280" y="-7.5" font-family="Helvetica,sans-Serif" font-size="10.00" fill="#000000">_iiwa_robot_inverse_dynamics_test.cc</text>
</a>
</g>
</g>
<!-- Node204&#45;&gt;Node206 -->
<g id="edge2" class="edge">
<title>Node204&#45;&gt;Node206</title>
<path fill="none" stroke="#191970" d="M280,-68.0789C280,-59.2178 280,-49.7747 280,-41.6898"/>
<polygon fill="#191970" stroke="#191970" points="276.5001,-68.0974 280,-78.0974 283.5001,-68.0975 276.5001,-68.0974"/>
</g>
<!-- Node207 -->
<g id="node4" class="node">
<title>Node207</title>
<g id="a_node4"><a xlink:href="kuka__iiwa__robot__kinematics__test_8cc.html" target="_top" xlink:title="drake/multibody/benchmarks\l/kuka_iiwa_robot/test/kuka\l_iiwa_robot_kinematics_test.cc">
<polygon fill="#ffffff" stroke="#000000" points="400,-.5 400,-41.5 570,-41.5 570,-.5 400,-.5"/>
<text text-anchor="start" x="408" y="-29.5" font-family="Helvetica,sans-Serif" font-size="10.00" fill="#000000">drake/multibody/benchmarks</text>
<text text-anchor="start" x="408" y="-18.5" font-family="Helvetica,sans-Serif" font-size="10.00" fill="#000000">/kuka_iiwa_robot/test/kuka</text>
<text text-anchor="middle" x="485" y="-7.5" font-family="Helvetica,sans-Serif" font-size="10.00" fill="#000000">_iiwa_robot_kinematics_test.cc</text>
</a>
</g>
</g>
<!-- Node204&#45;&gt;Node207 -->
<g id="edge3" class="edge">
<title>Node204&#45;&gt;Node207</title>
<path fill="none" stroke="#191970" d="M343.8089,-74.7215C371.7513,-64.0897 404.1899,-51.7473 430.9229,-41.5757"/>
<polygon fill="#191970" stroke="#191970" points="342.2311,-71.577 334.1295,-78.4044 344.7205,-78.1194 342.2311,-71.577"/>
</g>
</g>
</svg>
