<?xml version="1.0" encoding="UTF-8" standalone="no"?>
<!DOCTYPE svg PUBLIC "-//W3C//DTD SVG 1.1//EN"
 "http://www.w3.org/Graphics/SVG/1.1/DTD/svg11.dtd">
<!-- Generated by graphviz version 2.40.1 (20161225.0304)
 -->
<!-- Title: drake/common/drake_throw.h Pages: 1 -->
<svg width="174pt" height="162pt"
 viewBox="0.00 0.00 174.00 162.00" xmlns="http://www.w3.org/2000/svg" xmlns:xlink="http://www.w3.org/1999/xlink">
<g id="graph0" class="graph" transform="scale(1 1) rotate(0) translate(4 158)">
<title>drake/common/drake_throw.h</title>
<polygon fill="#ffffff" stroke="transparent" points="-4,4 -4,-158 170,-158 170,4 -4,4"/>
<!-- Node0 -->
<g id="node1" class="node">
<title>Node0</title>
<polygon fill="#bfbfbf" stroke="#000000" points="0,-123.5 0,-153.5 121,-153.5 121,-123.5 0,-123.5"/>
<text text-anchor="start" x="8" y="-141.5" font-family="Helvetica,sans-Serif" font-size="10.00" fill="#000000">drake/common/drake</text>
<text text-anchor="middle" x="60.5" y="-130.5" font-family="Helvetica,sans-Serif" font-size="10.00" fill="#000000">_throw.h</text>
</g>
<!-- Node1 -->
<g id="node2" class="node">
<title>Node1</title>
<polygon fill="#ffffff" stroke="#bfbfbf" points="26,-.5 26,-19.5 95,-19.5 95,-.5 26,-.5"/>
<text text-anchor="middle" x="60.5" y="-7.5" font-family="Helvetica,sans-Serif" font-size="10.00" fill="#000000">type_traits</text>
</g>
<!-- Node0&#45;&gt;Node1 -->
<g id="edge1" class="edge">
<title>Node0&#45;&gt;Node1</title>
<path fill="none" stroke="#191970" d="M51.2913,-123.3519C45.801,-113.4104 39.3594,-99.905 36.5,-87 33.5195,-73.5485 33.219,-69.3814 36.5,-56 38.8743,-46.3164 43.6821,-36.4071 48.3753,-28.2776"/>
<polygon fill="#191970" stroke="#191970" points="51.4119,-30.0214 53.6792,-19.672 45.4528,-26.3486 51.4119,-30.0214"/>
</g>
<!-- Node2 -->
<g id="node3" class="node">
<title>Node2</title>
<g id="a_node3"><a xlink:href="drake__assert_8h.html" target="_top" xlink:title="Provides Drake&#39;s assertion implementation. ">
<polygon fill="#ffffff" stroke="#000000" points="45,-56.5 45,-86.5 166,-86.5 166,-56.5 45,-56.5"/>
<text text-anchor="start" x="53" y="-74.5" font-family="Helvetica,sans-Serif" font-size="10.00" fill="#000000">drake/common/drake</text>
<text text-anchor="middle" x="105.5" y="-63.5" font-family="Helvetica,sans-Serif" font-size="10.00" fill="#000000">_assert.h</text>
</a>
</g>
</g>
<!-- Node0&#45;&gt;Node2 -->
<g id="edge2" class="edge">
<title>Node0&#45;&gt;Node2</title>
<path fill="none" stroke="#191970" d="M70.7112,-123.2967C76.2921,-114.9873 83.3281,-104.5115 89.6098,-95.1587"/>
<polygon fill="#191970" stroke="#191970" points="92.6591,-96.896 95.3292,-86.6432 86.8481,-92.9931 92.6591,-96.896"/>
</g>
<!-- Node2&#45;&gt;Node1 -->
<g id="edge3" class="edge">
<title>Node2&#45;&gt;Node1</title>
<path fill="none" stroke="#191970" d="M94.3764,-56.2977C88.1299,-47.7609 80.296,-37.0545 73.7353,-28.0883"/>
<polygon fill="#191970" stroke="#191970" points="76.4348,-25.8505 67.7051,-19.8469 70.7856,-29.984 76.4348,-25.8505"/>
</g>
</g>
</svg>
