<?xml version="1.0" encoding="UTF-8" standalone="no"?>
<!DOCTYPE svg PUBLIC "-//W3C//DTD SVG 1.1//EN"
 "http://www.w3.org/Graphics/SVG/1.1/DTD/svg11.dtd">
<!-- Generated by graphviz version 2.40.1 (20161225.0304)
 -->
<!-- Title: drake/attic/multibody/joints/drake_joint.cc Pages: 1 -->
<svg width="518pt" height="173pt"
 viewBox="0.00 0.00 518.00 173.00" xmlns="http://www.w3.org/2000/svg" xmlns:xlink="http://www.w3.org/1999/xlink">
<g id="graph0" class="graph" transform="scale(1 1) rotate(0) translate(4 169)">
<title>drake/attic/multibody/joints/drake_joint.cc</title>
<polygon fill="#ffffff" stroke="transparent" points="-4,4 -4,-169 514,-169 514,4 -4,4"/>
<!-- Node0 -->
<g id="node1" class="node">
<title>Node0</title>
<polygon fill="#bfbfbf" stroke="#000000" points="156.5,-134.5 156.5,-164.5 278.5,-164.5 278.5,-134.5 156.5,-134.5"/>
<text text-anchor="start" x="164.5" y="-152.5" font-family="Helvetica,sans-Serif" font-size="10.00" fill="#000000">drake/attic/multibody</text>
<text text-anchor="middle" x="217.5" y="-141.5" font-family="Helvetica,sans-Serif" font-size="10.00" fill="#000000">/joints/drake_joint.cc</text>
</g>
<!-- Node1 -->
<g id="node2" class="node">
<title>Node1</title>
<polygon fill="#ffffff" stroke="#bfbfbf" points="0,-67.5 0,-97.5 127,-97.5 127,-67.5 0,-67.5"/>
<text text-anchor="start" x="8" y="-85.5" font-family="Helvetica,sans-Serif" font-size="10.00" fill="#000000">drake/multibody/joints</text>
<text text-anchor="middle" x="63.5" y="-74.5" font-family="Helvetica,sans-Serif" font-size="10.00" fill="#000000">/drake_joint.h</text>
</g>
<!-- Node0&#45;&gt;Node1 -->
<g id="edge1" class="edge">
<title>Node0&#45;&gt;Node1</title>
<path fill="none" stroke="#191970" d="M182.9394,-134.4639C160.6273,-124.7567 131.4013,-112.0415 107.4446,-101.6188"/>
<polygon fill="#191970" stroke="#191970" points="108.7774,-98.3818 98.2113,-97.6017 105.9848,-104.8006 108.7774,-98.3818"/>
</g>
<!-- Node2 -->
<g id="node3" class="node">
<title>Node2</title>
<polygon fill="#ffffff" stroke="#bfbfbf" points="145.5,-73 145.5,-92 189.5,-92 189.5,-73 145.5,-73"/>
<text text-anchor="middle" x="167.5" y="-80" font-family="Helvetica,sans-Serif" font-size="10.00" fill="#000000">limits</text>
</g>
<!-- Node0&#45;&gt;Node2 -->
<g id="edge2" class="edge">
<title>Node0&#45;&gt;Node2</title>
<path fill="none" stroke="#191970" d="M206.1542,-134.2967C198.5909,-124.1618 188.6224,-110.804 180.7031,-100.1921"/>
<polygon fill="#191970" stroke="#191970" points="183.4165,-97.976 174.6306,-92.055 177.8064,-102.1626 183.4165,-97.976"/>
</g>
<!-- Node3 -->
<g id="node4" class="node">
<title>Node3</title>
<g id="a_node4"><a xlink:href="drake__assert_8h.html" target="_top" xlink:title="Provides Drake&#39;s assertion implementation. ">
<polygon fill="#ffffff" stroke="#000000" points="208,-67.5 208,-97.5 329,-97.5 329,-67.5 208,-67.5"/>
<text text-anchor="start" x="216" y="-85.5" font-family="Helvetica,sans-Serif" font-size="10.00" fill="#000000">drake/common/drake</text>
<text text-anchor="middle" x="268.5" y="-74.5" font-family="Helvetica,sans-Serif" font-size="10.00" fill="#000000">_assert.h</text>
</a>
</g>
</g>
<!-- Node0&#45;&gt;Node3 -->
<g id="edge3" class="edge">
<title>Node0&#45;&gt;Node3</title>
<path fill="none" stroke="#191970" d="M229.0727,-134.2967C235.4629,-125.9016 243.5365,-115.2952 250.711,-105.8698"/>
<polygon fill="#191970" stroke="#191970" points="253.7012,-107.7201 256.9731,-97.6432 248.1312,-103.4803 253.7012,-107.7201"/>
</g>
<!-- Node5 -->
<g id="node6" class="node">
<title>Node5</title>
<g id="a_node6"><a xlink:href="text__logging_8h.html" target="_top" xlink:title="This is the entry point for all text logging within Drake. ">
<polygon fill="#ffffff" stroke="#000000" points="347,-73 347,-92 510,-92 510,-73 347,-73"/>
<text text-anchor="middle" x="428.5" y="-80" font-family="Helvetica,sans-Serif" font-size="10.00" fill="#000000">drake/common/text_logging.h</text>
</a>
</g>
</g>
<!-- Node0&#45;&gt;Node5 -->
<g id="edge5" class="edge">
<title>Node0&#45;&gt;Node5</title>
<path fill="none" stroke="#191970" d="M264.8525,-134.4639C302.1204,-122.63 353.4665,-106.3258 388.6484,-95.1543"/>
<polygon fill="#191970" stroke="#191970" points="390.0937,-98.3677 398.5654,-92.0053 387.9751,-91.6959 390.0937,-98.3677"/>
</g>
<!-- Node4 -->
<g id="node5" class="node">
<title>Node4</title>
<polygon fill="#ffffff" stroke="#bfbfbf" points="234,-6 234,-25 303,-25 303,-6 234,-6"/>
<text text-anchor="middle" x="268.5" y="-13" font-family="Helvetica,sans-Serif" font-size="10.00" fill="#000000">type_traits</text>
</g>
<!-- Node3&#45;&gt;Node4 -->
<g id="edge4" class="edge">
<title>Node3&#45;&gt;Node4</title>
<path fill="none" stroke="#191970" d="M268.5,-67.2967C268.5,-57.7699 268.5,-45.3954 268.5,-35.1306"/>
<polygon fill="#191970" stroke="#191970" points="272.0001,-35.0549 268.5,-25.055 265.0001,-35.055 272.0001,-35.0549"/>
</g>
<!-- Node6 -->
<g id="node7" class="node">
<title>Node6</title>
<g id="a_node7"><a xlink:href="drake__copyable_8h.html" target="_top" xlink:title="Provides careful macros to selectively enable or disable the special member functions for copy&#45;constr...">
<polygon fill="#ffffff" stroke="#000000" points="368,-.5 368,-30.5 489,-30.5 489,-.5 368,-.5"/>
<text text-anchor="start" x="376" y="-18.5" font-family="Helvetica,sans-Serif" font-size="10.00" fill="#000000">drake/common/drake</text>
<text text-anchor="middle" x="428.5" y="-7.5" font-family="Helvetica,sans-Serif" font-size="10.00" fill="#000000">_copyable.h</text>
</a>
</g>
</g>
<!-- Node5&#45;&gt;Node6 -->
<g id="edge6" class="edge">
<title>Node5&#45;&gt;Node6</title>
<path fill="none" stroke="#191970" d="M428.5,-72.9005C428.5,-64.5099 428.5,-51.9451 428.5,-40.7085"/>
<polygon fill="#191970" stroke="#191970" points="432.0001,-40.5217 428.5,-30.5218 425.0001,-40.5218 432.0001,-40.5217"/>
</g>
</g>
</svg>
