<?xml version="1.0" encoding="UTF-8" standalone="no"?>
<!DOCTYPE svg PUBLIC "-//W3C//DTD SVG 1.1//EN"
 "http://www.w3.org/Graphics/SVG/1.1/DTD/svg11.dtd">
<!-- Generated by graphviz version 2.40.1 (20161225.0304)
 -->
<!-- Title: drake/lcm/drake_lcm_log.h Pages: 1 -->
<svg width="520pt" height="173pt"
 viewBox="0.00 0.00 520.00 173.00" xmlns="http://www.w3.org/2000/svg" xmlns:xlink="http://www.w3.org/1999/xlink">
<g id="graph0" class="graph" transform="scale(1 1) rotate(0) translate(4 169)">
<title>drake/lcm/drake_lcm_log.h</title>
<polygon fill="#ffffff" stroke="transparent" points="-4,4 -4,-169 516,-169 516,4 -4,4"/>
<!-- Node20 -->
<g id="node1" class="node">
<title>Node20</title>
<polygon fill="#bfbfbf" stroke="#000000" points="210,-134.5 210,-164.5 329,-164.5 329,-134.5 210,-134.5"/>
<text text-anchor="start" x="218" y="-152.5" font-family="Helvetica,sans-Serif" font-size="10.00" fill="#000000">drake/lcm/drake_lcm</text>
<text text-anchor="middle" x="269.5" y="-141.5" font-family="Helvetica,sans-Serif" font-size="10.00" fill="#000000">_log.h</text>
</g>
<!-- Node21 -->
<g id="node2" class="node">
<title>Node21</title>
<g id="a_node2"><a xlink:href="drake__lcm__log_8cc.html" target="_top" xlink:title="drake/lcm/drake_lcm\l_log.cc">
<polygon fill="#ffffff" stroke="#000000" points="0,-67.5 0,-97.5 119,-97.5 119,-67.5 0,-67.5"/>
<text text-anchor="start" x="8" y="-85.5" font-family="Helvetica,sans-Serif" font-size="10.00" fill="#000000">drake/lcm/drake_lcm</text>
<text text-anchor="middle" x="59.5" y="-74.5" font-family="Helvetica,sans-Serif" font-size="10.00" fill="#000000">_log.cc</text>
</a>
</g>
</g>
<!-- Node20&#45;&gt;Node21 -->
<g id="edge1" class="edge">
<title>Node20&#45;&gt;Node21</title>
<path fill="none" stroke="#191970" d="M212.8072,-131.4123C179.6382,-120.8298 138.2453,-107.6235 106.8336,-97.6017"/>
<polygon fill="#191970" stroke="#191970" points="211.7812,-134.7587 222.3719,-134.4639 213.9089,-128.0899 211.7812,-134.7587"/>
</g>
<!-- Node22 -->
<g id="node3" class="node">
<title>Node22</title>
<g id="a_node3"><a xlink:href="drake__lcm__log__test_8cc.html" target="_top" xlink:title="drake/lcm/test/drake\l_lcm_log_test.cc">
<polygon fill="#ffffff" stroke="#000000" points="137.5,-67.5 137.5,-97.5 255.5,-97.5 255.5,-67.5 137.5,-67.5"/>
<text text-anchor="start" x="145.5" y="-85.5" font-family="Helvetica,sans-Serif" font-size="10.00" fill="#000000">drake/lcm/test/drake</text>
<text text-anchor="middle" x="196.5" y="-74.5" font-family="Helvetica,sans-Serif" font-size="10.00" fill="#000000">_lcm_log_test.cc</text>
</a>
</g>
</g>
<!-- Node20&#45;&gt;Node22 -->
<g id="edge2" class="edge">
<title>Node20&#45;&gt;Node22</title>
<path fill="none" stroke="#191970" d="M245.526,-127.4965C234.8733,-117.7193 222.6007,-106.4554 212.9993,-97.6432"/>
<polygon fill="#191970" stroke="#191970" points="243.2011,-130.1134 252.9352,-134.2967 247.9344,-124.9562 243.2011,-130.1134"/>
</g>
<!-- Node23 -->
<g id="node4" class="node">
<title>Node23</title>
<g id="a_node4"><a xlink:href="lcm__log__playback__system_8h.html" target="_top" xlink:title="drake/systems/lcm/lcm\l_log_playback_system.h">
<polygon fill="#ffffff" stroke="#000000" points="274,-67.5 274,-97.5 411,-97.5 411,-67.5 274,-67.5"/>
<text text-anchor="start" x="282" y="-85.5" font-family="Helvetica,sans-Serif" font-size="10.00" fill="#000000">drake/systems/lcm/lcm</text>
<text text-anchor="middle" x="342.5" y="-74.5" font-family="Helvetica,sans-Serif" font-size="10.00" fill="#000000">_log_playback_system.h</text>
</a>
</g>
</g>
<!-- Node20&#45;&gt;Node23 -->
<g id="edge3" class="edge">
<title>Node20&#45;&gt;Node23</title>
<path fill="none" stroke="#191970" d="M293.474,-127.4965C304.1267,-117.7193 316.3993,-106.4554 326.0007,-97.6432"/>
<polygon fill="#191970" stroke="#191970" points="291.0656,-124.9562 286.0648,-134.2967 295.7989,-130.1134 291.0656,-124.9562"/>
</g>
<!-- Node25 -->
<g id="node6" class="node">
<title>Node25</title>
<g id="a_node6"><a xlink:href="lcm__log__playback__test_8cc.html" target="_top" xlink:title="drake/systems/lcm/test\l/lcm_log_playback_test.cc">
<polygon fill="#ffffff" stroke="#000000" points="367,-.5 367,-30.5 512,-30.5 512,-.5 367,-.5"/>
<text text-anchor="start" x="375" y="-18.5" font-family="Helvetica,sans-Serif" font-size="10.00" fill="#000000">drake/systems/lcm/test</text>
<text text-anchor="middle" x="439.5" y="-7.5" font-family="Helvetica,sans-Serif" font-size="10.00" fill="#000000">/lcm_log_playback_test.cc</text>
</a>
</g>
</g>
<!-- Node20&#45;&gt;Node25 -->
<g id="edge6" class="edge">
<title>Node20&#45;&gt;Node25</title>
<path fill="none" stroke="#191970" d="M339.1671,-132.7656C373.0704,-123.277 408.972,-110.7724 420.5,-98 437.3398,-79.3424 440.1601,-48.8001 440.1765,-30.5751"/>
<polygon fill="#191970" stroke="#191970" points="337.9354,-129.4737 329.2108,-135.4847 339.7797,-136.2264 337.9354,-129.4737"/>
</g>
<!-- Node24 -->
<g id="node5" class="node">
<title>Node24</title>
<g id="a_node5"><a xlink:href="lcm__log__playback__system_8cc.html" target="_top" xlink:title="drake/systems/lcm/lcm\l_log_playback_system.cc">
<polygon fill="#ffffff" stroke="#000000" points="208,-.5 208,-30.5 349,-30.5 349,-.5 208,-.5"/>
<text text-anchor="start" x="216" y="-18.5" font-family="Helvetica,sans-Serif" font-size="10.00" fill="#000000">drake/systems/lcm/lcm</text>
<text text-anchor="middle" x="278.5" y="-7.5" font-family="Helvetica,sans-Serif" font-size="10.00" fill="#000000">_log_playback_system.cc</text>
</a>
</g>
</g>
<!-- Node23&#45;&gt;Node24 -->
<g id="edge4" class="edge">
<title>Node23&#45;&gt;Node24</title>
<path fill="none" stroke="#191970" d="M320.9361,-59.9253C311.7254,-50.2828 301.2193,-39.2843 292.9651,-30.6432"/>
<polygon fill="#191970" stroke="#191970" points="318.5392,-62.4831 327.9774,-67.2967 323.601,-57.648 318.5392,-62.4831"/>
</g>
<!-- Node23&#45;&gt;Node25 -->
<g id="edge5" class="edge">
<title>Node23&#45;&gt;Node25</title>
<path fill="none" stroke="#191970" d="M373.1246,-61.3469C387.5578,-51.3776 404.4467,-39.7121 417.5763,-30.6432"/>
<polygon fill="#191970" stroke="#191970" points="370.7497,-58.7335 364.5108,-67.2967 374.728,-64.4932 370.7497,-58.7335"/>
</g>
</g>
</svg>
