<?xml version="1.0" encoding="UTF-8" standalone="no"?>
<!DOCTYPE svg PUBLIC "-//W3C//DTD SVG 1.1//EN"
 "http://www.w3.org/Graphics/SVG/1.1/DTD/svg11.dtd">
<!-- Generated by graphviz version 2.40.1 (20161225.0304)
 -->
<!-- Title: drake/solvers/dreal_solver.h Pages: 1 -->
<svg width="520pt" height="106pt"
 viewBox="0.00 0.00 519.50 106.00" xmlns="http://www.w3.org/2000/svg" xmlns:xlink="http://www.w3.org/1999/xlink">
<g id="graph0" class="graph" transform="scale(1 1) rotate(0) translate(4 102)">
<title>drake/solvers/dreal_solver.h</title>
<polygon fill="#ffffff" stroke="transparent" points="-4,4 -4,-102 515.5,-102 515.5,4 -4,4"/>
<!-- Node74 -->
<g id="node1" class="node">
<title>Node74</title>
<polygon fill="#bfbfbf" stroke="#000000" points="196,-67.5 196,-97.5 306,-97.5 306,-67.5 196,-67.5"/>
<text text-anchor="start" x="204" y="-85.5" font-family="Helvetica,sans-Serif" font-size="10.00" fill="#000000">drake/solvers/dreal</text>
<text text-anchor="middle" x="251" y="-74.5" font-family="Helvetica,sans-Serif" font-size="10.00" fill="#000000">_solver.h</text>
</g>
<!-- Node75 -->
<g id="node2" class="node">
<title>Node75</title>
<g id="a_node2"><a xlink:href="dreal__solver_8cc.html" target="_top" xlink:title="drake/solvers/dreal\l_solver.cc">
<polygon fill="#ffffff" stroke="#000000" points="0,-.5 0,-30.5 110,-30.5 110,-.5 0,-.5"/>
<text text-anchor="start" x="8" y="-18.5" font-family="Helvetica,sans-Serif" font-size="10.00" fill="#000000">drake/solvers/dreal</text>
<text text-anchor="middle" x="55" y="-7.5" font-family="Helvetica,sans-Serif" font-size="10.00" fill="#000000">_solver.cc</text>
</a>
</g>
</g>
<!-- Node74&#45;&gt;Node75 -->
<g id="edge1" class="edge">
<title>Node74&#45;&gt;Node75</title>
<path fill="none" stroke="#191970" d="M197.2879,-64.1392C166.4665,-53.6033 128.244,-40.5375 99.1781,-30.6017"/>
<polygon fill="#191970" stroke="#191970" points="196.4192,-67.5411 207.0138,-67.4639 198.6835,-60.9174 196.4192,-67.5411"/>
</g>
<!-- Node76 -->
<g id="node3" class="node">
<title>Node76</title>
<g id="a_node3"><a xlink:href="dreal__solver__common_8cc.html" target="_top" xlink:title="drake/solvers/dreal\l_solver_common.cc">
<polygon fill="#ffffff" stroke="#000000" points="128.5,-.5 128.5,-30.5 241.5,-30.5 241.5,-.5 128.5,-.5"/>
<text text-anchor="start" x="136.5" y="-18.5" font-family="Helvetica,sans-Serif" font-size="10.00" fill="#000000">drake/solvers/dreal</text>
<text text-anchor="middle" x="185" y="-7.5" font-family="Helvetica,sans-Serif" font-size="10.00" fill="#000000">_solver_common.cc</text>
</a>
</g>
</g>
<!-- Node74&#45;&gt;Node76 -->
<g id="edge2" class="edge">
<title>Node74&#45;&gt;Node76</title>
<path fill="none" stroke="#191970" d="M228.7622,-59.9253C219.2637,-50.2828 208.4293,-39.2843 199.9172,-30.6432"/>
<polygon fill="#191970" stroke="#191970" points="226.5124,-62.6288 236.0236,-67.2967 231.4993,-57.7164 226.5124,-62.6288"/>
</g>
<!-- Node77 -->
<g id="node4" class="node">
<title>Node77</title>
<g id="a_node4"><a xlink:href="solver__type__converter_8cc.html" target="_top" xlink:title="drake/solvers/solver\l_type_converter.cc">
<polygon fill="#ffffff" stroke="#000000" points="260,-.5 260,-30.5 376,-30.5 376,-.5 260,-.5"/>
<text text-anchor="start" x="268" y="-18.5" font-family="Helvetica,sans-Serif" font-size="10.00" fill="#000000">drake/solvers/solver</text>
<text text-anchor="middle" x="318" y="-7.5" font-family="Helvetica,sans-Serif" font-size="10.00" fill="#000000">_type_converter.cc</text>
</a>
</g>
</g>
<!-- Node74&#45;&gt;Node77 -->
<g id="edge3" class="edge">
<title>Node74&#45;&gt;Node77</title>
<path fill="none" stroke="#191970" d="M273.2887,-60.2113C282.9991,-50.5009 294.1302,-39.3698 302.8568,-30.6432"/>
<polygon fill="#191970" stroke="#191970" points="270.7996,-57.7507 266.2033,-67.2967 275.7493,-62.7004 270.7996,-57.7507"/>
</g>
<!-- Node78 -->
<g id="node5" class="node">
<title>Node78</title>
<g id="a_node5"><a xlink:href="dreal__solver__test_8cc.html" target="_top" xlink:title="drake/solvers/test\l/dreal_solver_test.cc">
<polygon fill="#ffffff" stroke="#000000" points="394.5,-.5 394.5,-30.5 511.5,-30.5 511.5,-.5 394.5,-.5"/>
<text text-anchor="start" x="402.5" y="-18.5" font-family="Helvetica,sans-Serif" font-size="10.00" fill="#000000">drake/solvers/test</text>
<text text-anchor="middle" x="453" y="-7.5" font-family="Helvetica,sans-Serif" font-size="10.00" fill="#000000">/dreal_solver_test.cc</text>
</a>
</g>
</g>
<!-- Node74&#45;&gt;Node78 -->
<g id="edge4" class="edge">
<title>Node74&#45;&gt;Node78</title>
<path fill="none" stroke="#191970" d="M305.9443,-64.2759C337.78,-53.7165 377.3842,-40.5805 407.4695,-30.6017"/>
<polygon fill="#191970" stroke="#191970" points="304.7224,-60.9936 296.3327,-67.4639 306.9262,-67.6377 304.7224,-60.9936"/>
</g>
</g>
</svg>
