<?xml version="1.0" encoding="UTF-8" standalone="no"?>
<!DOCTYPE svg PUBLIC "-//W3C//DTD SVG 1.1//EN"
 "http://www.w3.org/Graphics/SVG/1.1/DTD/svg11.dtd">
<!-- Generated by graphviz version 2.40.1 (20161225.0304)
 -->
<!-- Title: drake/bindings/pydrake/common/eigen_geometry_pybind.h Pages: 1 -->
<svg width="369pt" height="128pt"
 viewBox="0.00 0.00 368.50 128.00" xmlns="http://www.w3.org/2000/svg" xmlns:xlink="http://www.w3.org/1999/xlink">
<g id="graph0" class="graph" transform="scale(1 1) rotate(0) translate(4 124)">
<title>drake/bindings/pydrake/common/eigen_geometry_pybind.h</title>
<polygon fill="#ffffff" stroke="transparent" points="-4,4 -4,-124 364.5,-124 364.5,4 -4,4"/>
<!-- Node9 -->
<g id="node1" class="node">
<title>Node9</title>
<polygon fill="#bfbfbf" stroke="#000000" points="109.5,-78.5 109.5,-119.5 254.5,-119.5 254.5,-78.5 109.5,-78.5"/>
<text text-anchor="start" x="117.5" y="-107.5" font-family="Helvetica,sans-Serif" font-size="10.00" fill="#000000">drake/bindings/pydrake</text>
<text text-anchor="start" x="117.5" y="-96.5" font-family="Helvetica,sans-Serif" font-size="10.00" fill="#000000">/common/eigen_geometry</text>
<text text-anchor="middle" x="182" y="-85.5" font-family="Helvetica,sans-Serif" font-size="10.00" fill="#000000">_pybind.h</text>
</g>
<!-- Node10 -->
<g id="node2" class="node">
<title>Node10</title>
<g id="a_node2"><a xlink:href="eigen__geometry__py_8cc.html" target="_top" xlink:title="drake/bindings/pydrake\l/common/eigen_geometry_py.cc">
<polygon fill="#ffffff" stroke="#000000" points="0,-6 0,-36 176,-36 176,-6 0,-6"/>
<text text-anchor="start" x="8" y="-24" font-family="Helvetica,sans-Serif" font-size="10.00" fill="#000000">drake/bindings/pydrake</text>
<text text-anchor="middle" x="88" y="-13" font-family="Helvetica,sans-Serif" font-size="10.00" fill="#000000">/common/eigen_geometry_py.cc</text>
</a>
</g>
</g>
<!-- Node9&#45;&gt;Node10 -->
<g id="edge1" class="edge">
<title>Node9&#45;&gt;Node10</title>
<path fill="none" stroke="#191970" d="M149.0373,-71.648C134.6171,-59.6823 118.2559,-46.106 106.105,-36.0233"/>
<polygon fill="#191970" stroke="#191970" points="146.8791,-74.4051 156.8097,-78.0974 151.3491,-69.0182 146.8791,-74.4051"/>
</g>
<!-- Node11 -->
<g id="node3" class="node">
<title>Node11</title>
<g id="a_node3"><a xlink:href="eigen__geometry__test__util__py_8cc.html" target="_top" xlink:title="drake/bindings/pydrake\l/common/test/eigen_geometry\l_test_util_py.cc">
<polygon fill="#ffffff" stroke="#000000" points="193.5,-.5 193.5,-41.5 360.5,-41.5 360.5,-.5 193.5,-.5"/>
<text text-anchor="start" x="201.5" y="-29.5" font-family="Helvetica,sans-Serif" font-size="10.00" fill="#000000">drake/bindings/pydrake</text>
<text text-anchor="start" x="201.5" y="-18.5" font-family="Helvetica,sans-Serif" font-size="10.00" fill="#000000">/common/test/eigen_geometry</text>
<text text-anchor="middle" x="277" y="-7.5" font-family="Helvetica,sans-Serif" font-size="10.00" fill="#000000">_test_util_py.cc</text>
</a>
</g>
</g>
<!-- Node9&#45;&gt;Node11 -->
<g id="edge2" class="edge">
<title>Node9&#45;&gt;Node11</title>
<path fill="none" stroke="#191970" d="M215.4787,-71.5122C227.4243,-61.7043 240.6694,-50.8293 251.8009,-41.6898"/>
<polygon fill="#191970" stroke="#191970" points="212.966,-69.0467 207.4583,-78.0974 217.408,-74.4568 212.966,-69.0467"/>
</g>
</g>
</svg>
