<?xml version="1.0" encoding="UTF-8" standalone="no"?>
<!DOCTYPE svg PUBLIC "-//W3C//DTD SVG 1.1//EN"
 "http://www.w3.org/Graphics/SVG/1.1/DTD/svg11.dtd">
<!-- Generated by graphviz version 2.40.1 (20161225.0304)
 -->
<!-- Title: drake/math/eigen_sparse_triplet.h Pages: 1 -->
<svg width="722pt" height="106pt"
 viewBox="0.00 0.00 722.00 106.00" xmlns="http://www.w3.org/2000/svg" xmlns:xlink="http://www.w3.org/1999/xlink">
<g id="graph0" class="graph" transform="scale(1 1) rotate(0) translate(4 102)">
<title>drake/math/eigen_sparse_triplet.h</title>
<polygon fill="#ffffff" stroke="transparent" points="-4,4 -4,-102 718,-102 718,4 -4,4"/>
<!-- Node3 -->
<g id="node1" class="node">
<title>Node3</title>
<polygon fill="#bfbfbf" stroke="#000000" points="290,-67.5 290,-97.5 430,-97.5 430,-67.5 290,-67.5"/>
<text text-anchor="start" x="298" y="-85.5" font-family="Helvetica,sans-Serif" font-size="10.00" fill="#000000">drake/math/eigen_sparse</text>
<text text-anchor="middle" x="360" y="-74.5" font-family="Helvetica,sans-Serif" font-size="10.00" fill="#000000">_triplet.h</text>
</g>
<!-- Node4 -->
<g id="node2" class="node">
<title>Node4</title>
<g id="a_node2"><a xlink:href="eigen__sparse__triplet_8cc.html" target="_top" xlink:title="drake/math/eigen_sparse\l_triplet.cc">
<polygon fill="#ffffff" stroke="#000000" points="0,-.5 0,-30.5 140,-30.5 140,-.5 0,-.5"/>
<text text-anchor="start" x="8" y="-18.5" font-family="Helvetica,sans-Serif" font-size="10.00" fill="#000000">drake/math/eigen_sparse</text>
<text text-anchor="middle" x="70" y="-7.5" font-family="Helvetica,sans-Serif" font-size="10.00" fill="#000000">_triplet.cc</text>
</a>
</g>
</g>
<!-- Node3&#45;&gt;Node4 -->
<g id="edge1" class="edge">
<title>Node3&#45;&gt;Node4</title>
<path fill="none" stroke="#191970" d="M284.9165,-65.1531C238.5091,-54.4314 179.5401,-40.8075 135.1148,-30.5438"/>
<polygon fill="#191970" stroke="#191970" points="284.3871,-68.6229 294.9183,-67.4639 285.9629,-61.8026 284.3871,-68.6229"/>
</g>
<!-- Node5 -->
<g id="node3" class="node">
<title>Node5</title>
<g id="a_node3"><a xlink:href="eigen__sparse__triplet__test_8cc.html" target="_top" xlink:title="drake/math/test/eigen\l_sparse_triplet_test.cc">
<polygon fill="#ffffff" stroke="#000000" points="158,-.5 158,-30.5 284,-30.5 284,-.5 158,-.5"/>
<text text-anchor="start" x="166" y="-18.5" font-family="Helvetica,sans-Serif" font-size="10.00" fill="#000000">drake/math/test/eigen</text>
<text text-anchor="middle" x="221" y="-7.5" font-family="Helvetica,sans-Serif" font-size="10.00" fill="#000000">_sparse_triplet_test.cc</text>
</a>
</g>
</g>
<!-- Node3&#45;&gt;Node5 -->
<g id="edge2" class="edge">
<title>Node3&#45;&gt;Node5</title>
<path fill="none" stroke="#191970" d="M319.6523,-63.0518C298.2938,-52.7567 272.4489,-40.2991 252.5711,-30.7177"/>
<polygon fill="#191970" stroke="#191970" points="318.2778,-66.2746 328.8057,-67.4639 321.3173,-59.9689 318.2778,-66.2746"/>
</g>
<!-- Node6 -->
<g id="node4" class="node">
<title>Node6</title>
<g id="a_node4"><a xlink:href="gurobi__solver_8cc.html" target="_top" xlink:title="drake/solvers/gurobi\l_solver.cc">
<polygon fill="#ffffff" stroke="#000000" points="302,-.5 302,-30.5 418,-30.5 418,-.5 302,-.5"/>
<text text-anchor="start" x="310" y="-18.5" font-family="Helvetica,sans-Serif" font-size="10.00" fill="#000000">drake/solvers/gurobi</text>
<text text-anchor="middle" x="360" y="-7.5" font-family="Helvetica,sans-Serif" font-size="10.00" fill="#000000">_solver.cc</text>
</a>
</g>
</g>
<!-- Node3&#45;&gt;Node6 -->
<g id="edge3" class="edge">
<title>Node3&#45;&gt;Node6</title>
<path fill="none" stroke="#191970" d="M360,-57.0249C360,-48.128 360,-38.4287 360,-30.6432"/>
<polygon fill="#191970" stroke="#191970" points="356.5001,-57.2966 360,-67.2967 363.5001,-57.2967 356.5001,-57.2966"/>
</g>
<!-- Node7 -->
<g id="node5" class="node">
<title>Node7</title>
<g id="a_node5"><a xlink:href="osqp__solver_8cc.html" target="_top" xlink:title="drake/solvers/osqp\l_solver.cc">
<polygon fill="#ffffff" stroke="#000000" points="436.5,-.5 436.5,-30.5 545.5,-30.5 545.5,-.5 436.5,-.5"/>
<text text-anchor="start" x="444.5" y="-18.5" font-family="Helvetica,sans-Serif" font-size="10.00" fill="#000000">drake/solvers/osqp</text>
<text text-anchor="middle" x="491" y="-7.5" font-family="Helvetica,sans-Serif" font-size="10.00" fill="#000000">_solver.cc</text>
</a>
</g>
</g>
<!-- Node3&#45;&gt;Node7 -->
<g id="edge4" class="edge">
<title>Node3&#45;&gt;Node7</title>
<path fill="none" stroke="#191970" d="M398.5682,-62.7743C418.5913,-52.5335 442.6802,-40.2132 461.2459,-30.7177"/>
<polygon fill="#191970" stroke="#191970" points="396.7083,-59.7942 389.399,-67.4639 399.8958,-66.0264 396.7083,-59.7942"/>
</g>
<!-- Node8 -->
<g id="node6" class="node">
<title>Node8</title>
<g id="a_node6"><a xlink:href="scs__solver_8cc.html" target="_top" xlink:title="drake/solvers/scs_solver.cc">
<polygon fill="#ffffff" stroke="#000000" points="564,-6 564,-25 714,-25 714,-6 564,-6"/>
<text text-anchor="middle" x="639" y="-13" font-family="Helvetica,sans-Serif" font-size="10.00" fill="#000000">drake/solvers/scs_solver.cc</text>
</a>
</g>
</g>
<!-- Node3&#45;&gt;Node8 -->
<g id="edge5" class="edge">
<title>Node3&#45;&gt;Node8</title>
<path fill="none" stroke="#191970" d="M432.3511,-65.1254C485.6292,-52.331 556.0685,-35.4155 599.4183,-25.0053"/>
<polygon fill="#191970" stroke="#191970" points="431.5193,-61.7255 422.613,-67.4639 433.1539,-68.532 431.5193,-61.7255"/>
</g>
</g>
</svg>
