<?xml version="1.0" encoding="UTF-8" standalone="no"?>
<!DOCTYPE svg PUBLIC "-//W3C//DTD SVG 1.1//EN"
 "http://www.w3.org/Graphics/SVG/1.1/DTD/svg11.dtd">
<!-- Generated by graphviz version 2.40.1 (20161225.0304)
 -->
<!-- Title: drake/common/eigen_autodiff_types.h Pages: 1 -->
<svg width="526pt" height="173pt"
 viewBox="0.00 0.00 526.00 173.00" xmlns="http://www.w3.org/2000/svg" xmlns:xlink="http://www.w3.org/1999/xlink">
<g id="graph0" class="graph" transform="scale(1 1) rotate(0) translate(4 169)">
<title>drake/common/eigen_autodiff_types.h</title>
<polygon fill="#ffffff" stroke="transparent" points="-4,4 -4,-169 522,-169 522,4 -4,4"/>
<!-- Node0 -->
<g id="node1" class="node">
<title>Node0</title>
<polygon fill="#bfbfbf" stroke="#000000" points="37.5,-134.5 37.5,-164.5 157.5,-164.5 157.5,-134.5 37.5,-134.5"/>
<text text-anchor="start" x="45.5" y="-152.5" font-family="Helvetica,sans-Serif" font-size="10.00" fill="#000000">drake/common/eigen</text>
<text text-anchor="middle" x="97.5" y="-141.5" font-family="Helvetica,sans-Serif" font-size="10.00" fill="#000000">_autodiff_types.h</text>
</g>
<!-- Node1 -->
<g id="node2" class="node">
<title>Node1</title>
<polygon fill="#ffffff" stroke="#bfbfbf" points="0,-73 0,-92 69,-92 69,-73 0,-73"/>
<text text-anchor="middle" x="34.5" y="-80" font-family="Helvetica,sans-Serif" font-size="10.00" fill="#000000">type_traits</text>
</g>
<!-- Node0&#45;&gt;Node1 -->
<g id="edge1" class="edge">
<title>Node0&#45;&gt;Node1</title>
<path fill="none" stroke="#191970" d="M83.2043,-134.2967C73.4839,-123.9591 60.6106,-110.2684 50.5403,-99.5588"/>
<polygon fill="#191970" stroke="#191970" points="52.8846,-96.9426 43.4845,-92.055 47.785,-101.7378 52.8846,-96.9426"/>
</g>
<!-- Node2 -->
<g id="node3" class="node">
<title>Node2</title>
<polygon fill="#ffffff" stroke="#bfbfbf" points="59,-6 59,-25 136,-25 136,-6 59,-6"/>
<text text-anchor="middle" x="97.5" y="-13" font-family="Helvetica,sans-Serif" font-size="10.00" fill="#000000">Eigen/Dense</text>
</g>
<!-- Node0&#45;&gt;Node2 -->
<g id="edge2" class="edge">
<title>Node0&#45;&gt;Node2</title>
<path fill="none" stroke="#191970" d="M97.5,-134.389C97.5,-110.0735 97.5,-62.2644 97.5,-35.2698"/>
<polygon fill="#191970" stroke="#191970" points="101.0001,-35.1041 97.5,-25.1042 94.0001,-35.1042 101.0001,-35.1041"/>
</g>
<!-- Node3 -->
<g id="node4" class="node">
<title>Node3</title>
<g id="a_node4"><a xlink:href="eigen__types_8h.html" target="_top" xlink:title="This file contains abbreviated definitions for certain specializations of Eigen::Matrix that are comm...">
<polygon fill="#ffffff" stroke="#000000" points="125.5,-67.5 125.5,-97.5 245.5,-97.5 245.5,-67.5 125.5,-67.5"/>
<text text-anchor="start" x="133.5" y="-85.5" font-family="Helvetica,sans-Serif" font-size="10.00" fill="#000000">drake/common/eigen</text>
<text text-anchor="middle" x="185.5" y="-74.5" font-family="Helvetica,sans-Serif" font-size="10.00" fill="#000000">_types.h</text>
</a>
</g>
</g>
<!-- Node0&#45;&gt;Node3 -->
<g id="edge3" class="edge">
<title>Node0&#45;&gt;Node3</title>
<path fill="none" stroke="#191970" d="M117.4686,-134.2967C129.2825,-125.302 144.4306,-113.7687 157.4327,-103.8694"/>
<polygon fill="#191970" stroke="#191970" points="159.7743,-106.4857 165.6105,-97.6432 155.5338,-100.9162 159.7743,-106.4857"/>
</g>
<!-- Node3&#45;&gt;Node2 -->
<g id="edge5" class="edge">
<title>Node3&#45;&gt;Node2</title>
<path fill="none" stroke="#191970" d="M165.5314,-67.2967C151.4213,-56.5537 132.5549,-42.1895 118.2692,-31.3129"/>
<polygon fill="#191970" stroke="#191970" points="120.1264,-28.328 110.0498,-25.055 115.886,-33.8975 120.1264,-28.328"/>
</g>
<!-- Node4 -->
<g id="node5" class="node">
<title>Node4</title>
<polygon fill="#ffffff" stroke="#bfbfbf" points="154.5,-6 154.5,-25 212.5,-25 212.5,-6 154.5,-6"/>
<text text-anchor="middle" x="183.5" y="-13" font-family="Helvetica,sans-Serif" font-size="10.00" fill="#000000">memory</text>
</g>
<!-- Node3&#45;&gt;Node4 -->
<g id="edge4" class="edge">
<title>Node3&#45;&gt;Node4</title>
<path fill="none" stroke="#191970" d="M185.0462,-67.2967C184.7618,-57.7699 184.3924,-45.3954 184.086,-35.1306"/>
<polygon fill="#191970" stroke="#191970" points="187.5821,-34.9461 183.7852,-25.055 180.5853,-35.155 187.5821,-34.9461"/>
</g>
<!-- Node5 -->
<g id="node6" class="node">
<title>Node5</title>
<g id="a_node6"><a xlink:href="constants_8h.html" target="_top" xlink:title="drake/common/constants.h">
<polygon fill="#ffffff" stroke="#000000" points="230,-6 230,-25 379,-25 379,-6 230,-6"/>
<text text-anchor="middle" x="304.5" y="-13" font-family="Helvetica,sans-Serif" font-size="10.00" fill="#000000">drake/common/constants.h</text>
</a>
</g>
</g>
<!-- Node3&#45;&gt;Node5 -->
<g id="edge6" class="edge">
<title>Node3&#45;&gt;Node5</title>
<path fill="none" stroke="#191970" d="M212.2059,-67.4639C232.0827,-56.2728 259.0601,-41.0838 278.7132,-30.0186"/>
<polygon fill="#191970" stroke="#191970" points="280.4456,-33.0599 287.4423,-25.1039 277.0113,-26.9602 280.4456,-33.0599"/>
</g>
<!-- Node6 -->
<g id="node7" class="node">
<title>Node6</title>
<g id="a_node7"><a xlink:href="drake__copyable_8h.html" target="_top" xlink:title="Provides careful macros to selectively enable or disable the special member functions for copy&#45;constr...">
<polygon fill="#ffffff" stroke="#000000" points="397,-.5 397,-30.5 518,-30.5 518,-.5 397,-.5"/>
<text text-anchor="start" x="405" y="-18.5" font-family="Helvetica,sans-Serif" font-size="10.00" fill="#000000">drake/common/drake</text>
<text text-anchor="middle" x="457.5" y="-7.5" font-family="Helvetica,sans-Serif" font-size="10.00" fill="#000000">_copyable.h</text>
</a>
</g>
</g>
<!-- Node3&#45;&gt;Node6 -->
<g id="edge7" class="edge">
<title>Node3&#45;&gt;Node6</title>
<path fill="none" stroke="#191970" d="M245.5283,-67.7136C287.2716,-57.4313 343.0746,-43.6857 386.9466,-32.879"/>
<polygon fill="#191970" stroke="#191970" points="387.8121,-36.2705 396.6848,-30.4802 386.1379,-29.4736 387.8121,-36.2705"/>
</g>
</g>
</svg>
