<?xml version="1.0" encoding="UTF-8" standalone="no"?>
<!DOCTYPE svg PUBLIC "-//W3C//DTD SVG 1.1//EN"
 "http://www.w3.org/Graphics/SVG/1.1/DTD/svg11.dtd">
<!-- Generated by graphviz version 2.40.1 (20161225.0304)
 -->
<!-- Title: drake/examples/particles/utilities.h Pages: 1 -->
<svg width="464pt" height="117pt"
 viewBox="0.00 0.00 464.00 117.00" xmlns="http://www.w3.org/2000/svg" xmlns:xlink="http://www.w3.org/1999/xlink">
<g id="graph0" class="graph" transform="scale(1 1) rotate(0) translate(4 113)">
<title>drake/examples/particles/utilities.h</title>
<polygon fill="#ffffff" stroke="transparent" points="-4,4 -4,-113 460,-113 460,4 -4,4"/>
<!-- Node116 -->
<g id="node1" class="node">
<title>Node116</title>
<polygon fill="#bfbfbf" stroke="#000000" points="158,-78.5 158,-108.5 298,-108.5 298,-78.5 158,-78.5"/>
<text text-anchor="start" x="166" y="-96.5" font-family="Helvetica,sans-Serif" font-size="10.00" fill="#000000">drake/examples/particles</text>
<text text-anchor="middle" x="228" y="-85.5" font-family="Helvetica,sans-Serif" font-size="10.00" fill="#000000">/utilities.h</text>
</g>
<!-- Node117 -->
<g id="node2" class="node">
<title>Node117</title>
<g id="a_node2"><a xlink:href="examples_2particles_2test_2utilities__test_8cc.html" target="_top" xlink:title="drake/examples/particles\l/test/utilities_test.cc">
<polygon fill="#ffffff" stroke="#000000" points="0,-6 0,-36 140,-36 140,-6 0,-6"/>
<text text-anchor="start" x="8" y="-24" font-family="Helvetica,sans-Serif" font-size="10.00" fill="#000000">drake/examples/particles</text>
<text text-anchor="middle" x="70" y="-13" font-family="Helvetica,sans-Serif" font-size="10.00" fill="#000000">/test/utilities_test.cc</text>
</a>
</g>
</g>
<!-- Node116&#45;&gt;Node117 -->
<g id="edge1" class="edge">
<title>Node116&#45;&gt;Node117</title>
<path fill="none" stroke="#191970" d="M185.9911,-74.2237C159.8921,-62.248 126.8363,-47.0799 102.6958,-36.0028"/>
<polygon fill="#191970" stroke="#191970" points="184.7138,-77.4885 195.2623,-78.478 187.6332,-71.1263 184.7138,-77.4885"/>
</g>
<!-- Node118 -->
<g id="node3" class="node">
<title>Node118</title>
<g id="a_node3"><a xlink:href="uniformly__accelerated__particle_8cc.html" target="_top" xlink:title="drake/examples/particles\l/uniformly_accelerated\l_particle.cc">
<polygon fill="#ffffff" stroke="#000000" points="158,-.5 158,-41.5 298,-41.5 298,-.5 158,-.5"/>
<text text-anchor="start" x="166" y="-29.5" font-family="Helvetica,sans-Serif" font-size="10.00" fill="#000000">drake/examples/particles</text>
<text text-anchor="start" x="166" y="-18.5" font-family="Helvetica,sans-Serif" font-size="10.00" fill="#000000">/uniformly_accelerated</text>
<text text-anchor="middle" x="228" y="-7.5" font-family="Helvetica,sans-Serif" font-size="10.00" fill="#000000">_particle.cc</text>
</a>
</g>
</g>
<!-- Node116&#45;&gt;Node118 -->
<g id="edge2" class="edge">
<title>Node116&#45;&gt;Node118</title>
<path fill="none" stroke="#191970" d="M228,-68.4016C228,-59.6173 228,-49.8652 228,-41.5015"/>
<polygon fill="#191970" stroke="#191970" points="224.5001,-68.4779 228,-78.478 231.5001,-68.478 224.5001,-68.4779"/>
</g>
<!-- Node119 -->
<g id="node4" class="node">
<title>Node119</title>
<g id="a_node4"><a xlink:href="examples_2particles_2utilities_8cc.html" target="_top" xlink:title="drake/examples/particles\l/utilities.cc">
<polygon fill="#ffffff" stroke="#000000" points="316,-6 316,-36 456,-36 456,-6 316,-6"/>
<text text-anchor="start" x="324" y="-24" font-family="Helvetica,sans-Serif" font-size="10.00" fill="#000000">drake/examples/particles</text>
<text text-anchor="middle" x="386" y="-13" font-family="Helvetica,sans-Serif" font-size="10.00" fill="#000000">/utilities.cc</text>
</a>
</g>
</g>
<!-- Node116&#45;&gt;Node119 -->
<g id="edge3" class="edge">
<title>Node116&#45;&gt;Node119</title>
<path fill="none" stroke="#191970" d="M270.0089,-74.2237C296.1079,-62.248 329.1637,-47.0799 353.3042,-36.0028"/>
<polygon fill="#191970" stroke="#191970" points="268.3668,-71.1263 260.7377,-78.478 271.2862,-77.4885 268.3668,-71.1263"/>
</g>
</g>
</svg>
