<?xml version="1.0" encoding="UTF-8" standalone="no"?>
<!DOCTYPE svg PUBLIC "-//W3C//DTD SVG 1.1//EN"
 "http://www.w3.org/Graphics/SVG/1.1/DTD/svg11.dtd">
<!-- Generated by graphviz version 2.40.1 (20161225.0304)
 -->
<!-- Title: drake/math/expmap.cc Pages: 1 -->
<!--zoomable 464 -->
<svg id="main" version="1.1" xmlns="http://www.w3.org/2000/svg" xmlns:xlink="http://www.w3.org/1999/xlink" xml:space="preserve" onload="init(evt)">
<style type="text/css"><![CDATA[
.edge:hover path { stroke: red; }
.edge:hover polygon { stroke: red; fill: red; }
]]></style>
<script type="text/javascript"><![CDATA[
var edges = document.getElementsByTagName('g');
if (edges && edges.length) {
  for (var i=0;i<edges.length;i++) {
    if (edges[i].id.substr(0,4)=='edge') {
      edges[i].setAttribute('class','edge');
    }
  }
}
]]></script>
        <defs>
                <circle id="rim" cx="0" cy="0" r="7"/>
                <circle id="rim2" cx="0" cy="0" r="3.5"/>
                <g id="zoomPlus">
                        <use xlink:href="#rim" fill="#404040">
                                <set attributeName="fill" to="#808080" begin="zoomplus.mouseover" end="zoomplus.mouseout"/>
                        </use>
                        <path d="M-4,0h8M0,-4v8" fill="none" stroke="white" stroke-width="1.5" pointer-events="none"/>
                </g>
                <g id="zoomMin">
                        <use xlink:href="#rim" fill="#404040">
                                <set attributeName="fill" to="#808080" begin="zoomminus.mouseover" end="zoomminus.mouseout"/>
                        </use>
                        <path d="M-4,0h8" fill="none" stroke="white" stroke-width="1.5" pointer-events="none"/>
                </g>
                <g id="dirArrow">
                        <path fill="none" stroke="white" stroke-width="1.5" d="M0,-3.0v7 M-2.5,-0.5L0,-3.0L2.5,-0.5"/>
                </g>
               <g id="resetDef">
                       <use xlink:href="#rim2" fill="#404040">
                               <set attributeName="fill" to="#808080" begin="reset.mouseover" end="reset.mouseout"/>
                       </use>
               </g>
        </defs>

<script type="text/javascript">
var viewWidth = 1300;
var viewHeight = 464;
var sectionId = 'dynsection-0';
</script>
<script xlink:href="svgpan.js"/>
<svg id="graph" class="graph">
<g id="viewport">
<title>drake/math/expmap.cc</title>
<polygon fill="#ffffff" stroke="transparent" points="-4,4 -4,-460 1296,-460 1296,4 -4,4"/>
<!-- Node0 -->
<g id="node1" class="node">
<title>Node0</title>
<polygon fill="#bfbfbf" stroke="#000000" points="771.5,-436.5 771.5,-455.5 900.5,-455.5 900.5,-436.5 771.5,-436.5"/>
<text text-anchor="middle" x="836" y="-443.5" font-family="Helvetica,sans-Serif" font-size="10.00" fill="#000000">drake/math/expmap.cc</text>
</g>
<!-- Node1 -->
<g id="node2" class="node">
<title>Node1</title>
<g id="a_node2"><a xlink:href="expmap_8h.html" target="_top" xlink:title="Utilities for arithmetic on exponential maps. ">
<polygon fill="#ffffff" stroke="#000000" points="773.5,-380.5 773.5,-399.5 898.5,-399.5 898.5,-380.5 773.5,-380.5"/>
<text text-anchor="middle" x="836" y="-387.5" font-family="Helvetica,sans-Serif" font-size="10.00" fill="#000000">drake/math/expmap.h</text>
</a>
</g>
</g>
<!-- Node0&#45;&gt;Node1 -->
<g id="edge1" class="edge">
<title>Node0&#45;&gt;Node1</title>
<path fill="none" stroke="#191970" d="M836,-436.2455C836,-428.9382 836,-418.6944 836,-409.7046"/>
<polygon fill="#191970" stroke="#191970" points="839.5001,-409.6426 836,-399.6427 832.5001,-409.6427 839.5001,-409.6426"/>
</g>
<!-- Node2 -->
<g id="node3" class="node">
<title>Node2</title>
<polygon fill="#ffffff" stroke="#bfbfbf" points="918.5,-73 918.5,-92 965.5,-92 965.5,-73 918.5,-73"/>
<text text-anchor="middle" x="942" y="-80" font-family="Helvetica,sans-Serif" font-size="10.00" fill="#000000">cmath</text>
</g>
<!-- Node1&#45;&gt;Node2 -->
<g id="edge2" class="edge">
<title>Node1&#45;&gt;Node2</title>
<path fill="none" stroke="#191970" d="M833.289,-380.3357C827.4953,-357.9649 815.5627,-301.1585 830,-257 839.5857,-227.6807 849.2063,-222.8298 871,-201 890.0927,-181.8756 904.7663,-187.3205 920,-165 932.8794,-146.129 938.225,-120.0763 940.4398,-102.33"/>
<polygon fill="#191970" stroke="#191970" points="943.9341,-102.5643 941.4724,-92.2594 936.9706,-101.8502 943.9341,-102.5643"/>
</g>
<!-- Node3 -->
<g id="node4" class="node">
<title>Node3</title>
<polygon fill="#ffffff" stroke="#bfbfbf" points="976.5,-6 976.5,-25 1053.5,-25 1053.5,-6 976.5,-6"/>
<text text-anchor="middle" x="1015" y="-13" font-family="Helvetica,sans-Serif" font-size="10.00" fill="#000000">Eigen/Dense</text>
</g>
<!-- Node1&#45;&gt;Node3 -->
<g id="edge3" class="edge">
<title>Node1&#45;&gt;Node3</title>
<path fill="none" stroke="#191970" d="M898.9261,-386.1754C1024.0189,-376.8422 1292,-347.4587 1292,-267 1292,-267 1292,-267 1292,-149.5 1292,-104.6788 1271.1311,-92.1042 1234,-67 1206.5853,-48.465 1119.5095,-31.9031 1063.7668,-22.8232"/>
<polygon fill="#191970" stroke="#191970" points="1064.1726,-19.3436 1053.7445,-21.2161 1063.0642,-26.2553 1064.1726,-19.3436"/>
</g>
<!-- Node4 -->
<g id="node5" class="node">
<title>Node4</title>
<g id="a_node5"><a xlink:href="common_2autodiff_8h.html" target="_top" xlink:title="drake/common/autodiff.h">
<polygon fill="#ffffff" stroke="#000000" points="512,-201.5 512,-220.5 652,-220.5 652,-201.5 512,-201.5"/>
<text text-anchor="middle" x="582" y="-208.5" font-family="Helvetica,sans-Serif" font-size="10.00" fill="#000000">drake/common/autodiff.h</text>
</a>
</g>
</g>
<!-- Node1&#45;&gt;Node4 -->
<g id="edge4" class="edge">
<title>Node1&#45;&gt;Node4</title>
<path fill="none" stroke="#191970" d="M818.3006,-380.3264C802.2578,-371.3799 778.1177,-357.4695 758,-344 699.2393,-304.6576 633.6851,-252.8795 601.7047,-227.0704"/>
<polygon fill="#191970" stroke="#191970" points="603.5818,-224.0867 593.6084,-220.5115 599.1754,-229.5259 603.5818,-224.0867"/>
</g>
<!-- Node21 -->
<g id="node22" class="node">
<title>Node21</title>
<g id="a_node22"><a xlink:href="drake__assert_8h.html" target="_top" xlink:title="Provides Drake&#39;s assertion implementation. ">
<polygon fill="#ffffff" stroke="#000000" points="418.5,-67.5 418.5,-97.5 539.5,-97.5 539.5,-67.5 418.5,-67.5"/>
<text text-anchor="start" x="426.5" y="-85.5" font-family="Helvetica,sans-Serif" font-size="10.00" fill="#000000">drake/common/drake</text>
<text text-anchor="middle" x="479" y="-74.5" font-family="Helvetica,sans-Serif" font-size="10.00" fill="#000000">_assert.h</text>
</a>
</g>
</g>
<!-- Node1&#45;&gt;Node21 -->
<g id="edge32" class="edge">
<title>Node1&#45;&gt;Node21</title>
<path fill="none" stroke="#191970" d="M773.4955,-388.783C631.7268,-384.3305 298,-363.5912 298,-267 298,-267 298,-267 298,-211 298,-175.7513 292.9098,-159.7319 317,-134 324.0022,-126.5206 371.0766,-112.0016 412.6883,-100.2811"/>
<polygon fill="#191970" stroke="#191970" points="413.8779,-103.5829 422.5675,-97.5213 411.9945,-96.841 413.8779,-103.5829"/>
</g>
<!-- Node23 -->
<g id="node24" class="node">
<title>Node23</title>
<g id="a_node24"><a xlink:href="math_2autodiff_8h.html" target="_top" xlink:title="Utilities for arithmetic on AutoDiffScalar. ">
<polygon fill="#ffffff" stroke="#000000" points="838.5,-257.5 838.5,-276.5 961.5,-276.5 961.5,-257.5 838.5,-257.5"/>
<text text-anchor="middle" x="900" y="-264.5" font-family="Helvetica,sans-Serif" font-size="10.00" fill="#000000">drake/math/autodiff.h</text>
</a>
</g>
</g>
<!-- Node1&#45;&gt;Node23 -->
<g id="edge33" class="edge">
<title>Node1&#45;&gt;Node23</title>
<path fill="none" stroke="#191970" d="M841.022,-380.3484C851.6305,-359.9601 876.4796,-312.2033 890.2981,-285.6459"/>
<polygon fill="#191970" stroke="#191970" points="893.4904,-287.0933 895.0014,-276.6068 887.2807,-283.8622 893.4904,-287.0933"/>
</g>
<!-- Node26 -->
<g id="node27" class="node">
<title>Node26</title>
<g id="a_node27"><a xlink:href="autodiff__gradient_8h.html" target="_top" xlink:title="Utilities that relate simultaneously to both autodiff matrices and gradient matrices. ">
<polygon fill="#ffffff" stroke="#000000" points="955,-313.5 955,-343.5 1069,-343.5 1069,-313.5 955,-313.5"/>
<text text-anchor="start" x="963" y="-331.5" font-family="Helvetica,sans-Serif" font-size="10.00" fill="#000000">drake/math/autodiff</text>
<text text-anchor="middle" x="1012" y="-320.5" font-family="Helvetica,sans-Serif" font-size="10.00" fill="#000000">_gradient.h</text>
</a>
</g>
</g>
<!-- Node1&#45;&gt;Node26 -->
<g id="edge39" class="edge">
<title>Node1&#45;&gt;Node26</title>
<path fill="none" stroke="#191970" d="M863.5,-380.3906C889.0839,-371.4508 927.8906,-357.8905 959.4177,-346.8739"/>
<polygon fill="#191970" stroke="#191970" points="960.6599,-350.1475 968.9456,-343.5446 958.3507,-343.5393 960.6599,-350.1475"/>
</g>
<!-- Node5 -->
<g id="node6" class="node">
<title>Node5</title>
<polygon fill="#ffffff" stroke="#bfbfbf" points="326.5,-140 326.5,-159 395.5,-159 395.5,-140 326.5,-140"/>
<text text-anchor="middle" x="361" y="-147" font-family="Helvetica,sans-Serif" font-size="10.00" fill="#000000">Eigen/Core</text>
</g>
<!-- Node4&#45;&gt;Node5 -->
<g id="edge5" class="edge">
<title>Node4&#45;&gt;Node5</title>
<path fill="none" stroke="#191970" d="M540.6899,-201.4785C504.4167,-192.8444 450.3567,-179.3109 404,-165 401.3888,-164.1939 398.702,-163.3242 396.0072,-162.4226"/>
<polygon fill="#191970" stroke="#191970" points="396.9287,-159.0378 386.334,-159.0743 394.6391,-165.6528 396.9287,-159.0378"/>
</g>
<!-- Node6 -->
<g id="node7" class="node">
<title>Node6</title>
<polygon fill="#ffffff" stroke="#bfbfbf" points="413.5,-140 413.5,-159 564.5,-159 564.5,-140 413.5,-140"/>
<text text-anchor="middle" x="489" y="-147" font-family="Helvetica,sans-Serif" font-size="10.00" fill="#000000">unsupported/Eigen/AutoDiff</text>
</g>
<!-- Node4&#45;&gt;Node6 -->
<g id="edge6" class="edge">
<title>Node4&#45;&gt;Node6</title>
<path fill="none" stroke="#191970" d="M567.4688,-201.3906C552.5906,-191.5519 529.2496,-176.1167 511.8872,-164.6351"/>
<polygon fill="#191970" stroke="#191970" points="513.701,-161.6385 503.4292,-159.0419 509.8398,-167.4773 513.701,-161.6385"/>
</g>
<!-- Node7 -->
<g id="node8" class="node">
<title>Node7</title>
<g id="a_node8"><a xlink:href="eigen__autodiff__limits_8h.html" target="_top" xlink:title="drake/common/eigen\l_autodiff_limits.h">
<polygon fill="#ffffff" stroke="#000000" points="0,-134.5 0,-164.5 120,-164.5 120,-134.5 0,-134.5"/>
<text text-anchor="start" x="8" y="-152.5" font-family="Helvetica,sans-Serif" font-size="10.00" fill="#000000">drake/common/eigen</text>
<text text-anchor="middle" x="60" y="-141.5" font-family="Helvetica,sans-Serif" font-size="10.00" fill="#000000">_autodiff_limits.h</text>
</a>
</g>
</g>
<!-- Node4&#45;&gt;Node7 -->
<g id="edge7" class="edge">
<title>Node4&#45;&gt;Node7</title>
<path fill="none" stroke="#191970" d="M511.8159,-206.4913C424.5789,-200.3019 271.0061,-187.4896 130.2401,-165.0824"/>
<polygon fill="#191970" stroke="#191970" points="130.5578,-161.5885 120.1282,-163.4524 129.4438,-168.4993 130.5578,-161.5885"/>
</g>
<!-- Node9 -->
<g id="node10" class="node">
<title>Node9</title>
<g id="a_node10"><a xlink:href="eigen__autodiff__types_8h.html" target="_top" xlink:title="This file contains abbreviated definitions for certain uses of AutoDiffScalar that are commonly used ...">
<polygon fill="#ffffff" stroke="#000000" points="621,-134.5 621,-164.5 741,-164.5 741,-134.5 621,-134.5"/>
<text text-anchor="start" x="629" y="-152.5" font-family="Helvetica,sans-Serif" font-size="10.00" fill="#000000">drake/common/eigen</text>
<text text-anchor="middle" x="681" y="-141.5" font-family="Helvetica,sans-Serif" font-size="10.00" fill="#000000">_autodiff_types.h</text>
</a>
</g>
</g>
<!-- Node4&#45;&gt;Node9 -->
<g id="edge9" class="edge">
<title>Node4&#45;&gt;Node9</title>
<path fill="none" stroke="#191970" d="M597.4688,-201.3906C610.9913,-192.9903 631.0811,-180.5103 648.1698,-169.8945"/>
<polygon fill="#191970" stroke="#191970" points="650.1344,-172.7945 656.7819,-164.5446 646.4405,-166.8484 650.1344,-172.7945"/>
</g>
<!-- Node15 -->
<g id="node16" class="node">
<title>Node15</title>
<g id="a_node16"><a xlink:href="autodiffxd_8h.html" target="_top" xlink:title="drake/common/autodiffxd.h">
<polygon fill="#ffffff" stroke="#000000" points="759,-140 759,-159 911,-159 911,-140 759,-140"/>
<text text-anchor="middle" x="835" y="-147" font-family="Helvetica,sans-Serif" font-size="10.00" fill="#000000">drake/common/autodiffxd.h</text>
</a>
</g>
</g>
<!-- Node4&#45;&gt;Node15 -->
<g id="edge17" class="edge">
<title>Node4&#45;&gt;Node15</title>
<path fill="none" stroke="#191970" d="M621.2537,-201.4581C665.5694,-190.6857 737.7376,-173.1428 785.786,-161.4631"/>
<polygon fill="#191970" stroke="#191970" points="786.764,-164.8274 795.6543,-159.0643 785.1105,-158.0254 786.764,-164.8274"/>
</g>
<!-- Node17 -->
<g id="node18" class="node">
<title>Node17</title>
<g id="a_node18"><a xlink:href="autodiff__overloads_8h.html" target="_top" xlink:title="Overloads for STL mathematical operations on AutoDiffScalar. ">
<polygon fill="#ffffff" stroke="#000000" points="138.5,-134.5 138.5,-164.5 269.5,-164.5 269.5,-134.5 138.5,-134.5"/>
<text text-anchor="start" x="146.5" y="-152.5" font-family="Helvetica,sans-Serif" font-size="10.00" fill="#000000">drake/common/autodiff</text>
<text text-anchor="middle" x="204" y="-141.5" font-family="Helvetica,sans-Serif" font-size="10.00" fill="#000000">_overloads.h</text>
</a>
</g>
</g>
<!-- Node4&#45;&gt;Node17 -->
<g id="edge21" class="edge">
<title>Node4&#45;&gt;Node17</title>
<path fill="none" stroke="#191970" d="M523.3522,-201.4581C457.7964,-190.7923 351.446,-173.4892 279.6699,-161.8114"/>
<polygon fill="#191970" stroke="#191970" points="280.2116,-158.3536 269.7793,-160.2022 279.0874,-165.2627 280.2116,-158.3536"/>
</g>
<!-- Node8 -->
<g id="node9" class="node">
<title>Node8</title>
<polygon fill="#ffffff" stroke="#bfbfbf" points="76,-6 76,-25 120,-25 120,-6 76,-6"/>
<text text-anchor="middle" x="98" y="-13" font-family="Helvetica,sans-Serif" font-size="10.00" fill="#000000">limits</text>
</g>
<!-- Node7&#45;&gt;Node8 -->
<g id="edge8" class="edge">
<title>Node7&#45;&gt;Node8</title>
<path fill="none" stroke="#191970" d="M64.2852,-134.389C71.2114,-109.9649 84.8596,-61.8371 92.4958,-34.9095"/>
<polygon fill="#191970" stroke="#191970" points="95.9153,-35.6797 95.2764,-25.1042 89.1809,-33.7699 95.9153,-35.6797"/>
</g>
<!-- Node9&#45;&gt;Node3 -->
<g id="edge11" class="edge">
<title>Node9&#45;&gt;Node3</title>
<path fill="none" stroke="#191970" d="M704.2639,-134.3979C719.4726,-124.3638 739.6592,-110.7388 757,-98 774.8446,-84.8911 776.0746,-76.6566 796,-67 851.0598,-40.3158 920.7394,-27.0048 966.5293,-20.6921"/>
<polygon fill="#191970" stroke="#191970" points="967.036,-24.1557 976.492,-19.3772 966.12,-17.2159 967.036,-24.1557"/>
</g>
<!-- Node10 -->
<g id="node11" class="node">
<title>Node10</title>
<polygon fill="#ffffff" stroke="#bfbfbf" points="416.5,-6 416.5,-25 485.5,-25 485.5,-6 416.5,-6"/>
<text text-anchor="middle" x="451" y="-13" font-family="Helvetica,sans-Serif" font-size="10.00" fill="#000000">type_traits</text>
</g>
<!-- Node9&#45;&gt;Node10 -->
<g id="edge10" class="edge">
<title>Node9&#45;&gt;Node10</title>
<path fill="none" stroke="#191970" d="M657.7434,-134.4135C631.4192,-117.4926 587.1062,-89.4763 548,-67 524.9861,-53.7727 498.3161,-39.7012 478.7727,-29.6156"/>
<polygon fill="#191970" stroke="#191970" points="480.2927,-26.4617 469.7984,-25.0059 477.0943,-32.6883 480.2927,-26.4617"/>
</g>
<!-- Node11 -->
<g id="node12" class="node">
<title>Node11</title>
<g id="a_node12"><a xlink:href="eigen__types_8h.html" target="_top" xlink:title="This file contains abbreviated definitions for certain specializations of Eigen::Matrix that are comm...">
<polygon fill="#ffffff" stroke="#000000" points="628,-67.5 628,-97.5 748,-97.5 748,-67.5 628,-67.5"/>
<text text-anchor="start" x="636" y="-85.5" font-family="Helvetica,sans-Serif" font-size="10.00" fill="#000000">drake/common/eigen</text>
<text text-anchor="middle" x="688" y="-74.5" font-family="Helvetica,sans-Serif" font-size="10.00" fill="#000000">_types.h</text>
</a>
</g>
</g>
<!-- Node9&#45;&gt;Node11 -->
<g id="edge12" class="edge">
<title>Node9&#45;&gt;Node11</title>
<path fill="none" stroke="#191970" d="M682.5884,-134.2967C683.4118,-126.4156 684.4388,-116.5857 685.3762,-107.6135"/>
<polygon fill="#191970" stroke="#191970" points="688.8597,-107.9528 686.4179,-97.6432 681.8976,-107.2253 688.8597,-107.9528"/>
</g>
<!-- Node11&#45;&gt;Node3 -->
<g id="edge14" class="edge">
<title>Node11&#45;&gt;Node3</title>
<path fill="none" stroke="#191970" d="M748.1695,-69.8672C752.8487,-68.8939 757.5008,-67.9291 762,-67 833.049,-52.3279 915.3863,-35.623 966.3396,-25.3202"/>
<polygon fill="#191970" stroke="#191970" points="967.3015,-28.6966 976.4098,-23.2847 965.9146,-21.8354 967.3015,-28.6966"/>
</g>
<!-- Node12 -->
<g id="node13" class="node">
<title>Node12</title>
<polygon fill="#ffffff" stroke="#bfbfbf" points="810,-6 810,-25 868,-25 868,-6 810,-6"/>
<text text-anchor="middle" x="839" y="-13" font-family="Helvetica,sans-Serif" font-size="10.00" fill="#000000">memory</text>
</g>
<!-- Node11&#45;&gt;Node12 -->
<g id="edge13" class="edge">
<title>Node11&#45;&gt;Node12</title>
<path fill="none" stroke="#191970" d="M721.8873,-67.4639C747.6797,-56.0196 782.8945,-40.3945 807.9571,-29.274"/>
<polygon fill="#191970" stroke="#191970" points="809.6343,-32.359 817.3553,-25.1039 806.7952,-25.9605 809.6343,-32.359"/>
</g>
<!-- Node13 -->
<g id="node14" class="node">
<title>Node13</title>
<g id="a_node14"><a xlink:href="constants_8h.html" target="_top" xlink:title="drake/common/constants.h">
<polygon fill="#ffffff" stroke="#000000" points="503.5,-6 503.5,-25 652.5,-25 652.5,-6 503.5,-6"/>
<text text-anchor="middle" x="578" y="-13" font-family="Helvetica,sans-Serif" font-size="10.00" fill="#000000">drake/common/constants.h</text>
</a>
</g>
</g>
<!-- Node11&#45;&gt;Node13 -->
<g id="edge15" class="edge">
<title>Node11&#45;&gt;Node13</title>
<path fill="none" stroke="#191970" d="M663.3139,-67.4639C645.1898,-56.4247 620.6791,-41.4954 602.58,-30.4715"/>
<polygon fill="#191970" stroke="#191970" points="604.1288,-27.3167 593.7676,-25.1039 600.4874,-33.2951 604.1288,-27.3167"/>
</g>
<!-- Node14 -->
<g id="node15" class="node">
<title>Node14</title>
<g id="a_node15"><a xlink:href="drake__copyable_8h.html" target="_top" xlink:title="Provides careful macros to selectively enable or disable the special member functions for copy&#45;constr...">
<polygon fill="#ffffff" stroke="#000000" points="670.5,-.5 670.5,-30.5 791.5,-30.5 791.5,-.5 670.5,-.5"/>
<text text-anchor="start" x="678.5" y="-18.5" font-family="Helvetica,sans-Serif" font-size="10.00" fill="#000000">drake/common/drake</text>
<text text-anchor="middle" x="731" y="-7.5" font-family="Helvetica,sans-Serif" font-size="10.00" fill="#000000">_copyable.h</text>
</a>
</g>
</g>
<!-- Node11&#45;&gt;Node14 -->
<g id="edge16" class="edge">
<title>Node11&#45;&gt;Node14</title>
<path fill="none" stroke="#191970" d="M697.7574,-67.2967C703.0903,-58.9873 709.8135,-48.5115 715.816,-39.1587"/>
<polygon fill="#191970" stroke="#191970" points="718.8255,-40.9495 721.2812,-30.6432 712.9344,-37.1686 718.8255,-40.9495"/>
</g>
<!-- Node15&#45;&gt;Node2 -->
<g id="edge18" class="edge">
<title>Node15&#45;&gt;Node2</title>
<path fill="none" stroke="#191970" d="M850.3305,-139.9005C868.0491,-128.8057 897.4228,-110.4128 918.1368,-97.4424"/>
<polygon fill="#191970" stroke="#191970" points="920.0799,-100.3553 926.6979,-92.0817 916.3649,-94.4224 920.0799,-100.3553"/>
</g>
<!-- Node15&#45;&gt;Node3 -->
<g id="edge20" class="edge">
<title>Node15&#45;&gt;Node3</title>
<path fill="none" stroke="#191970" d="M841.9063,-139.7574C854.0974,-123.1077 880.9089,-88.8633 910,-67 931.2537,-51.0269 958.2366,-37.9201 979.5269,-28.9265"/>
<polygon fill="#191970" stroke="#191970" points="980.9481,-32.1265 988.8673,-25.0882 978.2874,-25.6519 980.9481,-32.1265"/>
</g>
<!-- Node16 -->
<g id="node17" class="node">
<title>Node16</title>
<polygon fill="#ffffff" stroke="#bfbfbf" points="804.5,-73 804.5,-92 861.5,-92 861.5,-73 804.5,-73"/>
<text text-anchor="middle" x="833" y="-80" font-family="Helvetica,sans-Serif" font-size="10.00" fill="#000000">ostream</text>
</g>
<!-- Node15&#45;&gt;Node16 -->
<g id="edge19" class="edge">
<title>Node15&#45;&gt;Node16</title>
<path fill="none" stroke="#191970" d="M834.7134,-139.9005C834.4224,-130.149 833.963,-114.7597 833.5931,-102.3695"/>
<polygon fill="#191970" stroke="#191970" points="837.0829,-101.9727 833.286,-92.0817 830.086,-102.1817 837.0829,-101.9727"/>
</g>
<!-- Node17&#45;&gt;Node2 -->
<g id="edge22" class="edge">
<title>Node17&#45;&gt;Node2</title>
<path fill="none" stroke="#191970" d="M269.6333,-139.6898C285.1396,-137.5961 301.6327,-135.5512 317,-134 562.4939,-109.2186 626.6696,-132.4101 871,-98 883.3685,-96.2581 896.7889,-93.5454 908.5978,-90.8733"/>
<polygon fill="#191970" stroke="#191970" points="909.5524,-94.2446 918.4937,-88.5609 907.9596,-87.4282 909.5524,-94.2446"/>
</g>
<!-- Node17&#45;&gt;Node8 -->
<g id="edge23" class="edge">
<title>Node17&#45;&gt;Node8</title>
<path fill="none" stroke="#191970" d="M164.2928,-134.4515C147.3541,-126.1317 128.81,-114.1524 117,-98 103.5578,-79.6153 99.4273,-53.261 98.2608,-35.3205"/>
<polygon fill="#191970" stroke="#191970" points="101.7511,-35.0024 97.8574,-25.149 94.7566,-35.2799 101.7511,-35.0024"/>
</g>
<!-- Node18 -->
<g id="node19" class="node">
<title>Node18</title>
<g id="a_node19"><a xlink:href="cond_8h.html" target="_top" xlink:title="drake/common/cond.h">
<polygon fill="#ffffff" stroke="#000000" points="275.5,-73 275.5,-92 400.5,-92 400.5,-73 275.5,-73"/>
<text text-anchor="middle" x="338" y="-80" font-family="Helvetica,sans-Serif" font-size="10.00" fill="#000000">drake/common/cond.h</text>
</a>
</g>
</g>
<!-- Node17&#45;&gt;Node18 -->
<g id="edge24" class="edge">
<title>Node17&#45;&gt;Node18</title>
<path fill="none" stroke="#191970" d="M234.0722,-134.4639C256.657,-123.1715 287.3829,-107.8086 309.5616,-96.7192"/>
<polygon fill="#191970" stroke="#191970" points="311.4131,-99.7066 318.7922,-92.1039 308.2826,-93.4456 311.4131,-99.7066"/>
</g>
<!-- Node17&#45;&gt;Node21 -->
<g id="edge28" class="edge">
<title>Node17&#45;&gt;Node21</title>
<path fill="none" stroke="#191970" d="M265.7154,-134.4639C308.1156,-124.1336 364.4977,-110.3969 408.6426,-99.6416"/>
<polygon fill="#191970" stroke="#191970" points="409.5501,-103.023 418.4374,-97.2553 407.8931,-96.2219 409.5501,-103.023"/>
</g>
<!-- Node22 -->
<g id="node23" class="node">
<title>Node22</title>
<g id="a_node23"><a xlink:href="dummy__value_8h.html" target="_top" xlink:title="drake/common/dummy\l_value.h">
<polygon fill="#ffffff" stroke="#000000" points="126.5,-67.5 126.5,-97.5 257.5,-97.5 257.5,-67.5 126.5,-67.5"/>
<text text-anchor="start" x="134.5" y="-85.5" font-family="Helvetica,sans-Serif" font-size="10.00" fill="#000000">drake/common/dummy</text>
<text text-anchor="middle" x="192" y="-74.5" font-family="Helvetica,sans-Serif" font-size="10.00" fill="#000000">_value.h</text>
</a>
</g>
</g>
<!-- Node17&#45;&gt;Node22 -->
<g id="edge30" class="edge">
<title>Node17&#45;&gt;Node22</title>
<path fill="none" stroke="#191970" d="M201.277,-134.2967C199.8655,-126.4156 198.1049,-116.5857 196.4979,-107.6135"/>
<polygon fill="#191970" stroke="#191970" points="199.9205,-106.8695 194.7122,-97.6432 193.0301,-108.1036 199.9205,-106.8695"/>
</g>
<!-- Node18&#45;&gt;Node10 -->
<g id="edge26" class="edge">
<title>Node18&#45;&gt;Node10</title>
<path fill="none" stroke="#191970" d="M354.1901,-72.9005C372.9863,-61.7559 404.2016,-43.2477 426.0924,-30.2682"/>
<polygon fill="#191970" stroke="#191970" points="428.0233,-33.1924 434.8399,-25.0817 424.4531,-27.1712 428.0233,-33.1924"/>
</g>
<!-- Node19 -->
<g id="node20" class="node">
<title>Node19</title>
<polygon fill="#ffffff" stroke="#bfbfbf" points="319.5,-6 319.5,-25 384.5,-25 384.5,-6 319.5,-6"/>
<text text-anchor="middle" x="352" y="-13" font-family="Helvetica,sans-Serif" font-size="10.00" fill="#000000">functional</text>
</g>
<!-- Node18&#45;&gt;Node19 -->
<g id="edge25" class="edge">
<title>Node18&#45;&gt;Node19</title>
<path fill="none" stroke="#191970" d="M340.0059,-72.9005C342.0643,-63.0495 345.3249,-47.4451 347.9272,-34.9912"/>
<polygon fill="#191970" stroke="#191970" points="351.3784,-35.5862 349.9979,-25.0817 344.5264,-34.1543 351.3784,-35.5862"/>
</g>
<!-- Node20 -->
<g id="node21" class="node">
<title>Node20</title>
<g id="a_node21"><a xlink:href="double__overloads_8h.html" target="_top" xlink:title="Provides necessary operations on double to have it as a ScalarType in drake. ">
<polygon fill="#ffffff" stroke="#000000" points="175,-.5 175,-30.5 301,-30.5 301,-.5 175,-.5"/>
<text text-anchor="start" x="183" y="-18.5" font-family="Helvetica,sans-Serif" font-size="10.00" fill="#000000">drake/common/double</text>
<text text-anchor="middle" x="238" y="-7.5" font-family="Helvetica,sans-Serif" font-size="10.00" fill="#000000">_overloads.h</text>
</a>
</g>
</g>
<!-- Node18&#45;&gt;Node20 -->
<g id="edge27" class="edge">
<title>Node18&#45;&gt;Node20</title>
<path fill="none" stroke="#191970" d="M323.6724,-72.9005C309.4706,-63.3853 287.2572,-48.5023 269.0082,-36.2755"/>
<polygon fill="#191970" stroke="#191970" points="270.6764,-33.1803 260.4205,-30.5218 266.7801,-38.9957 270.6764,-33.1803"/>
</g>
<!-- Node21&#45;&gt;Node10 -->
<g id="edge29" class="edge">
<title>Node21&#45;&gt;Node10</title>
<path fill="none" stroke="#191970" d="M472.6464,-67.2967C468.5803,-57.5672 463.273,-44.8675 458.9313,-34.4784"/>
<polygon fill="#191970" stroke="#191970" points="462.0785,-32.9321 454.9931,-25.055 455.6198,-35.6313 462.0785,-32.9321"/>
</g>
<!-- Node22&#45;&gt;Node8 -->
<g id="edge31" class="edge">
<title>Node22&#45;&gt;Node8</title>
<path fill="none" stroke="#191970" d="M170.6699,-67.2967C155.4555,-56.4524 135.0643,-41.9182 119.7547,-31.006"/>
<polygon fill="#191970" stroke="#191970" points="121.5802,-28.0091 111.4055,-25.055 117.5172,-33.7093 121.5802,-28.0091"/>
</g>
<!-- Node23&#45;&gt;Node2 -->
<g id="edge34" class="edge">
<title>Node23&#45;&gt;Node2</title>
<path fill="none" stroke="#191970" d="M907.49,-257.3009C920.2892,-239.9651 945.6971,-202.0035 953,-165 957.2229,-143.6028 952.6423,-118.7578 948.1712,-101.969"/>
<polygon fill="#191970" stroke="#191970" points="951.4898,-100.846 945.3425,-92.2169 944.7669,-102.7961 951.4898,-100.846"/>
</g>
<!-- Node23&#45;&gt;Node3 -->
<g id="edge36" class="edge">
<title>Node23&#45;&gt;Node3</title>
<path fill="none" stroke="#191970" d="M914.1844,-257.2107C925.3812,-248.8015 940.6282,-235.7282 950,-221 988.7767,-160.0602 1006.0323,-74.1823 1012.1749,-35.6222"/>
<polygon fill="#191970" stroke="#191970" points="1015.708,-35.664 1013.736,-25.2543 1008.786,-34.6217 1015.708,-35.664"/>
</g>
<!-- Node23&#45;&gt;Node4 -->
<g id="edge37" class="edge">
<title>Node23&#45;&gt;Node4</title>
<path fill="none" stroke="#191970" d="M845.6952,-257.4369C790.3573,-247.6918 704.5617,-232.5832 645.9661,-222.2645"/>
<polygon fill="#191970" stroke="#191970" points="646.5363,-218.8111 636.0808,-220.5237 645.3223,-225.705 646.5363,-218.8111"/>
</g>
<!-- Node24 -->
<g id="node25" class="node">
<title>Node24</title>
<polygon fill="#ffffff" stroke="#bfbfbf" points="879.5,-201.5 879.5,-220.5 920.5,-220.5 920.5,-201.5 879.5,-201.5"/>
<text text-anchor="middle" x="900" y="-208.5" font-family="Helvetica,sans-Serif" font-size="10.00" fill="#000000">tuple</text>
</g>
<!-- Node23&#45;&gt;Node24 -->
<g id="edge35" class="edge">
<title>Node23&#45;&gt;Node24</title>
<path fill="none" stroke="#191970" d="M900,-257.2455C900,-249.9382 900,-239.6944 900,-230.7046"/>
<polygon fill="#191970" stroke="#191970" points="903.5001,-230.6426 900,-220.6427 896.5001,-230.6427 903.5001,-230.6426"/>
</g>
<!-- Node25 -->
<g id="node26" class="node">
<title>Node25</title>
<g id="a_node26"><a xlink:href="unused_8h.html" target="_top" xlink:title="drake/common/unused.h">
<polygon fill="#ffffff" stroke="#000000" points="1043.5,-201.5 1043.5,-220.5 1180.5,-220.5 1180.5,-201.5 1043.5,-201.5"/>
<text text-anchor="middle" x="1112" y="-208.5" font-family="Helvetica,sans-Serif" font-size="10.00" fill="#000000">drake/common/unused.h</text>
</a>
</g>
</g>
<!-- Node23&#45;&gt;Node25 -->
<g id="edge38" class="edge">
<title>Node23&#45;&gt;Node25</title>
<path fill="none" stroke="#191970" d="M936.4441,-257.3733C972.3069,-247.9001 1027.1878,-233.4032 1066.0282,-223.1435"/>
<polygon fill="#191970" stroke="#191970" points="1067.257,-226.439 1076.0315,-220.5011 1065.4692,-219.6712 1067.257,-226.439"/>
</g>
<!-- Node26&#45;&gt;Node3 -->
<g id="edge41" class="edge">
<title>Node26&#45;&gt;Node3</title>
<path fill="none" stroke="#191970" d="M1069.0706,-321.9409C1127.0027,-314.157 1211.4269,-299.3482 1235,-277 1257.152,-255.9991 1254,-241.5246 1254,-211 1254,-211 1254,-211 1254,-149.5 1254,-63.0141 1133.4557,-31.7855 1063.5857,-20.9487"/>
<polygon fill="#191970" stroke="#191970" points="1064.0672,-17.4819 1053.6651,-19.4936 1063.0513,-24.4078 1064.0672,-17.4819"/>
</g>
<!-- Node26&#45;&gt;Node21 -->
<g id="edge42" class="edge">
<title>Node26&#45;&gt;Node21</title>
<path fill="none" stroke="#191970" d="M954.8811,-315.4436C918.5308,-306.379 870.7893,-293.0641 830,-277 728.6488,-237.0848 703.1472,-224.6445 612,-165 593.7619,-153.0654 592.1047,-146.136 574,-134 556.7754,-122.454 536.7149,-111.2777 519.4783,-102.3042"/>
<polygon fill="#191970" stroke="#191970" points="520.7238,-99.0094 510.2289,-97.5572 517.5275,-105.2371 520.7238,-99.0094"/>
</g>
<!-- Node26&#45;&gt;Node23 -->
<g id="edge44" class="edge">
<title>Node26&#45;&gt;Node23</title>
<path fill="none" stroke="#191970" d="M984.6017,-313.4554C966.8978,-303.734 943.9805,-291.15 926.4642,-281.5317"/>
<polygon fill="#191970" stroke="#191970" points="927.8061,-278.2756 917.356,-276.5303 924.4369,-284.4115 927.8061,-278.2756"/>
</g>
<!-- Node26&#45;&gt;Node25 -->
<g id="edge43" class="edge">
<title>Node26&#45;&gt;Node25</title>
<path fill="none" stroke="#191970" d="M1025.0733,-313.1389C1043.6633,-291.2957 1077.6405,-251.3724 1097.1554,-228.4424"/>
<polygon fill="#191970" stroke="#191970" points="1100.0484,-230.4433 1103.8643,-220.5595 1094.7177,-225.9065 1100.0484,-230.4433"/>
</g>
<!-- Node27 -->
<g id="node28" class="node">
<title>Node27</title>
<polygon fill="#ffffff" stroke="#bfbfbf" points="980,-257.5 980,-276.5 1044,-276.5 1044,-257.5 980,-257.5"/>
<text text-anchor="middle" x="1012" y="-264.5" font-family="Helvetica,sans-Serif" font-size="10.00" fill="#000000">algorithm</text>
</g>
<!-- Node26&#45;&gt;Node27 -->
<g id="edge40" class="edge">
<title>Node26&#45;&gt;Node27</title>
<path fill="none" stroke="#191970" d="M1012,-313.2977C1012,-305.3834 1012,-295.6043 1012,-287.0759"/>
<polygon fill="#191970" stroke="#191970" points="1015.5001,-286.8469 1012,-276.8469 1008.5001,-286.847 1015.5001,-286.8469"/>
</g>
<!-- Node28 -->
<g id="node29" class="node">
<title>Node28</title>
<g id="a_node29"><a xlink:href="gradient_8h.html" target="_top" xlink:title="Utilities for arithmetic on gradients. ">
<polygon fill="#ffffff" stroke="#000000" points="1100.5,-257.5 1100.5,-276.5 1225.5,-276.5 1225.5,-257.5 1100.5,-257.5"/>
<text text-anchor="middle" x="1163" y="-264.5" font-family="Helvetica,sans-Serif" font-size="10.00" fill="#000000">drake/math/gradient.h</text>
</a>
</g>
</g>
<!-- Node26&#45;&gt;Node28 -->
<g id="edge45" class="edge">
<title>Node26&#45;&gt;Node28</title>
<path fill="none" stroke="#191970" d="M1048.9388,-313.4554C1073.802,-303.329 1106.2918,-290.0964 1130.2336,-280.3453"/>
<polygon fill="#191970" stroke="#191970" points="1131.6593,-283.5438 1139.6004,-276.5303 1129.0188,-277.0609 1131.6593,-283.5438"/>
</g>
<!-- Node28&#45;&gt;Node3 -->
<g id="edge46" class="edge">
<title>Node28&#45;&gt;Node3</title>
<path fill="none" stroke="#191970" d="M1171.9839,-257.1852C1182.6215,-244.3153 1197.9529,-221.0195 1190,-201 1159.0752,-123.1544 1078.2804,-59.0557 1038.2163,-30.9017"/>
<polygon fill="#191970" stroke="#191970" points="1040.0832,-27.9375 1029.8643,-25.1402 1036.1083,-33.6995 1040.0832,-27.9375"/>
</g>
</g>
</svg>
        <g id="navigator" transform="translate(0 0)" fill="#404254">
                <rect fill="#f2f5e9" fill-opacity="0.5" stroke="#606060" stroke-width=".5" x="0" y="0" width="60" height="60"/>
                <use id="zoomplus" xlink:href="#zoomPlus" x="17" y="9" onmousedown="handleZoom(evt,'in')"/>
                <use id="zoomminus" xlink:href="#zoomMin" x="42" y="9" onmousedown="handleZoom(evt,'out')"/>
                <use id="reset" xlink:href="#resetDef" x="30" y="36" onmousedown="handleReset()"/>
                <g id="arrowUp" xlink:href="#dirArrow" transform="translate(30 24)" onmousedown="handlePan(0,-1)">
                  <use xlink:href="#rim" fill="#404040">
                        <set attributeName="fill" to="#808080" begin="arrowUp.mouseover" end="arrowUp.mouseout"/>
                  </use>
                  <path fill="none" stroke="white" stroke-width="1.5" d="M0,-3.0v7 M-2.5,-0.5L0,-3.0L2.5,-0.5"/>
                </g>
                <g id="arrowRight" xlink:href="#dirArrow" transform="rotate(90) translate(36 -43)" onmousedown="handlePan(1,0)">
                  <use xlink:href="#rim" fill="#404040">
                        <set attributeName="fill" to="#808080" begin="arrowRight.mouseover" end="arrowRight.mouseout"/>
                  </use>
                  <path fill="none" stroke="white" stroke-width="1.5" d="M0,-3.0v7 M-2.5,-0.5L0,-3.0L2.5,-0.5"/>
                </g>
                <g id="arrowDown" xlink:href="#dirArrow" transform="rotate(180) translate(-30 -48)" onmousedown="handlePan(0,1)">
                  <use xlink:href="#rim" fill="#404040">
                        <set attributeName="fill" to="#808080" begin="arrowDown.mouseover" end="arrowDown.mouseout"/>
                  </use>
                  <path fill="none" stroke="white" stroke-width="1.5" d="M0,-3.0v7 M-2.5,-0.5L0,-3.0L2.5,-0.5"/>
                </g>
                <g id="arrowLeft" xlink:href="#dirArrow" transform="rotate(270) translate(-36 17)" onmousedown="handlePan(-1,0)">
                  <use xlink:href="#rim" fill="#404040">
                        <set attributeName="fill" to="#808080" begin="arrowLeft.mouseover" end="arrowLeft.mouseout"/>
                  </use>
                  <path fill="none" stroke="white" stroke-width="1.5" d="M0,-3.0v7 M-2.5,-0.5L0,-3.0L2.5,-0.5"/>
                </g>
        </g>
        <svg viewBox="0 0 15 15" width="100%" height="30px" preserveAspectRatio="xMaxYMin meet">
         <g id="arrow_out" transform="scale(0.3 0.3)">
          <a xlink:href="expmap_8cc__incl_org.svg" target="_base">
           <rect id="button" ry="5" rx="5" y="6" x="6" height="38" width="38"
                fill="#f2f5e9" fill-opacity="0.5" stroke="#606060" stroke-width="1.0"/>
           <path id="arrow"
             d="M 11.500037,31.436501 C 11.940474,20.09759 22.043105,11.32322 32.158766,21.979434 L 37.068811,17.246167 C 37.068811,17.246167 37.088388,32 37.088388,32 L 22.160133,31.978069 C 22.160133,31.978069 26.997745,27.140456 26.997745,27.140456 C 18.528582,18.264221 13.291696,25.230495 11.500037,31.436501 z"
             style="fill:#404040;"/>
          </a>
         </g>
        </svg>
</svg>
