<?xml version="1.0" encoding="UTF-8" standalone="no"?>
<!DOCTYPE svg PUBLIC "-//W3C//DTD SVG 1.1//EN"
 "http://www.w3.org/Graphics/SVG/1.1/DTD/svg11.dtd">
<!-- Generated by graphviz version 2.40.1 (20161225.0304)
 -->
<!-- Title: drake/common/trajectories/exponential_plus_piecewise_polynomial.cc Pages: 1 -->
<svg width="2387pt" height="530pt"
 viewBox="0.00 0.00 2387.00 530.00" xmlns="http://www.w3.org/2000/svg" xmlns:xlink="http://www.w3.org/1999/xlink">
<g id="graph0" class="graph" transform="scale(1 1) rotate(0) translate(4 526)">
<title>drake/common/trajectories/exponential_plus_piecewise_polynomial.cc</title>
<polygon fill="#ffffff" stroke="transparent" points="-4,4 -4,-526 2383,-526 2383,4 -4,4"/>
<!-- Node0 -->
<g id="node1" class="node">
<title>Node0</title>
<polygon fill="#bfbfbf" stroke="#000000" points="2131,-480.5 2131,-521.5 2288,-521.5 2288,-480.5 2131,-480.5"/>
<text text-anchor="start" x="2139" y="-509.5" font-family="Helvetica,sans-Serif" font-size="10.00" fill="#000000">drake/common/trajectories</text>
<text text-anchor="start" x="2139" y="-498.5" font-family="Helvetica,sans-Serif" font-size="10.00" fill="#000000">/exponential_plus_piecewise</text>
<text text-anchor="middle" x="2209.5" y="-487.5" font-family="Helvetica,sans-Serif" font-size="10.00" fill="#000000">_polynomial.cc</text>
</g>
<!-- Node1 -->
<g id="node2" class="node">
<title>Node1</title>
<g id="a_node2"><a xlink:href="exponential__plus__piecewise__polynomial_8h.html" target="_top" xlink:title="drake/common/trajectories\l/exponential_plus_piecewise\l_polynomial.h">
<polygon fill="#ffffff" stroke="#000000" points="1795,-402.5 1795,-443.5 1952,-443.5 1952,-402.5 1795,-402.5"/>
<text text-anchor="start" x="1803" y="-431.5" font-family="Helvetica,sans-Serif" font-size="10.00" fill="#000000">drake/common/trajectories</text>
<text text-anchor="start" x="1803" y="-420.5" font-family="Helvetica,sans-Serif" font-size="10.00" fill="#000000">/exponential_plus_piecewise</text>
<text text-anchor="middle" x="1873.5" y="-409.5" font-family="Helvetica,sans-Serif" font-size="10.00" fill="#000000">_polynomial.h</text>
</a>
</g>
</g>
<!-- Node0&#45;&gt;Node1 -->
<g id="edge1" class="edge">
<title>Node0&#45;&gt;Node1</title>
<path fill="none" stroke="#191970" d="M2130.7229,-482.7125C2080.1559,-470.9737 2014.3962,-455.708 1962.0253,-443.5505"/>
<polygon fill="#191970" stroke="#191970" points="1962.6065,-440.0924 1952.0741,-441.2404 1961.0236,-446.9111 1962.6065,-440.0924"/>
</g>
<!-- Node2 -->
<g id="node3" class="node">
<title>Node2</title>
<polygon fill="#ffffff" stroke="#bfbfbf" points="2085.5,-6 2085.5,-25 2143.5,-25 2143.5,-6 2085.5,-6"/>
<text text-anchor="middle" x="2114.5" y="-13" font-family="Helvetica,sans-Serif" font-size="10.00" fill="#000000">memory</text>
</g>
<!-- Node0&#45;&gt;Node2 -->
<g id="edge64" class="edge">
<title>Node0&#45;&gt;Node2</title>
<path fill="none" stroke="#191970" d="M2209.5,-480.0617C2209.5,-450.9887 2209.5,-396.7474 2209.5,-350.5 2209.5,-350.5 2209.5,-350.5 2209.5,-149.5 2209.5,-99.1048 2164.2302,-54.4317 2136.1907,-31.5952"/>
<polygon fill="#191970" stroke="#191970" points="2138.1315,-28.6684 2128.1112,-25.2269 2133.7983,-34.166 2138.1315,-28.6684"/>
</g>
<!-- Node35 -->
<g id="node36" class="node">
<title>Node35</title>
<polygon fill="#ffffff" stroke="#bfbfbf" points="2238,-408 2238,-438 2379,-438 2379,-408 2238,-408"/>
<text text-anchor="start" x="2246" y="-426" font-family="Helvetica,sans-Serif" font-size="10.00" fill="#000000">unsupported/Eigen/Matrix</text>
<text text-anchor="middle" x="2308.5" y="-415" font-family="Helvetica,sans-Serif" font-size="10.00" fill="#000000">Functions</text>
</g>
<!-- Node0&#45;&gt;Node35 -->
<g id="edge65" class="edge">
<title>Node0&#45;&gt;Node35</title>
<path fill="none" stroke="#191970" d="M2235.7703,-480.3022C2249.8486,-469.2102 2267.1691,-455.5637 2281.3755,-444.3708"/>
<polygon fill="#191970" stroke="#191970" points="2283.6432,-447.04 2289.332,-438.102 2279.311,-441.5416 2283.6432,-447.04"/>
</g>
<!-- Node1&#45;&gt;Node2 -->
<g id="edge2" class="edge">
<title>Node1&#45;&gt;Node2</title>
<path fill="none" stroke="#191970" d="M1952.1858,-402.676C2040.4745,-377.5058 2171.5,-331.9842 2171.5,-283.5 2171.5,-283.5 2171.5,-283.5 2171.5,-149.5 2171.5,-105.1138 2144.69,-58.5826 2127.8437,-33.7256"/>
<polygon fill="#191970" stroke="#191970" points="2130.5542,-31.4944 2121.9518,-25.3099 2124.8199,-35.5091 2130.5542,-31.4944"/>
</g>
<!-- Node3 -->
<g id="node4" class="node">
<title>Node3</title>
<polygon fill="#ffffff" stroke="#bfbfbf" points="1664,-207 1664,-226 1711,-226 1711,-207 1664,-207"/>
<text text-anchor="middle" x="1687.5" y="-214" font-family="Helvetica,sans-Serif" font-size="10.00" fill="#000000">vector</text>
</g>
<!-- Node1&#45;&gt;Node3 -->
<g id="edge3" class="edge">
<title>Node1&#45;&gt;Node3</title>
<path fill="none" stroke="#191970" d="M1794.9225,-409.334C1748.6152,-399.5021 1696.4309,-384.6954 1682.5,-366 1653.7676,-327.4409 1669.2161,-266.4468 1679.9646,-235.6461"/>
<polygon fill="#191970" stroke="#191970" points="1683.3099,-236.6903 1683.4903,-226.097 1676.7432,-234.2657 1683.3099,-236.6903"/>
</g>
<!-- Node4 -->
<g id="node5" class="node">
<title>Node4</title>
<polygon fill="#ffffff" stroke="#bfbfbf" points="1724,-140 1724,-159 1793,-159 1793,-140 1724,-140"/>
<text text-anchor="middle" x="1758.5" y="-147" font-family="Helvetica,sans-Serif" font-size="10.00" fill="#000000">Eigen/Core</text>
</g>
<!-- Node1&#45;&gt;Node4 -->
<g id="edge4" class="edge">
<title>Node1&#45;&gt;Node4</title>
<path fill="none" stroke="#191970" d="M1891.303,-402.3425C1916.0076,-371.0404 1954.5423,-310.7215 1925.5,-268 1901.0476,-232.0301 1870.3593,-256.6143 1834.5,-232 1820.6094,-222.4653 1790.776,-188.13 1772.8972,-166.8755"/>
<polygon fill="#191970" stroke="#191970" points="1775.5732,-164.6196 1766.4745,-159.1914 1770.2023,-169.1088 1775.5732,-164.6196"/>
</g>
<!-- Node5 -->
<g id="node6" class="node">
<title>Node5</title>
<g id="a_node6"><a xlink:href="drake__assert_8h.html" target="_top" xlink:title="Provides Drake&#39;s assertion implementation. ">
<polygon fill="#ffffff" stroke="#000000" points="234,-67.5 234,-97.5 355,-97.5 355,-67.5 234,-67.5"/>
<text text-anchor="start" x="242" y="-85.5" font-family="Helvetica,sans-Serif" font-size="10.00" fill="#000000">drake/common/drake</text>
<text text-anchor="middle" x="294.5" y="-74.5" font-family="Helvetica,sans-Serif" font-size="10.00" fill="#000000">_assert.h</text>
</a>
</g>
</g>
<!-- Node1&#45;&gt;Node5 -->
<g id="edge5" class="edge">
<title>Node1&#45;&gt;Node5</title>
<path fill="none" stroke="#191970" d="M1794.9198,-420.7474C1459.8442,-410.6347 167.5,-366.2662 167.5,-283.5 167.5,-283.5 167.5,-283.5 167.5,-216.5 167.5,-164.7199 218.0745,-124.9294 255.3934,-102.6166"/>
<polygon fill="#191970" stroke="#191970" points="257.1778,-105.6278 264.0803,-97.59 253.672,-99.569 257.1778,-105.6278"/>
</g>
<!-- Node7 -->
<g id="node8" class="node">
<title>Node7</title>
<g id="a_node8"><a xlink:href="drake__copyable_8h.html" target="_top" xlink:title="Provides careful macros to selectively enable or disable the special member functions for copy&#45;constr...">
<polygon fill="#ffffff" stroke="#000000" points="1895,-.5 1895,-30.5 2016,-30.5 2016,-.5 1895,-.5"/>
<text text-anchor="start" x="1903" y="-18.5" font-family="Helvetica,sans-Serif" font-size="10.00" fill="#000000">drake/common/drake</text>
<text text-anchor="middle" x="1955.5" y="-7.5" font-family="Helvetica,sans-Serif" font-size="10.00" fill="#000000">_copyable.h</text>
</a>
</g>
</g>
<!-- Node1&#45;&gt;Node7 -->
<g id="edge7" class="edge">
<title>Node1&#45;&gt;Node7</title>
<path fill="none" stroke="#191970" d="M1899.5865,-402.2948C1911.5812,-392.077 1925.5437,-379.1416 1936.5,-366 1981.3599,-312.1925 1998.323,-298.7771 2019.5,-232 2041.7722,-161.7697 2040.1191,-130.9327 2003.5,-67 1997.4537,-56.4439 1988.8532,-46.3113 1980.5986,-37.8686"/>
<polygon fill="#191970" stroke="#191970" points="1982.7934,-35.1193 1973.1983,-30.6265 1977.8974,-40.1223 1982.7934,-35.1193"/>
</g>
<!-- Node8 -->
<g id="node9" class="node">
<title>Node8</title>
<g id="a_node9"><a xlink:href="eigen__types_8h.html" target="_top" xlink:title="This file contains abbreviated definitions for certain specializations of Eigen::Matrix that are comm...">
<polygon fill="#ffffff" stroke="#000000" points="1027.5,-67.5 1027.5,-97.5 1147.5,-97.5 1147.5,-67.5 1027.5,-67.5"/>
<text text-anchor="start" x="1035.5" y="-85.5" font-family="Helvetica,sans-Serif" font-size="10.00" fill="#000000">drake/common/eigen</text>
<text text-anchor="middle" x="1087.5" y="-74.5" font-family="Helvetica,sans-Serif" font-size="10.00" fill="#000000">_types.h</text>
</a>
</g>
</g>
<!-- Node1&#45;&gt;Node8 -->
<g id="edge8" class="edge">
<title>Node1&#45;&gt;Node8</title>
<path fill="none" stroke="#191970" d="M1794.6859,-419.4698C1614.3811,-410.072 1178.1742,-379.4377 1058.5,-299 1019.4559,-272.7569 1006.2403,-246.4185 1018.5,-201 1028.237,-164.9271 1051.9699,-128.5449 1068.8776,-105.7914"/>
<polygon fill="#191970" stroke="#191970" points="1071.7125,-107.8456 1074.98,-97.7672 1066.1407,-103.6082 1071.7125,-107.8456"/>
</g>
<!-- Node11 -->
<g id="node12" class="node">
<title>Node11</title>
<g id="a_node12"><a xlink:href="piecewise__polynomial_8h.html" target="_top" xlink:title="drake/common/trajectories\l/piecewise_polynomial.h">
<polygon fill="#ffffff" stroke="#000000" points="1691,-335.5 1691,-365.5 1840,-365.5 1840,-335.5 1691,-335.5"/>
<text text-anchor="start" x="1699" y="-353.5" font-family="Helvetica,sans-Serif" font-size="10.00" fill="#000000">drake/common/trajectories</text>
<text text-anchor="middle" x="1765.5" y="-342.5" font-family="Helvetica,sans-Serif" font-size="10.00" fill="#000000">/piecewise_polynomial.h</text>
</a>
</g>
</g>
<!-- Node1&#45;&gt;Node11 -->
<g id="edge13" class="edge">
<title>Node1&#45;&gt;Node11</title>
<path fill="none" stroke="#191970" d="M1842.8404,-402.4183C1828.3801,-392.7112 1811.1548,-381.1479 1796.6348,-371.4007"/>
<polygon fill="#191970" stroke="#191970" points="1798.246,-368.2668 1787.9925,-365.5991 1794.3444,-374.0787 1798.246,-368.2668"/>
</g>
<!-- Node6 -->
<g id="node7" class="node">
<title>Node6</title>
<polygon fill="#ffffff" stroke="#bfbfbf" points="260,-6 260,-25 329,-25 329,-6 260,-6"/>
<text text-anchor="middle" x="294.5" y="-13" font-family="Helvetica,sans-Serif" font-size="10.00" fill="#000000">type_traits</text>
</g>
<!-- Node5&#45;&gt;Node6 -->
<g id="edge6" class="edge">
<title>Node5&#45;&gt;Node6</title>
<path fill="none" stroke="#191970" d="M294.5,-67.2967C294.5,-57.7699 294.5,-45.3954 294.5,-35.1306"/>
<polygon fill="#191970" stroke="#191970" points="298.0001,-35.0549 294.5,-25.055 291.0001,-35.055 298.0001,-35.0549"/>
</g>
<!-- Node8&#45;&gt;Node2 -->
<g id="edge9" class="edge">
<title>Node8&#45;&gt;Node2</title>
<path fill="none" stroke="#191970" d="M1147.5131,-81.6487C1296.5485,-79.0044 1695.3424,-68.6809 2025.5,-31 2041.8327,-29.1359 2059.7103,-26.2 2075.1299,-23.3824"/>
<polygon fill="#191970" stroke="#191970" points="2076.1787,-26.7469 2085.3632,-21.4653 2074.8897,-19.8666 2076.1787,-26.7469"/>
</g>
<!-- Node8&#45;&gt;Node7 -->
<g id="edge12" class="edge">
<title>Node8&#45;&gt;Node7</title>
<path fill="none" stroke="#191970" d="M1147.5036,-77.8684C1302.9262,-65.8715 1718.0712,-33.8269 1884.7709,-20.9595"/>
<polygon fill="#191970" stroke="#191970" points="1885.2092,-24.4362 1894.9102,-20.1769 1884.6704,-17.4569 1885.2092,-24.4362"/>
</g>
<!-- Node9 -->
<g id="node10" class="node">
<title>Node9</title>
<polygon fill="#ffffff" stroke="#bfbfbf" points="788,-6 788,-25 865,-25 865,-6 788,-6"/>
<text text-anchor="middle" x="826.5" y="-13" font-family="Helvetica,sans-Serif" font-size="10.00" fill="#000000">Eigen/Dense</text>
</g>
<!-- Node8&#45;&gt;Node9 -->
<g id="edge10" class="edge">
<title>Node8&#45;&gt;Node9</title>
<path fill="none" stroke="#191970" d="M1028.9265,-67.4639C981.937,-55.4015 916.8542,-38.6944 873.2963,-27.5128"/>
<polygon fill="#191970" stroke="#191970" points="874.0843,-24.1017 863.5281,-25.0053 872.3437,-30.8819 874.0843,-24.1017"/>
</g>
<!-- Node10 -->
<g id="node11" class="node">
<title>Node10</title>
<g id="a_node11"><a xlink:href="constants_8h.html" target="_top" xlink:title="drake/common/constants.h">
<polygon fill="#ffffff" stroke="#000000" points="1013,-6 1013,-25 1162,-25 1162,-6 1013,-6"/>
<text text-anchor="middle" x="1087.5" y="-13" font-family="Helvetica,sans-Serif" font-size="10.00" fill="#000000">drake/common/constants.h</text>
</a>
</g>
</g>
<!-- Node8&#45;&gt;Node10 -->
<g id="edge11" class="edge">
<title>Node8&#45;&gt;Node10</title>
<path fill="none" stroke="#191970" d="M1087.5,-67.2967C1087.5,-57.7699 1087.5,-45.3954 1087.5,-35.1306"/>
<polygon fill="#191970" stroke="#191970" points="1091.0001,-35.0549 1087.5,-25.055 1084.0001,-35.055 1091.0001,-35.0549"/>
</g>
<!-- Node11&#45;&gt;Node2 -->
<g id="edge15" class="edge">
<title>Node11&#45;&gt;Node2</title>
<path fill="none" stroke="#191970" d="M1840.102,-343.8629C1881.7188,-337.3601 1932.9722,-324.4864 1972.5,-299 2062.9425,-240.6853 2081.2343,-202.3578 2107.5,-98 2112.7451,-77.1602 2114.2514,-52.525 2114.5969,-35.6345"/>
<polygon fill="#191970" stroke="#191970" points="2118.0992,-35.3489 2114.6823,-25.3202 2111.0995,-35.2909 2118.0992,-35.3489"/>
</g>
<!-- Node11&#45;&gt;Node3 -->
<g id="edge16" class="edge">
<title>Node11&#45;&gt;Node3</title>
<path fill="none" stroke="#191970" d="M1752.2725,-335.3924C1743.9678,-325.4672 1733.3775,-311.9646 1725.5,-299 1712.887,-278.242 1701.6952,-252.5965 1694.7805,-235.4599"/>
<polygon fill="#191970" stroke="#191970" points="1697.9782,-234.0279 1691.0535,-226.0093 1691.4663,-236.5961 1697.9782,-234.0279"/>
</g>
<!-- Node11&#45;&gt;Node4 -->
<g id="edge17" class="edge">
<title>Node11&#45;&gt;Node4</title>
<path fill="none" stroke="#191970" d="M1762.8737,-335.2316C1761.2521,-325.013 1759.3283,-311.2435 1758.5,-299 1755.3744,-252.7975 1756.6055,-198.3792 1757.6388,-169.6391"/>
<polygon fill="#191970" stroke="#191970" points="1761.1492,-169.44 1758.0427,-159.3108 1754.1545,-169.1664 1761.1492,-169.44"/>
</g>
<!-- Node11&#45;&gt;Node7 -->
<g id="edge18" class="edge">
<title>Node11&#45;&gt;Node7</title>
<path fill="none" stroke="#191970" d="M1840.2805,-338.2589C1898.3052,-324.0879 1973.435,-294.1553 2001.5,-232 2031.2076,-166.2069 1992.5404,-80.3849 1969.8537,-39.3627"/>
<polygon fill="#191970" stroke="#191970" points="1972.8691,-37.5848 1964.883,-30.6225 1966.7843,-41.0454 1972.8691,-37.5848"/>
</g>
<!-- Node11&#45;&gt;Node8 -->
<g id="edge19" class="edge">
<title>Node11&#45;&gt;Node8</title>
<path fill="none" stroke="#191970" d="M1690.9007,-346.2219C1559.8042,-338.2796 1293.3811,-320.1288 1202.5,-299 1121.3802,-280.1406 1074.7023,-300.6152 1027.5,-232 1019.6912,-220.6488 1022.2275,-213.729 1027.5,-201 1036.1591,-180.095 1051.9783,-184.4743 1063.5,-165 1073.9052,-147.4129 1080.0468,-125.0237 1083.5084,-108.0082"/>
<polygon fill="#191970" stroke="#191970" points="1087.0365,-108.1768 1085.414,-97.707 1080.1533,-106.9035 1087.0365,-108.1768"/>
</g>
<!-- Node12 -->
<g id="node13" class="node">
<title>Node12</title>
<polygon fill="#ffffff" stroke="#bfbfbf" points="408.5,-6 408.5,-25 452.5,-25 452.5,-6 408.5,-6"/>
<text text-anchor="middle" x="430.5" y="-13" font-family="Helvetica,sans-Serif" font-size="10.00" fill="#000000">limits</text>
</g>
<!-- Node11&#45;&gt;Node12 -->
<g id="edge14" class="edge">
<title>Node11&#45;&gt;Node12</title>
<path fill="none" stroke="#191970" d="M1690.7835,-348.0467C1379.9636,-337.3579 205.5,-291.9755 205.5,-216.5 205.5,-216.5 205.5,-216.5 205.5,-149.5 205.5,-111.8735 198.1429,-93.8525 224.5,-67 236.7209,-54.5494 343.5069,-32.3524 398.323,-21.6308"/>
<polygon fill="#191970" stroke="#191970" points="399.0851,-25.0483 408.2347,-19.7065 397.751,-18.1766 399.0851,-25.0483"/>
</g>
<!-- Node13 -->
<g id="node14" class="node">
<title>Node13</title>
<g id="a_node14"><a xlink:href="polynomial_8h.html" target="_top" xlink:title="drake/common/polynomial.h">
<polygon fill="#ffffff" stroke="#000000" points="1211,-274 1211,-293 1368,-293 1368,-274 1211,-274"/>
<text text-anchor="middle" x="1289.5" y="-281" font-family="Helvetica,sans-Serif" font-size="10.00" fill="#000000">drake/common/polynomial.h</text>
</a>
</g>
</g>
<!-- Node11&#45;&gt;Node13 -->
<g id="edge20" class="edge">
<title>Node11&#45;&gt;Node13</title>
<path fill="none" stroke="#191970" d="M1690.8634,-339.9944C1602.6862,-327.5829 1456.6947,-307.0337 1367.2025,-294.4371"/>
<polygon fill="#191970" stroke="#191970" points="1367.5041,-290.9451 1357.1138,-293.0171 1366.5284,-297.8768 1367.5041,-290.9451"/>
</g>
<!-- Node33 -->
<g id="node34" class="node">
<title>Node33</title>
<g id="a_node34"><a xlink:href="piecewise__trajectory_8h.html" target="_top" xlink:title="drake/common/trajectories\l/piecewise_trajectory.h">
<polygon fill="#ffffff" stroke="#000000" points="1767,-268.5 1767,-298.5 1916,-298.5 1916,-268.5 1767,-268.5"/>
<text text-anchor="start" x="1775" y="-286.5" font-family="Helvetica,sans-Serif" font-size="10.00" fill="#000000">drake/common/trajectories</text>
<text text-anchor="middle" x="1841.5" y="-275.5" font-family="Helvetica,sans-Serif" font-size="10.00" fill="#000000">/piecewise_trajectory.h</text>
</a>
</g>
</g>
<!-- Node11&#45;&gt;Node33 -->
<g id="edge54" class="edge">
<title>Node11&#45;&gt;Node33</title>
<path fill="none" stroke="#191970" d="M1782.7456,-335.2967C1792.7542,-326.4733 1805.5336,-315.2072 1816.6164,-305.4368"/>
<polygon fill="#191970" stroke="#191970" points="1819.1359,-307.8816 1824.3227,-298.6432 1814.5068,-302.6307 1819.1359,-307.8816"/>
</g>
<!-- Node13&#45;&gt;Node3 -->
<g id="edge27" class="edge">
<title>Node13&#45;&gt;Node3</title>
<path fill="none" stroke="#191970" d="M1368.1978,-279.1987C1443.1132,-273.5234 1558.3651,-260.6504 1654.5,-232 1656.4108,-231.4305 1658.351,-230.7665 1660.2844,-230.0399"/>
<polygon fill="#191970" stroke="#191970" points="1661.8898,-233.1608 1669.7278,-226.0322 1659.1551,-226.7171 1661.8898,-233.1608"/>
</g>
<!-- Node13&#45;&gt;Node4 -->
<g id="edge28" class="edge">
<title>Node13&#45;&gt;Node4</title>
<path fill="none" stroke="#191970" d="M1368.1738,-277.5072C1420.2242,-271.2028 1488.8714,-258.3105 1544.5,-232 1564.2033,-222.681 1563.2124,-211.1514 1582.5,-201 1624.4755,-178.9075 1677.207,-165.0864 1713.9564,-157.392"/>
<polygon fill="#191970" stroke="#191970" points="1714.7697,-160.7984 1723.8756,-155.3825 1713.3797,-153.9378 1714.7697,-160.7984"/>
</g>
<!-- Node13&#45;&gt;Node5 -->
<g id="edge53" class="edge">
<title>Node13&#45;&gt;Node5</title>
<path fill="none" stroke="#191970" d="M1210.9302,-280.4213C981.7264,-270.629 326.1421,-236.5465 264.5,-165 249.9669,-148.1318 261.7915,-123.6481 274.6233,-105.7345"/>
<polygon fill="#191970" stroke="#191970" points="277.6016,-107.6013 280.8923,-97.5304 272.0396,-103.3511 277.6016,-107.6013"/>
</g>
<!-- Node14 -->
<g id="node15" class="node">
<title>Node14</title>
<polygon fill="#ffffff" stroke="#bfbfbf" points="1036,-207 1036,-226 1095,-226 1095,-207 1036,-207"/>
<text text-anchor="middle" x="1065.5" y="-214" font-family="Helvetica,sans-Serif" font-size="10.00" fill="#000000">complex</text>
</g>
<!-- Node13&#45;&gt;Node14 -->
<g id="edge21" class="edge">
<title>Node13&#45;&gt;Node14</title>
<path fill="none" stroke="#191970" d="M1250.5125,-273.9387C1212.8186,-264.3921 1154.2623,-248.7617 1104.5,-232 1102.3681,-231.2819 1100.1832,-230.5116 1097.9891,-229.712"/>
<polygon fill="#191970" stroke="#191970" points="1099.0373,-226.3664 1088.446,-226.0912 1096.5541,-232.9111 1099.0373,-226.3664"/>
</g>
<!-- Node15 -->
<g id="node16" class="node">
<title>Node15</title>
<polygon fill="#ffffff" stroke="#bfbfbf" points="1113.5,-207 1113.5,-226 1151.5,-226 1151.5,-207 1113.5,-207"/>
<text text-anchor="middle" x="1132.5" y="-214" font-family="Helvetica,sans-Serif" font-size="10.00" fill="#000000">map</text>
</g>
<!-- Node13&#45;&gt;Node15 -->
<g id="edge22" class="edge">
<title>Node13&#45;&gt;Node15</title>
<path fill="none" stroke="#191970" d="M1262.8958,-273.9962C1236.5177,-264.3139 1195.1458,-248.4254 1160.5,-232 1159.6653,-231.6043 1158.821,-231.1946 1157.9717,-230.7744"/>
<polygon fill="#191970" stroke="#191970" points="1159.3859,-227.5642 1148.9027,-226.0299 1156.1409,-233.7667 1159.3859,-227.5642"/>
</g>
<!-- Node16 -->
<g id="node17" class="node">
<title>Node16</title>
<polygon fill="#ffffff" stroke="#bfbfbf" points="1591.5,-207 1591.5,-226 1645.5,-226 1645.5,-207 1591.5,-207"/>
<text text-anchor="middle" x="1618.5" y="-214" font-family="Helvetica,sans-Serif" font-size="10.00" fill="#000000">random</text>
</g>
<!-- Node13&#45;&gt;Node16 -->
<g id="edge23" class="edge">
<title>Node13&#45;&gt;Node16</title>
<path fill="none" stroke="#191970" d="M1364.3325,-273.9839C1422.9645,-265.6041 1506.2576,-251.6552 1577.5,-232 1580.2509,-231.2411 1583.0756,-230.3719 1585.8935,-229.441"/>
<polygon fill="#191970" stroke="#191970" points="1587.0663,-232.7388 1595.3307,-226.1092 1584.7359,-226.138 1587.0663,-232.7388"/>
</g>
<!-- Node17 -->
<g id="node18" class="node">
<title>Node17</title>
<polygon fill="#ffffff" stroke="#bfbfbf" points="1169.5,-207 1169.5,-226 1201.5,-226 1201.5,-207 1169.5,-207"/>
<text text-anchor="middle" x="1185.5" y="-214" font-family="Helvetica,sans-Serif" font-size="10.00" fill="#000000">set</text>
</g>
<!-- Node13&#45;&gt;Node17 -->
<g id="edge24" class="edge">
<title>Node13&#45;&gt;Node17</title>
<path fill="none" stroke="#191970" d="M1274.5993,-273.9005C1257.4547,-262.8554 1229.0832,-244.5776 1208.9655,-231.6172"/>
<polygon fill="#191970" stroke="#191970" points="1210.6751,-228.5552 1200.373,-226.0817 1206.884,-234.4397 1210.6751,-228.5552"/>
</g>
<!-- Node18 -->
<g id="node19" class="node">
<title>Node18</title>
<polygon fill="#ffffff" stroke="#bfbfbf" points="1220,-207 1220,-226 1285,-226 1285,-207 1220,-207"/>
<text text-anchor="middle" x="1252.5" y="-214" font-family="Helvetica,sans-Serif" font-size="10.00" fill="#000000">stdexcept</text>
</g>
<!-- Node13&#45;&gt;Node18 -->
<g id="edge25" class="edge">
<title>Node13&#45;&gt;Node18</title>
<path fill="none" stroke="#191970" d="M1284.1988,-273.9005C1278.5938,-263.751 1269.6161,-247.4941 1262.6435,-234.8679"/>
<polygon fill="#191970" stroke="#191970" points="1265.6895,-233.1435 1257.7914,-226.0817 1259.5618,-236.5275 1265.6895,-233.1435"/>
</g>
<!-- Node19 -->
<g id="node20" class="node">
<title>Node19</title>
<polygon fill="#ffffff" stroke="#bfbfbf" points="1303.5,-207 1303.5,-226 1347.5,-226 1347.5,-207 1303.5,-207"/>
<text text-anchor="middle" x="1325.5" y="-214" font-family="Helvetica,sans-Serif" font-size="10.00" fill="#000000">string</text>
</g>
<!-- Node13&#45;&gt;Node19 -->
<g id="edge26" class="edge">
<title>Node13&#45;&gt;Node19</title>
<path fill="none" stroke="#191970" d="M1294.6579,-273.9005C1300.0579,-263.8505 1308.6755,-247.8122 1315.4306,-235.2403"/>
<polygon fill="#191970" stroke="#191970" points="1318.7016,-236.5472 1320.3516,-226.0817 1312.5353,-233.234 1318.7016,-236.5472"/>
</g>
<!-- Node20 -->
<g id="node21" class="node">
<title>Node20</title>
<polygon fill="#ffffff" stroke="#bfbfbf" points="1365.5,-207 1365.5,-226 1535.5,-226 1535.5,-207 1365.5,-207"/>
<text text-anchor="middle" x="1450.5" y="-214" font-family="Helvetica,sans-Serif" font-size="10.00" fill="#000000">unsupported/Eigen/Polynomials</text>
</g>
<!-- Node13&#45;&gt;Node20 -->
<g id="edge29" class="edge">
<title>Node13&#45;&gt;Node20</title>
<path fill="none" stroke="#191970" d="M1312.5674,-273.9005C1340.1846,-262.4077 1386.6196,-243.0838 1417.8963,-230.068"/>
<polygon fill="#191970" stroke="#191970" points="1419.5877,-233.1552 1427.4754,-226.0817 1416.8982,-226.6924 1419.5877,-233.1552"/>
</g>
<!-- Node21 -->
<g id="node22" class="node">
<title>Node21</title>
<g id="a_node22"><a xlink:href="common_2autodiff_8h.html" target="_top" xlink:title="drake/common/autodiff.h">
<polygon fill="#ffffff" stroke="#000000" points="721.5,-207 721.5,-226 861.5,-226 861.5,-207 721.5,-207"/>
<text text-anchor="middle" x="791.5" y="-214" font-family="Helvetica,sans-Serif" font-size="10.00" fill="#000000">drake/common/autodiff.h</text>
</a>
</g>
</g>
<!-- Node13&#45;&gt;Node21 -->
<g id="edge30" class="edge">
<title>Node13&#45;&gt;Node21</title>
<path fill="none" stroke="#191970" d="M1218.6776,-273.9717C1126.9957,-261.637 967.6361,-240.197 871.6257,-227.28"/>
<polygon fill="#191970" stroke="#191970" points="872.0537,-223.8061 861.6762,-225.9414 871.1202,-230.7436 872.0537,-223.8061"/>
</g>
<!-- Node21&#45;&gt;Node4 -->
<g id="edge31" class="edge">
<title>Node21&#45;&gt;Node4</title>
<path fill="none" stroke="#191970" d="M861.8232,-211.6276C1049.6086,-198.6166 1559.0236,-163.321 1713.4956,-152.6182"/>
<polygon fill="#191970" stroke="#191970" points="1713.839,-156.1029 1723.5731,-151.92 1713.3551,-149.1196 1713.839,-156.1029"/>
</g>
<!-- Node22 -->
<g id="node23" class="node">
<title>Node22</title>
<polygon fill="#ffffff" stroke="#bfbfbf" points="870,-140 870,-159 1021,-159 1021,-140 870,-140"/>
<text text-anchor="middle" x="945.5" y="-147" font-family="Helvetica,sans-Serif" font-size="10.00" fill="#000000">unsupported/Eigen/AutoDiff</text>
</g>
<!-- Node21&#45;&gt;Node22 -->
<g id="edge32" class="edge">
<title>Node21&#45;&gt;Node22</title>
<path fill="none" stroke="#191970" d="M813.5644,-206.9005C839.8665,-195.4574 884.0128,-176.2509 913.9245,-163.2374"/>
<polygon fill="#191970" stroke="#191970" points="915.703,-166.2806 923.4765,-159.0817 912.9104,-159.8617 915.703,-166.2806"/>
</g>
<!-- Node23 -->
<g id="node24" class="node">
<title>Node23</title>
<g id="a_node24"><a xlink:href="eigen__autodiff__limits_8h.html" target="_top" xlink:title="drake/common/eigen\l_autodiff_limits.h">
<polygon fill="#ffffff" stroke="#000000" points="273.5,-134.5 273.5,-164.5 393.5,-164.5 393.5,-134.5 273.5,-134.5"/>
<text text-anchor="start" x="281.5" y="-152.5" font-family="Helvetica,sans-Serif" font-size="10.00" fill="#000000">drake/common/eigen</text>
<text text-anchor="middle" x="333.5" y="-141.5" font-family="Helvetica,sans-Serif" font-size="10.00" fill="#000000">_autodiff_limits.h</text>
</a>
</g>
</g>
<!-- Node21&#45;&gt;Node23 -->
<g id="edge33" class="edge">
<title>Node21&#45;&gt;Node23</title>
<path fill="none" stroke="#191970" d="M721.2892,-209.1165C645.3779,-200.7025 520.6425,-185.6284 403.8382,-165.148"/>
<polygon fill="#191970" stroke="#191970" points="404.1038,-161.6407 393.6468,-163.3435 402.8834,-168.5335 404.1038,-161.6407"/>
</g>
<!-- Node24 -->
<g id="node25" class="node">
<title>Node24</title>
<g id="a_node25"><a xlink:href="eigen__autodiff__types_8h.html" target="_top" xlink:title="This file contains abbreviated definitions for certain uses of AutoDiffScalar that are commonly used ...">
<polygon fill="#ffffff" stroke="#000000" points="731.5,-134.5 731.5,-164.5 851.5,-164.5 851.5,-134.5 731.5,-134.5"/>
<text text-anchor="start" x="739.5" y="-152.5" font-family="Helvetica,sans-Serif" font-size="10.00" fill="#000000">drake/common/eigen</text>
<text text-anchor="middle" x="791.5" y="-141.5" font-family="Helvetica,sans-Serif" font-size="10.00" fill="#000000">_autodiff_types.h</text>
</a>
</g>
</g>
<!-- Node21&#45;&gt;Node24 -->
<g id="edge35" class="edge">
<title>Node21&#45;&gt;Node24</title>
<path fill="none" stroke="#191970" d="M791.5,-206.9005C791.5,-198.5099 791.5,-185.9451 791.5,-174.7085"/>
<polygon fill="#191970" stroke="#191970" points="795.0001,-174.5217 791.5,-164.5218 788.0001,-174.5218 795.0001,-174.5217"/>
</g>
<!-- Node25 -->
<g id="node26" class="node">
<title>Node25</title>
<g id="a_node26"><a xlink:href="autodiffxd_8h.html" target="_top" xlink:title="drake/common/autodiffxd.h">
<polygon fill="#ffffff" stroke="#000000" points="561.5,-140 561.5,-159 713.5,-159 713.5,-140 561.5,-140"/>
<text text-anchor="middle" x="637.5" y="-147" font-family="Helvetica,sans-Serif" font-size="10.00" fill="#000000">drake/common/autodiffxd.h</text>
</a>
</g>
</g>
<!-- Node21&#45;&gt;Node25 -->
<g id="edge39" class="edge">
<title>Node21&#45;&gt;Node25</title>
<path fill="none" stroke="#191970" d="M769.4356,-206.9005C743.1335,-195.4574 698.9872,-176.2509 669.0755,-163.2374"/>
<polygon fill="#191970" stroke="#191970" points="670.0896,-159.8617 659.5235,-159.0817 667.297,-166.2806 670.0896,-159.8617"/>
</g>
<!-- Node28 -->
<g id="node29" class="node">
<title>Node28</title>
<g id="a_node29"><a xlink:href="autodiff__overloads_8h.html" target="_top" xlink:title="Overloads for STL mathematical operations on AutoDiffScalar. ">
<polygon fill="#ffffff" stroke="#000000" points="412,-134.5 412,-164.5 543,-164.5 543,-134.5 412,-134.5"/>
<text text-anchor="start" x="420" y="-152.5" font-family="Helvetica,sans-Serif" font-size="10.00" fill="#000000">drake/common/autodiff</text>
<text text-anchor="middle" x="477.5" y="-141.5" font-family="Helvetica,sans-Serif" font-size="10.00" fill="#000000">_overloads.h</text>
</a>
</g>
</g>
<!-- Node21&#45;&gt;Node28 -->
<g id="edge43" class="edge">
<title>Node21&#45;&gt;Node28</title>
<path fill="none" stroke="#191970" d="M746.8449,-206.9717C696.4031,-196.2086 613.4706,-178.5128 552.9358,-165.5962"/>
<polygon fill="#191970" stroke="#191970" points="553.5538,-162.1493 543.0436,-163.4854 552.093,-168.9952 553.5538,-162.1493"/>
</g>
<!-- Node23&#45;&gt;Node12 -->
<g id="edge34" class="edge">
<title>Node23&#45;&gt;Node12</title>
<path fill="none" stroke="#191970" d="M344.4386,-134.389C362.433,-109.5307 398.2016,-60.1184 417.4747,-33.4937"/>
<polygon fill="#191970" stroke="#191970" points="420.5191,-35.2569 423.5477,-25.1042 414.8488,-31.1523 420.5191,-35.2569"/>
</g>
<!-- Node24&#45;&gt;Node6 -->
<g id="edge36" class="edge">
<title>Node24&#45;&gt;Node6</title>
<path fill="none" stroke="#191970" d="M785.0069,-134.2795C775.8996,-115 757.3787,-82.4335 730.5,-67 666.3358,-30.1574 472.8892,-40.4043 399.5,-31 379.7606,-28.4705 357.9885,-25.3166 339.4121,-22.5154"/>
<polygon fill="#191970" stroke="#191970" points="339.8663,-19.0443 329.4538,-21.0016 338.8142,-25.9648 339.8663,-19.0443"/>
</g>
<!-- Node24&#45;&gt;Node8 -->
<g id="edge38" class="edge">
<title>Node24&#45;&gt;Node8</title>
<path fill="none" stroke="#191970" d="M851.7568,-135.8608C899.7734,-124.9922 967.0748,-109.7584 1017.4821,-98.3486"/>
<polygon fill="#191970" stroke="#191970" points="1018.347,-101.7415 1027.3276,-96.1201 1016.8016,-94.9142 1018.347,-101.7415"/>
</g>
<!-- Node24&#45;&gt;Node9 -->
<g id="edge37" class="edge">
<title>Node24&#45;&gt;Node9</title>
<path fill="none" stroke="#191970" d="M795.4469,-134.389C801.8263,-109.9649 814.397,-61.8371 821.4304,-34.9095"/>
<polygon fill="#191970" stroke="#191970" points="824.8506,-35.6641 823.9914,-25.1042 818.0778,-33.895 824.8506,-35.6641"/>
</g>
<!-- Node25&#45;&gt;Node9 -->
<g id="edge42" class="edge">
<title>Node25&#45;&gt;Node9</title>
<path fill="none" stroke="#191970" d="M657.4277,-139.9583C676.747,-130.3674 706.5621,-114.6531 730.5,-98 759.8855,-77.5571 790.7437,-49.727 809.3026,-32.1878"/>
<polygon fill="#191970" stroke="#191970" points="811.8738,-34.572 816.6892,-25.1347 807.0396,-29.5093 811.8738,-34.572"/>
</g>
<!-- Node26 -->
<g id="node27" class="node">
<title>Node26</title>
<polygon fill="#ffffff" stroke="#bfbfbf" points="600,-73 600,-92 647,-92 647,-73 600,-73"/>
<text text-anchor="middle" x="623.5" y="-80" font-family="Helvetica,sans-Serif" font-size="10.00" fill="#000000">cmath</text>
</g>
<!-- Node25&#45;&gt;Node26 -->
<g id="edge40" class="edge">
<title>Node25&#45;&gt;Node26</title>
<path fill="none" stroke="#191970" d="M635.4941,-139.9005C633.4357,-130.0495 630.1751,-114.4451 627.5728,-101.9912"/>
<polygon fill="#191970" stroke="#191970" points="630.9736,-101.1543 625.5021,-92.0817 624.1216,-102.5862 630.9736,-101.1543"/>
</g>
<!-- Node27 -->
<g id="node28" class="node">
<title>Node27</title>
<polygon fill="#ffffff" stroke="#bfbfbf" points="665,-73 665,-92 722,-92 722,-73 665,-73"/>
<text text-anchor="middle" x="693.5" y="-80" font-family="Helvetica,sans-Serif" font-size="10.00" fill="#000000">ostream</text>
</g>
<!-- Node25&#45;&gt;Node27 -->
<g id="edge41" class="edge">
<title>Node25&#45;&gt;Node27</title>
<path fill="none" stroke="#191970" d="M645.5234,-139.9005C654.2561,-129.4525 668.3982,-112.5325 679.0708,-99.7635"/>
<polygon fill="#191970" stroke="#191970" points="681.7638,-101.9991 685.4914,-92.0817 676.3928,-97.5099 681.7638,-101.9991"/>
</g>
<!-- Node28&#45;&gt;Node5 -->
<g id="edge50" class="edge">
<title>Node28&#45;&gt;Node5</title>
<path fill="none" stroke="#191970" d="M436.4312,-134.4639C409.4482,-124.5849 373.956,-111.5905 345.2143,-101.0675"/>
<polygon fill="#191970" stroke="#191970" points="346.3417,-97.7531 335.7479,-97.6017 343.935,-104.3264 346.3417,-97.7531"/>
</g>
<!-- Node28&#45;&gt;Node12 -->
<g id="edge45" class="edge">
<title>Node28&#45;&gt;Node12</title>
<path fill="none" stroke="#191970" d="M512.5324,-134.3603C527.3862,-125.9673 543.1656,-113.9543 551.5,-98 557.8794,-85.7881 559.0989,-78.4928 551.5,-67 531.8745,-37.3179 491.2951,-24.6888 462.5509,-19.3503"/>
<polygon fill="#191970" stroke="#191970" points="462.9947,-15.8762 452.5572,-17.6953 461.8509,-22.7822 462.9947,-15.8762"/>
</g>
<!-- Node28&#45;&gt;Node26 -->
<g id="edge44" class="edge">
<title>Node28&#45;&gt;Node26</title>
<path fill="none" stroke="#191970" d="M510.2652,-134.4639C535.0932,-123.0702 568.9512,-107.5327 593.1628,-96.4219"/>
<polygon fill="#191970" stroke="#191970" points="594.9432,-99.4559 602.5721,-92.1039 592.0236,-93.0938 594.9432,-99.4559"/>
</g>
<!-- Node29 -->
<g id="node30" class="node">
<title>Node29</title>
<g id="a_node30"><a xlink:href="cond_8h.html" target="_top" xlink:title="drake/common/cond.h">
<polygon fill="#ffffff" stroke="#000000" points="52,-73 52,-92 177,-92 177,-73 52,-73"/>
<text text-anchor="middle" x="114.5" y="-80" font-family="Helvetica,sans-Serif" font-size="10.00" fill="#000000">drake/common/cond.h</text>
</a>
</g>
</g>
<!-- Node28&#45;&gt;Node29 -->
<g id="edge46" class="edge">
<title>Node28&#45;&gt;Node29</title>
<path fill="none" stroke="#191970" d="M411.6699,-135.7909C408.5715,-135.1785 405.5028,-134.5787 402.5,-134 326.5134,-119.3569 238.9674,-103.9027 180.5333,-93.7891"/>
<polygon fill="#191970" stroke="#191970" points="180.7815,-90.2802 170.3315,-92.0265 179.5896,-97.178 180.7815,-90.2802"/>
</g>
<!-- Node32 -->
<g id="node33" class="node">
<title>Node32</title>
<g id="a_node33"><a xlink:href="dummy__value_8h.html" target="_top" xlink:title="drake/common/dummy\l_value.h">
<polygon fill="#ffffff" stroke="#000000" points="412,-67.5 412,-97.5 543,-97.5 543,-67.5 412,-67.5"/>
<text text-anchor="start" x="420" y="-85.5" font-family="Helvetica,sans-Serif" font-size="10.00" fill="#000000">drake/common/dummy</text>
<text text-anchor="middle" x="477.5" y="-74.5" font-family="Helvetica,sans-Serif" font-size="10.00" fill="#000000">_value.h</text>
</a>
</g>
</g>
<!-- Node28&#45;&gt;Node32 -->
<g id="edge51" class="edge">
<title>Node28&#45;&gt;Node32</title>
<path fill="none" stroke="#191970" d="M477.5,-134.2967C477.5,-126.5013 477.5,-116.7991 477.5,-107.9064"/>
<polygon fill="#191970" stroke="#191970" points="481.0001,-107.6431 477.5,-97.6432 474.0001,-107.6432 481.0001,-107.6431"/>
</g>
<!-- Node29&#45;&gt;Node6 -->
<g id="edge48" class="edge">
<title>Node29&#45;&gt;Node6</title>
<path fill="none" stroke="#191970" d="M140.2896,-72.9005C171.4333,-61.3082 223.9815,-41.7486 258.9531,-28.7313"/>
<polygon fill="#191970" stroke="#191970" points="260.6074,-31.8503 268.7582,-25.0817 258.1654,-25.29 260.6074,-31.8503"/>
</g>
<!-- Node30 -->
<g id="node31" class="node">
<title>Node30</title>
<polygon fill="#ffffff" stroke="#bfbfbf" points="0,-6 0,-25 65,-25 65,-6 0,-6"/>
<text text-anchor="middle" x="32.5" y="-13" font-family="Helvetica,sans-Serif" font-size="10.00" fill="#000000">functional</text>
</g>
<!-- Node29&#45;&gt;Node30 -->
<g id="edge47" class="edge">
<title>Node29&#45;&gt;Node30</title>
<path fill="none" stroke="#191970" d="M102.7514,-72.9005C89.5989,-62.1539 68.0664,-44.5603 52.3017,-31.6794"/>
<polygon fill="#191970" stroke="#191970" points="54.1852,-28.6986 44.2268,-25.0817 49.7561,-34.1193 54.1852,-28.6986"/>
</g>
<!-- Node31 -->
<g id="node32" class="node">
<title>Node31</title>
<g id="a_node32"><a xlink:href="double__overloads_8h.html" target="_top" xlink:title="Provides necessary operations on double to have it as a ScalarType in drake. ">
<polygon fill="#ffffff" stroke="#000000" points="83.5,-.5 83.5,-30.5 209.5,-30.5 209.5,-.5 83.5,-.5"/>
<text text-anchor="start" x="91.5" y="-18.5" font-family="Helvetica,sans-Serif" font-size="10.00" fill="#000000">drake/common/double</text>
<text text-anchor="middle" x="146.5" y="-7.5" font-family="Helvetica,sans-Serif" font-size="10.00" fill="#000000">_overloads.h</text>
</a>
</g>
</g>
<!-- Node29&#45;&gt;Node31 -->
<g id="edge49" class="edge">
<title>Node29&#45;&gt;Node31</title>
<path fill="none" stroke="#191970" d="M119.0848,-72.9005C123.2163,-64.2503 129.4665,-51.164 134.9562,-39.6699"/>
<polygon fill="#191970" stroke="#191970" points="138.1739,-41.0538 139.3254,-30.5218 131.8573,-38.0369 138.1739,-41.0538"/>
</g>
<!-- Node32&#45;&gt;Node12 -->
<g id="edge52" class="edge">
<title>Node32&#45;&gt;Node12</title>
<path fill="none" stroke="#191970" d="M466.835,-67.2967C459.7965,-57.2631 450.5423,-44.0709 443.1348,-33.5113"/>
<polygon fill="#191970" stroke="#191970" points="445.8109,-31.2316 437.2027,-25.055 440.0803,-35.2516 445.8109,-31.2316"/>
</g>
<!-- Node33&#45;&gt;Node2 -->
<g id="edge55" class="edge">
<title>Node33&#45;&gt;Node2</title>
<path fill="none" stroke="#191970" d="M1916.346,-272.0313C1945.4644,-264.5429 1977.5187,-252.2229 2001.5,-232 2065.7678,-177.8046 2098.2695,-77.6821 2109.6585,-35.289"/>
<polygon fill="#191970" stroke="#191970" points="2113.1055,-35.9383 2112.2135,-25.3811 2106.3272,-34.1903 2113.1055,-35.9383"/>
</g>
<!-- Node33&#45;&gt;Node3 -->
<g id="edge57" class="edge">
<title>Node33&#45;&gt;Node3</title>
<path fill="none" stroke="#191970" d="M1806.9394,-268.4639C1780.5182,-256.969 1744.4021,-241.2561 1718.8209,-230.1266"/>
<polygon fill="#191970" stroke="#191970" points="1720.1408,-226.884 1709.5747,-226.1039 1717.3481,-233.3028 1720.1408,-226.884"/>
</g>
<!-- Node33&#45;&gt;Node4 -->
<g id="edge58" class="edge">
<title>Node33&#45;&gt;Node4</title>
<path fill="none" stroke="#191970" d="M1828.4865,-268.2588C1820.2672,-258.2802 1809.6917,-244.7684 1801.5,-232 1788.2103,-211.2855 1775.507,-186.002 1767.4003,-168.9273"/>
<polygon fill="#191970" stroke="#191970" points="1770.3863,-167.0496 1762.9826,-159.471 1764.0442,-170.0125 1770.3863,-167.0496"/>
</g>
<!-- Node33&#45;&gt;Node16 -->
<g id="edge56" class="edge">
<title>Node33&#45;&gt;Node16</title>
<path fill="none" stroke="#191970" d="M1779.7455,-268.4959C1743.2536,-259.1122 1696.3433,-246.1457 1655.5,-232 1653.6244,-231.3504 1651.7079,-230.6534 1649.7827,-229.9274"/>
<polygon fill="#191970" stroke="#191970" points="1650.8213,-226.5742 1640.2352,-226.1437 1648.2422,-233.0818 1650.8213,-226.5742"/>
</g>
<!-- Node34 -->
<g id="node35" class="node">
<title>Node34</title>
<g id="a_node35"><a xlink:href="common_2trajectories_2trajectory_8h.html" target="_top" xlink:title="drake/common/trajectories\l/trajectory.h">
<polygon fill="#ffffff" stroke="#000000" points="1843,-201.5 1843,-231.5 1992,-231.5 1992,-201.5 1843,-201.5"/>
<text text-anchor="start" x="1851" y="-219.5" font-family="Helvetica,sans-Serif" font-size="10.00" fill="#000000">drake/common/trajectories</text>
<text text-anchor="middle" x="1917.5" y="-208.5" font-family="Helvetica,sans-Serif" font-size="10.00" fill="#000000">/trajectory.h</text>
</a>
</g>
</g>
<!-- Node33&#45;&gt;Node34 -->
<g id="edge59" class="edge">
<title>Node33&#45;&gt;Node34</title>
<path fill="none" stroke="#191970" d="M1858.7456,-268.2967C1868.7542,-259.4733 1881.5336,-248.2072 1892.6164,-238.4368"/>
<polygon fill="#191970" stroke="#191970" points="1895.1359,-240.8816 1900.3227,-231.6432 1890.5068,-235.6307 1895.1359,-240.8816"/>
</g>
<!-- Node34&#45;&gt;Node2 -->
<g id="edge60" class="edge">
<title>Node34&#45;&gt;Node2</title>
<path fill="none" stroke="#191970" d="M1932.307,-201.3923C1968.229,-164.741 2059.8269,-71.2832 2097.709,-32.6319"/>
<polygon fill="#191970" stroke="#191970" points="2100.4379,-34.8479 2104.938,-25.2562 2095.4386,-29.9481 2100.4379,-34.8479"/>
</g>
<!-- Node34&#45;&gt;Node4 -->
<g id="edge61" class="edge">
<title>Node34&#45;&gt;Node4</title>
<path fill="none" stroke="#191970" d="M1881.8173,-201.4639C1854.5383,-189.969 1817.2496,-174.2561 1790.8378,-163.1266"/>
<polygon fill="#191970" stroke="#191970" points="1791.8658,-159.7618 1781.2914,-159.1039 1789.1475,-166.2125 1791.8658,-159.7618"/>
</g>
<!-- Node34&#45;&gt;Node7 -->
<g id="edge62" class="edge">
<title>Node34&#45;&gt;Node7</title>
<path fill="none" stroke="#191970" d="M1920.3562,-201.3923C1926.8504,-167.0414 1942.7782,-82.7914 1950.7679,-40.5301"/>
<polygon fill="#191970" stroke="#191970" points="1954.2439,-40.9849 1952.6625,-30.5088 1947.3657,-39.6845 1954.2439,-40.9849"/>
</g>
<!-- Node34&#45;&gt;Node8 -->
<g id="edge63" class="edge">
<title>Node34&#45;&gt;Node8</title>
<path fill="none" stroke="#191970" d="M1902.391,-201.3419C1881.8277,-181.8088 1842.9357,-148.6276 1802.5,-134 1742.9337,-112.4519 1325.8979,-92.6052 1157.6408,-85.3822"/>
<polygon fill="#191970" stroke="#191970" points="1157.786,-81.8853 1147.6457,-84.9555 1157.4873,-88.879 1157.786,-81.8853"/>
</g>
</g>
</svg>
