<?xml version="1.0" encoding="UTF-8" standalone="no"?>
<!DOCTYPE svg PUBLIC "-//W3C//DTD SVG 1.1//EN"
 "http://www.w3.org/Graphics/SVG/1.1/DTD/svg11.dtd">
<!-- Generated by graphviz version 2.40.1 (20161225.0304)
 -->
<!-- Title: drake/attic/multibody/collision/fcl_model.h Pages: 1 -->
<svg width="1022pt" height="106pt"
 viewBox="0.00 0.00 1022.00 106.00" xmlns="http://www.w3.org/2000/svg" xmlns:xlink="http://www.w3.org/1999/xlink">
<g id="graph0" class="graph" transform="scale(1 1) rotate(0) translate(4 102)">
<title>drake/attic/multibody/collision/fcl_model.h</title>
<polygon fill="#ffffff" stroke="transparent" points="-4,4 -4,-102 1018,-102 1018,4 -4,4"/>
<!-- Node0 -->
<g id="node1" class="node">
<title>Node0</title>
<polygon fill="#bfbfbf" stroke="#000000" points="313,-67.5 313,-97.5 435,-97.5 435,-67.5 313,-67.5"/>
<text text-anchor="start" x="321" y="-85.5" font-family="Helvetica,sans-Serif" font-size="10.00" fill="#000000">drake/attic/multibody</text>
<text text-anchor="middle" x="374" y="-74.5" font-family="Helvetica,sans-Serif" font-size="10.00" fill="#000000">/collision/fcl_model.h</text>
</g>
<!-- Node1 -->
<g id="node2" class="node">
<title>Node1</title>
<polygon fill="#ffffff" stroke="#bfbfbf" points="0,-6 0,-25 58,-25 58,-6 0,-6"/>
<text text-anchor="middle" x="29" y="-13" font-family="Helvetica,sans-Serif" font-size="10.00" fill="#000000">memory</text>
</g>
<!-- Node0&#45;&gt;Node1 -->
<g id="edge1" class="edge">
<title>Node0&#45;&gt;Node1</title>
<path fill="none" stroke="#191970" d="M312.833,-76.275C250.2359,-68.9697 150.569,-54.7368 67,-31 64.5412,-30.3016 62.0253,-29.4946 59.5165,-28.623"/>
<polygon fill="#191970" stroke="#191970" points="60.6039,-25.2925 50.0122,-25.0355 58.1319,-31.8415 60.6039,-25.2925"/>
</g>
<!-- Node2 -->
<g id="node3" class="node">
<title>Node2</title>
<polygon fill="#ffffff" stroke="#bfbfbf" points="76.5,-6 76.5,-25 169.5,-25 169.5,-6 76.5,-6"/>
<text text-anchor="middle" x="123" y="-13" font-family="Helvetica,sans-Serif" font-size="10.00" fill="#000000">unordered_map</text>
</g>
<!-- Node0&#45;&gt;Node2 -->
<g id="edge2" class="edge">
<title>Node0&#45;&gt;Node2</title>
<path fill="none" stroke="#191970" d="M315.6086,-67.4467C276.599,-57.3189 224.1681,-43.5699 178,-31 174.1786,-29.9596 170.2116,-28.8667 166.2372,-27.7631"/>
<polygon fill="#191970" stroke="#191970" points="166.9946,-24.3407 156.4217,-25.0212 165.1113,-31.0826 166.9946,-24.3407"/>
</g>
<!-- Node3 -->
<g id="node4" class="node">
<title>Node3</title>
<polygon fill="#ffffff" stroke="#bfbfbf" points="187.5,-6 187.5,-25 234.5,-25 234.5,-6 187.5,-6"/>
<text text-anchor="middle" x="211" y="-13" font-family="Helvetica,sans-Serif" font-size="10.00" fill="#000000">vector</text>
</g>
<!-- Node0&#45;&gt;Node3 -->
<g id="edge3" class="edge">
<title>Node0&#45;&gt;Node3</title>
<path fill="none" stroke="#191970" d="M333.2469,-67.3996C307.2242,-57.5313 272.8833,-44.0885 243,-31 241.8232,-30.4846 240.6262,-29.9505 239.4201,-29.4042"/>
<polygon fill="#191970" stroke="#191970" points="240.721,-26.1488 230.1798,-25.0845 237.7565,-32.4901 240.721,-26.1488"/>
</g>
<!-- Node4 -->
<g id="node5" class="node">
<title>Node4</title>
<polygon fill="#ffffff" stroke="#bfbfbf" points="252.5,-6 252.5,-25 329.5,-25 329.5,-6 252.5,-6"/>
<text text-anchor="middle" x="291" y="-13" font-family="Helvetica,sans-Serif" font-size="10.00" fill="#000000">Eigen/Dense</text>
</g>
<!-- Node0&#45;&gt;Node4 -->
<g id="edge4" class="edge">
<title>Node0&#45;&gt;Node4</title>
<path fill="none" stroke="#191970" d="M355.166,-67.2967C341.9831,-56.6551 324.3985,-42.4602 310.9716,-31.6217"/>
<polygon fill="#191970" stroke="#191970" points="312.8164,-28.6128 302.8368,-25.055 308.4195,-34.0596 312.8164,-28.6128"/>
</g>
<!-- Node5 -->
<g id="node6" class="node">
<title>Node5</title>
<polygon fill="#ffffff" stroke="#bfbfbf" points="347.5,-6 347.5,-25 400.5,-25 400.5,-6 347.5,-6"/>
<text text-anchor="middle" x="374" y="-13" font-family="Helvetica,sans-Serif" font-size="10.00" fill="#000000">fcl/fcl.h</text>
</g>
<!-- Node0&#45;&gt;Node5 -->
<g id="edge5" class="edge">
<title>Node0&#45;&gt;Node5</title>
<path fill="none" stroke="#191970" d="M374,-67.2967C374,-57.7699 374,-45.3954 374,-35.1306"/>
<polygon fill="#191970" stroke="#191970" points="377.5001,-35.0549 374,-25.055 370.5001,-35.055 377.5001,-35.0549"/>
</g>
<!-- Node6 -->
<g id="node7" class="node">
<title>Node6</title>
<g id="a_node7"><a xlink:href="drake__copyable_8h.html" target="_top" xlink:title="Provides careful macros to selectively enable or disable the special member functions for copy&#45;constr...">
<polygon fill="#ffffff" stroke="#000000" points="418.5,-.5 418.5,-30.5 539.5,-30.5 539.5,-.5 418.5,-.5"/>
<text text-anchor="start" x="426.5" y="-18.5" font-family="Helvetica,sans-Serif" font-size="10.00" fill="#000000">drake/common/drake</text>
<text text-anchor="middle" x="479" y="-7.5" font-family="Helvetica,sans-Serif" font-size="10.00" fill="#000000">_copyable.h</text>
</a>
</g>
</g>
<!-- Node0&#45;&gt;Node6 -->
<g id="edge6" class="edge">
<title>Node0&#45;&gt;Node6</title>
<path fill="none" stroke="#191970" d="M397.564,-67.4639C412.0527,-58.2188 430.8172,-46.2452 446.6817,-36.1222"/>
<polygon fill="#191970" stroke="#191970" points="448.604,-39.0474 455.1513,-30.7177 444.8386,-33.1464 448.604,-39.0474"/>
</g>
<!-- Node7 -->
<g id="node8" class="node">
<title>Node7</title>
<polygon fill="#ffffff" stroke="#bfbfbf" points="558,-.5 558,-30.5 698,-30.5 698,-.5 558,-.5"/>
<text text-anchor="start" x="566" y="-18.5" font-family="Helvetica,sans-Serif" font-size="10.00" fill="#000000">drake/multibody/collision</text>
<text text-anchor="middle" x="628" y="-7.5" font-family="Helvetica,sans-Serif" font-size="10.00" fill="#000000">/element.h</text>
</g>
<!-- Node0&#45;&gt;Node7 -->
<g id="edge7" class="edge">
<title>Node0&#45;&gt;Node7</title>
<path fill="none" stroke="#191970" d="M431.0026,-67.4639C469.5128,-57.3057 520.5106,-43.8535 560.969,-33.1814"/>
<polygon fill="#191970" stroke="#191970" points="561.9723,-36.5366 570.7488,-30.6017 560.1868,-29.7681 561.9723,-36.5366"/>
</g>
<!-- Node8 -->
<g id="node9" class="node">
<title>Node8</title>
<polygon fill="#ffffff" stroke="#bfbfbf" points="716,-.5 716,-30.5 856,-30.5 856,-.5 716,-.5"/>
<text text-anchor="start" x="724" y="-18.5" font-family="Helvetica,sans-Serif" font-size="10.00" fill="#000000">drake/multibody/collision</text>
<text text-anchor="middle" x="786" y="-7.5" font-family="Helvetica,sans-Serif" font-size="10.00" fill="#000000">/model.h</text>
</g>
<!-- Node0&#45;&gt;Node8 -->
<g id="edge8" class="edge">
<title>Node0&#45;&gt;Node8</title>
<path fill="none" stroke="#191970" d="M435.1909,-73.7915C499.9251,-64.4085 605.2955,-48.6524 705.7942,-31.1742"/>
<polygon fill="#191970" stroke="#191970" points="706.568,-34.5921 715.8161,-29.4226 705.3628,-27.6967 706.568,-34.5921"/>
</g>
<!-- Node9 -->
<g id="node10" class="node">
<title>Node9</title>
<polygon fill="#ffffff" stroke="#bfbfbf" points="874,-.5 874,-30.5 1014,-30.5 1014,-.5 874,-.5"/>
<text text-anchor="start" x="882" y="-18.5" font-family="Helvetica,sans-Serif" font-size="10.00" fill="#000000">drake/multibody/collision</text>
<text text-anchor="middle" x="944" y="-7.5" font-family="Helvetica,sans-Serif" font-size="10.00" fill="#000000">/point_pair.h</text>
</g>
<!-- Node0&#45;&gt;Node9 -->
<g id="edge9" class="edge">
<title>Node0&#45;&gt;Node9</title>
<path fill="none" stroke="#191970" d="M435.0756,-77.857C526.2441,-70.5371 703.49,-54.8067 863.7992,-31.1013"/>
<polygon fill="#191970" stroke="#191970" points="864.4715,-34.5398 873.8452,-29.6018 863.4381,-27.6165 864.4715,-34.5398"/>
</g>
</g>
</svg>
