<?xml version="1.0" encoding="UTF-8" standalone="no"?>
<!DOCTYPE svg PUBLIC "-//W3C//DTD SVG 1.1//EN"
 "http://www.w3.org/Graphics/SVG/1.1/DTD/svg11.dtd">
<!-- Generated by graphviz version 2.40.1 (20161225.0304)
 -->
<!-- Title: drake/common/find_loaded_library.h Pages: 1 -->
<svg width="237pt" height="162pt"
 viewBox="0.00 0.00 236.50 162.00" xmlns="http://www.w3.org/2000/svg" xmlns:xlink="http://www.w3.org/1999/xlink">
<g id="graph0" class="graph" transform="scale(1 1) rotate(0) translate(4 158)">
<title>drake/common/find_loaded_library.h</title>
<polygon fill="#ffffff" stroke="transparent" points="-4,4 -4,-158 232.5,-158 232.5,4 -4,4"/>
<!-- Node0 -->
<g id="node1" class="node">
<title>Node0</title>
<polygon fill="#bfbfbf" stroke="#000000" points="0,-123.5 0,-153.5 150,-153.5 150,-123.5 0,-123.5"/>
<text text-anchor="start" x="8" y="-141.5" font-family="Helvetica,sans-Serif" font-size="10.00" fill="#000000">drake/common/find_loaded</text>
<text text-anchor="middle" x="75" y="-130.5" font-family="Helvetica,sans-Serif" font-size="10.00" fill="#000000">_library.h</text>
</g>
<!-- Node1 -->
<g id="node2" class="node">
<title>Node1</title>
<polygon fill="#ffffff" stroke="#bfbfbf" points="3,-62 3,-81 47,-81 47,-62 3,-62"/>
<text text-anchor="middle" x="25" y="-69" font-family="Helvetica,sans-Serif" font-size="10.00" fill="#000000">string</text>
</g>
<!-- Node0&#45;&gt;Node1 -->
<g id="edge1" class="edge">
<title>Node0&#45;&gt;Node1</title>
<path fill="none" stroke="#191970" d="M63.6542,-123.2967C56.0909,-113.1618 46.1224,-99.804 38.2031,-89.1921"/>
<polygon fill="#191970" stroke="#191970" points="40.9165,-86.976 32.1306,-81.055 35.3064,-91.1626 40.9165,-86.976"/>
</g>
<!-- Node2 -->
<g id="node3" class="node">
<title>Node2</title>
<g id="a_node3"><a xlink:href="drake__optional_8h.html" target="_top" xlink:title="Provides drake::optional as an alias for the appropriate implementation of std::optional or std::expe...">
<polygon fill="#ffffff" stroke="#000000" points="65.5,-56.5 65.5,-86.5 186.5,-86.5 186.5,-56.5 65.5,-56.5"/>
<text text-anchor="start" x="73.5" y="-74.5" font-family="Helvetica,sans-Serif" font-size="10.00" fill="#000000">drake/common/drake</text>
<text text-anchor="middle" x="126" y="-63.5" font-family="Helvetica,sans-Serif" font-size="10.00" fill="#000000">_optional.h</text>
</a>
</g>
</g>
<!-- Node0&#45;&gt;Node2 -->
<g id="edge2" class="edge">
<title>Node0&#45;&gt;Node2</title>
<path fill="none" stroke="#191970" d="M86.5727,-123.2967C92.9629,-114.9016 101.0365,-104.2952 108.211,-94.8698"/>
<polygon fill="#191970" stroke="#191970" points="111.2012,-96.7201 114.4731,-86.6432 105.6312,-92.4803 111.2012,-96.7201"/>
</g>
<!-- Node3 -->
<g id="node4" class="node">
<title>Node3</title>
<polygon fill="#ffffff" stroke="#bfbfbf" points="25,-.5 25,-19.5 115,-19.5 115,-.5 25,-.5"/>
<text text-anchor="middle" x="70" y="-7.5" font-family="Helvetica,sans-Serif" font-size="10.00" fill="#000000">stx/variant.hpp</text>
</g>
<!-- Node2&#45;&gt;Node3 -->
<g id="edge3" class="edge">
<title>Node2&#45;&gt;Node3</title>
<path fill="none" stroke="#191970" d="M112.1573,-56.2977C104.141,-47.4941 94.0238,-36.3833 85.71,-27.2529"/>
<polygon fill="#191970" stroke="#191970" points="88.2869,-24.8845 78.9663,-19.8469 83.1112,-29.5974 88.2869,-24.8845"/>
</g>
<!-- Node4 -->
<g id="node5" class="node">
<title>Node4</title>
<polygon fill="#ffffff" stroke="#bfbfbf" points="133.5,-.5 133.5,-19.5 228.5,-19.5 228.5,-.5 133.5,-.5"/>
<text text-anchor="middle" x="181" y="-7.5" font-family="Helvetica,sans-Serif" font-size="10.00" fill="#000000">stx/optional.hpp</text>
</g>
<!-- Node2&#45;&gt;Node4 -->
<g id="edge4" class="edge">
<title>Node2&#45;&gt;Node4</title>
<path fill="none" stroke="#191970" d="M139.5955,-56.2977C147.3891,-47.5831 157.2047,-36.6075 165.3226,-27.5302"/>
<polygon fill="#191970" stroke="#191970" points="168.1365,-29.6341 172.1938,-19.8469 162.9187,-24.9678 168.1365,-29.6341"/>
</g>
</g>
</svg>
