<?xml version="1.0" encoding="UTF-8" standalone="no"?>
<!DOCTYPE svg PUBLIC "-//W3C//DTD SVG 1.1//EN"
 "http://www.w3.org/Graphics/SVG/1.1/DTD/svg11.dtd">
<!-- Generated by graphviz version 2.40.1 (20161225.0304)
 -->
<!-- Title: drake/common/find_loaded_library.cc Pages: 1 -->
<svg width="709pt" height="229pt"
 viewBox="0.00 0.00 709.00 229.00" xmlns="http://www.w3.org/2000/svg" xmlns:xlink="http://www.w3.org/1999/xlink">
<g id="graph0" class="graph" transform="scale(1 1) rotate(0) translate(4 225)">
<title>drake/common/find_loaded_library.cc</title>
<polygon fill="#ffffff" stroke="transparent" points="-4,4 -4,-225 705,-225 705,4 -4,4"/>
<!-- Node0 -->
<g id="node1" class="node">
<title>Node0</title>
<polygon fill="#bfbfbf" stroke="#000000" points="365,-190.5 365,-220.5 515,-220.5 515,-190.5 365,-190.5"/>
<text text-anchor="start" x="373" y="-208.5" font-family="Helvetica,sans-Serif" font-size="10.00" fill="#000000">drake/common/find_loaded</text>
<text text-anchor="middle" x="440" y="-197.5" font-family="Helvetica,sans-Serif" font-size="10.00" fill="#000000">_library.cc</text>
</g>
<!-- Node1 -->
<g id="node2" class="node">
<title>Node1</title>
<g id="a_node2"><a xlink:href="find__loaded__library_8h.html" target="_top" xlink:title="drake/common/find_loaded\l_library.h">
<polygon fill="#ffffff" stroke="#000000" points="32,-123.5 32,-153.5 182,-153.5 182,-123.5 32,-123.5"/>
<text text-anchor="start" x="40" y="-141.5" font-family="Helvetica,sans-Serif" font-size="10.00" fill="#000000">drake/common/find_loaded</text>
<text text-anchor="middle" x="107" y="-130.5" font-family="Helvetica,sans-Serif" font-size="10.00" fill="#000000">_library.h</text>
</a>
</g>
</g>
<!-- Node0&#45;&gt;Node1 -->
<g id="edge1" class="edge">
<title>Node0&#45;&gt;Node1</title>
<path fill="none" stroke="#191970" d="M365.2683,-190.4639C313.7295,-180.0942 245.1306,-166.2921 191.5852,-155.5186"/>
<polygon fill="#191970" stroke="#191970" points="192.2637,-152.0851 181.7698,-153.5438 190.8829,-158.9476 192.2637,-152.0851"/>
</g>
<!-- Node6 -->
<g id="node7" class="node">
<title>Node6</title>
<g id="a_node7"><a xlink:href="drake__throw_8h.html" target="_top" xlink:title="Provides a convenient wrapper to throw an exception when a condition is unmet. ">
<polygon fill="#ffffff" stroke="#000000" points="199.5,-123.5 199.5,-153.5 320.5,-153.5 320.5,-123.5 199.5,-123.5"/>
<text text-anchor="start" x="207.5" y="-141.5" font-family="Helvetica,sans-Serif" font-size="10.00" fill="#000000">drake/common/drake</text>
<text text-anchor="middle" x="260" y="-130.5" font-family="Helvetica,sans-Serif" font-size="10.00" fill="#000000">_throw.h</text>
</a>
</g>
</g>
<!-- Node0&#45;&gt;Node6 -->
<g id="edge6" class="edge">
<title>Node0&#45;&gt;Node6</title>
<path fill="none" stroke="#191970" d="M399.6045,-190.4639C373.1792,-180.6278 338.4569,-167.7034 310.252,-157.2049"/>
<polygon fill="#191970" stroke="#191970" points="311.1645,-153.81 300.5717,-153.6017 308.7226,-160.3703 311.1645,-153.81"/>
</g>
<!-- Node9 -->
<g id="node10" class="node">
<title>Node9</title>
<polygon fill="#ffffff" stroke="#bfbfbf" points="339,-129 339,-148 395,-148 395,-129 339,-129"/>
<text text-anchor="middle" x="367" y="-136" font-family="Helvetica,sans-Serif" font-size="10.00" fill="#000000">libgen.h</text>
</g>
<!-- Node0&#45;&gt;Node9 -->
<g id="edge10" class="edge">
<title>Node0&#45;&gt;Node9</title>
<path fill="none" stroke="#191970" d="M423.4352,-190.2967C411.951,-179.7564 396.6688,-165.7303 384.9038,-154.9323"/>
<polygon fill="#191970" stroke="#191970" points="387.1447,-152.2382 377.4106,-148.055 382.4114,-157.3954 387.1447,-152.2382"/>
</g>
<!-- Node10 -->
<g id="node11" class="node">
<title>Node10</title>
<polygon fill="#ffffff" stroke="#bfbfbf" points="413.5,-129 413.5,-148 466.5,-148 466.5,-129 413.5,-129"/>
<text text-anchor="middle" x="440" y="-136" font-family="Helvetica,sans-Serif" font-size="10.00" fill="#000000">string.h</text>
</g>
<!-- Node0&#45;&gt;Node10 -->
<g id="edge11" class="edge">
<title>Node0&#45;&gt;Node10</title>
<path fill="none" stroke="#191970" d="M440,-190.2967C440,-180.7699 440,-168.3954 440,-158.1306"/>
<polygon fill="#191970" stroke="#191970" points="443.5001,-158.0549 440,-148.055 436.5001,-158.055 443.5001,-158.0549"/>
</g>
<!-- Node11 -->
<g id="node12" class="node">
<title>Node11</title>
<polygon fill="#ffffff" stroke="#bfbfbf" points="485,-129 485,-148 541,-148 541,-129 485,-129"/>
<text text-anchor="middle" x="513" y="-136" font-family="Helvetica,sans-Serif" font-size="10.00" fill="#000000">unistd.h</text>
</g>
<!-- Node0&#45;&gt;Node11 -->
<g id="edge12" class="edge">
<title>Node0&#45;&gt;Node11</title>
<path fill="none" stroke="#191970" d="M456.5648,-190.2967C468.049,-179.7564 483.3312,-165.7303 495.0962,-154.9323"/>
<polygon fill="#191970" stroke="#191970" points="497.5886,-157.3954 502.5894,-148.055 492.8553,-152.2382 497.5886,-157.3954"/>
</g>
<!-- Node12 -->
<g id="node13" class="node">
<title>Node12</title>
<polygon fill="#ffffff" stroke="#bfbfbf" points="559,-129 559,-148 603,-148 603,-129 559,-129"/>
<text text-anchor="middle" x="581" y="-136" font-family="Helvetica,sans-Serif" font-size="10.00" fill="#000000">link.h</text>
</g>
<!-- Node0&#45;&gt;Node12 -->
<g id="edge13" class="edge">
<title>Node0&#45;&gt;Node12</title>
<path fill="none" stroke="#191970" d="M472.8348,-190.3963C494.7551,-180.2473 524.1867,-166.4934 550,-154 550.9749,-153.5282 551.966,-153.046 552.9661,-152.5574"/>
<polygon fill="#191970" stroke="#191970" points="554.604,-155.6522 562.0208,-148.0863 551.5047,-149.3756 554.604,-155.6522"/>
</g>
<!-- Node13 -->
<g id="node14" class="node">
<title>Node13</title>
<polygon fill="#ffffff" stroke="#bfbfbf" points="621,-129 621,-148 701,-148 701,-129 621,-129"/>
<text text-anchor="middle" x="661" y="-136" font-family="Helvetica,sans-Serif" font-size="10.00" fill="#000000">linux/limits.h</text>
</g>
<!-- Node0&#45;&gt;Node13 -->
<g id="edge14" class="edge">
<title>Node0&#45;&gt;Node13</title>
<path fill="none" stroke="#191970" d="M490.8636,-190.4947C525.1349,-180.3292 571.335,-166.5188 612,-154 614.974,-153.0845 618.047,-152.1307 621.1369,-151.1661"/>
<polygon fill="#191970" stroke="#191970" points="622.4702,-154.4161 630.9632,-148.0821 620.3739,-147.7373 622.4702,-154.4161"/>
</g>
<!-- Node2 -->
<g id="node3" class="node">
<title>Node2</title>
<polygon fill="#ffffff" stroke="#bfbfbf" points="0,-62 0,-81 44,-81 44,-62 0,-62"/>
<text text-anchor="middle" x="22" y="-69" font-family="Helvetica,sans-Serif" font-size="10.00" fill="#000000">string</text>
</g>
<!-- Node1&#45;&gt;Node2 -->
<g id="edge2" class="edge">
<title>Node1&#45;&gt;Node2</title>
<path fill="none" stroke="#191970" d="M87.7122,-123.2967C74.0831,-112.5537 55.8598,-98.1895 42.0612,-87.3129"/>
<polygon fill="#191970" stroke="#191970" points="44.1422,-84.4967 34.122,-81.055 39.8089,-89.9942 44.1422,-84.4967"/>
</g>
<!-- Node3 -->
<g id="node4" class="node">
<title>Node3</title>
<g id="a_node4"><a xlink:href="drake__optional_8h.html" target="_top" xlink:title="Provides drake::optional as an alias for the appropriate implementation of std::optional or std::expe...">
<polygon fill="#ffffff" stroke="#000000" points="62.5,-56.5 62.5,-86.5 183.5,-86.5 183.5,-56.5 62.5,-56.5"/>
<text text-anchor="start" x="70.5" y="-74.5" font-family="Helvetica,sans-Serif" font-size="10.00" fill="#000000">drake/common/drake</text>
<text text-anchor="middle" x="123" y="-63.5" font-family="Helvetica,sans-Serif" font-size="10.00" fill="#000000">_optional.h</text>
</a>
</g>
</g>
<!-- Node1&#45;&gt;Node3 -->
<g id="edge3" class="edge">
<title>Node1&#45;&gt;Node3</title>
<path fill="none" stroke="#191970" d="M110.6306,-123.2967C112.5127,-115.4156 114.8601,-105.5857 117.0027,-96.6135"/>
<polygon fill="#191970" stroke="#191970" points="120.4652,-97.1827 119.3837,-86.6432 113.6566,-95.5567 120.4652,-97.1827"/>
</g>
<!-- Node4 -->
<g id="node5" class="node">
<title>Node4</title>
<polygon fill="#ffffff" stroke="#bfbfbf" points="3,-.5 3,-19.5 93,-19.5 93,-.5 3,-.5"/>
<text text-anchor="middle" x="48" y="-7.5" font-family="Helvetica,sans-Serif" font-size="10.00" fill="#000000">stx/variant.hpp</text>
</g>
<!-- Node3&#45;&gt;Node4 -->
<g id="edge4" class="edge">
<title>Node3&#45;&gt;Node4</title>
<path fill="none" stroke="#191970" d="M104.4607,-56.2977C93.3992,-47.2274 79.3509,-35.7077 68.0347,-26.4285"/>
<polygon fill="#191970" stroke="#191970" points="69.9604,-23.4813 60.0084,-19.8469 65.5219,-28.8942 69.9604,-23.4813"/>
</g>
<!-- Node5 -->
<g id="node6" class="node">
<title>Node5</title>
<polygon fill="#ffffff" stroke="#bfbfbf" points="111.5,-.5 111.5,-19.5 206.5,-19.5 206.5,-.5 111.5,-.5"/>
<text text-anchor="middle" x="159" y="-7.5" font-family="Helvetica,sans-Serif" font-size="10.00" fill="#000000">stx/optional.hpp</text>
</g>
<!-- Node3&#45;&gt;Node5 -->
<g id="edge5" class="edge">
<title>Node3&#45;&gt;Node5</title>
<path fill="none" stroke="#191970" d="M131.8989,-56.2977C136.7919,-47.9388 142.9026,-37.4997 148.0824,-28.6509"/>
<polygon fill="#191970" stroke="#191970" points="151.2047,-30.2452 153.2359,-19.8469 145.1635,-26.7089 151.2047,-30.2452"/>
</g>
<!-- Node7 -->
<g id="node8" class="node">
<title>Node7</title>
<polygon fill="#ffffff" stroke="#bfbfbf" points="263.5,-.5 263.5,-19.5 332.5,-19.5 332.5,-.5 263.5,-.5"/>
<text text-anchor="middle" x="298" y="-7.5" font-family="Helvetica,sans-Serif" font-size="10.00" fill="#000000">type_traits</text>
</g>
<!-- Node6&#45;&gt;Node7 -->
<g id="edge7" class="edge">
<title>Node6&#45;&gt;Node7</title>
<path fill="none" stroke="#191970" d="M258.1715,-123.3931C256.6974,-106.454 256.0061,-78.4216 264,-56 267.7623,-45.4474 274.8113,-35.2625 281.5196,-27.1703"/>
<polygon fill="#191970" stroke="#191970" points="284.2382,-29.3794 288.2351,-19.5674 278.9917,-24.7453 284.2382,-29.3794"/>
</g>
<!-- Node8 -->
<g id="node9" class="node">
<title>Node8</title>
<g id="a_node9"><a xlink:href="drake__assert_8h.html" target="_top" xlink:title="Provides Drake&#39;s assertion implementation. ">
<polygon fill="#ffffff" stroke="#000000" points="272.5,-56.5 272.5,-86.5 393.5,-86.5 393.5,-56.5 272.5,-56.5"/>
<text text-anchor="start" x="280.5" y="-74.5" font-family="Helvetica,sans-Serif" font-size="10.00" fill="#000000">drake/common/drake</text>
<text text-anchor="middle" x="333" y="-63.5" font-family="Helvetica,sans-Serif" font-size="10.00" fill="#000000">_assert.h</text>
</a>
</g>
</g>
<!-- Node6&#45;&gt;Node8 -->
<g id="edge8" class="edge">
<title>Node6&#45;&gt;Node8</title>
<path fill="none" stroke="#191970" d="M276.5648,-123.2967C286.1783,-114.4733 298.4534,-103.2072 309.0987,-93.4368"/>
<polygon fill="#191970" stroke="#191970" points="311.5,-95.9836 316.5007,-86.6432 306.7667,-90.8264 311.5,-95.9836"/>
</g>
<!-- Node8&#45;&gt;Node7 -->
<g id="edge9" class="edge">
<title>Node8&#45;&gt;Node7</title>
<path fill="none" stroke="#191970" d="M324.3483,-56.2977C319.5912,-47.9388 313.6502,-37.4997 308.6143,-28.6509"/>
<polygon fill="#191970" stroke="#191970" points="311.5921,-26.8069 303.6039,-19.8469 305.5083,-30.2692 311.5921,-26.8069"/>
</g>
</g>
</svg>
