<?xml version="1.0" encoding="UTF-8" standalone="no"?>
<!DOCTYPE svg PUBLIC "-//W3C//DTD SVG 1.1//EN"
 "http://www.w3.org/Graphics/SVG/1.1/DTD/svg11.dtd">
<!-- Generated by graphviz version 2.40.1 (20161225.0304)
 -->
<!-- Title: drake/examples/double_pendulum/frame_cache.h Pages: 1 -->
<svg width="714pt" height="229pt"
 viewBox="0.00 0.00 713.50 229.00" xmlns="http://www.w3.org/2000/svg" xmlns:xlink="http://www.w3.org/1999/xlink">
<g id="graph0" class="graph" transform="scale(1 1) rotate(0) translate(4 225)">
<title>drake/examples/double_pendulum/frame_cache.h</title>
<polygon fill="#ffffff" stroke="transparent" points="-4,4 -4,-225 709.5,-225 709.5,4 -4,4"/>
<!-- Node0 -->
<g id="node1" class="node">
<title>Node0</title>
<polygon fill="#bfbfbf" stroke="#000000" points="106,-190.5 106,-220.5 252,-220.5 252,-190.5 106,-190.5"/>
<text text-anchor="start" x="114" y="-208.5" font-family="Helvetica,sans-Serif" font-size="10.00" fill="#000000">drake/examples/double</text>
<text text-anchor="middle" x="179" y="-197.5" font-family="Helvetica,sans-Serif" font-size="10.00" fill="#000000">_pendulum/frame_cache.h</text>
</g>
<!-- Node1 -->
<g id="node2" class="node">
<title>Node1</title>
<polygon fill="#ffffff" stroke="#bfbfbf" points="0,-129 0,-148 38,-148 38,-129 0,-129"/>
<text text-anchor="middle" x="19" y="-136" font-family="Helvetica,sans-Serif" font-size="10.00" fill="#000000">map</text>
</g>
<!-- Node0&#45;&gt;Node1 -->
<g id="edge1" class="edge">
<title>Node0&#45;&gt;Node1</title>
<path fill="none" stroke="#191970" d="M136.1854,-190.4472C110.0534,-180.8551 76.1721,-167.6904 47,-154 46.1638,-153.6076 45.3181,-153.2007 44.4677,-152.783"/>
<polygon fill="#191970" stroke="#191970" points="45.8776,-149.5711 35.3922,-148.0521 42.6418,-155.7783 45.8776,-149.5711"/>
</g>
<!-- Node2 -->
<g id="node3" class="node">
<title>Node2</title>
<polygon fill="#ffffff" stroke="#bfbfbf" points="56,-129 56,-148 100,-148 100,-129 56,-129"/>
<text text-anchor="middle" x="78" y="-136" font-family="Helvetica,sans-Serif" font-size="10.00" fill="#000000">string</text>
</g>
<!-- Node0&#45;&gt;Node2 -->
<g id="edge2" class="edge">
<title>Node0&#45;&gt;Node2</title>
<path fill="none" stroke="#191970" d="M156.3336,-190.4639C139.8451,-179.526 117.5996,-164.769 101.0278,-153.7759"/>
<polygon fill="#191970" stroke="#191970" points="102.7455,-150.7153 92.4776,-148.1039 98.8759,-156.5485 102.7455,-150.7153"/>
</g>
<!-- Node3 -->
<g id="node4" class="node">
<title>Node3</title>
<g id="a_node4"><a xlink:href="drake__copyable_8h.html" target="_top" xlink:title="Provides careful macros to selectively enable or disable the special member functions for copy&#45;constr...">
<polygon fill="#ffffff" stroke="#000000" points="245.5,-56.5 245.5,-86.5 366.5,-86.5 366.5,-56.5 245.5,-56.5"/>
<text text-anchor="start" x="253.5" y="-74.5" font-family="Helvetica,sans-Serif" font-size="10.00" fill="#000000">drake/common/drake</text>
<text text-anchor="middle" x="306" y="-63.5" font-family="Helvetica,sans-Serif" font-size="10.00" fill="#000000">_copyable.h</text>
</a>
</g>
</g>
<!-- Node0&#45;&gt;Node3 -->
<g id="edge3" class="edge">
<title>Node0&#45;&gt;Node3</title>
<path fill="none" stroke="#191970" d="M202.8484,-190.4804C216.8743,-180.9974 234.4559,-167.9346 248,-154 265.2978,-136.2034 281.2222,-112.821 291.9907,-95.495"/>
<polygon fill="#191970" stroke="#191970" points="295.2146,-96.9295 297.4187,-86.5665 289.2332,-93.2931 295.2146,-96.9295"/>
</g>
<!-- Node4 -->
<g id="node5" class="node">
<title>Node4</title>
<g id="a_node5"><a xlink:href="drake__throw_8h.html" target="_top" xlink:title="Provides a convenient wrapper to throw an exception when a condition is unmet. ">
<polygon fill="#ffffff" stroke="#000000" points="118.5,-123.5 118.5,-153.5 239.5,-153.5 239.5,-123.5 118.5,-123.5"/>
<text text-anchor="start" x="126.5" y="-141.5" font-family="Helvetica,sans-Serif" font-size="10.00" fill="#000000">drake/common/drake</text>
<text text-anchor="middle" x="179" y="-130.5" font-family="Helvetica,sans-Serif" font-size="10.00" fill="#000000">_throw.h</text>
</a>
</g>
</g>
<!-- Node0&#45;&gt;Node4 -->
<g id="edge4" class="edge">
<title>Node0&#45;&gt;Node4</title>
<path fill="none" stroke="#191970" d="M179,-190.2967C179,-182.5013 179,-172.7991 179,-163.9064"/>
<polygon fill="#191970" stroke="#191970" points="182.5001,-163.6431 179,-153.6432 175.5001,-163.6432 182.5001,-163.6431"/>
</g>
<!-- Node7 -->
<g id="node8" class="node">
<title>Node7</title>
<g id="a_node8"><a xlink:href="eigen__types_8h.html" target="_top" xlink:title="This file contains abbreviated definitions for certain specializations of Eigen::Matrix that are comm...">
<polygon fill="#ffffff" stroke="#000000" points="354,-123.5 354,-153.5 474,-153.5 474,-123.5 354,-123.5"/>
<text text-anchor="start" x="362" y="-141.5" font-family="Helvetica,sans-Serif" font-size="10.00" fill="#000000">drake/common/eigen</text>
<text text-anchor="middle" x="414" y="-130.5" font-family="Helvetica,sans-Serif" font-size="10.00" fill="#000000">_types.h</text>
</a>
</g>
</g>
<!-- Node0&#45;&gt;Node7 -->
<g id="edge8" class="edge">
<title>Node0&#45;&gt;Node7</title>
<path fill="none" stroke="#191970" d="M231.7386,-190.4639C267.1422,-180.3701 313.9531,-167.024 351.2697,-156.3848"/>
<polygon fill="#191970" stroke="#191970" points="352.3743,-159.7094 361.0314,-153.6017 350.4549,-152.9777 352.3743,-159.7094"/>
</g>
<!-- Node5 -->
<g id="node6" class="node">
<title>Node5</title>
<polygon fill="#ffffff" stroke="#bfbfbf" points="87.5,-.5 87.5,-19.5 156.5,-19.5 156.5,-.5 87.5,-.5"/>
<text text-anchor="middle" x="122" y="-7.5" font-family="Helvetica,sans-Serif" font-size="10.00" fill="#000000">type_traits</text>
</g>
<!-- Node4&#45;&gt;Node5 -->
<g id="edge5" class="edge">
<title>Node4&#45;&gt;Node5</title>
<path fill="none" stroke="#191970" d="M138.569,-123.3679C122.6433,-115.182 106.028,-103.3309 97,-87 86.5977,-68.183 97.5545,-44.3594 108.0581,-28.2318"/>
<polygon fill="#191970" stroke="#191970" points="111.1499,-29.9188 114.0252,-19.7216 105.4184,-25.9001 111.1499,-29.9188"/>
</g>
<!-- Node6 -->
<g id="node7" class="node">
<title>Node6</title>
<g id="a_node7"><a xlink:href="drake__assert_8h.html" target="_top" xlink:title="Provides Drake&#39;s assertion implementation. ">
<polygon fill="#ffffff" stroke="#000000" points="106.5,-56.5 106.5,-86.5 227.5,-86.5 227.5,-56.5 106.5,-56.5"/>
<text text-anchor="start" x="114.5" y="-74.5" font-family="Helvetica,sans-Serif" font-size="10.00" fill="#000000">drake/common/drake</text>
<text text-anchor="middle" x="167" y="-63.5" font-family="Helvetica,sans-Serif" font-size="10.00" fill="#000000">_assert.h</text>
</a>
</g>
</g>
<!-- Node4&#45;&gt;Node6 -->
<g id="edge6" class="edge">
<title>Node4&#45;&gt;Node6</title>
<path fill="none" stroke="#191970" d="M176.277,-123.2967C174.8655,-115.4156 173.1049,-105.5857 171.4979,-96.6135"/>
<polygon fill="#191970" stroke="#191970" points="174.9205,-95.8695 169.7122,-86.6432 168.0301,-97.1036 174.9205,-95.8695"/>
</g>
<!-- Node6&#45;&gt;Node5 -->
<g id="edge7" class="edge">
<title>Node6&#45;&gt;Node5</title>
<path fill="none" stroke="#191970" d="M155.8764,-56.2977C149.6299,-47.7609 141.796,-37.0545 135.2353,-28.0883"/>
<polygon fill="#191970" stroke="#191970" points="137.9348,-25.8505 129.2051,-19.8469 132.2856,-29.984 137.9348,-25.8505"/>
</g>
<!-- Node7&#45;&gt;Node3 -->
<g id="edge12" class="edge">
<title>Node7&#45;&gt;Node3</title>
<path fill="none" stroke="#191970" d="M389.7627,-123.4639C374.8601,-114.2188 355.5594,-102.2452 339.2417,-92.1222"/>
<polygon fill="#191970" stroke="#191970" points="340.8728,-89.0153 330.5301,-86.7177 337.1826,-94.9636 340.8728,-89.0153"/>
</g>
<!-- Node8 -->
<g id="node9" class="node">
<title>Node8</title>
<polygon fill="#ffffff" stroke="#bfbfbf" points="385,-62 385,-81 443,-81 443,-62 385,-62"/>
<text text-anchor="middle" x="414" y="-69" font-family="Helvetica,sans-Serif" font-size="10.00" fill="#000000">memory</text>
</g>
<!-- Node7&#45;&gt;Node8 -->
<g id="edge9" class="edge">
<title>Node7&#45;&gt;Node8</title>
<path fill="none" stroke="#191970" d="M414,-123.2967C414,-113.7699 414,-101.3954 414,-91.1306"/>
<polygon fill="#191970" stroke="#191970" points="417.5001,-91.0549 414,-81.055 410.5001,-91.055 417.5001,-91.0549"/>
</g>
<!-- Node9 -->
<g id="node10" class="node">
<title>Node9</title>
<polygon fill="#ffffff" stroke="#bfbfbf" points="461.5,-62 461.5,-81 538.5,-81 538.5,-62 461.5,-62"/>
<text text-anchor="middle" x="500" y="-69" font-family="Helvetica,sans-Serif" font-size="10.00" fill="#000000">Eigen/Dense</text>
</g>
<!-- Node7&#45;&gt;Node9 -->
<g id="edge10" class="edge">
<title>Node7&#45;&gt;Node9</title>
<path fill="none" stroke="#191970" d="M433.5147,-123.2967C447.3042,-112.5537 465.7418,-98.1895 479.7028,-87.3129"/>
<polygon fill="#191970" stroke="#191970" points="481.9978,-89.9618 487.7354,-81.055 477.6958,-84.4398 481.9978,-89.9618"/>
</g>
<!-- Node10 -->
<g id="node11" class="node">
<title>Node10</title>
<g id="a_node11"><a xlink:href="constants_8h.html" target="_top" xlink:title="drake/common/constants.h">
<polygon fill="#ffffff" stroke="#000000" points="556.5,-62 556.5,-81 705.5,-81 705.5,-62 556.5,-62"/>
<text text-anchor="middle" x="631" y="-69" font-family="Helvetica,sans-Serif" font-size="10.00" fill="#000000">drake/common/constants.h</text>
</a>
</g>
</g>
<!-- Node7&#45;&gt;Node10 -->
<g id="edge11" class="edge">
<title>Node7&#45;&gt;Node10</title>
<path fill="none" stroke="#191970" d="M462.699,-123.4639C501.1912,-111.5792 554.2864,-95.1858 590.4801,-84.0108"/>
<polygon fill="#191970" stroke="#191970" points="591.6919,-87.2997 600.2142,-81.0053 589.6267,-80.6113 591.6919,-87.2997"/>
</g>
</g>
</svg>
