<?xml version="1.0" encoding="UTF-8" standalone="no"?>
<!DOCTYPE svg PUBLIC "-//W3C//DTD SVG 1.1//EN"
 "http://www.w3.org/Graphics/SVG/1.1/DTD/svg11.dtd">
<!-- Generated by graphviz version 2.40.1 (20161225.0304)
 -->
<!-- Title: drake/examples/double_pendulum/frame_cache.h Pages: 1 -->
<svg width="469pt" height="117pt"
 viewBox="0.00 0.00 468.50 117.00" xmlns="http://www.w3.org/2000/svg" xmlns:xlink="http://www.w3.org/1999/xlink">
<g id="graph0" class="graph" transform="scale(1 1) rotate(0) translate(4 113)">
<title>drake/examples/double_pendulum/frame_cache.h</title>
<polygon fill="#ffffff" stroke="transparent" points="-4,4 -4,-113 464.5,-113 464.5,4 -4,4"/>
<!-- Node11 -->
<g id="node1" class="node">
<title>Node11</title>
<polygon fill="#bfbfbf" stroke="#000000" points="167,-78.5 167,-108.5 313,-108.5 313,-78.5 167,-78.5"/>
<text text-anchor="start" x="175" y="-96.5" font-family="Helvetica,sans-Serif" font-size="10.00" fill="#000000">drake/examples/double</text>
<text text-anchor="middle" x="240" y="-85.5" font-family="Helvetica,sans-Serif" font-size="10.00" fill="#000000">_pendulum/frame_cache.h</text>
</g>
<!-- Node12 -->
<g id="node2" class="node">
<title>Node12</title>
<g id="a_node2"><a xlink:href="frame__cache_8cc.html" target="_top" xlink:title="drake/examples/double\l_pendulum/frame_cache.cc">
<polygon fill="#ffffff" stroke="#000000" points="0,-6 0,-36 150,-36 150,-6 0,-6"/>
<text text-anchor="start" x="8" y="-24" font-family="Helvetica,sans-Serif" font-size="10.00" fill="#000000">drake/examples/double</text>
<text text-anchor="middle" x="75" y="-13" font-family="Helvetica,sans-Serif" font-size="10.00" fill="#000000">_pendulum/frame_cache.cc</text>
</a>
</g>
</g>
<!-- Node11&#45;&gt;Node12 -->
<g id="edge1" class="edge">
<title>Node11&#45;&gt;Node12</title>
<path fill="none" stroke="#191970" d="M196.4881,-74.3811C169.1777,-62.3811 134.4649,-47.1285 109.1443,-36.0028"/>
<polygon fill="#191970" stroke="#191970" points="195.2487,-77.6595 205.8119,-78.478 198.0647,-71.2508 195.2487,-77.6595"/>
</g>
<!-- Node13 -->
<g id="node3" class="node">
<title>Node13</title>
<g id="a_node3"><a xlink:href="sdf__helpers_8cc.html" target="_top" xlink:title="drake/examples/double\l_pendulum/sdf_helpers.cc">
<polygon fill="#ffffff" stroke="#000000" points="168.5,-6 168.5,-36 311.5,-36 311.5,-6 168.5,-6"/>
<text text-anchor="start" x="176.5" y="-24" font-family="Helvetica,sans-Serif" font-size="10.00" fill="#000000">drake/examples/double</text>
<text text-anchor="middle" x="240" y="-13" font-family="Helvetica,sans-Serif" font-size="10.00" fill="#000000">_pendulum/sdf_helpers.cc</text>
</a>
</g>
</g>
<!-- Node11&#45;&gt;Node13 -->
<g id="edge2" class="edge">
<title>Node11&#45;&gt;Node13</title>
<path fill="none" stroke="#191970" d="M240,-68.3409C240,-57.5601 240,-45.3309 240,-36.0028"/>
<polygon fill="#191970" stroke="#191970" points="236.5001,-68.4779 240,-78.478 243.5001,-68.478 236.5001,-68.4779"/>
</g>
<!-- Node14 -->
<g id="node4" class="node">
<title>Node14</title>
<g id="a_node4"><a xlink:href="frame__cache__test_8cc.html" target="_top" xlink:title="drake/examples/double\l_pendulum/test/frame\l_cache_test.cc">
<polygon fill="#ffffff" stroke="#000000" points="329.5,-.5 329.5,-41.5 460.5,-41.5 460.5,-.5 329.5,-.5"/>
<text text-anchor="start" x="337.5" y="-29.5" font-family="Helvetica,sans-Serif" font-size="10.00" fill="#000000">drake/examples/double</text>
<text text-anchor="start" x="337.5" y="-18.5" font-family="Helvetica,sans-Serif" font-size="10.00" fill="#000000">_pendulum/test/frame</text>
<text text-anchor="middle" x="395" y="-7.5" font-family="Helvetica,sans-Serif" font-size="10.00" fill="#000000">_cache_test.cc</text>
</a>
</g>
</g>
<!-- Node11&#45;&gt;Node14 -->
<g id="edge3" class="edge">
<title>Node11&#45;&gt;Node14</title>
<path fill="none" stroke="#191970" d="M281.3394,-74.1638C302.8945,-64.0816 329.26,-51.7494 351.1692,-41.5015"/>
<polygon fill="#191970" stroke="#191970" points="279.6913,-71.0707 272.1161,-78.478 282.6571,-77.4114 279.6913,-71.0707"/>
</g>
</g>
</svg>
