<?xml version="1.0" encoding="UTF-8" standalone="no"?>
<!DOCTYPE svg PUBLIC "-//W3C//DTD SVG 1.1//EN"
 "http://www.w3.org/Graphics/SVG/1.1/DTD/svg11.dtd">
<!-- Generated by graphviz version 2.40.1 (20161225.0304)
 -->
<!-- Title: drake/multibody/multibody_tree/frame_base.h Pages: 1 -->
<svg width="1013pt" height="508pt"
 viewBox="0.00 0.00 1013.00 508.00" xmlns="http://www.w3.org/2000/svg" xmlns:xlink="http://www.w3.org/1999/xlink">
<g id="graph0" class="graph" transform="scale(1 1) rotate(0) translate(4 504)">
<title>drake/multibody/multibody_tree/frame_base.h</title>
<polygon fill="#ffffff" stroke="transparent" points="-4,4 -4,-504 1009,-504 1009,4 -4,4"/>
<!-- Node0 -->
<g id="node1" class="node">
<title>Node0</title>
<polygon fill="#bfbfbf" stroke="#000000" points="856,-469.5 856,-499.5 1005,-499.5 1005,-469.5 856,-469.5"/>
<text text-anchor="start" x="864" y="-487.5" font-family="Helvetica,sans-Serif" font-size="10.00" fill="#000000">drake/multibody/multibody</text>
<text text-anchor="middle" x="930.5" y="-476.5" font-family="Helvetica,sans-Serif" font-size="10.00" fill="#000000">_tree/frame_base.h</text>
</g>
<!-- Node1 -->
<g id="node2" class="node">
<title>Node1</title>
<g id="a_node2"><a xlink:href="multibody__tree__element_8h.html" target="_top" xlink:title="drake/multibody/multibody\l_tree/multibody_tree_element.h">
<polygon fill="#ffffff" stroke="#000000" points="768,-402.5 768,-432.5 941,-432.5 941,-402.5 768,-402.5"/>
<text text-anchor="start" x="776" y="-420.5" font-family="Helvetica,sans-Serif" font-size="10.00" fill="#000000">drake/multibody/multibody</text>
<text text-anchor="middle" x="854.5" y="-409.5" font-family="Helvetica,sans-Serif" font-size="10.00" fill="#000000">_tree/multibody_tree_element.h</text>
</a>
</g>
</g>
<!-- Node0&#45;&gt;Node1 -->
<g id="edge1" class="edge">
<title>Node0&#45;&gt;Node1</title>
<path fill="none" stroke="#191970" d="M913.2544,-469.2967C903.2458,-460.4733 890.4664,-449.2072 879.3836,-439.4368"/>
<polygon fill="#191970" stroke="#191970" points="881.4932,-436.6307 871.6773,-432.6432 876.8641,-441.8816 881.4932,-436.6307"/>
</g>
<!-- Node5 -->
<g id="node6" class="node">
<title>Node5</title>
<g id="a_node6"><a xlink:href="multibody__tree__indexes_8h.html" target="_top" xlink:title="drake/multibody/multibody\l_tree/multibody_tree_indexes.h">
<polygon fill="#ffffff" stroke="#000000" points="769,-268.5 769,-298.5 940,-298.5 940,-268.5 769,-268.5"/>
<text text-anchor="start" x="777" y="-286.5" font-family="Helvetica,sans-Serif" font-size="10.00" fill="#000000">drake/multibody/multibody</text>
<text text-anchor="middle" x="854.5" y="-275.5" font-family="Helvetica,sans-Serif" font-size="10.00" fill="#000000">_tree/multibody_tree_indexes.h</text>
</a>
</g>
</g>
<!-- Node0&#45;&gt;Node5 -->
<g id="edge36" class="edge">
<title>Node0&#45;&gt;Node5</title>
<path fill="none" stroke="#191970" d="M939.3628,-469.3266C947.9642,-452.5681 958.6197,-424.9217 950.5,-402 936.6795,-362.9848 903.9396,-327.4305 880.5405,-305.6592"/>
<polygon fill="#191970" stroke="#191970" points="882.7612,-302.9481 873.0041,-298.8191 878.0568,-308.1316 882.7612,-302.9481"/>
</g>
<!-- Node2 -->
<g id="node3" class="node">
<title>Node2</title>
<g id="a_node3"><a xlink:href="drake__assert_8h.html" target="_top" xlink:title="Provides Drake&#39;s assertion implementation. ">
<polygon fill="#ffffff" stroke="#000000" points="819,-67.5 819,-97.5 940,-97.5 940,-67.5 819,-67.5"/>
<text text-anchor="start" x="827" y="-85.5" font-family="Helvetica,sans-Serif" font-size="10.00" fill="#000000">drake/common/drake</text>
<text text-anchor="middle" x="879.5" y="-74.5" font-family="Helvetica,sans-Serif" font-size="10.00" fill="#000000">_assert.h</text>
</a>
</g>
</g>
<!-- Node1&#45;&gt;Node2 -->
<g id="edge2" class="edge">
<title>Node1&#45;&gt;Node2</title>
<path fill="none" stroke="#191970" d="M880.6539,-402.3547C914.3106,-380.6793 968.5,-337.4097 968.5,-283.5 968.5,-283.5 968.5,-283.5 968.5,-216.5 968.5,-170.943 932.3631,-129.0361 906.1426,-104.6252"/>
<polygon fill="#191970" stroke="#191970" points="908.1468,-101.7198 898.3746,-97.6264 903.4612,-106.9204 908.1468,-101.7198"/>
</g>
<!-- Node4 -->
<g id="node5" class="node">
<title>Node4</title>
<g id="a_node5"><a xlink:href="drake__copyable_8h.html" target="_top" xlink:title="Provides careful macros to selectively enable or disable the special member functions for copy&#45;constr...">
<polygon fill="#ffffff" stroke="#000000" points="0,-.5 0,-30.5 121,-30.5 121,-.5 0,-.5"/>
<text text-anchor="start" x="8" y="-18.5" font-family="Helvetica,sans-Serif" font-size="10.00" fill="#000000">drake/common/drake</text>
<text text-anchor="middle" x="60.5" y="-7.5" font-family="Helvetica,sans-Serif" font-size="10.00" fill="#000000">_copyable.h</text>
</a>
</g>
</g>
<!-- Node1&#45;&gt;Node4 -->
<g id="edge4" class="edge">
<title>Node1&#45;&gt;Node4</title>
<path fill="none" stroke="#191970" d="M767.8996,-413.1927C622.6388,-405.4782 336.1101,-388.0309 237.5,-366 137.6135,-343.684 22.5,-385.849 22.5,-283.5 22.5,-283.5 22.5,-283.5 22.5,-149.5 22.5,-110.0468 37.9352,-66.4537 49.1309,-40.0231"/>
<polygon fill="#191970" stroke="#191970" points="52.3738,-41.3427 53.1732,-30.778 45.9601,-38.5383 52.3738,-41.3427"/>
</g>
<!-- Node1&#45;&gt;Node5 -->
<g id="edge5" class="edge">
<title>Node1&#45;&gt;Node5</title>
<path fill="none" stroke="#191970" d="M854.5,-402.389C854.5,-379.6691 854.5,-336.438 854.5,-308.8405"/>
<polygon fill="#191970" stroke="#191970" points="858.0001,-308.7614 854.5,-298.7614 851.0001,-308.7614 858.0001,-308.7614"/>
</g>
<!-- Node18 -->
<g id="node19" class="node">
<title>Node18</title>
<g id="a_node19"><a xlink:href="multibody__tree__topology_8h.html" target="_top" xlink:title="This file defines the topological structures which represent the logical connectivities between multi...">
<polygon fill="#ffffff" stroke="#000000" points="246.5,-335.5 246.5,-365.5 422.5,-365.5 422.5,-335.5 246.5,-335.5"/>
<text text-anchor="start" x="254.5" y="-353.5" font-family="Helvetica,sans-Serif" font-size="10.00" fill="#000000">drake/multibody/multibody</text>
<text text-anchor="middle" x="334.5" y="-342.5" font-family="Helvetica,sans-Serif" font-size="10.00" fill="#000000">_tree/multibody_tree_topology.h</text>
</a>
</g>
</g>
<!-- Node1&#45;&gt;Node18 -->
<g id="edge25" class="edge">
<title>Node1&#45;&gt;Node18</title>
<path fill="none" stroke="#191970" d="M767.7565,-406.3234C675.3795,-394.421 529.4513,-375.6187 432.8593,-363.1732"/>
<polygon fill="#191970" stroke="#191970" points="433.1596,-359.6831 422.7943,-361.8764 432.265,-366.6257 433.1596,-359.6831"/>
</g>
<!-- Node3 -->
<g id="node4" class="node">
<title>Node3</title>
<polygon fill="#ffffff" stroke="#bfbfbf" points="756,-6 756,-25 825,-25 825,-6 756,-6"/>
<text text-anchor="middle" x="790.5" y="-13" font-family="Helvetica,sans-Serif" font-size="10.00" fill="#000000">type_traits</text>
</g>
<!-- Node2&#45;&gt;Node3 -->
<g id="edge3" class="edge">
<title>Node2&#45;&gt;Node3</title>
<path fill="none" stroke="#191970" d="M859.3045,-67.2967C845.034,-56.5537 825.9532,-42.1895 811.5052,-31.3129"/>
<polygon fill="#191970" stroke="#191970" points="813.2867,-28.2731 803.1924,-25.055 809.0766,-33.8656 813.2867,-28.2731"/>
</g>
<!-- Node6 -->
<g id="node7" class="node">
<title>Node6</title>
<g id="a_node7"><a xlink:href="type__safe__index_8h.html" target="_top" xlink:title="drake/common/type_safe\l_index.h">
<polygon fill="#ffffff" stroke="#000000" points="769,-201.5 769,-231.5 910,-231.5 910,-201.5 769,-201.5"/>
<text text-anchor="start" x="777" y="-219.5" font-family="Helvetica,sans-Serif" font-size="10.00" fill="#000000">drake/common/type_safe</text>
<text text-anchor="middle" x="839.5" y="-208.5" font-family="Helvetica,sans-Serif" font-size="10.00" fill="#000000">_index.h</text>
</a>
</g>
</g>
<!-- Node5&#45;&gt;Node6 -->
<g id="edge6" class="edge">
<title>Node5&#45;&gt;Node6</title>
<path fill="none" stroke="#191970" d="M851.0963,-268.2967C849.3319,-260.4156 847.1311,-250.5857 845.1224,-241.6135"/>
<polygon fill="#191970" stroke="#191970" points="848.4905,-240.6369 842.8903,-231.6432 841.6596,-242.1663 848.4905,-240.6369"/>
</g>
<!-- Node6&#45;&gt;Node2 -->
<g id="edge10" class="edge">
<title>Node6&#45;&gt;Node2</title>
<path fill="none" stroke="#191970" d="M873.2333,-201.3642C887.8002,-192.9147 903.3477,-180.8543 911.5,-165 921.4307,-145.6871 910.6372,-122.5479 898.9787,-105.6966"/>
<polygon fill="#191970" stroke="#191970" points="901.6765,-103.4587 892.9084,-97.5113 896.0539,-107.6284 901.6765,-103.4587"/>
</g>
<!-- Node7 -->
<g id="node8" class="node">
<title>Node7</title>
<polygon fill="#ffffff" stroke="#bfbfbf" points="775,-140 775,-159 840,-159 840,-140 775,-140"/>
<text text-anchor="middle" x="807.5" y="-147" font-family="Helvetica,sans-Serif" font-size="10.00" fill="#000000">functional</text>
</g>
<!-- Node6&#45;&gt;Node7 -->
<g id="edge7" class="edge">
<title>Node6&#45;&gt;Node7</title>
<path fill="none" stroke="#191970" d="M832.2387,-201.2967C827.5434,-191.4658 821.3998,-178.6026 816.4096,-168.1545"/>
<polygon fill="#191970" stroke="#191970" points="819.5317,-166.5702 812.0636,-159.055 813.2151,-169.587 819.5317,-166.5702"/>
</g>
<!-- Node8 -->
<g id="node9" class="node">
<title>Node8</title>
<polygon fill="#ffffff" stroke="#bfbfbf" points="858.5,-140 858.5,-159 902.5,-159 902.5,-140 858.5,-140"/>
<text text-anchor="middle" x="880.5" y="-147" font-family="Helvetica,sans-Serif" font-size="10.00" fill="#000000">limits</text>
</g>
<!-- Node6&#45;&gt;Node8 -->
<g id="edge8" class="edge">
<title>Node6&#45;&gt;Node8</title>
<path fill="none" stroke="#191970" d="M848.8035,-201.2967C854.8814,-191.3645 862.8534,-178.3371 869.2819,-167.8321"/>
<polygon fill="#191970" stroke="#191970" points="872.4186,-169.4115 874.6529,-159.055 866.4478,-165.7578 872.4186,-169.4115"/>
</g>
<!-- Node9 -->
<g id="node10" class="node">
<title>Node9</title>
<polygon fill="#ffffff" stroke="#bfbfbf" points="388.5,-73 388.5,-92 432.5,-92 432.5,-73 388.5,-73"/>
<text text-anchor="middle" x="410.5" y="-80" font-family="Helvetica,sans-Serif" font-size="10.00" fill="#000000">string</text>
</g>
<!-- Node6&#45;&gt;Node9 -->
<g id="edge9" class="edge">
<title>Node6&#45;&gt;Node9</title>
<path fill="none" stroke="#191970" d="M768.9598,-212.0082C658.3712,-204.3244 454.187,-187.3026 429.5,-165 412.1679,-149.342 409.0326,-121.332 409.1472,-102.3395"/>
<polygon fill="#191970" stroke="#191970" points="412.6532,-102.2375 409.5239,-92.1154 405.658,-101.9797 412.6532,-102.2375"/>
</g>
<!-- Node10 -->
<g id="node11" class="node">
<title>Node10</title>
<g id="a_node11"><a xlink:href="drake__throw_8h.html" target="_top" xlink:title="Provides a convenient wrapper to throw an exception when a condition is unmet. ">
<polygon fill="#ffffff" stroke="#000000" points="597,-134.5 597,-164.5 718,-164.5 718,-134.5 597,-134.5"/>
<text text-anchor="start" x="605" y="-152.5" font-family="Helvetica,sans-Serif" font-size="10.00" fill="#000000">drake/common/drake</text>
<text text-anchor="middle" x="657.5" y="-141.5" font-family="Helvetica,sans-Serif" font-size="10.00" fill="#000000">_throw.h</text>
</a>
</g>
</g>
<!-- Node6&#45;&gt;Node10 -->
<g id="edge11" class="edge">
<title>Node6&#45;&gt;Node10</title>
<path fill="none" stroke="#191970" d="M798.6556,-201.4639C771.8201,-191.5849 736.5218,-178.5905 707.9371,-168.0675"/>
<polygon fill="#191970" stroke="#191970" points="709.116,-164.7719 698.5225,-164.6017 706.6977,-171.3409 709.116,-164.7719"/>
</g>
<!-- Node11 -->
<g id="node12" class="node">
<title>Node11</title>
<g id="a_node12"><a xlink:href="nice__type__name_8h.html" target="_top" xlink:title="drake/common/nice_type\l_name.h">
<polygon fill="#ffffff" stroke="#000000" points="438.5,-134.5 438.5,-164.5 578.5,-164.5 578.5,-134.5 438.5,-134.5"/>
<text text-anchor="start" x="446.5" y="-152.5" font-family="Helvetica,sans-Serif" font-size="10.00" fill="#000000">drake/common/nice_type</text>
<text text-anchor="middle" x="508.5" y="-141.5" font-family="Helvetica,sans-Serif" font-size="10.00" fill="#000000">_name.h</text>
</a>
</g>
</g>
<!-- Node6&#45;&gt;Node11 -->
<g id="edge14" class="edge">
<title>Node6&#45;&gt;Node11</title>
<path fill="none" stroke="#191970" d="M768.8982,-202.209C716.0804,-191.5178 643.7859,-176.8842 588.7715,-165.7483"/>
<polygon fill="#191970" stroke="#191970" points="589.2045,-162.265 578.7088,-163.7115 587.8157,-169.1259 589.2045,-162.265"/>
</g>
<!-- Node10&#45;&gt;Node2 -->
<g id="edge13" class="edge">
<title>Node10&#45;&gt;Node2</title>
<path fill="none" stroke="#191970" d="M707.3211,-134.4639C740.6239,-124.4131 784.6115,-111.1375 819.7894,-100.5208"/>
<polygon fill="#191970" stroke="#191970" points="820.8993,-103.8418 829.4616,-97.6017 818.8768,-97.1403 820.8993,-103.8418"/>
</g>
<!-- Node10&#45;&gt;Node3 -->
<g id="edge12" class="edge">
<title>Node10&#45;&gt;Node3</title>
<path fill="none" stroke="#191970" d="M716.6829,-134.4991C736.7165,-126.6768 757.5296,-115.0509 771.5,-98 786.0796,-80.2056 789.9337,-53.3316 790.7274,-35.1318"/>
<polygon fill="#191970" stroke="#191970" points="794.2277,-35.1364 790.8947,-25.0795 787.2287,-35.0199 794.2277,-35.1364"/>
</g>
<!-- Node11&#45;&gt;Node9 -->
<g id="edge16" class="edge">
<title>Node11&#45;&gt;Node9</title>
<path fill="none" stroke="#191970" d="M486.2623,-134.2967C470.2522,-123.351 448.7437,-108.6462 432.7344,-97.701"/>
<polygon fill="#191970" stroke="#191970" points="434.7064,-94.8095 424.4759,-92.055 430.7557,-100.5881 434.7064,-94.8095"/>
</g>
<!-- Node12 -->
<g id="node13" class="node">
<title>Node12</title>
<polygon fill="#ffffff" stroke="#bfbfbf" points="628.5,-73 628.5,-92 686.5,-92 686.5,-73 628.5,-73"/>
<text text-anchor="middle" x="657.5" y="-80" font-family="Helvetica,sans-Serif" font-size="10.00" fill="#000000">memory</text>
</g>
<!-- Node11&#45;&gt;Node12 -->
<g id="edge15" class="edge">
<title>Node11&#45;&gt;Node12</title>
<path fill="none" stroke="#191970" d="M541.9385,-134.4639C567.3893,-123.0196 602.1377,-107.3945 626.8683,-96.274"/>
<polygon fill="#191970" stroke="#191970" points="628.4571,-99.3972 636.142,-92.1039 625.5863,-93.013 628.4571,-99.3972"/>
</g>
<!-- Node13 -->
<g id="node14" class="node">
<title>Node13</title>
<polygon fill="#ffffff" stroke="#bfbfbf" points="705,-73 705,-92 762,-92 762,-73 705,-73"/>
<text text-anchor="middle" x="733.5" y="-80" font-family="Helvetica,sans-Serif" font-size="10.00" fill="#000000">typeinfo</text>
</g>
<!-- Node11&#45;&gt;Node13 -->
<g id="edge17" class="edge">
<title>Node11&#45;&gt;Node13</title>
<path fill="none" stroke="#191970" d="M570.1159,-134.4938C606.8489,-125.0628 654.2173,-112.0489 695.5,-98 697.4223,-97.3458 699.3876,-96.6452 701.3625,-95.9165"/>
<polygon fill="#191970" stroke="#191970" points="703.0983,-98.9979 711.1618,-92.1255 700.5726,-92.4694 703.0983,-98.9979"/>
</g>
<!-- Node14 -->
<g id="node15" class="node">
<title>Node14</title>
<polygon fill="#ffffff" stroke="#bfbfbf" points="438,-6 438,-25 483,-25 483,-6 438,-6"/>
<text text-anchor="middle" x="460.5" y="-13" font-family="Helvetica,sans-Serif" font-size="10.00" fill="#000000">utility</text>
</g>
<!-- Node11&#45;&gt;Node14 -->
<g id="edge18" class="edge">
<title>Node11&#45;&gt;Node14</title>
<path fill="none" stroke="#191970" d="M498.8255,-134.2289C492.8466,-124.2385 485.4048,-110.7246 480.5,-98 472.4993,-77.2438 466.9804,-52.284 463.7981,-35.2929"/>
<polygon fill="#191970" stroke="#191970" points="467.2364,-34.6363 462.0417,-25.4023 460.3442,-35.8603 467.2364,-34.6363"/>
</g>
<!-- Node15 -->
<g id="node16" class="node">
<title>Node15</title>
<polygon fill="#ffffff" stroke="#bfbfbf" points="323,-73 323,-92 370,-92 370,-73 323,-73"/>
<text text-anchor="middle" x="346.5" y="-80" font-family="Helvetica,sans-Serif" font-size="10.00" fill="#000000">vector</text>
</g>
<!-- Node11&#45;&gt;Node15 -->
<g id="edge19" class="edge">
<title>Node11&#45;&gt;Node15</title>
<path fill="none" stroke="#191970" d="M469.0147,-134.4358C443.3505,-124.473 409.2528,-110.9129 379.5,-98 378.1573,-97.4172 376.7879,-96.8133 375.4075,-96.1967"/>
<polygon fill="#191970" stroke="#191970" points="376.8567,-93.0109 366.3068,-92.0357 373.946,-99.377 376.8567,-93.0109"/>
</g>
<!-- Node16 -->
<g id="node17" class="node">
<title>Node16</title>
<g id="a_node17"><a xlink:href="never__destroyed_8h.html" target="_top" xlink:title="drake/common/never\l_destroyed.h">
<polygon fill="#ffffff" stroke="#000000" points="489,-67.5 489,-97.5 610,-97.5 610,-67.5 489,-67.5"/>
<text text-anchor="start" x="497" y="-85.5" font-family="Helvetica,sans-Serif" font-size="10.00" fill="#000000">drake/common/never</text>
<text text-anchor="middle" x="549.5" y="-74.5" font-family="Helvetica,sans-Serif" font-size="10.00" fill="#000000">_destroyed.h</text>
</a>
</g>
</g>
<!-- Node11&#45;&gt;Node16 -->
<g id="edge20" class="edge">
<title>Node11&#45;&gt;Node16</title>
<path fill="none" stroke="#191970" d="M517.8035,-134.2967C522.836,-126.0729 529.1669,-115.7272 534.845,-106.4483"/>
<polygon fill="#191970" stroke="#191970" points="537.999,-107.9997 540.2333,-97.6432 532.0282,-104.346 537.999,-107.9997"/>
</g>
<!-- Node16&#45;&gt;Node3 -->
<g id="edge22" class="edge">
<title>Node16&#45;&gt;Node3</title>
<path fill="none" stroke="#191970" d="M603.5851,-67.4639C646.6998,-55.4776 706.3111,-38.9052 746.5252,-27.7254"/>
<polygon fill="#191970" stroke="#191970" points="747.6122,-31.056 756.3093,-25.0053 745.7372,-24.3117 747.6122,-31.056"/>
</g>
<!-- Node16&#45;&gt;Node4 -->
<g id="edge24" class="edge">
<title>Node16&#45;&gt;Node4</title>
<path fill="none" stroke="#191970" d="M488.9647,-73.723C473.4933,-71.5043 456.8839,-69.1436 441.5,-67 333.3116,-51.9248 207.7454,-35.0776 131.2321,-24.8847"/>
<polygon fill="#191970" stroke="#191970" points="131.6033,-21.4033 121.2288,-23.5528 130.6794,-28.3421 131.6033,-21.4033"/>
</g>
<!-- Node16&#45;&gt;Node14 -->
<g id="edge23" class="edge">
<title>Node16&#45;&gt;Node14</title>
<path fill="none" stroke="#191970" d="M529.3045,-67.2967C515.034,-56.5537 495.9532,-42.1895 481.5052,-31.3129"/>
<polygon fill="#191970" stroke="#191970" points="483.2867,-28.2731 473.1924,-25.055 479.0766,-33.8656 483.2867,-28.2731"/>
</g>
<!-- Node17 -->
<g id="node18" class="node">
<title>Node17</title>
<polygon fill="#ffffff" stroke="#bfbfbf" points="531,-6 531,-25 568,-25 568,-6 531,-6"/>
<text text-anchor="middle" x="549.5" y="-13" font-family="Helvetica,sans-Serif" font-size="10.00" fill="#000000">new</text>
</g>
<!-- Node16&#45;&gt;Node17 -->
<g id="edge21" class="edge">
<title>Node16&#45;&gt;Node17</title>
<path fill="none" stroke="#191970" d="M549.5,-67.2967C549.5,-57.7699 549.5,-45.3954 549.5,-35.1306"/>
<polygon fill="#191970" stroke="#191970" points="553.0001,-35.0549 549.5,-25.055 546.0001,-35.055 553.0001,-35.0549"/>
</g>
<!-- Node18&#45;&gt;Node2 -->
<g id="edge32" class="edge">
<title>Node18&#45;&gt;Node2</title>
<path fill="none" stroke="#191970" d="M371.2664,-335.4727C395.3685,-325.4694 427.4855,-311.8505 455.5,-299 577.9907,-242.8126 613.6577,-237.1173 727.5,-165 746.2048,-153.1508 747.6189,-145.5661 766.5,-134 786.7353,-121.6043 810.4593,-110.3475 830.9314,-101.5416"/>
<polygon fill="#191970" stroke="#191970" points="832.5367,-104.663 840.3865,-97.5475 829.8127,-98.2148 832.5367,-104.663"/>
</g>
<!-- Node18&#45;&gt;Node4 -->
<g id="edge33" class="edge">
<title>Node18&#45;&gt;Node4</title>
<path fill="none" stroke="#191970" d="M246.4749,-342.8451C182.4723,-335.4663 103.0865,-321.9563 79.5,-299 52.5363,-272.7567 60.5,-254.1265 60.5,-216.5 60.5,-216.5 60.5,-216.5 60.5,-149.5 60.5,-111.6735 60.5,-67.8406 60.5,-40.8908"/>
<polygon fill="#191970" stroke="#191970" points="64.0001,-40.7729 60.5,-30.7729 57.0001,-40.773 64.0001,-40.7729"/>
</g>
<!-- Node18&#45;&gt;Node5 -->
<g id="edge35" class="edge">
<title>Node18&#45;&gt;Node5</title>
<path fill="none" stroke="#191970" d="M422.6928,-340.511C507.7526,-330.682 640.0763,-314.879 754.5,-299 755.9683,-298.7962 757.4484,-298.5891 758.938,-298.379"/>
<polygon fill="#191970" stroke="#191970" points="759.4791,-301.8373 768.8814,-296.9539 758.4859,-294.9081 759.4791,-301.8373"/>
</g>
<!-- Node18&#45;&gt;Node9 -->
<g id="edge29" class="edge">
<title>Node18&#45;&gt;Node9</title>
<path fill="none" stroke="#191970" d="M339.7707,-335.2434C343.2412,-325.0297 347.8084,-311.2614 351.5,-299 373.2733,-226.6823 395.9045,-139.7375 405.6079,-101.7912"/>
<polygon fill="#191970" stroke="#191970" points="409.013,-102.602 408.0902,-92.0475 402.2297,-100.8738 409.013,-102.602"/>
</g>
<!-- Node18&#45;&gt;Node10 -->
<g id="edge34" class="edge">
<title>Node18&#45;&gt;Node10</title>
<path fill="none" stroke="#191970" d="M358.7775,-335.3923C416.0878,-299.7287 559.8302,-210.279 624.7598,-169.8739"/>
<polygon fill="#191970" stroke="#191970" points="626.7403,-172.7639 633.3814,-164.5088 623.0419,-166.8207 626.7403,-172.7639"/>
</g>
<!-- Node18&#45;&gt;Node14 -->
<g id="edge30" class="edge">
<title>Node18&#45;&gt;Node14</title>
<path fill="none" stroke="#191970" d="M327.343,-335.4972C306.8398,-290.1059 253.1128,-152.142 313.5,-67 326.9632,-48.0177 388.7728,-31.2804 427.8324,-22.3501"/>
<polygon fill="#191970" stroke="#191970" points="428.71,-25.7404 437.708,-20.147 427.1858,-18.9084 428.71,-25.7404"/>
</g>
<!-- Node18&#45;&gt;Node15 -->
<g id="edge31" class="edge">
<title>Node18&#45;&gt;Node15</title>
<path fill="none" stroke="#191970" d="M335.1796,-335.3233C337.2261,-289.6161 343.3308,-153.2783 345.62,-102.1539"/>
<polygon fill="#191970" stroke="#191970" points="349.1196,-102.2391 346.0705,-92.0926 342.1266,-101.926 349.1196,-102.2391"/>
</g>
<!-- Node19 -->
<g id="node20" class="node">
<title>Node19</title>
<polygon fill="#ffffff" stroke="#bfbfbf" points="88.5,-274 88.5,-293 152.5,-293 152.5,-274 88.5,-274"/>
<text text-anchor="middle" x="120.5" y="-281" font-family="Helvetica,sans-Serif" font-size="10.00" fill="#000000">algorithm</text>
</g>
<!-- Node18&#45;&gt;Node19 -->
<g id="edge26" class="edge">
<title>Node18&#45;&gt;Node19</title>
<path fill="none" stroke="#191970" d="M280.4157,-335.4853C246.1438,-325.7037 200.9916,-312.3236 161.5,-299 159.249,-298.2406 156.9373,-297.4358 154.6131,-296.6082"/>
<polygon fill="#191970" stroke="#191970" points="155.7063,-293.2813 145.1125,-293.1338 153.3021,-299.8555 155.7063,-293.2813"/>
</g>
<!-- Node20 -->
<g id="node21" class="node">
<title>Node20</title>
<polygon fill="#ffffff" stroke="#bfbfbf" points="171,-274 171,-293 218,-293 218,-274 171,-274"/>
<text text-anchor="middle" x="194.5" y="-281" font-family="Helvetica,sans-Serif" font-size="10.00" fill="#000000">queue</text>
</g>
<!-- Node18&#45;&gt;Node20 -->
<g id="edge27" class="edge">
<title>Node18&#45;&gt;Node20</title>
<path fill="none" stroke="#191970" d="M303.0813,-335.4639C279.2736,-324.0702 246.8071,-308.5327 223.5905,-297.4219"/>
<polygon fill="#191970" stroke="#191970" points="225.0991,-294.2637 214.5679,-293.1039 222.0772,-300.5779 225.0991,-294.2637"/>
</g>
<!-- Node21 -->
<g id="node22" class="node">
<title>Node21</title>
<polygon fill="#ffffff" stroke="#bfbfbf" points="236.5,-274 236.5,-293 268.5,-293 268.5,-274 236.5,-274"/>
<text text-anchor="middle" x="252.5" y="-281" font-family="Helvetica,sans-Serif" font-size="10.00" fill="#000000">set</text>
</g>
<!-- Node18&#45;&gt;Node21 -->
<g id="edge28" class="edge">
<title>Node18&#45;&gt;Node21</title>
<path fill="none" stroke="#191970" d="M315.8929,-335.2967C302.8689,-324.6551 285.4961,-310.4602 272.231,-299.6217"/>
<polygon fill="#191970" stroke="#191970" points="274.1525,-296.6719 264.1941,-293.055 269.7234,-302.0926 274.1525,-296.6719"/>
</g>
</g>
</svg>
