<?xml version="1.0" encoding="UTF-8" standalone="no"?>
<!DOCTYPE svg PUBLIC "-//W3C//DTD SVG 1.1//EN"
 "http://www.w3.org/Graphics/SVG/1.1/DTD/svg11.dtd">
<!-- Generated by graphviz version 2.40.1 (20161225.0304)
 -->
<!-- Title: drake/multibody/inverse_kinematics/gaze_target_constraint.h Pages: 1 -->
<svg width="513pt" height="128pt"
 viewBox="0.00 0.00 513.00 128.00" xmlns="http://www.w3.org/2000/svg" xmlns:xlink="http://www.w3.org/1999/xlink">
<g id="graph0" class="graph" transform="scale(1 1) rotate(0) translate(4 124)">
<title>drake/multibody/inverse_kinematics/gaze_target_constraint.h</title>
<polygon fill="#ffffff" stroke="transparent" points="-4,4 -4,-124 509,-124 509,4 -4,4"/>
<!-- Node164 -->
<g id="node1" class="node">
<title>Node164</title>
<polygon fill="#bfbfbf" stroke="#000000" points="181,-78.5 181,-119.5 318,-119.5 318,-78.5 181,-78.5"/>
<text text-anchor="start" x="189" y="-107.5" font-family="Helvetica,sans-Serif" font-size="10.00" fill="#000000">drake/multibody/inverse</text>
<text text-anchor="start" x="189" y="-96.5" font-family="Helvetica,sans-Serif" font-size="10.00" fill="#000000">_kinematics/gaze_target</text>
<text text-anchor="middle" x="249.5" y="-85.5" font-family="Helvetica,sans-Serif" font-size="10.00" fill="#000000">_constraint.h</text>
</g>
<!-- Node165 -->
<g id="node2" class="node">
<title>Node165</title>
<g id="a_node2"><a xlink:href="gaze__target__constraint_8cc.html" target="_top" xlink:title="drake/multibody/inverse\l_kinematics/gaze_target\l_constraint.cc">
<polygon fill="#ffffff" stroke="#000000" points="0,-.5 0,-41.5 137,-41.5 137,-.5 0,-.5"/>
<text text-anchor="start" x="8" y="-29.5" font-family="Helvetica,sans-Serif" font-size="10.00" fill="#000000">drake/multibody/inverse</text>
<text text-anchor="start" x="8" y="-18.5" font-family="Helvetica,sans-Serif" font-size="10.00" fill="#000000">_kinematics/gaze_target</text>
<text text-anchor="middle" x="68.5" y="-7.5" font-family="Helvetica,sans-Serif" font-size="10.00" fill="#000000">_constraint.cc</text>
</a>
</g>
</g>
<!-- Node164&#45;&gt;Node165 -->
<g id="edge1" class="edge">
<title>Node164&#45;&gt;Node165</title>
<path fill="none" stroke="#191970" d="M192.2796,-74.3415C167.7677,-63.7784 139.4716,-51.5844 116.1259,-41.5239"/>
<polygon fill="#191970" stroke="#191970" points="190.9018,-77.5588 201.4705,-78.3022 193.6721,-71.1303 190.9018,-77.5588"/>
</g>
<!-- Node166 -->
<g id="node3" class="node">
<title>Node166</title>
<g id="a_node3"><a xlink:href="multibody_2inverse__kinematics_2inverse__kinematics_8cc.html" target="_top" xlink:title="drake/multibody/inverse\l_kinematics/inverse_kinematics.cc">
<polygon fill="#ffffff" stroke="#000000" points="155.5,-6 155.5,-36 343.5,-36 343.5,-6 155.5,-6"/>
<text text-anchor="start" x="163.5" y="-24" font-family="Helvetica,sans-Serif" font-size="10.00" fill="#000000">drake/multibody/inverse</text>
<text text-anchor="middle" x="249.5" y="-13" font-family="Helvetica,sans-Serif" font-size="10.00" fill="#000000">_kinematics/inverse_kinematics.cc</text>
</a>
</g>
</g>
<!-- Node164&#45;&gt;Node166 -->
<g id="edge2" class="edge">
<title>Node164&#45;&gt;Node166</title>
<path fill="none" stroke="#191970" d="M249.5,-68.0187C249.5,-57.1033 249.5,-45.3119 249.5,-36.2679"/>
<polygon fill="#191970" stroke="#191970" points="246.0001,-68.0974 249.5,-78.0974 253.0001,-68.0975 246.0001,-68.0974"/>
</g>
<!-- Node167 -->
<g id="node4" class="node">
<title>Node167</title>
<g id="a_node4"><a xlink:href="gaze__target__constraint__test_8cc.html" target="_top" xlink:title="drake/multibody/inverse\l_kinematics/test/gaze\l_target_constraint_test.cc">
<polygon fill="#ffffff" stroke="#000000" points="362,-.5 362,-41.5 505,-41.5 505,-.5 362,-.5"/>
<text text-anchor="start" x="370" y="-29.5" font-family="Helvetica,sans-Serif" font-size="10.00" fill="#000000">drake/multibody/inverse</text>
<text text-anchor="start" x="370" y="-18.5" font-family="Helvetica,sans-Serif" font-size="10.00" fill="#000000">_kinematics/test/gaze</text>
<text text-anchor="middle" x="433.5" y="-7.5" font-family="Helvetica,sans-Serif" font-size="10.00" fill="#000000">_target_constraint_test.cc</text>
</a>
</g>
</g>
<!-- Node164&#45;&gt;Node167 -->
<g id="edge3" class="edge">
<title>Node164&#45;&gt;Node167</title>
<path fill="none" stroke="#191970" d="M307.6688,-74.3415C332.587,-63.7784 361.3521,-51.5844 385.0847,-41.5239"/>
<polygon fill="#191970" stroke="#191970" points="306.1664,-71.1768 298.3255,-78.3022 308.8985,-77.6216 306.1664,-71.1768"/>
</g>
</g>
</svg>
