<?xml version="1.0" encoding="UTF-8" standalone="no"?>
<!DOCTYPE svg PUBLIC "-//W3C//DTD SVG 1.1//EN"
 "http://www.w3.org/Graphics/SVG/1.1/DTD/svg11.dtd">
<!-- Generated by graphviz version 2.40.1 (20161225.0304)
 -->
<!-- Title: drake/multibody/inverse_kinematics/gaze_target_constraint.h Pages: 1 -->
<!--zoomable 128 -->
<svg id="main" version="1.1" xmlns="http://www.w3.org/2000/svg" xmlns:xlink="http://www.w3.org/1999/xlink" xml:space="preserve" onload="init(evt)">
<style type="text/css"><![CDATA[
.edge:hover path { stroke: red; }
.edge:hover polygon { stroke: red; fill: red; }
]]></style>
<script type="text/javascript"><![CDATA[
var edges = document.getElementsByTagName('g');
if (edges && edges.length) {
  for (var i=0;i<edges.length;i++) {
    if (edges[i].id.substr(0,4)=='edge') {
      edges[i].setAttribute('class','edge');
    }
  }
}
]]></script>
        <defs>
                <circle id="rim" cx="0" cy="0" r="7"/>
                <circle id="rim2" cx="0" cy="0" r="3.5"/>
                <g id="zoomPlus">
                        <use xlink:href="#rim" fill="#404040">
                                <set attributeName="fill" to="#808080" begin="zoomplus.mouseover" end="zoomplus.mouseout"/>
                        </use>
                        <path d="M-4,0h8M0,-4v8" fill="none" stroke="white" stroke-width="1.5" pointer-events="none"/>
                </g>
                <g id="zoomMin">
                        <use xlink:href="#rim" fill="#404040">
                                <set attributeName="fill" to="#808080" begin="zoomminus.mouseover" end="zoomminus.mouseout"/>
                        </use>
                        <path d="M-4,0h8" fill="none" stroke="white" stroke-width="1.5" pointer-events="none"/>
                </g>
                <g id="dirArrow">
                        <path fill="none" stroke="white" stroke-width="1.5" d="M0,-3.0v7 M-2.5,-0.5L0,-3.0L2.5,-0.5"/>
                </g>
               <g id="resetDef">
                       <use xlink:href="#rim2" fill="#404040">
                               <set attributeName="fill" to="#808080" begin="reset.mouseover" end="reset.mouseout"/>
                       </use>
               </g>
        </defs>

<script type="text/javascript">
var viewWidth = 513;
var viewHeight = 128;
var sectionId = 'dynsection-1';
</script>
<script xlink:href="svgpan.js"/>
<svg id="graph" class="graph">
<g id="viewport">
<title>drake/multibody/inverse_kinematics/gaze_target_constraint.h</title>
<polygon fill="#ffffff" stroke="transparent" points="-4,4 -4,-124 509,-124 509,4 -4,4"/>
<!-- Node206 -->
<g id="node1" class="node">
<title>Node206</title>
<polygon fill="#bfbfbf" stroke="#000000" points="181,-78.5 181,-119.5 318,-119.5 318,-78.5 181,-78.5"/>
<text text-anchor="start" x="189" y="-107.5" font-family="Helvetica,sans-Serif" font-size="10.00" fill="#000000">drake/multibody/inverse</text>
<text text-anchor="start" x="189" y="-96.5" font-family="Helvetica,sans-Serif" font-size="10.00" fill="#000000">_kinematics/gaze_target</text>
<text text-anchor="middle" x="249.5" y="-85.5" font-family="Helvetica,sans-Serif" font-size="10.00" fill="#000000">_constraint.h</text>
</g>
<!-- Node207 -->
<g id="node2" class="node">
<title>Node207</title>
<g id="a_node2"><a xlink:href="gaze__target__constraint_8cc.html" target="_top" xlink:title="drake/multibody/inverse\l_kinematics/gaze_target\l_constraint.cc">
<polygon fill="#ffffff" stroke="#000000" points="0,-.5 0,-41.5 137,-41.5 137,-.5 0,-.5"/>
<text text-anchor="start" x="8" y="-29.5" font-family="Helvetica,sans-Serif" font-size="10.00" fill="#000000">drake/multibody/inverse</text>
<text text-anchor="start" x="8" y="-18.5" font-family="Helvetica,sans-Serif" font-size="10.00" fill="#000000">_kinematics/gaze_target</text>
<text text-anchor="middle" x="68.5" y="-7.5" font-family="Helvetica,sans-Serif" font-size="10.00" fill="#000000">_constraint.cc</text>
</a>
</g>
</g>
<!-- Node206&#45;&gt;Node207 -->
<g id="edge1" class="edge">
<title>Node206&#45;&gt;Node207</title>
<path fill="none" stroke="#191970" d="M192.2796,-74.3415C167.7677,-63.7784 139.4716,-51.5844 116.1259,-41.5239"/>
<polygon fill="#191970" stroke="#191970" points="190.9018,-77.5588 201.4705,-78.3022 193.6721,-71.1303 190.9018,-77.5588"/>
</g>
<!-- Node208 -->
<g id="node3" class="node">
<title>Node208</title>
<g id="a_node3"><a xlink:href="multibody_2inverse__kinematics_2inverse__kinematics_8cc.html" target="_top" xlink:title="drake/multibody/inverse\l_kinematics/inverse_kinematics.cc">
<polygon fill="#ffffff" stroke="#000000" points="155.5,-6 155.5,-36 343.5,-36 343.5,-6 155.5,-6"/>
<text text-anchor="start" x="163.5" y="-24" font-family="Helvetica,sans-Serif" font-size="10.00" fill="#000000">drake/multibody/inverse</text>
<text text-anchor="middle" x="249.5" y="-13" font-family="Helvetica,sans-Serif" font-size="10.00" fill="#000000">_kinematics/inverse_kinematics.cc</text>
</a>
</g>
</g>
<!-- Node206&#45;&gt;Node208 -->
<g id="edge2" class="edge">
<title>Node206&#45;&gt;Node208</title>
<path fill="none" stroke="#191970" d="M249.5,-68.0187C249.5,-57.1033 249.5,-45.3119 249.5,-36.2679"/>
<polygon fill="#191970" stroke="#191970" points="246.0001,-68.0974 249.5,-78.0974 253.0001,-68.0975 246.0001,-68.0974"/>
</g>
<!-- Node209 -->
<g id="node4" class="node">
<title>Node209</title>
<g id="a_node4"><a xlink:href="gaze__target__constraint__test_8cc.html" target="_top" xlink:title="drake/multibody/inverse\l_kinematics/test/gaze\l_target_constraint_test.cc">
<polygon fill="#ffffff" stroke="#000000" points="362,-.5 362,-41.5 505,-41.5 505,-.5 362,-.5"/>
<text text-anchor="start" x="370" y="-29.5" font-family="Helvetica,sans-Serif" font-size="10.00" fill="#000000">drake/multibody/inverse</text>
<text text-anchor="start" x="370" y="-18.5" font-family="Helvetica,sans-Serif" font-size="10.00" fill="#000000">_kinematics/test/gaze</text>
<text text-anchor="middle" x="433.5" y="-7.5" font-family="Helvetica,sans-Serif" font-size="10.00" fill="#000000">_target_constraint_test.cc</text>
</a>
</g>
</g>
<!-- Node206&#45;&gt;Node209 -->
<g id="edge3" class="edge">
<title>Node206&#45;&gt;Node209</title>
<path fill="none" stroke="#191970" d="M307.6688,-74.3415C332.587,-63.7784 361.3521,-51.5844 385.0847,-41.5239"/>
<polygon fill="#191970" stroke="#191970" points="306.1664,-71.1768 298.3255,-78.3022 308.8985,-77.6216 306.1664,-71.1768"/>
</g>
</g>
</svg>
        <g id="navigator" transform="translate(0 0)" fill="#404254">
                <rect fill="#f2f5e9" fill-opacity="0.5" stroke="#606060" stroke-width=".5" x="0" y="0" width="60" height="60"/>
                <use id="zoomplus" xlink:href="#zoomPlus" x="17" y="9" onmousedown="handleZoom(evt,'in')"/>
                <use id="zoomminus" xlink:href="#zoomMin" x="42" y="9" onmousedown="handleZoom(evt,'out')"/>
                <use id="reset" xlink:href="#resetDef" x="30" y="36" onmousedown="handleReset()"/>
                <g id="arrowUp" xlink:href="#dirArrow" transform="translate(30 24)" onmousedown="handlePan(0,-1)">
                  <use xlink:href="#rim" fill="#404040">
                        <set attributeName="fill" to="#808080" begin="arrowUp.mouseover" end="arrowUp.mouseout"/>
                  </use>
                  <path fill="none" stroke="white" stroke-width="1.5" d="M0,-3.0v7 M-2.5,-0.5L0,-3.0L2.5,-0.5"/>
                </g>
                <g id="arrowRight" xlink:href="#dirArrow" transform="rotate(90) translate(36 -43)" onmousedown="handlePan(1,0)">
                  <use xlink:href="#rim" fill="#404040">
                        <set attributeName="fill" to="#808080" begin="arrowRight.mouseover" end="arrowRight.mouseout"/>
                  </use>
                  <path fill="none" stroke="white" stroke-width="1.5" d="M0,-3.0v7 M-2.5,-0.5L0,-3.0L2.5,-0.5"/>
                </g>
                <g id="arrowDown" xlink:href="#dirArrow" transform="rotate(180) translate(-30 -48)" onmousedown="handlePan(0,1)">
                  <use xlink:href="#rim" fill="#404040">
                        <set attributeName="fill" to="#808080" begin="arrowDown.mouseover" end="arrowDown.mouseout"/>
                  </use>
                  <path fill="none" stroke="white" stroke-width="1.5" d="M0,-3.0v7 M-2.5,-0.5L0,-3.0L2.5,-0.5"/>
                </g>
                <g id="arrowLeft" xlink:href="#dirArrow" transform="rotate(270) translate(-36 17)" onmousedown="handlePan(-1,0)">
                  <use xlink:href="#rim" fill="#404040">
                        <set attributeName="fill" to="#808080" begin="arrowLeft.mouseover" end="arrowLeft.mouseout"/>
                  </use>
                  <path fill="none" stroke="white" stroke-width="1.5" d="M0,-3.0v7 M-2.5,-0.5L0,-3.0L2.5,-0.5"/>
                </g>
        </g>
        <svg viewBox="0 0 15 15" width="100%" height="30px" preserveAspectRatio="xMaxYMin meet">
         <g id="arrow_out" transform="scale(0.3 0.3)">
          <a xlink:href="gaze__target__constraint_8h__dep__incl_org.svg" target="_base">
           <rect id="button" ry="5" rx="5" y="6" x="6" height="38" width="38"
                fill="#f2f5e9" fill-opacity="0.5" stroke="#606060" stroke-width="1.0"/>
           <path id="arrow"
             d="M 11.500037,31.436501 C 11.940474,20.09759 22.043105,11.32322 32.158766,21.979434 L 37.068811,17.246167 C 37.068811,17.246167 37.088388,32 37.088388,32 L 22.160133,31.978069 C 22.160133,31.978069 26.997745,27.140456 26.997745,27.140456 C 18.528582,18.264221 13.291696,25.230495 11.500037,31.436501 z"
             style="fill:#404040;"/>
          </a>
         </g>
        </svg>
</svg>
