<?xml version="1.0" encoding="UTF-8" standalone="no"?>
<!DOCTYPE svg PUBLIC "-//W3C//DTD SVG 1.1//EN"
 "http://www.w3.org/Graphics/SVG/1.1/DTD/svg11.dtd">
<!-- Generated by graphviz version 2.40.1 (20161225.0304)
 -->
<!-- Title: drake/solvers/test/generic_trivial_constraints.h Pages: 1 -->
<svg width="278pt" height="117pt"
 viewBox="0.00 0.00 277.50 117.00" xmlns="http://www.w3.org/2000/svg" xmlns:xlink="http://www.w3.org/1999/xlink">
<g id="graph0" class="graph" transform="scale(1 1) rotate(0) translate(4 113)">
<title>drake/solvers/test/generic_trivial_constraints.h</title>
<polygon fill="#ffffff" stroke="transparent" points="-4,4 -4,-113 273.5,-113 273.5,4 -4,4"/>
<!-- Node72 -->
<g id="node1" class="node">
<title>Node72</title>
<polygon fill="#bfbfbf" stroke="#000000" points="51.5,-78.5 51.5,-108.5 209.5,-108.5 209.5,-78.5 51.5,-78.5"/>
<text text-anchor="start" x="59.5" y="-96.5" font-family="Helvetica,sans-Serif" font-size="10.00" fill="#000000">drake/solvers/test</text>
<text text-anchor="middle" x="130.5" y="-85.5" font-family="Helvetica,sans-Serif" font-size="10.00" fill="#000000">/generic_trivial_constraints.h</text>
</g>
<!-- Node73 -->
<g id="node2" class="node">
<title>Node73</title>
<g id="a_node2"><a xlink:href="dreal__solver__test_8cc.html" target="_top" xlink:title="drake/solvers/test\l/dreal_solver_test.cc">
<polygon fill="#ffffff" stroke="#000000" points="0,-6 0,-36 117,-36 117,-6 0,-6"/>
<text text-anchor="start" x="8" y="-24" font-family="Helvetica,sans-Serif" font-size="10.00" fill="#000000">drake/solvers/test</text>
<text text-anchor="middle" x="58.5" y="-13" font-family="Helvetica,sans-Serif" font-size="10.00" fill="#000000">/dreal_solver_test.cc</text>
</a>
</g>
</g>
<!-- Node72&#45;&gt;Node73 -->
<g id="edge1" class="edge">
<title>Node72&#45;&gt;Node73</title>
<path fill="none" stroke="#191970" d="M108.4842,-71.3313C97.1104,-59.8785 83.5316,-46.2054 73.3993,-36.0028"/>
<polygon fill="#191970" stroke="#191970" points="106.0515,-73.8487 115.5816,-78.478 111.0184,-68.9161 106.0515,-73.8487"/>
</g>
<!-- Node74 -->
<g id="node3" class="node">
<title>Node74</title>
<g id="a_node3"><a xlink:href="mathematical__program__test_8cc.html" target="_top" xlink:title="drake/solvers/test\l/mathematical_program\l_test.cc">
<polygon fill="#ffffff" stroke="#000000" points="135.5,-.5 135.5,-41.5 269.5,-41.5 269.5,-.5 135.5,-.5"/>
<text text-anchor="start" x="143.5" y="-29.5" font-family="Helvetica,sans-Serif" font-size="10.00" fill="#000000">drake/solvers/test</text>
<text text-anchor="start" x="143.5" y="-18.5" font-family="Helvetica,sans-Serif" font-size="10.00" fill="#000000">/mathematical_program</text>
<text text-anchor="middle" x="202.5" y="-7.5" font-family="Helvetica,sans-Serif" font-size="10.00" fill="#000000">_test.cc</text>
</a>
</g>
</g>
<!-- Node72&#45;&gt;Node74 -->
<g id="edge2" class="edge">
<title>Node72&#45;&gt;Node74</title>
<path fill="none" stroke="#191970" d="M152.5874,-71.2593C162.0038,-61.7774 172.9211,-50.7843 182.1399,-41.5015"/>
<polygon fill="#191970" stroke="#191970" points="149.9816,-68.9161 145.4184,-78.478 154.9485,-73.8487 149.9816,-68.9161"/>
</g>
</g>
</svg>
