<?xml version="1.0" encoding="UTF-8" standalone="no"?>
<!DOCTYPE svg PUBLIC "-//W3C//DTD SVG 1.1//EN"
 "http://www.w3.org/Graphics/SVG/1.1/DTD/svg11.dtd">
<!-- Generated by graphviz version 2.40.1 (20161225.0304)
 -->
<!-- Title: drake/automotive/maliput/geometry_base/junction.h Pages: 1 -->
<!--zoomable 262 -->
<svg id="main" version="1.1" xmlns="http://www.w3.org/2000/svg" xmlns:xlink="http://www.w3.org/1999/xlink" xml:space="preserve" onload="init(evt)">
<style type="text/css"><![CDATA[
.edge:hover path { stroke: red; }
.edge:hover polygon { stroke: red; fill: red; }
]]></style>
<script type="text/javascript"><![CDATA[
var edges = document.getElementsByTagName('g');
if (edges && edges.length) {
  for (var i=0;i<edges.length;i++) {
    if (edges[i].id.substr(0,4)=='edge') {
      edges[i].setAttribute('class','edge');
    }
  }
}
]]></script>
        <defs>
                <circle id="rim" cx="0" cy="0" r="7"/>
                <circle id="rim2" cx="0" cy="0" r="3.5"/>
                <g id="zoomPlus">
                        <use xlink:href="#rim" fill="#404040">
                                <set attributeName="fill" to="#808080" begin="zoomplus.mouseover" end="zoomplus.mouseout"/>
                        </use>
                        <path d="M-4,0h8M0,-4v8" fill="none" stroke="white" stroke-width="1.5" pointer-events="none"/>
                </g>
                <g id="zoomMin">
                        <use xlink:href="#rim" fill="#404040">
                                <set attributeName="fill" to="#808080" begin="zoomminus.mouseover" end="zoomminus.mouseout"/>
                        </use>
                        <path d="M-4,0h8" fill="none" stroke="white" stroke-width="1.5" pointer-events="none"/>
                </g>
                <g id="dirArrow">
                        <path fill="none" stroke="white" stroke-width="1.5" d="M0,-3.0v7 M-2.5,-0.5L0,-3.0L2.5,-0.5"/>
                </g>
               <g id="resetDef">
                       <use xlink:href="#rim2" fill="#404040">
                               <set attributeName="fill" to="#808080" begin="reset.mouseover" end="reset.mouseout"/>
                       </use>
               </g>
        </defs>

<script type="text/javascript">
var viewWidth = 558;
var viewHeight = 262;
var sectionId = 'dynsection-1';
</script>
<script xlink:href="svgpan.js"/>
<svg id="graph" class="graph">
<g id="viewport">
<title>drake/automotive/maliput/geometry_base/junction.h</title>
<polygon fill="#ffffff" stroke="transparent" points="-4,4 -4,-258 554,-258 554,4 -4,4"/>
<!-- Node79 -->
<g id="node1" class="node">
<title>Node79</title>
<polygon fill="#bfbfbf" stroke="#000000" points="187.5,-223.5 187.5,-253.5 333.5,-253.5 333.5,-223.5 187.5,-223.5"/>
<text text-anchor="start" x="195.5" y="-241.5" font-family="Helvetica,sans-Serif" font-size="10.00" fill="#000000">drake/automotive/maliput</text>
<text text-anchor="middle" x="260.5" y="-230.5" font-family="Helvetica,sans-Serif" font-size="10.00" fill="#000000">/geometry_base/junction.h</text>
</g>
<!-- Node80 -->
<g id="node2" class="node">
<title>Node80</title>
<g id="a_node2"><a xlink:href="geometry__base_2junction_8cc.html" target="_top" xlink:title="drake/automotive/maliput\l/geometry_base/junction.cc">
<polygon fill="#ffffff" stroke="#000000" points="0,-156.5 0,-186.5 151,-186.5 151,-156.5 0,-156.5"/>
<text text-anchor="start" x="8" y="-174.5" font-family="Helvetica,sans-Serif" font-size="10.00" fill="#000000">drake/automotive/maliput</text>
<text text-anchor="middle" x="75.5" y="-163.5" font-family="Helvetica,sans-Serif" font-size="10.00" fill="#000000">/geometry_base/junction.cc</text>
</a>
</g>
</g>
<!-- Node79&#45;&gt;Node80 -->
<g id="edge1" class="edge">
<title>Node79&#45;&gt;Node80</title>
<path fill="none" stroke="#191970" d="M209.4241,-220.0023C180.3985,-209.4903 144.5146,-196.4945 117.1987,-186.6017"/>
<polygon fill="#191970" stroke="#191970" points="208.3882,-223.3495 218.9824,-223.4639 210.7718,-216.7678 208.3882,-223.3495"/>
</g>
<!-- Node81 -->
<g id="node3" class="node">
<title>Node81</title>
<g id="a_node3"><a xlink:href="geometry__base_2road__geometry_8h.html" target="_top" xlink:title="drake/automotive/maliput\l/geometry_base/road_geometry.h">
<polygon fill="#ffffff" stroke="#000000" points="169.5,-156.5 169.5,-186.5 351.5,-186.5 351.5,-156.5 169.5,-156.5"/>
<text text-anchor="start" x="177.5" y="-174.5" font-family="Helvetica,sans-Serif" font-size="10.00" fill="#000000">drake/automotive/maliput</text>
<text text-anchor="middle" x="260.5" y="-163.5" font-family="Helvetica,sans-Serif" font-size="10.00" fill="#000000">/geometry_base/road_geometry.h</text>
</a>
</g>
</g>
<!-- Node79&#45;&gt;Node81 -->
<g id="edge2" class="edge">
<title>Node79&#45;&gt;Node81</title>
<path fill="none" stroke="#191970" d="M260.5,-213.0249C260.5,-204.128 260.5,-194.4287 260.5,-186.6432"/>
<polygon fill="#191970" stroke="#191970" points="257.0001,-213.2966 260.5,-223.2967 264.0001,-213.2967 257.0001,-213.2966"/>
</g>
<!-- Node83 -->
<g id="node5" class="node">
<title>Node83</title>
<g id="a_node5"><a xlink:href="mock__geometry_8h.html" target="_top" xlink:title="Mock concrete implementation of maliput geometry API, useful for tests. ">
<polygon fill="#ffffff" stroke="#000000" points="300,-78.5 300,-119.5 459,-119.5 459,-78.5 300,-78.5"/>
<text text-anchor="start" x="308" y="-107.5" font-family="Helvetica,sans-Serif" font-size="10.00" fill="#000000">drake/automotive/maliput</text>
<text text-anchor="start" x="308" y="-96.5" font-family="Helvetica,sans-Serif" font-size="10.00" fill="#000000">/geometry_base/test_utilities</text>
<text text-anchor="middle" x="379.5" y="-85.5" font-family="Helvetica,sans-Serif" font-size="10.00" fill="#000000">/mock_geometry.h</text>
</a>
</g>
</g>
<!-- Node79&#45;&gt;Node83 -->
<g id="edge7" class="edge">
<title>Node79&#45;&gt;Node83</title>
<path fill="none" stroke="#191970" d="M318.6967,-219.1808C334.3223,-211.424 349.8249,-200.9283 360.5,-187 375.4273,-167.5236 379.1915,-138.8382 379.8705,-119.5646"/>
<polygon fill="#191970" stroke="#191970" points="317.1179,-216.0548 309.5179,-223.4366 320.0624,-222.4054 317.1179,-216.0548"/>
</g>
<!-- Node82 -->
<g id="node4" class="node">
<title>Node82</title>
<g id="a_node4"><a xlink:href="geometry__base_2road__geometry_8cc.html" target="_top" xlink:title="drake/automotive/maliput\l/geometry_base/road_geometry.cc">
<polygon fill="#ffffff" stroke="#000000" points="96.5,-84 96.5,-114 282.5,-114 282.5,-84 96.5,-84"/>
<text text-anchor="start" x="104.5" y="-102" font-family="Helvetica,sans-Serif" font-size="10.00" fill="#000000">drake/automotive/maliput</text>
<text text-anchor="middle" x="189.5" y="-91" font-family="Helvetica,sans-Serif" font-size="10.00" fill="#000000">/geometry_base/road_geometry.cc</text>
</a>
</g>
</g>
<!-- Node81&#45;&gt;Node82 -->
<g id="edge3" class="edge">
<title>Node81&#45;&gt;Node82</title>
<path fill="none" stroke="#191970" d="M238.7899,-149.3313C227.5741,-137.8785 214.1839,-124.2054 204.1924,-114.0028"/>
<polygon fill="#191970" stroke="#191970" points="236.2913,-151.7822 245.7888,-156.478 241.2926,-146.8845 236.2913,-151.7822"/>
</g>
<!-- Node81&#45;&gt;Node83 -->
<g id="edge4" class="edge">
<title>Node81&#45;&gt;Node83</title>
<path fill="none" stroke="#191970" d="M293.8071,-151.2079C310.0542,-141.3094 329.5566,-129.4277 345.8492,-119.5015"/>
<polygon fill="#191970" stroke="#191970" points="291.8758,-148.286 285.1569,-156.478 295.5178,-154.264 291.8758,-148.286"/>
</g>
<!-- Node84 -->
<g id="node6" class="node">
<title>Node84</title>
<g id="a_node6"><a xlink:href="geometry__base__test_8cc.html" target="_top" xlink:title="drake/automotive/maliput\l/geometry_base/test/geometry\l_base_test.cc">
<polygon fill="#ffffff" stroke="#000000" points="206,-.5 206,-41.5 373,-41.5 373,-.5 206,-.5"/>
<text text-anchor="start" x="214" y="-29.5" font-family="Helvetica,sans-Serif" font-size="10.00" fill="#000000">drake/automotive/maliput</text>
<text text-anchor="start" x="214" y="-18.5" font-family="Helvetica,sans-Serif" font-size="10.00" fill="#000000">/geometry_base/test/geometry</text>
<text text-anchor="middle" x="289.5" y="-7.5" font-family="Helvetica,sans-Serif" font-size="10.00" fill="#000000">_base_test.cc</text>
</a>
</g>
</g>
<!-- Node83&#45;&gt;Node84 -->
<g id="edge5" class="edge">
<title>Node83&#45;&gt;Node84</title>
<path fill="none" stroke="#191970" d="M347.7833,-71.5122C336.4665,-61.7043 323.9184,-50.8293 313.3728,-41.6898"/>
<polygon fill="#191970" stroke="#191970" points="345.5325,-74.193 355.3817,-78.0974 350.117,-68.9032 345.5325,-74.193"/>
</g>
<!-- Node85 -->
<g id="node7" class="node">
<title>Node85</title>
<g id="a_node7"><a xlink:href="mock__geometry_8cc.html" target="_top" xlink:title="drake/automotive/maliput\l/geometry_base/test_utilities\l/mock_geometry.cc">
<polygon fill="#ffffff" stroke="#000000" points="391,-.5 391,-41.5 550,-41.5 550,-.5 391,-.5"/>
<text text-anchor="start" x="399" y="-29.5" font-family="Helvetica,sans-Serif" font-size="10.00" fill="#000000">drake/automotive/maliput</text>
<text text-anchor="start" x="399" y="-18.5" font-family="Helvetica,sans-Serif" font-size="10.00" fill="#000000">/geometry_base/test_utilities</text>
<text text-anchor="middle" x="470.5" y="-7.5" font-family="Helvetica,sans-Serif" font-size="10.00" fill="#000000">/mock_geometry.cc</text>
</a>
</g>
</g>
<!-- Node83&#45;&gt;Node85 -->
<g id="edge6" class="edge">
<title>Node83&#45;&gt;Node85</title>
<path fill="none" stroke="#191970" d="M411.5691,-71.5122C423.0117,-61.7043 435.6991,-50.8293 446.3619,-41.6898"/>
<polygon fill="#191970" stroke="#191970" points="409.2011,-68.9321 403.8863,-78.0974 413.7567,-74.2469 409.2011,-68.9321"/>
</g>
</g>
</svg>
        <g id="navigator" transform="translate(0 0)" fill="#404254">
                <rect fill="#f2f5e9" fill-opacity="0.5" stroke="#606060" stroke-width=".5" x="0" y="0" width="60" height="60"/>
                <use id="zoomplus" xlink:href="#zoomPlus" x="17" y="9" onmousedown="handleZoom(evt,'in')"/>
                <use id="zoomminus" xlink:href="#zoomMin" x="42" y="9" onmousedown="handleZoom(evt,'out')"/>
                <use id="reset" xlink:href="#resetDef" x="30" y="36" onmousedown="handleReset()"/>
                <g id="arrowUp" xlink:href="#dirArrow" transform="translate(30 24)" onmousedown="handlePan(0,-1)">
                  <use xlink:href="#rim" fill="#404040">
                        <set attributeName="fill" to="#808080" begin="arrowUp.mouseover" end="arrowUp.mouseout"/>
                  </use>
                  <path fill="none" stroke="white" stroke-width="1.5" d="M0,-3.0v7 M-2.5,-0.5L0,-3.0L2.5,-0.5"/>
                </g>
                <g id="arrowRight" xlink:href="#dirArrow" transform="rotate(90) translate(36 -43)" onmousedown="handlePan(1,0)">
                  <use xlink:href="#rim" fill="#404040">
                        <set attributeName="fill" to="#808080" begin="arrowRight.mouseover" end="arrowRight.mouseout"/>
                  </use>
                  <path fill="none" stroke="white" stroke-width="1.5" d="M0,-3.0v7 M-2.5,-0.5L0,-3.0L2.5,-0.5"/>
                </g>
                <g id="arrowDown" xlink:href="#dirArrow" transform="rotate(180) translate(-30 -48)" onmousedown="handlePan(0,1)">
                  <use xlink:href="#rim" fill="#404040">
                        <set attributeName="fill" to="#808080" begin="arrowDown.mouseover" end="arrowDown.mouseout"/>
                  </use>
                  <path fill="none" stroke="white" stroke-width="1.5" d="M0,-3.0v7 M-2.5,-0.5L0,-3.0L2.5,-0.5"/>
                </g>
                <g id="arrowLeft" xlink:href="#dirArrow" transform="rotate(270) translate(-36 17)" onmousedown="handlePan(-1,0)">
                  <use xlink:href="#rim" fill="#404040">
                        <set attributeName="fill" to="#808080" begin="arrowLeft.mouseover" end="arrowLeft.mouseout"/>
                  </use>
                  <path fill="none" stroke="white" stroke-width="1.5" d="M0,-3.0v7 M-2.5,-0.5L0,-3.0L2.5,-0.5"/>
                </g>
        </g>
        <svg viewBox="0 0 15 15" width="100%" height="30px" preserveAspectRatio="xMaxYMin meet">
         <g id="arrow_out" transform="scale(0.3 0.3)">
          <a xlink:href="geometry__base_2junction_8h__dep__incl_org.svg" target="_base">
           <rect id="button" ry="5" rx="5" y="6" x="6" height="38" width="38"
                fill="#f2f5e9" fill-opacity="0.5" stroke="#606060" stroke-width="1.0"/>
           <path id="arrow"
             d="M 11.500037,31.436501 C 11.940474,20.09759 22.043105,11.32322 32.158766,21.979434 L 37.068811,17.246167 C 37.068811,17.246167 37.088388,32 37.088388,32 L 22.160133,31.978069 C 22.160133,31.978069 26.997745,27.140456 26.997745,27.140456 C 18.528582,18.264221 13.291696,25.230495 11.500037,31.436501 z"
             style="fill:#404040;"/>
          </a>
         </g>
        </svg>
</svg>
