<?xml version="1.0" encoding="UTF-8" standalone="no"?>
<!DOCTYPE svg PUBLIC "-//W3C//DTD SVG 1.1//EN"
 "http://www.w3.org/Graphics/SVG/1.1/DTD/svg11.dtd">
<!-- Generated by graphviz version 2.40.1 (20161225.0304)
 -->
<!-- Title: drake/geometry/geometry_instance.h Pages: 1 -->
<!--zoomable 184 -->
<svg id="main" version="1.1" xmlns="http://www.w3.org/2000/svg" xmlns:xlink="http://www.w3.org/1999/xlink" xml:space="preserve" onload="init(evt)">
<style type="text/css"><![CDATA[
.edge:hover path { stroke: red; }
.edge:hover polygon { stroke: red; fill: red; }
]]></style>
<script type="text/javascript"><![CDATA[
var edges = document.getElementsByTagName('g');
if (edges && edges.length) {
  for (var i=0;i<edges.length;i++) {
    if (edges[i].id.substr(0,4)=='edge') {
      edges[i].setAttribute('class','edge');
    }
  }
}
]]></script>
        <defs>
                <circle id="rim" cx="0" cy="0" r="7"/>
                <circle id="rim2" cx="0" cy="0" r="3.5"/>
                <g id="zoomPlus">
                        <use xlink:href="#rim" fill="#404040">
                                <set attributeName="fill" to="#808080" begin="zoomplus.mouseover" end="zoomplus.mouseout"/>
                        </use>
                        <path d="M-4,0h8M0,-4v8" fill="none" stroke="white" stroke-width="1.5" pointer-events="none"/>
                </g>
                <g id="zoomMin">
                        <use xlink:href="#rim" fill="#404040">
                                <set attributeName="fill" to="#808080" begin="zoomminus.mouseover" end="zoomminus.mouseout"/>
                        </use>
                        <path d="M-4,0h8" fill="none" stroke="white" stroke-width="1.5" pointer-events="none"/>
                </g>
                <g id="dirArrow">
                        <path fill="none" stroke="white" stroke-width="1.5" d="M0,-3.0v7 M-2.5,-0.5L0,-3.0L2.5,-0.5"/>
                </g>
               <g id="resetDef">
                       <use xlink:href="#rim2" fill="#404040">
                               <set attributeName="fill" to="#808080" begin="reset.mouseover" end="reset.mouseout"/>
                       </use>
               </g>
        </defs>

<script type="text/javascript">
var viewWidth = 3289;
var viewHeight = 184;
var sectionId = 'dynsection-1';
</script>
<script xlink:href="svgpan.js"/>
<svg id="graph" class="graph">
<g id="viewport">
<title>drake/geometry/geometry_instance.h</title>
<polygon fill="#ffffff" stroke="transparent" points="-4,4 -4,-180 3284.5,-180 3284.5,4 -4,4"/>
<!-- Node37 -->
<g id="node1" class="node">
<title>Node37</title>
<polygon fill="#bfbfbf" stroke="#000000" points="1482,-145.5 1482,-175.5 1627,-175.5 1627,-145.5 1482,-145.5"/>
<text text-anchor="start" x="1490" y="-163.5" font-family="Helvetica,sans-Serif" font-size="10.00" fill="#000000">drake/geometry/geometry</text>
<text text-anchor="middle" x="1554.5" y="-152.5" font-family="Helvetica,sans-Serif" font-size="10.00" fill="#000000">_instance.h</text>
</g>
<!-- Node38 -->
<g id="node2" class="node">
<title>Node38</title>
<g id="a_node2"><a xlink:href="rigid__body__plant__bridge_8cc.html" target="_top" xlink:title="drake/attic/multibody\l/rigid_body_plant/rigid\l_body_plant_bridge.cc">
<polygon fill="#ffffff" stroke="#000000" points="0,-67.5 0,-108.5 125,-108.5 125,-67.5 0,-67.5"/>
<text text-anchor="start" x="8" y="-96.5" font-family="Helvetica,sans-Serif" font-size="10.00" fill="#000000">drake/attic/multibody</text>
<text text-anchor="start" x="8" y="-85.5" font-family="Helvetica,sans-Serif" font-size="10.00" fill="#000000">/rigid_body_plant/rigid</text>
<text text-anchor="middle" x="62.5" y="-74.5" font-family="Helvetica,sans-Serif" font-size="10.00" fill="#000000">_body_plant_bridge.cc</text>
</a>
</g>
</g>
<!-- Node37&#45;&gt;Node38 -->
<g id="edge1" class="edge">
<title>Node37&#45;&gt;Node38</title>
<path fill="none" stroke="#191970" d="M1471.5977,-160.2258C1208.3738,-158.9257 393.6077,-151.4835 133.5,-109 130.709,-108.5442 127.8734,-108.0116 125.0214,-107.4188"/>
<polygon fill="#191970" stroke="#191970" points="1471.8329,-163.7269 1481.8495,-160.2747 1471.8664,-156.727 1471.8329,-163.7269"/>
</g>
<!-- Node39 -->
<g id="node3" class="node">
<title>Node39</title>
<g id="a_node3"><a xlink:href="automotive__simulator_8cc.html" target="_top" xlink:title="drake/automotive/automotive\l_simulator.cc">
<polygon fill="#ffffff" stroke="#000000" points="143,-73 143,-103 306,-103 306,-73 143,-73"/>
<text text-anchor="start" x="151" y="-91" font-family="Helvetica,sans-Serif" font-size="10.00" fill="#000000">drake/automotive/automotive</text>
<text text-anchor="middle" x="224.5" y="-80" font-family="Helvetica,sans-Serif" font-size="10.00" fill="#000000">_simulator.cc</text>
</a>
</g>
</g>
<!-- Node37&#45;&gt;Node39 -->
<g id="edge2" class="edge">
<title>Node37&#45;&gt;Node39</title>
<path fill="none" stroke="#191970" d="M1471.7053,-159.0889C1231.7991,-154.6783 539.0442,-139.5836 314.5,-109 303.8484,-107.5492 292.6075,-105.4194 281.8155,-103.0653"/>
<polygon fill="#191970" stroke="#191970" points="1471.6978,-162.5893 1481.76,-159.2724 1471.8256,-155.5904 1471.6978,-162.5893"/>
</g>
<!-- Node40 -->
<g id="node4" class="node">
<title>Node40</title>
<g id="a_node4"><a xlink:href="pendulum__plant_8cc.html" target="_top" xlink:title="drake/examples/pendulum\l/pendulum_plant.cc">
<polygon fill="#ffffff" stroke="#000000" points="324,-73 324,-103 471,-103 471,-73 324,-73"/>
<text text-anchor="start" x="332" y="-91" font-family="Helvetica,sans-Serif" font-size="10.00" fill="#000000">drake/examples/pendulum</text>
<text text-anchor="middle" x="397.5" y="-80" font-family="Helvetica,sans-Serif" font-size="10.00" fill="#000000">/pendulum_plant.cc</text>
</a>
</g>
</g>
<!-- Node37&#45;&gt;Node40 -->
<g id="edge3" class="edge">
<title>Node37&#45;&gt;Node40</title>
<path fill="none" stroke="#191970" d="M1471.5569,-158.7027C1253.9791,-153.6396 670.4747,-137.7243 479.5,-109 469.7635,-107.5355 459.5067,-105.3992 449.6689,-103.043"/>
<polygon fill="#191970" stroke="#191970" points="1471.5599,-162.2036 1481.6381,-158.9356 1471.7216,-155.2055 1471.5599,-162.2036"/>
</g>
<!-- Node41 -->
<g id="node5" class="node">
<title>Node41</title>
<g id="a_node5"><a xlink:href="bouncing__ball__plant_8cc.html" target="_top" xlink:title="drake/examples/scene\l_graph/bouncing_ball\l_plant.cc">
<polygon fill="#ffffff" stroke="#000000" points="489,-67.5 489,-108.5 616,-108.5 616,-67.5 489,-67.5"/>
<text text-anchor="start" x="497" y="-96.5" font-family="Helvetica,sans-Serif" font-size="10.00" fill="#000000">drake/examples/scene</text>
<text text-anchor="start" x="497" y="-85.5" font-family="Helvetica,sans-Serif" font-size="10.00" fill="#000000">_graph/bouncing_ball</text>
<text text-anchor="middle" x="552.5" y="-74.5" font-family="Helvetica,sans-Serif" font-size="10.00" fill="#000000">_plant.cc</text>
</a>
</g>
</g>
<!-- Node37&#45;&gt;Node41 -->
<g id="edge4" class="edge">
<title>Node37&#45;&gt;Node41</title>
<path fill="none" stroke="#191970" d="M1471.4896,-158.3326C1275.0502,-152.811 786.0762,-136.662 624.5,-109 621.8048,-108.5386 619.0674,-108.0116 616.3126,-107.4328"/>
<polygon fill="#191970" stroke="#191970" points="1471.6558,-161.8385 1481.7495,-158.6188 1471.851,-154.8412 1471.6558,-161.8385"/>
</g>
<!-- Node42 -->
<g id="node6" class="node">
<title>Node42</title>
<g id="a_node6"><a xlink:href="scene__graph_2bouncing__ball__run__dynamics_8cc.html" target="_top" xlink:title="drake/examples/scene\l_graph/bouncing_ball\l_run_dynamics.cc">
<polygon fill="#ffffff" stroke="#000000" points="634,-67.5 634,-108.5 761,-108.5 761,-67.5 634,-67.5"/>
<text text-anchor="start" x="642" y="-96.5" font-family="Helvetica,sans-Serif" font-size="10.00" fill="#000000">drake/examples/scene</text>
<text text-anchor="start" x="642" y="-85.5" font-family="Helvetica,sans-Serif" font-size="10.00" fill="#000000">_graph/bouncing_ball</text>
<text text-anchor="middle" x="697.5" y="-74.5" font-family="Helvetica,sans-Serif" font-size="10.00" fill="#000000">_run_dynamics.cc</text>
</a>
</g>
</g>
<!-- Node37&#45;&gt;Node42 -->
<g id="edge5" class="edge">
<title>Node37&#45;&gt;Node42</title>
<path fill="none" stroke="#191970" d="M1471.8801,-157.3653C1298.6642,-150.4193 902.5269,-132.4726 769.5,-109 766.8072,-108.5249 764.0717,-107.9864 761.3187,-107.3981"/>
<polygon fill="#191970" stroke="#191970" points="1471.8309,-160.866 1481.9624,-157.7673 1472.1098,-153.8716 1471.8309,-160.866"/>
</g>
<!-- Node43 -->
<g id="node7" class="node">
<title>Node43</title>
<g id="a_node7"><a xlink:href="solar__system_8cc.html" target="_top" xlink:title="drake/examples/scene\l_graph/solar_system.cc">
<polygon fill="#ffffff" stroke="#000000" points="779,-73 779,-103 910,-103 910,-73 779,-73"/>
<text text-anchor="start" x="787" y="-91" font-family="Helvetica,sans-Serif" font-size="10.00" fill="#000000">drake/examples/scene</text>
<text text-anchor="middle" x="844.5" y="-80" font-family="Helvetica,sans-Serif" font-size="10.00" fill="#000000">_graph/solar_system.cc</text>
</a>
</g>
</g>
<!-- Node37&#45;&gt;Node43 -->
<g id="edge6" class="edge">
<title>Node37&#45;&gt;Node43</title>
<path fill="none" stroke="#191970" d="M1471.8791,-158.9579C1349.9197,-155.523 1114.928,-144.4713 918.5,-109 909.9577,-107.4574 900.9827,-105.3443 892.3453,-103.0499"/>
<polygon fill="#191970" stroke="#191970" points="1471.8021,-162.457 1481.8935,-159.2299 1471.9922,-155.4596 1471.8021,-162.457"/>
</g>
<!-- Node44 -->
<g id="node8" class="node">
<title>Node44</title>
<g id="a_node8"><a xlink:href="geometry__instance_8cc.html" target="_top" xlink:title="drake/geometry/geometry\l_instance.cc">
<polygon fill="#ffffff" stroke="#000000" points="928,-73 928,-103 1073,-103 1073,-73 928,-73"/>
<text text-anchor="start" x="936" y="-91" font-family="Helvetica,sans-Serif" font-size="10.00" fill="#000000">drake/geometry/geometry</text>
<text text-anchor="middle" x="1000.5" y="-80" font-family="Helvetica,sans-Serif" font-size="10.00" fill="#000000">_instance.cc</text>
</a>
</g>
</g>
<!-- Node37&#45;&gt;Node44 -->
<g id="edge7" class="edge">
<title>Node37&#45;&gt;Node44</title>
<path fill="none" stroke="#191970" d="M1471.8048,-155.1513C1376.9779,-148.1741 1217.1259,-133.8288 1081.5,-109 1072.4973,-107.3519 1063.0201,-105.2432 1053.8472,-103.0003"/>
<polygon fill="#191970" stroke="#191970" points="1471.6799,-158.6514 1481.9071,-155.8848 1472.1869,-151.6697 1471.6799,-158.6514"/>
</g>
<!-- Node45 -->
<g id="node9" class="node">
<title>Node45</title>
<g id="a_node9"><a xlink:href="geometry__state_8cc.html" target="_top" xlink:title="drake/geometry/geometry\l_state.cc">
<polygon fill="#ffffff" stroke="#000000" points="1091,-73 1091,-103 1236,-103 1236,-73 1091,-73"/>
<text text-anchor="start" x="1099" y="-91" font-family="Helvetica,sans-Serif" font-size="10.00" fill="#000000">drake/geometry/geometry</text>
<text text-anchor="middle" x="1163.5" y="-80" font-family="Helvetica,sans-Serif" font-size="10.00" fill="#000000">_state.cc</text>
</a>
</g>
</g>
<!-- Node37&#45;&gt;Node45 -->
<g id="edge8" class="edge">
<title>Node37&#45;&gt;Node45</title>
<path fill="none" stroke="#191970" d="M1471.5623,-148.6472C1409.1407,-139.2501 1321.6163,-125.0589 1245.5,-109 1237.1602,-107.2405 1228.3902,-105.2003 1219.8131,-103.0969"/>
<polygon fill="#191970" stroke="#191970" points="1471.3397,-152.1528 1481.7477,-150.1716 1472.3759,-145.2299 1471.3397,-152.1528"/>
</g>
<!-- Node46 -->
<g id="node10" class="node">
<title>Node46</title>
<g id="a_node10"><a xlink:href="scene__graph_8cc.html" target="_top" xlink:title="drake/geometry/scene\l_graph.cc">
<polygon fill="#ffffff" stroke="#000000" points="1254.5,-73 1254.5,-103 1380.5,-103 1380.5,-73 1254.5,-73"/>
<text text-anchor="start" x="1262.5" y="-91" font-family="Helvetica,sans-Serif" font-size="10.00" fill="#000000">drake/geometry/scene</text>
<text text-anchor="middle" x="1317.5" y="-80" font-family="Helvetica,sans-Serif" font-size="10.00" fill="#000000">_graph.cc</text>
</a>
</g>
</g>
<!-- Node37&#45;&gt;Node46 -->
<g id="edge9" class="edge">
<title>Node37&#45;&gt;Node46</title>
<path fill="none" stroke="#191970" d="M1495.8203,-142.5495C1456.0538,-130.3846 1404.1043,-114.4929 1366.5436,-103.0028"/>
<polygon fill="#191970" stroke="#191970" points="1494.807,-145.8995 1505.3934,-145.478 1496.8547,-139.2057 1494.807,-145.8995"/>
</g>
<!-- Node47 -->
<g id="node11" class="node">
<title>Node47</title>
<g id="a_node11"><a xlink:href="geometry__instance__test_8cc.html" target="_top" xlink:title="drake/geometry/test\l/geometry_instance_test.cc">
<polygon fill="#ffffff" stroke="#000000" points="1399,-73 1399,-103 1550,-103 1550,-73 1399,-73"/>
<text text-anchor="start" x="1407" y="-91" font-family="Helvetica,sans-Serif" font-size="10.00" fill="#000000">drake/geometry/test</text>
<text text-anchor="middle" x="1474.5" y="-80" font-family="Helvetica,sans-Serif" font-size="10.00" fill="#000000">/geometry_instance_test.cc</text>
</a>
</g>
</g>
<!-- Node37&#45;&gt;Node47 -->
<g id="edge10" class="edge">
<title>Node37&#45;&gt;Node47</title>
<path fill="none" stroke="#191970" d="M1530.3984,-138.6579C1517.6882,-127.1393 1502.4201,-113.3026 1491.0548,-103.0028"/>
<polygon fill="#191970" stroke="#191970" points="1528.1637,-141.3562 1537.9239,-145.478 1532.8644,-136.1693 1528.1637,-141.3562"/>
</g>
<!-- Node48 -->
<g id="node12" class="node">
<title>Node48</title>
<g id="a_node12"><a xlink:href="geometry__state__test_8cc.html" target="_top" xlink:title="drake/geometry/test\l/geometry_state_test.cc">
<polygon fill="#ffffff" stroke="#000000" points="1568.5,-73 1568.5,-103 1702.5,-103 1702.5,-73 1568.5,-73"/>
<text text-anchor="start" x="1576.5" y="-91" font-family="Helvetica,sans-Serif" font-size="10.00" fill="#000000">drake/geometry/test</text>
<text text-anchor="middle" x="1635.5" y="-80" font-family="Helvetica,sans-Serif" font-size="10.00" fill="#000000">/geometry_state_test.cc</text>
</a>
</g>
</g>
<!-- Node37&#45;&gt;Node48 -->
<g id="edge11" class="edge">
<title>Node37&#45;&gt;Node48</title>
<path fill="none" stroke="#191970" d="M1578.9029,-138.6579C1591.772,-127.1393 1607.2309,-113.3026 1618.7382,-103.0028"/>
<polygon fill="#191970" stroke="#191970" points="1576.4002,-136.2007 1571.2833,-145.478 1581.0688,-141.4166 1576.4002,-136.2007"/>
</g>
<!-- Node49 -->
<g id="node13" class="node">
<title>Node49</title>
<g id="a_node13"><a xlink:href="geometry__visualization__test_8cc.html" target="_top" xlink:title="drake/geometry/test\l/geometry_visualization\l_test.cc">
<polygon fill="#ffffff" stroke="#000000" points="1720.5,-67.5 1720.5,-108.5 1854.5,-108.5 1854.5,-67.5 1720.5,-67.5"/>
<text text-anchor="start" x="1728.5" y="-96.5" font-family="Helvetica,sans-Serif" font-size="10.00" fill="#000000">drake/geometry/test</text>
<text text-anchor="start" x="1728.5" y="-85.5" font-family="Helvetica,sans-Serif" font-size="10.00" fill="#000000">/geometry_visualization</text>
<text text-anchor="middle" x="1787.5" y="-74.5" font-family="Helvetica,sans-Serif" font-size="10.00" fill="#000000">_test.cc</text>
</a>
</g>
</g>
<!-- Node37&#45;&gt;Node49 -->
<g id="edge12" class="edge">
<title>Node37&#45;&gt;Node49</title>
<path fill="none" stroke="#191970" d="M1612.3282,-142.5062C1645.4766,-132.1918 1687.201,-119.2089 1721.6124,-108.5015"/>
<polygon fill="#191970" stroke="#191970" points="1611.2863,-139.1648 1602.7778,-145.478 1613.3661,-145.8488 1611.2863,-139.1648"/>
</g>
<!-- Node50 -->
<g id="node14" class="node">
<title>Node50</title>
<g id="a_node14"><a xlink:href="query__object__test_8cc.html" target="_top" xlink:title="drake/geometry/test\l/query_object_test.cc">
<polygon fill="#ffffff" stroke="#000000" points="1872.5,-73 1872.5,-103 1992.5,-103 1992.5,-73 1872.5,-73"/>
<text text-anchor="start" x="1880.5" y="-91" font-family="Helvetica,sans-Serif" font-size="10.00" fill="#000000">drake/geometry/test</text>
<text text-anchor="middle" x="1932.5" y="-80" font-family="Helvetica,sans-Serif" font-size="10.00" fill="#000000">/query_object_test.cc</text>
</a>
</g>
</g>
<!-- Node37&#45;&gt;Node50 -->
<g id="edge13" class="edge">
<title>Node37&#45;&gt;Node50</title>
<path fill="none" stroke="#191970" d="M1637.3482,-149.6834C1699.903,-140.7951 1787.6365,-126.7865 1863.5,-109 1870.8147,-107.285 1878.4909,-105.2204 1885.9573,-103.0642"/>
<polygon fill="#191970" stroke="#191970" points="1636.556,-146.2603 1627.1414,-151.1199 1637.5316,-153.192 1636.556,-146.2603"/>
</g>
<!-- Node51 -->
<g id="node15" class="node">
<title>Node51</title>
<g id="a_node15"><a xlink:href="scene__graph__test_8cc.html" target="_top" xlink:title="drake/geometry/test\l/scene_graph_test.cc">
<polygon fill="#ffffff" stroke="#000000" points="2011,-73 2011,-103 2130,-103 2130,-73 2011,-73"/>
<text text-anchor="start" x="2019" y="-91" font-family="Helvetica,sans-Serif" font-size="10.00" fill="#000000">drake/geometry/test</text>
<text text-anchor="middle" x="2070.5" y="-80" font-family="Helvetica,sans-Serif" font-size="10.00" fill="#000000">/scene_graph_test.cc</text>
</a>
</g>
</g>
<!-- Node37&#45;&gt;Node51 -->
<g id="edge14" class="edge">
<title>Node37&#45;&gt;Node51</title>
<path fill="none" stroke="#191970" d="M1637.3144,-155.4557C1727.5871,-148.916 1875.9395,-135.1163 2001.5,-109 2009.2234,-107.3936 2017.3242,-105.306 2025.1489,-103.0714"/>
<polygon fill="#191970" stroke="#191970" points="1636.8669,-151.9786 1627.1406,-156.1797 1637.3639,-158.9609 1636.8669,-151.9786"/>
</g>
<!-- Node52 -->
<g id="node16" class="node">
<title>Node52</title>
<g id="a_node16"><a xlink:href="multibody__plant_8cc.html" target="_top" xlink:title="drake/multibody/multibody\l_tree/multibody_plant/multibody\l_plant.cc">
<polygon fill="#ffffff" stroke="#000000" points="2148.5,-67.5 2148.5,-108.5 2324.5,-108.5 2324.5,-67.5 2148.5,-67.5"/>
<text text-anchor="start" x="2156.5" y="-96.5" font-family="Helvetica,sans-Serif" font-size="10.00" fill="#000000">drake/multibody/multibody</text>
<text text-anchor="start" x="2156.5" y="-85.5" font-family="Helvetica,sans-Serif" font-size="10.00" fill="#000000">_tree/multibody_plant/multibody</text>
<text text-anchor="middle" x="2236.5" y="-74.5" font-family="Helvetica,sans-Serif" font-size="10.00" fill="#000000">_plant.cc</text>
</a>
</g>
</g>
<!-- Node37&#45;&gt;Node52 -->
<g id="edge15" class="edge">
<title>Node37&#45;&gt;Node52</title>
<path fill="none" stroke="#191970" d="M1637.2307,-156.4194C1750.7442,-150.0896 1960.9338,-135.7503 2138.5,-109 2141.7691,-108.5075 2145.0928,-107.9724 2148.445,-107.4038"/>
<polygon fill="#191970" stroke="#191970" points="1637.0129,-152.926 1627.2205,-156.9708 1637.3979,-159.9154 1637.0129,-152.926"/>
</g>
<!-- Node53 -->
<g id="node17" class="node">
<title>Node53</title>
<g id="a_node17"><a xlink:href="scene__graph__parser__detail_8cc.html" target="_top" xlink:title="drake/multibody/parsing\l/scene_graph_parser_detail.cc">
<polygon fill="#ffffff" stroke="#000000" points="2342.5,-73 2342.5,-103 2506.5,-103 2506.5,-73 2342.5,-73"/>
<text text-anchor="start" x="2350.5" y="-91" font-family="Helvetica,sans-Serif" font-size="10.00" fill="#000000">drake/multibody/parsing</text>
<text text-anchor="middle" x="2424.5" y="-80" font-family="Helvetica,sans-Serif" font-size="10.00" fill="#000000">/scene_graph_parser_detail.cc</text>
</a>
</g>
</g>
<!-- Node37&#45;&gt;Node53 -->
<g id="edge16" class="edge">
<title>Node37&#45;&gt;Node53</title>
<path fill="none" stroke="#191970" d="M1637.1372,-159.3916C1779.8892,-156.5077 2081.5935,-146.1466 2333.5,-109 2343.9262,-107.4625 2354.9245,-105.352 2365.5322,-103.0585"/>
<polygon fill="#191970" stroke="#191970" points="1637.0664,-155.8923 1627.1366,-159.5866 1637.203,-162.8909 1637.0664,-155.8923"/>
</g>
<!-- Node54 -->
<g id="node18" class="node">
<title>Node54</title>
<g id="a_node18"><a xlink:href="multibody_2parsing_2sdf__parser_8cc.html" target="_top" xlink:title="drake/multibody/parsing\l/sdf_parser.cc">
<polygon fill="#ffffff" stroke="#000000" points="2524.5,-73 2524.5,-103 2660.5,-103 2660.5,-73 2524.5,-73"/>
<text text-anchor="start" x="2532.5" y="-91" font-family="Helvetica,sans-Serif" font-size="10.00" fill="#000000">drake/multibody/parsing</text>
<text text-anchor="middle" x="2592.5" y="-80" font-family="Helvetica,sans-Serif" font-size="10.00" fill="#000000">/sdf_parser.cc</text>
</a>
</g>
</g>
<!-- Node37&#45;&gt;Node54 -->
<g id="edge17" class="edge">
<title>Node37&#45;&gt;Node54</title>
<path fill="none" stroke="#191970" d="M1637.3803,-158.323C1838.3648,-152.6785 2347.4933,-136.0948 2515.5,-109 2524.6653,-107.5219 2534.3074,-105.3791 2543.5489,-103.0207"/>
<polygon fill="#191970" stroke="#191970" points="1637.0781,-154.83 1627.1796,-158.6075 1637.2734,-161.8272 1637.0781,-154.83"/>
</g>
<!-- Node55 -->
<g id="node19" class="node">
<title>Node55</title>
<g id="a_node19"><a xlink:href="scene__graph__parser__detail__test_8cc.html" target="_top" xlink:title="drake/multibody/parsing\l/test/scene_graph_parser\l_detail_test.cc">
<polygon fill="#ffffff" stroke="#000000" points="2679,-67.5 2679,-108.5 2818,-108.5 2818,-67.5 2679,-67.5"/>
<text text-anchor="start" x="2687" y="-96.5" font-family="Helvetica,sans-Serif" font-size="10.00" fill="#000000">drake/multibody/parsing</text>
<text text-anchor="start" x="2687" y="-85.5" font-family="Helvetica,sans-Serif" font-size="10.00" fill="#000000">/test/scene_graph_parser</text>
<text text-anchor="middle" x="2748.5" y="-74.5" font-family="Helvetica,sans-Serif" font-size="10.00" fill="#000000">_detail_test.cc</text>
</a>
</g>
</g>
<!-- Node37&#45;&gt;Node55 -->
<g id="edge18" class="edge">
<title>Node37&#45;&gt;Node55</title>
<path fill="none" stroke="#191970" d="M1637.3451,-158.9672C1860.4782,-154.4726 2470.604,-139.6677 2669.5,-109 2672.5857,-108.5242 2675.7244,-107.9751 2678.8844,-107.3688"/>
<polygon fill="#191970" stroke="#191970" points="1636.9435,-155.4744 1627.0154,-159.1735 1637.0833,-162.473 1636.9435,-155.4744"/>
</g>
<!-- Node56 -->
<g id="node20" class="node">
<title>Node56</title>
<g id="a_node20"><a xlink:href="sdf__parser__test_8cc.html" target="_top" xlink:title="drake/multibody/parsing\l/test/sdf_parser_test.cc">
<polygon fill="#ffffff" stroke="#000000" points="2836.5,-73 2836.5,-103 2972.5,-103 2972.5,-73 2836.5,-73"/>
<text text-anchor="start" x="2844.5" y="-91" font-family="Helvetica,sans-Serif" font-size="10.00" fill="#000000">drake/multibody/parsing</text>
<text text-anchor="middle" x="2904.5" y="-80" font-family="Helvetica,sans-Serif" font-size="10.00" fill="#000000">/test/sdf_parser_test.cc</text>
</a>
</g>
</g>
<!-- Node37&#45;&gt;Node56 -->
<g id="edge19" class="edge">
<title>Node37&#45;&gt;Node56</title>
<path fill="none" stroke="#191970" d="M1637.3323,-159.5511C1881.5569,-156.3726 2596.0419,-144.2382 2826.5,-109 2835.9267,-107.5586 2845.8488,-105.4013 2855.3382,-103.01"/>
<polygon fill="#191970" stroke="#191970" points="1637.0566,-156.0543 1627.1024,-159.6826 1637.1466,-163.0537 1637.0566,-156.0543"/>
</g>
<!-- Node57 -->
<g id="node21" class="node">
<title>Node57</title>
<g id="a_node21"><a xlink:href="urdf__geometry_8h.html" target="_top" xlink:title="drake/multibody/parsing\l/urdf_geometry.h">
<polygon fill="#ffffff" stroke="#000000" points="2990.5,-73 2990.5,-103 3126.5,-103 3126.5,-73 2990.5,-73"/>
<text text-anchor="start" x="2998.5" y="-91" font-family="Helvetica,sans-Serif" font-size="10.00" fill="#000000">drake/multibody/parsing</text>
<text text-anchor="middle" x="3058.5" y="-80" font-family="Helvetica,sans-Serif" font-size="10.00" fill="#000000">/urdf_geometry.h</text>
</a>
</g>
</g>
<!-- Node37&#45;&gt;Node57 -->
<g id="edge20" class="edge">
<title>Node37&#45;&gt;Node57</title>
<path fill="none" stroke="#191970" d="M1637.7159,-160.0087C1901.9411,-158.0536 2719.8524,-148.8555 2981.5,-109 2990.8148,-107.5811 3000.614,-105.4343 3009.983,-103.0464"/>
<polygon fill="#191970" stroke="#191970" points="1637.3994,-156.5108 1627.425,-160.0833 1637.4502,-163.5107 1637.3994,-156.5108"/>
</g>
<!-- Node58 -->
<g id="node22" class="node">
<title>Node58</title>
<g id="a_node22"><a xlink:href="urdf__geometry__test_8cc.html" target="_top" xlink:title="drake/multibody/parsing\l/test/urdf_geometry_test.cc">
<polygon fill="#ffffff" stroke="#000000" points="2821,-.5 2821,-30.5 2972,-30.5 2972,-.5 2821,-.5"/>
<text text-anchor="start" x="2829" y="-18.5" font-family="Helvetica,sans-Serif" font-size="10.00" fill="#000000">drake/multibody/parsing</text>
<text text-anchor="middle" x="2896.5" y="-7.5" font-family="Helvetica,sans-Serif" font-size="10.00" fill="#000000">/test/urdf_geometry_test.cc</text>
</a>
</g>
</g>
<!-- Node57&#45;&gt;Node58 -->
<g id="edge21" class="edge">
<title>Node57&#45;&gt;Node58</title>
<path fill="none" stroke="#191970" d="M3015.7792,-68.8811C2988.9654,-56.8811 2954.8837,-41.6285 2930.0235,-30.5028"/>
<polygon fill="#191970" stroke="#191970" points="3014.3761,-72.0877 3024.9335,-72.978 3017.2356,-65.6983 3014.3761,-72.0877"/>
</g>
<!-- Node59 -->
<g id="node23" class="node">
<title>Node59</title>
<g id="a_node23"><a xlink:href="urdf__geometry_8cc.html" target="_top" xlink:title="drake/multibody/parsing\l/urdf_geometry.cc">
<polygon fill="#ffffff" stroke="#000000" points="2990.5,-.5 2990.5,-30.5 3126.5,-30.5 3126.5,-.5 2990.5,-.5"/>
<text text-anchor="start" x="2998.5" y="-18.5" font-family="Helvetica,sans-Serif" font-size="10.00" fill="#000000">drake/multibody/parsing</text>
<text text-anchor="middle" x="3058.5" y="-7.5" font-family="Helvetica,sans-Serif" font-size="10.00" fill="#000000">/urdf_geometry.cc</text>
</a>
</g>
</g>
<!-- Node57&#45;&gt;Node59 -->
<g id="edge22" class="edge">
<title>Node57&#45;&gt;Node59</title>
<path fill="none" stroke="#191970" d="M3058.5,-62.8409C3058.5,-52.0601 3058.5,-39.8309 3058.5,-30.5028"/>
<polygon fill="#191970" stroke="#191970" points="3055.0001,-62.9779 3058.5,-72.978 3062.0001,-62.978 3055.0001,-62.9779"/>
</g>
<!-- Node60 -->
<g id="node24" class="node">
<title>Node60</title>
<g id="a_node24"><a xlink:href="multibody_2parsing_2urdf__parser_8cc.html" target="_top" xlink:title="drake/multibody/parsing\l/urdf_parser.cc">
<polygon fill="#ffffff" stroke="#000000" points="3144.5,-.5 3144.5,-30.5 3280.5,-30.5 3280.5,-.5 3144.5,-.5"/>
<text text-anchor="start" x="3152.5" y="-18.5" font-family="Helvetica,sans-Serif" font-size="10.00" fill="#000000">drake/multibody/parsing</text>
<text text-anchor="middle" x="3212.5" y="-7.5" font-family="Helvetica,sans-Serif" font-size="10.00" fill="#000000">/urdf_parser.cc</text>
</a>
</g>
</g>
<!-- Node57&#45;&gt;Node60 -->
<g id="edge23" class="edge">
<title>Node57&#45;&gt;Node60</title>
<path fill="none" stroke="#191970" d="M3099.7805,-68.566C3125.1661,-56.615 3157.2058,-41.5313 3180.632,-30.5028"/>
<polygon fill="#191970" stroke="#191970" points="3097.9656,-65.5519 3090.4089,-72.978 3100.9472,-71.8851 3097.9656,-65.5519"/>
</g>
</g>
</svg>
        <g id="navigator" transform="translate(0 0)" fill="#404254">
                <rect fill="#f2f5e9" fill-opacity="0.5" stroke="#606060" stroke-width=".5" x="0" y="0" width="60" height="60"/>
                <use id="zoomplus" xlink:href="#zoomPlus" x="17" y="9" onmousedown="handleZoom(evt,'in')"/>
                <use id="zoomminus" xlink:href="#zoomMin" x="42" y="9" onmousedown="handleZoom(evt,'out')"/>
                <use id="reset" xlink:href="#resetDef" x="30" y="36" onmousedown="handleReset()"/>
                <g id="arrowUp" xlink:href="#dirArrow" transform="translate(30 24)" onmousedown="handlePan(0,-1)">
                  <use xlink:href="#rim" fill="#404040">
                        <set attributeName="fill" to="#808080" begin="arrowUp.mouseover" end="arrowUp.mouseout"/>
                  </use>
                  <path fill="none" stroke="white" stroke-width="1.5" d="M0,-3.0v7 M-2.5,-0.5L0,-3.0L2.5,-0.5"/>
                </g>
                <g id="arrowRight" xlink:href="#dirArrow" transform="rotate(90) translate(36 -43)" onmousedown="handlePan(1,0)">
                  <use xlink:href="#rim" fill="#404040">
                        <set attributeName="fill" to="#808080" begin="arrowRight.mouseover" end="arrowRight.mouseout"/>
                  </use>
                  <path fill="none" stroke="white" stroke-width="1.5" d="M0,-3.0v7 M-2.5,-0.5L0,-3.0L2.5,-0.5"/>
                </g>
                <g id="arrowDown" xlink:href="#dirArrow" transform="rotate(180) translate(-30 -48)" onmousedown="handlePan(0,1)">
                  <use xlink:href="#rim" fill="#404040">
                        <set attributeName="fill" to="#808080" begin="arrowDown.mouseover" end="arrowDown.mouseout"/>
                  </use>
                  <path fill="none" stroke="white" stroke-width="1.5" d="M0,-3.0v7 M-2.5,-0.5L0,-3.0L2.5,-0.5"/>
                </g>
                <g id="arrowLeft" xlink:href="#dirArrow" transform="rotate(270) translate(-36 17)" onmousedown="handlePan(-1,0)">
                  <use xlink:href="#rim" fill="#404040">
                        <set attributeName="fill" to="#808080" begin="arrowLeft.mouseover" end="arrowLeft.mouseout"/>
                  </use>
                  <path fill="none" stroke="white" stroke-width="1.5" d="M0,-3.0v7 M-2.5,-0.5L0,-3.0L2.5,-0.5"/>
                </g>
        </g>
        <svg viewBox="0 0 15 15" width="100%" height="30px" preserveAspectRatio="xMaxYMin meet">
         <g id="arrow_out" transform="scale(0.3 0.3)">
          <a xlink:href="geometry__instance_8h__dep__incl_org.svg" target="_base">
           <rect id="button" ry="5" rx="5" y="6" x="6" height="38" width="38"
                fill="#f2f5e9" fill-opacity="0.5" stroke="#606060" stroke-width="1.0"/>
           <path id="arrow"
             d="M 11.500037,31.436501 C 11.940474,20.09759 22.043105,11.32322 32.158766,21.979434 L 37.068811,17.246167 C 37.068811,17.246167 37.088388,32 37.088388,32 L 22.160133,31.978069 C 22.160133,31.978069 26.997745,27.140456 26.997745,27.140456 C 18.528582,18.264221 13.291696,25.230495 11.500037,31.436501 z"
             style="fill:#404040;"/>
          </a>
         </g>
        </svg>
</svg>
