<?xml version="1.0" encoding="UTF-8" standalone="no"?>
<!DOCTYPE svg PUBLIC "-//W3C//DTD SVG 1.1//EN"
 "http://www.w3.org/Graphics/SVG/1.1/DTD/svg11.dtd">
<!-- Generated by graphviz version 2.40.1 (20161225.0304)
 -->
<!-- Title: drake/math/gradient_util.h Pages: 1 -->
<svg width="524pt" height="162pt"
 viewBox="0.00 0.00 523.50 162.00" xmlns="http://www.w3.org/2000/svg" xmlns:xlink="http://www.w3.org/1999/xlink">
<g id="graph0" class="graph" transform="scale(1 1) rotate(0) translate(4 158)">
<title>drake/math/gradient_util.h</title>
<polygon fill="#ffffff" stroke="transparent" points="-4,4 -4,-158 519.5,-158 519.5,4 -4,4"/>
<!-- Node0 -->
<g id="node1" class="node">
<title>Node0</title>
<polygon fill="#bfbfbf" stroke="#000000" points="133,-123.5 133,-153.5 249,-153.5 249,-123.5 133,-123.5"/>
<text text-anchor="start" x="141" y="-141.5" font-family="Helvetica,sans-Serif" font-size="10.00" fill="#000000">drake/math/gradient</text>
<text text-anchor="middle" x="191" y="-130.5" font-family="Helvetica,sans-Serif" font-size="10.00" fill="#000000">_util.h</text>
</g>
<!-- Node1 -->
<g id="node2" class="node">
<title>Node1</title>
<polygon fill="#ffffff" stroke="#bfbfbf" points="0,-62 0,-81 42,-81 42,-62 0,-62"/>
<text text-anchor="middle" x="21" y="-69" font-family="Helvetica,sans-Serif" font-size="10.00" fill="#000000">array</text>
</g>
<!-- Node0&#45;&gt;Node1 -->
<g id="edge1" class="edge">
<title>Node0&#45;&gt;Node1</title>
<path fill="none" stroke="#191970" d="M145.6696,-123.4321C117.9828,-113.8344 82.0507,-100.6692 51,-87 49.9805,-86.5512 48.9472,-86.0837 47.9075,-85.6026"/>
<polygon fill="#191970" stroke="#191970" points="49.1112,-82.2953 38.5898,-81.0504 46.0384,-88.5849 49.1112,-82.2953"/>
</g>
<!-- Node2 -->
<g id="node3" class="node">
<title>Node2</title>
<polygon fill="#ffffff" stroke="#bfbfbf" points="60.5,-62 60.5,-81 107.5,-81 107.5,-62 60.5,-62"/>
<text text-anchor="middle" x="84" y="-69" font-family="Helvetica,sans-Serif" font-size="10.00" fill="#000000">vector</text>
</g>
<!-- Node0&#45;&gt;Node2 -->
<g id="edge2" class="edge">
<title>Node0&#45;&gt;Node2</title>
<path fill="none" stroke="#191970" d="M166.9871,-123.4639C149.3574,-112.4247 125.5151,-97.4954 107.9097,-86.4715"/>
<polygon fill="#191970" stroke="#191970" points="109.6707,-83.4446 99.3376,-81.1039 105.9556,-89.3775 109.6707,-83.4446"/>
</g>
<!-- Node3 -->
<g id="node4" class="node">
<title>Node3</title>
<polygon fill="#ffffff" stroke="#bfbfbf" points="125.5,-62 125.5,-81 194.5,-81 194.5,-62 125.5,-62"/>
<text text-anchor="middle" x="160" y="-69" font-family="Helvetica,sans-Serif" font-size="10.00" fill="#000000">Eigen/Core</text>
</g>
<!-- Node0&#45;&gt;Node3 -->
<g id="edge3" class="edge">
<title>Node0&#45;&gt;Node3</title>
<path fill="none" stroke="#191970" d="M183.9656,-123.2967C179.417,-113.4658 173.4654,-100.6026 168.6312,-90.1545"/>
<polygon fill="#191970" stroke="#191970" points="171.7967,-88.6609 164.421,-81.055 165.4437,-91.6003 171.7967,-88.6609"/>
</g>
<!-- Node4 -->
<g id="node5" class="node">
<title>Node4</title>
<polygon fill="#ffffff" stroke="#bfbfbf" points="230.5,-.5 230.5,-19.5 307.5,-19.5 307.5,-.5 230.5,-.5"/>
<text text-anchor="middle" x="269" y="-7.5" font-family="Helvetica,sans-Serif" font-size="10.00" fill="#000000">Eigen/Dense</text>
</g>
<!-- Node0&#45;&gt;Node4 -->
<g id="edge4" class="edge">
<title>Node0&#45;&gt;Node4</title>
<path fill="none" stroke="#191970" d="M200.2539,-123.2548C214.6386,-99.5568 242.3158,-53.9605 257.8042,-28.4444"/>
<polygon fill="#191970" stroke="#191970" points="260.8933,-30.1003 263.0903,-19.7358 254.9094,-26.4681 260.8933,-30.1003"/>
</g>
<!-- Node5 -->
<g id="node6" class="node">
<title>Node5</title>
<g id="a_node6"><a xlink:href="drake__assert_8h.html" target="_top" xlink:title="Provides Drake&#39;s assertion implementation. ">
<polygon fill="#ffffff" stroke="#000000" points="394.5,-56.5 394.5,-86.5 515.5,-86.5 515.5,-56.5 394.5,-56.5"/>
<text text-anchor="start" x="402.5" y="-74.5" font-family="Helvetica,sans-Serif" font-size="10.00" fill="#000000">drake/common/drake</text>
<text text-anchor="middle" x="455" y="-63.5" font-family="Helvetica,sans-Serif" font-size="10.00" fill="#000000">_assert.h</text>
</a>
</g>
</g>
<!-- Node0&#45;&gt;Node5 -->
<g id="edge5" class="edge">
<title>Node0&#45;&gt;Node5</title>
<path fill="none" stroke="#191970" d="M249.2627,-123.7136C289.5524,-113.4886 343.3362,-99.8389 385.8081,-89.0601"/>
<polygon fill="#191970" stroke="#191970" points="386.6837,-92.4489 395.5154,-86.5965 384.9617,-85.664 386.6837,-92.4489"/>
</g>
<!-- Node7 -->
<g id="node8" class="node">
<title>Node7</title>
<g id="a_node8"><a xlink:href="gradient_8h.html" target="_top" xlink:title="Utilities for arithmetic on gradients. ">
<polygon fill="#ffffff" stroke="#000000" points="251.5,-62 251.5,-81 376.5,-81 376.5,-62 251.5,-62"/>
<text text-anchor="middle" x="314" y="-69" font-family="Helvetica,sans-Serif" font-size="10.00" fill="#000000">drake/math/gradient.h</text>
</a>
</g>
</g>
<!-- Node0&#45;&gt;Node7 -->
<g id="edge7" class="edge">
<title>Node0&#45;&gt;Node7</title>
<path fill="none" stroke="#191970" d="M218.6036,-123.4639C239.1485,-112.2728 267.0327,-97.0838 287.3465,-86.0186"/>
<polygon fill="#191970" stroke="#191970" points="289.2615,-88.9611 296.3689,-81.1039 285.913,-82.8139 289.2615,-88.9611"/>
</g>
<!-- Node6 -->
<g id="node7" class="node">
<title>Node6</title>
<polygon fill="#ffffff" stroke="#bfbfbf" points="420.5,-.5 420.5,-19.5 489.5,-19.5 489.5,-.5 420.5,-.5"/>
<text text-anchor="middle" x="455" y="-7.5" font-family="Helvetica,sans-Serif" font-size="10.00" fill="#000000">type_traits</text>
</g>
<!-- Node5&#45;&gt;Node6 -->
<g id="edge6" class="edge">
<title>Node5&#45;&gt;Node6</title>
<path fill="none" stroke="#191970" d="M455,-56.2977C455,-48.3834 455,-38.6043 455,-30.0759"/>
<polygon fill="#191970" stroke="#191970" points="458.5001,-29.8469 455,-19.8469 451.5001,-29.847 458.5001,-29.8469"/>
</g>
<!-- Node7&#45;&gt;Node4 -->
<g id="edge8" class="edge">
<title>Node7&#45;&gt;Node4</title>
<path fill="none" stroke="#191970" d="M306.9688,-61.8906C300.337,-52.8273 290.2304,-39.0149 282.1113,-27.9188"/>
<polygon fill="#191970" stroke="#191970" points="284.8601,-25.7484 276.1304,-19.7449 279.2109,-29.882 284.8601,-25.7484"/>
</g>
</g>
</svg>
