<?xml version="1.0" encoding="UTF-8" standalone="no"?>
<!DOCTYPE svg PUBLIC "-//W3C//DTD SVG 1.1//EN"
 "http://www.w3.org/Graphics/SVG/1.1/DTD/svg11.dtd">
<!-- Generated by graphviz version 2.40.1 (20161225.0304)
 -->
<!-- Title: drake/solvers/gurobi_qp.h Pages: 1 -->
<svg width="280pt" height="106pt"
 viewBox="0.00 0.00 280.00 106.00" xmlns="http://www.w3.org/2000/svg" xmlns:xlink="http://www.w3.org/1999/xlink">
<g id="graph0" class="graph" transform="scale(1 1) rotate(0) translate(4 102)">
<title>drake/solvers/gurobi_qp.h</title>
<polygon fill="#ffffff" stroke="transparent" points="-4,4 -4,-102 276,-102 276,4 -4,4"/>
<!-- Node5 -->
<g id="node1" class="node">
<title>Node5</title>
<polygon fill="#bfbfbf" stroke="#000000" points="72,-78.5 72,-97.5 215,-97.5 215,-78.5 72,-78.5"/>
<text text-anchor="middle" x="143.5" y="-85.5" font-family="Helvetica,sans-Serif" font-size="10.00" fill="#000000">drake/solvers/gurobi_qp.h</text>
</g>
<!-- Node6 -->
<g id="node2" class="node">
<title>Node6</title>
<g id="a_node2"><a xlink:href="_instantaneous_q_p_controller_8h.html" target="_top" xlink:title="drake/attic/systems\l/controllers/Instantaneous\lQPController.h">
<polygon fill="#ffffff" stroke="#000000" points="0,-.5 0,-41.5 143,-41.5 143,-.5 0,-.5"/>
<text text-anchor="start" x="8" y="-29.5" font-family="Helvetica,sans-Serif" font-size="10.00" fill="#000000">drake/attic/systems</text>
<text text-anchor="start" x="8" y="-18.5" font-family="Helvetica,sans-Serif" font-size="10.00" fill="#000000">/controllers/Instantaneous</text>
<text text-anchor="middle" x="71.5" y="-7.5" font-family="Helvetica,sans-Serif" font-size="10.00" fill="#000000">QPController.h</text>
</a>
</g>
</g>
<!-- Node5&#45;&gt;Node6 -->
<g id="edge1" class="edge">
<title>Node5&#45;&gt;Node6</title>
<path fill="none" stroke="#191970" d="M125.7042,-71.44C116.0234,-62.4315 103.9591,-51.205 93.6715,-41.6318"/>
<polygon fill="#191970" stroke="#191970" points="123.4791,-74.1504 133.1842,-78.4005 128.2478,-69.0259 123.4791,-74.1504"/>
</g>
<!-- Node7 -->
<g id="node3" class="node">
<title>Node7</title>
<g id="a_node3"><a xlink:href="qp_8cc.html" target="_top" xlink:title="drake/solvers/qp.cc">
<polygon fill="#ffffff" stroke="#000000" points="161,-11.5 161,-30.5 272,-30.5 272,-11.5 161,-11.5"/>
<text text-anchor="middle" x="216.5" y="-18.5" font-family="Helvetica,sans-Serif" font-size="10.00" fill="#000000">drake/solvers/qp.cc</text>
</a>
</g>
</g>
<!-- Node5&#45;&gt;Node7 -->
<g id="edge2" class="edge">
<title>Node5&#45;&gt;Node7</title>
<path fill="none" stroke="#191970" d="M161.5429,-71.44C175.546,-58.5879 194.4679,-41.2212 206.0603,-30.5817"/>
<polygon fill="#191970" stroke="#191970" points="158.9599,-69.0601 153.9591,-78.4005 163.6931,-74.2173 158.9599,-69.0601"/>
</g>
</g>
</svg>
