<?xml version="1.0" encoding="UTF-8" standalone="no"?>
<!DOCTYPE svg PUBLIC "-//W3C//DTD SVG 1.1//EN"
 "http://www.w3.org/Graphics/SVG/1.1/DTD/svg11.dtd">
<!-- Generated by graphviz version 2.40.1 (20161225.0304)
 -->
<!-- Title: drake/examples/humanoid_controller/humanoid_status.h Pages: 1 -->
<!--zoomable 273 -->
<svg id="main" version="1.1" xmlns="http://www.w3.org/2000/svg" xmlns:xlink="http://www.w3.org/1999/xlink" xml:space="preserve" onload="init(evt)">
<style type="text/css"><![CDATA[
.edge:hover path { stroke: red; }
.edge:hover polygon { stroke: red; fill: red; }
]]></style>
<script type="text/javascript"><![CDATA[
var edges = document.getElementsByTagName('g');
if (edges && edges.length) {
  for (var i=0;i<edges.length;i++) {
    if (edges[i].id.substr(0,4)=='edge') {
      edges[i].setAttribute('class','edge');
    }
  }
}
]]></script>
        <defs>
                <circle id="rim" cx="0" cy="0" r="7"/>
                <circle id="rim2" cx="0" cy="0" r="3.5"/>
                <g id="zoomPlus">
                        <use xlink:href="#rim" fill="#404040">
                                <set attributeName="fill" to="#808080" begin="zoomplus.mouseover" end="zoomplus.mouseout"/>
                        </use>
                        <path d="M-4,0h8M0,-4v8" fill="none" stroke="white" stroke-width="1.5" pointer-events="none"/>
                </g>
                <g id="zoomMin">
                        <use xlink:href="#rim" fill="#404040">
                                <set attributeName="fill" to="#808080" begin="zoomminus.mouseover" end="zoomminus.mouseout"/>
                        </use>
                        <path d="M-4,0h8" fill="none" stroke="white" stroke-width="1.5" pointer-events="none"/>
                </g>
                <g id="dirArrow">
                        <path fill="none" stroke="white" stroke-width="1.5" d="M0,-3.0v7 M-2.5,-0.5L0,-3.0L2.5,-0.5"/>
                </g>
               <g id="resetDef">
                       <use xlink:href="#rim2" fill="#404040">
                               <set attributeName="fill" to="#808080" begin="reset.mouseover" end="reset.mouseout"/>
                       </use>
               </g>
        </defs>

<script type="text/javascript">
var viewWidth = 555;
var viewHeight = 273;
var sectionId = 'dynsection-1';
</script>
<script xlink:href="svgpan.js"/>
<svg id="graph" class="graph">
<g id="viewport">
<title>drake/examples/humanoid_controller/humanoid_status.h</title>
<polygon fill="#ffffff" stroke="transparent" points="-4,4 -4,-269 550.5,-269 550.5,4 -4,4"/>
<!-- Node19 -->
<g id="node1" class="node">
<title>Node19</title>
<polygon fill="#bfbfbf" stroke="#000000" points="167.5,-234.5 167.5,-264.5 331.5,-264.5 331.5,-234.5 167.5,-234.5"/>
<text text-anchor="start" x="175.5" y="-252.5" font-family="Helvetica,sans-Serif" font-size="10.00" fill="#000000">drake/examples/humanoid</text>
<text text-anchor="middle" x="249.5" y="-241.5" font-family="Helvetica,sans-Serif" font-size="10.00" fill="#000000">_controller/humanoid_status.h</text>
</g>
<!-- Node20 -->
<g id="node2" class="node">
<title>Node20</title>
<g id="a_node2"><a xlink:href="humanoid__status_8cc.html" target="_top" xlink:title="drake/examples/humanoid\l_controller/humanoid_status.cc">
<polygon fill="#ffffff" stroke="#000000" points="0,-162 0,-192 169,-192 169,-162 0,-162"/>
<text text-anchor="start" x="8" y="-180" font-family="Helvetica,sans-Serif" font-size="10.00" fill="#000000">drake/examples/humanoid</text>
<text text-anchor="middle" x="84.5" y="-169" font-family="Helvetica,sans-Serif" font-size="10.00" fill="#000000">_controller/humanoid_status.cc</text>
</a>
</g>
</g>
<!-- Node19&#45;&gt;Node20 -->
<g id="edge1" class="edge">
<title>Node19&#45;&gt;Node20</title>
<path fill="none" stroke="#191970" d="M205.9881,-230.3811C178.6777,-218.3811 143.9649,-203.1285 118.6443,-192.0028"/>
<polygon fill="#191970" stroke="#191970" points="204.7487,-233.6595 215.3119,-234.478 207.5647,-227.2508 204.7487,-233.6595"/>
</g>
<!-- Node21 -->
<g id="node3" class="node">
<title>Node21</title>
<g id="a_node3"><a xlink:href="humanoid__status__translator__system_8cc.html" target="_top" xlink:title="drake/examples/humanoid\l_controller/humanoid_status\l_translator_system.cc">
<polygon fill="#ffffff" stroke="#000000" points="119,-78.5 119,-119.5 274,-119.5 274,-78.5 119,-78.5"/>
<text text-anchor="start" x="127" y="-107.5" font-family="Helvetica,sans-Serif" font-size="10.00" fill="#000000">drake/examples/humanoid</text>
<text text-anchor="start" x="127" y="-96.5" font-family="Helvetica,sans-Serif" font-size="10.00" fill="#000000">_controller/humanoid_status</text>
<text text-anchor="middle" x="196.5" y="-85.5" font-family="Helvetica,sans-Serif" font-size="10.00" fill="#000000">_translator_system.cc</text>
</a>
</g>
</g>
<!-- Node19&#45;&gt;Node21 -->
<g id="edge2" class="edge">
<title>Node19&#45;&gt;Node21</title>
<path fill="none" stroke="#191970" d="M231.1508,-225.968C225.3649,-217.5448 219.4571,-207.7216 215.5,-198 205.0091,-172.2265 200.2205,-140.2785 198.0978,-119.7682"/>
<polygon fill="#191970" stroke="#191970" points="228.3714,-228.098 237.0493,-234.1762 234.0559,-224.013 228.3714,-228.098"/>
</g>
<!-- Node22 -->
<g id="node4" class="node">
<title>Node22</title>
<g id="a_node4"><a xlink:href="humanoid__status__translator__system_8h.html" target="_top" xlink:title="drake/examples/humanoid\l_controller/humanoid_status\l_translator_system.h">
<polygon fill="#ffffff" stroke="#000000" points="225,-156.5 225,-197.5 380,-197.5 380,-156.5 225,-156.5"/>
<text text-anchor="start" x="233" y="-185.5" font-family="Helvetica,sans-Serif" font-size="10.00" fill="#000000">drake/examples/humanoid</text>
<text text-anchor="start" x="233" y="-174.5" font-family="Helvetica,sans-Serif" font-size="10.00" fill="#000000">_controller/humanoid_status</text>
<text text-anchor="middle" x="302.5" y="-163.5" font-family="Helvetica,sans-Serif" font-size="10.00" fill="#000000">_translator_system.h</text>
</a>
</g>
</g>
<!-- Node19&#45;&gt;Node22 -->
<g id="edge3" class="edge">
<title>Node19&#45;&gt;Node22</title>
<path fill="none" stroke="#191970" d="M266.5874,-226.1258C273.3249,-216.9094 280.9954,-206.4167 287.5127,-197.5015"/>
<polygon fill="#191970" stroke="#191970" points="263.5577,-224.3395 260.4816,-234.478 269.2088,-228.4706 263.5577,-224.3395"/>
</g>
<!-- Node25 -->
<g id="node7" class="node">
<title>Node25</title>
<g id="a_node7"><a xlink:href="humanoid__plan__eval__system__test_8cc.html" target="_top" xlink:title="drake/examples/humanoid\l_controller/test/humanoid\l_plan_eval_system_test.cc">
<polygon fill="#ffffff" stroke="#000000" points="398.5,-156.5 398.5,-197.5 546.5,-197.5 546.5,-156.5 398.5,-156.5"/>
<text text-anchor="start" x="406.5" y="-185.5" font-family="Helvetica,sans-Serif" font-size="10.00" fill="#000000">drake/examples/humanoid</text>
<text text-anchor="start" x="406.5" y="-174.5" font-family="Helvetica,sans-Serif" font-size="10.00" fill="#000000">_controller/test/humanoid</text>
<text text-anchor="middle" x="472.5" y="-163.5" font-family="Helvetica,sans-Serif" font-size="10.00" fill="#000000">_plan_eval_system_test.cc</text>
</a>
</g>
</g>
<!-- Node19&#45;&gt;Node25 -->
<g id="edge7" class="edge">
<title>Node19&#45;&gt;Node25</title>
<path fill="none" stroke="#191970" d="M305.2553,-231.3733C336.9147,-221.0804 376.647,-208.163 409.4402,-197.5015"/>
<polygon fill="#191970" stroke="#191970" points="304.1336,-228.0575 295.7057,-234.478 306.2979,-234.7146 304.1336,-228.0575"/>
</g>
<!-- Node22&#45;&gt;Node21 -->
<g id="edge6" class="edge">
<title>Node22&#45;&gt;Node21</title>
<path fill="none" stroke="#191970" d="M266.1164,-150.2272C252.4573,-140.1761 237.16,-128.9196 224.3914,-119.5239"/>
<polygon fill="#191970" stroke="#191970" points="264.2434,-153.1944 274.3722,-156.3022 268.3922,-147.5563 264.2434,-153.1944"/>
</g>
<!-- Node23 -->
<g id="node5" class="node">
<title>Node23</title>
<g id="a_node5"><a xlink:href="humanoid__controller_8h.html" target="_top" xlink:title="drake/examples/humanoid\l_controller/humanoid_controller.h">
<polygon fill="#ffffff" stroke="#000000" points="292,-84 292,-114 473,-114 473,-84 292,-84"/>
<text text-anchor="start" x="300" y="-102" font-family="Helvetica,sans-Serif" font-size="10.00" fill="#000000">drake/examples/humanoid</text>
<text text-anchor="middle" x="382.5" y="-91" font-family="Helvetica,sans-Serif" font-size="10.00" fill="#000000">_controller/humanoid_controller.h</text>
</a>
</g>
</g>
<!-- Node22&#45;&gt;Node23 -->
<g id="edge4" class="edge">
<title>Node22&#45;&gt;Node23</title>
<path fill="none" stroke="#191970" d="M331.2368,-148.9816C343.3403,-137.1807 356.9418,-123.9193 367.0915,-114.0233"/>
<polygon fill="#191970" stroke="#191970" points="328.6552,-146.6104 323.9385,-156.0974 333.5419,-151.6224 328.6552,-146.6104"/>
</g>
<!-- Node24 -->
<g id="node6" class="node">
<title>Node24</title>
<g id="a_node6"><a xlink:href="valkyrie__balancing__demo_8cc.html" target="_top" xlink:title="drake/examples/humanoid\l_controller/valkyrie_balancing\l_demo.cc">
<polygon fill="#ffffff" stroke="#000000" points="300.5,-.5 300.5,-41.5 464.5,-41.5 464.5,-.5 300.5,-.5"/>
<text text-anchor="start" x="308.5" y="-29.5" font-family="Helvetica,sans-Serif" font-size="10.00" fill="#000000">drake/examples/humanoid</text>
<text text-anchor="start" x="308.5" y="-18.5" font-family="Helvetica,sans-Serif" font-size="10.00" fill="#000000">_controller/valkyrie_balancing</text>
<text text-anchor="middle" x="382.5" y="-7.5" font-family="Helvetica,sans-Serif" font-size="10.00" fill="#000000">_demo.cc</text>
</a>
</g>
</g>
<!-- Node23&#45;&gt;Node24 -->
<g id="edge5" class="edge">
<title>Node23&#45;&gt;Node24</title>
<path fill="none" stroke="#191970" d="M382.5,-73.8044C382.5,-63.3919 382.5,-51.4721 382.5,-41.5956"/>
<polygon fill="#191970" stroke="#191970" points="379.0001,-73.9608 382.5,-83.9608 386.0001,-73.9608 379.0001,-73.9608"/>
</g>
</g>
</svg>
        <g id="navigator" transform="translate(0 0)" fill="#404254">
                <rect fill="#f2f5e9" fill-opacity="0.5" stroke="#606060" stroke-width=".5" x="0" y="0" width="60" height="60"/>
                <use id="zoomplus" xlink:href="#zoomPlus" x="17" y="9" onmousedown="handleZoom(evt,'in')"/>
                <use id="zoomminus" xlink:href="#zoomMin" x="42" y="9" onmousedown="handleZoom(evt,'out')"/>
                <use id="reset" xlink:href="#resetDef" x="30" y="36" onmousedown="handleReset()"/>
                <g id="arrowUp" xlink:href="#dirArrow" transform="translate(30 24)" onmousedown="handlePan(0,-1)">
                  <use xlink:href="#rim" fill="#404040">
                        <set attributeName="fill" to="#808080" begin="arrowUp.mouseover" end="arrowUp.mouseout"/>
                  </use>
                  <path fill="none" stroke="white" stroke-width="1.5" d="M0,-3.0v7 M-2.5,-0.5L0,-3.0L2.5,-0.5"/>
                </g>
                <g id="arrowRight" xlink:href="#dirArrow" transform="rotate(90) translate(36 -43)" onmousedown="handlePan(1,0)">
                  <use xlink:href="#rim" fill="#404040">
                        <set attributeName="fill" to="#808080" begin="arrowRight.mouseover" end="arrowRight.mouseout"/>
                  </use>
                  <path fill="none" stroke="white" stroke-width="1.5" d="M0,-3.0v7 M-2.5,-0.5L0,-3.0L2.5,-0.5"/>
                </g>
                <g id="arrowDown" xlink:href="#dirArrow" transform="rotate(180) translate(-30 -48)" onmousedown="handlePan(0,1)">
                  <use xlink:href="#rim" fill="#404040">
                        <set attributeName="fill" to="#808080" begin="arrowDown.mouseover" end="arrowDown.mouseout"/>
                  </use>
                  <path fill="none" stroke="white" stroke-width="1.5" d="M0,-3.0v7 M-2.5,-0.5L0,-3.0L2.5,-0.5"/>
                </g>
                <g id="arrowLeft" xlink:href="#dirArrow" transform="rotate(270) translate(-36 17)" onmousedown="handlePan(-1,0)">
                  <use xlink:href="#rim" fill="#404040">
                        <set attributeName="fill" to="#808080" begin="arrowLeft.mouseover" end="arrowLeft.mouseout"/>
                  </use>
                  <path fill="none" stroke="white" stroke-width="1.5" d="M0,-3.0v7 M-2.5,-0.5L0,-3.0L2.5,-0.5"/>
                </g>
        </g>
        <svg viewBox="0 0 15 15" width="100%" height="30px" preserveAspectRatio="xMaxYMin meet">
         <g id="arrow_out" transform="scale(0.3 0.3)">
          <a xlink:href="humanoid__status_8h__dep__incl_org.svg" target="_base">
           <rect id="button" ry="5" rx="5" y="6" x="6" height="38" width="38"
                fill="#f2f5e9" fill-opacity="0.5" stroke="#606060" stroke-width="1.0"/>
           <path id="arrow"
             d="M 11.500037,31.436501 C 11.940474,20.09759 22.043105,11.32322 32.158766,21.979434 L 37.068811,17.246167 C 37.068811,17.246167 37.088388,32 37.088388,32 L 22.160133,31.978069 C 22.160133,31.978069 26.997745,27.140456 26.997745,27.140456 C 18.528582,18.264221 13.291696,25.230495 11.500037,31.436501 z"
             style="fill:#404040;"/>
          </a>
         </g>
        </svg>
</svg>
