<?xml version="1.0" encoding="UTF-8" standalone="no"?>
<!DOCTYPE svg PUBLIC "-//W3C//DTD SVG 1.1//EN"
 "http://www.w3.org/Graphics/SVG/1.1/DTD/svg11.dtd">
<!-- Generated by graphviz version 2.40.1 (20161225.0304)
 -->
<!-- Title: drake/examples/kuka_iiwa_arm/iiwa_common.h Pages: 1 -->
<svg width="1888pt" height="441pt"
 viewBox="0.00 0.00 1887.50 441.00" xmlns="http://www.w3.org/2000/svg" xmlns:xlink="http://www.w3.org/1999/xlink">
<g id="graph0" class="graph" transform="scale(1 1) rotate(0) translate(4 437)">
<title>drake/examples/kuka_iiwa_arm/iiwa_common.h</title>
<polygon fill="#ffffff" stroke="transparent" points="-4,4 -4,-437 1883.5,-437 1883.5,4 -4,4"/>
<!-- Node0 -->
<g id="node1" class="node">
<title>Node0</title>
<polygon fill="#bfbfbf" stroke="#000000" points="1209,-402.5 1209,-432.5 1356,-432.5 1356,-402.5 1209,-402.5"/>
<text text-anchor="start" x="1217" y="-420.5" font-family="Helvetica,sans-Serif" font-size="10.00" fill="#000000">drake/examples/kuka</text>
<text text-anchor="middle" x="1282.5" y="-409.5" font-family="Helvetica,sans-Serif" font-size="10.00" fill="#000000">_iiwa_arm/iiwa_common.h</text>
</g>
<!-- Node1 -->
<g id="node2" class="node">
<title>Node1</title>
<polygon fill="#ffffff" stroke="#bfbfbf" points="1420.5,-6 1420.5,-25 1478.5,-25 1478.5,-6 1420.5,-6"/>
<text text-anchor="middle" x="1449.5" y="-13" font-family="Helvetica,sans-Serif" font-size="10.00" fill="#000000">memory</text>
</g>
<!-- Node0&#45;&gt;Node1 -->
<g id="edge1" class="edge">
<title>Node0&#45;&gt;Node1</title>
<path fill="none" stroke="#191970" d="M1208.9066,-415.6084C1018.2535,-408.2643 533.3736,-372.6456 684.5,-201 726.2475,-153.5842 904.7601,-178.3901 966.5,-165 1138.0252,-127.7997 1336.2589,-57.5095 1414.8433,-28.5125"/>
<polygon fill="#191970" stroke="#191970" points="1416.0972,-31.7805 1424.2584,-25.0243 1413.6653,-25.2165 1416.0972,-31.7805"/>
</g>
<!-- Node2 -->
<g id="node3" class="node">
<title>Node2</title>
<polygon fill="#ffffff" stroke="#bfbfbf" points="397.5,-207 397.5,-226 441.5,-226 441.5,-207 397.5,-207"/>
<text text-anchor="middle" x="419.5" y="-214" font-family="Helvetica,sans-Serif" font-size="10.00" fill="#000000">string</text>
</g>
<!-- Node0&#45;&gt;Node2 -->
<g id="edge2" class="edge">
<title>Node0&#45;&gt;Node2</title>
<path fill="none" stroke="#191970" d="M1208.8277,-415.969C1065.1795,-412.2514 752.8587,-400.3707 651.5,-366 563.2786,-336.0842 475.2509,-265.3846 438.003,-233.0995"/>
<polygon fill="#191970" stroke="#191970" points="439.8735,-230.0842 430.0497,-226.1162 435.2549,-235.3443 439.8735,-230.0842"/>
</g>
<!-- Node3 -->
<g id="node4" class="node">
<title>Node3</title>
<polygon fill="#ffffff" stroke="#bfbfbf" points="1188,-207 1188,-226 1235,-226 1235,-207 1188,-207"/>
<text text-anchor="middle" x="1211.5" y="-214" font-family="Helvetica,sans-Serif" font-size="10.00" fill="#000000">vector</text>
</g>
<!-- Node0&#45;&gt;Node3 -->
<g id="edge3" class="edge">
<title>Node0&#45;&gt;Node3</title>
<path fill="none" stroke="#191970" d="M1248.7667,-402.3642C1234.1998,-393.9147 1218.6523,-381.8543 1210.5,-366 1188.9246,-324.041 1198.4934,-266.2921 1205.8556,-236.3327"/>
<polygon fill="#191970" stroke="#191970" points="1209.3351,-236.8638 1208.4997,-226.302 1202.5663,-235.0795 1209.3351,-236.8638"/>
</g>
<!-- Node4 -->
<g id="node5" class="node">
<title>Node4</title>
<polygon fill="#ffffff" stroke="#bfbfbf" points="1220,-335.5 1220,-365.5 1345,-365.5 1345,-335.5 1220,-335.5"/>
<text text-anchor="start" x="1228" y="-353.5" font-family="Helvetica,sans-Serif" font-size="10.00" fill="#000000">robotlocomotion/robot</text>
<text text-anchor="middle" x="1282.5" y="-342.5" font-family="Helvetica,sans-Serif" font-size="10.00" fill="#000000">_plan_t.hpp</text>
</g>
<!-- Node0&#45;&gt;Node4 -->
<g id="edge4" class="edge">
<title>Node0&#45;&gt;Node4</title>
<path fill="none" stroke="#191970" d="M1282.5,-402.2967C1282.5,-394.5013 1282.5,-384.7991 1282.5,-375.9064"/>
<polygon fill="#191970" stroke="#191970" points="1286.0001,-375.6431 1282.5,-365.6432 1279.0001,-375.6432 1286.0001,-375.6431"/>
</g>
<!-- Node5 -->
<g id="node6" class="node">
<title>Node5</title>
<g id="a_node6"><a xlink:href="eigen__types_8h.html" target="_top" xlink:title="This file contains abbreviated definitions for certain specializations of Eigen::Matrix that are comm...">
<polygon fill="#ffffff" stroke="#000000" points="1515.5,-67.5 1515.5,-97.5 1635.5,-97.5 1635.5,-67.5 1515.5,-67.5"/>
<text text-anchor="start" x="1523.5" y="-85.5" font-family="Helvetica,sans-Serif" font-size="10.00" fill="#000000">drake/common/eigen</text>
<text text-anchor="middle" x="1575.5" y="-74.5" font-family="Helvetica,sans-Serif" font-size="10.00" fill="#000000">_types.h</text>
</a>
</g>
</g>
<!-- Node0&#45;&gt;Node5 -->
<g id="edge5" class="edge">
<title>Node0&#45;&gt;Node5</title>
<path fill="none" stroke="#191970" d="M1356.2169,-406.5193C1403.9177,-398.2089 1466.8918,-384.9557 1520.5,-366 1582.9017,-343.9349 1612.0714,-350.6189 1653.5,-299 1699.4087,-241.7991 1693.6863,-193.2832 1650.5,-134 1641.4323,-121.5524 1628.3926,-111.1162 1615.7217,-102.9647"/>
<polygon fill="#191970" stroke="#191970" points="1617.423,-99.9028 1607.0619,-97.6897 1613.7815,-105.8811 1617.423,-99.9028"/>
</g>
<!-- Node9 -->
<g id="node10" class="node">
<title>Node9</title>
<g id="a_node10"><a xlink:href="piecewise__polynomial_8h.html" target="_top" xlink:title="drake/common/trajectories\l/piecewise_polynomial.h">
<polygon fill="#ffffff" stroke="#000000" points="1363,-335.5 1363,-365.5 1512,-365.5 1512,-335.5 1363,-335.5"/>
<text text-anchor="start" x="1371" y="-353.5" font-family="Helvetica,sans-Serif" font-size="10.00" fill="#000000">drake/common/trajectories</text>
<text text-anchor="middle" x="1437.5" y="-342.5" font-family="Helvetica,sans-Serif" font-size="10.00" fill="#000000">/piecewise_polynomial.h</text>
</a>
</g>
</g>
<!-- Node0&#45;&gt;Node9 -->
<g id="edge10" class="edge">
<title>Node0&#45;&gt;Node9</title>
<path fill="none" stroke="#191970" d="M1317.285,-402.4639C1339.742,-392.7567 1369.1577,-380.0415 1393.27,-369.6188"/>
<polygon fill="#191970" stroke="#191970" points="1394.7728,-372.7822 1402.5633,-365.6017 1391.9954,-366.3568 1394.7728,-372.7822"/>
</g>
<!-- Node35 -->
<g id="node36" class="node">
<title>Node35</title>
<polygon fill="#ffffff" stroke="#bfbfbf" points="1757.5,-335.5 1757.5,-365.5 1879.5,-365.5 1879.5,-335.5 1757.5,-335.5"/>
<text text-anchor="start" x="1765.5" y="-353.5" font-family="Helvetica,sans-Serif" font-size="10.00" fill="#000000">drake/multibody/rigid</text>
<text text-anchor="middle" x="1818.5" y="-342.5" font-family="Helvetica,sans-Serif" font-size="10.00" fill="#000000">_body_tree.h</text>
</g>
<!-- Node0&#45;&gt;Node35 -->
<g id="edge62" class="edge">
<title>Node0&#45;&gt;Node35</title>
<path fill="none" stroke="#191970" d="M1356.2372,-411.3824C1447.4937,-403.3243 1607.4943,-387.6033 1743.5,-366 1744.7557,-365.8005 1746.0222,-365.5944 1747.297,-365.3822"/>
<polygon fill="#191970" stroke="#191970" points="1747.9422,-368.8226 1757.1899,-363.6525 1746.7365,-361.9272 1747.9422,-368.8226"/>
</g>
<!-- Node5&#45;&gt;Node1 -->
<g id="edge6" class="edge">
<title>Node5&#45;&gt;Node1</title>
<path fill="none" stroke="#191970" d="M1547.2231,-67.4639C1526.082,-56.2222 1497.3542,-40.9463 1476.5216,-29.8686"/>
<polygon fill="#191970" stroke="#191970" points="1478.0337,-26.7087 1467.5611,-25.1039 1474.7472,-32.8892 1478.0337,-26.7087"/>
</g>
<!-- Node6 -->
<g id="node7" class="node">
<title>Node6</title>
<polygon fill="#ffffff" stroke="#bfbfbf" points="859,-6 859,-25 936,-25 936,-6 859,-6"/>
<text text-anchor="middle" x="897.5" y="-13" font-family="Helvetica,sans-Serif" font-size="10.00" fill="#000000">Eigen/Dense</text>
</g>
<!-- Node5&#45;&gt;Node6 -->
<g id="edge7" class="edge">
<title>Node5&#45;&gt;Node6</title>
<path fill="none" stroke="#191970" d="M1515.332,-76.5542C1382.7558,-63.453 1067.6271,-32.312 946.2894,-20.3214"/>
<polygon fill="#191970" stroke="#191970" points="946.4789,-16.8231 936.1831,-19.3227 945.7904,-23.7892 946.4789,-16.8231"/>
</g>
<!-- Node7 -->
<g id="node8" class="node">
<title>Node7</title>
<g id="a_node8"><a xlink:href="constants_8h.html" target="_top" xlink:title="drake/common/constants.h">
<polygon fill="#ffffff" stroke="#000000" points="1498,-6 1498,-25 1647,-25 1647,-6 1498,-6"/>
<text text-anchor="middle" x="1572.5" y="-13" font-family="Helvetica,sans-Serif" font-size="10.00" fill="#000000">drake/common/constants.h</text>
</a>
</g>
</g>
<!-- Node5&#45;&gt;Node7 -->
<g id="edge8" class="edge">
<title>Node5&#45;&gt;Node7</title>
<path fill="none" stroke="#191970" d="M1574.8193,-67.2967C1574.3927,-57.7699 1573.8386,-45.3954 1573.379,-35.1306"/>
<polygon fill="#191970" stroke="#191970" points="1576.8717,-34.8884 1572.9278,-25.055 1569.8787,-35.2016 1576.8717,-34.8884"/>
</g>
<!-- Node8 -->
<g id="node9" class="node">
<title>Node8</title>
<g id="a_node9"><a xlink:href="drake__copyable_8h.html" target="_top" xlink:title="Provides careful macros to selectively enable or disable the special member functions for copy&#45;constr...">
<polygon fill="#ffffff" stroke="#000000" points="1665,-.5 1665,-30.5 1786,-30.5 1786,-.5 1665,-.5"/>
<text text-anchor="start" x="1673" y="-18.5" font-family="Helvetica,sans-Serif" font-size="10.00" fill="#000000">drake/common/drake</text>
<text text-anchor="middle" x="1725.5" y="-7.5" font-family="Helvetica,sans-Serif" font-size="10.00" fill="#000000">_copyable.h</text>
</a>
</g>
</g>
<!-- Node5&#45;&gt;Node8 -->
<g id="edge9" class="edge">
<title>Node5&#45;&gt;Node8</title>
<path fill="none" stroke="#191970" d="M1609.1629,-67.4639C1630.7993,-57.7996 1659.1105,-45.154 1682.3868,-34.7572"/>
<polygon fill="#191970" stroke="#191970" points="1683.9871,-37.8758 1691.6903,-30.6017 1681.1322,-31.4844 1683.9871,-37.8758"/>
</g>
<!-- Node9&#45;&gt;Node1 -->
<g id="edge12" class="edge">
<title>Node9&#45;&gt;Node1</title>
<path fill="none" stroke="#191970" d="M1475.702,-335.3603C1514.9039,-317.4096 1573.3359,-283.3013 1596.5,-232 1626.856,-164.771 1511.3736,-104.2618 1506.5,-98 1489.8998,-76.6712 1472.4706,-50.8704 1461.323,-33.8659"/>
<polygon fill="#191970" stroke="#191970" points="1464.2081,-31.8822 1455.8214,-25.4081 1458.3403,-35.6992 1464.2081,-31.8822"/>
</g>
<!-- Node9&#45;&gt;Node3 -->
<g id="edge13" class="edge">
<title>Node9&#45;&gt;Node3</title>
<path fill="none" stroke="#191970" d="M1397.7439,-335.4557C1374.8252,-326.1492 1345.8252,-313.2742 1321.5,-299 1287.4807,-279.0372 1251.5505,-250.4746 1230.3487,-232.7302"/>
<polygon fill="#191970" stroke="#191970" points="1232.3626,-229.8494 1222.4676,-226.0627 1227.8414,-235.1936 1232.3626,-229.8494"/>
</g>
<!-- Node9&#45;&gt;Node5 -->
<g id="edge16" class="edge">
<title>Node9&#45;&gt;Node5</title>
<path fill="none" stroke="#191970" d="M1512.0072,-339.9866C1559.5511,-331.5784 1614.901,-318.0309 1629.5,-299 1674.1349,-240.8149 1658.3641,-201.414 1629.5,-134 1624.5603,-122.4629 1615.6263,-112.2827 1606.4284,-104.0845"/>
<polygon fill="#191970" stroke="#191970" points="1608.6493,-101.3793 1598.722,-97.678 1604.1744,-106.7622 1608.6493,-101.3793"/>
</g>
<!-- Node9&#45;&gt;Node8 -->
<g id="edge15" class="edge">
<title>Node9&#45;&gt;Node8</title>
<path fill="none" stroke="#191970" d="M1512.045,-341.0441C1566.2493,-332.6783 1633.4894,-318.7195 1653.5,-299 1725.4071,-228.139 1729.0526,-96.3652 1727.0921,-41.0198"/>
<polygon fill="#191970" stroke="#191970" points="1730.5744,-40.5464 1726.6276,-30.7142 1723.5815,-40.8616 1730.5744,-40.5464"/>
</g>
<!-- Node10 -->
<g id="node11" class="node">
<title>Node10</title>
<polygon fill="#ffffff" stroke="#bfbfbf" points="268.5,-6 268.5,-25 312.5,-25 312.5,-6 268.5,-6"/>
<text text-anchor="middle" x="290.5" y="-13" font-family="Helvetica,sans-Serif" font-size="10.00" fill="#000000">limits</text>
</g>
<!-- Node9&#45;&gt;Node10 -->
<g id="edge11" class="edge">
<title>Node9&#45;&gt;Node10</title>
<path fill="none" stroke="#191970" d="M1362.9161,-336.2625C1359.7395,-335.8064 1356.5906,-335.3824 1353.5,-335 1104.2242,-304.1563 1039.0278,-327.7339 789.5,-299 609.9935,-278.3293 564.5622,-272.6447 388.5,-232 232.2513,-195.9293 131.759,-237.9653 53.5,-98 46.7761,-85.9744 44.8537,-77.727 53.5,-67 53.9058,-66.4966 193.4051,-36.4058 258.1658,-22.459"/>
<polygon fill="#191970" stroke="#191970" points="259.2106,-25.8144 268.2497,-20.2878 257.737,-18.9712 259.2106,-25.8144"/>
</g>
<!-- Node11 -->
<g id="node12" class="node">
<title>Node11</title>
<polygon fill="#ffffff" stroke="#bfbfbf" points="1301,-140 1301,-159 1370,-159 1370,-140 1301,-140"/>
<text text-anchor="middle" x="1335.5" y="-147" font-family="Helvetica,sans-Serif" font-size="10.00" fill="#000000">Eigen/Core</text>
</g>
<!-- Node9&#45;&gt;Node11 -->
<g id="edge14" class="edge">
<title>Node9&#45;&gt;Node11</title>
<path fill="none" stroke="#191970" d="M1397.92,-335.4748C1381.5256,-327.2114 1363.9361,-315.2705 1353.5,-299 1327.7185,-258.8051 1329.5646,-199.8564 1332.7379,-169.381"/>
<polygon fill="#191970" stroke="#191970" points="1336.244,-169.5403 1333.9643,-159.1936 1329.2941,-168.7036 1336.244,-169.5403"/>
</g>
<!-- Node12 -->
<g id="node13" class="node">
<title>Node12</title>
<g id="a_node13"><a xlink:href="polynomial_8h.html" target="_top" xlink:title="drake/common/polynomial.h">
<polygon fill="#ffffff" stroke="#000000" points="799,-274 799,-293 956,-293 956,-274 799,-274"/>
<text text-anchor="middle" x="877.5" y="-281" font-family="Helvetica,sans-Serif" font-size="10.00" fill="#000000">drake/common/polynomial.h</text>
</a>
</g>
</g>
<!-- Node9&#45;&gt;Node12 -->
<g id="edge17" class="edge">
<title>Node9&#45;&gt;Node12</title>
<path fill="none" stroke="#191970" d="M1362.8929,-336.4343C1359.7226,-335.9311 1356.5815,-335.4504 1353.5,-335 1218.9918,-315.3416 1062.0812,-299.7826 966.2847,-291.108"/>
<polygon fill="#191970" stroke="#191970" points="966.3341,-287.5984 956.0604,-290.1873 965.7062,-294.5701 966.3341,-287.5984"/>
</g>
<!-- Node33 -->
<g id="node34" class="node">
<title>Node33</title>
<g id="a_node34"><a xlink:href="piecewise__trajectory_8h.html" target="_top" xlink:title="drake/common/trajectories\l/piecewise_trajectory.h">
<polygon fill="#ffffff" stroke="#000000" points="1363,-268.5 1363,-298.5 1512,-298.5 1512,-268.5 1363,-268.5"/>
<text text-anchor="start" x="1371" y="-286.5" font-family="Helvetica,sans-Serif" font-size="10.00" fill="#000000">drake/common/trajectories</text>
<text text-anchor="middle" x="1437.5" y="-275.5" font-family="Helvetica,sans-Serif" font-size="10.00" fill="#000000">/piecewise_trajectory.h</text>
</a>
</g>
</g>
<!-- Node9&#45;&gt;Node33 -->
<g id="edge52" class="edge">
<title>Node9&#45;&gt;Node33</title>
<path fill="none" stroke="#191970" d="M1437.5,-335.2967C1437.5,-327.5013 1437.5,-317.7991 1437.5,-308.9064"/>
<polygon fill="#191970" stroke="#191970" points="1441.0001,-308.6431 1437.5,-298.6432 1434.0001,-308.6432 1441.0001,-308.6431"/>
</g>
<!-- Node12&#45;&gt;Node2 -->
<g id="edge23" class="edge">
<title>Node12&#45;&gt;Node2</title>
<path fill="none" stroke="#191970" d="M798.8309,-275.1238C685.8922,-262.9121 487.7853,-240.7271 455.5,-232 453.1721,-231.3708 450.7989,-230.6187 448.4375,-229.7899"/>
<polygon fill="#191970" stroke="#191970" points="449.5307,-226.4592 438.9431,-226.0688 446.9763,-232.9765 449.5307,-226.4592"/>
</g>
<!-- Node12&#45;&gt;Node3 -->
<g id="edge24" class="edge">
<title>Node12&#45;&gt;Node3</title>
<path fill="none" stroke="#191970" d="M956.1275,-274.5049C1016.3826,-266.4913 1101.1836,-252.7775 1173.5,-232 1175.9567,-231.2942 1178.4711,-230.4818 1180.9788,-229.6065"/>
<polygon fill="#191970" stroke="#191970" points="1182.3663,-232.8237 1190.4811,-226.0119 1179.8896,-226.2765 1182.3663,-232.8237"/>
</g>
<!-- Node12&#45;&gt;Node11 -->
<g id="edge25" class="edge">
<title>Node12&#45;&gt;Node11</title>
<path fill="none" stroke="#191970" d="M956.2811,-278.1825C1010.2323,-272.161 1082.2713,-259.3299 1140.5,-232 1160.2307,-222.7393 1159.3789,-211.4616 1178.5,-201 1214.1516,-181.4943 1258.4245,-167.8057 1290.8589,-159.4694"/>
<polygon fill="#191970" stroke="#191970" points="1292.0934,-162.7687 1300.9476,-156.9503 1290.3975,-155.9772 1292.0934,-162.7687"/>
</g>
<!-- Node13 -->
<g id="node14" class="node">
<title>Node13</title>
<polygon fill="#ffffff" stroke="#bfbfbf" points="694,-207 694,-226 753,-226 753,-207 694,-207"/>
<text text-anchor="middle" x="723.5" y="-214" font-family="Helvetica,sans-Serif" font-size="10.00" fill="#000000">complex</text>
</g>
<!-- Node12&#45;&gt;Node13 -->
<g id="edge18" class="edge">
<title>Node12&#45;&gt;Node13</title>
<path fill="none" stroke="#191970" d="M855.4356,-273.9005C829.1335,-262.4574 784.9872,-243.2509 755.0755,-230.2374"/>
<polygon fill="#191970" stroke="#191970" points="756.0896,-226.8617 745.5235,-226.0817 753.297,-233.2806 756.0896,-226.8617"/>
</g>
<!-- Node14 -->
<g id="node15" class="node">
<title>Node14</title>
<polygon fill="#ffffff" stroke="#bfbfbf" points="771.5,-207 771.5,-226 809.5,-226 809.5,-207 771.5,-207"/>
<text text-anchor="middle" x="790.5" y="-214" font-family="Helvetica,sans-Serif" font-size="10.00" fill="#000000">map</text>
</g>
<!-- Node12&#45;&gt;Node14 -->
<g id="edge19" class="edge">
<title>Node12&#45;&gt;Node14</title>
<path fill="none" stroke="#191970" d="M865.035,-273.9005C850.9513,-263.0544 827.8112,-245.2339 811.0461,-232.3229"/>
<polygon fill="#191970" stroke="#191970" points="813.0003,-229.4102 802.9419,-226.0817 808.7292,-234.9562 813.0003,-229.4102"/>
</g>
<!-- Node15 -->
<g id="node16" class="node">
<title>Node15</title>
<polygon fill="#ffffff" stroke="#bfbfbf" points="1253.5,-207 1253.5,-226 1307.5,-226 1307.5,-207 1253.5,-207"/>
<text text-anchor="middle" x="1280.5" y="-214" font-family="Helvetica,sans-Serif" font-size="10.00" fill="#000000">random</text>
</g>
<!-- Node12&#45;&gt;Node15 -->
<g id="edge20" class="edge">
<title>Node12&#45;&gt;Node15</title>
<path fill="none" stroke="#191970" d="M956.1486,-278.3008C1031.0787,-271.9793 1146.5145,-258.659 1243.5,-232 1245.8231,-231.3614 1248.194,-230.6124 1250.5574,-229.7944"/>
<polygon fill="#191970" stroke="#191970" points="1251.998,-232.9908 1260.0885,-226.1501 1249.4979,-226.4524 1251.998,-232.9908"/>
</g>
<!-- Node16 -->
<g id="node17" class="node">
<title>Node16</title>
<polygon fill="#ffffff" stroke="#bfbfbf" points="827.5,-207 827.5,-226 859.5,-226 859.5,-207 827.5,-207"/>
<text text-anchor="middle" x="843.5" y="-214" font-family="Helvetica,sans-Serif" font-size="10.00" fill="#000000">set</text>
</g>
<!-- Node12&#45;&gt;Node16 -->
<g id="edge21" class="edge">
<title>Node12&#45;&gt;Node16</title>
<path fill="none" stroke="#191970" d="M872.6286,-273.9005C867.5286,-263.8505 859.3898,-247.8122 853.01,-235.2403"/>
<polygon fill="#191970" stroke="#191970" points="856.0088,-233.4153 848.3623,-226.0817 849.7666,-236.583 856.0088,-233.4153"/>
</g>
<!-- Node17 -->
<g id="node18" class="node">
<title>Node17</title>
<polygon fill="#ffffff" stroke="#bfbfbf" points="878,-207 878,-226 943,-226 943,-207 878,-207"/>
<text text-anchor="middle" x="910.5" y="-214" font-family="Helvetica,sans-Serif" font-size="10.00" fill="#000000">stdexcept</text>
</g>
<!-- Node12&#45;&gt;Node17 -->
<g id="edge22" class="edge">
<title>Node12&#45;&gt;Node17</title>
<path fill="none" stroke="#191970" d="M882.2281,-273.9005C887.1781,-263.8505 895.0776,-247.8122 901.2697,-235.2403"/>
<polygon fill="#191970" stroke="#191970" points="904.5019,-236.5991 905.7807,-226.0817 898.2223,-233.5061 904.5019,-236.5991"/>
</g>
<!-- Node18 -->
<g id="node19" class="node">
<title>Node18</title>
<polygon fill="#ffffff" stroke="#bfbfbf" points="961.5,-207 961.5,-226 1131.5,-226 1131.5,-207 961.5,-207"/>
<text text-anchor="middle" x="1046.5" y="-214" font-family="Helvetica,sans-Serif" font-size="10.00" fill="#000000">unsupported/Eigen/Polynomials</text>
</g>
<!-- Node12&#45;&gt;Node18 -->
<g id="edge26" class="edge">
<title>Node12&#45;&gt;Node18</title>
<path fill="none" stroke="#191970" d="M901.7136,-273.9005C930.8286,-262.3579 979.8678,-242.9163 1012.7018,-229.8993"/>
<polygon fill="#191970" stroke="#191970" points="1014.3252,-233.0208 1022.3313,-226.0817 1011.7453,-226.5135 1014.3252,-233.0208"/>
</g>
<!-- Node19 -->
<g id="node20" class="node">
<title>Node19</title>
<g id="a_node20"><a xlink:href="common_2autodiff_8h.html" target="_top" xlink:title="drake/common/autodiff.h">
<polygon fill="#ffffff" stroke="#000000" points="497.5,-207 497.5,-226 637.5,-226 637.5,-207 497.5,-207"/>
<text text-anchor="middle" x="567.5" y="-214" font-family="Helvetica,sans-Serif" font-size="10.00" fill="#000000">drake/common/autodiff.h</text>
</a>
</g>
</g>
<!-- Node12&#45;&gt;Node19 -->
<g id="edge27" class="edge">
<title>Node12&#45;&gt;Node19</title>
<path fill="none" stroke="#191970" d="M833.4138,-273.9717C777.7916,-261.9501 682.1525,-241.2797 622.0041,-228.2799"/>
<polygon fill="#191970" stroke="#191970" points="622.4498,-224.7955 611.936,-226.1039 620.971,-231.6375 622.4498,-224.7955"/>
</g>
<!-- Node31 -->
<g id="node32" class="node">
<title>Node31</title>
<g id="a_node32"><a xlink:href="drake__assert_8h.html" target="_top" xlink:title="Provides Drake&#39;s assertion implementation. ">
<polygon fill="#ffffff" stroke="#000000" points="433,-67.5 433,-97.5 554,-97.5 554,-67.5 433,-67.5"/>
<text text-anchor="start" x="441" y="-85.5" font-family="Helvetica,sans-Serif" font-size="10.00" fill="#000000">drake/common/drake</text>
<text text-anchor="middle" x="493.5" y="-74.5" font-family="Helvetica,sans-Serif" font-size="10.00" fill="#000000">_assert.h</text>
</a>
</g>
</g>
<!-- Node12&#45;&gt;Node31 -->
<g id="edge51" class="edge">
<title>Node12&#45;&gt;Node31</title>
<path fill="none" stroke="#191970" d="M798.5962,-275.7203C687.8609,-264.4209 498.6303,-243.5598 488.5,-232 458.5381,-197.81 471.8905,-140.4737 483.3299,-107.6333"/>
<polygon fill="#191970" stroke="#191970" points="486.7459,-108.4853 486.9194,-97.8919 480.1777,-106.065 486.7459,-108.4853"/>
</g>
<!-- Node19&#45;&gt;Node11 -->
<g id="edge28" class="edge">
<title>Node19&#45;&gt;Node11</title>
<path fill="none" stroke="#191970" d="M634.5571,-206.9982C650.8793,-204.8563 668.3007,-202.7126 684.5,-201 911.7694,-176.9732 1184.7603,-158.8535 1290.5589,-152.2353"/>
<polygon fill="#191970" stroke="#191970" points="1291.0958,-155.7087 1300.8591,-151.5943 1290.661,-148.7222 1291.0958,-155.7087"/>
</g>
<!-- Node20 -->
<g id="node21" class="node">
<title>Node20</title>
<polygon fill="#ffffff" stroke="#bfbfbf" points="668,-140 668,-159 819,-159 819,-140 668,-140"/>
<text text-anchor="middle" x="743.5" y="-147" font-family="Helvetica,sans-Serif" font-size="10.00" fill="#000000">unsupported/Eigen/AutoDiff</text>
</g>
<!-- Node19&#45;&gt;Node20 -->
<g id="edge29" class="edge">
<title>Node19&#45;&gt;Node20</title>
<path fill="none" stroke="#191970" d="M592.7165,-206.9005C623.1681,-195.3082 674.5485,-175.7486 708.743,-162.7313"/>
<polygon fill="#191970" stroke="#191970" points="710.2298,-165.9105 718.3303,-159.0817 707.7393,-159.3685 710.2298,-165.9105"/>
</g>
<!-- Node21 -->
<g id="node22" class="node">
<title>Node21</title>
<g id="a_node22"><a xlink:href="eigen__autodiff__limits_8h.html" target="_top" xlink:title="drake/common/eigen\l_autodiff_limits.h">
<polygon fill="#ffffff" stroke="#000000" points="321.5,-134.5 321.5,-164.5 441.5,-164.5 441.5,-134.5 321.5,-134.5"/>
<text text-anchor="start" x="329.5" y="-152.5" font-family="Helvetica,sans-Serif" font-size="10.00" fill="#000000">drake/common/eigen</text>
<text text-anchor="middle" x="381.5" y="-141.5" font-family="Helvetica,sans-Serif" font-size="10.00" fill="#000000">_autodiff_limits.h</text>
</a>
</g>
</g>
<!-- Node19&#45;&gt;Node21 -->
<g id="edge30" class="edge">
<title>Node19&#45;&gt;Node21</title>
<path fill="none" stroke="#191970" d="M540.8507,-206.9005C512.7544,-196.7798 467.7995,-180.5864 432.7905,-167.9756"/>
<polygon fill="#191970" stroke="#191970" points="433.7966,-164.6179 423.2022,-164.5218 431.4243,-171.2037 433.7966,-164.6179"/>
</g>
<!-- Node22 -->
<g id="node23" class="node">
<title>Node22</title>
<g id="a_node23"><a xlink:href="eigen__autodiff__types_8h.html" target="_top" xlink:title="This file contains abbreviated definitions for certain uses of AutoDiffScalar that are commonly used ...">
<polygon fill="#ffffff" stroke="#000000" points="837.5,-134.5 837.5,-164.5 957.5,-164.5 957.5,-134.5 837.5,-134.5"/>
<text text-anchor="start" x="845.5" y="-152.5" font-family="Helvetica,sans-Serif" font-size="10.00" fill="#000000">drake/common/eigen</text>
<text text-anchor="middle" x="897.5" y="-141.5" font-family="Helvetica,sans-Serif" font-size="10.00" fill="#000000">_autodiff_types.h</text>
</a>
</g>
</g>
<!-- Node19&#45;&gt;Node22 -->
<g id="edge32" class="edge">
<title>Node19&#45;&gt;Node22</title>
<path fill="none" stroke="#191970" d="M617.4111,-206.9575C667.6548,-197.2743 747.6448,-181.6487 827.0117,-165.0756"/>
<polygon fill="#191970" stroke="#191970" points="828.1191,-168.4196 837.1894,-162.9442 826.6843,-161.5683 828.1191,-168.4196"/>
</g>
<!-- Node24 -->
<g id="node25" class="node">
<title>Node24</title>
<g id="a_node25"><a xlink:href="autodiffxd_8h.html" target="_top" xlink:title="drake/common/autodiffxd.h">
<polygon fill="#ffffff" stroke="#000000" points="497.5,-140 497.5,-159 649.5,-159 649.5,-140 497.5,-140"/>
<text text-anchor="middle" x="573.5" y="-147" font-family="Helvetica,sans-Serif" font-size="10.00" fill="#000000">drake/common/autodiffxd.h</text>
</a>
</g>
</g>
<!-- Node19&#45;&gt;Node24 -->
<g id="edge36" class="edge">
<title>Node19&#45;&gt;Node24</title>
<path fill="none" stroke="#191970" d="M568.3597,-206.9005C569.2329,-197.149 570.6111,-181.7597 571.7206,-169.3695"/>
<polygon fill="#191970" stroke="#191970" points="575.2359,-169.354 572.6419,-159.0817 568.2639,-168.7296 575.2359,-169.354"/>
</g>
<!-- Node27 -->
<g id="node28" class="node">
<title>Node27</title>
<g id="a_node28"><a xlink:href="autodiff__overloads_8h.html" target="_top" xlink:title="Overloads for STL mathematical operations on AutoDiffScalar. ">
<polygon fill="#ffffff" stroke="#000000" points="172,-134.5 172,-164.5 303,-164.5 303,-134.5 172,-134.5"/>
<text text-anchor="start" x="180" y="-152.5" font-family="Helvetica,sans-Serif" font-size="10.00" fill="#000000">drake/common/autodiff</text>
<text text-anchor="middle" x="237.5" y="-141.5" font-family="Helvetica,sans-Serif" font-size="10.00" fill="#000000">_overloads.h</text>
</a>
</g>
</g>
<!-- Node19&#45;&gt;Node27 -->
<g id="edge40" class="edge">
<title>Node19&#45;&gt;Node27</title>
<path fill="none" stroke="#191970" d="M520.0195,-206.9774C470.8997,-197.1112 391.681,-181.1577 313.3852,-165.1761"/>
<polygon fill="#191970" stroke="#191970" points="313.8448,-161.6978 303.3466,-163.1258 312.444,-168.5562 313.8448,-161.6978"/>
</g>
<!-- Node21&#45;&gt;Node10 -->
<g id="edge31" class="edge">
<title>Node21&#45;&gt;Node10</title>
<path fill="none" stroke="#191970" d="M386.6701,-134.3003C391.6449,-116.7723 396.7719,-87.7164 384.5,-67 371.1547,-44.4715 344.0797,-31.1495 322.4007,-23.7195"/>
<polygon fill="#191970" stroke="#191970" points="323.1725,-20.293 312.5827,-20.6197 321.0648,-26.9681 323.1725,-20.293"/>
</g>
<!-- Node22&#45;&gt;Node5 -->
<g id="edge35" class="edge">
<title>Node22&#45;&gt;Node5</title>
<path fill="none" stroke="#191970" d="M957.668,-143.5542C1083.0633,-131.1626 1371.7712,-102.6325 1505.3485,-89.4324"/>
<polygon fill="#191970" stroke="#191970" points="1505.8596,-92.899 1515.4669,-88.4325 1505.1711,-85.9329 1505.8596,-92.899"/>
</g>
<!-- Node22&#45;&gt;Node6 -->
<g id="edge34" class="edge">
<title>Node22&#45;&gt;Node6</title>
<path fill="none" stroke="#191970" d="M897.5,-134.389C897.5,-110.0735 897.5,-62.2644 897.5,-35.2698"/>
<polygon fill="#191970" stroke="#191970" points="901.0001,-35.1041 897.5,-25.1042 894.0001,-35.1042 901.0001,-35.1041"/>
</g>
<!-- Node23 -->
<g id="node24" class="node">
<title>Node23</title>
<polygon fill="#ffffff" stroke="#bfbfbf" points="459,-6 459,-25 528,-25 528,-6 459,-6"/>
<text text-anchor="middle" x="493.5" y="-13" font-family="Helvetica,sans-Serif" font-size="10.00" fill="#000000">type_traits</text>
</g>
<!-- Node22&#45;&gt;Node23 -->
<g id="edge33" class="edge">
<title>Node22&#45;&gt;Node23</title>
<path fill="none" stroke="#191970" d="M866.3429,-134.4979C828.3334,-116.6248 761.8005,-86.7121 702.5,-67 646.6886,-48.4477 580.5087,-33.242 537.8028,-24.2799"/>
<polygon fill="#191970" stroke="#191970" points="538.5044,-20.851 528.0018,-22.2464 537.0822,-27.7051 538.5044,-20.851"/>
</g>
<!-- Node24&#45;&gt;Node6 -->
<g id="edge39" class="edge">
<title>Node24&#45;&gt;Node6</title>
<path fill="none" stroke="#191970" d="M597.8107,-139.9655C623.7881,-129.7374 666.1454,-112.9454 702.5,-98 760.2377,-74.264 827.185,-45.7142 865.7145,-29.1828"/>
<polygon fill="#191970" stroke="#191970" points="867.5286,-32.2129 875.3361,-25.0509 864.7664,-25.7809 867.5286,-32.2129"/>
</g>
<!-- Node25 -->
<g id="node26" class="node">
<title>Node25</title>
<polygon fill="#ffffff" stroke="#bfbfbf" points="572,-73 572,-92 619,-92 619,-73 572,-73"/>
<text text-anchor="middle" x="595.5" y="-80" font-family="Helvetica,sans-Serif" font-size="10.00" fill="#000000">cmath</text>
</g>
<!-- Node24&#45;&gt;Node25 -->
<g id="edge37" class="edge">
<title>Node24&#45;&gt;Node25</title>
<path fill="none" stroke="#191970" d="M576.6521,-139.9005C579.9194,-129.95 585.1143,-114.1292 589.2235,-101.6147"/>
<polygon fill="#191970" stroke="#191970" points="592.5593,-102.6745 592.3538,-92.0817 585.9087,-100.4907 592.5593,-102.6745"/>
</g>
<!-- Node26 -->
<g id="node27" class="node">
<title>Node26</title>
<polygon fill="#ffffff" stroke="#bfbfbf" points="637,-73 637,-92 694,-92 694,-73 637,-73"/>
<text text-anchor="middle" x="665.5" y="-80" font-family="Helvetica,sans-Serif" font-size="10.00" fill="#000000">ostream</text>
</g>
<!-- Node24&#45;&gt;Node26 -->
<g id="edge38" class="edge">
<title>Node24&#45;&gt;Node26</title>
<path fill="none" stroke="#191970" d="M586.6814,-139.9005C601.7111,-128.9549 626.4942,-110.9064 644.2593,-97.9688"/>
<polygon fill="#191970" stroke="#191970" points="646.32,-100.7979 652.3431,-92.0817 642.1991,-95.1394 646.32,-100.7979"/>
</g>
<!-- Node27&#45;&gt;Node10 -->
<g id="edge42" class="edge">
<title>Node27&#45;&gt;Node10</title>
<path fill="none" stroke="#191970" d="M233.4917,-134.4787C229.7331,-117.3713 225.982,-88.9516 235.5,-67 241.8649,-52.3206 254.7029,-39.9121 266.3756,-30.9554"/>
<polygon fill="#191970" stroke="#191970" points="268.4912,-33.7451 274.56,-25.0606 264.4001,-28.065 268.4912,-33.7451"/>
</g>
<!-- Node27&#45;&gt;Node25 -->
<g id="edge41" class="edge">
<title>Node27&#45;&gt;Node25</title>
<path fill="none" stroke="#191970" d="M303.3068,-135.6641C306.4114,-135.0856 309.4878,-134.5276 312.5,-134 423.0736,-114.6312 454.9645,-130.2147 562.5,-98 564.41,-97.4278 566.3496,-96.7618 568.2826,-96.0336"/>
<polygon fill="#191970" stroke="#191970" points="569.8895,-99.1538 577.7249,-92.0224 567.1524,-92.711 569.8895,-99.1538"/>
</g>
<!-- Node28 -->
<g id="node29" class="node">
<title>Node28</title>
<g id="a_node29"><a xlink:href="cond_8h.html" target="_top" xlink:title="drake/common/cond.h">
<polygon fill="#ffffff" stroke="#000000" points="63,-73 63,-92 188,-92 188,-73 63,-73"/>
<text text-anchor="middle" x="125.5" y="-80" font-family="Helvetica,sans-Serif" font-size="10.00" fill="#000000">drake/common/cond.h</text>
</a>
</g>
</g>
<!-- Node27&#45;&gt;Node28 -->
<g id="edge43" class="edge">
<title>Node27&#45;&gt;Node28</title>
<path fill="none" stroke="#191970" d="M212.365,-134.4639C193.8268,-123.3741 168.726,-108.3584 150.2738,-97.32"/>
<polygon fill="#191970" stroke="#191970" points="151.9328,-94.2341 141.5543,-92.1039 148.3392,-100.2412 151.9328,-94.2341"/>
</g>
<!-- Node27&#45;&gt;Node31 -->
<g id="edge47" class="edge">
<title>Node27&#45;&gt;Node31</title>
<path fill="none" stroke="#191970" d="M294.9514,-134.4639C333.7649,-124.3057 385.1642,-110.8535 425.9412,-100.1814"/>
<polygon fill="#191970" stroke="#191970" points="427.0101,-103.5196 435.798,-97.6017 425.2377,-96.7477 427.0101,-103.5196"/>
</g>
<!-- Node32 -->
<g id="node33" class="node">
<title>Node32</title>
<g id="a_node33"><a xlink:href="dummy__value_8h.html" target="_top" xlink:title="drake/common/dummy\l_value.h">
<polygon fill="#ffffff" stroke="#000000" points="245,-67.5 245,-97.5 376,-97.5 376,-67.5 245,-67.5"/>
<text text-anchor="start" x="253" y="-85.5" font-family="Helvetica,sans-Serif" font-size="10.00" fill="#000000">drake/common/dummy</text>
<text text-anchor="middle" x="310.5" y="-74.5" font-family="Helvetica,sans-Serif" font-size="10.00" fill="#000000">_value.h</text>
</a>
</g>
</g>
<!-- Node27&#45;&gt;Node32 -->
<g id="edge49" class="edge">
<title>Node27&#45;&gt;Node32</title>
<path fill="none" stroke="#191970" d="M254.0648,-134.2967C263.6783,-125.4733 275.9534,-114.2072 286.5987,-104.4368"/>
<polygon fill="#191970" stroke="#191970" points="289,-106.9836 294.0007,-97.6432 284.2667,-101.8264 289,-106.9836"/>
</g>
<!-- Node28&#45;&gt;Node23 -->
<g id="edge45" class="edge">
<title>Node28&#45;&gt;Node23</title>
<path fill="none" stroke="#191970" d="M177.8346,-72.9717C250.5014,-59.7416 380.7032,-36.0364 448.964,-23.6085"/>
<polygon fill="#191970" stroke="#191970" points="449.7593,-27.0213 458.9706,-21.7866 448.5054,-20.1345 449.7593,-27.0213"/>
</g>
<!-- Node29 -->
<g id="node30" class="node">
<title>Node29</title>
<polygon fill="#ffffff" stroke="#bfbfbf" points="0,-6 0,-25 65,-25 65,-6 0,-6"/>
<text text-anchor="middle" x="32.5" y="-13" font-family="Helvetica,sans-Serif" font-size="10.00" fill="#000000">functional</text>
</g>
<!-- Node28&#45;&gt;Node29 -->
<g id="edge44" class="edge">
<title>Node28&#45;&gt;Node29</title>
<path fill="none" stroke="#191970" d="M112.1754,-72.9005C96.9822,-61.9549 71.9297,-43.9064 53.9716,-30.9688"/>
<polygon fill="#191970" stroke="#191970" points="55.9595,-28.0872 45.7999,-25.0817 51.8677,-33.7668 55.9595,-28.0872"/>
</g>
<!-- Node30 -->
<g id="node31" class="node">
<title>Node30</title>
<g id="a_node31"><a xlink:href="double__overloads_8h.html" target="_top" xlink:title="Provides necessary operations on double to have it as a ScalarType in drake. ">
<polygon fill="#ffffff" stroke="#000000" points="83.5,-.5 83.5,-30.5 209.5,-30.5 209.5,-.5 83.5,-.5"/>
<text text-anchor="start" x="91.5" y="-18.5" font-family="Helvetica,sans-Serif" font-size="10.00" fill="#000000">drake/common/double</text>
<text text-anchor="middle" x="146.5" y="-7.5" font-family="Helvetica,sans-Serif" font-size="10.00" fill="#000000">_overloads.h</text>
</a>
</g>
</g>
<!-- Node28&#45;&gt;Node30 -->
<g id="edge46" class="edge">
<title>Node28&#45;&gt;Node30</title>
<path fill="none" stroke="#191970" d="M128.5088,-72.9005C131.1658,-64.4234 135.1582,-51.6856 138.7076,-40.3614"/>
<polygon fill="#191970" stroke="#191970" points="142.1406,-41.1109 141.7917,-30.5218 135.461,-39.0172 142.1406,-41.1109"/>
</g>
<!-- Node31&#45;&gt;Node23 -->
<g id="edge48" class="edge">
<title>Node31&#45;&gt;Node23</title>
<path fill="none" stroke="#191970" d="M493.5,-67.2967C493.5,-57.7699 493.5,-45.3954 493.5,-35.1306"/>
<polygon fill="#191970" stroke="#191970" points="497.0001,-35.0549 493.5,-25.055 490.0001,-35.055 497.0001,-35.0549"/>
</g>
<!-- Node32&#45;&gt;Node10 -->
<g id="edge50" class="edge">
<title>Node32&#45;&gt;Node10</title>
<path fill="none" stroke="#191970" d="M305.9617,-67.2967C303.0876,-57.6685 299.3453,-45.1318 296.2623,-34.8038"/>
<polygon fill="#191970" stroke="#191970" points="299.5664,-33.636 293.3522,-25.055 292.8589,-35.6383 299.5664,-33.636"/>
</g>
<!-- Node33&#45;&gt;Node1 -->
<g id="edge53" class="edge">
<title>Node33&#45;&gt;Node1</title>
<path fill="none" stroke="#191970" d="M1434.4989,-268.2484C1432.6459,-258.0369 1430.4473,-244.269 1429.5,-232 1423.9175,-159.6941 1437.9788,-73.9778 1445.3433,-35.7048"/>
<polygon fill="#191970" stroke="#191970" points="1448.8713,-35.9075 1447.3847,-25.4175 1442.0052,-34.545 1448.8713,-35.9075"/>
</g>
<!-- Node33&#45;&gt;Node3 -->
<g id="edge55" class="edge">
<title>Node33&#45;&gt;Node3</title>
<path fill="none" stroke="#191970" d="M1369.1486,-268.4113C1331.8155,-259.3876 1285.0591,-246.8024 1244.5,-232 1242.9057,-231.4182 1241.2834,-230.7882 1239.6564,-230.1265"/>
<polygon fill="#191970" stroke="#191970" points="1241.0144,-226.9004 1230.4495,-226.1051 1238.2125,-233.3152 1241.0144,-226.9004"/>
</g>
<!-- Node33&#45;&gt;Node11 -->
<g id="edge56" class="edge">
<title>Node33&#45;&gt;Node11</title>
<path fill="none" stroke="#191970" d="M1425.5342,-268.2256C1417.5523,-258.0044 1406.8475,-244.2344 1397.5,-232 1380.6128,-209.8972 1361.4058,-184.2612 1348.9034,-167.5062"/>
<polygon fill="#191970" stroke="#191970" points="1351.4874,-165.1163 1342.7047,-159.1904 1345.875,-169.2998 1351.4874,-165.1163"/>
</g>
<!-- Node33&#45;&gt;Node15 -->
<g id="edge54" class="edge">
<title>Node33&#45;&gt;Node15</title>
<path fill="none" stroke="#191970" d="M1402.2661,-268.4639C1375.3302,-256.969 1338.5106,-241.2561 1312.4311,-230.1266"/>
<polygon fill="#191970" stroke="#191970" points="1313.576,-226.8099 1303.0047,-226.1039 1310.8284,-233.2482 1313.576,-226.8099"/>
</g>
<!-- Node34 -->
<g id="node35" class="node">
<title>Node34</title>
<g id="a_node35"><a xlink:href="common_2trajectories_2trajectory_8h.html" target="_top" xlink:title="drake/common/trajectories\l/trajectory.h">
<polygon fill="#ffffff" stroke="#000000" points="1439,-201.5 1439,-231.5 1588,-231.5 1588,-201.5 1439,-201.5"/>
<text text-anchor="start" x="1447" y="-219.5" font-family="Helvetica,sans-Serif" font-size="10.00" fill="#000000">drake/common/trajectories</text>
<text text-anchor="middle" x="1513.5" y="-208.5" font-family="Helvetica,sans-Serif" font-size="10.00" fill="#000000">/trajectory.h</text>
</a>
</g>
</g>
<!-- Node33&#45;&gt;Node34 -->
<g id="edge57" class="edge">
<title>Node33&#45;&gt;Node34</title>
<path fill="none" stroke="#191970" d="M1454.7456,-268.2967C1464.7542,-259.4733 1477.5336,-248.2072 1488.6164,-238.4368"/>
<polygon fill="#191970" stroke="#191970" points="1491.1359,-240.8816 1496.3227,-231.6432 1486.5068,-235.6307 1491.1359,-240.8816"/>
</g>
<!-- Node34&#45;&gt;Node1 -->
<g id="edge58" class="edge">
<title>Node34&#45;&gt;Node1</title>
<path fill="none" stroke="#191970" d="M1508.1135,-201.2284C1500.229,-178.7245 1485.2113,-135.2882 1473.5,-98 1466.7536,-76.5197 1459.6195,-51.6897 1454.9001,-34.927"/>
<polygon fill="#191970" stroke="#191970" points="1458.2415,-33.8795 1452.1758,-25.1929 1451.5005,-35.7662 1458.2415,-33.8795"/>
</g>
<!-- Node34&#45;&gt;Node5 -->
<g id="edge61" class="edge">
<title>Node34&#45;&gt;Node5</title>
<path fill="none" stroke="#191970" d="M1520.4917,-201.389C1531.0969,-178.4681 1551.3611,-134.6712 1564.1126,-107.1116"/>
<polygon fill="#191970" stroke="#191970" points="1567.416,-108.3068 1568.4388,-97.7614 1561.0631,-105.3673 1567.416,-108.3068"/>
</g>
<!-- Node34&#45;&gt;Node8 -->
<g id="edge60" class="edge">
<title>Node34&#45;&gt;Node8</title>
<path fill="none" stroke="#191970" d="M1530.7524,-201.4766C1556.0907,-179.282 1604.677,-136.2272 1644.5,-98 1665.0328,-78.2899 1687.6703,-55.1036 1703.7815,-38.3389"/>
<polygon fill="#191970" stroke="#191970" points="1706.7391,-40.311 1711.1286,-30.6682 1701.6838,-35.469 1706.7391,-40.311"/>
</g>
<!-- Node34&#45;&gt;Node11 -->
<g id="edge59" class="edge">
<title>Node34&#45;&gt;Node11</title>
<path fill="none" stroke="#191970" d="M1473.5533,-201.4639C1442.5189,-189.7824 1399.9119,-173.7449 1370.2721,-162.5884"/>
<polygon fill="#191970" stroke="#191970" points="1371.3448,-159.2525 1360.7529,-159.0053 1368.8788,-165.8037 1371.3448,-159.2525"/>
</g>
</g>
</svg>
