<?xml version="1.0" encoding="UTF-8" standalone="no"?>
<!DOCTYPE svg PUBLIC "-//W3C//DTD SVG 1.1//EN"
 "http://www.w3.org/Graphics/SVG/1.1/DTD/svg11.dtd">
<!-- Generated by graphviz version 2.40.1 (20161225.0304)
 -->
<!-- Title: drake/examples/kuka_iiwa_arm/iiwa_lcm.h Pages: 1 -->
<!--zoomable 117 -->
<svg id="main" version="1.1" xmlns="http://www.w3.org/2000/svg" xmlns:xlink="http://www.w3.org/1999/xlink" xml:space="preserve" onload="init(evt)">
<style type="text/css"><![CDATA[
.edge:hover path { stroke: red; }
.edge:hover polygon { stroke: red; fill: red; }
]]></style>
<script type="text/javascript"><![CDATA[
var edges = document.getElementsByTagName('g');
if (edges && edges.length) {
  for (var i=0;i<edges.length;i++) {
    if (edges[i].id.substr(0,4)=='edge') {
      edges[i].setAttribute('class','edge');
    }
  }
}
]]></script>
        <defs>
                <circle id="rim" cx="0" cy="0" r="7"/>
                <circle id="rim2" cx="0" cy="0" r="3.5"/>
                <g id="zoomPlus">
                        <use xlink:href="#rim" fill="#404040">
                                <set attributeName="fill" to="#808080" begin="zoomplus.mouseover" end="zoomplus.mouseout"/>
                        </use>
                        <path d="M-4,0h8M0,-4v8" fill="none" stroke="white" stroke-width="1.5" pointer-events="none"/>
                </g>
                <g id="zoomMin">
                        <use xlink:href="#rim" fill="#404040">
                                <set attributeName="fill" to="#808080" begin="zoomminus.mouseover" end="zoomminus.mouseout"/>
                        </use>
                        <path d="M-4,0h8" fill="none" stroke="white" stroke-width="1.5" pointer-events="none"/>
                </g>
                <g id="dirArrow">
                        <path fill="none" stroke="white" stroke-width="1.5" d="M0,-3.0v7 M-2.5,-0.5L0,-3.0L2.5,-0.5"/>
                </g>
               <g id="resetDef">
                       <use xlink:href="#rim2" fill="#404040">
                               <set attributeName="fill" to="#808080" begin="reset.mouseover" end="reset.mouseout"/>
                       </use>
               </g>
        </defs>

<script type="text/javascript">
var viewWidth = 1263;
var viewHeight = 117;
var sectionId = 'dynsection-1';
</script>
<script xlink:href="svgpan.js"/>
<svg id="graph" class="graph">
<g id="viewport">
<title>drake/examples/kuka_iiwa_arm/iiwa_lcm.h</title>
<polygon fill="#ffffff" stroke="transparent" points="-4,4 -4,-113 1259,-113 1259,4 -4,4"/>
<!-- Node122 -->
<g id="node1" class="node">
<title>Node122</title>
<polygon fill="#bfbfbf" stroke="#000000" points="564.5,-78.5 564.5,-108.5 686.5,-108.5 686.5,-78.5 564.5,-78.5"/>
<text text-anchor="start" x="572.5" y="-96.5" font-family="Helvetica,sans-Serif" font-size="10.00" fill="#000000">drake/examples/kuka</text>
<text text-anchor="middle" x="625.5" y="-85.5" font-family="Helvetica,sans-Serif" font-size="10.00" fill="#000000">_iiwa_arm/iiwa_lcm.h</text>
</g>
<!-- Node123 -->
<g id="node2" class="node">
<title>Node123</title>
<g id="a_node2"><a xlink:href="iiwa__lcm_8cc.html" target="_top" xlink:title="drake/examples/kuka\l_iiwa_arm/iiwa_lcm.cc">
<polygon fill="#ffffff" stroke="#000000" points="0,-6 0,-36 127,-36 127,-6 0,-6"/>
<text text-anchor="start" x="8" y="-24" font-family="Helvetica,sans-Serif" font-size="10.00" fill="#000000">drake/examples/kuka</text>
<text text-anchor="middle" x="63.5" y="-13" font-family="Helvetica,sans-Serif" font-size="10.00" fill="#000000">_iiwa_arm/iiwa_lcm.cc</text>
</a>
</g>
</g>
<!-- Node122&#45;&gt;Node123 -->
<g id="edge1" class="edge">
<title>Node122&#45;&gt;Node123</title>
<path fill="none" stroke="#191970" d="M554.0819,-90.0084C458.1432,-84.407 282.6785,-70.9554 135.5,-42 127.3234,-40.3914 118.7351,-38.2745 110.452,-36.0042"/>
<polygon fill="#191970" stroke="#191970" points="554.0635,-93.513 564.2471,-90.5898 554.4633,-86.5244 554.0635,-93.513"/>
</g>
<!-- Node124 -->
<g id="node3" class="node">
<title>Node124</title>
<g id="a_node3"><a xlink:href="iiwa__wsg__simulation_8cc.html" target="_top" xlink:title="Implements a simulation of the KUKA iiwa arm with a Schunk WSG 50 attached as an end effector...">
<polygon fill="#ffffff" stroke="#000000" points="145,-6 145,-36 330,-36 330,-6 145,-6"/>
<text text-anchor="start" x="153" y="-24" font-family="Helvetica,sans-Serif" font-size="10.00" fill="#000000">drake/examples/kuka</text>
<text text-anchor="middle" x="237.5" y="-13" font-family="Helvetica,sans-Serif" font-size="10.00" fill="#000000">_iiwa_arm/iiwa_wsg_simulation.cc</text>
</a>
</g>
</g>
<!-- Node122&#45;&gt;Node124 -->
<g id="edge2" class="edge">
<title>Node122&#45;&gt;Node124</title>
<path fill="none" stroke="#191970" d="M554.1827,-81.1655C496.2674,-71.0267 412.5185,-56.0886 339.5,-42 329.7362,-40.1161 319.4597,-38.0724 309.3415,-36.0245"/>
<polygon fill="#191970" stroke="#191970" points="553.874,-84.6645 564.3273,-82.9386 555.0793,-77.769 553.874,-84.6645"/>
</g>
<!-- Node125 -->
<g id="node4" class="node">
<title>Node125</title>
<g id="a_node4"><a xlink:href="kuka__simulation_8cc.html" target="_top" xlink:title="Implements a simulation of the KUKA iiwa arm. ">
<polygon fill="#ffffff" stroke="#000000" points="348.5,-6 348.5,-36 512.5,-36 512.5,-6 348.5,-6"/>
<text text-anchor="start" x="356.5" y="-24" font-family="Helvetica,sans-Serif" font-size="10.00" fill="#000000">drake/examples/kuka</text>
<text text-anchor="middle" x="430.5" y="-13" font-family="Helvetica,sans-Serif" font-size="10.00" fill="#000000">_iiwa_arm/kuka_simulation.cc</text>
</a>
</g>
</g>
<!-- Node122&#45;&gt;Node125 -->
<g id="edge3" class="edge">
<title>Node122&#45;&gt;Node125</title>
<path fill="none" stroke="#191970" d="M575.3408,-74.8511C542.8777,-62.7814 501.1687,-47.2743 470.8524,-36.0028"/>
<polygon fill="#191970" stroke="#191970" points="574.503,-78.2736 585.0959,-78.478 576.9425,-71.7124 574.503,-78.2736"/>
</g>
<!-- Node126 -->
<g id="node5" class="node">
<title>Node126</title>
<g id="a_node5"><a xlink:href="lcm__plan__interpolator_8cc.html" target="_top" xlink:title="drake/examples/kuka\l_iiwa_arm/lcm_plan_interpolator.cc">
<polygon fill="#ffffff" stroke="#000000" points="530.5,-6 530.5,-36 720.5,-36 720.5,-6 530.5,-6"/>
<text text-anchor="start" x="538.5" y="-24" font-family="Helvetica,sans-Serif" font-size="10.00" fill="#000000">drake/examples/kuka</text>
<text text-anchor="middle" x="625.5" y="-13" font-family="Helvetica,sans-Serif" font-size="10.00" fill="#000000">_iiwa_arm/lcm_plan_interpolator.cc</text>
</a>
</g>
</g>
<!-- Node122&#45;&gt;Node126 -->
<g id="edge4" class="edge">
<title>Node122&#45;&gt;Node126</title>
<path fill="none" stroke="#191970" d="M625.5,-68.3409C625.5,-57.5601 625.5,-45.3309 625.5,-36.0028"/>
<polygon fill="#191970" stroke="#191970" points="622.0001,-68.4779 625.5,-78.478 629.0001,-68.478 622.0001,-68.4779"/>
</g>
<!-- Node127 -->
<g id="node6" class="node">
<title>Node127</title>
<g id="a_node6"><a xlink:href="iiwa__lcm__test_8cc.html" target="_top" xlink:title="drake/examples/kuka\l_iiwa_arm/test/iiwa\l_lcm_test.cc">
<polygon fill="#ffffff" stroke="#000000" points="738.5,-.5 738.5,-41.5 860.5,-41.5 860.5,-.5 738.5,-.5"/>
<text text-anchor="start" x="746.5" y="-29.5" font-family="Helvetica,sans-Serif" font-size="10.00" fill="#000000">drake/examples/kuka</text>
<text text-anchor="start" x="746.5" y="-18.5" font-family="Helvetica,sans-Serif" font-size="10.00" fill="#000000">_iiwa_arm/test/iiwa</text>
<text text-anchor="middle" x="799.5" y="-7.5" font-family="Helvetica,sans-Serif" font-size="10.00" fill="#000000">_lcm_test.cc</text>
</a>
</g>
</g>
<!-- Node122&#45;&gt;Node127 -->
<g id="edge5" class="edge">
<title>Node122&#45;&gt;Node127</title>
<path fill="none" stroke="#191970" d="M670.9332,-74.5695C695.3069,-64.4138 725.3707,-51.8872 750.2964,-41.5015"/>
<polygon fill="#191970" stroke="#191970" points="669.4375,-71.401 661.5529,-78.478 672.1299,-77.8625 669.4375,-71.401"/>
</g>
<!-- Node128 -->
<g id="node7" class="node">
<title>Node128</title>
<g id="a_node7"><a xlink:href="manipulation__station__hardware__interface_8cc.html" target="_top" xlink:title="drake/examples/manipulation\l_station/manipulation_station\l_hardware_interface.cc">
<polygon fill="#ffffff" stroke="#000000" points="879,-.5 879,-41.5 1042,-41.5 1042,-.5 879,-.5"/>
<text text-anchor="start" x="887" y="-29.5" font-family="Helvetica,sans-Serif" font-size="10.00" fill="#000000">drake/examples/manipulation</text>
<text text-anchor="start" x="887" y="-18.5" font-family="Helvetica,sans-Serif" font-size="10.00" fill="#000000">_station/manipulation_station</text>
<text text-anchor="middle" x="960.5" y="-7.5" font-family="Helvetica,sans-Serif" font-size="10.00" fill="#000000">_hardware_interface.cc</text>
</a>
</g>
</g>
<!-- Node122&#45;&gt;Node128 -->
<g id="edge6" class="edge">
<title>Node122&#45;&gt;Node128</title>
<path fill="none" stroke="#191970" d="M696.5507,-78.8709C745.2706,-68.7496 811.3608,-54.8428 869.5,-42 872.5081,-41.3355 875.571,-40.654 878.6639,-39.9616"/>
<polygon fill="#191970" stroke="#191970" points="695.8172,-75.4485 686.7369,-80.9073 697.2395,-82.3025 695.8172,-75.4485"/>
</g>
<!-- Node129 -->
<g id="node8" class="node">
<title>Node129</title>
<g id="a_node8"><a xlink:href="mock__station__simulation_8cc.html" target="_top" xlink:title="drake/examples/manipulation\l_station/mock_station_simulation.cc">
<polygon fill="#ffffff" stroke="#000000" points="1060,-6 1060,-36 1255,-36 1255,-6 1060,-6"/>
<text text-anchor="start" x="1068" y="-24" font-family="Helvetica,sans-Serif" font-size="10.00" fill="#000000">drake/examples/manipulation</text>
<text text-anchor="middle" x="1157.5" y="-13" font-family="Helvetica,sans-Serif" font-size="10.00" fill="#000000">_station/mock_station_simulation.cc</text>
</a>
</g>
</g>
<!-- Node122&#45;&gt;Node129 -->
<g id="edge7" class="edge">
<title>Node122&#45;&gt;Node129</title>
<path fill="none" stroke="#191970" d="M696.7548,-86.5424C781.5381,-77.8816 927.2523,-61.7891 1051.5,-42 1062.5235,-40.2443 1074.1489,-38.1703 1085.501,-36.0208"/>
<polygon fill="#191970" stroke="#191970" points="696.3179,-83.0687 686.7229,-87.5616 697.0255,-90.0329 696.3179,-83.0687"/>
</g>
</g>
</svg>
        <g id="navigator" transform="translate(0 0)" fill="#404254">
                <rect fill="#f2f5e9" fill-opacity="0.5" stroke="#606060" stroke-width=".5" x="0" y="0" width="60" height="60"/>
                <use id="zoomplus" xlink:href="#zoomPlus" x="17" y="9" onmousedown="handleZoom(evt,'in')"/>
                <use id="zoomminus" xlink:href="#zoomMin" x="42" y="9" onmousedown="handleZoom(evt,'out')"/>
                <use id="reset" xlink:href="#resetDef" x="30" y="36" onmousedown="handleReset()"/>
                <g id="arrowUp" xlink:href="#dirArrow" transform="translate(30 24)" onmousedown="handlePan(0,-1)">
                  <use xlink:href="#rim" fill="#404040">
                        <set attributeName="fill" to="#808080" begin="arrowUp.mouseover" end="arrowUp.mouseout"/>
                  </use>
                  <path fill="none" stroke="white" stroke-width="1.5" d="M0,-3.0v7 M-2.5,-0.5L0,-3.0L2.5,-0.5"/>
                </g>
                <g id="arrowRight" xlink:href="#dirArrow" transform="rotate(90) translate(36 -43)" onmousedown="handlePan(1,0)">
                  <use xlink:href="#rim" fill="#404040">
                        <set attributeName="fill" to="#808080" begin="arrowRight.mouseover" end="arrowRight.mouseout"/>
                  </use>
                  <path fill="none" stroke="white" stroke-width="1.5" d="M0,-3.0v7 M-2.5,-0.5L0,-3.0L2.5,-0.5"/>
                </g>
                <g id="arrowDown" xlink:href="#dirArrow" transform="rotate(180) translate(-30 -48)" onmousedown="handlePan(0,1)">
                  <use xlink:href="#rim" fill="#404040">
                        <set attributeName="fill" to="#808080" begin="arrowDown.mouseover" end="arrowDown.mouseout"/>
                  </use>
                  <path fill="none" stroke="white" stroke-width="1.5" d="M0,-3.0v7 M-2.5,-0.5L0,-3.0L2.5,-0.5"/>
                </g>
                <g id="arrowLeft" xlink:href="#dirArrow" transform="rotate(270) translate(-36 17)" onmousedown="handlePan(-1,0)">
                  <use xlink:href="#rim" fill="#404040">
                        <set attributeName="fill" to="#808080" begin="arrowLeft.mouseover" end="arrowLeft.mouseout"/>
                  </use>
                  <path fill="none" stroke="white" stroke-width="1.5" d="M0,-3.0v7 M-2.5,-0.5L0,-3.0L2.5,-0.5"/>
                </g>
        </g>
        <svg viewBox="0 0 15 15" width="100%" height="30px" preserveAspectRatio="xMaxYMin meet">
         <g id="arrow_out" transform="scale(0.3 0.3)">
          <a xlink:href="iiwa__lcm_8h__dep__incl_org.svg" target="_base">
           <rect id="button" ry="5" rx="5" y="6" x="6" height="38" width="38"
                fill="#f2f5e9" fill-opacity="0.5" stroke="#606060" stroke-width="1.0"/>
           <path id="arrow"
             d="M 11.500037,31.436501 C 11.940474,20.09759 22.043105,11.32322 32.158766,21.979434 L 37.068811,17.246167 C 37.068811,17.246167 37.088388,32 37.088388,32 L 22.160133,31.978069 C 22.160133,31.978069 26.997745,27.140456 26.997745,27.140456 C 18.528582,18.264221 13.291696,25.230495 11.500037,31.436501 z"
             style="fill:#404040;"/>
          </a>
         </g>
        </svg>
</svg>
