<?xml version="1.0" encoding="UTF-8" standalone="no"?>
<!DOCTYPE svg PUBLIC "-//W3C//DTD SVG 1.1//EN"
 "http://www.w3.org/Graphics/SVG/1.1/DTD/svg11.dtd">
<!-- Generated by graphviz version 2.40.1 (20161225.0304)
 -->
<!-- Title: Graphical Class Hierarchy Pages: 1 -->
<svg width="245pt" height="66pt"
 viewBox="0.00 0.00 245.00 66.00" xmlns="http://www.w3.org/2000/svg" xmlns:xlink="http://www.w3.org/1999/xlink">
<g id="graph0" class="graph" transform="scale(1 1) rotate(0) translate(4 62)">
<title>Graphical Class Hierarchy</title>
<polygon fill="#ffffff" stroke="transparent" points="-4,4 -4,-62 241,-62 241,4 -4,4"/>
<!-- Node0 -->
<g id="node1" class="node">
<title>Node0</title>
<g id="a_node1"><a xlink:href="classdrake_1_1systems_1_1_input_port_base.html" target="_top" xlink:title="An InputPort is a System resource that describes the kind of input a System accepts, on a given port. ">
<polygon fill="#ffffff" stroke="#000000" points="0,-19.5 0,-38.5 85,-38.5 85,-19.5 0,-19.5"/>
<text text-anchor="middle" x="42.5" y="-26.5" font-family="Helvetica,sans-Serif" font-size="10.00" fill="#000000">InputPortBase</text>
</a>
</g>
</g>
<!-- Node1 -->
<g id="node2" class="node">
<title>Node1</title>
<g id="a_node2"><a xlink:href="classdrake_1_1systems_1_1_input_port.html" target="_top" xlink:title="This extends InputPortBase with some scalar type&#45;dependent methods. ">
<polygon fill="#ffffff" stroke="#000000" points="134.5,-38.5 134.5,-57.5 223.5,-57.5 223.5,-38.5 134.5,-38.5"/>
<text text-anchor="middle" x="179" y="-45.5" font-family="Helvetica,sans-Serif" font-size="10.00" fill="#000000">InputPort&lt; T &gt;</text>
</a>
</g>
</g>
<!-- Node0&#45;&gt;Node1 -->
<g id="edge1" class="edge">
<title>Node0&#45;&gt;Node1</title>
<path fill="none" stroke="#191970" d="M95.4501,-36.3703C108.34,-38.1645 121.9974,-40.0656 134.4524,-41.7992"/>
<polygon fill="#191970" stroke="#191970" points="95.702,-32.8717 85.3149,-34.9596 94.7369,-39.8049 95.702,-32.8717"/>
</g>
<!-- Node2 -->
<g id="node3" class="node">
<title>Node2</title>
<g id="a_node3"><a xlink:href="classdrake_1_1systems_1_1_input_port.html" target="_top" xlink:title="InputPort\&lt; double \&gt;">
<polygon fill="#ffffff" stroke="#000000" points="121,-.5 121,-19.5 237,-19.5 237,-.5 121,-.5"/>
<text text-anchor="middle" x="179" y="-7.5" font-family="Helvetica,sans-Serif" font-size="10.00" fill="#000000">InputPort&lt; double &gt;</text>
</a>
</g>
</g>
<!-- Node0&#45;&gt;Node2 -->
<g id="edge2" class="edge">
<title>Node0&#45;&gt;Node2</title>
<path fill="none" stroke="#191970" d="M95.3123,-21.6488C103.6706,-20.4854 112.3548,-19.2766 120.8272,-18.0973"/>
<polygon fill="#191970" stroke="#191970" points="94.7369,-18.1951 85.3149,-23.0404 95.702,-25.1283 94.7369,-18.1951"/>
</g>
</g>
</svg>
