<?xml version="1.0" encoding="UTF-8" standalone="no"?>
<!DOCTYPE svg PUBLIC "-//W3C//DTD SVG 1.1//EN"
 "http://www.w3.org/Graphics/SVG/1.1/DTD/svg11.dtd">
<!-- Generated by graphviz version 2.40.1 (20161225.0304)
 -->
<!-- Title: Graphical Class Hierarchy Pages: 1 -->
<svg width="491pt" height="116pt"
 viewBox="0.00 0.00 491.00 115.50" xmlns="http://www.w3.org/2000/svg" xmlns:xlink="http://www.w3.org/1999/xlink">
<g id="graph0" class="graph" transform="scale(1 1) rotate(0) translate(4 111.5)">
<title>Graphical Class Hierarchy</title>
<polygon fill="#ffffff" stroke="transparent" points="-4,4 -4,-111.5 487,-111.5 487,4 -4,4"/>
<!-- Node0 -->
<g id="node1" class="node">
<title>Node0</title>
<g id="a_node1"><a xlink:href="classdrake_1_1trajectories_1_1_trajectory.html" target="_top" xlink:title="A Trajectory represents a time&#45;varying matrix, indexed by a single scalar double time. ">
<polygon fill="#ffffff" stroke="#000000" points="0,-38.5 0,-57.5 95,-57.5 95,-38.5 0,-38.5"/>
<text text-anchor="middle" x="47.5" y="-45.5" font-family="Helvetica,sans-Serif" font-size="10.00" fill="#000000">Trajectory&lt; T &gt;</text>
</a>
</g>
</g>
<!-- Node1 -->
<g id="node2" class="node">
<title>Node1</title>
<g id="a_node2"><a xlink:href="classdrake_1_1trajectories_1_1_piecewise_trajectory.html" target="_top" xlink:title="Abstract class that implements the basic logic of maintaining consequent segments of time (delimited ...">
<polygon fill="#ffffff" stroke="#000000" points="131,-38.5 131,-57.5 274,-57.5 274,-38.5 131,-38.5"/>
<text text-anchor="middle" x="202.5" y="-45.5" font-family="Helvetica,sans-Serif" font-size="10.00" fill="#000000">PiecewiseTrajectory&lt; T &gt;</text>
</a>
</g>
</g>
<!-- Node0&#45;&gt;Node1 -->
<g id="edge1" class="edge">
<title>Node0&#45;&gt;Node1</title>
<path fill="none" stroke="#191970" d="M105.2865,-48C113.6555,-48 122.353,-48 130.9522,-48"/>
<polygon fill="#191970" stroke="#191970" points="105.2699,-44.5001 95.2699,-48 105.2698,-51.5001 105.2699,-44.5001"/>
</g>
<!-- Node2 -->
<g id="node3" class="node">
<title>Node2</title>
<g id="a_node3"><a xlink:href="classdrake_1_1trajectories_1_1_exponential_plus_piecewise_polynomial.html" target="_top" xlink:title="y(t) = K * exp(A * (t &#45; t_j)) * alpha.col(j) + piecewise_polynomial_part(t) ">
<polygon fill="#ffffff" stroke="#000000" points="325,-77 325,-107 468,-107 468,-77 325,-77"/>
<text text-anchor="start" x="333" y="-95" font-family="Helvetica,sans-Serif" font-size="10.00" fill="#000000">ExponentialPlusPiecewise</text>
<text text-anchor="middle" x="396.5" y="-84" font-family="Helvetica,sans-Serif" font-size="10.00" fill="#000000">Polynomial&lt; T &gt;</text>
</a>
</g>
</g>
<!-- Node1&#45;&gt;Node2 -->
<g id="edge2" class="edge">
<title>Node1&#45;&gt;Node2</title>
<path fill="none" stroke="#191970" d="M254.5853,-59.8132C277.7937,-65.0769 305.4043,-71.3391 330.0754,-76.9346"/>
<polygon fill="#191970" stroke="#191970" points="255.1216,-56.346 244.5951,-57.5473 253.5732,-63.1726 255.1216,-56.346"/>
</g>
<!-- Node3 -->
<g id="node4" class="node">
<title>Node3</title>
<g id="a_node4"><a xlink:href="classdrake_1_1trajectories_1_1_piecewise_polynomial.html" target="_top" xlink:title="A scalar multi&#45;variate piecewise polynomial. ">
<polygon fill="#ffffff" stroke="#000000" points="322,-38.5 322,-57.5 471,-57.5 471,-38.5 322,-38.5"/>
<text text-anchor="middle" x="396.5" y="-45.5" font-family="Helvetica,sans-Serif" font-size="10.00" fill="#000000">PiecewisePolynomial&lt; T &gt;</text>
</a>
</g>
</g>
<!-- Node1&#45;&gt;Node3 -->
<g id="edge3" class="edge">
<title>Node1&#45;&gt;Node3</title>
<path fill="none" stroke="#191970" d="M284.5027,-48C296.8986,-48 309.6294,-48 321.8587,-48"/>
<polygon fill="#191970" stroke="#191970" points="284.1873,-44.5001 274.1873,-48 284.1872,-51.5001 284.1873,-44.5001"/>
</g>
<!-- Node4 -->
<g id="node5" class="node">
<title>Node4</title>
<g id="a_node5"><a xlink:href="classdrake_1_1trajectories_1_1_piecewise_quaternion_slerp.html" target="_top" xlink:title="A class representing a trajectory for quaternions that are interpolated using piecewise slerp (spheri...">
<polygon fill="#ffffff" stroke="#000000" points="310,-.5 310,-19.5 483,-19.5 483,-.5 310,-.5"/>
<text text-anchor="middle" x="396.5" y="-7.5" font-family="Helvetica,sans-Serif" font-size="10.00" fill="#000000">PiecewiseQuaternionSlerp&lt; T &gt;</text>
</a>
</g>
</g>
<!-- Node1&#45;&gt;Node4 -->
<g id="edge4" class="edge">
<title>Node1&#45;&gt;Node4</title>
<path fill="none" stroke="#191970" d="M261.4052,-36.4619C289.0751,-31.042 321.6619,-24.659 347.8976,-19.5201"/>
<polygon fill="#191970" stroke="#191970" points="260.5951,-33.054 251.4544,-38.411 261.9407,-39.9234 260.5951,-33.054"/>
</g>
</g>
</svg>
