<?xml version="1.0" encoding="UTF-8" standalone="no"?>
<!DOCTYPE svg PUBLIC "-//W3C//DTD SVG 1.1//EN"
 "http://www.w3.org/Graphics/SVG/1.1/DTD/svg11.dtd">
<!-- Generated by graphviz version 2.40.1 (20161225.0304)
 -->
<!-- Title: Graphical Class Hierarchy Pages: 1 -->
<svg width="476pt" height="28pt"
 viewBox="0.00 0.00 476.00 28.00" xmlns="http://www.w3.org/2000/svg" xmlns:xlink="http://www.w3.org/1999/xlink">
<g id="graph0" class="graph" transform="scale(1 1) rotate(0) translate(4 24)">
<title>Graphical Class Hierarchy</title>
<polygon fill="#ffffff" stroke="transparent" points="-4,4 -4,-24 472,-24 472,4 -4,4"/>
<!-- Node0 -->
<g id="node1" class="node">
<title>Node0</title>
<g id="a_node1"><a xlink:href="classdrake_1_1solvers_1_1test_1_1_linear_system_example1.html" target="_top" xlink:title="Simple example x = b. ">
<polygon fill="#ffffff" stroke="#000000" points="0,-.5 0,-19.5 132,-19.5 132,-.5 0,-.5"/>
<text text-anchor="middle" x="66" y="-7.5" font-family="Helvetica,sans-Serif" font-size="10.00" fill="#000000">LinearSystemExample1</text>
</a>
</g>
</g>
<!-- Node1 -->
<g id="node2" class="node">
<title>Node1</title>
<g id="a_node2"><a xlink:href="classdrake_1_1solvers_1_1test_1_1_linear_system_example2.html" target="_top" xlink:title="Simple linear system x = b 2 * y(0) = b(0) 2 * y(1) = b(1) ">
<polygon fill="#ffffff" stroke="#000000" points="168,-.5 168,-19.5 300,-19.5 300,-.5 168,-.5"/>
<text text-anchor="middle" x="234" y="-7.5" font-family="Helvetica,sans-Serif" font-size="10.00" fill="#000000">LinearSystemExample2</text>
</a>
</g>
</g>
<!-- Node0&#45;&gt;Node1 -->
<g id="edge1" class="edge">
<title>Node0&#45;&gt;Node1</title>
<path fill="none" stroke="#191970" d="M142.5946,-10C151.0134,-10 159.5322,-10 167.8092,-10"/>
<polygon fill="#191970" stroke="#191970" points="142.3981,-6.5001 132.398,-10 142.398,-13.5001 142.3981,-6.5001"/>
</g>
<!-- Node2 -->
<g id="node3" class="node">
<title>Node2</title>
<g id="a_node3"><a xlink:href="classdrake_1_1solvers_1_1test_1_1_linear_system_example3.html" target="_top" xlink:title="Simple linear system 3 * x = b 2 * y(0) = b(0) 2 * y(1) = b(1) ">
<polygon fill="#ffffff" stroke="#000000" points="336,-.5 336,-19.5 468,-19.5 468,-.5 336,-.5"/>
<text text-anchor="middle" x="402" y="-7.5" font-family="Helvetica,sans-Serif" font-size="10.00" fill="#000000">LinearSystemExample3</text>
</a>
</g>
</g>
<!-- Node1&#45;&gt;Node2 -->
<g id="edge2" class="edge">
<title>Node1&#45;&gt;Node2</title>
<path fill="none" stroke="#191970" d="M310.5946,-10C319.0134,-10 327.5322,-10 335.8092,-10"/>
<polygon fill="#191970" stroke="#191970" points="310.3981,-6.5001 300.398,-10 310.398,-13.5001 310.3981,-6.5001"/>
</g>
</g>
</svg>
