<?xml version="1.0" encoding="UTF-8" standalone="no"?>
<!DOCTYPE svg PUBLIC "-//W3C//DTD SVG 1.1//EN"
 "http://www.w3.org/Graphics/SVG/1.1/DTD/svg11.dtd">
<!-- Generated by graphviz version 2.40.1 (20161225.0304)
 -->
<!-- Title: Graphical Class Hierarchy Pages: 1 -->
<svg width="344pt" height="66pt"
 viewBox="0.00 0.00 344.00 66.00" xmlns="http://www.w3.org/2000/svg" xmlns:xlink="http://www.w3.org/1999/xlink">
<g id="graph0" class="graph" transform="scale(1 1) rotate(0) translate(4 62)">
<title>Graphical Class Hierarchy</title>
<polygon fill="#ffffff" stroke="transparent" points="-4,4 -4,-62 340,-62 340,4 -4,4"/>
<!-- Node0 -->
<g id="node1" class="node">
<title>Node0</title>
<g id="a_node1"><a xlink:href="structdrake_1_1pydrake_1_1wrap__arg__default.html" target="_top" xlink:title="Default case for argument wrapping, with pure pass&#45;through. ">
<polygon fill="#ffffff" stroke="#000000" points="0,-19.5 0,-38.5 130,-38.5 130,-19.5 0,-19.5"/>
<text text-anchor="middle" x="65" y="-26.5" font-family="Helvetica,sans-Serif" font-size="10.00" fill="#000000">wrap_arg_default&lt; T &gt;</text>
</a>
</g>
</g>
<!-- Node1 -->
<g id="node2" class="node">
<title>Node1</title>
<g id="a_node2"><a xlink:href="structdrake_1_1pydrake_1_1detail_1_1wrap__callback.html" target="_top" xlink:title="wrap_callback\&lt; T, typename \&gt;">
<polygon fill="#ffffff" stroke="#000000" points="166,-38.5 166,-57.5 336,-57.5 336,-38.5 166,-38.5"/>
<text text-anchor="middle" x="251" y="-45.5" font-family="Helvetica,sans-Serif" font-size="10.00" fill="#000000">wrap_callback&lt; T, typename &gt;</text>
</a>
</g>
</g>
<!-- Node0&#45;&gt;Node1 -->
<g id="edge1" class="edge">
<title>Node0&#45;&gt;Node1</title>
<path fill="none" stroke="#191970" d="M140.1857,-36.6803C148.5899,-37.5388 157.1957,-38.4178 165.7147,-39.2881"/>
<polygon fill="#191970" stroke="#191970" points="140.3577,-33.1797 130.0538,-35.6453 139.6463,-40.1435 140.3577,-33.1797"/>
</g>
<!-- Node2 -->
<g id="node3" class="node">
<title>Node2</title>
<g id="a_node3"><a xlink:href="structdrake_1_1pydrake_1_1detail_1_1wrap__ref__ptr.html" target="_top" xlink:title="wrap_ref_ptr\&lt; T, typename \&gt;">
<polygon fill="#ffffff" stroke="#000000" points="170,-.5 170,-19.5 332,-19.5 332,-.5 170,-.5"/>
<text text-anchor="middle" x="251" y="-7.5" font-family="Helvetica,sans-Serif" font-size="10.00" fill="#000000">wrap_ref_ptr&lt; T, typename &gt;</text>
</a>
</g>
</g>
<!-- Node0&#45;&gt;Node2 -->
<g id="edge2" class="edge">
<title>Node0&#45;&gt;Node2</title>
<path fill="none" stroke="#191970" d="M140.158,-21.3226C149.968,-20.3205 160.0532,-19.2903 169.9545,-18.2788"/>
<polygon fill="#191970" stroke="#191970" points="139.6463,-17.8565 130.0538,-22.3547 140.3577,-24.8203 139.6463,-17.8565"/>
</g>
</g>
</svg>
