<?xml version="1.0" encoding="UTF-8" standalone="no"?>
<!DOCTYPE svg PUBLIC "-//W3C//DTD SVG 1.1//EN"
 "http://www.w3.org/Graphics/SVG/1.1/DTD/svg11.dtd">
<!-- Generated by graphviz version 2.40.1 (20161225.0304)
 -->
<!-- Title: Graphical Class Hierarchy Pages: 1 -->
<svg width="277pt" height="100pt"
 viewBox="0.00 0.00 277.00 99.50" xmlns="http://www.w3.org/2000/svg" xmlns:xlink="http://www.w3.org/1999/xlink">
<g id="graph0" class="graph" transform="scale(1 1) rotate(0) translate(4 95.5)">
<title>Graphical Class Hierarchy</title>
<polygon fill="#ffffff" stroke="transparent" points="-4,4 -4,-95.5 273,-95.5 273,4 -4,4"/>
<!-- Node878 -->
<g id="node1" class="node">
<title>Node878</title>
<polygon fill="#ffffff" stroke="#bfbfbf" points="0,-38.5 0,-57.5 85,-57.5 85,-38.5 0,-38.5"/>
<text text-anchor="middle" x="42.5" y="-45.5" font-family="Helvetica,sans-Serif" font-size="10.00" fill="#000000">is_convertible</text>
</g>
<!-- Node0 -->
<g id="node2" class="node">
<title>Node0</title>
<g id="a_node2"><a xlink:href="structdrake_1_1solvers_1_1detail_1_1is__convertible__workaround.html" target="_top" xlink:title="is_convertible_workaround\l\&lt; A, B \&gt;">
<polygon fill="#ffffff" stroke="#000000" points="121,-61 121,-91 269,-91 269,-61 121,-61"/>
<text text-anchor="start" x="129" y="-79" font-family="Helvetica,sans-Serif" font-size="10.00" fill="#000000">is_convertible_workaround</text>
<text text-anchor="middle" x="195" y="-68" font-family="Helvetica,sans-Serif" font-size="10.00" fill="#000000">&lt; A, B &gt;</text>
</a>
</g>
</g>
<!-- Node878&#45;&gt;Node0 -->
<g id="edge1" class="edge">
<title>Node878&#45;&gt;Node0</title>
<path fill="none" stroke="#191970" d="M95.2759,-57.69C103.5762,-59.214 112.2876,-60.8135 120.9609,-62.4059"/>
<polygon fill="#191970" stroke="#191970" points="95.8533,-54.2376 85.3856,-55.8741 94.5891,-61.1225 95.8533,-54.2376"/>
</g>
<!-- Node880 -->
<g id="node3" class="node">
<title>Node880</title>
<g id="a_node3"><a xlink:href="structdrake_1_1solvers_1_1detail_1_1is__convertible__workaround_3_01std_1_1unique__ptr_3_01_a_016a35cedcd83581828da7b6ba97666877.html" target="_top" xlink:title="is_convertible_workaround\l\&lt; std::unique_ptr\&lt; A \&gt;,\l std::shared_ptr\&lt; B \&gt; \&gt;">
<polygon fill="#ffffff" stroke="#000000" points="121,-.5 121,-41.5 269,-41.5 269,-.5 121,-.5"/>
<text text-anchor="start" x="129" y="-29.5" font-family="Helvetica,sans-Serif" font-size="10.00" fill="#000000">is_convertible_workaround</text>
<text text-anchor="start" x="129" y="-18.5" font-family="Helvetica,sans-Serif" font-size="10.00" fill="#000000">&lt; std::unique_ptr&lt; A &gt;,</text>
<text text-anchor="middle" x="195" y="-7.5" font-family="Helvetica,sans-Serif" font-size="10.00" fill="#000000"> std::shared_ptr&lt; B &gt; &gt;</text>
</a>
</g>
</g>
<!-- Node878&#45;&gt;Node880 -->
<g id="edge2" class="edge">
<title>Node878&#45;&gt;Node880</title>
<path fill="none" stroke="#191970" d="M95.2759,-38.6561C103.5762,-37.1865 112.2876,-35.6442 120.9609,-34.1086"/>
<polygon fill="#191970" stroke="#191970" points="94.6222,-35.2173 85.3856,-40.4071 95.8427,-42.1101 94.6222,-35.2173"/>
</g>
</g>
</svg>
