<?xml version="1.0" encoding="UTF-8" standalone="no"?>
<!DOCTYPE svg PUBLIC "-//W3C//DTD SVG 1.1//EN"
 "http://www.w3.org/Graphics/SVG/1.1/DTD/svg11.dtd">
<!-- Generated by graphviz version 2.40.1 (20161225.0304)
 -->
<!-- Title: Graphical Class Hierarchy Pages: 1 -->
<svg width="438pt" height="85pt"
 viewBox="0.00 0.00 438.00 85.00" xmlns="http://www.w3.org/2000/svg" xmlns:xlink="http://www.w3.org/1999/xlink">
<g id="graph0" class="graph" transform="scale(1 1) rotate(0) translate(4 81)">
<title>Graphical Class Hierarchy</title>
<polygon fill="#ffffff" stroke="transparent" points="-4,4 -4,-81 434,-81 434,4 -4,4"/>
<!-- Node0 -->
<g id="node1" class="node">
<title>Node0</title>
<g id="a_node1"><a xlink:href="classdrake_1_1systems_1_1_output_port_base.html" target="_top" xlink:title="OutputPortBase handles the scalar type&#45;independent aspects of an OutputPort. ">
<polygon fill="#ffffff" stroke="#000000" points="0,-19.5 0,-38.5 93,-38.5 93,-19.5 0,-19.5"/>
<text text-anchor="middle" x="46.5" y="-26.5" font-family="Helvetica,sans-Serif" font-size="10.00" fill="#000000">OutputPortBase</text>
</a>
</g>
</g>
<!-- Node1 -->
<g id="node2" class="node">
<title>Node1</title>
<g id="a_node2"><a xlink:href="classdrake_1_1systems_1_1_output_port.html" target="_top" xlink:title="An OutputPort belongs to a System and represents the properties of one of that System&#39;s output ports...">
<polygon fill="#ffffff" stroke="#000000" points="142.5,-38.5 142.5,-57.5 240.5,-57.5 240.5,-38.5 142.5,-38.5"/>
<text text-anchor="middle" x="191.5" y="-45.5" font-family="Helvetica,sans-Serif" font-size="10.00" fill="#000000">OutputPort&lt; T &gt;</text>
</a>
</g>
</g>
<!-- Node0&#45;&gt;Node1 -->
<g id="edge1" class="edge">
<title>Node0&#45;&gt;Node1</title>
<path fill="none" stroke="#191970" d="M103.3469,-36.4489C116.2551,-38.1403 129.8586,-39.9228 142.4128,-41.5679"/>
<polygon fill="#191970" stroke="#191970" points="103.5471,-32.9453 93.1771,-35.1163 102.6375,-39.886 103.5471,-32.9453"/>
</g>
<!-- Node4 -->
<g id="node5" class="node">
<title>Node4</title>
<g id="a_node5"><a xlink:href="classdrake_1_1systems_1_1_output_port.html" target="_top" xlink:title="OutputPort\&lt; double \&gt;">
<polygon fill="#ffffff" stroke="#000000" points="129,-.5 129,-19.5 254,-19.5 254,-.5 129,-.5"/>
<text text-anchor="middle" x="191.5" y="-7.5" font-family="Helvetica,sans-Serif" font-size="10.00" fill="#000000">OutputPort&lt; double &gt;</text>
</a>
</g>
</g>
<!-- Node0&#45;&gt;Node4 -->
<g id="edge4" class="edge">
<title>Node0&#45;&gt;Node4</title>
<path fill="none" stroke="#191970" d="M103.2238,-21.5672C111.6069,-20.4687 120.2858,-19.3315 128.7821,-18.2182"/>
<polygon fill="#191970" stroke="#191970" points="102.6375,-18.114 93.1771,-22.8837 103.5471,-25.0547 102.6375,-18.114"/>
</g>
<!-- Node2 -->
<g id="node3" class="node">
<title>Node2</title>
<g id="a_node3"><a xlink:href="classdrake_1_1systems_1_1_diagram_output_port.html" target="_top" xlink:title="Holds information about a subsystem output port that has been exported to become one of this Diagram&#39;...">
<polygon fill="#ffffff" stroke="#000000" points="290,-57.5 290,-76.5 430,-76.5 430,-57.5 290,-57.5"/>
<text text-anchor="middle" x="360" y="-64.5" font-family="Helvetica,sans-Serif" font-size="10.00" fill="#000000">DiagramOutputPort&lt; T &gt;</text>
</a>
</g>
</g>
<!-- Node1&#45;&gt;Node2 -->
<g id="edge2" class="edge">
<title>Node1&#45;&gt;Node2</title>
<path fill="none" stroke="#191970" d="M250.63,-54.6675C263.2772,-56.0936 276.7556,-57.6134 289.7743,-59.0814"/>
<polygon fill="#191970" stroke="#191970" points="251.0194,-51.1893 240.6901,-53.5467 250.235,-58.1452 251.0194,-51.1893"/>
</g>
<!-- Node3 -->
<g id="node4" class="node">
<title>Node3</title>
<g id="a_node4"><a xlink:href="classdrake_1_1systems_1_1_leaf_output_port.html" target="_top" xlink:title="Implements an output port whose value is managed by a cache entry in the same LeafSystem as the port...">
<polygon fill="#ffffff" stroke="#000000" points="300.5,-19.5 300.5,-38.5 419.5,-38.5 419.5,-19.5 300.5,-19.5"/>
<text text-anchor="middle" x="360" y="-26.5" font-family="Helvetica,sans-Serif" font-size="10.00" fill="#000000">LeafOutputPort&lt; T &gt;</text>
</a>
</g>
</g>
<!-- Node1&#45;&gt;Node3 -->
<g id="edge3" class="edge">
<title>Node1&#45;&gt;Node3</title>
<path fill="none" stroke="#191970" d="M250.9869,-41.2923C266.9839,-39.4885 284.2881,-37.5372 300.2968,-35.7321"/>
<polygon fill="#191970" stroke="#191970" points="250.235,-37.8548 240.6901,-42.4533 251.0194,-44.8107 250.235,-37.8548"/>
</g>
</g>
</svg>
