<?xml version="1.0" encoding="UTF-8" standalone="no"?>
<!DOCTYPE svg PUBLIC "-//W3C//DTD SVG 1.1//EN"
 "http://www.w3.org/Graphics/SVG/1.1/DTD/svg11.dtd">
<!-- Generated by graphviz version 2.40.1 (20161225.0304)
 -->
<!-- Title: Graphical Class Hierarchy Pages: 1 -->
<svg width="157pt" height="218pt"
 viewBox="0.00 0.00 157.00 218.00" xmlns="http://www.w3.org/2000/svg" xmlns:xlink="http://www.w3.org/1999/xlink">
<g id="graph0" class="graph" transform="scale(1 1) rotate(0) translate(4 214)">
<title>Graphical Class Hierarchy</title>
<polygon fill="#ffffff" stroke="transparent" points="-4,4 -4,-214 153,-214 153,4 -4,4"/>
<!-- Node0 -->
<g id="node1" class="node">
<title>Node0</title>
<g id="a_node1"><a xlink:href="classdrake_1_1geometry_1_1_shape.html" target="_top" xlink:title="The base interface for all shape specifications. ">
<polygon fill="#ffffff" stroke="#000000" points="0,-95.5 0,-114.5 47,-114.5 47,-95.5 0,-95.5"/>
<text text-anchor="middle" x="23.5" y="-102.5" font-family="Helvetica,sans-Serif" font-size="10.00" fill="#000000">Shape</text>
</a>
</g>
</g>
<!-- Node1 -->
<g id="node2" class="node">
<title>Node1</title>
<g id="a_node2"><a xlink:href="classdrake_1_1geometry_1_1_box.html" target="_top" xlink:title="Definition of a box. ">
<polygon fill="#ffffff" stroke="#000000" points="98.5,-190.5 98.5,-209.5 133.5,-209.5 133.5,-190.5 98.5,-190.5"/>
<text text-anchor="middle" x="116" y="-197.5" font-family="Helvetica,sans-Serif" font-size="10.00" fill="#000000">Box</text>
</a>
</g>
</g>
<!-- Node0&#45;&gt;Node1 -->
<g id="edge1" class="edge">
<title>Node0&#45;&gt;Node1</title>
<path fill="none" stroke="#191970" d="M35.0657,-123.5884C45.9764,-140.0817 63.5292,-164.1118 83,-181 87.5945,-184.9851 93.1487,-188.5598 98.3794,-191.5044"/>
<polygon fill="#191970" stroke="#191970" points="37.8015,-121.3722 29.4449,-114.8594 31.9161,-125.162 37.8015,-121.3722"/>
</g>
<!-- Node2 -->
<g id="node3" class="node">
<title>Node2</title>
<g id="a_node3"><a xlink:href="classdrake_1_1geometry_1_1_convex.html" target="_top" xlink:title="Support for convex shapes. ">
<polygon fill="#ffffff" stroke="#000000" points="89.5,-152.5 89.5,-171.5 142.5,-171.5 142.5,-152.5 89.5,-152.5"/>
<text text-anchor="middle" x="116" y="-159.5" font-family="Helvetica,sans-Serif" font-size="10.00" fill="#000000">Convex</text>
</a>
</g>
</g>
<!-- Node0&#45;&gt;Node2 -->
<g id="edge2" class="edge">
<title>Node0&#45;&gt;Node2</title>
<path fill="none" stroke="#191970" d="M46.6219,-120.1154C57.5748,-127.1858 70.884,-135.6484 83,-143 88.1997,-146.155 93.9241,-149.4962 99.1245,-152.4823"/>
<polygon fill="#191970" stroke="#191970" points="48.3481,-117.0633 38.0536,-114.5588 44.5393,-122.9365 48.3481,-117.0633"/>
</g>
<!-- Node3 -->
<g id="node4" class="node">
<title>Node3</title>
<g id="a_node4"><a xlink:href="classdrake_1_1geometry_1_1_cylinder.html" target="_top" xlink:title="Definition of a cylinder. ">
<polygon fill="#ffffff" stroke="#000000" points="87.5,-114.5 87.5,-133.5 144.5,-133.5 144.5,-114.5 87.5,-114.5"/>
<text text-anchor="middle" x="116" y="-121.5" font-family="Helvetica,sans-Serif" font-size="10.00" fill="#000000">Cylinder</text>
</a>
</g>
</g>
<!-- Node0&#45;&gt;Node3 -->
<g id="edge3" class="edge">
<title>Node0&#45;&gt;Node3</title>
<path fill="none" stroke="#191970" d="M57.2254,-111.9274C67.0956,-113.9548 77.7888,-116.1512 87.3146,-118.1079"/>
<polygon fill="#191970" stroke="#191970" points="57.8208,-108.4767 47.321,-109.893 56.4123,-115.3335 57.8208,-108.4767"/>
</g>
<!-- Node4 -->
<g id="node5" class="node">
<title>Node4</title>
<g id="a_node5"><a xlink:href="classdrake_1_1geometry_1_1_half_space.html" target="_top" xlink:title="Definition of a half space. ">
<polygon fill="#ffffff" stroke="#000000" points="83,-76.5 83,-95.5 149,-95.5 149,-76.5 83,-76.5"/>
<text text-anchor="middle" x="116" y="-83.5" font-family="Helvetica,sans-Serif" font-size="10.00" fill="#000000">HalfSpace</text>
</a>
</g>
</g>
<!-- Node0&#45;&gt;Node4 -->
<g id="edge4" class="edge">
<title>Node0&#45;&gt;Node4</title>
<path fill="none" stroke="#191970" d="M57.1571,-98.0866C65.5303,-96.3667 74.4996,-94.5244 82.8483,-92.8095"/>
<polygon fill="#191970" stroke="#191970" points="56.4123,-94.6665 47.321,-100.107 57.8208,-101.5233 56.4123,-94.6665"/>
</g>
<!-- Node5 -->
<g id="node6" class="node">
<title>Node5</title>
<g id="a_node6"><a xlink:href="classdrake_1_1geometry_1_1_mesh.html" target="_top" xlink:title="Limited support for meshes. ">
<polygon fill="#ffffff" stroke="#000000" points="95,-38.5 95,-57.5 137,-57.5 137,-38.5 95,-38.5"/>
<text text-anchor="middle" x="116" y="-45.5" font-family="Helvetica,sans-Serif" font-size="10.00" fill="#000000">Mesh</text>
</a>
</g>
</g>
<!-- Node0&#45;&gt;Node5 -->
<g id="edge5" class="edge">
<title>Node0&#45;&gt;Node5</title>
<path fill="none" stroke="#191970" d="M46.6219,-89.8846C57.5748,-82.8142 70.884,-74.3516 83,-67 88.1997,-63.845 93.9241,-60.5038 99.1245,-57.5177"/>
<polygon fill="#191970" stroke="#191970" points="44.5393,-87.0635 38.0536,-95.4412 48.3481,-92.9367 44.5393,-87.0635"/>
</g>
<!-- Node6 -->
<g id="node7" class="node">
<title>Node6</title>
<g id="a_node7"><a xlink:href="classdrake_1_1geometry_1_1_sphere.html" target="_top" xlink:title="Definition of sphere. ">
<polygon fill="#ffffff" stroke="#000000" points="91,-.5 91,-19.5 141,-19.5 141,-.5 91,-.5"/>
<text text-anchor="middle" x="116" y="-7.5" font-family="Helvetica,sans-Serif" font-size="10.00" fill="#000000">Sphere</text>
</a>
</g>
</g>
<!-- Node0&#45;&gt;Node6 -->
<g id="edge6" class="edge">
<title>Node0&#45;&gt;Node6</title>
<path fill="none" stroke="#191970" d="M35.0657,-86.4116C45.9764,-69.9183 63.5292,-45.8882 83,-29 86.9953,-25.5347 91.7161,-22.3797 96.319,-19.6795"/>
<polygon fill="#191970" stroke="#191970" points="31.9161,-84.838 29.4449,-95.1406 37.8015,-88.6278 31.9161,-84.838"/>
</g>
</g>
</svg>
