<?xml version="1.0" encoding="UTF-8" standalone="no"?>
<!DOCTYPE svg PUBLIC "-//W3C//DTD SVG 1.1//EN"
 "http://www.w3.org/Graphics/SVG/1.1/DTD/svg11.dtd">
<!-- Generated by graphviz version 2.40.1 (20161225.0304)
 -->
<!-- Title: Graphical Class Hierarchy Pages: 1 -->
<svg width="505pt" height="66pt"
 viewBox="0.00 0.00 505.00 66.00" xmlns="http://www.w3.org/2000/svg" xmlns:xlink="http://www.w3.org/1999/xlink">
<g id="graph0" class="graph" transform="scale(1 1) rotate(0) translate(4 62)">
<title>Graphical Class Hierarchy</title>
<polygon fill="#ffffff" stroke="transparent" points="-4,4 -4,-62 501,-62 501,4 -4,4"/>
<!-- Node0 -->
<g id="node1" class="node">
<title>Node0</title>
<g id="a_node1"><a xlink:href="classdrake_1_1systems_1_1_dense_output.html" target="_top" xlink:title="An interface for dense output of ODE solutions, to efficiently approximate them at arbitrarily many p...">
<polygon fill="#ffffff" stroke="#000000" points="0,-19.5 0,-38.5 109,-38.5 109,-19.5 0,-19.5"/>
<text text-anchor="middle" x="54.5" y="-26.5" font-family="Helvetica,sans-Serif" font-size="10.00" fill="#000000">DenseOutput&lt; T &gt;</text>
</a>
</g>
</g>
<!-- Node1 -->
<g id="node2" class="node">
<title>Node1</title>
<g id="a_node2"><a xlink:href="classdrake_1_1systems_1_1_scalar_dense_output.html" target="_top" xlink:title="A DenseOutput class interface extension to deal with scalar ODE solutions. ">
<polygon fill="#ffffff" stroke="#000000" points="152,-38.5 152,-57.5 291,-57.5 291,-38.5 152,-38.5"/>
<text text-anchor="middle" x="221.5" y="-45.5" font-family="Helvetica,sans-Serif" font-size="10.00" fill="#000000">ScalarDenseOutput&lt; T &gt;</text>
</a>
</g>
</g>
<!-- Node0&#45;&gt;Node1 -->
<g id="edge1" class="edge">
<title>Node0&#45;&gt;Node1</title>
<path fill="none" stroke="#191970" d="M119.2458,-36.3663C129.9051,-37.579 140.9945,-38.8407 151.7692,-40.0666"/>
<polygon fill="#191970" stroke="#191970" points="119.5136,-32.8743 109.182,-35.2213 118.7223,-39.8294 119.5136,-32.8743"/>
</g>
<!-- Node3 -->
<g id="node4" class="node">
<title>Node3</title>
<g id="a_node4"><a xlink:href="classdrake_1_1systems_1_1_stepwise_dense_output.html" target="_top" xlink:title="A DenseOutput class interface extension, geared towards step&#45;wise construction procedures. ">
<polygon fill="#ffffff" stroke="#000000" points="145,-.5 145,-19.5 298,-19.5 298,-.5 145,-.5"/>
<text text-anchor="middle" x="221.5" y="-7.5" font-family="Helvetica,sans-Serif" font-size="10.00" fill="#000000">StepwiseDenseOutput&lt; T &gt;</text>
</a>
</g>
</g>
<!-- Node0&#45;&gt;Node3 -->
<g id="edge3" class="edge">
<title>Node0&#45;&gt;Node3</title>
<path fill="none" stroke="#191970" d="M119.2619,-21.6319C127.6539,-20.6771 136.3121,-19.692 144.8733,-18.718"/>
<polygon fill="#191970" stroke="#191970" points="118.7223,-18.1706 109.182,-22.7787 119.5136,-25.1257 118.7223,-18.1706"/>
</g>
<!-- Node2 -->
<g id="node3" class="node">
<title>Node2</title>
<g id="a_node3"><a xlink:href="classdrake_1_1systems_1_1_scalar_view_dense_output.html" target="_top" xlink:title="A ScalarDenseOutput class implementation that wraps a DenseOutput class instance and behaves as a vie...">
<polygon fill="#ffffff" stroke="#000000" points="334,-38.5 334,-57.5 497,-57.5 497,-38.5 334,-38.5"/>
<text text-anchor="middle" x="415.5" y="-45.5" font-family="Helvetica,sans-Serif" font-size="10.00" fill="#000000">ScalarViewDenseOutput&lt; T &gt;</text>
</a>
</g>
</g>
<!-- Node1&#45;&gt;Node2 -->
<g id="edge2" class="edge">
<title>Node1&#45;&gt;Node2</title>
<path fill="none" stroke="#191970" d="M301.411,-48C312.1039,-48 323.0828,-48 333.8058,-48"/>
<polygon fill="#191970" stroke="#191970" points="301.2644,-44.5001 291.2644,-48 301.2643,-51.5001 301.2644,-44.5001"/>
</g>
<!-- Node4 -->
<g id="node5" class="node">
<title>Node4</title>
<g id="a_node5"><a xlink:href="classdrake_1_1systems_1_1_hermitian_dense_output.html" target="_top" xlink:title="A StepwiseDenseOutput class implementation using Hermitian interpolators, and therefore a continuous ...">
<polygon fill="#ffffff" stroke="#000000" points="336.5,-.5 336.5,-19.5 494.5,-19.5 494.5,-.5 336.5,-.5"/>
<text text-anchor="middle" x="415.5" y="-7.5" font-family="Helvetica,sans-Serif" font-size="10.00" fill="#000000">HermitianDenseOutput&lt; T &gt;</text>
</a>
</g>
</g>
<!-- Node3&#45;&gt;Node4 -->
<g id="edge4" class="edge">
<title>Node3&#45;&gt;Node4</title>
<path fill="none" stroke="#191970" d="M308.2161,-10C317.5322,-10 326.9762,-10 336.1993,-10"/>
<polygon fill="#191970" stroke="#191970" points="308.174,-6.5001 298.1739,-10 308.1739,-13.5001 308.174,-6.5001"/>
</g>
</g>
</svg>
