<?xml version="1.0" encoding="UTF-8" standalone="no"?>
<!DOCTYPE svg PUBLIC "-//W3C//DTD SVG 1.1//EN"
 "http://www.w3.org/Graphics/SVG/1.1/DTD/svg11.dtd">
<!-- Generated by graphviz version 2.40.1 (20161225.0304)
 -->
<!-- Title: Graphical Class Hierarchy Pages: 1 -->
<svg width="443pt" height="294pt"
 viewBox="0.00 0.00 443.00 294.00" xmlns="http://www.w3.org/2000/svg" xmlns:xlink="http://www.w3.org/1999/xlink">
<g id="graph0" class="graph" transform="scale(1 1) rotate(0) translate(4 290)">
<title>Graphical Class Hierarchy</title>
<polygon fill="#ffffff" stroke="transparent" points="-4,4 -4,-290 439,-290 439,4 -4,4"/>
<!-- Node0 -->
<g id="node1" class="node">
<title>Node0</title>
<g id="a_node1"><a xlink:href="classdrake_1_1systems_1_1_vector_base.html" target="_top" xlink:title="VectorBase is an abstract base class that real&#45;valued signals between Systems and real&#45;valued System ...">
<polygon fill="#ffffff" stroke="#000000" points="0,-95.5 0,-114.5 101,-114.5 101,-95.5 0,-95.5"/>
<text text-anchor="middle" x="50.5" y="-102.5" font-family="Helvetica,sans-Serif" font-size="10.00" fill="#000000">VectorBase&lt; T &gt;</text>
</a>
</g>
</g>
<!-- Node1 -->
<g id="node2" class="node">
<title>Node1</title>
<g id="a_node2"><a xlink:href="classdrake_1_1systems_1_1_basic_vector.html" target="_top" xlink:title="BasicVector is a semantics&#45;free wrapper around an Eigen vector that satisfies VectorBase. ">
<polygon fill="#ffffff" stroke="#000000" points="137.5,-133.5 137.5,-152.5 240.5,-152.5 240.5,-133.5 137.5,-133.5"/>
<text text-anchor="middle" x="189" y="-140.5" font-family="Helvetica,sans-Serif" font-size="10.00" fill="#000000">BasicVector&lt; T &gt;</text>
</a>
</g>
</g>
<!-- Node0&#45;&gt;Node1 -->
<g id="edge1" class="edge">
<title>Node0&#45;&gt;Node1</title>
<path fill="none" stroke="#191970" d="M95.1342,-117.2462C114.2247,-122.484 136.1845,-128.5091 154.0618,-133.4141"/>
<polygon fill="#191970" stroke="#191970" points="96.0191,-113.8597 85.4494,-114.589 94.1669,-120.6102 96.0191,-113.8597"/>
</g>
<!-- Node10 -->
<g id="node11" class="node">
<title>Node10</title>
<g id="a_node11"><a xlink:href="classdrake_1_1systems_1_1_subvector.html" target="_top" xlink:title="Subvector is a concrete class template that implements VectorBase by providing a sliced view of a Vec...">
<polygon fill="#ffffff" stroke="#000000" points="142,-95.5 142,-114.5 236,-114.5 236,-95.5 142,-95.5"/>
<text text-anchor="middle" x="189" y="-102.5" font-family="Helvetica,sans-Serif" font-size="10.00" fill="#000000">Subvector&lt; T &gt;</text>
</a>
</g>
</g>
<!-- Node0&#45;&gt;Node10 -->
<g id="edge10" class="edge">
<title>Node0&#45;&gt;Node10</title>
<path fill="none" stroke="#191970" d="M111.3945,-105C121.6191,-105 132.0903,-105 141.8988,-105"/>
<polygon fill="#191970" stroke="#191970" points="111.2859,-101.5001 101.2858,-105 111.2858,-108.5001 111.2859,-101.5001"/>
</g>
<!-- Node11 -->
<g id="node12" class="node">
<title>Node11</title>
<g id="a_node12"><a xlink:href="classdrake_1_1systems_1_1_supervector.html" target="_top" xlink:title="Supervector is a concrete class template that implements VectorBase by concatenating multiple VectorB...">
<polygon fill="#ffffff" stroke="#000000" points="137,-57.5 137,-76.5 241,-76.5 241,-57.5 137,-57.5"/>
<text text-anchor="middle" x="189" y="-64.5" font-family="Helvetica,sans-Serif" font-size="10.00" fill="#000000">Supervector&lt; T &gt;</text>
</a>
</g>
</g>
<!-- Node0&#45;&gt;Node11 -->
<g id="edge11" class="edge">
<title>Node0&#45;&gt;Node11</title>
<path fill="none" stroke="#191970" d="M95.1342,-92.7538C114.2247,-87.516 136.1845,-81.4909 154.0618,-76.5859"/>
<polygon fill="#191970" stroke="#191970" points="94.1669,-89.3898 85.4494,-95.411 96.0191,-96.1403 94.1669,-89.3898"/>
</g>
<!-- Node2 -->
<g id="node3" class="node">
<title>Node2</title>
<g id="a_node3"><a xlink:href="classdrake_1_1examples_1_1kuka__iiwa__arm_1_1_iiwa_command.html" target="_top" xlink:title="A vectorized representation of lcmt_iiwa_command. ">
<polygon fill="#ffffff" stroke="#000000" points="298,-266.5 298,-285.5 414,-285.5 414,-266.5 298,-266.5"/>
<text text-anchor="middle" x="356" y="-273.5" font-family="Helvetica,sans-Serif" font-size="10.00" fill="#000000">IiwaCommand&lt; T &gt;</text>
</a>
</g>
</g>
<!-- Node1&#45;&gt;Node2 -->
<g id="edge2" class="edge">
<title>Node1&#45;&gt;Node2</title>
<path fill="none" stroke="#191970" d="M198.2539,-161.8024C211.8669,-187.4278 239.7619,-232.883 277,-257 283.2753,-261.0641 290.3383,-264.2598 297.5939,-266.7725"/>
<polygon fill="#191970" stroke="#191970" points="201.2822,-160.0376 193.5993,-152.7421 195.0558,-163.2364 201.2822,-160.0376"/>
</g>
<!-- Node3 -->
<g id="node4" class="node">
<title>Node3</title>
<g id="a_node4"><a xlink:href="classdrake_1_1systems_1_1_my_vector.html" target="_top" xlink:title="A simple subclass of BasicVector&lt;T&gt; for testing, particularly for cases where BasicVector subtyping m...">
<polygon fill="#ffffff" stroke="#000000" points="304,-228.5 304,-247.5 408,-247.5 408,-228.5 304,-228.5"/>
<text text-anchor="middle" x="356" y="-235.5" font-family="Helvetica,sans-Serif" font-size="10.00" fill="#000000">MyVector&lt; N, T &gt;</text>
</a>
</g>
</g>
<!-- Node1&#45;&gt;Node3 -->
<g id="edge3" class="edge">
<title>Node1&#45;&gt;Node3</title>
<path fill="none" stroke="#191970" d="M204.2452,-160.3169C220.5428,-177.7424 247.9844,-204.1078 277,-219 285.2829,-223.2512 294.5459,-226.5733 303.733,-229.1627"/>
<polygon fill="#191970" stroke="#191970" points="206.5057,-157.6014 197.1817,-152.5701 201.3331,-162.3178 206.5057,-157.6014"/>
</g>
<!-- Node4 -->
<g id="node5" class="node">
<title>Node4</title>
<g id="a_node5"><a xlink:href="classdrake_1_1systems_1_1rendering_1_1_frame_velocity.html" target="_top" xlink:title="A 6&#45;vector representing the derivatives of the position transform of frame A in the world frame...">
<polygon fill="#ffffff" stroke="#000000" points="298,-190.5 298,-209.5 414,-209.5 414,-190.5 298,-190.5"/>
<text text-anchor="middle" x="356" y="-197.5" font-family="Helvetica,sans-Serif" font-size="10.00" fill="#000000">FrameVelocity&lt; T &gt;</text>
</a>
</g>
</g>
<!-- Node1&#45;&gt;Node4 -->
<g id="edge4" class="edge">
<title>Node1&#45;&gt;Node4</title>
<path fill="none" stroke="#191970" d="M217.8849,-156.9655C234.8276,-164.7776 256.8087,-174.2679 277,-181 287.7057,-184.5695 299.4352,-187.7635 310.5031,-190.4682"/>
<polygon fill="#191970" stroke="#191970" points="219.0839,-153.6623 208.5431,-152.5933 216.1166,-160.0023 219.0839,-153.6623"/>
</g>
<!-- Node5 -->
<g id="node6" class="node">
<title>Node5</title>
<g id="a_node6"><a xlink:href="classdrake_1_1systems_1_1rendering_1_1_pose_vector.html" target="_top" xlink:title="A 7&#45;vector representing the transform of frame A in the world frame, X_WA, in the form {p_WA...">
<polygon fill="#ffffff" stroke="#000000" points="306,-152.5 306,-171.5 406,-171.5 406,-152.5 306,-152.5"/>
<text text-anchor="middle" x="356" y="-159.5" font-family="Helvetica,sans-Serif" font-size="10.00" fill="#000000">PoseVector&lt; T &gt;</text>
</a>
</g>
</g>
<!-- Node1&#45;&gt;Node5 -->
<g id="edge5" class="edge">
<title>Node1&#45;&gt;Node5</title>
<path fill="none" stroke="#191970" d="M251.0689,-150.0617C269.1192,-152.1154 288.6026,-154.332 305.8237,-156.2913"/>
<polygon fill="#191970" stroke="#191970" points="251.256,-146.5605 240.9244,-148.9076 250.4646,-153.5157 251.256,-146.5605"/>
</g>
<!-- Node6 -->
<g id="node7" class="node">
<title>Node6</title>
<g id="a_node7"><a xlink:href="classdrake_1_1systems_1_1sensors_1_1_accelerometer_output.html" target="_top" xlink:title="Specializes BasicVector with accessors and setters that are useful for consumers of Accelerometer&#39;s o...">
<polygon fill="#ffffff" stroke="#000000" points="281.5,-114.5 281.5,-133.5 430.5,-133.5 430.5,-114.5 281.5,-114.5"/>
<text text-anchor="middle" x="356" y="-121.5" font-family="Helvetica,sans-Serif" font-size="10.00" fill="#000000">AccelerometerOutput&lt; T &gt;</text>
</a>
</g>
</g>
<!-- Node1&#45;&gt;Node6 -->
<g id="edge6" class="edge">
<title>Node1&#45;&gt;Node6</title>
<path fill="none" stroke="#191970" d="M251.0549,-135.9399C260.9503,-134.814 271.2767,-133.6392 281.4252,-132.4846"/>
<polygon fill="#191970" stroke="#191970" points="250.4646,-132.4843 240.9244,-137.0924 251.256,-139.4395 250.4646,-132.4843"/>
</g>
<!-- Node7 -->
<g id="node8" class="node">
<title>Node7</title>
<g id="a_node8"><a xlink:href="classdrake_1_1systems_1_1sensors_1_1_depth_sensor_output.html" target="_top" xlink:title="Specializes BasicVector with specific getters and setters that are useful for consumers of DepthSenso...">
<polygon fill="#ffffff" stroke="#000000" points="286,-76.5 286,-95.5 426,-95.5 426,-76.5 286,-76.5"/>
<text text-anchor="middle" x="356" y="-83.5" font-family="Helvetica,sans-Serif" font-size="10.00" fill="#000000">DepthSensorOutput&lt; T &gt;</text>
</a>
</g>
</g>
<!-- Node1&#45;&gt;Node7 -->
<g id="edge7" class="edge">
<title>Node1&#45;&gt;Node7</title>
<path fill="none" stroke="#191970" d="M226.9953,-129.7962C231.7497,-127.9455 236.5146,-125.9921 241,-124 257.5343,-116.6565 260.0733,-111.3872 277,-105 286.7665,-101.3147 297.4878,-98.1723 307.7958,-95.567"/>
<polygon fill="#191970" stroke="#191970" points="225.4687,-126.6311 217.3437,-133.4307 227.9356,-133.182 225.4687,-126.6311"/>
</g>
<!-- Node8 -->
<g id="node9" class="node">
<title>Node8</title>
<g id="a_node9"><a xlink:href="classdrake_1_1systems_1_1sensors_1_1_gyroscope_output.html" target="_top" xlink:title="Specializes BasicVector with accessors and setters that are useful for consumers of Gyroscope&#39;s outpu...">
<polygon fill="#ffffff" stroke="#000000" points="291,-38.5 291,-57.5 421,-57.5 421,-38.5 291,-38.5"/>
<text text-anchor="middle" x="356" y="-45.5" font-family="Helvetica,sans-Serif" font-size="10.00" fill="#000000">GyroscopeOutput&lt; T &gt;</text>
</a>
</g>
</g>
<!-- Node1&#45;&gt;Node8 -->
<g id="edge8" class="edge">
<title>Node1&#45;&gt;Node8</title>
<path fill="none" stroke="#191970" d="M233.7782,-128.955C236.3237,-127.4578 238.7559,-125.8106 241,-124 264.3191,-105.1852 252.6443,-84.4522 277,-67 282.3893,-63.1383 288.4625,-60.0541 294.7868,-57.5922"/>
<polygon fill="#191970" stroke="#191970" points="232.1475,-125.8574 224.7962,-133.487 235.3008,-132.107 232.1475,-125.8574"/>
</g>
<!-- Node9 -->
<g id="node10" class="node">
<title>Node9</title>
<g id="a_node10"><a xlink:href="classdrake_1_1systems_1_1_spring_mass_state_vector.html" target="_top" xlink:title="The state of a one&#45;dimensional spring&#45;mass system, consisting of the position and velocity of the mas...">
<polygon fill="#ffffff" stroke="#000000" points="277,-.5 277,-19.5 435,-19.5 435,-.5 277,-.5"/>
<text text-anchor="middle" x="356" y="-7.5" font-family="Helvetica,sans-Serif" font-size="10.00" fill="#000000">SpringMassStateVector&lt; T &gt;</text>
</a>
</g>
</g>
<!-- Node1&#45;&gt;Node9 -->
<g id="edge9" class="edge">
<title>Node1&#45;&gt;Node9</title>
<path fill="none" stroke="#191970" d="M236.2904,-128.0142C237.9588,-126.7794 239.5386,-125.444 241,-124 273.117,-92.2633 243.1228,-58.8505 277,-29 281.3394,-25.1764 286.3152,-22.0902 291.6122,-19.6033"/>
<polygon fill="#191970" stroke="#191970" points="234.1183,-125.2361 227.3498,-133.387 237.724,-131.236 234.1183,-125.2361"/>
</g>
</g>
</svg>
