<?xml version="1.0" encoding="UTF-8" standalone="no"?>
<!DOCTYPE svg PUBLIC "-//W3C//DTD SVG 1.1//EN"
 "http://www.w3.org/Graphics/SVG/1.1/DTD/svg11.dtd">
<!-- Generated by graphviz version 2.40.1 (20161225.0304)
 -->
<!-- Title: Graphical Class Hierarchy Pages: 1 -->
<svg width="188pt" height="66pt"
 viewBox="0.00 0.00 188.00 66.00" xmlns="http://www.w3.org/2000/svg" xmlns:xlink="http://www.w3.org/1999/xlink">
<g id="graph0" class="graph" transform="scale(1 1) rotate(0) translate(4 62)">
<title>Graphical Class Hierarchy</title>
<polygon fill="#ffffff" stroke="transparent" points="-4,4 -4,-62 184,-62 184,4 -4,4"/>
<!-- Node0 -->
<g id="node1" class="node">
<title>Node0</title>
<g id="a_node1"><a xlink:href="class_drake_shapes_1_1_element.html" target="_top" xlink:title="Element">
<polygon fill="#ffffff" stroke="#000000" points="0,-19.5 0,-38.5 57,-38.5 57,-19.5 0,-19.5"/>
<text text-anchor="middle" x="28.5" y="-26.5" font-family="Helvetica,sans-Serif" font-size="10.00" fill="#000000">Element</text>
</a>
</g>
</g>
<!-- Node1 -->
<g id="node2" class="node">
<title>Node1</title>
<g id="a_node2"><a xlink:href="classdrake_1_1multibody_1_1collision_1_1_element.html" target="_top" xlink:title="The underyling primitive class used for collision analysis. ">
<polygon fill="#ffffff" stroke="#000000" points="108,-38.5 108,-57.5 165,-57.5 165,-38.5 108,-38.5"/>
<text text-anchor="middle" x="136.5" y="-45.5" font-family="Helvetica,sans-Serif" font-size="10.00" fill="#000000">Element</text>
</a>
</g>
</g>
<!-- Node0&#45;&gt;Node1 -->
<g id="edge1" class="edge">
<title>Node0&#45;&gt;Node1</title>
<path fill="none" stroke="#191970" d="M67.0705,-35.7855C80.4647,-38.1419 95.2416,-40.7416 107.7076,-42.9347"/>
<polygon fill="#191970" stroke="#191970" points="67.6137,-32.3274 57.1585,-34.0418 66.4008,-39.2216 67.6137,-32.3274"/>
</g>
<!-- Node2 -->
<g id="node3" class="node">
<title>Node2</title>
<g id="a_node3"><a xlink:href="class_drake_shapes_1_1_visual_element.html" target="_top" xlink:title="VisualElement">
<polygon fill="#ffffff" stroke="#000000" points="93,-.5 93,-19.5 180,-19.5 180,-.5 93,-.5"/>
<text text-anchor="middle" x="136.5" y="-7.5" font-family="Helvetica,sans-Serif" font-size="10.00" fill="#000000">VisualElement</text>
</a>
</g>
</g>
<!-- Node0&#45;&gt;Node2 -->
<g id="edge2" class="edge">
<title>Node0&#45;&gt;Node2</title>
<path fill="none" stroke="#191970" d="M67.247,-22.1834C75.4801,-20.735 84.2285,-19.1959 92.6367,-17.7167"/>
<polygon fill="#191970" stroke="#191970" points="66.4008,-18.7784 57.1585,-23.9582 67.6137,-25.6726 66.4008,-18.7784"/>
</g>
</g>
</svg>
