<?xml version="1.0" encoding="UTF-8" standalone="no"?>
<!DOCTYPE svg PUBLIC "-//W3C//DTD SVG 1.1//EN"
 "http://www.w3.org/Graphics/SVG/1.1/DTD/svg11.dtd">
<!-- Generated by graphviz version 2.40.1 (20161225.0304)
 -->
<!-- Title: Graphical Class Hierarchy Pages: 1 -->
<svg width="286pt" height="142pt"
 viewBox="0.00 0.00 286.00 142.00" xmlns="http://www.w3.org/2000/svg" xmlns:xlink="http://www.w3.org/1999/xlink">
<g id="graph0" class="graph" transform="scale(1 1) rotate(0) translate(4 138)">
<title>Graphical Class Hierarchy</title>
<polygon fill="#ffffff" stroke="transparent" points="-4,4 -4,-138 282,-138 282,4 -4,4"/>
<!-- Node0 -->
<g id="node1" class="node">
<title>Node0</title>
<g id="a_node1"><a xlink:href="classdrake_1_1maliput_1_1api_1_1_segment.html" target="_top" xlink:title="A Segment represents a bundle of adjacent Lanes which share a continuously traversable road surface...">
<polygon fill="#ffffff" stroke="#000000" points="0,-57.5 0,-76.5 60,-76.5 60,-57.5 0,-57.5"/>
<text text-anchor="middle" x="30" y="-64.5" font-family="Helvetica,sans-Serif" font-size="10.00" fill="#000000">Segment</text>
</a>
</g>
</g>
<!-- Node1 -->
<g id="node2" class="node">
<title>Node1</title>
<g id="a_node2"><a xlink:href="classdrake_1_1maliput_1_1dragway_1_1_segment.html" target="_top" xlink:title="Dragway&#39;s implementation of api::Segment. ">
<polygon fill="#ffffff" stroke="#000000" points="96,-114.5 96,-133.5 156,-133.5 156,-114.5 96,-114.5"/>
<text text-anchor="middle" x="126" y="-121.5" font-family="Helvetica,sans-Serif" font-size="10.00" fill="#000000">Segment</text>
</a>
</g>
</g>
<!-- Node0&#45;&gt;Node1 -->
<g id="edge1" class="edge">
<title>Node0&#45;&gt;Node1</title>
<path fill="none" stroke="#191970" d="M55.2978,-82.0206C72.6136,-92.3018 95.0507,-105.6238 109.9554,-114.4735"/>
<polygon fill="#191970" stroke="#191970" points="56.6706,-78.7652 46.2851,-76.6693 53.0968,-84.7842 56.6706,-78.7652"/>
</g>
<!-- Node2 -->
<g id="node3" class="node">
<title>Node2</title>
<g id="a_node3"><a xlink:href="classdrake_1_1maliput_1_1geometry__base_1_1_segment.html" target="_top" xlink:title="geometry_base&#39;s implementation of api::Segment. ">
<polygon fill="#ffffff" stroke="#000000" points="96,-76.5 96,-95.5 156,-95.5 156,-76.5 96,-76.5"/>
<text text-anchor="middle" x="126" y="-83.5" font-family="Helvetica,sans-Serif" font-size="10.00" fill="#000000">Segment</text>
</a>
</g>
</g>
<!-- Node0&#45;&gt;Node2 -->
<g id="edge2" class="edge">
<title>Node0&#45;&gt;Node2</title>
<path fill="none" stroke="#191970" d="M70.0666,-74.9298C78.7462,-76.6477 87.7817,-78.436 95.9952,-80.0616"/>
<polygon fill="#191970" stroke="#191970" points="70.6009,-71.4678 60.1116,-72.9596 69.2418,-78.3346 70.6009,-71.4678"/>
</g>
<!-- Node4 -->
<g id="node5" class="node">
<title>Node4</title>
<g id="a_node5"><a xlink:href="classdrake_1_1maliput_1_1multilane_1_1_segment.html" target="_top" xlink:title="An api::Segment implementation. ">
<polygon fill="#ffffff" stroke="#000000" points="96,-38.5 96,-57.5 156,-57.5 156,-38.5 96,-38.5"/>
<text text-anchor="middle" x="126" y="-45.5" font-family="Helvetica,sans-Serif" font-size="10.00" fill="#000000">Segment</text>
</a>
</g>
</g>
<!-- Node0&#45;&gt;Node4 -->
<g id="edge4" class="edge">
<title>Node0&#45;&gt;Node4</title>
<path fill="none" stroke="#191970" d="M70.0666,-59.0702C78.7462,-57.3523 87.7817,-55.564 95.9952,-53.9384"/>
<polygon fill="#191970" stroke="#191970" points="69.2418,-55.6654 60.1116,-61.0404 70.6009,-62.5322 69.2418,-55.6654"/>
</g>
<!-- Node5 -->
<g id="node6" class="node">
<title>Node5</title>
<g id="a_node6"><a xlink:href="classdrake_1_1maliput_1_1rndf_1_1_segment.html" target="_top" xlink:title="An api::Segment implementation for RNDF. ">
<polygon fill="#ffffff" stroke="#000000" points="96,-.5 96,-19.5 156,-19.5 156,-.5 96,-.5"/>
<text text-anchor="middle" x="126" y="-7.5" font-family="Helvetica,sans-Serif" font-size="10.00" fill="#000000">Segment</text>
</a>
</g>
</g>
<!-- Node0&#45;&gt;Node5 -->
<g id="edge5" class="edge">
<title>Node0&#45;&gt;Node5</title>
<path fill="none" stroke="#191970" d="M55.2978,-51.9794C72.6136,-41.6982 95.0507,-28.3762 109.9554,-19.5265"/>
<polygon fill="#191970" stroke="#191970" points="53.0968,-49.2158 46.2851,-57.3307 56.6706,-55.2348 53.0968,-49.2158"/>
</g>
<!-- Node3 -->
<g id="node4" class="node">
<title>Node3</title>
<g id="a_node4"><a xlink:href="classdrake_1_1maliput_1_1geometry__base_1_1test_1_1_mock_segment.html" target="_top" xlink:title="Mock api::Segment implementation; see mock_geometry.h. ">
<polygon fill="#ffffff" stroke="#000000" points="192,-76.5 192,-95.5 278,-95.5 278,-76.5 192,-76.5"/>
<text text-anchor="middle" x="235" y="-83.5" font-family="Helvetica,sans-Serif" font-size="10.00" fill="#000000">MockSegment</text>
</a>
</g>
</g>
<!-- Node2&#45;&gt;Node3 -->
<g id="edge3" class="edge">
<title>Node2&#45;&gt;Node3</title>
<path fill="none" stroke="#191970" d="M166.3358,-86C174.6905,-86 183.5223,-86 191.9692,-86"/>
<polygon fill="#191970" stroke="#191970" points="166.0733,-82.5001 156.0733,-86 166.0732,-89.5001 166.0733,-82.5001"/>
</g>
</g>
</svg>
