<?xml version="1.0" encoding="UTF-8" standalone="no"?>
<!DOCTYPE svg PUBLIC "-//W3C//DTD SVG 1.1//EN"
 "http://www.w3.org/Graphics/SVG/1.1/DTD/svg11.dtd">
<!-- Generated by graphviz version 2.40.1 (20161225.0304)
 -->
<!-- Title: drake/systems/analysis/initial_value_problem&#45;inl.h Pages: 1 -->
<svg width="482pt" height="262pt"
 viewBox="0.00 0.00 481.50 262.00" xmlns="http://www.w3.org/2000/svg" xmlns:xlink="http://www.w3.org/1999/xlink">
<g id="graph0" class="graph" transform="scale(1 1) rotate(0) translate(4 258)">
<title>drake/systems/analysis/initial_value_problem&#45;inl.h</title>
<polygon fill="#ffffff" stroke="transparent" points="-4,4 -4,-258 477.5,-258 477.5,4 -4,4"/>
<!-- Node121 -->
<g id="node1" class="node">
<title>Node121</title>
<polygon fill="#bfbfbf" stroke="#000000" points="167,-223.5 167,-253.5 317,-253.5 317,-223.5 167,-223.5"/>
<text text-anchor="start" x="175" y="-241.5" font-family="Helvetica,sans-Serif" font-size="10.00" fill="#000000">drake/systems/analysis</text>
<text text-anchor="middle" x="242" y="-230.5" font-family="Helvetica,sans-Serif" font-size="10.00" fill="#000000">/initial_value_problem&#45;inl.h</text>
</g>
<!-- Node122 -->
<g id="node2" class="node">
<title>Node122</title>
<g id="a_node2"><a xlink:href="initial__value__problem_8cc.html" target="_top" xlink:title="drake/systems/analysis\l/initial_value_problem.cc">
<polygon fill="#ffffff" stroke="#000000" points="18.5,-151 18.5,-181 157.5,-181 157.5,-151 18.5,-151"/>
<text text-anchor="start" x="26.5" y="-169" font-family="Helvetica,sans-Serif" font-size="10.00" fill="#000000">drake/systems/analysis</text>
<text text-anchor="middle" x="88" y="-158" font-family="Helvetica,sans-Serif" font-size="10.00" fill="#000000">/initial_value_problem.cc</text>
</a>
</g>
</g>
<!-- Node121&#45;&gt;Node122 -->
<g id="edge1" class="edge">
<title>Node121&#45;&gt;Node122</title>
<path fill="none" stroke="#191970" d="M200.7195,-219.066C175.3339,-207.115 143.2942,-192.0313 119.868,-181.0028"/>
<polygon fill="#191970" stroke="#191970" points="199.5528,-222.3851 210.0911,-223.478 202.5344,-216.0519 199.5528,-222.3851"/>
</g>
<!-- Node123 -->
<g id="node3" class="node">
<title>Node123</title>
<g id="a_node3"><a xlink:href="scalar__initial__value__problem-inl_8h.html" target="_top" xlink:title="drake/systems/analysis\l/scalar_initial_value\l_problem&#45;inl.h">
<polygon fill="#ffffff" stroke="#000000" points="176,-145.5 176,-186.5 308,-186.5 308,-145.5 176,-145.5"/>
<text text-anchor="start" x="184" y="-174.5" font-family="Helvetica,sans-Serif" font-size="10.00" fill="#000000">drake/systems/analysis</text>
<text text-anchor="start" x="184" y="-163.5" font-family="Helvetica,sans-Serif" font-size="10.00" fill="#000000">/scalar_initial_value</text>
<text text-anchor="middle" x="242" y="-152.5" font-family="Helvetica,sans-Serif" font-size="10.00" fill="#000000">_problem&#45;inl.h</text>
</a>
</g>
</g>
<!-- Node121&#45;&gt;Node123 -->
<g id="edge2" class="edge">
<title>Node121&#45;&gt;Node123</title>
<path fill="none" stroke="#191970" d="M242,-213.4016C242,-204.6173 242,-194.8652 242,-186.5015"/>
<polygon fill="#191970" stroke="#191970" points="238.5001,-213.4779 242,-223.478 245.5001,-213.478 238.5001,-213.4779"/>
</g>
<!-- Node128 -->
<g id="node8" class="node">
<title>Node128</title>
<g id="a_node8"><a xlink:href="initial__value__problem__test_8cc.html" target="_top" xlink:title="drake/systems/analysis\l/test/initial_value_problem\l_test.cc">
<polygon fill="#ffffff" stroke="#000000" points="326.5,-145.5 326.5,-186.5 473.5,-186.5 473.5,-145.5 326.5,-145.5"/>
<text text-anchor="start" x="334.5" y="-174.5" font-family="Helvetica,sans-Serif" font-size="10.00" fill="#000000">drake/systems/analysis</text>
<text text-anchor="start" x="334.5" y="-163.5" font-family="Helvetica,sans-Serif" font-size="10.00" fill="#000000">/test/initial_value_problem</text>
<text text-anchor="middle" x="400" y="-152.5" font-family="Helvetica,sans-Serif" font-size="10.00" fill="#000000">_test.cc</text>
</a>
</g>
</g>
<!-- Node121&#45;&gt;Node128 -->
<g id="edge7" class="edge">
<title>Node121&#45;&gt;Node128</title>
<path fill="none" stroke="#191970" d="M283.8442,-219.2993C305.8707,-209.1923 332.8874,-196.7953 355.3209,-186.5015"/>
<polygon fill="#191970" stroke="#191970" points="282.3668,-216.1263 274.7377,-223.478 285.2862,-222.4885 282.3668,-216.1263"/>
</g>
<!-- Node124 -->
<g id="node4" class="node">
<title>Node124</title>
<g id="a_node4"><a xlink:href="antiderivative__function-inl_8h.html" target="_top" xlink:title="drake/systems/analysis\l/antiderivative_function&#45;inl.h">
<polygon fill="#ffffff" stroke="#000000" points="0,-73 0,-103 158,-103 158,-73 0,-73"/>
<text text-anchor="start" x="8" y="-91" font-family="Helvetica,sans-Serif" font-size="10.00" fill="#000000">drake/systems/analysis</text>
<text text-anchor="middle" x="79" y="-80" font-family="Helvetica,sans-Serif" font-size="10.00" fill="#000000">/antiderivative_function&#45;inl.h</text>
</a>
</g>
</g>
<!-- Node123&#45;&gt;Node124 -->
<g id="edge3" class="edge">
<title>Node123&#45;&gt;Node124</title>
<path fill="none" stroke="#191970" d="M189.3977,-140.8284C163.4044,-128.3898 132.906,-113.7955 110.5594,-103.102"/>
<polygon fill="#191970" stroke="#191970" points="188.2157,-144.1428 198.7469,-145.3022 191.2373,-137.8285 188.2157,-144.1428"/>
</g>
<!-- Node126 -->
<g id="node6" class="node">
<title>Node126</title>
<g id="a_node6"><a xlink:href="scalar__initial__value__problem_8cc.html" target="_top" xlink:title="drake/systems/analysis\l/scalar_initial_value\l_problem.cc">
<polygon fill="#ffffff" stroke="#000000" points="176,-67.5 176,-108.5 308,-108.5 308,-67.5 176,-67.5"/>
<text text-anchor="start" x="184" y="-96.5" font-family="Helvetica,sans-Serif" font-size="10.00" fill="#000000">drake/systems/analysis</text>
<text text-anchor="start" x="184" y="-85.5" font-family="Helvetica,sans-Serif" font-size="10.00" fill="#000000">/scalar_initial_value</text>
<text text-anchor="middle" x="242" y="-74.5" font-family="Helvetica,sans-Serif" font-size="10.00" fill="#000000">_problem.cc</text>
</a>
</g>
</g>
<!-- Node123&#45;&gt;Node126 -->
<g id="edge5" class="edge">
<title>Node123&#45;&gt;Node126</title>
<path fill="none" stroke="#191970" d="M242,-135.0789C242,-126.2178 242,-116.7747 242,-108.6898"/>
<polygon fill="#191970" stroke="#191970" points="238.5001,-135.0974 242,-145.0974 245.5001,-135.0975 238.5001,-135.0974"/>
</g>
<!-- Node127 -->
<g id="node7" class="node">
<title>Node127</title>
<g id="a_node7"><a xlink:href="scalar__initial__value__problem__test_8cc.html" target="_top" xlink:title="drake/systems/analysis\l/test/scalar_initial_value\l_problem_test.cc">
<polygon fill="#ffffff" stroke="#000000" points="326,-67.5 326,-108.5 462,-108.5 462,-67.5 326,-67.5"/>
<text text-anchor="start" x="334" y="-96.5" font-family="Helvetica,sans-Serif" font-size="10.00" fill="#000000">drake/systems/analysis</text>
<text text-anchor="start" x="334" y="-85.5" font-family="Helvetica,sans-Serif" font-size="10.00" fill="#000000">/test/scalar_initial_value</text>
<text text-anchor="middle" x="394" y="-74.5" font-family="Helvetica,sans-Serif" font-size="10.00" fill="#000000">_problem_test.cc</text>
</a>
</g>
</g>
<!-- Node123&#45;&gt;Node127 -->
<g id="edge6" class="edge">
<title>Node123&#45;&gt;Node127</title>
<path fill="none" stroke="#191970" d="M291.4172,-140.6411C311.6818,-130.2422 334.8314,-118.3628 354.0048,-108.5239"/>
<polygon fill="#191970" stroke="#191970" points="289.6332,-137.6227 282.3341,-145.3022 292.8291,-143.8506 289.6332,-137.6227"/>
</g>
<!-- Node125 -->
<g id="node5" class="node">
<title>Node125</title>
<g id="a_node5"><a xlink:href="antiderivative__function_8cc.html" target="_top" xlink:title="drake/systems/analysis\l/antiderivative_function.cc">
<polygon fill="#ffffff" stroke="#000000" points="6,-.5 6,-30.5 152,-30.5 152,-.5 6,-.5"/>
<text text-anchor="start" x="14" y="-18.5" font-family="Helvetica,sans-Serif" font-size="10.00" fill="#000000">drake/systems/analysis</text>
<text text-anchor="middle" x="79" y="-7.5" font-family="Helvetica,sans-Serif" font-size="10.00" fill="#000000">/antiderivative_function.cc</text>
</a>
</g>
</g>
<!-- Node124&#45;&gt;Node125 -->
<g id="edge4" class="edge">
<title>Node124&#45;&gt;Node125</title>
<path fill="none" stroke="#191970" d="M79,-62.8409C79,-52.0601 79,-39.8309 79,-30.5028"/>
<polygon fill="#191970" stroke="#191970" points="75.5001,-62.9779 79,-72.978 82.5001,-62.978 75.5001,-62.9779"/>
</g>
</g>
</svg>
