<?xml version="1.0" encoding="UTF-8" standalone="no"?>
<!DOCTYPE svg PUBLIC "-//W3C//DTD SVG 1.1//EN"
 "http://www.w3.org/Graphics/SVG/1.1/DTD/svg11.dtd">
<!-- Generated by graphviz version 2.40.1 (20161225.0304)
 -->
<!-- Title: drake/systems/framework/input_port.h Pages: 1 -->
<!--zoomable 441 -->
<svg id="main" version="1.1" xmlns="http://www.w3.org/2000/svg" xmlns:xlink="http://www.w3.org/1999/xlink" xml:space="preserve" onload="init(evt)">
<style type="text/css"><![CDATA[
.edge:hover path { stroke: red; }
.edge:hover polygon { stroke: red; fill: red; }
]]></style>
<script type="text/javascript"><![CDATA[
var edges = document.getElementsByTagName('g');
if (edges && edges.length) {
  for (var i=0;i<edges.length;i++) {
    if (edges[i].id.substr(0,4)=='edge') {
      edges[i].setAttribute('class','edge');
    }
  }
}
]]></script>
        <defs>
                <circle id="rim" cx="0" cy="0" r="7"/>
                <circle id="rim2" cx="0" cy="0" r="3.5"/>
                <g id="zoomPlus">
                        <use xlink:href="#rim" fill="#404040">
                                <set attributeName="fill" to="#808080" begin="zoomplus.mouseover" end="zoomplus.mouseout"/>
                        </use>
                        <path d="M-4,0h8M0,-4v8" fill="none" stroke="white" stroke-width="1.5" pointer-events="none"/>
                </g>
                <g id="zoomMin">
                        <use xlink:href="#rim" fill="#404040">
                                <set attributeName="fill" to="#808080" begin="zoomminus.mouseover" end="zoomminus.mouseout"/>
                        </use>
                        <path d="M-4,0h8" fill="none" stroke="white" stroke-width="1.5" pointer-events="none"/>
                </g>
                <g id="dirArrow">
                        <path fill="none" stroke="white" stroke-width="1.5" d="M0,-3.0v7 M-2.5,-0.5L0,-3.0L2.5,-0.5"/>
                </g>
               <g id="resetDef">
                       <use xlink:href="#rim2" fill="#404040">
                               <set attributeName="fill" to="#808080" begin="reset.mouseover" end="reset.mouseout"/>
                       </use>
               </g>
        </defs>

<script type="text/javascript">
var viewWidth = 1211;
var viewHeight = 441;
var sectionId = 'dynsection-0';
</script>
<script xlink:href="svgpan.js"/>
<svg id="graph" class="graph">
<g id="viewport">
<title>drake/systems/framework/input_port.h</title>
<polygon fill="#ffffff" stroke="transparent" points="-4,4 -4,-437 1206.5,-437 1206.5,4 -4,4"/>
<!-- Node0 -->
<g id="node1" class="node">
<title>Node0</title>
<polygon fill="#bfbfbf" stroke="#000000" points="840.5,-402.5 840.5,-432.5 985.5,-432.5 985.5,-402.5 840.5,-402.5"/>
<text text-anchor="start" x="848.5" y="-420.5" font-family="Helvetica,sans-Serif" font-size="10.00" fill="#000000">drake/systems/framework</text>
<text text-anchor="middle" x="913" y="-409.5" font-family="Helvetica,sans-Serif" font-size="10.00" fill="#000000">/input_port.h</text>
</g>
<!-- Node1 -->
<g id="node2" class="node">
<title>Node1</title>
<polygon fill="#ffffff" stroke="#bfbfbf" points="54,-73 54,-92 98,-92 98,-73 54,-73"/>
<text text-anchor="middle" x="76" y="-80" font-family="Helvetica,sans-Serif" font-size="10.00" fill="#000000">string</text>
</g>
<!-- Node0&#45;&gt;Node1 -->
<g id="edge1" class="edge">
<title>Node0&#45;&gt;Node1</title>
<path fill="none" stroke="#191970" d="M840.2124,-414.4572C623.9141,-404.4552 0,-368.2585 0,-283.5 0,-283.5 0,-283.5 0,-216.5 0,-169.1632 36.328,-123.2294 58.7515,-99.3856"/>
<polygon fill="#191970" stroke="#191970" points="61.2961,-101.7892 65.7503,-92.1761 56.2735,-96.9133 61.2961,-101.7892"/>
</g>
<!-- Node2 -->
<g id="node3" class="node">
<title>Node2</title>
<polygon fill="#ffffff" stroke="#bfbfbf" points="629.5,-6 629.5,-25 674.5,-25 674.5,-6 629.5,-6"/>
<text text-anchor="middle" x="652" y="-13" font-family="Helvetica,sans-Serif" font-size="10.00" fill="#000000">utility</text>
</g>
<!-- Node0&#45;&gt;Node2 -->
<g id="edge2" class="edge">
<title>Node0&#45;&gt;Node2</title>
<path fill="none" stroke="#191970" d="M948.3279,-402.3777C989.8018,-381.9662 1053,-341.369 1053,-283.5 1053,-283.5 1053,-283.5 1053,-149.5 1053,-111.8735 1061.8057,-92.3495 1034,-67 1008.3053,-43.575 772.5593,-24.2418 684.754,-17.7957"/>
<polygon fill="#191970" stroke="#191970" points="684.7921,-14.2894 674.5652,-17.057 684.2859,-21.2711 684.7921,-14.2894"/>
</g>
<!-- Node3 -->
<g id="node4" class="node">
<title>Node3</title>
<g id="a_node4"><a xlink:href="constants_8h.html" target="_top" xlink:title="drake/common/constants.h">
<polygon fill="#ffffff" stroke="#000000" points="838.5,-274 838.5,-293 987.5,-293 987.5,-274 838.5,-274"/>
<text text-anchor="middle" x="913" y="-281" font-family="Helvetica,sans-Serif" font-size="10.00" fill="#000000">drake/common/constants.h</text>
</a>
</g>
</g>
<!-- Node0&#45;&gt;Node3 -->
<g id="edge3" class="edge">
<title>Node0&#45;&gt;Node3</title>
<path fill="none" stroke="#191970" d="M913,-402.389C913,-378.0735 913,-330.2644 913,-303.2698"/>
<polygon fill="#191970" stroke="#191970" points="916.5001,-303.1041 913,-293.1042 909.5001,-303.1042 916.5001,-303.1041"/>
</g>
<!-- Node4 -->
<g id="node5" class="node">
<title>Node4</title>
<g id="a_node5"><a xlink:href="drake__deprecated_8h.html" target="_top" xlink:title="Provides a portable macro for use in generating compile&#45;time warnings for use of code that is permitt...">
<polygon fill="#ffffff" stroke="#000000" points="1081.5,-335.5 1081.5,-365.5 1202.5,-365.5 1202.5,-335.5 1081.5,-335.5"/>
<text text-anchor="start" x="1089.5" y="-353.5" font-family="Helvetica,sans-Serif" font-size="10.00" fill="#000000">drake/common/drake</text>
<text text-anchor="middle" x="1142" y="-342.5" font-family="Helvetica,sans-Serif" font-size="10.00" fill="#000000">_deprecated.h</text>
</a>
</g>
</g>
<!-- Node0&#45;&gt;Node4 -->
<g id="edge4" class="edge">
<title>Node0&#45;&gt;Node4</title>
<path fill="none" stroke="#191970" d="M964.3921,-402.4639C998.7449,-392.4131 1044.1195,-379.1375 1080.4066,-368.5208"/>
<polygon fill="#191970" stroke="#191970" points="1081.769,-371.769 1090.3838,-365.6017 1079.8033,-365.0506 1081.769,-371.769"/>
</g>
<!-- Node5 -->
<g id="node6" class="node">
<title>Node5</title>
<g id="a_node6"><a xlink:href="drake__optional_8h.html" target="_top" xlink:title="Provides drake::optional as an alias for the appropriate implementation of std::optional or std::expe...">
<polygon fill="#ffffff" stroke="#000000" points="884.5,-134.5 884.5,-164.5 1005.5,-164.5 1005.5,-134.5 884.5,-134.5"/>
<text text-anchor="start" x="892.5" y="-152.5" font-family="Helvetica,sans-Serif" font-size="10.00" fill="#000000">drake/common/drake</text>
<text text-anchor="middle" x="945" y="-141.5" font-family="Helvetica,sans-Serif" font-size="10.00" fill="#000000">_optional.h</text>
</a>
</g>
</g>
<!-- Node0&#45;&gt;Node5 -->
<g id="edge5" class="edge">
<title>Node0&#45;&gt;Node5</title>
<path fill="none" stroke="#191970" d="M928.5366,-402.4054C948.8791,-381.4409 983.5315,-341.2897 997,-299 1011.2834,-254.1513 983.1758,-202.3924 963.0081,-173.0466"/>
<polygon fill="#191970" stroke="#191970" points="965.7108,-170.8079 957.0598,-164.6913 960.0082,-174.8676 965.7108,-170.8079"/>
</g>
<!-- Node8 -->
<g id="node9" class="node">
<title>Node8</title>
<g id="a_node9"><a xlink:href="framework__common_8h.html" target="_top" xlink:title="drake/systems/framework\l/framework_common.h">
<polygon fill="#ffffff" stroke="#000000" points="637.5,-268.5 637.5,-298.5 782.5,-298.5 782.5,-268.5 637.5,-268.5"/>
<text text-anchor="start" x="645.5" y="-286.5" font-family="Helvetica,sans-Serif" font-size="10.00" fill="#000000">drake/systems/framework</text>
<text text-anchor="middle" x="710" y="-275.5" font-family="Helvetica,sans-Serif" font-size="10.00" fill="#000000">/framework_common.h</text>
</a>
</g>
</g>
<!-- Node0&#45;&gt;Node8 -->
<g id="edge8" class="edge">
<title>Node0&#45;&gt;Node8</title>
<path fill="none" stroke="#191970" d="M895.3253,-402.1953C874.8364,-384.8279 839.6872,-356.1701 807,-335 789.1475,-323.4377 768.4347,-312.173 750.7445,-303.142"/>
<polygon fill="#191970" stroke="#191970" points="752.3054,-300.0094 741.8003,-298.6333 749.1544,-306.2601 752.3054,-300.0094"/>
</g>
<!-- Node24 -->
<g id="node25" class="node">
<title>Node24</title>
<g id="a_node25"><a xlink:href="input__port__base_8h.html" target="_top" xlink:title="drake/systems/framework\l/input_port_base.h">
<polygon fill="#ffffff" stroke="#000000" points="653.5,-335.5 653.5,-365.5 798.5,-365.5 798.5,-335.5 653.5,-335.5"/>
<text text-anchor="start" x="661.5" y="-353.5" font-family="Helvetica,sans-Serif" font-size="10.00" fill="#000000">drake/systems/framework</text>
<text text-anchor="middle" x="726" y="-342.5" font-family="Helvetica,sans-Serif" font-size="10.00" fill="#000000">/input_port_base.h</text>
</a>
</g>
</g>
<!-- Node0&#45;&gt;Node24 -->
<g id="edge37" class="edge">
<title>Node0&#45;&gt;Node24</title>
<path fill="none" stroke="#191970" d="M871.0335,-402.4639C843.4608,-392.5849 807.1928,-379.5905 777.8228,-369.0675"/>
<polygon fill="#191970" stroke="#191970" points="778.744,-365.6798 768.1495,-365.6017 776.3829,-372.2696 778.744,-365.6798"/>
</g>
<!-- Node6 -->
<g id="node7" class="node">
<title>Node6</title>
<polygon fill="#ffffff" stroke="#bfbfbf" points="935,-73 935,-92 1025,-92 1025,-73 935,-73"/>
<text text-anchor="middle" x="980" y="-80" font-family="Helvetica,sans-Serif" font-size="10.00" fill="#000000">stx/variant.hpp</text>
</g>
<!-- Node5&#45;&gt;Node6 -->
<g id="edge6" class="edge">
<title>Node5&#45;&gt;Node6</title>
<path fill="none" stroke="#191970" d="M952.942,-134.2967C958.0775,-124.4658 964.7971,-111.6026 970.2551,-101.1545"/>
<polygon fill="#191970" stroke="#191970" points="973.4806,-102.5391 975.0086,-92.055 967.2761,-99.2979 973.4806,-102.5391"/>
</g>
<!-- Node7 -->
<g id="node8" class="node">
<title>Node7</title>
<polygon fill="#ffffff" stroke="#bfbfbf" points="821.5,-73 821.5,-92 916.5,-92 916.5,-73 821.5,-73"/>
<text text-anchor="middle" x="869" y="-80" font-family="Helvetica,sans-Serif" font-size="10.00" fill="#000000">stx/optional.hpp</text>
</g>
<!-- Node5&#45;&gt;Node7 -->
<g id="edge7" class="edge">
<title>Node5&#45;&gt;Node7</title>
<path fill="none" stroke="#191970" d="M927.7544,-134.2967C915.7983,-123.7564 899.8881,-109.7303 887.6396,-98.9323"/>
<polygon fill="#191970" stroke="#191970" points="889.6543,-96.0425 879.8385,-92.055 885.0252,-101.2934 889.6543,-96.0425"/>
</g>
<!-- Node8&#45;&gt;Node1 -->
<g id="edge11" class="edge">
<title>Node8&#45;&gt;Node1</title>
<path fill="none" stroke="#191970" d="M637.2061,-280.5969C548.9512,-275.8015 396.2253,-263.3913 269,-232 188.5445,-212.1486 149.3172,-227.5844 95,-165 79.9214,-147.6264 76.1785,-120.6587 75.5465,-102.3225"/>
<polygon fill="#191970" stroke="#191970" points="79.0456,-102.1613 75.4815,-92.1839 72.0458,-102.2062 79.0456,-102.1613"/>
</g>
<!-- Node8&#45;&gt;Node5 -->
<g id="edge15" class="edge">
<title>Node8&#45;&gt;Node5</title>
<path fill="none" stroke="#191970" d="M778.5519,-268.4787C830.9577,-256.4996 895.9011,-240.3873 906,-232 923.6053,-217.3785 933.7599,-192.9899 939.2667,-174.5122"/>
<polygon fill="#191970" stroke="#191970" points="942.6896,-175.2624 941.9295,-164.6949 935.9337,-173.43 942.6896,-175.2624"/>
</g>
<!-- Node9 -->
<g id="node10" class="node">
<title>Node9</title>
<polygon fill="#ffffff" stroke="#bfbfbf" points="618,-207 618,-226 682,-226 682,-207 618,-207"/>
<text text-anchor="middle" x="650" y="-214" font-family="Helvetica,sans-Serif" font-size="10.00" fill="#000000">algorithm</text>
</g>
<!-- Node8&#45;&gt;Node9 -->
<g id="edge9" class="edge">
<title>Node8&#45;&gt;Node9</title>
<path fill="none" stroke="#191970" d="M696.3851,-268.2967C687.1276,-257.9591 674.8673,-244.2684 665.2765,-233.5588"/>
<polygon fill="#191970" stroke="#191970" points="667.8353,-231.1696 658.5567,-226.055 662.6206,-235.8394 667.8353,-231.1696"/>
</g>
<!-- Node10 -->
<g id="node11" class="node">
<title>Node10</title>
<polygon fill="#ffffff" stroke="#bfbfbf" points="680,-73 680,-92 738,-92 738,-73 680,-73"/>
<text text-anchor="middle" x="709" y="-80" font-family="Helvetica,sans-Serif" font-size="10.00" fill="#000000">memory</text>
</g>
<!-- Node8&#45;&gt;Node10 -->
<g id="edge10" class="edge">
<title>Node8&#45;&gt;Node10</title>
<path fill="none" stroke="#191970" d="M709.9248,-268.3923C709.7467,-232.5844 709.2988,-142.5545 709.0989,-102.386"/>
<polygon fill="#191970" stroke="#191970" points="712.5983,-102.2386 709.0485,-92.2562 705.5984,-102.2735 712.5983,-102.2386"/>
</g>
<!-- Node11 -->
<g id="node12" class="node">
<title>Node11</title>
<polygon fill="#ffffff" stroke="#bfbfbf" points="756.5,-73 756.5,-92 803.5,-92 803.5,-73 756.5,-73"/>
<text text-anchor="middle" x="780" y="-80" font-family="Helvetica,sans-Serif" font-size="10.00" fill="#000000">vector</text>
</g>
<!-- Node8&#45;&gt;Node11 -->
<g id="edge12" class="edge">
<title>Node8&#45;&gt;Node11</title>
<path fill="none" stroke="#191970" d="M715.2614,-268.3923C727.7852,-232.431 759.3544,-141.7824 773.2533,-101.8727"/>
<polygon fill="#191970" stroke="#191970" points="776.6187,-102.851 776.6023,-92.2562 770.0081,-100.5488 776.6187,-102.851"/>
</g>
<!-- Node12 -->
<g id="node13" class="node">
<title>Node12</title>
<g id="a_node13"><a xlink:href="drake__assert_8h.html" target="_top" xlink:title="Provides Drake&#39;s assertion implementation. ">
<polygon fill="#ffffff" stroke="#000000" points="288.5,-67.5 288.5,-97.5 409.5,-97.5 409.5,-67.5 288.5,-67.5"/>
<text text-anchor="start" x="296.5" y="-85.5" font-family="Helvetica,sans-Serif" font-size="10.00" fill="#000000">drake/common/drake</text>
<text text-anchor="middle" x="349" y="-74.5" font-family="Helvetica,sans-Serif" font-size="10.00" fill="#000000">_assert.h</text>
</a>
</g>
</g>
<!-- Node8&#45;&gt;Node12 -->
<g id="edge13" class="edge">
<title>Node8&#45;&gt;Node12</title>
<path fill="none" stroke="#191970" d="M675.7702,-268.329C655.7153,-258.8878 630.2351,-245.9196 609,-232 580.3492,-213.2194 519.7369,-151.0088 490,-134 466.035,-120.2926 437.7586,-109.1108 412.8431,-100.7116"/>
<polygon fill="#191970" stroke="#191970" points="413.7095,-97.3122 403.1166,-97.5145 411.5236,-103.9622 413.7095,-97.3122"/>
</g>
<!-- Node14 -->
<g id="node15" class="node">
<title>Node14</title>
<g id="a_node15"><a xlink:href="drake__variant_8h.html" target="_top" xlink:title="Provides drake::variant as an alias for the appropriate implementation of std::variant or or stx::var...">
<polygon fill="#ffffff" stroke="#000000" points="776.5,-201.5 776.5,-231.5 897.5,-231.5 897.5,-201.5 776.5,-201.5"/>
<text text-anchor="start" x="784.5" y="-219.5" font-family="Helvetica,sans-Serif" font-size="10.00" fill="#000000">drake/common/drake</text>
<text text-anchor="middle" x="837" y="-208.5" font-family="Helvetica,sans-Serif" font-size="10.00" fill="#000000">_variant.h</text>
</a>
</g>
</g>
<!-- Node8&#45;&gt;Node14 -->
<g id="edge16" class="edge">
<title>Node8&#45;&gt;Node14</title>
<path fill="none" stroke="#191970" d="M738.5013,-268.4639C756.4313,-259.0047 779.7753,-246.6894 799.237,-236.4222"/>
<polygon fill="#191970" stroke="#191970" points="800.9429,-239.4795 808.1544,-231.7177 797.6766,-233.2882 800.9429,-239.4795"/>
</g>
<!-- Node15 -->
<g id="node16" class="node">
<title>Node15</title>
<g id="a_node16"><a xlink:href="type__safe__index_8h.html" target="_top" xlink:title="drake/common/type_safe\l_index.h">
<polygon fill="#ffffff" stroke="#000000" points="278.5,-201.5 278.5,-231.5 419.5,-231.5 419.5,-201.5 278.5,-201.5"/>
<text text-anchor="start" x="286.5" y="-219.5" font-family="Helvetica,sans-Serif" font-size="10.00" fill="#000000">drake/common/type_safe</text>
<text text-anchor="middle" x="349" y="-208.5" font-family="Helvetica,sans-Serif" font-size="10.00" fill="#000000">_index.h</text>
</a>
</g>
</g>
<!-- Node8&#45;&gt;Node15 -->
<g id="edge18" class="edge">
<title>Node8&#45;&gt;Node15</title>
<path fill="none" stroke="#191970" d="M637.3805,-270.0221C577.3092,-258.8732 492.0579,-243.0509 429.8298,-231.5017"/>
<polygon fill="#191970" stroke="#191970" points="430.1302,-227.9977 419.6594,-229.6141 428.8528,-234.8802 430.1302,-227.9977"/>
</g>
<!-- Node13 -->
<g id="node14" class="node">
<title>Node13</title>
<polygon fill="#ffffff" stroke="#bfbfbf" points="314.5,-6 314.5,-25 383.5,-25 383.5,-6 314.5,-6"/>
<text text-anchor="middle" x="349" y="-13" font-family="Helvetica,sans-Serif" font-size="10.00" fill="#000000">type_traits</text>
</g>
<!-- Node12&#45;&gt;Node13 -->
<g id="edge14" class="edge">
<title>Node12&#45;&gt;Node13</title>
<path fill="none" stroke="#191970" d="M349,-67.2967C349,-57.7699 349,-45.3954 349,-35.1306"/>
<polygon fill="#191970" stroke="#191970" points="352.5001,-35.0549 349,-25.055 345.5001,-35.055 352.5001,-35.0549"/>
</g>
<!-- Node14&#45;&gt;Node5 -->
<g id="edge17" class="edge">
<title>Node14&#45;&gt;Node5</title>
<path fill="none" stroke="#191970" d="M861.2373,-201.4639C876.1399,-192.2188 895.4406,-180.2452 911.7583,-170.1222"/>
<polygon fill="#191970" stroke="#191970" points="913.8174,-172.9636 920.4699,-164.7177 910.1272,-167.0153 913.8174,-172.9636"/>
</g>
<!-- Node15&#45;&gt;Node1 -->
<g id="edge21" class="edge">
<title>Node15&#45;&gt;Node1</title>
<path fill="none" stroke="#191970" d="M327.968,-201.4462C313.9608,-191.3182 295.2187,-177.5691 279,-165 261.772,-151.6487 260.1961,-144.3234 241,-134 197.7675,-110.7502 142.416,-96.1855 108.0845,-88.6995"/>
<polygon fill="#191970" stroke="#191970" points="108.6486,-85.2416 98.1415,-86.6018 107.2035,-92.0908 108.6486,-85.2416"/>
</g>
<!-- Node15&#45;&gt;Node12 -->
<g id="edge22" class="edge">
<title>Node15&#45;&gt;Node12</title>
<path fill="none" stroke="#191970" d="M380.6421,-201.4839C394.8158,-192.9409 410.0935,-180.7673 418,-165 424.1759,-152.6839 424.1759,-146.3161 418,-134 411.6995,-121.4355 400.7182,-111.1529 389.3448,-103.1711"/>
<polygon fill="#191970" stroke="#191970" points="390.9344,-100.03 380.6421,-97.5161 387.1203,-105.8996 390.9344,-100.03"/>
</g>
<!-- Node16 -->
<g id="node17" class="node">
<title>Node16</title>
<polygon fill="#ffffff" stroke="#bfbfbf" points="104.5,-140 104.5,-159 169.5,-159 169.5,-140 104.5,-140"/>
<text text-anchor="middle" x="137" y="-147" font-family="Helvetica,sans-Serif" font-size="10.00" fill="#000000">functional</text>
</g>
<!-- Node15&#45;&gt;Node16 -->
<g id="edge19" class="edge">
<title>Node15&#45;&gt;Node16</title>
<path fill="none" stroke="#191970" d="M296.2856,-201.408C262.5831,-191.5431 218.0293,-178.1008 179,-165 176.6145,-164.1993 174.1606,-163.3532 171.6939,-162.486"/>
<polygon fill="#191970" stroke="#191970" points="172.8274,-159.1743 162.233,-159.0882 170.4614,-165.7623 172.8274,-159.1743"/>
</g>
<!-- Node17 -->
<g id="node18" class="node">
<title>Node17</title>
<polygon fill="#ffffff" stroke="#bfbfbf" points="188,-140 188,-159 232,-159 232,-140 188,-140"/>
<text text-anchor="middle" x="210" y="-147" font-family="Helvetica,sans-Serif" font-size="10.00" fill="#000000">limits</text>
</g>
<!-- Node15&#45;&gt;Node17 -->
<g id="edge20" class="edge">
<title>Node15&#45;&gt;Node17</title>
<path fill="none" stroke="#191970" d="M317.8057,-201.4639C294.2732,-190.1209 262.2198,-174.6707 239.1906,-163.5703"/>
<polygon fill="#191970" stroke="#191970" points="240.4524,-160.2932 229.9246,-159.1039 237.413,-166.5989 240.4524,-160.2932"/>
</g>
<!-- Node18 -->
<g id="node19" class="node">
<title>Node18</title>
<g id="a_node19"><a xlink:href="drake__throw_8h.html" target="_top" xlink:title="Provides a convenient wrapper to throw an exception when a condition is unmet. ">
<polygon fill="#ffffff" stroke="#000000" points="288.5,-134.5 288.5,-164.5 409.5,-164.5 409.5,-134.5 288.5,-134.5"/>
<text text-anchor="start" x="296.5" y="-152.5" font-family="Helvetica,sans-Serif" font-size="10.00" fill="#000000">drake/common/drake</text>
<text text-anchor="middle" x="349" y="-141.5" font-family="Helvetica,sans-Serif" font-size="10.00" fill="#000000">_throw.h</text>
</a>
</g>
</g>
<!-- Node15&#45;&gt;Node18 -->
<g id="edge23" class="edge">
<title>Node15&#45;&gt;Node18</title>
<path fill="none" stroke="#191970" d="M349,-201.2967C349,-193.5013 349,-183.7991 349,-174.9064"/>
<polygon fill="#191970" stroke="#191970" points="352.5001,-174.6431 349,-164.6432 345.5001,-174.6432 352.5001,-174.6431"/>
</g>
<!-- Node19 -->
<g id="node20" class="node">
<title>Node19</title>
<g id="a_node20"><a xlink:href="nice__type__name_8h.html" target="_top" xlink:title="drake/common/nice_type\l_name.h">
<polygon fill="#ffffff" stroke="#000000" points="542,-134.5 542,-164.5 682,-164.5 682,-134.5 542,-134.5"/>
<text text-anchor="start" x="550" y="-152.5" font-family="Helvetica,sans-Serif" font-size="10.00" fill="#000000">drake/common/nice_type</text>
<text text-anchor="middle" x="612" y="-141.5" font-family="Helvetica,sans-Serif" font-size="10.00" fill="#000000">_name.h</text>
</a>
</g>
</g>
<!-- Node15&#45;&gt;Node19 -->
<g id="edge26" class="edge">
<title>Node15&#45;&gt;Node19</title>
<path fill="none" stroke="#191970" d="M408.0223,-201.4639C447.9814,-191.2842 500.9253,-177.7966 542.8594,-167.1138"/>
<polygon fill="#191970" stroke="#191970" points="543.8938,-170.4621 552.7202,-164.6017 542.1657,-163.6788 543.8938,-170.4621"/>
</g>
<!-- Node18&#45;&gt;Node12 -->
<g id="edge25" class="edge">
<title>Node18&#45;&gt;Node12</title>
<path fill="none" stroke="#191970" d="M349,-134.2967C349,-126.5013 349,-116.7991 349,-107.9064"/>
<polygon fill="#191970" stroke="#191970" points="352.5001,-107.6431 349,-97.6432 345.5001,-107.6432 352.5001,-107.6431"/>
</g>
<!-- Node18&#45;&gt;Node13 -->
<g id="edge24" class="edge">
<title>Node18&#45;&gt;Node13</title>
<path fill="none" stroke="#191970" d="M316.5457,-134.3708C302.273,-125.8631 286.9669,-113.7522 279,-98 272.7817,-85.7053 272.7817,-79.2947 279,-67 287.1765,-50.8334 303.0835,-38.5022 317.6699,-29.9652"/>
<polygon fill="#191970" stroke="#191970" points="319.4036,-33.0064 326.5005,-25.1397 316.0468,-26.8637 319.4036,-33.0064"/>
</g>
<!-- Node19&#45;&gt;Node1 -->
<g id="edge28" class="edge">
<title>Node19&#45;&gt;Node1</title>
<path fill="none" stroke="#191970" d="M541.9274,-140.7409C424.6398,-126.08 193.0799,-97.135 108.1794,-86.5224"/>
<polygon fill="#191970" stroke="#191970" points="108.4681,-83.0314 98.1111,-85.2639 107.5998,-89.9773 108.4681,-83.0314"/>
</g>
<!-- Node19&#45;&gt;Node2 -->
<g id="edge30" class="edge">
<title>Node19&#45;&gt;Node2</title>
<path fill="none" stroke="#191970" d="M618.4887,-134.365C622.6933,-124.2026 628.0937,-110.4458 632,-98 638.6615,-76.776 644.4203,-51.9001 648.0252,-35.0566"/>
<polygon fill="#191970" stroke="#191970" points="651.4513,-35.7716 650.0709,-25.267 644.5993,-34.3396 651.4513,-35.7716"/>
</g>
<!-- Node19&#45;&gt;Node10 -->
<g id="edge27" class="edge">
<title>Node19&#45;&gt;Node10</title>
<path fill="none" stroke="#191970" d="M634.0108,-134.2967C649.7108,-123.4524 670.7528,-108.9182 686.551,-98.006"/>
<polygon fill="#191970" stroke="#191970" points="688.9278,-100.6181 695.1667,-92.055 684.9495,-94.8585 688.9278,-100.6181"/>
</g>
<!-- Node19&#45;&gt;Node11 -->
<g id="edge31" class="edge">
<title>Node19&#45;&gt;Node11</title>
<path fill="none" stroke="#191970" d="M653.9797,-134.4046C680.79,-124.5383 716.1783,-111.0958 747,-98 748.3472,-97.4276 749.7202,-96.8321 751.1035,-96.2224"/>
<polygon fill="#191970" stroke="#191970" points="752.5561,-99.4069 760.2147,-92.086 749.6623,-93.033 752.5561,-99.4069"/>
</g>
<!-- Node20 -->
<g id="node21" class="node">
<title>Node20</title>
<polygon fill="#ffffff" stroke="#bfbfbf" points="566.5,-73 566.5,-92 623.5,-92 623.5,-73 566.5,-73"/>
<text text-anchor="middle" x="595" y="-80" font-family="Helvetica,sans-Serif" font-size="10.00" fill="#000000">typeinfo</text>
</g>
<!-- Node19&#45;&gt;Node20 -->
<g id="edge29" class="edge">
<title>Node19&#45;&gt;Node20</title>
<path fill="none" stroke="#191970" d="M608.1424,-134.2967C605.6995,-124.6685 602.5185,-112.1318 599.898,-101.8038"/>
<polygon fill="#191970" stroke="#191970" points="603.2764,-100.887 597.4244,-92.055 596.4914,-102.6086 603.2764,-100.887"/>
</g>
<!-- Node21 -->
<g id="node22" class="node">
<title>Node21</title>
<g id="a_node22"><a xlink:href="never__destroyed_8h.html" target="_top" xlink:title="drake/common/never\l_destroyed.h">
<polygon fill="#ffffff" stroke="#000000" points="427.5,-67.5 427.5,-97.5 548.5,-97.5 548.5,-67.5 427.5,-67.5"/>
<text text-anchor="start" x="435.5" y="-85.5" font-family="Helvetica,sans-Serif" font-size="10.00" fill="#000000">drake/common/never</text>
<text text-anchor="middle" x="488" y="-74.5" font-family="Helvetica,sans-Serif" font-size="10.00" fill="#000000">_destroyed.h</text>
</a>
</g>
</g>
<!-- Node19&#45;&gt;Node21 -->
<g id="edge32" class="edge">
<title>Node19&#45;&gt;Node21</title>
<path fill="none" stroke="#191970" d="M584.172,-134.4639C566.7447,-125.0475 544.0791,-112.8008 525.1291,-102.5617"/>
<polygon fill="#191970" stroke="#191970" points="526.6259,-99.3922 516.1642,-97.7177 523.2982,-105.5507 526.6259,-99.3922"/>
</g>
<!-- Node21&#45;&gt;Node2 -->
<g id="edge35" class="edge">
<title>Node21&#45;&gt;Node2</title>
<path fill="none" stroke="#191970" d="M524.8048,-67.4639C553.402,-55.7809 592.6644,-39.7408 619.9734,-28.584"/>
<polygon fill="#191970" stroke="#191970" points="621.5183,-31.7338 629.4519,-24.7117 618.8709,-25.2537 621.5183,-31.7338"/>
</g>
<!-- Node21&#45;&gt;Node13 -->
<g id="edge34" class="edge">
<title>Node21&#45;&gt;Node13</title>
<path fill="none" stroke="#191970" d="M456.8057,-67.4639C433.2732,-56.1209 401.2198,-40.6707 378.1906,-29.5703"/>
<polygon fill="#191970" stroke="#191970" points="379.4524,-26.2932 368.9246,-25.1039 376.413,-32.5989 379.4524,-26.2932"/>
</g>
<!-- Node22 -->
<g id="node23" class="node">
<title>Node22</title>
<polygon fill="#ffffff" stroke="#bfbfbf" points="418.5,-6 418.5,-25 455.5,-25 455.5,-6 418.5,-6"/>
<text text-anchor="middle" x="437" y="-13" font-family="Helvetica,sans-Serif" font-size="10.00" fill="#000000">new</text>
</g>
<!-- Node21&#45;&gt;Node22 -->
<g id="edge33" class="edge">
<title>Node21&#45;&gt;Node22</title>
<path fill="none" stroke="#191970" d="M476.4273,-67.2967C468.7127,-57.1618 458.5449,-43.804 450.4671,-33.1921"/>
<polygon fill="#191970" stroke="#191970" points="453.1151,-30.8921 444.2732,-25.055 447.5451,-35.1319 453.1151,-30.8921"/>
</g>
<!-- Node23 -->
<g id="node24" class="node">
<title>Node23</title>
<g id="a_node24"><a xlink:href="drake__copyable_8h.html" target="_top" xlink:title="Provides careful macros to selectively enable or disable the special member functions for copy&#45;constr...">
<polygon fill="#ffffff" stroke="#000000" points="473.5,-.5 473.5,-30.5 594.5,-30.5 594.5,-.5 473.5,-.5"/>
<text text-anchor="start" x="481.5" y="-18.5" font-family="Helvetica,sans-Serif" font-size="10.00" fill="#000000">drake/common/drake</text>
<text text-anchor="middle" x="534" y="-7.5" font-family="Helvetica,sans-Serif" font-size="10.00" fill="#000000">_copyable.h</text>
</a>
</g>
</g>
<!-- Node21&#45;&gt;Node23 -->
<g id="edge36" class="edge">
<title>Node21&#45;&gt;Node23</title>
<path fill="none" stroke="#191970" d="M498.4381,-67.2967C504.1431,-58.9873 511.3354,-48.5115 517.7567,-39.1587"/>
<polygon fill="#191970" stroke="#191970" points="520.8285,-40.8682 523.6032,-30.6432 515.0577,-36.9062 520.8285,-40.8682"/>
</g>
<!-- Node24&#45;&gt;Node1 -->
<g id="edge38" class="edge">
<title>Node24&#45;&gt;Node1</title>
<path fill="none" stroke="#191970" d="M653.325,-341.7952C515.8264,-324.3758 223.543,-282.5324 136,-232 101.6363,-212.1643 91.2391,-202.0347 77,-165 69.1568,-144.6006 70.3076,-119.2115 72.5175,-102.0269"/>
<polygon fill="#191970" stroke="#191970" points="75.9908,-102.4673 74.0388,-92.0538 69.0708,-101.4116 75.9908,-102.4673"/>
</g>
<!-- Node24&#45;&gt;Node3 -->
<g id="edge39" class="edge">
<title>Node24&#45;&gt;Node3</title>
<path fill="none" stroke="#191970" d="M767.9665,-335.4639C800.7118,-323.7316 845.7208,-307.6054 876.8752,-296.4431"/>
<polygon fill="#191970" stroke="#191970" points="878.2369,-299.6732 886.4703,-293.0053 875.8758,-293.0834 878.2369,-299.6732"/>
</g>
<!-- Node24&#45;&gt;Node5 -->
<g id="edge41" class="edge">
<title>Node24&#45;&gt;Node5</title>
<path fill="none" stroke="#191970" d="M745.0623,-335.4096C758.0204,-325.1484 775.5496,-311.2613 791,-299 808.3442,-285.2359 810.6433,-278.7513 830,-268 871.6603,-244.8607 900.3636,-268.5024 931,-232 944.2103,-216.2603 947.0966,-192.7281 947.0345,-174.8194"/>
<polygon fill="#191970" stroke="#191970" points="950.5308,-174.6481 946.6971,-164.7713 943.5347,-174.8831 950.5308,-174.6481"/>
</g>
<!-- Node24&#45;&gt;Node8 -->
<g id="edge42" class="edge">
<title>Node24&#45;&gt;Node8</title>
<path fill="none" stroke="#191970" d="M722.3694,-335.2967C720.4873,-327.4156 718.1399,-317.5857 715.9973,-308.6135"/>
<polygon fill="#191970" stroke="#191970" points="719.3434,-307.5567 713.6163,-298.6432 712.5348,-309.1827 719.3434,-307.5567"/>
</g>
<!-- Node24&#45;&gt;Node12 -->
<g id="edge40" class="edge">
<title>Node24&#45;&gt;Node12</title>
<path fill="none" stroke="#191970" d="M692.7282,-335.3215C673.2488,-325.8778 648.5248,-312.9095 628,-299 534.5794,-235.6897 526.6209,-199.8879 435,-134 419.4097,-122.7884 401.2815,-111.6739 385.6997,-102.6557"/>
<polygon fill="#191970" stroke="#191970" points="387.277,-99.5259 376.858,-97.6032 383.8039,-105.6036 387.277,-99.5259"/>
</g>
</g>
</svg>
        <g id="navigator" transform="translate(0 0)" fill="#404254">
                <rect fill="#f2f5e9" fill-opacity="0.5" stroke="#606060" stroke-width=".5" x="0" y="0" width="60" height="60"/>
                <use id="zoomplus" xlink:href="#zoomPlus" x="17" y="9" onmousedown="handleZoom(evt,'in')"/>
                <use id="zoomminus" xlink:href="#zoomMin" x="42" y="9" onmousedown="handleZoom(evt,'out')"/>
                <use id="reset" xlink:href="#resetDef" x="30" y="36" onmousedown="handleReset()"/>
                <g id="arrowUp" xlink:href="#dirArrow" transform="translate(30 24)" onmousedown="handlePan(0,-1)">
                  <use xlink:href="#rim" fill="#404040">
                        <set attributeName="fill" to="#808080" begin="arrowUp.mouseover" end="arrowUp.mouseout"/>
                  </use>
                  <path fill="none" stroke="white" stroke-width="1.5" d="M0,-3.0v7 M-2.5,-0.5L0,-3.0L2.5,-0.5"/>
                </g>
                <g id="arrowRight" xlink:href="#dirArrow" transform="rotate(90) translate(36 -43)" onmousedown="handlePan(1,0)">
                  <use xlink:href="#rim" fill="#404040">
                        <set attributeName="fill" to="#808080" begin="arrowRight.mouseover" end="arrowRight.mouseout"/>
                  </use>
                  <path fill="none" stroke="white" stroke-width="1.5" d="M0,-3.0v7 M-2.5,-0.5L0,-3.0L2.5,-0.5"/>
                </g>
                <g id="arrowDown" xlink:href="#dirArrow" transform="rotate(180) translate(-30 -48)" onmousedown="handlePan(0,1)">
                  <use xlink:href="#rim" fill="#404040">
                        <set attributeName="fill" to="#808080" begin="arrowDown.mouseover" end="arrowDown.mouseout"/>
                  </use>
                  <path fill="none" stroke="white" stroke-width="1.5" d="M0,-3.0v7 M-2.5,-0.5L0,-3.0L2.5,-0.5"/>
                </g>
                <g id="arrowLeft" xlink:href="#dirArrow" transform="rotate(270) translate(-36 17)" onmousedown="handlePan(-1,0)">
                  <use xlink:href="#rim" fill="#404040">
                        <set attributeName="fill" to="#808080" begin="arrowLeft.mouseover" end="arrowLeft.mouseout"/>
                  </use>
                  <path fill="none" stroke="white" stroke-width="1.5" d="M0,-3.0v7 M-2.5,-0.5L0,-3.0L2.5,-0.5"/>
                </g>
        </g>
        <svg viewBox="0 0 15 15" width="100%" height="30px" preserveAspectRatio="xMaxYMin meet">
         <g id="arrow_out" transform="scale(0.3 0.3)">
          <a xlink:href="input__port_8h__incl_org.svg" target="_base">
           <rect id="button" ry="5" rx="5" y="6" x="6" height="38" width="38"
                fill="#f2f5e9" fill-opacity="0.5" stroke="#606060" stroke-width="1.0"/>
           <path id="arrow"
             d="M 11.500037,31.436501 C 11.940474,20.09759 22.043105,11.32322 32.158766,21.979434 L 37.068811,17.246167 C 37.068811,17.246167 37.088388,32 37.088388,32 L 22.160133,31.978069 C 22.160133,31.978069 26.997745,27.140456 26.997745,27.140456 C 18.528582,18.264221 13.291696,25.230495 11.500037,31.436501 z"
             style="fill:#404040;"/>
          </a>
         </g>
        </svg>
</svg>
