<?xml version="1.0" encoding="UTF-8" standalone="no"?>
<!DOCTYPE svg PUBLIC "-//W3C//DTD SVG 1.1//EN"
 "http://www.w3.org/Graphics/SVG/1.1/DTD/svg11.dtd">
<!-- Generated by graphviz version 2.40.1 (20161225.0304)
 -->
<!-- Title: drake/systems/framework/input_port_base.h Pages: 1 -->
<!--zoomable 374 -->
<svg id="main" version="1.1" xmlns="http://www.w3.org/2000/svg" xmlns:xlink="http://www.w3.org/1999/xlink" xml:space="preserve" onload="init(evt)">
<style type="text/css"><![CDATA[
.edge:hover path { stroke: red; }
.edge:hover polygon { stroke: red; fill: red; }
]]></style>
<script type="text/javascript"><![CDATA[
var edges = document.getElementsByTagName('g');
if (edges && edges.length) {
  for (var i=0;i<edges.length;i++) {
    if (edges[i].id.substr(0,4)=='edge') {
      edges[i].setAttribute('class','edge');
    }
  }
}
]]></script>
        <defs>
                <circle id="rim" cx="0" cy="0" r="7"/>
                <circle id="rim2" cx="0" cy="0" r="3.5"/>
                <g id="zoomPlus">
                        <use xlink:href="#rim" fill="#404040">
                                <set attributeName="fill" to="#808080" begin="zoomplus.mouseover" end="zoomplus.mouseout"/>
                        </use>
                        <path d="M-4,0h8M0,-4v8" fill="none" stroke="white" stroke-width="1.5" pointer-events="none"/>
                </g>
                <g id="zoomMin">
                        <use xlink:href="#rim" fill="#404040">
                                <set attributeName="fill" to="#808080" begin="zoomminus.mouseover" end="zoomminus.mouseout"/>
                        </use>
                        <path d="M-4,0h8" fill="none" stroke="white" stroke-width="1.5" pointer-events="none"/>
                </g>
                <g id="dirArrow">
                        <path fill="none" stroke="white" stroke-width="1.5" d="M0,-3.0v7 M-2.5,-0.5L0,-3.0L2.5,-0.5"/>
                </g>
               <g id="resetDef">
                       <use xlink:href="#rim2" fill="#404040">
                               <set attributeName="fill" to="#808080" begin="reset.mouseover" end="reset.mouseout"/>
                       </use>
               </g>
        </defs>

<script type="text/javascript">
var viewWidth = 983;
var viewHeight = 374;
var sectionId = 'dynsection-0';
</script>
<script xlink:href="svgpan.js"/>
<svg id="graph" class="graph">
<g id="viewport">
<title>drake/systems/framework/input_port_base.h</title>
<polygon fill="#ffffff" stroke="transparent" points="-4,4 -4,-370 978.5,-370 978.5,4 -4,4"/>
<!-- Node0 -->
<g id="node1" class="node">
<title>Node0</title>
<polygon fill="#bfbfbf" stroke="#000000" points="216,-335.5 216,-365.5 361,-365.5 361,-335.5 216,-335.5"/>
<text text-anchor="start" x="224" y="-353.5" font-family="Helvetica,sans-Serif" font-size="10.00" fill="#000000">drake/systems/framework</text>
<text text-anchor="middle" x="288.5" y="-342.5" font-family="Helvetica,sans-Serif" font-size="10.00" fill="#000000">/input_port_base.h</text>
</g>
<!-- Node1 -->
<g id="node2" class="node">
<title>Node1</title>
<polygon fill="#ffffff" stroke="#bfbfbf" points="930.5,-73 930.5,-92 974.5,-92 974.5,-73 930.5,-73"/>
<text text-anchor="middle" x="952.5" y="-80" font-family="Helvetica,sans-Serif" font-size="10.00" fill="#000000">string</text>
</g>
<!-- Node0&#45;&gt;Node1 -->
<g id="edge1" class="edge">
<title>Node0&#45;&gt;Node1</title>
<path fill="none" stroke="#191970" d="M361.2623,-341.0381C497.8075,-322.4341 786.6903,-278.8117 875.5,-232 915.3345,-211.0032 932.7209,-205.9268 951.5,-165 960.6145,-145.136 959.2196,-119.6441 956.605,-102.289"/>
<polygon fill="#191970" stroke="#191970" points="960.0075,-101.4319 954.8088,-92.2002 953.1159,-102.6589 960.0075,-101.4319"/>
</g>
<!-- Node2 -->
<g id="node3" class="node">
<title>Node2</title>
<g id="a_node3"><a xlink:href="constants_8h.html" target="_top" xlink:title="drake/common/constants.h">
<polygon fill="#ffffff" stroke="#000000" points="112,-274 112,-293 261,-293 261,-274 112,-274"/>
<text text-anchor="middle" x="186.5" y="-281" font-family="Helvetica,sans-Serif" font-size="10.00" fill="#000000">drake/common/constants.h</text>
</a>
</g>
</g>
<!-- Node0&#45;&gt;Node2 -->
<g id="edge2" class="edge">
<title>Node0&#45;&gt;Node2</title>
<path fill="none" stroke="#191970" d="M265.6092,-335.4639C248.9575,-324.526 226.4917,-309.769 209.7558,-298.7759"/>
<polygon fill="#191970" stroke="#191970" points="211.4006,-295.6688 201.1209,-293.1039 207.5575,-301.5195 211.4006,-295.6688"/>
</g>
<!-- Node3 -->
<g id="node4" class="node">
<title>Node3</title>
<g id="a_node4"><a xlink:href="drake__assert_8h.html" target="_top" xlink:title="Provides Drake&#39;s assertion implementation. ">
<polygon fill="#ffffff" stroke="#000000" points="304,-67.5 304,-97.5 425,-97.5 425,-67.5 304,-67.5"/>
<text text-anchor="start" x="312" y="-85.5" font-family="Helvetica,sans-Serif" font-size="10.00" fill="#000000">drake/common/drake</text>
<text text-anchor="middle" x="364.5" y="-74.5" font-family="Helvetica,sans-Serif" font-size="10.00" fill="#000000">_assert.h</text>
</a>
</g>
</g>
<!-- Node0&#45;&gt;Node3 -->
<g id="edge3" class="edge">
<title>Node0&#45;&gt;Node3</title>
<path fill="none" stroke="#191970" d="M292.8038,-335.3233C305.3446,-291.1005 341.9443,-162.0386 357.4392,-107.3988"/>
<polygon fill="#191970" stroke="#191970" points="360.8823,-108.0858 360.2434,-97.5103 354.1478,-106.176 360.8823,-108.0858"/>
</g>
<!-- Node5 -->
<g id="node6" class="node">
<title>Node5</title>
<g id="a_node6"><a xlink:href="drake__optional_8h.html" target="_top" xlink:title="Provides drake::optional as an alias for the appropriate implementation of std::optional or std::expe...">
<polygon fill="#ffffff" stroke="#000000" points="0,-201.5 0,-231.5 121,-231.5 121,-201.5 0,-201.5"/>
<text text-anchor="start" x="8" y="-219.5" font-family="Helvetica,sans-Serif" font-size="10.00" fill="#000000">drake/common/drake</text>
<text text-anchor="middle" x="60.5" y="-208.5" font-family="Helvetica,sans-Serif" font-size="10.00" fill="#000000">_optional.h</text>
</a>
</g>
</g>
<!-- Node0&#45;&gt;Node5 -->
<g id="edge5" class="edge">
<title>Node0&#45;&gt;Node5</title>
<path fill="none" stroke="#191970" d="M215.786,-336.4616C171.8507,-326.8137 121.0504,-313.2188 103.5,-299 85.2871,-284.2444 73.9049,-259.7055 67.4619,-241.2176"/>
<polygon fill="#191970" stroke="#191970" points="70.7823,-240.1101 64.3786,-231.6696 64.121,-242.2613 70.7823,-240.1101"/>
</g>
<!-- Node8 -->
<g id="node9" class="node">
<title>Node8</title>
<g id="a_node9"><a xlink:href="framework__common_8h.html" target="_top" xlink:title="drake/systems/framework\l/framework_common.h">
<polygon fill="#ffffff" stroke="#000000" points="456,-268.5 456,-298.5 601,-298.5 601,-268.5 456,-268.5"/>
<text text-anchor="start" x="464" y="-286.5" font-family="Helvetica,sans-Serif" font-size="10.00" fill="#000000">drake/systems/framework</text>
<text text-anchor="middle" x="528.5" y="-275.5" font-family="Helvetica,sans-Serif" font-size="10.00" fill="#000000">/framework_common.h</text>
</a>
</g>
</g>
<!-- Node0&#45;&gt;Node8 -->
<g id="edge8" class="edge">
<title>Node0&#45;&gt;Node8</title>
<path fill="none" stroke="#191970" d="M342.3607,-335.4639C378.5175,-325.3701 426.3244,-312.024 464.435,-301.3848"/>
<polygon fill="#191970" stroke="#191970" points="465.7138,-304.6617 474.4044,-298.6017 463.8316,-297.9195 465.7138,-304.6617"/>
</g>
<!-- Node4 -->
<g id="node5" class="node">
<title>Node4</title>
<polygon fill="#ffffff" stroke="#bfbfbf" points="419,-6 419,-25 488,-25 488,-6 419,-6"/>
<text text-anchor="middle" x="453.5" y="-13" font-family="Helvetica,sans-Serif" font-size="10.00" fill="#000000">type_traits</text>
</g>
<!-- Node3&#45;&gt;Node4 -->
<g id="edge4" class="edge">
<title>Node3&#45;&gt;Node4</title>
<path fill="none" stroke="#191970" d="M384.6955,-67.2967C398.966,-56.5537 418.0468,-42.1895 432.4948,-31.3129"/>
<polygon fill="#191970" stroke="#191970" points="434.9234,-33.8656 440.8076,-25.055 430.7133,-28.2731 434.9234,-33.8656"/>
</g>
<!-- Node6 -->
<g id="node7" class="node">
<title>Node6</title>
<polygon fill="#ffffff" stroke="#bfbfbf" points="140.5,-140 140.5,-159 230.5,-159 230.5,-140 140.5,-140"/>
<text text-anchor="middle" x="185.5" y="-147" font-family="Helvetica,sans-Serif" font-size="10.00" fill="#000000">stx/variant.hpp</text>
</g>
<!-- Node5&#45;&gt;Node6 -->
<g id="edge6" class="edge">
<title>Node5&#45;&gt;Node6</title>
<path fill="none" stroke="#191970" d="M88.5524,-201.4639C109.5258,-190.2222 138.0256,-174.9463 158.6928,-163.8686"/>
<polygon fill="#191970" stroke="#191970" points="160.422,-166.913 167.5822,-159.1039 157.115,-160.7433 160.422,-166.913"/>
</g>
<!-- Node7 -->
<g id="node8" class="node">
<title>Node7</title>
<polygon fill="#ffffff" stroke="#bfbfbf" points="13,-140 13,-159 108,-159 108,-140 13,-140"/>
<text text-anchor="middle" x="60.5" y="-147" font-family="Helvetica,sans-Serif" font-size="10.00" fill="#000000">stx/optional.hpp</text>
</g>
<!-- Node5&#45;&gt;Node7 -->
<g id="edge7" class="edge">
<title>Node5&#45;&gt;Node7</title>
<path fill="none" stroke="#191970" d="M60.5,-201.2967C60.5,-191.7699 60.5,-179.3954 60.5,-169.1306"/>
<polygon fill="#191970" stroke="#191970" points="64.0001,-169.0549 60.5,-159.055 57.0001,-169.055 64.0001,-169.0549"/>
</g>
<!-- Node8&#45;&gt;Node1 -->
<g id="edge11" class="edge">
<title>Node8&#45;&gt;Node1</title>
<path fill="none" stroke="#191970" d="M601.0748,-279.2402C663.0293,-273.6909 753.5725,-260.9839 827.5,-232 878.3427,-212.0667 898.4439,-209.2123 930.5,-165 943.9829,-146.4042 949.2039,-120.0944 951.225,-102.2218"/>
<polygon fill="#191970" stroke="#191970" points="954.7259,-102.3668 952.1305,-92.0948 947.7537,-101.7433 954.7259,-102.3668"/>
</g>
<!-- Node8&#45;&gt;Node3 -->
<g id="edge13" class="edge">
<title>Node8&#45;&gt;Node3</title>
<path fill="none" stroke="#191970" d="M489.75,-268.3622C449.8238,-250.413 389.8195,-216.3061 363.5,-165 354.4582,-147.3743 355.4774,-124.7154 358.326,-107.6052"/>
<polygon fill="#191970" stroke="#191970" points="361.766,-108.251 360.2625,-97.7634 354.8977,-106.8996 361.766,-108.251"/>
</g>
<!-- Node8&#45;&gt;Node5 -->
<g id="edge14" class="edge">
<title>Node8&#45;&gt;Node5</title>
<path fill="none" stroke="#191970" d="M455.944,-276.0791C378.129,-267.6757 250.7675,-252.6432 131.2043,-232.0267"/>
<polygon fill="#191970" stroke="#191970" points="131.5926,-228.5417 121.1404,-230.2748 130.392,-235.438 131.5926,-228.5417"/>
</g>
<!-- Node9 -->
<g id="node10" class="node">
<title>Node9</title>
<polygon fill="#ffffff" stroke="#bfbfbf" points="754.5,-207 754.5,-226 818.5,-226 818.5,-207 754.5,-207"/>
<text text-anchor="middle" x="786.5" y="-214" font-family="Helvetica,sans-Serif" font-size="10.00" fill="#000000">algorithm</text>
</g>
<!-- Node8&#45;&gt;Node9 -->
<g id="edge9" class="edge">
<title>Node8&#45;&gt;Node9</title>
<path fill="none" stroke="#191970" d="M597.162,-268.4096C638.8563,-258.853 693.0195,-245.7385 740.5,-232 743.4801,-231.1377 746.5542,-230.2029 749.6339,-229.2343"/>
<polygon fill="#191970" stroke="#191970" points="750.9483,-232.4875 759.3803,-226.0726 748.7883,-225.8291 750.9483,-232.4875"/>
</g>
<!-- Node10 -->
<g id="node11" class="node">
<title>Node10</title>
<polygon fill="#ffffff" stroke="#bfbfbf" points="517.5,-73 517.5,-92 575.5,-92 575.5,-73 517.5,-73"/>
<text text-anchor="middle" x="546.5" y="-80" font-family="Helvetica,sans-Serif" font-size="10.00" fill="#000000">memory</text>
</g>
<!-- Node8&#45;&gt;Node10 -->
<g id="edge10" class="edge">
<title>Node8&#45;&gt;Node10</title>
<path fill="none" stroke="#191970" d="M529.8529,-268.3923C533.0596,-232.5844 541.122,-142.5545 544.7192,-102.386"/>
<polygon fill="#191970" stroke="#191970" points="548.2203,-102.5286 545.6263,-92.2562 541.2482,-101.9041 548.2203,-102.5286"/>
</g>
<!-- Node11 -->
<g id="node12" class="node">
<title>Node11</title>
<polygon fill="#ffffff" stroke="#bfbfbf" points="599,-73 599,-92 646,-92 646,-73 599,-73"/>
<text text-anchor="middle" x="622.5" y="-80" font-family="Helvetica,sans-Serif" font-size="10.00" fill="#000000">vector</text>
</g>
<!-- Node8&#45;&gt;Node11 -->
<g id="edge12" class="edge">
<title>Node8&#45;&gt;Node11</title>
<path fill="none" stroke="#191970" d="M601.3843,-271.6443C644.9473,-262.9051 694.323,-249.5026 707.5,-232 733.6969,-197.2033 728.878,-171.9482 707.5,-134 701.2755,-122.9508 674.1726,-107.61 652.2213,-96.5494"/>
<polygon fill="#191970" stroke="#191970" points="653.7208,-93.3864 643.2049,-92.0962 650.621,-99.6627 653.7208,-93.3864"/>
</g>
<!-- Node12 -->
<g id="node13" class="node">
<title>Node12</title>
<g id="a_node13"><a xlink:href="drake__variant_8h.html" target="_top" xlink:title="Provides drake::variant as an alias for the appropriate implementation of std::variant or or stx::var...">
<polygon fill="#ffffff" stroke="#000000" points="139,-201.5 139,-231.5 260,-231.5 260,-201.5 139,-201.5"/>
<text text-anchor="start" x="147" y="-219.5" font-family="Helvetica,sans-Serif" font-size="10.00" fill="#000000">drake/common/drake</text>
<text text-anchor="middle" x="199.5" y="-208.5" font-family="Helvetica,sans-Serif" font-size="10.00" fill="#000000">_variant.h</text>
</a>
</g>
</g>
<!-- Node8&#45;&gt;Node12 -->
<g id="edge15" class="edge">
<title>Node8&#45;&gt;Node12</title>
<path fill="none" stroke="#191970" d="M455.8923,-268.7136C400.5784,-257.4491 324.8547,-242.0282 270.0546,-230.8683"/>
<polygon fill="#191970" stroke="#191970" points="270.5727,-227.402 260.0753,-228.836 269.1758,-234.2612 270.5727,-227.402"/>
</g>
<!-- Node13 -->
<g id="node14" class="node">
<title>Node13</title>
<g id="a_node14"><a xlink:href="type__safe__index_8h.html" target="_top" xlink:title="drake/common/type_safe\l_index.h">
<polygon fill="#ffffff" stroke="#000000" points="557,-201.5 557,-231.5 698,-231.5 698,-201.5 557,-201.5"/>
<text text-anchor="start" x="565" y="-219.5" font-family="Helvetica,sans-Serif" font-size="10.00" fill="#000000">drake/common/type_safe</text>
<text text-anchor="middle" x="627.5" y="-208.5" font-family="Helvetica,sans-Serif" font-size="10.00" fill="#000000">_index.h</text>
</a>
</g>
</g>
<!-- Node8&#45;&gt;Node13 -->
<g id="edge17" class="edge">
<title>Node8&#45;&gt;Node13</title>
<path fill="none" stroke="#191970" d="M550.9646,-268.2967C564.5085,-259.1306 581.9475,-247.3285 596.7575,-237.3055"/>
<polygon fill="#191970" stroke="#191970" points="598.8042,-240.1466 605.1243,-231.6432 594.8809,-234.3494 598.8042,-240.1466"/>
</g>
<!-- Node12&#45;&gt;Node6 -->
<g id="edge16" class="edge">
<title>Node12&#45;&gt;Node6</title>
<path fill="none" stroke="#191970" d="M196.3232,-201.2967C194.3325,-191.7699 191.7468,-179.3954 189.6019,-169.1306"/>
<polygon fill="#191970" stroke="#191970" points="192.968,-168.1277 187.4966,-159.055 186.116,-169.5595 192.968,-168.1277"/>
</g>
<!-- Node13&#45;&gt;Node1 -->
<g id="edge20" class="edge">
<title>Node13&#45;&gt;Node1</title>
<path fill="none" stroke="#191970" d="M698.3318,-206.3795C774.4468,-195.018 886.8158,-176.6524 903.5,-165 925.51,-149.628 939.227,-120.9158 946.3697,-101.751"/>
<polygon fill="#191970" stroke="#191970" points="949.7013,-102.8263 949.6725,-92.2315 943.088,-100.5318 949.7013,-102.8263"/>
</g>
<!-- Node13&#45;&gt;Node3 -->
<g id="edge21" class="edge">
<title>Node13&#45;&gt;Node3</title>
<path fill="none" stroke="#191970" d="M556.878,-209.864C494.1298,-202.5243 408.7047,-188.5129 384.5,-165 369.3007,-150.2351 364.8657,-126.0312 363.8981,-107.6486"/>
<polygon fill="#191970" stroke="#191970" points="367.3965,-107.5325 363.674,-97.6132 360.3983,-107.6889 367.3965,-107.5325"/>
</g>
<!-- Node14 -->
<g id="node15" class="node">
<title>Node14</title>
<polygon fill="#ffffff" stroke="#bfbfbf" points="571,-140 571,-159 636,-159 636,-140 571,-140"/>
<text text-anchor="middle" x="603.5" y="-147" font-family="Helvetica,sans-Serif" font-size="10.00" fill="#000000">functional</text>
</g>
<!-- Node13&#45;&gt;Node14 -->
<g id="edge18" class="edge">
<title>Node13&#45;&gt;Node14</title>
<path fill="none" stroke="#191970" d="M622.054,-201.2967C618.5688,-191.5672 614.0197,-178.8675 610.2982,-168.4784"/>
<polygon fill="#191970" stroke="#191970" points="613.59,-167.2889 606.9227,-159.055 607,-169.6495 613.59,-167.2889"/>
</g>
<!-- Node15 -->
<g id="node16" class="node">
<title>Node15</title>
<polygon fill="#ffffff" stroke="#bfbfbf" points="654.5,-140 654.5,-159 698.5,-159 698.5,-140 654.5,-140"/>
<text text-anchor="middle" x="676.5" y="-147" font-family="Helvetica,sans-Serif" font-size="10.00" fill="#000000">limits</text>
</g>
<!-- Node13&#45;&gt;Node15 -->
<g id="edge19" class="edge">
<title>Node13&#45;&gt;Node15</title>
<path fill="none" stroke="#191970" d="M638.6189,-201.2967C646.0309,-191.1618 655.8,-177.804 663.561,-167.1921"/>
<polygon fill="#191970" stroke="#191970" points="666.4339,-169.1928 669.512,-159.055 660.7837,-165.0606 666.4339,-169.1928"/>
</g>
<!-- Node16 -->
<g id="node17" class="node">
<title>Node16</title>
<g id="a_node17"><a xlink:href="drake__throw_8h.html" target="_top" xlink:title="Provides a convenient wrapper to throw an exception when a condition is unmet. ">
<polygon fill="#ffffff" stroke="#000000" points="393,-134.5 393,-164.5 514,-164.5 514,-134.5 393,-134.5"/>
<text text-anchor="start" x="401" y="-152.5" font-family="Helvetica,sans-Serif" font-size="10.00" fill="#000000">drake/common/drake</text>
<text text-anchor="middle" x="453.5" y="-141.5" font-family="Helvetica,sans-Serif" font-size="10.00" fill="#000000">_throw.h</text>
</a>
</g>
</g>
<!-- Node13&#45;&gt;Node16 -->
<g id="edge22" class="edge">
<title>Node13&#45;&gt;Node16</title>
<path fill="none" stroke="#191970" d="M588.451,-201.4639C562.9066,-191.6278 529.3416,-178.7034 502.0769,-168.2049"/>
<polygon fill="#191970" stroke="#191970" points="503.3091,-164.9289 492.7193,-164.6017 500.7937,-171.4614 503.3091,-164.9289"/>
</g>
<!-- Node17 -->
<g id="node18" class="node">
<title>Node17</title>
<g id="a_node18"><a xlink:href="nice__type__name_8h.html" target="_top" xlink:title="drake/common/nice_type\l_name.h">
<polygon fill="#ffffff" stroke="#000000" points="754.5,-134.5 754.5,-164.5 894.5,-164.5 894.5,-134.5 754.5,-134.5"/>
<text text-anchor="start" x="762.5" y="-152.5" font-family="Helvetica,sans-Serif" font-size="10.00" fill="#000000">drake/common/nice_type</text>
<text text-anchor="middle" x="824.5" y="-141.5" font-family="Helvetica,sans-Serif" font-size="10.00" fill="#000000">_name.h</text>
</a>
</g>
</g>
<!-- Node13&#45;&gt;Node17 -->
<g id="edge25" class="edge">
<title>Node13&#45;&gt;Node17</title>
<path fill="none" stroke="#191970" d="M671.7106,-201.4639C700.8842,-191.5419 739.2978,-178.4774 770.3091,-167.9304"/>
<polygon fill="#191970" stroke="#191970" points="771.7561,-171.1352 780.0965,-164.6017 769.5021,-164.508 771.7561,-171.1352"/>
</g>
<!-- Node16&#45;&gt;Node3 -->
<g id="edge24" class="edge">
<title>Node16&#45;&gt;Node3</title>
<path fill="none" stroke="#191970" d="M433.3045,-134.2967C421.3564,-125.302 406.0361,-113.7687 392.8862,-103.8694"/>
<polygon fill="#191970" stroke="#191970" points="394.7098,-100.8613 384.6156,-97.6432 390.4998,-106.4538 394.7098,-100.8613"/>
</g>
<!-- Node16&#45;&gt;Node4 -->
<g id="edge23" class="edge">
<title>Node16&#45;&gt;Node4</title>
<path fill="none" stroke="#191970" d="M453.5,-134.389C453.5,-110.0735 453.5,-62.2644 453.5,-35.2698"/>
<polygon fill="#191970" stroke="#191970" points="457.0001,-35.1041 453.5,-25.1042 450.0001,-35.1042 457.0001,-35.1041"/>
</g>
<!-- Node17&#45;&gt;Node1 -->
<g id="edge27" class="edge">
<title>Node17&#45;&gt;Node1</title>
<path fill="none" stroke="#191970" d="M853.2257,-134.4639C874.7025,-123.2222 903.8862,-107.9463 925.0495,-96.8686"/>
<polygon fill="#191970" stroke="#191970" points="926.9157,-99.8423 934.1522,-92.1039 923.6694,-93.6406 926.9157,-99.8423"/>
</g>
<!-- Node17&#45;&gt;Node10 -->
<g id="edge26" class="edge">
<title>Node17&#45;&gt;Node10</title>
<path fill="none" stroke="#191970" d="M754.3174,-136.3829C707.5461,-127.0725 644.9054,-113.5071 590.5,-98 587.5573,-97.1612 584.5248,-96.2325 581.4932,-95.2585"/>
<polygon fill="#191970" stroke="#191970" points="582.5175,-91.9105 571.9235,-92.0485 580.2913,-98.5471 582.5175,-91.9105"/>
</g>
<!-- Node17&#45;&gt;Node11 -->
<g id="edge30" class="edge">
<title>Node17&#45;&gt;Node11</title>
<path fill="none" stroke="#191970" d="M767.8672,-134.4374C734.7199,-125.0795 692.2829,-112.1591 655.5,-98 654.0971,-97.46 652.6704,-96.8867 651.2365,-96.2911"/>
<polygon fill="#191970" stroke="#191970" points="652.4052,-92.9813 641.843,-92.1497 649.5813,-99.3865 652.4052,-92.9813"/>
</g>
<!-- Node18 -->
<g id="node19" class="node">
<title>Node18</title>
<polygon fill="#ffffff" stroke="#bfbfbf" points="803,-73 803,-92 860,-92 860,-73 803,-73"/>
<text text-anchor="middle" x="831.5" y="-80" font-family="Helvetica,sans-Serif" font-size="10.00" fill="#000000">typeinfo</text>
</g>
<!-- Node17&#45;&gt;Node18 -->
<g id="edge28" class="edge">
<title>Node17&#45;&gt;Node18</title>
<path fill="none" stroke="#191970" d="M826.0884,-134.2967C827.0837,-124.7699 828.3766,-112.3954 829.449,-102.1306"/>
<polygon fill="#191970" stroke="#191970" points="832.9436,-102.3646 830.5017,-92.055 825.9815,-101.6371 832.9436,-102.3646"/>
</g>
<!-- Node19 -->
<g id="node20" class="node">
<title>Node19</title>
<polygon fill="#ffffff" stroke="#bfbfbf" points="839,-6 839,-25 884,-25 884,-6 839,-6"/>
<text text-anchor="middle" x="861.5" y="-13" font-family="Helvetica,sans-Serif" font-size="10.00" fill="#000000">utility</text>
</g>
<!-- Node17&#45;&gt;Node19 -->
<g id="edge29" class="edge">
<title>Node17&#45;&gt;Node19</title>
<path fill="none" stroke="#191970" d="M842.9945,-134.4215C852.9094,-125.1036 864.1594,-112.2286 869.5,-98 877.2155,-77.4441 872.8922,-52.0851 868.1398,-34.9503"/>
<polygon fill="#191970" stroke="#191970" points="871.3667,-33.5369 865.077,-25.011 864.6771,-35.5983 871.3667,-33.5369"/>
</g>
<!-- Node20 -->
<g id="node21" class="node">
<title>Node20</title>
<g id="a_node21"><a xlink:href="never__destroyed_8h.html" target="_top" xlink:title="drake/common/never\l_destroyed.h">
<polygon fill="#ffffff" stroke="#000000" points="664,-67.5 664,-97.5 785,-97.5 785,-67.5 664,-67.5"/>
<text text-anchor="start" x="672" y="-85.5" font-family="Helvetica,sans-Serif" font-size="10.00" fill="#000000">drake/common/never</text>
<text text-anchor="middle" x="724.5" y="-74.5" font-family="Helvetica,sans-Serif" font-size="10.00" fill="#000000">_destroyed.h</text>
</a>
</g>
</g>
<!-- Node17&#45;&gt;Node20 -->
<g id="edge31" class="edge">
<title>Node17&#45;&gt;Node20</title>
<path fill="none" stroke="#191970" d="M801.8085,-134.2967C788.1278,-125.1306 770.5126,-113.3285 755.553,-103.3055"/>
<polygon fill="#191970" stroke="#191970" points="757.3576,-100.3017 747.1017,-97.6432 753.4613,-106.1171 757.3576,-100.3017"/>
</g>
<!-- Node20&#45;&gt;Node4 -->
<g id="edge33" class="edge">
<title>Node20&#45;&gt;Node4</title>
<path fill="none" stroke="#191970" d="M663.6823,-67.4639C613.3389,-55.0174 542.9935,-37.6257 497.8383,-26.4619"/>
<polygon fill="#191970" stroke="#191970" points="498.5926,-23.043 488.0448,-24.0406 496.9125,-29.8384 498.5926,-23.043"/>
</g>
<!-- Node20&#45;&gt;Node19 -->
<g id="edge34" class="edge">
<title>Node20&#45;&gt;Node19</title>
<path fill="none" stroke="#191970" d="M755.2455,-67.4639C778.4394,-56.1209 810.0316,-40.6707 832.7294,-29.5703"/>
<polygon fill="#191970" stroke="#191970" points="834.4165,-32.6414 841.8621,-25.1039 831.3412,-26.3531 834.4165,-32.6414"/>
</g>
<!-- Node21 -->
<g id="node22" class="node">
<title>Node21</title>
<polygon fill="#ffffff" stroke="#bfbfbf" points="732,-6 732,-25 769,-25 769,-6 732,-6"/>
<text text-anchor="middle" x="750.5" y="-13" font-family="Helvetica,sans-Serif" font-size="10.00" fill="#000000">new</text>
</g>
<!-- Node20&#45;&gt;Node21 -->
<g id="edge32" class="edge">
<title>Node20&#45;&gt;Node21</title>
<path fill="none" stroke="#191970" d="M730.3998,-67.2967C734.1754,-57.5672 739.1037,-44.8675 743.1353,-34.4784"/>
<polygon fill="#191970" stroke="#191970" points="746.4372,-35.6439 746.7921,-25.055 739.9114,-33.1114 746.4372,-35.6439"/>
</g>
<!-- Node22 -->
<g id="node23" class="node">
<title>Node22</title>
<g id="a_node23"><a xlink:href="drake__copyable_8h.html" target="_top" xlink:title="Provides careful macros to selectively enable or disable the special member functions for copy&#45;constr...">
<polygon fill="#ffffff" stroke="#000000" points="593,-.5 593,-30.5 714,-30.5 714,-.5 593,-.5"/>
<text text-anchor="start" x="601" y="-18.5" font-family="Helvetica,sans-Serif" font-size="10.00" fill="#000000">drake/common/drake</text>
<text text-anchor="middle" x="653.5" y="-7.5" font-family="Helvetica,sans-Serif" font-size="10.00" fill="#000000">_copyable.h</text>
</a>
</g>
</g>
<!-- Node20&#45;&gt;Node22 -->
<g id="edge35" class="edge">
<title>Node20&#45;&gt;Node22</title>
<path fill="none" stroke="#191970" d="M708.389,-67.2967C699.1296,-58.559 687.3317,-47.4257 677.0485,-37.7218"/>
<polygon fill="#191970" stroke="#191970" points="679.2224,-34.9609 669.5472,-30.6432 674.4181,-40.052 679.2224,-34.9609"/>
</g>
</g>
</svg>
        <g id="navigator" transform="translate(0 0)" fill="#404254">
                <rect fill="#f2f5e9" fill-opacity="0.5" stroke="#606060" stroke-width=".5" x="0" y="0" width="60" height="60"/>
                <use id="zoomplus" xlink:href="#zoomPlus" x="17" y="9" onmousedown="handleZoom(evt,'in')"/>
                <use id="zoomminus" xlink:href="#zoomMin" x="42" y="9" onmousedown="handleZoom(evt,'out')"/>
                <use id="reset" xlink:href="#resetDef" x="30" y="36" onmousedown="handleReset()"/>
                <g id="arrowUp" xlink:href="#dirArrow" transform="translate(30 24)" onmousedown="handlePan(0,-1)">
                  <use xlink:href="#rim" fill="#404040">
                        <set attributeName="fill" to="#808080" begin="arrowUp.mouseover" end="arrowUp.mouseout"/>
                  </use>
                  <path fill="none" stroke="white" stroke-width="1.5" d="M0,-3.0v7 M-2.5,-0.5L0,-3.0L2.5,-0.5"/>
                </g>
                <g id="arrowRight" xlink:href="#dirArrow" transform="rotate(90) translate(36 -43)" onmousedown="handlePan(1,0)">
                  <use xlink:href="#rim" fill="#404040">
                        <set attributeName="fill" to="#808080" begin="arrowRight.mouseover" end="arrowRight.mouseout"/>
                  </use>
                  <path fill="none" stroke="white" stroke-width="1.5" d="M0,-3.0v7 M-2.5,-0.5L0,-3.0L2.5,-0.5"/>
                </g>
                <g id="arrowDown" xlink:href="#dirArrow" transform="rotate(180) translate(-30 -48)" onmousedown="handlePan(0,1)">
                  <use xlink:href="#rim" fill="#404040">
                        <set attributeName="fill" to="#808080" begin="arrowDown.mouseover" end="arrowDown.mouseout"/>
                  </use>
                  <path fill="none" stroke="white" stroke-width="1.5" d="M0,-3.0v7 M-2.5,-0.5L0,-3.0L2.5,-0.5"/>
                </g>
                <g id="arrowLeft" xlink:href="#dirArrow" transform="rotate(270) translate(-36 17)" onmousedown="handlePan(-1,0)">
                  <use xlink:href="#rim" fill="#404040">
                        <set attributeName="fill" to="#808080" begin="arrowLeft.mouseover" end="arrowLeft.mouseout"/>
                  </use>
                  <path fill="none" stroke="white" stroke-width="1.5" d="M0,-3.0v7 M-2.5,-0.5L0,-3.0L2.5,-0.5"/>
                </g>
        </g>
        <svg viewBox="0 0 15 15" width="100%" height="30px" preserveAspectRatio="xMaxYMin meet">
         <g id="arrow_out" transform="scale(0.3 0.3)">
          <a xlink:href="input__port__base_8h__incl_org.svg" target="_base">
           <rect id="button" ry="5" rx="5" y="6" x="6" height="38" width="38"
                fill="#f2f5e9" fill-opacity="0.5" stroke="#606060" stroke-width="1.0"/>
           <path id="arrow"
             d="M 11.500037,31.436501 C 11.940474,20.09759 22.043105,11.32322 32.158766,21.979434 L 37.068811,17.246167 C 37.068811,17.246167 37.088388,32 37.088388,32 L 22.160133,31.978069 C 22.160133,31.978069 26.997745,27.140456 26.997745,27.140456 C 18.528582,18.264221 13.291696,25.230495 11.500037,31.436501 z"
             style="fill:#404040;"/>
          </a>
         </g>
        </svg>
</svg>
