<?xml version="1.0" encoding="UTF-8" standalone="no"?>
<!DOCTYPE svg PUBLIC "-//W3C//DTD SVG 1.1//EN"
 "http://www.w3.org/Graphics/SVG/1.1/DTD/svg11.dtd">
<!-- Generated by graphviz version 2.40.1 (20161225.0304)
 -->
<!-- Title: drake/systems/framework/input_port_base.h Pages: 1 -->
<!--zoomable 374 -->
<svg id="main" version="1.1" xmlns="http://www.w3.org/2000/svg" xmlns:xlink="http://www.w3.org/1999/xlink" xml:space="preserve" onload="init(evt)">
<style type="text/css"><![CDATA[
.edge:hover path { stroke: red; }
.edge:hover polygon { stroke: red; fill: red; }
]]></style>
<script type="text/javascript"><![CDATA[
var edges = document.getElementsByTagName('g');
if (edges && edges.length) {
  for (var i=0;i<edges.length;i++) {
    if (edges[i].id.substr(0,4)=='edge') {
      edges[i].setAttribute('class','edge');
    }
  }
}
]]></script>
        <defs>
                <circle id="rim" cx="0" cy="0" r="7"/>
                <circle id="rim2" cx="0" cy="0" r="3.5"/>
                <g id="zoomPlus">
                        <use xlink:href="#rim" fill="#404040">
                                <set attributeName="fill" to="#808080" begin="zoomplus.mouseover" end="zoomplus.mouseout"/>
                        </use>
                        <path d="M-4,0h8M0,-4v8" fill="none" stroke="white" stroke-width="1.5" pointer-events="none"/>
                </g>
                <g id="zoomMin">
                        <use xlink:href="#rim" fill="#404040">
                                <set attributeName="fill" to="#808080" begin="zoomminus.mouseover" end="zoomminus.mouseout"/>
                        </use>
                        <path d="M-4,0h8" fill="none" stroke="white" stroke-width="1.5" pointer-events="none"/>
                </g>
                <g id="dirArrow">
                        <path fill="none" stroke="white" stroke-width="1.5" d="M0,-3.0v7 M-2.5,-0.5L0,-3.0L2.5,-0.5"/>
                </g>
               <g id="resetDef">
                       <use xlink:href="#rim2" fill="#404040">
                               <set attributeName="fill" to="#808080" begin="reset.mouseover" end="reset.mouseout"/>
                       </use>
               </g>
        </defs>

<script type="text/javascript">
var viewWidth = 1016;
var viewHeight = 374;
var sectionId = 'dynsection-0';
</script>
<script xlink:href="svgpan.js"/>
<svg id="graph" class="graph">
<g id="viewport">
<title>drake/systems/framework/input_port_base.h</title>
<polygon fill="#ffffff" stroke="transparent" points="-4,4 -4,-370 1012.3439,-370 1012.3439,4 -4,4"/>
<!-- Node0 -->
<g id="node1" class="node">
<title>Node0</title>
<polygon fill="#bfbfbf" stroke="#000000" points="192.5,-335.5 192.5,-365.5 337.5,-365.5 337.5,-335.5 192.5,-335.5"/>
<text text-anchor="start" x="200.5" y="-353.5" font-family="Helvetica,sans-Serif" font-size="10.00" fill="#000000">drake/systems/framework</text>
<text text-anchor="middle" x="265" y="-342.5" font-family="Helvetica,sans-Serif" font-size="10.00" fill="#000000">/input_port_base.h</text>
</g>
<!-- Node1 -->
<g id="node2" class="node">
<title>Node1</title>
<polygon fill="#ffffff" stroke="#bfbfbf" points="900,-73 900,-92 944,-92 944,-73 900,-73"/>
<text text-anchor="middle" x="922" y="-80" font-family="Helvetica,sans-Serif" font-size="10.00" fill="#000000">string</text>
</g>
<!-- Node0&#45;&gt;Node1 -->
<g id="edge1" class="edge">
<title>Node0&#45;&gt;Node1</title>
<path fill="none" stroke="#191970" d="M337.7922,-344.0775C514.5026,-327.7484 954.8051,-282.3549 997,-232 1032.4178,-189.7328 974.0158,-127.9053 941.4987,-98.7977"/>
<polygon fill="#191970" stroke="#191970" points="943.6982,-96.0717 933.8622,-92.1342 939.0959,-101.3461 943.6982,-96.0717"/>
</g>
<!-- Node2 -->
<g id="node3" class="node">
<title>Node2</title>
<g id="a_node3"><a xlink:href="constants_8h.html" target="_top" xlink:title="drake/common/constants.h">
<polygon fill="#ffffff" stroke="#000000" points="88.5,-274 88.5,-293 237.5,-293 237.5,-274 88.5,-274"/>
<text text-anchor="middle" x="163" y="-281" font-family="Helvetica,sans-Serif" font-size="10.00" fill="#000000">drake/common/constants.h</text>
</a>
</g>
</g>
<!-- Node0&#45;&gt;Node2 -->
<g id="edge2" class="edge">
<title>Node0&#45;&gt;Node2</title>
<path fill="none" stroke="#191970" d="M242.1092,-335.4639C225.4575,-324.526 202.9917,-309.769 186.2558,-298.7759"/>
<polygon fill="#191970" stroke="#191970" points="187.9006,-295.6688 177.6209,-293.1039 184.0575,-301.5195 187.9006,-295.6688"/>
</g>
<!-- Node3 -->
<g id="node4" class="node">
<title>Node3</title>
<g id="a_node4"><a xlink:href="drake__assert_8h.html" target="_top" xlink:title="Provides Drake&#39;s assertion implementation. ">
<polygon fill="#ffffff" stroke="#000000" points="280.5,-67.5 280.5,-97.5 401.5,-97.5 401.5,-67.5 280.5,-67.5"/>
<text text-anchor="start" x="288.5" y="-85.5" font-family="Helvetica,sans-Serif" font-size="10.00" fill="#000000">drake/common/drake</text>
<text text-anchor="middle" x="341" y="-74.5" font-family="Helvetica,sans-Serif" font-size="10.00" fill="#000000">_assert.h</text>
</a>
</g>
</g>
<!-- Node0&#45;&gt;Node3 -->
<g id="edge3" class="edge">
<title>Node0&#45;&gt;Node3</title>
<path fill="none" stroke="#191970" d="M269.3038,-335.3233C281.8446,-291.1005 318.4443,-162.0386 333.9392,-107.3988"/>
<polygon fill="#191970" stroke="#191970" points="337.3823,-108.0858 336.7434,-97.5103 330.6478,-106.176 337.3823,-108.0858"/>
</g>
<!-- Node5 -->
<g id="node6" class="node">
<title>Node5</title>
<g id="a_node6"><a xlink:href="drake__optional_8h.html" target="_top" xlink:title="Provides drake::optional as an alias for the appropriate implementation of std::optional or std::expe...">
<polygon fill="#ffffff" stroke="#000000" points="33.5,-201.5 33.5,-231.5 154.5,-231.5 154.5,-201.5 33.5,-201.5"/>
<text text-anchor="start" x="41.5" y="-219.5" font-family="Helvetica,sans-Serif" font-size="10.00" fill="#000000">drake/common/drake</text>
<text text-anchor="middle" x="94" y="-208.5" font-family="Helvetica,sans-Serif" font-size="10.00" fill="#000000">_optional.h</text>
</a>
</g>
</g>
<!-- Node0&#45;&gt;Node5 -->
<g id="edge5" class="edge">
<title>Node0&#45;&gt;Node5</title>
<path fill="none" stroke="#191970" d="M192.1873,-339.4372C146.587,-330.8523 93.9153,-317.3181 80,-299 67.3949,-282.4066 73.3103,-258.5079 80.9493,-240.6995"/>
<polygon fill="#191970" stroke="#191970" points="84.1786,-242.0568 85.2638,-231.5177 77.8432,-239.0798 84.1786,-242.0568"/>
</g>
<!-- Node8 -->
<g id="node9" class="node">
<title>Node8</title>
<g id="a_node9"><a xlink:href="framework__common_8h.html" target="_top" xlink:title="drake/systems/framework\l/framework_common.h">
<polygon fill="#ffffff" stroke="#000000" points="465.5,-268.5 465.5,-298.5 610.5,-298.5 610.5,-268.5 465.5,-268.5"/>
<text text-anchor="start" x="473.5" y="-286.5" font-family="Helvetica,sans-Serif" font-size="10.00" fill="#000000">drake/systems/framework</text>
<text text-anchor="middle" x="538" y="-275.5" font-family="Helvetica,sans-Serif" font-size="10.00" fill="#000000">/framework_common.h</text>
</a>
</g>
</g>
<!-- Node0&#45;&gt;Node8 -->
<g id="edge8" class="edge">
<title>Node0&#45;&gt;Node8</title>
<path fill="none" stroke="#191970" d="M326.2665,-335.4639C367.8325,-325.2627 422.9338,-311.7397 466.5059,-301.0462"/>
<polygon fill="#191970" stroke="#191970" points="467.5887,-304.3844 476.4663,-298.6017 465.9202,-297.5861 467.5887,-304.3844"/>
</g>
<!-- Node4 -->
<g id="node5" class="node">
<title>Node4</title>
<polygon fill="#ffffff" stroke="#bfbfbf" points="395.5,-6 395.5,-25 464.5,-25 464.5,-6 395.5,-6"/>
<text text-anchor="middle" x="430" y="-13" font-family="Helvetica,sans-Serif" font-size="10.00" fill="#000000">type_traits</text>
</g>
<!-- Node3&#45;&gt;Node4 -->
<g id="edge4" class="edge">
<title>Node3&#45;&gt;Node4</title>
<path fill="none" stroke="#191970" d="M361.1955,-67.2967C375.466,-56.5537 394.5468,-42.1895 408.9948,-31.3129"/>
<polygon fill="#191970" stroke="#191970" points="411.4234,-33.8656 417.3076,-25.055 407.2133,-28.2731 411.4234,-33.8656"/>
</g>
<!-- Node6 -->
<g id="node7" class="node">
<title>Node6</title>
<polygon fill="#ffffff" stroke="#bfbfbf" points="0,-140 0,-159 90,-159 90,-140 0,-140"/>
<text text-anchor="middle" x="45" y="-147" font-family="Helvetica,sans-Serif" font-size="10.00" fill="#000000">stx/variant.hpp</text>
</g>
<!-- Node5&#45;&gt;Node6 -->
<g id="edge6" class="edge">
<title>Node5&#45;&gt;Node6</title>
<path fill="none" stroke="#191970" d="M82.8811,-201.2967C75.4691,-191.1618 65.7,-177.804 57.939,-167.1921"/>
<polygon fill="#191970" stroke="#191970" points="60.7163,-165.0606 51.988,-159.055 55.0661,-169.1928 60.7163,-165.0606"/>
</g>
<!-- Node7 -->
<g id="node8" class="node">
<title>Node7</title>
<polygon fill="#ffffff" stroke="#bfbfbf" points="108.5,-140 108.5,-159 203.5,-159 203.5,-140 108.5,-140"/>
<text text-anchor="middle" x="156" y="-147" font-family="Helvetica,sans-Serif" font-size="10.00" fill="#000000">stx/optional.hpp</text>
</g>
<!-- Node5&#45;&gt;Node7 -->
<g id="edge7" class="edge">
<title>Node5&#45;&gt;Node7</title>
<path fill="none" stroke="#191970" d="M108.0688,-201.2967C117.6349,-190.9591 130.3038,-177.2684 140.2143,-166.5588"/>
<polygon fill="#191970" stroke="#191970" points="142.935,-168.7718 147.1581,-159.055 137.7973,-164.0175 142.935,-168.7718"/>
</g>
<!-- Node8&#45;&gt;Node1 -->
<g id="edge11" class="edge">
<title>Node8&#45;&gt;Node1</title>
<path fill="none" stroke="#191970" d="M610.8003,-269.4923C706.5007,-249.5486 866.9587,-210.3217 905,-165 919.7152,-147.4686 922.7915,-120.536 922.9602,-102.2509"/>
<polygon fill="#191970" stroke="#191970" points="926.4576,-102.0762 922.7676,-92.1448 919.4589,-102.2097 926.4576,-102.0762"/>
</g>
<!-- Node8&#45;&gt;Node3 -->
<g id="edge13" class="edge">
<title>Node8&#45;&gt;Node3</title>
<path fill="none" stroke="#191970" d="M485.5311,-268.4291C438.0328,-251.6827 370.9204,-219.5404 340,-165 330.1717,-147.6639 331.3213,-124.8047 334.4195,-107.5456"/>
<polygon fill="#191970" stroke="#191970" points="337.8731,-108.1305 336.5196,-97.6225 331.0248,-106.6811 337.8731,-108.1305"/>
</g>
<!-- Node8&#45;&gt;Node5 -->
<g id="edge14" class="edge">
<title>Node8&#45;&gt;Node5</title>
<path fill="none" stroke="#191970" d="M465.1796,-272.5113C382.0483,-259.9668 246.9732,-239.5838 164.7263,-227.1727"/>
<polygon fill="#191970" stroke="#191970" points="165.1287,-223.6938 154.7183,-225.6625 164.0841,-230.6155 165.1287,-223.6938"/>
</g>
<!-- Node9 -->
<g id="node10" class="node">
<title>Node9</title>
<polygon fill="#ffffff" stroke="#bfbfbf" points="924,-207 924,-226 988,-226 988,-207 924,-207"/>
<text text-anchor="middle" x="956" y="-214" font-family="Helvetica,sans-Serif" font-size="10.00" fill="#000000">algorithm</text>
</g>
<!-- Node8&#45;&gt;Node9 -->
<g id="edge9" class="edge">
<title>Node8&#45;&gt;Node9</title>
<path fill="none" stroke="#191970" d="M610.7491,-277.4953C686.2814,-270.3162 807.507,-256.1373 910,-232 913.4683,-231.1832 917.0457,-230.2134 920.6016,-229.1634"/>
<polygon fill="#191970" stroke="#191970" points="921.9749,-232.4003 930.4576,-226.0525 919.8678,-225.7249 921.9749,-232.4003"/>
</g>
<!-- Node10 -->
<g id="node11" class="node">
<title>Node10</title>
<polygon fill="#ffffff" stroke="#bfbfbf" points="490,-73 490,-92 548,-92 548,-73 490,-73"/>
<text text-anchor="middle" x="519" y="-80" font-family="Helvetica,sans-Serif" font-size="10.00" fill="#000000">memory</text>
</g>
<!-- Node8&#45;&gt;Node10 -->
<g id="edge10" class="edge">
<title>Node8&#45;&gt;Node10</title>
<path fill="none" stroke="#191970" d="M536.5719,-268.3923C533.1871,-232.5844 524.6768,-142.5545 520.8798,-102.386"/>
<polygon fill="#191970" stroke="#191970" points="524.3479,-101.8824 519.9222,-92.2562 517.3789,-102.5412 524.3479,-101.8824"/>
</g>
<!-- Node11 -->
<g id="node12" class="node">
<title>Node11</title>
<polygon fill="#ffffff" stroke="#bfbfbf" points="567.5,-73 567.5,-92 614.5,-92 614.5,-73 567.5,-73"/>
<text text-anchor="middle" x="591" y="-80" font-family="Helvetica,sans-Serif" font-size="10.00" fill="#000000">vector</text>
</g>
<!-- Node8&#45;&gt;Node11 -->
<g id="edge12" class="edge">
<title>Node8&#45;&gt;Node11</title>
<path fill="none" stroke="#191970" d="M541.9346,-268.206C548.9128,-241.1288 563.9519,-182.9885 577,-134 579.8069,-123.4617 582.9922,-111.7271 585.6146,-102.1239"/>
<polygon fill="#191970" stroke="#191970" points="589.0216,-102.9341 588.2861,-92.3648 582.27,-101.0859 589.0216,-102.9341"/>
</g>
<!-- Node12 -->
<g id="node13" class="node">
<title>Node12</title>
<g id="a_node13"><a xlink:href="type__safe__index_8h.html" target="_top" xlink:title="drake/common/type_safe\l_index.h">
<polygon fill="#ffffff" stroke="#000000" points="585.5,-201.5 585.5,-231.5 726.5,-231.5 726.5,-201.5 585.5,-201.5"/>
<text text-anchor="start" x="593.5" y="-219.5" font-family="Helvetica,sans-Serif" font-size="10.00" fill="#000000">drake/common/type_safe</text>
<text text-anchor="middle" x="656" y="-208.5" font-family="Helvetica,sans-Serif" font-size="10.00" fill="#000000">_index.h</text>
</a>
</g>
</g>
<!-- Node8&#45;&gt;Node12 -->
<g id="edge15" class="edge">
<title>Node8&#45;&gt;Node12</title>
<path fill="none" stroke="#191970" d="M564.4815,-268.4639C580.9148,-259.1332 602.2427,-247.0232 620.1747,-236.8415"/>
<polygon fill="#191970" stroke="#191970" points="622.2308,-239.699 629.1986,-231.7177 618.7744,-233.6117 622.2308,-239.699"/>
</g>
<!-- Node12&#45;&gt;Node1 -->
<g id="edge18" class="edge">
<title>Node12&#45;&gt;Node1</title>
<path fill="none" stroke="#191970" d="M726.7145,-206.8852C783.0753,-198.0308 856.3329,-183.48 880,-165 900.3205,-149.1331 911.6657,-120.7587 917.3051,-101.781"/>
<polygon fill="#191970" stroke="#191970" points="920.6907,-102.6687 919.9315,-92.1011 913.935,-100.8356 920.6907,-102.6687"/>
</g>
<!-- Node12&#45;&gt;Node3 -->
<g id="edge19" class="edge">
<title>Node12&#45;&gt;Node3</title>
<path fill="none" stroke="#191970" d="M585.3123,-212.9172C508.564,-207.5548 392.6779,-194.6829 361,-165 345.5373,-150.5111 341.1348,-126.2732 340.2463,-107.8077"/>
<polygon fill="#191970" stroke="#191970" points="343.7444,-107.6579 340.0722,-97.7199 336.7454,-107.7788 343.7444,-107.6579"/>
</g>
<!-- Node13 -->
<g id="node14" class="node">
<title>Node13</title>
<polygon fill="#ffffff" stroke="#bfbfbf" points="585.5,-140 585.5,-159 650.5,-159 650.5,-140 585.5,-140"/>
<text text-anchor="middle" x="618" y="-147" font-family="Helvetica,sans-Serif" font-size="10.00" fill="#000000">functional</text>
</g>
<!-- Node12&#45;&gt;Node13 -->
<g id="edge16" class="edge">
<title>Node12&#45;&gt;Node13</title>
<path fill="none" stroke="#191970" d="M647.3772,-201.2967C641.744,-191.3645 634.3553,-178.3371 628.3973,-167.8321"/>
<polygon fill="#191970" stroke="#191970" points="631.3971,-166.0266 623.4192,-159.055 625.3083,-169.4801 631.3971,-166.0266"/>
</g>
<!-- Node14 -->
<g id="node15" class="node">
<title>Node14</title>
<polygon fill="#ffffff" stroke="#bfbfbf" points="669,-140 669,-159 713,-159 713,-140 669,-140"/>
<text text-anchor="middle" x="691" y="-147" font-family="Helvetica,sans-Serif" font-size="10.00" fill="#000000">limits</text>
</g>
<!-- Node12&#45;&gt;Node14 -->
<g id="edge17" class="edge">
<title>Node12&#45;&gt;Node14</title>
<path fill="none" stroke="#191970" d="M663.942,-201.2967C669.0775,-191.4658 675.7971,-178.6026 681.2551,-168.1545"/>
<polygon fill="#191970" stroke="#191970" points="684.4806,-169.5391 686.0086,-159.055 678.2761,-166.2979 684.4806,-169.5391"/>
</g>
<!-- Node15 -->
<g id="node16" class="node">
<title>Node15</title>
<g id="a_node16"><a xlink:href="drake__throw_8h.html" target="_top" xlink:title="Provides a convenient wrapper to throw an exception when a condition is unmet. ">
<polygon fill="#ffffff" stroke="#000000" points="369.5,-134.5 369.5,-164.5 490.5,-164.5 490.5,-134.5 369.5,-134.5"/>
<text text-anchor="start" x="377.5" y="-152.5" font-family="Helvetica,sans-Serif" font-size="10.00" fill="#000000">drake/common/drake</text>
<text text-anchor="middle" x="430" y="-141.5" font-family="Helvetica,sans-Serif" font-size="10.00" fill="#000000">_throw.h</text>
</a>
</g>
</g>
<!-- Node12&#45;&gt;Node15 -->
<g id="edge20" class="edge">
<title>Node12&#45;&gt;Node15</title>
<path fill="none" stroke="#191970" d="M605.2812,-201.4639C571.3784,-191.4131 526.5982,-178.1375 490.7865,-167.5208"/>
<polygon fill="#191970" stroke="#191970" points="491.5224,-164.0884 480.94,-164.6017 489.5327,-170.7997 491.5224,-164.0884"/>
</g>
<!-- Node16 -->
<g id="node17" class="node">
<title>Node16</title>
<g id="a_node17"><a xlink:href="nice__type__name_8h.html" target="_top" xlink:title="drake/common/nice_type\l_name.h">
<polygon fill="#ffffff" stroke="#000000" points="731,-134.5 731,-164.5 871,-164.5 871,-134.5 731,-134.5"/>
<text text-anchor="start" x="739" y="-152.5" font-family="Helvetica,sans-Serif" font-size="10.00" fill="#000000">drake/common/nice_type</text>
<text text-anchor="middle" x="801" y="-141.5" font-family="Helvetica,sans-Serif" font-size="10.00" fill="#000000">_name.h</text>
</a>
</g>
</g>
<!-- Node12&#45;&gt;Node16 -->
<g id="edge23" class="edge">
<title>Node12&#45;&gt;Node16</title>
<path fill="none" stroke="#191970" d="M688.5408,-201.4639C709.3631,-191.8426 736.5804,-179.2663 759.0236,-168.896"/>
<polygon fill="#191970" stroke="#191970" points="760.7076,-171.9735 768.3172,-164.6017 757.7714,-165.6191 760.7076,-171.9735"/>
</g>
<!-- Node15&#45;&gt;Node3 -->
<g id="edge22" class="edge">
<title>Node15&#45;&gt;Node3</title>
<path fill="none" stroke="#191970" d="M409.8045,-134.2967C397.8564,-125.302 382.5361,-113.7687 369.3862,-103.8694"/>
<polygon fill="#191970" stroke="#191970" points="371.2098,-100.8613 361.1156,-97.6432 366.9998,-106.4538 371.2098,-100.8613"/>
</g>
<!-- Node15&#45;&gt;Node4 -->
<g id="edge21" class="edge">
<title>Node15&#45;&gt;Node4</title>
<path fill="none" stroke="#191970" d="M430,-134.389C430,-110.0735 430,-62.2644 430,-35.2698"/>
<polygon fill="#191970" stroke="#191970" points="433.5001,-35.1041 430,-25.1042 426.5001,-35.1042 433.5001,-35.1041"/>
</g>
<!-- Node16&#45;&gt;Node1 -->
<g id="edge25" class="edge">
<title>Node16&#45;&gt;Node1</title>
<path fill="none" stroke="#191970" d="M828.1548,-134.4639C848.3656,-123.2728 875.7964,-108.0838 895.7799,-97.0186"/>
<polygon fill="#191970" stroke="#191970" points="897.6027,-100.0101 904.6556,-92.1039 894.2117,-93.8862 897.6027,-100.0101"/>
</g>
<!-- Node16&#45;&gt;Node10 -->
<g id="edge24" class="edge">
<title>Node16&#45;&gt;Node10</title>
<path fill="none" stroke="#191970" d="M730.7615,-135.1491C665.3164,-121.6802 575.4145,-102.8926 559,-98 556.5644,-97.274 554.0674,-96.4662 551.5686,-95.6112"/>
<polygon fill="#191970" stroke="#191970" points="552.6424,-92.2776 542.0483,-92.1533 550.2527,-98.857 552.6424,-92.2776"/>
</g>
<!-- Node16&#45;&gt;Node11 -->
<g id="edge28" class="edge">
<title>Node16&#45;&gt;Node11</title>
<path fill="none" stroke="#191970" d="M740.8349,-134.4968C706.2266,-125.2483 662.1725,-112.4174 624,-98 622.4123,-97.4003 620.7952,-96.7563 619.1723,-96.0837"/>
<polygon fill="#191970" stroke="#191970" points="620.5395,-92.8615 609.9774,-92.03 617.7157,-99.2666 620.5395,-92.8615"/>
</g>
<!-- Node17 -->
<g id="node18" class="node">
<title>Node17</title>
<polygon fill="#ffffff" stroke="#bfbfbf" points="771.5,-73 771.5,-92 828.5,-92 828.5,-73 771.5,-73"/>
<text text-anchor="middle" x="800" y="-80" font-family="Helvetica,sans-Serif" font-size="10.00" fill="#000000">typeinfo</text>
</g>
<!-- Node16&#45;&gt;Node17 -->
<g id="edge26" class="edge">
<title>Node16&#45;&gt;Node17</title>
<path fill="none" stroke="#191970" d="M800.7731,-134.2967C800.6309,-124.7699 800.4462,-112.3954 800.293,-102.1306"/>
<polygon fill="#191970" stroke="#191970" points="803.7916,-102.0016 800.1426,-92.055 796.7923,-102.1061 803.7916,-102.0016"/>
</g>
<!-- Node18 -->
<g id="node19" class="node">
<title>Node18</title>
<polygon fill="#ffffff" stroke="#bfbfbf" points="807.5,-6 807.5,-25 852.5,-25 852.5,-6 807.5,-6"/>
<text text-anchor="middle" x="830" y="-13" font-family="Helvetica,sans-Serif" font-size="10.00" fill="#000000">utility</text>
</g>
<!-- Node16&#45;&gt;Node18 -->
<g id="edge27" class="edge">
<title>Node16&#45;&gt;Node18</title>
<path fill="none" stroke="#191970" d="M815.8786,-134.2541C824.1408,-124.6909 833.6136,-111.6233 838,-98 844.6569,-77.3252 840.683,-52.3508 836.2999,-35.3341"/>
<polygon fill="#191970" stroke="#191970" points="839.5815,-34.0791 833.4682,-25.4259 832.851,-36.0028 839.5815,-34.0791"/>
</g>
<!-- Node19 -->
<g id="node20" class="node">
<title>Node19</title>
<g id="a_node20"><a xlink:href="never__destroyed_8h.html" target="_top" xlink:title="drake/common/never\l_destroyed.h">
<polygon fill="#ffffff" stroke="#000000" points="632.5,-67.5 632.5,-97.5 753.5,-97.5 753.5,-67.5 632.5,-67.5"/>
<text text-anchor="start" x="640.5" y="-85.5" font-family="Helvetica,sans-Serif" font-size="10.00" fill="#000000">drake/common/never</text>
<text text-anchor="middle" x="693" y="-74.5" font-family="Helvetica,sans-Serif" font-size="10.00" fill="#000000">_destroyed.h</text>
</a>
</g>
</g>
<!-- Node16&#45;&gt;Node19 -->
<g id="edge29" class="edge">
<title>Node16&#45;&gt;Node19</title>
<path fill="none" stroke="#191970" d="M776.7627,-134.4639C761.8601,-125.2188 742.5594,-113.2452 726.2417,-103.1222"/>
<polygon fill="#191970" stroke="#191970" points="727.8728,-100.0153 717.5301,-97.7177 724.1826,-105.9636 727.8728,-100.0153"/>
</g>
<!-- Node19&#45;&gt;Node4 -->
<g id="edge31" class="edge">
<title>Node19&#45;&gt;Node4</title>
<path fill="none" stroke="#191970" d="M633.9777,-67.4639C585.6446,-55.1509 518.3142,-37.9983 474.4482,-26.8233"/>
<polygon fill="#191970" stroke="#191970" points="475.1992,-23.4029 464.6446,-24.3258 473.4711,-30.1862 475.1992,-23.4029"/>
</g>
<!-- Node19&#45;&gt;Node18 -->
<g id="edge32" class="edge">
<title>Node19&#45;&gt;Node18</title>
<path fill="none" stroke="#191970" d="M723.7455,-67.4639C746.9394,-56.1209 778.5316,-40.6707 801.2294,-29.5703"/>
<polygon fill="#191970" stroke="#191970" points="802.9165,-32.6414 810.3621,-25.1039 799.8412,-26.3531 802.9165,-32.6414"/>
</g>
<!-- Node20 -->
<g id="node21" class="node">
<title>Node20</title>
<polygon fill="#ffffff" stroke="#bfbfbf" points="700.5,-6 700.5,-25 737.5,-25 737.5,-6 700.5,-6"/>
<text text-anchor="middle" x="719" y="-13" font-family="Helvetica,sans-Serif" font-size="10.00" fill="#000000">new</text>
</g>
<!-- Node19&#45;&gt;Node20 -->
<g id="edge30" class="edge">
<title>Node19&#45;&gt;Node20</title>
<path fill="none" stroke="#191970" d="M698.8998,-67.2967C702.6754,-57.5672 707.6037,-44.8675 711.6353,-34.4784"/>
<polygon fill="#191970" stroke="#191970" points="714.9372,-35.6439 715.2921,-25.055 708.4114,-33.1114 714.9372,-35.6439"/>
</g>
<!-- Node21 -->
<g id="node22" class="node">
<title>Node21</title>
<g id="a_node22"><a xlink:href="drake__copyable_8h.html" target="_top" xlink:title="Provides careful macros to selectively enable or disable the special member functions for copy&#45;constr...">
<polygon fill="#ffffff" stroke="#000000" points="561.5,-.5 561.5,-30.5 682.5,-30.5 682.5,-.5 561.5,-.5"/>
<text text-anchor="start" x="569.5" y="-18.5" font-family="Helvetica,sans-Serif" font-size="10.00" fill="#000000">drake/common/drake</text>
<text text-anchor="middle" x="622" y="-7.5" font-family="Helvetica,sans-Serif" font-size="10.00" fill="#000000">_copyable.h</text>
</a>
</g>
</g>
<!-- Node19&#45;&gt;Node21 -->
<g id="edge33" class="edge">
<title>Node19&#45;&gt;Node21</title>
<path fill="none" stroke="#191970" d="M676.889,-67.2967C667.6296,-58.559 655.8317,-47.4257 645.5485,-37.7218"/>
<polygon fill="#191970" stroke="#191970" points="647.7224,-34.9609 638.0472,-30.6432 642.9181,-40.052 647.7224,-34.9609"/>
</g>
</g>
</svg>
        <g id="navigator" transform="translate(0 0)" fill="#404254">
                <rect fill="#f2f5e9" fill-opacity="0.5" stroke="#606060" stroke-width=".5" x="0" y="0" width="60" height="60"/>
                <use id="zoomplus" xlink:href="#zoomPlus" x="17" y="9" onmousedown="handleZoom(evt,'in')"/>
                <use id="zoomminus" xlink:href="#zoomMin" x="42" y="9" onmousedown="handleZoom(evt,'out')"/>
                <use id="reset" xlink:href="#resetDef" x="30" y="36" onmousedown="handleReset()"/>
                <g id="arrowUp" xlink:href="#dirArrow" transform="translate(30 24)" onmousedown="handlePan(0,-1)">
                  <use xlink:href="#rim" fill="#404040">
                        <set attributeName="fill" to="#808080" begin="arrowUp.mouseover" end="arrowUp.mouseout"/>
                  </use>
                  <path fill="none" stroke="white" stroke-width="1.5" d="M0,-3.0v7 M-2.5,-0.5L0,-3.0L2.5,-0.5"/>
                </g>
                <g id="arrowRight" xlink:href="#dirArrow" transform="rotate(90) translate(36 -43)" onmousedown="handlePan(1,0)">
                  <use xlink:href="#rim" fill="#404040">
                        <set attributeName="fill" to="#808080" begin="arrowRight.mouseover" end="arrowRight.mouseout"/>
                  </use>
                  <path fill="none" stroke="white" stroke-width="1.5" d="M0,-3.0v7 M-2.5,-0.5L0,-3.0L2.5,-0.5"/>
                </g>
                <g id="arrowDown" xlink:href="#dirArrow" transform="rotate(180) translate(-30 -48)" onmousedown="handlePan(0,1)">
                  <use xlink:href="#rim" fill="#404040">
                        <set attributeName="fill" to="#808080" begin="arrowDown.mouseover" end="arrowDown.mouseout"/>
                  </use>
                  <path fill="none" stroke="white" stroke-width="1.5" d="M0,-3.0v7 M-2.5,-0.5L0,-3.0L2.5,-0.5"/>
                </g>
                <g id="arrowLeft" xlink:href="#dirArrow" transform="rotate(270) translate(-36 17)" onmousedown="handlePan(-1,0)">
                  <use xlink:href="#rim" fill="#404040">
                        <set attributeName="fill" to="#808080" begin="arrowLeft.mouseover" end="arrowLeft.mouseout"/>
                  </use>
                  <path fill="none" stroke="white" stroke-width="1.5" d="M0,-3.0v7 M-2.5,-0.5L0,-3.0L2.5,-0.5"/>
                </g>
        </g>
        <svg viewBox="0 0 15 15" width="100%" height="30px" preserveAspectRatio="xMaxYMin meet">
         <g id="arrow_out" transform="scale(0.3 0.3)">
          <a xlink:href="input__port__base_8h__incl_org.svg" target="_base">
           <rect id="button" ry="5" rx="5" y="6" x="6" height="38" width="38"
                fill="#f2f5e9" fill-opacity="0.5" stroke="#606060" stroke-width="1.0"/>
           <path id="arrow"
             d="M 11.500037,31.436501 C 11.940474,20.09759 22.043105,11.32322 32.158766,21.979434 L 37.068811,17.246167 C 37.068811,17.246167 37.088388,32 37.088388,32 L 22.160133,31.978069 C 22.160133,31.978069 26.997745,27.140456 26.997745,27.140456 C 18.528582,18.264221 13.291696,25.230495 11.500037,31.436501 z"
             style="fill:#404040;"/>
          </a>
         </g>
        </svg>
</svg>
