<?xml version="1.0" encoding="UTF-8" standalone="no"?>
<!DOCTYPE svg PUBLIC "-//W3C//DTD SVG 1.1//EN"
 "http://www.w3.org/Graphics/SVG/1.1/DTD/svg11.dtd">
<!-- Generated by graphviz version 2.40.1 (20161225.0304)
 -->
<!-- Title: drake/geometry/internal_frame.h Pages: 1 -->
<svg width="874pt" height="374pt"
 viewBox="0.00 0.00 873.68 374.00" xmlns="http://www.w3.org/2000/svg" xmlns:xlink="http://www.w3.org/1999/xlink">
<g id="graph0" class="graph" transform="scale(1 1) rotate(0) translate(4 370)">
<title>drake/geometry/internal_frame.h</title>
<polygon fill="#ffffff" stroke="transparent" points="-4,4 -4,-370 869.6778,-370 869.6778,4 -4,4"/>
<!-- Node0 -->
<g id="node1" class="node">
<title>Node0</title>
<polygon fill="#bfbfbf" stroke="#000000" points="388.1778,-335.5 388.1778,-365.5 523.1778,-365.5 523.1778,-335.5 388.1778,-335.5"/>
<text text-anchor="start" x="396.1778" y="-353.5" font-family="Helvetica,sans-Serif" font-size="10.00" fill="#000000">drake/geometry/internal</text>
<text text-anchor="middle" x="455.6778" y="-342.5" font-family="Helvetica,sans-Serif" font-size="10.00" fill="#000000">_frame.h</text>
</g>
<!-- Node1 -->
<g id="node2" class="node">
<title>Node1</title>
<polygon fill="#ffffff" stroke="#bfbfbf" points="566.6778,-73 566.6778,-92 610.6778,-92 610.6778,-73 566.6778,-73"/>
<text text-anchor="middle" x="588.6778" y="-80" font-family="Helvetica,sans-Serif" font-size="10.00" fill="#000000">string</text>
</g>
<!-- Node0&#45;&gt;Node1 -->
<g id="edge1" class="edge">
<title>Node0&#45;&gt;Node1</title>
<path fill="none" stroke="#191970" d="M492.2509,-335.3725C508.4368,-326.9248 526.3365,-314.8635 537.6778,-299 549.2658,-282.7915 575.318,-151.9974 584.9799,-101.9137"/>
<polygon fill="#191970" stroke="#191970" points="588.4312,-102.5 586.8776,-92.0197 581.5565,-101.1814 588.4312,-102.5"/>
</g>
<!-- Node2 -->
<g id="node3" class="node">
<title>Node2</title>
<polygon fill="#ffffff" stroke="#bfbfbf" points="584.6778,-274 584.6778,-293 670.6778,-293 670.6778,-274 584.6778,-274"/>
<text text-anchor="middle" x="627.6778" y="-281" font-family="Helvetica,sans-Serif" font-size="10.00" fill="#000000">unordered_set</text>
</g>
<!-- Node0&#45;&gt;Node2 -->
<g id="edge2" class="edge">
<title>Node0&#45;&gt;Node2</title>
<path fill="none" stroke="#191970" d="M494.278,-335.4639C524.1359,-323.8332 565.0793,-307.8843 593.7036,-296.7342"/>
<polygon fill="#191970" stroke="#191970" points="595.2286,-299.8963 603.2762,-293.0053 592.6877,-293.3737 595.2286,-299.8963"/>
</g>
<!-- Node3 -->
<g id="node4" class="node">
<title>Node3</title>
<g id="a_node4"><a xlink:href="drake__copyable_8h.html" target="_top" xlink:title="Provides careful macros to selectively enable or disable the special member functions for copy&#45;constr...">
<polygon fill="#ffffff" stroke="#000000" points="131.1778,-.5 131.1778,-30.5 252.1778,-30.5 252.1778,-.5 131.1778,-.5"/>
<text text-anchor="start" x="139.1778" y="-18.5" font-family="Helvetica,sans-Serif" font-size="10.00" fill="#000000">drake/common/drake</text>
<text text-anchor="middle" x="191.6778" y="-7.5" font-family="Helvetica,sans-Serif" font-size="10.00" fill="#000000">_copyable.h</text>
</a>
</g>
</g>
<!-- Node0&#45;&gt;Node3 -->
<g id="edge3" class="edge">
<title>Node0&#45;&gt;Node3</title>
<path fill="none" stroke="#191970" d="M387.7094,-344.6564C261.0586,-331.8806 1.6778,-296.0101 1.6778,-216.5 1.6778,-216.5 1.6778,-216.5 1.6778,-149.5 1.6778,-111.8735 -5.0334,-94.4715 20.6778,-67 28.0148,-59.1607 77.4799,-44.7261 121.3332,-33.1291"/>
<polygon fill="#191970" stroke="#191970" points="122.381,-36.4728 131.1661,-30.5507 120.6054,-29.7017 122.381,-36.4728"/>
</g>
<!-- Node4 -->
<g id="node5" class="node">
<title>Node4</title>
<g id="a_node5"><a xlink:href="geometry__ids_8h.html" target="_top" xlink:title="drake/geometry/geometry\l_ids.h">
<polygon fill="#ffffff" stroke="#000000" points="220.1778,-268.5 220.1778,-298.5 365.1778,-298.5 365.1778,-268.5 220.1778,-268.5"/>
<text text-anchor="start" x="228.1778" y="-286.5" font-family="Helvetica,sans-Serif" font-size="10.00" fill="#000000">drake/geometry/geometry</text>
<text text-anchor="middle" x="292.6778" y="-275.5" font-family="Helvetica,sans-Serif" font-size="10.00" fill="#000000">_ids.h</text>
</a>
</g>
</g>
<!-- Node0&#45;&gt;Node4 -->
<g id="edge4" class="edge">
<title>Node0&#45;&gt;Node4</title>
<path fill="none" stroke="#191970" d="M419.0974,-335.4639C395.3769,-325.7137 364.2735,-312.9289 338.8543,-302.4805"/>
<polygon fill="#191970" stroke="#191970" points="339.9975,-299.1663 329.4177,-298.6017 337.3362,-305.6407 339.9975,-299.1663"/>
</g>
<!-- Node14 -->
<g id="node15" class="node">
<title>Node14</title>
<g id="a_node15"><a xlink:href="geometry__index_8h.html" target="_top" xlink:title="drake/geometry/geometry\l_index.h">
<polygon fill="#ffffff" stroke="#000000" points="383.1778,-268.5 383.1778,-298.5 528.1778,-298.5 528.1778,-268.5 383.1778,-268.5"/>
<text text-anchor="start" x="391.1778" y="-286.5" font-family="Helvetica,sans-Serif" font-size="10.00" fill="#000000">drake/geometry/geometry</text>
<text text-anchor="middle" x="455.6778" y="-275.5" font-family="Helvetica,sans-Serif" font-size="10.00" fill="#000000">_index.h</text>
</a>
</g>
</g>
<!-- Node0&#45;&gt;Node14 -->
<g id="edge18" class="edge">
<title>Node0&#45;&gt;Node14</title>
<path fill="none" stroke="#191970" d="M455.6778,-335.2967C455.6778,-327.5013 455.6778,-317.7991 455.6778,-308.9064"/>
<polygon fill="#191970" stroke="#191970" points="459.1779,-308.6431 455.6778,-298.6432 452.1779,-308.6432 459.1779,-308.6431"/>
</g>
<!-- Node5 -->
<g id="node6" class="node">
<title>Node5</title>
<g id="a_node6"><a xlink:href="identifier_8h.html" target="_top" xlink:title="drake/geometry/identifier.h">
<polygon fill="#ffffff" stroke="#000000" points="217.1778,-140 217.1778,-159 368.1778,-159 368.1778,-140 217.1778,-140"/>
<text text-anchor="middle" x="292.6778" y="-147" font-family="Helvetica,sans-Serif" font-size="10.00" fill="#000000">drake/geometry/identifier.h</text>
</a>
</g>
</g>
<!-- Node4&#45;&gt;Node5 -->
<g id="edge5" class="edge">
<title>Node4&#45;&gt;Node5</title>
<path fill="none" stroke="#191970" d="M292.6778,-268.389C292.6778,-244.0735 292.6778,-196.2644 292.6778,-169.2698"/>
<polygon fill="#191970" stroke="#191970" points="296.1779,-169.1041 292.6778,-159.1042 289.1779,-169.1042 296.1779,-169.1041"/>
</g>
<!-- Node5&#45;&gt;Node1 -->
<g id="edge9" class="edge">
<title>Node5&#45;&gt;Node1</title>
<path fill="none" stroke="#191970" d="M343.4689,-139.996C417.5458,-126.0819 547.5693,-101.4376 557.6778,-98 559.2836,-97.4539 560.9116,-96.8402 562.5375,-96.1803"/>
<polygon fill="#191970" stroke="#191970" points="563.9937,-99.3631 571.6562,-92.0462 561.1033,-92.9877 563.9937,-99.3631"/>
</g>
<!-- Node5&#45;&gt;Node3 -->
<g id="edge12" class="edge">
<title>Node5&#45;&gt;Node3</title>
<path fill="none" stroke="#191970" d="M258.7156,-139.9698C237.7752,-132.2228 212.3841,-119.0524 198.6778,-98 187.7016,-81.1408 186.6345,-58.0583 187.9225,-40.5956"/>
<polygon fill="#191970" stroke="#191970" points="191.4135,-40.8619 188.9613,-30.5547 184.4507,-40.1414 191.4135,-40.8619"/>
</g>
<!-- Node6 -->
<g id="node7" class="node">
<title>Node6</title>
<polygon fill="#ffffff" stroke="#bfbfbf" points="207.6778,-73 207.6778,-92 257.6778,-92 257.6778,-73 207.6778,-73"/>
<text text-anchor="middle" x="232.6778" y="-80" font-family="Helvetica,sans-Serif" font-size="10.00" fill="#000000">atomic</text>
</g>
<!-- Node5&#45;&gt;Node6 -->
<g id="edge6" class="edge">
<title>Node5&#45;&gt;Node6</title>
<path fill="none" stroke="#191970" d="M284.0813,-139.9005C274.7248,-129.4525 259.5726,-112.5325 248.1377,-99.7635"/>
<polygon fill="#191970" stroke="#191970" points="250.537,-97.1963 241.2584,-92.0817 245.3223,-101.8661 250.537,-97.1963"/>
</g>
<!-- Node7 -->
<g id="node8" class="node">
<title>Node7</title>
<polygon fill="#ffffff" stroke="#bfbfbf" points="275.6778,-73 275.6778,-92 325.6778,-92 325.6778,-73 275.6778,-73"/>
<text text-anchor="middle" x="300.6778" y="-80" font-family="Helvetica,sans-Serif" font-size="10.00" fill="#000000">cstdint</text>
</g>
<!-- Node5&#45;&gt;Node7 -->
<g id="edge7" class="edge">
<title>Node5&#45;&gt;Node7</title>
<path fill="none" stroke="#191970" d="M293.824,-139.9005C294.9884,-130.149 296.8259,-114.7597 298.3053,-102.3695"/>
<polygon fill="#191970" stroke="#191970" points="301.8234,-102.4261 299.5337,-92.0817 294.8727,-101.5961 301.8234,-102.4261"/>
</g>
<!-- Node8 -->
<g id="node9" class="node">
<title>Node8</title>
<polygon fill="#ffffff" stroke="#bfbfbf" points="344.1778,-73 344.1778,-92 409.1778,-92 409.1778,-73 344.1778,-73"/>
<text text-anchor="middle" x="376.6778" y="-80" font-family="Helvetica,sans-Serif" font-size="10.00" fill="#000000">functional</text>
</g>
<!-- Node5&#45;&gt;Node8 -->
<g id="edge8" class="edge">
<title>Node5&#45;&gt;Node8</title>
<path fill="none" stroke="#191970" d="M304.713,-139.9005C318.311,-129.0544 340.6532,-111.2339 356.8402,-98.3229"/>
<polygon fill="#191970" stroke="#191970" points="359.0297,-101.0535 364.665,-92.0817 354.6647,-95.5811 359.0297,-101.0535"/>
</g>
<!-- Node9 -->
<g id="node10" class="node">
<title>Node9</title>
<g id="a_node10"><a xlink:href="drake__assert_8h.html" target="_top" xlink:title="Provides Drake&#39;s assertion implementation. ">
<polygon fill="#ffffff" stroke="#000000" points="30.1778,-67.5 30.1778,-97.5 151.1778,-97.5 151.1778,-67.5 30.1778,-67.5"/>
<text text-anchor="start" x="38.1778" y="-85.5" font-family="Helvetica,sans-Serif" font-size="10.00" fill="#000000">drake/common/drake</text>
<text text-anchor="middle" x="90.6778" y="-74.5" font-family="Helvetica,sans-Serif" font-size="10.00" fill="#000000">_assert.h</text>
</a>
</g>
</g>
<!-- Node5&#45;&gt;Node9 -->
<g id="edge10" class="edge">
<title>Node5&#45;&gt;Node9</title>
<path fill="none" stroke="#191970" d="M263.7361,-139.9005C233.0925,-129.7366 183.9833,-113.4479 145.8936,-100.8141"/>
<polygon fill="#191970" stroke="#191970" points="146.5607,-97.348 135.9673,-97.5218 144.357,-103.992 146.5607,-97.348"/>
</g>
<!-- Node11 -->
<g id="node12" class="node">
<title>Node11</title>
<g id="a_node12"><a xlink:href="never__destroyed_8h.html" target="_top" xlink:title="drake/common/never\l_destroyed.h">
<polygon fill="#ffffff" stroke="#000000" points="427.1778,-67.5 427.1778,-97.5 548.1778,-97.5 548.1778,-67.5 427.1778,-67.5"/>
<text text-anchor="start" x="435.1778" y="-85.5" font-family="Helvetica,sans-Serif" font-size="10.00" fill="#000000">drake/common/never</text>
<text text-anchor="middle" x="487.6778" y="-74.5" font-family="Helvetica,sans-Serif" font-size="10.00" fill="#000000">_destroyed.h</text>
</a>
</g>
</g>
<!-- Node5&#45;&gt;Node11 -->
<g id="edge13" class="edge">
<title>Node5&#45;&gt;Node11</title>
<path fill="none" stroke="#191970" d="M320.6166,-139.9005C350.1983,-129.7366 397.6057,-113.4479 434.3755,-100.8141"/>
<polygon fill="#191970" stroke="#191970" points="435.6377,-104.0813 443.9578,-97.5218 433.3631,-97.4612 435.6377,-104.0813"/>
</g>
<!-- Node10 -->
<g id="node11" class="node">
<title>Node10</title>
<polygon fill="#ffffff" stroke="#bfbfbf" points="44.1778,-6 44.1778,-25 113.1778,-25 113.1778,-6 44.1778,-6"/>
<text text-anchor="middle" x="78.6778" y="-13" font-family="Helvetica,sans-Serif" font-size="10.00" fill="#000000">type_traits</text>
</g>
<!-- Node9&#45;&gt;Node10 -->
<g id="edge11" class="edge">
<title>Node9&#45;&gt;Node10</title>
<path fill="none" stroke="#191970" d="M87.9548,-67.2967C86.2485,-57.7699 84.0322,-45.3954 82.1937,-35.1306"/>
<polygon fill="#191970" stroke="#191970" points="85.5974,-34.2813 80.3891,-25.055 78.707,-35.5154 85.5974,-34.2813"/>
</g>
<!-- Node11&#45;&gt;Node3 -->
<g id="edge17" class="edge">
<title>Node11&#45;&gt;Node3</title>
<path fill="none" stroke="#191970" d="M427.0635,-68.7799C379.1763,-57.9405 312.2728,-42.7968 262.0274,-31.4237"/>
<polygon fill="#191970" stroke="#191970" points="262.737,-27.9959 252.211,-29.2018 261.1916,-34.8232 262.737,-27.9959"/>
</g>
<!-- Node11&#45;&gt;Node10 -->
<g id="edge15" class="edge">
<title>Node11&#45;&gt;Node10</title>
<path fill="none" stroke="#191970" d="M427.1643,-68.5457C424.3003,-67.9988 421.4606,-67.48 418.6778,-67 287.6464,-44.4001 251.0419,-61.7398 121.6778,-31 118.4352,-30.2295 115.0992,-29.2946 111.7876,-28.27"/>
<polygon fill="#191970" stroke="#191970" points="112.6384,-24.8638 102.0445,-25.0018 110.4122,-31.5004 112.6384,-24.8638"/>
</g>
<!-- Node12 -->
<g id="node13" class="node">
<title>Node12</title>
<polygon fill="#ffffff" stroke="#bfbfbf" points="469.1778,-6 469.1778,-25 506.1778,-25 506.1778,-6 469.1778,-6"/>
<text text-anchor="middle" x="487.6778" y="-13" font-family="Helvetica,sans-Serif" font-size="10.00" fill="#000000">new</text>
</g>
<!-- Node11&#45;&gt;Node12 -->
<g id="edge14" class="edge">
<title>Node11&#45;&gt;Node12</title>
<path fill="none" stroke="#191970" d="M487.6778,-67.2967C487.6778,-57.7699 487.6778,-45.3954 487.6778,-35.1306"/>
<polygon fill="#191970" stroke="#191970" points="491.1779,-35.0549 487.6778,-25.055 484.1779,-35.055 491.1779,-35.0549"/>
</g>
<!-- Node13 -->
<g id="node14" class="node">
<title>Node13</title>
<polygon fill="#ffffff" stroke="#bfbfbf" points="640.1778,-6 640.1778,-25 685.1778,-25 685.1778,-6 640.1778,-6"/>
<text text-anchor="middle" x="662.6778" y="-13" font-family="Helvetica,sans-Serif" font-size="10.00" fill="#000000">utility</text>
</g>
<!-- Node11&#45;&gt;Node13 -->
<g id="edge16" class="edge">
<title>Node11&#45;&gt;Node13</title>
<path fill="none" stroke="#191970" d="M526.9512,-67.4639C558.1413,-55.5226 601.2206,-39.0293 630.4171,-27.8513"/>
<polygon fill="#191970" stroke="#191970" points="632.0355,-30.9795 640.123,-24.1353 629.5326,-24.4422 632.0355,-30.9795"/>
</g>
<!-- Node15 -->
<g id="node16" class="node">
<title>Node15</title>
<g id="a_node16"><a xlink:href="type__safe__index_8h.html" target="_top" xlink:title="drake/common/type_safe\l_index.h">
<polygon fill="#ffffff" stroke="#000000" points="385.1778,-201.5 385.1778,-231.5 526.1778,-231.5 526.1778,-201.5 385.1778,-201.5"/>
<text text-anchor="start" x="393.1778" y="-219.5" font-family="Helvetica,sans-Serif" font-size="10.00" fill="#000000">drake/common/type_safe</text>
<text text-anchor="middle" x="455.6778" y="-208.5" font-family="Helvetica,sans-Serif" font-size="10.00" fill="#000000">_index.h</text>
</a>
</g>
</g>
<!-- Node14&#45;&gt;Node15 -->
<g id="edge19" class="edge">
<title>Node14&#45;&gt;Node15</title>
<path fill="none" stroke="#191970" d="M455.6778,-268.2967C455.6778,-260.5013 455.6778,-250.7991 455.6778,-241.9064"/>
<polygon fill="#191970" stroke="#191970" points="459.1779,-241.6431 455.6778,-231.6432 452.1779,-241.6432 459.1779,-241.6431"/>
</g>
<!-- Node15&#45;&gt;Node1 -->
<g id="edge22" class="edge">
<title>Node15&#45;&gt;Node1</title>
<path fill="none" stroke="#191970" d="M470.6761,-201.389C495.672,-176.2051 545.6816,-125.8195 571.8452,-99.4592"/>
<polygon fill="#191970" stroke="#191970" points="574.5849,-101.6673 579.1453,-92.1042 569.6166,-96.7361 574.5849,-101.6673"/>
</g>
<!-- Node15&#45;&gt;Node8 -->
<g id="edge20" class="edge">
<title>Node15&#45;&gt;Node8</title>
<path fill="none" stroke="#191970" d="M455.7621,-201.4156C455.211,-183.9959 452.2488,-155.0417 439.6778,-134 430.7887,-119.1211 415.95,-106.6752 402.906,-97.7475"/>
<polygon fill="#191970" stroke="#191970" points="404.5527,-94.644 394.2575,-92.1423 400.7456,-100.5181 404.5527,-94.644"/>
</g>
<!-- Node15&#45;&gt;Node9 -->
<g id="edge23" class="edge">
<title>Node15&#45;&gt;Node9</title>
<path fill="none" stroke="#191970" d="M384.9371,-209.603C334.0125,-202.8002 264.556,-189.6842 207.6778,-165 198.1172,-160.8509 150.8586,-126.7229 119.4055,-103.6813"/>
<polygon fill="#191970" stroke="#191970" points="121.1303,-100.6057 110.9977,-97.5105 116.9885,-106.2489 121.1303,-100.6057"/>
</g>
<!-- Node16 -->
<g id="node17" class="node">
<title>Node16</title>
<polygon fill="#ffffff" stroke="#bfbfbf" points="386.6778,-140 386.6778,-159 430.6778,-159 430.6778,-140 386.6778,-140"/>
<text text-anchor="middle" x="408.6778" y="-147" font-family="Helvetica,sans-Serif" font-size="10.00" fill="#000000">limits</text>
</g>
<!-- Node15&#45;&gt;Node16 -->
<g id="edge21" class="edge">
<title>Node15&#45;&gt;Node16</title>
<path fill="none" stroke="#191970" d="M445.0128,-201.2967C437.9743,-191.2631 428.7201,-178.0709 421.3126,-167.5113"/>
<polygon fill="#191970" stroke="#191970" points="423.9887,-165.2316 415.3806,-159.055 418.2581,-169.2516 423.9887,-165.2316"/>
</g>
<!-- Node17 -->
<g id="node18" class="node">
<title>Node17</title>
<g id="a_node18"><a xlink:href="drake__throw_8h.html" target="_top" xlink:title="Provides a convenient wrapper to throw an exception when a condition is unmet. ">
<polygon fill="#ffffff" stroke="#000000" points="30.1778,-134.5 30.1778,-164.5 151.1778,-164.5 151.1778,-134.5 30.1778,-134.5"/>
<text text-anchor="start" x="38.1778" y="-152.5" font-family="Helvetica,sans-Serif" font-size="10.00" fill="#000000">drake/common/drake</text>
<text text-anchor="middle" x="90.6778" y="-141.5" font-family="Helvetica,sans-Serif" font-size="10.00" fill="#000000">_throw.h</text>
</a>
</g>
</g>
<!-- Node15&#45;&gt;Node17 -->
<g id="edge24" class="edge">
<title>Node15&#45;&gt;Node17</title>
<path fill="none" stroke="#191970" d="M385.1379,-204.2192C327.0008,-194.0071 242.4189,-178.9417 168.6778,-165 166.3313,-164.5564 163.9458,-164.1019 161.5373,-163.6401"/>
<polygon fill="#191970" stroke="#191970" points="162.0295,-160.1706 151.5471,-161.7094 160.7012,-167.0434 162.0295,-160.1706"/>
</g>
<!-- Node18 -->
<g id="node19" class="node">
<title>Node18</title>
<g id="a_node19"><a xlink:href="nice__type__name_8h.html" target="_top" xlink:title="drake/common/nice_type\l_name.h">
<polygon fill="#ffffff" stroke="#000000" points="587.6778,-134.5 587.6778,-164.5 727.6778,-164.5 727.6778,-134.5 587.6778,-134.5"/>
<text text-anchor="start" x="595.6778" y="-152.5" font-family="Helvetica,sans-Serif" font-size="10.00" fill="#000000">drake/common/nice_type</text>
<text text-anchor="middle" x="657.6778" y="-141.5" font-family="Helvetica,sans-Serif" font-size="10.00" fill="#000000">_name.h</text>
</a>
</g>
</g>
<!-- Node15&#45;&gt;Node18 -->
<g id="edge27" class="edge">
<title>Node15&#45;&gt;Node18</title>
<path fill="none" stroke="#191970" d="M501.0106,-201.4639C531.0541,-191.499 570.6543,-178.3642 602.5241,-167.7936"/>
<polygon fill="#191970" stroke="#191970" points="603.7577,-171.072 612.1473,-164.6017 601.5539,-164.4279 603.7577,-171.072"/>
</g>
<!-- Node17&#45;&gt;Node9 -->
<g id="edge26" class="edge">
<title>Node17&#45;&gt;Node9</title>
<path fill="none" stroke="#191970" d="M90.6778,-134.2967C90.6778,-126.5013 90.6778,-116.7991 90.6778,-107.9064"/>
<polygon fill="#191970" stroke="#191970" points="94.1779,-107.6431 90.6778,-97.6432 87.1779,-107.6432 94.1779,-107.6431"/>
</g>
<!-- Node17&#45;&gt;Node10 -->
<g id="edge25" class="edge">
<title>Node17&#45;&gt;Node10</title>
<path fill="none" stroke="#191970" d="M58.2235,-134.3708C43.9508,-125.8631 28.6448,-113.7522 20.6778,-98 14.4595,-85.7053 15.0303,-79.5671 20.6778,-67 27.3847,-52.0754 40.7913,-39.7164 53.0268,-30.8497"/>
<polygon fill="#191970" stroke="#191970" points="55.305,-33.5336 61.6165,-25.0239 51.3759,-27.7404 55.305,-33.5336"/>
</g>
<!-- Node18&#45;&gt;Node1 -->
<g id="edge29" class="edge">
<title>Node18&#45;&gt;Node1</title>
<path fill="none" stroke="#191970" d="M642.0206,-134.2967C631.2701,-123.8578 616.9984,-109.9997 605.9223,-99.2446"/>
<polygon fill="#191970" stroke="#191970" points="608.1305,-96.5103 598.518,-92.055 603.2541,-101.5323 608.1305,-96.5103"/>
</g>
<!-- Node18&#45;&gt;Node11 -->
<g id="edge33" class="edge">
<title>Node18&#45;&gt;Node11</title>
<path fill="none" stroke="#191970" d="M619.5265,-134.4639C594.6783,-124.6708 562.0622,-111.8162 535.4874,-101.3426"/>
<polygon fill="#191970" stroke="#191970" points="536.5824,-98.0122 525.9955,-97.6017 534.0157,-104.5247 536.5824,-98.0122"/>
</g>
<!-- Node18&#45;&gt;Node13 -->
<g id="edge31" class="edge">
<title>Node18&#45;&gt;Node13</title>
<path fill="none" stroke="#191970" d="M713.8268,-134.4979C731.9709,-126.7009 750.1145,-115.0918 760.6778,-98 767.9212,-86.2799 767.8025,-78.7926 760.6778,-67 746.479,-43.4984 717.6088,-30.1889 694.8635,-23.0149"/>
<polygon fill="#191970" stroke="#191970" points="695.8149,-19.6467 685.2356,-20.22 693.8633,-26.3691 695.8149,-19.6467"/>
</g>
<!-- Node19 -->
<g id="node20" class="node">
<title>Node19</title>
<polygon fill="#ffffff" stroke="#bfbfbf" points="807.6778,-73 807.6778,-92 865.6778,-92 865.6778,-73 807.6778,-73"/>
<text text-anchor="middle" x="836.6778" y="-80" font-family="Helvetica,sans-Serif" font-size="10.00" fill="#000000">memory</text>
</g>
<!-- Node18&#45;&gt;Node19 -->
<g id="edge28" class="edge">
<title>Node18&#45;&gt;Node19</title>
<path fill="none" stroke="#191970" d="M697.8489,-134.4639C729.0577,-122.7824 771.9041,-106.7449 801.7104,-95.5884"/>
<polygon fill="#191970" stroke="#191970" points="803.1446,-98.7888 811.2831,-92.0053 800.6907,-92.2329 803.1446,-98.7888"/>
</g>
<!-- Node20 -->
<g id="node21" class="node">
<title>Node20</title>
<polygon fill="#ffffff" stroke="#bfbfbf" points="629.1778,-73 629.1778,-92 686.1778,-92 686.1778,-73 629.1778,-73"/>
<text text-anchor="middle" x="657.6778" y="-80" font-family="Helvetica,sans-Serif" font-size="10.00" fill="#000000">typeinfo</text>
</g>
<!-- Node18&#45;&gt;Node20 -->
<g id="edge30" class="edge">
<title>Node18&#45;&gt;Node20</title>
<path fill="none" stroke="#191970" d="M657.6778,-134.2967C657.6778,-124.7699 657.6778,-112.3954 657.6778,-102.1306"/>
<polygon fill="#191970" stroke="#191970" points="661.1779,-102.0549 657.6778,-92.055 654.1779,-102.055 661.1779,-102.0549"/>
</g>
<!-- Node21 -->
<g id="node22" class="node">
<title>Node21</title>
<polygon fill="#ffffff" stroke="#bfbfbf" points="704.1778,-73 704.1778,-92 751.1778,-92 751.1778,-73 704.1778,-73"/>
<text text-anchor="middle" x="727.6778" y="-80" font-family="Helvetica,sans-Serif" font-size="10.00" fill="#000000">vector</text>
</g>
<!-- Node18&#45;&gt;Node21 -->
<g id="edge32" class="edge">
<title>Node18&#45;&gt;Node21</title>
<path fill="none" stroke="#191970" d="M673.5619,-134.2967C684.4682,-123.8578 698.9468,-109.9997 710.1834,-99.2446"/>
<polygon fill="#191970" stroke="#191970" points="712.8909,-101.498 717.695,-92.055 708.0507,-96.4411 712.8909,-101.498"/>
</g>
</g>
</svg>
