<?xml version="1.0" encoding="UTF-8" standalone="no"?>
<!DOCTYPE svg PUBLIC "-//W3C//DTD SVG 1.1//EN"
 "http://www.w3.org/Graphics/SVG/1.1/DTD/svg11.dtd">
<!-- Generated by graphviz version 2.40.1 (20161225.0304)
 -->
<!-- Title: drake/common/test_utilities/is_dynamic_castable.h Pages: 1 -->
<svg width="424pt" height="240pt"
 viewBox="0.00 0.00 424.43 240.00" xmlns="http://www.w3.org/2000/svg" xmlns:xlink="http://www.w3.org/1999/xlink">
<g id="graph0" class="graph" transform="scale(1 1) rotate(0) translate(4 236)">
<title>drake/common/test_utilities/is_dynamic_castable.h</title>
<polygon fill="#ffffff" stroke="transparent" points="-4,4 -4,-236 420.4316,-236 420.4316,4 -4,4"/>
<!-- Node0 -->
<g id="node1" class="node">
<title>Node0</title>
<polygon fill="#bfbfbf" stroke="#000000" points="71,-201.5 71,-231.5 225,-231.5 225,-201.5 71,-201.5"/>
<text text-anchor="start" x="79" y="-219.5" font-family="Helvetica,sans-Serif" font-size="10.00" fill="#000000">drake/common/test_utilities</text>
<text text-anchor="middle" x="148" y="-208.5" font-family="Helvetica,sans-Serif" font-size="10.00" fill="#000000">/is_dynamic_castable.h</text>
</g>
<!-- Node1 -->
<g id="node2" class="node">
<title>Node1</title>
<polygon fill="#ffffff" stroke="#bfbfbf" points="0,-73 0,-92 58,-92 58,-73 0,-73"/>
<text text-anchor="middle" x="29" y="-80" font-family="Helvetica,sans-Serif" font-size="10.00" fill="#000000">memory</text>
</g>
<!-- Node0&#45;&gt;Node1 -->
<g id="edge1" class="edge">
<title>Node0&#45;&gt;Node1</title>
<path fill="none" stroke="#191970" d="M134.5805,-201.389C112.3121,-176.3136 67.8556,-126.2534 44.3646,-99.8014"/>
<polygon fill="#191970" stroke="#191970" points="46.7863,-97.2573 37.5291,-92.1042 41.5523,-101.9054 46.7863,-97.2573"/>
</g>
<!-- Node2 -->
<g id="node3" class="node">
<title>Node2</title>
<polygon fill="#ffffff" stroke="#bfbfbf" points="76,-73 76,-92 120,-92 120,-73 76,-73"/>
<text text-anchor="middle" x="98" y="-80" font-family="Helvetica,sans-Serif" font-size="10.00" fill="#000000">string</text>
</g>
<!-- Node0&#45;&gt;Node2 -->
<g id="edge2" class="edge">
<title>Node0&#45;&gt;Node2</title>
<path fill="none" stroke="#191970" d="M138.0028,-201.2555C131.8194,-191.2756 124.1135,-177.7636 119,-165 110.7037,-144.292 104.8902,-119.3236 101.5158,-102.3173"/>
<polygon fill="#191970" stroke="#191970" points="104.9413,-101.5946 99.649,-92.4163 98.0625,-102.8917 104.9413,-101.5946"/>
</g>
<!-- Node3 -->
<g id="node4" class="node">
<title>Node3</title>
<polygon fill="#ffffff" stroke="#bfbfbf" points="286,-140 286,-159 364,-159 364,-140 286,-140"/>
<text text-anchor="middle" x="325" y="-147" font-family="Helvetica,sans-Serif" font-size="10.00" fill="#000000">gtest/gtest.h</text>
</g>
<!-- Node0&#45;&gt;Node3 -->
<g id="edge3" class="edge">
<title>Node0&#45;&gt;Node3</title>
<path fill="none" stroke="#191970" d="M187.7223,-201.4639C218.5824,-189.7824 260.95,-173.7449 290.4233,-162.5884"/>
<polygon fill="#191970" stroke="#191970" points="291.7757,-165.8189 299.889,-159.0053 289.2975,-159.2722 291.7757,-165.8189"/>
</g>
<!-- Node4 -->
<g id="node5" class="node">
<title>Node4</title>
<g id="a_node5"><a xlink:href="nice__type__name_8h.html" target="_top" xlink:title="drake/common/nice_type\l_name.h">
<polygon fill="#ffffff" stroke="#000000" points="128,-134.5 128,-164.5 268,-164.5 268,-134.5 128,-134.5"/>
<text text-anchor="start" x="136" y="-152.5" font-family="Helvetica,sans-Serif" font-size="10.00" fill="#000000">drake/common/nice_type</text>
<text text-anchor="middle" x="198" y="-141.5" font-family="Helvetica,sans-Serif" font-size="10.00" fill="#000000">_name.h</text>
</a>
</g>
</g>
<!-- Node0&#45;&gt;Node4 -->
<g id="edge4" class="edge">
<title>Node0&#45;&gt;Node4</title>
<path fill="none" stroke="#191970" d="M159.3458,-201.2967C165.6107,-192.9016 173.5259,-182.2952 180.5598,-172.8698"/>
<polygon fill="#191970" stroke="#191970" points="183.5233,-174.7508 186.6991,-164.6432 177.9132,-170.5642 183.5233,-174.7508"/>
</g>
<!-- Node4&#45;&gt;Node1 -->
<g id="edge5" class="edge">
<title>Node4&#45;&gt;Node1</title>
<path fill="none" stroke="#191970" d="M159.2572,-134.4181C133.1537,-124.2199 97.966,-110.4017 67,-98 65.363,-97.3444 63.6873,-96.6707 61.9958,-95.9885"/>
<polygon fill="#191970" stroke="#191970" points="62.8751,-92.5684 52.2927,-92.0556 60.2456,-99.0557 62.8751,-92.5684"/>
</g>
<!-- Node4&#45;&gt;Node2 -->
<g id="edge6" class="edge">
<title>Node4&#45;&gt;Node2</title>
<path fill="none" stroke="#191970" d="M175.3085,-134.2967C158.9717,-123.351 137.0241,-108.6462 120.6881,-97.701"/>
<polygon fill="#191970" stroke="#191970" points="122.517,-94.7135 112.2612,-92.055 118.6207,-100.5289 122.517,-94.7135"/>
</g>
<!-- Node5 -->
<g id="node6" class="node">
<title>Node5</title>
<polygon fill="#ffffff" stroke="#bfbfbf" points="342.5,-73 342.5,-92 399.5,-92 399.5,-73 342.5,-73"/>
<text text-anchor="middle" x="371" y="-80" font-family="Helvetica,sans-Serif" font-size="10.00" fill="#000000">typeinfo</text>
</g>
<!-- Node4&#45;&gt;Node5 -->
<g id="edge7" class="edge">
<title>Node4&#45;&gt;Node5</title>
<path fill="none" stroke="#191970" d="M238.908,-134.4312C265.9829,-124.3542 302.2221,-110.6685 334,-98 335.6012,-97.3617 337.2386,-96.7019 338.8902,-96.0308"/>
<polygon fill="#191970" stroke="#191970" points="340.4393,-99.1781 348.3529,-92.1336 337.7735,-92.7056 340.4393,-99.1781"/>
</g>
<!-- Node6 -->
<g id="node7" class="node">
<title>Node6</title>
<polygon fill="#ffffff" stroke="#bfbfbf" points="368.5,-6 368.5,-25 413.5,-25 413.5,-6 368.5,-6"/>
<text text-anchor="middle" x="391" y="-13" font-family="Helvetica,sans-Serif" font-size="10.00" fill="#000000">utility</text>
</g>
<!-- Node4&#45;&gt;Node6 -->
<g id="edge8" class="edge">
<title>Node4&#45;&gt;Node6</title>
<path fill="none" stroke="#191970" d="M268.2191,-134.5228C327.842,-121.4704 404.4806,-103.7552 409,-98 423.4384,-79.6136 412.9041,-52.121 402.9067,-34.0017"/>
<polygon fill="#191970" stroke="#191970" points="405.686,-31.8273 397.5698,-25.0171 399.6677,-35.4022 405.686,-31.8273"/>
</g>
<!-- Node7 -->
<g id="node8" class="node">
<title>Node7</title>
<polygon fill="#ffffff" stroke="#bfbfbf" points="277.5,-73 277.5,-92 324.5,-92 324.5,-73 277.5,-73"/>
<text text-anchor="middle" x="301" y="-80" font-family="Helvetica,sans-Serif" font-size="10.00" fill="#000000">vector</text>
</g>
<!-- Node4&#45;&gt;Node7 -->
<g id="edge9" class="edge">
<title>Node4&#45;&gt;Node7</title>
<path fill="none" stroke="#191970" d="M221.1152,-134.4639C237.9302,-123.526 260.6163,-108.769 277.5162,-97.7759"/>
<polygon fill="#191970" stroke="#191970" points="279.7616,-100.4906 286.2358,-92.1039 275.9447,-94.6228 279.7616,-100.4906"/>
</g>
<!-- Node8 -->
<g id="node9" class="node">
<title>Node8</title>
<g id="a_node9"><a xlink:href="never__destroyed_8h.html" target="_top" xlink:title="drake/common/never\l_destroyed.h">
<polygon fill="#ffffff" stroke="#000000" points="138.5,-67.5 138.5,-97.5 259.5,-97.5 259.5,-67.5 138.5,-67.5"/>
<text text-anchor="start" x="146.5" y="-85.5" font-family="Helvetica,sans-Serif" font-size="10.00" fill="#000000">drake/common/never</text>
<text text-anchor="middle" x="199" y="-74.5" font-family="Helvetica,sans-Serif" font-size="10.00" fill="#000000">_destroyed.h</text>
</a>
</g>
</g>
<!-- Node4&#45;&gt;Node8 -->
<g id="edge10" class="edge">
<title>Node4&#45;&gt;Node8</title>
<path fill="none" stroke="#191970" d="M198.2269,-134.2967C198.3433,-126.5013 198.4881,-116.7991 198.6208,-107.9064"/>
<polygon fill="#191970" stroke="#191970" points="202.1243,-107.6943 198.774,-97.6432 195.125,-107.5898 202.1243,-107.6943"/>
</g>
<!-- Node8&#45;&gt;Node6 -->
<g id="edge13" class="edge">
<title>Node8&#45;&gt;Node6</title>
<path fill="none" stroke="#191970" d="M242.0885,-67.4639C277.4055,-55.1398 326.6163,-37.9672 358.6381,-26.793"/>
<polygon fill="#191970" stroke="#191970" points="360.1029,-29.9889 368.3914,-23.3895 357.7965,-23.3797 360.1029,-29.9889"/>
</g>
<!-- Node9 -->
<g id="node10" class="node">
<title>Node9</title>
<polygon fill="#ffffff" stroke="#bfbfbf" points="277.5,-6 277.5,-25 314.5,-25 314.5,-6 277.5,-6"/>
<text text-anchor="middle" x="296" y="-13" font-family="Helvetica,sans-Serif" font-size="10.00" fill="#000000">new</text>
</g>
<!-- Node8&#45;&gt;Node9 -->
<g id="edge11" class="edge">
<title>Node8&#45;&gt;Node9</title>
<path fill="none" stroke="#191970" d="M221.0108,-67.2967C236.7108,-56.4524 257.7528,-41.9182 273.551,-31.006"/>
<polygon fill="#191970" stroke="#191970" points="275.9278,-33.6181 282.1667,-25.055 271.9495,-27.8585 275.9278,-33.6181"/>
</g>
<!-- Node10 -->
<g id="node11" class="node">
<title>Node10</title>
<polygon fill="#ffffff" stroke="#bfbfbf" points="51.5,-6 51.5,-25 120.5,-25 120.5,-6 51.5,-6"/>
<text text-anchor="middle" x="86" y="-13" font-family="Helvetica,sans-Serif" font-size="10.00" fill="#000000">type_traits</text>
</g>
<!-- Node8&#45;&gt;Node10 -->
<g id="edge12" class="edge">
<title>Node8&#45;&gt;Node10</title>
<path fill="none" stroke="#191970" d="M173.6406,-67.4639C154.9369,-56.3741 129.6119,-41.3584 110.995,-30.32"/>
<polygon fill="#191970" stroke="#191970" points="112.5844,-27.1935 102.1977,-25.1039 109.0143,-33.2147 112.5844,-27.1935"/>
</g>
<!-- Node11 -->
<g id="node12" class="node">
<title>Node11</title>
<g id="a_node12"><a xlink:href="drake__copyable_8h.html" target="_top" xlink:title="Provides careful macros to selectively enable or disable the special member functions for copy&#45;constr...">
<polygon fill="#ffffff" stroke="#000000" points="138.5,-.5 138.5,-30.5 259.5,-30.5 259.5,-.5 138.5,-.5"/>
<text text-anchor="start" x="146.5" y="-18.5" font-family="Helvetica,sans-Serif" font-size="10.00" fill="#000000">drake/common/drake</text>
<text text-anchor="middle" x="199" y="-7.5" font-family="Helvetica,sans-Serif" font-size="10.00" fill="#000000">_copyable.h</text>
</a>
</g>
</g>
<!-- Node8&#45;&gt;Node11 -->
<g id="edge14" class="edge">
<title>Node8&#45;&gt;Node11</title>
<path fill="none" stroke="#191970" d="M199,-67.2967C199,-59.5013 199,-49.7991 199,-40.9064"/>
<polygon fill="#191970" stroke="#191970" points="202.5001,-40.6431 199,-30.6432 195.5001,-40.6432 202.5001,-40.6431"/>
</g>
</g>
</svg>
