<?xml version="1.0" encoding="UTF-8" standalone="no"?>
<!DOCTYPE svg PUBLIC "-//W3C//DTD SVG 1.1//EN"
 "http://www.w3.org/Graphics/SVG/1.1/DTD/svg11.dtd">
<!-- Generated by graphviz version 2.40.1 (20161225.0304)
 -->
<!-- Title: drake/examples/kinova_jaco_arm/jaco_common.h Pages: 1 -->
<svg width="194pt" height="106pt"
 viewBox="0.00 0.00 193.50 106.00" xmlns="http://www.w3.org/2000/svg" xmlns:xlink="http://www.w3.org/1999/xlink">
<g id="graph0" class="graph" transform="scale(1 1) rotate(0) translate(4 102)">
<title>drake/examples/kinova_jaco_arm/jaco_common.h</title>
<polygon fill="#ffffff" stroke="transparent" points="-4,4 -4,-102 189.5,-102 189.5,4 -4,4"/>
<!-- Node0 -->
<g id="node1" class="node">
<title>Node0</title>
<polygon fill="#bfbfbf" stroke="#000000" points="0,-67.5 0,-97.5 147,-97.5 147,-67.5 0,-67.5"/>
<text text-anchor="start" x="8" y="-85.5" font-family="Helvetica,sans-Serif" font-size="10.00" fill="#000000">drake/examples/kinova</text>
<text text-anchor="middle" x="73.5" y="-74.5" font-family="Helvetica,sans-Serif" font-size="10.00" fill="#000000">_jaco_arm/jaco_common.h</text>
</g>
<!-- Node1 -->
<g id="node2" class="node">
<title>Node1</title>
<polygon fill="#ffffff" stroke="#bfbfbf" points="1.5,-6 1.5,-25 45.5,-25 45.5,-6 1.5,-6"/>
<text text-anchor="middle" x="23.5" y="-13" font-family="Helvetica,sans-Serif" font-size="10.00" fill="#000000">string</text>
</g>
<!-- Node0&#45;&gt;Node1 -->
<g id="edge1" class="edge">
<title>Node0&#45;&gt;Node1</title>
<path fill="none" stroke="#191970" d="M62.1542,-67.2967C54.5909,-57.1618 44.6224,-43.804 36.7031,-33.1921"/>
<polygon fill="#191970" stroke="#191970" points="39.4165,-30.976 30.6306,-25.055 33.8064,-35.1626 39.4165,-30.976"/>
</g>
<!-- Node2 -->
<g id="node3" class="node">
<title>Node2</title>
<polygon fill="#ffffff" stroke="#bfbfbf" points="63.5,-.5 63.5,-30.5 185.5,-30.5 185.5,-.5 63.5,-.5"/>
<text text-anchor="start" x="71.5" y="-18.5" font-family="Helvetica,sans-Serif" font-size="10.00" fill="#000000">drake/multibody/rigid</text>
<text text-anchor="middle" x="124.5" y="-7.5" font-family="Helvetica,sans-Serif" font-size="10.00" fill="#000000">_body_tree.h</text>
</g>
<!-- Node0&#45;&gt;Node2 -->
<g id="edge2" class="edge">
<title>Node0&#45;&gt;Node2</title>
<path fill="none" stroke="#191970" d="M85.0727,-67.2967C91.4629,-58.9016 99.5365,-48.2952 106.711,-38.8698"/>
<polygon fill="#191970" stroke="#191970" points="109.7012,-40.7201 112.9731,-30.6432 104.1312,-36.4803 109.7012,-40.7201"/>
</g>
</g>
</svg>
