<?xml version="1.0" encoding="UTF-8" standalone="no"?>
<!DOCTYPE svg PUBLIC "-//W3C//DTD SVG 1.1//EN"
 "http://www.w3.org/Graphics/SVG/1.1/DTD/svg11.dtd">
<!-- Generated by graphviz version 2.40.1 (20161225.0304)
 -->
<!-- Title: drake/systems/controllers/linear_quadratic_regulator.h Pages: 1 -->
<svg width="1632pt" height="184pt"
 viewBox="0.00 0.00 1631.50 184.00" xmlns="http://www.w3.org/2000/svg" xmlns:xlink="http://www.w3.org/1999/xlink">
<g id="graph0" class="graph" transform="scale(1 1) rotate(0) translate(4 180)">
<title>drake/systems/controllers/linear_quadratic_regulator.h</title>
<polygon fill="#ffffff" stroke="transparent" points="-4,4 -4,-180 1627.5,-180 1627.5,4 -4,4"/>
<!-- Node114 -->
<g id="node1" class="node">
<title>Node114</title>
<polygon fill="#bfbfbf" stroke="#000000" points="714.5,-145.5 714.5,-175.5 871.5,-175.5 871.5,-145.5 714.5,-145.5"/>
<text text-anchor="start" x="722.5" y="-163.5" font-family="Helvetica,sans-Serif" font-size="10.00" fill="#000000">drake/systems/controllers</text>
<text text-anchor="middle" x="793" y="-152.5" font-family="Helvetica,sans-Serif" font-size="10.00" fill="#000000">/linear_quadratic_regulator.h</text>
</g>
<!-- Node115 -->
<g id="node2" class="node">
<title>Node115</title>
<g id="a_node2"><a xlink:href="controllers__py_8cc.html" target="_top" xlink:title="drake/bindings/pydrake\l/systems/controllers_py.cc">
<polygon fill="#ffffff" stroke="#000000" points="0,-73 0,-103 146,-103 146,-73 0,-73"/>
<text text-anchor="start" x="8" y="-91" font-family="Helvetica,sans-Serif" font-size="10.00" fill="#000000">drake/bindings/pydrake</text>
<text text-anchor="middle" x="73" y="-80" font-family="Helvetica,sans-Serif" font-size="10.00" fill="#000000">/systems/controllers_py.cc</text>
</a>
</g>
</g>
<!-- Node114&#45;&gt;Node115 -->
<g id="edge1" class="edge">
<title>Node114&#45;&gt;Node115</title>
<path fill="none" stroke="#191970" d="M704.2106,-158.0984C580.4195,-153.6704 349.2903,-141.4774 155,-109 145.7236,-107.4494 135.9603,-105.3615 126.5335,-103.102"/>
<polygon fill="#191970" stroke="#191970" points="704.2771,-161.6028 714.3931,-158.4537 704.5212,-154.607 704.2771,-161.6028"/>
</g>
<!-- Node116 -->
<g id="node3" class="node">
<title>Node116</title>
<g id="a_node3"><a xlink:href="acrobot__plant_8cc.html" target="_top" xlink:title="drake/examples/acrobot\l/acrobot_plant.cc">
<polygon fill="#ffffff" stroke="#000000" points="164.5,-73 164.5,-103 299.5,-103 299.5,-73 164.5,-73"/>
<text text-anchor="start" x="172.5" y="-91" font-family="Helvetica,sans-Serif" font-size="10.00" fill="#000000">drake/examples/acrobot</text>
<text text-anchor="middle" x="232" y="-80" font-family="Helvetica,sans-Serif" font-size="10.00" fill="#000000">/acrobot_plant.cc</text>
</a>
</g>
</g>
<!-- Node114&#45;&gt;Node116 -->
<g id="edge2" class="edge">
<title>Node114&#45;&gt;Node116</title>
<path fill="none" stroke="#191970" d="M704.3666,-155.3453C606.8353,-148.6825 445.7482,-134.7509 309,-109 300.4213,-107.3846 291.4017,-105.2924 282.6776,-103.056"/>
<polygon fill="#191970" stroke="#191970" points="704.2662,-158.8464 714.4786,-156.0256 704.7361,-151.8621 704.2662,-158.8464"/>
</g>
<!-- Node117 -->
<g id="node4" class="node">
<title>Node117</title>
<g id="a_node4"><a xlink:href="spong__controller_8h.html" target="_top" xlink:title="drake/examples/acrobot\l/spong_controller.h">
<polygon fill="#ffffff" stroke="#000000" points="317.5,-73 317.5,-103 452.5,-103 452.5,-73 317.5,-73"/>
<text text-anchor="start" x="325.5" y="-91" font-family="Helvetica,sans-Serif" font-size="10.00" fill="#000000">drake/examples/acrobot</text>
<text text-anchor="middle" x="385" y="-80" font-family="Helvetica,sans-Serif" font-size="10.00" fill="#000000">/spong_controller.h</text>
</a>
</g>
</g>
<!-- Node114&#45;&gt;Node117 -->
<g id="edge3" class="edge">
<title>Node114&#45;&gt;Node117</title>
<path fill="none" stroke="#191970" d="M704.211,-149.432C637.2801,-140.4255 543.4179,-126.3793 462,-109 453.8694,-107.2645 445.3203,-105.1889 436.9954,-103.028"/>
<polygon fill="#191970" stroke="#191970" points="703.9251,-152.9248 714.3003,-150.779 704.8515,-145.9864 703.9251,-152.9248"/>
</g>
<!-- Node120 -->
<g id="node7" class="node">
<title>Node120</title>
<g id="a_node7"><a xlink:href="multibody_2acrobot_2run__lqr_8cc.html" target="_top" xlink:title="drake/examples/multibody\l/acrobot/run_lqr.cc">
<polygon fill="#ffffff" stroke="#000000" points="471,-73 471,-103 619,-103 619,-73 471,-73"/>
<text text-anchor="start" x="479" y="-91" font-family="Helvetica,sans-Serif" font-size="10.00" fill="#000000">drake/examples/multibody</text>
<text text-anchor="middle" x="545" y="-80" font-family="Helvetica,sans-Serif" font-size="10.00" fill="#000000">/acrobot/run_lqr.cc</text>
</a>
</g>
</g>
<!-- Node114&#45;&gt;Node120 -->
<g id="edge6" class="edge">
<title>Node114&#45;&gt;Node120</title>
<path fill="none" stroke="#191970" d="M731.8605,-142.6266C690.2145,-130.4518 635.7071,-114.5172 596.3199,-103.0028"/>
<polygon fill="#191970" stroke="#191970" points="731.0339,-146.0313 741.6142,-145.478 732.9981,-139.3125 731.0339,-146.0313"/>
</g>
<!-- Node121 -->
<g id="node8" class="node">
<title>Node121</title>
<g id="a_node8"><a xlink:href="lqr__simulation_8cc.html" target="_top" xlink:title="drake/examples/pendulum\l/lqr_simulation.cc">
<polygon fill="#ffffff" stroke="#000000" points="637.5,-73 637.5,-103 784.5,-103 784.5,-73 637.5,-73"/>
<text text-anchor="start" x="645.5" y="-91" font-family="Helvetica,sans-Serif" font-size="10.00" fill="#000000">drake/examples/pendulum</text>
<text text-anchor="middle" x="711" y="-80" font-family="Helvetica,sans-Serif" font-size="10.00" fill="#000000">/lqr_simulation.cc</text>
</a>
</g>
</g>
<!-- Node114&#45;&gt;Node121 -->
<g id="edge7" class="edge">
<title>Node114&#45;&gt;Node121</title>
<path fill="none" stroke="#191970" d="M768.2958,-138.6579C755.2679,-127.1393 739.6181,-113.3026 727.9687,-103.0028"/>
<polygon fill="#191970" stroke="#191970" points="766.1995,-141.4763 776.0095,-145.478 770.8361,-136.232 766.1995,-141.4763"/>
</g>
<!-- Node122 -->
<g id="node9" class="node">
<title>Node122</title>
<g id="a_node9"><a xlink:href="quadrotor__plant_8cc.html" target="_top" xlink:title="drake/examples/quadrotor\l/quadrotor_plant.cc">
<polygon fill="#ffffff" stroke="#000000" points="803,-73 803,-103 949,-103 949,-73 803,-73"/>
<text text-anchor="start" x="811" y="-91" font-family="Helvetica,sans-Serif" font-size="10.00" fill="#000000">drake/examples/quadrotor</text>
<text text-anchor="middle" x="876" y="-80" font-family="Helvetica,sans-Serif" font-size="10.00" fill="#000000">/quadrotor_plant.cc</text>
</a>
</g>
</g>
<!-- Node114&#45;&gt;Node122 -->
<g id="edge8" class="edge">
<title>Node114&#45;&gt;Node122</title>
<path fill="none" stroke="#191970" d="M818.0055,-138.6579C831.1923,-127.1393 847.0329,-113.3026 858.8244,-103.0028"/>
<polygon fill="#191970" stroke="#191970" points="815.4265,-136.2633 810.1977,-145.478 820.0316,-141.5353 815.4265,-136.2633"/>
</g>
<!-- Node123 -->
<g id="node10" class="node">
<title>Node123</title>
<g id="a_node10"><a xlink:href="linear__quadratic__regulator_8cc.html" target="_top" xlink:title="drake/systems/controllers\l/linear_quadratic_regulator.cc">
<polygon fill="#ffffff" stroke="#000000" points="967.5,-73 967.5,-103 1128.5,-103 1128.5,-73 967.5,-73"/>
<text text-anchor="start" x="975.5" y="-91" font-family="Helvetica,sans-Serif" font-size="10.00" fill="#000000">drake/systems/controllers</text>
<text text-anchor="middle" x="1048" y="-80" font-family="Helvetica,sans-Serif" font-size="10.00" fill="#000000">/linear_quadratic_regulator.cc</text>
</a>
</g>
</g>
<!-- Node114&#45;&gt;Node123 -->
<g id="edge9" class="edge">
<title>Node114&#45;&gt;Node123</title>
<path fill="none" stroke="#191970" d="M855.5943,-142.7036C898.4501,-130.5191 954.6472,-114.5415 995.2315,-103.0028"/>
<polygon fill="#191970" stroke="#191970" points="854.4978,-139.3765 845.8362,-145.478 856.4121,-146.1097 854.4978,-139.3765"/>
</g>
<!-- Node124 -->
<g id="node11" class="node">
<title>Node124</title>
<g id="a_node11"><a xlink:href="dynamic__programming__test_8cc.html" target="_top" xlink:title="drake/systems/controllers\l/test/dynamic_programming\l_test.cc">
<polygon fill="#ffffff" stroke="#000000" points="1146.5,-67.5 1146.5,-108.5 1301.5,-108.5 1301.5,-67.5 1146.5,-67.5"/>
<text text-anchor="start" x="1154.5" y="-96.5" font-family="Helvetica,sans-Serif" font-size="10.00" fill="#000000">drake/systems/controllers</text>
<text text-anchor="start" x="1154.5" y="-85.5" font-family="Helvetica,sans-Serif" font-size="10.00" fill="#000000">/test/dynamic_programming</text>
<text text-anchor="middle" x="1224" y="-74.5" font-family="Helvetica,sans-Serif" font-size="10.00" fill="#000000">_test.cc</text>
</a>
</g>
</g>
<!-- Node114&#45;&gt;Node124 -->
<g id="edge10" class="edge">
<title>Node114&#45;&gt;Node124</title>
<path fill="none" stroke="#191970" d="M881.8868,-149.502C951.7882,-140.3066 1051.4828,-125.9838 1138,-109 1140.7147,-108.4671 1143.4727,-107.9053 1146.2547,-107.3214"/>
<polygon fill="#191970" stroke="#191970" points="881.2568,-146.0544 871.7948,-150.8212 882.1641,-152.9954 881.2568,-146.0544"/>
</g>
<!-- Node125 -->
<g id="node12" class="node">
<title>Node125</title>
<g id="a_node12"><a xlink:href="linear__quadratic__regulator__test_8cc.html" target="_top" xlink:title="drake/systems/controllers\l/test/linear_quadratic\l_regulator_test.cc">
<polygon fill="#ffffff" stroke="#000000" points="1319.5,-67.5 1319.5,-108.5 1462.5,-108.5 1462.5,-67.5 1319.5,-67.5"/>
<text text-anchor="start" x="1327.5" y="-96.5" font-family="Helvetica,sans-Serif" font-size="10.00" fill="#000000">drake/systems/controllers</text>
<text text-anchor="start" x="1327.5" y="-85.5" font-family="Helvetica,sans-Serif" font-size="10.00" fill="#000000">/test/linear_quadratic</text>
<text text-anchor="middle" x="1391" y="-74.5" font-family="Helvetica,sans-Serif" font-size="10.00" fill="#000000">_regulator_test.cc</text>
</a>
</g>
</g>
<!-- Node114&#45;&gt;Node125 -->
<g id="edge11" class="edge">
<title>Node114&#45;&gt;Node125</title>
<path fill="none" stroke="#191970" d="M881.7423,-155.9417C985.3733,-149.6361 1161.6493,-135.8536 1311,-109 1313.6852,-108.5172 1316.4125,-107.9904 1319.1609,-107.4287"/>
<polygon fill="#191970" stroke="#191970" points="881.4079,-152.4554 871.635,-156.547 881.8264,-159.4428 881.4079,-152.4554"/>
</g>
<!-- Node126 -->
<g id="node13" class="node">
<title>Node126</title>
<g id="a_node13"><a xlink:href="zmp__planner_8cc.html" target="_top" xlink:title="drake/systems/controllers\l/zmp_planner.cc">
<polygon fill="#ffffff" stroke="#000000" points="1480.5,-73 1480.5,-103 1623.5,-103 1623.5,-73 1480.5,-73"/>
<text text-anchor="start" x="1488.5" y="-91" font-family="Helvetica,sans-Serif" font-size="10.00" fill="#000000">drake/systems/controllers</text>
<text text-anchor="middle" x="1552" y="-80" font-family="Helvetica,sans-Serif" font-size="10.00" fill="#000000">/zmp_planner.cc</text>
</a>
</g>
</g>
<!-- Node114&#45;&gt;Node126 -->
<g id="edge12" class="edge">
<title>Node114&#45;&gt;Node126</title>
<path fill="none" stroke="#191970" d="M882.0374,-158.8723C1012.3819,-155.3338 1262.4188,-144.1578 1472,-109 1481.205,-107.4558 1490.8931,-105.342 1500.2255,-103.0473"/>
<polygon fill="#191970" stroke="#191970" points="881.6189,-155.382 871.7142,-159.1433 881.8027,-162.3796 881.6189,-155.382"/>
</g>
<!-- Node118 -->
<g id="node5" class="node">
<title>Node118</title>
<g id="a_node5"><a xlink:href="run__swing__up_8cc.html" target="_top" xlink:title="drake/examples/acrobot\l/run_swing_up.cc">
<polygon fill="#ffffff" stroke="#000000" points="236.5,-.5 236.5,-30.5 371.5,-30.5 371.5,-.5 236.5,-.5"/>
<text text-anchor="start" x="244.5" y="-18.5" font-family="Helvetica,sans-Serif" font-size="10.00" fill="#000000">drake/examples/acrobot</text>
<text text-anchor="middle" x="304" y="-7.5" font-family="Helvetica,sans-Serif" font-size="10.00" fill="#000000">/run_swing_up.cc</text>
</a>
</g>
</g>
<!-- Node117&#45;&gt;Node118 -->
<g id="edge4" class="edge">
<title>Node117&#45;&gt;Node118</title>
<path fill="none" stroke="#191970" d="M360.5971,-66.1579C347.728,-54.6393 332.2691,-40.8026 320.7618,-30.5028"/>
<polygon fill="#191970" stroke="#191970" points="358.4312,-68.9166 368.2167,-72.978 363.0998,-63.7007 358.4312,-68.9166"/>
</g>
<!-- Node119 -->
<g id="node6" class="node">
<title>Node119</title>
<g id="a_node6"><a xlink:href="spong__controller__w__lcm_8cc.html" target="_top" xlink:title="drake/examples/acrobot\l/spong_controller_w_lcm.cc">
<polygon fill="#ffffff" stroke="#000000" points="389.5,-.5 389.5,-30.5 540.5,-30.5 540.5,-.5 389.5,-.5"/>
<text text-anchor="start" x="397.5" y="-18.5" font-family="Helvetica,sans-Serif" font-size="10.00" fill="#000000">drake/examples/acrobot</text>
<text text-anchor="middle" x="465" y="-7.5" font-family="Helvetica,sans-Serif" font-size="10.00" fill="#000000">/spong_controller_w_lcm.cc</text>
</a>
</g>
</g>
<!-- Node117&#45;&gt;Node119 -->
<g id="edge5" class="edge">
<title>Node117&#45;&gt;Node119</title>
<path fill="none" stroke="#191970" d="M409.1016,-66.1579C421.8118,-54.6393 437.0799,-40.8026 448.4452,-30.5028"/>
<polygon fill="#191970" stroke="#191970" points="406.6356,-63.6693 401.5761,-72.978 411.3363,-68.8562 406.6356,-63.6693"/>
</g>
</g>
</svg>
