<?xml version="1.0" encoding="UTF-8" standalone="no"?>
<!DOCTYPE svg PUBLIC "-//W3C//DTD SVG 1.1//EN"
 "http://www.w3.org/Graphics/SVG/1.1/DTD/svg11.dtd">
<!-- Generated by graphviz version 2.40.1 (20161225.0304)
 -->
<!-- Title: drake/multibody/tree/linear_spring_damper.h Pages: 1 -->
<svg width="475pt" height="117pt"
 viewBox="0.00 0.00 474.50 117.00" xmlns="http://www.w3.org/2000/svg" xmlns:xlink="http://www.w3.org/1999/xlink">
<g id="graph0" class="graph" transform="scale(1 1) rotate(0) translate(4 113)">
<title>drake/multibody/tree/linear_spring_damper.h</title>
<polygon fill="#ffffff" stroke="transparent" points="-4,4 -4,-113 470.5,-113 470.5,4 -4,4"/>
<!-- Node129 -->
<g id="node1" class="node">
<title>Node129</title>
<polygon fill="#bfbfbf" stroke="#000000" points="165,-78.5 165,-108.5 299,-108.5 299,-78.5 165,-78.5"/>
<text text-anchor="start" x="173" y="-96.5" font-family="Helvetica,sans-Serif" font-size="10.00" fill="#000000">drake/multibody/tree</text>
<text text-anchor="middle" x="232" y="-85.5" font-family="Helvetica,sans-Serif" font-size="10.00" fill="#000000">/linear_spring_damper.h</text>
</g>
<!-- Node130 -->
<g id="node2" class="node">
<title>Node130</title>
<g id="a_node2"><a xlink:href="multibody_2plant_2test_2spring__mass__system__test_8cc.html" target="_top" xlink:title="drake/multibody/plant\l/test/spring_mass_system\l_test.cc">
<polygon fill="#ffffff" stroke="#000000" points="0,-.5 0,-41.5 144,-41.5 144,-.5 0,-.5"/>
<text text-anchor="start" x="8" y="-29.5" font-family="Helvetica,sans-Serif" font-size="10.00" fill="#000000">drake/multibody/plant</text>
<text text-anchor="start" x="8" y="-18.5" font-family="Helvetica,sans-Serif" font-size="10.00" fill="#000000">/test/spring_mass_system</text>
<text text-anchor="middle" x="72" y="-7.5" font-family="Helvetica,sans-Serif" font-size="10.00" fill="#000000">_test.cc</text>
</a>
</g>
</g>
<!-- Node129&#45;&gt;Node130 -->
<g id="edge1" class="edge">
<title>Node129&#45;&gt;Node130</title>
<path fill="none" stroke="#191970" d="M189.6261,-74.2993C167.3208,-64.1923 139.9621,-51.7953 117.2447,-41.5015"/>
<polygon fill="#191970" stroke="#191970" points="188.2948,-77.5386 198.8479,-78.478 191.1839,-71.1626 188.2948,-77.5386"/>
</g>
<!-- Node131 -->
<g id="node3" class="node">
<title>Node131</title>
<g id="a_node3"><a xlink:href="linear__spring__damper_8cc.html" target="_top" xlink:title="drake/multibody/tree\l/linear_spring_damper.cc">
<polygon fill="#ffffff" stroke="#000000" points="162.5,-6 162.5,-36 301.5,-36 301.5,-6 162.5,-6"/>
<text text-anchor="start" x="170.5" y="-24" font-family="Helvetica,sans-Serif" font-size="10.00" fill="#000000">drake/multibody/tree</text>
<text text-anchor="middle" x="232" y="-13" font-family="Helvetica,sans-Serif" font-size="10.00" fill="#000000">/linear_spring_damper.cc</text>
</a>
</g>
</g>
<!-- Node129&#45;&gt;Node131 -->
<g id="edge2" class="edge">
<title>Node129&#45;&gt;Node131</title>
<path fill="none" stroke="#191970" d="M232,-68.3409C232,-57.5601 232,-45.3309 232,-36.0028"/>
<polygon fill="#191970" stroke="#191970" points="228.5001,-68.4779 232,-78.478 235.5001,-68.478 228.5001,-68.4779"/>
</g>
<!-- Node132 -->
<g id="node4" class="node">
<title>Node132</title>
<g id="a_node4"><a xlink:href="linear__spring__damper__test_8cc.html" target="_top" xlink:title="drake/multibody/tree\l/test/linear_spring_damper\l_test.cc">
<polygon fill="#ffffff" stroke="#000000" points="319.5,-.5 319.5,-41.5 466.5,-41.5 466.5,-.5 319.5,-.5"/>
<text text-anchor="start" x="327.5" y="-29.5" font-family="Helvetica,sans-Serif" font-size="10.00" fill="#000000">drake/multibody/tree</text>
<text text-anchor="start" x="327.5" y="-18.5" font-family="Helvetica,sans-Serif" font-size="10.00" fill="#000000">/test/linear_spring_damper</text>
<text text-anchor="middle" x="393" y="-7.5" font-family="Helvetica,sans-Serif" font-size="10.00" fill="#000000">_test.cc</text>
</a>
</g>
</g>
<!-- Node129&#45;&gt;Node132 -->
<g id="edge3" class="edge">
<title>Node129&#45;&gt;Node132</title>
<path fill="none" stroke="#191970" d="M274.6387,-74.2993C297.0834,-64.1923 324.6132,-51.7953 347.4725,-41.5015"/>
<polygon fill="#191970" stroke="#191970" points="273.0403,-71.1805 265.3593,-78.478 275.9146,-77.5633 273.0403,-71.1805"/>
</g>
</g>
</svg>
