<?xml version="1.0" encoding="UTF-8" standalone="no"?>
<!DOCTYPE svg PUBLIC "-//W3C//DTD SVG 1.1//EN"
 "http://www.w3.org/Graphics/SVG/1.1/DTD/svg11.dtd">
<!-- Generated by graphviz version 2.40.1 (20161225.0304)
 -->
<!-- Title: drake/systems/controllers/linear_model_predictive_controller.h Pages: 1 -->
<svg width="328pt" height="128pt"
 viewBox="0.00 0.00 328.00 128.00" xmlns="http://www.w3.org/2000/svg" xmlns:xlink="http://www.w3.org/1999/xlink">
<g id="graph0" class="graph" transform="scale(1 1) rotate(0) translate(4 124)">
<title>drake/systems/controllers/linear_model_predictive_controller.h</title>
<polygon fill="#ffffff" stroke="transparent" points="-4,4 -4,-124 324,-124 324,4 -4,4"/>
<!-- Node115 -->
<g id="node1" class="node">
<title>Node115</title>
<polygon fill="#bfbfbf" stroke="#000000" points="84,-78.5 84,-119.5 227,-119.5 227,-78.5 84,-78.5"/>
<text text-anchor="start" x="92" y="-107.5" font-family="Helvetica,sans-Serif" font-size="10.00" fill="#000000">drake/systems/controllers</text>
<text text-anchor="start" x="92" y="-96.5" font-family="Helvetica,sans-Serif" font-size="10.00" fill="#000000">/linear_model_predictive</text>
<text text-anchor="middle" x="155.5" y="-85.5" font-family="Helvetica,sans-Serif" font-size="10.00" fill="#000000">_controller.h</text>
</g>
<!-- Node116 -->
<g id="node2" class="node">
<title>Node116</title>
<g id="a_node2"><a xlink:href="linear__model__predictive__controller_8cc.html" target="_top" xlink:title="drake/systems/controllers\l/linear_model_predictive\l_controller.cc">
<polygon fill="#ffffff" stroke="#000000" points="0,-.5 0,-41.5 143,-41.5 143,-.5 0,-.5"/>
<text text-anchor="start" x="8" y="-29.5" font-family="Helvetica,sans-Serif" font-size="10.00" fill="#000000">drake/systems/controllers</text>
<text text-anchor="start" x="8" y="-18.5" font-family="Helvetica,sans-Serif" font-size="10.00" fill="#000000">/linear_model_predictive</text>
<text text-anchor="middle" x="71.5" y="-7.5" font-family="Helvetica,sans-Serif" font-size="10.00" fill="#000000">_controller.cc</text>
</a>
</g>
</g>
<!-- Node115&#45;&gt;Node116 -->
<g id="edge1" class="edge">
<title>Node115&#45;&gt;Node116</title>
<path fill="none" stroke="#191970" d="M125.5928,-71.229C115.1103,-61.4953 103.5292,-50.7414 93.7813,-41.6898"/>
<polygon fill="#191970" stroke="#191970" points="123.28,-73.8577 132.9895,-78.0974 128.0432,-68.7281 123.28,-73.8577"/>
</g>
<!-- Node117 -->
<g id="node3" class="node">
<title>Node117</title>
<g id="a_node3"><a xlink:href="linear__model__predictive__controller__test_8cc.html" target="_top" xlink:title="drake/systems/controllers\l/test/linear_model_predictive\l_controller_test.cc">
<polygon fill="#ffffff" stroke="#000000" points="161,-.5 161,-41.5 320,-41.5 320,-.5 161,-.5"/>
<text text-anchor="start" x="169" y="-29.5" font-family="Helvetica,sans-Serif" font-size="10.00" fill="#000000">drake/systems/controllers</text>
<text text-anchor="start" x="169" y="-18.5" font-family="Helvetica,sans-Serif" font-size="10.00" fill="#000000">/test/linear_model_predictive</text>
<text text-anchor="middle" x="240.5" y="-7.5" font-family="Helvetica,sans-Serif" font-size="10.00" fill="#000000">_controller_test.cc</text>
</a>
</g>
</g>
<!-- Node115&#45;&gt;Node117 -->
<g id="edge2" class="edge">
<title>Node115&#45;&gt;Node117</title>
<path fill="none" stroke="#191970" d="M185.7633,-71.229C196.3705,-61.4953 208.0895,-50.7414 217.9534,-41.6898"/>
<polygon fill="#191970" stroke="#191970" points="183.28,-68.7574 178.2784,-78.0974 188.0128,-73.915 183.28,-68.7574"/>
</g>
</g>
</svg>
