<?xml version="1.0" encoding="UTF-8" standalone="no"?>
<!DOCTYPE svg PUBLIC "-//W3C//DTD SVG 1.1//EN"
 "http://www.w3.org/Graphics/SVG/1.1/DTD/svg11.dtd">
<!-- Generated by graphviz version 2.40.1 (20161225.0304)
 -->
<!-- Title: drake/multibody/benchmarks/acrobot/make_acrobot_plant.h Pages: 1 -->
<svg width="1241pt" height="117pt"
 viewBox="0.00 0.00 1240.50 117.00" xmlns="http://www.w3.org/2000/svg" xmlns:xlink="http://www.w3.org/1999/xlink">
<g id="graph0" class="graph" transform="scale(1 1) rotate(0) translate(4 113)">
<title>drake/multibody/benchmarks/acrobot/make_acrobot_plant.h</title>
<polygon fill="#ffffff" stroke="transparent" points="-4,4 -4,-113 1236.5,-113 1236.5,4 -4,4"/>
<!-- Node190 -->
<g id="node1" class="node">
<title>Node190</title>
<polygon fill="#bfbfbf" stroke="#000000" points="535.5,-78.5 535.5,-108.5 703.5,-108.5 703.5,-78.5 535.5,-78.5"/>
<text text-anchor="start" x="543.5" y="-96.5" font-family="Helvetica,sans-Serif" font-size="10.00" fill="#000000">drake/multibody/benchmarks</text>
<text text-anchor="middle" x="619.5" y="-85.5" font-family="Helvetica,sans-Serif" font-size="10.00" fill="#000000">/acrobot/make_acrobot_plant.h</text>
</g>
<!-- Node191 -->
<g id="node2" class="node">
<title>Node191</title>
<g id="a_node2"><a xlink:href="benchmarks__py_8cc.html" target="_top" xlink:title="drake/bindings/pydrake\l/multibody/benchmarks_py.cc">
<polygon fill="#ffffff" stroke="#000000" points="0,-6 0,-36 163,-36 163,-6 0,-6"/>
<text text-anchor="start" x="8" y="-24" font-family="Helvetica,sans-Serif" font-size="10.00" fill="#000000">drake/bindings/pydrake</text>
<text text-anchor="middle" x="81.5" y="-13" font-family="Helvetica,sans-Serif" font-size="10.00" fill="#000000">/multibody/benchmarks_py.cc</text>
</a>
</g>
</g>
<!-- Node190&#45;&gt;Node191 -->
<g id="edge1" class="edge">
<title>Node190&#45;&gt;Node191</title>
<path fill="none" stroke="#191970" d="M525.2668,-85.8358C434.2975,-77.6915 292.8759,-63.0653 171.5,-42 161.8569,-40.3264 151.6993,-38.258 141.8199,-36.0781"/>
<polygon fill="#191970" stroke="#191970" points="525.0107,-89.3268 535.281,-86.7244 525.6295,-82.3542 525.0107,-89.3268"/>
</g>
<!-- Node192 -->
<g id="node3" class="node">
<title>Node192</title>
<g id="a_node3"><a xlink:href="multibody_2acrobot_2passive__simulation_8cc.html" target="_top" xlink:title="drake/examples/multibody\l/acrobot/passive_simulation.cc">
<polygon fill="#ffffff" stroke="#000000" points="181,-6 181,-36 348,-36 348,-6 181,-6"/>
<text text-anchor="start" x="189" y="-24" font-family="Helvetica,sans-Serif" font-size="10.00" fill="#000000">drake/examples/multibody</text>
<text text-anchor="middle" x="264.5" y="-13" font-family="Helvetica,sans-Serif" font-size="10.00" fill="#000000">/acrobot/passive_simulation.cc</text>
</a>
</g>
</g>
<!-- Node190&#45;&gt;Node192 -->
<g id="edge2" class="edge">
<title>Node190&#45;&gt;Node192</title>
<path fill="none" stroke="#191970" d="M530.037,-76.5576C479.3466,-66.7969 414.798,-54.0981 357.5,-42 348.5926,-40.1193 339.2199,-38.0774 329.993,-36.0303"/>
<polygon fill="#191970" stroke="#191970" points="529.5032,-80.019 539.9841,-78.4696 530.8245,-73.1449 529.5032,-80.019"/>
</g>
<!-- Node193 -->
<g id="node4" class="node">
<title>Node193</title>
<g id="a_node4"><a xlink:href="multibody_2acrobot_2run__lqr_8cc.html" target="_top" xlink:title="drake/examples/multibody\l/acrobot/run_lqr.cc">
<polygon fill="#ffffff" stroke="#000000" points="366.5,-6 366.5,-36 514.5,-36 514.5,-6 366.5,-6"/>
<text text-anchor="start" x="374.5" y="-24" font-family="Helvetica,sans-Serif" font-size="10.00" fill="#000000">drake/examples/multibody</text>
<text text-anchor="middle" x="440.5" y="-13" font-family="Helvetica,sans-Serif" font-size="10.00" fill="#000000">/acrobot/run_lqr.cc</text>
</a>
</g>
</g>
<!-- Node190&#45;&gt;Node193 -->
<g id="edge3" class="edge">
<title>Node190&#45;&gt;Node193</title>
<path fill="none" stroke="#191970" d="M573.0706,-74.6948C543.3271,-62.6478 505.2503,-47.2257 477.5414,-36.0028"/>
<polygon fill="#191970" stroke="#191970" points="571.8285,-77.9679 582.4111,-78.478 574.4564,-71.4798 571.8285,-77.9679"/>
</g>
<!-- Node194 -->
<g id="node5" class="node">
<title>Node194</title>
<g id="a_node5"><a xlink:href="make__acrobot__plant_8cc.html" target="_top" xlink:title="drake/multibody/benchmarks\l/acrobot/make_acrobot_plant.cc">
<polygon fill="#ffffff" stroke="#000000" points="533,-6 533,-36 706,-36 706,-6 533,-6"/>
<text text-anchor="start" x="541" y="-24" font-family="Helvetica,sans-Serif" font-size="10.00" fill="#000000">drake/multibody/benchmarks</text>
<text text-anchor="middle" x="619.5" y="-13" font-family="Helvetica,sans-Serif" font-size="10.00" fill="#000000">/acrobot/make_acrobot_plant.cc</text>
</a>
</g>
</g>
<!-- Node190&#45;&gt;Node194 -->
<g id="edge4" class="edge">
<title>Node190&#45;&gt;Node194</title>
<path fill="none" stroke="#191970" d="M619.5,-68.3409C619.5,-57.5601 619.5,-45.3309 619.5,-36.0028"/>
<polygon fill="#191970" stroke="#191970" points="616.0001,-68.4779 619.5,-78.478 623.0001,-68.478 616.0001,-68.4779"/>
</g>
<!-- Node195 -->
<g id="node6" class="node">
<title>Node195</title>
<g id="a_node6"><a xlink:href="contact__results__to__lcm__test_8cc.html" target="_top" xlink:title="drake/multibody/multibody\l_tree/multibody_plant/test\l/contact_results_to_lcm_test.cc">
<polygon fill="#ffffff" stroke="#000000" points="724.5,-.5 724.5,-41.5 894.5,-41.5 894.5,-.5 724.5,-.5"/>
<text text-anchor="start" x="732.5" y="-29.5" font-family="Helvetica,sans-Serif" font-size="10.00" fill="#000000">drake/multibody/multibody</text>
<text text-anchor="start" x="732.5" y="-18.5" font-family="Helvetica,sans-Serif" font-size="10.00" fill="#000000">_tree/multibody_plant/test</text>
<text text-anchor="middle" x="809.5" y="-7.5" font-family="Helvetica,sans-Serif" font-size="10.00" fill="#000000">/contact_results_to_lcm_test.cc</text>
</a>
</g>
</g>
<!-- Node190&#45;&gt;Node195 -->
<g id="edge5" class="edge">
<title>Node190&#45;&gt;Node195</title>
<path fill="none" stroke="#191970" d="M668.4058,-74.8386C695.1445,-64.6357 728.3133,-51.9791 755.7719,-41.5015"/>
<polygon fill="#191970" stroke="#191970" points="666.9633,-71.6428 658.8681,-78.478 669.4589,-78.1829 666.9633,-71.6428"/>
</g>
<!-- Node196 -->
<g id="node7" class="node">
<title>Node196</title>
<g id="a_node7"><a xlink:href="multibody__plant__test_8cc.html" target="_top" xlink:title="drake/multibody/multibody\l_tree/multibody_plant/test\l/multibody_plant_test.cc">
<polygon fill="#ffffff" stroke="#000000" points="913,-.5 913,-41.5 1062,-41.5 1062,-.5 913,-.5"/>
<text text-anchor="start" x="921" y="-29.5" font-family="Helvetica,sans-Serif" font-size="10.00" fill="#000000">drake/multibody/multibody</text>
<text text-anchor="start" x="921" y="-18.5" font-family="Helvetica,sans-Serif" font-size="10.00" fill="#000000">_tree/multibody_plant/test</text>
<text text-anchor="middle" x="987.5" y="-7.5" font-family="Helvetica,sans-Serif" font-size="10.00" fill="#000000">/multibody_plant_test.cc</text>
</a>
</g>
</g>
<!-- Node190&#45;&gt;Node196 -->
<g id="edge6" class="edge">
<title>Node190&#45;&gt;Node196</title>
<path fill="none" stroke="#191970" d="M713.8234,-77.9923C769.2411,-68.4836 840.5522,-55.5606 903.5,-42 906.586,-41.3352 909.7309,-40.6382 912.9043,-39.9186"/>
<polygon fill="#191970" stroke="#191970" points="712.9341,-74.5935 703.6663,-79.7275 714.1129,-81.4935 712.9341,-74.5935"/>
</g>
<!-- Node197 -->
<g id="node8" class="node">
<title>Node197</title>
<g id="a_node8"><a xlink:href="acrobot__parser__test_8cc.html" target="_top" xlink:title="This file contains tests for an acrobot in a multibody plant. ">
<polygon fill="#ffffff" stroke="#000000" points="1080.5,-6 1080.5,-36 1232.5,-36 1232.5,-6 1080.5,-6"/>
<text text-anchor="start" x="1088.5" y="-24" font-family="Helvetica,sans-Serif" font-size="10.00" fill="#000000">drake/multibody/parsing</text>
<text text-anchor="middle" x="1156.5" y="-13" font-family="Helvetica,sans-Serif" font-size="10.00" fill="#000000">/test/acrobot_parser_test.cc</text>
</a>
</g>
</g>
<!-- Node190&#45;&gt;Node197 -->
<g id="edge7" class="edge">
<title>Node190&#45;&gt;Node197</title>
<path fill="none" stroke="#191970" d="M713.7962,-86.3168C805.5922,-78.4874 948.8092,-64.0509 1071.5,-42 1080.7758,-40.3329 1090.5443,-38.2415 1100.0227,-36.0292"/>
<polygon fill="#191970" stroke="#191970" points="713.3634,-82.8408 703.6932,-87.1695 713.9521,-89.816 713.3634,-82.8408"/>
</g>
</g>
</svg>
