<?xml version="1.0" encoding="UTF-8" standalone="no"?>
<!DOCTYPE svg PUBLIC "-//W3C//DTD SVG 1.1//EN"
 "http://www.w3.org/Graphics/SVG/1.1/DTD/svg11.dtd">
<!-- Generated by graphviz version 2.40.1 (20161225.0304)
 -->
<!-- Title: drake/multibody/benchmarks/kuka_iiwa_robot/make_kuka_iiwa_model.h Pages: 1 -->
<!--zoomable 217 -->
<svg id="main" version="1.1" xmlns="http://www.w3.org/2000/svg" xmlns:xlink="http://www.w3.org/1999/xlink" xml:space="preserve" onload="init(evt)">
<style type="text/css"><![CDATA[
.edge:hover path { stroke: red; }
.edge:hover polygon { stroke: red; fill: red; }
]]></style>
<script type="text/javascript"><![CDATA[
var edges = document.getElementsByTagName('g');
if (edges && edges.length) {
  for (var i=0;i<edges.length;i++) {
    if (edges[i].id.substr(0,4)=='edge') {
      edges[i].setAttribute('class','edge');
    }
  }
}
]]></script>
        <defs>
                <circle id="rim" cx="0" cy="0" r="7"/>
                <circle id="rim2" cx="0" cy="0" r="3.5"/>
                <g id="zoomPlus">
                        <use xlink:href="#rim" fill="#404040">
                                <set attributeName="fill" to="#808080" begin="zoomplus.mouseover" end="zoomplus.mouseout"/>
                        </use>
                        <path d="M-4,0h8M0,-4v8" fill="none" stroke="white" stroke-width="1.5" pointer-events="none"/>
                </g>
                <g id="zoomMin">
                        <use xlink:href="#rim" fill="#404040">
                                <set attributeName="fill" to="#808080" begin="zoomminus.mouseover" end="zoomminus.mouseout"/>
                        </use>
                        <path d="M-4,0h8" fill="none" stroke="white" stroke-width="1.5" pointer-events="none"/>
                </g>
                <g id="dirArrow">
                        <path fill="none" stroke="white" stroke-width="1.5" d="M0,-3.0v7 M-2.5,-0.5L0,-3.0L2.5,-0.5"/>
                </g>
               <g id="resetDef">
                       <use xlink:href="#rim2" fill="#404040">
                               <set attributeName="fill" to="#808080" begin="reset.mouseover" end="reset.mouseout"/>
                       </use>
               </g>
        </defs>

<script type="text/javascript">
var viewWidth = 1575;
var viewHeight = 217;
var sectionId = 'dynsection-1';
</script>
<script xlink:href="svgpan.js"/>
<svg id="graph" class="graph">
<g id="viewport">
<title>drake/multibody/benchmarks/kuka_iiwa_robot/make_kuka_iiwa_model.h</title>
<polygon fill="#ffffff" stroke="transparent" points="-4,4 -4,-213 1571,-213 1571,4 -4,4"/>
<!-- Node162 -->
<g id="node1" class="node">
<title>Node162</title>
<polygon fill="#bfbfbf" stroke="#000000" points="828,-167.5 828,-208.5 988,-208.5 988,-167.5 828,-167.5"/>
<text text-anchor="start" x="836" y="-196.5" font-family="Helvetica,sans-Serif" font-size="10.00" fill="#000000">drake/multibody/benchmarks</text>
<text text-anchor="start" x="836" y="-185.5" font-family="Helvetica,sans-Serif" font-size="10.00" fill="#000000">/kuka_iiwa_robot/make_kuka</text>
<text text-anchor="middle" x="908" y="-174.5" font-family="Helvetica,sans-Serif" font-size="10.00" fill="#000000">_iiwa_model.h</text>
</g>
<!-- Node163 -->
<g id="node2" class="node">
<title>Node163</title>
<g id="a_node2"><a xlink:href="drake__kuka__iiwa__robot_8h.html" target="_top" xlink:title="drake/multibody/benchmarks\l/kuka_iiwa_robot/drake_kuka\l_iiwa_robot.h">
<polygon fill="#ffffff" stroke="#000000" points="303,-89.5 303,-130.5 463,-130.5 463,-89.5 303,-89.5"/>
<text text-anchor="start" x="311" y="-118.5" font-family="Helvetica,sans-Serif" font-size="10.00" fill="#000000">drake/multibody/benchmarks</text>
<text text-anchor="start" x="311" y="-107.5" font-family="Helvetica,sans-Serif" font-size="10.00" fill="#000000">/kuka_iiwa_robot/drake_kuka</text>
<text text-anchor="middle" x="383" y="-96.5" font-family="Helvetica,sans-Serif" font-size="10.00" fill="#000000">_iiwa_robot.h</text>
</a>
</g>
</g>
<!-- Node162&#45;&gt;Node163 -->
<g id="edge1" class="edge">
<title>Node162&#45;&gt;Node163</title>
<path fill="none" stroke="#191970" d="M817.9219,-174.617C718.2241,-159.8047 559.0229,-136.152 463.3926,-121.9441"/>
<polygon fill="#191970" stroke="#191970" points="817.5724,-178.1034 827.9782,-176.1111 818.6012,-171.1794 817.5724,-178.1034"/>
</g>
<!-- Node167 -->
<g id="node6" class="node">
<title>Node167</title>
<g id="a_node6"><a xlink:href="make__kuka__iiwa__model_8cc.html" target="_top" xlink:title="drake/multibody/benchmarks\l/kuka_iiwa_robot/make_kuka\l_iiwa_model.cc">
<polygon fill="#ffffff" stroke="#000000" points="741,-89.5 741,-130.5 901,-130.5 901,-89.5 741,-89.5"/>
<text text-anchor="start" x="749" y="-118.5" font-family="Helvetica,sans-Serif" font-size="10.00" fill="#000000">drake/multibody/benchmarks</text>
<text text-anchor="start" x="749" y="-107.5" font-family="Helvetica,sans-Serif" font-size="10.00" fill="#000000">/kuka_iiwa_robot/make_kuka</text>
<text text-anchor="middle" x="821" y="-96.5" font-family="Helvetica,sans-Serif" font-size="10.00" fill="#000000">_iiwa_model.cc</text>
</a>
</g>
</g>
<!-- Node162&#45;&gt;Node167 -->
<g id="edge5" class="edge">
<title>Node162&#45;&gt;Node167</title>
<path fill="none" stroke="#191970" d="M877.0247,-160.229C866.1678,-150.4953 854.1731,-139.7414 844.0771,-130.6898"/>
<polygon fill="#191970" stroke="#191970" points="874.9035,-163.028 884.6856,-167.0974 879.5763,-157.8159 874.9035,-163.028"/>
</g>
<!-- Node168 -->
<g id="node7" class="node">
<title>Node168</title>
<g id="a_node7"><a xlink:href="inverse__kinematics__test__utilities_8h.html" target="_top" xlink:title="drake/multibody/inverse\l_kinematics/test/inverse\l_kinematics_test_utilities.h">
<polygon fill="#ffffff" stroke="#000000" points="919.5,-89.5 919.5,-130.5 1070.5,-130.5 1070.5,-89.5 919.5,-89.5"/>
<text text-anchor="start" x="927.5" y="-118.5" font-family="Helvetica,sans-Serif" font-size="10.00" fill="#000000">drake/multibody/inverse</text>
<text text-anchor="start" x="927.5" y="-107.5" font-family="Helvetica,sans-Serif" font-size="10.00" fill="#000000">_kinematics/test/inverse</text>
<text text-anchor="middle" x="995" y="-96.5" font-family="Helvetica,sans-Serif" font-size="10.00" fill="#000000">_kinematics_test_utilities.h</text>
</a>
</g>
</g>
<!-- Node162&#45;&gt;Node168 -->
<g id="edge6" class="edge">
<title>Node162&#45;&gt;Node168</title>
<path fill="none" stroke="#191970" d="M938.9753,-160.229C949.8322,-150.4953 961.8269,-139.7414 971.9229,-130.6898"/>
<polygon fill="#191970" stroke="#191970" points="936.4237,-157.8159 931.3144,-167.0974 941.0965,-163.028 936.4237,-157.8159"/>
</g>
<!-- Node175 -->
<g id="node14" class="node">
<title>Node175</title>
<g id="a_node14"><a xlink:href="multibody__tree__test_8cc.html" target="_top" xlink:title="drake/multibody/tree\l/test/multibody_tree\l_test.cc">
<polygon fill="#ffffff" stroke="#000000" points="1088.5,-89.5 1088.5,-130.5 1207.5,-130.5 1207.5,-89.5 1088.5,-89.5"/>
<text text-anchor="start" x="1096.5" y="-118.5" font-family="Helvetica,sans-Serif" font-size="10.00" fill="#000000">drake/multibody/tree</text>
<text text-anchor="start" x="1096.5" y="-107.5" font-family="Helvetica,sans-Serif" font-size="10.00" fill="#000000">/test/multibody_tree</text>
<text text-anchor="middle" x="1148" y="-96.5" font-family="Helvetica,sans-Serif" font-size="10.00" fill="#000000">_test.cc</text>
</a>
</g>
</g>
<!-- Node162&#45;&gt;Node175 -->
<g id="edge13" class="edge">
<title>Node162&#45;&gt;Node175</title>
<path fill="none" stroke="#191970" d="M980.9024,-164.3067C1015.3143,-153.1228 1055.8681,-139.9429 1088.4062,-129.368"/>
<polygon fill="#191970" stroke="#191970" points="979.7996,-160.9848 971.3711,-167.4044 981.9633,-167.6421 979.7996,-160.9848"/>
</g>
<!-- Node164 -->
<g id="node3" class="node">
<title>Node164</title>
<g id="a_node3"><a xlink:href="drake__kuka__iiwa__robot_8cc.html" target="_top" xlink:title="drake/multibody/benchmarks\l/kuka_iiwa_robot/drake_kuka\l_iiwa_robot.cc">
<polygon fill="#ffffff" stroke="#000000" points="0,-6 0,-47 160,-47 160,-6 0,-6"/>
<text text-anchor="start" x="8" y="-35" font-family="Helvetica,sans-Serif" font-size="10.00" fill="#000000">drake/multibody/benchmarks</text>
<text text-anchor="start" x="8" y="-24" font-family="Helvetica,sans-Serif" font-size="10.00" fill="#000000">/kuka_iiwa_robot/drake_kuka</text>
<text text-anchor="middle" x="80" y="-13" font-family="Helvetica,sans-Serif" font-size="10.00" fill="#000000">_iiwa_robot.cc</text>
</a>
</g>
</g>
<!-- Node163&#45;&gt;Node164 -->
<g id="edge2" class="edge">
<title>Node163&#45;&gt;Node164</title>
<path fill="none" stroke="#191970" d="M293.7009,-86.8346C255.2581,-76.7018 209.8482,-64.5188 169,-53 162.3278,-51.1185 155.3861,-49.1214 148.4536,-47.1007"/>
<polygon fill="#191970" stroke="#191970" points="293.2702,-90.3403 303.8317,-89.5 295.0513,-83.5707 293.2702,-90.3403"/>
</g>
<!-- Node165 -->
<g id="node4" class="node">
<title>Node165</title>
<g id="a_node4"><a xlink:href="kuka__iiwa__robot__inverse__dynamics__test_8cc.html" target="_top" xlink:title="drake/multibody/benchmarks\l/kuka_iiwa_robot/test/kuka\l_iiwa_robot_inverse_dynamics_test.cc">
<polygon fill="#ffffff" stroke="#000000" points="178,-6 178,-47 382,-47 382,-6 178,-6"/>
<text text-anchor="start" x="186" y="-35" font-family="Helvetica,sans-Serif" font-size="10.00" fill="#000000">drake/multibody/benchmarks</text>
<text text-anchor="start" x="186" y="-24" font-family="Helvetica,sans-Serif" font-size="10.00" fill="#000000">/kuka_iiwa_robot/test/kuka</text>
<text text-anchor="middle" x="280" y="-13" font-family="Helvetica,sans-Serif" font-size="10.00" fill="#000000">_iiwa_robot_inverse_dynamics_test.cc</text>
</a>
</g>
</g>
<!-- Node163&#45;&gt;Node165 -->
<g id="edge3" class="edge">
<title>Node163&#45;&gt;Node165</title>
<path fill="none" stroke="#191970" d="M349.4189,-82.7765C335.1486,-71.2079 318.7814,-57.9393 305.5248,-47.1924"/>
<polygon fill="#191970" stroke="#191970" points="347.5671,-85.7809 357.5393,-89.3595 351.9753,-80.3433 347.5671,-85.7809"/>
</g>
<!-- Node166 -->
<g id="node5" class="node">
<title>Node166</title>
<g id="a_node5"><a xlink:href="kuka__iiwa__robot__kinematics__test_8cc.html" target="_top" xlink:title="drake/multibody/benchmarks\l/kuka_iiwa_robot/test/kuka\l_iiwa_robot_kinematics_test.cc">
<polygon fill="#ffffff" stroke="#000000" points="400,-6 400,-47 570,-47 570,-6 400,-6"/>
<text text-anchor="start" x="408" y="-35" font-family="Helvetica,sans-Serif" font-size="10.00" fill="#000000">drake/multibody/benchmarks</text>
<text text-anchor="start" x="408" y="-24" font-family="Helvetica,sans-Serif" font-size="10.00" fill="#000000">/kuka_iiwa_robot/test/kuka</text>
<text text-anchor="middle" x="485" y="-13" font-family="Helvetica,sans-Serif" font-size="10.00" fill="#000000">_iiwa_robot_kinematics_test.cc</text>
</a>
</g>
</g>
<!-- Node163&#45;&gt;Node166 -->
<g id="edge4" class="edge">
<title>Node163&#45;&gt;Node166</title>
<path fill="none" stroke="#191970" d="M416.2551,-82.7765C430.3868,-71.2079 446.5952,-57.9393 459.7231,-47.1924"/>
<polygon fill="#191970" stroke="#191970" points="413.7343,-80.3168 408.2135,-89.3595 418.1685,-85.7333 413.7343,-80.3168"/>
</g>
<!-- Node169 -->
<g id="node8" class="node">
<title>Node169</title>
<g id="a_node8"><a xlink:href="angle__between__vectors__constraint__test_8cc.html" target="_top" xlink:title="drake/multibody/inverse\l_kinematics/test/angle\l_between_vectors_constraint\l_test.cc">
<polygon fill="#ffffff" stroke="#000000" points="588.5,-.5 588.5,-52.5 747.5,-52.5 747.5,-.5 588.5,-.5"/>
<text text-anchor="start" x="596.5" y="-40.5" font-family="Helvetica,sans-Serif" font-size="10.00" fill="#000000">drake/multibody/inverse</text>
<text text-anchor="start" x="596.5" y="-29.5" font-family="Helvetica,sans-Serif" font-size="10.00" fill="#000000">_kinematics/test/angle</text>
<text text-anchor="start" x="596.5" y="-18.5" font-family="Helvetica,sans-Serif" font-size="10.00" fill="#000000">_between_vectors_constraint</text>
<text text-anchor="middle" x="668" y="-7.5" font-family="Helvetica,sans-Serif" font-size="10.00" fill="#000000">_test.cc</text>
</a>
</g>
</g>
<!-- Node168&#45;&gt;Node169 -->
<g id="edge7" class="edge">
<title>Node168&#45;&gt;Node169</title>
<path fill="none" stroke="#191970" d="M909.3357,-88.8662C839.9615,-72.4083 820.8573,-70.3278 756,-53 753.2253,-52.2587 750.4058,-51.4906 747.5614,-50.7032"/>
<polygon fill="#191970" stroke="#191970" points="908.9287,-92.3674 919.4683,-91.287 910.5553,-85.559 908.9287,-92.3674"/>
</g>
<!-- Node170 -->
<g id="node9" class="node">
<title>Node170</title>
<g id="a_node9"><a xlink:href="gaze__target__constraint__test_8cc.html" target="_top" xlink:title="drake/multibody/inverse\l_kinematics/test/gaze\l_target_constraint_test.cc">
<polygon fill="#ffffff" stroke="#000000" points="765.5,-6 765.5,-47 908.5,-47 908.5,-6 765.5,-6"/>
<text text-anchor="start" x="773.5" y="-35" font-family="Helvetica,sans-Serif" font-size="10.00" fill="#000000">drake/multibody/inverse</text>
<text text-anchor="start" x="773.5" y="-24" font-family="Helvetica,sans-Serif" font-size="10.00" fill="#000000">_kinematics/test/gaze</text>
<text text-anchor="middle" x="837" y="-13" font-family="Helvetica,sans-Serif" font-size="10.00" fill="#000000">_target_constraint_test.cc</text>
</a>
</g>
</g>
<!-- Node168&#45;&gt;Node170 -->
<g id="edge8" class="edge">
<title>Node168&#45;&gt;Node170</title>
<path fill="none" stroke="#191970" d="M946.8011,-84.5278C924.0661,-72.5128 897.296,-58.3653 875.8804,-47.0476"/>
<polygon fill="#191970" stroke="#191970" points="945.4671,-87.7815 955.9438,-89.3595 948.7379,-81.5926 945.4671,-87.7815"/>
</g>
<!-- Node171 -->
<g id="node10" class="node">
<title>Node171</title>
<g id="a_node10"><a xlink:href="inverse__kinematics__test_8cc.html" target="_top" xlink:title="drake/multibody/inverse\l_kinematics/test/inverse\l_kinematics_test.cc">
<polygon fill="#ffffff" stroke="#000000" points="926.5,-6 926.5,-47 1063.5,-47 1063.5,-6 926.5,-6"/>
<text text-anchor="start" x="934.5" y="-35" font-family="Helvetica,sans-Serif" font-size="10.00" fill="#000000">drake/multibody/inverse</text>
<text text-anchor="start" x="934.5" y="-24" font-family="Helvetica,sans-Serif" font-size="10.00" fill="#000000">_kinematics/test/inverse</text>
<text text-anchor="middle" x="995" y="-13" font-family="Helvetica,sans-Serif" font-size="10.00" fill="#000000">_kinematics_test.cc</text>
</a>
</g>
</g>
<!-- Node168&#45;&gt;Node171 -->
<g id="edge9" class="edge">
<title>Node168&#45;&gt;Node171</title>
<path fill="none" stroke="#191970" d="M995,-79.1593C995,-68.5064 995,-56.8344 995,-47.1924"/>
<polygon fill="#191970" stroke="#191970" points="991.5001,-79.3595 995,-89.3595 998.5001,-79.3596 991.5001,-79.3595"/>
</g>
<!-- Node172 -->
<g id="node11" class="node">
<title>Node172</title>
<g id="a_node11"><a xlink:href="inverse__kinematics__test__utilities_8cc.html" target="_top" xlink:title="drake/multibody/inverse\l_kinematics/test/inverse\l_kinematics_test_utilities.cc">
<polygon fill="#ffffff" stroke="#000000" points="1081.5,-6 1081.5,-47 1236.5,-47 1236.5,-6 1081.5,-6"/>
<text text-anchor="start" x="1089.5" y="-35" font-family="Helvetica,sans-Serif" font-size="10.00" fill="#000000">drake/multibody/inverse</text>
<text text-anchor="start" x="1089.5" y="-24" font-family="Helvetica,sans-Serif" font-size="10.00" fill="#000000">_kinematics/test/inverse</text>
<text text-anchor="middle" x="1159" y="-13" font-family="Helvetica,sans-Serif" font-size="10.00" fill="#000000">_kinematics_test_utilities.cc</text>
</a>
</g>
</g>
<!-- Node168&#45;&gt;Node172 -->
<g id="edge10" class="edge">
<title>Node168&#45;&gt;Node172</title>
<path fill="none" stroke="#191970" d="M1044.7149,-84.6878C1068.3805,-72.6386 1096.3155,-58.4156 1118.6431,-47.0476"/>
<polygon fill="#191970" stroke="#191970" points="1042.8627,-81.7033 1035.5393,-89.3595 1046.0388,-87.9413 1042.8627,-81.7033"/>
</g>
<!-- Node173 -->
<g id="node12" class="node">
<title>Node173</title>
<g id="a_node12"><a xlink:href="orientation__constraint__test_8cc.html" target="_top" xlink:title="drake/multibody/inverse\l_kinematics/test/orientation\l_constraint_test.cc">
<polygon fill="#ffffff" stroke="#000000" points="1255,-6 1255,-47 1409,-47 1409,-6 1255,-6"/>
<text text-anchor="start" x="1263" y="-35" font-family="Helvetica,sans-Serif" font-size="10.00" fill="#000000">drake/multibody/inverse</text>
<text text-anchor="start" x="1263" y="-24" font-family="Helvetica,sans-Serif" font-size="10.00" fill="#000000">_kinematics/test/orientation</text>
<text text-anchor="middle" x="1332" y="-13" font-family="Helvetica,sans-Serif" font-size="10.00" fill="#000000">_constraint_test.cc</text>
</a>
</g>
</g>
<!-- Node168&#45;&gt;Node173 -->
<g id="edge11" class="edge">
<title>Node168&#45;&gt;Node173</title>
<path fill="none" stroke="#191970" d="M1080.4198,-88.9472C1155.2251,-71.9278 1175.9672,-71.3481 1246,-53 1252.9521,-51.1786 1260.1825,-49.1561 1267.3668,-47.0637"/>
<polygon fill="#191970" stroke="#191970" points="1079.4784,-85.5722 1070.5168,-91.2238 1081.0468,-92.3943 1079.4784,-85.5722"/>
</g>
<!-- Node174 -->
<g id="node13" class="node">
<title>Node174</title>
<g id="a_node13"><a xlink:href="position__constraint__test_8cc.html" target="_top" xlink:title="drake/multibody/inverse\l_kinematics/test/position\l_constraint_test.cc">
<polygon fill="#ffffff" stroke="#000000" points="1427,-6 1427,-47 1567,-47 1567,-6 1427,-6"/>
<text text-anchor="start" x="1435" y="-35" font-family="Helvetica,sans-Serif" font-size="10.00" fill="#000000">drake/multibody/inverse</text>
<text text-anchor="start" x="1435" y="-24" font-family="Helvetica,sans-Serif" font-size="10.00" fill="#000000">_kinematics/test/position</text>
<text text-anchor="middle" x="1497" y="-13" font-family="Helvetica,sans-Serif" font-size="10.00" fill="#000000">_constraint_test.cc</text>
</a>
</g>
</g>
<!-- Node168&#45;&gt;Node174 -->
<g id="edge12" class="edge">
<title>Node168&#45;&gt;Node174</title>
<path fill="none" stroke="#191970" d="M1080.909,-88.9789C1230.6237,-63.7592 1273.5735,-84.5208 1418,-53 1425.3495,-51.396 1432.9728,-49.3502 1440.4554,-47.1083"/>
<polygon fill="#191970" stroke="#191970" points="1080.1501,-85.558 1070.8909,-90.7076 1081.3405,-92.4561 1080.1501,-85.558"/>
</g>
</g>
</svg>
        <g id="navigator" transform="translate(0 0)" fill="#404254">
                <rect fill="#f2f5e9" fill-opacity="0.5" stroke="#606060" stroke-width=".5" x="0" y="0" width="60" height="60"/>
                <use id="zoomplus" xlink:href="#zoomPlus" x="17" y="9" onmousedown="handleZoom(evt,'in')"/>
                <use id="zoomminus" xlink:href="#zoomMin" x="42" y="9" onmousedown="handleZoom(evt,'out')"/>
                <use id="reset" xlink:href="#resetDef" x="30" y="36" onmousedown="handleReset()"/>
                <g id="arrowUp" xlink:href="#dirArrow" transform="translate(30 24)" onmousedown="handlePan(0,-1)">
                  <use xlink:href="#rim" fill="#404040">
                        <set attributeName="fill" to="#808080" begin="arrowUp.mouseover" end="arrowUp.mouseout"/>
                  </use>
                  <path fill="none" stroke="white" stroke-width="1.5" d="M0,-3.0v7 M-2.5,-0.5L0,-3.0L2.5,-0.5"/>
                </g>
                <g id="arrowRight" xlink:href="#dirArrow" transform="rotate(90) translate(36 -43)" onmousedown="handlePan(1,0)">
                  <use xlink:href="#rim" fill="#404040">
                        <set attributeName="fill" to="#808080" begin="arrowRight.mouseover" end="arrowRight.mouseout"/>
                  </use>
                  <path fill="none" stroke="white" stroke-width="1.5" d="M0,-3.0v7 M-2.5,-0.5L0,-3.0L2.5,-0.5"/>
                </g>
                <g id="arrowDown" xlink:href="#dirArrow" transform="rotate(180) translate(-30 -48)" onmousedown="handlePan(0,1)">
                  <use xlink:href="#rim" fill="#404040">
                        <set attributeName="fill" to="#808080" begin="arrowDown.mouseover" end="arrowDown.mouseout"/>
                  </use>
                  <path fill="none" stroke="white" stroke-width="1.5" d="M0,-3.0v7 M-2.5,-0.5L0,-3.0L2.5,-0.5"/>
                </g>
                <g id="arrowLeft" xlink:href="#dirArrow" transform="rotate(270) translate(-36 17)" onmousedown="handlePan(-1,0)">
                  <use xlink:href="#rim" fill="#404040">
                        <set attributeName="fill" to="#808080" begin="arrowLeft.mouseover" end="arrowLeft.mouseout"/>
                  </use>
                  <path fill="none" stroke="white" stroke-width="1.5" d="M0,-3.0v7 M-2.5,-0.5L0,-3.0L2.5,-0.5"/>
                </g>
        </g>
        <svg viewBox="0 0 15 15" width="100%" height="30px" preserveAspectRatio="xMaxYMin meet">
         <g id="arrow_out" transform="scale(0.3 0.3)">
          <a xlink:href="make__kuka__iiwa__model_8h__dep__incl_org.svg" target="_base">
           <rect id="button" ry="5" rx="5" y="6" x="6" height="38" width="38"
                fill="#f2f5e9" fill-opacity="0.5" stroke="#606060" stroke-width="1.0"/>
           <path id="arrow"
             d="M 11.500037,31.436501 C 11.940474,20.09759 22.043105,11.32322 32.158766,21.979434 L 37.068811,17.246167 C 37.068811,17.246167 37.088388,32 37.088388,32 L 22.160133,31.978069 C 22.160133,31.978069 26.997745,27.140456 26.997745,27.140456 C 18.528582,18.264221 13.291696,25.230495 11.500037,31.436501 z"
             style="fill:#404040;"/>
          </a>
         </g>
        </svg>
</svg>
