<?xml version="1.0" encoding="UTF-8" standalone="no"?>
<!DOCTYPE svg PUBLIC "-//W3C//DTD SVG 1.1//EN"
 "http://www.w3.org/Graphics/SVG/1.1/DTD/svg11.dtd">
<!-- Generated by graphviz version 2.40.1 (20161225.0304)
 -->
<!-- Title: drake/multibody/benchmarks/inclined_plane/make_inclined_plane_plant.h Pages: 1 -->
<svg width="506pt" height="128pt"
 viewBox="0.00 0.00 505.50 128.00" xmlns="http://www.w3.org/2000/svg" xmlns:xlink="http://www.w3.org/1999/xlink">
<g id="graph0" class="graph" transform="scale(1 1) rotate(0) translate(4 124)">
<title>drake/multibody/benchmarks/inclined_plane/make_inclined_plane_plant.h</title>
<polygon fill="#ffffff" stroke="transparent" points="-4,4 -4,-124 501.5,-124 501.5,4 -4,4"/>
<!-- Node150 -->
<g id="node1" class="node">
<title>Node150</title>
<polygon fill="#bfbfbf" stroke="#000000" points="166,-78.5 166,-119.5 330,-119.5 330,-78.5 166,-78.5"/>
<text text-anchor="start" x="174" y="-107.5" font-family="Helvetica,sans-Serif" font-size="10.00" fill="#000000">drake/multibody/benchmarks</text>
<text text-anchor="start" x="174" y="-96.5" font-family="Helvetica,sans-Serif" font-size="10.00" fill="#000000">/inclined_plane/make_inclined</text>
<text text-anchor="middle" x="248" y="-85.5" font-family="Helvetica,sans-Serif" font-size="10.00" fill="#000000">_plane_plant.h</text>
</g>
<!-- Node151 -->
<g id="node2" class="node">
<title>Node151</title>
<g id="a_node2"><a xlink:href="inclined__plane__run__dynamics_8cc.html" target="_top" xlink:title="drake/examples/multibody\l/inclined_plane/inclined\l_plane_run_dynamics.cc">
<polygon fill="#ffffff" stroke="#000000" points="0,-.5 0,-41.5 148,-41.5 148,-.5 0,-.5"/>
<text text-anchor="start" x="8" y="-29.5" font-family="Helvetica,sans-Serif" font-size="10.00" fill="#000000">drake/examples/multibody</text>
<text text-anchor="start" x="8" y="-18.5" font-family="Helvetica,sans-Serif" font-size="10.00" fill="#000000">/inclined_plane/inclined</text>
<text text-anchor="middle" x="74" y="-7.5" font-family="Helvetica,sans-Serif" font-size="10.00" fill="#000000">_plane_run_dynamics.cc</text>
</a>
</g>
</g>
<!-- Node150&#45;&gt;Node151 -->
<g id="edge1" class="edge">
<title>Node150&#45;&gt;Node151</title>
<path fill="none" stroke="#191970" d="M192.6809,-74.2018C169.1891,-63.671 142.128,-51.5401 119.784,-41.5239"/>
<polygon fill="#191970" stroke="#191970" points="191.2712,-77.4054 201.828,-78.3022 194.1346,-71.0178 191.2712,-77.4054"/>
</g>
<!-- Node152 -->
<g id="node3" class="node">
<title>Node152</title>
<g id="a_node3"><a xlink:href="make__inclined__plane__plant_8cc.html" target="_top" xlink:title="drake/multibody/benchmarks\l/inclined_plane/make_inclined\l_plane_plant.cc">
<polygon fill="#ffffff" stroke="#000000" points="166,-.5 166,-41.5 330,-41.5 330,-.5 166,-.5"/>
<text text-anchor="start" x="174" y="-29.5" font-family="Helvetica,sans-Serif" font-size="10.00" fill="#000000">drake/multibody/benchmarks</text>
<text text-anchor="start" x="174" y="-18.5" font-family="Helvetica,sans-Serif" font-size="10.00" fill="#000000">/inclined_plane/make_inclined</text>
<text text-anchor="middle" x="248" y="-7.5" font-family="Helvetica,sans-Serif" font-size="10.00" fill="#000000">_plane_plant.cc</text>
</a>
</g>
</g>
<!-- Node150&#45;&gt;Node152 -->
<g id="edge2" class="edge">
<title>Node150&#45;&gt;Node152</title>
<path fill="none" stroke="#191970" d="M248,-68.0789C248,-59.2178 248,-49.7747 248,-41.6898"/>
<polygon fill="#191970" stroke="#191970" points="244.5001,-68.0974 248,-78.0974 251.5001,-68.0975 244.5001,-68.0974"/>
</g>
<!-- Node153 -->
<g id="node4" class="node">
<title>Node153</title>
<g id="a_node4"><a xlink:href="inclined__plane__test_8cc.html" target="_top" xlink:title="drake/multibody/multibody\l_tree/multibody_plant/test\l/inclined_plane_test.cc">
<polygon fill="#ffffff" stroke="#000000" points="348.5,-.5 348.5,-41.5 497.5,-41.5 497.5,-.5 348.5,-.5"/>
<text text-anchor="start" x="356.5" y="-29.5" font-family="Helvetica,sans-Serif" font-size="10.00" fill="#000000">drake/multibody/multibody</text>
<text text-anchor="start" x="356.5" y="-18.5" font-family="Helvetica,sans-Serif" font-size="10.00" fill="#000000">_tree/multibody_plant/test</text>
<text text-anchor="middle" x="423" y="-7.5" font-family="Helvetica,sans-Serif" font-size="10.00" fill="#000000">/inclined_plane_test.cc</text>
</a>
</g>
</g>
<!-- Node150&#45;&gt;Node153 -->
<g id="edge3" class="edge">
<title>Node150&#45;&gt;Node153</title>
<path fill="none" stroke="#191970" d="M303.637,-74.2018C327.2639,-63.671 354.4805,-51.5401 376.9529,-41.5239"/>
<polygon fill="#191970" stroke="#191970" points="302.1463,-71.0343 294.4373,-78.3022 304.996,-77.4279 302.1463,-71.0343"/>
</g>
</g>
</svg>
