<?xml version="1.0" encoding="UTF-8" standalone="no"?>
<!DOCTYPE svg PUBLIC "-//W3C//DTD SVG 1.1//EN"
 "http://www.w3.org/Graphics/SVG/1.1/DTD/svg11.dtd">
<!-- Generated by graphviz version 2.40.1 (20161225.0304)
 -->
<!-- Title: drake/automotive/maliput_railcar.h Pages: 1 -->
<svg width="664pt" height="184pt"
 viewBox="0.00 0.00 664.00 184.00" xmlns="http://www.w3.org/2000/svg" xmlns:xlink="http://www.w3.org/1999/xlink">
<g id="graph0" class="graph" transform="scale(1 1) rotate(0) translate(4 180)">
<title>drake/automotive/maliput_railcar.h</title>
<polygon fill="#ffffff" stroke="transparent" points="-4,4 -4,-180 660,-180 660,4 -4,4"/>
<!-- Node126 -->
<g id="node1" class="node">
<title>Node126</title>
<polygon fill="#bfbfbf" stroke="#000000" points="362.5,-145.5 362.5,-175.5 506.5,-175.5 506.5,-145.5 362.5,-145.5"/>
<text text-anchor="start" x="370.5" y="-163.5" font-family="Helvetica,sans-Serif" font-size="10.00" fill="#000000">drake/automotive/maliput</text>
<text text-anchor="middle" x="434.5" y="-152.5" font-family="Helvetica,sans-Serif" font-size="10.00" fill="#000000">_railcar.h</text>
</g>
<!-- Node127 -->
<g id="node2" class="node">
<title>Node127</title>
<g id="a_node2"><a xlink:href="automotive__simulator_8h.html" target="_top" xlink:title="drake/automotive/automotive\l_simulator.h">
<polygon fill="#ffffff" stroke="#000000" points="181,-78.5 181,-108.5 344,-108.5 344,-78.5 181,-78.5"/>
<text text-anchor="start" x="189" y="-96.5" font-family="Helvetica,sans-Serif" font-size="10.00" fill="#000000">drake/automotive/automotive</text>
<text text-anchor="middle" x="262.5" y="-85.5" font-family="Helvetica,sans-Serif" font-size="10.00" fill="#000000">_simulator.h</text>
</a>
</g>
</g>
<!-- Node126&#45;&gt;Node127 -->
<g id="edge1" class="edge">
<title>Node126&#45;&gt;Node127</title>
<path fill="none" stroke="#191970" d="M386.3078,-141.7275C359.4477,-131.2645 326.4441,-118.4084 301.2685,-108.6017"/>
<polygon fill="#191970" stroke="#191970" points="385.3114,-145.0954 395.8998,-145.4639 387.8522,-138.5728 385.3114,-145.0954"/>
</g>
<!-- Node131 -->
<g id="node6" class="node">
<title>Node131</title>
<g id="a_node6"><a xlink:href="maliput__railcar_8cc.html" target="_top" xlink:title="drake/automotive/maliput\l_railcar.cc">
<polygon fill="#ffffff" stroke="#000000" points="362.5,-78.5 362.5,-108.5 506.5,-108.5 506.5,-78.5 362.5,-78.5"/>
<text text-anchor="start" x="370.5" y="-96.5" font-family="Helvetica,sans-Serif" font-size="10.00" fill="#000000">drake/automotive/maliput</text>
<text text-anchor="middle" x="434.5" y="-85.5" font-family="Helvetica,sans-Serif" font-size="10.00" fill="#000000">_railcar.cc</text>
</a>
</g>
</g>
<!-- Node126&#45;&gt;Node131 -->
<g id="edge5" class="edge">
<title>Node126&#45;&gt;Node131</title>
<path fill="none" stroke="#191970" d="M434.5,-135.0249C434.5,-126.128 434.5,-116.4287 434.5,-108.6432"/>
<polygon fill="#191970" stroke="#191970" points="431.0001,-135.2966 434.5,-145.2967 438.0001,-135.2967 431.0001,-135.2966"/>
</g>
<!-- Node132 -->
<g id="node7" class="node">
<title>Node132</title>
<g id="a_node7"><a xlink:href="maliput__railcar__test_8cc.html" target="_top" xlink:title="drake/automotive/test\l/maliput_railcar_test.cc">
<polygon fill="#ffffff" stroke="#000000" points="525,-78.5 525,-108.5 656,-108.5 656,-78.5 525,-78.5"/>
<text text-anchor="start" x="533" y="-96.5" font-family="Helvetica,sans-Serif" font-size="10.00" fill="#000000">drake/automotive/test</text>
<text text-anchor="middle" x="590.5" y="-85.5" font-family="Helvetica,sans-Serif" font-size="10.00" fill="#000000">/maliput_railcar_test.cc</text>
</a>
</g>
</g>
<!-- Node126&#45;&gt;Node132 -->
<g id="edge6" class="edge">
<title>Node126&#45;&gt;Node132</title>
<path fill="none" stroke="#191970" d="M478.8516,-141.4516C503.0953,-131.0392 532.7045,-118.3224 555.3379,-108.6017"/>
<polygon fill="#191970" stroke="#191970" points="477.3166,-138.3016 469.5094,-145.4639 480.0791,-144.7335 477.3166,-138.3016"/>
</g>
<!-- Node128 -->
<g id="node3" class="node">
<title>Node128</title>
<g id="a_node3"><a xlink:href="automotive__demo_8cc.html" target="_top" xlink:title="drake/automotive/automotive\l_demo.cc">
<polygon fill="#ffffff" stroke="#000000" points="0,-6 0,-36 163,-36 163,-6 0,-6"/>
<text text-anchor="start" x="8" y="-24" font-family="Helvetica,sans-Serif" font-size="10.00" fill="#000000">drake/automotive/automotive</text>
<text text-anchor="middle" x="81.5" y="-13" font-family="Helvetica,sans-Serif" font-size="10.00" fill="#000000">_demo.cc</text>
</a>
</g>
</g>
<!-- Node127&#45;&gt;Node128 -->
<g id="edge2" class="edge">
<title>Node127&#45;&gt;Node128</title>
<path fill="none" stroke="#191970" d="M215.5519,-74.6948C185.476,-62.6478 146.9738,-47.2257 118.9553,-36.0028"/>
<polygon fill="#191970" stroke="#191970" points="214.4122,-78.0086 224.9967,-78.478 217.0151,-71.5105 214.4122,-78.0086"/>
</g>
<!-- Node129 -->
<g id="node4" class="node">
<title>Node129</title>
<g id="a_node4"><a xlink:href="automotive__simulator_8cc.html" target="_top" xlink:title="drake/automotive/automotive\l_simulator.cc">
<polygon fill="#ffffff" stroke="#000000" points="181,-6 181,-36 344,-36 344,-6 181,-6"/>
<text text-anchor="start" x="189" y="-24" font-family="Helvetica,sans-Serif" font-size="10.00" fill="#000000">drake/automotive/automotive</text>
<text text-anchor="middle" x="262.5" y="-13" font-family="Helvetica,sans-Serif" font-size="10.00" fill="#000000">_simulator.cc</text>
</a>
</g>
</g>
<!-- Node127&#45;&gt;Node129 -->
<g id="edge3" class="edge">
<title>Node127&#45;&gt;Node129</title>
<path fill="none" stroke="#191970" d="M262.5,-68.3409C262.5,-57.5601 262.5,-45.3309 262.5,-36.0028"/>
<polygon fill="#191970" stroke="#191970" points="259.0001,-68.4779 262.5,-78.478 266.0001,-68.478 259.0001,-68.4779"/>
</g>
<!-- Node130 -->
<g id="node5" class="node">
<title>Node130</title>
<g id="a_node5"><a xlink:href="automotive__simulator__test_8cc.html" target="_top" xlink:title="drake/automotive/test\l/automotive_simulator\l_test.cc">
<polygon fill="#ffffff" stroke="#000000" points="362.5,-.5 362.5,-41.5 490.5,-41.5 490.5,-.5 362.5,-.5"/>
<text text-anchor="start" x="370.5" y="-29.5" font-family="Helvetica,sans-Serif" font-size="10.00" fill="#000000">drake/automotive/test</text>
<text text-anchor="start" x="370.5" y="-18.5" font-family="Helvetica,sans-Serif" font-size="10.00" fill="#000000">/automotive_simulator</text>
<text text-anchor="middle" x="426.5" y="-7.5" font-family="Helvetica,sans-Serif" font-size="10.00" fill="#000000">_test.cc</text>
</a>
</g>
</g>
<!-- Node127&#45;&gt;Node130 -->
<g id="edge4" class="edge">
<title>Node127&#45;&gt;Node130</title>
<path fill="none" stroke="#191970" d="M305.6273,-74.4346C328.5457,-64.303 356.7349,-51.8413 380.1242,-41.5015"/>
<polygon fill="#191970" stroke="#191970" points="304.2119,-71.2335 296.4809,-78.478 307.0422,-77.6358 304.2119,-71.2335"/>
</g>
</g>
</svg>
