<?xml version="1.0" encoding="UTF-8" standalone="no"?>
<!DOCTYPE svg PUBLIC "-//W3C//DTD SVG 1.1//EN"
 "http://www.w3.org/Graphics/SVG/1.1/DTD/svg11.dtd">
<!-- Generated by graphviz version 2.40.1 (20161225.0304)
 -->
<!-- Title: drake/attic/systems/controllers/plan_eval/manipulator_move_end_effector_plan.cc Pages: 1 -->
<!--zoomable 273 -->
<svg id="main" version="1.1" xmlns="http://www.w3.org/2000/svg" xmlns:xlink="http://www.w3.org/1999/xlink" xml:space="preserve" onload="init(evt)">
<style type="text/css"><![CDATA[
.edge:hover path { stroke: red; }
.edge:hover polygon { stroke: red; fill: red; }
]]></style>
<script type="text/javascript"><![CDATA[
var edges = document.getElementsByTagName('g');
if (edges && edges.length) {
  for (var i=0;i<edges.length;i++) {
    if (edges[i].id.substr(0,4)=='edge') {
      edges[i].setAttribute('class','edge');
    }
  }
}
]]></script>
        <defs>
                <circle id="rim" cx="0" cy="0" r="7"/>
                <circle id="rim2" cx="0" cy="0" r="3.5"/>
                <g id="zoomPlus">
                        <use xlink:href="#rim" fill="#404040">
                                <set attributeName="fill" to="#808080" begin="zoomplus.mouseover" end="zoomplus.mouseout"/>
                        </use>
                        <path d="M-4,0h8M0,-4v8" fill="none" stroke="white" stroke-width="1.5" pointer-events="none"/>
                </g>
                <g id="zoomMin">
                        <use xlink:href="#rim" fill="#404040">
                                <set attributeName="fill" to="#808080" begin="zoomminus.mouseover" end="zoomminus.mouseout"/>
                        </use>
                        <path d="M-4,0h8" fill="none" stroke="white" stroke-width="1.5" pointer-events="none"/>
                </g>
                <g id="dirArrow">
                        <path fill="none" stroke="white" stroke-width="1.5" d="M0,-3.0v7 M-2.5,-0.5L0,-3.0L2.5,-0.5"/>
                </g>
               <g id="resetDef">
                       <use xlink:href="#rim2" fill="#404040">
                               <set attributeName="fill" to="#808080" begin="reset.mouseover" end="reset.mouseout"/>
                       </use>
               </g>
        </defs>

<script type="text/javascript">
var viewWidth = 1329;
var viewHeight = 273;
var sectionId = 'dynsection-0';
</script>
<script xlink:href="svgpan.js"/>
<svg id="graph" class="graph">
<g id="viewport">
<title>drake/attic/systems/controllers/plan_eval/manipulator_move_end_effector_plan.cc</title>
<polygon fill="#ffffff" stroke="transparent" points="-4,4 -4,-269 1324.5,-269 1324.5,4 -4,4"/>
<!-- Node0 -->
<g id="node1" class="node">
<title>Node0</title>
<polygon fill="#bfbfbf" stroke="#000000" points="236.5,-212.5 236.5,-264.5 371.5,-264.5 371.5,-212.5 236.5,-212.5"/>
<text text-anchor="start" x="244.5" y="-252.5" font-family="Helvetica,sans-Serif" font-size="10.00" fill="#000000">drake/attic/systems</text>
<text text-anchor="start" x="244.5" y="-241.5" font-family="Helvetica,sans-Serif" font-size="10.00" fill="#000000">/controllers/plan_eval</text>
<text text-anchor="start" x="244.5" y="-230.5" font-family="Helvetica,sans-Serif" font-size="10.00" fill="#000000">/manipulator_move_end</text>
<text text-anchor="middle" x="304" y="-219.5" font-family="Helvetica,sans-Serif" font-size="10.00" fill="#000000">_effector_plan.cc</text>
</g>
<!-- Node1 -->
<g id="node2" class="node">
<title>Node1</title>
<polygon fill="#ffffff" stroke="#bfbfbf" points="0,-134.5 0,-175.5 152,-175.5 152,-134.5 0,-134.5"/>
<text text-anchor="start" x="8" y="-163.5" font-family="Helvetica,sans-Serif" font-size="10.00" fill="#000000">drake/systems/controllers</text>
<text text-anchor="start" x="8" y="-152.5" font-family="Helvetica,sans-Serif" font-size="10.00" fill="#000000">/plan_eval/manipulator</text>
<text text-anchor="middle" x="76" y="-141.5" font-family="Helvetica,sans-Serif" font-size="10.00" fill="#000000">_move_end_effector_plan.h</text>
</g>
<!-- Node0&#45;&gt;Node1 -->
<g id="edge1" class="edge">
<title>Node0&#45;&gt;Node1</title>
<path fill="none" stroke="#191970" d="M236.2098,-213.6733C206.2427,-202.6985 171.1475,-189.8457 141.4552,-178.9715"/>
<polygon fill="#191970" stroke="#191970" points="142.6118,-175.6678 132.018,-175.5154 140.2045,-182.2409 142.6118,-175.6678"/>
</g>
<!-- Node2 -->
<g id="node3" class="node">
<title>Node2</title>
<polygon fill="#ffffff" stroke="#bfbfbf" points="170.5,-145.5 170.5,-164.5 217.5,-164.5 217.5,-145.5 170.5,-145.5"/>
<text text-anchor="middle" x="194" y="-152.5" font-family="Helvetica,sans-Serif" font-size="10.00" fill="#000000">vector</text>
</g>
<!-- Node0&#45;&gt;Node2 -->
<g id="edge2" class="edge">
<title>Node0&#45;&gt;Node2</title>
<path fill="none" stroke="#191970" d="M269.4971,-212.3092C251.5895,-198.7156 230.2988,-182.5541 214.8993,-170.8645"/>
<polygon fill="#191970" stroke="#191970" points="216.6645,-167.8103 206.5832,-164.5518 212.4321,-173.3859 216.6645,-167.8103"/>
</g>
<!-- Node3 -->
<g id="node4" class="node">
<title>Node3</title>
<g id="a_node4"><a xlink:href="unused_8h.html" target="_top" xlink:title="drake/common/unused.h">
<polygon fill="#ffffff" stroke="#000000" points="235.5,-145.5 235.5,-164.5 372.5,-164.5 372.5,-145.5 235.5,-145.5"/>
<text text-anchor="middle" x="304" y="-152.5" font-family="Helvetica,sans-Serif" font-size="10.00" fill="#000000">drake/common/unused.h</text>
</a>
</g>
</g>
<!-- Node0&#45;&gt;Node3 -->
<g id="edge3" class="edge">
<title>Node0&#45;&gt;Node3</title>
<path fill="none" stroke="#191970" d="M304,-212.0801C304,-200.1652 304,-186.3158 304,-175.243"/>
<polygon fill="#191970" stroke="#191970" points="307.5001,-174.9064 304,-164.9064 300.5001,-174.9065 307.5001,-174.9064"/>
</g>
<!-- Node4 -->
<g id="node5" class="node">
<title>Node4</title>
<polygon fill="#ffffff" stroke="#bfbfbf" points="391,-140 391,-170 555,-170 555,-140 391,-140"/>
<text text-anchor="start" x="399" y="-158" font-family="Helvetica,sans-Serif" font-size="10.00" fill="#000000">drake/lcmt_manipulator</text>
<text text-anchor="middle" x="473" y="-147" font-family="Helvetica,sans-Serif" font-size="10.00" fill="#000000">_plan_move_end_effector.hpp</text>
</g>
<!-- Node0&#45;&gt;Node4 -->
<g id="edge4" class="edge">
<title>Node0&#45;&gt;Node4</title>
<path fill="none" stroke="#191970" d="M357.009,-212.3092C381.6819,-200.1187 410.5348,-185.863 433.2914,-174.6193"/>
<polygon fill="#191970" stroke="#191970" points="434.9084,-177.7244 442.3234,-170.1568 431.8076,-171.4486 434.9084,-177.7244"/>
</g>
<!-- Node5 -->
<g id="node6" class="node">
<title>Node5</title>
<g id="a_node6"><a xlink:href="bot__core__lcm__encode__decode_8h.html" target="_top" xlink:title="drake/manipulation\l/util/bot_core_lcm_encode\l_decode.h">
<polygon fill="#ffffff" stroke="#000000" points="573,-134.5 573,-175.5 717,-175.5 717,-134.5 573,-134.5"/>
<text text-anchor="start" x="581" y="-163.5" font-family="Helvetica,sans-Serif" font-size="10.00" fill="#000000">drake/manipulation</text>
<text text-anchor="start" x="581" y="-152.5" font-family="Helvetica,sans-Serif" font-size="10.00" fill="#000000">/util/bot_core_lcm_encode</text>
<text text-anchor="middle" x="645" y="-141.5" font-family="Helvetica,sans-Serif" font-size="10.00" fill="#000000">_decode.h</text>
</a>
</g>
</g>
<!-- Node0&#45;&gt;Node5 -->
<g id="edge5" class="edge">
<title>Node0&#45;&gt;Node5</title>
<path fill="none" stroke="#191970" d="M371.6908,-222.576C421.851,-210.6957 492.1464,-193.879 562.6457,-176.3221"/>
<polygon fill="#191970" stroke="#191970" points="563.7375,-179.657 572.5928,-173.8402 562.0429,-172.8652 563.7375,-179.657"/>
</g>
<!-- Node6 -->
<g id="node7" class="node">
<title>Node6</title>
<polygon fill="#ffffff" stroke="#bfbfbf" points="251.5,-73 251.5,-92 320.5,-92 320.5,-73 251.5,-73"/>
<text text-anchor="middle" x="286" y="-80" font-family="Helvetica,sans-Serif" font-size="10.00" fill="#000000">Eigen/Core</text>
</g>
<!-- Node5&#45;&gt;Node6 -->
<g id="edge6" class="edge">
<title>Node5&#45;&gt;Node6</title>
<path fill="none" stroke="#191970" d="M572.6617,-135.8568C569.7415,-135.2074 566.8459,-134.5853 564,-134 460.5034,-112.7138 431.4045,-124.0378 329,-98 325.8468,-97.1982 322.6006,-96.2557 319.3722,-95.2381"/>
<polygon fill="#191970" stroke="#191970" points="320.4448,-91.9062 309.8507,-92.0255 318.2069,-98.5389 320.4448,-91.9062"/>
</g>
<!-- Node7 -->
<g id="node8" class="node">
<title>Node7</title>
<polygon fill="#ffffff" stroke="#bfbfbf" points="338.5,-73 338.5,-92 433.5,-92 433.5,-73 338.5,-73"/>
<text text-anchor="middle" x="386" y="-80" font-family="Helvetica,sans-Serif" font-size="10.00" fill="#000000">Eigen/Geometry</text>
</g>
<!-- Node5&#45;&gt;Node7 -->
<g id="edge7" class="edge">
<title>Node5&#45;&gt;Node7</title>
<path fill="none" stroke="#191970" d="M572.8541,-134.8047C527.0021,-121.9697 469.1286,-105.7696 430.0326,-94.8257"/>
<polygon fill="#191970" stroke="#191970" points="430.8433,-91.4182 420.27,-92.0929 428.9563,-98.1591 430.8433,-91.4182"/>
</g>
<!-- Node8 -->
<g id="node9" class="node">
<title>Node8</title>
<polygon fill="#ffffff" stroke="#bfbfbf" points="452,-67.5 452,-97.5 570,-97.5 570,-67.5 452,-67.5"/>
<text text-anchor="start" x="460" y="-85.5" font-family="Helvetica,sans-Serif" font-size="10.00" fill="#000000">bot_core/position_3d</text>
<text text-anchor="middle" x="511" y="-74.5" font-family="Helvetica,sans-Serif" font-size="10.00" fill="#000000">_t.hpp</text>
</g>
<!-- Node5&#45;&gt;Node8 -->
<g id="edge8" class="edge">
<title>Node5&#45;&gt;Node8</title>
<path fill="none" stroke="#191970" d="M606.9594,-134.4183C588.4256,-124.3907 566.2307,-112.3823 547.8568,-102.4412"/>
<polygon fill="#191970" stroke="#191970" points="549.3681,-99.2794 538.9073,-97.5991 546.037,-105.4361 549.3681,-99.2794"/>
</g>
<!-- Node9 -->
<g id="node10" class="node">
<title>Node9</title>
<polygon fill="#ffffff" stroke="#bfbfbf" points="588,-67.5 588,-97.5 702,-97.5 702,-67.5 588,-67.5"/>
<text text-anchor="start" x="596" y="-85.5" font-family="Helvetica,sans-Serif" font-size="10.00" fill="#000000">bot_core/quaternion</text>
<text text-anchor="middle" x="645" y="-74.5" font-family="Helvetica,sans-Serif" font-size="10.00" fill="#000000">_t.hpp</text>
</g>
<!-- Node5&#45;&gt;Node9 -->
<g id="edge9" class="edge">
<title>Node5&#45;&gt;Node9</title>
<path fill="none" stroke="#191970" d="M645,-134.4183C645,-126.0849 645,-116.3834 645,-107.6373"/>
<polygon fill="#191970" stroke="#191970" points="648.5001,-107.5991 645,-97.5991 641.5001,-107.5991 648.5001,-107.5991"/>
</g>
<!-- Node10 -->
<g id="node11" class="node">
<title>Node10</title>
<polygon fill="#ffffff" stroke="#bfbfbf" points="720,-73 720,-92 836,-92 836,-73 720,-73"/>
<text text-anchor="middle" x="778" y="-80" font-family="Helvetica,sans-Serif" font-size="10.00" fill="#000000">bot_core/twist_t.hpp</text>
</g>
<!-- Node5&#45;&gt;Node10 -->
<g id="edge10" class="edge">
<title>Node5&#45;&gt;Node10</title>
<path fill="none" stroke="#191970" d="M682.7567,-134.4183C704.6682,-122.4741 731.735,-107.7196 751.4075,-96.9959"/>
<polygon fill="#191970" stroke="#191970" points="753.3108,-99.9447 760.4158,-92.0853 749.9604,-93.7985 753.3108,-99.9447"/>
</g>
<!-- Node11 -->
<g id="node12" class="node">
<title>Node11</title>
<polygon fill="#ffffff" stroke="#bfbfbf" points="854,-67.5 854,-97.5 964,-97.5 964,-67.5 854,-67.5"/>
<text text-anchor="start" x="862" y="-85.5" font-family="Helvetica,sans-Serif" font-size="10.00" fill="#000000">bot_core/vector_3d</text>
<text text-anchor="middle" x="909" y="-74.5" font-family="Helvetica,sans-Serif" font-size="10.00" fill="#000000">_t.hpp</text>
</g>
<!-- Node5&#45;&gt;Node11 -->
<g id="edge11" class="edge">
<title>Node5&#45;&gt;Node11</title>
<path fill="none" stroke="#191970" d="M717.1392,-135.1891C756.7998,-124.2974 805.6075,-110.8938 844.0694,-100.3313"/>
<polygon fill="#191970" stroke="#191970" points="845.4026,-103.5949 854.1187,-97.5716 843.5488,-96.8448 845.4026,-103.5949"/>
</g>
<!-- Node12 -->
<g id="node13" class="node">
<title>Node12</title>
<g id="a_node13"><a xlink:href="eigen__types_8h.html" target="_top" xlink:title="This file contains abbreviated definitions for certain specializations of Eigen::Matrix that are comm...">
<polygon fill="#ffffff" stroke="#000000" points="982,-67.5 982,-97.5 1102,-97.5 1102,-67.5 982,-67.5"/>
<text text-anchor="start" x="990" y="-85.5" font-family="Helvetica,sans-Serif" font-size="10.00" fill="#000000">drake/common/eigen</text>
<text text-anchor="middle" x="1042" y="-74.5" font-family="Helvetica,sans-Serif" font-size="10.00" fill="#000000">_types.h</text>
</a>
</g>
</g>
<!-- Node5&#45;&gt;Node12 -->
<g id="edge12" class="edge">
<title>Node5&#45;&gt;Node12</title>
<path fill="none" stroke="#191970" d="M717.1728,-143.4995C781.481,-133.0137 878.3801,-116.6308 971.9104,-98.1672"/>
<polygon fill="#191970" stroke="#191970" points="972.6987,-101.5791 981.826,-96.1993 971.336,-94.713 972.6987,-101.5791"/>
</g>
<!-- Node13 -->
<g id="node14" class="node">
<title>Node13</title>
<polygon fill="#ffffff" stroke="#bfbfbf" points="861,-6 861,-25 919,-25 919,-6 861,-6"/>
<text text-anchor="middle" x="890" y="-13" font-family="Helvetica,sans-Serif" font-size="10.00" fill="#000000">memory</text>
</g>
<!-- Node12&#45;&gt;Node13 -->
<g id="edge13" class="edge">
<title>Node12&#45;&gt;Node13</title>
<path fill="none" stroke="#191970" d="M1007.8882,-67.4639C981.9251,-56.0196 946.477,-40.3945 921.2485,-29.274"/>
<polygon fill="#191970" stroke="#191970" points="922.3502,-25.9347 911.788,-25.1039 919.5268,-32.3401 922.3502,-25.9347"/>
</g>
<!-- Node14 -->
<g id="node15" class="node">
<title>Node14</title>
<polygon fill="#ffffff" stroke="#bfbfbf" points="937.5,-6 937.5,-25 1014.5,-25 1014.5,-6 937.5,-6"/>
<text text-anchor="middle" x="976" y="-13" font-family="Helvetica,sans-Serif" font-size="10.00" fill="#000000">Eigen/Dense</text>
</g>
<!-- Node12&#45;&gt;Node14 -->
<g id="edge14" class="edge">
<title>Node12&#45;&gt;Node14</title>
<path fill="none" stroke="#191970" d="M1027.0236,-67.2967C1016.7405,-56.8578 1003.0892,-42.9997 992.4947,-32.2446"/>
<polygon fill="#191970" stroke="#191970" points="994.9235,-29.7228 985.4124,-25.055 989.9367,-34.6352 994.9235,-29.7228"/>
</g>
<!-- Node15 -->
<g id="node16" class="node">
<title>Node15</title>
<g id="a_node16"><a xlink:href="constants_8h.html" target="_top" xlink:title="drake/common/constants.h">
<polygon fill="#ffffff" stroke="#000000" points="1032.5,-6 1032.5,-25 1181.5,-25 1181.5,-6 1032.5,-6"/>
<text text-anchor="middle" x="1107" y="-13" font-family="Helvetica,sans-Serif" font-size="10.00" fill="#000000">drake/common/constants.h</text>
</a>
</g>
</g>
<!-- Node12&#45;&gt;Node15 -->
<g id="edge15" class="edge">
<title>Node12&#45;&gt;Node15</title>
<path fill="none" stroke="#191970" d="M1056.7495,-67.2967C1066.8768,-56.8578 1080.3212,-42.9997 1090.7552,-32.2446"/>
<polygon fill="#191970" stroke="#191970" points="1093.2792,-34.6695 1097.7303,-25.055 1088.255,-29.7953 1093.2792,-34.6695"/>
</g>
<!-- Node16 -->
<g id="node17" class="node">
<title>Node16</title>
<g id="a_node17"><a xlink:href="drake__copyable_8h.html" target="_top" xlink:title="Provides careful macros to selectively enable or disable the special member functions for copy&#45;constr...">
<polygon fill="#ffffff" stroke="#000000" points="1199.5,-.5 1199.5,-30.5 1320.5,-30.5 1320.5,-.5 1199.5,-.5"/>
<text text-anchor="start" x="1207.5" y="-18.5" font-family="Helvetica,sans-Serif" font-size="10.00" fill="#000000">drake/common/drake</text>
<text text-anchor="middle" x="1260" y="-7.5" font-family="Helvetica,sans-Serif" font-size="10.00" fill="#000000">_copyable.h</text>
</a>
</g>
</g>
<!-- Node12&#45;&gt;Node16 -->
<g id="edge16" class="edge">
<title>Node12&#45;&gt;Node16</title>
<path fill="none" stroke="#191970" d="M1090.9235,-67.4639C1123.4864,-57.456 1166.4522,-44.2509 1200.9219,-33.657"/>
<polygon fill="#191970" stroke="#191970" points="1202.3327,-36.8851 1210.8632,-30.6017 1200.2762,-30.194 1202.3327,-36.8851"/>
</g>
</g>
</svg>
        <g id="navigator" transform="translate(0 0)" fill="#404254">
                <rect fill="#f2f5e9" fill-opacity="0.5" stroke="#606060" stroke-width=".5" x="0" y="0" width="60" height="60"/>
                <use id="zoomplus" xlink:href="#zoomPlus" x="17" y="9" onmousedown="handleZoom(evt,'in')"/>
                <use id="zoomminus" xlink:href="#zoomMin" x="42" y="9" onmousedown="handleZoom(evt,'out')"/>
                <use id="reset" xlink:href="#resetDef" x="30" y="36" onmousedown="handleReset()"/>
                <g id="arrowUp" xlink:href="#dirArrow" transform="translate(30 24)" onmousedown="handlePan(0,-1)">
                  <use xlink:href="#rim" fill="#404040">
                        <set attributeName="fill" to="#808080" begin="arrowUp.mouseover" end="arrowUp.mouseout"/>
                  </use>
                  <path fill="none" stroke="white" stroke-width="1.5" d="M0,-3.0v7 M-2.5,-0.5L0,-3.0L2.5,-0.5"/>
                </g>
                <g id="arrowRight" xlink:href="#dirArrow" transform="rotate(90) translate(36 -43)" onmousedown="handlePan(1,0)">
                  <use xlink:href="#rim" fill="#404040">
                        <set attributeName="fill" to="#808080" begin="arrowRight.mouseover" end="arrowRight.mouseout"/>
                  </use>
                  <path fill="none" stroke="white" stroke-width="1.5" d="M0,-3.0v7 M-2.5,-0.5L0,-3.0L2.5,-0.5"/>
                </g>
                <g id="arrowDown" xlink:href="#dirArrow" transform="rotate(180) translate(-30 -48)" onmousedown="handlePan(0,1)">
                  <use xlink:href="#rim" fill="#404040">
                        <set attributeName="fill" to="#808080" begin="arrowDown.mouseover" end="arrowDown.mouseout"/>
                  </use>
                  <path fill="none" stroke="white" stroke-width="1.5" d="M0,-3.0v7 M-2.5,-0.5L0,-3.0L2.5,-0.5"/>
                </g>
                <g id="arrowLeft" xlink:href="#dirArrow" transform="rotate(270) translate(-36 17)" onmousedown="handlePan(-1,0)">
                  <use xlink:href="#rim" fill="#404040">
                        <set attributeName="fill" to="#808080" begin="arrowLeft.mouseover" end="arrowLeft.mouseout"/>
                  </use>
                  <path fill="none" stroke="white" stroke-width="1.5" d="M0,-3.0v7 M-2.5,-0.5L0,-3.0L2.5,-0.5"/>
                </g>
        </g>
        <svg viewBox="0 0 15 15" width="100%" height="30px" preserveAspectRatio="xMaxYMin meet">
         <g id="arrow_out" transform="scale(0.3 0.3)">
          <a xlink:href="manipulator__move__end__effector__plan_8cc__incl_org.svg" target="_base">
           <rect id="button" ry="5" rx="5" y="6" x="6" height="38" width="38"
                fill="#f2f5e9" fill-opacity="0.5" stroke="#606060" stroke-width="1.0"/>
           <path id="arrow"
             d="M 11.500037,31.436501 C 11.940474,20.09759 22.043105,11.32322 32.158766,21.979434 L 37.068811,17.246167 C 37.068811,17.246167 37.088388,32 37.088388,32 L 22.160133,31.978069 C 22.160133,31.978069 26.997745,27.140456 26.997745,27.140456 C 18.528582,18.264221 13.291696,25.230495 11.500037,31.436501 z"
             style="fill:#404040;"/>
          </a>
         </g>
        </svg>
</svg>
