<?xml version="1.0" encoding="UTF-8" standalone="no"?>
<!DOCTYPE svg PUBLIC "-//W3C//DTD SVG 1.1//EN"
 "http://www.w3.org/Graphics/SVG/1.1/DTD/svg11.dtd">
<!-- Generated by graphviz version 2.40.1 (20161225.0304)
 -->
<!-- Title: drake/multibody/benchmarks/mass_damper_spring/mass_damper_spring_analytical_solution.h Pages: 1 -->
<svg width="478pt" height="195pt"
 viewBox="0.00 0.00 477.50 195.00" xmlns="http://www.w3.org/2000/svg" xmlns:xlink="http://www.w3.org/1999/xlink">
<g id="graph0" class="graph" transform="scale(1 1) rotate(0) translate(4 191)">
<title>drake/multibody/benchmarks/mass_damper_spring/mass_damper_spring_analytical_solution.h</title>
<polygon fill="#ffffff" stroke="transparent" points="-4,4 -4,-191 473.5,-191 473.5,4 -4,4"/>
<!-- Node0 -->
<g id="node1" class="node">
<title>Node0</title>
<polygon fill="#bfbfbf" stroke="#000000" points="0,-134.5 0,-186.5 160,-186.5 160,-134.5 0,-134.5"/>
<text text-anchor="start" x="8" y="-174.5" font-family="Helvetica,sans-Serif" font-size="10.00" fill="#000000">drake/multibody/benchmarks</text>
<text text-anchor="start" x="8" y="-163.5" font-family="Helvetica,sans-Serif" font-size="10.00" fill="#000000">/mass_damper_spring/mass</text>
<text text-anchor="start" x="8" y="-152.5" font-family="Helvetica,sans-Serif" font-size="10.00" fill="#000000">_damper_spring_analytical</text>
<text text-anchor="middle" x="80" y="-141.5" font-family="Helvetica,sans-Serif" font-size="10.00" fill="#000000">_solution.h</text>
</g>
<!-- Node1 -->
<g id="node2" class="node">
<title>Node1</title>
<polygon fill="#ffffff" stroke="#bfbfbf" points="4.5,-73 4.5,-92 51.5,-92 51.5,-73 4.5,-73"/>
<text text-anchor="middle" x="28" y="-80" font-family="Helvetica,sans-Serif" font-size="10.00" fill="#000000">cmath</text>
</g>
<!-- Node0&#45;&gt;Node1 -->
<g id="edge1" class="edge">
<title>Node0&#45;&gt;Node1</title>
<path fill="none" stroke="#191970" d="M62.3952,-134.0928C55.0715,-123.1073 46.7523,-110.6285 40.1303,-100.6954"/>
<polygon fill="#191970" stroke="#191970" points="42.8485,-98.4629 34.3892,-92.0839 37.0241,-102.3459 42.8485,-98.4629"/>
</g>
<!-- Node2 -->
<g id="node3" class="node">
<title>Node2</title>
<g id="a_node3"><a xlink:href="drake__copyable_8h.html" target="_top" xlink:title="Provides careful macros to selectively enable or disable the special member functions for copy&#45;constr...">
<polygon fill="#ffffff" stroke="#000000" points="9.5,-.5 9.5,-30.5 130.5,-30.5 130.5,-.5 9.5,-.5"/>
<text text-anchor="start" x="17.5" y="-18.5" font-family="Helvetica,sans-Serif" font-size="10.00" fill="#000000">drake/common/drake</text>
<text text-anchor="middle" x="70" y="-7.5" font-family="Helvetica,sans-Serif" font-size="10.00" fill="#000000">_copyable.h</text>
</a>
</g>
</g>
<!-- Node0&#45;&gt;Node2 -->
<g id="edge2" class="edge">
<title>Node0&#45;&gt;Node2</title>
<path fill="none" stroke="#191970" d="M78.1891,-134.2416C76.3669,-107.8199 73.5749,-67.3355 71.7681,-41.137"/>
<polygon fill="#191970" stroke="#191970" points="75.2396,-40.6018 71.0597,-30.8663 68.2562,-41.0835 75.2396,-40.6018"/>
</g>
<!-- Node3 -->
<g id="node4" class="node">
<title>Node3</title>
<g id="a_node4"><a xlink:href="eigen__types_8h.html" target="_top" xlink:title="This file contains abbreviated definitions for certain specializations of Eigen::Matrix that are comm...">
<polygon fill="#ffffff" stroke="#000000" points="118,-67.5 118,-97.5 238,-97.5 238,-67.5 118,-67.5"/>
<text text-anchor="start" x="126" y="-85.5" font-family="Helvetica,sans-Serif" font-size="10.00" fill="#000000">drake/common/eigen</text>
<text text-anchor="middle" x="178" y="-74.5" font-family="Helvetica,sans-Serif" font-size="10.00" fill="#000000">_types.h</text>
</a>
</g>
</g>
<!-- Node0&#45;&gt;Node3 -->
<g id="edge3" class="edge">
<title>Node0&#45;&gt;Node3</title>
<path fill="none" stroke="#191970" d="M112.9052,-134.3101C125.2548,-124.4808 139.1389,-113.4303 150.9024,-104.0674"/>
<polygon fill="#191970" stroke="#191970" points="153.3965,-106.5557 159.0411,-97.5897 149.0372,-101.0787 153.3965,-106.5557"/>
</g>
<!-- Node3&#45;&gt;Node2 -->
<g id="edge7" class="edge">
<title>Node3&#45;&gt;Node2</title>
<path fill="none" stroke="#191970" d="M153.7627,-67.4639C138.8601,-58.2188 119.5594,-46.2452 103.2417,-36.1222"/>
<polygon fill="#191970" stroke="#191970" points="104.8728,-33.0153 94.5301,-30.7177 101.1826,-38.9636 104.8728,-33.0153"/>
</g>
<!-- Node4 -->
<g id="node5" class="node">
<title>Node4</title>
<polygon fill="#ffffff" stroke="#bfbfbf" points="149,-6 149,-25 207,-25 207,-6 149,-6"/>
<text text-anchor="middle" x="178" y="-13" font-family="Helvetica,sans-Serif" font-size="10.00" fill="#000000">memory</text>
</g>
<!-- Node3&#45;&gt;Node4 -->
<g id="edge4" class="edge">
<title>Node3&#45;&gt;Node4</title>
<path fill="none" stroke="#191970" d="M178,-67.2967C178,-57.7699 178,-45.3954 178,-35.1306"/>
<polygon fill="#191970" stroke="#191970" points="181.5001,-35.0549 178,-25.055 174.5001,-35.055 181.5001,-35.0549"/>
</g>
<!-- Node5 -->
<g id="node6" class="node">
<title>Node5</title>
<polygon fill="#ffffff" stroke="#bfbfbf" points="225.5,-6 225.5,-25 302.5,-25 302.5,-6 225.5,-6"/>
<text text-anchor="middle" x="264" y="-13" font-family="Helvetica,sans-Serif" font-size="10.00" fill="#000000">Eigen/Dense</text>
</g>
<!-- Node3&#45;&gt;Node5 -->
<g id="edge5" class="edge">
<title>Node3&#45;&gt;Node5</title>
<path fill="none" stroke="#191970" d="M197.5147,-67.2967C211.3042,-56.5537 229.7418,-42.1895 243.7028,-31.3129"/>
<polygon fill="#191970" stroke="#191970" points="245.9978,-33.9618 251.7354,-25.055 241.6958,-28.4398 245.9978,-33.9618"/>
</g>
<!-- Node6 -->
<g id="node7" class="node">
<title>Node6</title>
<g id="a_node7"><a xlink:href="constants_8h.html" target="_top" xlink:title="drake/common/constants.h">
<polygon fill="#ffffff" stroke="#000000" points="320.5,-6 320.5,-25 469.5,-25 469.5,-6 320.5,-6"/>
<text text-anchor="middle" x="395" y="-13" font-family="Helvetica,sans-Serif" font-size="10.00" fill="#000000">drake/common/constants.h</text>
</a>
</g>
</g>
<!-- Node3&#45;&gt;Node6 -->
<g id="edge6" class="edge">
<title>Node3&#45;&gt;Node6</title>
<path fill="none" stroke="#191970" d="M226.699,-67.4639C265.1912,-55.5792 318.2864,-39.1858 354.4801,-28.0108"/>
<polygon fill="#191970" stroke="#191970" points="355.6919,-31.2997 364.2142,-25.0053 353.6267,-24.6113 355.6919,-31.2997"/>
</g>
</g>
</svg>
