<?xml version="1.0" encoding="UTF-8" standalone="no"?>
<!DOCTYPE svg PUBLIC "-//W3C//DTD SVG 1.1//EN"
 "http://www.w3.org/Graphics/SVG/1.1/DTD/svg11.dtd">
<!-- Generated by graphviz version 2.40.1 (20161225.0304)
 -->
<!-- Title: drake/solvers/mathematical_program_result.h Pages: 1 -->
<svg width="1784pt" height="430pt"
 viewBox="0.00 0.00 1783.93 430.00" xmlns="http://www.w3.org/2000/svg" xmlns:xlink="http://www.w3.org/1999/xlink">
<g id="graph0" class="graph" transform="scale(1 1) rotate(0) translate(4 426)">
<title>drake/solvers/mathematical_program_result.h</title>
<polygon fill="#ffffff" stroke="transparent" points="-4,4 -4,-426 1779.9261,-426 1779.9261,4 -4,4"/>
<!-- Node0 -->
<g id="node1" class="node">
<title>Node0</title>
<polygon fill="#bfbfbf" stroke="#000000" points="1168.5,-391.5 1168.5,-421.5 1322.5,-421.5 1322.5,-391.5 1168.5,-391.5"/>
<text text-anchor="start" x="1176.5" y="-409.5" font-family="Helvetica,sans-Serif" font-size="10.00" fill="#000000">drake/solvers/mathematical</text>
<text text-anchor="middle" x="1245.5" y="-398.5" font-family="Helvetica,sans-Serif" font-size="10.00" fill="#000000">_program_result.h</text>
</g>
<!-- Node1 -->
<g id="node2" class="node">
<title>Node1</title>
<polygon fill="#ffffff" stroke="#bfbfbf" points="1498.5,-129 1498.5,-148 1556.5,-148 1556.5,-129 1498.5,-129"/>
<text text-anchor="middle" x="1527.5" y="-136" font-family="Helvetica,sans-Serif" font-size="10.00" fill="#000000">memory</text>
</g>
<!-- Node0&#45;&gt;Node1 -->
<g id="edge1" class="edge">
<title>Node0&#45;&gt;Node1</title>
<path fill="none" stroke="#191970" d="M1322.5176,-400.9278C1429.6457,-388.5592 1620.1769,-348.7847 1706.5,-221 1742.4261,-167.8183 1629.6265,-148.2797 1566.7449,-141.6337"/>
<polygon fill="#191970" stroke="#191970" points="1567.0385,-138.1457 1556.7414,-140.64 1566.3465,-145.1114 1567.0385,-138.1457"/>
</g>
<!-- Node2 -->
<g id="node3" class="node">
<title>Node2</title>
<polygon fill="#ffffff" stroke="#bfbfbf" points="1698,-129 1698,-148 1755,-148 1755,-129 1698,-129"/>
<text text-anchor="middle" x="1726.5" y="-136" font-family="Helvetica,sans-Serif" font-size="10.00" fill="#000000">typeinfo</text>
</g>
<!-- Node0&#45;&gt;Node2 -->
<g id="edge2" class="edge">
<title>Node0&#45;&gt;Node2</title>
<path fill="none" stroke="#191970" d="M1322.5614,-397.9255C1403.6721,-388.2497 1525.5698,-371.6759 1569.5,-355 1654.6359,-322.6825 1694.7613,-307.0706 1724.5,-221 1731.6005,-200.4496 1730.9854,-175.272 1729.3072,-158.1751"/>
<polygon fill="#191970" stroke="#191970" points="1732.7816,-157.7515 1728.1212,-148.2367 1725.8309,-158.581 1732.7816,-157.7515"/>
</g>
<!-- Node3 -->
<g id="node4" class="node">
<title>Node3</title>
<polygon fill="#ffffff" stroke="#bfbfbf" points="1052,-62 1052,-81 1097,-81 1097,-62 1052,-62"/>
<text text-anchor="middle" x="1074.5" y="-69" font-family="Helvetica,sans-Serif" font-size="10.00" fill="#000000">utility</text>
</g>
<!-- Node0&#45;&gt;Node3 -->
<g id="edge3" class="edge">
<title>Node0&#45;&gt;Node3</title>
<path fill="none" stroke="#191970" d="M1236.0023,-391.2526C1212.1368,-352.5652 1148.4958,-247.0504 1105.5,-154 1095.8129,-133.0354 1086.7723,-108.1129 1080.9835,-91.1876"/>
<polygon fill="#191970" stroke="#191970" points="1084.178,-89.7062 1077.6748,-81.3421 1077.5427,-91.9361 1084.178,-89.7062"/>
</g>
<!-- Node4 -->
<g id="node5" class="node">
<title>Node4</title>
<g id="a_node5"><a xlink:href="solution__result_8h.html" target="_top" xlink:title="drake/solvers/solution\l_result.h">
<polygon fill="#ffffff" stroke="#000000" points="524,-257.5 524,-287.5 649,-287.5 649,-257.5 524,-257.5"/>
<text text-anchor="start" x="532" y="-275.5" font-family="Helvetica,sans-Serif" font-size="10.00" fill="#000000">drake/solvers/solution</text>
<text text-anchor="middle" x="586.5" y="-264.5" font-family="Helvetica,sans-Serif" font-size="10.00" fill="#000000">_result.h</text>
</a>
</g>
</g>
<!-- Node0&#45;&gt;Node4 -->
<g id="edge4" class="edge">
<title>Node0&#45;&gt;Node4</title>
<path fill="none" stroke="#191970" d="M1168.4963,-398.8365C1093.6714,-390.6594 977.0807,-375.9803 877.5,-355 794.4388,-337.5001 700.2476,-309.2065 642.1,-290.7277"/>
<polygon fill="#191970" stroke="#191970" points="642.9701,-287.3315 632.3793,-287.6232 640.8404,-293.9997 642.9701,-287.3315"/>
</g>
<!-- Node7 -->
<g id="node8" class="node">
<title>Node7</title>
<g id="a_node8"><a xlink:href="solver__result_8h.html" target="_top" xlink:title="drake/solvers/solver\l_result.h">
<polygon fill="#ffffff" stroke="#000000" points="886.5,-324.5 886.5,-354.5 1002.5,-354.5 1002.5,-324.5 886.5,-324.5"/>
<text text-anchor="start" x="894.5" y="-342.5" font-family="Helvetica,sans-Serif" font-size="10.00" fill="#000000">drake/solvers/solver</text>
<text text-anchor="middle" x="944.5" y="-331.5" font-family="Helvetica,sans-Serif" font-size="10.00" fill="#000000">_result.h</text>
</a>
</g>
</g>
<!-- Node0&#45;&gt;Node7 -->
<g id="edge7" class="edge">
<title>Node0&#45;&gt;Node7</title>
<path fill="none" stroke="#191970" d="M1177.9497,-391.4639C1128.6537,-380.491 1062.0906,-365.6747 1012.6543,-354.6706"/>
<polygon fill="#191970" stroke="#191970" points="1013.2135,-351.2094 1002.6919,-352.453 1011.6925,-358.0422 1013.2135,-351.2094"/>
</g>
<!-- Node26 -->
<g id="node27" class="node">
<title>Node26</title>
<g id="a_node27"><a xlink:href="value_8h.html" target="_top" xlink:title="drake/systems/framework\l/value.h">
<polygon fill="#ffffff" stroke="#000000" points="1312,-257.5 1312,-287.5 1457,-287.5 1457,-257.5 1312,-257.5"/>
<text text-anchor="start" x="1320" y="-275.5" font-family="Helvetica,sans-Serif" font-size="10.00" fill="#000000">drake/systems/framework</text>
<text text-anchor="middle" x="1384.5" y="-264.5" font-family="Helvetica,sans-Serif" font-size="10.00" fill="#000000">/value.h</text>
</a>
</g>
</g>
<!-- Node0&#45;&gt;Node26 -->
<g id="edge37" class="edge">
<title>Node0&#45;&gt;Node26</title>
<path fill="none" stroke="#191970" d="M1261.1749,-391.389C1285.5767,-367.8649 1332.7882,-322.3517 1361.1913,-294.9702"/>
<polygon fill="#191970" stroke="#191970" points="1363.8989,-297.2216 1368.6691,-287.7614 1359.0406,-292.182 1363.8989,-297.2216"/>
</g>
<!-- Node5 -->
<g id="node6" class="node">
<title>Node5</title>
<polygon fill="#ffffff" stroke="#bfbfbf" points="402,-196 402,-215 459,-215 459,-196 402,-196"/>
<text text-anchor="middle" x="430.5" y="-203" font-family="Helvetica,sans-Serif" font-size="10.00" fill="#000000">ostream</text>
</g>
<!-- Node4&#45;&gt;Node5 -->
<g id="edge5" class="edge">
<title>Node4&#45;&gt;Node5</title>
<path fill="none" stroke="#191970" d="M551.4906,-257.4639C524.7262,-245.969 488.1411,-230.2561 462.2277,-219.1266"/>
<polygon fill="#191970" stroke="#191970" points="463.431,-215.8343 452.8614,-215.1039 460.6685,-222.2662 463.431,-215.8343"/>
</g>
<!-- Node6 -->
<g id="node7" class="node">
<title>Node6</title>
<polygon fill="#ffffff" stroke="#bfbfbf" points="888.5,-129 888.5,-148 932.5,-148 932.5,-129 888.5,-129"/>
<text text-anchor="middle" x="910.5" y="-136" font-family="Helvetica,sans-Serif" font-size="10.00" fill="#000000">string</text>
</g>
<!-- Node4&#45;&gt;Node6 -->
<g id="edge6" class="edge">
<title>Node4&#45;&gt;Node6</title>
<path fill="none" stroke="#191970" d="M605.9227,-257.3892C630.6993,-238.8378 675.5076,-207.6701 718.5,-190 785.9168,-162.2914 809.6916,-178.0457 878.5,-154 880.1025,-153.44 881.73,-152.8214 883.3586,-152.1634"/>
<polygon fill="#191970" stroke="#191970" points="884.8099,-155.3486 892.5323,-148.095 881.972,-148.9496 884.8099,-155.3486"/>
</g>
<!-- Node8 -->
<g id="node9" class="node">
<title>Node8</title>
<polygon fill="#ffffff" stroke="#bfbfbf" points="910,-263 910,-282 979,-282 979,-263 910,-263"/>
<text text-anchor="middle" x="944.5" y="-270" font-family="Helvetica,sans-Serif" font-size="10.00" fill="#000000">Eigen/Core</text>
</g>
<!-- Node7&#45;&gt;Node8 -->
<g id="edge8" class="edge">
<title>Node7&#45;&gt;Node8</title>
<path fill="none" stroke="#191970" d="M944.5,-324.2967C944.5,-314.7699 944.5,-302.3954 944.5,-292.1306"/>
<polygon fill="#191970" stroke="#191970" points="948.0001,-292.0549 944.5,-282.055 941.0001,-292.055 948.0001,-292.0549"/>
</g>
<!-- Node9 -->
<g id="node10" class="node">
<title>Node9</title>
<g id="a_node10"><a xlink:href="drake__copyable_8h.html" target="_top" xlink:title="Provides careful macros to selectively enable or disable the special member functions for copy&#45;constr...">
<polygon fill="#ffffff" stroke="#000000" points="1152,-56.5 1152,-86.5 1273,-86.5 1273,-56.5 1152,-56.5"/>
<text text-anchor="start" x="1160" y="-74.5" font-family="Helvetica,sans-Serif" font-size="10.00" fill="#000000">drake/common/drake</text>
<text text-anchor="middle" x="1212.5" y="-63.5" font-family="Helvetica,sans-Serif" font-size="10.00" fill="#000000">_copyable.h</text>
</a>
</g>
</g>
<!-- Node7&#45;&gt;Node9 -->
<g id="edge9" class="edge">
<title>Node7&#45;&gt;Node9</title>
<path fill="none" stroke="#191970" d="M969.8962,-324.3358C1015.6475,-295.9404 1112.7044,-230.6449 1172.5,-154 1186.2504,-136.375 1196.9521,-113.2596 1203.8119,-95.982"/>
<polygon fill="#191970" stroke="#191970" points="1207.1084,-97.1601 1207.4009,-86.5693 1200.5677,-94.6661 1207.1084,-97.1601"/>
</g>
<!-- Node10 -->
<g id="node11" class="node">
<title>Node10</title>
<g id="a_node11"><a xlink:href="drake__optional_8h.html" target="_top" xlink:title="Provides drake::optional as an alias for the appropriate implementation of std::optional or std::expe...">
<polygon fill="#ffffff" stroke="#000000" points="90,-123.5 90,-153.5 211,-153.5 211,-123.5 90,-123.5"/>
<text text-anchor="start" x="98" y="-141.5" font-family="Helvetica,sans-Serif" font-size="10.00" fill="#000000">drake/common/drake</text>
<text text-anchor="middle" x="150.5" y="-130.5" font-family="Helvetica,sans-Serif" font-size="10.00" fill="#000000">_optional.h</text>
</a>
</g>
</g>
<!-- Node7&#45;&gt;Node10 -->
<g id="edge10" class="edge">
<title>Node7&#45;&gt;Node10</title>
<path fill="none" stroke="#191970" d="M886.1972,-337.5031C802.6412,-333.5251 644.5681,-321.8296 514.5,-288 390.985,-255.8747 253.9013,-191.0244 188.8256,-158.3175"/>
<polygon fill="#191970" stroke="#191970" points="190.2604,-155.1211 179.7569,-153.7329 187.1022,-161.3682 190.2604,-155.1211"/>
</g>
<!-- Node13 -->
<g id="node14" class="node">
<title>Node13</title>
<g id="a_node14"><a xlink:href="solver__id_8h.html" target="_top" xlink:title="drake/solvers/solver_id.h">
<polygon fill="#ffffff" stroke="#000000" points="667,-263 667,-282 806,-282 806,-263 667,-263"/>
<text text-anchor="middle" x="736.5" y="-270" font-family="Helvetica,sans-Serif" font-size="10.00" fill="#000000">drake/solvers/solver_id.h</text>
</a>
</g>
</g>
<!-- Node7&#45;&gt;Node13 -->
<g id="edge13" class="edge">
<title>Node7&#45;&gt;Node13</title>
<path fill="none" stroke="#191970" d="M897.8207,-324.4639C861.0827,-312.63 810.4667,-296.3258 775.785,-285.1543"/>
<polygon fill="#191970" stroke="#191970" points="776.6005,-281.7399 766.0089,-282.0053 774.4542,-288.4028 776.6005,-281.7399"/>
</g>
<!-- Node11 -->
<g id="node12" class="node">
<title>Node11</title>
<polygon fill="#ffffff" stroke="#bfbfbf" points="113.5,-62 113.5,-81 203.5,-81 203.5,-62 113.5,-62"/>
<text text-anchor="middle" x="158.5" y="-69" font-family="Helvetica,sans-Serif" font-size="10.00" fill="#000000">stx/variant.hpp</text>
</g>
<!-- Node10&#45;&gt;Node11 -->
<g id="edge11" class="edge">
<title>Node10&#45;&gt;Node11</title>
<path fill="none" stroke="#191970" d="M152.3153,-123.2967C153.4528,-113.7699 154.9304,-101.3954 156.156,-91.1306"/>
<polygon fill="#191970" stroke="#191970" points="159.6487,-91.3994 157.3591,-81.055 152.6981,-90.5694 159.6487,-91.3994"/>
</g>
<!-- Node12 -->
<g id="node13" class="node">
<title>Node12</title>
<polygon fill="#ffffff" stroke="#bfbfbf" points="0,-62 0,-81 95,-81 95,-62 0,-62"/>
<text text-anchor="middle" x="47.5" y="-69" font-family="Helvetica,sans-Serif" font-size="10.00" fill="#000000">stx/optional.hpp</text>
</g>
<!-- Node10&#45;&gt;Node12 -->
<g id="edge12" class="edge">
<title>Node10&#45;&gt;Node12</title>
<path fill="none" stroke="#191970" d="M127.3848,-123.4639C110.5698,-112.526 87.8837,-97.769 70.9838,-86.7759"/>
<polygon fill="#191970" stroke="#191970" points="72.5553,-83.6228 62.2642,-81.1039 68.7384,-89.4906 72.5553,-83.6228"/>
</g>
<!-- Node13&#45;&gt;Node5 -->
<g id="edge15" class="edge">
<title>Node13&#45;&gt;Node5</title>
<path fill="none" stroke="#191970" d="M688.046,-262.9416C677.9533,-260.9652 667.3812,-258.9055 657.5,-257 573.1079,-240.7262 549.8092,-245.7398 467.5,-221 465.3323,-220.3485 463.1187,-219.6125 460.9058,-218.8242"/>
<polygon fill="#191970" stroke="#191970" points="461.9418,-215.4723 451.3525,-215.1309 459.4177,-222.0014 461.9418,-215.4723"/>
</g>
<!-- Node13&#45;&gt;Node6 -->
<g id="edge16" class="edge">
<title>Node13&#45;&gt;Node6</title>
<path fill="none" stroke="#191970" d="M732.0358,-262.8902C724.9916,-246.1376 713.7286,-211.34 730.5,-190 772.3305,-136.7748 814.7895,-176.8843 878.5,-154 880.0976,-153.4261 881.7213,-152.7967 883.3469,-152.1303"/>
<polygon fill="#191970" stroke="#191970" points="884.808,-155.311 892.5121,-148.0379 881.954,-148.9192 884.808,-155.311"/>
</g>
<!-- Node13&#45;&gt;Node9 -->
<g id="edge17" class="edge">
<title>Node13&#45;&gt;Node9</title>
<path fill="none" stroke="#191970" d="M806.3302,-266.0292C886.3788,-257.7731 1012.0106,-242.0068 1054.5,-221 1115.6668,-190.759 1169.1999,-128.7306 1195.4038,-94.8517"/>
<polygon fill="#191970" stroke="#191970" points="1198.1977,-96.9599 1201.465,-86.8814 1192.6258,-92.7226 1198.1977,-96.9599"/>
</g>
<!-- Node14 -->
<g id="node15" class="node">
<title>Node14</title>
<polygon fill="#ffffff" stroke="#bfbfbf" points="655,-129 655,-148 720,-148 720,-129 655,-129"/>
<text text-anchor="middle" x="687.5" y="-136" font-family="Helvetica,sans-Serif" font-size="10.00" fill="#000000">functional</text>
</g>
<!-- Node13&#45;&gt;Node14 -->
<g id="edge14" class="edge">
<title>Node13&#45;&gt;Node14</title>
<path fill="none" stroke="#191970" d="M724.748,-262.8514C714.2053,-253.4136 699.369,-238.0108 692.5,-221 684.3024,-200.6989 684.1003,-175.2909 685.275,-158.075"/>
<polygon fill="#191970" stroke="#191970" points="688.7639,-158.3545 686.1755,-148.0807 681.7922,-157.7262 688.7639,-158.3545"/>
</g>
<!-- Node15 -->
<g id="node16" class="node">
<title>Node15</title>
<g id="a_node16"><a xlink:href="hash_8h.html" target="_top" xlink:title="drake/common/hash.h">
<polygon fill="#ffffff" stroke="#000000" points="477,-196 477,-215 602,-215 602,-196 477,-196"/>
<text text-anchor="middle" x="539.5" y="-203" font-family="Helvetica,sans-Serif" font-size="10.00" fill="#000000">drake/common/hash.h</text>
</a>
</g>
</g>
<!-- Node13&#45;&gt;Node15 -->
<g id="edge18" class="edge">
<title>Node13&#45;&gt;Node15</title>
<path fill="none" stroke="#191970" d="M708.2747,-262.9005C673.8971,-251.2086 615.6896,-231.4122 577.4228,-218.3976"/>
<polygon fill="#191970" stroke="#191970" points="578.2674,-214.988 567.6729,-215.0817 576.0134,-221.6152 578.2674,-214.988"/>
</g>
<!-- Node25 -->
<g id="node26" class="node">
<title>Node25</title>
<g id="a_node26"><a xlink:href="reset__after__move_8h.html" target="_top" xlink:title="drake/common/reset\l_after_move.h">
<polygon fill="#ffffff" stroke="#000000" points="772.5,-190.5 772.5,-220.5 890.5,-220.5 890.5,-190.5 772.5,-190.5"/>
<text text-anchor="start" x="780.5" y="-208.5" font-family="Helvetica,sans-Serif" font-size="10.00" fill="#000000">drake/common/reset</text>
<text text-anchor="middle" x="831.5" y="-197.5" font-family="Helvetica,sans-Serif" font-size="10.00" fill="#000000">_after_move.h</text>
</a>
</g>
</g>
<!-- Node13&#45;&gt;Node25 -->
<g id="edge35" class="edge">
<title>Node13&#45;&gt;Node25</title>
<path fill="none" stroke="#191970" d="M750.1112,-262.9005C763.4802,-253.4718 784.3226,-238.7725 801.5685,-226.6096"/>
<polygon fill="#191970" stroke="#191970" points="804.0456,-229.1455 810.2005,-220.5218 800.0112,-223.425 804.0456,-229.1455"/>
</g>
<!-- Node15&#45;&gt;Node3 -->
<g id="edge27" class="edge">
<title>Node15&#45;&gt;Node3</title>
<path fill="none" stroke="#191970" d="M553.6758,-195.8262C568.2259,-185.757 591.3782,-169.3433 610.5,-154 626.7074,-140.9952 626.5446,-131.5144 645.5,-123 716.4431,-91.1339 953.907,-77.1024 1041.5971,-72.9202"/>
<polygon fill="#191970" stroke="#191970" points="1041.9381,-76.4083 1051.7649,-72.4478 1041.6131,-69.4158 1041.9381,-76.4083"/>
</g>
<!-- Node15&#45;&gt;Node6 -->
<g id="edge25" class="edge">
<title>Node15&#45;&gt;Node6</title>
<path fill="none" stroke="#191970" d="M584.6075,-195.9323C595.0562,-193.8517 606.1472,-191.7515 616.5,-190 732.3917,-170.393 765.9983,-188.0392 878.5,-154 880.3612,-153.4369 882.2488,-152.7777 884.1282,-152.0545"/>
<polygon fill="#191970" stroke="#191970" points="885.5299,-155.2617 893.2962,-148.0551 882.7309,-148.8456 885.5299,-155.2617"/>
</g>
<!-- Node15&#45;&gt;Node10 -->
<g id="edge31" class="edge">
<title>Node15&#45;&gt;Node10</title>
<path fill="none" stroke="#191970" d="M497.3306,-195.9466C487.56,-193.8653 477.1867,-191.7613 467.5,-190 360.515,-170.5475 332.5643,-173.0113 225.5,-154 224.0272,-153.7385 222.5391,-153.47 221.0397,-153.1957"/>
<polygon fill="#191970" stroke="#191970" points="221.5007,-149.7211 211.026,-151.3125 220.2069,-156.6005 221.5007,-149.7211"/>
</g>
<!-- Node15&#45;&gt;Node14 -->
<g id="edge21" class="edge">
<title>Node15&#45;&gt;Node14</title>
<path fill="none" stroke="#191970" d="M560.7048,-195.9005C585.9821,-184.4574 628.4084,-165.2509 657.1548,-152.2374"/>
<polygon fill="#191970" stroke="#191970" points="658.668,-155.3943 666.3345,-148.0817 655.7811,-149.0173 658.668,-155.3943"/>
</g>
<!-- Node16 -->
<g id="node17" class="node">
<title>Node16</title>
<polygon fill="#ffffff" stroke="#bfbfbf" points="407,-129 407,-148 454,-148 454,-129 407,-129"/>
<text text-anchor="middle" x="430.5" y="-136" font-family="Helvetica,sans-Serif" font-size="10.00" fill="#000000">cmath</text>
</g>
<!-- Node15&#45;&gt;Node16 -->
<g id="edge19" class="edge">
<title>Node15&#45;&gt;Node16</title>
<path fill="none" stroke="#191970" d="M523.883,-195.9005C505.8331,-184.8057 475.9104,-166.4128 454.8092,-153.4424"/>
<polygon fill="#191970" stroke="#191970" points="456.4402,-150.3366 446.0881,-148.0817 452.7745,-156.3001 456.4402,-150.3366"/>
</g>
<!-- Node17 -->
<g id="node18" class="node">
<title>Node17</title>
<polygon fill="#ffffff" stroke="#bfbfbf" points="817,-129 817,-148 870,-148 870,-129 817,-129"/>
<text text-anchor="middle" x="843.5" y="-136" font-family="Helvetica,sans-Serif" font-size="10.00" fill="#000000">cstddef</text>
</g>
<!-- Node15&#45;&gt;Node17 -->
<g id="edge20" class="edge">
<title>Node15&#45;&gt;Node17</title>
<path fill="none" stroke="#191970" d="M586.3089,-195.9813C596.2699,-193.9827 606.7294,-191.9041 616.5,-190 701.2885,-173.4762 724.884,-179.2334 807.5,-154 809.6151,-153.354 811.7733,-152.6222 813.9297,-151.8368"/>
<polygon fill="#191970" stroke="#191970" points="815.225,-155.0884 823.232,-148.1502 812.6459,-148.5808 815.225,-155.0884"/>
</g>
<!-- Node18 -->
<g id="node19" class="node">
<title>Node18</title>
<polygon fill="#ffffff" stroke="#bfbfbf" points="738.5,-129 738.5,-148 798.5,-148 798.5,-129 738.5,-129"/>
<text text-anchor="middle" x="768.5" y="-136" font-family="Helvetica,sans-Serif" font-size="10.00" fill="#000000">iostream</text>
</g>
<!-- Node15&#45;&gt;Node18 -->
<g id="edge22" class="edge">
<title>Node15&#45;&gt;Node18</title>
<path fill="none" stroke="#191970" d="M579.3116,-195.9292C617.8066,-186.3757 677.6192,-170.7404 728.5,-154 730.7683,-153.2537 733.0958,-152.4512 735.4322,-151.6183"/>
<polygon fill="#191970" stroke="#191970" points="736.7963,-154.8455 744.9574,-148.0892 734.3643,-148.2815 736.7963,-154.8455"/>
</g>
<!-- Node19 -->
<g id="node20" class="node">
<title>Node19</title>
<polygon fill="#ffffff" stroke="#bfbfbf" points="472.5,-129 472.5,-148 510.5,-148 510.5,-129 472.5,-129"/>
<text text-anchor="middle" x="491.5" y="-136" font-family="Helvetica,sans-Serif" font-size="10.00" fill="#000000">map</text>
</g>
<!-- Node15&#45;&gt;Node19 -->
<g id="edge23" class="edge">
<title>Node15&#45;&gt;Node19</title>
<path fill="none" stroke="#191970" d="M532.6228,-195.9005C525.2802,-185.6515 513.4759,-169.1747 504.3938,-156.4976"/>
<polygon fill="#191970" stroke="#191970" points="507.0336,-154.1724 498.3645,-148.0817 501.3432,-158.2492 507.0336,-154.1724"/>
</g>
<!-- Node20 -->
<g id="node21" class="node">
<title>Node20</title>
<polygon fill="#ffffff" stroke="#bfbfbf" points="528.5,-129 528.5,-148 560.5,-148 560.5,-129 528.5,-129"/>
<text text-anchor="middle" x="544.5" y="-136" font-family="Helvetica,sans-Serif" font-size="10.00" fill="#000000">set</text>
</g>
<!-- Node15&#45;&gt;Node20 -->
<g id="edge24" class="edge">
<title>Node15&#45;&gt;Node20</title>
<path fill="none" stroke="#191970" d="M540.2164,-195.9005C540.9441,-186.149 542.0926,-170.7597 543.0172,-158.3695"/>
<polygon fill="#191970" stroke="#191970" points="546.531,-158.3144 543.785,-148.0817 539.5504,-157.7934 546.531,-158.3144"/>
</g>
<!-- Node21 -->
<g id="node22" class="node">
<title>Node21</title>
<polygon fill="#ffffff" stroke="#bfbfbf" points="1118,-.5 1118,-19.5 1187,-19.5 1187,-.5 1118,-.5"/>
<text text-anchor="middle" x="1152.5" y="-7.5" font-family="Helvetica,sans-Serif" font-size="10.00" fill="#000000">type_traits</text>
</g>
<!-- Node15&#45;&gt;Node21 -->
<g id="edge26" class="edge">
<title>Node15&#45;&gt;Node21</title>
<path fill="none" stroke="#191970" d="M496.5377,-195.9462C486.993,-193.9088 476.9148,-191.8234 467.5,-190 371.7344,-171.4524 198.144,-199.6304 258.5,-123 337.1388,-23.157 410.9406,-75.6856 536.5,-56 748.5721,-22.7507 1005.608,-13.3737 1107.6395,-10.8651"/>
<polygon fill="#191970" stroke="#191970" points="1107.966,-14.3585 1117.8808,-10.6238 1107.8011,-7.3604 1107.966,-14.3585"/>
</g>
<!-- Node22 -->
<g id="node23" class="node">
<title>Node22</title>
<polygon fill="#ffffff" stroke="#bfbfbf" points="1217,-129 1217,-148 1264,-148 1264,-129 1217,-129"/>
<text text-anchor="middle" x="1240.5" y="-136" font-family="Helvetica,sans-Serif" font-size="10.00" fill="#000000">vector</text>
</g>
<!-- Node15&#45;&gt;Node22 -->
<g id="edge28" class="edge">
<title>Node15&#45;&gt;Node22</title>
<path fill="none" stroke="#191970" d="M602.0172,-199.5247C745.8838,-185.7743 1096.4931,-152.2639 1206.7397,-141.7267"/>
<polygon fill="#191970" stroke="#191970" points="1207.3156,-145.1877 1216.9372,-140.7521 1206.6495,-138.2195 1207.3156,-145.1877"/>
</g>
<!-- Node23 -->
<g id="node24" class="node">
<title>Node23</title>
<g id="a_node24"><a xlink:href="drake__assert_8h.html" target="_top" xlink:title="Provides Drake&#39;s assertion implementation. ">
<polygon fill="#ffffff" stroke="#000000" points="700,-56.5 700,-86.5 821,-86.5 821,-56.5 700,-56.5"/>
<text text-anchor="start" x="708" y="-74.5" font-family="Helvetica,sans-Serif" font-size="10.00" fill="#000000">drake/common/drake</text>
<text text-anchor="middle" x="760.5" y="-63.5" font-family="Helvetica,sans-Serif" font-size="10.00" fill="#000000">_assert.h</text>
</a>
</g>
</g>
<!-- Node15&#45;&gt;Node23 -->
<g id="edge29" class="edge">
<title>Node15&#45;&gt;Node23</title>
<path fill="none" stroke="#191970" d="M545.5362,-195.9119C556.7263,-178.8788 582.3186,-143.2362 612.5,-123 635.7427,-107.4161 664.2007,-96.0412 689.9309,-88.0088"/>
<polygon fill="#191970" stroke="#191970" points="691.0715,-91.3207 699.6421,-85.0921 689.0579,-84.6166 691.0715,-91.3207"/>
</g>
<!-- Node24 -->
<g id="node25" class="node">
<title>Node24</title>
<g id="a_node25"><a xlink:href="drake__throw_8h.html" target="_top" xlink:title="Provides a convenient wrapper to throw an exception when a condition is unmet. ">
<polygon fill="#ffffff" stroke="#000000" points="268,-123.5 268,-153.5 389,-153.5 389,-123.5 268,-123.5"/>
<text text-anchor="start" x="276" y="-141.5" font-family="Helvetica,sans-Serif" font-size="10.00" fill="#000000">drake/common/drake</text>
<text text-anchor="middle" x="328.5" y="-130.5" font-family="Helvetica,sans-Serif" font-size="10.00" fill="#000000">_throw.h</text>
</a>
</g>
</g>
<!-- Node15&#45;&gt;Node24 -->
<g id="edge32" class="edge">
<title>Node15&#45;&gt;Node24</title>
<path fill="none" stroke="#191970" d="M509.2688,-195.9005C477.0556,-185.6717 425.307,-169.2397 385.4154,-156.5727"/>
<polygon fill="#191970" stroke="#191970" points="386.3977,-153.2124 375.8073,-153.5218 384.2791,-159.8841 386.3977,-153.2124"/>
</g>
<!-- Node23&#45;&gt;Node21 -->
<g id="edge30" class="edge">
<title>Node23&#45;&gt;Node21</title>
<path fill="none" stroke="#191970" d="M821.3199,-61.9581C900.643,-49.5133 1037.561,-28.0325 1107.9179,-16.9944"/>
<polygon fill="#191970" stroke="#191970" points="1108.464,-20.4516 1117.8007,-15.4439 1107.379,-13.5362 1108.464,-20.4516"/>
</g>
<!-- Node24&#45;&gt;Node21 -->
<g id="edge33" class="edge">
<title>Node24&#45;&gt;Node21</title>
<path fill="none" stroke="#191970" d="M384.5043,-123.4456C455.2783,-104.9524 581.0766,-73.8447 690.5,-56 842.5099,-31.2103 1024.9845,-17.7995 1107.7602,-12.5918"/>
<polygon fill="#191970" stroke="#191970" points="1108.0594,-16.0801 1117.8238,-11.9684 1107.6265,-9.0935 1108.0594,-16.0801"/>
</g>
<!-- Node24&#45;&gt;Node23 -->
<g id="edge34" class="edge">
<title>Node24&#45;&gt;Node23</title>
<path fill="none" stroke="#191970" d="M389.026,-124.6158C391.8866,-124.0502 394.7222,-123.5082 397.5,-123 498.562,-104.5105 616.4885,-88.8634 689.838,-79.8246"/>
<polygon fill="#191970" stroke="#191970" points="690.3857,-83.2838 699.8857,-78.5935 689.5343,-76.3358 690.3857,-83.2838"/>
</g>
<!-- Node25&#45;&gt;Node3 -->
<g id="edge36" class="edge">
<title>Node25&#45;&gt;Node3</title>
<path fill="none" stroke="#191970" d="M866.6973,-190.2897C888.5463,-180.5378 917.0271,-167.2599 941.5,-154 981.2495,-132.4629 1025.5109,-104.0721 1051.6286,-86.834"/>
<polygon fill="#191970" stroke="#191970" points="1053.6753,-89.6765 1060.073,-81.2313 1049.8052,-83.8435 1053.6753,-89.6765"/>
</g>
<!-- Node26&#45;&gt;Node1 -->
<g id="edge38" class="edge">
<title>Node26&#45;&gt;Node1</title>
<path fill="none" stroke="#191970" d="M1428.8644,-257.4588C1448.3965,-249.1137 1470.4898,-237.112 1486.5,-221 1504.3115,-203.0752 1515.7542,-175.8524 1521.9051,-157.6355"/>
<polygon fill="#191970" stroke="#191970" points="1525.246,-158.6786 1524.9233,-148.0887 1518.5716,-156.5685 1525.246,-158.6786"/>
</g>
<!-- Node26&#45;&gt;Node2 -->
<g id="edge42" class="edge">
<title>Node26&#45;&gt;Node2</title>
<path fill="none" stroke="#191970" d="M1457.1342,-270.0238C1540.7553,-265.6487 1671.152,-253.6524 1706.5,-221 1723.7041,-205.1078 1727.2557,-177.1544 1727.4753,-158.2385"/>
<polygon fill="#191970" stroke="#191970" points="1730.9714,-157.994 1727.2857,-148.0609 1723.9726,-158.1244 1730.9714,-157.994"/>
</g>
<!-- Node26&#45;&gt;Node3 -->
<g id="edge43" class="edge">
<title>Node26&#45;&gt;Node3</title>
<path fill="none" stroke="#191970" d="M1311.7507,-260.9294C1278.1699,-253.2609 1238.8855,-240.8279 1207.5,-221 1152.1388,-186.0254 1106.1958,-121.5006 1085.8169,-89.9054"/>
<polygon fill="#191970" stroke="#191970" points="1088.6326,-87.8092 1080.331,-81.2263 1082.7155,-91.5493 1088.6326,-87.8092"/>
</g>
<!-- Node26&#45;&gt;Node6 -->
<g id="edge40" class="edge">
<title>Node26&#45;&gt;Node6</title>
<path fill="none" stroke="#191970" d="M1311.883,-269.086C1151.9259,-261.2147 781.8512,-240.9361 763.5,-221 754.1689,-210.863 755.3417,-201.1026 763.5,-190 795.213,-146.8418 828.7086,-173.7273 878.5,-154 879.863,-153.46 881.2485,-152.8868 882.6407,-152.2911"/>
<polygon fill="#191970" stroke="#191970" points="884.0988,-155.473 891.7553,-148.1499 881.2031,-149.1 884.0988,-155.473"/>
</g>
<!-- Node26&#45;&gt;Node9 -->
<g id="edge50" class="edge">
<title>Node26&#45;&gt;Node9</title>
<path fill="none" stroke="#191970" d="M1383.6325,-257.2412C1382.071,-239.9158 1377.7039,-211.2965 1365.5,-190 1339.7382,-145.0442 1289.4904,-111.2483 1253.6073,-91.4812"/>
<polygon fill="#191970" stroke="#191970" points="1254.8261,-88.1632 1244.3595,-86.52 1251.5169,-94.3316 1254.8261,-88.1632"/>
</g>
<!-- Node26&#45;&gt;Node21 -->
<g id="edge41" class="edge">
<title>Node26&#45;&gt;Node21</title>
<path fill="none" stroke="#191970" d="M1457.1457,-269.387C1545.2161,-264.311 1687.1318,-251.5479 1729.5,-221 1766.8957,-194.0372 1791.8236,-159.3759 1763.5,-123 1693.8807,-33.5882 1327.0148,-14.8261 1197.6797,-10.9723"/>
<polygon fill="#191970" stroke="#191970" points="1197.4416,-7.4643 1187.347,-10.6814 1197.2445,-14.4616 1197.4416,-7.4643"/>
</g>
<!-- Node27 -->
<g id="node28" class="node">
<title>Node27</title>
<polygon fill="#ffffff" stroke="#bfbfbf" points="1413,-196 1413,-215 1478,-215 1478,-196 1413,-196"/>
<text text-anchor="middle" x="1445.5" y="-203" font-family="Helvetica,sans-Serif" font-size="10.00" fill="#000000">stdexcept</text>
</g>
<!-- Node26&#45;&gt;Node27 -->
<g id="edge39" class="edge">
<title>Node26&#45;&gt;Node27</title>
<path fill="none" stroke="#191970" d="M1398.3418,-257.2967C1407.7537,-246.9591 1420.2183,-233.2684 1429.9689,-222.5588"/>
<polygon fill="#191970" stroke="#191970" points="1432.6565,-224.8057 1436.8007,-215.055 1427.4804,-220.0931 1432.6565,-224.8057"/>
</g>
<!-- Node28 -->
<g id="node29" class="node">
<title>Node28</title>
<g id="a_node29"><a xlink:href="copyable__unique__ptr_8h.html" target="_top" xlink:title="drake/common/copyable\l_unique_ptr.h">
<polygon fill="#ffffff" stroke="#000000" points="909,-190.5 909,-220.5 1046,-220.5 1046,-190.5 909,-190.5"/>
<text text-anchor="start" x="917" y="-208.5" font-family="Helvetica,sans-Serif" font-size="10.00" fill="#000000">drake/common/copyable</text>
<text text-anchor="middle" x="977.5" y="-197.5" font-family="Helvetica,sans-Serif" font-size="10.00" fill="#000000">_unique_ptr.h</text>
</a>
</g>
</g>
<!-- Node26&#45;&gt;Node28 -->
<g id="edge44" class="edge">
<title>Node26&#45;&gt;Node28</title>
<path fill="none" stroke="#191970" d="M1311.7366,-260.5217C1239.8907,-248.6945 1130.3424,-230.6608 1056.4288,-218.4932"/>
<polygon fill="#191970" stroke="#191970" points="1056.6792,-214.9874 1046.2434,-216.8165 1055.5421,-221.8944 1056.6792,-214.9874"/>
</g>
<!-- Node29 -->
<g id="node30" class="node">
<title>Node29</title>
<g id="a_node30"><a xlink:href="is__cloneable_8h.html" target="_top" xlink:title="drake/common/is_cloneable.h">
<polygon fill="#ffffff" stroke="#000000" points="1535,-196 1535,-215 1698,-215 1698,-196 1535,-196"/>
<text text-anchor="middle" x="1616.5" y="-203" font-family="Helvetica,sans-Serif" font-size="10.00" fill="#000000">drake/common/is_cloneable.h</text>
</a>
</g>
</g>
<!-- Node26&#45;&gt;Node29 -->
<g id="edge51" class="edge">
<title>Node26&#45;&gt;Node29</title>
<path fill="none" stroke="#191970" d="M1436.5653,-257.4639C1477.8941,-245.5284 1534.969,-229.0456 1573.6743,-217.8678"/>
<polygon fill="#191970" stroke="#191970" points="1574.9499,-221.1425 1583.5862,-215.0053 1573.0077,-214.4173 1574.9499,-221.1425"/>
</g>
<!-- Node30 -->
<g id="node31" class="node">
<title>Node30</title>
<g id="a_node31"><a xlink:href="nice__type__name_8h.html" target="_top" xlink:title="drake/common/nice_type\l_name.h">
<polygon fill="#ffffff" stroke="#000000" points="1216.5,-190.5 1216.5,-220.5 1356.5,-220.5 1356.5,-190.5 1216.5,-190.5"/>
<text text-anchor="start" x="1224.5" y="-208.5" font-family="Helvetica,sans-Serif" font-size="10.00" fill="#000000">drake/common/nice_type</text>
<text text-anchor="middle" x="1286.5" y="-197.5" font-family="Helvetica,sans-Serif" font-size="10.00" fill="#000000">_name.h</text>
</a>
</g>
</g>
<!-- Node26&#45;&gt;Node30 -->
<g id="edge54" class="edge">
<title>Node26&#45;&gt;Node30</title>
<path fill="none" stroke="#191970" d="M1362.2623,-257.2967C1348.8553,-248.1306 1331.5924,-236.3285 1316.932,-226.3055"/>
<polygon fill="#191970" stroke="#191970" points="1318.8802,-223.3977 1308.6497,-220.6432 1314.9295,-229.1763 1318.8802,-223.3977"/>
</g>
<!-- Node28&#45;&gt;Node1 -->
<g id="edge47" class="edge">
<title>Node28&#45;&gt;Node1</title>
<path fill="none" stroke="#191970" d="M1046.4152,-200.9349C1165.8587,-192.6256 1406.4253,-174.0302 1488.5,-154 1491.2871,-153.3198 1494.1394,-152.4822 1496.971,-151.5516"/>
<polygon fill="#191970" stroke="#191970" points="1498.1926,-154.8317 1506.3933,-148.1236 1495.7993,-148.2535 1498.1926,-154.8317"/>
</g>
<!-- Node28&#45;&gt;Node3 -->
<g id="edge48" class="edge">
<title>Node28&#45;&gt;Node3</title>
<path fill="none" stroke="#191970" d="M988.4386,-190.389C1006.433,-165.5307 1042.2016,-116.1184 1061.4747,-89.4937"/>
<polygon fill="#191970" stroke="#191970" points="1064.5191,-91.2569 1067.5477,-81.1042 1058.8488,-87.1523 1064.5191,-91.2569"/>
</g>
<!-- Node28&#45;&gt;Node17 -->
<g id="edge45" class="edge">
<title>Node28&#45;&gt;Node17</title>
<path fill="none" stroke="#191970" d="M947.4278,-190.4639C924.843,-179.1715 894.1171,-163.8086 871.9384,-152.7192"/>
<polygon fill="#191970" stroke="#191970" points="873.2174,-149.4456 862.7078,-148.1039 870.0869,-155.7066 873.2174,-149.4456"/>
</g>
<!-- Node28&#45;&gt;Node18 -->
<g id="edge46" class="edge">
<title>Node28&#45;&gt;Node18</title>
<path fill="none" stroke="#191970" d="M923.5306,-190.4096C889.9244,-180.7027 845.9275,-167.4302 807.5,-154 805.3764,-153.2578 803.1978,-152.4692 801.0083,-151.6561"/>
<polygon fill="#191970" stroke="#191970" points="802.0665,-148.3135 791.4762,-148.0033 799.5616,-154.85 802.0665,-148.3135"/>
</g>
<!-- Node28&#45;&gt;Node23 -->
<g id="edge49" class="edge">
<title>Node28&#45;&gt;Node23</title>
<path fill="none" stroke="#191970" d="M974.9526,-190.3951C971.0323,-171.8499 961.7382,-140.6885 941.5,-123 924.7261,-108.3393 874.4573,-94.6835 831.1409,-85.1224"/>
<polygon fill="#191970" stroke="#191970" points="831.6782,-81.6578 821.1642,-82.9641 830.198,-88.4995 831.6782,-81.6578"/>
</g>
<!-- Node29&#45;&gt;Node1 -->
<g id="edge52" class="edge">
<title>Node29&#45;&gt;Node1</title>
<path fill="none" stroke="#191970" d="M1603.7485,-195.9005C1589.341,-185.0544 1565.669,-167.2339 1548.5184,-154.3229"/>
<polygon fill="#191970" stroke="#191970" points="1550.3221,-151.2998 1540.2279,-148.0817 1546.1121,-156.8923 1550.3221,-151.2998"/>
</g>
<!-- Node29&#45;&gt;Node21 -->
<g id="edge53" class="edge">
<title>Node29&#45;&gt;Node21</title>
<path fill="none" stroke="#191970" d="M1612.4505,-195.7699C1605.1372,-179.1391 1588.3377,-144.9224 1565.5,-123 1521.7133,-80.9682 1503.8415,-75.8973 1446.5,-56 1361.5502,-26.5227 1256.2136,-15.8646 1197.4787,-12.0615"/>
<polygon fill="#191970" stroke="#191970" points="1197.6121,-8.5633 1187.4176,-11.4481 1197.186,-15.5503 1197.6121,-8.5633"/>
</g>
<!-- Node30&#45;&gt;Node1 -->
<g id="edge55" class="edge">
<title>Node30&#45;&gt;Node1</title>
<path fill="none" stroke="#191970" d="M1354.4548,-190.4799C1393.9397,-181.1815 1444.4397,-168.3065 1488.5,-154 1490.7803,-153.2596 1493.1188,-152.4534 1495.4629,-151.6106"/>
<polygon fill="#191970" stroke="#191970" points="1496.8741,-154.819 1504.995,-148.0145 1494.4033,-148.2696 1496.8741,-154.819"/>
</g>
<!-- Node30&#45;&gt;Node2 -->
<g id="edge57" class="edge">
<title>Node30&#45;&gt;Node2</title>
<path fill="none" stroke="#191970" d="M1356.7058,-194.8096C1450.4785,-180.5305 1613.3972,-155.7225 1687.6358,-144.418"/>
<polygon fill="#191970" stroke="#191970" points="1688.5676,-147.8165 1697.9268,-142.8509 1687.5138,-140.8963 1688.5676,-147.8165"/>
</g>
<!-- Node30&#45;&gt;Node3 -->
<g id="edge58" class="edge">
<title>Node30&#45;&gt;Node3</title>
<path fill="none" stroke="#191970" d="M1288.4482,-190.3093C1289.8971,-171.9678 1289.2915,-141.3081 1272.5,-123 1266.8332,-116.8214 1161.7985,-91.7376 1107.0701,-78.9998"/>
<polygon fill="#191970" stroke="#191970" points="1107.6878,-75.5503 1097.1555,-76.6992 1106.1055,-82.3691 1107.6878,-75.5503"/>
</g>
<!-- Node30&#45;&gt;Node6 -->
<g id="edge56" class="edge">
<title>Node30&#45;&gt;Node6</title>
<path fill="none" stroke="#191970" d="M1216.2184,-192.9764C1134.6085,-178.4342 1003.4773,-155.0678 942.9895,-144.2893"/>
<polygon fill="#191970" stroke="#191970" points="943.3431,-140.7973 932.8842,-142.4887 942.1151,-147.6888 943.3431,-140.7973"/>
</g>
<!-- Node30&#45;&gt;Node22 -->
<g id="edge59" class="edge">
<title>Node30&#45;&gt;Node22</title>
<path fill="none" stroke="#191970" d="M1276.0619,-190.2967C1269.1732,-180.2631 1260.1158,-167.0709 1252.866,-156.5113"/>
<polygon fill="#191970" stroke="#191970" points="1255.6056,-154.318 1247.0601,-148.055 1249.8348,-158.28 1255.6056,-154.318"/>
</g>
<!-- Node31 -->
<g id="node32" class="node">
<title>Node31</title>
<g id="a_node32"><a xlink:href="never__destroyed_8h.html" target="_top" xlink:title="drake/common/never\l_destroyed.h">
<polygon fill="#ffffff" stroke="#000000" points="1359,-123.5 1359,-153.5 1480,-153.5 1480,-123.5 1359,-123.5"/>
<text text-anchor="start" x="1367" y="-141.5" font-family="Helvetica,sans-Serif" font-size="10.00" fill="#000000">drake/common/never</text>
<text text-anchor="middle" x="1419.5" y="-130.5" font-family="Helvetica,sans-Serif" font-size="10.00" fill="#000000">_destroyed.h</text>
</a>
</g>
</g>
<!-- Node30&#45;&gt;Node31 -->
<g id="edge60" class="edge">
<title>Node30&#45;&gt;Node31</title>
<path fill="none" stroke="#191970" d="M1316.3478,-190.4639C1335.2099,-180.9619 1359.7931,-168.5779 1380.2293,-158.283"/>
<polygon fill="#191970" stroke="#191970" points="1381.9355,-161.3425 1389.2917,-153.7177 1378.7862,-155.091 1381.9355,-161.3425"/>
</g>
<!-- Node31&#45;&gt;Node3 -->
<g id="edge63" class="edge">
<title>Node31&#45;&gt;Node3</title>
<path fill="none" stroke="#191970" d="M1358.8424,-127.9479C1302.6305,-117.9973 1216.7456,-102.3572 1142.5,-87 1130.8798,-84.5964 1118.1912,-81.7616 1106.9551,-79.178"/>
<polygon fill="#191970" stroke="#191970" points="1107.6492,-75.7462 1097.1169,-76.8955 1106.0672,-82.5651 1107.6492,-75.7462"/>
</g>
<!-- Node31&#45;&gt;Node9 -->
<g id="edge64" class="edge">
<title>Node31&#45;&gt;Node9</title>
<path fill="none" stroke="#191970" d="M1373.0452,-123.4639C1342.258,-113.499 1301.6775,-100.3642 1269.0189,-89.7936"/>
<polygon fill="#191970" stroke="#191970" points="1269.7493,-86.3513 1259.1575,-86.6017 1267.5937,-93.0111 1269.7493,-86.3513"/>
</g>
<!-- Node31&#45;&gt;Node21 -->
<g id="edge62" class="edge">
<title>Node31&#45;&gt;Node21</title>
<path fill="none" stroke="#191970" d="M1397.3017,-123.3634C1370.6412,-105.6306 1324.1666,-76.1218 1281.5,-56 1253.3067,-42.7039 1220.1592,-30.9623 1194.5252,-22.67"/>
<polygon fill="#191970" stroke="#191970" points="1195.3339,-19.2544 1184.7433,-19.5545 1193.2095,-25.9242 1195.3339,-19.2544"/>
</g>
<!-- Node32 -->
<g id="node33" class="node">
<title>Node32</title>
<polygon fill="#ffffff" stroke="#bfbfbf" points="1401,-62 1401,-81 1438,-81 1438,-62 1401,-62"/>
<text text-anchor="middle" x="1419.5" y="-69" font-family="Helvetica,sans-Serif" font-size="10.00" fill="#000000">new</text>
</g>
<!-- Node31&#45;&gt;Node32 -->
<g id="edge61" class="edge">
<title>Node31&#45;&gt;Node32</title>
<path fill="none" stroke="#191970" d="M1419.5,-123.2967C1419.5,-113.7699 1419.5,-101.3954 1419.5,-91.1306"/>
<polygon fill="#191970" stroke="#191970" points="1423.0001,-91.0549 1419.5,-81.055 1416.0001,-91.055 1423.0001,-91.0549"/>
</g>
</g>
</svg>
