<?xml version="1.0" encoding="UTF-8" standalone="no"?>
<!DOCTYPE svg PUBLIC "-//W3C//DTD SVG 1.1//EN"
 "http://www.w3.org/Graphics/SVG/1.1/DTD/svg11.dtd">
<!-- Generated by graphviz version 2.40.1 (20161225.0304)
 -->
<!-- Title: drake/common/test_utilities/measure_execution.h Pages: 1 -->
<svg width="162pt" height="117pt"
 viewBox="0.00 0.00 162.00 117.00" xmlns="http://www.w3.org/2000/svg" xmlns:xlink="http://www.w3.org/1999/xlink">
<g id="graph0" class="graph" transform="scale(1 1) rotate(0) translate(4 113)">
<title>drake/common/test_utilities/measure_execution.h</title>
<polygon fill="#ffffff" stroke="transparent" points="-4,4 -4,-113 158,-113 158,4 -4,4"/>
<!-- Node3 -->
<g id="node1" class="node">
<title>Node3</title>
<polygon fill="#bfbfbf" stroke="#000000" points="0,-78.5 0,-108.5 154,-108.5 154,-78.5 0,-78.5"/>
<text text-anchor="start" x="8" y="-96.5" font-family="Helvetica,sans-Serif" font-size="10.00" fill="#000000">drake/common/test_utilities</text>
<text text-anchor="middle" x="77" y="-85.5" font-family="Helvetica,sans-Serif" font-size="10.00" fill="#000000">/measure_execution.h</text>
</g>
<!-- Node4 -->
<g id="node2" class="node">
<title>Node4</title>
<g id="a_node2"><a xlink:href="benchmark__rigid__body__tree_8cc.html" target="_top" xlink:title="drake/attic/multibody\l/test/benchmark_rigid\l_body_tree.cc">
<polygon fill="#ffffff" stroke="#000000" points="15.5,-.5 15.5,-41.5 138.5,-41.5 138.5,-.5 15.5,-.5"/>
<text text-anchor="start" x="23.5" y="-29.5" font-family="Helvetica,sans-Serif" font-size="10.00" fill="#000000">drake/attic/multibody</text>
<text text-anchor="start" x="23.5" y="-18.5" font-family="Helvetica,sans-Serif" font-size="10.00" fill="#000000">/test/benchmark_rigid</text>
<text text-anchor="middle" x="77" y="-7.5" font-family="Helvetica,sans-Serif" font-size="10.00" fill="#000000">_body_tree.cc</text>
</a>
</g>
</g>
<!-- Node3&#45;&gt;Node4 -->
<g id="edge1" class="edge">
<title>Node3&#45;&gt;Node4</title>
<path fill="none" stroke="#191970" d="M77,-68.4016C77,-59.6173 77,-49.8652 77,-41.5015"/>
<polygon fill="#191970" stroke="#191970" points="73.5001,-68.4779 77,-78.478 80.5001,-68.478 73.5001,-68.4779"/>
</g>
</g>
</svg>
