<?xml version="1.0" encoding="UTF-8" standalone="no"?>
<!DOCTYPE svg PUBLIC "-//W3C//DTD SVG 1.1//EN"
 "http://www.w3.org/Graphics/SVG/1.1/DTD/svg11.dtd">
<!-- Generated by graphviz version 2.40.1 (20161225.0304)
 -->
<!-- Title: drake/automotive/maliput/utility/mesh_simplification.h Pages: 1 -->
<svg width="524pt" height="117pt"
 viewBox="0.00 0.00 524.00 117.00" xmlns="http://www.w3.org/2000/svg" xmlns:xlink="http://www.w3.org/1999/xlink">
<g id="graph0" class="graph" transform="scale(1 1) rotate(0) translate(4 113)">
<title>drake/automotive/maliput/utility/mesh_simplification.h</title>
<polygon fill="#ffffff" stroke="transparent" points="-4,4 -4,-113 520,-113 520,4 -4,4"/>
<!-- Node77 -->
<g id="node1" class="node">
<title>Node77</title>
<polygon fill="#bfbfbf" stroke="#000000" points="164.5,-78.5 164.5,-108.5 323.5,-108.5 323.5,-78.5 164.5,-78.5"/>
<text text-anchor="start" x="172.5" y="-96.5" font-family="Helvetica,sans-Serif" font-size="10.00" fill="#000000">drake/automotive/maliput</text>
<text text-anchor="middle" x="244" y="-85.5" font-family="Helvetica,sans-Serif" font-size="10.00" fill="#000000">/utility/mesh_simplification.h</text>
</g>
<!-- Node78 -->
<g id="node2" class="node">
<title>Node78</title>
<g id="a_node2"><a xlink:href="generate__obj_8cc.html" target="_top" xlink:title="drake/automotive/maliput\l/utility/generate_obj.cc">
<polygon fill="#ffffff" stroke="#000000" points="0,-6 0,-36 144,-36 144,-6 0,-6"/>
<text text-anchor="start" x="8" y="-24" font-family="Helvetica,sans-Serif" font-size="10.00" fill="#000000">drake/automotive/maliput</text>
<text text-anchor="middle" x="72" y="-13" font-family="Helvetica,sans-Serif" font-size="10.00" fill="#000000">/utility/generate_obj.cc</text>
</a>
</g>
</g>
<!-- Node77&#45;&gt;Node78 -->
<g id="edge1" class="edge">
<title>Node77&#45;&gt;Node78</title>
<path fill="none" stroke="#191970" d="M199.0147,-74.5382C170.4893,-62.5144 134.1029,-47.1771 107.5929,-36.0028"/>
<polygon fill="#191970" stroke="#191970" points="197.7872,-77.8189 208.3615,-78.478 200.5061,-71.3685 197.7872,-77.8189"/>
</g>
<!-- Node79 -->
<g id="node3" class="node">
<title>Node79</title>
<g id="a_node3"><a xlink:href="mesh__simplification_8cc.html" target="_top" xlink:title="drake/automotive/maliput\l/utility/mesh_simplification.cc">
<polygon fill="#ffffff" stroke="#000000" points="162,-6 162,-36 326,-36 326,-6 162,-6"/>
<text text-anchor="start" x="170" y="-24" font-family="Helvetica,sans-Serif" font-size="10.00" fill="#000000">drake/automotive/maliput</text>
<text text-anchor="middle" x="244" y="-13" font-family="Helvetica,sans-Serif" font-size="10.00" fill="#000000">/utility/mesh_simplification.cc</text>
</a>
</g>
</g>
<!-- Node77&#45;&gt;Node79 -->
<g id="edge2" class="edge">
<title>Node77&#45;&gt;Node79</title>
<path fill="none" stroke="#191970" d="M244,-68.3409C244,-57.5601 244,-45.3309 244,-36.0028"/>
<polygon fill="#191970" stroke="#191970" points="240.5001,-68.4779 244,-78.478 247.5001,-68.478 240.5001,-68.4779"/>
</g>
<!-- Node80 -->
<g id="node4" class="node">
<title>Node80</title>
<g id="a_node4"><a xlink:href="mesh__simplification__test_8cc.html" target="_top" xlink:title="drake/automotive/maliput\l/utility/test/mesh_simplification\l_test.cc">
<polygon fill="#ffffff" stroke="#000000" points="344,-.5 344,-41.5 516,-41.5 516,-.5 344,-.5"/>
<text text-anchor="start" x="352" y="-29.5" font-family="Helvetica,sans-Serif" font-size="10.00" fill="#000000">drake/automotive/maliput</text>
<text text-anchor="start" x="352" y="-18.5" font-family="Helvetica,sans-Serif" font-size="10.00" fill="#000000">/utility/test/mesh_simplification</text>
<text text-anchor="middle" x="430" y="-7.5" font-family="Helvetica,sans-Serif" font-size="10.00" fill="#000000">_test.cc</text>
</a>
</g>
</g>
<!-- Node77&#45;&gt;Node80 -->
<g id="edge3" class="edge">
<title>Node77&#45;&gt;Node80</title>
<path fill="none" stroke="#191970" d="M291.8762,-74.8386C318.0519,-64.6357 350.5225,-51.9791 377.403,-41.5015"/>
<polygon fill="#191970" stroke="#191970" points="290.5854,-71.5851 282.5393,-78.478 293.1277,-78.1072 290.5854,-71.5851"/>
</g>
</g>
</svg>
