<?xml version="1.0" encoding="UTF-8" standalone="no"?>
<!DOCTYPE svg PUBLIC "-//W3C//DTD SVG 1.1//EN"
 "http://www.w3.org/Graphics/SVG/1.1/DTD/svg11.dtd">
<!-- Generated by graphviz version 2.40.1 (20161225.0304)
 -->
<!-- Title: drake/solvers/mixed_integer_rotation_constraint_internal.h Pages: 1 -->
<svg width="648pt" height="128pt"
 viewBox="0.00 0.00 647.50 128.00" xmlns="http://www.w3.org/2000/svg" xmlns:xlink="http://www.w3.org/1999/xlink">
<g id="graph0" class="graph" transform="scale(1 1) rotate(0) translate(4 124)">
<title>drake/solvers/mixed_integer_rotation_constraint_internal.h</title>
<polygon fill="#ffffff" stroke="transparent" points="-4,4 -4,-124 643.5,-124 643.5,4 -4,4"/>
<!-- Node3 -->
<g id="node1" class="node">
<title>Node3</title>
<polygon fill="#bfbfbf" stroke="#000000" points="270.5,-78.5 270.5,-119.5 424.5,-119.5 424.5,-78.5 270.5,-78.5"/>
<text text-anchor="start" x="278.5" y="-107.5" font-family="Helvetica,sans-Serif" font-size="10.00" fill="#000000">drake/solvers/mixed</text>
<text text-anchor="start" x="278.5" y="-96.5" font-family="Helvetica,sans-Serif" font-size="10.00" fill="#000000">_integer_rotation_constraint</text>
<text text-anchor="middle" x="347.5" y="-85.5" font-family="Helvetica,sans-Serif" font-size="10.00" fill="#000000">_internal.h</text>
</g>
<!-- Node4 -->
<g id="node2" class="node">
<title>Node4</title>
<g id="a_node2"><a xlink:href="mixed__integer__rotation__constraint_8cc.html" target="_top" xlink:title="drake/solvers/mixed\l_integer_rotation_constraint.cc">
<polygon fill="#ffffff" stroke="#000000" points="0,-6 0,-36 167,-36 167,-6 0,-6"/>
<text text-anchor="start" x="8" y="-24" font-family="Helvetica,sans-Serif" font-size="10.00" fill="#000000">drake/solvers/mixed</text>
<text text-anchor="middle" x="83.5" y="-13" font-family="Helvetica,sans-Serif" font-size="10.00" fill="#000000">_integer_rotation_constraint.cc</text>
</a>
</g>
</g>
<!-- Node3&#45;&gt;Node4 -->
<g id="edge1" class="edge">
<title>Node3&#45;&gt;Node4</title>
<path fill="none" stroke="#191970" d="M268.1096,-75.5437C224.7048,-62.7196 172.226,-47.2145 134.3329,-36.0188"/>
<polygon fill="#191970" stroke="#191970" points="267.2099,-78.9274 277.7918,-78.4044 269.1933,-72.2143 267.2099,-78.9274"/>
</g>
<!-- Node5 -->
<g id="node3" class="node">
<title>Node5</title>
<g id="a_node3"><a xlink:href="mixed__integer__rotation__constraint__internal_8cc.html" target="_top" xlink:title="drake/solvers/mixed\l_integer_rotation_constraint\l_internal.cc">
<polygon fill="#ffffff" stroke="#000000" points="185.5,-.5 185.5,-41.5 339.5,-41.5 339.5,-.5 185.5,-.5"/>
<text text-anchor="start" x="193.5" y="-29.5" font-family="Helvetica,sans-Serif" font-size="10.00" fill="#000000">drake/solvers/mixed</text>
<text text-anchor="start" x="193.5" y="-18.5" font-family="Helvetica,sans-Serif" font-size="10.00" fill="#000000">_integer_rotation_constraint</text>
<text text-anchor="middle" x="262.5" y="-7.5" font-family="Helvetica,sans-Serif" font-size="10.00" fill="#000000">_internal.cc</text>
</a>
</g>
</g>
<!-- Node3&#45;&gt;Node5 -->
<g id="edge2" class="edge">
<title>Node3&#45;&gt;Node5</title>
<path fill="none" stroke="#191970" d="M317.2367,-71.229C306.6295,-61.4953 294.9105,-50.7414 285.0466,-41.6898"/>
<polygon fill="#191970" stroke="#191970" points="314.9872,-73.915 324.7216,-78.0974 319.72,-68.7574 314.9872,-73.915"/>
</g>
<!-- Node6 -->
<g id="node4" class="node">
<title>Node6</title>
<g id="a_node4"><a xlink:href="mixed__integer__rotation__constraint__internal__test_8cc.html" target="_top" xlink:title="drake/solvers/test\l/mixed_integer_rotation\l_constraint_internal_test.cc">
<polygon fill="#ffffff" stroke="#000000" points="358,-.5 358,-41.5 509,-41.5 509,-.5 358,-.5"/>
<text text-anchor="start" x="366" y="-29.5" font-family="Helvetica,sans-Serif" font-size="10.00" fill="#000000">drake/solvers/test</text>
<text text-anchor="start" x="366" y="-18.5" font-family="Helvetica,sans-Serif" font-size="10.00" fill="#000000">/mixed_integer_rotation</text>
<text text-anchor="middle" x="433.5" y="-7.5" font-family="Helvetica,sans-Serif" font-size="10.00" fill="#000000">_constraint_internal_test.cc</text>
</a>
</g>
</g>
<!-- Node3&#45;&gt;Node6 -->
<g id="edge3" class="edge">
<title>Node3&#45;&gt;Node6</title>
<path fill="none" stroke="#191970" d="M378.1193,-71.229C388.8513,-61.4953 400.7082,-50.7414 410.6882,-41.6898"/>
<polygon fill="#191970" stroke="#191970" points="375.6023,-68.7867 370.5464,-78.0974 380.305,-73.9718 375.6023,-68.7867"/>
</g>
<!-- Node7 -->
<g id="node5" class="node">
<title>Node7</title>
<g id="a_node5"><a xlink:href="rotation__constraint__visualization_8cc.html" target="_top" xlink:title="drake/solvers/test\l/rotation_constraint\l_visualization.cc">
<polygon fill="#ffffff" stroke="#000000" points="527.5,-.5 527.5,-41.5 639.5,-41.5 639.5,-.5 527.5,-.5"/>
<text text-anchor="start" x="535.5" y="-29.5" font-family="Helvetica,sans-Serif" font-size="10.00" fill="#000000">drake/solvers/test</text>
<text text-anchor="start" x="535.5" y="-18.5" font-family="Helvetica,sans-Serif" font-size="10.00" fill="#000000">/rotation_constraint</text>
<text text-anchor="middle" x="583.5" y="-7.5" font-family="Helvetica,sans-Serif" font-size="10.00" fill="#000000">_visualization.cc</text>
</a>
</g>
</g>
<!-- Node3&#45;&gt;Node7 -->
<g id="edge4" class="edge">
<title>Node3&#45;&gt;Node7</title>
<path fill="none" stroke="#191970" d="M419.4069,-75.2342C454.0498,-63.7844 494.9816,-50.2561 527.2983,-39.5751"/>
<polygon fill="#191970" stroke="#191970" points="418.2114,-71.943 409.8149,-78.4044 420.4081,-78.5894 418.2114,-71.943"/>
</g>
</g>
</svg>
