<?xml version="1.0" encoding="UTF-8" standalone="no"?>
<!DOCTYPE svg PUBLIC "-//W3C//DTD SVG 1.1//EN"
 "http://www.w3.org/Graphics/SVG/1.1/DTD/svg11.dtd">
<!-- Generated by graphviz version 2.40.1 (20161225.0304)
 -->
<!-- Title: drake/solvers/mixed_integer_optimization_util.h Pages: 1 -->
<!--zoomable 206 -->
<svg id="main" version="1.1" xmlns="http://www.w3.org/2000/svg" xmlns:xlink="http://www.w3.org/1999/xlink" xml:space="preserve" onload="init(evt)">
<style type="text/css"><![CDATA[
.edge:hover path { stroke: red; }
.edge:hover polygon { stroke: red; fill: red; }
]]></style>
<script type="text/javascript"><![CDATA[
var edges = document.getElementsByTagName('g');
if (edges && edges.length) {
  for (var i=0;i<edges.length;i++) {
    if (edges[i].id.substr(0,4)=='edge') {
      edges[i].setAttribute('class','edge');
    }
  }
}
]]></script>
        <defs>
                <circle id="rim" cx="0" cy="0" r="7"/>
                <circle id="rim2" cx="0" cy="0" r="3.5"/>
                <g id="zoomPlus">
                        <use xlink:href="#rim" fill="#404040">
                                <set attributeName="fill" to="#808080" begin="zoomplus.mouseover" end="zoomplus.mouseout"/>
                        </use>
                        <path d="M-4,0h8M0,-4v8" fill="none" stroke="white" stroke-width="1.5" pointer-events="none"/>
                </g>
                <g id="zoomMin">
                        <use xlink:href="#rim" fill="#404040">
                                <set attributeName="fill" to="#808080" begin="zoomminus.mouseover" end="zoomminus.mouseout"/>
                        </use>
                        <path d="M-4,0h8" fill="none" stroke="white" stroke-width="1.5" pointer-events="none"/>
                </g>
                <g id="dirArrow">
                        <path fill="none" stroke="white" stroke-width="1.5" d="M0,-3.0v7 M-2.5,-0.5L0,-3.0L2.5,-0.5"/>
                </g>
               <g id="resetDef">
                       <use xlink:href="#rim2" fill="#404040">
                               <set attributeName="fill" to="#808080" begin="reset.mouseover" end="reset.mouseout"/>
                       </use>
               </g>
        </defs>

<script type="text/javascript">
var viewWidth = 1165;
var viewHeight = 206;
var sectionId = 'dynsection-1';
</script>
<script xlink:href="svgpan.js"/>
<svg id="graph" class="graph">
<g id="viewport">
<title>drake/solvers/mixed_integer_optimization_util.h</title>
<polygon fill="#ffffff" stroke="transparent" points="-4,4 -4,-202 1161,-202 1161,4 -4,4"/>
<!-- Node90 -->
<g id="node1" class="node">
<title>Node90</title>
<polygon fill="#bfbfbf" stroke="#000000" points="705,-156.5 705,-197.5 828,-197.5 828,-156.5 705,-156.5"/>
<text text-anchor="start" x="713" y="-185.5" font-family="Helvetica,sans-Serif" font-size="10.00" fill="#000000">drake/solvers/mixed</text>
<text text-anchor="start" x="713" y="-174.5" font-family="Helvetica,sans-Serif" font-size="10.00" fill="#000000">_integer_optimization</text>
<text text-anchor="middle" x="766.5" y="-163.5" font-family="Helvetica,sans-Serif" font-size="10.00" fill="#000000">_util.h</text>
</g>
<!-- Node91 -->
<g id="node2" class="node">
<title>Node91</title>
<g id="a_node2"><a xlink:href="mixed__integer__optimization__util_8cc.html" target="_top" xlink:title="drake/solvers/mixed\l_integer_optimization\l_util.cc">
<polygon fill="#ffffff" stroke="#000000" points="370,-78.5 370,-119.5 493,-119.5 493,-78.5 370,-78.5"/>
<text text-anchor="start" x="378" y="-107.5" font-family="Helvetica,sans-Serif" font-size="10.00" fill="#000000">drake/solvers/mixed</text>
<text text-anchor="start" x="378" y="-96.5" font-family="Helvetica,sans-Serif" font-size="10.00" fill="#000000">_integer_optimization</text>
<text text-anchor="middle" x="431.5" y="-85.5" font-family="Helvetica,sans-Serif" font-size="10.00" fill="#000000">_util.cc</text>
</a>
</g>
</g>
<!-- Node90&#45;&gt;Node91 -->
<g id="edge1" class="edge">
<title>Node90&#45;&gt;Node91</title>
<path fill="none" stroke="#191970" d="M694.7876,-163.1833C641.2647,-152.4821 566.4752,-136.7059 501.5,-120 498.7966,-119.3049 496.0409,-118.5742 493.2618,-117.8191"/>
<polygon fill="#191970" stroke="#191970" points="694.372,-166.6691 704.8628,-165.188 695.7381,-159.8037 694.372,-166.6691"/>
</g>
<!-- Node92 -->
<g id="node3" class="node">
<title>Node92</title>
<g id="a_node3"><a xlink:href="mixed__integer__rotation__constraint_8h.html" target="_top" xlink:title="drake/solvers/mixed\l_integer_rotation_constraint.h">
<polygon fill="#ffffff" stroke="#000000" points="511,-84 511,-114 674,-114 674,-84 511,-84"/>
<text text-anchor="start" x="519" y="-102" font-family="Helvetica,sans-Serif" font-size="10.00" fill="#000000">drake/solvers/mixed</text>
<text text-anchor="middle" x="592.5" y="-91" font-family="Helvetica,sans-Serif" font-size="10.00" fill="#000000">_integer_rotation_constraint.h</text>
</a>
</g>
</g>
<!-- Node90&#45;&gt;Node92 -->
<g id="edge2" class="edge">
<title>Node90&#45;&gt;Node92</title>
<path fill="none" stroke="#191970" d="M711.0769,-152.1552C683.1722,-139.6462 650.2531,-124.8893 626.1891,-114.102"/>
<polygon fill="#191970" stroke="#191970" points="709.7712,-155.4054 720.328,-156.3022 712.6346,-149.0178 709.7712,-155.4054"/>
</g>
<!-- Node100 -->
<g id="node11" class="node">
<title>Node100</title>
<g id="a_node11"><a xlink:href="branch__and__bound__test_8cc.html" target="_top" xlink:title="drake/solvers/test\l/branch_and_bound_test.cc">
<polygon fill="#ffffff" stroke="#000000" points="692,-84 692,-114 841,-114 841,-84 692,-84"/>
<text text-anchor="start" x="700" y="-102" font-family="Helvetica,sans-Serif" font-size="10.00" fill="#000000">drake/solvers/test</text>
<text text-anchor="middle" x="766.5" y="-91" font-family="Helvetica,sans-Serif" font-size="10.00" fill="#000000">/branch_and_bound_test.cc</text>
</a>
</g>
</g>
<!-- Node90&#45;&gt;Node100 -->
<g id="edge10" class="edge">
<title>Node90&#45;&gt;Node100</title>
<path fill="none" stroke="#191970" d="M766.5,-146.0187C766.5,-135.1033 766.5,-123.3119 766.5,-114.2679"/>
<polygon fill="#191970" stroke="#191970" points="763.0001,-146.0974 766.5,-156.0974 770.0001,-146.0975 763.0001,-146.0974"/>
</g>
<!-- Node101 -->
<g id="node12" class="node">
<title>Node101</title>
<g id="a_node12"><a xlink:href="gurobi__solver__test_8cc.html" target="_top" xlink:title="drake/solvers/test\l/gurobi_solver_test.cc">
<polygon fill="#ffffff" stroke="#000000" points="859,-84 859,-114 982,-114 982,-84 859,-84"/>
<text text-anchor="start" x="867" y="-102" font-family="Helvetica,sans-Serif" font-size="10.00" fill="#000000">drake/solvers/test</text>
<text text-anchor="middle" x="920.5" y="-91" font-family="Helvetica,sans-Serif" font-size="10.00" fill="#000000">/gurobi_solver_test.cc</text>
</a>
</g>
</g>
<!-- Node90&#45;&gt;Node101 -->
<g id="edge11" class="edge">
<title>Node90&#45;&gt;Node101</title>
<path fill="none" stroke="#191970" d="M816.5212,-151.6646C841.0086,-139.2619 869.663,-124.7486 890.6832,-114.102"/>
<polygon fill="#191970" stroke="#191970" points="814.7044,-148.6614 807.3649,-156.3022 817.8673,-154.9061 814.7044,-148.6614"/>
</g>
<!-- Node102 -->
<g id="node13" class="node">
<title>Node102</title>
<g id="a_node13"><a xlink:href="mixed__integer__optimization__util__test_8cc.html" target="_top" xlink:title="drake/solvers/test\l/mixed_integer_optimization\l_util_test.cc">
<polygon fill="#ffffff" stroke="#000000" points="1000,-78.5 1000,-119.5 1157,-119.5 1157,-78.5 1000,-78.5"/>
<text text-anchor="start" x="1008" y="-107.5" font-family="Helvetica,sans-Serif" font-size="10.00" fill="#000000">drake/solvers/test</text>
<text text-anchor="start" x="1008" y="-96.5" font-family="Helvetica,sans-Serif" font-size="10.00" fill="#000000">/mixed_integer_optimization</text>
<text text-anchor="middle" x="1078.5" y="-85.5" font-family="Helvetica,sans-Serif" font-size="10.00" fill="#000000">_util_test.cc</text>
</a>
</g>
</g>
<!-- Node90&#45;&gt;Node102 -->
<g id="edge12" class="edge">
<title>Node90&#45;&gt;Node102</title>
<path fill="none" stroke="#191970" d="M837.8932,-159.1517C886.1931,-147.0767 950.0069,-131.1233 999.7787,-118.6803"/>
<polygon fill="#191970" stroke="#191970" points="836.9937,-155.7688 828.1412,-161.5897 838.6915,-162.5598 836.9937,-155.7688"/>
</g>
<!-- Node93 -->
<g id="node4" class="node">
<title>Node93</title>
<g id="a_node4"><a xlink:href="global__inverse__kinematics_8h.html" target="_top" xlink:title="drake/attic/multibody\l/global_inverse_kinematics.h">
<polygon fill="#ffffff" stroke="#000000" points="0,-6 0,-36 159,-36 159,-6 0,-6"/>
<text text-anchor="start" x="8" y="-24" font-family="Helvetica,sans-Serif" font-size="10.00" fill="#000000">drake/attic/multibody</text>
<text text-anchor="middle" x="79.5" y="-13" font-family="Helvetica,sans-Serif" font-size="10.00" fill="#000000">/global_inverse_kinematics.h</text>
</a>
</g>
</g>
<!-- Node92&#45;&gt;Node93 -->
<g id="edge3" class="edge">
<title>Node92&#45;&gt;Node93</title>
<path fill="none" stroke="#191970" d="M521.9511,-81.8495C515.0621,-80.437 508.16,-79.1233 501.5,-78 354.275,-53.1695 314.6314,-67.3792 167.5,-42 157.9035,-40.3447 147.7937,-38.2594 137.9821,-36.0495"/>
<polygon fill="#191970" stroke="#191970" points="521.4969,-85.3309 532.0051,-83.9789 522.9474,-78.4828 521.4969,-85.3309"/>
</g>
<!-- Node94 -->
<g id="node5" class="node">
<title>Node94</title>
<g id="a_node5"><a xlink:href="mixed__integer__rotation__constraint_8cc.html" target="_top" xlink:title="drake/solvers/mixed\l_integer_rotation_constraint.cc">
<polygon fill="#ffffff" stroke="#000000" points="177,-6 177,-36 344,-36 344,-6 177,-6"/>
<text text-anchor="start" x="185" y="-24" font-family="Helvetica,sans-Serif" font-size="10.00" fill="#000000">drake/solvers/mixed</text>
<text text-anchor="middle" x="260.5" y="-13" font-family="Helvetica,sans-Serif" font-size="10.00" fill="#000000">_integer_rotation_constraint.cc</text>
</a>
</g>
</g>
<!-- Node92&#45;&gt;Node94 -->
<g id="edge4" class="edge">
<title>Node92&#45;&gt;Node94</title>
<path fill="none" stroke="#191970" d="M518.6172,-81.642C460.4169,-67.9684 380.1102,-49.1012 324.599,-36.0594"/>
<polygon fill="#191970" stroke="#191970" points="517.9516,-85.0808 528.4871,-83.9608 519.5526,-78.2664 517.9516,-85.0808"/>
</g>
<!-- Node95 -->
<g id="node6" class="node">
<title>Node95</title>
<g id="a_node6"><a xlink:href="mixed__integer__rotation__constraint__corner__test_8cc.html" target="_top" xlink:title="drake/solvers/test\l/mixed_integer_rotation\l_constraint_corner_test.cc">
<polygon fill="#ffffff" stroke="#000000" points="362.5,-.5 362.5,-41.5 506.5,-41.5 506.5,-.5 362.5,-.5"/>
<text text-anchor="start" x="370.5" y="-29.5" font-family="Helvetica,sans-Serif" font-size="10.00" fill="#000000">drake/solvers/test</text>
<text text-anchor="start" x="370.5" y="-18.5" font-family="Helvetica,sans-Serif" font-size="10.00" fill="#000000">/mixed_integer_rotation</text>
<text text-anchor="middle" x="434.5" y="-7.5" font-family="Helvetica,sans-Serif" font-size="10.00" fill="#000000">_constraint_corner_test.cc</text>
</a>
</g>
</g>
<!-- Node92&#45;&gt;Node95 -->
<g id="edge5" class="edge">
<title>Node92&#45;&gt;Node95</title>
<path fill="none" stroke="#191970" d="M552.763,-79.383C529.4068,-67.8527 499.911,-53.2915 476.2193,-41.5956"/>
<polygon fill="#191970" stroke="#191970" points="551.5198,-82.6725 562.036,-83.9608 554.6185,-76.3957 551.5198,-82.6725"/>
</g>
<!-- Node96 -->
<g id="node7" class="node">
<title>Node96</title>
<g id="a_node7"><a xlink:href="mixed__integer__rotation__constraint__limit__test_8cc.html" target="_top" xlink:title="drake/solvers/test\l/mixed_integer_rotation\l_constraint_limit_test.cc">
<polygon fill="#ffffff" stroke="#000000" points="524.5,-.5 524.5,-41.5 660.5,-41.5 660.5,-.5 524.5,-.5"/>
<text text-anchor="start" x="532.5" y="-29.5" font-family="Helvetica,sans-Serif" font-size="10.00" fill="#000000">drake/solvers/test</text>
<text text-anchor="start" x="532.5" y="-18.5" font-family="Helvetica,sans-Serif" font-size="10.00" fill="#000000">/mixed_integer_rotation</text>
<text text-anchor="middle" x="592.5" y="-7.5" font-family="Helvetica,sans-Serif" font-size="10.00" fill="#000000">_constraint_limit_test.cc</text>
</a>
</g>
</g>
<!-- Node92&#45;&gt;Node96 -->
<g id="edge6" class="edge">
<title>Node92&#45;&gt;Node96</title>
<path fill="none" stroke="#191970" d="M592.5,-73.8044C592.5,-63.3919 592.5,-51.4721 592.5,-41.5956"/>
<polygon fill="#191970" stroke="#191970" points="589.0001,-73.9608 592.5,-83.9608 596.0001,-73.9608 589.0001,-73.9608"/>
</g>
<!-- Node97 -->
<g id="node8" class="node">
<title>Node97</title>
<g id="a_node8"><a xlink:href="mixed__integer__rotation__constraint__test_8cc.html" target="_top" xlink:title="drake/solvers/test\l/mixed_integer_rotation\l_constraint_test.cc">
<polygon fill="#ffffff" stroke="#000000" points="678.5,-.5 678.5,-41.5 812.5,-41.5 812.5,-.5 678.5,-.5"/>
<text text-anchor="start" x="686.5" y="-29.5" font-family="Helvetica,sans-Serif" font-size="10.00" fill="#000000">drake/solvers/test</text>
<text text-anchor="start" x="686.5" y="-18.5" font-family="Helvetica,sans-Serif" font-size="10.00" fill="#000000">/mixed_integer_rotation</text>
<text text-anchor="middle" x="745.5" y="-7.5" font-family="Helvetica,sans-Serif" font-size="10.00" fill="#000000">_constraint_test.cc</text>
</a>
</g>
</g>
<!-- Node92&#45;&gt;Node97 -->
<g id="edge7" class="edge">
<title>Node92&#45;&gt;Node97</title>
<path fill="none" stroke="#191970" d="M630.9795,-79.383C653.5966,-67.8527 682.159,-53.2915 705.1009,-41.5956"/>
<polygon fill="#191970" stroke="#191970" points="629.3193,-76.3007 621.9999,-83.9608 632.4987,-82.5371 629.3193,-76.3007"/>
</g>
<!-- Node98 -->
<g id="node9" class="node">
<title>Node98</title>
<g id="a_node9"><a xlink:href="plot__feasible__rotation__matrices_8cc.html" target="_top" xlink:title="drake/solvers/test\l/plot_feasible_rotation\l_matrices.cc">
<polygon fill="#ffffff" stroke="#000000" points="830.5,-.5 830.5,-41.5 956.5,-41.5 956.5,-.5 830.5,-.5"/>
<text text-anchor="start" x="838.5" y="-29.5" font-family="Helvetica,sans-Serif" font-size="10.00" fill="#000000">drake/solvers/test</text>
<text text-anchor="start" x="838.5" y="-18.5" font-family="Helvetica,sans-Serif" font-size="10.00" fill="#000000">/plot_feasible_rotation</text>
<text text-anchor="middle" x="893.5" y="-7.5" font-family="Helvetica,sans-Serif" font-size="10.00" fill="#000000">_matrices.cc</text>
</a>
</g>
</g>
<!-- Node92&#45;&gt;Node98 -->
<g id="edge8" class="edge">
<title>Node92&#45;&gt;Node98</title>
<path fill="none" stroke="#191970" d="M665.8272,-81.5357C710.8592,-70.6153 769.653,-56.0076 821.5,-42 824.3911,-41.2189 827.3439,-40.4086 830.324,-39.5808"/>
<polygon fill="#191970" stroke="#191970" points="664.7515,-78.1949 655.855,-83.9483 666.3976,-84.9986 664.7515,-78.1949"/>
</g>
<!-- Node99 -->
<g id="node10" class="node">
<title>Node99</title>
<g id="a_node10"><a xlink:href="rotation__constraint__visualization_8cc.html" target="_top" xlink:title="drake/solvers/test\l/rotation_constraint\l_visualization.cc">
<polygon fill="#ffffff" stroke="#000000" points="974.5,-.5 974.5,-41.5 1086.5,-41.5 1086.5,-.5 974.5,-.5"/>
<text text-anchor="start" x="982.5" y="-29.5" font-family="Helvetica,sans-Serif" font-size="10.00" fill="#000000">drake/solvers/test</text>
<text text-anchor="start" x="982.5" y="-18.5" font-family="Helvetica,sans-Serif" font-size="10.00" fill="#000000">/rotation_constraint</text>
<text text-anchor="middle" x="1030.5" y="-7.5" font-family="Helvetica,sans-Serif" font-size="10.00" fill="#000000">_visualization.cc</text>
</a>
</g>
</g>
<!-- Node92&#45;&gt;Node99 -->
<g id="edge9" class="edge">
<title>Node92&#45;&gt;Node99</title>
<path fill="none" stroke="#191970" d="M664.2038,-81.7508C670.7113,-80.398 677.2154,-79.1234 683.5,-78 807.879,-55.7668 842.1875,-69.5404 965.5,-42 968.3935,-41.3538 971.3417,-40.6335 974.3064,-39.8598"/>
<polygon fill="#191970" stroke="#191970" points="663.0537,-78.4174 654.0061,-83.9303 664.5168,-85.2628 663.0537,-78.4174"/>
</g>
</g>
</svg>
        <g id="navigator" transform="translate(0 0)" fill="#404254">
                <rect fill="#f2f5e9" fill-opacity="0.5" stroke="#606060" stroke-width=".5" x="0" y="0" width="60" height="60"/>
                <use id="zoomplus" xlink:href="#zoomPlus" x="17" y="9" onmousedown="handleZoom(evt,'in')"/>
                <use id="zoomminus" xlink:href="#zoomMin" x="42" y="9" onmousedown="handleZoom(evt,'out')"/>
                <use id="reset" xlink:href="#resetDef" x="30" y="36" onmousedown="handleReset()"/>
                <g id="arrowUp" xlink:href="#dirArrow" transform="translate(30 24)" onmousedown="handlePan(0,-1)">
                  <use xlink:href="#rim" fill="#404040">
                        <set attributeName="fill" to="#808080" begin="arrowUp.mouseover" end="arrowUp.mouseout"/>
                  </use>
                  <path fill="none" stroke="white" stroke-width="1.5" d="M0,-3.0v7 M-2.5,-0.5L0,-3.0L2.5,-0.5"/>
                </g>
                <g id="arrowRight" xlink:href="#dirArrow" transform="rotate(90) translate(36 -43)" onmousedown="handlePan(1,0)">
                  <use xlink:href="#rim" fill="#404040">
                        <set attributeName="fill" to="#808080" begin="arrowRight.mouseover" end="arrowRight.mouseout"/>
                  </use>
                  <path fill="none" stroke="white" stroke-width="1.5" d="M0,-3.0v7 M-2.5,-0.5L0,-3.0L2.5,-0.5"/>
                </g>
                <g id="arrowDown" xlink:href="#dirArrow" transform="rotate(180) translate(-30 -48)" onmousedown="handlePan(0,1)">
                  <use xlink:href="#rim" fill="#404040">
                        <set attributeName="fill" to="#808080" begin="arrowDown.mouseover" end="arrowDown.mouseout"/>
                  </use>
                  <path fill="none" stroke="white" stroke-width="1.5" d="M0,-3.0v7 M-2.5,-0.5L0,-3.0L2.5,-0.5"/>
                </g>
                <g id="arrowLeft" xlink:href="#dirArrow" transform="rotate(270) translate(-36 17)" onmousedown="handlePan(-1,0)">
                  <use xlink:href="#rim" fill="#404040">
                        <set attributeName="fill" to="#808080" begin="arrowLeft.mouseover" end="arrowLeft.mouseout"/>
                  </use>
                  <path fill="none" stroke="white" stroke-width="1.5" d="M0,-3.0v7 M-2.5,-0.5L0,-3.0L2.5,-0.5"/>
                </g>
        </g>
        <svg viewBox="0 0 15 15" width="100%" height="30px" preserveAspectRatio="xMaxYMin meet">
         <g id="arrow_out" transform="scale(0.3 0.3)">
          <a xlink:href="mixed__integer__optimization__util_8h__dep__incl_org.svg" target="_base">
           <rect id="button" ry="5" rx="5" y="6" x="6" height="38" width="38"
                fill="#f2f5e9" fill-opacity="0.5" stroke="#606060" stroke-width="1.0"/>
           <path id="arrow"
             d="M 11.500037,31.436501 C 11.940474,20.09759 22.043105,11.32322 32.158766,21.979434 L 37.068811,17.246167 C 37.068811,17.246167 37.088388,32 37.088388,32 L 22.160133,31.978069 C 22.160133,31.978069 26.997745,27.140456 26.997745,27.140456 C 18.528582,18.264221 13.291696,25.230495 11.500037,31.436501 z"
             style="fill:#404040;"/>
          </a>
         </g>
        </svg>
</svg>
