<?xml version="1.0" encoding="UTF-8" standalone="no"?>
<!DOCTYPE svg PUBLIC "-//W3C//DTD SVG 1.1//EN"
 "http://www.w3.org/Graphics/SVG/1.1/DTD/svg11.dtd">
<!-- Generated by graphviz version 2.40.1 (20161225.0304)
 -->
<!-- Title: drake/attic/multibody/collision/model.cc Pages: 1 -->
<svg width="366pt" height="162pt"
 viewBox="0.00 0.00 365.50 162.00" xmlns="http://www.w3.org/2000/svg" xmlns:xlink="http://www.w3.org/1999/xlink">
<g id="graph0" class="graph" transform="scale(1 1) rotate(0) translate(4 158)">
<title>drake/attic/multibody/collision/model.cc</title>
<polygon fill="#ffffff" stroke="transparent" points="-4,4 -4,-158 361.5,-158 361.5,4 -4,4"/>
<!-- Node0 -->
<g id="node1" class="node">
<title>Node0</title>
<polygon fill="#bfbfbf" stroke="#000000" points="127,-123.5 127,-153.5 249,-153.5 249,-123.5 127,-123.5"/>
<text text-anchor="start" x="135" y="-141.5" font-family="Helvetica,sans-Serif" font-size="10.00" fill="#000000">drake/attic/multibody</text>
<text text-anchor="middle" x="188" y="-130.5" font-family="Helvetica,sans-Serif" font-size="10.00" fill="#000000">/collision/model.cc</text>
</g>
<!-- Node1 -->
<g id="node2" class="node">
<title>Node1</title>
<polygon fill="#ffffff" stroke="#bfbfbf" points="0,-56.5 0,-86.5 140,-86.5 140,-56.5 0,-56.5"/>
<text text-anchor="start" x="8" y="-74.5" font-family="Helvetica,sans-Serif" font-size="10.00" fill="#000000">drake/multibody/collision</text>
<text text-anchor="middle" x="70" y="-63.5" font-family="Helvetica,sans-Serif" font-size="10.00" fill="#000000">/model.h</text>
</g>
<!-- Node0&#45;&gt;Node1 -->
<g id="edge1" class="edge">
<title>Node0&#45;&gt;Node1</title>
<path fill="none" stroke="#191970" d="M161.5185,-123.4639C145.0852,-114.1332 123.7573,-102.0232 105.8253,-91.8415"/>
<polygon fill="#191970" stroke="#191970" points="107.2256,-88.6117 96.8014,-86.7177 103.7692,-94.699 107.2256,-88.6117"/>
</g>
<!-- Node2 -->
<g id="node3" class="node">
<title>Node2</title>
<polygon fill="#ffffff" stroke="#bfbfbf" points="158,-62 158,-81 218,-81 218,-62 158,-62"/>
<text text-anchor="middle" x="188" y="-69" font-family="Helvetica,sans-Serif" font-size="10.00" fill="#000000">iostream</text>
</g>
<!-- Node0&#45;&gt;Node2 -->
<g id="edge2" class="edge">
<title>Node0&#45;&gt;Node2</title>
<path fill="none" stroke="#191970" d="M188,-123.2967C188,-113.7699 188,-101.3954 188,-91.1306"/>
<polygon fill="#191970" stroke="#191970" points="191.5001,-91.0549 188,-81.055 184.5001,-91.055 191.5001,-91.0549"/>
</g>
<!-- Node3 -->
<g id="node4" class="node">
<title>Node3</title>
<g id="a_node4"><a xlink:href="drake__assert_8h.html" target="_top" xlink:title="Provides Drake&#39;s assertion implementation. ">
<polygon fill="#ffffff" stroke="#000000" points="236.5,-56.5 236.5,-86.5 357.5,-86.5 357.5,-56.5 236.5,-56.5"/>
<text text-anchor="start" x="244.5" y="-74.5" font-family="Helvetica,sans-Serif" font-size="10.00" fill="#000000">drake/common/drake</text>
<text text-anchor="middle" x="297" y="-63.5" font-family="Helvetica,sans-Serif" font-size="10.00" fill="#000000">_assert.h</text>
</a>
</g>
</g>
<!-- Node0&#45;&gt;Node3 -->
<g id="edge3" class="edge">
<title>Node0&#45;&gt;Node3</title>
<path fill="none" stroke="#191970" d="M212.4617,-123.4639C227.5023,-114.2188 246.9817,-102.2452 263.4505,-92.1222"/>
<polygon fill="#191970" stroke="#191970" points="265.5563,-94.9361 272.2428,-86.7177 261.8907,-88.9726 265.5563,-94.9361"/>
</g>
<!-- Node4 -->
<g id="node5" class="node">
<title>Node4</title>
<polygon fill="#ffffff" stroke="#bfbfbf" points="262.5,-.5 262.5,-19.5 331.5,-19.5 331.5,-.5 262.5,-.5"/>
<text text-anchor="middle" x="297" y="-7.5" font-family="Helvetica,sans-Serif" font-size="10.00" fill="#000000">type_traits</text>
</g>
<!-- Node3&#45;&gt;Node4 -->
<g id="edge4" class="edge">
<title>Node3&#45;&gt;Node4</title>
<path fill="none" stroke="#191970" d="M297,-56.2977C297,-48.3834 297,-38.6043 297,-30.0759"/>
<polygon fill="#191970" stroke="#191970" points="300.5001,-29.8469 297,-19.8469 293.5001,-29.847 300.5001,-29.8469"/>
</g>
</g>
</svg>
