<?xml version="1.0" encoding="UTF-8" standalone="no"?>
<!DOCTYPE svg PUBLIC "-//W3C//DTD SVG 1.1//EN"
 "http://www.w3.org/Graphics/SVG/1.1/DTD/svg11.dtd">
<!-- Generated by graphviz version 2.40.1 (20161225.0304)
 -->
<!-- Title: drake/multibody/tree/multibody_tree_topology.h Pages: 1 -->
<!--zoomable 374 -->
<svg id="main" version="1.1" xmlns="http://www.w3.org/2000/svg" xmlns:xlink="http://www.w3.org/1999/xlink" xml:space="preserve" onload="init(evt)">
<style type="text/css"><![CDATA[
.edge:hover path { stroke: red; }
.edge:hover polygon { stroke: red; fill: red; }
]]></style>
<script type="text/javascript"><![CDATA[
var edges = document.getElementsByTagName('g');
if (edges && edges.length) {
  for (var i=0;i<edges.length;i++) {
    if (edges[i].id.substr(0,4)=='edge') {
      edges[i].setAttribute('class','edge');
    }
  }
}
]]></script>
        <defs>
                <circle id="rim" cx="0" cy="0" r="7"/>
                <circle id="rim2" cx="0" cy="0" r="3.5"/>
                <g id="zoomPlus">
                        <use xlink:href="#rim" fill="#404040">
                                <set attributeName="fill" to="#808080" begin="zoomplus.mouseover" end="zoomplus.mouseout"/>
                        </use>
                        <path d="M-4,0h8M0,-4v8" fill="none" stroke="white" stroke-width="1.5" pointer-events="none"/>
                </g>
                <g id="zoomMin">
                        <use xlink:href="#rim" fill="#404040">
                                <set attributeName="fill" to="#808080" begin="zoomminus.mouseover" end="zoomminus.mouseout"/>
                        </use>
                        <path d="M-4,0h8" fill="none" stroke="white" stroke-width="1.5" pointer-events="none"/>
                </g>
                <g id="dirArrow">
                        <path fill="none" stroke="white" stroke-width="1.5" d="M0,-3.0v7 M-2.5,-0.5L0,-3.0L2.5,-0.5"/>
                </g>
               <g id="resetDef">
                       <use xlink:href="#rim2" fill="#404040">
                               <set attributeName="fill" to="#808080" begin="reset.mouseover" end="reset.mouseout"/>
                       </use>
               </g>
        </defs>

<script type="text/javascript">
var viewWidth = 871;
var viewHeight = 374;
var sectionId = 'dynsection-0';
</script>
<script xlink:href="svgpan.js"/>
<svg id="graph" class="graph">
<g id="viewport">
<title>drake/multibody/tree/multibody_tree_topology.h</title>
<polygon fill="#ffffff" stroke="transparent" points="-4,4 -4,-370 866.5,-370 866.5,4 -4,4"/>
<!-- Node0 -->
<g id="node1" class="node">
<title>Node0</title>
<polygon fill="#bfbfbf" stroke="#000000" points="229.5,-335.5 229.5,-365.5 380.5,-365.5 380.5,-335.5 229.5,-335.5"/>
<text text-anchor="start" x="237.5" y="-353.5" font-family="Helvetica,sans-Serif" font-size="10.00" fill="#000000">drake/multibody/tree</text>
<text text-anchor="middle" x="305" y="-342.5" font-family="Helvetica,sans-Serif" font-size="10.00" fill="#000000">/multibody_tree_topology.h</text>
</g>
<!-- Node1 -->
<g id="node2" class="node">
<title>Node1</title>
<polygon fill="#ffffff" stroke="#bfbfbf" points="0,-274 0,-293 64,-293 64,-274 0,-274"/>
<text text-anchor="middle" x="32" y="-281" font-family="Helvetica,sans-Serif" font-size="10.00" fill="#000000">algorithm</text>
</g>
<!-- Node0&#45;&gt;Node1 -->
<g id="edge1" class="edge">
<title>Node0&#45;&gt;Node1</title>
<path fill="none" stroke="#191970" d="M229.3343,-336.5501C183.6476,-327.4252 124.4958,-314.3637 73,-299 70.4227,-298.2311 67.7755,-297.379 65.127,-296.4814"/>
<polygon fill="#191970" stroke="#191970" points="66.2459,-293.1646 55.6512,-293.0988 63.8924,-299.7571 66.2459,-293.1646"/>
</g>
<!-- Node2 -->
<g id="node3" class="node">
<title>Node2</title>
<polygon fill="#ffffff" stroke="#bfbfbf" points="82.5,-274 82.5,-293 129.5,-293 129.5,-274 82.5,-274"/>
<text text-anchor="middle" x="106" y="-281" font-family="Helvetica,sans-Serif" font-size="10.00" fill="#000000">queue</text>
</g>
<!-- Node0&#45;&gt;Node2 -->
<g id="edge2" class="edge">
<title>Node0&#45;&gt;Node2</title>
<path fill="none" stroke="#191970" d="M249.7676,-335.4436C217.1588,-326.0418 175.2914,-313.0748 139,-299 137.5984,-298.4564 136.1729,-297.8803 134.7399,-297.2824"/>
<polygon fill="#191970" stroke="#191970" points="135.911,-293.9734 125.3495,-293.133 133.0817,-300.3762 135.911,-293.9734"/>
</g>
<!-- Node3 -->
<g id="node4" class="node">
<title>Node3</title>
<polygon fill="#ffffff" stroke="#bfbfbf" points="148,-274 148,-293 180,-293 180,-274 148,-274"/>
<text text-anchor="middle" x="164" y="-281" font-family="Helvetica,sans-Serif" font-size="10.00" fill="#000000">set</text>
</g>
<!-- Node0&#45;&gt;Node3 -->
<g id="edge3" class="edge">
<title>Node0&#45;&gt;Node3</title>
<path fill="none" stroke="#191970" d="M271.3084,-335.3184C249.2131,-325.2517 219.7534,-311.6202 194,-299 192.4437,-298.2374 190.8468,-297.4442 189.2395,-296.6376"/>
<polygon fill="#191970" stroke="#191970" points="190.6272,-293.4166 180.1285,-291.9925 187.4477,-299.6528 190.6272,-293.4166"/>
</g>
<!-- Node4 -->
<g id="node5" class="node">
<title>Node4</title>
<polygon fill="#ffffff" stroke="#bfbfbf" points="317,-73 317,-92 361,-92 361,-73 317,-73"/>
<text text-anchor="middle" x="339" y="-80" font-family="Helvetica,sans-Serif" font-size="10.00" fill="#000000">string</text>
</g>
<!-- Node0&#45;&gt;Node4 -->
<g id="edge4" class="edge">
<title>Node0&#45;&gt;Node4</title>
<path fill="none" stroke="#191970" d="M380.668,-335.558C401.9384,-327.9054 423.2608,-316.3691 438,-299 457.683,-275.805 448.8723,-262.2597 452,-232 456.4781,-188.6753 475.734,-170.521 452,-134 430.5329,-100.9672 406.7324,-114.589 371,-98 369.9922,-97.5321 368.9679,-97.0534 367.9344,-96.5677"/>
<polygon fill="#191970" stroke="#191970" points="369.1154,-93.2534 358.5824,-92.1109 366.104,-99.5726 369.1154,-93.2534"/>
</g>
<!-- Node5 -->
<g id="node6" class="node">
<title>Node5</title>
<polygon fill="#ffffff" stroke="#bfbfbf" points="658.5,-6 658.5,-25 703.5,-25 703.5,-6 658.5,-6"/>
<text text-anchor="middle" x="681" y="-13" font-family="Helvetica,sans-Serif" font-size="10.00" fill="#000000">utility</text>
</g>
<!-- Node0&#45;&gt;Node5 -->
<g id="edge5" class="edge">
<title>Node0&#45;&gt;Node5</title>
<path fill="none" stroke="#191970" d="M380.528,-345.0901C515.7027,-333.3162 785,-299.4507 785,-216.5 785,-216.5 785,-216.5 785,-149.5 785,-111.8735 788.052,-97.4871 766,-67 752.8852,-48.8687 731.2432,-35.8908 713.0798,-27.4982"/>
<polygon fill="#191970" stroke="#191970" points="714.2594,-24.1946 703.6934,-23.4142 711.4666,-30.6133 714.2594,-24.1946"/>
</g>
<!-- Node6 -->
<g id="node7" class="node">
<title>Node6</title>
<polygon fill="#ffffff" stroke="#bfbfbf" points="709.5,-73 709.5,-92 756.5,-92 756.5,-73 709.5,-73"/>
<text text-anchor="middle" x="733" y="-80" font-family="Helvetica,sans-Serif" font-size="10.00" fill="#000000">vector</text>
</g>
<!-- Node0&#45;&gt;Node6 -->
<g id="edge6" class="edge">
<title>Node0&#45;&gt;Node6</title>
<path fill="none" stroke="#191970" d="M359.6345,-335.4325C389.3639,-326.4151 426.4144,-313.8291 458,-299 560.6053,-250.8279 592.4979,-242.729 675,-165 695.2142,-145.9553 712.6463,-118.8369 722.983,-100.9621"/>
<polygon fill="#191970" stroke="#191970" points="726.1195,-102.525 727.9683,-92.0927 720.0174,-99.0951 726.1195,-102.525"/>
</g>
<!-- Node7 -->
<g id="node8" class="node">
<title>Node7</title>
<g id="a_node8"><a xlink:href="drake__assert_8h.html" target="_top" xlink:title="Provides Drake&#39;s assertion implementation. ">
<polygon fill="#ffffff" stroke="#000000" points="177.5,-67.5 177.5,-97.5 298.5,-97.5 298.5,-67.5 177.5,-67.5"/>
<text text-anchor="start" x="185.5" y="-85.5" font-family="Helvetica,sans-Serif" font-size="10.00" fill="#000000">drake/common/drake</text>
<text text-anchor="middle" x="238" y="-74.5" font-family="Helvetica,sans-Serif" font-size="10.00" fill="#000000">_assert.h</text>
</a>
</g>
</g>
<!-- Node0&#45;&gt;Node7 -->
<g id="edge7" class="edge">
<title>Node0&#45;&gt;Node7</title>
<path fill="none" stroke="#191970" d="M293.8857,-335.4985C287.1053,-325.6156 278.8385,-312.1202 274,-299 249.6053,-232.8511 241.6678,-149.22 239.1417,-107.9369"/>
<polygon fill="#191970" stroke="#191970" points="242.6222,-107.4872 238.5748,-97.6959 235.6329,-107.8741 242.6222,-107.4872"/>
</g>
<!-- Node9 -->
<g id="node10" class="node">
<title>Node9</title>
<g id="a_node10"><a xlink:href="drake__copyable_8h.html" target="_top" xlink:title="Provides careful macros to selectively enable or disable the special member functions for copy&#45;constr...">
<polygon fill="#ffffff" stroke="#000000" points="741.5,-.5 741.5,-30.5 862.5,-30.5 862.5,-.5 741.5,-.5"/>
<text text-anchor="start" x="749.5" y="-18.5" font-family="Helvetica,sans-Serif" font-size="10.00" fill="#000000">drake/common/drake</text>
<text text-anchor="middle" x="802" y="-7.5" font-family="Helvetica,sans-Serif" font-size="10.00" fill="#000000">_copyable.h</text>
</a>
</g>
</g>
<!-- Node0&#45;&gt;Node9 -->
<g id="edge9" class="edge">
<title>Node0&#45;&gt;Node9</title>
<path fill="none" stroke="#191970" d="M380.5228,-346.0683C483.0885,-339.2096 660.4704,-324.1265 720,-299 774.0357,-276.1923 823,-275.1519 823,-216.5 823,-216.5 823,-216.5 823,-149.5 823,-111.2118 814.5284,-67.5037 808.3465,-40.7065"/>
<polygon fill="#191970" stroke="#191970" points="811.6732,-39.5677 805.9499,-30.6517 804.864,-41.1908 811.6732,-39.5677"/>
</g>
<!-- Node10 -->
<g id="node11" class="node">
<title>Node10</title>
<g id="a_node11"><a xlink:href="drake__throw_8h.html" target="_top" xlink:title="Provides a convenient wrapper to throw an exception when a condition is unmet. ">
<polygon fill="#ffffff" stroke="#000000" points="88.5,-134.5 88.5,-164.5 209.5,-164.5 209.5,-134.5 88.5,-134.5"/>
<text text-anchor="start" x="96.5" y="-152.5" font-family="Helvetica,sans-Serif" font-size="10.00" fill="#000000">drake/common/drake</text>
<text text-anchor="middle" x="149" y="-141.5" font-family="Helvetica,sans-Serif" font-size="10.00" fill="#000000">_throw.h</text>
</a>
</g>
</g>
<!-- Node0&#45;&gt;Node10 -->
<g id="edge10" class="edge">
<title>Node0&#45;&gt;Node10</title>
<path fill="none" stroke="#191970" d="M277.7448,-335.3963C262.9439,-326.2447 245.0558,-313.5417 232,-299 197.6399,-260.7294 171.7727,-205.7875 158.64,-174.2671"/>
<polygon fill="#191970" stroke="#191970" points="161.8416,-172.8489 154.829,-164.907 155.3584,-175.4886 161.8416,-172.8489"/>
</g>
<!-- Node11 -->
<g id="node12" class="node">
<title>Node11</title>
<g id="a_node12"><a xlink:href="multibody__tree__indexes_8h.html" target="_top" xlink:title="drake/multibody/tree\l/multibody_tree_indexes.h">
<polygon fill="#ffffff" stroke="#000000" points="283,-268.5 283,-298.5 429,-298.5 429,-268.5 283,-268.5"/>
<text text-anchor="start" x="291" y="-286.5" font-family="Helvetica,sans-Serif" font-size="10.00" fill="#000000">drake/multibody/tree</text>
<text text-anchor="middle" x="356" y="-275.5" font-family="Helvetica,sans-Serif" font-size="10.00" fill="#000000">/multibody_tree_indexes.h</text>
</a>
</g>
</g>
<!-- Node0&#45;&gt;Node11 -->
<g id="edge13" class="edge">
<title>Node0&#45;&gt;Node11</title>
<path fill="none" stroke="#191970" d="M316.5727,-335.2967C322.9629,-326.9016 331.0365,-316.2952 338.211,-306.8698"/>
<polygon fill="#191970" stroke="#191970" points="341.2012,-308.7201 344.4731,-298.6432 335.6312,-304.4803 341.2012,-308.7201"/>
</g>
<!-- Node8 -->
<g id="node9" class="node">
<title>Node8</title>
<polygon fill="#ffffff" stroke="#bfbfbf" points="203.5,-6 203.5,-25 272.5,-25 272.5,-6 203.5,-6"/>
<text text-anchor="middle" x="238" y="-13" font-family="Helvetica,sans-Serif" font-size="10.00" fill="#000000">type_traits</text>
</g>
<!-- Node7&#45;&gt;Node8 -->
<g id="edge8" class="edge">
<title>Node7&#45;&gt;Node8</title>
<path fill="none" stroke="#191970" d="M238,-67.2967C238,-57.7699 238,-45.3954 238,-35.1306"/>
<polygon fill="#191970" stroke="#191970" points="241.5001,-35.0549 238,-25.055 234.5001,-35.055 241.5001,-35.0549"/>
</g>
<!-- Node10&#45;&gt;Node7 -->
<g id="edge12" class="edge">
<title>Node10&#45;&gt;Node7</title>
<path fill="none" stroke="#191970" d="M169.1955,-134.2967C181.1436,-125.302 196.4639,-113.7687 209.6138,-103.8694"/>
<polygon fill="#191970" stroke="#191970" points="212.0002,-106.4538 217.8844,-97.6432 207.7902,-100.8613 212.0002,-106.4538"/>
</g>
<!-- Node10&#45;&gt;Node8 -->
<g id="edge11" class="edge">
<title>Node10&#45;&gt;Node8</title>
<path fill="none" stroke="#191970" d="M149.3844,-134.2714C150.4938,-116.7163 154.4385,-87.6349 168,-67 178.2245,-51.4426 194.855,-38.9179 209.3409,-30.1168"/>
<polygon fill="#191970" stroke="#191970" points="211.0891,-33.1489 218.0068,-25.1242 207.5947,-27.0835 211.0891,-33.1489"/>
</g>
<!-- Node12 -->
<g id="node13" class="node">
<title>Node12</title>
<g id="a_node13"><a xlink:href="type__safe__index_8h.html" target="_top" xlink:title="drake/common/type_safe\l_index.h">
<polygon fill="#ffffff" stroke="#000000" points="301.5,-201.5 301.5,-231.5 442.5,-231.5 442.5,-201.5 301.5,-201.5"/>
<text text-anchor="start" x="309.5" y="-219.5" font-family="Helvetica,sans-Serif" font-size="10.00" fill="#000000">drake/common/type_safe</text>
<text text-anchor="middle" x="372" y="-208.5" font-family="Helvetica,sans-Serif" font-size="10.00" fill="#000000">_index.h</text>
</a>
</g>
</g>
<!-- Node11&#45;&gt;Node12 -->
<g id="edge14" class="edge">
<title>Node11&#45;&gt;Node12</title>
<path fill="none" stroke="#191970" d="M359.6306,-268.2967C361.5127,-260.4156 363.8601,-250.5857 366.0027,-241.6135"/>
<polygon fill="#191970" stroke="#191970" points="369.4652,-242.1827 368.3837,-231.6432 362.6566,-240.5567 369.4652,-242.1827"/>
</g>
<!-- Node12&#45;&gt;Node4 -->
<g id="edge17" class="edge">
<title>Node12&#45;&gt;Node4</title>
<path fill="none" stroke="#191970" d="M400.7377,-201.4081C414.0839,-192.7162 428.6084,-180.4356 436,-165 441.9507,-152.5735 443.0997,-145.8077 436,-134 434.0029,-130.6785 395.4026,-110.7961 367.5075,-96.7328"/>
<polygon fill="#191970" stroke="#191970" points="369.0328,-93.5823 358.5261,-92.2189 365.8894,-99.8368 369.0328,-93.5823"/>
</g>
<!-- Node12&#45;&gt;Node7 -->
<g id="edge18" class="edge">
<title>Node12&#45;&gt;Node7</title>
<path fill="none" stroke="#191970" d="M385.8697,-201.2973C400.1198,-183.7664 418.2297,-154.7078 403,-134 396.9176,-125.7298 350.1928,-111.5861 308.0129,-100.211"/>
<polygon fill="#191970" stroke="#191970" points="308.8247,-96.8052 298.2602,-97.6073 307.0191,-103.5684 308.8247,-96.8052"/>
</g>
<!-- Node12&#45;&gt;Node10 -->
<g id="edge19" class="edge">
<title>Node12&#45;&gt;Node10</title>
<path fill="none" stroke="#191970" d="M321.9544,-201.4639C288.5017,-191.4131 244.316,-178.1375 208.9796,-167.5208"/>
<polygon fill="#191970" stroke="#191970" points="209.848,-164.1272 199.2638,-164.6017 207.8338,-170.8312 209.848,-164.1272"/>
</g>
<!-- Node13 -->
<g id="node14" class="node">
<title>Node13</title>
<polygon fill="#ffffff" stroke="#bfbfbf" points="266.5,-140 266.5,-159 331.5,-159 331.5,-140 266.5,-140"/>
<text text-anchor="middle" x="299" y="-147" font-family="Helvetica,sans-Serif" font-size="10.00" fill="#000000">functional</text>
</g>
<!-- Node12&#45;&gt;Node13 -->
<g id="edge15" class="edge">
<title>Node12&#45;&gt;Node13</title>
<path fill="none" stroke="#191970" d="M355.4352,-201.2967C343.951,-190.7564 328.6688,-176.7303 316.9038,-165.9323"/>
<polygon fill="#191970" stroke="#191970" points="319.1447,-163.2382 309.4106,-159.055 314.4114,-168.3954 319.1447,-163.2382"/>
</g>
<!-- Node14 -->
<g id="node15" class="node">
<title>Node14</title>
<polygon fill="#ffffff" stroke="#bfbfbf" points="350,-140 350,-159 394,-159 394,-140 350,-140"/>
<text text-anchor="middle" x="372" y="-147" font-family="Helvetica,sans-Serif" font-size="10.00" fill="#000000">limits</text>
</g>
<!-- Node12&#45;&gt;Node14 -->
<g id="edge16" class="edge">
<title>Node12&#45;&gt;Node14</title>
<path fill="none" stroke="#191970" d="M372,-201.2967C372,-191.7699 372,-179.3954 372,-169.1306"/>
<polygon fill="#191970" stroke="#191970" points="375.5001,-169.0549 372,-159.055 368.5001,-169.055 375.5001,-169.0549"/>
</g>
<!-- Node15 -->
<g id="node16" class="node">
<title>Node15</title>
<g id="a_node16"><a xlink:href="nice__type__name_8h.html" target="_top" xlink:title="drake/common/nice_type\l_name.h">
<polygon fill="#ffffff" stroke="#000000" points="526,-134.5 526,-164.5 666,-164.5 666,-134.5 526,-134.5"/>
<text text-anchor="start" x="534" y="-152.5" font-family="Helvetica,sans-Serif" font-size="10.00" fill="#000000">drake/common/nice_type</text>
<text text-anchor="middle" x="596" y="-141.5" font-family="Helvetica,sans-Serif" font-size="10.00" fill="#000000">_name.h</text>
</a>
</g>
</g>
<!-- Node12&#45;&gt;Node15 -->
<g id="edge20" class="edge">
<title>Node12&#45;&gt;Node15</title>
<path fill="none" stroke="#191970" d="M422.27,-201.4639C455.8728,-191.4131 500.2566,-178.1375 535.7515,-167.5208"/>
<polygon fill="#191970" stroke="#191970" points="536.9332,-170.8206 545.5108,-164.6017 534.9272,-164.1142 536.9332,-170.8206"/>
</g>
<!-- Node15&#45;&gt;Node4 -->
<g id="edge22" class="edge">
<title>Node15&#45;&gt;Node4</title>
<path fill="none" stroke="#191970" d="M525.9744,-135.2768C471.0053,-123.7757 399.2118,-107.9174 371,-98 369.3985,-97.437 367.7718,-96.8161 366.1438,-96.1563"/>
<polygon fill="#191970" stroke="#191970" points="367.5318,-92.9431 356.972,-92.0827 364.6905,-99.3405 367.5318,-92.9431"/>
</g>
<!-- Node15&#45;&gt;Node5 -->
<g id="edge24" class="edge">
<title>Node15&#45;&gt;Node5</title>
<path fill="none" stroke="#191970" d="M623.1545,-134.4502C636.783,-125.5544 652.3943,-113.0767 662,-98 674.1725,-78.8946 678.5749,-52.8897 680.1511,-35.2186"/>
<polygon fill="#191970" stroke="#191970" points="683.6461,-35.4089 680.8219,-25.1975 676.6617,-34.9413 683.6461,-35.4089"/>
</g>
<!-- Node15&#45;&gt;Node6 -->
<g id="edge25" class="edge">
<title>Node15&#45;&gt;Node6</title>
<path fill="none" stroke="#191970" d="M626.7455,-134.4639C649.9394,-123.1209 681.5316,-107.6707 704.2294,-96.5703"/>
<polygon fill="#191970" stroke="#191970" points="705.9165,-99.6414 713.3621,-92.1039 702.8412,-93.3531 705.9165,-99.6414"/>
</g>
<!-- Node16 -->
<g id="node17" class="node">
<title>Node16</title>
<polygon fill="#ffffff" stroke="#bfbfbf" points="519,-73 519,-92 577,-92 577,-73 519,-73"/>
<text text-anchor="middle" x="548" y="-80" font-family="Helvetica,sans-Serif" font-size="10.00" fill="#000000">memory</text>
</g>
<!-- Node15&#45;&gt;Node16 -->
<g id="edge21" class="edge">
<title>Node15&#45;&gt;Node16</title>
<path fill="none" stroke="#191970" d="M585.1081,-134.2967C577.8473,-124.1618 568.2775,-110.804 560.675,-100.1921"/>
<polygon fill="#191970" stroke="#191970" points="563.5144,-98.1458 554.8454,-92.055 557.824,-102.2225 563.5144,-98.1458"/>
</g>
<!-- Node17 -->
<g id="node18" class="node">
<title>Node17</title>
<polygon fill="#ffffff" stroke="#bfbfbf" points="595.5,-73 595.5,-92 652.5,-92 652.5,-73 595.5,-73"/>
<text text-anchor="middle" x="624" y="-80" font-family="Helvetica,sans-Serif" font-size="10.00" fill="#000000">typeinfo</text>
</g>
<!-- Node15&#45;&gt;Node17 -->
<g id="edge23" class="edge">
<title>Node15&#45;&gt;Node17</title>
<path fill="none" stroke="#191970" d="M602.3536,-134.2967C606.4197,-124.5672 611.727,-111.8675 616.0687,-101.4784"/>
<polygon fill="#191970" stroke="#191970" points="619.3802,-102.6313 620.0069,-92.055 612.9215,-99.9321 619.3802,-102.6313"/>
</g>
<!-- Node18 -->
<g id="node19" class="node">
<title>Node18</title>
<g id="a_node19"><a xlink:href="never__destroyed_8h.html" target="_top" xlink:title="drake/common/never\l_destroyed.h">
<polygon fill="#ffffff" stroke="#000000" points="379.5,-67.5 379.5,-97.5 500.5,-97.5 500.5,-67.5 379.5,-67.5"/>
<text text-anchor="start" x="387.5" y="-85.5" font-family="Helvetica,sans-Serif" font-size="10.00" fill="#000000">drake/common/never</text>
<text text-anchor="middle" x="440" y="-74.5" font-family="Helvetica,sans-Serif" font-size="10.00" fill="#000000">_destroyed.h</text>
</a>
</g>
</g>
<!-- Node15&#45;&gt;Node18 -->
<g id="edge26" class="edge">
<title>Node15&#45;&gt;Node18</title>
<path fill="none" stroke="#191970" d="M560.9906,-134.4639C538.3887,-124.7567 508.7832,-112.0415 484.5153,-101.6188"/>
<polygon fill="#191970" stroke="#191970" points="485.7318,-98.3321 475.1621,-97.6017 482.9693,-104.764 485.7318,-98.3321"/>
</g>
<!-- Node18&#45;&gt;Node5 -->
<g id="edge29" class="edge">
<title>Node18&#45;&gt;Node5</title>
<path fill="none" stroke="#191970" d="M494.0851,-67.4639C541.5768,-54.2608 609.0844,-35.4931 648.6354,-24.4976"/>
<polygon fill="#191970" stroke="#191970" points="649.5997,-27.8624 658.2968,-21.8117 647.7247,-21.1181 649.5997,-27.8624"/>
</g>
<!-- Node18&#45;&gt;Node8 -->
<g id="edge28" class="edge">
<title>Node18&#45;&gt;Node8</title>
<path fill="none" stroke="#191970" d="M394.6673,-67.4639C358.989,-55.63 309.833,-39.3258 276.1518,-28.1543"/>
<polygon fill="#191970" stroke="#191970" points="277.2511,-24.8315 266.6577,-25.0053 275.0474,-31.4756 277.2511,-24.8315"/>
</g>
<!-- Node18&#45;&gt;Node9 -->
<g id="edge30" class="edge">
<title>Node18&#45;&gt;Node9</title>
<path fill="none" stroke="#191970" d="M500.6725,-68.8967C503.8244,-68.2428 506.9479,-67.6068 510,-67 531.3644,-62.7527 652.126,-41.6085 731.5075,-27.7677"/>
<polygon fill="#191970" stroke="#191970" points="732.2044,-31.1991 741.4548,-26.0338 731.0023,-24.3031 732.2044,-31.1991"/>
</g>
<!-- Node19 -->
<g id="node20" class="node">
<title>Node19</title>
<polygon fill="#ffffff" stroke="#bfbfbf" points="421.5,-6 421.5,-25 458.5,-25 458.5,-6 421.5,-6"/>
<text text-anchor="middle" x="440" y="-13" font-family="Helvetica,sans-Serif" font-size="10.00" fill="#000000">new</text>
</g>
<!-- Node18&#45;&gt;Node19 -->
<g id="edge27" class="edge">
<title>Node18&#45;&gt;Node19</title>
<path fill="none" stroke="#191970" d="M440,-67.2967C440,-57.7699 440,-45.3954 440,-35.1306"/>
<polygon fill="#191970" stroke="#191970" points="443.5001,-35.0549 440,-25.055 436.5001,-35.055 443.5001,-35.0549"/>
</g>
</g>
</svg>
        <g id="navigator" transform="translate(0 0)" fill="#404254">
                <rect fill="#f2f5e9" fill-opacity="0.5" stroke="#606060" stroke-width=".5" x="0" y="0" width="60" height="60"/>
                <use id="zoomplus" xlink:href="#zoomPlus" x="17" y="9" onmousedown="handleZoom(evt,'in')"/>
                <use id="zoomminus" xlink:href="#zoomMin" x="42" y="9" onmousedown="handleZoom(evt,'out')"/>
                <use id="reset" xlink:href="#resetDef" x="30" y="36" onmousedown="handleReset()"/>
                <g id="arrowUp" xlink:href="#dirArrow" transform="translate(30 24)" onmousedown="handlePan(0,-1)">
                  <use xlink:href="#rim" fill="#404040">
                        <set attributeName="fill" to="#808080" begin="arrowUp.mouseover" end="arrowUp.mouseout"/>
                  </use>
                  <path fill="none" stroke="white" stroke-width="1.5" d="M0,-3.0v7 M-2.5,-0.5L0,-3.0L2.5,-0.5"/>
                </g>
                <g id="arrowRight" xlink:href="#dirArrow" transform="rotate(90) translate(36 -43)" onmousedown="handlePan(1,0)">
                  <use xlink:href="#rim" fill="#404040">
                        <set attributeName="fill" to="#808080" begin="arrowRight.mouseover" end="arrowRight.mouseout"/>
                  </use>
                  <path fill="none" stroke="white" stroke-width="1.5" d="M0,-3.0v7 M-2.5,-0.5L0,-3.0L2.5,-0.5"/>
                </g>
                <g id="arrowDown" xlink:href="#dirArrow" transform="rotate(180) translate(-30 -48)" onmousedown="handlePan(0,1)">
                  <use xlink:href="#rim" fill="#404040">
                        <set attributeName="fill" to="#808080" begin="arrowDown.mouseover" end="arrowDown.mouseout"/>
                  </use>
                  <path fill="none" stroke="white" stroke-width="1.5" d="M0,-3.0v7 M-2.5,-0.5L0,-3.0L2.5,-0.5"/>
                </g>
                <g id="arrowLeft" xlink:href="#dirArrow" transform="rotate(270) translate(-36 17)" onmousedown="handlePan(-1,0)">
                  <use xlink:href="#rim" fill="#404040">
                        <set attributeName="fill" to="#808080" begin="arrowLeft.mouseover" end="arrowLeft.mouseout"/>
                  </use>
                  <path fill="none" stroke="white" stroke-width="1.5" d="M0,-3.0v7 M-2.5,-0.5L0,-3.0L2.5,-0.5"/>
                </g>
        </g>
        <svg viewBox="0 0 15 15" width="100%" height="30px" preserveAspectRatio="xMaxYMin meet">
         <g id="arrow_out" transform="scale(0.3 0.3)">
          <a xlink:href="multibody__tree__topology_8h__incl_org.svg" target="_base">
           <rect id="button" ry="5" rx="5" y="6" x="6" height="38" width="38"
                fill="#f2f5e9" fill-opacity="0.5" stroke="#606060" stroke-width="1.0"/>
           <path id="arrow"
             d="M 11.500037,31.436501 C 11.940474,20.09759 22.043105,11.32322 32.158766,21.979434 L 37.068811,17.246167 C 37.068811,17.246167 37.088388,32 37.088388,32 L 22.160133,31.978069 C 22.160133,31.978069 26.997745,27.140456 26.997745,27.140456 C 18.528582,18.264221 13.291696,25.230495 11.500037,31.436501 z"
             style="fill:#404040;"/>
          </a>
         </g>
        </svg>
</svg>
