<?xml version="1.0" encoding="UTF-8" standalone="no"?>
<!DOCTYPE svg PUBLIC "-//W3C//DTD SVG 1.1//EN"
 "http://www.w3.org/Graphics/SVG/1.1/DTD/svg11.dtd">
<!-- Generated by graphviz version 2.40.1 (20161225.0304)
 -->
<!-- Title: drake/automotive/multilane_onramp_merge.h Pages: 1 -->
<svg width="680pt" height="117pt"
 viewBox="0.00 0.00 679.50 117.00" xmlns="http://www.w3.org/2000/svg" xmlns:xlink="http://www.w3.org/1999/xlink">
<g id="graph0" class="graph" transform="scale(1 1) rotate(0) translate(4 113)">
<title>drake/automotive/multilane_onramp_merge.h</title>
<polygon fill="#ffffff" stroke="transparent" points="-4,4 -4,-113 675.5,-113 675.5,4 -4,4"/>
<!-- Node139 -->
<g id="node1" class="node">
<title>Node139</title>
<polygon fill="#bfbfbf" stroke="#000000" points="267,-78.5 267,-108.5 420,-108.5 420,-78.5 267,-78.5"/>
<text text-anchor="start" x="275" y="-96.5" font-family="Helvetica,sans-Serif" font-size="10.00" fill="#000000">drake/automotive/multilane</text>
<text text-anchor="middle" x="343.5" y="-85.5" font-family="Helvetica,sans-Serif" font-size="10.00" fill="#000000">_onramp_merge.h</text>
</g>
<!-- Node140 -->
<g id="node2" class="node">
<title>Node140</title>
<g id="a_node2"><a xlink:href="automotive__demo_8cc.html" target="_top" xlink:title="drake/automotive/automotive\l_demo.cc">
<polygon fill="#ffffff" stroke="#000000" points="0,-6 0,-36 163,-36 163,-6 0,-6"/>
<text text-anchor="start" x="8" y="-24" font-family="Helvetica,sans-Serif" font-size="10.00" fill="#000000">drake/automotive/automotive</text>
<text text-anchor="middle" x="81.5" y="-13" font-family="Helvetica,sans-Serif" font-size="10.00" fill="#000000">_demo.cc</text>
</a>
</g>
</g>
<!-- Node139&#45;&gt;Node140 -->
<g id="edge1" class="edge">
<title>Node139&#45;&gt;Node140</title>
<path fill="none" stroke="#191970" d="M279.4653,-75.7805C235.3984,-63.5864 177.5032,-47.5658 135.717,-36.0028"/>
<polygon fill="#191970" stroke="#191970" points="278.6422,-79.1842 289.2134,-78.478 280.5091,-72.4377 278.6422,-79.1842"/>
</g>
<!-- Node141 -->
<g id="node3" class="node">
<title>Node141</title>
<g id="a_node3"><a xlink:href="multilane__onramp__merge_8cc.html" target="_top" xlink:title="drake/automotive/multilane\l_onramp_merge.cc">
<polygon fill="#ffffff" stroke="#000000" points="181,-6 181,-36 334,-36 334,-6 181,-6"/>
<text text-anchor="start" x="189" y="-24" font-family="Helvetica,sans-Serif" font-size="10.00" fill="#000000">drake/automotive/multilane</text>
<text text-anchor="middle" x="257.5" y="-13" font-family="Helvetica,sans-Serif" font-size="10.00" fill="#000000">_onramp_merge.cc</text>
</a>
</g>
</g>
<!-- Node139&#45;&gt;Node141 -->
<g id="edge2" class="edge">
<title>Node139&#45;&gt;Node141</title>
<path fill="none" stroke="#191970" d="M317.9767,-71.9833C304.2373,-60.4007 287.6294,-46.3998 275.2964,-36.0028"/>
<polygon fill="#191970" stroke="#191970" points="315.7791,-74.7084 325.6807,-78.478 320.291,-69.3565 315.7791,-74.7084"/>
</g>
<!-- Node142 -->
<g id="node4" class="node">
<title>Node142</title>
<g id="a_node4"><a xlink:href="calc__ongoing__road__position__test_8cc.html" target="_top" xlink:title="drake/automotive/test\l/calc_ongoing_road_position\l_test.cc">
<polygon fill="#ffffff" stroke="#000000" points="352,-.5 352,-41.5 507,-41.5 507,-.5 352,-.5"/>
<text text-anchor="start" x="360" y="-29.5" font-family="Helvetica,sans-Serif" font-size="10.00" fill="#000000">drake/automotive/test</text>
<text text-anchor="start" x="360" y="-18.5" font-family="Helvetica,sans-Serif" font-size="10.00" fill="#000000">/calc_ongoing_road_position</text>
<text text-anchor="middle" x="429.5" y="-7.5" font-family="Helvetica,sans-Serif" font-size="10.00" fill="#000000">_test.cc</text>
</a>
</g>
</g>
<!-- Node139&#45;&gt;Node142 -->
<g id="edge3" class="edge">
<title>Node139&#45;&gt;Node142</title>
<path fill="none" stroke="#191970" d="M369.2161,-71.8207C380.6123,-62.2135 393.9516,-50.9681 405.181,-41.5015"/>
<polygon fill="#191970" stroke="#191970" points="366.709,-69.3565 361.3193,-78.478 371.2209,-74.7084 366.709,-69.3565"/>
</g>
<!-- Node143 -->
<g id="node5" class="node">
<title>Node143</title>
<g id="a_node5"><a xlink:href="multilane__onramp__merge__test_8cc.html" target="_top" xlink:title="drake/automotive/test\l/multilane_onramp_merge\l_test.cc">
<polygon fill="#ffffff" stroke="#000000" points="525.5,-.5 525.5,-41.5 671.5,-41.5 671.5,-.5 525.5,-.5"/>
<text text-anchor="start" x="533.5" y="-29.5" font-family="Helvetica,sans-Serif" font-size="10.00" fill="#000000">drake/automotive/test</text>
<text text-anchor="start" x="533.5" y="-18.5" font-family="Helvetica,sans-Serif" font-size="10.00" fill="#000000">/multilane_onramp_merge</text>
<text text-anchor="middle" x="598.5" y="-7.5" font-family="Helvetica,sans-Serif" font-size="10.00" fill="#000000">_test.cc</text>
</a>
</g>
</g>
<!-- Node139&#45;&gt;Node143 -->
<g id="edge4" class="edge">
<title>Node139&#45;&gt;Node143</title>
<path fill="none" stroke="#191970" d="M406.3218,-75.6389C442.6746,-65.3033 488.5691,-52.2549 526.3912,-41.5015"/>
<polygon fill="#191970" stroke="#191970" points="404.9978,-72.3766 396.3362,-78.478 406.9121,-79.1097 404.9978,-72.3766"/>
</g>
</g>
</svg>
