<?xml version="1.0" encoding="UTF-8" standalone="no"?>
<!DOCTYPE svg PUBLIC "-//W3C//DTD SVG 1.1//EN"
 "http://www.w3.org/Graphics/SVG/1.1/DTD/svg11.dtd">
<!-- Generated by graphviz version 2.40.1 (20161225.0304)
 -->
<!-- Title: drake/automotive/maliput/multilane/segment.h Pages: 1 -->
<!--zoomable 329 -->
<svg id="main" version="1.1" xmlns="http://www.w3.org/2000/svg" xmlns:xlink="http://www.w3.org/1999/xlink" xml:space="preserve" onload="init(evt)">
<style type="text/css"><![CDATA[
.edge:hover path { stroke: red; }
.edge:hover polygon { stroke: red; fill: red; }
]]></style>
<script type="text/javascript"><![CDATA[
var edges = document.getElementsByTagName('g');
if (edges && edges.length) {
  for (var i=0;i<edges.length;i++) {
    if (edges[i].id.substr(0,4)=='edge') {
      edges[i].setAttribute('class','edge');
    }
  }
}
]]></script>
        <defs>
                <circle id="rim" cx="0" cy="0" r="7"/>
                <circle id="rim2" cx="0" cy="0" r="3.5"/>
                <g id="zoomPlus">
                        <use xlink:href="#rim" fill="#404040">
                                <set attributeName="fill" to="#808080" begin="zoomplus.mouseover" end="zoomplus.mouseout"/>
                        </use>
                        <path d="M-4,0h8M0,-4v8" fill="none" stroke="white" stroke-width="1.5" pointer-events="none"/>
                </g>
                <g id="zoomMin">
                        <use xlink:href="#rim" fill="#404040">
                                <set attributeName="fill" to="#808080" begin="zoomminus.mouseover" end="zoomminus.mouseout"/>
                        </use>
                        <path d="M-4,0h8" fill="none" stroke="white" stroke-width="1.5" pointer-events="none"/>
                </g>
                <g id="dirArrow">
                        <path fill="none" stroke="white" stroke-width="1.5" d="M0,-3.0v7 M-2.5,-0.5L0,-3.0L2.5,-0.5"/>
                </g>
               <g id="resetDef">
                       <use xlink:href="#rim2" fill="#404040">
                               <set attributeName="fill" to="#808080" begin="reset.mouseover" end="reset.mouseout"/>
                       </use>
               </g>
        </defs>

<script type="text/javascript">
var viewWidth = 3036;
var viewHeight = 329;
var sectionId = 'dynsection-1';
</script>
<script xlink:href="svgpan.js"/>
<svg id="graph" class="graph">
<g id="viewport">
<title>drake/automotive/maliput/multilane/segment.h</title>
<polygon fill="#ffffff" stroke="transparent" points="-4,4 -4,-325 3031.5,-325 3031.5,4 -4,4"/>
<!-- Node135 -->
<g id="node1" class="node">
<title>Node135</title>
<polygon fill="#bfbfbf" stroke="#000000" points="120,-290.5 120,-320.5 264,-320.5 264,-290.5 120,-290.5"/>
<text text-anchor="start" x="128" y="-308.5" font-family="Helvetica,sans-Serif" font-size="10.00" fill="#000000">drake/automotive/maliput</text>
<text text-anchor="middle" x="192" y="-297.5" font-family="Helvetica,sans-Serif" font-size="10.00" fill="#000000">/multilane/segment.h</text>
</g>
<!-- Node136 -->
<g id="node2" class="node">
<title>Node136</title>
<g id="a_node2"><a xlink:href="multilane_2junction_8h.html" target="_top" xlink:title="drake/automotive/maliput\l/multilane/junction.h">
<polygon fill="#ffffff" stroke="#000000" points="208,-223.5 208,-253.5 352,-253.5 352,-223.5 208,-223.5"/>
<text text-anchor="start" x="216" y="-241.5" font-family="Helvetica,sans-Serif" font-size="10.00" fill="#000000">drake/automotive/maliput</text>
<text text-anchor="middle" x="280" y="-230.5" font-family="Helvetica,sans-Serif" font-size="10.00" fill="#000000">/multilane/junction.h</text>
</a>
</g>
</g>
<!-- Node135&#45;&gt;Node136 -->
<g id="edge1" class="edge">
<title>Node135&#45;&gt;Node136</title>
<path fill="none" stroke="#191970" d="M220.1543,-284.0643C233.166,-274.1577 248.3114,-262.6265 260.1105,-253.6432"/>
<polygon fill="#191970" stroke="#191970" points="217.8048,-281.4542 211.9686,-290.2967 222.0452,-287.0237 217.8048,-281.4542"/>
</g>
<!-- Node164 -->
<g id="node30" class="node">
<title>Node164</title>
<g id="a_node30"><a xlink:href="multilane__lanes__test_8cc.html" target="_top" xlink:title="drake/automotive/maliput\l/multilane/test/multilane\l_lanes_test.cc">
<polygon fill="#ffffff" stroke="#000000" points="162,-78.5 162,-119.5 306,-119.5 306,-78.5 162,-78.5"/>
<text text-anchor="start" x="170" y="-107.5" font-family="Helvetica,sans-Serif" font-size="10.00" fill="#000000">drake/automotive/maliput</text>
<text text-anchor="start" x="170" y="-96.5" font-family="Helvetica,sans-Serif" font-size="10.00" fill="#000000">/multilane/test/multilane</text>
<text text-anchor="middle" x="234" y="-85.5" font-family="Helvetica,sans-Serif" font-size="10.00" fill="#000000">_lanes_test.cc</text>
</a>
</g>
</g>
<!-- Node135&#45;&gt;Node164 -->
<g id="edge46" class="edge">
<title>Node135&#45;&gt;Node164</title>
<path fill="none" stroke="#191970" d="M192.9049,-280.0831C193.796,-263.6868 195.5524,-241.9597 199,-223 205.7232,-186.0265 218.6955,-144.1784 226.8194,-119.7767"/>
<polygon fill="#191970" stroke="#191970" points="189.3896,-280.33 192.4162,-290.4833 196.3819,-280.6587 189.3896,-280.33"/>
</g>
<!-- Node165 -->
<g id="node31" class="node">
<title>Node165</title>
<g id="a_node31"><a xlink:href="multilane__segments__test_8cc.html" target="_top" xlink:title="drake/automotive/maliput\l/multilane/test/multilane\l_segments_test.cc">
<polygon fill="#ffffff" stroke="#000000" points="0,-78.5 0,-119.5 144,-119.5 144,-78.5 0,-78.5"/>
<text text-anchor="start" x="8" y="-107.5" font-family="Helvetica,sans-Serif" font-size="10.00" fill="#000000">drake/automotive/maliput</text>
<text text-anchor="start" x="8" y="-96.5" font-family="Helvetica,sans-Serif" font-size="10.00" fill="#000000">/multilane/test/multilane</text>
<text text-anchor="middle" x="72" y="-85.5" font-family="Helvetica,sans-Serif" font-size="10.00" fill="#000000">_segments_test.cc</text>
</a>
</g>
</g>
<!-- Node135&#45;&gt;Node165 -->
<g id="edge47" class="edge">
<title>Node135&#45;&gt;Node165</title>
<path fill="none" stroke="#191970" d="M178.0878,-281.5595C154.3244,-240.6666 106.3195,-158.0582 83.962,-119.5847"/>
<polygon fill="#191970" stroke="#191970" points="175.1255,-283.428 183.1761,-290.3156 181.1778,-279.9109 175.1255,-283.428"/>
</g>
<!-- Node166 -->
<g id="node32" class="node">
<title>Node166</title>
<g id="a_node32"><a xlink:href="multilane_2segment_8cc.html" target="_top" xlink:title="drake/automotive/maliput\l/multilane/segment.cc">
<polygon fill="#ffffff" stroke="#000000" points="370,-223.5 370,-253.5 514,-253.5 514,-223.5 370,-223.5"/>
<text text-anchor="start" x="378" y="-241.5" font-family="Helvetica,sans-Serif" font-size="10.00" fill="#000000">drake/automotive/maliput</text>
<text text-anchor="middle" x="442" y="-230.5" font-family="Helvetica,sans-Serif" font-size="10.00" fill="#000000">/multilane/segment.cc</text>
</a>
</g>
</g>
<!-- Node135&#45;&gt;Node166 -->
<g id="edge45" class="edge">
<title>Node135&#45;&gt;Node166</title>
<path fill="none" stroke="#191970" d="M257.9711,-287.8198C297.7074,-277.1704 347.7741,-263.7525 385.6504,-253.6017"/>
<polygon fill="#191970" stroke="#191970" points="256.858,-284.4945 248.1049,-290.4639 258.6701,-291.2559 256.858,-284.4945"/>
</g>
<!-- Node137 -->
<g id="node3" class="node">
<title>Node137</title>
<g id="a_node3"><a xlink:href="multilane_2builder_8cc.html" target="_top" xlink:title="drake/automotive/maliput\l/multilane/builder.cc">
<polygon fill="#ffffff" stroke="#000000" points="500,-84 500,-114 644,-114 644,-84 500,-84"/>
<text text-anchor="start" x="508" y="-102" font-family="Helvetica,sans-Serif" font-size="10.00" fill="#000000">drake/automotive/maliput</text>
<text text-anchor="middle" x="572" y="-91" font-family="Helvetica,sans-Serif" font-size="10.00" fill="#000000">/multilane/builder.cc</text>
</a>
</g>
</g>
<!-- Node136&#45;&gt;Node137 -->
<g id="edge2" class="edge">
<title>Node136&#45;&gt;Node137</title>
<path fill="none" stroke="#191970" d="M362.415,-223.0407C421.6718,-215.3338 539.929,-220.364 569,-187 586.4737,-166.9459 581.58,-133.4991 576.6522,-114.1297"/>
<polygon fill="#191970" stroke="#191970" points="361.764,-219.5996 352.4116,-224.5777 362.8272,-226.5184 361.764,-219.5996"/>
</g>
<!-- Node138 -->
<g id="node4" class="node">
<title>Node138</title>
<g id="a_node4"><a xlink:href="multilane_2builder_8h.html" target="_top" xlink:title="drake/automotive/maliput\l/multilane/builder.h">
<polygon fill="#ffffff" stroke="#000000" points="1268,-156.5 1268,-186.5 1412,-186.5 1412,-156.5 1268,-156.5"/>
<text text-anchor="start" x="1276" y="-174.5" font-family="Helvetica,sans-Serif" font-size="10.00" fill="#000000">drake/automotive/maliput</text>
<text text-anchor="middle" x="1340" y="-163.5" font-family="Helvetica,sans-Serif" font-size="10.00" fill="#000000">/multilane/builder.h</text>
</a>
</g>
</g>
<!-- Node136&#45;&gt;Node138 -->
<g id="edge3" class="edge">
<title>Node136&#45;&gt;Node138</title>
<path fill="none" stroke="#191970" d="M362.3859,-222.9658C555.3485,-200.9578 1075.9754,-180.9036 1267.8337,-174.0153"/>
<polygon fill="#191970" stroke="#191970" points="361.8682,-219.5025 352.3466,-224.1489 362.6875,-226.4544 361.8682,-219.5025"/>
</g>
<!-- Node161 -->
<g id="node27" class="node">
<title>Node161</title>
<g id="a_node27"><a xlink:href="multilane_2junction_8cc.html" target="_top" xlink:title="drake/automotive/maliput\l/multilane/junction.cc">
<polygon fill="#ffffff" stroke="#000000" points="246,-156.5 246,-186.5 390,-186.5 390,-156.5 246,-156.5"/>
<text text-anchor="start" x="254" y="-174.5" font-family="Helvetica,sans-Serif" font-size="10.00" fill="#000000">drake/automotive/maliput</text>
<text text-anchor="middle" x="318" y="-163.5" font-family="Helvetica,sans-Serif" font-size="10.00" fill="#000000">/multilane/junction.cc</text>
</a>
</g>
</g>
<!-- Node136&#45;&gt;Node161 -->
<g id="edge35" class="edge">
<title>Node136&#45;&gt;Node161</title>
<path fill="none" stroke="#191970" d="M293.6212,-214.4837C298.8868,-205.1996 304.753,-194.8565 309.4113,-186.6432"/>
<polygon fill="#191970" stroke="#191970" points="290.5118,-212.8716 288.6228,-223.2967 296.6007,-216.325 290.5118,-212.8716"/>
</g>
<!-- Node162 -->
<g id="node28" class="node">
<title>Node162</title>
<g id="a_node28"><a xlink:href="multilane_2road__geometry_8h.html" target="_top" xlink:title="drake/automotive/maliput\l/multilane/road_geometry.h">
<polygon fill="#ffffff" stroke="#000000" points="408,-156.5 408,-186.5 560,-186.5 560,-156.5 408,-156.5"/>
<text text-anchor="start" x="416" y="-174.5" font-family="Helvetica,sans-Serif" font-size="10.00" fill="#000000">drake/automotive/maliput</text>
<text text-anchor="middle" x="484" y="-163.5" font-family="Helvetica,sans-Serif" font-size="10.00" fill="#000000">/multilane/road_geometry.h</text>
</a>
</g>
</g>
<!-- Node136&#45;&gt;Node162 -->
<g id="edge36" class="edge">
<title>Node136&#45;&gt;Node162</title>
<path fill="none" stroke="#191970" d="M335.4883,-220.2759C367.6392,-209.7165 407.6355,-196.5805 438.0187,-186.6017"/>
<polygon fill="#191970" stroke="#191970" points="334.1902,-217.0182 325.7816,-223.4639 336.3744,-223.6687 334.1902,-217.0182"/>
</g>
<!-- Node136&#45;&gt;Node164 -->
<g id="edge43" class="edge">
<title>Node136&#45;&gt;Node164</title>
<path fill="none" stroke="#191970" d="M255.508,-215.7929C248.1817,-207.5046 241.0317,-197.5545 237,-187 228.654,-165.1512 229.2125,-137.9856 231.013,-119.6626"/>
<polygon fill="#191970" stroke="#191970" points="253.0826,-218.3225 262.4902,-223.1957 258.1749,-213.5195 253.0826,-218.3225"/>
</g>
<!-- Node136&#45;&gt;Node165 -->
<g id="edge44" class="edge">
<title>Node136&#45;&gt;Node165</title>
<path fill="none" stroke="#191970" d="M248.9062,-217.6462C209.4809,-191.2047 141.929,-145.8995 102.6946,-119.586"/>
<polygon fill="#191970" stroke="#191970" points="247.0897,-220.6422 257.3444,-223.3055 250.9888,-214.8286 247.0897,-220.6422"/>
</g>
<!-- Node138&#45;&gt;Node137 -->
<g id="edge4" class="edge">
<title>Node138&#45;&gt;Node137</title>
<path fill="none" stroke="#191970" d="M1257.5541,-170.0713C1128.0154,-166.7617 869.2702,-155.8451 653,-120 643.6843,-118.456 633.8772,-116.3422 624.429,-114.0475"/>
<polygon fill="#191970" stroke="#191970" points="1257.7073,-173.576 1267.7906,-170.3238 1257.8799,-166.5782 1257.7073,-173.576"/>
</g>
<!-- Node139 -->
<g id="node5" class="node">
<title>Node139</title>
<g id="a_node5"><a xlink:href="multilane_2loader_8cc.html" target="_top" xlink:title="drake/automotive/maliput\l/multilane/loader.cc">
<polygon fill="#ffffff" stroke="#000000" points="853,-6 853,-36 997,-36 997,-6 853,-6"/>
<text text-anchor="start" x="861" y="-24" font-family="Helvetica,sans-Serif" font-size="10.00" fill="#000000">drake/automotive/maliput</text>
<text text-anchor="middle" x="925" y="-13" font-family="Helvetica,sans-Serif" font-size="10.00" fill="#000000">/multilane/loader.cc</text>
</a>
</g>
</g>
<!-- Node138&#45;&gt;Node139 -->
<g id="edge5" class="edge">
<title>Node138&#45;&gt;Node139</title>
<path fill="none" stroke="#191970" d="M1326.9922,-147.2509C1313.1917,-122.4737 1291.5486,-86.4646 1278,-78 1174.5813,-13.3881 1125.6876,-65.345 1006,-42 997.3022,-40.3035 988.1504,-38.2231 979.2548,-36.0382"/>
<polygon fill="#191970" stroke="#191970" points="1323.9806,-149.038 1331.8642,-156.1162 1330.1153,-145.6667 1323.9806,-149.038"/>
</g>
<!-- Node140 -->
<g id="node6" class="node">
<title>Node140</title>
<g id="a_node6"><a xlink:href="multilane_2loader_8h.html" target="_top" xlink:title="drake/automotive/maliput\l/multilane/loader.h">
<polygon fill="#ffffff" stroke="#000000" points="1368,-84 1368,-114 1512,-114 1512,-84 1368,-84"/>
<text text-anchor="start" x="1376" y="-102" font-family="Helvetica,sans-Serif" font-size="10.00" fill="#000000">drake/automotive/maliput</text>
<text text-anchor="middle" x="1440" y="-91" font-family="Helvetica,sans-Serif" font-size="10.00" fill="#000000">/multilane/loader.h</text>
</a>
</g>
</g>
<!-- Node138&#45;&gt;Node140 -->
<g id="edge6" class="edge">
<title>Node138&#45;&gt;Node140</title>
<path fill="none" stroke="#191970" d="M1369.2312,-150.3074C1385.2929,-138.6627 1404.8318,-124.4969 1419.3065,-114.0028"/>
<polygon fill="#191970" stroke="#191970" points="1366.7618,-147.7746 1360.7201,-156.478 1370.8706,-153.4419 1366.7618,-147.7746"/>
</g>
<!-- Node141 -->
<g id="node7" class="node">
<title>Node141</title>
<g id="a_node7"><a xlink:href="multilane__loader__test_8cc.html" target="_top" xlink:title="drake/automotive/maliput\l/multilane/test/multilane\l_loader_test.cc">
<polygon fill="#ffffff" stroke="#000000" points="1692,-.5 1692,-41.5 1836,-41.5 1836,-.5 1692,-.5"/>
<text text-anchor="start" x="1700" y="-29.5" font-family="Helvetica,sans-Serif" font-size="10.00" fill="#000000">drake/automotive/maliput</text>
<text text-anchor="start" x="1700" y="-18.5" font-family="Helvetica,sans-Serif" font-size="10.00" fill="#000000">/multilane/test/multilane</text>
<text text-anchor="middle" x="1764" y="-7.5" font-family="Helvetica,sans-Serif" font-size="10.00" fill="#000000">_loader_test.cc</text>
</a>
</g>
</g>
<!-- Node138&#45;&gt;Node141 -->
<g id="edge15" class="edge">
<title>Node138&#45;&gt;Node141</title>
<path fill="none" stroke="#191970" d="M1422.0671,-158.4678C1466.8668,-150.052 1522.8574,-137.3912 1571,-120 1629.4395,-98.8891 1692.723,-63.8648 1730.3293,-41.6323"/>
<polygon fill="#191970" stroke="#191970" points="1421.3026,-155.0497 1412.1028,-160.3047 1422.5716,-161.9337 1421.3026,-155.0497"/>
</g>
<!-- Node142 -->
<g id="node8" class="node">
<title>Node142</title>
<g id="a_node8"><a xlink:href="yaml__load_8cc.html" target="_top" xlink:title="Attempts to load a yaml file as input and build a multilane road geometry. ">
<polygon fill="#ffffff" stroke="#000000" points="1015.5,-6 1015.5,-36 1170.5,-36 1170.5,-6 1015.5,-6"/>
<text text-anchor="start" x="1023.5" y="-24" font-family="Helvetica,sans-Serif" font-size="10.00" fill="#000000">drake/automotive/maliput</text>
<text text-anchor="middle" x="1093" y="-13" font-family="Helvetica,sans-Serif" font-size="10.00" fill="#000000">/multilane/test/yaml_load.cc</text>
</a>
</g>
</g>
<!-- Node138&#45;&gt;Node142 -->
<g id="edge17" class="edge">
<title>Node138&#45;&gt;Node142</title>
<path fill="none" stroke="#191970" d="M1340.2284,-146.1268C1339.0174,-125.0952 1333.8706,-95.8525 1316,-78 1314.5158,-76.5173 1218.9415,-52.4328 1153.4096,-36.0499"/>
<polygon fill="#191970" stroke="#191970" points="1336.7348,-146.3885 1340.5494,-156.2727 1343.7313,-146.167 1336.7348,-146.3885"/>
</g>
<!-- Node143 -->
<g id="node9" class="node">
<title>Node143</title>
<g id="a_node9"><a xlink:href="generate__obj__test_8cc.html" target="_top" xlink:title="drake/automotive/maliput\l/utility/test/generate\l_obj_test.cc">
<polygon fill="#ffffff" stroke="#000000" points="1368,-.5 1368,-41.5 1512,-41.5 1512,-.5 1368,-.5"/>
<text text-anchor="start" x="1376" y="-29.5" font-family="Helvetica,sans-Serif" font-size="10.00" fill="#000000">drake/automotive/maliput</text>
<text text-anchor="start" x="1376" y="-18.5" font-family="Helvetica,sans-Serif" font-size="10.00" fill="#000000">/utility/test/generate</text>
<text text-anchor="middle" x="1440" y="-7.5" font-family="Helvetica,sans-Serif" font-size="10.00" fill="#000000">_obj_test.cc</text>
</a>
</g>
</g>
<!-- Node138&#45;&gt;Node143 -->
<g id="edge23" class="edge">
<title>Node138&#45;&gt;Node143</title>
<path fill="none" stroke="#191970" d="M1422.2027,-158.0252C1463.9724,-149.3258 1508.5143,-136.5338 1521,-120 1532.2491,-105.1036 1529.5999,-94.5676 1521,-78 1513.0779,-62.7382 1498.9853,-50.7022 1484.7518,-41.7006"/>
<polygon fill="#191970" stroke="#191970" points="1421.3381,-154.6291 1412.2282,-160.0384 1422.7231,-161.4907 1421.3381,-154.6291"/>
</g>
<!-- Node144 -->
<g id="node10" class="node">
<title>Node144</title>
<g id="a_node10"><a xlink:href="generate__urdf__test_8cc.html" target="_top" xlink:title="drake/automotive/maliput\l/utility/test/generate\l_urdf_test.cc">
<polygon fill="#ffffff" stroke="#000000" points="1530,-.5 1530,-41.5 1674,-41.5 1674,-.5 1530,-.5"/>
<text text-anchor="start" x="1538" y="-29.5" font-family="Helvetica,sans-Serif" font-size="10.00" fill="#000000">drake/automotive/maliput</text>
<text text-anchor="start" x="1538" y="-18.5" font-family="Helvetica,sans-Serif" font-size="10.00" fill="#000000">/utility/test/generate</text>
<text text-anchor="middle" x="1602" y="-7.5" font-family="Helvetica,sans-Serif" font-size="10.00" fill="#000000">_urdf_test.cc</text>
</a>
</g>
</g>
<!-- Node138&#45;&gt;Node144 -->
<g id="edge24" class="edge">
<title>Node138&#45;&gt;Node144</title>
<path fill="none" stroke="#191970" d="M1422.0999,-156.566C1468.1424,-146.9817 1520.0418,-133.7836 1539,-120 1566.353,-100.1129 1584.7223,-64.3903 1594.2574,-41.7307"/>
<polygon fill="#191970" stroke="#191970" points="1421.1706,-153.1835 1412.0746,-158.6161 1422.5731,-160.0416 1421.1706,-153.1835"/>
</g>
<!-- Node146 -->
<g id="node12" class="node">
<title>Node146</title>
<g id="a_node12"><a xlink:href="yaml__to__obj_8cc.html" target="_top" xlink:title="Take a yaml file as input, build the resulting multilane road geometry, and render the road surface t...">
<polygon fill="#ffffff" stroke="#000000" points="691,-6 691,-36 835,-36 835,-6 691,-6"/>
<text text-anchor="start" x="699" y="-24" font-family="Helvetica,sans-Serif" font-size="10.00" fill="#000000">drake/automotive/maliput</text>
<text text-anchor="middle" x="763" y="-13" font-family="Helvetica,sans-Serif" font-size="10.00" fill="#000000">/utility/yaml_to_obj.cc</text>
</a>
</g>
</g>
<!-- Node138&#45;&gt;Node146 -->
<g id="edge25" class="edge">
<title>Node138&#45;&gt;Node146</title>
<path fill="none" stroke="#191970" d="M1311.8157,-150.0433C1300.8391,-141.1946 1288.4202,-130.5526 1278,-120 1261.1254,-102.9109 1265.1903,-89.3031 1244,-78 1165.2541,-35.9962 931.9356,-57.2501 844,-42 834.8392,-40.4113 825.1963,-38.3044 815.8849,-36.0378"/>
<polygon fill="#191970" stroke="#191970" points="1309.8608,-152.9598 1319.8715,-156.4291 1314.2092,-147.4743 1309.8608,-152.9598"/>
</g>
<!-- Node147 -->
<g id="node13" class="node">
<title>Node147</title>
<g id="a_node13"><a xlink:href="multilane__builder__test_8cc.html" target="_top" xlink:title="drake/automotive/maliput\l/multilane/test/multilane\l_builder_test.cc">
<polygon fill="#ffffff" stroke="#000000" points="1854,-.5 1854,-41.5 1998,-41.5 1998,-.5 1854,-.5"/>
<text text-anchor="start" x="1862" y="-29.5" font-family="Helvetica,sans-Serif" font-size="10.00" fill="#000000">drake/automotive/maliput</text>
<text text-anchor="start" x="1862" y="-18.5" font-family="Helvetica,sans-Serif" font-size="10.00" fill="#000000">/multilane/test/multilane</text>
<text text-anchor="middle" x="1926" y="-7.5" font-family="Helvetica,sans-Serif" font-size="10.00" fill="#000000">_builder_test.cc</text>
</a>
</g>
</g>
<!-- Node138&#45;&gt;Node147 -->
<g id="edge14" class="edge">
<title>Node138&#45;&gt;Node147</title>
<path fill="none" stroke="#191970" d="M1422.0368,-160.401C1480.9477,-151.6153 1561.9783,-137.8565 1632,-120 1717.8486,-98.1075 1814.7629,-63.4725 1873.0743,-41.5107"/>
<polygon fill="#191970" stroke="#191970" points="1421.4231,-156.9536 1412.0411,-161.8757 1422.4448,-163.8786 1421.4231,-156.9536"/>
</g>
<!-- Node148 -->
<g id="node14" class="node">
<title>Node148</title>
<g id="a_node14"><a xlink:href="multilane__road__geometry__test_8cc.html" target="_top" xlink:title="drake/automotive/maliput\l/multilane/test/multilane\l_road_geometry_test.cc">
<polygon fill="#ffffff" stroke="#000000" points="662,-78.5 662,-119.5 806,-119.5 806,-78.5 662,-78.5"/>
<text text-anchor="start" x="670" y="-107.5" font-family="Helvetica,sans-Serif" font-size="10.00" fill="#000000">drake/automotive/maliput</text>
<text text-anchor="start" x="670" y="-96.5" font-family="Helvetica,sans-Serif" font-size="10.00" fill="#000000">/multilane/test/multilane</text>
<text text-anchor="middle" x="734" y="-85.5" font-family="Helvetica,sans-Serif" font-size="10.00" fill="#000000">_road_geometry_test.cc</text>
</a>
</g>
</g>
<!-- Node138&#45;&gt;Node148 -->
<g id="edge16" class="edge">
<title>Node138&#45;&gt;Node148</title>
<path fill="none" stroke="#191970" d="M1257.6558,-167.4017C1153.8225,-161.3239 970.117,-147.5425 815,-120 812.1393,-119.492 809.2311,-118.9353 806.3005,-118.3405"/>
<polygon fill="#191970" stroke="#191970" points="1257.5743,-170.9027 1267.759,-167.9835 1257.9768,-163.9143 1257.5743,-170.9027"/>
</g>
<!-- Node149 -->
<g id="node15" class="node">
<title>Node149</title>
<g id="a_node15"><a xlink:href="multilane__types__compare_8h.html" target="_top" xlink:title="drake/automotive/maliput\l/multilane/test_utilities\l/multilane_types_compare.h">
<polygon fill="#ffffff" stroke="#000000" points="1848.5,-78.5 1848.5,-119.5 2003.5,-119.5 2003.5,-78.5 1848.5,-78.5"/>
<text text-anchor="start" x="1856.5" y="-107.5" font-family="Helvetica,sans-Serif" font-size="10.00" fill="#000000">drake/automotive/maliput</text>
<text text-anchor="start" x="1856.5" y="-96.5" font-family="Helvetica,sans-Serif" font-size="10.00" fill="#000000">/multilane/test_utilities</text>
<text text-anchor="middle" x="1926" y="-85.5" font-family="Helvetica,sans-Serif" font-size="10.00" fill="#000000">/multilane_types_compare.h</text>
</a>
</g>
</g>
<!-- Node138&#45;&gt;Node149 -->
<g id="edge18" class="edge">
<title>Node138&#45;&gt;Node149</title>
<path fill="none" stroke="#191970" d="M1422.2003,-165.2736C1518.9292,-157.3692 1684.2144,-142.0551 1825,-120 1832.6084,-118.8081 1840.5104,-117.4241 1848.3927,-115.9462"/>
<polygon fill="#191970" stroke="#191970" points="1421.877,-161.7883 1412.1925,-166.085 1422.4427,-168.7654 1421.877,-161.7883"/>
</g>
<!-- Node152 -->
<g id="node18" class="node">
<title>Node152</title>
<g id="a_node18"><a xlink:href="multilane__onramp__merge_8h.html" target="_top" xlink:title="drake/automotive/multilane\l_onramp_merge.h">
<polygon fill="#ffffff" stroke="#000000" points="2438.5,-84 2438.5,-114 2591.5,-114 2591.5,-84 2438.5,-84"/>
<text text-anchor="start" x="2446.5" y="-102" font-family="Helvetica,sans-Serif" font-size="10.00" fill="#000000">drake/automotive/multilane</text>
<text text-anchor="middle" x="2515" y="-91" font-family="Helvetica,sans-Serif" font-size="10.00" fill="#000000">_onramp_merge.h</text>
</a>
</g>
</g>
<!-- Node138&#45;&gt;Node152 -->
<g id="edge26" class="edge">
<title>Node138&#45;&gt;Node152</title>
<path fill="none" stroke="#191970" d="M1422.2422,-166.4255C1639.6309,-153.0121 2227.2134,-116.757 2438.2362,-103.7365"/>
<polygon fill="#191970" stroke="#191970" points="1421.9386,-162.9375 1412.1732,-167.0468 1422.3698,-169.9242 1421.9386,-162.9375"/>
</g>
<!-- Node157 -->
<g id="node23" class="node">
<title>Node157</title>
<g id="a_node23"><a xlink:href="maliput__railcar__test_8cc.html" target="_top" xlink:title="drake/automotive/test\l/maliput_railcar_test.cc">
<polygon fill="#ffffff" stroke="#000000" points="2609.5,-84 2609.5,-114 2740.5,-114 2740.5,-84 2609.5,-84"/>
<text text-anchor="start" x="2617.5" y="-102" font-family="Helvetica,sans-Serif" font-size="10.00" fill="#000000">drake/automotive/test</text>
<text text-anchor="middle" x="2675" y="-91" font-family="Helvetica,sans-Serif" font-size="10.00" fill="#000000">/maliput_railcar_test.cc</text>
</a>
</g>
</g>
<!-- Node138&#45;&gt;Node157 -->
<g id="edge31" class="edge">
<title>Node138&#45;&gt;Node157</title>
<path fill="none" stroke="#191970" d="M1422.5636,-170.6649C1665.1421,-167.8095 2372.9127,-156.4965 2601,-120 2609.967,-118.5652 2619.3915,-116.4109 2628.3977,-114.0207"/>
<polygon fill="#191970" stroke="#191970" points="1422.3601,-167.1669 1412.4014,-170.7828 1422.4414,-174.1665 1422.3601,-167.1669"/>
</g>
<!-- Node158 -->
<g id="node24" class="node">
<title>Node158</title>
<g id="a_node24"><a xlink:href="pose__selector__test_8cc.html" target="_top" xlink:title="drake/automotive/test\l/pose_selector_test.cc">
<polygon fill="#ffffff" stroke="#000000" points="824.5,-84 824.5,-114 949.5,-114 949.5,-84 824.5,-84"/>
<text text-anchor="start" x="832.5" y="-102" font-family="Helvetica,sans-Serif" font-size="10.00" fill="#000000">drake/automotive/test</text>
<text text-anchor="middle" x="887" y="-91" font-family="Helvetica,sans-Serif" font-size="10.00" fill="#000000">/pose_selector_test.cc</text>
</a>
</g>
</g>
<!-- Node138&#45;&gt;Node158 -->
<g id="edge32" class="edge">
<title>Node138&#45;&gt;Node158</title>
<path fill="none" stroke="#191970" d="M1257.7542,-164.0989C1179.9645,-156.2319 1060.2376,-141.8759 958,-120 950.2068,-118.3325 942.0239,-116.2409 934.0972,-114.0285"/>
<polygon fill="#191970" stroke="#191970" points="1257.6747,-167.6083 1267.973,-165.1194 1258.3703,-160.643 1257.6747,-167.6083"/>
</g>
<!-- Node159 -->
<g id="node25" class="node">
<title>Node159</title>
<g id="a_node25"><a xlink:href="pure__pursuit__test_8cc.html" target="_top" xlink:title="drake/automotive/test\l/pure_pursuit_test.cc">
<polygon fill="#ffffff" stroke="#000000" points="967.5,-84 967.5,-114 1092.5,-114 1092.5,-84 967.5,-84"/>
<text text-anchor="start" x="975.5" y="-102" font-family="Helvetica,sans-Serif" font-size="10.00" fill="#000000">drake/automotive/test</text>
<text text-anchor="middle" x="1030" y="-91" font-family="Helvetica,sans-Serif" font-size="10.00" fill="#000000">/pure_pursuit_test.cc</text>
</a>
</g>
</g>
<!-- Node138&#45;&gt;Node159 -->
<g id="edge33" class="edge">
<title>Node138&#45;&gt;Node159</title>
<path fill="none" stroke="#191970" d="M1257.7932,-155.3799C1211.5311,-145.9099 1152.8217,-133.2271 1101,-120 1093.9007,-118.188 1086.4429,-116.1417 1079.1382,-114.0555"/>
<polygon fill="#191970" stroke="#191970" points="1257.2707,-158.8452 1267.768,-157.4115 1258.6678,-151.9861 1257.2707,-158.8452"/>
</g>
<!-- Node160 -->
<g id="node26" class="node">
<title>Node160</title>
<g id="a_node26"><a xlink:href="road__path__test_8cc.html" target="_top" xlink:title="drake/automotive/test\l/road_path_test.cc">
<polygon fill="#ffffff" stroke="#000000" points="1110.5,-84 1110.5,-114 1235.5,-114 1235.5,-84 1110.5,-84"/>
<text text-anchor="start" x="1118.5" y="-102" font-family="Helvetica,sans-Serif" font-size="10.00" fill="#000000">drake/automotive/test</text>
<text text-anchor="middle" x="1173" y="-91" font-family="Helvetica,sans-Serif" font-size="10.00" fill="#000000">/road_path_test.cc</text>
</a>
</g>
</g>
<!-- Node138&#45;&gt;Node160 -->
<g id="edge34" class="edge">
<title>Node138&#45;&gt;Node160</title>
<path fill="none" stroke="#191970" d="M1295.9607,-152.3811C1268.3192,-140.3811 1233.1857,-125.1285 1207.5582,-114.0028"/>
<polygon fill="#191970" stroke="#191970" points="1294.8308,-155.7062 1305.3975,-156.478 1297.6184,-149.2851 1294.8308,-155.7062"/>
</g>
<!-- Node140&#45;&gt;Node139 -->
<g id="edge7" class="edge">
<title>Node140&#45;&gt;Node139</title>
<path fill="none" stroke="#191970" d="M1357.8965,-84.4759C1343.9354,-82.1839 1329.5671,-79.9353 1316,-78 1178.6862,-58.4132 1142.346,-67.4653 1006,-42 997.1461,-40.3464 987.8298,-38.2619 978.7943,-36.0524"/>
<polygon fill="#191970" stroke="#191970" points="1357.5349,-87.9637 1367.9731,-86.1487 1358.6814,-81.0582 1357.5349,-87.9637"/>
</g>
<!-- Node140&#45;&gt;Node141 -->
<g id="edge8" class="edge">
<title>Node140&#45;&gt;Node141</title>
<path fill="none" stroke="#191970" d="M1515.8473,-81.6865C1563.8315,-70.6151 1627.1301,-55.793 1683,-42 1685.8208,-41.3036 1688.6952,-40.5879 1691.5977,-39.86"/>
<polygon fill="#191970" stroke="#191970" points="1514.8073,-78.3343 1505.8486,-83.9904 1516.3791,-85.1556 1514.8073,-78.3343"/>
</g>
<!-- Node140&#45;&gt;Node142 -->
<g id="edge9" class="edge">
<title>Node140&#45;&gt;Node142</title>
<path fill="none" stroke="#191970" d="M1369.4237,-81.5463C1364.2093,-80.3243 1359.0256,-79.1301 1354,-78 1276.5282,-60.5788 1256.4718,-59.4212 1179,-42 1170.7529,-40.1455 1162.0798,-38.1185 1153.5446,-36.0787"/>
<polygon fill="#191970" stroke="#191970" points="1368.918,-85.0233 1379.4554,-83.9213 1370.5307,-78.2116 1368.918,-85.0233"/>
</g>
<!-- Node140&#45;&gt;Node143 -->
<g id="edge10" class="edge">
<title>Node140&#45;&gt;Node143</title>
<path fill="none" stroke="#191970" d="M1440,-73.8044C1440,-63.3919 1440,-51.4721 1440,-41.5956"/>
<polygon fill="#191970" stroke="#191970" points="1436.5001,-73.9608 1440,-83.9608 1443.5001,-73.9608 1436.5001,-73.9608"/>
</g>
<!-- Node140&#45;&gt;Node144 -->
<g id="edge11" class="edge">
<title>Node140&#45;&gt;Node144</title>
<path fill="none" stroke="#191970" d="M1480.4241,-79.5366C1504.4215,-67.9822 1534.8251,-53.3435 1559.2245,-41.5956"/>
<polygon fill="#191970" stroke="#191970" points="1478.7269,-76.4691 1471.2352,-83.9608 1481.7636,-82.7761 1478.7269,-76.4691"/>
</g>
<!-- Node145 -->
<g id="node11" class="node">
<title>Node145</title>
<g id="a_node11"><a xlink:href="segment__analysis__test_8cc.html" target="_top" xlink:title="drake/automotive/maliput\l/utility/test/segment_analysis\l_test.cc">
<polygon fill="#ffffff" stroke="#000000" points="1188.5,-.5 1188.5,-41.5 1349.5,-41.5 1349.5,-.5 1188.5,-.5"/>
<text text-anchor="start" x="1196.5" y="-29.5" font-family="Helvetica,sans-Serif" font-size="10.00" fill="#000000">drake/automotive/maliput</text>
<text text-anchor="start" x="1196.5" y="-18.5" font-family="Helvetica,sans-Serif" font-size="10.00" fill="#000000">/utility/test/segment_analysis</text>
<text text-anchor="middle" x="1269" y="-7.5" font-family="Helvetica,sans-Serif" font-size="10.00" fill="#000000">_test.cc</text>
</a>
</g>
</g>
<!-- Node140&#45;&gt;Node145 -->
<g id="edge12" class="edge">
<title>Node140&#45;&gt;Node145</title>
<path fill="none" stroke="#191970" d="M1397.666,-79.6898C1372.2836,-68.1118 1340.0208,-53.3955 1314.1519,-41.5956"/>
<polygon fill="#191970" stroke="#191970" points="1396.4787,-82.9951 1407.0295,-83.9608 1399.3838,-76.6263 1396.4787,-82.9951"/>
</g>
<!-- Node140&#45;&gt;Node146 -->
<g id="edge13" class="edge">
<title>Node140&#45;&gt;Node146</title>
<path fill="none" stroke="#191970" d="M1357.8844,-87.6082C1332.3208,-84.2629 1304.0171,-80.7639 1278,-78 1085.5316,-57.5537 1034.8193,-74.4053 844,-42 834.8337,-40.4434 825.188,-38.3525 815.8756,-36.0919"/>
<polygon fill="#191970" stroke="#191970" points="1357.5362,-91.0925 1367.908,-88.9303 1358.4515,-84.1526 1357.5362,-91.0925"/>
</g>
<!-- Node149&#45;&gt;Node141 -->
<g id="edge21" class="edge">
<title>Node149&#45;&gt;Node141</title>
<path fill="none" stroke="#191970" d="M1873.9146,-73.9218C1852.1787,-63.4564 1827.2454,-51.4515 1806.6265,-41.5239"/>
<polygon fill="#191970" stroke="#191970" points="1872.4839,-77.1175 1883.0123,-78.3022 1875.5206,-70.8105 1872.4839,-77.1175"/>
</g>
<!-- Node149&#45;&gt;Node147 -->
<g id="edge19" class="edge">
<title>Node149&#45;&gt;Node147</title>
<path fill="none" stroke="#191970" d="M1926,-68.0789C1926,-59.2178 1926,-49.7747 1926,-41.6898"/>
<polygon fill="#191970" stroke="#191970" points="1922.5001,-68.0974 1926,-78.0974 1929.5001,-68.0975 1922.5001,-68.0974"/>
</g>
<!-- Node150 -->
<g id="node16" class="node">
<title>Node150</title>
<g id="a_node16"><a xlink:href="multilane__connection__test_8cc.html" target="_top" xlink:title="drake/automotive/maliput\l/multilane/test/multilane\l_connection_test.cc">
<polygon fill="#ffffff" stroke="#000000" points="2194,-.5 2194,-41.5 2338,-41.5 2338,-.5 2194,-.5"/>
<text text-anchor="start" x="2202" y="-29.5" font-family="Helvetica,sans-Serif" font-size="10.00" fill="#000000">drake/automotive/maliput</text>
<text text-anchor="start" x="2202" y="-18.5" font-family="Helvetica,sans-Serif" font-size="10.00" fill="#000000">/multilane/test/multilane</text>
<text text-anchor="middle" x="2266" y="-7.5" font-family="Helvetica,sans-Serif" font-size="10.00" fill="#000000">_connection_test.cc</text>
</a>
</g>
</g>
<!-- Node149&#45;&gt;Node150 -->
<g id="edge20" class="edge">
<title>Node149&#45;&gt;Node150</title>
<path fill="none" stroke="#191970" d="M2013.386,-80.6115C2063.6817,-69.8172 2128.0178,-55.6519 2185,-42 2187.8255,-41.3231 2190.7039,-40.6237 2193.6098,-39.9096"/>
<polygon fill="#191970" stroke="#191970" points="2012.5657,-77.2077 2003.5204,-82.7242 2014.0316,-84.0525 2012.5657,-77.2077"/>
</g>
<!-- Node151 -->
<g id="node17" class="node">
<title>Node151</title>
<g id="a_node17"><a xlink:href="multilane__types__compare_8cc.html" target="_top" xlink:title="drake/automotive/maliput\l/multilane/test_utilities\l/multilane_types_compare.cc">
<polygon fill="#ffffff" stroke="#000000" points="2016,-.5 2016,-41.5 2176,-41.5 2176,-.5 2016,-.5"/>
<text text-anchor="start" x="2024" y="-29.5" font-family="Helvetica,sans-Serif" font-size="10.00" fill="#000000">drake/automotive/maliput</text>
<text text-anchor="start" x="2024" y="-18.5" font-family="Helvetica,sans-Serif" font-size="10.00" fill="#000000">/multilane/test_utilities</text>
<text text-anchor="middle" x="2096" y="-7.5" font-family="Helvetica,sans-Serif" font-size="10.00" fill="#000000">/multilane_types_compare.cc</text>
</a>
</g>
</g>
<!-- Node149&#45;&gt;Node151 -->
<g id="edge22" class="edge">
<title>Node149&#45;&gt;Node151</title>
<path fill="none" stroke="#191970" d="M1980.3523,-74.0619C2003.2331,-63.5637 2029.5348,-51.4958 2051.2685,-41.5239"/>
<polygon fill="#191970" stroke="#191970" points="1978.7399,-70.9508 1971.1106,-78.3022 1981.6591,-77.3131 1978.7399,-70.9508"/>
</g>
<!-- Node153 -->
<g id="node19" class="node">
<title>Node153</title>
<g id="a_node19"><a xlink:href="automotive__demo_8cc.html" target="_top" xlink:title="drake/automotive/automotive\l_demo.cc">
<polygon fill="#ffffff" stroke="#000000" points="2520.5,-6 2520.5,-36 2683.5,-36 2683.5,-6 2520.5,-6"/>
<text text-anchor="start" x="2528.5" y="-24" font-family="Helvetica,sans-Serif" font-size="10.00" fill="#000000">drake/automotive/automotive</text>
<text text-anchor="middle" x="2602" y="-13" font-family="Helvetica,sans-Serif" font-size="10.00" fill="#000000">_demo.cc</text>
</a>
</g>
</g>
<!-- Node152&#45;&gt;Node153 -->
<g id="edge27" class="edge">
<title>Node152&#45;&gt;Node153</title>
<path fill="none" stroke="#191970" d="M2539.4229,-77.1036C2553.9434,-64.0853 2572.0004,-47.8962 2584.9802,-36.2592"/>
<polygon fill="#191970" stroke="#191970" points="2536.8838,-74.6793 2531.7745,-83.9608 2541.5566,-79.8913 2536.8838,-74.6793"/>
</g>
<!-- Node154 -->
<g id="node20" class="node">
<title>Node154</title>
<g id="a_node20"><a xlink:href="multilane__onramp__merge_8cc.html" target="_top" xlink:title="drake/automotive/multilane\l_onramp_merge.cc">
<polygon fill="#ffffff" stroke="#000000" points="2701.5,-6 2701.5,-36 2854.5,-36 2854.5,-6 2701.5,-6"/>
<text text-anchor="start" x="2709.5" y="-24" font-family="Helvetica,sans-Serif" font-size="10.00" fill="#000000">drake/automotive/multilane</text>
<text text-anchor="middle" x="2778" y="-13" font-family="Helvetica,sans-Serif" font-size="10.00" fill="#000000">_onramp_merge.cc</text>
</a>
</g>
</g>
<!-- Node152&#45;&gt;Node154 -->
<g id="edge28" class="edge">
<title>Node152&#45;&gt;Node154</title>
<path fill="none" stroke="#191970" d="M2575.5227,-81.0503C2621.3743,-67.4517 2683.6644,-48.9779 2726.9986,-36.1259"/>
<polygon fill="#191970" stroke="#191970" points="2574.3011,-77.7618 2565.709,-83.9608 2576.2915,-84.4729 2574.3011,-77.7618"/>
</g>
<!-- Node155 -->
<g id="node21" class="node">
<title>Node155</title>
<g id="a_node21"><a xlink:href="calc__ongoing__road__position__test_8cc.html" target="_top" xlink:title="drake/automotive/test\l/calc_ongoing_road_position\l_test.cc">
<polygon fill="#ffffff" stroke="#000000" points="2872.5,-.5 2872.5,-41.5 3027.5,-41.5 3027.5,-.5 2872.5,-.5"/>
<text text-anchor="start" x="2880.5" y="-29.5" font-family="Helvetica,sans-Serif" font-size="10.00" fill="#000000">drake/automotive/test</text>
<text text-anchor="start" x="2880.5" y="-18.5" font-family="Helvetica,sans-Serif" font-size="10.00" fill="#000000">/calc_ongoing_road_position</text>
<text text-anchor="middle" x="2950" y="-7.5" font-family="Helvetica,sans-Serif" font-size="10.00" fill="#000000">_test.cc</text>
</a>
</g>
</g>
<!-- Node152&#45;&gt;Node155 -->
<g id="edge29" class="edge">
<title>Node152&#45;&gt;Node155</title>
<path fill="none" stroke="#191970" d="M2583.1906,-81.6675C2589.1966,-80.3478 2595.1963,-79.1027 2601,-78 2716.9052,-55.9773 2748.0948,-64.0227 2864,-42 2866.7178,-41.4836 2869.4787,-40.936 2872.263,-40.3641"/>
<polygon fill="#191970" stroke="#191970" points="2582.0923,-78.3274 2573.1106,-83.947 2583.6363,-85.155 2582.0923,-78.3274"/>
</g>
<!-- Node156 -->
<g id="node22" class="node">
<title>Node156</title>
<g id="a_node22"><a xlink:href="multilane__onramp__merge__test_8cc.html" target="_top" xlink:title="drake/automotive/test\l/multilane_onramp_merge\l_test.cc">
<polygon fill="#ffffff" stroke="#000000" points="2356,-.5 2356,-41.5 2502,-41.5 2502,-.5 2356,-.5"/>
<text text-anchor="start" x="2364" y="-29.5" font-family="Helvetica,sans-Serif" font-size="10.00" fill="#000000">drake/automotive/test</text>
<text text-anchor="start" x="2364" y="-18.5" font-family="Helvetica,sans-Serif" font-size="10.00" fill="#000000">/multilane_onramp_merge</text>
<text text-anchor="middle" x="2429" y="-7.5" font-family="Helvetica,sans-Serif" font-size="10.00" fill="#000000">_test.cc</text>
</a>
</g>
</g>
<!-- Node152&#45;&gt;Node156 -->
<g id="edge30" class="edge">
<title>Node152&#45;&gt;Node156</title>
<path fill="none" stroke="#191970" d="M2490.7858,-77.0383C2478.5316,-65.924 2463.7437,-52.5118 2451.708,-41.5956"/>
<polygon fill="#191970" stroke="#191970" points="2488.6598,-79.8352 2498.4183,-83.9608 2493.3625,-74.6501 2488.6598,-79.8352"/>
</g>
<!-- Node162&#45;&gt;Node137 -->
<g id="edge37" class="edge">
<title>Node162&#45;&gt;Node137</title>
<path fill="none" stroke="#191970" d="M510.1169,-149.9833C524.1758,-138.4007 541.17,-124.3998 553.7897,-114.0028"/>
<polygon fill="#191970" stroke="#191970" points="507.7262,-147.418 502.2337,-156.478 512.1772,-152.8206 507.7262,-147.418"/>
</g>
<!-- Node162&#45;&gt;Node148 -->
<g id="edge40" class="edge">
<title>Node162&#45;&gt;Node148</title>
<path fill="none" stroke="#191970" d="M545.59,-153.6389C581.23,-143.3033 626.2246,-130.2549 663.3051,-119.5015"/>
<polygon fill="#191970" stroke="#191970" points="544.4296,-150.3311 535.8002,-156.478 546.3793,-157.0541 544.4296,-150.3311"/>
</g>
<!-- Node162&#45;&gt;Node158 -->
<g id="edge42" class="edge">
<title>Node162&#45;&gt;Node158</title>
<path fill="none" stroke="#191970" d="M570.2239,-161.1957C637.3596,-152.4249 732.6578,-138.3332 815,-120 822.6258,-118.3022 830.632,-116.2466 838.4216,-114.0943"/>
<polygon fill="#191970" stroke="#191970" points="569.581,-157.7497 560.1129,-162.5043 570.4795,-164.6918 569.581,-157.7497"/>
</g>
<!-- Node163 -->
<g id="node29" class="node">
<title>Node163</title>
<g id="a_node29"><a xlink:href="multilane_2road__geometry_8cc.html" target="_top" xlink:title="drake/automotive/maliput\l/multilane/road_geometry.cc">
<polygon fill="#ffffff" stroke="#000000" points="324.5,-84 324.5,-114 481.5,-114 481.5,-84 324.5,-84"/>
<text text-anchor="start" x="332.5" y="-102" font-family="Helvetica,sans-Serif" font-size="10.00" fill="#000000">drake/automotive/maliput</text>
<text text-anchor="middle" x="403" y="-91" font-family="Helvetica,sans-Serif" font-size="10.00" fill="#000000">/multilane/road_geometry.cc</text>
</a>
</g>
</g>
<!-- Node162&#45;&gt;Node163 -->
<g id="edge38" class="edge">
<title>Node162&#45;&gt;Node163</title>
<path fill="none" stroke="#191970" d="M459.5971,-149.6579C446.728,-138.1393 431.2691,-124.3026 419.7618,-114.0028"/>
<polygon fill="#191970" stroke="#191970" points="457.4312,-152.4166 467.2167,-156.478 462.0998,-147.2007 457.4312,-152.4166"/>
</g>
<!-- Node162&#45;&gt;Node164 -->
<g id="edge39" class="edge">
<title>Node162&#45;&gt;Node164</title>
<path fill="none" stroke="#191970" d="M422.41,-153.6389C386.77,-143.3033 341.7754,-130.2549 304.6949,-119.5015"/>
<polygon fill="#191970" stroke="#191970" points="421.6207,-157.0541 432.1998,-156.478 423.5704,-150.3311 421.6207,-157.0541"/>
</g>
<!-- Node162&#45;&gt;Node165 -->
<g id="edge41" class="edge">
<title>Node162&#45;&gt;Node165</title>
<path fill="none" stroke="#191970" d="M397.4549,-155.7896C288.2164,-138.2872 258.1334,-141.256 153,-120 150.1521,-119.4242 147.2549,-118.8102 144.3333,-118.1675"/>
<polygon fill="#191970" stroke="#191970" points="397.1346,-159.2834 407.5663,-157.4315 398.2566,-152.3739 397.1346,-159.2834"/>
</g>
</g>
</svg>
        <g id="navigator" transform="translate(0 0)" fill="#404254">
                <rect fill="#f2f5e9" fill-opacity="0.5" stroke="#606060" stroke-width=".5" x="0" y="0" width="60" height="60"/>
                <use id="zoomplus" xlink:href="#zoomPlus" x="17" y="9" onmousedown="handleZoom(evt,'in')"/>
                <use id="zoomminus" xlink:href="#zoomMin" x="42" y="9" onmousedown="handleZoom(evt,'out')"/>
                <use id="reset" xlink:href="#resetDef" x="30" y="36" onmousedown="handleReset()"/>
                <g id="arrowUp" xlink:href="#dirArrow" transform="translate(30 24)" onmousedown="handlePan(0,-1)">
                  <use xlink:href="#rim" fill="#404040">
                        <set attributeName="fill" to="#808080" begin="arrowUp.mouseover" end="arrowUp.mouseout"/>
                  </use>
                  <path fill="none" stroke="white" stroke-width="1.5" d="M0,-3.0v7 M-2.5,-0.5L0,-3.0L2.5,-0.5"/>
                </g>
                <g id="arrowRight" xlink:href="#dirArrow" transform="rotate(90) translate(36 -43)" onmousedown="handlePan(1,0)">
                  <use xlink:href="#rim" fill="#404040">
                        <set attributeName="fill" to="#808080" begin="arrowRight.mouseover" end="arrowRight.mouseout"/>
                  </use>
                  <path fill="none" stroke="white" stroke-width="1.5" d="M0,-3.0v7 M-2.5,-0.5L0,-3.0L2.5,-0.5"/>
                </g>
                <g id="arrowDown" xlink:href="#dirArrow" transform="rotate(180) translate(-30 -48)" onmousedown="handlePan(0,1)">
                  <use xlink:href="#rim" fill="#404040">
                        <set attributeName="fill" to="#808080" begin="arrowDown.mouseover" end="arrowDown.mouseout"/>
                  </use>
                  <path fill="none" stroke="white" stroke-width="1.5" d="M0,-3.0v7 M-2.5,-0.5L0,-3.0L2.5,-0.5"/>
                </g>
                <g id="arrowLeft" xlink:href="#dirArrow" transform="rotate(270) translate(-36 17)" onmousedown="handlePan(-1,0)">
                  <use xlink:href="#rim" fill="#404040">
                        <set attributeName="fill" to="#808080" begin="arrowLeft.mouseover" end="arrowLeft.mouseout"/>
                  </use>
                  <path fill="none" stroke="white" stroke-width="1.5" d="M0,-3.0v7 M-2.5,-0.5L0,-3.0L2.5,-0.5"/>
                </g>
        </g>
        <svg viewBox="0 0 15 15" width="100%" height="30px" preserveAspectRatio="xMaxYMin meet">
         <g id="arrow_out" transform="scale(0.3 0.3)">
          <a xlink:href="multilane_2segment_8h__dep__incl_org.svg" target="_base">
           <rect id="button" ry="5" rx="5" y="6" x="6" height="38" width="38"
                fill="#f2f5e9" fill-opacity="0.5" stroke="#606060" stroke-width="1.0"/>
           <path id="arrow"
             d="M 11.500037,31.436501 C 11.940474,20.09759 22.043105,11.32322 32.158766,21.979434 L 37.068811,17.246167 C 37.068811,17.246167 37.088388,32 37.088388,32 L 22.160133,31.978069 C 22.160133,31.978069 26.997745,27.140456 26.997745,27.140456 C 18.528582,18.264221 13.291696,25.230495 11.500037,31.436501 z"
             style="fill:#404040;"/>
          </a>
         </g>
        </svg>
</svg>
