<?xml version="1.0" encoding="UTF-8" standalone="no"?>
<!DOCTYPE svg PUBLIC "-//W3C//DTD SVG 1.1//EN"
 "http://www.w3.org/Graphics/SVG/1.1/DTD/svg11.dtd">
<!-- Generated by graphviz version 2.40.1 (20161225.0304)
 -->
<!-- Title: drake/multibody/parsing/parser_common.h Pages: 1 -->
<svg width="656pt" height="106pt"
 viewBox="0.00 0.00 656.00 106.00" xmlns="http://www.w3.org/2000/svg" xmlns:xlink="http://www.w3.org/1999/xlink">
<g id="graph0" class="graph" transform="scale(1 1) rotate(0) translate(4 102)">
<title>drake/multibody/parsing/parser_common.h</title>
<polygon fill="#ffffff" stroke="transparent" points="-4,4 -4,-102 652,-102 652,4 -4,4"/>
<!-- Node2 -->
<g id="node1" class="node">
<title>Node2</title>
<polygon fill="#bfbfbf" stroke="#000000" points="257,-67.5 257,-97.5 393,-97.5 393,-67.5 257,-67.5"/>
<text text-anchor="start" x="265" y="-85.5" font-family="Helvetica,sans-Serif" font-size="10.00" fill="#000000">drake/multibody/parsing</text>
<text text-anchor="middle" x="325" y="-74.5" font-family="Helvetica,sans-Serif" font-size="10.00" fill="#000000">/parser_common.h</text>
</g>
<!-- Node3 -->
<g id="node2" class="node">
<title>Node3</title>
<g id="a_node2"><a xlink:href="multibody_2parsing_2parser__common_8cc.html" target="_top" xlink:title="drake/multibody/parsing\l/parser_common.cc">
<polygon fill="#ffffff" stroke="#000000" points="0,-.5 0,-30.5 136,-30.5 136,-.5 0,-.5"/>
<text text-anchor="start" x="8" y="-18.5" font-family="Helvetica,sans-Serif" font-size="10.00" fill="#000000">drake/multibody/parsing</text>
<text text-anchor="middle" x="68" y="-7.5" font-family="Helvetica,sans-Serif" font-size="10.00" fill="#000000">/parser_common.cc</text>
</a>
</g>
</g>
<!-- Node2&#45;&gt;Node3 -->
<g id="edge1" class="edge">
<title>Node2&#45;&gt;Node3</title>
<path fill="none" stroke="#191970" d="M257.4412,-64.8874C216.551,-54.2273 164.9467,-40.774 125.9274,-30.6017"/>
<polygon fill="#191970" stroke="#191970" points="256.7646,-68.3279 267.3242,-67.4639 258.5306,-61.5543 256.7646,-68.3279"/>
</g>
<!-- Node4 -->
<g id="node3" class="node">
<title>Node4</title>
<g id="a_node3"><a xlink:href="scene__graph__parser__detail_8cc.html" target="_top" xlink:title="drake/multibody/parsing\l/scene_graph_parser_detail.cc">
<polygon fill="#ffffff" stroke="#000000" points="154,-.5 154,-30.5 318,-30.5 318,-.5 154,-.5"/>
<text text-anchor="start" x="162" y="-18.5" font-family="Helvetica,sans-Serif" font-size="10.00" fill="#000000">drake/multibody/parsing</text>
<text text-anchor="middle" x="236" y="-7.5" font-family="Helvetica,sans-Serif" font-size="10.00" fill="#000000">/scene_graph_parser_detail.cc</text>
</a>
</g>
</g>
<!-- Node2&#45;&gt;Node4 -->
<g id="edge2" class="edge">
<title>Node2&#45;&gt;Node4</title>
<path fill="none" stroke="#191970" d="M296.5257,-61.0643C283.3662,-51.1577 268.0487,-39.6265 256.1156,-30.6432"/>
<polygon fill="#191970" stroke="#191970" points="294.7103,-64.0785 304.8045,-67.2967 298.9203,-58.486 294.7103,-64.0785"/>
</g>
<!-- Node5 -->
<g id="node4" class="node">
<title>Node5</title>
<g id="a_node4"><a xlink:href="common__parser__test_8cc.html" target="_top" xlink:title="This file contains tests which check the properties of a multibody plant loaded from different format...">
<polygon fill="#ffffff" stroke="#000000" points="336,-.5 336,-30.5 494,-30.5 494,-.5 336,-.5"/>
<text text-anchor="start" x="344" y="-18.5" font-family="Helvetica,sans-Serif" font-size="10.00" fill="#000000">drake/multibody/parsing</text>
<text text-anchor="middle" x="415" y="-7.5" font-family="Helvetica,sans-Serif" font-size="10.00" fill="#000000">/test/common_parser_test.cc</text>
</a>
</g>
</g>
<!-- Node2&#45;&gt;Node5 -->
<g id="edge3" class="edge">
<title>Node2&#45;&gt;Node5</title>
<path fill="none" stroke="#191970" d="M353.7942,-61.0643C367.1016,-51.1577 382.5913,-39.6265 394.6584,-30.6432"/>
<polygon fill="#191970" stroke="#191970" points="351.3537,-58.5177 345.4224,-67.2967 355.5338,-64.1327 351.3537,-58.5177"/>
</g>
<!-- Node6 -->
<g id="node5" class="node">
<title>Node6</title>
<g id="a_node5"><a xlink:href="urdf__geometry_8cc.html" target="_top" xlink:title="drake/multibody/parsing\l/urdf_geometry.cc">
<polygon fill="#ffffff" stroke="#000000" points="512,-.5 512,-30.5 648,-30.5 648,-.5 512,-.5"/>
<text text-anchor="start" x="520" y="-18.5" font-family="Helvetica,sans-Serif" font-size="10.00" fill="#000000">drake/multibody/parsing</text>
<text text-anchor="middle" x="580" y="-7.5" font-family="Helvetica,sans-Serif" font-size="10.00" fill="#000000">/urdf_geometry.cc</text>
</a>
</g>
</g>
<!-- Node2&#45;&gt;Node6 -->
<g id="edge4" class="edge">
<title>Node2&#45;&gt;Node6</title>
<path fill="none" stroke="#191970" d="M392.033,-64.8874C432.6051,-54.2273 483.8078,-40.774 522.5234,-30.6017"/>
<polygon fill="#191970" stroke="#191970" points="391.0093,-61.5375 382.227,-67.4639 392.7882,-68.3077 391.0093,-61.5375"/>
</g>
</g>
</svg>
