<?xml version="1.0" encoding="UTF-8" standalone="no"?>
<!DOCTYPE svg PUBLIC "-//W3C//DTD SVG 1.1//EN"
 "http://www.w3.org/Graphics/SVG/1.1/DTD/svg11.dtd">
<!-- Generated by graphviz version 2.40.1 (20161225.0304)
 -->
<!-- Title: drake/multibody/tree/revolute_joint.h Pages: 1 -->
<!--zoomable 117 -->
<svg id="main" version="1.1" xmlns="http://www.w3.org/2000/svg" xmlns:xlink="http://www.w3.org/1999/xlink" xml:space="preserve" onload="init(evt)">
<style type="text/css"><![CDATA[
.edge:hover path { stroke: red; }
.edge:hover polygon { stroke: red; fill: red; }
]]></style>
<script type="text/javascript"><![CDATA[
var edges = document.getElementsByTagName('g');
if (edges && edges.length) {
  for (var i=0;i<edges.length;i++) {
    if (edges[i].id.substr(0,4)=='edge') {
      edges[i].setAttribute('class','edge');
    }
  }
}
]]></script>
        <defs>
                <circle id="rim" cx="0" cy="0" r="7"/>
                <circle id="rim2" cx="0" cy="0" r="3.5"/>
                <g id="zoomPlus">
                        <use xlink:href="#rim" fill="#404040">
                                <set attributeName="fill" to="#808080" begin="zoomplus.mouseover" end="zoomplus.mouseout"/>
                        </use>
                        <path d="M-4,0h8M0,-4v8" fill="none" stroke="white" stroke-width="1.5" pointer-events="none"/>
                </g>
                <g id="zoomMin">
                        <use xlink:href="#rim" fill="#404040">
                                <set attributeName="fill" to="#808080" begin="zoomminus.mouseover" end="zoomminus.mouseout"/>
                        </use>
                        <path d="M-4,0h8" fill="none" stroke="white" stroke-width="1.5" pointer-events="none"/>
                </g>
                <g id="dirArrow">
                        <path fill="none" stroke="white" stroke-width="1.5" d="M0,-3.0v7 M-2.5,-0.5L0,-3.0L2.5,-0.5"/>
                </g>
               <g id="resetDef">
                       <use xlink:href="#rim2" fill="#404040">
                               <set attributeName="fill" to="#808080" begin="reset.mouseover" end="reset.mouseout"/>
                       </use>
               </g>
        </defs>

<script type="text/javascript">
var viewWidth = 988;
var viewHeight = 117;
var sectionId = 'dynsection-1';
</script>
<script xlink:href="svgpan.js"/>
<svg id="graph" class="graph">
<g id="viewport">
<title>drake/multibody/tree/revolute_joint.h</title>
<polygon fill="#ffffff" stroke="transparent" points="-4,4 -4,-113 983.5,-113 983.5,4 -4,4"/>
<!-- Node127 -->
<g id="node1" class="node">
<title>Node127</title>
<polygon fill="#bfbfbf" stroke="#000000" points="419,-78.5 419,-108.5 538,-108.5 538,-78.5 419,-78.5"/>
<text text-anchor="start" x="427" y="-96.5" font-family="Helvetica,sans-Serif" font-size="10.00" fill="#000000">drake/multibody/tree</text>
<text text-anchor="middle" x="478.5" y="-85.5" font-family="Helvetica,sans-Serif" font-size="10.00" fill="#000000">/revolute_joint.h</text>
</g>
<!-- Node128 -->
<g id="node2" class="node">
<title>Node128</title>
<g id="a_node2"><a xlink:href="multibody_2tree_2revolute__joint_8cc.html" target="_top" xlink:title="drake/multibody/tree\l/revolute_joint.cc">
<polygon fill="#ffffff" stroke="#000000" points="0,-6 0,-36 119,-36 119,-6 0,-6"/>
<text text-anchor="start" x="8" y="-24" font-family="Helvetica,sans-Serif" font-size="10.00" fill="#000000">drake/multibody/tree</text>
<text text-anchor="middle" x="59.5" y="-13" font-family="Helvetica,sans-Serif" font-size="10.00" fill="#000000">/revolute_joint.cc</text>
</a>
</g>
</g>
<!-- Node127&#45;&gt;Node128 -->
<g id="edge1" class="edge">
<title>Node127&#45;&gt;Node128</title>
<path fill="none" stroke="#191970" d="M408.6924,-86.3379C337.6439,-78.3232 224.6017,-63.5677 128.5,-42 121.0472,-40.3274 113.2284,-38.2595 105.6412,-36.0798"/>
<polygon fill="#191970" stroke="#191970" points="408.5371,-89.8422 418.8632,-87.4715 409.3125,-82.8853 408.5371,-89.8422"/>
</g>
<!-- Node129 -->
<g id="node3" class="node">
<title>Node129</title>
<g id="a_node3"><a xlink:href="multibody__forces__test_8cc.html" target="_top" xlink:title="drake/multibody/tree\l/test/multibody_forces\l_test.cc">
<polygon fill="#ffffff" stroke="#000000" points="137.5,-.5 137.5,-41.5 263.5,-41.5 263.5,-.5 137.5,-.5"/>
<text text-anchor="start" x="145.5" y="-29.5" font-family="Helvetica,sans-Serif" font-size="10.00" fill="#000000">drake/multibody/tree</text>
<text text-anchor="start" x="145.5" y="-18.5" font-family="Helvetica,sans-Serif" font-size="10.00" fill="#000000">/test/multibody_forces</text>
<text text-anchor="middle" x="200.5" y="-7.5" font-family="Helvetica,sans-Serif" font-size="10.00" fill="#000000">_test.cc</text>
</a>
</g>
</g>
<!-- Node127&#45;&gt;Node129 -->
<g id="edge2" class="edge">
<title>Node127&#45;&gt;Node129</title>
<path fill="none" stroke="#191970" d="M408.9245,-76.8184C368.9186,-67.0485 317.7691,-54.2554 272.5,-42 269.6093,-41.2174 266.6568,-40.4059 263.677,-39.5771"/>
<polygon fill="#191970" stroke="#191970" points="408.3008,-80.2687 418.8451,-79.2349 409.9575,-73.4676 408.3008,-80.2687"/>
</g>
<!-- Node130 -->
<g id="node4" class="node">
<title>Node130</title>
<g id="a_node4"><a xlink:href="multibody__tree__creation__test_8cc.html" target="_top" xlink:title="drake/multibody/tree\l/test/multibody_tree\l_creation_test.cc">
<polygon fill="#ffffff" stroke="#000000" points="282,-.5 282,-41.5 401,-41.5 401,-.5 282,-.5"/>
<text text-anchor="start" x="290" y="-29.5" font-family="Helvetica,sans-Serif" font-size="10.00" fill="#000000">drake/multibody/tree</text>
<text text-anchor="start" x="290" y="-18.5" font-family="Helvetica,sans-Serif" font-size="10.00" fill="#000000">/test/multibody_tree</text>
<text text-anchor="middle" x="341.5" y="-7.5" font-family="Helvetica,sans-Serif" font-size="10.00" fill="#000000">_creation_test.cc</text>
</a>
</g>
</g>
<!-- Node127&#45;&gt;Node130 -->
<g id="edge3" class="edge">
<title>Node127&#45;&gt;Node130</title>
<path fill="none" stroke="#191970" d="M441.1901,-73.7557C422.2831,-63.7502 399.3452,-51.6115 380.2408,-41.5015"/>
<polygon fill="#191970" stroke="#191970" points="439.6377,-76.894 450.1135,-78.478 442.9119,-70.707 439.6377,-76.894"/>
</g>
<!-- Node131 -->
<g id="node5" class="node">
<title>Node131</title>
<g id="a_node5"><a xlink:href="multibody__tree__test_8cc.html" target="_top" xlink:title="drake/multibody/tree\l/test/multibody_tree\l_test.cc">
<polygon fill="#ffffff" stroke="#000000" points="419,-.5 419,-41.5 538,-41.5 538,-.5 419,-.5"/>
<text text-anchor="start" x="427" y="-29.5" font-family="Helvetica,sans-Serif" font-size="10.00" fill="#000000">drake/multibody/tree</text>
<text text-anchor="start" x="427" y="-18.5" font-family="Helvetica,sans-Serif" font-size="10.00" fill="#000000">/test/multibody_tree</text>
<text text-anchor="middle" x="478.5" y="-7.5" font-family="Helvetica,sans-Serif" font-size="10.00" fill="#000000">_test.cc</text>
</a>
</g>
</g>
<!-- Node127&#45;&gt;Node131 -->
<g id="edge4" class="edge">
<title>Node127&#45;&gt;Node131</title>
<path fill="none" stroke="#191970" d="M478.5,-68.4016C478.5,-59.6173 478.5,-49.8652 478.5,-41.5015"/>
<polygon fill="#191970" stroke="#191970" points="475.0001,-68.4779 478.5,-78.478 482.0001,-68.478 475.0001,-68.4779"/>
</g>
<!-- Node132 -->
<g id="node6" class="node">
<title>Node132</title>
<g id="a_node6"><a xlink:href="revolute__joint__test_8cc.html" target="_top" xlink:title="drake/multibody/tree\l/test/revolute_joint\l_test.cc">
<polygon fill="#ffffff" stroke="#000000" points="556,-.5 556,-41.5 675,-41.5 675,-.5 556,-.5"/>
<text text-anchor="start" x="564" y="-29.5" font-family="Helvetica,sans-Serif" font-size="10.00" fill="#000000">drake/multibody/tree</text>
<text text-anchor="start" x="564" y="-18.5" font-family="Helvetica,sans-Serif" font-size="10.00" fill="#000000">/test/revolute_joint</text>
<text text-anchor="middle" x="615.5" y="-7.5" font-family="Helvetica,sans-Serif" font-size="10.00" fill="#000000">_test.cc</text>
</a>
</g>
</g>
<!-- Node127&#45;&gt;Node132 -->
<g id="edge5" class="edge">
<title>Node127&#45;&gt;Node132</title>
<path fill="none" stroke="#191970" d="M515.8099,-73.7557C534.7169,-63.7502 557.6548,-51.6115 576.7592,-41.5015"/>
<polygon fill="#191970" stroke="#191970" points="514.0881,-70.707 506.8865,-78.478 517.3623,-76.894 514.0881,-70.707"/>
</g>
<!-- Node133 -->
<g id="node7" class="node">
<title>Node133</title>
<g id="a_node7"><a xlink:href="tree__from__joints__test_8cc.html" target="_top" xlink:title="drake/multibody/tree\l/test/tree_from_joints\l_test.cc">
<polygon fill="#ffffff" stroke="#000000" points="693.5,-.5 693.5,-41.5 815.5,-41.5 815.5,-.5 693.5,-.5"/>
<text text-anchor="start" x="701.5" y="-29.5" font-family="Helvetica,sans-Serif" font-size="10.00" fill="#000000">drake/multibody/tree</text>
<text text-anchor="start" x="701.5" y="-18.5" font-family="Helvetica,sans-Serif" font-size="10.00" fill="#000000">/test/tree_from_joints</text>
<text text-anchor="middle" x="754.5" y="-7.5" font-family="Helvetica,sans-Serif" font-size="10.00" fill="#000000">_test.cc</text>
</a>
</g>
</g>
<!-- Node127&#45;&gt;Node133 -->
<g id="edge6" class="edge">
<title>Node127&#45;&gt;Node133</title>
<path fill="none" stroke="#191970" d="M548.1114,-76.95C588.129,-67.2229 639.2782,-54.4288 684.5,-42 687.4362,-41.193 690.4371,-40.3528 693.4648,-39.4926"/>
<polygon fill="#191970" stroke="#191970" points="547.082,-73.598 538.1876,-79.3548 548.7307,-80.4011 547.082,-73.598"/>
</g>
<!-- Node134 -->
<g id="node8" class="node">
<title>Node134</title>
<g id="a_node8"><a xlink:href="tree__from__mobilizers__test_8cc.html" target="_top" xlink:title="drake/multibody/tree\l/test/tree_from_mobilizers\l_test.cc">
<polygon fill="#ffffff" stroke="#000000" points="833.5,-.5 833.5,-41.5 979.5,-41.5 979.5,-.5 833.5,-.5"/>
<text text-anchor="start" x="841.5" y="-29.5" font-family="Helvetica,sans-Serif" font-size="10.00" fill="#000000">drake/multibody/tree</text>
<text text-anchor="start" x="841.5" y="-18.5" font-family="Helvetica,sans-Serif" font-size="10.00" fill="#000000">/test/tree_from_mobilizers</text>
<text text-anchor="middle" x="906.5" y="-7.5" font-family="Helvetica,sans-Serif" font-size="10.00" fill="#000000">_test.cc</text>
</a>
</g>
</g>
<!-- Node127&#45;&gt;Node134 -->
<g id="edge7" class="edge">
<title>Node127&#45;&gt;Node134</title>
<path fill="none" stroke="#191970" d="M548.2567,-85.2605C618.3972,-76.4737 729.4615,-61.1895 824.5,-42 827.381,-41.4183 830.3123,-40.7993 833.2685,-40.1524"/>
<polygon fill="#191970" stroke="#191970" points="547.7035,-81.8023 538.2118,-86.5095 548.5673,-88.7488 547.7035,-81.8023"/>
</g>
</g>
</svg>
        <g id="navigator" transform="translate(0 0)" fill="#404254">
                <rect fill="#f2f5e9" fill-opacity="0.5" stroke="#606060" stroke-width=".5" x="0" y="0" width="60" height="60"/>
                <use id="zoomplus" xlink:href="#zoomPlus" x="17" y="9" onmousedown="handleZoom(evt,'in')"/>
                <use id="zoomminus" xlink:href="#zoomMin" x="42" y="9" onmousedown="handleZoom(evt,'out')"/>
                <use id="reset" xlink:href="#resetDef" x="30" y="36" onmousedown="handleReset()"/>
                <g id="arrowUp" xlink:href="#dirArrow" transform="translate(30 24)" onmousedown="handlePan(0,-1)">
                  <use xlink:href="#rim" fill="#404040">
                        <set attributeName="fill" to="#808080" begin="arrowUp.mouseover" end="arrowUp.mouseout"/>
                  </use>
                  <path fill="none" stroke="white" stroke-width="1.5" d="M0,-3.0v7 M-2.5,-0.5L0,-3.0L2.5,-0.5"/>
                </g>
                <g id="arrowRight" xlink:href="#dirArrow" transform="rotate(90) translate(36 -43)" onmousedown="handlePan(1,0)">
                  <use xlink:href="#rim" fill="#404040">
                        <set attributeName="fill" to="#808080" begin="arrowRight.mouseover" end="arrowRight.mouseout"/>
                  </use>
                  <path fill="none" stroke="white" stroke-width="1.5" d="M0,-3.0v7 M-2.5,-0.5L0,-3.0L2.5,-0.5"/>
                </g>
                <g id="arrowDown" xlink:href="#dirArrow" transform="rotate(180) translate(-30 -48)" onmousedown="handlePan(0,1)">
                  <use xlink:href="#rim" fill="#404040">
                        <set attributeName="fill" to="#808080" begin="arrowDown.mouseover" end="arrowDown.mouseout"/>
                  </use>
                  <path fill="none" stroke="white" stroke-width="1.5" d="M0,-3.0v7 M-2.5,-0.5L0,-3.0L2.5,-0.5"/>
                </g>
                <g id="arrowLeft" xlink:href="#dirArrow" transform="rotate(270) translate(-36 17)" onmousedown="handlePan(-1,0)">
                  <use xlink:href="#rim" fill="#404040">
                        <set attributeName="fill" to="#808080" begin="arrowLeft.mouseover" end="arrowLeft.mouseout"/>
                  </use>
                  <path fill="none" stroke="white" stroke-width="1.5" d="M0,-3.0v7 M-2.5,-0.5L0,-3.0L2.5,-0.5"/>
                </g>
        </g>
        <svg viewBox="0 0 15 15" width="100%" height="30px" preserveAspectRatio="xMaxYMin meet">
         <g id="arrow_out" transform="scale(0.3 0.3)">
          <a xlink:href="multibody_2tree_2revolute__joint_8h__dep__incl_org.svg" target="_base">
           <rect id="button" ry="5" rx="5" y="6" x="6" height="38" width="38"
                fill="#f2f5e9" fill-opacity="0.5" stroke="#606060" stroke-width="1.0"/>
           <path id="arrow"
             d="M 11.500037,31.436501 C 11.940474,20.09759 22.043105,11.32322 32.158766,21.979434 L 37.068811,17.246167 C 37.068811,17.246167 37.088388,32 37.088388,32 L 22.160133,31.978069 C 22.160133,31.978069 26.997745,27.140456 26.997745,27.140456 C 18.528582,18.264221 13.291696,25.230495 11.500037,31.436501 z"
             style="fill:#404040;"/>
          </a>
         </g>
        </svg>
</svg>
