<?xml version="1.0" encoding="UTF-8" standalone="no"?>
<!DOCTYPE svg PUBLIC "-//W3C//DTD SVG 1.1//EN"
 "http://www.w3.org/Graphics/SVG/1.1/DTD/svg11.dtd">
<!-- Generated by graphviz version 2.40.1 (20161225.0304)
 -->
<!-- Title: drake/systems/primitives/multiplexer.h Pages: 1 -->
<svg width="1270pt" height="117pt"
 viewBox="0.00 0.00 1269.50 117.00" xmlns="http://www.w3.org/2000/svg" xmlns:xlink="http://www.w3.org/1999/xlink">
<g id="graph0" class="graph" transform="scale(1 1) rotate(0) translate(4 113)">
<title>drake/systems/primitives/multiplexer.h</title>
<polygon fill="#ffffff" stroke="transparent" points="-4,4 -4,-113 1265.5,-113 1265.5,4 -4,4"/>
<!-- Node110 -->
<g id="node1" class="node">
<title>Node110</title>
<polygon fill="#bfbfbf" stroke="#000000" points="565.5,-78.5 565.5,-108.5 706.5,-108.5 706.5,-78.5 565.5,-78.5"/>
<text text-anchor="start" x="573.5" y="-96.5" font-family="Helvetica,sans-Serif" font-size="10.00" fill="#000000">drake/systems/primitives</text>
<text text-anchor="middle" x="636" y="-85.5" font-family="Helvetica,sans-Serif" font-size="10.00" fill="#000000">/multiplexer.h</text>
</g>
<!-- Node111 -->
<g id="node2" class="node">
<title>Node111</title>
<g id="a_node2"><a xlink:href="primitives__py_8cc.html" target="_top" xlink:title="drake/bindings/pydrake\l/systems/primitives_py.cc">
<polygon fill="#ffffff" stroke="#000000" points="0,-6 0,-36 144,-36 144,-6 0,-6"/>
<text text-anchor="start" x="8" y="-24" font-family="Helvetica,sans-Serif" font-size="10.00" fill="#000000">drake/bindings/pydrake</text>
<text text-anchor="middle" x="72" y="-13" font-family="Helvetica,sans-Serif" font-size="10.00" fill="#000000">/systems/primitives_py.cc</text>
</a>
</g>
</g>
<!-- Node110&#45;&gt;Node111 -->
<g id="edge1" class="edge">
<title>Node110&#45;&gt;Node111</title>
<path fill="none" stroke="#191970" d="M554.8862,-88.5186C458.4987,-81.7555 293.0892,-67.4846 153,-42 143.9955,-40.3619 134.5174,-38.2583 125.3441,-36.0174"/>
<polygon fill="#191970" stroke="#191970" points="554.9253,-92.0295 565.143,-89.2281 555.4084,-85.0462 554.9253,-92.0295"/>
</g>
<!-- Node112 -->
<g id="node3" class="node">
<title>Node112</title>
<g id="a_node3"><a xlink:href="jaco__controller_8cc.html" target="_top" xlink:title="Implements a controller for a Kinova Jaco arm. ">
<polygon fill="#ffffff" stroke="#000000" points="162.5,-6 162.5,-36 317.5,-36 317.5,-6 162.5,-6"/>
<text text-anchor="start" x="170.5" y="-24" font-family="Helvetica,sans-Serif" font-size="10.00" fill="#000000">drake/examples/kinova</text>
<text text-anchor="middle" x="240" y="-13" font-family="Helvetica,sans-Serif" font-size="10.00" fill="#000000">_jaco_arm/jaco_controller.cc</text>
</a>
</g>
</g>
<!-- Node110&#45;&gt;Node112 -->
<g id="edge2" class="edge">
<title>Node110&#45;&gt;Node112</title>
<path fill="none" stroke="#191970" d="M555.0107,-81.7439C492.2833,-72.2289 403.3352,-57.8427 326,-42 317.2672,-40.211 308.077,-38.1547 299.085,-36.0441"/>
<polygon fill="#191970" stroke="#191970" points="554.8261,-85.2556 565.2365,-83.2871 555.8707,-78.334 554.8261,-85.2556"/>
</g>
<!-- Node113 -->
<g id="node4" class="node">
<title>Node113</title>
<g id="a_node4"><a xlink:href="schunk__wsg__lift__test_8cc.html" target="_top" xlink:title="This file implements a test that the Schunk WSG50 gripper can grip a box which is sitting on the worl...">
<polygon fill="#ffffff" stroke="#000000" points="335.5,-.5 335.5,-41.5 468.5,-41.5 468.5,-.5 335.5,-.5"/>
<text text-anchor="start" x="343.5" y="-29.5" font-family="Helvetica,sans-Serif" font-size="10.00" fill="#000000">drake/examples/schunk</text>
<text text-anchor="start" x="343.5" y="-18.5" font-family="Helvetica,sans-Serif" font-size="10.00" fill="#000000">_wsg/test/schunk_wsg</text>
<text text-anchor="middle" x="402" y="-7.5" font-family="Helvetica,sans-Serif" font-size="10.00" fill="#000000">_lift_test.cc</text>
</a>
</g>
</g>
<!-- Node110&#45;&gt;Node113 -->
<g id="edge3" class="edge">
<title>Node110&#45;&gt;Node113</title>
<path fill="none" stroke="#191970" d="M577.9236,-75.5062C544.6329,-65.1918 502.7294,-52.2089 468.1704,-41.5015"/>
<polygon fill="#191970" stroke="#191970" points="576.9272,-78.8616 587.515,-78.478 578.9989,-72.1752 576.9272,-78.8616"/>
</g>
<!-- Node114 -->
<g id="node5" class="node">
<title>Node114</title>
<g id="a_node5"><a xlink:href="schunk__wsg__plain__controller_8cc.html" target="_top" xlink:title="drake/manipulation\l/schunk_wsg/schunk_wsg\l_plain_controller.cc">
<polygon fill="#ffffff" stroke="#000000" points="486.5,-.5 486.5,-41.5 627.5,-41.5 627.5,-.5 486.5,-.5"/>
<text text-anchor="start" x="494.5" y="-29.5" font-family="Helvetica,sans-Serif" font-size="10.00" fill="#000000">drake/manipulation</text>
<text text-anchor="start" x="494.5" y="-18.5" font-family="Helvetica,sans-Serif" font-size="10.00" fill="#000000">/schunk_wsg/schunk_wsg</text>
<text text-anchor="middle" x="557" y="-7.5" font-family="Helvetica,sans-Serif" font-size="10.00" fill="#000000">_plain_controller.cc</text>
</a>
</g>
</g>
<!-- Node110&#45;&gt;Node114 -->
<g id="edge4" class="edge">
<title>Node110&#45;&gt;Node114</title>
<path fill="none" stroke="#191970" d="M612.0717,-71.5405C601.6707,-61.9953 589.5548,-50.8762 579.3396,-41.5015"/>
<polygon fill="#191970" stroke="#191970" points="609.8969,-74.2951 619.6311,-78.478 614.63,-69.1378 609.8969,-74.2951"/>
</g>
<!-- Node115 -->
<g id="node6" class="node">
<title>Node115</title>
<g id="a_node6"><a xlink:href="controlled__spring__mass__system_8cc.html" target="_top" xlink:title="drake/systems/analysis\l/test_utilities/controlled\l_spring_mass_system.cc">
<polygon fill="#ffffff" stroke="#000000" points="646,-.5 646,-41.5 784,-41.5 784,-.5 646,-.5"/>
<text text-anchor="start" x="654" y="-29.5" font-family="Helvetica,sans-Serif" font-size="10.00" fill="#000000">drake/systems/analysis</text>
<text text-anchor="start" x="654" y="-18.5" font-family="Helvetica,sans-Serif" font-size="10.00" fill="#000000">/test_utilities/controlled</text>
<text text-anchor="middle" x="715" y="-7.5" font-family="Helvetica,sans-Serif" font-size="10.00" fill="#000000">_spring_mass_system.cc</text>
</a>
</g>
</g>
<!-- Node110&#45;&gt;Node115 -->
<g id="edge5" class="edge">
<title>Node110&#45;&gt;Node115</title>
<path fill="none" stroke="#191970" d="M659.9283,-71.5405C670.3293,-61.9953 682.4452,-50.8762 692.6604,-41.5015"/>
<polygon fill="#191970" stroke="#191970" points="657.37,-69.1378 652.3689,-78.478 662.1031,-74.2951 657.37,-69.1378"/>
</g>
<!-- Node116 -->
<g id="node7" class="node">
<title>Node116</title>
<g id="a_node7"><a xlink:href="discrete__derivative_8cc.html" target="_top" xlink:title="drake/systems/primitives\l/discrete_derivative.cc">
<polygon fill="#ffffff" stroke="#000000" points="802.5,-6 802.5,-36 943.5,-36 943.5,-6 802.5,-6"/>
<text text-anchor="start" x="810.5" y="-24" font-family="Helvetica,sans-Serif" font-size="10.00" fill="#000000">drake/systems/primitives</text>
<text text-anchor="middle" x="873" y="-13" font-family="Helvetica,sans-Serif" font-size="10.00" fill="#000000">/discrete_derivative.cc</text>
</a>
</g>
</g>
<!-- Node110&#45;&gt;Node116 -->
<g id="edge6" class="edge">
<title>Node110&#45;&gt;Node116</title>
<path fill="none" stroke="#191970" d="M694.6797,-75.5495C734.4462,-63.3846 786.3957,-47.4929 823.9564,-36.0028"/>
<polygon fill="#191970" stroke="#191970" points="693.6453,-72.2057 685.1066,-78.478 695.693,-78.8995 693.6453,-72.2057"/>
</g>
<!-- Node117 -->
<g id="node8" class="node">
<title>Node117</title>
<g id="a_node8"><a xlink:href="multiplexer_8cc.html" target="_top" xlink:title="drake/systems/primitives\l/multiplexer.cc">
<polygon fill="#ffffff" stroke="#000000" points="961.5,-6 961.5,-36 1102.5,-36 1102.5,-6 961.5,-6"/>
<text text-anchor="start" x="969.5" y="-24" font-family="Helvetica,sans-Serif" font-size="10.00" fill="#000000">drake/systems/primitives</text>
<text text-anchor="middle" x="1032" y="-13" font-family="Helvetica,sans-Serif" font-size="10.00" fill="#000000">/multiplexer.cc</text>
</a>
</g>
</g>
<!-- Node110&#45;&gt;Node117 -->
<g id="edge7" class="edge">
<title>Node110&#45;&gt;Node117</title>
<path fill="none" stroke="#191970" d="M716.642,-82.643C780.9551,-73.4456 873.1642,-59.0526 953,-42 961.1883,-40.251 969.7985,-38.1928 978.2011,-36.0607"/>
<polygon fill="#191970" stroke="#191970" points="715.9743,-79.2026 706.5658,-84.0741 716.9587,-86.1331 715.9743,-79.2026"/>
</g>
<!-- Node118 -->
<g id="node9" class="node">
<title>Node118</title>
<g id="a_node9"><a xlink:href="multiplexer__test_8cc.html" target="_top" xlink:title="drake/systems/primitives\l/test/multiplexer_test.cc">
<polygon fill="#ffffff" stroke="#000000" points="1120.5,-6 1120.5,-36 1261.5,-36 1261.5,-6 1120.5,-6"/>
<text text-anchor="start" x="1128.5" y="-24" font-family="Helvetica,sans-Serif" font-size="10.00" fill="#000000">drake/systems/primitives</text>
<text text-anchor="middle" x="1191" y="-13" font-family="Helvetica,sans-Serif" font-size="10.00" fill="#000000">/test/multiplexer_test.cc</text>
</a>
</g>
</g>
<!-- Node110&#45;&gt;Node118 -->
<g id="edge8" class="edge">
<title>Node110&#45;&gt;Node118</title>
<path fill="none" stroke="#191970" d="M716.7802,-88.5185C811.911,-81.7869 974.4099,-67.5769 1112,-42 1120.7901,-40.366 1130.0382,-38.2644 1138.9866,-36.0244"/>
<polygon fill="#191970" stroke="#191970" points="716.3863,-85.0373 706.6541,-89.2247 716.8734,-92.0204 716.3863,-85.0373"/>
</g>
</g>
</svg>
