<?xml version="1.0" encoding="UTF-8" standalone="no"?>
<!DOCTYPE svg PUBLIC "-//W3C//DTD SVG 1.1//EN"
 "http://www.w3.org/Graphics/SVG/1.1/DTD/svg11.dtd">
<!-- Generated by graphviz version 2.40.1 (20161225.0304)
 -->
<!-- Title: drake/multibody/parsing/package_map.h Pages: 1 -->
<!--zoomable 184 -->
<svg id="main" version="1.1" xmlns="http://www.w3.org/2000/svg" xmlns:xlink="http://www.w3.org/1999/xlink" xml:space="preserve" onload="init(evt)">
<style type="text/css"><![CDATA[
.edge:hover path { stroke: red; }
.edge:hover polygon { stroke: red; fill: red; }
]]></style>
<script type="text/javascript"><![CDATA[
var edges = document.getElementsByTagName('g');
if (edges && edges.length) {
  for (var i=0;i<edges.length;i++) {
    if (edges[i].id.substr(0,4)=='edge') {
      edges[i].setAttribute('class','edge');
    }
  }
}
]]></script>
        <defs>
                <circle id="rim" cx="0" cy="0" r="7"/>
                <circle id="rim2" cx="0" cy="0" r="3.5"/>
                <g id="zoomPlus">
                        <use xlink:href="#rim" fill="#404040">
                                <set attributeName="fill" to="#808080" begin="zoomplus.mouseover" end="zoomplus.mouseout"/>
                        </use>
                        <path d="M-4,0h8M0,-4v8" fill="none" stroke="white" stroke-width="1.5" pointer-events="none"/>
                </g>
                <g id="zoomMin">
                        <use xlink:href="#rim" fill="#404040">
                                <set attributeName="fill" to="#808080" begin="zoomminus.mouseover" end="zoomminus.mouseout"/>
                        </use>
                        <path d="M-4,0h8" fill="none" stroke="white" stroke-width="1.5" pointer-events="none"/>
                </g>
                <g id="dirArrow">
                        <path fill="none" stroke="white" stroke-width="1.5" d="M0,-3.0v7 M-2.5,-0.5L0,-3.0L2.5,-0.5"/>
                </g>
               <g id="resetDef">
                       <use xlink:href="#rim2" fill="#404040">
                               <set attributeName="fill" to="#808080" begin="reset.mouseover" end="reset.mouseout"/>
                       </use>
               </g>
        </defs>

<script type="text/javascript">
var viewWidth = 1560;
var viewHeight = 184;
var sectionId = 'dynsection-1';
</script>
<script xlink:href="svgpan.js"/>
<svg id="graph" class="graph">
<g id="viewport">
<title>drake/multibody/parsing/package_map.h</title>
<polygon fill="#ffffff" stroke="transparent" points="-4,4 -4,-180 1555.5,-180 1555.5,4 -4,4"/>
<!-- Node5 -->
<g id="node1" class="node">
<title>Node5</title>
<polygon fill="#bfbfbf" stroke="#000000" points="962,-145.5 962,-175.5 1098,-175.5 1098,-145.5 962,-145.5"/>
<text text-anchor="start" x="970" y="-163.5" font-family="Helvetica,sans-Serif" font-size="10.00" fill="#000000">drake/multibody/parsing</text>
<text text-anchor="middle" x="1030" y="-152.5" font-family="Helvetica,sans-Serif" font-size="10.00" fill="#000000">/package_map.h</text>
</g>
<!-- Node6 -->
<g id="node2" class="node">
<title>Node6</title>
<g id="a_node2"><a xlink:href="attic_2multibody_2parsers_2package__map_8h.html" target="_top" xlink:title="drake/attic/multibody\l/parsers/package_map.h">
<polygon fill="#ffffff" stroke="#000000" points="198,-78.5 198,-108.5 334,-108.5 334,-78.5 198,-78.5"/>
<text text-anchor="start" x="206" y="-96.5" font-family="Helvetica,sans-Serif" font-size="10.00" fill="#000000">drake/attic/multibody</text>
<text text-anchor="middle" x="266" y="-85.5" font-family="Helvetica,sans-Serif" font-size="10.00" fill="#000000">/parsers/package_map.h</text>
</a>
</g>
</g>
<!-- Node5&#45;&gt;Node6 -->
<g id="edge1" class="edge">
<title>Node5&#45;&gt;Node6</title>
<path fill="none" stroke="#191970" d="M951.8483,-157.7926C824.0234,-152.6588 562.4818,-139.199 343,-109 340.1631,-108.6097 337.2735,-108.1791 334.359,-107.7174"/>
<polygon fill="#191970" stroke="#191970" points="951.8051,-161.2935 961.9356,-158.1915 952.0818,-154.299 951.8051,-161.2935"/>
</g>
<!-- Node7 -->
<g id="node3" class="node">
<title>Node7</title>
<g id="a_node3"><a xlink:href="parsing__py_8cc.html" target="_top" xlink:title="drake/bindings/pydrake\l/multibody/parsing_py.cc">
<polygon fill="#ffffff" stroke="#000000" points="352.5,-78.5 352.5,-108.5 491.5,-108.5 491.5,-78.5 352.5,-78.5"/>
<text text-anchor="start" x="360.5" y="-96.5" font-family="Helvetica,sans-Serif" font-size="10.00" fill="#000000">drake/bindings/pydrake</text>
<text text-anchor="middle" x="422" y="-85.5" font-family="Helvetica,sans-Serif" font-size="10.00" fill="#000000">/multibody/parsing_py.cc</text>
</a>
</g>
</g>
<!-- Node5&#45;&gt;Node7 -->
<g id="edge2" class="edge">
<title>Node5&#45;&gt;Node7</title>
<path fill="none" stroke="#191970" d="M951.6291,-155.2502C848.1067,-147.7722 660.2663,-132.321 501,-109 497.9576,-108.5545 494.8546,-108.0711 491.724,-107.5596"/>
<polygon fill="#191970" stroke="#191970" points="951.4617,-158.7471 961.6863,-155.9708 951.962,-151.765 951.4617,-158.7471"/>
</g>
<!-- Node8 -->
<g id="node4" class="node">
<title>Node8</title>
<g id="a_node4"><a xlink:href="detail__path__utils_8h.html" target="_top" xlink:title="drake/multibody/parsing\l/detail_path_utils.h">
<polygon fill="#ffffff" stroke="#000000" points="815,-78.5 815,-108.5 951,-108.5 951,-78.5 815,-78.5"/>
<text text-anchor="start" x="823" y="-96.5" font-family="Helvetica,sans-Serif" font-size="10.00" fill="#000000">drake/multibody/parsing</text>
<text text-anchor="middle" x="883" y="-85.5" font-family="Helvetica,sans-Serif" font-size="10.00" fill="#000000">/detail_path_utils.h</text>
</a>
</g>
</g>
<!-- Node5&#45;&gt;Node8 -->
<g id="edge3" class="edge">
<title>Node5&#45;&gt;Node8</title>
<path fill="none" stroke="#191970" d="M987.9036,-141.3132C965.1153,-130.9267 937.3667,-118.2794 916.1336,-108.6017"/>
<polygon fill="#191970" stroke="#191970" points="986.4593,-144.5013 997.0103,-145.4639 989.3625,-138.1317 986.4593,-144.5013"/>
</g>
<!-- Node15 -->
<g id="node11" class="node">
<title>Node15</title>
<g id="a_node11"><a xlink:href="detail__urdf__parser_8cc.html" target="_top" xlink:title="drake/multibody/parsing\l/detail_urdf_parser.cc">
<polygon fill="#ffffff" stroke="#000000" points="1058,-6 1058,-36 1194,-36 1194,-6 1058,-6"/>
<text text-anchor="start" x="1066" y="-24" font-family="Helvetica,sans-Serif" font-size="10.00" fill="#000000">drake/multibody/parsing</text>
<text text-anchor="middle" x="1126" y="-13" font-family="Helvetica,sans-Serif" font-size="10.00" fill="#000000">/detail_urdf_parser.cc</text>
</a>
</g>
</g>
<!-- Node5&#45;&gt;Node15 -->
<g id="edge21" class="edge">
<title>Node5&#45;&gt;Node15</title>
<path fill="none" stroke="#191970" d="M1031.2579,-135.3098C1033.1569,-117.9841 1037.7945,-95.1048 1049,-78 1060.6663,-60.1918 1079.9163,-45.9418 1096.2497,-36.1438"/>
<polygon fill="#191970" stroke="#191970" points="1027.7705,-135.0139 1030.3952,-145.2785 1034.7444,-135.6175 1027.7705,-135.0139"/>
</g>
<!-- Node17 -->
<g id="node13" class="node">
<title>Node17</title>
<g id="a_node13"><a xlink:href="detail__urdf__geometry__test_8cc.html" target="_top" xlink:title="drake/multibody/parsing\l/test/detail_urdf_geometry\l_test.cc">
<polygon fill="#ffffff" stroke="#000000" points="1368,-.5 1368,-41.5 1514,-41.5 1514,-.5 1368,-.5"/>
<text text-anchor="start" x="1376" y="-29.5" font-family="Helvetica,sans-Serif" font-size="10.00" fill="#000000">drake/multibody/parsing</text>
<text text-anchor="start" x="1376" y="-18.5" font-family="Helvetica,sans-Serif" font-size="10.00" fill="#000000">/test/detail_urdf_geometry</text>
<text text-anchor="middle" x="1441" y="-7.5" font-family="Helvetica,sans-Serif" font-size="10.00" fill="#000000">_test.cc</text>
</a>
</g>
</g>
<!-- Node5&#45;&gt;Node17 -->
<g id="edge23" class="edge">
<title>Node5&#45;&gt;Node17</title>
<path fill="none" stroke="#191970" d="M1107.9304,-144.2916C1138.6228,-136.1433 1173.5094,-124.6094 1203,-109 1222.2638,-98.8036 1221.6769,-88.0836 1241,-78 1252.6432,-71.9241 1315.6578,-54.342 1367.8879,-40.2956"/>
<polygon fill="#191970" stroke="#191970" points="1106.9348,-140.9337 1098.1249,-146.819 1108.682,-147.7122 1106.9348,-140.9337"/>
</g>
<!-- Node18 -->
<g id="node14" class="node">
<title>Node18</title>
<g id="a_node14"><a xlink:href="detail__scene__graph_8h.html" target="_top" xlink:title="drake/multibody/parsing\l/detail_scene_graph.h">
<polygon fill="#ffffff" stroke="#000000" points="510,-78.5 510,-108.5 646,-108.5 646,-78.5 510,-78.5"/>
<text text-anchor="start" x="518" y="-96.5" font-family="Helvetica,sans-Serif" font-size="10.00" fill="#000000">drake/multibody/parsing</text>
<text text-anchor="middle" x="578" y="-85.5" font-family="Helvetica,sans-Serif" font-size="10.00" fill="#000000">/detail_scene_graph.h</text>
</a>
</g>
</g>
<!-- Node5&#45;&gt;Node18 -->
<g id="edge13" class="edge">
<title>Node5&#45;&gt;Node18</title>
<path fill="none" stroke="#191970" d="M951.8524,-148.9162C865.6757,-136.1422 728.3881,-115.792 646.3427,-103.6304"/>
<polygon fill="#191970" stroke="#191970" points="951.4365,-152.3927 961.8416,-150.3969 952.4629,-145.4683 951.4365,-152.3927"/>
</g>
<!-- Node20 -->
<g id="node16" class="node">
<title>Node20</title>
<g id="a_node16"><a xlink:href="detail__urdf__geometry_8h.html" target="_top" xlink:title="drake/multibody/parsing\l/detail_urdf_geometry.h">
<polygon fill="#ffffff" stroke="#000000" points="1058,-78.5 1058,-108.5 1194,-108.5 1194,-78.5 1058,-78.5"/>
<text text-anchor="start" x="1066" y="-96.5" font-family="Helvetica,sans-Serif" font-size="10.00" fill="#000000">drake/multibody/parsing</text>
<text text-anchor="middle" x="1126" y="-85.5" font-family="Helvetica,sans-Serif" font-size="10.00" fill="#000000">/detail_urdf_geometry.h</text>
</a>
</g>
</g>
<!-- Node5&#45;&gt;Node20 -->
<g id="edge17" class="edge">
<title>Node5&#45;&gt;Node20</title>
<path fill="none" stroke="#191970" d="M1060.3089,-139.3469C1074.5933,-129.3776 1091.3081,-117.7121 1104.3023,-108.6432"/>
<polygon fill="#191970" stroke="#191970" points="1057.9811,-136.7033 1051.7839,-145.2967 1061.9874,-142.4436 1057.9811,-136.7033"/>
</g>
<!-- Node21 -->
<g id="node17" class="node">
<title>Node21</title>
<g id="a_node17"><a xlink:href="package__map_8cc.html" target="_top" xlink:title="drake/multibody/parsing\l/package_map.cc">
<polygon fill="#ffffff" stroke="#000000" points="1250,-78.5 1250,-108.5 1386,-108.5 1386,-78.5 1250,-78.5"/>
<text text-anchor="start" x="1258" y="-96.5" font-family="Helvetica,sans-Serif" font-size="10.00" fill="#000000">drake/multibody/parsing</text>
<text text-anchor="middle" x="1318" y="-85.5" font-family="Helvetica,sans-Serif" font-size="10.00" fill="#000000">/package_map.cc</text>
</a>
</g>
</g>
<!-- Node5&#45;&gt;Node21 -->
<g id="edge22" class="edge">
<title>Node5&#45;&gt;Node21</title>
<path fill="none" stroke="#191970" d="M1104.5479,-143.1573C1150.5513,-132.4551 1208.9896,-118.8601 1253.0853,-108.6017"/>
<polygon fill="#191970" stroke="#191970" points="1103.5796,-139.789 1094.6328,-145.4639 1105.1658,-146.6069 1103.5796,-139.789"/>
</g>
<!-- Node22 -->
<g id="node18" class="node">
<title>Node22</title>
<g id="a_node18"><a xlink:href="package__map__test_8cc.html" target="_top" xlink:title="drake/multibody/parsing\l/test/package_map_test.cc">
<polygon fill="#ffffff" stroke="#000000" points="1404.5,-78.5 1404.5,-108.5 1551.5,-108.5 1551.5,-78.5 1404.5,-78.5"/>
<text text-anchor="start" x="1412.5" y="-96.5" font-family="Helvetica,sans-Serif" font-size="10.00" fill="#000000">drake/multibody/parsing</text>
<text text-anchor="middle" x="1478" y="-85.5" font-family="Helvetica,sans-Serif" font-size="10.00" fill="#000000">/test/package_map_test.cc</text>
</a>
</g>
</g>
<!-- Node5&#45;&gt;Node22 -->
<g id="edge24" class="edge">
<title>Node5&#45;&gt;Node22</title>
<path fill="none" stroke="#191970" d="M1108.2527,-150.4824C1182.2662,-140.7653 1296.3822,-125.1574 1395,-109 1398.0379,-108.5023 1401.1358,-107.9819 1404.2636,-107.446"/>
<polygon fill="#191970" stroke="#191970" points="1107.5421,-147.0454 1098.081,-151.8138 1108.4507,-153.9862 1107.5421,-147.0454"/>
</g>
<!-- Node9 -->
<g id="node5" class="node">
<title>Node9</title>
<g id="a_node5"><a xlink:href="sdf__parser_8cc.html" target="_top" xlink:title="drake/attic/multibody\l/parsers/sdf_parser.cc">
<polygon fill="#ffffff" stroke="#000000" points="770.5,-6 770.5,-36 893.5,-36 893.5,-6 770.5,-6"/>
<text text-anchor="start" x="778.5" y="-24" font-family="Helvetica,sans-Serif" font-size="10.00" fill="#000000">drake/attic/multibody</text>
<text text-anchor="middle" x="832" y="-13" font-family="Helvetica,sans-Serif" font-size="10.00" fill="#000000">/parsers/sdf_parser.cc</text>
</a>
</g>
</g>
<!-- Node8&#45;&gt;Node9 -->
<g id="edge4" class="edge">
<title>Node8&#45;&gt;Node9</title>
<path fill="none" stroke="#191970" d="M866.4781,-70.013C858.6197,-58.8418 849.4573,-45.8167 842.5537,-36.0028"/>
<polygon fill="#191970" stroke="#191970" points="863.8165,-72.3126 872.4328,-78.478 869.5419,-68.2851 863.8165,-72.3126"/>
</g>
<!-- Node10 -->
<g id="node6" class="node">
<title>Node10</title>
<g id="a_node6"><a xlink:href="urdf__parser_8cc.html" target="_top" xlink:title="drake/attic/multibody\l/parsers/urdf_parser.cc">
<polygon fill="#ffffff" stroke="#000000" points="912,-6 912,-36 1040,-36 1040,-6 912,-6"/>
<text text-anchor="start" x="920" y="-24" font-family="Helvetica,sans-Serif" font-size="10.00" fill="#000000">drake/attic/multibody</text>
<text text-anchor="middle" x="976" y="-13" font-family="Helvetica,sans-Serif" font-size="10.00" fill="#000000">/parsers/urdf_parser.cc</text>
</a>
</g>
</g>
<!-- Node8&#45;&gt;Node10 -->
<g id="edge5" class="edge">
<title>Node8&#45;&gt;Node10</title>
<path fill="none" stroke="#191970" d="M910.185,-72.3074C925.1224,-60.6627 943.2936,-46.4969 956.755,-36.0028"/>
<polygon fill="#191970" stroke="#191970" points="908.0045,-69.5694 902.2697,-78.478 912.3082,-75.09 908.0045,-69.5694"/>
</g>
<!-- Node11 -->
<g id="node7" class="node">
<title>Node11</title>
<g id="a_node7"><a xlink:href="detail__path__utils_8cc.html" target="_top" xlink:title="drake/multibody/parsing\l/detail_path_utils.cc">
<polygon fill="#ffffff" stroke="#000000" points="462,-6 462,-36 598,-36 598,-6 462,-6"/>
<text text-anchor="start" x="470" y="-24" font-family="Helvetica,sans-Serif" font-size="10.00" fill="#000000">drake/multibody/parsing</text>
<text text-anchor="middle" x="530" y="-13" font-family="Helvetica,sans-Serif" font-size="10.00" fill="#000000">/detail_path_utils.cc</text>
</a>
</g>
</g>
<!-- Node8&#45;&gt;Node11 -->
<g id="edge6" class="edge">
<title>Node8&#45;&gt;Node11</title>
<path fill="none" stroke="#191970" d="M804.8011,-80.6642C749.3479,-71.1346 673.3082,-57.2016 607,-42 599.1666,-40.2041 590.9302,-38.1441 582.8756,-36.0317"/>
<polygon fill="#191970" stroke="#191970" points="804.4621,-84.1569 814.9088,-82.3916 805.6414,-77.2569 804.4621,-84.1569"/>
</g>
<!-- Node12 -->
<g id="node8" class="node">
<title>Node12</title>
<g id="a_node8"><a xlink:href="detail__scene__graph_8cc.html" target="_top" xlink:title="drake/multibody/parsing\l/detail_scene_graph.cc">
<polygon fill="#ffffff" stroke="#000000" points="154,-6 154,-36 290,-36 290,-6 154,-6"/>
<text text-anchor="start" x="162" y="-24" font-family="Helvetica,sans-Serif" font-size="10.00" fill="#000000">drake/multibody/parsing</text>
<text text-anchor="middle" x="222" y="-13" font-family="Helvetica,sans-Serif" font-size="10.00" fill="#000000">/detail_scene_graph.cc</text>
</a>
</g>
</g>
<!-- Node8&#45;&gt;Node12 -->
<g id="edge7" class="edge">
<title>Node8&#45;&gt;Node12</title>
<path fill="none" stroke="#191970" d="M804.6013,-88.3286C668.4984,-79.0594 393.9611,-58.9961 299,-42 290.2707,-40.4376 281.0935,-38.3439 272.238,-36.0822"/>
<polygon fill="#191970" stroke="#191970" points="804.737,-91.8457 814.9511,-89.0308 805.211,-84.8618 804.737,-91.8457"/>
</g>
<!-- Node13 -->
<g id="node9" class="node">
<title>Node13</title>
<g id="a_node9"><a xlink:href="detail__sdf__parser_8cc.html" target="_top" xlink:title="drake/multibody/parsing\l/detail_sdf_parser.cc">
<polygon fill="#ffffff" stroke="#000000" points="308,-6 308,-36 444,-36 444,-6 308,-6"/>
<text text-anchor="start" x="316" y="-24" font-family="Helvetica,sans-Serif" font-size="10.00" fill="#000000">drake/multibody/parsing</text>
<text text-anchor="middle" x="376" y="-13" font-family="Helvetica,sans-Serif" font-size="10.00" fill="#000000">/detail_sdf_parser.cc</text>
</a>
</g>
</g>
<!-- Node8&#45;&gt;Node13 -->
<g id="edge8" class="edge">
<title>Node8&#45;&gt;Node13</title>
<path fill="none" stroke="#191970" d="M804.7325,-87.6071C718.1398,-80.2814 574.7371,-65.7568 453,-42 444.5681,-40.3545 435.7041,-38.2744 427.1117,-36.0665"/>
<polygon fill="#191970" stroke="#191970" points="804.4894,-91.0989 814.7461,-88.4436 805.0721,-84.1232 804.4894,-91.0989"/>
</g>
<!-- Node14 -->
<g id="node10" class="node">
<title>Node14</title>
<g id="a_node10"><a xlink:href="detail__urdf__geometry_8cc.html" target="_top" xlink:title="drake/multibody/parsing\l/detail_urdf_geometry.cc">
<polygon fill="#ffffff" stroke="#000000" points="1212,-6 1212,-36 1350,-36 1350,-6 1212,-6"/>
<text text-anchor="start" x="1220" y="-24" font-family="Helvetica,sans-Serif" font-size="10.00" fill="#000000">drake/multibody/parsing</text>
<text text-anchor="middle" x="1281" y="-13" font-family="Helvetica,sans-Serif" font-size="10.00" fill="#000000">/detail_urdf_geometry.cc</text>
</a>
</g>
</g>
<!-- Node8&#45;&gt;Node14 -->
<g id="edge9" class="edge">
<title>Node8&#45;&gt;Node14</title>
<path fill="none" stroke="#191970" d="M961.2891,-83.2067C1026.3354,-74.1034 1121.137,-59.5582 1203,-42 1211.0901,-40.2648 1219.5942,-38.214 1227.8918,-36.0852"/>
<polygon fill="#191970" stroke="#191970" points="960.5348,-79.7778 951.1115,-84.6206 961.4981,-86.7112 960.5348,-79.7778"/>
</g>
<!-- Node8&#45;&gt;Node15 -->
<g id="edge10" class="edge">
<title>Node8&#45;&gt;Node15</title>
<path fill="none" stroke="#191970" d="M943.1653,-75.5495C983.9385,-63.3846 1037.2031,-47.4929 1075.7147,-36.0028"/>
<polygon fill="#191970" stroke="#191970" points="941.9317,-72.265 933.3498,-78.478 943.933,-78.9728 941.9317,-72.265"/>
</g>
<!-- Node16 -->
<g id="node12" class="node">
<title>Node16</title>
<g id="a_node12"><a xlink:href="detail__path__utils__test_8cc.html" target="_top" xlink:title="drake/multibody/parsing\l/test/detail_path_utils\l_test.cc">
<polygon fill="#ffffff" stroke="#000000" points="616,-.5 616,-41.5 752,-41.5 752,-.5 616,-.5"/>
<text text-anchor="start" x="624" y="-29.5" font-family="Helvetica,sans-Serif" font-size="10.00" fill="#000000">drake/multibody/parsing</text>
<text text-anchor="start" x="624" y="-18.5" font-family="Helvetica,sans-Serif" font-size="10.00" fill="#000000">/test/detail_path_utils</text>
<text text-anchor="middle" x="684" y="-7.5" font-family="Helvetica,sans-Serif" font-size="10.00" fill="#000000">_test.cc</text>
</a>
</g>
</g>
<!-- Node8&#45;&gt;Node16 -->
<g id="edge11" class="edge">
<title>Node8&#45;&gt;Node16</title>
<path fill="none" stroke="#191970" d="M832.1457,-74.9727C804.0772,-64.7467 769.1585,-52.0251 740.2731,-41.5015"/>
<polygon fill="#191970" stroke="#191970" points="831.1731,-78.3433 841.7671,-78.478 833.5693,-71.7662 831.1731,-78.3433"/>
</g>
<!-- Node8&#45;&gt;Node17 -->
<g id="edge12" class="edge">
<title>Node8&#45;&gt;Node17</title>
<path fill="none" stroke="#191970" d="M961.7336,-85.6039C1086.8725,-72.9603 1320.9637,-48.8917 1359,-42 1361.892,-41.476 1364.8327,-40.9057 1367.7966,-40.2996"/>
<polygon fill="#191970" stroke="#191970" points="961.0427,-82.1558 951.4448,-86.6426 961.7458,-89.1204 961.0427,-82.1558"/>
</g>
<!-- Node18&#45;&gt;Node12 -->
<g id="edge14" class="edge">
<title>Node18&#45;&gt;Node12</title>
<path fill="none" stroke="#191970" d="M500.3055,-78.0577C500.2036,-78.0385 500.1017,-78.0192 500,-78 410.8222,-61.1549 387.5329,-61.9594 299,-42 291.1601,-40.2325 282.9202,-38.188 274.864,-36.0827"/>
<polygon fill="#191970" stroke="#191970" points="499.4715,-81.4617 509.9504,-79.8985 500.7839,-74.5858 499.4715,-81.4617"/>
</g>
<!-- Node18&#45;&gt;Node13 -->
<g id="edge15" class="edge">
<title>Node18&#45;&gt;Node13</title>
<path fill="none" stroke="#191970" d="M526.4745,-75.0069C492.7845,-62.9152 449.3409,-47.3228 417.8009,-36.0028"/>
<polygon fill="#191970" stroke="#191970" points="525.551,-78.394 536.1455,-78.478 527.9157,-71.8055 525.551,-78.394"/>
</g>
<!-- Node19 -->
<g id="node15" class="node">
<title>Node19</title>
<g id="a_node15"><a xlink:href="detail__scene__graph__test_8cc.html" target="_top" xlink:title="drake/multibody/parsing\l/test/detail_scene_graph\l_test.cc">
<polygon fill="#ffffff" stroke="#000000" points="0,-.5 0,-41.5 136,-41.5 136,-.5 0,-.5"/>
<text text-anchor="start" x="8" y="-29.5" font-family="Helvetica,sans-Serif" font-size="10.00" fill="#000000">drake/multibody/parsing</text>
<text text-anchor="start" x="8" y="-18.5" font-family="Helvetica,sans-Serif" font-size="10.00" fill="#000000">/test/detail_scene_graph</text>
<text text-anchor="middle" x="68" y="-7.5" font-family="Helvetica,sans-Serif" font-size="10.00" fill="#000000">_test.cc</text>
</a>
</g>
</g>
<!-- Node18&#45;&gt;Node19 -->
<g id="edge16" class="edge">
<title>Node18&#45;&gt;Node19</title>
<path fill="none" stroke="#191970" d="M499.4962,-78.0346C341.3807,-55.174 297.7223,-70.3683 145,-42 142.1391,-41.4686 139.2294,-40.883 136.2983,-40.2558"/>
<polygon fill="#191970" stroke="#191970" points="499.1767,-81.5253 509.5803,-79.5213 500.1977,-74.6001 499.1767,-81.5253"/>
</g>
<!-- Node20&#45;&gt;Node14 -->
<g id="edge18" class="edge">
<title>Node20&#45;&gt;Node14</title>
<path fill="none" stroke="#191970" d="M1167.2113,-74.2237C1192.8147,-62.248 1225.2429,-47.0799 1248.925,-36.0028"/>
<polygon fill="#191970" stroke="#191970" points="1165.6913,-71.0707 1158.1161,-78.478 1168.6571,-77.4114 1165.6913,-71.0707"/>
</g>
<!-- Node20&#45;&gt;Node15 -->
<g id="edge19" class="edge">
<title>Node20&#45;&gt;Node15</title>
<path fill="none" stroke="#191970" d="M1126,-68.3409C1126,-57.5601 1126,-45.3309 1126,-36.0028"/>
<polygon fill="#191970" stroke="#191970" points="1122.5001,-68.4779 1126,-78.478 1129.5001,-68.478 1122.5001,-68.4779"/>
</g>
<!-- Node20&#45;&gt;Node17 -->
<g id="edge20" class="edge">
<title>Node20&#45;&gt;Node17</title>
<path fill="none" stroke="#191970" d="M1204.2404,-76.8843C1249.5335,-67.0962 1307.5805,-54.2633 1359,-42 1361.8589,-41.3182 1364.7716,-40.6147 1367.7123,-39.8971"/>
<polygon fill="#191970" stroke="#191970" points="1203.2285,-73.5219 1194.191,-79.0513 1204.7041,-80.3646 1203.2285,-73.5219"/>
</g>
</g>
</svg>
        <g id="navigator" transform="translate(0 0)" fill="#404254">
                <rect fill="#f2f5e9" fill-opacity="0.5" stroke="#606060" stroke-width=".5" x="0" y="0" width="60" height="60"/>
                <use id="zoomplus" xlink:href="#zoomPlus" x="17" y="9" onmousedown="handleZoom(evt,'in')"/>
                <use id="zoomminus" xlink:href="#zoomMin" x="42" y="9" onmousedown="handleZoom(evt,'out')"/>
                <use id="reset" xlink:href="#resetDef" x="30" y="36" onmousedown="handleReset()"/>
                <g id="arrowUp" xlink:href="#dirArrow" transform="translate(30 24)" onmousedown="handlePan(0,-1)">
                  <use xlink:href="#rim" fill="#404040">
                        <set attributeName="fill" to="#808080" begin="arrowUp.mouseover" end="arrowUp.mouseout"/>
                  </use>
                  <path fill="none" stroke="white" stroke-width="1.5" d="M0,-3.0v7 M-2.5,-0.5L0,-3.0L2.5,-0.5"/>
                </g>
                <g id="arrowRight" xlink:href="#dirArrow" transform="rotate(90) translate(36 -43)" onmousedown="handlePan(1,0)">
                  <use xlink:href="#rim" fill="#404040">
                        <set attributeName="fill" to="#808080" begin="arrowRight.mouseover" end="arrowRight.mouseout"/>
                  </use>
                  <path fill="none" stroke="white" stroke-width="1.5" d="M0,-3.0v7 M-2.5,-0.5L0,-3.0L2.5,-0.5"/>
                </g>
                <g id="arrowDown" xlink:href="#dirArrow" transform="rotate(180) translate(-30 -48)" onmousedown="handlePan(0,1)">
                  <use xlink:href="#rim" fill="#404040">
                        <set attributeName="fill" to="#808080" begin="arrowDown.mouseover" end="arrowDown.mouseout"/>
                  </use>
                  <path fill="none" stroke="white" stroke-width="1.5" d="M0,-3.0v7 M-2.5,-0.5L0,-3.0L2.5,-0.5"/>
                </g>
                <g id="arrowLeft" xlink:href="#dirArrow" transform="rotate(270) translate(-36 17)" onmousedown="handlePan(-1,0)">
                  <use xlink:href="#rim" fill="#404040">
                        <set attributeName="fill" to="#808080" begin="arrowLeft.mouseover" end="arrowLeft.mouseout"/>
                  </use>
                  <path fill="none" stroke="white" stroke-width="1.5" d="M0,-3.0v7 M-2.5,-0.5L0,-3.0L2.5,-0.5"/>
                </g>
        </g>
        <svg viewBox="0 0 15 15" width="100%" height="30px" preserveAspectRatio="xMaxYMin meet">
         <g id="arrow_out" transform="scale(0.3 0.3)">
          <a xlink:href="multibody_2parsing_2package__map_8h__dep__incl_org.svg" target="_base">
           <rect id="button" ry="5" rx="5" y="6" x="6" height="38" width="38"
                fill="#f2f5e9" fill-opacity="0.5" stroke="#606060" stroke-width="1.0"/>
           <path id="arrow"
             d="M 11.500037,31.436501 C 11.940474,20.09759 22.043105,11.32322 32.158766,21.979434 L 37.068811,17.246167 C 37.068811,17.246167 37.088388,32 37.088388,32 L 22.160133,31.978069 C 22.160133,31.978069 26.997745,27.140456 26.997745,27.140456 C 18.528582,18.264221 13.291696,25.230495 11.500037,31.436501 z"
             style="fill:#404040;"/>
          </a>
         </g>
        </svg>
</svg>
