<?xml version="1.0" encoding="UTF-8" standalone="no"?>
<!DOCTYPE svg PUBLIC "-//W3C//DTD SVG 1.1//EN"
 "http://www.w3.org/Graphics/SVG/1.1/DTD/svg11.dtd">
<!-- Generated by graphviz version 2.40.1 (20161225.0304)
 -->
<!-- Title: drake/automotive/maliput/multilane/loader.h Pages: 1 -->
<!--zoomable 117 -->
<svg id="main" version="1.1" xmlns="http://www.w3.org/2000/svg" xmlns:xlink="http://www.w3.org/1999/xlink" xml:space="preserve" onload="init(evt)">
<style type="text/css"><![CDATA[
.edge:hover path { stroke: red; }
.edge:hover polygon { stroke: red; fill: red; }
]]></style>
<script type="text/javascript"><![CDATA[
var edges = document.getElementsByTagName('g');
if (edges && edges.length) {
  for (var i=0;i<edges.length;i++) {
    if (edges[i].id.substr(0,4)=='edge') {
      edges[i].setAttribute('class','edge');
    }
  }
}
]]></script>
        <defs>
                <circle id="rim" cx="0" cy="0" r="7"/>
                <circle id="rim2" cx="0" cy="0" r="3.5"/>
                <g id="zoomPlus">
                        <use xlink:href="#rim" fill="#404040">
                                <set attributeName="fill" to="#808080" begin="zoomplus.mouseover" end="zoomplus.mouseout"/>
                        </use>
                        <path d="M-4,0h8M0,-4v8" fill="none" stroke="white" stroke-width="1.5" pointer-events="none"/>
                </g>
                <g id="zoomMin">
                        <use xlink:href="#rim" fill="#404040">
                                <set attributeName="fill" to="#808080" begin="zoomminus.mouseover" end="zoomminus.mouseout"/>
                        </use>
                        <path d="M-4,0h8" fill="none" stroke="white" stroke-width="1.5" pointer-events="none"/>
                </g>
                <g id="dirArrow">
                        <path fill="none" stroke="white" stroke-width="1.5" d="M0,-3.0v7 M-2.5,-0.5L0,-3.0L2.5,-0.5"/>
                </g>
               <g id="resetDef">
                       <use xlink:href="#rim2" fill="#404040">
                               <set attributeName="fill" to="#808080" begin="reset.mouseover" end="reset.mouseout"/>
                       </use>
               </g>
        </defs>

<script type="text/javascript">
var viewWidth = 1154;
var viewHeight = 117;
var sectionId = 'dynsection-1';
</script>
<script xlink:href="svgpan.js"/>
<svg id="graph" class="graph">
<g id="viewport">
<title>drake/automotive/maliput/multilane/loader.h</title>
<polygon fill="#ffffff" stroke="transparent" points="-4,4 -4,-113 1150,-113 1150,4 -4,4"/>
<!-- Node140 -->
<g id="node1" class="node">
<title>Node140</title>
<polygon fill="#bfbfbf" stroke="#000000" points="498,-78.5 498,-108.5 642,-108.5 642,-78.5 498,-78.5"/>
<text text-anchor="start" x="506" y="-96.5" font-family="Helvetica,sans-Serif" font-size="10.00" fill="#000000">drake/automotive/maliput</text>
<text text-anchor="middle" x="570" y="-85.5" font-family="Helvetica,sans-Serif" font-size="10.00" fill="#000000">/multilane/loader.h</text>
</g>
<!-- Node141 -->
<g id="node2" class="node">
<title>Node141</title>
<g id="a_node2"><a xlink:href="multilane_2loader_8cc.html" target="_top" xlink:title="drake/automotive/maliput\l/multilane/loader.cc">
<polygon fill="#ffffff" stroke="#000000" points="0,-6 0,-36 144,-36 144,-6 0,-6"/>
<text text-anchor="start" x="8" y="-24" font-family="Helvetica,sans-Serif" font-size="10.00" fill="#000000">drake/automotive/maliput</text>
<text text-anchor="middle" x="72" y="-13" font-family="Helvetica,sans-Serif" font-size="10.00" fill="#000000">/multilane/loader.cc</text>
</a>
</g>
</g>
<!-- Node140&#45;&gt;Node141 -->
<g id="edge1" class="edge">
<title>Node140&#45;&gt;Node141</title>
<path fill="none" stroke="#191970" d="M487.9387,-86.5622C403.4852,-78.6759 268.3366,-63.9755 153,-42 144.2949,-40.3414 135.1393,-38.2809 126.2421,-36.1041"/>
<polygon fill="#191970" stroke="#191970" points="487.7022,-90.0552 497.9819,-87.4903 488.3464,-83.0849 487.7022,-90.0552"/>
</g>
<!-- Node142 -->
<g id="node3" class="node">
<title>Node142</title>
<g id="a_node3"><a xlink:href="multilane__loader__test_8cc.html" target="_top" xlink:title="drake/automotive/maliput\l/multilane/test/multilane\l_loader_test.cc">
<polygon fill="#ffffff" stroke="#000000" points="162,-.5 162,-41.5 306,-41.5 306,-.5 162,-.5"/>
<text text-anchor="start" x="170" y="-29.5" font-family="Helvetica,sans-Serif" font-size="10.00" fill="#000000">drake/automotive/maliput</text>
<text text-anchor="start" x="170" y="-18.5" font-family="Helvetica,sans-Serif" font-size="10.00" fill="#000000">/multilane/test/multilane</text>
<text text-anchor="middle" x="234" y="-7.5" font-family="Helvetica,sans-Serif" font-size="10.00" fill="#000000">_loader_test.cc</text>
</a>
</g>
</g>
<!-- Node140&#45;&gt;Node142 -->
<g id="edge2" class="edge">
<title>Node140&#45;&gt;Node142</title>
<path fill="none" stroke="#191970" d="M487.6548,-78.0483C437.5863,-68.3608 372.4386,-55.2356 315,-42 312.1687,-41.3476 309.2854,-40.6689 306.3756,-39.9721"/>
<polygon fill="#191970" stroke="#191970" points="487.2991,-81.5441 497.7809,-80.0005 488.6243,-74.6707 487.2991,-81.5441"/>
</g>
<!-- Node143 -->
<g id="node4" class="node">
<title>Node143</title>
<g id="a_node4"><a xlink:href="yaml__load_8cc.html" target="_top" xlink:title="Attempts to load a yaml file as input and build a multilane road geometry. ">
<polygon fill="#ffffff" stroke="#000000" points="324.5,-6 324.5,-36 479.5,-36 479.5,-6 324.5,-6"/>
<text text-anchor="start" x="332.5" y="-24" font-family="Helvetica,sans-Serif" font-size="10.00" fill="#000000">drake/automotive/maliput</text>
<text text-anchor="middle" x="402" y="-13" font-family="Helvetica,sans-Serif" font-size="10.00" fill="#000000">/multilane/test/yaml_load.cc</text>
</a>
</g>
</g>
<!-- Node140&#45;&gt;Node143 -->
<g id="edge3" class="edge">
<title>Node140&#45;&gt;Node143</title>
<path fill="none" stroke="#191970" d="M525.697,-74.3811C497.89,-62.3811 462.5461,-47.1285 436.7651,-36.0028"/>
<polygon fill="#191970" stroke="#191970" points="524.6219,-77.7292 535.1903,-78.478 527.3956,-71.3021 524.6219,-77.7292"/>
</g>
<!-- Node144 -->
<g id="node5" class="node">
<title>Node144</title>
<g id="a_node5"><a xlink:href="generate__obj__test_8cc.html" target="_top" xlink:title="drake/automotive/maliput\l/utility/test/generate\l_obj_test.cc">
<polygon fill="#ffffff" stroke="#000000" points="498,-.5 498,-41.5 642,-41.5 642,-.5 498,-.5"/>
<text text-anchor="start" x="506" y="-29.5" font-family="Helvetica,sans-Serif" font-size="10.00" fill="#000000">drake/automotive/maliput</text>
<text text-anchor="start" x="506" y="-18.5" font-family="Helvetica,sans-Serif" font-size="10.00" fill="#000000">/utility/test/generate</text>
<text text-anchor="middle" x="570" y="-7.5" font-family="Helvetica,sans-Serif" font-size="10.00" fill="#000000">_obj_test.cc</text>
</a>
</g>
</g>
<!-- Node140&#45;&gt;Node144 -->
<g id="edge4" class="edge">
<title>Node140&#45;&gt;Node144</title>
<path fill="none" stroke="#191970" d="M570,-68.4016C570,-59.6173 570,-49.8652 570,-41.5015"/>
<polygon fill="#191970" stroke="#191970" points="566.5001,-68.4779 570,-78.478 573.5001,-68.478 566.5001,-68.4779"/>
</g>
<!-- Node145 -->
<g id="node6" class="node">
<title>Node145</title>
<g id="a_node6"><a xlink:href="generate__urdf__test_8cc.html" target="_top" xlink:title="drake/automotive/maliput\l/utility/test/generate\l_urdf_test.cc">
<polygon fill="#ffffff" stroke="#000000" points="660,-.5 660,-41.5 804,-41.5 804,-.5 660,-.5"/>
<text text-anchor="start" x="668" y="-29.5" font-family="Helvetica,sans-Serif" font-size="10.00" fill="#000000">drake/automotive/maliput</text>
<text text-anchor="start" x="668" y="-18.5" font-family="Helvetica,sans-Serif" font-size="10.00" fill="#000000">/utility/test/generate</text>
<text text-anchor="middle" x="732" y="-7.5" font-family="Helvetica,sans-Serif" font-size="10.00" fill="#000000">_urdf_test.cc</text>
</a>
</g>
</g>
<!-- Node140&#45;&gt;Node145 -->
<g id="edge5" class="edge">
<title>Node140&#45;&gt;Node145</title>
<path fill="none" stroke="#191970" d="M612.9035,-74.2993C635.4877,-64.1923 663.1884,-51.7953 686.1897,-41.5015"/>
<polygon fill="#191970" stroke="#191970" points="611.2644,-71.1983 603.5665,-78.478 614.1239,-77.5877 611.2644,-71.1983"/>
</g>
<!-- Node146 -->
<g id="node7" class="node">
<title>Node146</title>
<g id="a_node7"><a xlink:href="segment__analysis__test_8cc.html" target="_top" xlink:title="drake/automotive/maliput\l/utility/test/segment_analysis\l_test.cc">
<polygon fill="#ffffff" stroke="#000000" points="822.5,-.5 822.5,-41.5 983.5,-41.5 983.5,-.5 822.5,-.5"/>
<text text-anchor="start" x="830.5" y="-29.5" font-family="Helvetica,sans-Serif" font-size="10.00" fill="#000000">drake/automotive/maliput</text>
<text text-anchor="start" x="830.5" y="-18.5" font-family="Helvetica,sans-Serif" font-size="10.00" fill="#000000">/utility/test/segment_analysis</text>
<text text-anchor="middle" x="903" y="-7.5" font-family="Helvetica,sans-Serif" font-size="10.00" fill="#000000">_test.cc</text>
</a>
</g>
</g>
<!-- Node140&#45;&gt;Node146 -->
<g id="edge6" class="edge">
<title>Node140&#45;&gt;Node146</title>
<path fill="none" stroke="#191970" d="M651.9753,-76.5607C699.1265,-66.7088 759.4553,-53.9196 813,-42 815.9757,-41.3376 819.0054,-40.6578 822.0647,-39.9669"/>
<polygon fill="#191970" stroke="#191970" points="651.1951,-73.148 642.1209,-78.617 652.625,-80.0004 651.1951,-73.148"/>
</g>
<!-- Node147 -->
<g id="node8" class="node">
<title>Node147</title>
<g id="a_node8"><a xlink:href="yaml__to__obj_8cc.html" target="_top" xlink:title="Take a yaml file as input, build the resulting multilane road geometry, and render the road surface t...">
<polygon fill="#ffffff" stroke="#000000" points="1002,-6 1002,-36 1146,-36 1146,-6 1002,-6"/>
<text text-anchor="start" x="1010" y="-24" font-family="Helvetica,sans-Serif" font-size="10.00" fill="#000000">drake/automotive/maliput</text>
<text text-anchor="middle" x="1074" y="-13" font-family="Helvetica,sans-Serif" font-size="10.00" fill="#000000">/utility/yaml_to_obj.cc</text>
</a>
</g>
</g>
<!-- Node140&#45;&gt;Node147 -->
<g id="edge7" class="edge">
<title>Node140&#45;&gt;Node147</title>
<path fill="none" stroke="#191970" d="M652.4785,-86.7191C738.0962,-78.9196 875.6602,-64.2522 993,-42 1001.8493,-40.3218 1011.1632,-38.2248 1020.1977,-36.0102"/>
<polygon fill="#191970" stroke="#191970" points="651.9452,-83.2529 642.2997,-87.6363 652.5735,-90.2247 651.9452,-83.2529"/>
</g>
</g>
</svg>
        <g id="navigator" transform="translate(0 0)" fill="#404254">
                <rect fill="#f2f5e9" fill-opacity="0.5" stroke="#606060" stroke-width=".5" x="0" y="0" width="60" height="60"/>
                <use id="zoomplus" xlink:href="#zoomPlus" x="17" y="9" onmousedown="handleZoom(evt,'in')"/>
                <use id="zoomminus" xlink:href="#zoomMin" x="42" y="9" onmousedown="handleZoom(evt,'out')"/>
                <use id="reset" xlink:href="#resetDef" x="30" y="36" onmousedown="handleReset()"/>
                <g id="arrowUp" xlink:href="#dirArrow" transform="translate(30 24)" onmousedown="handlePan(0,-1)">
                  <use xlink:href="#rim" fill="#404040">
                        <set attributeName="fill" to="#808080" begin="arrowUp.mouseover" end="arrowUp.mouseout"/>
                  </use>
                  <path fill="none" stroke="white" stroke-width="1.5" d="M0,-3.0v7 M-2.5,-0.5L0,-3.0L2.5,-0.5"/>
                </g>
                <g id="arrowRight" xlink:href="#dirArrow" transform="rotate(90) translate(36 -43)" onmousedown="handlePan(1,0)">
                  <use xlink:href="#rim" fill="#404040">
                        <set attributeName="fill" to="#808080" begin="arrowRight.mouseover" end="arrowRight.mouseout"/>
                  </use>
                  <path fill="none" stroke="white" stroke-width="1.5" d="M0,-3.0v7 M-2.5,-0.5L0,-3.0L2.5,-0.5"/>
                </g>
                <g id="arrowDown" xlink:href="#dirArrow" transform="rotate(180) translate(-30 -48)" onmousedown="handlePan(0,1)">
                  <use xlink:href="#rim" fill="#404040">
                        <set attributeName="fill" to="#808080" begin="arrowDown.mouseover" end="arrowDown.mouseout"/>
                  </use>
                  <path fill="none" stroke="white" stroke-width="1.5" d="M0,-3.0v7 M-2.5,-0.5L0,-3.0L2.5,-0.5"/>
                </g>
                <g id="arrowLeft" xlink:href="#dirArrow" transform="rotate(270) translate(-36 17)" onmousedown="handlePan(-1,0)">
                  <use xlink:href="#rim" fill="#404040">
                        <set attributeName="fill" to="#808080" begin="arrowLeft.mouseover" end="arrowLeft.mouseout"/>
                  </use>
                  <path fill="none" stroke="white" stroke-width="1.5" d="M0,-3.0v7 M-2.5,-0.5L0,-3.0L2.5,-0.5"/>
                </g>
        </g>
        <svg viewBox="0 0 15 15" width="100%" height="30px" preserveAspectRatio="xMaxYMin meet">
         <g id="arrow_out" transform="scale(0.3 0.3)">
          <a xlink:href="multilane_2loader_8h__dep__incl_org.svg" target="_base">
           <rect id="button" ry="5" rx="5" y="6" x="6" height="38" width="38"
                fill="#f2f5e9" fill-opacity="0.5" stroke="#606060" stroke-width="1.0"/>
           <path id="arrow"
             d="M 11.500037,31.436501 C 11.940474,20.09759 22.043105,11.32322 32.158766,21.979434 L 37.068811,17.246167 C 37.068811,17.246167 37.088388,32 37.088388,32 L 22.160133,31.978069 C 22.160133,31.978069 26.997745,27.140456 26.997745,27.140456 C 18.528582,18.264221 13.291696,25.230495 11.500037,31.436501 z"
             style="fill:#404040;"/>
          </a>
         </g>
        </svg>
</svg>
