<?xml version="1.0" encoding="UTF-8" standalone="no"?>
<!DOCTYPE svg PUBLIC "-//W3C//DTD SVG 1.1//EN"
 "http://www.w3.org/Graphics/SVG/1.1/DTD/svg11.dtd">
<!-- Generated by graphviz version 2.40.1 (20161225.0304)
 -->
<!-- Title: drake/multibody/plant/contact_results_to_lcm.h Pages: 1 -->
<!--zoomable 117 -->
<svg id="main" version="1.1" xmlns="http://www.w3.org/2000/svg" xmlns:xlink="http://www.w3.org/1999/xlink" xml:space="preserve" onload="init(evt)">
<style type="text/css"><![CDATA[
.edge:hover path { stroke: red; }
.edge:hover polygon { stroke: red; fill: red; }
]]></style>
<script type="text/javascript"><![CDATA[
var edges = document.getElementsByTagName('g');
if (edges && edges.length) {
  for (var i=0;i<edges.length;i++) {
    if (edges[i].id.substr(0,4)=='edge') {
      edges[i].setAttribute('class','edge');
    }
  }
}
]]></script>
        <defs>
                <circle id="rim" cx="0" cy="0" r="7"/>
                <circle id="rim2" cx="0" cy="0" r="3.5"/>
                <g id="zoomPlus">
                        <use xlink:href="#rim" fill="#404040">
                                <set attributeName="fill" to="#808080" begin="zoomplus.mouseover" end="zoomplus.mouseout"/>
                        </use>
                        <path d="M-4,0h8M0,-4v8" fill="none" stroke="white" stroke-width="1.5" pointer-events="none"/>
                </g>
                <g id="zoomMin">
                        <use xlink:href="#rim" fill="#404040">
                                <set attributeName="fill" to="#808080" begin="zoomminus.mouseover" end="zoomminus.mouseout"/>
                        </use>
                        <path d="M-4,0h8" fill="none" stroke="white" stroke-width="1.5" pointer-events="none"/>
                </g>
                <g id="dirArrow">
                        <path fill="none" stroke="white" stroke-width="1.5" d="M0,-3.0v7 M-2.5,-0.5L0,-3.0L2.5,-0.5"/>
                </g>
               <g id="resetDef">
                       <use xlink:href="#rim2" fill="#404040">
                               <set attributeName="fill" to="#808080" begin="reset.mouseover" end="reset.mouseout"/>
                       </use>
               </g>
        </defs>

<script type="text/javascript">
var viewWidth = 988;
var viewHeight = 117;
var sectionId = 'dynsection-1';
</script>
<script xlink:href="svgpan.js"/>
<svg id="graph" class="graph">
<g id="viewport">
<title>drake/multibody/plant/contact_results_to_lcm.h</title>
<polygon fill="#ffffff" stroke="transparent" points="-4,4 -4,-113 984,-113 984,4 -4,4"/>
<!-- Node206 -->
<g id="node1" class="node">
<title>Node206</title>
<polygon fill="#bfbfbf" stroke="#000000" points="445,-78.5 445,-108.5 586,-108.5 586,-78.5 445,-78.5"/>
<text text-anchor="start" x="453" y="-96.5" font-family="Helvetica,sans-Serif" font-size="10.00" fill="#000000">drake/multibody/plant</text>
<text text-anchor="middle" x="515.5" y="-85.5" font-family="Helvetica,sans-Serif" font-size="10.00" fill="#000000">/contact_results_to_lcm.h</text>
</g>
<!-- Node207 -->
<g id="node2" class="node">
<title>Node207</title>
<g id="a_node2"><a xlink:href="allegro__single__object__simulation_8cc.html" target="_top" xlink:title="This file set up a simulation environment of an allegro hand and an object. ">
<polygon fill="#ffffff" stroke="#000000" points="0,-.5 0,-41.5 157,-41.5 157,-.5 0,-.5"/>
<text text-anchor="start" x="8" y="-29.5" font-family="Helvetica,sans-Serif" font-size="10.00" fill="#000000">drake/examples/allegro</text>
<text text-anchor="start" x="8" y="-18.5" font-family="Helvetica,sans-Serif" font-size="10.00" fill="#000000">_hand/joint_control/allegro</text>
<text text-anchor="middle" x="78.5" y="-7.5" font-family="Helvetica,sans-Serif" font-size="10.00" fill="#000000">_single_object_simulation.cc</text>
</a>
</g>
</g>
<!-- Node206&#45;&gt;Node207 -->
<g id="edge1" class="edge">
<title>Node206&#45;&gt;Node207</title>
<path fill="none" stroke="#191970" d="M434.5522,-83.7078C363.3867,-74.5952 257.1637,-59.7687 165.5,-42 162.7543,-41.4678 159.9646,-40.9065 157.1506,-40.323"/>
<polygon fill="#191970" stroke="#191970" points="434.4299,-87.2203 444.7917,-85.0104 435.3134,-80.2763 434.4299,-87.2203"/>
</g>
<!-- Node208 -->
<g id="node3" class="node">
<title>Node208</title>
<g id="a_node3"><a xlink:href="proof__of__life_8cc.html" target="_top" xlink:title="drake/examples/manipulation\l_station/proof_of_life.cc">
<polygon fill="#ffffff" stroke="#000000" points="175,-6 175,-36 338,-36 338,-6 175,-6"/>
<text text-anchor="start" x="183" y="-24" font-family="Helvetica,sans-Serif" font-size="10.00" fill="#000000">drake/examples/manipulation</text>
<text text-anchor="middle" x="256.5" y="-13" font-family="Helvetica,sans-Serif" font-size="10.00" fill="#000000">_station/proof_of_life.cc</text>
</a>
</g>
</g>
<!-- Node206&#45;&gt;Node208 -->
<g id="edge2" class="edge">
<title>Node206&#45;&gt;Node208</title>
<path fill="none" stroke="#191970" d="M452.1985,-75.7805C408.6362,-63.5864 351.4039,-47.5658 310.0962,-36.0028"/>
<polygon fill="#191970" stroke="#191970" points="451.2617,-79.1527 461.835,-78.478 453.1487,-72.4118 451.2617,-79.1527"/>
</g>
<!-- Node209 -->
<g id="node4" class="node">
<title>Node209</title>
<g id="a_node4"><a xlink:href="cylinder__run__dynamics_8cc.html" target="_top" xlink:title="drake/examples/multibody\l/cylinder_with_multicontact\l/cylinder_run_dynamics.cc">
<polygon fill="#ffffff" stroke="#000000" points="356.5,-.5 356.5,-41.5 508.5,-41.5 508.5,-.5 356.5,-.5"/>
<text text-anchor="start" x="364.5" y="-29.5" font-family="Helvetica,sans-Serif" font-size="10.00" fill="#000000">drake/examples/multibody</text>
<text text-anchor="start" x="364.5" y="-18.5" font-family="Helvetica,sans-Serif" font-size="10.00" fill="#000000">/cylinder_with_multicontact</text>
<text text-anchor="middle" x="432.5" y="-7.5" font-family="Helvetica,sans-Serif" font-size="10.00" fill="#000000">/cylinder_run_dynamics.cc</text>
</a>
</g>
</g>
<!-- Node206&#45;&gt;Node209 -->
<g id="edge3" class="edge">
<title>Node206&#45;&gt;Node209</title>
<path fill="none" stroke="#191970" d="M490.681,-71.8207C479.6823,-62.2135 466.8084,-50.9681 455.9707,-41.5015"/>
<polygon fill="#191970" stroke="#191970" points="488.4684,-74.5353 498.3023,-78.478 493.0735,-69.2633 488.4684,-74.5353"/>
</g>
<!-- Node210 -->
<g id="node5" class="node">
<title>Node210</title>
<g id="a_node5"><a xlink:href="simple__gripper_8cc.html" target="_top" xlink:title="drake/examples/simple\l_gripper/simple_gripper.cc">
<polygon fill="#ffffff" stroke="#000000" points="526.5,-6 526.5,-36 672.5,-36 672.5,-6 526.5,-6"/>
<text text-anchor="start" x="534.5" y="-24" font-family="Helvetica,sans-Serif" font-size="10.00" fill="#000000">drake/examples/simple</text>
<text text-anchor="middle" x="599.5" y="-13" font-family="Helvetica,sans-Serif" font-size="10.00" fill="#000000">_gripper/simple_gripper.cc</text>
</a>
</g>
</g>
<!-- Node206&#45;&gt;Node210 -->
<g id="edge4" class="edge">
<title>Node206&#45;&gt;Node210</title>
<path fill="none" stroke="#191970" d="M540.8067,-71.6579C554.1524,-60.1393 570.1839,-46.3026 582.1174,-36.0028"/>
<polygon fill="#191970" stroke="#191970" points="538.1883,-69.2945 532.9049,-78.478 542.762,-74.5937 538.1883,-69.2945"/>
</g>
<!-- Node211 -->
<g id="node6" class="node">
<title>Node211</title>
<g id="a_node6"><a xlink:href="multibody_2plant_2contact__results__to__lcm_8cc.html" target="_top" xlink:title="drake/multibody/plant\l/contact_results_to_lcm.cc">
<polygon fill="#ffffff" stroke="#000000" points="690.5,-6 690.5,-36 836.5,-36 836.5,-6 690.5,-6"/>
<text text-anchor="start" x="698.5" y="-24" font-family="Helvetica,sans-Serif" font-size="10.00" fill="#000000">drake/multibody/plant</text>
<text text-anchor="middle" x="763.5" y="-13" font-family="Helvetica,sans-Serif" font-size="10.00" fill="#000000">/contact_results_to_lcm.cc</text>
</a>
</g>
</g>
<!-- Node206&#45;&gt;Node211 -->
<g id="edge5" class="edge">
<title>Node206&#45;&gt;Node211</title>
<path fill="none" stroke="#191970" d="M576.6395,-75.6266C618.2855,-63.4518 672.7929,-47.5172 712.1801,-36.0028"/>
<polygon fill="#191970" stroke="#191970" points="575.5019,-72.3125 566.8858,-78.478 577.4661,-79.0313 575.5019,-72.3125"/>
</g>
<!-- Node212 -->
<g id="node7" class="node">
<title>Node212</title>
<g id="a_node7"><a xlink:href="contact__results__to__lcm__test_8cc.html" target="_top" xlink:title="drake/multibody/plant\l/test/contact_results\l_to_lcm_test.cc">
<polygon fill="#ffffff" stroke="#000000" points="855,-.5 855,-41.5 980,-41.5 980,-.5 855,-.5"/>
<text text-anchor="start" x="863" y="-29.5" font-family="Helvetica,sans-Serif" font-size="10.00" fill="#000000">drake/multibody/plant</text>
<text text-anchor="start" x="863" y="-18.5" font-family="Helvetica,sans-Serif" font-size="10.00" fill="#000000">/test/contact_results</text>
<text text-anchor="middle" x="917.5" y="-7.5" font-family="Helvetica,sans-Serif" font-size="10.00" fill="#000000">_to_lcm_test.cc</text>
</a>
</g>
</g>
<!-- Node206&#45;&gt;Node212 -->
<g id="edge6" class="edge">
<title>Node206&#45;&gt;Node212</title>
<path fill="none" stroke="#191970" d="M596.2543,-83.8559C663.4018,-75.131 761.2516,-60.7779 845.5,-42 848.5502,-41.3202 851.6612,-40.5832 854.795,-39.8059"/>
<polygon fill="#191970" stroke="#191970" points="595.6334,-80.4069 586.1621,-85.155 596.5271,-87.3496 595.6334,-80.4069"/>
</g>
</g>
</svg>
        <g id="navigator" transform="translate(0 0)" fill="#404254">
                <rect fill="#f2f5e9" fill-opacity="0.5" stroke="#606060" stroke-width=".5" x="0" y="0" width="60" height="60"/>
                <use id="zoomplus" xlink:href="#zoomPlus" x="17" y="9" onmousedown="handleZoom(evt,'in')"/>
                <use id="zoomminus" xlink:href="#zoomMin" x="42" y="9" onmousedown="handleZoom(evt,'out')"/>
                <use id="reset" xlink:href="#resetDef" x="30" y="36" onmousedown="handleReset()"/>
                <g id="arrowUp" xlink:href="#dirArrow" transform="translate(30 24)" onmousedown="handlePan(0,-1)">
                  <use xlink:href="#rim" fill="#404040">
                        <set attributeName="fill" to="#808080" begin="arrowUp.mouseover" end="arrowUp.mouseout"/>
                  </use>
                  <path fill="none" stroke="white" stroke-width="1.5" d="M0,-3.0v7 M-2.5,-0.5L0,-3.0L2.5,-0.5"/>
                </g>
                <g id="arrowRight" xlink:href="#dirArrow" transform="rotate(90) translate(36 -43)" onmousedown="handlePan(1,0)">
                  <use xlink:href="#rim" fill="#404040">
                        <set attributeName="fill" to="#808080" begin="arrowRight.mouseover" end="arrowRight.mouseout"/>
                  </use>
                  <path fill="none" stroke="white" stroke-width="1.5" d="M0,-3.0v7 M-2.5,-0.5L0,-3.0L2.5,-0.5"/>
                </g>
                <g id="arrowDown" xlink:href="#dirArrow" transform="rotate(180) translate(-30 -48)" onmousedown="handlePan(0,1)">
                  <use xlink:href="#rim" fill="#404040">
                        <set attributeName="fill" to="#808080" begin="arrowDown.mouseover" end="arrowDown.mouseout"/>
                  </use>
                  <path fill="none" stroke="white" stroke-width="1.5" d="M0,-3.0v7 M-2.5,-0.5L0,-3.0L2.5,-0.5"/>
                </g>
                <g id="arrowLeft" xlink:href="#dirArrow" transform="rotate(270) translate(-36 17)" onmousedown="handlePan(-1,0)">
                  <use xlink:href="#rim" fill="#404040">
                        <set attributeName="fill" to="#808080" begin="arrowLeft.mouseover" end="arrowLeft.mouseout"/>
                  </use>
                  <path fill="none" stroke="white" stroke-width="1.5" d="M0,-3.0v7 M-2.5,-0.5L0,-3.0L2.5,-0.5"/>
                </g>
        </g>
        <svg viewBox="0 0 15 15" width="100%" height="30px" preserveAspectRatio="xMaxYMin meet">
         <g id="arrow_out" transform="scale(0.3 0.3)">
          <a xlink:href="multibody_2plant_2contact__results__to__lcm_8h__dep__incl_org.svg" target="_base">
           <rect id="button" ry="5" rx="5" y="6" x="6" height="38" width="38"
                fill="#f2f5e9" fill-opacity="0.5" stroke="#606060" stroke-width="1.0"/>
           <path id="arrow"
             d="M 11.500037,31.436501 C 11.940474,20.09759 22.043105,11.32322 32.158766,21.979434 L 37.068811,17.246167 C 37.068811,17.246167 37.088388,32 37.088388,32 L 22.160133,31.978069 C 22.160133,31.978069 26.997745,27.140456 26.997745,27.140456 C 18.528582,18.264221 13.291696,25.230495 11.500037,31.436501 z"
             style="fill:#404040;"/>
          </a>
         </g>
        </svg>
</svg>
