<?xml version="1.0" encoding="UTF-8" standalone="no"?>
<!DOCTYPE svg PUBLIC "-//W3C//DTD SVG 1.1//EN"
 "http://www.w3.org/Graphics/SVG/1.1/DTD/svg11.dtd">
<!-- Generated by graphviz version 2.40.1 (20161225.0304)
 -->
<!-- Title: drake/multibody/tree/prismatic_joint.h Pages: 1 -->
<!--zoomable 117 -->
<svg id="main" version="1.1" xmlns="http://www.w3.org/2000/svg" xmlns:xlink="http://www.w3.org/1999/xlink" xml:space="preserve" onload="init(evt)">
<style type="text/css"><![CDATA[
.edge:hover path { stroke: red; }
.edge:hover polygon { stroke: red; fill: red; }
]]></style>
<script type="text/javascript"><![CDATA[
var edges = document.getElementsByTagName('g');
if (edges && edges.length) {
  for (var i=0;i<edges.length;i++) {
    if (edges[i].id.substr(0,4)=='edge') {
      edges[i].setAttribute('class','edge');
    }
  }
}
]]></script>
        <defs>
                <circle id="rim" cx="0" cy="0" r="7"/>
                <circle id="rim2" cx="0" cy="0" r="3.5"/>
                <g id="zoomPlus">
                        <use xlink:href="#rim" fill="#404040">
                                <set attributeName="fill" to="#808080" begin="zoomplus.mouseover" end="zoomplus.mouseout"/>
                        </use>
                        <path d="M-4,0h8M0,-4v8" fill="none" stroke="white" stroke-width="1.5" pointer-events="none"/>
                </g>
                <g id="zoomMin">
                        <use xlink:href="#rim" fill="#404040">
                                <set attributeName="fill" to="#808080" begin="zoomminus.mouseover" end="zoomminus.mouseout"/>
                        </use>
                        <path d="M-4,0h8" fill="none" stroke="white" stroke-width="1.5" pointer-events="none"/>
                </g>
                <g id="dirArrow">
                        <path fill="none" stroke="white" stroke-width="1.5" d="M0,-3.0v7 M-2.5,-0.5L0,-3.0L2.5,-0.5"/>
                </g>
               <g id="resetDef">
                       <use xlink:href="#rim2" fill="#404040">
                               <set attributeName="fill" to="#808080" begin="reset.mouseover" end="reset.mouseout"/>
                       </use>
               </g>
        </defs>

<script type="text/javascript">
var viewWidth = 2368;
var viewHeight = 117;
var sectionId = 'dynsection-1';
</script>
<script xlink:href="svgpan.js"/>
<svg id="graph" class="graph">
<g id="viewport">
<title>drake/multibody/tree/prismatic_joint.h</title>
<polygon fill="#ffffff" stroke="transparent" points="-4,4 -4,-113 2364,-113 2364,4 -4,4"/>
<!-- Node150 -->
<g id="node1" class="node">
<title>Node150</title>
<polygon fill="#bfbfbf" stroke="#000000" points="1204,-78.5 1204,-108.5 1323,-108.5 1323,-78.5 1204,-78.5"/>
<text text-anchor="start" x="1212" y="-96.5" font-family="Helvetica,sans-Serif" font-size="10.00" fill="#000000">drake/multibody/tree</text>
<text text-anchor="middle" x="1263.5" y="-85.5" font-family="Helvetica,sans-Serif" font-size="10.00" fill="#000000">/prismatic_joint.h</text>
</g>
<!-- Node151 -->
<g id="node2" class="node">
<title>Node151</title>
<g id="a_node2"><a xlink:href="multibody__tree__py_8cc.html" target="_top" xlink:title="drake/bindings/pydrake\l/multibody/multibody_tree_py.cc">
<polygon fill="#ffffff" stroke="#000000" points="0,-6 0,-36 177,-36 177,-6 0,-6"/>
<text text-anchor="start" x="8" y="-24" font-family="Helvetica,sans-Serif" font-size="10.00" fill="#000000">drake/bindings/pydrake</text>
<text text-anchor="middle" x="88.5" y="-13" font-family="Helvetica,sans-Serif" font-size="10.00" fill="#000000">/multibody/multibody_tree_py.cc</text>
</a>
</g>
</g>
<!-- Node150&#45;&gt;Node151 -->
<g id="edge1" class="edge">
<title>Node150&#45;&gt;Node151</title>
<path fill="none" stroke="#191970" d="M1193.6324,-91.6744C987.0831,-86.0378 381.5488,-67.7248 185.5,-42 174.1392,-40.5093 162.1353,-38.376 150.589,-36.0346"/>
<polygon fill="#191970" stroke="#191970" points="1193.6568,-95.1763 1203.7481,-91.949 1193.8468,-88.1789 1193.6568,-95.1763"/>
</g>
<!-- Node152 -->
<g id="node3" class="node">
<title>Node152</title>
<g id="a_node3"><a xlink:href="manipulation__station_8cc.html" target="_top" xlink:title="drake/examples/manipulation\l_station/manipulation_station.cc">
<polygon fill="#ffffff" stroke="#000000" points="194.5,-6 194.5,-36 370.5,-36 370.5,-6 194.5,-6"/>
<text text-anchor="start" x="202.5" y="-24" font-family="Helvetica,sans-Serif" font-size="10.00" fill="#000000">drake/examples/manipulation</text>
<text text-anchor="middle" x="282.5" y="-13" font-family="Helvetica,sans-Serif" font-size="10.00" fill="#000000">_station/manipulation_station.cc</text>
</a>
</g>
</g>
<!-- Node150&#45;&gt;Node152 -->
<g id="edge2" class="edge">
<title>Node150&#45;&gt;Node152</title>
<path fill="none" stroke="#191970" d="M1193.7855,-90.8379C1013.7664,-83.7394 536.4829,-63.434 379.5,-42 368.3178,-40.4732 356.5078,-38.353 345.1232,-36.0429"/>
<polygon fill="#191970" stroke="#191970" points="1193.7992,-94.3411 1203.9289,-91.2363 1194.0739,-87.3465 1193.7992,-94.3411"/>
</g>
<!-- Node153 -->
<g id="node4" class="node">
<title>Node153</title>
<g id="a_node4"><a xlink:href="cart__pole__passive__simulation_8cc.html" target="_top" xlink:title="drake/examples/multibody\l/cart_pole/cart_pole_passive\l_simulation.cc">
<polygon fill="#ffffff" stroke="#000000" points="389,-.5 389,-41.5 544,-41.5 544,-.5 389,-.5"/>
<text text-anchor="start" x="397" y="-29.5" font-family="Helvetica,sans-Serif" font-size="10.00" fill="#000000">drake/examples/multibody</text>
<text text-anchor="start" x="397" y="-18.5" font-family="Helvetica,sans-Serif" font-size="10.00" fill="#000000">/cart_pole/cart_pole_passive</text>
<text text-anchor="middle" x="466.5" y="-7.5" font-family="Helvetica,sans-Serif" font-size="10.00" fill="#000000">_simulation.cc</text>
</a>
</g>
</g>
<!-- Node150&#45;&gt;Node153 -->
<g id="edge3" class="edge">
<title>Node150&#45;&gt;Node153</title>
<path fill="none" stroke="#191970" d="M1193.7102,-92.2366C1065.9582,-89.0829 786.2338,-78.2769 553.5,-42 550.4295,-41.5214 547.3077,-40.9894 544.1615,-40.4153"/>
<polygon fill="#191970" stroke="#191970" points="1193.6702,-95.7365 1203.7509,-92.4763 1193.8373,-88.7385 1193.6702,-95.7365"/>
</g>
<!-- Node154 -->
<g id="node5" class="node">
<title>Node154</title>
<g id="a_node5"><a xlink:href="cart__pole__test_8cc.html" target="_top" xlink:title="drake/examples/multibody\l/cart_pole/test/cart_pole\l_test.cc">
<polygon fill="#ffffff" stroke="#000000" points="562.5,-.5 562.5,-41.5 710.5,-41.5 710.5,-.5 562.5,-.5"/>
<text text-anchor="start" x="570.5" y="-29.5" font-family="Helvetica,sans-Serif" font-size="10.00" fill="#000000">drake/examples/multibody</text>
<text text-anchor="start" x="570.5" y="-18.5" font-family="Helvetica,sans-Serif" font-size="10.00" fill="#000000">/cart_pole/test/cart_pole</text>
<text text-anchor="middle" x="636.5" y="-7.5" font-family="Helvetica,sans-Serif" font-size="10.00" fill="#000000">_test.cc</text>
</a>
</g>
</g>
<!-- Node150&#45;&gt;Node154 -->
<g id="edge4" class="edge">
<title>Node150&#45;&gt;Node154</title>
<path fill="none" stroke="#191970" d="M1193.8888,-90.3328C1089.9849,-84.8346 888.4507,-71.1928 719.5,-42 716.5707,-41.4938 713.5924,-40.9386 710.5908,-40.345"/>
<polygon fill="#191970" stroke="#191970" points="1193.7708,-93.8313 1203.9391,-90.8553 1194.1343,-86.8408 1193.7708,-93.8313"/>
</g>
<!-- Node155 -->
<g id="node6" class="node">
<title>Node155</title>
<g id="a_node6"><a xlink:href="simple__gripper_8cc.html" target="_top" xlink:title="drake/examples/simple\l_gripper/simple_gripper.cc">
<polygon fill="#ffffff" stroke="#000000" points="728.5,-6 728.5,-36 874.5,-36 874.5,-6 728.5,-6"/>
<text text-anchor="start" x="736.5" y="-24" font-family="Helvetica,sans-Serif" font-size="10.00" fill="#000000">drake/examples/simple</text>
<text text-anchor="middle" x="801.5" y="-13" font-family="Helvetica,sans-Serif" font-size="10.00" fill="#000000">_gripper/simple_gripper.cc</text>
</a>
</g>
</g>
<!-- Node150&#45;&gt;Node155 -->
<g id="edge5" class="edge">
<title>Node150&#45;&gt;Node155</title>
<path fill="none" stroke="#191970" d="M1193.9147,-86.5205C1117.4104,-78.2783 991.0607,-62.9882 883.5,-42 874.7017,-40.2832 865.4405,-38.1922 856.4366,-36.0029"/>
<polygon fill="#191970" stroke="#191970" points="1193.5966,-90.0063 1203.9117,-87.5879 1194.3398,-83.0459 1193.5966,-90.0063"/>
</g>
<!-- Node156 -->
<g id="node7" class="node">
<title>Node156</title>
<g id="a_node7"><a xlink:href="detail__sdf__parser_8cc.html" target="_top" xlink:title="drake/multibody/parsing\l/detail_sdf_parser.cc">
<polygon fill="#ffffff" stroke="#000000" points="892.5,-6 892.5,-36 1028.5,-36 1028.5,-6 892.5,-6"/>
<text text-anchor="start" x="900.5" y="-24" font-family="Helvetica,sans-Serif" font-size="10.00" fill="#000000">drake/multibody/parsing</text>
<text text-anchor="middle" x="960.5" y="-13" font-family="Helvetica,sans-Serif" font-size="10.00" fill="#000000">/detail_sdf_parser.cc</text>
</a>
</g>
</g>
<!-- Node150&#45;&gt;Node156 -->
<g id="edge6" class="edge">
<title>Node150&#45;&gt;Node156</title>
<path fill="none" stroke="#191970" d="M1193.956,-78.4485C1149.1699,-68.5592 1089.7631,-55.0754 1037.5,-42 1030.1069,-40.1504 1022.3364,-38.1262 1014.6918,-36.0878"/>
<polygon fill="#191970" stroke="#191970" points="1193.3385,-81.8964 1203.8573,-80.6289 1194.844,-75.0602 1193.3385,-81.8964"/>
</g>
<!-- Node157 -->
<g id="node8" class="node">
<title>Node157</title>
<g id="a_node8"><a xlink:href="detail__urdf__parser_8cc.html" target="_top" xlink:title="drake/multibody/parsing\l/detail_urdf_parser.cc">
<polygon fill="#ffffff" stroke="#000000" points="1046.5,-6 1046.5,-36 1182.5,-36 1182.5,-6 1046.5,-6"/>
<text text-anchor="start" x="1054.5" y="-24" font-family="Helvetica,sans-Serif" font-size="10.00" fill="#000000">drake/multibody/parsing</text>
<text text-anchor="middle" x="1114.5" y="-13" font-family="Helvetica,sans-Serif" font-size="10.00" fill="#000000">/detail_urdf_parser.cc</text>
</a>
</g>
</g>
<!-- Node150&#45;&gt;Node157 -->
<g id="edge7" class="edge">
<title>Node150&#45;&gt;Node157</title>
<path fill="none" stroke="#191970" d="M1223.5598,-74.066C1198.9984,-62.115 1167.9989,-47.0313 1145.3333,-36.0028"/>
<polygon fill="#191970" stroke="#191970" points="1222.1037,-77.2498 1232.6271,-78.478 1225.1664,-70.9554 1222.1037,-77.2498"/>
</g>
<!-- Node158 -->
<g id="node9" class="node">
<title>Node158</title>
<g id="a_node9"><a xlink:href="multibody__plant_8cc.html" target="_top" xlink:title="drake/multibody/plant\l/multibody_plant.cc">
<polygon fill="#ffffff" stroke="#000000" points="1201,-6 1201,-36 1326,-36 1326,-6 1201,-6"/>
<text text-anchor="start" x="1209" y="-24" font-family="Helvetica,sans-Serif" font-size="10.00" fill="#000000">drake/multibody/plant</text>
<text text-anchor="middle" x="1263.5" y="-13" font-family="Helvetica,sans-Serif" font-size="10.00" fill="#000000">/multibody_plant.cc</text>
</a>
</g>
</g>
<!-- Node150&#45;&gt;Node158 -->
<g id="edge8" class="edge">
<title>Node150&#45;&gt;Node158</title>
<path fill="none" stroke="#191970" d="M1263.5,-68.3409C1263.5,-57.5601 1263.5,-45.3309 1263.5,-36.0028"/>
<polygon fill="#191970" stroke="#191970" points="1260.0001,-68.4779 1263.5,-78.478 1267.0001,-68.478 1260.0001,-68.4779"/>
</g>
<!-- Node159 -->
<g id="node10" class="node">
<title>Node159</title>
<g id="a_node10"><a xlink:href="box__test_8cc.html" target="_top" xlink:title="drake/multibody/plant\l/test/box_test.cc">
<polygon fill="#ffffff" stroke="#000000" points="1344,-6 1344,-36 1469,-36 1469,-6 1344,-6"/>
<text text-anchor="start" x="1352" y="-24" font-family="Helvetica,sans-Serif" font-size="10.00" fill="#000000">drake/multibody/plant</text>
<text text-anchor="middle" x="1406.5" y="-13" font-family="Helvetica,sans-Serif" font-size="10.00" fill="#000000">/test/box_test.cc</text>
</a>
</g>
</g>
<!-- Node150&#45;&gt;Node159 -->
<g id="edge9" class="edge">
<title>Node150&#45;&gt;Node159</title>
<path fill="none" stroke="#191970" d="M1302.1438,-73.9079C1325.6662,-61.9822 1355.2512,-46.9828 1376.9083,-36.0028"/>
<polygon fill="#191970" stroke="#191970" points="1300.4662,-70.8342 1293.1297,-78.478 1303.6316,-77.0777 1300.4662,-70.8342"/>
</g>
<!-- Node160 -->
<g id="node11" class="node">
<title>Node160</title>
<g id="a_node11"><a xlink:href="joint__limits__test_8cc.html" target="_top" xlink:title="drake/multibody/plant\l/test/joint_limits_test.cc">
<polygon fill="#ffffff" stroke="#000000" points="1487.5,-6 1487.5,-36 1621.5,-36 1621.5,-6 1487.5,-6"/>
<text text-anchor="start" x="1495.5" y="-24" font-family="Helvetica,sans-Serif" font-size="10.00" fill="#000000">drake/multibody/plant</text>
<text text-anchor="middle" x="1554.5" y="-13" font-family="Helvetica,sans-Serif" font-size="10.00" fill="#000000">/test/joint_limits_test.cc</text>
</a>
</g>
</g>
<!-- Node150&#45;&gt;Node160 -->
<g id="edge10" class="edge">
<title>Node150&#45;&gt;Node160</title>
<path fill="none" stroke="#191970" d="M1333.2965,-77.4238C1375.4346,-67.5585 1430.1564,-54.4651 1478.5,-42 1485.7904,-40.1202 1493.4563,-38.0788 1500.9997,-36.032"/>
<polygon fill="#191970" stroke="#191970" points="1332.356,-74.0492 1323.4144,-79.7323 1333.9484,-80.8657 1332.356,-74.0492"/>
</g>
<!-- Node161 -->
<g id="node12" class="node">
<title>Node161</title>
<g id="a_node12"><a xlink:href="multibody_2plant_2test_2spring__mass__system__test_8cc.html" target="_top" xlink:title="drake/multibody/plant\l/test/spring_mass_system\l_test.cc">
<polygon fill="#ffffff" stroke="#000000" points="1639.5,-.5 1639.5,-41.5 1783.5,-41.5 1783.5,-.5 1639.5,-.5"/>
<text text-anchor="start" x="1647.5" y="-29.5" font-family="Helvetica,sans-Serif" font-size="10.00" fill="#000000">drake/multibody/plant</text>
<text text-anchor="start" x="1647.5" y="-18.5" font-family="Helvetica,sans-Serif" font-size="10.00" fill="#000000">/test/spring_mass_system</text>
<text text-anchor="middle" x="1711.5" y="-7.5" font-family="Helvetica,sans-Serif" font-size="10.00" fill="#000000">_test.cc</text>
</a>
</g>
</g>
<!-- Node150&#45;&gt;Node161 -->
<g id="edge11" class="edge">
<title>Node150&#45;&gt;Node161</title>
<path fill="none" stroke="#191970" d="M1333.4335,-86.0951C1407.5732,-77.684 1527.8968,-62.4299 1630.5,-42 1633.3495,-41.4326 1636.2482,-40.8257 1639.171,-40.1889"/>
<polygon fill="#191970" stroke="#191970" points="1332.8315,-82.6406 1323.2853,-87.2363 1333.6138,-89.5968 1332.8315,-82.6406"/>
</g>
<!-- Node162 -->
<g id="node13" class="node">
<title>Node162</title>
<g id="a_node13"><a xlink:href="multibody_2tree_2prismatic__joint_8cc.html" target="_top" xlink:title="drake/multibody/tree\l/prismatic_joint.cc">
<polygon fill="#ffffff" stroke="#000000" points="1802,-6 1802,-36 1921,-36 1921,-6 1802,-6"/>
<text text-anchor="start" x="1810" y="-24" font-family="Helvetica,sans-Serif" font-size="10.00" fill="#000000">drake/multibody/tree</text>
<text text-anchor="middle" x="1861.5" y="-13" font-family="Helvetica,sans-Serif" font-size="10.00" fill="#000000">/prismatic_joint.cc</text>
</a>
</g>
</g>
<!-- Node150&#45;&gt;Node162 -->
<g id="edge12" class="edge">
<title>Node150&#45;&gt;Node162</title>
<path fill="none" stroke="#191970" d="M1333.3229,-91.1101C1435.151,-86.6329 1629.9718,-74.3111 1792.5,-42 1800.3601,-40.4374 1808.6026,-38.3436 1816.5451,-36.0819"/>
<polygon fill="#191970" stroke="#191970" points="1333.0071,-87.6203 1323.1656,-91.5441 1333.306,-94.6139 1333.0071,-87.6203"/>
</g>
<!-- Node163 -->
<g id="node14" class="node">
<title>Node163</title>
<g id="a_node14"><a xlink:href="linear__spring__damper__test_8cc.html" target="_top" xlink:title="drake/multibody/tree\l/test/linear_spring_damper\l_test.cc">
<polygon fill="#ffffff" stroke="#000000" points="1939,-.5 1939,-41.5 2086,-41.5 2086,-.5 1939,-.5"/>
<text text-anchor="start" x="1947" y="-29.5" font-family="Helvetica,sans-Serif" font-size="10.00" fill="#000000">drake/multibody/tree</text>
<text text-anchor="start" x="1947" y="-18.5" font-family="Helvetica,sans-Serif" font-size="10.00" fill="#000000">/test/linear_spring_damper</text>
<text text-anchor="middle" x="2012.5" y="-7.5" font-family="Helvetica,sans-Serif" font-size="10.00" fill="#000000">_test.cc</text>
</a>
</g>
</g>
<!-- Node150&#45;&gt;Node163 -->
<g id="edge13" class="edge">
<title>Node150&#45;&gt;Node163</title>
<path fill="none" stroke="#191970" d="M1333.5717,-92.084C1455.6148,-88.7305 1714.775,-77.6738 1930.5,-42 1933.2547,-41.5445 1936.0523,-41.0409 1938.871,-40.4988"/>
<polygon fill="#191970" stroke="#191970" points="1333.158,-88.5937 1323.2544,-92.358 1333.3439,-95.5912 1333.158,-88.5937"/>
</g>
<!-- Node164 -->
<g id="node15" class="node">
<title>Node164</title>
<g id="a_node15"><a xlink:href="model__instance__test_8cc.html" target="_top" xlink:title="drake/multibody/tree\l/test/model_instance\l_test.cc">
<polygon fill="#ffffff" stroke="#000000" points="2104,-.5 2104,-41.5 2223,-41.5 2223,-.5 2104,-.5"/>
<text text-anchor="start" x="2112" y="-29.5" font-family="Helvetica,sans-Serif" font-size="10.00" fill="#000000">drake/multibody/tree</text>
<text text-anchor="start" x="2112" y="-18.5" font-family="Helvetica,sans-Serif" font-size="10.00" fill="#000000">/test/model_instance</text>
<text text-anchor="middle" x="2163.5" y="-7.5" font-family="Helvetica,sans-Serif" font-size="10.00" fill="#000000">_test.cc</text>
</a>
</g>
</g>
<!-- Node150&#45;&gt;Node164 -->
<g id="edge14" class="edge">
<title>Node150&#45;&gt;Node164</title>
<path fill="none" stroke="#191970" d="M1333.4233,-91.31C1506.2342,-85.5536 1949.9683,-68.584 2095.5,-42 2098.2956,-41.4893 2101.1377,-40.9009 2103.9954,-40.2529"/>
<polygon fill="#191970" stroke="#191970" points="1333.0554,-87.8201 1323.1765,-91.6487 1333.2867,-94.8163 1333.0554,-87.8201"/>
</g>
<!-- Node165 -->
<g id="node16" class="node">
<title>Node165</title>
<g id="a_node16"><a xlink:href="prismatic__joint__test_8cc.html" target="_top" xlink:title="drake/multibody/tree\l/test/prismatic_joint\l_test.cc">
<polygon fill="#ffffff" stroke="#000000" points="2241,-.5 2241,-41.5 2360,-41.5 2360,-.5 2241,-.5"/>
<text text-anchor="start" x="2249" y="-29.5" font-family="Helvetica,sans-Serif" font-size="10.00" fill="#000000">drake/multibody/tree</text>
<text text-anchor="start" x="2249" y="-18.5" font-family="Helvetica,sans-Serif" font-size="10.00" fill="#000000">/test/prismatic_joint</text>
<text text-anchor="middle" x="2300.5" y="-7.5" font-family="Helvetica,sans-Serif" font-size="10.00" fill="#000000">_test.cc</text>
</a>
</g>
</g>
<!-- Node150&#45;&gt;Node165 -->
<g id="edge15" class="edge">
<title>Node150&#45;&gt;Node165</title>
<path fill="none" stroke="#191970" d="M1333.5775,-92.0152C1525.9993,-87.5814 2059.6665,-72.7929 2232.5,-42 2235.1761,-41.5232 2237.8945,-40.9733 2240.628,-40.3663"/>
<polygon fill="#191970" stroke="#191970" points="1333.225,-88.5222 1323.3074,-92.2494 1333.3846,-95.5204 1333.225,-88.5222"/>
</g>
</g>
</svg>
        <g id="navigator" transform="translate(0 0)" fill="#404254">
                <rect fill="#f2f5e9" fill-opacity="0.5" stroke="#606060" stroke-width=".5" x="0" y="0" width="60" height="60"/>
                <use id="zoomplus" xlink:href="#zoomPlus" x="17" y="9" onmousedown="handleZoom(evt,'in')"/>
                <use id="zoomminus" xlink:href="#zoomMin" x="42" y="9" onmousedown="handleZoom(evt,'out')"/>
                <use id="reset" xlink:href="#resetDef" x="30" y="36" onmousedown="handleReset()"/>
                <g id="arrowUp" xlink:href="#dirArrow" transform="translate(30 24)" onmousedown="handlePan(0,-1)">
                  <use xlink:href="#rim" fill="#404040">
                        <set attributeName="fill" to="#808080" begin="arrowUp.mouseover" end="arrowUp.mouseout"/>
                  </use>
                  <path fill="none" stroke="white" stroke-width="1.5" d="M0,-3.0v7 M-2.5,-0.5L0,-3.0L2.5,-0.5"/>
                </g>
                <g id="arrowRight" xlink:href="#dirArrow" transform="rotate(90) translate(36 -43)" onmousedown="handlePan(1,0)">
                  <use xlink:href="#rim" fill="#404040">
                        <set attributeName="fill" to="#808080" begin="arrowRight.mouseover" end="arrowRight.mouseout"/>
                  </use>
                  <path fill="none" stroke="white" stroke-width="1.5" d="M0,-3.0v7 M-2.5,-0.5L0,-3.0L2.5,-0.5"/>
                </g>
                <g id="arrowDown" xlink:href="#dirArrow" transform="rotate(180) translate(-30 -48)" onmousedown="handlePan(0,1)">
                  <use xlink:href="#rim" fill="#404040">
                        <set attributeName="fill" to="#808080" begin="arrowDown.mouseover" end="arrowDown.mouseout"/>
                  </use>
                  <path fill="none" stroke="white" stroke-width="1.5" d="M0,-3.0v7 M-2.5,-0.5L0,-3.0L2.5,-0.5"/>
                </g>
                <g id="arrowLeft" xlink:href="#dirArrow" transform="rotate(270) translate(-36 17)" onmousedown="handlePan(-1,0)">
                  <use xlink:href="#rim" fill="#404040">
                        <set attributeName="fill" to="#808080" begin="arrowLeft.mouseover" end="arrowLeft.mouseout"/>
                  </use>
                  <path fill="none" stroke="white" stroke-width="1.5" d="M0,-3.0v7 M-2.5,-0.5L0,-3.0L2.5,-0.5"/>
                </g>
        </g>
        <svg viewBox="0 0 15 15" width="100%" height="30px" preserveAspectRatio="xMaxYMin meet">
         <g id="arrow_out" transform="scale(0.3 0.3)">
          <a xlink:href="multibody_2tree_2prismatic__joint_8h__dep__incl_org.svg" target="_base">
           <rect id="button" ry="5" rx="5" y="6" x="6" height="38" width="38"
                fill="#f2f5e9" fill-opacity="0.5" stroke="#606060" stroke-width="1.0"/>
           <path id="arrow"
             d="M 11.500037,31.436501 C 11.940474,20.09759 22.043105,11.32322 32.158766,21.979434 L 37.068811,17.246167 C 37.068811,17.246167 37.088388,32 37.088388,32 L 22.160133,31.978069 C 22.160133,31.978069 26.997745,27.140456 26.997745,27.140456 C 18.528582,18.264221 13.291696,25.230495 11.500037,31.436501 z"
             style="fill:#404040;"/>
          </a>
         </g>
        </svg>
</svg>
