<?xml version="1.0" encoding="UTF-8" standalone="no"?>
<!DOCTYPE svg PUBLIC "-//W3C//DTD SVG 1.1//EN"
 "http://www.w3.org/Graphics/SVG/1.1/DTD/svg11.dtd">
<!-- Generated by graphviz version 2.40.1 (20161225.0304)
 -->
<!-- Title: drake/multibody/plant/multibody_plant.h Pages: 1 -->
<!--zoomable 195 -->
<svg id="main" version="1.1" xmlns="http://www.w3.org/2000/svg" xmlns:xlink="http://www.w3.org/1999/xlink" xml:space="preserve" onload="init(evt)">
<style type="text/css"><![CDATA[
.edge:hover path { stroke: red; }
.edge:hover polygon { stroke: red; fill: red; }
]]></style>
<script type="text/javascript"><![CDATA[
var edges = document.getElementsByTagName('g');
if (edges && edges.length) {
  for (var i=0;i<edges.length;i++) {
    if (edges[i].id.substr(0,4)=='edge') {
      edges[i].setAttribute('class','edge');
    }
  }
}
]]></script>
        <defs>
                <circle id="rim" cx="0" cy="0" r="7"/>
                <circle id="rim2" cx="0" cy="0" r="3.5"/>
                <g id="zoomPlus">
                        <use xlink:href="#rim" fill="#404040">
                                <set attributeName="fill" to="#808080" begin="zoomplus.mouseover" end="zoomplus.mouseout"/>
                        </use>
                        <path d="M-4,0h8M0,-4v8" fill="none" stroke="white" stroke-width="1.5" pointer-events="none"/>
                </g>
                <g id="zoomMin">
                        <use xlink:href="#rim" fill="#404040">
                                <set attributeName="fill" to="#808080" begin="zoomminus.mouseover" end="zoomminus.mouseout"/>
                        </use>
                        <path d="M-4,0h8" fill="none" stroke="white" stroke-width="1.5" pointer-events="none"/>
                </g>
                <g id="dirArrow">
                        <path fill="none" stroke="white" stroke-width="1.5" d="M0,-3.0v7 M-2.5,-0.5L0,-3.0L2.5,-0.5"/>
                </g>
               <g id="resetDef">
                       <use xlink:href="#rim2" fill="#404040">
                               <set attributeName="fill" to="#808080" begin="reset.mouseover" end="reset.mouseout"/>
                       </use>
               </g>
        </defs>

<script type="text/javascript">
var viewWidth = 1276;
var viewHeight = 195;
var sectionId = 'dynsection-1';
</script>
<script xlink:href="svgpan.js"/>
<svg id="graph" class="graph">
<g id="viewport">
<title>drake/multibody/plant/multibody_plant.h</title>
<polygon fill="#ffffff" stroke="transparent" points="-4,4 -4,-191 1272,-191 1272,4 -4,4"/>
<!-- Node149 -->
<g id="node1" class="node">
<title>Node149</title>
<polygon fill="#bfbfbf" stroke="#000000" points="541.5,-156.5 541.5,-186.5 666.5,-186.5 666.5,-156.5 541.5,-156.5"/>
<text text-anchor="start" x="549.5" y="-174.5" font-family="Helvetica,sans-Serif" font-size="10.00" fill="#000000">drake/multibody/plant</text>
<text text-anchor="middle" x="604" y="-163.5" font-family="Helvetica,sans-Serif" font-size="10.00" fill="#000000">/multibody_plant.h</text>
</g>
<!-- Node150 -->
<g id="node2" class="node">
<title>Node150</title>
<g id="a_node2"><a xlink:href="multibody_2plant_2contact__results__to__lcm_8h.html" target="_top" xlink:title="drake/multibody/plant\l/contact_results_to_lcm.h">
<polygon fill="#ffffff" stroke="#000000" points="57.5,-84 57.5,-114 198.5,-114 198.5,-84 57.5,-84"/>
<text text-anchor="start" x="65.5" y="-102" font-family="Helvetica,sans-Serif" font-size="10.00" fill="#000000">drake/multibody/plant</text>
<text text-anchor="middle" x="128" y="-91" font-family="Helvetica,sans-Serif" font-size="10.00" fill="#000000">/contact_results_to_lcm.h</text>
</a>
</g>
</g>
<!-- Node149&#45;&gt;Node150 -->
<g id="edge1" class="edge">
<title>Node149&#45;&gt;Node150</title>
<path fill="none" stroke="#191970" d="M531.0512,-164.3446C452.224,-156.0422 323.1051,-140.7856 213,-120 204.0379,-118.3081 194.6076,-116.2558 185.4209,-114.1048"/>
<polygon fill="#191970" stroke="#191970" points="531.0489,-167.8633 541.3583,-165.4206 531.7758,-160.9011 531.0489,-167.8633"/>
</g>
<!-- Node152 -->
<g id="node4" class="node">
<title>Node152</title>
<g id="a_node4"><a xlink:href="contact__results__to__lcm__test_8cc.html" target="_top" xlink:title="drake/multibody/plant\l/test/contact_results\l_to_lcm_test.cc">
<polygon fill="#ffffff" stroke="#000000" points="164.5,-.5 164.5,-41.5 289.5,-41.5 289.5,-.5 164.5,-.5"/>
<text text-anchor="start" x="172.5" y="-29.5" font-family="Helvetica,sans-Serif" font-size="10.00" fill="#000000">drake/multibody/plant</text>
<text text-anchor="start" x="172.5" y="-18.5" font-family="Helvetica,sans-Serif" font-size="10.00" fill="#000000">/test/contact_results</text>
<text text-anchor="middle" x="227" y="-7.5" font-family="Helvetica,sans-Serif" font-size="10.00" fill="#000000">_to_lcm_test.cc</text>
</a>
</g>
</g>
<!-- Node149&#45;&gt;Node152 -->
<g id="edge6" class="edge">
<title>Node149&#45;&gt;Node152</title>
<path fill="none" stroke="#191970" d="M531.1308,-165.4669C432.7406,-156.6494 267.2985,-139.1912 247,-120 225.849,-100.0028 223.7187,-64.3128 224.8351,-41.6899"/>
<polygon fill="#191970" stroke="#191970" points="531.0452,-168.973 541.3154,-166.3703 531.6637,-162.0004 531.0452,-168.973"/>
</g>
<!-- Node153 -->
<g id="node5" class="node">
<title>Node153</title>
<g id="a_node5"><a xlink:href="multibody__plant_8cc.html" target="_top" xlink:title="drake/multibody/plant\l/multibody_plant.cc">
<polygon fill="#ffffff" stroke="#000000" points="255.5,-84 255.5,-114 380.5,-114 380.5,-84 255.5,-84"/>
<text text-anchor="start" x="263.5" y="-102" font-family="Helvetica,sans-Serif" font-size="10.00" fill="#000000">drake/multibody/plant</text>
<text text-anchor="middle" x="318" y="-91" font-family="Helvetica,sans-Serif" font-size="10.00" fill="#000000">/multibody_plant.cc</text>
</a>
</g>
</g>
<!-- Node149&#45;&gt;Node153 -->
<g id="edge4" class="edge">
<title>Node149&#45;&gt;Node153</title>
<path fill="none" stroke="#191970" d="M531.3082,-154.9131C489.7937,-145.2137 436.8382,-132.4589 390,-120 383.0792,-118.1591 375.8088,-116.1399 368.6585,-114.1039"/>
<polygon fill="#191970" stroke="#191970" points="530.5297,-158.3254 541.063,-157.1852 532.1177,-151.5078 530.5297,-158.3254"/>
</g>
<!-- Node154 -->
<g id="node6" class="node">
<title>Node154</title>
<g id="a_node6"><a xlink:href="box__test_8cc.html" target="_top" xlink:title="drake/multibody/plant\l/test/box_test.cc">
<polygon fill="#ffffff" stroke="#000000" points="398.5,-84 398.5,-114 523.5,-114 523.5,-84 398.5,-84"/>
<text text-anchor="start" x="406.5" y="-102" font-family="Helvetica,sans-Serif" font-size="10.00" fill="#000000">drake/multibody/plant</text>
<text text-anchor="middle" x="461" y="-91" font-family="Helvetica,sans-Serif" font-size="10.00" fill="#000000">/test/box_test.cc</text>
</a>
</g>
</g>
<!-- Node149&#45;&gt;Node154 -->
<g id="edge5" class="edge">
<title>Node149&#45;&gt;Node154</title>
<path fill="none" stroke="#191970" d="M565.3562,-151.9079C541.8338,-139.9822 512.2488,-124.9828 490.5917,-114.0028"/>
<polygon fill="#191970" stroke="#191970" points="563.8684,-155.0777 574.3703,-156.478 567.0338,-148.8342 563.8684,-155.0777"/>
</g>
<!-- Node155 -->
<g id="node7" class="node">
<title>Node155</title>
<g id="a_node7"><a xlink:href="inclined__plane__test_8cc.html" target="_top" xlink:title="drake/multibody/plant\l/test/inclined_plane\l_test.cc">
<polygon fill="#ffffff" stroke="#000000" points="541.5,-78.5 541.5,-119.5 666.5,-119.5 666.5,-78.5 541.5,-78.5"/>
<text text-anchor="start" x="549.5" y="-107.5" font-family="Helvetica,sans-Serif" font-size="10.00" fill="#000000">drake/multibody/plant</text>
<text text-anchor="start" x="549.5" y="-96.5" font-family="Helvetica,sans-Serif" font-size="10.00" fill="#000000">/test/inclined_plane</text>
<text text-anchor="middle" x="604" y="-85.5" font-family="Helvetica,sans-Serif" font-size="10.00" fill="#000000">_test.cc</text>
</a>
</g>
</g>
<!-- Node149&#45;&gt;Node155 -->
<g id="edge7" class="edge">
<title>Node149&#45;&gt;Node155</title>
<path fill="none" stroke="#191970" d="M604,-146.4016C604,-137.6173 604,-127.8652 604,-119.5015"/>
<polygon fill="#191970" stroke="#191970" points="600.5001,-146.4779 604,-156.478 607.5001,-146.478 600.5001,-146.4779"/>
</g>
<!-- Node156 -->
<g id="node8" class="node">
<title>Node156</title>
<g id="a_node8"><a xlink:href="joint__limits__test_8cc.html" target="_top" xlink:title="drake/multibody/plant\l/test/joint_limits_test.cc">
<polygon fill="#ffffff" stroke="#000000" points="685,-84 685,-114 819,-114 819,-84 685,-84"/>
<text text-anchor="start" x="693" y="-102" font-family="Helvetica,sans-Serif" font-size="10.00" fill="#000000">drake/multibody/plant</text>
<text text-anchor="middle" x="752" y="-91" font-family="Helvetica,sans-Serif" font-size="10.00" fill="#000000">/test/joint_limits_test.cc</text>
</a>
</g>
</g>
<!-- Node149&#45;&gt;Node156 -->
<g id="edge8" class="edge">
<title>Node149&#45;&gt;Node156</title>
<path fill="none" stroke="#191970" d="M643.6722,-152.066C668.0687,-140.115 698.8602,-125.0313 721.3736,-114.0028"/>
<polygon fill="#191970" stroke="#191970" points="642.1064,-148.9356 634.6657,-156.478 645.1858,-155.2219 642.1064,-148.9356"/>
</g>
<!-- Node157 -->
<g id="node9" class="node">
<title>Node157</title>
<g id="a_node9"><a xlink:href="multibody__plant__jacobians__test_8cc.html" target="_top" xlink:title="drake/multibody/plant\l/test/multibody_plant\l_jacobians_test.cc">
<polygon fill="#ffffff" stroke="#000000" points="837.5,-78.5 837.5,-119.5 962.5,-119.5 962.5,-78.5 837.5,-78.5"/>
<text text-anchor="start" x="845.5" y="-107.5" font-family="Helvetica,sans-Serif" font-size="10.00" fill="#000000">drake/multibody/plant</text>
<text text-anchor="start" x="845.5" y="-96.5" font-family="Helvetica,sans-Serif" font-size="10.00" fill="#000000">/test/multibody_plant</text>
<text text-anchor="middle" x="900" y="-85.5" font-family="Helvetica,sans-Serif" font-size="10.00" fill="#000000">_jacobians_test.cc</text>
</a>
</g>
</g>
<!-- Node149&#45;&gt;Node157 -->
<g id="edge9" class="edge">
<title>Node149&#45;&gt;Node157</title>
<path fill="none" stroke="#191970" d="M676.5425,-155.9365C720.5182,-146.2254 777.6676,-133.1144 828,-120 831.024,-119.2121 834.1139,-118.3873 837.2306,-117.5395"/>
<polygon fill="#191970" stroke="#191970" points="675.5298,-152.5755 666.5153,-158.1424 677.0338,-159.4121 675.5298,-152.5755"/>
</g>
<!-- Node158 -->
<g id="node10" class="node">
<title>Node158</title>
<g id="a_node10"><a xlink:href="multibody__plant__test_8cc.html" target="_top" xlink:title="drake/multibody/plant\l/test/multibody_plant\l_test.cc">
<polygon fill="#ffffff" stroke="#000000" points="980.5,-78.5 980.5,-119.5 1105.5,-119.5 1105.5,-78.5 980.5,-78.5"/>
<text text-anchor="start" x="988.5" y="-107.5" font-family="Helvetica,sans-Serif" font-size="10.00" fill="#000000">drake/multibody/plant</text>
<text text-anchor="start" x="988.5" y="-96.5" font-family="Helvetica,sans-Serif" font-size="10.00" fill="#000000">/test/multibody_plant</text>
<text text-anchor="middle" x="1043" y="-85.5" font-family="Helvetica,sans-Serif" font-size="10.00" fill="#000000">_test.cc</text>
</a>
</g>
</g>
<!-- Node149&#45;&gt;Node158 -->
<g id="edge10" class="edge">
<title>Node149&#45;&gt;Node158</title>
<path fill="none" stroke="#191970" d="M676.9124,-164.5257C751.5653,-156.6319 870.6848,-141.9453 972,-120 974.7638,-119.4013 977.577,-118.7505 980.4106,-118.0608"/>
<polygon fill="#191970" stroke="#191970" points="676.2624,-161.0745 666.6802,-165.5946 676.9897,-168.0366 676.2624,-161.0745"/>
</g>
<!-- Node159 -->
<g id="node11" class="node">
<title>Node159</title>
<g id="a_node11"><a xlink:href="multibody_2plant_2test_2spring__mass__system__test_8cc.html" target="_top" xlink:title="drake/multibody/plant\l/test/spring_mass_system\l_test.cc">
<polygon fill="#ffffff" stroke="#000000" points="1124,-78.5 1124,-119.5 1268,-119.5 1268,-78.5 1124,-78.5"/>
<text text-anchor="start" x="1132" y="-107.5" font-family="Helvetica,sans-Serif" font-size="10.00" fill="#000000">drake/multibody/plant</text>
<text text-anchor="start" x="1132" y="-96.5" font-family="Helvetica,sans-Serif" font-size="10.00" fill="#000000">/test/spring_mass_system</text>
<text text-anchor="middle" x="1196" y="-85.5" font-family="Helvetica,sans-Serif" font-size="10.00" fill="#000000">_test.cc</text>
</a>
</g>
</g>
<!-- Node149&#45;&gt;Node159 -->
<g id="edge11" class="edge">
<title>Node149&#45;&gt;Node159</title>
<path fill="none" stroke="#191970" d="M676.8164,-167.6803C776.3778,-161.659 960.2935,-147.682 1115,-120 1117.8601,-119.4882 1120.7676,-118.9283 1123.6978,-118.3307"/>
<polygon fill="#191970" stroke="#191970" points="676.3427,-164.2022 666.5682,-168.2899 676.7584,-171.1898 676.3427,-164.2022"/>
</g>
<!-- Node151 -->
<g id="node3" class="node">
<title>Node151</title>
<g id="a_node3"><a xlink:href="multibody_2plant_2contact__results__to__lcm_8cc.html" target="_top" xlink:title="drake/multibody/plant\l/contact_results_to_lcm.cc">
<polygon fill="#ffffff" stroke="#000000" points="0,-6 0,-36 146,-36 146,-6 0,-6"/>
<text text-anchor="start" x="8" y="-24" font-family="Helvetica,sans-Serif" font-size="10.00" fill="#000000">drake/multibody/plant</text>
<text text-anchor="middle" x="73" y="-13" font-family="Helvetica,sans-Serif" font-size="10.00" fill="#000000">/contact_results_to_lcm.cc</text>
</a>
</g>
</g>
<!-- Node150&#45;&gt;Node151 -->
<g id="edge2" class="edge">
<title>Node150&#45;&gt;Node151</title>
<path fill="none" stroke="#191970" d="M111.5314,-75.6445C102.5394,-62.8923 91.6613,-47.4652 83.7597,-36.2592"/>
<polygon fill="#191970" stroke="#191970" points="108.7723,-77.8052 117.3954,-83.9608 114.4931,-73.7713 108.7723,-77.8052"/>
</g>
<!-- Node150&#45;&gt;Node152 -->
<g id="edge3" class="edge">
<title>Node150&#45;&gt;Node152</title>
<path fill="none" stroke="#191970" d="M155.0716,-77.6709C169.3315,-66.4358 186.7404,-52.7197 200.8594,-41.5956"/>
<polygon fill="#191970" stroke="#191970" points="152.7771,-75.0228 147.0882,-83.9608 157.1092,-80.5213 152.7771,-75.0228"/>
</g>
</g>
</svg>
        <g id="navigator" transform="translate(0 0)" fill="#404254">
                <rect fill="#f2f5e9" fill-opacity="0.5" stroke="#606060" stroke-width=".5" x="0" y="0" width="60" height="60"/>
                <use id="zoomplus" xlink:href="#zoomPlus" x="17" y="9" onmousedown="handleZoom(evt,'in')"/>
                <use id="zoomminus" xlink:href="#zoomMin" x="42" y="9" onmousedown="handleZoom(evt,'out')"/>
                <use id="reset" xlink:href="#resetDef" x="30" y="36" onmousedown="handleReset()"/>
                <g id="arrowUp" xlink:href="#dirArrow" transform="translate(30 24)" onmousedown="handlePan(0,-1)">
                  <use xlink:href="#rim" fill="#404040">
                        <set attributeName="fill" to="#808080" begin="arrowUp.mouseover" end="arrowUp.mouseout"/>
                  </use>
                  <path fill="none" stroke="white" stroke-width="1.5" d="M0,-3.0v7 M-2.5,-0.5L0,-3.0L2.5,-0.5"/>
                </g>
                <g id="arrowRight" xlink:href="#dirArrow" transform="rotate(90) translate(36 -43)" onmousedown="handlePan(1,0)">
                  <use xlink:href="#rim" fill="#404040">
                        <set attributeName="fill" to="#808080" begin="arrowRight.mouseover" end="arrowRight.mouseout"/>
                  </use>
                  <path fill="none" stroke="white" stroke-width="1.5" d="M0,-3.0v7 M-2.5,-0.5L0,-3.0L2.5,-0.5"/>
                </g>
                <g id="arrowDown" xlink:href="#dirArrow" transform="rotate(180) translate(-30 -48)" onmousedown="handlePan(0,1)">
                  <use xlink:href="#rim" fill="#404040">
                        <set attributeName="fill" to="#808080" begin="arrowDown.mouseover" end="arrowDown.mouseout"/>
                  </use>
                  <path fill="none" stroke="white" stroke-width="1.5" d="M0,-3.0v7 M-2.5,-0.5L0,-3.0L2.5,-0.5"/>
                </g>
                <g id="arrowLeft" xlink:href="#dirArrow" transform="rotate(270) translate(-36 17)" onmousedown="handlePan(-1,0)">
                  <use xlink:href="#rim" fill="#404040">
                        <set attributeName="fill" to="#808080" begin="arrowLeft.mouseover" end="arrowLeft.mouseout"/>
                  </use>
                  <path fill="none" stroke="white" stroke-width="1.5" d="M0,-3.0v7 M-2.5,-0.5L0,-3.0L2.5,-0.5"/>
                </g>
        </g>
        <svg viewBox="0 0 15 15" width="100%" height="30px" preserveAspectRatio="xMaxYMin meet">
         <g id="arrow_out" transform="scale(0.3 0.3)">
          <a xlink:href="multibody__plant_8h__dep__incl_org.svg" target="_base">
           <rect id="button" ry="5" rx="5" y="6" x="6" height="38" width="38"
                fill="#f2f5e9" fill-opacity="0.5" stroke="#606060" stroke-width="1.0"/>
           <path id="arrow"
             d="M 11.500037,31.436501 C 11.940474,20.09759 22.043105,11.32322 32.158766,21.979434 L 37.068811,17.246167 C 37.068811,17.246167 37.088388,32 37.088388,32 L 22.160133,31.978069 C 22.160133,31.978069 26.997745,27.140456 26.997745,27.140456 C 18.528582,18.264221 13.291696,25.230495 11.500037,31.436501 z"
             style="fill:#404040;"/>
          </a>
         </g>
        </svg>
</svg>
