<?xml version="1.0" encoding="UTF-8" standalone="no"?>
<!DOCTYPE svg PUBLIC "-//W3C//DTD SVG 1.1//EN"
 "http://www.w3.org/Graphics/SVG/1.1/DTD/svg11.dtd">
<!-- Generated by graphviz version 2.40.1 (20161225.0304)
 -->
<!-- Title: drake/automotive/maliput/multilane/connection.h Pages: 1 -->
<svg width="2450pt" height="262pt"
 viewBox="0.00 0.00 2450.00 262.00" xmlns="http://www.w3.org/2000/svg" xmlns:xlink="http://www.w3.org/1999/xlink">
<g id="graph0" class="graph" transform="scale(1 1) rotate(0) translate(4 258)">
<title>drake/automotive/maliput/multilane/connection.h</title>
<polygon fill="#ffffff" stroke="transparent" points="-4,4 -4,-258 2446,-258 2446,4 -4,4"/>
<!-- Node127 -->
<g id="node1" class="node">
<title>Node127</title>
<polygon fill="#bfbfbf" stroke="#000000" points="1871,-223.5 1871,-253.5 2015,-253.5 2015,-223.5 1871,-223.5"/>
<text text-anchor="start" x="1879" y="-241.5" font-family="Helvetica,sans-Serif" font-size="10.00" fill="#000000">drake/automotive/maliput</text>
<text text-anchor="middle" x="1943" y="-230.5" font-family="Helvetica,sans-Serif" font-size="10.00" fill="#000000">/multilane/connection.h</text>
</g>
<!-- Node128 -->
<g id="node2" class="node">
<title>Node128</title>
<g id="a_node2"><a xlink:href="multilane_2builder_8h.html" target="_top" xlink:title="drake/automotive/maliput\l/multilane/builder.h">
<polygon fill="#ffffff" stroke="#000000" points="1348,-156.5 1348,-186.5 1492,-186.5 1492,-156.5 1348,-156.5"/>
<text text-anchor="start" x="1356" y="-174.5" font-family="Helvetica,sans-Serif" font-size="10.00" fill="#000000">drake/automotive/maliput</text>
<text text-anchor="middle" x="1420" y="-163.5" font-family="Helvetica,sans-Serif" font-size="10.00" fill="#000000">/multilane/builder.h</text>
</a>
</g>
</g>
<!-- Node127&#45;&gt;Node128 -->
<g id="edge1" class="edge">
<title>Node127&#45;&gt;Node128</title>
<path fill="none" stroke="#191970" d="M1860.6351,-227.9485C1759.2712,-214.963 1588.7668,-193.1202 1492.2704,-180.7583"/>
<polygon fill="#191970" stroke="#191970" points="1860.4645,-231.4551 1870.8282,-229.2543 1861.354,-224.5119 1860.4645,-231.4551"/>
</g>
<!-- Node130 -->
<g id="node4" class="node">
<title>Node130</title>
<g id="a_node4"><a xlink:href="multilane_2loader_8cc.html" target="_top" xlink:title="drake/automotive/maliput\l/multilane/loader.cc">
<polygon fill="#ffffff" stroke="#000000" points="2031,-6 2031,-36 2175,-36 2175,-6 2031,-6"/>
<text text-anchor="start" x="2039" y="-24" font-family="Helvetica,sans-Serif" font-size="10.00" fill="#000000">drake/automotive/maliput</text>
<text text-anchor="middle" x="2103" y="-13" font-family="Helvetica,sans-Serif" font-size="10.00" fill="#000000">/multilane/loader.cc</text>
</a>
</g>
</g>
<!-- Node127&#45;&gt;Node130 -->
<g id="edge34" class="edge">
<title>Node127&#45;&gt;Node130</title>
<path fill="none" stroke="#191970" d="M2025.0043,-226.7804C2088.2489,-212.966 2171.6794,-183.2603 2213,-120 2223.2081,-104.3718 2222.6988,-93.9493 2213,-78 2200.8746,-58.0602 2179.268,-44.7836 2158.3952,-36.1038"/>
<polygon fill="#191970" stroke="#191970" points="2024.1091,-223.3917 2015.0368,-228.8638 2025.5413,-230.2437 2024.1091,-223.3917"/>
</g>
<!-- Node132 -->
<g id="node6" class="node">
<title>Node132</title>
<g id="a_node6"><a xlink:href="multilane__loader__test_8cc.html" target="_top" xlink:title="drake/automotive/maliput\l/multilane/test/multilane\l_loader_test.cc">
<polygon fill="#ffffff" stroke="#000000" points="502,-.5 502,-41.5 646,-41.5 646,-.5 502,-.5"/>
<text text-anchor="start" x="510" y="-29.5" font-family="Helvetica,sans-Serif" font-size="10.00" fill="#000000">drake/automotive/maliput</text>
<text text-anchor="start" x="510" y="-18.5" font-family="Helvetica,sans-Serif" font-size="10.00" fill="#000000">/multilane/test/multilane</text>
<text text-anchor="middle" x="574" y="-7.5" font-family="Helvetica,sans-Serif" font-size="10.00" fill="#000000">_loader_test.cc</text>
</a>
</g>
</g>
<!-- Node127&#45;&gt;Node132 -->
<g id="edge36" class="edge">
<title>Node127&#45;&gt;Node132</title>
<path fill="none" stroke="#191970" d="M1860.796,-234.9779C1625.8663,-224.1844 955.1055,-188.0949 747,-120 691.7466,-101.9204 634.5084,-64.9345 601.6861,-41.6431"/>
<polygon fill="#191970" stroke="#191970" points="1860.8325,-238.4831 1870.9816,-235.4425 1861.1515,-231.4904 1860.8325,-238.4831"/>
</g>
<!-- Node134 -->
<g id="node8" class="node">
<title>Node134</title>
<g id="a_node8"><a xlink:href="generate__obj__test_8cc.html" target="_top" xlink:title="drake/automotive/maliput\l/utility/test/generate\l_obj_test.cc">
<polygon fill="#ffffff" stroke="#000000" points="2193,-.5 2193,-41.5 2337,-41.5 2337,-.5 2193,-.5"/>
<text text-anchor="start" x="2201" y="-29.5" font-family="Helvetica,sans-Serif" font-size="10.00" fill="#000000">drake/automotive/maliput</text>
<text text-anchor="start" x="2201" y="-18.5" font-family="Helvetica,sans-Serif" font-size="10.00" fill="#000000">/utility/test/generate</text>
<text text-anchor="middle" x="2265" y="-7.5" font-family="Helvetica,sans-Serif" font-size="10.00" fill="#000000">_obj_test.cc</text>
</a>
</g>
</g>
<!-- Node127&#45;&gt;Node134 -->
<g id="edge38" class="edge">
<title>Node127&#45;&gt;Node134</title>
<path fill="none" stroke="#191970" d="M2025.2211,-225.5849C2080.4054,-215.8717 2147.3522,-201.7492 2172,-187 2226,-154.6864 2251.1311,-78.5428 2260.4561,-41.6941"/>
<polygon fill="#191970" stroke="#191970" points="2024.3213,-222.1887 2015.0667,-227.3465 2025.5178,-229.0857 2024.3213,-222.1887"/>
</g>
<!-- Node140 -->
<g id="node14" class="node">
<title>Node140</title>
<g id="a_node14"><a xlink:href="multilane__types__compare_8h.html" target="_top" xlink:title="drake/automotive/maliput\l/multilane/test_utilities\l/multilane_types_compare.h">
<polygon fill="#ffffff" stroke="#000000" points="390.5,-78.5 390.5,-119.5 545.5,-119.5 545.5,-78.5 390.5,-78.5"/>
<text text-anchor="start" x="398.5" y="-107.5" font-family="Helvetica,sans-Serif" font-size="10.00" fill="#000000">drake/automotive/maliput</text>
<text text-anchor="start" x="398.5" y="-96.5" font-family="Helvetica,sans-Serif" font-size="10.00" fill="#000000">/multilane/test_utilities</text>
<text text-anchor="middle" x="468" y="-85.5" font-family="Helvetica,sans-Serif" font-size="10.00" fill="#000000">/multilane_types_compare.h</text>
</a>
</g>
</g>
<!-- Node127&#45;&gt;Node140 -->
<g id="edge37" class="edge">
<title>Node127&#45;&gt;Node140</title>
<path fill="none" stroke="#191970" d="M1860.4304,-238.1722C1584.9017,-236.6907 707.6828,-228.7136 588,-187 547.9913,-173.0556 509.9957,-140.8622 487.8535,-119.5242"/>
<polygon fill="#191970" stroke="#191970" points="1860.7396,-241.6737 1870.7578,-238.2261 1860.7763,-234.6738 1860.7396,-241.6737"/>
</g>
<!-- Node141 -->
<g id="node15" class="node">
<title>Node141</title>
<g id="a_node15"><a xlink:href="multilane__connection__test_8cc.html" target="_top" xlink:title="drake/automotive/maliput\l/multilane/test/multilane\l_connection_test.cc">
<polygon fill="#ffffff" stroke="#000000" points="0,-.5 0,-41.5 144,-41.5 144,-.5 0,-.5"/>
<text text-anchor="start" x="8" y="-29.5" font-family="Helvetica,sans-Serif" font-size="10.00" fill="#000000">drake/automotive/maliput</text>
<text text-anchor="start" x="8" y="-18.5" font-family="Helvetica,sans-Serif" font-size="10.00" fill="#000000">/multilane/test/multilane</text>
<text text-anchor="middle" x="72" y="-7.5" font-family="Helvetica,sans-Serif" font-size="10.00" fill="#000000">_connection_test.cc</text>
</a>
</g>
</g>
<!-- Node127&#45;&gt;Node141 -->
<g id="edge35" class="edge">
<title>Node127&#45;&gt;Node141</title>
<path fill="none" stroke="#191970" d="M1860.499,-236.9985C1577.8001,-231.6461 658.4083,-212.4524 528,-187 369.8574,-156.1346 193.5021,-78.7395 114.408,-41.5631"/>
<polygon fill="#191970" stroke="#191970" points="1860.6211,-240.5013 1870.6853,-237.1906 1860.7531,-233.5026 1860.6211,-240.5013"/>
</g>
<!-- Node148 -->
<g id="node22" class="node">
<title>Node148</title>
<g id="a_node22"><a xlink:href="maliput__railcar__test_8cc.html" target="_top" xlink:title="drake/automotive/test\l/maliput_railcar_test.cc">
<polygon fill="#ffffff" stroke="#000000" points="1786.5,-84 1786.5,-114 1917.5,-114 1917.5,-84 1786.5,-84"/>
<text text-anchor="start" x="1794.5" y="-102" font-family="Helvetica,sans-Serif" font-size="10.00" fill="#000000">drake/automotive/test</text>
<text text-anchor="middle" x="1852" y="-91" font-family="Helvetica,sans-Serif" font-size="10.00" fill="#000000">/maliput_railcar_test.cc</text>
</a>
</g>
</g>
<!-- Node127&#45;&gt;Node148 -->
<g id="edge39" class="edge">
<title>Node127&#45;&gt;Node148</title>
<path fill="none" stroke="#191970" d="M1927.4601,-214.6779C1908.6938,-185.9098 1877.687,-138.3773 1861.8996,-114.1758"/>
<polygon fill="#191970" stroke="#191970" points="1924.6931,-216.8422 1933.0882,-223.3055 1930.556,-213.0177 1924.6931,-216.8422"/>
</g>
<!-- Node149 -->
<g id="node23" class="node">
<title>Node149</title>
<g id="a_node23"><a xlink:href="pose__selector__test_8cc.html" target="_top" xlink:title="drake/automotive/test\l/pose_selector_test.cc">
<polygon fill="#ffffff" stroke="#000000" points="1935.5,-84 1935.5,-114 2060.5,-114 2060.5,-84 1935.5,-84"/>
<text text-anchor="start" x="1943.5" y="-102" font-family="Helvetica,sans-Serif" font-size="10.00" fill="#000000">drake/automotive/test</text>
<text text-anchor="middle" x="1998" y="-91" font-family="Helvetica,sans-Serif" font-size="10.00" fill="#000000">/pose_selector_test.cc</text>
</a>
</g>
</g>
<!-- Node127&#45;&gt;Node149 -->
<g id="edge40" class="edge">
<title>Node127&#45;&gt;Node149</title>
<path fill="none" stroke="#191970" d="M1952.6885,-213.9265C1964.0583,-185.0884 1982.5575,-138.1677 1992.0167,-114.1758"/>
<polygon fill="#191970" stroke="#191970" points="1949.4025,-212.7187 1948.9907,-223.3055 1955.9147,-215.2862 1949.4025,-212.7187"/>
</g>
<!-- Node150 -->
<g id="node24" class="node">
<title>Node150</title>
<g id="a_node24"><a xlink:href="pure__pursuit__test_8cc.html" target="_top" xlink:title="drake/automotive/test\l/pure_pursuit_test.cc">
<polygon fill="#ffffff" stroke="#000000" points="2078.5,-84 2078.5,-114 2203.5,-114 2203.5,-84 2078.5,-84"/>
<text text-anchor="start" x="2086.5" y="-102" font-family="Helvetica,sans-Serif" font-size="10.00" fill="#000000">drake/automotive/test</text>
<text text-anchor="middle" x="2141" y="-91" font-family="Helvetica,sans-Serif" font-size="10.00" fill="#000000">/pure_pursuit_test.cc</text>
</a>
</g>
</g>
<!-- Node127&#45;&gt;Node150 -->
<g id="edge41" class="edge">
<title>Node127&#45;&gt;Node150</title>
<path fill="none" stroke="#191970" d="M1972.9211,-217.4192C2013.2284,-189.0209 2083.9944,-139.163 2119.4602,-114.1758"/>
<polygon fill="#191970" stroke="#191970" points="1970.7254,-214.6847 1964.5664,-223.3055 1974.7571,-220.4071 1970.7254,-214.6847"/>
</g>
<!-- Node152 -->
<g id="node26" class="node">
<title>Node152</title>
<g id="a_node26"><a xlink:href="multilane_2connection_8cc.html" target="_top" xlink:title="drake/automotive/maliput\l/multilane/connection.cc">
<polygon fill="#ffffff" stroke="#000000" points="2298,-156.5 2298,-186.5 2442,-186.5 2442,-156.5 2298,-156.5"/>
<text text-anchor="start" x="2306" y="-174.5" font-family="Helvetica,sans-Serif" font-size="10.00" fill="#000000">drake/automotive/maliput</text>
<text text-anchor="middle" x="2370" y="-163.5" font-family="Helvetica,sans-Serif" font-size="10.00" fill="#000000">/multilane/connection.cc</text>
</a>
</g>
</g>
<!-- Node127&#45;&gt;Node152 -->
<g id="edge33" class="edge">
<title>Node127&#45;&gt;Node152</title>
<path fill="none" stroke="#191970" d="M2025.2318,-226.7496C2094.3643,-216.7107 2195.7505,-201.6137 2284,-187 2288.4902,-186.2564 2293.109,-185.4743 2297.7647,-184.6728"/>
<polygon fill="#191970" stroke="#191970" points="2024.6658,-223.295 2015.2714,-228.1934 2025.6701,-230.2226 2024.6658,-223.295"/>
</g>
<!-- Node129 -->
<g id="node3" class="node">
<title>Node129</title>
<g id="a_node3"><a xlink:href="multilane_2builder_8cc.html" target="_top" xlink:title="drake/automotive/maliput\l/multilane/builder.cc">
<polygon fill="#ffffff" stroke="#000000" points="900,-84 900,-114 1044,-114 1044,-84 900,-84"/>
<text text-anchor="start" x="908" y="-102" font-family="Helvetica,sans-Serif" font-size="10.00" fill="#000000">drake/automotive/maliput</text>
<text text-anchor="middle" x="972" y="-91" font-family="Helvetica,sans-Serif" font-size="10.00" fill="#000000">/multilane/builder.cc</text>
</a>
</g>
</g>
<!-- Node128&#45;&gt;Node129 -->
<g id="edge2" class="edge">
<title>Node128&#45;&gt;Node129</title>
<path fill="none" stroke="#191970" d="M1337.7423,-162.1339C1264.1204,-153.1969 1153.4011,-138.3879 1058,-120 1048.9451,-118.2547 1039.4106,-116.174 1030.1186,-114.0109"/>
<polygon fill="#191970" stroke="#191970" points="1337.532,-165.6338 1347.879,-163.3558 1338.3697,-158.6841 1337.532,-165.6338"/>
</g>
<!-- Node128&#45;&gt;Node130 -->
<g id="edge3" class="edge">
<title>Node128&#45;&gt;Node130</title>
<path fill="none" stroke="#191970" d="M1502.192,-161.5155C1571.7131,-152.1284 1665.2498,-137.0054 1699,-120 1723.4316,-107.6899 1719.249,-89.6548 1744,-78 1856.3173,-25.1117 1899.087,-65.443 2021,-42 2029.803,-40.3072 2039.0666,-38.2289 2048.0715,-36.0447"/>
<polygon fill="#191970" stroke="#191970" points="1501.5687,-158.0675 1492.119,-162.8584 1502.4938,-165.0061 1501.5687,-158.0675"/>
</g>
<!-- Node131 -->
<g id="node5" class="node">
<title>Node131</title>
<g id="a_node5"><a xlink:href="multilane_2loader_8h.html" target="_top" xlink:title="drake/automotive/maliput\l/multilane/loader.h">
<polygon fill="#ffffff" stroke="#000000" points="1348,-84 1348,-114 1492,-114 1492,-84 1348,-84"/>
<text text-anchor="start" x="1356" y="-102" font-family="Helvetica,sans-Serif" font-size="10.00" fill="#000000">drake/automotive/maliput</text>
<text text-anchor="middle" x="1420" y="-91" font-family="Helvetica,sans-Serif" font-size="10.00" fill="#000000">/multilane/loader.h</text>
</a>
</g>
</g>
<!-- Node128&#45;&gt;Node131 -->
<g id="edge4" class="edge">
<title>Node128&#45;&gt;Node131</title>
<path fill="none" stroke="#191970" d="M1420,-146.3409C1420,-135.5601 1420,-123.3309 1420,-114.0028"/>
<polygon fill="#191970" stroke="#191970" points="1416.5001,-146.4779 1420,-156.478 1423.5001,-146.478 1416.5001,-146.4779"/>
</g>
<!-- Node128&#45;&gt;Node132 -->
<g id="edge13" class="edge">
<title>Node128&#45;&gt;Node132</title>
<path fill="none" stroke="#191970" d="M1337.6307,-164.9085C1254.4302,-157.1421 1132.4435,-142.3893 1091,-120 1068.8523,-108.035 1075.5251,-89.2382 1053,-78 973.5356,-38.3538 742.496,-57.1941 655,-42 652.1374,-41.5029 649.2276,-40.9553 646.2956,-40.3681"/>
<polygon fill="#191970" stroke="#191970" points="1337.5524,-168.4159 1347.8303,-165.8439 1338.1918,-161.4452 1337.5524,-168.4159"/>
</g>
<!-- Node133 -->
<g id="node7" class="node">
<title>Node133</title>
<g id="a_node7"><a xlink:href="yaml__load_8cc.html" target="_top" xlink:title="Attempts to load a yaml file as input and build a multilane road geometry. ">
<polygon fill="#ffffff" stroke="#000000" points="1857.5,-6 1857.5,-36 2012.5,-36 2012.5,-6 1857.5,-6"/>
<text text-anchor="start" x="1865.5" y="-24" font-family="Helvetica,sans-Serif" font-size="10.00" fill="#000000">drake/automotive/maliput</text>
<text text-anchor="middle" x="1935" y="-13" font-family="Helvetica,sans-Serif" font-size="10.00" fill="#000000">/multilane/test/yaml_load.cc</text>
</a>
</g>
</g>
<!-- Node128&#45;&gt;Node133 -->
<g id="edge15" class="edge">
<title>Node128&#45;&gt;Node133</title>
<path fill="none" stroke="#191970" d="M1502.3389,-159.093C1561.5109,-149.2379 1635.5017,-134.7111 1663,-120 1686.5557,-107.3981 1682.6691,-91.0134 1706,-78 1709.7402,-75.9138 1806.3368,-52.2244 1872.8634,-36.0498"/>
<polygon fill="#191970" stroke="#191970" points="1501.5294,-155.679 1492.23,-160.7556 1502.6655,-162.5862 1501.5294,-155.679"/>
</g>
<!-- Node128&#45;&gt;Node134 -->
<g id="edge21" class="edge">
<title>Node128&#45;&gt;Node134</title>
<path fill="none" stroke="#191970" d="M1502.0447,-163.9954C1581.7359,-155.6659 1696.3325,-140.6261 1736,-120 1759.1444,-107.9655 1753.43,-89.178 1777,-78 1859.0393,-39.0931 2094.5259,-57.4462 2184,-42 2186.8631,-41.5057 2189.7733,-40.9605 2192.7056,-40.3753"/>
<polygon fill="#191970" stroke="#191970" points="1501.6087,-160.5216 1492.0197,-165.0272 1502.3255,-167.4849 1501.6087,-160.5216"/>
</g>
<!-- Node135 -->
<g id="node9" class="node">
<title>Node135</title>
<g id="a_node9"><a xlink:href="generate__urdf__test_8cc.html" target="_top" xlink:title="drake/automotive/maliput\l/utility/test/generate\l_urdf_test.cc">
<polygon fill="#ffffff" stroke="#000000" points="1354,-.5 1354,-41.5 1498,-41.5 1498,-.5 1354,-.5"/>
<text text-anchor="start" x="1362" y="-29.5" font-family="Helvetica,sans-Serif" font-size="10.00" fill="#000000">drake/automotive/maliput</text>
<text text-anchor="start" x="1362" y="-18.5" font-family="Helvetica,sans-Serif" font-size="10.00" fill="#000000">/utility/test/generate</text>
<text text-anchor="middle" x="1426" y="-7.5" font-family="Helvetica,sans-Serif" font-size="10.00" fill="#000000">_urdf_test.cc</text>
</a>
</g>
</g>
<!-- Node128&#45;&gt;Node135 -->
<g id="edge22" class="edge">
<title>Node128&#45;&gt;Node135</title>
<path fill="none" stroke="#191970" d="M1345.2109,-152.3569C1329.7221,-144.8356 1315.3047,-134.4136 1306,-120 1295.876,-104.3173 1296.0265,-93.7789 1306,-78 1317.0292,-60.551 1335.0137,-48.3358 1353.7423,-39.8274"/>
<polygon fill="#191970" stroke="#191970" points="1343.8646,-155.5887 1354.4237,-156.4585 1346.7116,-149.1938 1343.8646,-155.5887"/>
</g>
<!-- Node137 -->
<g id="node11" class="node">
<title>Node137</title>
<g id="a_node11"><a xlink:href="yaml__to__obj_8cc.html" target="_top" xlink:title="Take a yaml file as input, build the resulting multilane road geometry, and render the road surface t...">
<polygon fill="#ffffff" stroke="#000000" points="1516,-6 1516,-36 1660,-36 1660,-6 1516,-6"/>
<text text-anchor="start" x="1524" y="-24" font-family="Helvetica,sans-Serif" font-size="10.00" fill="#000000">drake/automotive/maliput</text>
<text text-anchor="middle" x="1588" y="-13" font-family="Helvetica,sans-Serif" font-size="10.00" fill="#000000">/utility/yaml_to_obj.cc</text>
</a>
</g>
</g>
<!-- Node128&#45;&gt;Node137 -->
<g id="edge23" class="edge">
<title>Node128&#45;&gt;Node137</title>
<path fill="none" stroke="#191970" d="M1371.5261,-151.4609C1358.645,-143.6413 1346.2999,-133.2917 1339,-120 1330.0142,-103.6385 1327.2647,-92.5164 1339,-78 1387.0069,-18.6161 1432.6909,-59.5859 1507,-42 1514.7753,-40.1599 1522.9485,-38.1412 1530.9896,-36.1055"/>
<polygon fill="#191970" stroke="#191970" points="1370.0394,-154.6399 1380.4741,-156.4754 1373.4615,-148.5334 1370.0394,-154.6399"/>
</g>
<!-- Node138 -->
<g id="node12" class="node">
<title>Node138</title>
<g id="a_node12"><a xlink:href="multilane__builder__test_8cc.html" target="_top" xlink:title="drake/automotive/maliput\l/multilane/test/multilane\l_builder_test.cc">
<polygon fill="#ffffff" stroke="#000000" points="340,-.5 340,-41.5 484,-41.5 484,-.5 340,-.5"/>
<text text-anchor="start" x="348" y="-29.5" font-family="Helvetica,sans-Serif" font-size="10.00" fill="#000000">drake/automotive/maliput</text>
<text text-anchor="start" x="348" y="-18.5" font-family="Helvetica,sans-Serif" font-size="10.00" fill="#000000">/multilane/test/multilane</text>
<text text-anchor="middle" x="412" y="-7.5" font-family="Helvetica,sans-Serif" font-size="10.00" fill="#000000">_builder_test.cc</text>
</a>
</g>
</g>
<!-- Node128&#45;&gt;Node138 -->
<g id="edge12" class="edge">
<title>Node128&#45;&gt;Node138</title>
<path fill="none" stroke="#191970" d="M1337.5606,-167.3714C1183.6457,-159.302 858.1118,-140.4324 747,-120 646.7945,-101.5731 533.8363,-64.6958 468.0182,-41.52"/>
<polygon fill="#191970" stroke="#191970" points="1337.7248,-170.8846 1347.8936,-167.9104 1338.0895,-163.8941 1337.7248,-170.8846"/>
</g>
<!-- Node139 -->
<g id="node13" class="node">
<title>Node139</title>
<g id="a_node13"><a xlink:href="multilane__road__geometry__test_8cc.html" target="_top" xlink:title="drake/automotive/maliput\l/multilane/test/multilane\l_road_geometry_test.cc">
<polygon fill="#ffffff" stroke="#000000" points="1510,-78.5 1510,-119.5 1654,-119.5 1654,-78.5 1510,-78.5"/>
<text text-anchor="start" x="1518" y="-107.5" font-family="Helvetica,sans-Serif" font-size="10.00" fill="#000000">drake/automotive/maliput</text>
<text text-anchor="start" x="1518" y="-96.5" font-family="Helvetica,sans-Serif" font-size="10.00" fill="#000000">/multilane/test/multilane</text>
<text text-anchor="middle" x="1582" y="-85.5" font-family="Helvetica,sans-Serif" font-size="10.00" fill="#000000">_road_geometry_test.cc</text>
</a>
</g>
</g>
<!-- Node128&#45;&gt;Node139 -->
<g id="edge14" class="edge">
<title>Node128&#45;&gt;Node139</title>
<path fill="none" stroke="#191970" d="M1462.9035,-152.2993C1485.4877,-142.1923 1513.1884,-129.7953 1536.1897,-119.5015"/>
<polygon fill="#191970" stroke="#191970" points="1461.2644,-149.1983 1453.5665,-156.478 1464.1239,-155.5877 1461.2644,-149.1983"/>
</g>
<!-- Node128&#45;&gt;Node140 -->
<g id="edge16" class="edge">
<title>Node128&#45;&gt;Node140</title>
<path fill="none" stroke="#191970" d="M1337.5854,-167.0582C1197.854,-159.273 905.5855,-141.8898 659,-120 621.6175,-116.6815 580.205,-112.2242 545.5237,-108.2698"/>
<polygon fill="#191970" stroke="#191970" points="1337.6073,-170.5647 1347.786,-167.6246 1337.9955,-163.5755 1337.6073,-170.5647"/>
</g>
<!-- Node143 -->
<g id="node17" class="node">
<title>Node143</title>
<g id="a_node17"><a xlink:href="multilane__onramp__merge_8h.html" target="_top" xlink:title="drake/automotive/multilane\l_onramp_merge.h">
<polygon fill="#ffffff" stroke="#000000" points="1100.5,-84 1100.5,-114 1253.5,-114 1253.5,-84 1100.5,-84"/>
<text text-anchor="start" x="1108.5" y="-102" font-family="Helvetica,sans-Serif" font-size="10.00" fill="#000000">drake/automotive/multilane</text>
<text text-anchor="middle" x="1177" y="-91" font-family="Helvetica,sans-Serif" font-size="10.00" fill="#000000">_onramp_merge.h</text>
</a>
</g>
</g>
<!-- Node128&#45;&gt;Node143 -->
<g id="edge24" class="edge">
<title>Node128&#45;&gt;Node143</title>
<path fill="none" stroke="#191970" d="M1359.8347,-153.5495C1319.0615,-141.3846 1265.7969,-125.4929 1227.2853,-114.0028"/>
<polygon fill="#191970" stroke="#191970" points="1359.067,-156.9728 1369.6502,-156.478 1361.0683,-150.265 1359.067,-156.9728"/>
</g>
<!-- Node128&#45;&gt;Node148 -->
<g id="edge29" class="edge">
<title>Node128&#45;&gt;Node148</title>
<path fill="none" stroke="#191970" d="M1502.5149,-162.0663C1574.1378,-153.2503 1680.4305,-138.6567 1772,-120 1780.4422,-118.28 1789.3217,-116.2126 1797.9697,-114.0553"/>
<polygon fill="#191970" stroke="#191970" points="1501.7072,-158.6388 1492.2051,-163.3249 1502.5555,-165.5872 1501.7072,-158.6388"/>
</g>
<!-- Node128&#45;&gt;Node149 -->
<g id="edge30" class="edge">
<title>Node128&#45;&gt;Node149</title>
<path fill="none" stroke="#191970" d="M1502.3565,-167.7373C1603.0549,-162.0787 1778.3192,-148.8021 1926,-120 1934.1792,-118.4048 1942.7688,-116.2947 1951.0525,-114.0269"/>
<polygon fill="#191970" stroke="#191970" points="1502.042,-164.2492 1492.2495,-168.2936 1502.4268,-171.2386 1502.042,-164.2492"/>
</g>
<!-- Node128&#45;&gt;Node150 -->
<g id="edge31" class="edge">
<title>Node128&#45;&gt;Node150</title>
<path fill="none" stroke="#191970" d="M1502.0494,-167.0886C1651.4844,-158.7053 1962.4312,-139.5564 2069,-120 2077.3245,-118.4724 2086.0635,-116.3666 2094.4697,-114.0749"/>
<polygon fill="#191970" stroke="#191970" points="1501.7982,-163.5971 1492.009,-167.6493 1502.1886,-170.5862 1501.7982,-163.5971"/>
</g>
<!-- Node151 -->
<g id="node25" class="node">
<title>Node151</title>
<g id="a_node25"><a xlink:href="road__path__test_8cc.html" target="_top" xlink:title="drake/automotive/test\l/road_path_test.cc">
<polygon fill="#ffffff" stroke="#000000" points="756.5,-84 756.5,-114 881.5,-114 881.5,-84 756.5,-84"/>
<text text-anchor="start" x="764.5" y="-102" font-family="Helvetica,sans-Serif" font-size="10.00" fill="#000000">drake/automotive/test</text>
<text text-anchor="middle" x="819" y="-91" font-family="Helvetica,sans-Serif" font-size="10.00" fill="#000000">/road_path_test.cc</text>
</a>
</g>
</g>
<!-- Node128&#45;&gt;Node151 -->
<g id="edge32" class="edge">
<title>Node128&#45;&gt;Node151</title>
<path fill="none" stroke="#191970" d="M1337.77,-168.2532C1233.1605,-163.0374 1047.3014,-150.1281 891,-120 882.8173,-118.4227 874.2259,-116.3216 865.9417,-114.0571"/>
<polygon fill="#191970" stroke="#191970" points="1337.7875,-171.7581 1347.946,-168.749 1338.1282,-164.7664 1337.7875,-171.7581"/>
</g>
<!-- Node131&#45;&gt;Node130 -->
<g id="edge5" class="edge">
<title>Node131&#45;&gt;Node130</title>
<path fill="none" stroke="#191970" d="M1482.2592,-81.6297C1488.5567,-80.2428 1494.8837,-78.9958 1501,-78 1729.6535,-40.7721 1792.2915,-78.8889 2021,-42 2030.4302,-40.479 2040.3581,-38.3765 2049.9229,-36.0859"/>
<polygon fill="#191970" stroke="#191970" points="1481.3741,-78.2419 1472.4217,-83.9081 1482.9535,-85.0614 1481.3741,-78.2419"/>
</g>
<!-- Node131&#45;&gt;Node132 -->
<g id="edge6" class="edge">
<title>Node131&#45;&gt;Node132</title>
<path fill="none" stroke="#191970" d="M1337.8385,-86.9246C1313.4686,-83.6556 1286.6938,-80.3701 1262,-78 992.9845,-52.1796 921.9509,-84.1103 655,-42 652.13,-41.5473 649.2141,-41.0371 646.2769,-40.4812"/>
<polygon fill="#191970" stroke="#191970" points="1337.3827,-90.3947 1347.7628,-88.2724 1338.3248,-83.4584 1337.3827,-90.3947"/>
</g>
<!-- Node131&#45;&gt;Node133 -->
<g id="edge7" class="edge">
<title>Node131&#45;&gt;Node133</title>
<path fill="none" stroke="#191970" d="M1483.3128,-81.6176C1489.2661,-80.276 1495.23,-79.0412 1501,-78 1653.5857,-50.4665 1695.1881,-68.2489 1848,-42 1857.4945,-40.3691 1867.493,-38.2964 1877.1946,-36.0916"/>
<polygon fill="#191970" stroke="#191970" points="1482.2745,-78.2661 1473.3401,-83.9607 1483.8756,-85.0806 1482.2745,-78.2661"/>
</g>
<!-- Node131&#45;&gt;Node134 -->
<g id="edge8" class="edge">
<title>Node131&#45;&gt;Node134</title>
<path fill="none" stroke="#191970" d="M1481.661,-81.6512C1488.1535,-80.2338 1494.6873,-78.9745 1501,-78 1801.4182,-31.6226 1883.5818,-88.3774 2184,-42 2186.8715,-41.5567 2189.7887,-41.0545 2192.7269,-40.5053"/>
<polygon fill="#191970" stroke="#191970" points="1480.4861,-78.3303 1471.53,-83.9906 1482.0611,-85.1509 1480.4861,-78.3303"/>
</g>
<!-- Node131&#45;&gt;Node135 -->
<g id="edge9" class="edge">
<title>Node131&#45;&gt;Node135</title>
<path fill="none" stroke="#191970" d="M1421.9381,-73.8044C1422.7391,-63.3919 1423.656,-51.4721 1424.4157,-41.5956"/>
<polygon fill="#191970" stroke="#191970" points="1418.4342,-73.7218 1421.1569,-83.9608 1425.4136,-74.2587 1418.4342,-73.7218"/>
</g>
<!-- Node136 -->
<g id="node10" class="node">
<title>Node136</title>
<g id="a_node10"><a xlink:href="segment__analysis__test_8cc.html" target="_top" xlink:title="drake/automotive/maliput\l/utility/test/segment_analysis\l_test.cc">
<polygon fill="#ffffff" stroke="#000000" points="1678.5,-.5 1678.5,-41.5 1839.5,-41.5 1839.5,-.5 1678.5,-.5"/>
<text text-anchor="start" x="1686.5" y="-29.5" font-family="Helvetica,sans-Serif" font-size="10.00" fill="#000000">drake/automotive/maliput</text>
<text text-anchor="start" x="1686.5" y="-18.5" font-family="Helvetica,sans-Serif" font-size="10.00" fill="#000000">/utility/test/segment_analysis</text>
<text text-anchor="middle" x="1759" y="-7.5" font-family="Helvetica,sans-Serif" font-size="10.00" fill="#000000">_test.cc</text>
</a>
</g>
</g>
<!-- Node131&#45;&gt;Node136 -->
<g id="edge10" class="edge">
<title>Node131&#45;&gt;Node136</title>
<path fill="none" stroke="#191970" d="M1486.8404,-81.4328C1491.6266,-80.2481 1496.3834,-79.0926 1501,-78 1575.3091,-60.4141 1594.4815,-58.6765 1669,-42 1671.9749,-41.3342 1675.004,-40.6516 1678.0628,-39.9583"/>
<polygon fill="#191970" stroke="#191970" points="1485.8606,-78.07 1477.0104,-83.8945 1487.5611,-84.8603 1485.8606,-78.07"/>
</g>
<!-- Node131&#45;&gt;Node137 -->
<g id="edge11" class="edge">
<title>Node131&#45;&gt;Node137</title>
<path fill="none" stroke="#191970" d="M1461.8314,-79.5783C1490.7709,-66.1421 1528.7266,-48.5198 1555.4212,-36.1259"/>
<polygon fill="#191970" stroke="#191970" points="1459.9883,-76.5751 1452.3921,-83.9608 1462.9361,-82.9242 1459.9883,-76.5751"/>
</g>
<!-- Node140&#45;&gt;Node132 -->
<g id="edge19" class="edge">
<title>Node140&#45;&gt;Node132</title>
<path fill="none" stroke="#191970" d="M504.3836,-72.2272C518.0427,-62.1761 533.34,-50.9196 546.1086,-41.5239"/>
<polygon fill="#191970" stroke="#191970" points="502.1078,-69.5563 496.1278,-78.3022 506.2566,-75.1944 502.1078,-69.5563"/>
</g>
<!-- Node140&#45;&gt;Node138 -->
<g id="edge17" class="edge">
<title>Node140&#45;&gt;Node138</title>
<path fill="none" stroke="#191970" d="M447.0392,-69.8046C440.3268,-60.4552 433.0373,-50.302 426.8542,-41.6898"/>
<polygon fill="#191970" stroke="#191970" points="444.3178,-72.0154 452.993,-78.0974 450.0041,-67.9329 444.3178,-72.0154"/>
</g>
<!-- Node140&#45;&gt;Node141 -->
<g id="edge18" class="edge">
<title>Node140&#45;&gt;Node141</title>
<path fill="none" stroke="#191970" d="M380.3694,-84.9474C316.9737,-74.3428 229.3838,-58.788 153,-42 150.1622,-41.3763 147.2735,-40.7219 144.3591,-40.0454"/>
<polygon fill="#191970" stroke="#191970" points="379.8918,-88.416 390.3309,-86.6063 381.0417,-81.5111 379.8918,-88.416"/>
</g>
<!-- Node142 -->
<g id="node16" class="node">
<title>Node142</title>
<g id="a_node16"><a xlink:href="multilane__types__compare_8cc.html" target="_top" xlink:title="drake/automotive/maliput\l/multilane/test_utilities\l/multilane_types_compare.cc">
<polygon fill="#ffffff" stroke="#000000" points="162,-.5 162,-41.5 322,-41.5 322,-.5 162,-.5"/>
<text text-anchor="start" x="170" y="-29.5" font-family="Helvetica,sans-Serif" font-size="10.00" fill="#000000">drake/automotive/maliput</text>
<text text-anchor="start" x="170" y="-18.5" font-family="Helvetica,sans-Serif" font-size="10.00" fill="#000000">/multilane/test_utilities</text>
<text text-anchor="middle" x="242" y="-7.5" font-family="Helvetica,sans-Serif" font-size="10.00" fill="#000000">/multilane_types_compare.cc</text>
</a>
</g>
</g>
<!-- Node140&#45;&gt;Node142 -->
<g id="edge20" class="edge">
<title>Node140&#45;&gt;Node142</title>
<path fill="none" stroke="#191970" d="M398.8627,-75.1385C367.7878,-64.4135 331.4743,-51.8805 301.6167,-41.5757"/>
<polygon fill="#191970" stroke="#191970" points="397.7308,-78.4503 408.3255,-78.4044 400.0146,-71.8333 397.7308,-78.4503"/>
</g>
<!-- Node144 -->
<g id="node18" class="node">
<title>Node144</title>
<g id="a_node18"><a xlink:href="automotive__demo_8cc.html" target="_top" xlink:title="drake/automotive/automotive\l_demo.cc">
<polygon fill="#ffffff" stroke="#000000" points="828.5,-6 828.5,-36 991.5,-36 991.5,-6 828.5,-6"/>
<text text-anchor="start" x="836.5" y="-24" font-family="Helvetica,sans-Serif" font-size="10.00" fill="#000000">drake/automotive/automotive</text>
<text text-anchor="middle" x="910" y="-13" font-family="Helvetica,sans-Serif" font-size="10.00" fill="#000000">_demo.cc</text>
</a>
</g>
</g>
<!-- Node143&#45;&gt;Node144 -->
<g id="edge25" class="edge">
<title>Node143&#45;&gt;Node144</title>
<path fill="none" stroke="#191970" d="M1115.8494,-81.1358C1069.2731,-67.5292 1005.8626,-49.0048 961.7771,-36.1259"/>
<polygon fill="#191970" stroke="#191970" points="1114.9394,-84.5162 1125.5197,-83.9608 1116.9024,-77.797 1114.9394,-84.5162"/>
</g>
<!-- Node145 -->
<g id="node19" class="node">
<title>Node145</title>
<g id="a_node19"><a xlink:href="multilane__onramp__merge_8cc.html" target="_top" xlink:title="drake/automotive/multilane\l_onramp_merge.cc">
<polygon fill="#ffffff" stroke="#000000" points="1009.5,-6 1009.5,-36 1162.5,-36 1162.5,-6 1009.5,-6"/>
<text text-anchor="start" x="1017.5" y="-24" font-family="Helvetica,sans-Serif" font-size="10.00" fill="#000000">drake/automotive/multilane</text>
<text text-anchor="middle" x="1086" y="-13" font-family="Helvetica,sans-Serif" font-size="10.00" fill="#000000">_onramp_merge.cc</text>
</a>
</g>
</g>
<!-- Node143&#45;&gt;Node145 -->
<g id="edge26" class="edge">
<title>Node143&#45;&gt;Node145</title>
<path fill="none" stroke="#191970" d="M1151.4542,-77.1036C1136.2661,-64.0853 1117.3789,-47.8962 1103.8023,-36.2592"/>
<polygon fill="#191970" stroke="#191970" points="1149.5839,-80.1103 1159.4543,-83.9608 1154.1395,-74.7955 1149.5839,-80.1103"/>
</g>
<!-- Node146 -->
<g id="node20" class="node">
<title>Node146</title>
<g id="a_node20"><a xlink:href="calc__ongoing__road__position__test_8cc.html" target="_top" xlink:title="drake/automotive/test\l/calc_ongoing_road_position\l_test.cc">
<polygon fill="#ffffff" stroke="#000000" points="1180.5,-.5 1180.5,-41.5 1335.5,-41.5 1335.5,-.5 1180.5,-.5"/>
<text text-anchor="start" x="1188.5" y="-29.5" font-family="Helvetica,sans-Serif" font-size="10.00" fill="#000000">drake/automotive/test</text>
<text text-anchor="start" x="1188.5" y="-18.5" font-family="Helvetica,sans-Serif" font-size="10.00" fill="#000000">/calc_ongoing_road_position</text>
<text text-anchor="middle" x="1258" y="-7.5" font-family="Helvetica,sans-Serif" font-size="10.00" fill="#000000">_test.cc</text>
</a>
</g>
</g>
<!-- Node143&#45;&gt;Node146 -->
<g id="edge27" class="edge">
<title>Node143&#45;&gt;Node146</title>
<path fill="none" stroke="#191970" d="M1200.1368,-76.7201C1211.6132,-65.6687 1225.3842,-52.4078 1236.6123,-41.5956"/>
<polygon fill="#191970" stroke="#191970" points="1197.3931,-74.5032 1192.6176,-83.9608 1202.2486,-79.5455 1197.3931,-74.5032"/>
</g>
<!-- Node147 -->
<g id="node21" class="node">
<title>Node147</title>
<g id="a_node21"><a xlink:href="multilane__onramp__merge__test_8cc.html" target="_top" xlink:title="drake/automotive/test\l/multilane_onramp_merge\l_test.cc">
<polygon fill="#ffffff" stroke="#000000" points="664,-.5 664,-41.5 810,-41.5 810,-.5 664,-.5"/>
<text text-anchor="start" x="672" y="-29.5" font-family="Helvetica,sans-Serif" font-size="10.00" fill="#000000">drake/automotive/test</text>
<text text-anchor="start" x="672" y="-18.5" font-family="Helvetica,sans-Serif" font-size="10.00" fill="#000000">/multilane_onramp_merge</text>
<text text-anchor="middle" x="737" y="-7.5" font-family="Helvetica,sans-Serif" font-size="10.00" fill="#000000">_test.cc</text>
</a>
</g>
</g>
<!-- Node143&#45;&gt;Node147 -->
<g id="edge28" class="edge">
<title>Node143&#45;&gt;Node147</title>
<path fill="none" stroke="#191970" d="M1105.2876,-81.7983C1098.7819,-80.4355 1092.2806,-79.1455 1086,-78 968.2029,-56.5145 936.5318,-64.8922 819,-42 816.1151,-41.4381 813.1805,-40.8358 810.2215,-40.2029"/>
<polygon fill="#191970" stroke="#191970" points="1104.9709,-85.3101 1115.4832,-83.9897 1106.4419,-78.4664 1104.9709,-85.3101"/>
</g>
</g>
</svg>
