<?xml version="1.0" encoding="UTF-8" standalone="no"?>
<!DOCTYPE svg PUBLIC "-//W3C//DTD SVG 1.1//EN"
 "http://www.w3.org/Graphics/SVG/1.1/DTD/svg11.dtd">
<!-- Generated by graphviz version 2.40.1 (20161225.0304)
 -->
<!-- Title: drake/systems/sensors/optitrack_sender.h Pages: 1 -->
<svg width="284pt" height="117pt"
 viewBox="0.00 0.00 284.00 117.00" xmlns="http://www.w3.org/2000/svg" xmlns:xlink="http://www.w3.org/1999/xlink">
<g id="graph0" class="graph" transform="scale(1 1) rotate(0) translate(4 113)">
<title>drake/systems/sensors/optitrack_sender.h</title>
<polygon fill="#ffffff" stroke="transparent" points="-4,4 -4,-113 280,-113 280,4 -4,4"/>
<!-- Node117 -->
<g id="node1" class="node">
<title>Node117</title>
<polygon fill="#bfbfbf" stroke="#000000" points="73,-78.5 73,-108.5 202,-108.5 202,-78.5 73,-78.5"/>
<text text-anchor="start" x="81" y="-96.5" font-family="Helvetica,sans-Serif" font-size="10.00" fill="#000000">drake/systems/sensors</text>
<text text-anchor="middle" x="137.5" y="-85.5" font-family="Helvetica,sans-Serif" font-size="10.00" fill="#000000">/optitrack_sender.h</text>
</g>
<!-- Node118 -->
<g id="node2" class="node">
<title>Node118</title>
<g id="a_node2"><a xlink:href="optitrack__sender_8cc.html" target="_top" xlink:title="drake/systems/sensors\l/optitrack_sender.cc">
<polygon fill="#ffffff" stroke="#000000" points="0,-6 0,-36 129,-36 129,-6 0,-6"/>
<text text-anchor="start" x="8" y="-24" font-family="Helvetica,sans-Serif" font-size="10.00" fill="#000000">drake/systems/sensors</text>
<text text-anchor="middle" x="64.5" y="-13" font-family="Helvetica,sans-Serif" font-size="10.00" fill="#000000">/optitrack_sender.cc</text>
</a>
</g>
</g>
<!-- Node117&#45;&gt;Node118 -->
<g id="edge1" class="edge">
<title>Node117&#45;&gt;Node118</title>
<path fill="none" stroke="#191970" d="M115.1784,-71.3313C103.6466,-59.8785 89.8792,-46.2054 79.6063,-36.0028"/>
<polygon fill="#191970" stroke="#191970" points="112.8126,-73.9146 122.3744,-78.478 117.7454,-68.9478 112.8126,-73.9146"/>
</g>
<!-- Node119 -->
<g id="node3" class="node">
<title>Node119</title>
<g id="a_node3"><a xlink:href="optitrack__sender__test_8cc.html" target="_top" xlink:title="drake/systems/sensors\l/test/optitrack_sender\l_test.cc">
<polygon fill="#ffffff" stroke="#000000" points="147,-.5 147,-41.5 276,-41.5 276,-.5 147,-.5"/>
<text text-anchor="start" x="155" y="-29.5" font-family="Helvetica,sans-Serif" font-size="10.00" fill="#000000">drake/systems/sensors</text>
<text text-anchor="start" x="155" y="-18.5" font-family="Helvetica,sans-Serif" font-size="10.00" fill="#000000">/test/optitrack_sender</text>
<text text-anchor="middle" x="211.5" y="-7.5" font-family="Helvetica,sans-Serif" font-size="10.00" fill="#000000">_test.cc</text>
</a>
</g>
</g>
<!-- Node117&#45;&gt;Node119 -->
<g id="edge2" class="edge">
<title>Node117&#45;&gt;Node119</title>
<path fill="none" stroke="#191970" d="M160.2009,-71.2593C169.8789,-61.7774 181.0995,-50.7843 190.5743,-41.5015"/>
<polygon fill="#191970" stroke="#191970" points="157.5266,-68.9795 152.8328,-78.478 162.4254,-73.9797 157.5266,-68.9795"/>
</g>
</g>
</svg>
