<?xml version="1.0" encoding="UTF-8" standalone="no"?>
<!DOCTYPE svg PUBLIC "-//W3C//DTD SVG 1.1//EN"
 "http://www.w3.org/Graphics/SVG/1.1/DTD/svg11.dtd">
<!-- Generated by graphviz version 2.40.1 (20161225.0304)
 -->
<!-- Title: drake/multibody/inverse_kinematics/orientation_constraint.h Pages: 1 -->
<svg width="522pt" height="128pt"
 viewBox="0.00 0.00 522.00 128.00" xmlns="http://www.w3.org/2000/svg" xmlns:xlink="http://www.w3.org/1999/xlink">
<g id="graph0" class="graph" transform="scale(1 1) rotate(0) translate(4 124)">
<title>drake/multibody/inverse_kinematics/orientation_constraint.h</title>
<polygon fill="#ffffff" stroke="transparent" points="-4,4 -4,-124 518,-124 518,4 -4,4"/>
<!-- Node199 -->
<g id="node1" class="node">
<title>Node199</title>
<polygon fill="#bfbfbf" stroke="#000000" points="206,-78.5 206,-119.5 342,-119.5 342,-78.5 206,-78.5"/>
<text text-anchor="start" x="214" y="-107.5" font-family="Helvetica,sans-Serif" font-size="10.00" fill="#000000">drake/multibody/inverse</text>
<text text-anchor="start" x="214" y="-96.5" font-family="Helvetica,sans-Serif" font-size="10.00" fill="#000000">_kinematics/orientation</text>
<text text-anchor="middle" x="274" y="-85.5" font-family="Helvetica,sans-Serif" font-size="10.00" fill="#000000">_constraint.h</text>
</g>
<!-- Node200 -->
<g id="node2" class="node">
<title>Node200</title>
<g id="a_node2"><a xlink:href="multibody_2inverse__kinematics_2inverse__kinematics_8cc.html" target="_top" xlink:title="drake/multibody/inverse\l_kinematics/inverse_kinematics.cc">
<polygon fill="#ffffff" stroke="#000000" points="0,-6 0,-36 188,-36 188,-6 0,-6"/>
<text text-anchor="start" x="8" y="-24" font-family="Helvetica,sans-Serif" font-size="10.00" fill="#000000">drake/multibody/inverse</text>
<text text-anchor="middle" x="94" y="-13" font-family="Helvetica,sans-Serif" font-size="10.00" fill="#000000">_kinematics/inverse_kinematics.cc</text>
</a>
</g>
</g>
<!-- Node199&#45;&gt;Node200 -->
<g id="edge1" class="edge">
<title>Node199&#45;&gt;Node200</title>
<path fill="none" stroke="#191970" d="M217.042,-74.3182C188.0952,-61.7746 153.8528,-46.9362 128.8508,-36.102"/>
<polygon fill="#191970" stroke="#191970" points="215.6687,-77.5375 226.2359,-78.3022 218.452,-71.1146 215.6687,-77.5375"/>
</g>
<!-- Node201 -->
<g id="node3" class="node">
<title>Node201</title>
<g id="a_node3"><a xlink:href="orientation__constraint_8cc.html" target="_top" xlink:title="drake/multibody/inverse\l_kinematics/orientation\l_constraint.cc">
<polygon fill="#ffffff" stroke="#000000" points="206,-.5 206,-41.5 342,-41.5 342,-.5 206,-.5"/>
<text text-anchor="start" x="214" y="-29.5" font-family="Helvetica,sans-Serif" font-size="10.00" fill="#000000">drake/multibody/inverse</text>
<text text-anchor="start" x="214" y="-18.5" font-family="Helvetica,sans-Serif" font-size="10.00" fill="#000000">_kinematics/orientation</text>
<text text-anchor="middle" x="274" y="-7.5" font-family="Helvetica,sans-Serif" font-size="10.00" fill="#000000">_constraint.cc</text>
</a>
</g>
</g>
<!-- Node199&#45;&gt;Node201 -->
<g id="edge2" class="edge">
<title>Node199&#45;&gt;Node201</title>
<path fill="none" stroke="#191970" d="M274,-68.0789C274,-59.2178 274,-49.7747 274,-41.6898"/>
<polygon fill="#191970" stroke="#191970" points="270.5001,-68.0974 274,-78.0974 277.5001,-68.0975 270.5001,-68.0974"/>
</g>
<!-- Node202 -->
<g id="node4" class="node">
<title>Node202</title>
<g id="a_node4"><a xlink:href="orientation__constraint__test_8cc.html" target="_top" xlink:title="drake/multibody/inverse\l_kinematics/test/orientation\l_constraint_test.cc">
<polygon fill="#ffffff" stroke="#000000" points="360,-.5 360,-41.5 514,-41.5 514,-.5 360,-.5"/>
<text text-anchor="start" x="368" y="-29.5" font-family="Helvetica,sans-Serif" font-size="10.00" fill="#000000">drake/multibody/inverse</text>
<text text-anchor="start" x="368" y="-18.5" font-family="Helvetica,sans-Serif" font-size="10.00" fill="#000000">_kinematics/test/orientation</text>
<text text-anchor="middle" x="437" y="-7.5" font-family="Helvetica,sans-Serif" font-size="10.00" fill="#000000">_constraint_test.cc</text>
</a>
</g>
</g>
<!-- Node199&#45;&gt;Node202 -->
<g id="edge3" class="edge">
<title>Node199&#45;&gt;Node202</title>
<path fill="none" stroke="#191970" d="M326.4069,-73.9218C348.277,-63.4564 373.3642,-51.4515 394.1104,-41.5239"/>
<polygon fill="#191970" stroke="#191970" points="324.7627,-70.8285 317.2531,-78.3022 327.7843,-77.1428 324.7627,-70.8285"/>
</g>
</g>
</svg>
