<?xml version="1.0" encoding="UTF-8" standalone="no"?>
<!DOCTYPE svg PUBLIC "-//W3C//DTD SVG 1.1//EN"
 "http://www.w3.org/Graphics/SVG/1.1/DTD/svg11.dtd">
<!-- Generated by graphviz version 2.40.1 (20161225.0304)
 -->
<!-- Title: drake/systems/framework/output_port_base.cc Pages: 1 -->
<!--zoomable 441 -->
<svg id="main" version="1.1" xmlns="http://www.w3.org/2000/svg" xmlns:xlink="http://www.w3.org/1999/xlink" xml:space="preserve" onload="init(evt)">
<style type="text/css"><![CDATA[
.edge:hover path { stroke: red; }
.edge:hover polygon { stroke: red; fill: red; }
]]></style>
<script type="text/javascript"><![CDATA[
var edges = document.getElementsByTagName('g');
if (edges && edges.length) {
  for (var i=0;i<edges.length;i++) {
    if (edges[i].id.substr(0,4)=='edge') {
      edges[i].setAttribute('class','edge');
    }
  }
}
]]></script>
        <defs>
                <circle id="rim" cx="0" cy="0" r="7"/>
                <circle id="rim2" cx="0" cy="0" r="3.5"/>
                <g id="zoomPlus">
                        <use xlink:href="#rim" fill="#404040">
                                <set attributeName="fill" to="#808080" begin="zoomplus.mouseover" end="zoomplus.mouseout"/>
                        </use>
                        <path d="M-4,0h8M0,-4v8" fill="none" stroke="white" stroke-width="1.5" pointer-events="none"/>
                </g>
                <g id="zoomMin">
                        <use xlink:href="#rim" fill="#404040">
                                <set attributeName="fill" to="#808080" begin="zoomminus.mouseover" end="zoomminus.mouseout"/>
                        </use>
                        <path d="M-4,0h8" fill="none" stroke="white" stroke-width="1.5" pointer-events="none"/>
                </g>
                <g id="dirArrow">
                        <path fill="none" stroke="white" stroke-width="1.5" d="M0,-3.0v7 M-2.5,-0.5L0,-3.0L2.5,-0.5"/>
                </g>
               <g id="resetDef">
                       <use xlink:href="#rim2" fill="#404040">
                               <set attributeName="fill" to="#808080" begin="reset.mouseover" end="reset.mouseout"/>
                       </use>
               </g>
        </defs>

<script type="text/javascript">
var viewWidth = 1000;
var viewHeight = 441;
var sectionId = 'dynsection-0';
</script>
<script xlink:href="svgpan.js"/>
<svg id="graph" class="graph">
<g id="viewport">
<title>drake/systems/framework/output_port_base.cc</title>
<polygon fill="#ffffff" stroke="transparent" points="-4,4 -4,-437 996,-437 996,4 -4,4"/>
<!-- Node0 -->
<g id="node1" class="node">
<title>Node0</title>
<polygon fill="#bfbfbf" stroke="#000000" points="406.5,-402.5 406.5,-432.5 551.5,-432.5 551.5,-402.5 406.5,-402.5"/>
<text text-anchor="start" x="414.5" y="-420.5" font-family="Helvetica,sans-Serif" font-size="10.00" fill="#000000">drake/systems/framework</text>
<text text-anchor="middle" x="479" y="-409.5" font-family="Helvetica,sans-Serif" font-size="10.00" fill="#000000">/output_port_base.cc</text>
</g>
<!-- Node1 -->
<g id="node2" class="node">
<title>Node1</title>
<g id="a_node2"><a xlink:href="output__port__base_8h.html" target="_top" xlink:title="drake/systems/framework\l/output_port_base.h">
<polygon fill="#ffffff" stroke="#000000" points="356.5,-335.5 356.5,-365.5 501.5,-365.5 501.5,-335.5 356.5,-335.5"/>
<text text-anchor="start" x="364.5" y="-353.5" font-family="Helvetica,sans-Serif" font-size="10.00" fill="#000000">drake/systems/framework</text>
<text text-anchor="middle" x="429" y="-342.5" font-family="Helvetica,sans-Serif" font-size="10.00" fill="#000000">/output_port_base.h</text>
</a>
</g>
</g>
<!-- Node0&#45;&gt;Node1 -->
<g id="edge1" class="edge">
<title>Node0&#45;&gt;Node1</title>
<path fill="none" stroke="#191970" d="M467.6542,-402.2967C461.3893,-393.9016 453.4741,-383.2952 446.4402,-373.8698"/>
<polygon fill="#191970" stroke="#191970" points="449.0868,-371.5642 440.3009,-365.6432 443.4767,-375.7508 449.0868,-371.5642"/>
</g>
<!-- Node3 -->
<g id="node4" class="node">
<title>Node3</title>
<g id="a_node4"><a xlink:href="framework__common_8h.html" target="_top" xlink:title="drake/systems/framework\l/framework_common.h">
<polygon fill="#ffffff" stroke="#000000" points="457.5,-268.5 457.5,-298.5 602.5,-298.5 602.5,-268.5 457.5,-268.5"/>
<text text-anchor="start" x="465.5" y="-286.5" font-family="Helvetica,sans-Serif" font-size="10.00" fill="#000000">drake/systems/framework</text>
<text text-anchor="middle" x="530" y="-275.5" font-family="Helvetica,sans-Serif" font-size="10.00" fill="#000000">/framework_common.h</text>
</a>
</g>
</g>
<!-- Node0&#45;&gt;Node3 -->
<g id="edge36" class="edge">
<title>Node0&#45;&gt;Node3</title>
<path fill="none" stroke="#191970" d="M489.79,-402.3721C496.441,-392.4388 504.6855,-378.9348 510,-366 517.6269,-347.437 522.7988,-325.2796 525.9695,-308.6038"/>
<polygon fill="#191970" stroke="#191970" points="529.4559,-308.9897 527.7697,-298.5299 522.5651,-307.7582 529.4559,-308.9897"/>
</g>
<!-- Node7 -->
<g id="node8" class="node">
<title>Node7</title>
<g id="a_node8"><a xlink:href="drake__assert_8h.html" target="_top" xlink:title="Provides Drake&#39;s assertion implementation. ">
<polygon fill="#ffffff" stroke="#000000" points="611.5,-67.5 611.5,-97.5 732.5,-97.5 732.5,-67.5 611.5,-67.5"/>
<text text-anchor="start" x="619.5" y="-85.5" font-family="Helvetica,sans-Serif" font-size="10.00" fill="#000000">drake/common/drake</text>
<text text-anchor="middle" x="672" y="-74.5" font-family="Helvetica,sans-Serif" font-size="10.00" fill="#000000">_assert.h</text>
</a>
</g>
</g>
<!-- Node0&#45;&gt;Node7 -->
<g id="edge35" class="edge">
<title>Node0&#45;&gt;Node7</title>
<path fill="none" stroke="#191970" d="M551.7953,-412.0497C631.4608,-401.651 748,-371.4148 748,-283.5 748,-283.5 748,-283.5 748,-216.5 748,-172.8187 717.0661,-130.3321 694.669,-105.2952"/>
<polygon fill="#191970" stroke="#191970" points="697.103,-102.7719 687.7472,-97.8 691.9605,-107.5211 697.103,-102.7719"/>
</g>
<!-- Node19 -->
<g id="node20" class="node">
<title>Node19</title>
<polygon fill="#ffffff" stroke="#bfbfbf" points="103.5,-6 103.5,-25 148.5,-25 148.5,-6 103.5,-6"/>
<text text-anchor="middle" x="126" y="-13" font-family="Helvetica,sans-Serif" font-size="10.00" fill="#000000">utility</text>
</g>
<!-- Node0&#45;&gt;Node19 -->
<g id="edge34" class="edge">
<title>Node0&#45;&gt;Node19</title>
<path fill="none" stroke="#191970" d="M406.2502,-412.2882C272.2514,-400.6762 0,-366.8301 0,-283.5 0,-283.5 0,-283.5 0,-149.5 0,-93.1256 59.9201,-50.7789 97.1178,-29.9219"/>
<polygon fill="#191970" stroke="#191970" points="98.9124,-32.9303 106.0349,-25.0869 95.5757,-26.7767 98.9124,-32.9303"/>
</g>
<!-- Node2 -->
<g id="node3" class="node">
<title>Node2</title>
<polygon fill="#ffffff" stroke="#bfbfbf" points="54,-73 54,-92 98,-92 98,-73 54,-73"/>
<text text-anchor="middle" x="76" y="-80" font-family="Helvetica,sans-Serif" font-size="10.00" fill="#000000">string</text>
</g>
<!-- Node1&#45;&gt;Node2 -->
<g id="edge2" class="edge">
<title>Node1&#45;&gt;Node2</title>
<path fill="none" stroke="#191970" d="M385.2452,-335.489C330.4474,-315.7487 234.6918,-278.1042 160,-232 120.2442,-207.4604 99.6585,-206.9039 79,-165 69.2783,-145.2805 70.1302,-119.5713 72.3746,-102.1309"/>
<polygon fill="#191970" stroke="#191970" points="75.8702,-102.4303 73.9535,-92.0103 68.9538,-101.3512 75.8702,-102.4303"/>
</g>
<!-- Node1&#45;&gt;Node3 -->
<g id="edge3" class="edge">
<title>Node1&#45;&gt;Node3</title>
<path fill="none" stroke="#191970" d="M451.6664,-335.4639C465.474,-326.3044 483.3189,-314.4667 498.4882,-304.4038"/>
<polygon fill="#191970" stroke="#191970" points="500.6614,-307.1623 507.0598,-298.7177 496.7918,-301.3291 500.6614,-307.1623"/>
</g>
<!-- Node3&#45;&gt;Node2 -->
<g id="edge6" class="edge">
<title>Node3&#45;&gt;Node2</title>
<path fill="none" stroke="#191970" d="M457.325,-272.6254C347.9069,-254.799 148.3756,-216.1645 99,-165 82.7537,-148.1651 77.7896,-120.8591 76.3763,-102.3131"/>
<polygon fill="#191970" stroke="#191970" points="79.8602,-101.8908 75.8861,-92.0696 72.8682,-102.2255 79.8602,-101.8908"/>
</g>
<!-- Node4 -->
<g id="node5" class="node">
<title>Node4</title>
<polygon fill="#ffffff" stroke="#bfbfbf" points="498,-207 498,-226 562,-226 562,-207 498,-207"/>
<text text-anchor="middle" x="530" y="-214" font-family="Helvetica,sans-Serif" font-size="10.00" fill="#000000">algorithm</text>
</g>
<!-- Node3&#45;&gt;Node4 -->
<g id="edge4" class="edge">
<title>Node3&#45;&gt;Node4</title>
<path fill="none" stroke="#191970" d="M530,-268.2967C530,-258.7699 530,-246.3954 530,-236.1306"/>
<polygon fill="#191970" stroke="#191970" points="533.5001,-236.0549 530,-226.055 526.5001,-236.055 533.5001,-236.0549"/>
</g>
<!-- Node5 -->
<g id="node6" class="node">
<title>Node5</title>
<polygon fill="#ffffff" stroke="#bfbfbf" points="369,-73 369,-92 427,-92 427,-73 369,-73"/>
<text text-anchor="middle" x="398" y="-80" font-family="Helvetica,sans-Serif" font-size="10.00" fill="#000000">memory</text>
</g>
<!-- Node3&#45;&gt;Node5 -->
<g id="edge5" class="edge">
<title>Node3&#45;&gt;Node5</title>
<path fill="none" stroke="#191970" d="M457.3768,-274.3187C406.5118,-266.2236 344.9019,-252.4899 329,-232 302.2958,-197.5911 309.4761,-172.9346 329,-134 337.0248,-117.9968 352.6431,-105.6956 366.9934,-97.135"/>
<polygon fill="#191970" stroke="#191970" points="369.1066,-99.9649 376.1479,-92.0484 365.7067,-93.846 369.1066,-99.9649"/>
</g>
<!-- Node6 -->
<g id="node7" class="node">
<title>Node6</title>
<polygon fill="#ffffff" stroke="#bfbfbf" points="457.5,-73 457.5,-92 504.5,-92 504.5,-73 457.5,-73"/>
<text text-anchor="middle" x="481" y="-80" font-family="Helvetica,sans-Serif" font-size="10.00" fill="#000000">vector</text>
</g>
<!-- Node3&#45;&gt;Node6 -->
<g id="edge7" class="edge">
<title>Node3&#45;&gt;Node6</title>
<path fill="none" stroke="#191970" d="M546.7221,-268.3799C563.0884,-251.668 583.829,-224.0622 571,-201 556.2511,-174.4865 532.3744,-188.3479 513,-165 497.7265,-146.5941 489.1951,-120.0627 484.8542,-102.0964"/>
<polygon fill="#191970" stroke="#191970" points="488.2365,-101.1806 482.6701,-92.1658 481.3999,-102.6842 488.2365,-101.1806"/>
</g>
<!-- Node3&#45;&gt;Node7 -->
<g id="edge8" class="edge">
<title>Node3&#45;&gt;Node7</title>
<path fill="none" stroke="#191970" d="M561.6399,-268.4466C596.792,-249.7499 651.6666,-214.2034 675,-165 683.4931,-147.0905 681.9344,-124.4545 678.7056,-107.4253"/>
<polygon fill="#191970" stroke="#191970" points="682.1198,-106.6545 676.5544,-97.6392 675.2831,-108.1575 682.1198,-106.6545"/>
</g>
<!-- Node9 -->
<g id="node10" class="node">
<title>Node9</title>
<g id="a_node10"><a xlink:href="drake__optional_8h.html" target="_top" xlink:title="Provides drake::optional as an alias for the appropriate implementation of std::optional or std::expe...">
<polygon fill="#ffffff" stroke="#000000" points="795.5,-134.5 795.5,-164.5 916.5,-164.5 916.5,-134.5 795.5,-134.5"/>
<text text-anchor="start" x="803.5" y="-152.5" font-family="Helvetica,sans-Serif" font-size="10.00" fill="#000000">drake/common/drake</text>
<text text-anchor="middle" x="856" y="-141.5" font-family="Helvetica,sans-Serif" font-size="10.00" fill="#000000">_optional.h</text>
</a>
</g>
</g>
<!-- Node3&#45;&gt;Node9 -->
<g id="edge10" class="edge">
<title>Node3&#45;&gt;Node9</title>
<path fill="none" stroke="#191970" d="M602.6739,-269.6307C639.8574,-261.1926 685.3135,-248.7702 724,-232 762.0933,-215.487 802.0051,-189.0811 827.8334,-170.6036"/>
<polygon fill="#191970" stroke="#191970" points="829.984,-173.3676 836.0297,-164.667 825.8778,-167.6985 829.984,-173.3676"/>
</g>
<!-- Node12 -->
<g id="node13" class="node">
<title>Node12</title>
<g id="a_node13"><a xlink:href="drake__variant_8h.html" target="_top" xlink:title="Provides drake::variant as an alias for the appropriate implementation of std::variant or or stx::var...">
<polygon fill="#ffffff" stroke="#000000" points="814.5,-201.5 814.5,-231.5 935.5,-231.5 935.5,-201.5 814.5,-201.5"/>
<text text-anchor="start" x="822.5" y="-219.5" font-family="Helvetica,sans-Serif" font-size="10.00" fill="#000000">drake/common/drake</text>
<text text-anchor="middle" x="875" y="-208.5" font-family="Helvetica,sans-Serif" font-size="10.00" fill="#000000">_variant.h</text>
</a>
</g>
</g>
<!-- Node3&#45;&gt;Node12 -->
<g id="edge13" class="edge">
<title>Node3&#45;&gt;Node12</title>
<path fill="none" stroke="#191970" d="M602.5411,-269.9753C656.932,-259.7589 733.1857,-245.2754 800,-232 801.4671,-231.7085 802.9501,-231.4127 804.4448,-231.1135"/>
<polygon fill="#191970" stroke="#191970" points="805.3228,-234.507 814.434,-229.0999 803.9395,-227.645 805.3228,-234.507"/>
</g>
<!-- Node13 -->
<g id="node14" class="node">
<title>Node13</title>
<g id="a_node14"><a xlink:href="type__safe__index_8h.html" target="_top" xlink:title="drake/common/type_safe\l_index.h">
<polygon fill="#ffffff" stroke="#000000" points="338.5,-201.5 338.5,-231.5 479.5,-231.5 479.5,-201.5 338.5,-201.5"/>
<text text-anchor="start" x="346.5" y="-219.5" font-family="Helvetica,sans-Serif" font-size="10.00" fill="#000000">drake/common/type_safe</text>
<text text-anchor="middle" x="409" y="-208.5" font-family="Helvetica,sans-Serif" font-size="10.00" fill="#000000">_index.h</text>
</a>
</g>
</g>
<!-- Node3&#45;&gt;Node13 -->
<g id="edge15" class="edge">
<title>Node3&#45;&gt;Node13</title>
<path fill="none" stroke="#191970" d="M502.8452,-268.4639C485.9169,-259.0903 463.9233,-246.9121 445.4832,-236.7015"/>
<polygon fill="#191970" stroke="#191970" points="446.9266,-233.5 436.4828,-231.7177 443.5357,-239.6239 446.9266,-233.5"/>
</g>
<!-- Node8 -->
<g id="node9" class="node">
<title>Node8</title>
<polygon fill="#ffffff" stroke="#bfbfbf" points="548.5,-6 548.5,-25 617.5,-25 617.5,-6 548.5,-6"/>
<text text-anchor="middle" x="583" y="-13" font-family="Helvetica,sans-Serif" font-size="10.00" fill="#000000">type_traits</text>
</g>
<!-- Node7&#45;&gt;Node8 -->
<g id="edge9" class="edge">
<title>Node7&#45;&gt;Node8</title>
<path fill="none" stroke="#191970" d="M651.8045,-67.2967C637.534,-56.5537 618.4532,-42.1895 604.0052,-31.3129"/>
<polygon fill="#191970" stroke="#191970" points="605.7867,-28.2731 595.6924,-25.055 601.5766,-33.8656 605.7867,-28.2731"/>
</g>
<!-- Node10 -->
<g id="node11" class="node">
<title>Node10</title>
<polygon fill="#ffffff" stroke="#bfbfbf" points="902,-73 902,-92 992,-92 992,-73 902,-73"/>
<text text-anchor="middle" x="947" y="-80" font-family="Helvetica,sans-Serif" font-size="10.00" fill="#000000">stx/variant.hpp</text>
</g>
<!-- Node9&#45;&gt;Node10 -->
<g id="edge11" class="edge">
<title>Node9&#45;&gt;Node10</title>
<path fill="none" stroke="#191970" d="M876.6493,-134.2967C891.3781,-123.4524 911.1186,-108.9182 925.9396,-98.006"/>
<polygon fill="#191970" stroke="#191970" points="928.0447,-100.8025 934.0224,-92.055 923.8944,-95.1655 928.0447,-100.8025"/>
</g>
<!-- Node11 -->
<g id="node12" class="node">
<title>Node11</title>
<polygon fill="#ffffff" stroke="#bfbfbf" points="788.5,-73 788.5,-92 883.5,-92 883.5,-73 788.5,-73"/>
<text text-anchor="middle" x="836" y="-80" font-family="Helvetica,sans-Serif" font-size="10.00" fill="#000000">stx/optional.hpp</text>
</g>
<!-- Node9&#45;&gt;Node11 -->
<g id="edge12" class="edge">
<title>Node9&#45;&gt;Node11</title>
<path fill="none" stroke="#191970" d="M851.4617,-134.2967C848.5876,-124.6685 844.8453,-112.1318 841.7623,-101.8038"/>
<polygon fill="#191970" stroke="#191970" points="845.0664,-100.636 838.8522,-92.055 838.3589,-102.6383 845.0664,-100.636"/>
</g>
<!-- Node12&#45;&gt;Node9 -->
<g id="edge14" class="edge">
<title>Node12&#45;&gt;Node9</title>
<path fill="none" stroke="#191970" d="M870.6886,-201.2967C868.4294,-193.3299 865.6054,-183.3718 863.0389,-174.3213"/>
<polygon fill="#191970" stroke="#191970" points="866.3899,-173.3089 860.2943,-164.6432 859.6554,-175.2187 866.3899,-173.3089"/>
</g>
<!-- Node13&#45;&gt;Node2 -->
<g id="edge18" class="edge">
<title>Node13&#45;&gt;Node2</title>
<path fill="none" stroke="#191970" d="M338.415,-209.4952C268.1658,-201.4459 166.1772,-186.5162 133,-165 109.352,-149.6638 92.8172,-120.7283 83.8569,-101.5288"/>
<polygon fill="#191970" stroke="#191970" points="87.0035,-99.99 79.7624,-92.2559 80.6,-102.8176 87.0035,-99.99"/>
</g>
<!-- Node13&#45;&gt;Node7 -->
<g id="edge19" class="edge">
<title>Node13&#45;&gt;Node7</title>
<path fill="none" stroke="#191970" d="M479.6885,-202.4553C550.295,-188.2876 648.8343,-168.0753 652,-165 667.1993,-150.2351 671.6343,-126.0312 672.6019,-107.6486"/>
<polygon fill="#191970" stroke="#191970" points="676.1017,-107.6889 672.826,-97.6132 669.1035,-107.5325 676.1017,-107.6889"/>
</g>
<!-- Node14 -->
<g id="node15" class="node">
<title>Node14</title>
<polygon fill="#ffffff" stroke="#bfbfbf" points="400.5,-140 400.5,-159 465.5,-159 465.5,-140 400.5,-140"/>
<text text-anchor="middle" x="433" y="-147" font-family="Helvetica,sans-Serif" font-size="10.00" fill="#000000">functional</text>
</g>
<!-- Node13&#45;&gt;Node14 -->
<g id="edge16" class="edge">
<title>Node13&#45;&gt;Node14</title>
<path fill="none" stroke="#191970" d="M414.446,-201.2967C417.9312,-191.5672 422.4803,-178.8675 426.2018,-168.4784"/>
<polygon fill="#191970" stroke="#191970" points="429.5,-169.6495 429.5773,-159.055 422.91,-167.2889 429.5,-169.6495"/>
</g>
<!-- Node15 -->
<g id="node16" class="node">
<title>Node15</title>
<polygon fill="#ffffff" stroke="#bfbfbf" points="338,-140 338,-159 382,-159 382,-140 338,-140"/>
<text text-anchor="middle" x="360" y="-147" font-family="Helvetica,sans-Serif" font-size="10.00" fill="#000000">limits</text>
</g>
<!-- Node13&#45;&gt;Node15 -->
<g id="edge17" class="edge">
<title>Node13&#45;&gt;Node15</title>
<path fill="none" stroke="#191970" d="M397.8811,-201.2967C390.4691,-191.1618 380.7,-177.804 372.939,-167.1921"/>
<polygon fill="#191970" stroke="#191970" points="375.7163,-165.0606 366.988,-159.055 370.0661,-169.1928 375.7163,-165.0606"/>
</g>
<!-- Node16 -->
<g id="node17" class="node">
<title>Node16</title>
<g id="a_node17"><a xlink:href="drake__throw_8h.html" target="_top" xlink:title="Provides a convenient wrapper to throw an exception when a condition is unmet. ">
<polygon fill="#ffffff" stroke="#000000" points="522.5,-134.5 522.5,-164.5 643.5,-164.5 643.5,-134.5 522.5,-134.5"/>
<text text-anchor="start" x="530.5" y="-152.5" font-family="Helvetica,sans-Serif" font-size="10.00" fill="#000000">drake/common/drake</text>
<text text-anchor="middle" x="583" y="-141.5" font-family="Helvetica,sans-Serif" font-size="10.00" fill="#000000">_throw.h</text>
</a>
</g>
</g>
<!-- Node13&#45;&gt;Node16 -->
<g id="edge20" class="edge">
<title>Node13&#45;&gt;Node16</title>
<path fill="none" stroke="#191970" d="M448.049,-201.4639C473.5934,-191.6278 507.1584,-178.7034 534.4231,-168.2049"/>
<polygon fill="#191970" stroke="#191970" points="535.7063,-171.4614 543.7807,-164.6017 533.1909,-164.9289 535.7063,-171.4614"/>
</g>
<!-- Node17 -->
<g id="node18" class="node">
<title>Node17</title>
<g id="a_node18"><a xlink:href="nice__type__name_8h.html" target="_top" xlink:title="drake/common/nice_type\l_name.h">
<polygon fill="#ffffff" stroke="#000000" points="142,-134.5 142,-164.5 282,-164.5 282,-134.5 142,-134.5"/>
<text text-anchor="start" x="150" y="-152.5" font-family="Helvetica,sans-Serif" font-size="10.00" fill="#000000">drake/common/nice_type</text>
<text text-anchor="middle" x="212" y="-141.5" font-family="Helvetica,sans-Serif" font-size="10.00" fill="#000000">_name.h</text>
</a>
</g>
</g>
<!-- Node13&#45;&gt;Node17 -->
<g id="edge23" class="edge">
<title>Node13&#45;&gt;Node17</title>
<path fill="none" stroke="#191970" d="M364.7894,-201.4639C335.6158,-191.5419 297.2022,-178.4774 266.1909,-167.9304"/>
<polygon fill="#191970" stroke="#191970" points="266.9979,-164.508 256.4035,-164.6017 264.7439,-171.1352 266.9979,-164.508"/>
</g>
<!-- Node16&#45;&gt;Node7 -->
<g id="edge22" class="edge">
<title>Node16&#45;&gt;Node7</title>
<path fill="none" stroke="#191970" d="M603.1955,-134.2967C615.1436,-125.302 630.4639,-113.7687 643.6138,-103.8694"/>
<polygon fill="#191970" stroke="#191970" points="646.0002,-106.4538 651.8844,-97.6432 641.7902,-100.8613 646.0002,-106.4538"/>
</g>
<!-- Node16&#45;&gt;Node8 -->
<g id="edge21" class="edge">
<title>Node16&#45;&gt;Node8</title>
<path fill="none" stroke="#191970" d="M583,-134.389C583,-110.0735 583,-62.2644 583,-35.2698"/>
<polygon fill="#191970" stroke="#191970" points="586.5001,-35.1041 583,-25.1042 579.5001,-35.1042 586.5001,-35.1041"/>
</g>
<!-- Node17&#45;&gt;Node2 -->
<g id="edge25" class="edge">
<title>Node17&#45;&gt;Node2</title>
<path fill="none" stroke="#191970" d="M181.4789,-134.4639C158.4543,-123.1209 127.0928,-107.6707 104.5606,-96.5703"/>
<polygon fill="#191970" stroke="#191970" points="106.0118,-93.3836 95.4945,-92.1039 102.9183,-99.6629 106.0118,-93.3836"/>
</g>
<!-- Node17&#45;&gt;Node5 -->
<g id="edge24" class="edge">
<title>Node17&#45;&gt;Node5</title>
<path fill="none" stroke="#191970" d="M256.5579,-134.4251C285.7942,-124.4023 324.8036,-110.7794 359,-98 360.8939,-97.2922 362.8355,-96.5558 364.7922,-95.8052"/>
<polygon fill="#191970" stroke="#191970" points="366.5042,-98.8944 374.5503,-92.0015 363.9619,-92.3723 366.5042,-98.8944"/>
</g>
<!-- Node17&#45;&gt;Node6 -->
<g id="edge28" class="edge">
<title>Node17&#45;&gt;Node6</title>
<path fill="none" stroke="#191970" d="M282.1058,-135.3748C326.511,-125.9379 384.9784,-112.608 436,-98 439.8229,-96.9055 443.7988,-95.6747 447.7351,-94.3975"/>
<polygon fill="#191970" stroke="#191970" points="448.961,-97.678 457.3282,-91.1787 446.7342,-91.0417 448.961,-97.678"/>
</g>
<!-- Node18 -->
<g id="node19" class="node">
<title>Node18</title>
<polygon fill="#ffffff" stroke="#bfbfbf" points="154.5,-73 154.5,-92 211.5,-92 211.5,-73 154.5,-73"/>
<text text-anchor="middle" x="183" y="-80" font-family="Helvetica,sans-Serif" font-size="10.00" fill="#000000">typeinfo</text>
</g>
<!-- Node17&#45;&gt;Node18 -->
<g id="edge26" class="edge">
<title>Node17&#45;&gt;Node18</title>
<path fill="none" stroke="#191970" d="M205.4195,-134.2967C201.2082,-124.5672 195.7113,-111.8675 191.2145,-101.4784"/>
<polygon fill="#191970" stroke="#191970" points="194.3201,-99.8419 187.1357,-92.055 187.896,-102.6225 194.3201,-99.8419"/>
</g>
<!-- Node17&#45;&gt;Node19 -->
<g id="edge27" class="edge">
<title>Node17&#45;&gt;Node19</title>
<path fill="none" stroke="#191970" d="M184.0966,-134.3197C170.3424,-125.4625 154.6725,-113.0603 145,-98 132.758,-78.939 128.3698,-52.9251 126.8159,-35.2398"/>
<polygon fill="#191970" stroke="#191970" points="130.3052,-34.9594 126.1598,-25.2092 123.3201,-35.4164 130.3052,-34.9594"/>
</g>
<!-- Node20 -->
<g id="node21" class="node">
<title>Node20</title>
<g id="a_node21"><a xlink:href="never__destroyed_8h.html" target="_top" xlink:title="drake/common/never\l_destroyed.h">
<polygon fill="#ffffff" stroke="#000000" points="229.5,-67.5 229.5,-97.5 350.5,-97.5 350.5,-67.5 229.5,-67.5"/>
<text text-anchor="start" x="237.5" y="-85.5" font-family="Helvetica,sans-Serif" font-size="10.00" fill="#000000">drake/common/never</text>
<text text-anchor="middle" x="290" y="-74.5" font-family="Helvetica,sans-Serif" font-size="10.00" fill="#000000">_destroyed.h</text>
</a>
</g>
</g>
<!-- Node17&#45;&gt;Node20 -->
<g id="edge29" class="edge">
<title>Node17&#45;&gt;Node20</title>
<path fill="none" stroke="#191970" d="M229.6994,-134.2967C239.9714,-125.4733 253.0872,-114.2072 264.4616,-104.4368"/>
<polygon fill="#191970" stroke="#191970" points="267.0655,-106.8141 272.3706,-97.6432 262.5043,-101.5041 267.0655,-106.8141"/>
</g>
<!-- Node20&#45;&gt;Node8 -->
<g id="edge31" class="edge">
<title>Node20&#45;&gt;Node8</title>
<path fill="none" stroke="#191970" d="M350.7098,-68.6176C406.6933,-55.8159 488.4838,-37.1129 538.5897,-25.6552"/>
<polygon fill="#191970" stroke="#191970" points="539.5075,-29.0358 548.4757,-23.3946 537.9471,-22.2119 539.5075,-29.0358"/>
</g>
<!-- Node20&#45;&gt;Node19 -->
<g id="edge32" class="edge">
<title>Node20&#45;&gt;Node19</title>
<path fill="none" stroke="#191970" d="M253.1952,-67.4639C224.598,-55.7809 185.3356,-39.7408 158.0266,-28.584"/>
<polygon fill="#191970" stroke="#191970" points="159.1291,-25.2537 148.5481,-24.7117 156.4817,-31.7338 159.1291,-25.2537"/>
</g>
<!-- Node21 -->
<g id="node22" class="node">
<title>Node21</title>
<polygon fill="#ffffff" stroke="#bfbfbf" points="337.5,-6 337.5,-25 374.5,-25 374.5,-6 337.5,-6"/>
<text text-anchor="middle" x="356" y="-13" font-family="Helvetica,sans-Serif" font-size="10.00" fill="#000000">new</text>
</g>
<!-- Node20&#45;&gt;Node21 -->
<g id="edge30" class="edge">
<title>Node20&#45;&gt;Node21</title>
<path fill="none" stroke="#191970" d="M304.9764,-67.2967C315.2595,-56.8578 328.9108,-42.9997 339.5053,-32.2446"/>
<polygon fill="#191970" stroke="#191970" points="342.0633,-34.6352 346.5876,-25.055 337.0765,-29.7228 342.0633,-34.6352"/>
</g>
<!-- Node22 -->
<g id="node23" class="node">
<title>Node22</title>
<g id="a_node23"><a xlink:href="drake__copyable_8h.html" target="_top" xlink:title="Provides careful macros to selectively enable or disable the special member functions for copy&#45;constr...">
<polygon fill="#ffffff" stroke="#000000" points="198.5,-.5 198.5,-30.5 319.5,-30.5 319.5,-.5 198.5,-.5"/>
<text text-anchor="start" x="206.5" y="-18.5" font-family="Helvetica,sans-Serif" font-size="10.00" fill="#000000">drake/common/drake</text>
<text text-anchor="middle" x="259" y="-7.5" font-family="Helvetica,sans-Serif" font-size="10.00" fill="#000000">_copyable.h</text>
</a>
</g>
</g>
<!-- Node20&#45;&gt;Node22 -->
<g id="edge33" class="edge">
<title>Node20&#45;&gt;Node22</title>
<path fill="none" stroke="#191970" d="M282.9656,-67.2967C279.2003,-59.1586 274.4734,-48.9425 270.2149,-39.7386"/>
<polygon fill="#191970" stroke="#191970" points="273.3822,-38.2491 266.0065,-30.6432 267.0293,-41.1885 273.3822,-38.2491"/>
</g>
</g>
</svg>
        <g id="navigator" transform="translate(0 0)" fill="#404254">
                <rect fill="#f2f5e9" fill-opacity="0.5" stroke="#606060" stroke-width=".5" x="0" y="0" width="60" height="60"/>
                <use id="zoomplus" xlink:href="#zoomPlus" x="17" y="9" onmousedown="handleZoom(evt,'in')"/>
                <use id="zoomminus" xlink:href="#zoomMin" x="42" y="9" onmousedown="handleZoom(evt,'out')"/>
                <use id="reset" xlink:href="#resetDef" x="30" y="36" onmousedown="handleReset()"/>
                <g id="arrowUp" xlink:href="#dirArrow" transform="translate(30 24)" onmousedown="handlePan(0,-1)">
                  <use xlink:href="#rim" fill="#404040">
                        <set attributeName="fill" to="#808080" begin="arrowUp.mouseover" end="arrowUp.mouseout"/>
                  </use>
                  <path fill="none" stroke="white" stroke-width="1.5" d="M0,-3.0v7 M-2.5,-0.5L0,-3.0L2.5,-0.5"/>
                </g>
                <g id="arrowRight" xlink:href="#dirArrow" transform="rotate(90) translate(36 -43)" onmousedown="handlePan(1,0)">
                  <use xlink:href="#rim" fill="#404040">
                        <set attributeName="fill" to="#808080" begin="arrowRight.mouseover" end="arrowRight.mouseout"/>
                  </use>
                  <path fill="none" stroke="white" stroke-width="1.5" d="M0,-3.0v7 M-2.5,-0.5L0,-3.0L2.5,-0.5"/>
                </g>
                <g id="arrowDown" xlink:href="#dirArrow" transform="rotate(180) translate(-30 -48)" onmousedown="handlePan(0,1)">
                  <use xlink:href="#rim" fill="#404040">
                        <set attributeName="fill" to="#808080" begin="arrowDown.mouseover" end="arrowDown.mouseout"/>
                  </use>
                  <path fill="none" stroke="white" stroke-width="1.5" d="M0,-3.0v7 M-2.5,-0.5L0,-3.0L2.5,-0.5"/>
                </g>
                <g id="arrowLeft" xlink:href="#dirArrow" transform="rotate(270) translate(-36 17)" onmousedown="handlePan(-1,0)">
                  <use xlink:href="#rim" fill="#404040">
                        <set attributeName="fill" to="#808080" begin="arrowLeft.mouseover" end="arrowLeft.mouseout"/>
                  </use>
                  <path fill="none" stroke="white" stroke-width="1.5" d="M0,-3.0v7 M-2.5,-0.5L0,-3.0L2.5,-0.5"/>
                </g>
        </g>
        <svg viewBox="0 0 15 15" width="100%" height="30px" preserveAspectRatio="xMaxYMin meet">
         <g id="arrow_out" transform="scale(0.3 0.3)">
          <a xlink:href="output__port__base_8cc__incl_org.svg" target="_base">
           <rect id="button" ry="5" rx="5" y="6" x="6" height="38" width="38"
                fill="#f2f5e9" fill-opacity="0.5" stroke="#606060" stroke-width="1.0"/>
           <path id="arrow"
             d="M 11.500037,31.436501 C 11.940474,20.09759 22.043105,11.32322 32.158766,21.979434 L 37.068811,17.246167 C 37.068811,17.246167 37.088388,32 37.088388,32 L 22.160133,31.978069 C 22.160133,31.978069 26.997745,27.140456 26.997745,27.140456 C 18.528582,18.264221 13.291696,25.230495 11.500037,31.436501 z"
             style="fill:#404040;"/>
          </a>
         </g>
        </svg>
</svg>
