<?xml version="1.0" encoding="UTF-8" standalone="no"?>
<!DOCTYPE svg PUBLIC "-//W3C//DTD SVG 1.1//EN"
 "http://www.w3.org/Graphics/SVG/1.1/DTD/svg11.dtd">
<!-- Generated by graphviz version 2.40.1 (20161225.0304)
 -->
<!-- Title: drake/systems/framework/test_utilities/pack_value.h Pages: 1 -->
<!--zoomable 117 -->
<svg id="main" version="1.1" xmlns="http://www.w3.org/2000/svg" xmlns:xlink="http://www.w3.org/1999/xlink" xml:space="preserve" onload="init(evt)">
<style type="text/css"><![CDATA[
.edge:hover path { stroke: red; }
.edge:hover polygon { stroke: red; fill: red; }
]]></style>
<script type="text/javascript"><![CDATA[
var edges = document.getElementsByTagName('g');
if (edges && edges.length) {
  for (var i=0;i<edges.length;i++) {
    if (edges[i].id.substr(0,4)=='edge') {
      edges[i].setAttribute('class','edge');
    }
  }
}
]]></script>
        <defs>
                <circle id="rim" cx="0" cy="0" r="7"/>
                <circle id="rim2" cx="0" cy="0" r="3.5"/>
                <g id="zoomPlus">
                        <use xlink:href="#rim" fill="#404040">
                                <set attributeName="fill" to="#808080" begin="zoomplus.mouseover" end="zoomplus.mouseout"/>
                        </use>
                        <path d="M-4,0h8M0,-4v8" fill="none" stroke="white" stroke-width="1.5" pointer-events="none"/>
                </g>
                <g id="zoomMin">
                        <use xlink:href="#rim" fill="#404040">
                                <set attributeName="fill" to="#808080" begin="zoomminus.mouseover" end="zoomminus.mouseout"/>
                        </use>
                        <path d="M-4,0h8" fill="none" stroke="white" stroke-width="1.5" pointer-events="none"/>
                </g>
                <g id="dirArrow">
                        <path fill="none" stroke="white" stroke-width="1.5" d="M0,-3.0v7 M-2.5,-0.5L0,-3.0L2.5,-0.5"/>
                </g>
               <g id="resetDef">
                       <use xlink:href="#rim2" fill="#404040">
                               <set attributeName="fill" to="#808080" begin="reset.mouseover" end="reset.mouseout"/>
                       </use>
               </g>
        </defs>

<script type="text/javascript">
var viewWidth = 1294;
var viewHeight = 117;
var sectionId = 'dynsection-1';
</script>
<script xlink:href="svgpan.js"/>
<svg id="graph" class="graph">
<g id="viewport">
<title>drake/systems/framework/test_utilities/pack_value.h</title>
<polygon fill="#ffffff" stroke="transparent" points="-4,4 -4,-113 1290,-113 1290,4 -4,4"/>
<!-- Node18 -->
<g id="node1" class="node">
<title>Node18</title>
<polygon fill="#bfbfbf" stroke="#000000" points="568.5,-78.5 568.5,-108.5 716.5,-108.5 716.5,-78.5 568.5,-78.5"/>
<text text-anchor="start" x="576.5" y="-96.5" font-family="Helvetica,sans-Serif" font-size="10.00" fill="#000000">drake/systems/framework</text>
<text text-anchor="middle" x="642.5" y="-85.5" font-family="Helvetica,sans-Serif" font-size="10.00" fill="#000000">/test_utilities/pack_value.h</text>
</g>
<!-- Node19 -->
<g id="node2" class="node">
<title>Node19</title>
<g id="a_node2"><a xlink:href="abstract__values__test_8cc.html" target="_top" xlink:title="drake/systems/framework\l/test/abstract_values\l_test.cc">
<polygon fill="#ffffff" stroke="#000000" points="0,-.5 0,-41.5 145,-41.5 145,-.5 0,-.5"/>
<text text-anchor="start" x="8" y="-29.5" font-family="Helvetica,sans-Serif" font-size="10.00" fill="#000000">drake/systems/framework</text>
<text text-anchor="start" x="8" y="-18.5" font-family="Helvetica,sans-Serif" font-size="10.00" fill="#000000">/test/abstract_values</text>
<text text-anchor="middle" x="72.5" y="-7.5" font-family="Helvetica,sans-Serif" font-size="10.00" fill="#000000">_test.cc</text>
</a>
</g>
</g>
<!-- Node18&#45;&gt;Node19 -->
<g id="edge1" class="edge">
<title>Node18&#45;&gt;Node19</title>
<path fill="none" stroke="#191970" d="M558.1501,-88.4423C460.2586,-81.6905 294.2533,-67.5113 153.5,-42 150.784,-41.5077 148.025,-40.9729 145.2444,-40.4044"/>
<polygon fill="#191970" stroke="#191970" points="558.0685,-91.9448 568.283,-89.1314 558.5435,-84.9609 558.0685,-91.9448"/>
</g>
<!-- Node20 -->
<g id="node3" class="node">
<title>Node20</title>
<g id="a_node3"><a xlink:href="cache__entry__test_8cc.html" target="_top" xlink:title="drake/systems/framework\l/test/cache_entry_test.cc">
<polygon fill="#ffffff" stroke="#000000" points="163,-6 163,-36 308,-36 308,-6 163,-6"/>
<text text-anchor="start" x="171" y="-24" font-family="Helvetica,sans-Serif" font-size="10.00" fill="#000000">drake/systems/framework</text>
<text text-anchor="middle" x="235.5" y="-13" font-family="Helvetica,sans-Serif" font-size="10.00" fill="#000000">/test/cache_entry_test.cc</text>
</a>
</g>
</g>
<!-- Node18&#45;&gt;Node20 -->
<g id="edge2" class="edge">
<title>Node18&#45;&gt;Node20</title>
<path fill="none" stroke="#191970" d="M558.3809,-82.4975C492.3088,-73.3055 398.1379,-58.9893 316.5,-42 308.1086,-40.2537 299.2827,-38.1969 290.6684,-36.0655"/>
<polygon fill="#191970" stroke="#191970" points="557.9437,-85.9703 568.3287,-83.8723 558.902,-79.0362 557.9437,-85.9703"/>
</g>
<!-- Node21 -->
<g id="node4" class="node">
<title>Node21</title>
<g id="a_node4"><a xlink:href="cache__test_8cc.html" target="_top" xlink:title="drake/systems/framework\l/test/cache_test.cc">
<polygon fill="#ffffff" stroke="#000000" points="326,-6 326,-36 471,-36 471,-6 326,-6"/>
<text text-anchor="start" x="334" y="-24" font-family="Helvetica,sans-Serif" font-size="10.00" fill="#000000">drake/systems/framework</text>
<text text-anchor="middle" x="398.5" y="-13" font-family="Helvetica,sans-Serif" font-size="10.00" fill="#000000">/test/cache_test.cc</text>
</a>
</g>
</g>
<!-- Node18&#45;&gt;Node21 -->
<g id="edge3" class="edge">
<title>Node18&#45;&gt;Node21</title>
<path fill="none" stroke="#191970" d="M582.3466,-75.6266C541.3724,-63.4518 487.744,-47.5172 448.9922,-36.0028"/>
<polygon fill="#191970" stroke="#191970" points="581.3603,-78.9847 591.943,-78.478 583.3541,-72.2746 581.3603,-78.9847"/>
</g>
<!-- Node22 -->
<g id="node5" class="node">
<title>Node22</title>
<g id="a_node5"><a xlink:href="diagram__context__test_8cc.html" target="_top" xlink:title="drake/systems/framework\l/test/diagram_context\l_test.cc">
<polygon fill="#ffffff" stroke="#000000" points="489,-.5 489,-41.5 634,-41.5 634,-.5 489,-.5"/>
<text text-anchor="start" x="497" y="-29.5" font-family="Helvetica,sans-Serif" font-size="10.00" fill="#000000">drake/systems/framework</text>
<text text-anchor="start" x="497" y="-18.5" font-family="Helvetica,sans-Serif" font-size="10.00" fill="#000000">/test/diagram_context</text>
<text text-anchor="middle" x="561.5" y="-7.5" font-family="Helvetica,sans-Serif" font-size="10.00" fill="#000000">_test.cc</text>
</a>
</g>
</g>
<!-- Node18&#45;&gt;Node22 -->
<g id="edge4" class="edge">
<title>Node18&#45;&gt;Node22</title>
<path fill="none" stroke="#191970" d="M617.9659,-71.5405C607.3016,-61.9953 594.879,-50.8762 584.4051,-41.5015"/>
<polygon fill="#191970" stroke="#191970" points="615.9312,-74.4166 625.7167,-78.478 620.5998,-69.2007 615.9312,-74.4166"/>
</g>
<!-- Node23 -->
<g id="node6" class="node">
<title>Node23</title>
<g id="a_node6"><a xlink:href="diagram__test_8cc.html" target="_top" xlink:title="drake/systems/framework\l/test/diagram_test.cc">
<polygon fill="#ffffff" stroke="#000000" points="652,-6 652,-36 797,-36 797,-6 652,-6"/>
<text text-anchor="start" x="660" y="-24" font-family="Helvetica,sans-Serif" font-size="10.00" fill="#000000">drake/systems/framework</text>
<text text-anchor="middle" x="724.5" y="-13" font-family="Helvetica,sans-Serif" font-size="10.00" fill="#000000">/test/diagram_test.cc</text>
</a>
</g>
</g>
<!-- Node18&#45;&gt;Node23 -->
<g id="edge5" class="edge">
<title>Node18&#45;&gt;Node23</title>
<path fill="none" stroke="#191970" d="M667.2042,-71.6579C680.2321,-60.1393 695.8819,-46.3026 707.5313,-36.0028"/>
<polygon fill="#191970" stroke="#191970" points="664.6639,-69.232 659.4905,-78.478 669.3005,-74.4763 664.6639,-69.232"/>
</g>
<!-- Node24 -->
<g id="node7" class="node">
<title>Node24</title>
<g id="a_node7"><a xlink:href="leaf__context__test_8cc.html" target="_top" xlink:title="drake/systems/framework\l/test/leaf_context_test.cc">
<polygon fill="#ffffff" stroke="#000000" points="815,-6 815,-36 960,-36 960,-6 815,-6"/>
<text text-anchor="start" x="823" y="-24" font-family="Helvetica,sans-Serif" font-size="10.00" fill="#000000">drake/systems/framework</text>
<text text-anchor="middle" x="887.5" y="-13" font-family="Helvetica,sans-Serif" font-size="10.00" fill="#000000">/test/leaf_context_test.cc</text>
</a>
</g>
</g>
<!-- Node18&#45;&gt;Node24 -->
<g id="edge6" class="edge">
<title>Node18&#45;&gt;Node24</title>
<path fill="none" stroke="#191970" d="M702.8999,-75.6266C744.0421,-63.4518 797.8902,-47.5172 836.8009,-36.0028"/>
<polygon fill="#191970" stroke="#191970" points="701.86,-72.2842 693.2642,-78.478 703.8463,-78.9965 701.86,-72.2842"/>
</g>
<!-- Node25 -->
<g id="node8" class="node">
<title>Node25</title>
<g id="a_node8"><a xlink:href="leaf__system__test_8cc.html" target="_top" xlink:title="drake/systems/framework\l/test/leaf_system_test.cc">
<polygon fill="#ffffff" stroke="#000000" points="978,-6 978,-36 1123,-36 1123,-6 978,-6"/>
<text text-anchor="start" x="986" y="-24" font-family="Helvetica,sans-Serif" font-size="10.00" fill="#000000">drake/systems/framework</text>
<text text-anchor="middle" x="1050.5" y="-13" font-family="Helvetica,sans-Serif" font-size="10.00" fill="#000000">/test/leaf_system_test.cc</text>
</a>
</g>
</g>
<!-- Node18&#45;&gt;Node25 -->
<g id="edge7" class="edge">
<title>Node18&#45;&gt;Node25</title>
<path fill="none" stroke="#191970" d="M726.5536,-82.5601C792.845,-73.3795 887.4799,-59.0487 969.5,-42 977.8918,-40.2557 986.7179,-38.1999 995.3324,-36.069"/>
<polygon fill="#191970" stroke="#191970" points="726.0038,-79.1027 716.5741,-83.9329 726.9578,-86.0374 726.0038,-79.1027"/>
</g>
<!-- Node26 -->
<g id="node9" class="node">
<title>Node26</title>
<g id="a_node9"><a xlink:href="parameters__test_8cc.html" target="_top" xlink:title="drake/systems/framework\l/test/parameters_test.cc">
<polygon fill="#ffffff" stroke="#000000" points="1141,-6 1141,-36 1286,-36 1286,-6 1141,-6"/>
<text text-anchor="start" x="1149" y="-24" font-family="Helvetica,sans-Serif" font-size="10.00" fill="#000000">drake/systems/framework</text>
<text text-anchor="middle" x="1213.5" y="-13" font-family="Helvetica,sans-Serif" font-size="10.00" fill="#000000">/test/parameters_test.cc</text>
</a>
</g>
</g>
<!-- Node18&#45;&gt;Node26 -->
<g id="edge8" class="edge">
<title>Node18&#45;&gt;Node26</title>
<path fill="none" stroke="#191970" d="M727.0226,-88.4554C825.1144,-81.7158 991.4593,-67.548 1132.5,-42 1141.5057,-40.3687 1150.9845,-38.2685 1160.158,-36.029"/>
<polygon fill="#191970" stroke="#191970" points="726.6095,-84.9753 716.869,-89.1432 727.0827,-91.9593 726.6095,-84.9753"/>
</g>
</g>
</svg>
        <g id="navigator" transform="translate(0 0)" fill="#404254">
                <rect fill="#f2f5e9" fill-opacity="0.5" stroke="#606060" stroke-width=".5" x="0" y="0" width="60" height="60"/>
                <use id="zoomplus" xlink:href="#zoomPlus" x="17" y="9" onmousedown="handleZoom(evt,'in')"/>
                <use id="zoomminus" xlink:href="#zoomMin" x="42" y="9" onmousedown="handleZoom(evt,'out')"/>
                <use id="reset" xlink:href="#resetDef" x="30" y="36" onmousedown="handleReset()"/>
                <g id="arrowUp" xlink:href="#dirArrow" transform="translate(30 24)" onmousedown="handlePan(0,-1)">
                  <use xlink:href="#rim" fill="#404040">
                        <set attributeName="fill" to="#808080" begin="arrowUp.mouseover" end="arrowUp.mouseout"/>
                  </use>
                  <path fill="none" stroke="white" stroke-width="1.5" d="M0,-3.0v7 M-2.5,-0.5L0,-3.0L2.5,-0.5"/>
                </g>
                <g id="arrowRight" xlink:href="#dirArrow" transform="rotate(90) translate(36 -43)" onmousedown="handlePan(1,0)">
                  <use xlink:href="#rim" fill="#404040">
                        <set attributeName="fill" to="#808080" begin="arrowRight.mouseover" end="arrowRight.mouseout"/>
                  </use>
                  <path fill="none" stroke="white" stroke-width="1.5" d="M0,-3.0v7 M-2.5,-0.5L0,-3.0L2.5,-0.5"/>
                </g>
                <g id="arrowDown" xlink:href="#dirArrow" transform="rotate(180) translate(-30 -48)" onmousedown="handlePan(0,1)">
                  <use xlink:href="#rim" fill="#404040">
                        <set attributeName="fill" to="#808080" begin="arrowDown.mouseover" end="arrowDown.mouseout"/>
                  </use>
                  <path fill="none" stroke="white" stroke-width="1.5" d="M0,-3.0v7 M-2.5,-0.5L0,-3.0L2.5,-0.5"/>
                </g>
                <g id="arrowLeft" xlink:href="#dirArrow" transform="rotate(270) translate(-36 17)" onmousedown="handlePan(-1,0)">
                  <use xlink:href="#rim" fill="#404040">
                        <set attributeName="fill" to="#808080" begin="arrowLeft.mouseover" end="arrowLeft.mouseout"/>
                  </use>
                  <path fill="none" stroke="white" stroke-width="1.5" d="M0,-3.0v7 M-2.5,-0.5L0,-3.0L2.5,-0.5"/>
                </g>
        </g>
        <svg viewBox="0 0 15 15" width="100%" height="30px" preserveAspectRatio="xMaxYMin meet">
         <g id="arrow_out" transform="scale(0.3 0.3)">
          <a xlink:href="pack__value_8h__dep__incl_org.svg" target="_base">
           <rect id="button" ry="5" rx="5" y="6" x="6" height="38" width="38"
                fill="#f2f5e9" fill-opacity="0.5" stroke="#606060" stroke-width="1.0"/>
           <path id="arrow"
             d="M 11.500037,31.436501 C 11.940474,20.09759 22.043105,11.32322 32.158766,21.979434 L 37.068811,17.246167 C 37.068811,17.246167 37.088388,32 37.088388,32 L 22.160133,31.978069 C 22.160133,31.978069 26.997745,27.140456 26.997745,27.140456 C 18.528582,18.264221 13.291696,25.230495 11.500037,31.436501 z"
             style="fill:#404040;"/>
          </a>
         </g>
        </svg>
</svg>
