<?xml version="1.0" encoding="UTF-8" standalone="no"?>
<!DOCTYPE svg PUBLIC "-//W3C//DTD SVG 1.1//EN"
 "http://www.w3.org/Graphics/SVG/1.1/DTD/svg11.dtd">
<!-- Generated by graphviz version 2.40.1 (20161225.0304)
 -->
<!-- Title: drake/attic/systems/controllers/qp_inverse_dynamics/param_parser.cc Pages: 1 -->
<!--zoomable 206 -->
<svg id="main" version="1.1" xmlns="http://www.w3.org/2000/svg" xmlns:xlink="http://www.w3.org/1999/xlink" xml:space="preserve" onload="init(evt)">
<style type="text/css"><![CDATA[
.edge:hover path { stroke: red; }
.edge:hover polygon { stroke: red; fill: red; }
]]></style>
<script type="text/javascript"><![CDATA[
var edges = document.getElementsByTagName('g');
if (edges && edges.length) {
  for (var i=0;i<edges.length;i++) {
    if (edges[i].id.substr(0,4)=='edge') {
      edges[i].setAttribute('class','edge');
    }
  }
}
]]></script>
        <defs>
                <circle id="rim" cx="0" cy="0" r="7"/>
                <circle id="rim2" cx="0" cy="0" r="3.5"/>
                <g id="zoomPlus">
                        <use xlink:href="#rim" fill="#404040">
                                <set attributeName="fill" to="#808080" begin="zoomplus.mouseover" end="zoomplus.mouseout"/>
                        </use>
                        <path d="M-4,0h8M0,-4v8" fill="none" stroke="white" stroke-width="1.5" pointer-events="none"/>
                </g>
                <g id="zoomMin">
                        <use xlink:href="#rim" fill="#404040">
                                <set attributeName="fill" to="#808080" begin="zoomminus.mouseover" end="zoomminus.mouseout"/>
                        </use>
                        <path d="M-4,0h8" fill="none" stroke="white" stroke-width="1.5" pointer-events="none"/>
                </g>
                <g id="dirArrow">
                        <path fill="none" stroke="white" stroke-width="1.5" d="M0,-3.0v7 M-2.5,-0.5L0,-3.0L2.5,-0.5"/>
                </g>
               <g id="resetDef">
                       <use xlink:href="#rim2" fill="#404040">
                               <set attributeName="fill" to="#808080" begin="reset.mouseover" end="reset.mouseout"/>
                       </use>
               </g>
        </defs>

<script type="text/javascript">
var viewWidth = 869;
var viewHeight = 206;
var sectionId = 'dynsection-0';
</script>
<script xlink:href="svgpan.js"/>
<svg id="graph" class="graph">
<g id="viewport">
<title>drake/attic/systems/controllers/qp_inverse_dynamics/param_parser.cc</title>
<polygon fill="#ffffff" stroke="transparent" points="-4,4 -4,-202 864.5,-202 864.5,4 -4,4"/>
<!-- Node0 -->
<g id="node1" class="node">
<title>Node0</title>
<polygon fill="#bfbfbf" stroke="#000000" points="365.5,-156.5 365.5,-197.5 518.5,-197.5 518.5,-156.5 365.5,-156.5"/>
<text text-anchor="start" x="373.5" y="-185.5" font-family="Helvetica,sans-Serif" font-size="10.00" fill="#000000">drake/attic/systems</text>
<text text-anchor="start" x="373.5" y="-174.5" font-family="Helvetica,sans-Serif" font-size="10.00" fill="#000000">/controllers/qp_inverse</text>
<text text-anchor="middle" x="442" y="-163.5" font-family="Helvetica,sans-Serif" font-size="10.00" fill="#000000">_dynamics/param_parser.cc</text>
</g>
<!-- Node1 -->
<g id="node2" class="node">
<title>Node1</title>
<polygon fill="#ffffff" stroke="#bfbfbf" points="0,-73 0,-114 160,-114 160,-73 0,-73"/>
<text text-anchor="start" x="8" y="-102" font-family="Helvetica,sans-Serif" font-size="10.00" fill="#000000">drake/systems/controllers</text>
<text text-anchor="start" x="8" y="-91" font-family="Helvetica,sans-Serif" font-size="10.00" fill="#000000">/qp_inverse_dynamics/param</text>
<text text-anchor="middle" x="80" y="-80" font-family="Helvetica,sans-Serif" font-size="10.00" fill="#000000">_parser.h</text>
</g>
<!-- Node0&#45;&gt;Node1 -->
<g id="edge1" class="edge">
<title>Node0&#45;&gt;Node1</title>
<path fill="none" stroke="#191970" d="M365.4129,-162.7863C310.4729,-152.1585 234.835,-136.6432 169,-120 164.9557,-118.9776 160.8198,-117.8911 156.652,-116.764"/>
<polygon fill="#191970" stroke="#191970" points="157.4684,-113.3586 146.8975,-114.0714 155.6056,-120.1062 157.4684,-113.3586"/>
</g>
<!-- Node2 -->
<g id="node3" class="node">
<title>Node2</title>
<polygon fill="#ffffff" stroke="#bfbfbf" points="178,-78.5 178,-108.5 294,-108.5 294,-78.5 178,-78.5"/>
<text text-anchor="start" x="186" y="-96.5" font-family="Helvetica,sans-Serif" font-size="10.00" fill="#000000">google/protobuf/text</text>
<text text-anchor="middle" x="236" y="-85.5" font-family="Helvetica,sans-Serif" font-size="10.00" fill="#000000">_format.h</text>
</g>
<!-- Node0&#45;&gt;Node2 -->
<g id="edge2" class="edge">
<title>Node0&#45;&gt;Node2</title>
<path fill="none" stroke="#191970" d="M391.3429,-156.4667C358.1986,-143.032 315.2058,-125.6053 282.8545,-112.492"/>
<polygon fill="#191970" stroke="#191970" points="283.7612,-109.083 273.1788,-108.57 281.1316,-115.5703 283.7612,-109.083"/>
</g>
<!-- Node3 -->
<g id="node4" class="node">
<title>Node3</title>
<g id="a_node4"><a xlink:href="drake__assert_8h.html" target="_top" xlink:title="Provides Drake&#39;s assertion implementation. ">
<polygon fill="#ffffff" stroke="#000000" points="312.5,-78.5 312.5,-108.5 433.5,-108.5 433.5,-78.5 312.5,-78.5"/>
<text text-anchor="start" x="320.5" y="-96.5" font-family="Helvetica,sans-Serif" font-size="10.00" fill="#000000">drake/common/drake</text>
<text text-anchor="middle" x="373" y="-85.5" font-family="Helvetica,sans-Serif" font-size="10.00" fill="#000000">_assert.h</text>
</a>
</g>
</g>
<!-- Node0&#45;&gt;Node3 -->
<g id="edge3" class="edge">
<title>Node0&#45;&gt;Node3</title>
<path fill="none" stroke="#191970" d="M424.9438,-156.3595C414.9263,-144.2369 402.2461,-128.892 391.9218,-116.3981"/>
<polygon fill="#191970" stroke="#191970" points="394.5972,-114.1412 385.5291,-108.6621 389.2011,-118.6002 394.5972,-114.1412"/>
</g>
<!-- Node5 -->
<g id="node6" class="node">
<title>Node5</title>
<g id="a_node6"><a xlink:href="protobuf_8h.html" target="_top" xlink:title="drake/common/proto\l/protobuf.h">
<polygon fill="#ffffff" stroke="#000000" points="451.5,-78.5 451.5,-108.5 570.5,-108.5 570.5,-78.5 451.5,-78.5"/>
<text text-anchor="start" x="459.5" y="-96.5" font-family="Helvetica,sans-Serif" font-size="10.00" fill="#000000">drake/common/proto</text>
<text text-anchor="middle" x="511" y="-85.5" font-family="Helvetica,sans-Serif" font-size="10.00" fill="#000000">/protobuf.h</text>
</a>
</g>
</g>
<!-- Node0&#45;&gt;Node5 -->
<g id="edge5" class="edge">
<title>Node0&#45;&gt;Node5</title>
<path fill="none" stroke="#191970" d="M459.0562,-156.3595C469.0737,-144.2369 481.7539,-128.892 492.0782,-116.3981"/>
<polygon fill="#191970" stroke="#191970" points="494.7989,-118.6002 498.4709,-108.6621 489.4028,-114.1412 494.7989,-118.6002"/>
</g>
<!-- Node9 -->
<g id="node10" class="node">
<title>Node9</title>
<polygon fill="#ffffff" stroke="#bfbfbf" points="589,-84 589,-103 709,-103 709,-84 589,-84"/>
<text text-anchor="middle" x="649" y="-91" font-family="Helvetica,sans-Serif" font-size="10.00" fill="#000000">drake/util/drakeUtil.h</text>
</g>
<!-- Node0&#45;&gt;Node9 -->
<g id="edge9" class="edge">
<title>Node0&#45;&gt;Node9</title>
<path fill="none" stroke="#191970" d="M492.903,-156.4667C531.1985,-141.019 582.5783,-120.2933 615.7414,-106.9159"/>
<polygon fill="#191970" stroke="#191970" points="617.4494,-110.001 625.4139,-103.0142 614.8307,-103.5093 617.4494,-110.001"/>
</g>
<!-- Node10 -->
<g id="node11" class="node">
<title>Node10</title>
<polygon fill="#ffffff" stroke="#bfbfbf" points="727.5,-67.5 727.5,-119.5 860.5,-119.5 860.5,-67.5 727.5,-67.5"/>
<text text-anchor="start" x="735.5" y="-107.5" font-family="Helvetica,sans-Serif" font-size="10.00" fill="#000000">drake/attic/systems</text>
<text text-anchor="start" x="735.5" y="-96.5" font-family="Helvetica,sans-Serif" font-size="10.00" fill="#000000">/controllers/qp_inverse</text>
<text text-anchor="start" x="735.5" y="-85.5" font-family="Helvetica,sans-Serif" font-size="10.00" fill="#000000">_dynamics/id_controller</text>
<text text-anchor="middle" x="794" y="-74.5" font-family="Helvetica,sans-Serif" font-size="10.00" fill="#000000">_config.pb.h</text>
</g>
<!-- Node0&#45;&gt;Node10 -->
<g id="edge10" class="edge">
<title>Node0&#45;&gt;Node10</title>
<path fill="none" stroke="#191970" d="M518.7923,-163.95C572.1346,-154.2351 644.9277,-139.6893 717.6375,-119.9586"/>
<polygon fill="#191970" stroke="#191970" points="718.7127,-123.2929 727.4288,-117.2695 716.8589,-116.5428 718.7127,-123.2929"/>
</g>
<!-- Node4 -->
<g id="node5" class="node">
<title>Node4</title>
<polygon fill="#ffffff" stroke="#bfbfbf" points="331.5,-6 331.5,-25 400.5,-25 400.5,-6 331.5,-6"/>
<text text-anchor="middle" x="366" y="-13" font-family="Helvetica,sans-Serif" font-size="10.00" fill="#000000">type_traits</text>
</g>
<!-- Node3&#45;&gt;Node4 -->
<g id="edge4" class="edge">
<title>Node3&#45;&gt;Node4</title>
<path fill="none" stroke="#191970" d="M371.6503,-78.4608C370.5454,-66.1484 368.9736,-48.634 367.7682,-35.2024"/>
<polygon fill="#191970" stroke="#191970" points="371.24,-34.731 366.8601,-25.0839 364.268,-35.3567 371.24,-34.731"/>
</g>
<!-- Node6 -->
<g id="node7" class="node">
<title>Node6</title>
<polygon fill="#ffffff" stroke="#bfbfbf" points="419,-6 419,-25 477,-25 477,-6 419,-6"/>
<text text-anchor="middle" x="448" y="-13" font-family="Helvetica,sans-Serif" font-size="10.00" fill="#000000">memory</text>
</g>
<!-- Node5&#45;&gt;Node6 -->
<g id="edge6" class="edge">
<title>Node5&#45;&gt;Node6</title>
<path fill="none" stroke="#191970" d="M498.853,-78.4608C488.4111,-65.5328 473.337,-46.8696 462.3118,-33.2194"/>
<polygon fill="#191970" stroke="#191970" points="464.747,-30.6641 455.7408,-25.0839 459.3014,-35.0625 464.747,-30.6641"/>
</g>
<!-- Node7 -->
<g id="node8" class="node">
<title>Node7</title>
<polygon fill="#ffffff" stroke="#bfbfbf" points="495,-6 495,-25 539,-25 539,-6 495,-6"/>
<text text-anchor="middle" x="517" y="-13" font-family="Helvetica,sans-Serif" font-size="10.00" fill="#000000">string</text>
</g>
<!-- Node5&#45;&gt;Node7 -->
<g id="edge7" class="edge">
<title>Node5&#45;&gt;Node7</title>
<path fill="none" stroke="#191970" d="M512.1569,-78.4608C513.104,-66.1484 514.4512,-48.634 515.4844,-35.2024"/>
<polygon fill="#191970" stroke="#191970" points="518.9854,-35.3229 516.2628,-25.0839 512.006,-34.7859 518.9854,-35.3229"/>
</g>
<!-- Node8 -->
<g id="node9" class="node">
<title>Node8</title>
<polygon fill="#ffffff" stroke="#bfbfbf" points="557.5,-.5 557.5,-30.5 702.5,-30.5 702.5,-.5 557.5,-.5"/>
<text text-anchor="start" x="565.5" y="-18.5" font-family="Helvetica,sans-Serif" font-size="10.00" fill="#000000">google/protobuf/io</text>
<text text-anchor="middle" x="630" y="-7.5" font-family="Helvetica,sans-Serif" font-size="10.00" fill="#000000">/zero_copy_stream_impl.h</text>
</g>
<!-- Node5&#45;&gt;Node8 -->
<g id="edge8" class="edge">
<title>Node5&#45;&gt;Node8</title>
<path fill="none" stroke="#191970" d="M533.9444,-78.4608C552.1826,-66.5064 577.9024,-49.648 598.1385,-36.384"/>
<polygon fill="#191970" stroke="#191970" points="600.2752,-39.1684 606.72,-30.7592 596.4378,-33.3139 600.2752,-39.1684"/>
</g>
</g>
</svg>
        <g id="navigator" transform="translate(0 0)" fill="#404254">
                <rect fill="#f2f5e9" fill-opacity="0.5" stroke="#606060" stroke-width=".5" x="0" y="0" width="60" height="60"/>
                <use id="zoomplus" xlink:href="#zoomPlus" x="17" y="9" onmousedown="handleZoom(evt,'in')"/>
                <use id="zoomminus" xlink:href="#zoomMin" x="42" y="9" onmousedown="handleZoom(evt,'out')"/>
                <use id="reset" xlink:href="#resetDef" x="30" y="36" onmousedown="handleReset()"/>
                <g id="arrowUp" xlink:href="#dirArrow" transform="translate(30 24)" onmousedown="handlePan(0,-1)">
                  <use xlink:href="#rim" fill="#404040">
                        <set attributeName="fill" to="#808080" begin="arrowUp.mouseover" end="arrowUp.mouseout"/>
                  </use>
                  <path fill="none" stroke="white" stroke-width="1.5" d="M0,-3.0v7 M-2.5,-0.5L0,-3.0L2.5,-0.5"/>
                </g>
                <g id="arrowRight" xlink:href="#dirArrow" transform="rotate(90) translate(36 -43)" onmousedown="handlePan(1,0)">
                  <use xlink:href="#rim" fill="#404040">
                        <set attributeName="fill" to="#808080" begin="arrowRight.mouseover" end="arrowRight.mouseout"/>
                  </use>
                  <path fill="none" stroke="white" stroke-width="1.5" d="M0,-3.0v7 M-2.5,-0.5L0,-3.0L2.5,-0.5"/>
                </g>
                <g id="arrowDown" xlink:href="#dirArrow" transform="rotate(180) translate(-30 -48)" onmousedown="handlePan(0,1)">
                  <use xlink:href="#rim" fill="#404040">
                        <set attributeName="fill" to="#808080" begin="arrowDown.mouseover" end="arrowDown.mouseout"/>
                  </use>
                  <path fill="none" stroke="white" stroke-width="1.5" d="M0,-3.0v7 M-2.5,-0.5L0,-3.0L2.5,-0.5"/>
                </g>
                <g id="arrowLeft" xlink:href="#dirArrow" transform="rotate(270) translate(-36 17)" onmousedown="handlePan(-1,0)">
                  <use xlink:href="#rim" fill="#404040">
                        <set attributeName="fill" to="#808080" begin="arrowLeft.mouseover" end="arrowLeft.mouseout"/>
                  </use>
                  <path fill="none" stroke="white" stroke-width="1.5" d="M0,-3.0v7 M-2.5,-0.5L0,-3.0L2.5,-0.5"/>
                </g>
        </g>
        <svg viewBox="0 0 15 15" width="100%" height="30px" preserveAspectRatio="xMaxYMin meet">
         <g id="arrow_out" transform="scale(0.3 0.3)">
          <a xlink:href="param__parser_8cc__incl_org.svg" target="_base">
           <rect id="button" ry="5" rx="5" y="6" x="6" height="38" width="38"
                fill="#f2f5e9" fill-opacity="0.5" stroke="#606060" stroke-width="1.0"/>
           <path id="arrow"
             d="M 11.500037,31.436501 C 11.940474,20.09759 22.043105,11.32322 32.158766,21.979434 L 37.068811,17.246167 C 37.068811,17.246167 37.088388,32 37.088388,32 L 22.160133,31.978069 C 22.160133,31.978069 26.997745,27.140456 26.997745,27.140456 C 18.528582,18.264221 13.291696,25.230495 11.500037,31.436501 z"
             style="fill:#404040;"/>
          </a>
         </g>
        </svg>
</svg>
