<?xml version="1.0" encoding="UTF-8" standalone="no"?>
<!DOCTYPE svg PUBLIC "-//W3C//DTD SVG 1.1//EN"
 "http://www.w3.org/Graphics/SVG/1.1/DTD/svg11.dtd">
<!-- Generated by graphviz version 2.40.1 (20161225.0304)
 -->
<!-- Title: drake/multibody/parsing/parser.h Pages: 1 -->
<!--zoomable 117 -->
<svg id="main" version="1.1" xmlns="http://www.w3.org/2000/svg" xmlns:xlink="http://www.w3.org/1999/xlink" xml:space="preserve" onload="init(evt)">
<style type="text/css"><![CDATA[
.edge:hover path { stroke: red; }
.edge:hover polygon { stroke: red; fill: red; }
]]></style>
<script type="text/javascript"><![CDATA[
var edges = document.getElementsByTagName('g');
if (edges && edges.length) {
  for (var i=0;i<edges.length;i++) {
    if (edges[i].id.substr(0,4)=='edge') {
      edges[i].setAttribute('class','edge');
    }
  }
}
]]></script>
        <defs>
                <circle id="rim" cx="0" cy="0" r="7"/>
                <circle id="rim2" cx="0" cy="0" r="3.5"/>
                <g id="zoomPlus">
                        <use xlink:href="#rim" fill="#404040">
                                <set attributeName="fill" to="#808080" begin="zoomplus.mouseover" end="zoomplus.mouseout"/>
                        </use>
                        <path d="M-4,0h8M0,-4v8" fill="none" stroke="white" stroke-width="1.5" pointer-events="none"/>
                </g>
                <g id="zoomMin">
                        <use xlink:href="#rim" fill="#404040">
                                <set attributeName="fill" to="#808080" begin="zoomminus.mouseover" end="zoomminus.mouseout"/>
                        </use>
                        <path d="M-4,0h8" fill="none" stroke="white" stroke-width="1.5" pointer-events="none"/>
                </g>
                <g id="dirArrow">
                        <path fill="none" stroke="white" stroke-width="1.5" d="M0,-3.0v7 M-2.5,-0.5L0,-3.0L2.5,-0.5"/>
                </g>
               <g id="resetDef">
                       <use xlink:href="#rim2" fill="#404040">
                               <set attributeName="fill" to="#808080" begin="reset.mouseover" end="reset.mouseout"/>
                       </use>
               </g>
        </defs>

<script type="text/javascript">
var viewWidth = 1597;
var viewHeight = 117;
var sectionId = 'dynsection-1';
</script>
<script xlink:href="svgpan.js"/>
<svg id="graph" class="graph">
<g id="viewport">
<title>drake/multibody/parsing/parser.h</title>
<polygon fill="#ffffff" stroke="transparent" points="-4,4 -4,-113 1592.5,-113 1592.5,4 -4,4"/>
<!-- Node188 -->
<g id="node1" class="node">
<title>Node188</title>
<polygon fill="#bfbfbf" stroke="#000000" points="758.5,-78.5 758.5,-108.5 894.5,-108.5 894.5,-78.5 758.5,-78.5"/>
<text text-anchor="start" x="766.5" y="-96.5" font-family="Helvetica,sans-Serif" font-size="10.00" fill="#000000">drake/multibody/parsing</text>
<text text-anchor="middle" x="826.5" y="-85.5" font-family="Helvetica,sans-Serif" font-size="10.00" fill="#000000">/parser.h</text>
</g>
<!-- Node189 -->
<g id="node2" class="node">
<title>Node189</title>
<g id="a_node2"><a xlink:href="parsing__py_8cc.html" target="_top" xlink:title="drake/bindings/pydrake\l/multibody/parsing_py.cc">
<polygon fill="#ffffff" stroke="#000000" points="0,-6 0,-36 139,-36 139,-6 0,-6"/>
<text text-anchor="start" x="8" y="-24" font-family="Helvetica,sans-Serif" font-size="10.00" fill="#000000">drake/bindings/pydrake</text>
<text text-anchor="middle" x="69.5" y="-13" font-family="Helvetica,sans-Serif" font-size="10.00" fill="#000000">/multibody/parsing_py.cc</text>
</a>
</g>
</g>
<!-- Node188&#45;&gt;Node189 -->
<g id="edge1" class="edge">
<title>Node188&#45;&gt;Node189</title>
<path fill="none" stroke="#191970" d="M748.1396,-92.2178C621.302,-89.0989 363.5252,-78.4268 148.5,-42 139.4051,-40.4593 129.8356,-38.3471 120.619,-36.053"/>
<polygon fill="#191970" stroke="#191970" points="748.0727,-95.7171 758.1528,-92.4549 748.2385,-88.719 748.0727,-95.7171"/>
</g>
<!-- Node190 -->
<g id="node3" class="node">
<title>Node190</title>
<g id="a_node3"><a xlink:href="manipulation__station_8cc.html" target="_top" xlink:title="drake/examples/manipulation\l_station/manipulation_station.cc">
<polygon fill="#ffffff" stroke="#000000" points="157.5,-6 157.5,-36 333.5,-36 333.5,-6 157.5,-6"/>
<text text-anchor="start" x="165.5" y="-24" font-family="Helvetica,sans-Serif" font-size="10.00" fill="#000000">drake/examples/manipulation</text>
<text text-anchor="middle" x="245.5" y="-13" font-family="Helvetica,sans-Serif" font-size="10.00" fill="#000000">_station/manipulation_station.cc</text>
</a>
</g>
</g>
<!-- Node188&#45;&gt;Node190 -->
<g id="edge2" class="edge">
<title>Node188&#45;&gt;Node190</title>
<path fill="none" stroke="#191970" d="M748.0894,-87.8325C651.9003,-80.2691 484.0435,-65.0875 341.5,-42 331.1426,-40.3224 320.2212,-38.2389 309.6045,-36.0413"/>
<polygon fill="#191970" stroke="#191970" points="748.0722,-91.3417 758.3138,-88.6289 748.6159,-84.3628 748.0722,-91.3417"/>
</g>
<!-- Node191 -->
<g id="node4" class="node">
<title>Node191</title>
<g id="a_node4"><a xlink:href="mock__station__simulation_8cc.html" target="_top" xlink:title="drake/examples/manipulation\l_station/mock_station_simulation.cc">
<polygon fill="#ffffff" stroke="#000000" points="351,-6 351,-36 546,-36 546,-6 351,-6"/>
<text text-anchor="start" x="359" y="-24" font-family="Helvetica,sans-Serif" font-size="10.00" fill="#000000">drake/examples/manipulation</text>
<text text-anchor="middle" x="448.5" y="-13" font-family="Helvetica,sans-Serif" font-size="10.00" fill="#000000">_station/mock_station_simulation.cc</text>
</a>
</g>
</g>
<!-- Node188&#45;&gt;Node191 -->
<g id="edge3" class="edge">
<title>Node188&#45;&gt;Node191</title>
<path fill="none" stroke="#191970" d="M748.3644,-78.8872C693.9815,-68.6722 619.7964,-54.6494 554.5,-42 544.6464,-40.0911 534.2817,-38.0629 524.0501,-36.0487"/>
<polygon fill="#191970" stroke="#191970" points="747.8077,-82.3438 758.2819,-80.7491 749.0994,-75.464 747.8077,-82.3438"/>
</g>
<!-- Node192 -->
<g id="node5" class="node">
<title>Node192</title>
<g id="a_node5"><a xlink:href="proof__of__life_8cc.html" target="_top" xlink:title="drake/examples/manipulation\l_station/proof_of_life.cc">
<polygon fill="#ffffff" stroke="#000000" points="564,-6 564,-36 727,-36 727,-6 564,-6"/>
<text text-anchor="start" x="572" y="-24" font-family="Helvetica,sans-Serif" font-size="10.00" fill="#000000">drake/examples/manipulation</text>
<text text-anchor="middle" x="645.5" y="-13" font-family="Helvetica,sans-Serif" font-size="10.00" fill="#000000">_station/proof_of_life.cc</text>
</a>
</g>
</g>
<!-- Node188&#45;&gt;Node192 -->
<g id="edge4" class="edge">
<title>Node188&#45;&gt;Node192</title>
<path fill="none" stroke="#191970" d="M779.5519,-74.6948C749.476,-62.6478 710.9738,-47.2257 682.9553,-36.0028"/>
<polygon fill="#191970" stroke="#191970" points="778.4122,-78.0086 788.9967,-78.478 781.0151,-71.5105 778.4122,-78.0086"/>
</g>
<!-- Node193 -->
<g id="node6" class="node">
<title>Node193</title>
<g id="a_node6"><a xlink:href="manipulation__station__test_8cc.html" target="_top" xlink:title="drake/examples/manipulation\l_station/test/manipulation\l_station_test.cc">
<polygon fill="#ffffff" stroke="#000000" points="745,-.5 745,-41.5 908,-41.5 908,-.5 745,-.5"/>
<text text-anchor="start" x="753" y="-29.5" font-family="Helvetica,sans-Serif" font-size="10.00" fill="#000000">drake/examples/manipulation</text>
<text text-anchor="start" x="753" y="-18.5" font-family="Helvetica,sans-Serif" font-size="10.00" fill="#000000">_station/test/manipulation</text>
<text text-anchor="middle" x="826.5" y="-7.5" font-family="Helvetica,sans-Serif" font-size="10.00" fill="#000000">_station_test.cc</text>
</a>
</g>
</g>
<!-- Node188&#45;&gt;Node193 -->
<g id="edge5" class="edge">
<title>Node188&#45;&gt;Node193</title>
<path fill="none" stroke="#191970" d="M826.5,-68.4016C826.5,-59.6173 826.5,-49.8652 826.5,-41.5015"/>
<polygon fill="#191970" stroke="#191970" points="823.0001,-68.4779 826.5,-78.478 830.0001,-68.478 823.0001,-68.4779"/>
</g>
<!-- Node194 -->
<g id="node7" class="node">
<title>Node194</title>
<g id="a_node7"><a xlink:href="multibody_2acrobot_2run__lqr_8cc.html" target="_top" xlink:title="drake/examples/multibody\l/acrobot/run_lqr.cc">
<polygon fill="#ffffff" stroke="#000000" points="926.5,-6 926.5,-36 1074.5,-36 1074.5,-6 926.5,-6"/>
<text text-anchor="start" x="934.5" y="-24" font-family="Helvetica,sans-Serif" font-size="10.00" fill="#000000">drake/examples/multibody</text>
<text text-anchor="middle" x="1000.5" y="-13" font-family="Helvetica,sans-Serif" font-size="10.00" fill="#000000">/acrobot/run_lqr.cc</text>
</a>
</g>
</g>
<!-- Node188&#45;&gt;Node194 -->
<g id="edge6" class="edge">
<title>Node188&#45;&gt;Node194</title>
<path fill="none" stroke="#191970" d="M872.0084,-74.5382C900.8654,-62.5144 937.675,-47.1771 964.4933,-36.0028"/>
<polygon fill="#191970" stroke="#191970" points="870.4375,-71.401 862.5529,-78.478 873.1299,-77.8625 870.4375,-71.401"/>
</g>
<!-- Node195 -->
<g id="node8" class="node">
<title>Node195</title>
<g id="a_node8"><a xlink:href="multibody__plant__jacobians__test_8cc.html" target="_top" xlink:title="drake/multibody/multibody\l_tree/multibody_plant/test\l/multibody_plant_jacobians_test.cc">
<polygon fill="#ffffff" stroke="#000000" points="1092.5,-.5 1092.5,-41.5 1280.5,-41.5 1280.5,-.5 1092.5,-.5"/>
<text text-anchor="start" x="1100.5" y="-29.5" font-family="Helvetica,sans-Serif" font-size="10.00" fill="#000000">drake/multibody/multibody</text>
<text text-anchor="start" x="1100.5" y="-18.5" font-family="Helvetica,sans-Serif" font-size="10.00" fill="#000000">_tree/multibody_plant/test</text>
<text text-anchor="middle" x="1186.5" y="-7.5" font-family="Helvetica,sans-Serif" font-size="10.00" fill="#000000">/multibody_plant_jacobians_test.cc</text>
</a>
</g>
</g>
<!-- Node188&#45;&gt;Node195 -->
<g id="edge7" class="edge">
<title>Node188&#45;&gt;Node195</title>
<path fill="none" stroke="#191970" d="M904.6452,-77.9113C955.5828,-67.7327 1023.495,-54.1291 1083.5,-42 1086.4515,-41.4034 1089.4505,-40.7965 1092.4784,-40.183"/>
<polygon fill="#191970" stroke="#191970" points="903.8118,-74.5086 894.6913,-79.9 905.1833,-81.3729 903.8118,-74.5086"/>
</g>
<!-- Node196 -->
<g id="node9" class="node">
<title>Node196</title>
<g id="a_node9"><a xlink:href="parser_8cc.html" target="_top" xlink:title="drake/multibody/parsing\l/parser.cc">
<polygon fill="#ffffff" stroke="#000000" points="1298.5,-6 1298.5,-36 1434.5,-36 1434.5,-6 1298.5,-6"/>
<text text-anchor="start" x="1306.5" y="-24" font-family="Helvetica,sans-Serif" font-size="10.00" fill="#000000">drake/multibody/parsing</text>
<text text-anchor="middle" x="1366.5" y="-13" font-family="Helvetica,sans-Serif" font-size="10.00" fill="#000000">/parser.cc</text>
</a>
</g>
</g>
<!-- Node188&#45;&gt;Node196 -->
<g id="edge8" class="edge">
<title>Node188&#45;&gt;Node196</title>
<path fill="none" stroke="#191970" d="M904.9841,-88.5063C997.5255,-81.7586 1155.6865,-67.5288 1289.5,-42 1298.0748,-40.3641 1307.0925,-38.2616 1315.8158,-36.0211"/>
<polygon fill="#191970" stroke="#191970" points="904.5815,-85.0261 894.858,-89.2338 905.0832,-92.0081 904.5815,-85.0261"/>
</g>
<!-- Node197 -->
<g id="node10" class="node">
<title>Node197</title>
<g id="a_node10"><a xlink:href="parser__test_8cc.html" target="_top" xlink:title="drake/multibody/parsing\l/test/parser_test.cc">
<polygon fill="#ffffff" stroke="#000000" points="1452.5,-6 1452.5,-36 1588.5,-36 1588.5,-6 1452.5,-6"/>
<text text-anchor="start" x="1460.5" y="-24" font-family="Helvetica,sans-Serif" font-size="10.00" fill="#000000">drake/multibody/parsing</text>
<text text-anchor="middle" x="1520.5" y="-13" font-family="Helvetica,sans-Serif" font-size="10.00" fill="#000000">/test/parser_test.cc</text>
</a>
</g>
</g>
<!-- Node188&#45;&gt;Node197 -->
<g id="edge9" class="edge">
<title>Node188&#45;&gt;Node197</title>
<path fill="none" stroke="#191970" d="M904.5831,-91.5542C1022.251,-87.5944 1251.6746,-75.8696 1443.5,-42 1452.3694,-40.434 1461.6989,-38.3094 1470.683,-36.0108"/>
<polygon fill="#191970" stroke="#191970" points="904.4634,-88.0561 894.5831,-91.881 904.6921,-95.0524 904.4634,-88.0561"/>
</g>
</g>
</svg>
        <g id="navigator" transform="translate(0 0)" fill="#404254">
                <rect fill="#f2f5e9" fill-opacity="0.5" stroke="#606060" stroke-width=".5" x="0" y="0" width="60" height="60"/>
                <use id="zoomplus" xlink:href="#zoomPlus" x="17" y="9" onmousedown="handleZoom(evt,'in')"/>
                <use id="zoomminus" xlink:href="#zoomMin" x="42" y="9" onmousedown="handleZoom(evt,'out')"/>
                <use id="reset" xlink:href="#resetDef" x="30" y="36" onmousedown="handleReset()"/>
                <g id="arrowUp" xlink:href="#dirArrow" transform="translate(30 24)" onmousedown="handlePan(0,-1)">
                  <use xlink:href="#rim" fill="#404040">
                        <set attributeName="fill" to="#808080" begin="arrowUp.mouseover" end="arrowUp.mouseout"/>
                  </use>
                  <path fill="none" stroke="white" stroke-width="1.5" d="M0,-3.0v7 M-2.5,-0.5L0,-3.0L2.5,-0.5"/>
                </g>
                <g id="arrowRight" xlink:href="#dirArrow" transform="rotate(90) translate(36 -43)" onmousedown="handlePan(1,0)">
                  <use xlink:href="#rim" fill="#404040">
                        <set attributeName="fill" to="#808080" begin="arrowRight.mouseover" end="arrowRight.mouseout"/>
                  </use>
                  <path fill="none" stroke="white" stroke-width="1.5" d="M0,-3.0v7 M-2.5,-0.5L0,-3.0L2.5,-0.5"/>
                </g>
                <g id="arrowDown" xlink:href="#dirArrow" transform="rotate(180) translate(-30 -48)" onmousedown="handlePan(0,1)">
                  <use xlink:href="#rim" fill="#404040">
                        <set attributeName="fill" to="#808080" begin="arrowDown.mouseover" end="arrowDown.mouseout"/>
                  </use>
                  <path fill="none" stroke="white" stroke-width="1.5" d="M0,-3.0v7 M-2.5,-0.5L0,-3.0L2.5,-0.5"/>
                </g>
                <g id="arrowLeft" xlink:href="#dirArrow" transform="rotate(270) translate(-36 17)" onmousedown="handlePan(-1,0)">
                  <use xlink:href="#rim" fill="#404040">
                        <set attributeName="fill" to="#808080" begin="arrowLeft.mouseover" end="arrowLeft.mouseout"/>
                  </use>
                  <path fill="none" stroke="white" stroke-width="1.5" d="M0,-3.0v7 M-2.5,-0.5L0,-3.0L2.5,-0.5"/>
                </g>
        </g>
        <svg viewBox="0 0 15 15" width="100%" height="30px" preserveAspectRatio="xMaxYMin meet">
         <g id="arrow_out" transform="scale(0.3 0.3)">
          <a xlink:href="parser_8h__dep__incl_org.svg" target="_base">
           <rect id="button" ry="5" rx="5" y="6" x="6" height="38" width="38"
                fill="#f2f5e9" fill-opacity="0.5" stroke="#606060" stroke-width="1.0"/>
           <path id="arrow"
             d="M 11.500037,31.436501 C 11.940474,20.09759 22.043105,11.32322 32.158766,21.979434 L 37.068811,17.246167 C 37.068811,17.246167 37.088388,32 37.088388,32 L 22.160133,31.978069 C 22.160133,31.978069 26.997745,27.140456 26.997745,27.140456 C 18.528582,18.264221 13.291696,25.230495 11.500037,31.436501 z"
             style="fill:#404040;"/>
          </a>
         </g>
        </svg>
</svg>
