<?xml version="1.0" encoding="UTF-8" standalone="no"?>
<!DOCTYPE svg PUBLIC "-//W3C//DTD SVG 1.1//EN"
 "http://www.w3.org/Graphics/SVG/1.1/DTD/svg11.dtd">
<!-- Generated by graphviz version 2.40.1 (20161225.0304)
 -->
<!-- Title: drake/multibody/parsing/parser.h Pages: 1 -->
<svg width="1634pt" height="117pt"
 viewBox="0.00 0.00 1633.50 117.00" xmlns="http://www.w3.org/2000/svg" xmlns:xlink="http://www.w3.org/1999/xlink">
<g id="graph0" class="graph" transform="scale(1 1) rotate(0) translate(4 113)">
<title>drake/multibody/parsing/parser.h</title>
<polygon fill="#ffffff" stroke="transparent" points="-4,4 -4,-113 1629.5,-113 1629.5,4 -4,4"/>
<!-- Node188 -->
<g id="node1" class="node">
<title>Node188</title>
<polygon fill="#bfbfbf" stroke="#000000" points="795.5,-78.5 795.5,-108.5 931.5,-108.5 931.5,-78.5 795.5,-78.5"/>
<text text-anchor="start" x="803.5" y="-96.5" font-family="Helvetica,sans-Serif" font-size="10.00" fill="#000000">drake/multibody/parsing</text>
<text text-anchor="middle" x="863.5" y="-85.5" font-family="Helvetica,sans-Serif" font-size="10.00" fill="#000000">/parser.h</text>
</g>
<!-- Node189 -->
<g id="node2" class="node">
<title>Node189</title>
<g id="a_node2"><a xlink:href="multibody__tree__py_8cc.html" target="_top" xlink:title="drake/bindings/pydrake\l/multibody/multibody_tree_py.cc">
<polygon fill="#ffffff" stroke="#000000" points="0,-6 0,-36 177,-36 177,-6 0,-6"/>
<text text-anchor="start" x="8" y="-24" font-family="Helvetica,sans-Serif" font-size="10.00" fill="#000000">drake/bindings/pydrake</text>
<text text-anchor="middle" x="88.5" y="-13" font-family="Helvetica,sans-Serif" font-size="10.00" fill="#000000">/multibody/multibody_tree_py.cc</text>
</a>
</g>
</g>
<!-- Node188&#45;&gt;Node189 -->
<g id="edge1" class="edge">
<title>Node188&#45;&gt;Node189</title>
<path fill="none" stroke="#191970" d="M784.942,-91.0366C658.2257,-86.2782 401.0992,-73.3747 185.5,-42 174.5875,-40.412 163.0687,-38.3055 151.9289,-36.039"/>
<polygon fill="#191970" stroke="#191970" points="785.1938,-94.5482 795.3159,-91.4189 785.4516,-87.553 785.1938,-94.5482"/>
</g>
<!-- Node190 -->
<g id="node3" class="node">
<title>Node190</title>
<g id="a_node3"><a xlink:href="manipulation__station_8cc.html" target="_top" xlink:title="drake/examples/manipulation\l_station/manipulation_station.cc">
<polygon fill="#ffffff" stroke="#000000" points="194.5,-6 194.5,-36 370.5,-36 370.5,-6 194.5,-6"/>
<text text-anchor="start" x="202.5" y="-24" font-family="Helvetica,sans-Serif" font-size="10.00" fill="#000000">drake/examples/manipulation</text>
<text text-anchor="middle" x="282.5" y="-13" font-family="Helvetica,sans-Serif" font-size="10.00" fill="#000000">_station/manipulation_station.cc</text>
</a>
</g>
</g>
<!-- Node188&#45;&gt;Node190 -->
<g id="edge2" class="edge">
<title>Node188&#45;&gt;Node190</title>
<path fill="none" stroke="#191970" d="M785.0894,-87.8325C688.9003,-80.2691 521.0435,-65.0875 378.5,-42 368.1426,-40.3224 357.2212,-38.2389 346.6045,-36.0413"/>
<polygon fill="#191970" stroke="#191970" points="785.0722,-91.3417 795.3138,-88.6289 785.6159,-84.3628 785.0722,-91.3417"/>
</g>
<!-- Node191 -->
<g id="node4" class="node">
<title>Node191</title>
<g id="a_node4"><a xlink:href="mock__station__simulation_8cc.html" target="_top" xlink:title="drake/examples/manipulation\l_station/mock_station_simulation.cc">
<polygon fill="#ffffff" stroke="#000000" points="388,-6 388,-36 583,-36 583,-6 388,-6"/>
<text text-anchor="start" x="396" y="-24" font-family="Helvetica,sans-Serif" font-size="10.00" fill="#000000">drake/examples/manipulation</text>
<text text-anchor="middle" x="485.5" y="-13" font-family="Helvetica,sans-Serif" font-size="10.00" fill="#000000">_station/mock_station_simulation.cc</text>
</a>
</g>
</g>
<!-- Node188&#45;&gt;Node191 -->
<g id="edge3" class="edge">
<title>Node188&#45;&gt;Node191</title>
<path fill="none" stroke="#191970" d="M785.3644,-78.8872C730.9815,-68.6722 656.7964,-54.6494 591.5,-42 581.6464,-40.0911 571.2817,-38.0629 561.0501,-36.0487"/>
<polygon fill="#191970" stroke="#191970" points="784.8077,-82.3438 795.2819,-80.7491 786.0994,-75.464 784.8077,-82.3438"/>
</g>
<!-- Node192 -->
<g id="node5" class="node">
<title>Node192</title>
<g id="a_node5"><a xlink:href="proof__of__life_8cc.html" target="_top" xlink:title="drake/examples/manipulation\l_station/proof_of_life.cc">
<polygon fill="#ffffff" stroke="#000000" points="601,-6 601,-36 764,-36 764,-6 601,-6"/>
<text text-anchor="start" x="609" y="-24" font-family="Helvetica,sans-Serif" font-size="10.00" fill="#000000">drake/examples/manipulation</text>
<text text-anchor="middle" x="682.5" y="-13" font-family="Helvetica,sans-Serif" font-size="10.00" fill="#000000">_station/proof_of_life.cc</text>
</a>
</g>
</g>
<!-- Node188&#45;&gt;Node192 -->
<g id="edge4" class="edge">
<title>Node188&#45;&gt;Node192</title>
<path fill="none" stroke="#191970" d="M816.5519,-74.6948C786.476,-62.6478 747.9738,-47.2257 719.9553,-36.0028"/>
<polygon fill="#191970" stroke="#191970" points="815.4122,-78.0086 825.9967,-78.478 818.0151,-71.5105 815.4122,-78.0086"/>
</g>
<!-- Node193 -->
<g id="node6" class="node">
<title>Node193</title>
<g id="a_node6"><a xlink:href="manipulation__station__test_8cc.html" target="_top" xlink:title="drake/examples/manipulation\l_station/test/manipulation\l_station_test.cc">
<polygon fill="#ffffff" stroke="#000000" points="782,-.5 782,-41.5 945,-41.5 945,-.5 782,-.5"/>
<text text-anchor="start" x="790" y="-29.5" font-family="Helvetica,sans-Serif" font-size="10.00" fill="#000000">drake/examples/manipulation</text>
<text text-anchor="start" x="790" y="-18.5" font-family="Helvetica,sans-Serif" font-size="10.00" fill="#000000">_station/test/manipulation</text>
<text text-anchor="middle" x="863.5" y="-7.5" font-family="Helvetica,sans-Serif" font-size="10.00" fill="#000000">_station_test.cc</text>
</a>
</g>
</g>
<!-- Node188&#45;&gt;Node193 -->
<g id="edge5" class="edge">
<title>Node188&#45;&gt;Node193</title>
<path fill="none" stroke="#191970" d="M863.5,-68.4016C863.5,-59.6173 863.5,-49.8652 863.5,-41.5015"/>
<polygon fill="#191970" stroke="#191970" points="860.0001,-68.4779 863.5,-78.478 867.0001,-68.478 860.0001,-68.4779"/>
</g>
<!-- Node194 -->
<g id="node7" class="node">
<title>Node194</title>
<g id="a_node7"><a xlink:href="multibody_2acrobot_2run__lqr_8cc.html" target="_top" xlink:title="drake/examples/multibody\l/acrobot/run_lqr.cc">
<polygon fill="#ffffff" stroke="#000000" points="963.5,-6 963.5,-36 1111.5,-36 1111.5,-6 963.5,-6"/>
<text text-anchor="start" x="971.5" y="-24" font-family="Helvetica,sans-Serif" font-size="10.00" fill="#000000">drake/examples/multibody</text>
<text text-anchor="middle" x="1037.5" y="-13" font-family="Helvetica,sans-Serif" font-size="10.00" fill="#000000">/acrobot/run_lqr.cc</text>
</a>
</g>
</g>
<!-- Node188&#45;&gt;Node194 -->
<g id="edge6" class="edge">
<title>Node188&#45;&gt;Node194</title>
<path fill="none" stroke="#191970" d="M909.0084,-74.5382C937.8654,-62.5144 974.675,-47.1771 1001.4933,-36.0028"/>
<polygon fill="#191970" stroke="#191970" points="907.4375,-71.401 899.5529,-78.478 910.1299,-77.8625 907.4375,-71.401"/>
</g>
<!-- Node195 -->
<g id="node8" class="node">
<title>Node195</title>
<g id="a_node8"><a xlink:href="multibody__plant__jacobians__test_8cc.html" target="_top" xlink:title="drake/multibody/multibody\l_tree/multibody_plant/test\l/multibody_plant_jacobians_test.cc">
<polygon fill="#ffffff" stroke="#000000" points="1129.5,-.5 1129.5,-41.5 1317.5,-41.5 1317.5,-.5 1129.5,-.5"/>
<text text-anchor="start" x="1137.5" y="-29.5" font-family="Helvetica,sans-Serif" font-size="10.00" fill="#000000">drake/multibody/multibody</text>
<text text-anchor="start" x="1137.5" y="-18.5" font-family="Helvetica,sans-Serif" font-size="10.00" fill="#000000">_tree/multibody_plant/test</text>
<text text-anchor="middle" x="1223.5" y="-7.5" font-family="Helvetica,sans-Serif" font-size="10.00" fill="#000000">/multibody_plant_jacobians_test.cc</text>
</a>
</g>
</g>
<!-- Node188&#45;&gt;Node195 -->
<g id="edge7" class="edge">
<title>Node188&#45;&gt;Node195</title>
<path fill="none" stroke="#191970" d="M941.6452,-77.9113C992.5828,-67.7327 1060.495,-54.1291 1120.5,-42 1123.4515,-41.4034 1126.4505,-40.7965 1129.4784,-40.183"/>
<polygon fill="#191970" stroke="#191970" points="940.8118,-74.5086 931.6913,-79.9 942.1833,-81.3729 940.8118,-74.5086"/>
</g>
<!-- Node196 -->
<g id="node9" class="node">
<title>Node196</title>
<g id="a_node9"><a xlink:href="parser_8cc.html" target="_top" xlink:title="drake/multibody/parsing\l/parser.cc">
<polygon fill="#ffffff" stroke="#000000" points="1335.5,-6 1335.5,-36 1471.5,-36 1471.5,-6 1335.5,-6"/>
<text text-anchor="start" x="1343.5" y="-24" font-family="Helvetica,sans-Serif" font-size="10.00" fill="#000000">drake/multibody/parsing</text>
<text text-anchor="middle" x="1403.5" y="-13" font-family="Helvetica,sans-Serif" font-size="10.00" fill="#000000">/parser.cc</text>
</a>
</g>
</g>
<!-- Node188&#45;&gt;Node196 -->
<g id="edge8" class="edge">
<title>Node188&#45;&gt;Node196</title>
<path fill="none" stroke="#191970" d="M941.9841,-88.5063C1034.5255,-81.7586 1192.6865,-67.5288 1326.5,-42 1335.0748,-40.3641 1344.0925,-38.2616 1352.8158,-36.0211"/>
<polygon fill="#191970" stroke="#191970" points="941.5815,-85.0261 931.858,-89.2338 942.0832,-92.0081 941.5815,-85.0261"/>
</g>
<!-- Node197 -->
<g id="node10" class="node">
<title>Node197</title>
<g id="a_node10"><a xlink:href="parser__test_8cc.html" target="_top" xlink:title="drake/multibody/parsing\l/test/parser_test.cc">
<polygon fill="#ffffff" stroke="#000000" points="1489.5,-6 1489.5,-36 1625.5,-36 1625.5,-6 1489.5,-6"/>
<text text-anchor="start" x="1497.5" y="-24" font-family="Helvetica,sans-Serif" font-size="10.00" fill="#000000">drake/multibody/parsing</text>
<text text-anchor="middle" x="1557.5" y="-13" font-family="Helvetica,sans-Serif" font-size="10.00" fill="#000000">/test/parser_test.cc</text>
</a>
</g>
</g>
<!-- Node188&#45;&gt;Node197 -->
<g id="edge9" class="edge">
<title>Node188&#45;&gt;Node197</title>
<path fill="none" stroke="#191970" d="M941.5831,-91.5542C1059.251,-87.5944 1288.6746,-75.8696 1480.5,-42 1489.3694,-40.434 1498.6989,-38.3094 1507.683,-36.0108"/>
<polygon fill="#191970" stroke="#191970" points="941.4634,-88.0561 931.5831,-91.881 941.6921,-95.0524 941.4634,-88.0561"/>
</g>
</g>
</svg>
