<?xml version="1.0" encoding="UTF-8" standalone="no"?>
<!DOCTYPE svg PUBLIC "-//W3C//DTD SVG 1.1//EN"
 "http://www.w3.org/Graphics/SVG/1.1/DTD/svg11.dtd">
<!-- Generated by graphviz version 2.40.1 (20161225.0304)
 -->
<!-- Title: drake/multibody/parsing/parser_path_utils.h Pages: 1 -->
<svg width="387pt" height="173pt"
 viewBox="0.00 0.00 386.50 173.00" xmlns="http://www.w3.org/2000/svg" xmlns:xlink="http://www.w3.org/1999/xlink">
<g id="graph0" class="graph" transform="scale(1 1) rotate(0) translate(4 169)">
<title>drake/multibody/parsing/parser_path_utils.h</title>
<polygon fill="#ffffff" stroke="transparent" points="-4,4 -4,-169 382.5,-169 382.5,4 -4,4"/>
<!-- Node0 -->
<g id="node1" class="node">
<title>Node0</title>
<polygon fill="#bfbfbf" stroke="#000000" points="2,-134.5 2,-164.5 138,-164.5 138,-134.5 2,-134.5"/>
<text text-anchor="start" x="10" y="-152.5" font-family="Helvetica,sans-Serif" font-size="10.00" fill="#000000">drake/multibody/parsing</text>
<text text-anchor="middle" x="70" y="-141.5" font-family="Helvetica,sans-Serif" font-size="10.00" fill="#000000">/parser_path_utils.h</text>
</g>
<!-- Node1 -->
<g id="node2" class="node">
<title>Node1</title>
<polygon fill="#ffffff" stroke="#bfbfbf" points="0,-6 0,-25 44,-25 44,-6 0,-6"/>
<text text-anchor="middle" x="22" y="-13" font-family="Helvetica,sans-Serif" font-size="10.00" fill="#000000">string</text>
</g>
<!-- Node0&#45;&gt;Node1 -->
<g id="edge1" class="edge">
<title>Node0&#45;&gt;Node1</title>
<path fill="none" stroke="#191970" d="M59.903,-134.2948C53.6798,-124.3306 45.9671,-110.8213 41,-98 32.9859,-77.3135 27.8171,-52.3413 24.9243,-35.3282"/>
<polygon fill="#191970" stroke="#191970" points="28.3759,-34.7467 23.345,-25.4225 21.4632,-35.8489 28.3759,-34.7467"/>
</g>
<!-- Node2 -->
<g id="node3" class="node">
<title>Node2</title>
<g id="a_node3"><a xlink:href="multibody_2parsing_2package__map_8h.html" target="_top" xlink:title="drake/multibody/parsing\l/package_map.h">
<polygon fill="#ffffff" stroke="#000000" points="50,-67.5 50,-97.5 186,-97.5 186,-67.5 50,-67.5"/>
<text text-anchor="start" x="58" y="-85.5" font-family="Helvetica,sans-Serif" font-size="10.00" fill="#000000">drake/multibody/parsing</text>
<text text-anchor="middle" x="118" y="-74.5" font-family="Helvetica,sans-Serif" font-size="10.00" fill="#000000">/package_map.h</text>
</a>
</g>
</g>
<!-- Node0&#45;&gt;Node2 -->
<g id="edge2" class="edge">
<title>Node0&#45;&gt;Node2</title>
<path fill="none" stroke="#191970" d="M80.8919,-134.2967C86.9063,-125.9016 94.5049,-115.2952 101.2574,-105.8698"/>
<polygon fill="#191970" stroke="#191970" points="104.1725,-107.8107 107.1512,-97.6432 98.4821,-103.734 104.1725,-107.8107"/>
</g>
<!-- Node2&#45;&gt;Node1 -->
<g id="edge4" class="edge">
<title>Node2&#45;&gt;Node1</title>
<path fill="none" stroke="#191970" d="M96.2161,-67.2967C80.678,-56.4524 59.8529,-41.9182 44.2176,-31.006"/>
<polygon fill="#191970" stroke="#191970" points="45.8942,-27.908 35.6907,-25.055 41.8879,-33.6483 45.8942,-27.908"/>
</g>
<!-- Node3 -->
<g id="node4" class="node">
<title>Node3</title>
<polygon fill="#ffffff" stroke="#bfbfbf" points="62,-6 62,-25 100,-25 100,-6 62,-6"/>
<text text-anchor="middle" x="81" y="-13" font-family="Helvetica,sans-Serif" font-size="10.00" fill="#000000">map</text>
</g>
<!-- Node2&#45;&gt;Node3 -->
<g id="edge3" class="edge">
<title>Node2&#45;&gt;Node3</title>
<path fill="none" stroke="#191970" d="M109.6041,-67.2967C104.1192,-57.3645 96.9249,-44.3371 91.1237,-33.8321"/>
<polygon fill="#191970" stroke="#191970" points="94.1748,-32.1169 86.2766,-25.055 88.047,-35.5009 94.1748,-32.1169"/>
</g>
<!-- Node4 -->
<g id="node5" class="node">
<title>Node4</title>
<g id="a_node5"><a xlink:href="drake__copyable_8h.html" target="_top" xlink:title="Provides careful macros to selectively enable or disable the special member functions for copy&#45;constr...">
<polygon fill="#ffffff" stroke="#000000" points="118.5,-.5 118.5,-30.5 239.5,-30.5 239.5,-.5 118.5,-.5"/>
<text text-anchor="start" x="126.5" y="-18.5" font-family="Helvetica,sans-Serif" font-size="10.00" fill="#000000">drake/common/drake</text>
<text text-anchor="middle" x="179" y="-7.5" font-family="Helvetica,sans-Serif" font-size="10.00" fill="#000000">_copyable.h</text>
</a>
</g>
</g>
<!-- Node2&#45;&gt;Node4 -->
<g id="edge5" class="edge">
<title>Node2&#45;&gt;Node4</title>
<path fill="none" stroke="#191970" d="M131.8418,-67.2967C139.6411,-58.7303 149.5366,-47.8614 158.247,-38.2943"/>
<polygon fill="#191970" stroke="#191970" points="161.0687,-40.3939 165.2129,-30.6432 155.8926,-35.6813 161.0687,-40.3939"/>
</g>
<!-- Node5 -->
<g id="node6" class="node">
<title>Node5</title>
<g id="a_node6"><a xlink:href="drake__deprecated_8h.html" target="_top" xlink:title="Provides a portable macro for use in generating compile&#45;time warnings for use of code that is permitt...">
<polygon fill="#ffffff" stroke="#000000" points="257.5,-.5 257.5,-30.5 378.5,-30.5 378.5,-.5 257.5,-.5"/>
<text text-anchor="start" x="265.5" y="-18.5" font-family="Helvetica,sans-Serif" font-size="10.00" fill="#000000">drake/common/drake</text>
<text text-anchor="middle" x="318" y="-7.5" font-family="Helvetica,sans-Serif" font-size="10.00" fill="#000000">_deprecated.h</text>
</a>
</g>
</g>
<!-- Node2&#45;&gt;Node5 -->
<g id="edge6" class="edge">
<title>Node2&#45;&gt;Node5</title>
<path fill="none" stroke="#191970" d="M162.8839,-67.4639C192.63,-57.499 231.8381,-44.3642 263.3923,-33.7936"/>
<polygon fill="#191970" stroke="#191970" points="264.55,-37.097 272.9203,-30.6017 262.3265,-30.4595 264.55,-37.097"/>
</g>
</g>
</svg>
