<?xml version="1.0" encoding="UTF-8" standalone="no"?>
<!DOCTYPE svg PUBLIC "-//W3C//DTD SVG 1.1//EN"
 "http://www.w3.org/Graphics/SVG/1.1/DTD/svg11.dtd">
<!-- Generated by graphviz version 2.40.1 (20161225.0304)
 -->
<!-- Title: drake/multibody/parsing/parser.h Pages: 1 -->
<svg width="866pt" height="117pt"
 viewBox="0.00 0.00 865.50 117.00" xmlns="http://www.w3.org/2000/svg" xmlns:xlink="http://www.w3.org/1999/xlink">
<g id="graph0" class="graph" transform="scale(1 1) rotate(0) translate(4 113)">
<title>drake/multibody/parsing/parser.h</title>
<polygon fill="#ffffff" stroke="transparent" points="-4,4 -4,-113 861.5,-113 861.5,4 -4,4"/>
<!-- Node189 -->
<g id="node1" class="node">
<title>Node189</title>
<polygon fill="#bfbfbf" stroke="#000000" points="387.5,-78.5 387.5,-108.5 523.5,-108.5 523.5,-78.5 387.5,-78.5"/>
<text text-anchor="start" x="395.5" y="-96.5" font-family="Helvetica,sans-Serif" font-size="10.00" fill="#000000">drake/multibody/parsing</text>
<text text-anchor="middle" x="455.5" y="-85.5" font-family="Helvetica,sans-Serif" font-size="10.00" fill="#000000">/parser.h</text>
</g>
<!-- Node190 -->
<g id="node2" class="node">
<title>Node190</title>
<g id="a_node2"><a xlink:href="multibody__tree__py_8cc.html" target="_top" xlink:title="drake/bindings/pydrake\l/multibody/multibody_tree_py.cc">
<polygon fill="#ffffff" stroke="#000000" points="0,-6 0,-36 177,-36 177,-6 0,-6"/>
<text text-anchor="start" x="8" y="-24" font-family="Helvetica,sans-Serif" font-size="10.00" fill="#000000">drake/bindings/pydrake</text>
<text text-anchor="middle" x="88.5" y="-13" font-family="Helvetica,sans-Serif" font-size="10.00" fill="#000000">/multibody/multibody_tree_py.cc</text>
</a>
</g>
</g>
<!-- Node189&#45;&gt;Node190 -->
<g id="edge1" class="edge">
<title>Node189&#45;&gt;Node190</title>
<path fill="none" stroke="#191970" d="M377.2864,-78.9947C323.5606,-68.9159 250.6363,-55.0096 186.5,-42 177.2062,-40.1148 167.4279,-38.0805 157.7927,-36.0461"/>
<polygon fill="#191970" stroke="#191970" points="376.9539,-82.4932 387.4274,-80.8944 378.2428,-75.6129 376.9539,-82.4932"/>
</g>
<!-- Node191 -->
<g id="node3" class="node">
<title>Node191</title>
<g id="a_node3"><a xlink:href="multibody_2acrobot_2run__lqr_8cc.html" target="_top" xlink:title="drake/examples/multibody\l/acrobot/run_lqr.cc">
<polygon fill="#ffffff" stroke="#000000" points="195.5,-6 195.5,-36 343.5,-36 343.5,-6 195.5,-6"/>
<text text-anchor="start" x="203.5" y="-24" font-family="Helvetica,sans-Serif" font-size="10.00" fill="#000000">drake/examples/multibody</text>
<text text-anchor="middle" x="269.5" y="-13" font-family="Helvetica,sans-Serif" font-size="10.00" fill="#000000">/acrobot/run_lqr.cc</text>
</a>
</g>
</g>
<!-- Node189&#45;&gt;Node191 -->
<g id="edge2" class="edge">
<title>Node189&#45;&gt;Node191</title>
<path fill="none" stroke="#191970" d="M407.2549,-74.6948C376.3483,-62.6478 336.7824,-47.2257 307.9899,-36.0028"/>
<polygon fill="#191970" stroke="#191970" points="406.3723,-78.1072 416.9607,-78.478 408.9146,-71.5851 406.3723,-78.1072"/>
</g>
<!-- Node192 -->
<g id="node4" class="node">
<title>Node192</title>
<g id="a_node4"><a xlink:href="multibody__plant__jacobians__test_8cc.html" target="_top" xlink:title="drake/multibody/multibody\l_tree/multibody_plant/test\l/multibody_plant_jacobians_test.cc">
<polygon fill="#ffffff" stroke="#000000" points="361.5,-.5 361.5,-41.5 549.5,-41.5 549.5,-.5 361.5,-.5"/>
<text text-anchor="start" x="369.5" y="-29.5" font-family="Helvetica,sans-Serif" font-size="10.00" fill="#000000">drake/multibody/multibody</text>
<text text-anchor="start" x="369.5" y="-18.5" font-family="Helvetica,sans-Serif" font-size="10.00" fill="#000000">_tree/multibody_plant/test</text>
<text text-anchor="middle" x="455.5" y="-7.5" font-family="Helvetica,sans-Serif" font-size="10.00" fill="#000000">/multibody_plant_jacobians_test.cc</text>
</a>
</g>
</g>
<!-- Node189&#45;&gt;Node192 -->
<g id="edge3" class="edge">
<title>Node189&#45;&gt;Node192</title>
<path fill="none" stroke="#191970" d="M455.5,-68.4016C455.5,-59.6173 455.5,-49.8652 455.5,-41.5015"/>
<polygon fill="#191970" stroke="#191970" points="452.0001,-68.4779 455.5,-78.478 459.0001,-68.478 452.0001,-68.4779"/>
</g>
<!-- Node193 -->
<g id="node5" class="node">
<title>Node193</title>
<g id="a_node5"><a xlink:href="parser_8cc.html" target="_top" xlink:title="drake/multibody/parsing\l/parser.cc">
<polygon fill="#ffffff" stroke="#000000" points="567.5,-6 567.5,-36 703.5,-36 703.5,-6 567.5,-6"/>
<text text-anchor="start" x="575.5" y="-24" font-family="Helvetica,sans-Serif" font-size="10.00" fill="#000000">drake/multibody/parsing</text>
<text text-anchor="middle" x="635.5" y="-13" font-family="Helvetica,sans-Serif" font-size="10.00" fill="#000000">/parser.cc</text>
</a>
</g>
</g>
<!-- Node189&#45;&gt;Node193 -->
<g id="edge4" class="edge">
<title>Node189&#45;&gt;Node193</title>
<path fill="none" stroke="#191970" d="M502.1888,-74.6948C532.0985,-62.6478 570.388,-47.2257 598.2517,-36.0028"/>
<polygon fill="#191970" stroke="#191970" points="500.7643,-71.4952 492.7961,-78.478 503.3796,-77.9883 500.7643,-71.4952"/>
</g>
<!-- Node194 -->
<g id="node6" class="node">
<title>Node194</title>
<g id="a_node6"><a xlink:href="parser__test_8cc.html" target="_top" xlink:title="drake/multibody/parsing\l/test/parser_test.cc">
<polygon fill="#ffffff" stroke="#000000" points="721.5,-6 721.5,-36 857.5,-36 857.5,-6 721.5,-6"/>
<text text-anchor="start" x="729.5" y="-24" font-family="Helvetica,sans-Serif" font-size="10.00" fill="#000000">drake/multibody/parsing</text>
<text text-anchor="middle" x="789.5" y="-13" font-family="Helvetica,sans-Serif" font-size="10.00" fill="#000000">/test/parser_test.cc</text>
</a>
</g>
</g>
<!-- Node189&#45;&gt;Node194 -->
<g id="edge5" class="edge">
<title>Node189&#45;&gt;Node194</title>
<path fill="none" stroke="#191970" d="M533.6667,-79.2769C584.751,-69.6275 652.8179,-56.1008 712.5,-42 720.1865,-40.184 728.2674,-38.1355 736.1861,-36.0482"/>
<polygon fill="#191970" stroke="#191970" points="532.8647,-75.8662 523.6838,-81.154 534.1584,-82.7457 532.8647,-75.8662"/>
</g>
</g>
</svg>
