<?xml version="1.0" encoding="UTF-8" standalone="no"?>
<!DOCTYPE svg PUBLIC "-//W3C//DTD SVG 1.1//EN"
 "http://www.w3.org/Graphics/SVG/1.1/DTD/svg11.dtd">
<!-- Generated by graphviz version 2.40.1 (20161225.0304)
 -->
<!-- Title: drake/multibody/parsing/parser_path_utils.cc Pages: 1 -->
<!--zoomable 240 -->
<svg id="main" version="1.1" xmlns="http://www.w3.org/2000/svg" xmlns:xlink="http://www.w3.org/1999/xlink" xml:space="preserve" onload="init(evt)">
<style type="text/css"><![CDATA[
.edge:hover path { stroke: red; }
.edge:hover polygon { stroke: red; fill: red; }
]]></style>
<script type="text/javascript"><![CDATA[
var edges = document.getElementsByTagName('g');
if (edges && edges.length) {
  for (var i=0;i<edges.length;i++) {
    if (edges[i].id.substr(0,4)=='edge') {
      edges[i].setAttribute('class','edge');
    }
  }
}
]]></script>
        <defs>
                <circle id="rim" cx="0" cy="0" r="7"/>
                <circle id="rim2" cx="0" cy="0" r="3.5"/>
                <g id="zoomPlus">
                        <use xlink:href="#rim" fill="#404040">
                                <set attributeName="fill" to="#808080" begin="zoomplus.mouseover" end="zoomplus.mouseout"/>
                        </use>
                        <path d="M-4,0h8M0,-4v8" fill="none" stroke="white" stroke-width="1.5" pointer-events="none"/>
                </g>
                <g id="zoomMin">
                        <use xlink:href="#rim" fill="#404040">
                                <set attributeName="fill" to="#808080" begin="zoomminus.mouseover" end="zoomminus.mouseout"/>
                        </use>
                        <path d="M-4,0h8" fill="none" stroke="white" stroke-width="1.5" pointer-events="none"/>
                </g>
                <g id="dirArrow">
                        <path fill="none" stroke="white" stroke-width="1.5" d="M0,-3.0v7 M-2.5,-0.5L0,-3.0L2.5,-0.5"/>
                </g>
               <g id="resetDef">
                       <use xlink:href="#rim2" fill="#404040">
                               <set attributeName="fill" to="#808080" begin="reset.mouseover" end="reset.mouseout"/>
                       </use>
               </g>
        </defs>

<script type="text/javascript">
var viewWidth = 562;
var viewHeight = 240;
var sectionId = 'dynsection-0';
</script>
<script xlink:href="svgpan.js"/>
<svg id="graph" class="graph">
<g id="viewport">
<title>drake/multibody/parsing/parser_path_utils.cc</title>
<polygon fill="#ffffff" stroke="transparent" points="-4,4 -4,-236 558.3456,-236 558.3456,4 -4,4"/>
<!-- Node0 -->
<g id="node1" class="node">
<title>Node0</title>
<polygon fill="#bfbfbf" stroke="#000000" points="167.8456,-201.5 167.8456,-231.5 303.8456,-231.5 303.8456,-201.5 167.8456,-201.5"/>
<text text-anchor="start" x="175.8456" y="-219.5" font-family="Helvetica,sans-Serif" font-size="10.00" fill="#000000">drake/multibody/parsing</text>
<text text-anchor="middle" x="235.8456" y="-208.5" font-family="Helvetica,sans-Serif" font-size="10.00" fill="#000000">/parser_path_utils.cc</text>
</g>
<!-- Node1 -->
<g id="node2" class="node">
<title>Node1</title>
<g id="a_node2"><a xlink:href="multibody_2parsing_2parser__path__utils_8h.html" target="_top" xlink:title="drake/multibody/parsing\l/parser_path_utils.h">
<polygon fill="#ffffff" stroke="#000000" points="20.8456,-134.5 20.8456,-164.5 156.8456,-164.5 156.8456,-134.5 20.8456,-134.5"/>
<text text-anchor="start" x="28.8456" y="-152.5" font-family="Helvetica,sans-Serif" font-size="10.00" fill="#000000">drake/multibody/parsing</text>
<text text-anchor="middle" x="88.8456" y="-141.5" font-family="Helvetica,sans-Serif" font-size="10.00" fill="#000000">/parser_path_utils.h</text>
</a>
</g>
</g>
<!-- Node0&#45;&gt;Node1 -->
<g id="edge1" class="edge">
<title>Node0&#45;&gt;Node1</title>
<path fill="none" stroke="#191970" d="M202.8559,-201.4639C181.6522,-191.7996 153.9073,-179.154 131.0966,-168.7572"/>
<polygon fill="#191970" stroke="#191970" points="132.5302,-165.5643 121.9791,-164.6017 129.627,-171.9339 132.5302,-165.5643"/>
</g>
<!-- Node2 -->
<g id="node3" class="node">
<title>Node2</title>
<polygon fill="#ffffff" stroke="#bfbfbf" points="37.8456,-6 37.8456,-25 81.8456,-25 81.8456,-6 37.8456,-6"/>
<text text-anchor="middle" x="59.8456" y="-13" font-family="Helvetica,sans-Serif" font-size="10.00" fill="#000000">string</text>
</g>
<!-- Node0&#45;&gt;Node2 -->
<g id="edge7" class="edge">
<title>Node0&#45;&gt;Node2</title>
<path fill="none" stroke="#191970" d="M167.7523,-210.0742C109.1615,-202.9697 31.108,-189.1935 11.8456,-165 -19.9894,-125.0153 20.554,-63.4081 44.5334,-33.2984"/>
<polygon fill="#191970" stroke="#191970" points="47.4179,-35.301 51.0648,-25.3536 42.0106,-30.8556 47.4179,-35.301"/>
</g>
<!-- Node6 -->
<g id="node7" class="node">
<title>Node6</title>
<polygon fill="#ffffff" stroke="#bfbfbf" points="175.3456,-140 175.3456,-159 222.3456,-159 222.3456,-140 175.3456,-140"/>
<text text-anchor="middle" x="198.8456" y="-147" font-family="Helvetica,sans-Serif" font-size="10.00" fill="#000000">vector</text>
</g>
<!-- Node0&#45;&gt;Node6 -->
<g id="edge8" class="edge">
<title>Node0&#45;&gt;Node6</title>
<path fill="none" stroke="#191970" d="M227.4497,-201.2967C221.9648,-191.3645 214.7705,-178.3371 208.9693,-167.8321"/>
<polygon fill="#191970" stroke="#191970" points="212.0203,-166.1169 204.1222,-159.055 205.8926,-169.5009 212.0203,-166.1169"/>
</g>
<!-- Node7 -->
<g id="node8" class="node">
<title>Node7</title>
<polygon fill="#ffffff" stroke="#bfbfbf" points="240.8456,-140 240.8456,-159 304.8456,-159 304.8456,-140 240.8456,-140"/>
<text text-anchor="middle" x="272.8456" y="-147" font-family="Helvetica,sans-Serif" font-size="10.00" fill="#000000">spruce.hh</text>
</g>
<!-- Node0&#45;&gt;Node7 -->
<g id="edge9" class="edge">
<title>Node0&#45;&gt;Node7</title>
<path fill="none" stroke="#191970" d="M244.2415,-201.2967C249.7264,-191.3645 256.9206,-178.3371 262.7219,-167.8321"/>
<polygon fill="#191970" stroke="#191970" points="265.7985,-169.5009 267.569,-159.055 259.6708,-166.1169 265.7985,-169.5009"/>
</g>
<!-- Node8 -->
<g id="node9" class="node">
<title>Node8</title>
<g id="a_node9"><a xlink:href="drake__assert_8h.html" target="_top" xlink:title="Provides Drake&#39;s assertion implementation. ">
<polygon fill="#ffffff" stroke="#000000" points="323.3456,-134.5 323.3456,-164.5 444.3456,-164.5 444.3456,-134.5 323.3456,-134.5"/>
<text text-anchor="start" x="331.3456" y="-152.5" font-family="Helvetica,sans-Serif" font-size="10.00" fill="#000000">drake/common/drake</text>
<text text-anchor="middle" x="383.8456" y="-141.5" font-family="Helvetica,sans-Serif" font-size="10.00" fill="#000000">_assert.h</text>
</a>
</g>
</g>
<!-- Node0&#45;&gt;Node8 -->
<g id="edge10" class="edge">
<title>Node0&#45;&gt;Node8</title>
<path fill="none" stroke="#191970" d="M269.0597,-201.4639C290.4076,-191.7996 318.3413,-179.154 341.3072,-168.7572"/>
<polygon fill="#191970" stroke="#191970" points="342.8201,-171.9144 350.4866,-164.6017 339.9332,-165.5374 342.8201,-171.9144"/>
</g>
<!-- Node10 -->
<g id="node11" class="node">
<title>Node10</title>
<g id="a_node11"><a xlink:href="text__logging_8h.html" target="_top" xlink:title="This is the entry point for all text logging within Drake. ">
<polygon fill="#ffffff" stroke="#000000" points="391.3456,-73 391.3456,-92 554.3456,-92 554.3456,-73 391.3456,-73"/>
<text text-anchor="middle" x="472.8456" y="-80" font-family="Helvetica,sans-Serif" font-size="10.00" fill="#000000">drake/common/text_logging.h</text>
</a>
</g>
</g>
<!-- Node0&#45;&gt;Node10 -->
<g id="edge12" class="edge">
<title>Node0&#45;&gt;Node10</title>
<path fill="none" stroke="#191970" d="M303.8603,-208.185C359.3973,-200.0216 431.9873,-185.758 452.8456,-165 469.3597,-148.5653 473.1048,-120.9681 473.5538,-102.2617"/>
<polygon fill="#191970" stroke="#191970" points="477.0535,-102.1659 473.5007,-92.1845 470.0536,-102.2029 477.0535,-102.1659"/>
</g>
<!-- Node1&#45;&gt;Node2 -->
<g id="edge2" class="edge">
<title>Node1&#45;&gt;Node2</title>
<path fill="none" stroke="#191970" d="M85.5753,-134.389C80.2895,-109.9649 69.8738,-61.8371 64.0461,-34.9095"/>
<polygon fill="#191970" stroke="#191970" points="67.4602,-34.1375 61.9241,-25.1042 60.6186,-35.6183 67.4602,-34.1375"/>
</g>
<!-- Node3 -->
<g id="node4" class="node">
<title>Node3</title>
<g id="a_node4"><a xlink:href="multibody_2parsing_2package__map_8h.html" target="_top" xlink:title="drake/multibody/parsing\l/package_map.h">
<polygon fill="#ffffff" stroke="#000000" points="87.8456,-67.5 87.8456,-97.5 223.8456,-97.5 223.8456,-67.5 87.8456,-67.5"/>
<text text-anchor="start" x="95.8456" y="-85.5" font-family="Helvetica,sans-Serif" font-size="10.00" fill="#000000">drake/multibody/parsing</text>
<text text-anchor="middle" x="155.8456" y="-74.5" font-family="Helvetica,sans-Serif" font-size="10.00" fill="#000000">/package_map.h</text>
</a>
</g>
</g>
<!-- Node1&#45;&gt;Node3 -->
<g id="edge3" class="edge">
<title>Node1&#45;&gt;Node3</title>
<path fill="none" stroke="#191970" d="M104.0489,-134.2967C112.7866,-125.559 123.9199,-114.4257 133.6238,-104.7218"/>
<polygon fill="#191970" stroke="#191970" points="136.1062,-107.1892 140.7024,-97.6432 131.1564,-102.2394 136.1062,-107.1892"/>
</g>
<!-- Node3&#45;&gt;Node2 -->
<g id="edge5" class="edge">
<title>Node3&#45;&gt;Node2</title>
<path fill="none" stroke="#191970" d="M134.0617,-67.2967C118.5236,-56.4524 97.6985,-41.9182 82.0632,-31.006"/>
<polygon fill="#191970" stroke="#191970" points="83.7398,-27.908 73.5363,-25.055 79.7335,-33.6483 83.7398,-27.908"/>
</g>
<!-- Node4 -->
<g id="node5" class="node">
<title>Node4</title>
<polygon fill="#ffffff" stroke="#bfbfbf" points="136.8456,-6 136.8456,-25 174.8456,-25 174.8456,-6 136.8456,-6"/>
<text text-anchor="middle" x="155.8456" y="-13" font-family="Helvetica,sans-Serif" font-size="10.00" fill="#000000">map</text>
</g>
<!-- Node3&#45;&gt;Node4 -->
<g id="edge4" class="edge">
<title>Node3&#45;&gt;Node4</title>
<path fill="none" stroke="#191970" d="M155.8456,-67.2967C155.8456,-57.7699 155.8456,-45.3954 155.8456,-35.1306"/>
<polygon fill="#191970" stroke="#191970" points="159.3457,-35.0549 155.8456,-25.055 152.3457,-35.055 159.3457,-35.0549"/>
</g>
<!-- Node5 -->
<g id="node6" class="node">
<title>Node5</title>
<g id="a_node6"><a xlink:href="drake__copyable_8h.html" target="_top" xlink:title="Provides careful macros to selectively enable or disable the special member functions for copy&#45;constr...">
<polygon fill="#ffffff" stroke="#000000" points="302.3456,-.5 302.3456,-30.5 423.3456,-30.5 423.3456,-.5 302.3456,-.5"/>
<text text-anchor="start" x="310.3456" y="-18.5" font-family="Helvetica,sans-Serif" font-size="10.00" fill="#000000">drake/common/drake</text>
<text text-anchor="middle" x="362.8456" y="-7.5" font-family="Helvetica,sans-Serif" font-size="10.00" fill="#000000">_copyable.h</text>
</a>
</g>
</g>
<!-- Node3&#45;&gt;Node5 -->
<g id="edge6" class="edge">
<title>Node3&#45;&gt;Node5</title>
<path fill="none" stroke="#191970" d="M202.3004,-67.4639C233.0876,-57.499 273.668,-44.3642 306.3266,-33.7936"/>
<polygon fill="#191970" stroke="#191970" points="307.7519,-37.0111 316.1881,-30.6017 305.5963,-30.3513 307.7519,-37.0111"/>
</g>
<!-- Node9 -->
<g id="node10" class="node">
<title>Node9</title>
<polygon fill="#ffffff" stroke="#bfbfbf" points="304.3456,-73 304.3456,-92 373.3456,-92 373.3456,-73 304.3456,-73"/>
<text text-anchor="middle" x="338.8456" y="-80" font-family="Helvetica,sans-Serif" font-size="10.00" fill="#000000">type_traits</text>
</g>
<!-- Node8&#45;&gt;Node9 -->
<g id="edge11" class="edge">
<title>Node8&#45;&gt;Node9</title>
<path fill="none" stroke="#191970" d="M373.6344,-134.2967C366.8955,-124.2631 358.035,-111.0709 350.9427,-100.5113"/>
<polygon fill="#191970" stroke="#191970" points="353.7442,-98.4049 345.2631,-92.055 347.9332,-102.3078 353.7442,-98.4049"/>
</g>
<!-- Node10&#45;&gt;Node5 -->
<g id="edge13" class="edge">
<title>Node10&#45;&gt;Node5</title>
<path fill="none" stroke="#191970" d="M457.0853,-72.9005C441.2503,-63.2556 416.3604,-48.0954 396.1359,-35.7768"/>
<polygon fill="#191970" stroke="#191970" points="397.8694,-32.7346 387.5082,-30.5218 394.228,-38.7129 397.8694,-32.7346"/>
</g>
</g>
</svg>
        <g id="navigator" transform="translate(0 0)" fill="#404254">
                <rect fill="#f2f5e9" fill-opacity="0.5" stroke="#606060" stroke-width=".5" x="0" y="0" width="60" height="60"/>
                <use id="zoomplus" xlink:href="#zoomPlus" x="17" y="9" onmousedown="handleZoom(evt,'in')"/>
                <use id="zoomminus" xlink:href="#zoomMin" x="42" y="9" onmousedown="handleZoom(evt,'out')"/>
                <use id="reset" xlink:href="#resetDef" x="30" y="36" onmousedown="handleReset()"/>
                <g id="arrowUp" xlink:href="#dirArrow" transform="translate(30 24)" onmousedown="handlePan(0,-1)">
                  <use xlink:href="#rim" fill="#404040">
                        <set attributeName="fill" to="#808080" begin="arrowUp.mouseover" end="arrowUp.mouseout"/>
                  </use>
                  <path fill="none" stroke="white" stroke-width="1.5" d="M0,-3.0v7 M-2.5,-0.5L0,-3.0L2.5,-0.5"/>
                </g>
                <g id="arrowRight" xlink:href="#dirArrow" transform="rotate(90) translate(36 -43)" onmousedown="handlePan(1,0)">
                  <use xlink:href="#rim" fill="#404040">
                        <set attributeName="fill" to="#808080" begin="arrowRight.mouseover" end="arrowRight.mouseout"/>
                  </use>
                  <path fill="none" stroke="white" stroke-width="1.5" d="M0,-3.0v7 M-2.5,-0.5L0,-3.0L2.5,-0.5"/>
                </g>
                <g id="arrowDown" xlink:href="#dirArrow" transform="rotate(180) translate(-30 -48)" onmousedown="handlePan(0,1)">
                  <use xlink:href="#rim" fill="#404040">
                        <set attributeName="fill" to="#808080" begin="arrowDown.mouseover" end="arrowDown.mouseout"/>
                  </use>
                  <path fill="none" stroke="white" stroke-width="1.5" d="M0,-3.0v7 M-2.5,-0.5L0,-3.0L2.5,-0.5"/>
                </g>
                <g id="arrowLeft" xlink:href="#dirArrow" transform="rotate(270) translate(-36 17)" onmousedown="handlePan(-1,0)">
                  <use xlink:href="#rim" fill="#404040">
                        <set attributeName="fill" to="#808080" begin="arrowLeft.mouseover" end="arrowLeft.mouseout"/>
                  </use>
                  <path fill="none" stroke="white" stroke-width="1.5" d="M0,-3.0v7 M-2.5,-0.5L0,-3.0L2.5,-0.5"/>
                </g>
        </g>
        <svg viewBox="0 0 15 15" width="100%" height="30px" preserveAspectRatio="xMaxYMin meet">
         <g id="arrow_out" transform="scale(0.3 0.3)">
          <a xlink:href="parser__path__utils_8cc__incl_org.svg" target="_base">
           <rect id="button" ry="5" rx="5" y="6" x="6" height="38" width="38"
                fill="#f2f5e9" fill-opacity="0.5" stroke="#606060" stroke-width="1.0"/>
           <path id="arrow"
             d="M 11.500037,31.436501 C 11.940474,20.09759 22.043105,11.32322 32.158766,21.979434 L 37.068811,17.246167 C 37.068811,17.246167 37.088388,32 37.088388,32 L 22.160133,31.978069 C 22.160133,31.978069 26.997745,27.140456 26.997745,27.140456 C 18.528582,18.264221 13.291696,25.230495 11.500037,31.436501 z"
             style="fill:#404040;"/>
          </a>
         </g>
        </svg>
</svg>
