<?xml version="1.0" encoding="UTF-8" standalone="no"?>
<!DOCTYPE svg PUBLIC "-//W3C//DTD SVG 1.1//EN"
 "http://www.w3.org/Graphics/SVG/1.1/DTD/svg11.dtd">
<!-- Generated by graphviz version 2.40.1 (20161225.0304)
 -->
<!-- Title: drake/common/trajectories/piecewise_polynomial.cc Pages: 1 -->
<svg width="1518pt" height="441pt"
 viewBox="0.00 0.00 1517.50 441.00" xmlns="http://www.w3.org/2000/svg" xmlns:xlink="http://www.w3.org/1999/xlink">
<g id="graph0" class="graph" transform="scale(1 1) rotate(0) translate(4 437)">
<title>drake/common/trajectories/piecewise_polynomial.cc</title>
<polygon fill="#ffffff" stroke="transparent" points="-4,4 -4,-437 1513.5,-437 1513.5,4 -4,4"/>
<!-- Node0 -->
<g id="node1" class="node">
<title>Node0</title>
<polygon fill="#bfbfbf" stroke="#000000" points="1285.5,-402.5 1285.5,-432.5 1434.5,-432.5 1434.5,-402.5 1285.5,-402.5"/>
<text text-anchor="start" x="1293.5" y="-420.5" font-family="Helvetica,sans-Serif" font-size="10.00" fill="#000000">drake/common/trajectories</text>
<text text-anchor="middle" x="1360" y="-409.5" font-family="Helvetica,sans-Serif" font-size="10.00" fill="#000000">/piecewise_polynomial.cc</text>
</g>
<!-- Node1 -->
<g id="node2" class="node">
<title>Node1</title>
<g id="a_node2"><a xlink:href="piecewise__polynomial_8h.html" target="_top" xlink:title="drake/common/trajectories\l/piecewise_polynomial.h">
<polygon fill="#ffffff" stroke="#000000" points="383.5,-335.5 383.5,-365.5 532.5,-365.5 532.5,-335.5 383.5,-335.5"/>
<text text-anchor="start" x="391.5" y="-353.5" font-family="Helvetica,sans-Serif" font-size="10.00" fill="#000000">drake/common/trajectories</text>
<text text-anchor="middle" x="458" y="-342.5" font-family="Helvetica,sans-Serif" font-size="10.00" fill="#000000">/piecewise_polynomial.h</text>
</a>
</g>
</g>
<!-- Node0&#45;&gt;Node1 -->
<g id="edge1" class="edge">
<title>Node0&#45;&gt;Node1</title>
<path fill="none" stroke="#191970" d="M1285.4182,-411.9601C1119.0538,-399.6027 718.4827,-369.8485 542.8911,-356.8057"/>
<polygon fill="#191970" stroke="#191970" points="542.9008,-353.2968 532.669,-356.0464 542.3822,-360.2776 542.9008,-353.2968"/>
</g>
<!-- Node3 -->
<g id="node4" class="node">
<title>Node3</title>
<polygon fill="#ffffff" stroke="#bfbfbf" points="85,-6 85,-25 143,-25 143,-6 85,-6"/>
<text text-anchor="middle" x="114" y="-13" font-family="Helvetica,sans-Serif" font-size="10.00" fill="#000000">memory</text>
</g>
<!-- Node0&#45;&gt;Node3 -->
<g id="edge58" class="edge">
<title>Node0&#45;&gt;Node3</title>
<path fill="none" stroke="#191970" d="M1285.2304,-415.086C1086.9443,-408.4448 550.8602,-388.869 375,-366 205.7725,-343.9935 0,-454.1523 0,-283.5 0,-283.5 0,-283.5 0,-149.5 0,-95.6166 54.1366,-52.3629 87.7969,-30.6769"/>
<polygon fill="#191970" stroke="#191970" points="90.0474,-33.3987 96.6859,-25.1414 86.3471,-27.4567 90.0474,-33.3987"/>
</g>
<!-- Node30 -->
<g id="node31" class="node">
<title>Node30</title>
<g id="a_node31"><a xlink:href="drake__assert_8h.html" target="_top" xlink:title="Provides Drake&#39;s assertion implementation. ">
<polygon fill="#ffffff" stroke="#000000" points="1365.5,-67.5 1365.5,-97.5 1486.5,-97.5 1486.5,-67.5 1365.5,-67.5"/>
<text text-anchor="start" x="1373.5" y="-85.5" font-family="Helvetica,sans-Serif" font-size="10.00" fill="#000000">drake/common/drake</text>
<text text-anchor="middle" x="1426" y="-74.5" font-family="Helvetica,sans-Serif" font-size="10.00" fill="#000000">_assert.h</text>
</a>
</g>
</g>
<!-- Node0&#45;&gt;Node30 -->
<g id="edge59" class="edge">
<title>Node0&#45;&gt;Node30</title>
<path fill="none" stroke="#191970" d="M1360,-402.2271C1360,-377.3518 1360,-326.5382 1360,-283.5 1360,-283.5 1360,-283.5 1360,-216.5 1360,-178.7713 1362.4626,-167.405 1380,-134 1385.5464,-123.4353 1393.7334,-113.3008 1401.6692,-104.859"/>
<polygon fill="#191970" stroke="#191970" points="1404.2781,-107.198 1408.8038,-97.6183 1399.292,-102.2849 1404.2781,-107.198"/>
</g>
<!-- Node34 -->
<g id="node35" class="node">
<title>Node34</title>
<polygon fill="#ffffff" stroke="#bfbfbf" points="1426,-341 1426,-360 1490,-360 1490,-341 1426,-341"/>
<text text-anchor="middle" x="1458" y="-348" font-family="Helvetica,sans-Serif" font-size="10.00" fill="#000000">algorithm</text>
</g>
<!-- Node0&#45;&gt;Node34 -->
<g id="edge57" class="edge">
<title>Node0&#45;&gt;Node34</title>
<path fill="none" stroke="#191970" d="M1382.2377,-402.2967C1398.2478,-391.351 1419.7563,-376.6462 1435.7656,-365.701"/>
<polygon fill="#191970" stroke="#191970" points="1437.7443,-368.5881 1444.0241,-360.055 1433.7936,-362.8095 1437.7443,-368.5881"/>
</g>
<!-- Node35 -->
<g id="node36" class="node">
<title>Node35</title>
<g id="a_node36"><a xlink:href="drake__throw_8h.html" target="_top" xlink:title="Provides a convenient wrapper to throw an exception when a condition is unmet. ">
<polygon fill="#ffffff" stroke="#000000" points="1388.5,-134.5 1388.5,-164.5 1509.5,-164.5 1509.5,-134.5 1388.5,-134.5"/>
<text text-anchor="start" x="1396.5" y="-152.5" font-family="Helvetica,sans-Serif" font-size="10.00" fill="#000000">drake/common/drake</text>
<text text-anchor="middle" x="1449" y="-141.5" font-family="Helvetica,sans-Serif" font-size="10.00" fill="#000000">_throw.h</text>
</a>
</g>
</g>
<!-- Node0&#45;&gt;Node35 -->
<g id="edge60" class="edge">
<title>Node0&#45;&gt;Node35</title>
<path fill="none" stroke="#191970" d="M1365.04,-402.3233C1379.7565,-358.0084 1422.7648,-228.5005 1440.8445,-174.0582"/>
<polygon fill="#191970" stroke="#191970" points="1444.1852,-175.1037 1444.0152,-164.5103 1437.5419,-172.8975 1444.1852,-175.1037"/>
</g>
<!-- Node2 -->
<g id="node3" class="node">
<title>Node2</title>
<polygon fill="#ffffff" stroke="#bfbfbf" points="952,-6 952,-25 996,-25 996,-6 952,-6"/>
<text text-anchor="middle" x="974" y="-13" font-family="Helvetica,sans-Serif" font-size="10.00" fill="#000000">limits</text>
</g>
<!-- Node1&#45;&gt;Node2 -->
<g id="edge2" class="edge">
<title>Node1&#45;&gt;Node2</title>
<path fill="none" stroke="#191970" d="M497.4107,-335.3912C541.8531,-315.4759 608,-275.8633 608,-216.5 608,-216.5 608,-216.5 608,-149.5 608,-91.8827 655.8835,-91.5687 708,-67 786.4509,-30.0169 889.8841,-19.5918 941.615,-16.6533"/>
<polygon fill="#191970" stroke="#191970" points="942.0322,-20.1367 951.8414,-16.133 941.6765,-13.1457 942.0322,-20.1367"/>
</g>
<!-- Node1&#45;&gt;Node3 -->
<g id="edge3" class="edge">
<title>Node1&#45;&gt;Node3</title>
<path fill="none" stroke="#191970" d="M383.3985,-346.1567C293.6883,-339.8272 149.3781,-325.7875 103,-299 62.5782,-275.6528 38,-263.1799 38,-216.5 38,-216.5 38,-216.5 38,-149.5 38,-102.1632 74.328,-56.2294 96.7515,-32.3856"/>
<polygon fill="#191970" stroke="#191970" points="99.2961,-34.7892 103.7503,-25.1761 94.2735,-29.9133 99.2961,-34.7892"/>
</g>
<!-- Node4 -->
<g id="node5" class="node">
<title>Node4</title>
<polygon fill="#ffffff" stroke="#bfbfbf" points="384.5,-207 384.5,-226 431.5,-226 431.5,-207 384.5,-207"/>
<text text-anchor="middle" x="408" y="-214" font-family="Helvetica,sans-Serif" font-size="10.00" fill="#000000">vector</text>
</g>
<!-- Node1&#45;&gt;Node4 -->
<g id="edge4" class="edge">
<title>Node1&#45;&gt;Node4</title>
<path fill="none" stroke="#191970" d="M456.2822,-335.4409C454.0009,-318.5446 449.1483,-290.5504 440,-268 435.202,-256.1729 427.7704,-243.9963 421.2764,-234.4545"/>
<polygon fill="#191970" stroke="#191970" points="424.0819,-232.3597 415.4539,-226.2108 418.3642,-236.3981 424.0819,-232.3597"/>
</g>
<!-- Node5 -->
<g id="node6" class="node">
<title>Node5</title>
<polygon fill="#ffffff" stroke="#bfbfbf" points="497.5,-140 497.5,-159 566.5,-159 566.5,-140 497.5,-140"/>
<text text-anchor="middle" x="532" y="-147" font-family="Helvetica,sans-Serif" font-size="10.00" fill="#000000">Eigen/Core</text>
</g>
<!-- Node1&#45;&gt;Node5 -->
<g id="edge5" class="edge">
<title>Node1&#45;&gt;Node5</title>
<path fill="none" stroke="#191970" d="M466.3589,-335.2099C478.1857,-313.0368 499.8269,-270.4022 513,-232 520.1297,-211.2156 525.4118,-186.5711 528.5728,-169.6632"/>
<polygon fill="#191970" stroke="#191970" points="532.1045,-169.7963 530.419,-159.3364 525.2137,-168.5644 532.1045,-169.7963"/>
</g>
<!-- Node6 -->
<g id="node7" class="node">
<title>Node6</title>
<g id="a_node7"><a xlink:href="drake__copyable_8h.html" target="_top" xlink:title="Provides careful macros to selectively enable or disable the special member functions for copy&#45;constr...">
<polygon fill="#ffffff" stroke="#000000" points="164.5,-.5 164.5,-30.5 285.5,-30.5 285.5,-.5 164.5,-.5"/>
<text text-anchor="start" x="172.5" y="-18.5" font-family="Helvetica,sans-Serif" font-size="10.00" fill="#000000">drake/common/drake</text>
<text text-anchor="middle" x="225" y="-7.5" font-family="Helvetica,sans-Serif" font-size="10.00" fill="#000000">_copyable.h</text>
</a>
</g>
</g>
<!-- Node1&#45;&gt;Node6 -->
<g id="edge6" class="edge">
<title>Node1&#45;&gt;Node6</title>
<path fill="none" stroke="#191970" d="M383.3918,-343.8536C329.8845,-337.1785 256.9608,-324.1122 197,-299 136.9643,-273.8563 76,-281.5884 76,-216.5 76,-216.5 76,-216.5 76,-149.5 76,-94.2374 133.3657,-55.9637 176.9077,-34.8724"/>
<polygon fill="#191970" stroke="#191970" points="178.6655,-37.9143 186.241,-30.5073 175.6999,-31.5735 178.6655,-37.9143"/>
</g>
<!-- Node7 -->
<g id="node8" class="node">
<title>Node7</title>
<g id="a_node8"><a xlink:href="eigen__types_8h.html" target="_top" xlink:title="This file contains abbreviated definitions for certain specializations of Eigen::Matrix that are comm...">
<polygon fill="#ffffff" stroke="#000000" points="256,-67.5 256,-97.5 376,-97.5 376,-67.5 256,-67.5"/>
<text text-anchor="start" x="264" y="-85.5" font-family="Helvetica,sans-Serif" font-size="10.00" fill="#000000">drake/common/eigen</text>
<text text-anchor="middle" x="316" y="-74.5" font-family="Helvetica,sans-Serif" font-size="10.00" fill="#000000">_types.h</text>
</a>
</g>
</g>
<!-- Node1&#45;&gt;Node7 -->
<g id="edge7" class="edge">
<title>Node1&#45;&gt;Node7</title>
<path fill="none" stroke="#191970" d="M384.1228,-335.489C349.4974,-327.0668 308.2117,-314.9933 273,-299 223.6166,-276.5699 196.7558,-279.7333 171,-232 141.278,-176.9161 218.052,-127.9696 270.8876,-102.047"/>
<polygon fill="#191970" stroke="#191970" points="272.6078,-105.104 280.1175,-97.6304 269.5862,-98.7897 272.6078,-105.104"/>
</g>
<!-- Node10 -->
<g id="node11" class="node">
<title>Node10</title>
<g id="a_node11"><a xlink:href="polynomial_8h.html" target="_top" xlink:title="drake/common/polynomial.h">
<polygon fill="#ffffff" stroke="#000000" points="680.5,-274 680.5,-293 837.5,-293 837.5,-274 680.5,-274"/>
<text text-anchor="middle" x="759" y="-281" font-family="Helvetica,sans-Serif" font-size="10.00" fill="#000000">drake/common/polynomial.h</text>
</a>
</g>
</g>
<!-- Node1&#45;&gt;Node10 -->
<g id="edge12" class="edge">
<title>Node1&#45;&gt;Node10</title>
<path fill="none" stroke="#191970" d="M525.5503,-335.4639C580.1975,-323.2999 656.064,-306.4127 706.2956,-295.2315"/>
<polygon fill="#191970" stroke="#191970" points="707.2965,-298.5945 716.2971,-293.0053 705.7756,-291.7617 707.2965,-298.5945"/>
</g>
<!-- Node32 -->
<g id="node33" class="node">
<title>Node32</title>
<g id="a_node33"><a xlink:href="piecewise__trajectory_8h.html" target="_top" xlink:title="drake/common/trajectories\l/piecewise_trajectory.h">
<polygon fill="#ffffff" stroke="#000000" points="281.5,-268.5 281.5,-298.5 430.5,-298.5 430.5,-268.5 281.5,-268.5"/>
<text text-anchor="start" x="289.5" y="-286.5" font-family="Helvetica,sans-Serif" font-size="10.00" fill="#000000">drake/common/trajectories</text>
<text text-anchor="middle" x="356" y="-275.5" font-family="Helvetica,sans-Serif" font-size="10.00" fill="#000000">/piecewise_trajectory.h</text>
</a>
</g>
</g>
<!-- Node1&#45;&gt;Node32 -->
<g id="edge47" class="edge">
<title>Node1&#45;&gt;Node32</title>
<path fill="none" stroke="#191970" d="M435.1092,-335.4639C421.1648,-326.3044 403.1433,-314.4667 387.8238,-304.4038"/>
<polygon fill="#191970" stroke="#191970" points="389.447,-301.2826 379.1673,-298.7177 385.6039,-307.1333 389.447,-301.2826"/>
</g>
<!-- Node7&#45;&gt;Node3 -->
<g id="edge8" class="edge">
<title>Node7&#45;&gt;Node3</title>
<path fill="none" stroke="#191970" d="M267.5129,-67.4776C235.6956,-57.4762 193.2374,-43.8577 156,-31 153.6215,-30.1787 151.1729,-29.3173 148.7099,-28.439"/>
<polygon fill="#191970" stroke="#191970" points="149.8514,-25.13 139.2572,-25.017 147.4686,-31.712 149.8514,-25.13"/>
</g>
<!-- Node7&#45;&gt;Node6 -->
<g id="edge11" class="edge">
<title>Node7&#45;&gt;Node6</title>
<path fill="none" stroke="#191970" d="M295.3507,-67.2967C283.0177,-58.2163 267.1708,-46.5488 253.6406,-36.587"/>
<polygon fill="#191970" stroke="#191970" points="255.6955,-33.7537 245.5676,-30.6432 251.5452,-39.3907 255.6955,-33.7537"/>
</g>
<!-- Node8 -->
<g id="node9" class="node">
<title>Node8</title>
<polygon fill="#ffffff" stroke="#bfbfbf" points="531.5,-6 531.5,-25 608.5,-25 608.5,-6 531.5,-6"/>
<text text-anchor="middle" x="570" y="-13" font-family="Helvetica,sans-Serif" font-size="10.00" fill="#000000">Eigen/Dense</text>
</g>
<!-- Node7&#45;&gt;Node8 -->
<g id="edge9" class="edge">
<title>Node7&#45;&gt;Node8</title>
<path fill="none" stroke="#191970" d="M373.0026,-67.4639C418.6355,-55.4269 481.8025,-38.7647 524.1908,-27.5835"/>
<polygon fill="#191970" stroke="#191970" points="525.1885,-30.9402 533.965,-25.0053 523.403,-24.1717 525.1885,-30.9402"/>
</g>
<!-- Node9 -->
<g id="node10" class="node">
<title>Node9</title>
<g id="a_node10"><a xlink:href="constants_8h.html" target="_top" xlink:title="drake/common/constants.h">
<polygon fill="#ffffff" stroke="#000000" points="303.5,-6 303.5,-25 452.5,-25 452.5,-6 303.5,-6"/>
<text text-anchor="middle" x="378" y="-13" font-family="Helvetica,sans-Serif" font-size="10.00" fill="#000000">drake/common/constants.h</text>
</a>
</g>
</g>
<!-- Node7&#45;&gt;Node9 -->
<g id="edge10" class="edge">
<title>Node7&#45;&gt;Node9</title>
<path fill="none" stroke="#191970" d="M330.0688,-67.2967C339.6349,-56.9591 352.3038,-43.2684 362.2143,-32.5588"/>
<polygon fill="#191970" stroke="#191970" points="364.935,-34.7718 369.1581,-25.055 359.7973,-30.0175 364.935,-34.7718"/>
</g>
<!-- Node10&#45;&gt;Node4 -->
<g id="edge19" class="edge">
<title>Node10&#45;&gt;Node4</title>
<path fill="none" stroke="#191970" d="M680.1747,-276.8948C614.9608,-269.9762 520.4808,-256.5718 441,-232 439.1405,-231.4251 437.2515,-230.7647 435.3671,-230.0476"/>
<polygon fill="#191970" stroke="#191970" points="436.7113,-226.816 426.1391,-226.1232 433.9718,-233.2577 436.7113,-226.816"/>
</g>
<!-- Node10&#45;&gt;Node5 -->
<g id="edge20" class="edge">
<title>Node10&#45;&gt;Node5</title>
<path fill="none" stroke="#191970" d="M726.0954,-273.9657C698.713,-265.2502 659.2933,-250.8536 628,-232 597.149,-213.4129 566.4517,-184.8097 548.3569,-166.6342"/>
<polygon fill="#191970" stroke="#191970" points="550.4703,-163.7897 540.9746,-159.0906 545.4674,-168.6857 550.4703,-163.7897"/>
</g>
<!-- Node11 -->
<g id="node12" class="node">
<title>Node11</title>
<polygon fill="#ffffff" stroke="#bfbfbf" points="636.5,-207 636.5,-226 695.5,-226 695.5,-207 636.5,-207"/>
<text text-anchor="middle" x="666" y="-214" font-family="Helvetica,sans-Serif" font-size="10.00" fill="#000000">complex</text>
</g>
<!-- Node10&#45;&gt;Node11 -->
<g id="edge13" class="edge">
<title>Node10&#45;&gt;Node11</title>
<path fill="none" stroke="#191970" d="M745.6754,-273.9005C730.4822,-262.9549 705.4297,-244.9064 687.4716,-231.9688"/>
<polygon fill="#191970" stroke="#191970" points="689.4595,-229.0872 679.2999,-226.0817 685.3677,-234.7668 689.4595,-229.0872"/>
</g>
<!-- Node12 -->
<g id="node13" class="node">
<title>Node12</title>
<polygon fill="#ffffff" stroke="#bfbfbf" points="714,-207 714,-226 752,-226 752,-207 714,-207"/>
<text text-anchor="middle" x="733" y="-214" font-family="Helvetica,sans-Serif" font-size="10.00" fill="#000000">map</text>
</g>
<!-- Node10&#45;&gt;Node12 -->
<g id="edge14" class="edge">
<title>Node10&#45;&gt;Node12</title>
<path fill="none" stroke="#191970" d="M755.2748,-273.9005C751.4134,-263.95 745.274,-248.1292 740.4177,-235.6147"/>
<polygon fill="#191970" stroke="#191970" points="743.599,-234.1381 736.7183,-226.0817 737.0731,-236.6706 743.599,-234.1381"/>
</g>
<!-- Node13 -->
<g id="node14" class="node">
<title>Node13</title>
<polygon fill="#ffffff" stroke="#bfbfbf" points="450,-207 450,-226 504,-226 504,-207 450,-207"/>
<text text-anchor="middle" x="477" y="-214" font-family="Helvetica,sans-Serif" font-size="10.00" fill="#000000">random</text>
</g>
<!-- Node10&#45;&gt;Node13 -->
<g id="edge15" class="edge">
<title>Node10&#45;&gt;Node13</title>
<path fill="none" stroke="#191970" d="M718.8958,-273.9717C664.2964,-260.9995 567.3099,-237.9566 514.2407,-225.348"/>
<polygon fill="#191970" stroke="#191970" points="514.7762,-221.8778 504.2379,-222.9714 513.158,-228.6883 514.7762,-221.8778"/>
</g>
<!-- Node14 -->
<g id="node15" class="node">
<title>Node14</title>
<polygon fill="#ffffff" stroke="#bfbfbf" points="770,-207 770,-226 802,-226 802,-207 770,-207"/>
<text text-anchor="middle" x="786" y="-214" font-family="Helvetica,sans-Serif" font-size="10.00" fill="#000000">set</text>
</g>
<!-- Node10&#45;&gt;Node14 -->
<g id="edge16" class="edge">
<title>Node10&#45;&gt;Node14</title>
<path fill="none" stroke="#191970" d="M762.8684,-273.9005C766.8784,-263.95 773.2539,-248.1292 778.297,-235.6147"/>
<polygon fill="#191970" stroke="#191970" points="781.6472,-236.6651 782.1387,-226.0817 775.1546,-234.0486 781.6472,-236.6651"/>
</g>
<!-- Node15 -->
<g id="node16" class="node">
<title>Node15</title>
<polygon fill="#ffffff" stroke="#bfbfbf" points="820.5,-207 820.5,-226 885.5,-226 885.5,-207 820.5,-207"/>
<text text-anchor="middle" x="853" y="-214" font-family="Helvetica,sans-Serif" font-size="10.00" fill="#000000">stdexcept</text>
</g>
<!-- Node10&#45;&gt;Node15 -->
<g id="edge17" class="edge">
<title>Node10&#45;&gt;Node15</title>
<path fill="none" stroke="#191970" d="M772.4679,-273.9005C787.8244,-262.9549 813.1463,-244.9064 831.2976,-231.9688"/>
<polygon fill="#191970" stroke="#191970" points="833.4454,-234.736 839.5571,-226.0817 829.3824,-229.0358 833.4454,-234.736"/>
</g>
<!-- Node16 -->
<g id="node17" class="node">
<title>Node16</title>
<polygon fill="#ffffff" stroke="#bfbfbf" points="904,-207 904,-226 948,-226 948,-207 904,-207"/>
<text text-anchor="middle" x="926" y="-214" font-family="Helvetica,sans-Serif" font-size="10.00" fill="#000000">string</text>
</g>
<!-- Node10&#45;&gt;Node16 -->
<g id="edge18" class="edge">
<title>Node10&#45;&gt;Node16</title>
<path fill="none" stroke="#191970" d="M786.6811,-273.9504C814.3975,-264.1716 858.1135,-248.1558 895,-232 896.0197,-231.5534 897.0539,-231.0904 898.0951,-230.6157"/>
<polygon fill="#191970" stroke="#191970" points="899.9357,-233.6158 907.4578,-226.1546 896.9246,-227.2965 899.9357,-233.6158"/>
</g>
<!-- Node17 -->
<g id="node18" class="node">
<title>Node17</title>
<polygon fill="#ffffff" stroke="#bfbfbf" points="966,-207 966,-226 1136,-226 1136,-207 966,-207"/>
<text text-anchor="middle" x="1051" y="-214" font-family="Helvetica,sans-Serif" font-size="10.00" fill="#000000">unsupported/Eigen/Polynomials</text>
</g>
<!-- Node10&#45;&gt;Node17 -->
<g id="edge21" class="edge">
<title>Node10&#45;&gt;Node17</title>
<path fill="none" stroke="#191970" d="M800.5264,-273.9717C852.8107,-261.975 942.6326,-241.3651 999.3091,-228.3606"/>
<polygon fill="#191970" stroke="#191970" points="1000.1802,-231.7518 1009.1441,-226.1039 998.6146,-224.929 1000.1802,-231.7518"/>
</g>
<!-- Node18 -->
<g id="node19" class="node">
<title>Node18</title>
<g id="a_node19"><a xlink:href="common_2autodiff_8h.html" target="_top" xlink:title="drake/common/autodiff.h">
<polygon fill="#ffffff" stroke="#000000" points="1154,-207 1154,-226 1294,-226 1294,-207 1154,-207"/>
<text text-anchor="middle" x="1224" y="-214" font-family="Helvetica,sans-Serif" font-size="10.00" fill="#000000">drake/common/autodiff.h</text>
</a>
</g>
</g>
<!-- Node10&#45;&gt;Node18 -->
<g id="edge22" class="edge">
<title>Node10&#45;&gt;Node18</title>
<path fill="none" stroke="#191970" d="M837.573,-274.4437C915.7179,-265.1013 1038.9319,-249.4644 1145,-232 1152.3836,-230.7843 1160.1342,-229.3991 1167.7753,-227.9685"/>
<polygon fill="#191970" stroke="#191970" points="1168.55,-231.3839 1177.7171,-226.0722 1167.2384,-224.5079 1168.55,-231.3839"/>
</g>
<!-- Node10&#45;&gt;Node30 -->
<g id="edge46" class="edge">
<title>Node10&#45;&gt;Node30</title>
<path fill="none" stroke="#191970" d="M837.6336,-280.4305C979.2957,-274.2652 1266.1427,-258.6397 1303,-232 1341.5488,-204.1377 1315.1352,-170.1896 1346,-134 1356.6391,-121.5254 1371.0546,-110.9822 1384.7187,-102.748"/>
<polygon fill="#191970" stroke="#191970" points="1386.6186,-105.6929 1393.5422,-97.6733 1383.1287,-99.6249 1386.6186,-105.6929"/>
</g>
<!-- Node18&#45;&gt;Node5 -->
<g id="edge23" class="edge">
<title>Node18&#45;&gt;Node5</title>
<path fill="none" stroke="#191970" d="M1180.6972,-206.9971C1169.1456,-204.7384 1156.639,-202.5402 1145,-201 916.2169,-170.7255 856.2383,-191.6093 627,-165 610.5235,-163.0875 592.5423,-160.3279 576.7001,-157.6656"/>
<polygon fill="#191970" stroke="#191970" points="577.0834,-154.1803 566.6357,-155.94 575.9004,-161.0796 577.0834,-154.1803"/>
</g>
<!-- Node19 -->
<g id="node20" class="node">
<title>Node19</title>
<polygon fill="#ffffff" stroke="#bfbfbf" points="950.5,-140 950.5,-159 1101.5,-159 1101.5,-140 950.5,-140"/>
<text text-anchor="middle" x="1026" y="-147" font-family="Helvetica,sans-Serif" font-size="10.00" fill="#000000">unsupported/Eigen/AutoDiff</text>
</g>
<!-- Node18&#45;&gt;Node19 -->
<g id="edge24" class="edge">
<title>Node18&#45;&gt;Node19</title>
<path fill="none" stroke="#191970" d="M1195.6314,-206.9005C1161.0793,-195.2086 1102.5763,-175.4122 1064.1153,-162.3976"/>
<polygon fill="#191970" stroke="#191970" points="1064.9102,-158.9717 1054.3159,-159.0817 1062.6665,-165.6024 1064.9102,-158.9717"/>
</g>
<!-- Node20 -->
<g id="node21" class="node">
<title>Node20</title>
<g id="a_node21"><a xlink:href="eigen__autodiff__limits_8h.html" target="_top" xlink:title="drake/common/eigen\l_autodiff_limits.h">
<polygon fill="#ffffff" stroke="#000000" points="857,-67.5 857,-97.5 977,-97.5 977,-67.5 857,-67.5"/>
<text text-anchor="start" x="865" y="-85.5" font-family="Helvetica,sans-Serif" font-size="10.00" fill="#000000">drake/common/eigen</text>
<text text-anchor="middle" x="917" y="-74.5" font-family="Helvetica,sans-Serif" font-size="10.00" fill="#000000">_autodiff_limits.h</text>
</a>
</g>
</g>
<!-- Node18&#45;&gt;Node20 -->
<g id="edge25" class="edge">
<title>Node18&#45;&gt;Node20</title>
<path fill="none" stroke="#191970" d="M1209.6232,-206.8918C1194.5716,-196.7408 1170.3414,-180.1388 1150,-165 1132.2373,-151.7804 1130.7857,-143.9398 1111,-134 1099.6149,-128.2805 1037.9222,-112.2878 987.118,-99.6266"/>
<polygon fill="#191970" stroke="#191970" points="987.6693,-96.1573 977.1204,-97.1428 985.9815,-102.9507 987.6693,-96.1573"/>
</g>
<!-- Node21 -->
<g id="node22" class="node">
<title>Node21</title>
<g id="a_node22"><a xlink:href="eigen__autodiff__types_8h.html" target="_top" xlink:title="This file contains abbreviated definitions for certain uses of AutoDiffScalar that are commonly used ...">
<polygon fill="#ffffff" stroke="#000000" points="636,-134.5 636,-164.5 756,-164.5 756,-134.5 636,-134.5"/>
<text text-anchor="start" x="644" y="-152.5" font-family="Helvetica,sans-Serif" font-size="10.00" fill="#000000">drake/common/eigen</text>
<text text-anchor="middle" x="696" y="-141.5" font-family="Helvetica,sans-Serif" font-size="10.00" fill="#000000">_autodiff_types.h</text>
</a>
</g>
</g>
<!-- Node18&#45;&gt;Node21 -->
<g id="edge27" class="edge">
<title>Node18&#45;&gt;Node21</title>
<path fill="none" stroke="#191970" d="M1179.4286,-206.9524C1168.2267,-204.7744 1156.2039,-202.6257 1145,-201 980.3102,-177.1029 934.282,-191.0871 766.0611,-165.0394"/>
<polygon fill="#191970" stroke="#191970" points="766.5467,-161.5728 756.1243,-163.4766 765.4591,-168.4878 766.5467,-161.5728"/>
</g>
<!-- Node23 -->
<g id="node24" class="node">
<title>Node23</title>
<g id="a_node24"><a xlink:href="autodiffxd_8h.html" target="_top" xlink:title="drake/common/autodiffxd.h">
<polygon fill="#ffffff" stroke="#000000" points="774,-140 774,-159 926,-159 926,-140 774,-140"/>
<text text-anchor="middle" x="850" y="-147" font-family="Helvetica,sans-Serif" font-size="10.00" fill="#000000">drake/common/autodiffxd.h</text>
</a>
</g>
</g>
<!-- Node18&#45;&gt;Node23 -->
<g id="edge31" class="edge">
<title>Node18&#45;&gt;Node23</title>
<path fill="none" stroke="#191970" d="M1176.4069,-206.9951C1166.0609,-204.9755 1155.1696,-202.8851 1145,-201 1066.716,-186.4886 976.5261,-170.9095 916.6886,-160.7331"/>
<polygon fill="#191970" stroke="#191970" points="917.0614,-157.2463 906.6165,-159.0224 915.8893,-164.1475 917.0614,-157.2463"/>
</g>
<!-- Node26 -->
<g id="node27" class="node">
<title>Node26</title>
<g id="a_node27"><a xlink:href="autodiff__overloads_8h.html" target="_top" xlink:title="Overloads for STL mathematical operations on AutoDiffScalar. ">
<polygon fill="#ffffff" stroke="#000000" points="1158.5,-134.5 1158.5,-164.5 1289.5,-164.5 1289.5,-134.5 1158.5,-134.5"/>
<text text-anchor="start" x="1166.5" y="-152.5" font-family="Helvetica,sans-Serif" font-size="10.00" fill="#000000">drake/common/autodiff</text>
<text text-anchor="middle" x="1224" y="-141.5" font-family="Helvetica,sans-Serif" font-size="10.00" fill="#000000">_overloads.h</text>
</a>
</g>
</g>
<!-- Node18&#45;&gt;Node26 -->
<g id="edge35" class="edge">
<title>Node18&#45;&gt;Node26</title>
<path fill="none" stroke="#191970" d="M1224,-206.9005C1224,-198.5099 1224,-185.9451 1224,-174.7085"/>
<polygon fill="#191970" stroke="#191970" points="1227.5001,-174.5217 1224,-164.5218 1220.5001,-174.5218 1227.5001,-174.5217"/>
</g>
<!-- Node20&#45;&gt;Node2 -->
<g id="edge26" class="edge">
<title>Node20&#45;&gt;Node2</title>
<path fill="none" stroke="#191970" d="M929.9342,-67.2967C938.6426,-57.0605 950.148,-43.5366 959.2186,-32.8746"/>
<polygon fill="#191970" stroke="#191970" points="962.0571,-34.9395 965.8711,-25.055 956.7255,-30.4036 962.0571,-34.9395"/>
</g>
<!-- Node21&#45;&gt;Node7 -->
<g id="edge30" class="edge">
<title>Node21&#45;&gt;Node7</title>
<path fill="none" stroke="#191970" d="M635.7879,-138.8837C567.9301,-126.9193 457.7643,-107.4953 386.0933,-94.8586"/>
<polygon fill="#191970" stroke="#191970" points="386.7,-91.4116 376.2441,-93.122 385.4844,-98.3053 386.7,-91.4116"/>
</g>
<!-- Node21&#45;&gt;Node8 -->
<g id="edge29" class="edge">
<title>Node21&#45;&gt;Node8</title>
<path fill="none" stroke="#191970" d="M681.7911,-134.389C658.1108,-109.2051 610.7333,-58.8195 585.9467,-32.4592"/>
<polygon fill="#191970" stroke="#191970" points="588.4309,-29.9918 579.0308,-25.1042 583.3312,-34.787 588.4309,-29.9918"/>
</g>
<!-- Node22 -->
<g id="node23" class="node">
<title>Node22</title>
<polygon fill="#ffffff" stroke="#bfbfbf" points="1346.5,-6 1346.5,-25 1415.5,-25 1415.5,-6 1346.5,-6"/>
<text text-anchor="middle" x="1381" y="-13" font-family="Helvetica,sans-Serif" font-size="10.00" fill="#000000">type_traits</text>
</g>
<!-- Node21&#45;&gt;Node22 -->
<g id="edge28" class="edge">
<title>Node21&#45;&gt;Node22</title>
<path fill="none" stroke="#191970" d="M756.1083,-135.4177C759.1073,-134.8973 762.0834,-134.4199 765,-134 886.8922,-116.451 1209.447,-156.1544 1318,-98 1344.1081,-84.0133 1362.6597,-53.9821 1372.5965,-34.2723"/>
<polygon fill="#191970" stroke="#191970" points="1375.8516,-35.578 1377.002,-25.0458 1369.5347,-32.5618 1375.8516,-35.578"/>
</g>
<!-- Node23&#45;&gt;Node8 -->
<g id="edge34" class="edge">
<title>Node23&#45;&gt;Node8</title>
<path fill="none" stroke="#191970" d="M818.2773,-139.9192C789.0282,-130.6385 744.7171,-115.4371 708,-98 665.5966,-77.8624 619.3513,-48.5799 592.6108,-30.8578"/>
<polygon fill="#191970" stroke="#191970" points="594.2629,-27.7523 584.004,-25.1053 590.3731,-33.572 594.2629,-27.7523"/>
</g>
<!-- Node24 -->
<g id="node25" class="node">
<title>Node24</title>
<polygon fill="#ffffff" stroke="#bfbfbf" points="791.5,-73 791.5,-92 838.5,-92 838.5,-73 791.5,-73"/>
<text text-anchor="middle" x="815" y="-80" font-family="Helvetica,sans-Serif" font-size="10.00" fill="#000000">cmath</text>
</g>
<!-- Node23&#45;&gt;Node24 -->
<g id="edge32" class="edge">
<title>Node23&#45;&gt;Node24</title>
<path fill="none" stroke="#191970" d="M844.9854,-139.9005C839.7353,-129.8505 831.3571,-113.8122 824.7897,-101.2403"/>
<polygon fill="#191970" stroke="#191970" points="827.7378,-99.3246 820.0053,-92.0817 821.5334,-102.5657 827.7378,-99.3246"/>
</g>
<!-- Node25 -->
<g id="node26" class="node">
<title>Node25</title>
<polygon fill="#ffffff" stroke="#bfbfbf" points="716.5,-73 716.5,-92 773.5,-92 773.5,-73 716.5,-73"/>
<text text-anchor="middle" x="745" y="-80" font-family="Helvetica,sans-Serif" font-size="10.00" fill="#000000">ostream</text>
</g>
<!-- Node23&#45;&gt;Node25 -->
<g id="edge33" class="edge">
<title>Node23&#45;&gt;Node25</title>
<path fill="none" stroke="#191970" d="M834.9561,-139.9005C817.6466,-128.8554 789.0023,-110.5776 768.6911,-97.6172"/>
<polygon fill="#191970" stroke="#191970" points="770.3288,-94.5103 760.016,-92.0817 766.5633,-100.4113 770.3288,-94.5103"/>
</g>
<!-- Node26&#45;&gt;Node2 -->
<g id="edge37" class="edge">
<title>Node26&#45;&gt;Node2</title>
<path fill="none" stroke="#191970" d="M1209.2932,-134.1724C1188.7492,-113.0393 1152.167,-76.4828 1136,-67 1094.4748,-42.6432 1040.0926,-28.4164 1006.0991,-21.2994"/>
<polygon fill="#191970" stroke="#191970" points="1006.7348,-17.8572 996.2408,-19.3156 1005.3538,-24.7196 1006.7348,-17.8572"/>
</g>
<!-- Node26&#45;&gt;Node24 -->
<g id="edge36" class="edge">
<title>Node26&#45;&gt;Node24</title>
<path fill="none" stroke="#191970" d="M1158.2726,-140.4811C1142.7702,-138.3548 1126.3024,-136.0968 1111,-134 994.1134,-117.9836 961.134,-131.462 848,-98 846.088,-97.4345 844.147,-96.7735 842.2129,-96.049"/>
<polygon fill="#191970" stroke="#191970" points="843.341,-92.7258 832.768,-92.0465 840.6096,-99.171 843.341,-92.7258"/>
</g>
<!-- Node27 -->
<g id="node28" class="node">
<title>Node27</title>
<g id="a_node28"><a xlink:href="cond_8h.html" target="_top" xlink:title="drake/common/cond.h">
<polygon fill="#ffffff" stroke="#000000" points="1183.5,-73 1183.5,-92 1308.5,-92 1308.5,-73 1183.5,-73"/>
<text text-anchor="middle" x="1246" y="-80" font-family="Helvetica,sans-Serif" font-size="10.00" fill="#000000">drake/common/cond.h</text>
</a>
</g>
</g>
<!-- Node26&#45;&gt;Node27 -->
<g id="edge38" class="edge">
<title>Node26&#45;&gt;Node27</title>
<path fill="none" stroke="#191970" d="M1228.9921,-134.2967C1232.1536,-124.6685 1236.2702,-112.1318 1239.6615,-101.8038"/>
<polygon fill="#191970" stroke="#191970" points="1243.0681,-102.6478 1242.8625,-92.055 1236.4175,-100.464 1243.0681,-102.6478"/>
</g>
<!-- Node26&#45;&gt;Node30 -->
<g id="edge42" class="edge">
<title>Node26&#45;&gt;Node30</title>
<path fill="none" stroke="#191970" d="M1269.3327,-134.4639C1299.3763,-124.499 1338.9765,-111.3642 1370.8462,-100.7936"/>
<polygon fill="#191970" stroke="#191970" points="1372.0799,-104.072 1380.4695,-97.6017 1369.8761,-97.4279 1372.0799,-104.072"/>
</g>
<!-- Node31 -->
<g id="node32" class="node">
<title>Node31</title>
<g id="a_node32"><a xlink:href="dummy__value_8h.html" target="_top" xlink:title="drake/common/dummy\l_value.h">
<polygon fill="#ffffff" stroke="#000000" points="995.5,-67.5 995.5,-97.5 1126.5,-97.5 1126.5,-67.5 995.5,-67.5"/>
<text text-anchor="start" x="1003.5" y="-85.5" font-family="Helvetica,sans-Serif" font-size="10.00" fill="#000000">drake/common/dummy</text>
<text text-anchor="middle" x="1061" y="-74.5" font-family="Helvetica,sans-Serif" font-size="10.00" fill="#000000">_value.h</text>
</a>
</g>
</g>
<!-- Node26&#45;&gt;Node31 -->
<g id="edge44" class="edge">
<title>Node26&#45;&gt;Node31</title>
<path fill="none" stroke="#191970" d="M1187.4196,-134.4639C1163.6991,-124.7137 1132.5957,-111.9289 1107.1765,-101.4805"/>
<polygon fill="#191970" stroke="#191970" points="1108.3197,-98.1663 1097.7399,-97.6017 1105.6584,-104.6407 1108.3197,-98.1663"/>
</g>
<!-- Node27&#45;&gt;Node22 -->
<g id="edge40" class="edge">
<title>Node27&#45;&gt;Node22</title>
<path fill="none" stroke="#191970" d="M1265.3422,-72.9005C1288.1987,-61.5569 1326.427,-42.5844 1352.6334,-29.5783"/>
<polygon fill="#191970" stroke="#191970" points="1354.2921,-32.6624 1361.6937,-25.0817 1351.1802,-26.3922 1354.2921,-32.6624"/>
</g>
<!-- Node28 -->
<g id="node29" class="node">
<title>Node28</title>
<polygon fill="#ffffff" stroke="#bfbfbf" points="1260.5,-6 1260.5,-25 1325.5,-25 1325.5,-6 1260.5,-6"/>
<text text-anchor="middle" x="1293" y="-13" font-family="Helvetica,sans-Serif" font-size="10.00" fill="#000000">functional</text>
</g>
<!-- Node27&#45;&gt;Node28 -->
<g id="edge39" class="edge">
<title>Node27&#45;&gt;Node28</title>
<path fill="none" stroke="#191970" d="M1252.734,-72.9005C1259.9236,-62.6515 1271.4819,-46.1747 1280.3748,-33.4976"/>
<polygon fill="#191970" stroke="#191970" points="1283.401,-35.2783 1286.2785,-25.0817 1277.6704,-31.2582 1283.401,-35.2783"/>
</g>
<!-- Node29 -->
<g id="node30" class="node">
<title>Node29</title>
<g id="a_node30"><a xlink:href="double__overloads_8h.html" target="_top" xlink:title="Provides necessary operations on double to have it as a ScalarType in drake. ">
<polygon fill="#ffffff" stroke="#000000" points="1116,-.5 1116,-30.5 1242,-30.5 1242,-.5 1116,-.5"/>
<text text-anchor="start" x="1124" y="-18.5" font-family="Helvetica,sans-Serif" font-size="10.00" fill="#000000">drake/common/double</text>
<text text-anchor="middle" x="1179" y="-7.5" font-family="Helvetica,sans-Serif" font-size="10.00" fill="#000000">_overloads.h</text>
</a>
</g>
</g>
<!-- Node27&#45;&gt;Node29 -->
<g id="edge41" class="edge">
<title>Node27&#45;&gt;Node29</title>
<path fill="none" stroke="#191970" d="M1236.4005,-72.9005C1227.2313,-63.7313 1213.0776,-49.5776 1201.1195,-37.6195"/>
<polygon fill="#191970" stroke="#191970" points="1203.5677,-35.118 1194.0218,-30.5218 1198.618,-40.0677 1203.5677,-35.118"/>
</g>
<!-- Node30&#45;&gt;Node22 -->
<g id="edge43" class="edge">
<title>Node30&#45;&gt;Node22</title>
<path fill="none" stroke="#191970" d="M1415.7888,-67.2967C1409.0499,-57.2631 1400.1894,-44.0709 1393.0971,-33.5113"/>
<polygon fill="#191970" stroke="#191970" points="1395.8986,-31.4049 1387.4175,-25.055 1390.0876,-35.3078 1395.8986,-31.4049"/>
</g>
<!-- Node31&#45;&gt;Node2 -->
<g id="edge45" class="edge">
<title>Node31&#45;&gt;Node2</title>
<path fill="none" stroke="#191970" d="M1041.2584,-67.2967C1027.3085,-56.5537 1008.6565,-42.1895 994.5332,-31.3129"/>
<polygon fill="#191970" stroke="#191970" points="996.4656,-28.3835 986.4072,-25.055 992.1945,-33.9295 996.4656,-28.3835"/>
</g>
<!-- Node32&#45;&gt;Node3 -->
<g id="edge48" class="edge">
<title>Node32&#45;&gt;Node3</title>
<path fill="none" stroke="#191970" d="M281.1776,-270.4982C237.0091,-261.37 186.7419,-247.9649 171,-232 117.005,-177.24 112.4249,-77.7991 113.1295,-35.4552"/>
<polygon fill="#191970" stroke="#191970" points="116.6318,-35.4238 113.4226,-25.3267 109.6348,-35.2213 116.6318,-35.4238"/>
</g>
<!-- Node32&#45;&gt;Node4 -->
<g id="edge50" class="edge">
<title>Node32&#45;&gt;Node4</title>
<path fill="none" stroke="#191970" d="M367.7996,-268.2967C375.6655,-258.1618 386.0327,-244.804 394.2688,-234.1921"/>
<polygon fill="#191970" stroke="#191970" points="397.2179,-236.1008 400.5842,-226.055 391.688,-231.8089 397.2179,-236.1008"/>
</g>
<!-- Node32&#45;&gt;Node5 -->
<g id="edge51" class="edge">
<title>Node32&#45;&gt;Node5</title>
<path fill="none" stroke="#191970" d="M355.5003,-268.3818C355.7316,-250.1134 358.9162,-219.5274 376,-201 391.2391,-184.4732 446.8638,-168.772 487.358,-159.1464"/>
<polygon fill="#191970" stroke="#191970" points="488.3475,-162.5097 497.2934,-156.8333 486.7602,-155.6921 488.3475,-162.5097"/>
</g>
<!-- Node32&#45;&gt;Node13 -->
<g id="edge49" class="edge">
<title>Node32&#45;&gt;Node13</title>
<path fill="none" stroke="#191970" d="M383.1548,-268.4639C403.3656,-257.2728 430.7964,-242.0838 450.7799,-231.0186"/>
<polygon fill="#191970" stroke="#191970" points="452.6027,-234.0101 459.6556,-226.1039 449.2117,-227.8862 452.6027,-234.0101"/>
</g>
<!-- Node33 -->
<g id="node34" class="node">
<title>Node33</title>
<g id="a_node34"><a xlink:href="common_2trajectories_2trajectory_8h.html" target="_top" xlink:title="drake/common/trajectories\l/trajectory.h">
<polygon fill="#ffffff" stroke="#000000" points="179.5,-201.5 179.5,-231.5 328.5,-231.5 328.5,-201.5 179.5,-201.5"/>
<text text-anchor="start" x="187.5" y="-219.5" font-family="Helvetica,sans-Serif" font-size="10.00" fill="#000000">drake/common/trajectories</text>
<text text-anchor="middle" x="254" y="-208.5" font-family="Helvetica,sans-Serif" font-size="10.00" fill="#000000">/trajectory.h</text>
</a>
</g>
</g>
<!-- Node32&#45;&gt;Node33 -->
<g id="edge52" class="edge">
<title>Node32&#45;&gt;Node33</title>
<path fill="none" stroke="#191970" d="M333.1092,-268.4639C319.1648,-259.3044 301.1433,-247.4667 285.8238,-237.4038"/>
<polygon fill="#191970" stroke="#191970" points="287.447,-234.2826 277.1673,-231.7177 283.6039,-240.1333 287.447,-234.2826"/>
</g>
<!-- Node33&#45;&gt;Node3 -->
<g id="edge53" class="edge">
<title>Node33&#45;&gt;Node3</title>
<path fill="none" stroke="#191970" d="M243.4772,-201.3923C218.1626,-165.0477 153.9407,-72.8434 126.6165,-33.6137"/>
<polygon fill="#191970" stroke="#191970" points="129.3828,-31.4615 120.7954,-25.2562 123.6388,-35.4624 129.3828,-31.4615"/>
</g>
<!-- Node33&#45;&gt;Node5 -->
<g id="edge54" class="edge">
<title>Node33&#45;&gt;Node5</title>
<path fill="none" stroke="#191970" d="M316.3886,-201.4639C368.4392,-188.9193 441.3329,-171.3514 487.6061,-160.1992"/>
<polygon fill="#191970" stroke="#191970" points="488.4418,-163.5981 497.3434,-157.8525 486.8016,-156.793 488.4418,-163.5981"/>
</g>
<!-- Node33&#45;&gt;Node6 -->
<g id="edge55" class="edge">
<title>Node33&#45;&gt;Node6</title>
<path fill="none" stroke="#191970" d="M251.8203,-201.3923C246.8642,-167.0414 234.7087,-82.7914 228.6113,-40.5301"/>
<polygon fill="#191970" stroke="#191970" points="232.0577,-39.9065 227.1654,-30.5088 225.1294,-40.9061 232.0577,-39.9065"/>
</g>
<!-- Node33&#45;&gt;Node7 -->
<g id="edge56" class="edge">
<title>Node33&#45;&gt;Node7</title>
<path fill="none" stroke="#191970" d="M260.9917,-201.389C271.5969,-178.4681 291.8611,-134.6712 304.6126,-107.1116"/>
<polygon fill="#191970" stroke="#191970" points="307.916,-108.3068 308.9388,-97.7614 301.5631,-105.3673 307.916,-108.3068"/>
</g>
<!-- Node35&#45;&gt;Node22 -->
<g id="edge61" class="edge">
<title>Node35&#45;&gt;Node22</title>
<path fill="none" stroke="#191970" d="M1468.2004,-134.2907C1486.9892,-117.5007 1510.7888,-89.8269 1496,-67 1480.459,-43.0121 1450.8259,-30.095 1425.5334,-23.1966"/>
<polygon fill="#191970" stroke="#191970" points="1426.2832,-19.7765 1415.7337,-20.7558 1424.5913,-26.569 1426.2832,-19.7765"/>
</g>
<!-- Node35&#45;&gt;Node30 -->
<g id="edge62" class="edge">
<title>Node35&#45;&gt;Node30</title>
<path fill="none" stroke="#191970" d="M1443.7809,-134.2967C1441.0461,-126.3299 1437.6276,-116.3718 1434.5207,-107.3213"/>
<polygon fill="#191970" stroke="#191970" points="1437.7557,-105.965 1431.1984,-97.6432 1431.1349,-108.2378 1437.7557,-105.965"/>
</g>
</g>
</svg>
