<?xml version="1.0" encoding="UTF-8" standalone="no"?>
<!DOCTYPE svg PUBLIC "-//W3C//DTD SVG 1.1//EN"
 "http://www.w3.org/Graphics/SVG/1.1/DTD/svg11.dtd">
<!-- Generated by graphviz version 2.40.1 (20161225.0304)
 -->
<!-- Title: drake/perception/point_cloud.h Pages: 1 -->
<svg width="848pt" height="229pt"
 viewBox="0.00 0.00 848.00 229.00" xmlns="http://www.w3.org/2000/svg" xmlns:xlink="http://www.w3.org/1999/xlink">
<g id="graph0" class="graph" transform="scale(1 1) rotate(0) translate(4 225)">
<title>drake/perception/point_cloud.h</title>
<polygon fill="#ffffff" stroke="transparent" points="-4,4 -4,-225 844,-225 844,4 -4,4"/>
<!-- Node0 -->
<g id="node1" class="node">
<title>Node0</title>
<polygon fill="#bfbfbf" stroke="#000000" points="156,-190.5 156,-220.5 283,-220.5 283,-190.5 156,-190.5"/>
<text text-anchor="start" x="164" y="-208.5" font-family="Helvetica,sans-Serif" font-size="10.00" fill="#000000">drake/perception/point</text>
<text text-anchor="middle" x="219.5" y="-197.5" font-family="Helvetica,sans-Serif" font-size="10.00" fill="#000000">_cloud.h</text>
</g>
<!-- Node1 -->
<g id="node2" class="node">
<title>Node1</title>
<polygon fill="#ffffff" stroke="#bfbfbf" points="0,-129 0,-148 47,-148 47,-129 0,-129"/>
<text text-anchor="middle" x="23.5" y="-136" font-family="Helvetica,sans-Serif" font-size="10.00" fill="#000000">cmath</text>
</g>
<!-- Node0&#45;&gt;Node1 -->
<g id="edge1" class="edge">
<title>Node0&#45;&gt;Node1</title>
<path fill="none" stroke="#191970" d="M165.6538,-190.4504C133.5869,-181.0043 92.2957,-167.9897 56.5,-154 55.0998,-153.4528 53.6754,-152.8737 52.2434,-152.2734"/>
<polygon fill="#191970" stroke="#191970" points="53.417,-148.9653 42.8562,-148.1157 50.5822,-155.3656 53.417,-148.9653"/>
</g>
<!-- Node2 -->
<g id="node3" class="node">
<title>Node2</title>
<polygon fill="#ffffff" stroke="#bfbfbf" points="65.5,-129 65.5,-148 109.5,-148 109.5,-129 65.5,-129"/>
<text text-anchor="middle" x="87.5" y="-136" font-family="Helvetica,sans-Serif" font-size="10.00" fill="#000000">limits</text>
</g>
<!-- Node0&#45;&gt;Node2 -->
<g id="edge2" class="edge">
<title>Node0&#45;&gt;Node2</title>
<path fill="none" stroke="#191970" d="M189.8766,-190.4639C167.6289,-179.1715 137.3616,-163.8086 115.5139,-152.7192"/>
<polygon fill="#191970" stroke="#191970" points="116.9224,-149.5091 106.4212,-148.1039 113.7541,-155.7511 116.9224,-149.5091"/>
</g>
<!-- Node3 -->
<g id="node4" class="node">
<title>Node3</title>
<polygon fill="#ffffff" stroke="#bfbfbf" points="17.5,-62 17.5,-81 75.5,-81 75.5,-62 17.5,-62"/>
<text text-anchor="middle" x="46.5" y="-69" font-family="Helvetica,sans-Serif" font-size="10.00" fill="#000000">memory</text>
</g>
<!-- Node0&#45;&gt;Node3 -->
<g id="edge3" class="edge">
<title>Node0&#45;&gt;Node3</title>
<path fill="none" stroke="#191970" d="M201.5352,-190.2406C181.5537,-173.4068 148.1738,-145.6948 118.5,-123 102.1229,-110.4746 83.1375,-96.9338 68.7751,-86.8816"/>
<polygon fill="#191970" stroke="#191970" points="70.7007,-83.9575 60.4946,-81.1138 66.6997,-89.7014 70.7007,-83.9575"/>
</g>
<!-- Node4 -->
<g id="node5" class="node">
<title>Node4</title>
<polygon fill="#ffffff" stroke="#bfbfbf" points="495.5,-62 495.5,-81 539.5,-81 539.5,-62 495.5,-62"/>
<text text-anchor="middle" x="517.5" y="-69" font-family="Helvetica,sans-Serif" font-size="10.00" fill="#000000">string</text>
</g>
<!-- Node0&#45;&gt;Node4 -->
<g id="edge4" class="edge">
<title>Node0&#45;&gt;Node4</title>
<path fill="none" stroke="#191970" d="M254.7209,-190.4811C306.0232,-168.4665 404.1645,-125.8299 486.5,-87 487.4796,-86.538 488.4747,-86.0643 489.4783,-85.583"/>
<polygon fill="#191970" stroke="#191970" points="491.1037,-88.6843 498.55,-81.1474 488.0289,-82.3957 491.1037,-88.6843"/>
</g>
<!-- Node5 -->
<g id="node6" class="node">
<title>Node5</title>
<polygon fill="#ffffff" stroke="#bfbfbf" points="599,-129 599,-148 646,-148 646,-129 599,-129"/>
<text text-anchor="middle" x="622.5" y="-136" font-family="Helvetica,sans-Serif" font-size="10.00" fill="#000000">vector</text>
</g>
<!-- Node0&#45;&gt;Node5 -->
<g id="edge5" class="edge">
<title>Node0&#45;&gt;Node5</title>
<path fill="none" stroke="#191970" d="M283.1493,-202.71C358.0938,-198.0527 485.6463,-185.8044 590.5,-154 592.3608,-153.4356 594.2481,-152.7754 596.1273,-152.0515"/>
<polygon fill="#191970" stroke="#191970" points="597.5297,-155.2584 605.2948,-148.0504 594.7296,-148.8428 597.5297,-155.2584"/>
</g>
<!-- Node6 -->
<g id="node7" class="node">
<title>Node6</title>
<polygon fill="#ffffff" stroke="#bfbfbf" points="94,-62 94,-81 171,-81 171,-62 94,-62"/>
<text text-anchor="middle" x="132.5" y="-69" font-family="Helvetica,sans-Serif" font-size="10.00" fill="#000000">Eigen/Dense</text>
</g>
<!-- Node0&#45;&gt;Node6 -->
<g id="edge6" class="edge">
<title>Node0&#45;&gt;Node6</title>
<path fill="none" stroke="#191970" d="M209.6891,-190.389C193.5498,-165.5307 161.4686,-116.1184 144.1825,-89.4937"/>
<polygon fill="#191970" stroke="#191970" points="147.1166,-87.5855 138.7355,-81.1042 141.2455,-91.3974 147.1166,-87.5855"/>
</g>
<!-- Node7 -->
<g id="node8" class="node">
<title>Node7</title>
<g id="a_node8"><a xlink:href="eigen__types_8h.html" target="_top" xlink:title="This file contains abbreviated definitions for certain specializations of Eigen::Matrix that are comm...">
<polygon fill="#ffffff" stroke="#000000" points="203.5,-123.5 203.5,-153.5 323.5,-153.5 323.5,-123.5 203.5,-123.5"/>
<text text-anchor="start" x="211.5" y="-141.5" font-family="Helvetica,sans-Serif" font-size="10.00" fill="#000000">drake/common/eigen</text>
<text text-anchor="middle" x="263.5" y="-130.5" font-family="Helvetica,sans-Serif" font-size="10.00" fill="#000000">_types.h</text>
</a>
</g>
</g>
<!-- Node0&#45;&gt;Node7 -->
<g id="edge7" class="edge">
<title>Node0&#45;&gt;Node7</title>
<path fill="none" stroke="#191970" d="M229.4843,-190.2967C234.9412,-181.9873 241.8208,-171.5115 247.9629,-162.1587"/>
<polygon fill="#191970" stroke="#191970" points="250.9914,-163.9231 253.5552,-153.6432 245.1404,-160.0806 250.9914,-163.9231"/>
</g>
<!-- Node10 -->
<g id="node11" class="node">
<title>Node10</title>
<g id="a_node11"><a xlink:href="point__cloud__flags_8h.html" target="_top" xlink:title="drake/perception/point\l_cloud_flags.h">
<polygon fill="#ffffff" stroke="#000000" points="454,-123.5 454,-153.5 581,-153.5 581,-123.5 454,-123.5"/>
<text text-anchor="start" x="462" y="-141.5" font-family="Helvetica,sans-Serif" font-size="10.00" fill="#000000">drake/perception/point</text>
<text text-anchor="middle" x="517.5" y="-130.5" font-family="Helvetica,sans-Serif" font-size="10.00" fill="#000000">_cloud_flags.h</text>
</a>
</g>
</g>
<!-- Node0&#45;&gt;Node10 -->
<g id="edge12" class="edge">
<title>Node0&#45;&gt;Node10</title>
<path fill="none" stroke="#191970" d="M283.063,-191.209C330.1591,-180.6203 394.4555,-166.1644 443.8026,-155.0696"/>
<polygon fill="#191970" stroke="#191970" points="444.7896,-158.4351 453.7783,-152.8267 443.2541,-151.6056 444.7896,-158.4351"/>
</g>
<!-- Node7&#45;&gt;Node3 -->
<g id="edge8" class="edge">
<title>Node7&#45;&gt;Node3</title>
<path fill="none" stroke="#191970" d="M205.3688,-123.4705C170.1081,-113.9358 124.3717,-100.8229 84.5,-87 82.5814,-86.3349 80.6191,-85.6257 78.6464,-84.8906"/>
<polygon fill="#191970" stroke="#191970" points="79.4417,-81.4446 68.853,-81.0822 76.9046,-87.9686 79.4417,-81.4446"/>
</g>
<!-- Node7&#45;&gt;Node6 -->
<g id="edge9" class="edge">
<title>Node7&#45;&gt;Node6</title>
<path fill="none" stroke="#191970" d="M234.101,-123.4639C212.0219,-112.1715 181.9839,-96.8086 160.3017,-85.7192"/>
<polygon fill="#191970" stroke="#191970" points="161.7747,-82.5414 151.2778,-81.1039 158.5872,-88.7736 161.7747,-82.5414"/>
</g>
<!-- Node8 -->
<g id="node9" class="node">
<title>Node8</title>
<g id="a_node9"><a xlink:href="constants_8h.html" target="_top" xlink:title="drake/common/constants.h">
<polygon fill="#ffffff" stroke="#000000" points="189,-62 189,-81 338,-81 338,-62 189,-62"/>
<text text-anchor="middle" x="263.5" y="-69" font-family="Helvetica,sans-Serif" font-size="10.00" fill="#000000">drake/common/constants.h</text>
</a>
</g>
</g>
<!-- Node7&#45;&gt;Node8 -->
<g id="edge10" class="edge">
<title>Node7&#45;&gt;Node8</title>
<path fill="none" stroke="#191970" d="M263.5,-123.2967C263.5,-113.7699 263.5,-101.3954 263.5,-91.1306"/>
<polygon fill="#191970" stroke="#191970" points="267.0001,-91.0549 263.5,-81.055 260.0001,-91.055 267.0001,-91.0549"/>
</g>
<!-- Node9 -->
<g id="node10" class="node">
<title>Node9</title>
<g id="a_node10"><a xlink:href="drake__copyable_8h.html" target="_top" xlink:title="Provides careful macros to selectively enable or disable the special member functions for copy&#45;constr...">
<polygon fill="#ffffff" stroke="#000000" points="356,-56.5 356,-86.5 477,-86.5 477,-56.5 356,-56.5"/>
<text text-anchor="start" x="364" y="-74.5" font-family="Helvetica,sans-Serif" font-size="10.00" fill="#000000">drake/common/drake</text>
<text text-anchor="middle" x="416.5" y="-63.5" font-family="Helvetica,sans-Serif" font-size="10.00" fill="#000000">_copyable.h</text>
</a>
</g>
</g>
<!-- Node7&#45;&gt;Node9 -->
<g id="edge11" class="edge">
<title>Node7&#45;&gt;Node9</title>
<path fill="none" stroke="#191970" d="M297.8362,-123.4639C320.0034,-113.7567 349.0396,-101.0415 372.8408,-90.6188"/>
<polygon fill="#191970" stroke="#191970" points="374.2578,-93.8191 382.0141,-86.6017 371.4499,-87.407 374.2578,-93.8191"/>
</g>
<!-- Node10&#45;&gt;Node4 -->
<g id="edge15" class="edge">
<title>Node10&#45;&gt;Node4</title>
<path fill="none" stroke="#191970" d="M517.5,-123.2967C517.5,-113.7699 517.5,-101.3954 517.5,-91.1306"/>
<polygon fill="#191970" stroke="#191970" points="521.0001,-91.0549 517.5,-81.055 514.0001,-91.055 521.0001,-91.0549"/>
</g>
<!-- Node10&#45;&gt;Node9 -->
<g id="edge18" class="edge">
<title>Node10&#45;&gt;Node9</title>
<path fill="none" stroke="#191970" d="M494.8336,-123.4639C481.026,-114.3044 463.1811,-102.4667 448.0118,-92.4038"/>
<polygon fill="#191970" stroke="#191970" points="449.7082,-89.3291 439.4402,-86.7177 445.8386,-95.1623 449.7082,-89.3291"/>
</g>
<!-- Node11 -->
<g id="node12" class="node">
<title>Node11</title>
<polygon fill="#ffffff" stroke="#bfbfbf" points="557.5,-62 557.5,-81 617.5,-81 617.5,-62 557.5,-62"/>
<text text-anchor="middle" x="587.5" y="-69" font-family="Helvetica,sans-Serif" font-size="10.00" fill="#000000">iostream</text>
</g>
<!-- Node10&#45;&gt;Node11 -->
<g id="edge13" class="edge">
<title>Node10&#45;&gt;Node11</title>
<path fill="none" stroke="#191970" d="M533.3841,-123.2967C544.2904,-112.8578 558.769,-98.9997 570.0056,-88.2446"/>
<polygon fill="#191970" stroke="#191970" points="572.7131,-90.498 577.5172,-81.055 567.8729,-85.4411 572.7131,-90.498"/>
</g>
<!-- Node12 -->
<g id="node13" class="node">
<title>Node12</title>
<polygon fill="#ffffff" stroke="#bfbfbf" points="636,-62 636,-81 701,-81 701,-62 636,-62"/>
<text text-anchor="middle" x="668.5" y="-69" font-family="Helvetica,sans-Serif" font-size="10.00" fill="#000000">stdexcept</text>
</g>
<!-- Node10&#45;&gt;Node12 -->
<g id="edge14" class="edge">
<title>Node10&#45;&gt;Node12</title>
<path fill="none" stroke="#191970" d="M551.3873,-123.4639C577.1797,-112.0196 612.3945,-96.3945 637.4571,-85.274"/>
<polygon fill="#191970" stroke="#191970" points="639.1343,-88.359 646.8553,-81.1039 636.2952,-81.9605 639.1343,-88.359"/>
</g>
<!-- Node13 -->
<g id="node14" class="node">
<title>Node13</title>
<g id="a_node14"><a xlink:href="drake__assert_8h.html" target="_top" xlink:title="Provides Drake&#39;s assertion implementation. ">
<polygon fill="#ffffff" stroke="#000000" points="719,-56.5 719,-86.5 840,-86.5 840,-56.5 719,-56.5"/>
<text text-anchor="start" x="727" y="-74.5" font-family="Helvetica,sans-Serif" font-size="10.00" fill="#000000">drake/common/drake</text>
<text text-anchor="middle" x="779.5" y="-63.5" font-family="Helvetica,sans-Serif" font-size="10.00" fill="#000000">_assert.h</text>
</a>
</g>
</g>
<!-- Node10&#45;&gt;Node13 -->
<g id="edge16" class="edge">
<title>Node10&#45;&gt;Node13</title>
<path fill="none" stroke="#191970" d="M576.2979,-123.4639C616.1051,-113.2842 668.8476,-99.7966 710.6223,-89.1138"/>
<polygon fill="#191970" stroke="#191970" points="711.6246,-92.4702 720.4456,-86.6017 709.8902,-85.6884 711.6246,-92.4702"/>
</g>
<!-- Node14 -->
<g id="node15" class="node">
<title>Node14</title>
<polygon fill="#ffffff" stroke="#bfbfbf" points="745,-.5 745,-19.5 814,-19.5 814,-.5 745,-.5"/>
<text text-anchor="middle" x="779.5" y="-7.5" font-family="Helvetica,sans-Serif" font-size="10.00" fill="#000000">type_traits</text>
</g>
<!-- Node13&#45;&gt;Node14 -->
<g id="edge17" class="edge">
<title>Node13&#45;&gt;Node14</title>
<path fill="none" stroke="#191970" d="M779.5,-56.2977C779.5,-48.3834 779.5,-38.6043 779.5,-30.0759"/>
<polygon fill="#191970" stroke="#191970" points="783.0001,-29.8469 779.5,-19.8469 776.0001,-29.847 783.0001,-29.8469"/>
</g>
</g>
</svg>
