<?xml version="1.0" encoding="UTF-8" standalone="no"?>
<!DOCTYPE svg PUBLIC "-//W3C//DTD SVG 1.1//EN"
 "http://www.w3.org/Graphics/SVG/1.1/DTD/svg11.dtd">
<!-- Generated by graphviz version 2.40.1 (20161225.0304)
 -->
<!-- Title: drake/attic/systems/controllers/polynomial_encode_decode.h Pages: 1 -->
<svg width="1621pt" height="452pt"
 viewBox="0.00 0.00 1621.00 452.00" xmlns="http://www.w3.org/2000/svg" xmlns:xlink="http://www.w3.org/1999/xlink">
<g id="graph0" class="graph" transform="scale(1 1) rotate(0) translate(4 448)">
<title>drake/attic/systems/controllers/polynomial_encode_decode.h</title>
<polygon fill="#ffffff" stroke="transparent" points="-4,4 -4,-448 1617,-448 1617,4 -4,4"/>
<!-- Node0 -->
<g id="node1" class="node">
<title>Node0</title>
<polygon fill="#bfbfbf" stroke="#000000" points="1113.5,-402.5 1113.5,-443.5 1242.5,-443.5 1242.5,-402.5 1113.5,-402.5"/>
<text text-anchor="start" x="1121.5" y="-431.5" font-family="Helvetica,sans-Serif" font-size="10.00" fill="#000000">drake/attic/systems</text>
<text text-anchor="start" x="1121.5" y="-420.5" font-family="Helvetica,sans-Serif" font-size="10.00" fill="#000000">/controllers/polynomial</text>
<text text-anchor="middle" x="1178" y="-409.5" font-family="Helvetica,sans-Serif" font-size="10.00" fill="#000000">_encode_decode.h</text>
</g>
<!-- Node1 -->
<g id="node2" class="node">
<title>Node1</title>
<polygon fill="#ffffff" stroke="#bfbfbf" points="442.5,-140 442.5,-159 511.5,-159 511.5,-140 442.5,-140"/>
<text text-anchor="middle" x="477" y="-147" font-family="Helvetica,sans-Serif" font-size="10.00" fill="#000000">Eigen/Core</text>
</g>
<!-- Node0&#45;&gt;Node1 -->
<g id="edge1" class="edge">
<title>Node0&#45;&gt;Node1</title>
<path fill="none" stroke="#191970" d="M1143.8751,-402.256C1130.8501,-392.7287 1116.9873,-380.3428 1108,-366 1067.9887,-302.1461 1126.0111,-250.2743 1069,-201 1048.3389,-183.1427 656.7706,-159.5888 522.0674,-151.982"/>
<polygon fill="#191970" stroke="#191970" points="521.8819,-148.4662 511.7012,-151.3996 521.4891,-155.4552 521.8819,-148.4662"/>
</g>
<!-- Node2 -->
<g id="node3" class="node">
<title>Node2</title>
<g id="a_node3"><a xlink:href="piecewise__polynomial_8h.html" target="_top" xlink:title="drake/common/trajectories\l/piecewise_polynomial.h">
<polygon fill="#ffffff" stroke="#000000" points="309.5,-335.5 309.5,-365.5 458.5,-365.5 458.5,-335.5 309.5,-335.5"/>
<text text-anchor="start" x="317.5" y="-353.5" font-family="Helvetica,sans-Serif" font-size="10.00" fill="#000000">drake/common/trajectories</text>
<text text-anchor="middle" x="384" y="-342.5" font-family="Helvetica,sans-Serif" font-size="10.00" fill="#000000">/piecewise_polynomial.h</text>
</a>
</g>
</g>
<!-- Node0&#45;&gt;Node2 -->
<g id="edge2" class="edge">
<title>Node0&#45;&gt;Node2</title>
<path fill="none" stroke="#191970" d="M1113.3603,-417.0978C970.6159,-404.0638 628.5145,-372.8266 468.8107,-358.2441"/>
<polygon fill="#191970" stroke="#191970" points="468.836,-354.7319 458.5592,-357.308 468.1994,-361.7029 468.836,-354.7319"/>
</g>
<!-- Node34 -->
<g id="node35" class="node">
<title>Node34</title>
<polygon fill="#ffffff" stroke="#bfbfbf" points="1116.5,-335.5 1116.5,-365.5 1239.5,-365.5 1239.5,-335.5 1116.5,-335.5"/>
<text text-anchor="start" x="1124.5" y="-353.5" font-family="Helvetica,sans-Serif" font-size="10.00" fill="#000000">drake/lcmt_piecewise</text>
<text text-anchor="middle" x="1178" y="-342.5" font-family="Helvetica,sans-Serif" font-size="10.00" fill="#000000">_polynomial.hpp</text>
</g>
<!-- Node0&#45;&gt;Node34 -->
<g id="edge58" class="edge">
<title>Node0&#45;&gt;Node34</title>
<path fill="none" stroke="#191970" d="M1178,-402.4183C1178,-394.0849 1178,-384.3834 1178,-375.6373"/>
<polygon fill="#191970" stroke="#191970" points="1181.5001,-375.5991 1178,-365.5991 1174.5001,-375.5991 1181.5001,-375.5991"/>
</g>
<!-- Node35 -->
<g id="node36" class="node">
<title>Node35</title>
<polygon fill="#ffffff" stroke="#bfbfbf" points="1258,-341 1258,-360 1408,-360 1408,-341 1258,-341"/>
<text text-anchor="middle" x="1333" y="-348" font-family="Helvetica,sans-Serif" font-size="10.00" fill="#000000">drake/lcmt_polynomial.hpp</text>
</g>
<!-- Node0&#45;&gt;Node35 -->
<g id="edge59" class="edge">
<title>Node0&#45;&gt;Node35</title>
<path fill="none" stroke="#191970" d="M1222.0022,-402.4183C1248.0024,-390.257 1280.2312,-375.1822 1303.2506,-364.415"/>
<polygon fill="#191970" stroke="#191970" points="1304.932,-367.4926 1312.5072,-360.0853 1301.9662,-361.1519 1304.932,-367.4926"/>
</g>
<!-- Node36 -->
<g id="node37" class="node">
<title>Node36</title>
<polygon fill="#ffffff" stroke="#bfbfbf" points="1426.5,-335.5 1426.5,-365.5 1555.5,-365.5 1555.5,-335.5 1426.5,-335.5"/>
<text text-anchor="start" x="1434.5" y="-353.5" font-family="Helvetica,sans-Serif" font-size="10.00" fill="#000000">drake/lcmt_polynomial</text>
<text text-anchor="middle" x="1491" y="-342.5" font-family="Helvetica,sans-Serif" font-size="10.00" fill="#000000">_matrix.hpp</text>
</g>
<!-- Node0&#45;&gt;Node36 -->
<g id="edge60" class="edge">
<title>Node0&#45;&gt;Node36</title>
<path fill="none" stroke="#191970" d="M1242.8538,-407.978C1293.404,-396.2691 1363.6505,-379.9979 1416.505,-367.7552"/>
<polygon fill="#191970" stroke="#191970" points="1417.5453,-371.107 1426.4976,-365.4407 1415.9657,-364.2876 1417.5453,-371.107"/>
</g>
<!-- Node2&#45;&gt;Node1 -->
<g id="edge6" class="edge">
<title>Node2&#45;&gt;Node1</title>
<path fill="none" stroke="#191970" d="M388.4859,-335.1126C396.8629,-307.3982 416.2939,-247.6371 441,-201 447.2557,-189.1913 455.7677,-176.8916 462.9442,-167.2746"/>
<polygon fill="#191970" stroke="#191970" points="465.7583,-169.3565 469.0564,-159.2881 460.1994,-165.1022 465.7583,-169.3565"/>
</g>
<!-- Node3 -->
<g id="node4" class="node">
<title>Node3</title>
<polygon fill="#ffffff" stroke="#bfbfbf" points="1534,-6 1534,-25 1578,-25 1578,-6 1534,-6"/>
<text text-anchor="middle" x="1556" y="-13" font-family="Helvetica,sans-Serif" font-size="10.00" fill="#000000">limits</text>
</g>
<!-- Node2&#45;&gt;Node3 -->
<g id="edge3" class="edge">
<title>Node2&#45;&gt;Node3</title>
<path fill="none" stroke="#191970" d="M458.57,-346.3055C724.8435,-330.8419 1613,-274.8868 1613,-216.5 1613,-216.5 1613,-216.5 1613,-149.5 1613,-105.1138 1586.19,-58.5826 1569.3437,-33.7256"/>
<polygon fill="#191970" stroke="#191970" points="1572.0542,-31.4944 1563.4518,-25.3099 1566.3199,-35.5091 1572.0542,-31.4944"/>
</g>
<!-- Node4 -->
<g id="node5" class="node">
<title>Node4</title>
<polygon fill="#ffffff" stroke="#bfbfbf" points="11,-6 11,-25 69,-25 69,-6 11,-6"/>
<text text-anchor="middle" x="40" y="-13" font-family="Helvetica,sans-Serif" font-size="10.00" fill="#000000">memory</text>
</g>
<!-- Node2&#45;&gt;Node4 -->
<g id="edge4" class="edge">
<title>Node2&#45;&gt;Node4</title>
<path fill="none" stroke="#191970" d="M309.4215,-343.8622C255.6975,-337.185 182.3461,-324.1124 122,-299 61.5677,-273.8517 0,-281.956 0,-216.5 0,-216.5 0,-216.5 0,-149.5 0,-107.0368 18.6712,-60.0479 30.5007,-34.5384"/>
<polygon fill="#191970" stroke="#191970" points="33.7694,-35.8163 34.934,-25.2856 27.4566,-32.7916 33.7694,-35.8163"/>
</g>
<!-- Node5 -->
<g id="node6" class="node">
<title>Node5</title>
<polygon fill="#ffffff" stroke="#bfbfbf" points="346.5,-207 346.5,-226 393.5,-226 393.5,-207 346.5,-207"/>
<text text-anchor="middle" x="370" y="-214" font-family="Helvetica,sans-Serif" font-size="10.00" fill="#000000">vector</text>
</g>
<!-- Node2&#45;&gt;Node5 -->
<g id="edge5" class="edge">
<title>Node2&#45;&gt;Node5</title>
<path fill="none" stroke="#191970" d="M382.4212,-335.389C379.8808,-311.0735 374.8858,-263.2644 372.0655,-236.2698"/>
<polygon fill="#191970" stroke="#191970" points="375.5237,-235.6863 371.0034,-226.1042 368.5616,-236.4138 375.5237,-235.6863"/>
</g>
<!-- Node6 -->
<g id="node7" class="node">
<title>Node6</title>
<g id="a_node7"><a xlink:href="drake__copyable_8h.html" target="_top" xlink:title="Provides careful macros to selectively enable or disable the special member functions for copy&#45;constr...">
<polygon fill="#ffffff" stroke="#000000" points="90.5,-.5 90.5,-30.5 211.5,-30.5 211.5,-.5 90.5,-.5"/>
<text text-anchor="start" x="98.5" y="-18.5" font-family="Helvetica,sans-Serif" font-size="10.00" fill="#000000">drake/common/drake</text>
<text text-anchor="middle" x="151" y="-7.5" font-family="Helvetica,sans-Serif" font-size="10.00" fill="#000000">_copyable.h</text>
</a>
</g>
</g>
<!-- Node2&#45;&gt;Node6 -->
<g id="edge7" class="edge">
<title>Node2&#45;&gt;Node6</title>
<path fill="none" stroke="#191970" d="M309.2329,-341.4518C250.8014,-333.0293 175.6537,-318.7899 152,-299 76.1273,-235.521 118.7762,-96.9667 140.6086,-40.3521"/>
<polygon fill="#191970" stroke="#191970" points="143.9752,-41.357 144.4096,-30.7711 137.4686,-38.7756 143.9752,-41.357"/>
</g>
<!-- Node7 -->
<g id="node8" class="node">
<title>Node7</title>
<g id="a_node8"><a xlink:href="eigen__types_8h.html" target="_top" xlink:title="This file contains abbreviated definitions for certain specializations of Eigen::Matrix that are comm...">
<polygon fill="#ffffff" stroke="#000000" points="180,-67.5 180,-97.5 300,-97.5 300,-67.5 180,-67.5"/>
<text text-anchor="start" x="188" y="-85.5" font-family="Helvetica,sans-Serif" font-size="10.00" fill="#000000">drake/common/eigen</text>
<text text-anchor="middle" x="240" y="-74.5" font-family="Helvetica,sans-Serif" font-size="10.00" fill="#000000">_types.h</text>
</a>
</g>
</g>
<!-- Node2&#45;&gt;Node7 -->
<g id="edge8" class="edge">
<title>Node2&#45;&gt;Node7</title>
<path fill="none" stroke="#191970" d="M309.3061,-341.6987C245.9801,-329.5081 161.0955,-300.5564 133,-232 112.0705,-180.9296 168.2364,-130.6408 206.895,-103.3795"/>
<polygon fill="#191970" stroke="#191970" points="209.057,-106.1408 215.3249,-97.5989 205.0983,-100.3678 209.057,-106.1408"/>
</g>
<!-- Node10 -->
<g id="node11" class="node">
<title>Node10</title>
<g id="a_node11"><a xlink:href="polynomial_8h.html" target="_top" xlink:title="drake/common/polynomial.h">
<polygon fill="#ffffff" stroke="#000000" points="604.5,-274 604.5,-293 761.5,-293 761.5,-274 604.5,-274"/>
<text text-anchor="middle" x="683" y="-281" font-family="Helvetica,sans-Serif" font-size="10.00" fill="#000000">drake/common/polynomial.h</text>
</a>
</g>
</g>
<!-- Node2&#45;&gt;Node10 -->
<g id="edge13" class="edge">
<title>Node2&#45;&gt;Node10</title>
<path fill="none" stroke="#191970" d="M451.1014,-335.4639C505.3856,-323.2999 580.748,-306.4127 630.6458,-295.2315"/>
<polygon fill="#191970" stroke="#191970" points="631.5882,-298.6072 640.5809,-293.0053 630.0575,-291.7766 631.5882,-298.6072"/>
</g>
<!-- Node32 -->
<g id="node33" class="node">
<title>Node32</title>
<g id="a_node33"><a xlink:href="piecewise__trajectory_8h.html" target="_top" xlink:title="drake/common/trajectories\l/piecewise_trajectory.h">
<polygon fill="#ffffff" stroke="#000000" points="207.5,-268.5 207.5,-298.5 356.5,-298.5 356.5,-268.5 207.5,-268.5"/>
<text text-anchor="start" x="215.5" y="-286.5" font-family="Helvetica,sans-Serif" font-size="10.00" fill="#000000">drake/common/trajectories</text>
<text text-anchor="middle" x="282" y="-275.5" font-family="Helvetica,sans-Serif" font-size="10.00" fill="#000000">/piecewise_trajectory.h</text>
</a>
</g>
</g>
<!-- Node2&#45;&gt;Node32 -->
<g id="edge48" class="edge">
<title>Node2&#45;&gt;Node32</title>
<path fill="none" stroke="#191970" d="M361.1092,-335.4639C347.1648,-326.3044 329.1433,-314.4667 313.8238,-304.4038"/>
<polygon fill="#191970" stroke="#191970" points="315.447,-301.2826 305.1673,-298.7177 311.6039,-307.1333 315.447,-301.2826"/>
</g>
<!-- Node7&#45;&gt;Node4 -->
<g id="edge9" class="edge">
<title>Node7&#45;&gt;Node4</title>
<path fill="none" stroke="#191970" d="M192.1327,-67.4255C160.7187,-57.4028 118.7924,-43.78 82,-31 79.623,-30.1743 77.1755,-29.3096 74.7134,-28.4289"/>
<polygon fill="#191970" stroke="#191970" points="75.8566,-25.1205 65.2625,-25.0018 73.4702,-31.7012 75.8566,-25.1205"/>
</g>
<!-- Node7&#45;&gt;Node6 -->
<g id="edge12" class="edge">
<title>Node7&#45;&gt;Node6</title>
<path fill="none" stroke="#191970" d="M219.8045,-67.2967C207.8564,-58.302 192.5361,-46.7687 179.3862,-36.8694"/>
<polygon fill="#191970" stroke="#191970" points="181.2098,-33.8613 171.1156,-30.6432 176.9998,-39.4538 181.2098,-33.8613"/>
</g>
<!-- Node8 -->
<g id="node9" class="node">
<title>Node8</title>
<polygon fill="#ffffff" stroke="#bfbfbf" points="812.5,-6 812.5,-25 889.5,-25 889.5,-6 812.5,-6"/>
<text text-anchor="middle" x="851" y="-13" font-family="Helvetica,sans-Serif" font-size="10.00" fill="#000000">Eigen/Dense</text>
</g>
<!-- Node7&#45;&gt;Node8 -->
<g id="edge10" class="edge">
<title>Node7&#45;&gt;Node8</title>
<path fill="none" stroke="#191970" d="M300.2572,-75.8924C421.1495,-62.6358 691.1687,-33.0265 802.0444,-20.8683"/>
<polygon fill="#191970" stroke="#191970" points="802.7082,-24.3166 812.2671,-19.7473 801.9452,-17.3583 802.7082,-24.3166"/>
</g>
<!-- Node9 -->
<g id="node10" class="node">
<title>Node9</title>
<g id="a_node10"><a xlink:href="constants_8h.html" target="_top" xlink:title="drake/common/constants.h">
<polygon fill="#ffffff" stroke="#000000" points="229.5,-6 229.5,-25 378.5,-25 378.5,-6 229.5,-6"/>
<text text-anchor="middle" x="304" y="-13" font-family="Helvetica,sans-Serif" font-size="10.00" fill="#000000">drake/common/constants.h</text>
</a>
</g>
</g>
<!-- Node7&#45;&gt;Node9 -->
<g id="edge11" class="edge">
<title>Node7&#45;&gt;Node9</title>
<path fill="none" stroke="#191970" d="M254.5226,-67.2967C264.3973,-56.9591 277.4749,-43.2684 287.7051,-32.5588"/>
<polygon fill="#191970" stroke="#191970" points="290.4964,-34.7037 294.8729,-25.055 285.4346,-29.8685 290.4964,-34.7037"/>
</g>
<!-- Node10&#45;&gt;Node1 -->
<g id="edge21" class="edge">
<title>Node10&#45;&gt;Node1</title>
<path fill="none" stroke="#191970" d="M646.064,-273.9393C618.5338,-265.6808 580.8677,-251.9098 552,-232 526.1188,-214.1499 502.8883,-185.7406 489.3632,-167.3563"/>
<polygon fill="#191970" stroke="#191970" points="492.2057,-165.3141 483.5341,-159.2268 486.5169,-169.3931 492.2057,-165.3141"/>
</g>
<!-- Node10&#45;&gt;Node5 -->
<g id="edge20" class="edge">
<title>Node10&#45;&gt;Node5</title>
<path fill="none" stroke="#191970" d="M637.9372,-273.9841C589.3255,-263.7015 509.6541,-246.799 441,-232 428.7899,-229.368 415.4054,-226.4537 403.5809,-223.8689"/>
<polygon fill="#191970" stroke="#191970" points="404.177,-220.4166 393.6599,-221.6978 402.6804,-227.2548 404.177,-220.4166"/>
</g>
<!-- Node11 -->
<g id="node12" class="node">
<title>Node11</title>
<polygon fill="#ffffff" stroke="#bfbfbf" points="560.5,-207 560.5,-226 619.5,-226 619.5,-207 560.5,-207"/>
<text text-anchor="middle" x="590" y="-214" font-family="Helvetica,sans-Serif" font-size="10.00" fill="#000000">complex</text>
</g>
<!-- Node10&#45;&gt;Node11 -->
<g id="edge14" class="edge">
<title>Node10&#45;&gt;Node11</title>
<path fill="none" stroke="#191970" d="M669.6754,-273.9005C654.4822,-262.9549 629.4297,-244.9064 611.4716,-231.9688"/>
<polygon fill="#191970" stroke="#191970" points="613.4595,-229.0872 603.2999,-226.0817 609.3677,-234.7668 613.4595,-229.0872"/>
</g>
<!-- Node12 -->
<g id="node13" class="node">
<title>Node12</title>
<polygon fill="#ffffff" stroke="#bfbfbf" points="638,-207 638,-226 676,-226 676,-207 638,-207"/>
<text text-anchor="middle" x="657" y="-214" font-family="Helvetica,sans-Serif" font-size="10.00" fill="#000000">map</text>
</g>
<!-- Node10&#45;&gt;Node12 -->
<g id="edge15" class="edge">
<title>Node10&#45;&gt;Node12</title>
<path fill="none" stroke="#191970" d="M679.2748,-273.9005C675.4134,-263.95 669.274,-248.1292 664.4177,-235.6147"/>
<polygon fill="#191970" stroke="#191970" points="667.599,-234.1381 660.7183,-226.0817 661.0731,-236.6706 667.599,-234.1381"/>
</g>
<!-- Node13 -->
<g id="node14" class="node">
<title>Node13</title>
<polygon fill="#ffffff" stroke="#bfbfbf" points="450,-207 450,-226 504,-226 504,-207 450,-207"/>
<text text-anchor="middle" x="477" y="-214" font-family="Helvetica,sans-Serif" font-size="10.00" fill="#000000">random</text>
</g>
<!-- Node10&#45;&gt;Node13 -->
<g id="edge16" class="edge">
<title>Node10&#45;&gt;Node13</title>
<path fill="none" stroke="#191970" d="M650.5676,-273.9929C617.1614,-264.0565 563.6759,-247.7468 518,-232 515.7541,-231.2257 513.4462,-230.4098 511.1248,-229.5738"/>
<polygon fill="#191970" stroke="#191970" points="512.2242,-226.249 501.6307,-226.0804 509.8069,-232.8184 512.2242,-226.249"/>
</g>
<!-- Node14 -->
<g id="node15" class="node">
<title>Node14</title>
<polygon fill="#ffffff" stroke="#bfbfbf" points="694,-207 694,-226 726,-226 726,-207 694,-207"/>
<text text-anchor="middle" x="710" y="-214" font-family="Helvetica,sans-Serif" font-size="10.00" fill="#000000">set</text>
</g>
<!-- Node10&#45;&gt;Node14 -->
<g id="edge17" class="edge">
<title>Node10&#45;&gt;Node14</title>
<path fill="none" stroke="#191970" d="M686.8684,-273.9005C690.8784,-263.95 697.2539,-248.1292 702.297,-235.6147"/>
<polygon fill="#191970" stroke="#191970" points="705.6472,-236.6651 706.1387,-226.0817 699.1546,-234.0486 705.6472,-236.6651"/>
</g>
<!-- Node15 -->
<g id="node16" class="node">
<title>Node15</title>
<polygon fill="#ffffff" stroke="#bfbfbf" points="744.5,-207 744.5,-226 809.5,-226 809.5,-207 744.5,-207"/>
<text text-anchor="middle" x="777" y="-214" font-family="Helvetica,sans-Serif" font-size="10.00" fill="#000000">stdexcept</text>
</g>
<!-- Node10&#45;&gt;Node15 -->
<g id="edge18" class="edge">
<title>Node10&#45;&gt;Node15</title>
<path fill="none" stroke="#191970" d="M696.4679,-273.9005C711.8244,-262.9549 737.1463,-244.9064 755.2976,-231.9688"/>
<polygon fill="#191970" stroke="#191970" points="757.4454,-234.736 763.5571,-226.0817 753.3824,-229.0358 757.4454,-234.736"/>
</g>
<!-- Node16 -->
<g id="node17" class="node">
<title>Node16</title>
<polygon fill="#ffffff" stroke="#bfbfbf" points="828,-207 828,-226 872,-226 872,-207 828,-207"/>
<text text-anchor="middle" x="850" y="-214" font-family="Helvetica,sans-Serif" font-size="10.00" fill="#000000">string</text>
</g>
<!-- Node10&#45;&gt;Node16 -->
<g id="edge19" class="edge">
<title>Node10&#45;&gt;Node16</title>
<path fill="none" stroke="#191970" d="M710.6811,-273.9504C738.3975,-264.1716 782.1135,-248.1558 819,-232 820.0197,-231.5534 821.0539,-231.0904 822.0951,-230.6157"/>
<polygon fill="#191970" stroke="#191970" points="823.9357,-233.6158 831.4578,-226.1546 820.9246,-227.2965 823.9357,-233.6158"/>
</g>
<!-- Node17 -->
<g id="node18" class="node">
<title>Node17</title>
<polygon fill="#ffffff" stroke="#bfbfbf" points="890,-207 890,-226 1060,-226 1060,-207 890,-207"/>
<text text-anchor="middle" x="975" y="-214" font-family="Helvetica,sans-Serif" font-size="10.00" fill="#000000">unsupported/Eigen/Polynomials</text>
</g>
<!-- Node10&#45;&gt;Node17 -->
<g id="edge22" class="edge">
<title>Node10&#45;&gt;Node17</title>
<path fill="none" stroke="#191970" d="M724.5264,-273.9717C776.8107,-261.975 866.6326,-241.3651 923.3091,-228.3606"/>
<polygon fill="#191970" stroke="#191970" points="924.1802,-231.7518 933.1441,-226.1039 922.6146,-224.929 924.1802,-231.7518"/>
</g>
<!-- Node18 -->
<g id="node19" class="node">
<title>Node18</title>
<g id="a_node19"><a xlink:href="common_2autodiff_8h.html" target="_top" xlink:title="drake/common/autodiff.h">
<polygon fill="#ffffff" stroke="#000000" points="1116,-207 1116,-226 1256,-226 1256,-207 1116,-207"/>
<text text-anchor="middle" x="1186" y="-214" font-family="Helvetica,sans-Serif" font-size="10.00" fill="#000000">drake/common/autodiff.h</text>
</a>
</g>
</g>
<!-- Node10&#45;&gt;Node18 -->
<g id="edge23" class="edge">
<title>Node10&#45;&gt;Node18</title>
<path fill="none" stroke="#191970" d="M754.5335,-273.9717C847.3978,-261.6021 1009.0066,-240.0757 1105.8913,-227.1705"/>
<polygon fill="#191970" stroke="#191970" points="1106.478,-230.6234 1115.9283,-225.8336 1105.5537,-223.6847 1106.478,-230.6234"/>
</g>
<!-- Node30 -->
<g id="node31" class="node">
<title>Node30</title>
<g id="a_node31"><a xlink:href="drake__assert_8h.html" target="_top" xlink:title="Provides Drake&#39;s assertion implementation. ">
<polygon fill="#ffffff" stroke="#000000" points="1095.5,-67.5 1095.5,-97.5 1216.5,-97.5 1216.5,-67.5 1095.5,-67.5"/>
<text text-anchor="start" x="1103.5" y="-85.5" font-family="Helvetica,sans-Serif" font-size="10.00" fill="#000000">drake/common/drake</text>
<text text-anchor="middle" x="1156" y="-74.5" font-family="Helvetica,sans-Serif" font-size="10.00" fill="#000000">_assert.h</text>
</a>
</g>
</g>
<!-- Node10&#45;&gt;Node30 -->
<g id="edge47" class="edge">
<title>Node10&#45;&gt;Node30</title>
<path fill="none" stroke="#191970" d="M761.5703,-282.3165C912.6327,-279.2222 1231.6742,-268.405 1265,-232 1294.4098,-199.8729 1288.3095,-170.7934 1265,-134 1255.8241,-119.5161 1241.3588,-109.0283 1225.9291,-101.4622"/>
<polygon fill="#191970" stroke="#191970" points="1227.3209,-98.2505 1216.7655,-97.3369 1224.4473,-104.6335 1227.3209,-98.2505"/>
</g>
<!-- Node18&#45;&gt;Node1 -->
<g id="edge24" class="edge">
<title>Node18&#45;&gt;Node1</title>
<path fill="none" stroke="#191970" d="M1139.0398,-206.976C1127.0041,-204.7716 1114.0539,-202.6046 1102,-201 885.496,-172.1788 624.5103,-156.9029 521.709,-151.6418"/>
<polygon fill="#191970" stroke="#191970" points="521.8492,-148.1445 511.6853,-151.135 521.4957,-155.1356 521.8492,-148.1445"/>
</g>
<!-- Node19 -->
<g id="node20" class="node">
<title>Node19</title>
<polygon fill="#ffffff" stroke="#bfbfbf" points="1104.5,-140 1104.5,-159 1255.5,-159 1255.5,-140 1104.5,-140"/>
<text text-anchor="middle" x="1180" y="-147" font-family="Helvetica,sans-Serif" font-size="10.00" fill="#000000">unsupported/Eigen/AutoDiff</text>
</g>
<!-- Node18&#45;&gt;Node19 -->
<g id="edge25" class="edge">
<title>Node18&#45;&gt;Node19</title>
<path fill="none" stroke="#191970" d="M1185.1403,-206.9005C1184.2671,-197.149 1182.8889,-181.7597 1181.7794,-169.3695"/>
<polygon fill="#191970" stroke="#191970" points="1185.2361,-168.7296 1180.8581,-159.0817 1178.2641,-169.354 1185.2361,-168.7296"/>
</g>
<!-- Node20 -->
<g id="node21" class="node">
<title>Node20</title>
<g id="a_node21"><a xlink:href="eigen__autodiff__limits_8h.html" target="_top" xlink:title="drake/common/eigen\l_autodiff_limits.h">
<polygon fill="#ffffff" stroke="#000000" points="1464,-134.5 1464,-164.5 1584,-164.5 1584,-134.5 1464,-134.5"/>
<text text-anchor="start" x="1472" y="-152.5" font-family="Helvetica,sans-Serif" font-size="10.00" fill="#000000">drake/common/eigen</text>
<text text-anchor="middle" x="1524" y="-141.5" font-family="Helvetica,sans-Serif" font-size="10.00" fill="#000000">_autodiff_limits.h</text>
</a>
</g>
</g>
<!-- Node18&#45;&gt;Node20 -->
<g id="edge26" class="edge">
<title>Node18&#45;&gt;Node20</title>
<path fill="none" stroke="#191970" d="M1237.2594,-206.9971C1291.0663,-196.932 1378.0885,-180.3992 1453,-165 1453.336,-164.9309 1453.6729,-164.8616 1454.0105,-164.792"/>
<polygon fill="#191970" stroke="#191970" points="1454.907,-168.1804 1463.9807,-162.7106 1453.4764,-161.3281 1454.907,-168.1804"/>
</g>
<!-- Node21 -->
<g id="node22" class="node">
<title>Node21</title>
<g id="a_node22"><a xlink:href="eigen__autodiff__types_8h.html" target="_top" xlink:title="This file contains abbreviated definitions for certain uses of AutoDiffScalar that are commonly used ...">
<polygon fill="#ffffff" stroke="#000000" points="792,-134.5 792,-164.5 912,-164.5 912,-134.5 792,-134.5"/>
<text text-anchor="start" x="800" y="-152.5" font-family="Helvetica,sans-Serif" font-size="10.00" fill="#000000">drake/common/eigen</text>
<text text-anchor="middle" x="852" y="-141.5" font-family="Helvetica,sans-Serif" font-size="10.00" fill="#000000">_autodiff_types.h</text>
</a>
</g>
</g>
<!-- Node18&#45;&gt;Node21 -->
<g id="edge28" class="edge">
<title>Node18&#45;&gt;Node21</title>
<path fill="none" stroke="#191970" d="M1136.4075,-206.935C1083.8727,-196.7509 998.5262,-180.0591 925,-165 924.0837,-164.8123 923.1611,-164.6229 922.2332,-164.432"/>
<polygon fill="#191970" stroke="#191970" points="922.6408,-160.9422 912.1387,-162.3408 921.2208,-167.7967 922.6408,-160.9422"/>
</g>
<!-- Node23 -->
<g id="node24" class="node">
<title>Node23</title>
<g id="a_node24"><a xlink:href="autodiffxd_8h.html" target="_top" xlink:title="drake/common/autodiffxd.h">
<polygon fill="#ffffff" stroke="#000000" points="934,-140 934,-159 1086,-159 1086,-140 934,-140"/>
<text text-anchor="middle" x="1010" y="-147" font-family="Helvetica,sans-Serif" font-size="10.00" fill="#000000">drake/common/autodiffxd.h</text>
</a>
</g>
</g>
<!-- Node18&#45;&gt;Node23 -->
<g id="edge32" class="edge">
<title>Node18&#45;&gt;Node23</title>
<path fill="none" stroke="#191970" d="M1160.7835,-206.9005C1130.3319,-195.3082 1078.9515,-175.7486 1044.757,-162.7313"/>
<polygon fill="#191970" stroke="#191970" points="1045.7607,-159.3685 1035.1697,-159.0817 1043.2702,-165.9105 1045.7607,-159.3685"/>
</g>
<!-- Node26 -->
<g id="node27" class="node">
<title>Node26</title>
<g id="a_node27"><a xlink:href="autodiff__overloads_8h.html" target="_top" xlink:title="Overloads for STL mathematical operations on AutoDiffScalar. ">
<polygon fill="#ffffff" stroke="#000000" points="1312.5,-134.5 1312.5,-164.5 1443.5,-164.5 1443.5,-134.5 1312.5,-134.5"/>
<text text-anchor="start" x="1320.5" y="-152.5" font-family="Helvetica,sans-Serif" font-size="10.00" fill="#000000">drake/common/autodiff</text>
<text text-anchor="middle" x="1378" y="-141.5" font-family="Helvetica,sans-Serif" font-size="10.00" fill="#000000">_overloads.h</text>
</a>
</g>
</g>
<!-- Node18&#45;&gt;Node26 -->
<g id="edge36" class="edge">
<title>Node18&#45;&gt;Node26</title>
<path fill="none" stroke="#191970" d="M1213.5089,-206.9005C1242.5116,-196.7798 1288.9167,-180.5864 1325.055,-167.9756"/>
<polygon fill="#191970" stroke="#191970" points="1326.6641,-171.1211 1334.9526,-164.5218 1324.3577,-164.512 1326.6641,-171.1211"/>
</g>
<!-- Node20&#45;&gt;Node3 -->
<g id="edge27" class="edge">
<title>Node20&#45;&gt;Node3</title>
<path fill="none" stroke="#191970" d="M1534.0779,-134.4379C1540.1421,-124.5308 1547.3696,-111.0313 1551,-98 1556.7572,-77.3349 1557.4953,-52.6704 1557.1131,-35.7252"/>
<polygon fill="#191970" stroke="#191970" points="1560.5968,-35.2302 1556.7174,-25.3712 1553.602,-35.4976 1560.5968,-35.2302"/>
</g>
<!-- Node21&#45;&gt;Node7 -->
<g id="edge31" class="edge">
<title>Node21&#45;&gt;Node7</title>
<path fill="none" stroke="#191970" d="M791.9246,-142.9231C678.2351,-130.4767 432.1598,-103.5371 310.7176,-90.242"/>
<polygon fill="#191970" stroke="#191970" points="310.7445,-86.7241 300.423,-89.1149 309.9827,-93.6825 310.7445,-86.7241"/>
</g>
<!-- Node21&#45;&gt;Node8 -->
<g id="edge30" class="edge">
<title>Node21&#45;&gt;Node8</title>
<path fill="none" stroke="#191970" d="M851.8872,-134.389C851.7058,-110.0735 851.349,-62.2644 851.1475,-35.2698"/>
<polygon fill="#191970" stroke="#191970" points="854.6463,-35.0777 851.0717,-25.1042 847.6465,-35.13 854.6463,-35.0777"/>
</g>
<!-- Node22 -->
<g id="node23" class="node">
<title>Node22</title>
<polygon fill="#ffffff" stroke="#bfbfbf" points="1121.5,-6 1121.5,-25 1190.5,-25 1190.5,-6 1121.5,-6"/>
<text text-anchor="middle" x="1156" y="-13" font-family="Helvetica,sans-Serif" font-size="10.00" fill="#000000">type_traits</text>
</g>
<!-- Node21&#45;&gt;Node22 -->
<g id="edge29" class="edge">
<title>Node21&#45;&gt;Node22</title>
<path fill="none" stroke="#191970" d="M865.199,-134.2679C882.2264,-115.5915 913.6452,-84.2948 947,-67 999.6734,-39.6884 1067.4023,-26.4447 1111.2511,-20.3245"/>
<polygon fill="#191970" stroke="#191970" points="1111.865,-23.7737 1121.3165,-18.9863 1110.9424,-16.8348 1111.865,-23.7737"/>
</g>
<!-- Node23&#45;&gt;Node8 -->
<g id="edge35" class="edge">
<title>Node23&#45;&gt;Node8</title>
<path fill="none" stroke="#191970" d="M997.8498,-139.7149C985.1088,-129.4196 964.5392,-112.7013 947,-98 920.006,-75.3735 889.1818,-48.7399 869.9053,-31.9864"/>
<polygon fill="#191970" stroke="#191970" points="871.9973,-29.1672 862.156,-25.2429 867.402,-34.4478 871.9973,-29.1672"/>
</g>
<!-- Node24 -->
<g id="node25" class="node">
<title>Node24</title>
<polygon fill="#ffffff" stroke="#bfbfbf" points="1030.5,-73 1030.5,-92 1077.5,-92 1077.5,-73 1030.5,-73"/>
<text text-anchor="middle" x="1054" y="-80" font-family="Helvetica,sans-Serif" font-size="10.00" fill="#000000">cmath</text>
</g>
<!-- Node23&#45;&gt;Node24 -->
<g id="edge33" class="edge">
<title>Node23&#45;&gt;Node24</title>
<path fill="none" stroke="#191970" d="M1016.3041,-139.9005C1023.0349,-129.6515 1033.8554,-113.1747 1042.1807,-100.4976"/>
<polygon fill="#191970" stroke="#191970" points="1045.1438,-102.3616 1047.7076,-92.0817 1039.2927,-98.5191 1045.1438,-102.3616"/>
</g>
<!-- Node25 -->
<g id="node26" class="node">
<title>Node25</title>
<polygon fill="#ffffff" stroke="#bfbfbf" points="955.5,-73 955.5,-92 1012.5,-92 1012.5,-73 955.5,-73"/>
<text text-anchor="middle" x="984" y="-80" font-family="Helvetica,sans-Serif" font-size="10.00" fill="#000000">ostream</text>
</g>
<!-- Node23&#45;&gt;Node25 -->
<g id="edge34" class="edge">
<title>Node23&#45;&gt;Node25</title>
<path fill="none" stroke="#191970" d="M1006.2748,-139.9005C1002.4134,-129.95 996.274,-114.1292 991.4177,-101.6147"/>
<polygon fill="#191970" stroke="#191970" points="994.599,-100.1381 987.7183,-92.0817 988.0731,-102.6706 994.599,-100.1381"/>
</g>
<!-- Node26&#45;&gt;Node3 -->
<g id="edge38" class="edge">
<title>Node26&#45;&gt;Node3</title>
<path fill="none" stroke="#191970" d="M1443.673,-136.7946C1469.3284,-129.1111 1497.4555,-116.9797 1518,-98 1536.397,-81.0043 1546.5933,-53.3414 1551.6832,-34.7897"/>
<polygon fill="#191970" stroke="#191970" points="1555.0834,-35.6194 1554.1134,-25.0691 1548.2925,-33.9216 1555.0834,-35.6194"/>
</g>
<!-- Node26&#45;&gt;Node24 -->
<g id="edge37" class="edge">
<title>Node26&#45;&gt;Node24</title>
<path fill="none" stroke="#191970" d="M1312.3974,-139.9487C1239.8969,-129.0293 1127.9579,-110.9908 1087,-98 1085.1447,-97.4116 1083.259,-96.7408 1081.3769,-96.0161"/>
<polygon fill="#191970" stroke="#191970" points="1082.7257,-92.7863 1072.1548,-92.0731 1079.9737,-99.2227 1082.7257,-92.7863"/>
</g>
<!-- Node27 -->
<g id="node28" class="node">
<title>Node27</title>
<g id="a_node28"><a xlink:href="cond_8h.html" target="_top" xlink:title="drake/common/cond.h">
<polygon fill="#ffffff" stroke="#000000" points="1234.5,-73 1234.5,-92 1359.5,-92 1359.5,-73 1234.5,-73"/>
<text text-anchor="middle" x="1297" y="-80" font-family="Helvetica,sans-Serif" font-size="10.00" fill="#000000">drake/common/cond.h</text>
</a>
</g>
</g>
<!-- Node26&#45;&gt;Node27 -->
<g id="edge39" class="edge">
<title>Node26&#45;&gt;Node27</title>
<path fill="none" stroke="#191970" d="M1359.6198,-134.2967C1346.7546,-123.6551 1329.5937,-109.4602 1316.4904,-98.6217"/>
<polygon fill="#191970" stroke="#191970" points="1318.4879,-95.7318 1308.5515,-92.055 1314.0263,-101.1257 1318.4879,-95.7318"/>
</g>
<!-- Node26&#45;&gt;Node30 -->
<g id="edge43" class="edge">
<title>Node26&#45;&gt;Node30</title>
<path fill="none" stroke="#191970" d="M1328.1789,-134.4639C1294.8761,-124.4131 1250.8885,-111.1375 1215.7106,-100.5208"/>
<polygon fill="#191970" stroke="#191970" points="1216.6232,-97.1403 1206.0384,-97.6017 1214.6007,-103.8418 1216.6232,-97.1403"/>
</g>
<!-- Node31 -->
<g id="node32" class="node">
<title>Node31</title>
<g id="a_node32"><a xlink:href="dummy__value_8h.html" target="_top" xlink:title="drake/common/dummy\l_value.h">
<polygon fill="#ffffff" stroke="#000000" points="1377.5,-67.5 1377.5,-97.5 1508.5,-97.5 1508.5,-67.5 1377.5,-67.5"/>
<text text-anchor="start" x="1385.5" y="-85.5" font-family="Helvetica,sans-Serif" font-size="10.00" fill="#000000">drake/common/dummy</text>
<text text-anchor="middle" x="1443" y="-74.5" font-family="Helvetica,sans-Serif" font-size="10.00" fill="#000000">_value.h</text>
</a>
</g>
</g>
<!-- Node26&#45;&gt;Node31 -->
<g id="edge45" class="edge">
<title>Node26&#45;&gt;Node31</title>
<path fill="none" stroke="#191970" d="M1392.7495,-134.2967C1401.1433,-125.6446 1411.8157,-114.6438 1421.1642,-105.0076"/>
<polygon fill="#191970" stroke="#191970" points="1423.8578,-107.2577 1428.3089,-97.6432 1418.8336,-102.3835 1423.8578,-107.2577"/>
</g>
<!-- Node27&#45;&gt;Node22 -->
<g id="edge41" class="edge">
<title>Node27&#45;&gt;Node22</title>
<path fill="none" stroke="#191970" d="M1276.7981,-72.9005C1252.821,-61.5072 1212.6479,-42.4178 1185.2679,-29.4075"/>
<polygon fill="#191970" stroke="#191970" points="1186.6987,-26.2123 1176.1644,-25.0817 1183.6944,-32.5348 1186.6987,-26.2123"/>
</g>
<!-- Node28 -->
<g id="node29" class="node">
<title>Node28</title>
<polygon fill="#ffffff" stroke="#bfbfbf" points="1236.5,-6 1236.5,-25 1301.5,-25 1301.5,-6 1236.5,-6"/>
<text text-anchor="middle" x="1269" y="-13" font-family="Helvetica,sans-Serif" font-size="10.00" fill="#000000">functional</text>
</g>
<!-- Node27&#45;&gt;Node28 -->
<g id="edge40" class="edge">
<title>Node27&#45;&gt;Node28</title>
<path fill="none" stroke="#191970" d="M1292.9883,-72.9005C1288.8298,-62.95 1282.2182,-47.1292 1276.9883,-34.6147"/>
<polygon fill="#191970" stroke="#191970" points="1280.0896,-32.9588 1273.0043,-25.0817 1273.6309,-35.658 1280.0896,-32.9588"/>
</g>
<!-- Node29 -->
<g id="node30" class="node">
<title>Node29</title>
<g id="a_node30"><a xlink:href="double__overloads_8h.html" target="_top" xlink:title="Provides necessary operations on double to have it as a ScalarType in drake. ">
<polygon fill="#ffffff" stroke="#000000" points="1320,-.5 1320,-30.5 1446,-30.5 1446,-.5 1320,-.5"/>
<text text-anchor="start" x="1328" y="-18.5" font-family="Helvetica,sans-Serif" font-size="10.00" fill="#000000">drake/common/double</text>
<text text-anchor="middle" x="1383" y="-7.5" font-family="Helvetica,sans-Serif" font-size="10.00" fill="#000000">_overloads.h</text>
</a>
</g>
</g>
<!-- Node27&#45;&gt;Node29 -->
<g id="edge42" class="edge">
<title>Node27&#45;&gt;Node29</title>
<path fill="none" stroke="#191970" d="M1309.3217,-72.9005C1321.3132,-63.5583 1339.9464,-49.0417 1355.4736,-36.945"/>
<polygon fill="#191970" stroke="#191970" points="1357.9808,-39.4286 1363.7183,-30.5218 1353.6787,-33.9065 1357.9808,-39.4286"/>
</g>
<!-- Node30&#45;&gt;Node22 -->
<g id="edge44" class="edge">
<title>Node30&#45;&gt;Node22</title>
<path fill="none" stroke="#191970" d="M1156,-67.2967C1156,-57.7699 1156,-45.3954 1156,-35.1306"/>
<polygon fill="#191970" stroke="#191970" points="1159.5001,-35.0549 1156,-25.055 1152.5001,-35.055 1159.5001,-35.0549"/>
</g>
<!-- Node31&#45;&gt;Node3 -->
<g id="edge46" class="edge">
<title>Node31&#45;&gt;Node3</title>
<path fill="none" stroke="#191970" d="M1468.3594,-67.4639C1487.0631,-56.3741 1512.3881,-41.3584 1531.005,-30.32"/>
<polygon fill="#191970" stroke="#191970" points="1532.9857,-33.2147 1539.8023,-25.1039 1529.4156,-27.1935 1532.9857,-33.2147"/>
</g>
<!-- Node32&#45;&gt;Node1 -->
<g id="edge52" class="edge">
<title>Node32&#45;&gt;Node1</title>
<path fill="none" stroke="#191970" d="M288.7151,-268.2926C297.5407,-249.9341 314.6993,-219.2575 338,-201 365.6339,-179.3471 403.2869,-166.1471 432.4342,-158.5397"/>
<polygon fill="#191970" stroke="#191970" points="433.496,-161.8825 442.3589,-156.0775 431.8103,-155.0885 433.496,-161.8825"/>
</g>
<!-- Node32&#45;&gt;Node4 -->
<g id="edge49" class="edge">
<title>Node32&#45;&gt;Node4</title>
<path fill="none" stroke="#191970" d="M207.3109,-270.6472C181.2544,-263.044 153.447,-251.0074 133,-232 73.7178,-176.8917 50.5185,-77.6409 43.0386,-35.4013"/>
<polygon fill="#191970" stroke="#191970" points="46.452,-34.5909 41.3619,-25.2989 39.5465,-35.737 46.452,-34.5909"/>
</g>
<!-- Node32&#45;&gt;Node5 -->
<g id="edge51" class="edge">
<title>Node32&#45;&gt;Node5</title>
<path fill="none" stroke="#191970" d="M301.9686,-268.2967C316.0787,-257.5537 334.9451,-243.1895 349.2308,-232.3129"/>
<polygon fill="#191970" stroke="#191970" points="351.614,-234.8975 357.4502,-226.055 347.3736,-229.328 351.614,-234.8975"/>
</g>
<!-- Node32&#45;&gt;Node13 -->
<g id="edge50" class="edge">
<title>Node32&#45;&gt;Node13</title>
<path fill="none" stroke="#191970" d="M325.7618,-268.4639C360.2594,-256.6109 407.8098,-240.2731 440.3279,-229.1001"/>
<polygon fill="#191970" stroke="#191970" points="441.5861,-232.3688 449.9061,-225.8092 439.3114,-225.7486 441.5861,-232.3688"/>
</g>
<!-- Node33 -->
<g id="node34" class="node">
<title>Node33</title>
<g id="a_node34"><a xlink:href="common_2trajectories_2trajectory_8h.html" target="_top" xlink:title="drake/common/trajectories\l/trajectory.h">
<polygon fill="#ffffff" stroke="#000000" points="141.5,-201.5 141.5,-231.5 290.5,-231.5 290.5,-201.5 141.5,-201.5"/>
<text text-anchor="start" x="149.5" y="-219.5" font-family="Helvetica,sans-Serif" font-size="10.00" fill="#000000">drake/common/trajectories</text>
<text text-anchor="middle" x="216" y="-208.5" font-family="Helvetica,sans-Serif" font-size="10.00" fill="#000000">/trajectory.h</text>
</a>
</g>
</g>
<!-- Node32&#45;&gt;Node33 -->
<g id="edge53" class="edge">
<title>Node32&#45;&gt;Node33</title>
<path fill="none" stroke="#191970" d="M267.0236,-268.2967C258.5007,-259.6446 247.664,-248.6438 238.1717,-239.0076"/>
<polygon fill="#191970" stroke="#191970" points="240.4283,-236.311 230.9172,-231.6432 235.4415,-241.2234 240.4283,-236.311"/>
</g>
<!-- Node33&#45;&gt;Node1 -->
<g id="edge55" class="edge">
<title>Node33&#45;&gt;Node1</title>
<path fill="none" stroke="#191970" d="M274.5735,-201.4639C322.3996,-189.1867 388.969,-172.098 432.5095,-160.9209"/>
<polygon fill="#191970" stroke="#191970" points="433.4296,-164.2983 442.2453,-158.4217 431.6891,-157.5181 433.4296,-164.2983"/>
</g>
<!-- Node33&#45;&gt;Node4 -->
<g id="edge54" class="edge">
<title>Node33&#45;&gt;Node4</title>
<path fill="none" stroke="#191970" d="M202.7714,-201.3923C170.8129,-164.8943 89.5289,-72.0643 55.4284,-33.12"/>
<polygon fill="#191970" stroke="#191970" points="57.7637,-30.474 48.5427,-25.2562 52.4973,-35.0854 57.7637,-30.474"/>
</g>
<!-- Node33&#45;&gt;Node6 -->
<g id="edge56" class="edge">
<title>Node33&#45;&gt;Node6</title>
<path fill="none" stroke="#191970" d="M209.5556,-201.3737C200.2063,-179.0508 182.7204,-135.8378 171,-98 165.0978,-78.9454 159.8459,-56.9776 156.2066,-40.5036"/>
<polygon fill="#191970" stroke="#191970" points="159.5906,-39.5922 154.0573,-30.5571 152.7485,-41.0708 159.5906,-39.5922"/>
</g>
<!-- Node33&#45;&gt;Node7 -->
<g id="edge57" class="edge">
<title>Node33&#45;&gt;Node7</title>
<path fill="none" stroke="#191970" d="M218.7065,-201.389C222.7757,-178.6691 230.5186,-135.438 235.4614,-107.8405"/>
<polygon fill="#191970" stroke="#191970" points="238.9487,-108.2218 237.2666,-97.7614 232.0584,-106.9877 238.9487,-108.2218"/>
</g>
</g>
</svg>
