<?xml version="1.0" encoding="UTF-8" standalone="no"?>
<!DOCTYPE svg PUBLIC "-//W3C//DTD SVG 1.1//EN"
 "http://www.w3.org/Graphics/SVG/1.1/DTD/svg11.dtd">
<!-- Generated by graphviz version 2.40.1 (20161225.0304)
 -->
<!-- Title: drake/systems/rendering/pose_aggregator.h Pages: 1 -->
<svg width="968pt" height="195pt"
 viewBox="0.00 0.00 967.50 195.00" xmlns="http://www.w3.org/2000/svg" xmlns:xlink="http://www.w3.org/1999/xlink">
<g id="graph0" class="graph" transform="scale(1 1) rotate(0) translate(4 191)">
<title>drake/systems/rendering/pose_aggregator.h</title>
<polygon fill="#ffffff" stroke="transparent" points="-4,4 -4,-191 963.5,-191 963.5,4 -4,4"/>
<!-- Node115 -->
<g id="node1" class="node">
<title>Node115</title>
<polygon fill="#bfbfbf" stroke="#000000" points="515.5,-156.5 515.5,-186.5 653.5,-186.5 653.5,-156.5 515.5,-156.5"/>
<text text-anchor="start" x="523.5" y="-174.5" font-family="Helvetica,sans-Serif" font-size="10.00" fill="#000000">drake/systems/rendering</text>
<text text-anchor="middle" x="584.5" y="-163.5" font-family="Helvetica,sans-Serif" font-size="10.00" fill="#000000">/pose_aggregator.h</text>
</g>
<!-- Node116 -->
<g id="node2" class="node">
<title>Node116</title>
<g id="a_node2"><a xlink:href="automotive__simulator_8h.html" target="_top" xlink:title="drake/automotive/automotive\l_simulator.h">
<polygon fill="#ffffff" stroke="#000000" points="181,-84 181,-114 344,-114 344,-84 181,-84"/>
<text text-anchor="start" x="189" y="-102" font-family="Helvetica,sans-Serif" font-size="10.00" fill="#000000">drake/automotive/automotive</text>
<text text-anchor="middle" x="262.5" y="-91" font-family="Helvetica,sans-Serif" font-size="10.00" fill="#000000">_simulator.h</text>
</a>
</g>
</g>
<!-- Node115&#45;&gt;Node116 -->
<g id="edge1" class="edge">
<title>Node115&#45;&gt;Node116</title>
<path fill="none" stroke="#191970" d="M506.555,-154.274C461.7599,-144.3364 404.4437,-131.5567 353.5,-120 345.1196,-118.0989 336.3088,-116.0848 327.6049,-114.0861"/>
<polygon fill="#191970" stroke="#191970" points="505.9749,-157.7304 516.4955,-156.4783 507.4904,-150.8964 505.9749,-157.7304"/>
</g>
<!-- Node120 -->
<g id="node6" class="node">
<title>Node120</title>
<g id="a_node6"><a xlink:href="rendering__py_8cc.html" target="_top" xlink:title="drake/bindings/pydrake\l/systems/rendering_py.cc">
<polygon fill="#ffffff" stroke="#000000" points="362,-84 362,-114 503,-114 503,-84 362,-84"/>
<text text-anchor="start" x="370" y="-102" font-family="Helvetica,sans-Serif" font-size="10.00" fill="#000000">drake/bindings/pydrake</text>
<text text-anchor="middle" x="432.5" y="-91" font-family="Helvetica,sans-Serif" font-size="10.00" fill="#000000">/systems/rendering_py.cc</text>
</a>
</g>
</g>
<!-- Node115&#45;&gt;Node120 -->
<g id="edge5" class="edge">
<title>Node115&#45;&gt;Node120</title>
<path fill="none" stroke="#191970" d="M543.7556,-152.066C518.6997,-140.115 487.0761,-125.0313 463.9542,-114.0028"/>
<polygon fill="#191970" stroke="#191970" points="542.4728,-155.3319 553.0055,-156.478 545.4864,-149.0137 542.4728,-155.3319"/>
</g>
<!-- Node121 -->
<g id="node7" class="node">
<title>Node121</title>
<g id="a_node7"><a xlink:href="rod2d__sim_8cc.html" target="_top" xlink:title="drake/examples/rod2d\l/rod2d_sim.cc">
<polygon fill="#ffffff" stroke="#000000" points="521.5,-84 521.5,-114 647.5,-114 647.5,-84 521.5,-84"/>
<text text-anchor="start" x="529.5" y="-102" font-family="Helvetica,sans-Serif" font-size="10.00" fill="#000000">drake/examples/rod2d</text>
<text text-anchor="middle" x="584.5" y="-91" font-family="Helvetica,sans-Serif" font-size="10.00" fill="#000000">/rod2d_sim.cc</text>
</a>
</g>
</g>
<!-- Node115&#45;&gt;Node121 -->
<g id="edge6" class="edge">
<title>Node115&#45;&gt;Node121</title>
<path fill="none" stroke="#191970" d="M584.5,-146.3409C584.5,-135.5601 584.5,-123.3309 584.5,-114.0028"/>
<polygon fill="#191970" stroke="#191970" points="581.0001,-146.4779 584.5,-156.478 588.0001,-146.478 581.0001,-146.4779"/>
</g>
<!-- Node122 -->
<g id="node8" class="node">
<title>Node122</title>
<g id="a_node8"><a xlink:href="pose__aggregator_8cc.html" target="_top" xlink:title="drake/systems/rendering\l/pose_aggregator.cc">
<polygon fill="#ffffff" stroke="#000000" points="665.5,-84 665.5,-114 803.5,-114 803.5,-84 665.5,-84"/>
<text text-anchor="start" x="673.5" y="-102" font-family="Helvetica,sans-Serif" font-size="10.00" fill="#000000">drake/systems/rendering</text>
<text text-anchor="middle" x="734.5" y="-91" font-family="Helvetica,sans-Serif" font-size="10.00" fill="#000000">/pose_aggregator.cc</text>
</a>
</g>
</g>
<!-- Node115&#45;&gt;Node122 -->
<g id="edge7" class="edge">
<title>Node115&#45;&gt;Node122</title>
<path fill="none" stroke="#191970" d="M624.7083,-152.066C649.4345,-140.115 680.642,-125.0313 703.4597,-114.0028"/>
<polygon fill="#191970" stroke="#191970" points="623.0605,-148.975 615.5801,-156.478 626.1067,-155.2774 623.0605,-148.975"/>
</g>
<!-- Node123 -->
<g id="node9" class="node">
<title>Node123</title>
<g id="a_node9"><a xlink:href="pose__aggregator__test_8cc.html" target="_top" xlink:title="drake/systems/rendering\l/test/pose_aggregator\l_test.cc">
<polygon fill="#ffffff" stroke="#000000" points="821.5,-78.5 821.5,-119.5 959.5,-119.5 959.5,-78.5 821.5,-78.5"/>
<text text-anchor="start" x="829.5" y="-107.5" font-family="Helvetica,sans-Serif" font-size="10.00" fill="#000000">drake/systems/rendering</text>
<text text-anchor="start" x="829.5" y="-96.5" font-family="Helvetica,sans-Serif" font-size="10.00" fill="#000000">/test/pose_aggregator</text>
<text text-anchor="middle" x="890.5" y="-85.5" font-family="Helvetica,sans-Serif" font-size="10.00" fill="#000000">_test.cc</text>
</a>
</g>
</g>
<!-- Node115&#45;&gt;Node123 -->
<g id="edge8" class="edge">
<title>Node115&#45;&gt;Node123</title>
<path fill="none" stroke="#191970" d="M663.2905,-154.5342C707.2947,-144.8505 763.0593,-132.2338 812.5,-120 815.3588,-119.2926 818.2734,-118.56 821.2155,-117.811"/>
<polygon fill="#191970" stroke="#191970" points="662.5331,-151.117 653.516,-156.6796 664.0339,-157.9543 662.5331,-151.117"/>
</g>
<!-- Node117 -->
<g id="node3" class="node">
<title>Node117</title>
<g id="a_node3"><a xlink:href="automotive__demo_8cc.html" target="_top" xlink:title="drake/automotive/automotive\l_demo.cc">
<polygon fill="#ffffff" stroke="#000000" points="0,-6 0,-36 163,-36 163,-6 0,-6"/>
<text text-anchor="start" x="8" y="-24" font-family="Helvetica,sans-Serif" font-size="10.00" fill="#000000">drake/automotive/automotive</text>
<text text-anchor="middle" x="81.5" y="-13" font-family="Helvetica,sans-Serif" font-size="10.00" fill="#000000">_demo.cc</text>
</a>
</g>
</g>
<!-- Node116&#45;&gt;Node117 -->
<g id="edge2" class="edge">
<title>Node116&#45;&gt;Node117</title>
<path fill="none" stroke="#191970" d="M218.2428,-79.9278C186.9649,-66.4489 145.6102,-48.6276 116.5998,-36.1259"/>
<polygon fill="#191970" stroke="#191970" points="217.0326,-83.2174 227.6014,-83.9608 219.803,-76.789 217.0326,-83.2174"/>
</g>
<!-- Node118 -->
<g id="node4" class="node">
<title>Node118</title>
<g id="a_node4"><a xlink:href="automotive__simulator_8cc.html" target="_top" xlink:title="drake/automotive/automotive\l_simulator.cc">
<polygon fill="#ffffff" stroke="#000000" points="181,-6 181,-36 344,-36 344,-6 181,-6"/>
<text text-anchor="start" x="189" y="-24" font-family="Helvetica,sans-Serif" font-size="10.00" fill="#000000">drake/automotive/automotive</text>
<text text-anchor="middle" x="262.5" y="-13" font-family="Helvetica,sans-Serif" font-size="10.00" fill="#000000">_simulator.cc</text>
</a>
</g>
</g>
<!-- Node116&#45;&gt;Node118 -->
<g id="edge3" class="edge">
<title>Node116&#45;&gt;Node118</title>
<path fill="none" stroke="#191970" d="M262.5,-73.7875C262.5,-61.4187 262.5,-46.9264 262.5,-36.2592"/>
<polygon fill="#191970" stroke="#191970" points="259.0001,-73.9608 262.5,-83.9608 266.0001,-73.9608 259.0001,-73.9608"/>
</g>
<!-- Node119 -->
<g id="node5" class="node">
<title>Node119</title>
<g id="a_node5"><a xlink:href="automotive__simulator__test_8cc.html" target="_top" xlink:title="drake/automotive/test\l/automotive_simulator\l_test.cc">
<polygon fill="#ffffff" stroke="#000000" points="362.5,-.5 362.5,-41.5 490.5,-41.5 490.5,-.5 362.5,-.5"/>
<text text-anchor="start" x="370.5" y="-29.5" font-family="Helvetica,sans-Serif" font-size="10.00" fill="#000000">drake/automotive/test</text>
<text text-anchor="start" x="370.5" y="-18.5" font-family="Helvetica,sans-Serif" font-size="10.00" fill="#000000">/automotive_simulator</text>
<text text-anchor="middle" x="426.5" y="-7.5" font-family="Helvetica,sans-Serif" font-size="10.00" fill="#000000">_test.cc</text>
</a>
</g>
</g>
<!-- Node116&#45;&gt;Node119 -->
<g id="edge4" class="edge">
<title>Node116&#45;&gt;Node119</title>
<path fill="none" stroke="#191970" d="M303.4231,-79.5366C327.7169,-67.9822 358.4958,-53.3435 383.1964,-41.5956"/>
<polygon fill="#191970" stroke="#191970" points="301.6482,-76.505 294.1208,-83.9608 304.6548,-82.8264 301.6482,-76.505"/>
</g>
</g>
</svg>
