<?xml version="1.0" encoding="UTF-8" standalone="no"?>
<!DOCTYPE svg PUBLIC "-//W3C//DTD SVG 1.1//EN"
 "http://www.w3.org/Graphics/SVG/1.1/DTD/svg11.dtd">
<!-- Generated by graphviz version 2.40.1 (20161225.0304)
 -->
<!-- Title: drake/multibody/inverse_kinematics/position_constraint.h Pages: 1 -->
<svg width="558pt" height="117pt"
 viewBox="0.00 0.00 558.00 117.00" xmlns="http://www.w3.org/2000/svg" xmlns:xlink="http://www.w3.org/1999/xlink">
<g id="graph0" class="graph" transform="scale(1 1) rotate(0) translate(4 113)">
<title>drake/multibody/inverse_kinematics/position_constraint.h</title>
<polygon fill="#ffffff" stroke="transparent" points="-4,4 -4,-113 554,-113 554,4 -4,4"/>
<!-- Node207 -->
<g id="node1" class="node">
<title>Node207</title>
<polygon fill="#bfbfbf" stroke="#000000" points="208.5,-78.5 208.5,-108.5 389.5,-108.5 389.5,-78.5 208.5,-78.5"/>
<text text-anchor="start" x="216.5" y="-96.5" font-family="Helvetica,sans-Serif" font-size="10.00" fill="#000000">drake/multibody/inverse</text>
<text text-anchor="middle" x="299" y="-85.5" font-family="Helvetica,sans-Serif" font-size="10.00" fill="#000000">_kinematics/position_constraint.h</text>
</g>
<!-- Node208 -->
<g id="node2" class="node">
<title>Node208</title>
<g id="a_node2"><a xlink:href="multibody_2inverse__kinematics_2inverse__kinematics_8cc.html" target="_top" xlink:title="drake/multibody/inverse\l_kinematics/inverse_kinematics.cc">
<polygon fill="#ffffff" stroke="#000000" points="0,-6 0,-36 188,-36 188,-6 0,-6"/>
<text text-anchor="start" x="8" y="-24" font-family="Helvetica,sans-Serif" font-size="10.00" fill="#000000">drake/multibody/inverse</text>
<text text-anchor="middle" x="94" y="-13" font-family="Helvetica,sans-Serif" font-size="10.00" fill="#000000">_kinematics/inverse_kinematics.cc</text>
</a>
</g>
</g>
<!-- Node207&#45;&gt;Node208 -->
<g id="edge1" class="edge">
<title>Node207&#45;&gt;Node208</title>
<path fill="none" stroke="#191970" d="M246.7093,-75.0069C212.5189,-62.9152 168.4301,-47.3228 136.4217,-36.0028"/>
<polygon fill="#191970" stroke="#191970" points="245.9291,-78.4434 256.5239,-78.478 248.2631,-71.844 245.9291,-78.4434"/>
</g>
<!-- Node209 -->
<g id="node3" class="node">
<title>Node209</title>
<g id="a_node3"><a xlink:href="position__constraint_8cc.html" target="_top" xlink:title="drake/multibody/inverse\l_kinematics/position_constraint.cc">
<polygon fill="#ffffff" stroke="#000000" points="206.5,-6 206.5,-36 391.5,-36 391.5,-6 206.5,-6"/>
<text text-anchor="start" x="214.5" y="-24" font-family="Helvetica,sans-Serif" font-size="10.00" fill="#000000">drake/multibody/inverse</text>
<text text-anchor="middle" x="299" y="-13" font-family="Helvetica,sans-Serif" font-size="10.00" fill="#000000">_kinematics/position_constraint.cc</text>
</a>
</g>
</g>
<!-- Node207&#45;&gt;Node209 -->
<g id="edge2" class="edge">
<title>Node207&#45;&gt;Node209</title>
<path fill="none" stroke="#191970" d="M299,-68.3409C299,-57.5601 299,-45.3309 299,-36.0028"/>
<polygon fill="#191970" stroke="#191970" points="295.5001,-68.4779 299,-78.478 302.5001,-68.478 295.5001,-68.4779"/>
</g>
<!-- Node210 -->
<g id="node4" class="node">
<title>Node210</title>
<g id="a_node4"><a xlink:href="position__constraint__test_8cc.html" target="_top" xlink:title="drake/multibody/inverse\l_kinematics/test/position\l_constraint_test.cc">
<polygon fill="#ffffff" stroke="#000000" points="410,-.5 410,-41.5 550,-41.5 550,-.5 410,-.5"/>
<text text-anchor="start" x="418" y="-29.5" font-family="Helvetica,sans-Serif" font-size="10.00" fill="#000000">drake/multibody/inverse</text>
<text text-anchor="start" x="418" y="-18.5" font-family="Helvetica,sans-Serif" font-size="10.00" fill="#000000">_kinematics/test/position</text>
<text text-anchor="middle" x="480" y="-7.5" font-family="Helvetica,sans-Serif" font-size="10.00" fill="#000000">_constraint_test.cc</text>
</a>
</g>
</g>
<!-- Node207&#45;&gt;Node210 -->
<g id="edge3" class="edge">
<title>Node207&#45;&gt;Node210</title>
<path fill="none" stroke="#191970" d="M345.9247,-74.7042C371.3384,-64.5247 402.7737,-51.9332 428.8169,-41.5015"/>
<polygon fill="#191970" stroke="#191970" points="344.4849,-71.5105 336.5033,-78.478 347.0878,-78.0086 344.4849,-71.5105"/>
</g>
</g>
</svg>
