<?xml version="1.0" encoding="UTF-8" standalone="no"?>
<!DOCTYPE svg PUBLIC "-//W3C//DTD SVG 1.1//EN"
 "http://www.w3.org/Graphics/SVG/1.1/DTD/svg11.dtd">
<!-- Generated by graphviz version 2.40.1 (20161225.0304)
 -->
<!-- Title: drake/common/proto/protobuf.cc Pages: 1 -->
<svg width="355pt" height="173pt"
 viewBox="0.00 0.00 355.00 173.00" xmlns="http://www.w3.org/2000/svg" xmlns:xlink="http://www.w3.org/1999/xlink">
<g id="graph0" class="graph" transform="scale(1 1) rotate(0) translate(4 169)">
<title>drake/common/proto/protobuf.cc</title>
<polygon fill="#ffffff" stroke="transparent" points="-4,4 -4,-169 351,-169 351,4 -4,4"/>
<!-- Node0 -->
<g id="node1" class="node">
<title>Node0</title>
<polygon fill="#bfbfbf" stroke="#000000" points="139.5,-134.5 139.5,-164.5 258.5,-164.5 258.5,-134.5 139.5,-134.5"/>
<text text-anchor="start" x="147.5" y="-152.5" font-family="Helvetica,sans-Serif" font-size="10.00" fill="#000000">drake/common/proto</text>
<text text-anchor="middle" x="199" y="-141.5" font-family="Helvetica,sans-Serif" font-size="10.00" fill="#000000">/protobuf.cc</text>
</g>
<!-- Node1 -->
<g id="node2" class="node">
<title>Node1</title>
<g id="a_node2"><a xlink:href="protobuf_8h.html" target="_top" xlink:title="drake/common/proto\l/protobuf.h">
<polygon fill="#ffffff" stroke="#000000" points="38.5,-67.5 38.5,-97.5 157.5,-97.5 157.5,-67.5 38.5,-67.5"/>
<text text-anchor="start" x="46.5" y="-85.5" font-family="Helvetica,sans-Serif" font-size="10.00" fill="#000000">drake/common/proto</text>
<text text-anchor="middle" x="98" y="-74.5" font-family="Helvetica,sans-Serif" font-size="10.00" fill="#000000">/protobuf.h</text>
</a>
</g>
</g>
<!-- Node0&#45;&gt;Node1 -->
<g id="edge1" class="edge">
<title>Node0&#45;&gt;Node1</title>
<path fill="none" stroke="#191970" d="M176.3336,-134.4639C162.526,-125.3044 144.6811,-113.4667 129.5118,-103.4038"/>
<polygon fill="#191970" stroke="#191970" points="131.2082,-100.3291 120.9402,-97.7177 127.3386,-106.1623 131.2082,-100.3291"/>
</g>
<!-- Node5 -->
<g id="node6" class="node">
<title>Node5</title>
<polygon fill="#ffffff" stroke="#bfbfbf" points="175.5,-73 175.5,-92 222.5,-92 222.5,-73 175.5,-73"/>
<text text-anchor="middle" x="199" y="-80" font-family="Helvetica,sans-Serif" font-size="10.00" fill="#000000">fcntl.h</text>
</g>
<!-- Node0&#45;&gt;Node5 -->
<g id="edge5" class="edge">
<title>Node0&#45;&gt;Node5</title>
<path fill="none" stroke="#191970" d="M199,-134.2967C199,-124.7699 199,-112.3954 199,-102.1306"/>
<polygon fill="#191970" stroke="#191970" points="202.5001,-102.0549 199,-92.055 195.5001,-102.055 202.5001,-102.0549"/>
</g>
<!-- Node6 -->
<g id="node7" class="node">
<title>Node6</title>
<polygon fill="#ffffff" stroke="#bfbfbf" points="241,-67.5 241,-97.5 347,-97.5 347,-67.5 241,-67.5"/>
<text text-anchor="start" x="249" y="-85.5" font-family="Helvetica,sans-Serif" font-size="10.00" fill="#000000">google/protobuf/io</text>
<text text-anchor="middle" x="294" y="-74.5" font-family="Helvetica,sans-Serif" font-size="10.00" fill="#000000">/coded_stream.h</text>
</g>
<!-- Node0&#45;&gt;Node6 -->
<g id="edge6" class="edge">
<title>Node0&#45;&gt;Node6</title>
<path fill="none" stroke="#191970" d="M220.557,-134.2967C233.4321,-125.2163 249.9755,-113.5488 264.1005,-103.587"/>
<polygon fill="#191970" stroke="#191970" points="266.3735,-106.2669 272.5283,-97.6432 262.339,-100.5464 266.3735,-106.2669"/>
</g>
<!-- Node2 -->
<g id="node3" class="node">
<title>Node2</title>
<polygon fill="#ffffff" stroke="#bfbfbf" points="0,-6 0,-25 58,-25 58,-6 0,-6"/>
<text text-anchor="middle" x="29" y="-13" font-family="Helvetica,sans-Serif" font-size="10.00" fill="#000000">memory</text>
</g>
<!-- Node1&#45;&gt;Node2 -->
<g id="edge2" class="edge">
<title>Node1&#45;&gt;Node2</title>
<path fill="none" stroke="#191970" d="M82.3428,-67.2967C71.5923,-56.8578 57.3206,-42.9997 46.2445,-32.2446"/>
<polygon fill="#191970" stroke="#191970" points="48.4527,-29.5103 38.8402,-25.055 43.5763,-34.5323 48.4527,-29.5103"/>
</g>
<!-- Node3 -->
<g id="node4" class="node">
<title>Node3</title>
<polygon fill="#ffffff" stroke="#bfbfbf" points="76,-6 76,-25 120,-25 120,-6 76,-6"/>
<text text-anchor="middle" x="98" y="-13" font-family="Helvetica,sans-Serif" font-size="10.00" fill="#000000">string</text>
</g>
<!-- Node1&#45;&gt;Node3 -->
<g id="edge3" class="edge">
<title>Node1&#45;&gt;Node3</title>
<path fill="none" stroke="#191970" d="M98,-67.2967C98,-57.7699 98,-45.3954 98,-35.1306"/>
<polygon fill="#191970" stroke="#191970" points="101.5001,-35.0549 98,-25.055 94.5001,-35.055 101.5001,-35.0549"/>
</g>
<!-- Node4 -->
<g id="node5" class="node">
<title>Node4</title>
<polygon fill="#ffffff" stroke="#bfbfbf" points="138.5,-.5 138.5,-30.5 283.5,-30.5 283.5,-.5 138.5,-.5"/>
<text text-anchor="start" x="146.5" y="-18.5" font-family="Helvetica,sans-Serif" font-size="10.00" fill="#000000">google/protobuf/io</text>
<text text-anchor="middle" x="211" y="-7.5" font-family="Helvetica,sans-Serif" font-size="10.00" fill="#000000">/zero_copy_stream_impl.h</text>
</g>
<!-- Node1&#45;&gt;Node4 -->
<g id="edge4" class="edge">
<title>Node1&#45;&gt;Node4</title>
<path fill="none" stroke="#191970" d="M123.3594,-67.4639C139.0963,-58.1332 159.5205,-46.0232 176.6928,-35.8415"/>
<polygon fill="#191970" stroke="#191970" points="178.5176,-38.8285 185.3343,-30.7177 174.9475,-32.8073 178.5176,-38.8285"/>
</g>
</g>
</svg>
