<?xml version="1.0" encoding="UTF-8" standalone="no"?>
<!DOCTYPE svg PUBLIC "-//W3C//DTD SVG 1.1//EN"
 "http://www.w3.org/Graphics/SVG/1.1/DTD/svg11.dtd">
<!-- Generated by graphviz version 2.40.1 (20161225.0304)
 -->
<!-- Title: drake/math/quadratic_form.h Pages: 1 -->
<svg width="142pt" height="95pt"
 viewBox="0.00 0.00 141.50 95.00" xmlns="http://www.w3.org/2000/svg" xmlns:xlink="http://www.w3.org/1999/xlink">
<g id="graph0" class="graph" transform="scale(1 1) rotate(0) translate(4 91)">
<title>drake/math/quadratic_form.h</title>
<polygon fill="#ffffff" stroke="transparent" points="-4,4 -4,-91 137.5,-91 137.5,4 -4,4"/>
<!-- Node0 -->
<g id="node1" class="node">
<title>Node0</title>
<polygon fill="#bfbfbf" stroke="#000000" points="0,-56.5 0,-86.5 122,-86.5 122,-56.5 0,-56.5"/>
<text text-anchor="start" x="8" y="-74.5" font-family="Helvetica,sans-Serif" font-size="10.00" fill="#000000">drake/math/quadratic</text>
<text text-anchor="middle" x="61" y="-63.5" font-family="Helvetica,sans-Serif" font-size="10.00" fill="#000000">_form.h</text>
</g>
<!-- Node1 -->
<g id="node2" class="node">
<title>Node1</title>
<polygon fill="#ffffff" stroke="#bfbfbf" points="1.5,-.5 1.5,-19.5 46.5,-19.5 46.5,-.5 1.5,-.5"/>
<text text-anchor="middle" x="24" y="-7.5" font-family="Helvetica,sans-Serif" font-size="10.00" fill="#000000">utility</text>
</g>
<!-- Node0&#45;&gt;Node1 -->
<g id="edge1" class="edge">
<title>Node0&#45;&gt;Node1</title>
<path fill="none" stroke="#191970" d="M51.8539,-56.2977C46.8249,-47.9388 40.5445,-37.4997 35.2209,-28.6509"/>
<polygon fill="#191970" stroke="#191970" points="38.0785,-26.6114 29.9242,-19.8469 32.0803,-30.2201 38.0785,-26.6114"/>
</g>
<!-- Node2 -->
<g id="node3" class="node">
<title>Node2</title>
<polygon fill="#ffffff" stroke="#bfbfbf" points="64.5,-.5 64.5,-19.5 133.5,-19.5 133.5,-.5 64.5,-.5"/>
<text text-anchor="middle" x="99" y="-7.5" font-family="Helvetica,sans-Serif" font-size="10.00" fill="#000000">Eigen/Core</text>
</g>
<!-- Node0&#45;&gt;Node2 -->
<g id="edge2" class="edge">
<title>Node0&#45;&gt;Node2</title>
<path fill="none" stroke="#191970" d="M70.3933,-56.2977C75.6131,-47.8498 82.1457,-37.2773 87.65,-28.369"/>
<polygon fill="#191970" stroke="#191970" points="90.6368,-30.1938 92.9157,-19.8469 84.6818,-26.5143 90.6368,-30.1938"/>
</g>
</g>
</svg>
