<?xml version="1.0" encoding="UTF-8" standalone="no"?>
<!DOCTYPE svg PUBLIC "-//W3C//DTD SVG 1.1//EN"
 "http://www.w3.org/Graphics/SVG/1.1/DTD/svg11.dtd">
<!-- Generated by graphviz version 2.40.1 (20161225.0304)
 -->
<!-- Title: drake/math/quadratic_form.h Pages: 1 -->
<svg width="756pt" height="106pt"
 viewBox="0.00 0.00 756.00 106.00" xmlns="http://www.w3.org/2000/svg" xmlns:xlink="http://www.w3.org/1999/xlink">
<g id="graph0" class="graph" transform="scale(1 1) rotate(0) translate(4 102)">
<title>drake/math/quadratic_form.h</title>
<polygon fill="#ffffff" stroke="transparent" points="-4,4 -4,-102 752,-102 752,4 -4,4"/>
<!-- Node3 -->
<g id="node1" class="node">
<title>Node3</title>
<polygon fill="#bfbfbf" stroke="#000000" points="299,-67.5 299,-97.5 421,-97.5 421,-67.5 299,-67.5"/>
<text text-anchor="start" x="307" y="-85.5" font-family="Helvetica,sans-Serif" font-size="10.00" fill="#000000">drake/math/quadratic</text>
<text text-anchor="middle" x="360" y="-74.5" font-family="Helvetica,sans-Serif" font-size="10.00" fill="#000000">_form.h</text>
</g>
<!-- Node4 -->
<g id="node2" class="node">
<title>Node4</title>
<g id="a_node2"><a xlink:href="quadratic__form_8cc.html" target="_top" xlink:title="drake/math/quadratic\l_form.cc">
<polygon fill="#ffffff" stroke="#000000" points="0,-.5 0,-30.5 122,-30.5 122,-.5 0,-.5"/>
<text text-anchor="start" x="8" y="-18.5" font-family="Helvetica,sans-Serif" font-size="10.00" fill="#000000">drake/math/quadratic</text>
<text text-anchor="middle" x="61" y="-7.5" font-family="Helvetica,sans-Serif" font-size="10.00" fill="#000000">_form.cc</text>
</a>
</g>
</g>
<!-- Node3&#45;&gt;Node4 -->
<g id="edge1" class="edge">
<title>Node3&#45;&gt;Node4</title>
<path fill="none" stroke="#191970" d="M288.8514,-66.557C238.0778,-55.1796 170.4976,-40.0363 122.1467,-29.2018"/>
<polygon fill="#191970" stroke="#191970" points="288.248,-70.0085 298.7714,-68.7799 289.7787,-63.1779 288.248,-70.0085"/>
</g>
<!-- Node5 -->
<g id="node3" class="node">
<title>Node5</title>
<g id="a_node3"><a xlink:href="quadratic__form__test_8cc.html" target="_top" xlink:title="drake/math/test/quadratic\l_form_test.cc">
<polygon fill="#ffffff" stroke="#000000" points="140.5,-.5 140.5,-30.5 283.5,-30.5 283.5,-.5 140.5,-.5"/>
<text text-anchor="start" x="148.5" y="-18.5" font-family="Helvetica,sans-Serif" font-size="10.00" fill="#000000">drake/math/test/quadratic</text>
<text text-anchor="middle" x="212" y="-7.5" font-family="Helvetica,sans-Serif" font-size="10.00" fill="#000000">_form_test.cc</text>
</a>
</g>
</g>
<!-- Node3&#45;&gt;Node5 -->
<g id="edge2" class="edge">
<title>Node3&#45;&gt;Node5</title>
<path fill="none" stroke="#191970" d="M317.6173,-63.3132C294.6739,-52.9267 266.7366,-40.2794 245.359,-30.6017"/>
<polygon fill="#191970" stroke="#191970" points="316.2325,-66.5282 326.7859,-67.4639 319.1194,-60.1512 316.2325,-66.5282"/>
</g>
<!-- Node6 -->
<g id="node4" class="node">
<title>Node6</title>
<g id="a_node4"><a xlink:href="create__constraint_8cc.html" target="_top" xlink:title="drake/solvers/create\l_constraint.cc">
<polygon fill="#ffffff" stroke="#000000" points="302,-.5 302,-30.5 418,-30.5 418,-.5 302,-.5"/>
<text text-anchor="start" x="310" y="-18.5" font-family="Helvetica,sans-Serif" font-size="10.00" fill="#000000">drake/solvers/create</text>
<text text-anchor="middle" x="360" y="-7.5" font-family="Helvetica,sans-Serif" font-size="10.00" fill="#000000">_constraint.cc</text>
</a>
</g>
</g>
<!-- Node3&#45;&gt;Node6 -->
<g id="edge3" class="edge">
<title>Node3&#45;&gt;Node6</title>
<path fill="none" stroke="#191970" d="M360,-57.0249C360,-48.128 360,-38.4287 360,-30.6432"/>
<polygon fill="#191970" stroke="#191970" points="356.5001,-57.2966 360,-67.2967 363.5001,-57.2967 356.5001,-57.2966"/>
</g>
<!-- Node7 -->
<g id="node5" class="node">
<title>Node7</title>
<g id="a_node5"><a xlink:href="non__convex__optimization__util_8cc.html" target="_top" xlink:title="drake/solvers/non_convex\l_optimization_util.cc">
<polygon fill="#ffffff" stroke="#000000" points="436,-.5 436,-30.5 580,-30.5 580,-.5 436,-.5"/>
<text text-anchor="start" x="444" y="-18.5" font-family="Helvetica,sans-Serif" font-size="10.00" fill="#000000">drake/solvers/non_convex</text>
<text text-anchor="middle" x="508" y="-7.5" font-family="Helvetica,sans-Serif" font-size="10.00" fill="#000000">_optimization_util.cc</text>
</a>
</g>
</g>
<!-- Node3&#45;&gt;Node7 -->
<g id="edge4" class="edge">
<title>Node3&#45;&gt;Node7</title>
<path fill="none" stroke="#191970" d="M402.3827,-63.3132C425.3261,-52.9267 453.2634,-40.2794 474.641,-30.6017"/>
<polygon fill="#191970" stroke="#191970" points="400.8806,-60.1512 393.2141,-67.4639 403.7675,-66.5282 400.8806,-60.1512"/>
</g>
<!-- Node8 -->
<g id="node6" class="node">
<title>Node8</title>
<g id="a_node6"><a xlink:href="scs__solver_8cc.html" target="_top" xlink:title="drake/solvers/scs_solver.cc">
<polygon fill="#ffffff" stroke="#000000" points="598,-6 598,-25 748,-25 748,-6 598,-6"/>
<text text-anchor="middle" x="673" y="-13" font-family="Helvetica,sans-Serif" font-size="10.00" fill="#000000">drake/solvers/scs_solver.cc</text>
</a>
</g>
</g>
<!-- Node3&#45;&gt;Node8 -->
<g id="edge5" class="edge">
<title>Node3&#45;&gt;Node8</title>
<path fill="none" stroke="#191970" d="M430.9678,-67.3088C491.531,-54.3448 576.7602,-36.1009 628.2509,-25.0789"/>
<polygon fill="#191970" stroke="#191970" points="430.1384,-63.907 421.0926,-69.4227 431.6037,-70.7519 430.1384,-63.907"/>
</g>
</g>
</svg>
