<?xml version="1.0" encoding="UTF-8" standalone="no"?>
<!DOCTYPE svg PUBLIC "-//W3C//DTD SVG 1.1//EN"
 "http://www.w3.org/Graphics/SVG/1.1/DTD/svg11.dtd">
<!-- Generated by graphviz version 2.40.1 (20161225.0304)
 -->
<!-- Title: drake/attic/manipulation/scene_generation/random_clutter_generator.h Pages: 1 -->
<svg width="823pt" height="184pt"
 viewBox="0.00 0.00 822.50 184.00" xmlns="http://www.w3.org/2000/svg" xmlns:xlink="http://www.w3.org/1999/xlink">
<g id="graph0" class="graph" transform="scale(1 1) rotate(0) translate(4 180)">
<title>drake/attic/manipulation/scene_generation/random_clutter_generator.h</title>
<polygon fill="#ffffff" stroke="transparent" points="-4,4 -4,-180 818.5,-180 818.5,4 -4,4"/>
<!-- Node0 -->
<g id="node1" class="node">
<title>Node0</title>
<polygon fill="#bfbfbf" stroke="#000000" points="186,-134.5 186,-175.5 332,-175.5 332,-134.5 186,-134.5"/>
<text text-anchor="start" x="194" y="-163.5" font-family="Helvetica,sans-Serif" font-size="10.00" fill="#000000">drake/attic/manipulation</text>
<text text-anchor="start" x="194" y="-152.5" font-family="Helvetica,sans-Serif" font-size="10.00" fill="#000000">/scene_generation/random</text>
<text text-anchor="middle" x="259" y="-141.5" font-family="Helvetica,sans-Serif" font-size="10.00" fill="#000000">_clutter_generator.h</text>
</g>
<!-- Node1 -->
<g id="node2" class="node">
<title>Node1</title>
<polygon fill="#ffffff" stroke="#bfbfbf" points="0,-73 0,-92 54,-92 54,-73 0,-73"/>
<text text-anchor="middle" x="27" y="-80" font-family="Helvetica,sans-Serif" font-size="10.00" fill="#000000">random</text>
</g>
<!-- Node0&#45;&gt;Node1 -->
<g id="edge1" class="edge">
<title>Node0&#45;&gt;Node1</title>
<path fill="none" stroke="#191970" d="M185.7105,-136.0012C148.5901,-125.7961 103.0223,-112.3734 63,-98 61.1748,-97.3445 59.3098,-96.6429 57.4365,-95.9135"/>
<polygon fill="#191970" stroke="#191970" points="58.7276,-92.6602 48.1465,-92.1203 56.0815,-99.1408 58.7276,-92.6602"/>
</g>
<!-- Node2 -->
<g id="node3" class="node">
<title>Node2</title>
<polygon fill="#ffffff" stroke="#bfbfbf" points="72,-73 72,-92 104,-92 104,-73 72,-73"/>
<text text-anchor="middle" x="88" y="-80" font-family="Helvetica,sans-Serif" font-size="10.00" fill="#000000">set</text>
</g>
<!-- Node0&#45;&gt;Node2 -->
<g id="edge2" class="edge">
<title>Node0&#45;&gt;Node2</title>
<path fill="none" stroke="#191970" d="M198.9711,-134.384C172.1718,-124.4668 140.5023,-111.7497 113,-98 112.4576,-97.7288 111.9117,-97.4494 111.3638,-97.1632"/>
<polygon fill="#191970" stroke="#191970" points="112.9704,-94.0503 102.5494,-92.1387 109.5038,-100.1317 112.9704,-94.0503"/>
</g>
<!-- Node3 -->
<g id="node4" class="node">
<title>Node3</title>
<polygon fill="#ffffff" stroke="#bfbfbf" points="122,-73 122,-92 166,-92 166,-73 122,-73"/>
<text text-anchor="middle" x="144" y="-80" font-family="Helvetica,sans-Serif" font-size="10.00" fill="#000000">string</text>
</g>
<!-- Node0&#45;&gt;Node3 -->
<g id="edge3" class="edge">
<title>Node0&#45;&gt;Node3</title>
<path fill="none" stroke="#191970" d="M226.3532,-134.4183C207.7517,-122.6913 184.8531,-108.2552 167.9276,-97.5848"/>
<polygon fill="#191970" stroke="#191970" points="169.5302,-94.4577 159.2043,-92.0853 165.797,-100.3791 169.5302,-94.4577"/>
</g>
<!-- Node4 -->
<g id="node5" class="node">
<title>Node4</title>
<polygon fill="#ffffff" stroke="#bfbfbf" points="184.5,-73 184.5,-92 231.5,-92 231.5,-73 184.5,-73"/>
<text text-anchor="middle" x="208" y="-80" font-family="Helvetica,sans-Serif" font-size="10.00" fill="#000000">vector</text>
</g>
<!-- Node0&#45;&gt;Node4 -->
<g id="edge4" class="edge">
<title>Node0&#45;&gt;Node4</title>
<path fill="none" stroke="#191970" d="M244.5219,-134.4183C236.9599,-123.6685 227.7967,-110.6424 220.5405,-100.3271"/>
<polygon fill="#191970" stroke="#191970" points="223.359,-98.2507 214.7428,-92.0853 217.6337,-102.2782 223.359,-98.2507"/>
</g>
<!-- Node5 -->
<g id="node6" class="node">
<title>Node5</title>
<g id="a_node6"><a xlink:href="drake__optional_8h.html" target="_top" xlink:title="Provides drake::optional as an alias for the appropriate implementation of std::optional or std::expe...">
<polygon fill="#ffffff" stroke="#000000" points="249.5,-67.5 249.5,-97.5 370.5,-97.5 370.5,-67.5 249.5,-67.5"/>
<text text-anchor="start" x="257.5" y="-85.5" font-family="Helvetica,sans-Serif" font-size="10.00" fill="#000000">drake/common/drake</text>
<text text-anchor="middle" x="310" y="-74.5" font-family="Helvetica,sans-Serif" font-size="10.00" fill="#000000">_optional.h</text>
</a>
</g>
</g>
<!-- Node0&#45;&gt;Node5 -->
<g id="edge5" class="edge">
<title>Node0&#45;&gt;Node5</title>
<path fill="none" stroke="#191970" d="M273.4781,-134.4183C279.7268,-125.5354 287.0689,-115.0981 293.5249,-105.9205"/>
<polygon fill="#191970" stroke="#191970" points="296.4877,-107.7919 299.3786,-97.5991 290.7623,-103.7644 296.4877,-107.7919"/>
</g>
<!-- Node8 -->
<g id="node9" class="node">
<title>Node8</title>
<g id="a_node9"><a xlink:href="eigen__types_8h.html" target="_top" xlink:title="This file contains abbreviated definitions for certain specializations of Eigen::Matrix that are comm...">
<polygon fill="#ffffff" stroke="#000000" points="389,-67.5 389,-97.5 509,-97.5 509,-67.5 389,-67.5"/>
<text text-anchor="start" x="397" y="-85.5" font-family="Helvetica,sans-Serif" font-size="10.00" fill="#000000">drake/common/eigen</text>
<text text-anchor="middle" x="449" y="-74.5" font-family="Helvetica,sans-Serif" font-size="10.00" fill="#000000">_types.h</text>
</a>
</g>
</g>
<!-- Node0&#45;&gt;Node8 -->
<g id="edge8" class="edge">
<title>Node0&#45;&gt;Node8</title>
<path fill="none" stroke="#191970" d="M312.9382,-134.4183C340.2975,-123.9786 373.2832,-111.3919 399.9241,-101.2263"/>
<polygon fill="#191970" stroke="#191970" points="401.3348,-104.4343 409.4299,-97.5991 398.8392,-97.8942 401.3348,-104.4343"/>
</g>
<!-- Node13 -->
<g id="node14" class="node">
<title>Node13</title>
<polygon fill="#ffffff" stroke="#bfbfbf" points="527,-67.5 527,-97.5 649,-97.5 649,-67.5 527,-67.5"/>
<text text-anchor="start" x="535" y="-85.5" font-family="Helvetica,sans-Serif" font-size="10.00" fill="#000000">drake/multibody/rigid</text>
<text text-anchor="middle" x="588" y="-74.5" font-family="Helvetica,sans-Serif" font-size="10.00" fill="#000000">_body_constraint.h</text>
</g>
<!-- Node0&#45;&gt;Node13 -->
<g id="edge13" class="edge">
<title>Node0&#45;&gt;Node13</title>
<path fill="none" stroke="#191970" d="M332.1291,-138.9323C381.5778,-128.0614 448.6431,-113.3059 516.8483,-98.2529"/>
<polygon fill="#191970" stroke="#191970" points="517.9071,-101.6035 526.9176,-96.0302 516.3983,-94.768 517.9071,-101.6035"/>
</g>
<!-- Node14 -->
<g id="node15" class="node">
<title>Node14</title>
<polygon fill="#ffffff" stroke="#bfbfbf" points="667,-67.5 667,-97.5 789,-97.5 789,-67.5 667,-67.5"/>
<text text-anchor="start" x="675" y="-85.5" font-family="Helvetica,sans-Serif" font-size="10.00" fill="#000000">drake/multibody/rigid</text>
<text text-anchor="middle" x="728" y="-74.5" font-family="Helvetica,sans-Serif" font-size="10.00" fill="#000000">_body_tree.h</text>
</g>
<!-- Node0&#45;&gt;Node14 -->
<g id="edge14" class="edge">
<title>Node0&#45;&gt;Node14</title>
<path fill="none" stroke="#191970" d="M332.0769,-146.2538C410.101,-136.5325 537.5457,-119.557 656.9242,-98.1184"/>
<polygon fill="#191970" stroke="#191970" points="657.7552,-101.525 666.9719,-96.2998 656.5084,-94.6369 657.7552,-101.525"/>
</g>
<!-- Node6 -->
<g id="node7" class="node">
<title>Node6</title>
<polygon fill="#ffffff" stroke="#bfbfbf" points="133,-6 133,-25 223,-25 223,-6 133,-6"/>
<text text-anchor="middle" x="178" y="-13" font-family="Helvetica,sans-Serif" font-size="10.00" fill="#000000">stx/variant.hpp</text>
</g>
<!-- Node5&#45;&gt;Node6 -->
<g id="edge6" class="edge">
<title>Node5&#45;&gt;Node6</title>
<path fill="none" stroke="#191970" d="M280.3766,-67.4639C258.1289,-56.1715 227.8616,-40.8086 206.0139,-29.7192"/>
<polygon fill="#191970" stroke="#191970" points="207.4224,-26.5091 196.9212,-25.1039 204.2541,-32.7511 207.4224,-26.5091"/>
</g>
<!-- Node7 -->
<g id="node8" class="node">
<title>Node7</title>
<polygon fill="#ffffff" stroke="#bfbfbf" points="241.5,-6 241.5,-25 336.5,-25 336.5,-6 241.5,-6"/>
<text text-anchor="middle" x="289" y="-13" font-family="Helvetica,sans-Serif" font-size="10.00" fill="#000000">stx/optional.hpp</text>
</g>
<!-- Node5&#45;&gt;Node7 -->
<g id="edge7" class="edge">
<title>Node5&#45;&gt;Node7</title>
<path fill="none" stroke="#191970" d="M305.2348,-67.2967C302.217,-57.6685 298.2876,-45.1318 295.0504,-34.8038"/>
<polygon fill="#191970" stroke="#191970" points="298.3256,-33.5504 291.9948,-25.055 291.646,-35.6441 298.3256,-33.5504"/>
</g>
<!-- Node9 -->
<g id="node10" class="node">
<title>Node9</title>
<polygon fill="#ffffff" stroke="#bfbfbf" points="355,-6 355,-25 413,-25 413,-6 355,-6"/>
<text text-anchor="middle" x="384" y="-13" font-family="Helvetica,sans-Serif" font-size="10.00" fill="#000000">memory</text>
</g>
<!-- Node8&#45;&gt;Node9 -->
<g id="edge9" class="edge">
<title>Node8&#45;&gt;Node9</title>
<path fill="none" stroke="#191970" d="M434.2505,-67.2967C424.1232,-56.8578 410.6788,-42.9997 400.2448,-32.2446"/>
<polygon fill="#191970" stroke="#191970" points="402.745,-29.7953 393.2697,-25.055 397.7208,-34.6695 402.745,-29.7953"/>
</g>
<!-- Node10 -->
<g id="node11" class="node">
<title>Node10</title>
<polygon fill="#ffffff" stroke="#bfbfbf" points="431.5,-6 431.5,-25 508.5,-25 508.5,-6 431.5,-6"/>
<text text-anchor="middle" x="470" y="-13" font-family="Helvetica,sans-Serif" font-size="10.00" fill="#000000">Eigen/Dense</text>
</g>
<!-- Node8&#45;&gt;Node10 -->
<g id="edge10" class="edge">
<title>Node8&#45;&gt;Node10</title>
<path fill="none" stroke="#191970" d="M453.7652,-67.2967C456.783,-57.6685 460.7124,-45.1318 463.9496,-34.8038"/>
<polygon fill="#191970" stroke="#191970" points="467.354,-35.6441 467.0052,-25.055 460.6744,-33.5504 467.354,-35.6441"/>
</g>
<!-- Node11 -->
<g id="node12" class="node">
<title>Node11</title>
<g id="a_node12"><a xlink:href="constants_8h.html" target="_top" xlink:title="drake/common/constants.h">
<polygon fill="#ffffff" stroke="#000000" points="526.5,-6 526.5,-25 675.5,-25 675.5,-6 526.5,-6"/>
<text text-anchor="middle" x="601" y="-13" font-family="Helvetica,sans-Serif" font-size="10.00" fill="#000000">drake/common/constants.h</text>
</a>
</g>
</g>
<!-- Node8&#45;&gt;Node11 -->
<g id="edge11" class="edge">
<title>Node8&#45;&gt;Node11</title>
<path fill="none" stroke="#191970" d="M483.1118,-67.4639C509.0749,-56.0196 544.523,-40.3945 569.7515,-29.274"/>
<polygon fill="#191970" stroke="#191970" points="571.4732,-32.3401 579.212,-25.1039 568.6498,-25.9347 571.4732,-32.3401"/>
</g>
<!-- Node12 -->
<g id="node13" class="node">
<title>Node12</title>
<g id="a_node13"><a xlink:href="drake__copyable_8h.html" target="_top" xlink:title="Provides careful macros to selectively enable or disable the special member functions for copy&#45;constr...">
<polygon fill="#ffffff" stroke="#000000" points="693.5,-.5 693.5,-30.5 814.5,-30.5 814.5,-.5 693.5,-.5"/>
<text text-anchor="start" x="701.5" y="-18.5" font-family="Helvetica,sans-Serif" font-size="10.00" fill="#000000">drake/common/drake</text>
<text text-anchor="middle" x="754" y="-7.5" font-family="Helvetica,sans-Serif" font-size="10.00" fill="#000000">_copyable.h</text>
</a>
</g>
</g>
<!-- Node8&#45;&gt;Node12 -->
<g id="edge12" class="edge">
<title>Node8&#45;&gt;Node12</title>
<path fill="none" stroke="#191970" d="M509.2039,-68.9437C512.1776,-68.2843 515.1222,-67.6334 518,-67 589.1109,-51.3486 609.2208,-47.6181 683.5779,-31.303"/>
<polygon fill="#191970" stroke="#191970" points="684.4091,-34.7039 693.4245,-29.1386 682.9063,-27.8672 684.4091,-34.7039"/>
</g>
</g>
</svg>
