<?xml version="1.0" encoding="UTF-8" standalone="no"?>
<!DOCTYPE svg PUBLIC "-//W3C//DTD SVG 1.1//EN"
 "http://www.w3.org/Graphics/SVG/1.1/DTD/svg11.dtd">
<!-- Generated by graphviz version 2.40.1 (20161225.0304)
 -->
<!-- Title: drake/attic/systems/sensors/rgbd_renderer_vtk.cc Pages: 1 -->
<!--zoomable 184 -->
<svg id="main" version="1.1" xmlns="http://www.w3.org/2000/svg" xmlns:xlink="http://www.w3.org/1999/xlink" xml:space="preserve" onload="init(evt)">
<style type="text/css"><![CDATA[
.edge:hover path { stroke: red; }
.edge:hover polygon { stroke: red; fill: red; }
]]></style>
<script type="text/javascript"><![CDATA[
var edges = document.getElementsByTagName('g');
if (edges && edges.length) {
  for (var i=0;i<edges.length;i++) {
    if (edges[i].id.substr(0,4)=='edge') {
      edges[i].setAttribute('class','edge');
    }
  }
}
]]></script>
        <defs>
                <circle id="rim" cx="0" cy="0" r="7"/>
                <circle id="rim2" cx="0" cy="0" r="3.5"/>
                <g id="zoomPlus">
                        <use xlink:href="#rim" fill="#404040">
                                <set attributeName="fill" to="#808080" begin="zoomplus.mouseover" end="zoomplus.mouseout"/>
                        </use>
                        <path d="M-4,0h8M0,-4v8" fill="none" stroke="white" stroke-width="1.5" pointer-events="none"/>
                </g>
                <g id="zoomMin">
                        <use xlink:href="#rim" fill="#404040">
                                <set attributeName="fill" to="#808080" begin="zoomminus.mouseover" end="zoomminus.mouseout"/>
                        </use>
                        <path d="M-4,0h8" fill="none" stroke="white" stroke-width="1.5" pointer-events="none"/>
                </g>
                <g id="dirArrow">
                        <path fill="none" stroke="white" stroke-width="1.5" d="M0,-3.0v7 M-2.5,-0.5L0,-3.0L2.5,-0.5"/>
                </g>
               <g id="resetDef">
                       <use xlink:href="#rim2" fill="#404040">
                               <set attributeName="fill" to="#808080" begin="reset.mouseover" end="reset.mouseout"/>
                       </use>
               </g>
        </defs>

<script type="text/javascript">
var viewWidth = 3681;
var viewHeight = 184;
var sectionId = 'dynsection-0';
</script>
<script xlink:href="svgpan.js"/>
<svg id="graph" class="graph">
<g id="viewport">
<title>drake/attic/systems/sensors/rgbd_renderer_vtk.cc</title>
<polygon fill="#ffffff" stroke="transparent" points="-4,4 -4,-180 3677,-180 3677,4 -4,4"/>
<!-- Node0 -->
<g id="node1" class="node">
<title>Node0</title>
<polygon fill="#bfbfbf" stroke="#000000" points="1220.5,-134.5 1220.5,-175.5 1348.5,-175.5 1348.5,-134.5 1220.5,-134.5"/>
<text text-anchor="start" x="1228.5" y="-163.5" font-family="Helvetica,sans-Serif" font-size="10.00" fill="#000000">drake/attic/systems</text>
<text text-anchor="start" x="1228.5" y="-152.5" font-family="Helvetica,sans-Serif" font-size="10.00" fill="#000000">/sensors/rgbd_renderer</text>
<text text-anchor="middle" x="1284.5" y="-141.5" font-family="Helvetica,sans-Serif" font-size="10.00" fill="#000000">_vtk.cc</text>
</g>
<!-- Node1 -->
<g id="node2" class="node">
<title>Node1</title>
<polygon fill="#ffffff" stroke="#bfbfbf" points="0,-67.5 0,-97.5 129,-97.5 129,-67.5 0,-67.5"/>
<text text-anchor="start" x="8" y="-85.5" font-family="Helvetica,sans-Serif" font-size="10.00" fill="#000000">drake/systems/sensors</text>
<text text-anchor="middle" x="64.5" y="-74.5" font-family="Helvetica,sans-Serif" font-size="10.00" fill="#000000">/rgbd_renderer_vtk.h</text>
</g>
<!-- Node0&#45;&gt;Node1 -->
<g id="edge1" class="edge">
<title>Node0&#45;&gt;Node1</title>
<path fill="none" stroke="#191970" d="M1220.1843,-153.0067C1011.4728,-146.3462 354.394,-123.8207 143.5,-98 142.026,-97.8195 140.5382,-97.6273 139.0404,-97.4247"/>
<polygon fill="#191970" stroke="#191970" points="139.4522,-93.9476 129.0482,-95.9495 138.4297,-100.8726 139.4522,-93.9476"/>
</g>
<!-- Node2 -->
<g id="node3" class="node">
<title>Node2</title>
<polygon fill="#ffffff" stroke="#bfbfbf" points="29.5,-6 29.5,-25 71.5,-25 71.5,-6 29.5,-6"/>
<text text-anchor="middle" x="50.5" y="-13" font-family="Helvetica,sans-Serif" font-size="10.00" fill="#000000">array</text>
</g>
<!-- Node0&#45;&gt;Node2 -->
<g id="edge2" class="edge">
<title>Node0&#45;&gt;Node2</title>
<path fill="none" stroke="#191970" d="M1220.3943,-154.0276C998.7191,-150.3461 272.8674,-135.5217 175.5,-98 155.162,-90.1625 155.3726,-79.4752 137.5,-67 118.0698,-53.4376 94.9385,-39.8576 77.4129,-30.0501"/>
<polygon fill="#191970" stroke="#191970" points="78.7566,-26.7935 68.3123,-25.0137 75.3671,-32.9182 78.7566,-26.7935"/>
</g>
<!-- Node3 -->
<g id="node4" class="node">
<title>Node3</title>
<polygon fill="#ffffff" stroke="#bfbfbf" points="524,-73 524,-92 579,-92 579,-73 524,-73"/>
<text text-anchor="middle" x="551.5" y="-80" font-family="Helvetica,sans-Serif" font-size="10.00" fill="#000000">fstream</text>
</g>
<!-- Node0&#45;&gt;Node3 -->
<g id="edge3" class="edge">
<title>Node0&#45;&gt;Node3</title>
<path fill="none" stroke="#191970" d="M1220.2637,-152.3219C1071.5799,-145.706 707.3899,-126.995 588.5,-98 585.8633,-97.357 583.172,-96.5505 580.5038,-95.6454"/>
<polygon fill="#191970" stroke="#191970" points="581.6714,-92.3448 571.0806,-92.0501 579.1761,-98.885 581.6714,-92.3448"/>
</g>
<!-- Node4 -->
<g id="node5" class="node">
<title>Node4</title>
<polygon fill="#ffffff" stroke="#bfbfbf" points="597.5,-73 597.5,-92 641.5,-92 641.5,-73 597.5,-73"/>
<text text-anchor="middle" x="619.5" y="-80" font-family="Helvetica,sans-Serif" font-size="10.00" fill="#000000">limits</text>
</g>
<!-- Node0&#45;&gt;Node4 -->
<g id="edge4" class="edge">
<title>Node0&#45;&gt;Node4</title>
<path fill="none" stroke="#191970" d="M1220.4596,-152.2721C1081.5234,-145.8625 756.4124,-128.0725 650.5,-98 648.7888,-97.5141 647.0594,-96.9338 645.3389,-96.2872"/>
<polygon fill="#191970" stroke="#191970" points="646.3309,-92.8991 635.7695,-92.0577 643.501,-99.3016 646.3309,-92.8991"/>
</g>
<!-- Node5 -->
<g id="node6" class="node">
<title>Node5</title>
<polygon fill="#ffffff" stroke="#bfbfbf" points="659.5,-73 659.5,-92 697.5,-92 697.5,-73 659.5,-73"/>
<text text-anchor="middle" x="678.5" y="-80" font-family="Helvetica,sans-Serif" font-size="10.00" fill="#000000">map</text>
</g>
<!-- Node0&#45;&gt;Node5 -->
<g id="edge5" class="edge">
<title>Node0&#45;&gt;Node5</title>
<path fill="none" stroke="#191970" d="M1220.1767,-151.9427C1090.2749,-145.2322 800.9673,-127.423 706.5,-98 705.0743,-97.556 703.6394,-97.0343 702.2129,-96.4563"/>
<polygon fill="#191970" stroke="#191970" points="703.6336,-93.2555 693.1078,-92.0477 700.583,-99.5559 703.6336,-93.2555"/>
</g>
<!-- Node6 -->
<g id="node7" class="node">
<title>Node6</title>
<polygon fill="#ffffff" stroke="#bfbfbf" points="715.5,-73 715.5,-92 759.5,-92 759.5,-73 715.5,-73"/>
<text text-anchor="middle" x="737.5" y="-80" font-family="Helvetica,sans-Serif" font-size="10.00" fill="#000000">string</text>
</g>
<!-- Node0&#45;&gt;Node6 -->
<g id="edge6" class="edge">
<title>Node0&#45;&gt;Node6</title>
<path fill="none" stroke="#191970" d="M1220.3638,-150.7488C1101.5408,-142.4051 851.7043,-122.5426 768.5,-98 766.8335,-97.5084 765.1486,-96.9306 763.4706,-96.2921"/>
<polygon fill="#191970" stroke="#191970" points="764.6732,-92.997 754.1121,-92.1521 761.8412,-99.3986 764.6732,-92.997"/>
</g>
<!-- Node7 -->
<g id="node8" class="node">
<title>Node7</title>
<polygon fill="#ffffff" stroke="#bfbfbf" points="778,-73 778,-92 825,-92 825,-73 778,-73"/>
<text text-anchor="middle" x="801.5" y="-80" font-family="Helvetica,sans-Serif" font-size="10.00" fill="#000000">vector</text>
</g>
<!-- Node0&#45;&gt;Node7 -->
<g id="edge7" class="edge">
<title>Node0&#45;&gt;Node7</title>
<path fill="none" stroke="#191970" d="M1220.1445,-149.4608C1113.3956,-139.8387 904.4333,-119.0434 833.5,-98 831.6358,-97.447 829.7459,-96.7953 827.8648,-96.0778"/>
<polygon fill="#191970" stroke="#191970" points="829.2593,-92.8676 818.6929,-92.0915 826.469,-99.2875 829.2593,-92.8676"/>
</g>
<!-- Node8 -->
<g id="node9" class="node">
<title>Node8</title>
<polygon fill="#ffffff" stroke="#bfbfbf" points="90,-6 90,-25 167,-25 167,-6 90,-6"/>
<text text-anchor="middle" x="128.5" y="-13" font-family="Helvetica,sans-Serif" font-size="10.00" fill="#000000">Eigen/Dense</text>
</g>
<!-- Node0&#45;&gt;Node8 -->
<g id="edge8" class="edge">
<title>Node0&#45;&gt;Node8</title>
<path fill="none" stroke="#191970" d="M1220.2903,-153.9292C1005.086,-150.0122 317.6451,-134.7273 225.5,-98 190.8193,-84.1769 159.6834,-52.6903 142.5072,-32.8595"/>
<polygon fill="#191970" stroke="#191970" points="145.1464,-30.5598 136.0311,-25.1597 139.7893,-35.0656 145.1464,-30.5598"/>
</g>
<!-- Node9 -->
<g id="node10" class="node">
<title>Node9</title>
<polygon fill="#ffffff" stroke="#bfbfbf" points="843,-73 843,-92 910,-92 910,-73 843,-73"/>
<text text-anchor="middle" x="876.5" y="-80" font-family="Helvetica,sans-Serif" font-size="10.00" fill="#000000">vtkActor.h</text>
</g>
<!-- Node0&#45;&gt;Node9 -->
<g id="edge9" class="edge">
<title>Node0&#45;&gt;Node9</title>
<path fill="none" stroke="#191970" d="M1220.4521,-148.7472C1146.9763,-140.7132 1023.2659,-124.5444 919.5,-98 916.348,-97.1937 913.1026,-96.248 909.8747,-95.2284"/>
<polygon fill="#191970" stroke="#191970" points="910.9481,-91.8968 900.3539,-92.0129 908.7082,-98.5288 910.9481,-91.8968"/>
</g>
<!-- Node10 -->
<g id="node11" class="node">
<title>Node10</title>
<polygon fill="#ffffff" stroke="#bfbfbf" points="928.5,-73 928.5,-92 1008.5,-92 1008.5,-73 928.5,-73"/>
<text text-anchor="middle" x="968.5" y="-80" font-family="Helvetica,sans-Serif" font-size="10.00" fill="#000000">vtkAutoInit.h</text>
</g>
<!-- Node0&#45;&gt;Node10 -->
<g id="edge10" class="edge">
<title>Node0&#45;&gt;Node10</title>
<path fill="none" stroke="#191970" d="M1220.4343,-143.118C1166.0913,-132.6117 1086.2386,-116.1643 1017.5,-98 1014.0751,-97.095 1010.5339,-96.0978 1006.9949,-95.0589"/>
<polygon fill="#191970" stroke="#191970" points="1007.7109,-91.6186 997.1254,-92.0623 1005.6772,-98.3167 1007.7109,-91.6186"/>
</g>
<!-- Node11 -->
<g id="node12" class="node">
<title>Node11</title>
<polygon fill="#ffffff" stroke="#bfbfbf" points="1026.5,-73 1026.5,-92 1106.5,-92 1106.5,-73 1026.5,-73"/>
<text text-anchor="middle" x="1066.5" y="-80" font-family="Helvetica,sans-Serif" font-size="10.00" fill="#000000">vtkCamera.h</text>
</g>
<!-- Node0&#45;&gt;Node11 -->
<g id="edge11" class="edge">
<title>Node0&#45;&gt;Node11</title>
<path fill="none" stroke="#191970" d="M1222.6131,-134.4183C1184.739,-121.8226 1137.4678,-106.1017 1104.9228,-95.2782"/>
<polygon fill="#191970" stroke="#191970" points="1105.9157,-91.92 1095.3222,-92.0853 1103.7066,-98.5623 1105.9157,-91.92"/>
</g>
<!-- Node12 -->
<g id="node13" class="node">
<title>Node12</title>
<polygon fill="#ffffff" stroke="#bfbfbf" points="1124.5,-73 1124.5,-92 1216.5,-92 1216.5,-73 1124.5,-73"/>
<text text-anchor="middle" x="1170.5" y="-80" font-family="Helvetica,sans-Serif" font-size="10.00" fill="#000000">vtkCommand.h</text>
</g>
<!-- Node0&#45;&gt;Node12 -->
<g id="edge12" class="edge">
<title>Node0&#45;&gt;Node12</title>
<path fill="none" stroke="#191970" d="M1252.1371,-134.4183C1233.6973,-122.6913 1210.9979,-108.2552 1194.2196,-97.5848"/>
<polygon fill="#191970" stroke="#191970" points="1195.8885,-94.4984 1185.5721,-92.0853 1192.132,-100.4051 1195.8885,-94.4984"/>
</g>
<!-- Node13 -->
<g id="node14" class="node">
<title>Node13</title>
<polygon fill="#ffffff" stroke="#bfbfbf" points="1235,-73 1235,-92 1334,-92 1334,-73 1235,-73"/>
<text text-anchor="middle" x="1284.5" y="-80" font-family="Helvetica,sans-Serif" font-size="10.00" fill="#000000">vtkCubeSource.h</text>
</g>
<!-- Node0&#45;&gt;Node13 -->
<g id="edge13" class="edge">
<title>Node0&#45;&gt;Node13</title>
<path fill="none" stroke="#191970" d="M1284.5,-134.4183C1284.5,-124.32 1284.5,-112.213 1284.5,-102.2314"/>
<polygon fill="#191970" stroke="#191970" points="1288.0001,-102.0853 1284.5,-92.0853 1281.0001,-102.0854 1288.0001,-102.0853"/>
</g>
<!-- Node14 -->
<g id="node15" class="node">
<title>Node14</title>
<polygon fill="#ffffff" stroke="#bfbfbf" points="1352,-73 1352,-92 1467,-92 1467,-73 1352,-73"/>
<text text-anchor="middle" x="1409.5" y="-80" font-family="Helvetica,sans-Serif" font-size="10.00" fill="#000000">vtkCylinderSource.h</text>
</g>
<!-- Node0&#45;&gt;Node14 -->
<g id="edge14" class="edge">
<title>Node0&#45;&gt;Node14</title>
<path fill="none" stroke="#191970" d="M1319.9856,-134.4183C1340.4855,-122.5284 1365.7867,-107.8537 1384.2545,-97.1424"/>
<polygon fill="#191970" stroke="#191970" points="1386.0792,-100.1302 1392.9735,-92.0853 1382.5672,-94.075 1386.0792,-100.1302"/>
</g>
<!-- Node15 -->
<g id="node16" class="node">
<title>Node15</title>
<polygon fill="#ffffff" stroke="#bfbfbf" points="1485.5,-73 1485.5,-92 1589.5,-92 1589.5,-73 1485.5,-73"/>
<text text-anchor="middle" x="1537.5" y="-80" font-family="Helvetica,sans-Serif" font-size="10.00" fill="#000000">vtkImageExport.h</text>
</g>
<!-- Node0&#45;&gt;Node15 -->
<g id="edge15" class="edge">
<title>Node0&#45;&gt;Node15</title>
<path fill="none" stroke="#191970" d="M1348.6696,-136.6115C1394.2852,-123.5398 1454.3166,-106.3372 1494.3226,-94.873"/>
<polygon fill="#191970" stroke="#191970" points="1495.3924,-98.2074 1504.0413,-92.088 1493.464,-91.4782 1495.3924,-98.2074"/>
</g>
<!-- Node16 -->
<g id="node17" class="node">
<title>Node16</title>
<polygon fill="#ffffff" stroke="#bfbfbf" points="185,-6 185,-25 248,-25 248,-6 185,-6"/>
<text text-anchor="middle" x="216.5" y="-13" font-family="Helvetica,sans-Serif" font-size="10.00" fill="#000000">vtkNew.h</text>
</g>
<!-- Node0&#45;&gt;Node16 -->
<g id="edge16" class="edge">
<title>Node0&#45;&gt;Node16</title>
<path fill="none" stroke="#191970" d="M1220.4639,-153.3059C1001.267,-147.2683 292.3329,-125.6777 252.5,-98 231.8063,-83.6211 222.8988,-54.6242 219.1398,-35.1294"/>
<polygon fill="#191970" stroke="#191970" points="222.5802,-34.4806 217.505,-25.1805 215.6729,-35.6157 222.5802,-34.4806"/>
</g>
<!-- Node17 -->
<g id="node18" class="node">
<title>Node17</title>
<polygon fill="#ffffff" stroke="#bfbfbf" points="1608,-73 1608,-92 1701,-92 1701,-73 1608,-73"/>
<text text-anchor="middle" x="1654.5" y="-80" font-family="Helvetica,sans-Serif" font-size="10.00" fill="#000000">vtkOBJReader.h</text>
</g>
<!-- Node0&#45;&gt;Node17 -->
<g id="edge17" class="edge">
<title>Node0&#45;&gt;Node17</title>
<path fill="none" stroke="#191970" d="M1348.5919,-145.1089C1412.2934,-134.8694 1512.6229,-117.637 1598.5,-98 1602.9345,-96.986 1607.5443,-95.8483 1612.1301,-94.6619"/>
<polygon fill="#191970" stroke="#191970" points="1613.2926,-97.9743 1622.0533,-92.0161 1611.4891,-91.2106 1613.2926,-97.9743"/>
</g>
<!-- Node18 -->
<g id="node19" class="node">
<title>Node18</title>
<polygon fill="#ffffff" stroke="#bfbfbf" points="1719.5,-73 1719.5,-92 1879.5,-92 1879.5,-73 1719.5,-73"/>
<text text-anchor="middle" x="1799.5" y="-80" font-family="Helvetica,sans-Serif" font-size="10.00" fill="#000000">vtkOpenGLPolyDataMapper.h</text>
</g>
<!-- Node0&#45;&gt;Node18 -->
<g id="edge18" class="edge">
<title>Node0&#45;&gt;Node18</title>
<path fill="none" stroke="#191970" d="M1348.6877,-147.147C1431.997,-136.7814 1581.8252,-117.549 1709.5,-98 1718.1541,-96.6749 1727.2622,-95.2003 1736.2257,-93.7024"/>
<polygon fill="#191970" stroke="#191970" points="1736.9756,-97.1254 1746.2525,-92.0079 1735.8091,-90.2232 1736.9756,-97.1254"/>
</g>
<!-- Node19 -->
<g id="node20" class="node">
<title>Node19</title>
<polygon fill="#ffffff" stroke="#bfbfbf" points="1898,-73 1898,-92 2051,-92 2051,-73 1898,-73"/>
<text text-anchor="middle" x="1974.5" y="-80" font-family="Helvetica,sans-Serif" font-size="10.00" fill="#000000">vtkOpenGLRenderWindow.h</text>
</g>
<!-- Node0&#45;&gt;Node19 -->
<g id="edge19" class="edge">
<title>Node0&#45;&gt;Node19</title>
<path fill="none" stroke="#191970" d="M1348.6241,-150.7317C1459.1594,-142.9761 1692.58,-124.8516 1888.5,-98 1897.2365,-96.8026 1906.4393,-95.3499 1915.4461,-93.8196"/>
<polygon fill="#191970" stroke="#191970" points="1916.246,-97.233 1925.4966,-92.0682 1915.0442,-90.3369 1916.246,-97.233"/>
</g>
<!-- Node20 -->
<g id="node21" class="node">
<title>Node20</title>
<polygon fill="#ffffff" stroke="#bfbfbf" points="2069.5,-73 2069.5,-92 2185.5,-92 2185.5,-73 2069.5,-73"/>
<text text-anchor="middle" x="2127.5" y="-80" font-family="Helvetica,sans-Serif" font-size="10.00" fill="#000000">vtkOpenGLTexture.h</text>
</g>
<!-- Node0&#45;&gt;Node20 -->
<g id="edge20" class="edge">
<title>Node0&#45;&gt;Node20</title>
<path fill="none" stroke="#191970" d="M1348.6556,-153.5474C1481.8232,-149.8159 1797.6595,-137.2424 2059.5,-98 2066.2582,-96.9871 2073.3415,-95.6675 2080.2781,-94.2257"/>
<polygon fill="#191970" stroke="#191970" points="2081.2551,-97.595 2090.2812,-92.0472 2079.7654,-90.7554 2081.2551,-97.595"/>
</g>
<!-- Node21 -->
<g id="node22" class="node">
<title>Node21</title>
<polygon fill="#ffffff" stroke="#bfbfbf" points="2204,-73 2204,-92 2301,-92 2301,-73 2204,-73"/>
<text text-anchor="middle" x="2252.5" y="-80" font-family="Helvetica,sans-Serif" font-size="10.00" fill="#000000">vtkPNGReader.h</text>
</g>
<!-- Node0&#45;&gt;Node21 -->
<g id="edge21" class="edge">
<title>Node0&#45;&gt;Node21</title>
<path fill="none" stroke="#191970" d="M1348.7479,-152.6371C1528.0215,-145.7793 2031.2428,-124.6559 2194.5,-98 2200.029,-97.0972 2205.7932,-95.8903 2211.4499,-94.5466"/>
<polygon fill="#191970" stroke="#191970" points="2212.6071,-97.8642 2221.4421,-92.0167 2210.889,-91.0783 2212.6071,-97.8642"/>
</g>
<!-- Node22 -->
<g id="node23" class="node">
<title>Node22</title>
<polygon fill="#ffffff" stroke="#bfbfbf" points="405,-6 405,-25 506,-25 506,-6 405,-6"/>
<text text-anchor="middle" x="455.5" y="-13" font-family="Helvetica,sans-Serif" font-size="10.00" fill="#000000">vtkPlaneSource.h</text>
</g>
<!-- Node0&#45;&gt;Node22 -->
<g id="edge22" class="edge">
<title>Node0&#45;&gt;Node22</title>
<path fill="none" stroke="#191970" d="M1220.3866,-154.0476C1042.8149,-150.9013 553.7742,-138.6053 494.5,-98 473.4246,-83.5625 463.4259,-54.5808 458.9116,-35.1053"/>
<polygon fill="#191970" stroke="#191970" points="462.3131,-34.2682 456.8885,-25.1674 455.4538,-35.6646 462.3131,-34.2682"/>
</g>
<!-- Node23 -->
<g id="node24" class="node">
<title>Node23</title>
<polygon fill="#ffffff" stroke="#bfbfbf" points="2319.5,-73 2319.5,-92 2441.5,-92 2441.5,-73 2319.5,-73"/>
<text text-anchor="middle" x="2380.5" y="-80" font-family="Helvetica,sans-Serif" font-size="10.00" fill="#000000">vtkPolyDataMapper.h</text>
</g>
<!-- Node0&#45;&gt;Node23 -->
<g id="edge23" class="edge">
<title>Node0&#45;&gt;Node23</title>
<path fill="none" stroke="#191970" d="M1348.6836,-152.7725C1542.8999,-145.8199 2122.4156,-123.4576 2309.5,-98 2316.8886,-96.9946 2324.6498,-95.6273 2332.2179,-94.1188"/>
<polygon fill="#191970" stroke="#191970" points="2332.9354,-97.5445 2342.008,-92.0729 2331.5035,-90.6925 2332.9354,-97.5445"/>
</g>
<!-- Node24 -->
<g id="node25" class="node">
<title>Node24</title>
<polygon fill="#ffffff" stroke="#bfbfbf" points="2460,-73 2460,-92 2543,-92 2543,-73 2460,-73"/>
<text text-anchor="middle" x="2501.5" y="-80" font-family="Helvetica,sans-Serif" font-size="10.00" fill="#000000">vtkProperty.h</text>
</g>
<!-- Node0&#45;&gt;Node24 -->
<g id="edge24" class="edge">
<title>Node0&#45;&gt;Node24</title>
<path fill="none" stroke="#191970" d="M1348.8644,-153.9374C1560.8909,-150.1104 2236.0898,-135.2352 2450.5,-98 2455.2098,-97.1821 2460.0954,-96.0631 2464.8941,-94.798"/>
<polygon fill="#191970" stroke="#191970" points="2465.8827,-98.1557 2474.5379,-92.0452 2463.9613,-91.4245 2465.8827,-98.1557"/>
</g>
<!-- Node25 -->
<g id="node26" class="node">
<title>Node25</title>
<polygon fill="#ffffff" stroke="#bfbfbf" points="2561,-73 2561,-92 2676,-92 2676,-73 2561,-73"/>
<text text-anchor="middle" x="2618.5" y="-80" font-family="Helvetica,sans-Serif" font-size="10.00" fill="#000000">vtkRenderWindow.h</text>
</g>
<!-- Node0&#45;&gt;Node25 -->
<g id="edge25" class="edge">
<title>Node0&#45;&gt;Node25</title>
<path fill="none" stroke="#191970" d="M1348.8177,-153.6583C1572.4505,-148.7508 2315.3525,-130.3518 2551.5,-98 2558.4142,-97.0528 2565.6641,-95.73 2572.7358,-94.2526"/>
<polygon fill="#191970" stroke="#191970" points="2573.9009,-97.5796 2582.9093,-92.003 2572.3895,-90.7447 2573.9009,-97.5796"/>
</g>
<!-- Node26 -->
<g id="node27" class="node">
<title>Node26</title>
<polygon fill="#ffffff" stroke="#bfbfbf" points="2694.5,-73 2694.5,-92 2780.5,-92 2780.5,-73 2694.5,-73"/>
<text text-anchor="middle" x="2737.5" y="-80" font-family="Helvetica,sans-Serif" font-size="10.00" fill="#000000">vtkRenderer.h</text>
</g>
<!-- Node0&#45;&gt;Node26 -->
<g id="edge26" class="edge">
<title>Node0&#45;&gt;Node26</title>
<path fill="none" stroke="#191970" d="M1348.5299,-154.4626C1586.8288,-152.1411 2422.0974,-141.0481 2684.5,-98 2689.5731,-97.1677 2694.8464,-96.004 2700.0135,-94.6842"/>
<polygon fill="#191970" stroke="#191970" points="2701.0302,-98.0346 2709.7385,-92 2699.1676,-91.2869 2701.0302,-98.0346"/>
</g>
<!-- Node27 -->
<g id="node28" class="node">
<title>Node27</title>
<polygon fill="#ffffff" stroke="#bfbfbf" points="2798.5,-73 2798.5,-92 2914.5,-92 2914.5,-73 2798.5,-73"/>
<text text-anchor="middle" x="2856.5" y="-80" font-family="Helvetica,sans-Serif" font-size="10.00" fill="#000000">vtkShaderProgram.h</text>
</g>
<!-- Node0&#45;&gt;Node27 -->
<g id="edge27" class="edge">
<title>Node0&#45;&gt;Node27</title>
<path fill="none" stroke="#191970" d="M1348.5018,-154.1914C1597.8365,-150.7909 2504.4056,-136.0266 2789.5,-98 2796.4175,-97.0773 2803.6692,-95.7679 2810.7417,-94.2964"/>
<polygon fill="#191970" stroke="#191970" points="2811.9052,-97.6239 2820.9158,-92.0508 2810.3964,-90.7885 2811.9052,-97.6239"/>
</g>
<!-- Node28 -->
<g id="node29" class="node">
<title>Node28</title>
<polygon fill="#ffffff" stroke="#bfbfbf" points="524,-6 524,-25 629,-25 629,-6 524,-6"/>
<text text-anchor="middle" x="576.5" y="-13" font-family="Helvetica,sans-Serif" font-size="10.00" fill="#000000">vtkSmartPointer.h</text>
</g>
<!-- Node0&#45;&gt;Node28 -->
<g id="edge28" class="edge">
<title>Node0&#45;&gt;Node28</title>
<path fill="none" stroke="#191970" d="M1220.3482,-152.6688C1038.0927,-145.7374 528.7667,-124.1047 504.5,-98 482.8933,-74.7568 520.0808,-46.7465 548.5724,-30.0695"/>
<polygon fill="#191970" stroke="#191970" points="550.4405,-33.0343 557.4318,-25.0736 547.0021,-26.9369 550.4405,-33.0343"/>
</g>
<!-- Node29 -->
<g id="node30" class="node">
<title>Node29</title>
<polygon fill="#ffffff" stroke="#bfbfbf" points="2932.5,-73 2932.5,-92 3040.5,-92 3040.5,-73 2932.5,-73"/>
<text text-anchor="middle" x="2986.5" y="-80" font-family="Helvetica,sans-Serif" font-size="10.00" fill="#000000">vtkSphereSource.h</text>
</g>
<!-- Node0&#45;&gt;Node29 -->
<g id="edge29" class="edge">
<title>Node0&#45;&gt;Node29</title>
<path fill="none" stroke="#191970" d="M1348.7609,-154.5368C1612.3118,-152.3636 2611.1698,-141.3779 2923.5,-98 2929.9429,-97.1052 2936.685,-95.8253 2943.2634,-94.3796"/>
<polygon fill="#191970" stroke="#191970" points="2944.4626,-97.6934 2953.3995,-92.0029 2942.8646,-90.8783 2944.4626,-97.6934"/>
</g>
<!-- Node30 -->
<g id="node31" class="node">
<title>Node30</title>
<polygon fill="#ffffff" stroke="#bfbfbf" points="647.5,-6 647.5,-25 739.5,-25 739.5,-6 647.5,-6"/>
<text text-anchor="middle" x="693.5" y="-13" font-family="Helvetica,sans-Serif" font-size="10.00" fill="#000000">vtkTransform.h</text>
</g>
<!-- Node0&#45;&gt;Node30 -->
<g id="edge30" class="edge">
<title>Node0&#45;&gt;Node30</title>
<path fill="none" stroke="#191970" d="M1220.2027,-152.5999C1039.4538,-145.5438 538.4023,-123.7371 514.5,-98 505.1241,-87.9044 506.2132,-78.0071 514.5,-67 515.5506,-65.6045 596.7954,-42.6127 649.4559,-27.826"/>
<polygon fill="#191970" stroke="#191970" points="650.5698,-31.1487 659.2524,-25.0772 648.6786,-24.409 650.5698,-31.1487"/>
</g>
<!-- Node31 -->
<g id="node32" class="node">
<title>Node31</title>
<polygon fill="#ffffff" stroke="#bfbfbf" points="3059,-73 3059,-92 3220,-92 3220,-73 3059,-73"/>
<text text-anchor="middle" x="3139.5" y="-80" font-family="Helvetica,sans-Serif" font-size="10.00" fill="#000000">vtkTransformPolyDataFilter.h</text>
</g>
<!-- Node0&#45;&gt;Node31 -->
<g id="edge31" class="edge">
<title>Node0&#45;&gt;Node31</title>
<path fill="none" stroke="#191970" d="M1348.8979,-154.1146C1624.9685,-150.135 2709.7973,-132.57 3049.5,-98 3059.8995,-96.9417 3070.9117,-95.4004 3081.5314,-93.6952"/>
<polygon fill="#191970" stroke="#191970" points="3082.2732,-97.1199 3091.5601,-92.0204 3081.1201,-90.2155 3082.2732,-97.1199"/>
</g>
<!-- Node32 -->
<g id="node33" class="node">
<title>Node32</title>
<polygon fill="#ffffff" stroke="#bfbfbf" points="3238.5,-73 3238.5,-92 3386.5,-92 3386.5,-73 3238.5,-73"/>
<text text-anchor="middle" x="3312.5" y="-80" font-family="Helvetica,sans-Serif" font-size="10.00" fill="#000000">vtkWindowToImageFilter.h</text>
</g>
<!-- Node0&#45;&gt;Node32 -->
<g id="edge32" class="edge">
<title>Node0&#45;&gt;Node32</title>
<path fill="none" stroke="#191970" d="M1348.9618,-154.4576C1642.2671,-151.7831 2852.6756,-138.4592 3229.5,-98 3238.9112,-96.9895 3248.8552,-95.5027 3258.4645,-93.8441"/>
<polygon fill="#191970" stroke="#191970" points="3259.1011,-97.2859 3268.3209,-92.0663 3257.8584,-90.397 3259.1011,-97.2859"/>
</g>
<!-- Node33 -->
<g id="node34" class="node">
<title>Node33</title>
<g id="a_node34"><a xlink:href="drake__assert_8h.html" target="_top" xlink:title="Provides Drake&#39;s assertion implementation. ">
<polygon fill="#ffffff" stroke="#000000" points="3405,-67.5 3405,-97.5 3526,-97.5 3526,-67.5 3405,-67.5"/>
<text text-anchor="start" x="3413" y="-85.5" font-family="Helvetica,sans-Serif" font-size="10.00" fill="#000000">drake/common/drake</text>
<text text-anchor="middle" x="3465.5" y="-74.5" font-family="Helvetica,sans-Serif" font-size="10.00" fill="#000000">_assert.h</text>
</a>
</g>
</g>
<!-- Node0&#45;&gt;Node33 -->
<g id="edge33" class="edge">
<title>Node0&#45;&gt;Node33</title>
<path fill="none" stroke="#191970" d="M1348.6498,-153.998C1675.1105,-148.8023 3145.8848,-124.2018 3394.9474,-97.7959"/>
<polygon fill="#191970" stroke="#191970" points="3395.3784,-101.2695 3404.9165,-96.657 3394.5838,-94.3147 3395.3784,-101.2695"/>
</g>
<!-- Node35 -->
<g id="node36" class="node">
<title>Node35</title>
<polygon fill="#ffffff" stroke="#bfbfbf" points="3544,-67.5 3544,-97.5 3673,-97.5 3673,-67.5 3544,-67.5"/>
<text text-anchor="start" x="3552" y="-85.5" font-family="Helvetica,sans-Serif" font-size="10.00" fill="#000000">drake/systems/sensors</text>
<text text-anchor="middle" x="3608.5" y="-74.5" font-family="Helvetica,sans-Serif" font-size="10.00" fill="#000000">/depth_shaders.h</text>
</g>
<!-- Node0&#45;&gt;Node35 -->
<g id="edge35" class="edge">
<title>Node0&#45;&gt;Node35</title>
<path fill="none" stroke="#191970" d="M1348.602,-154.0808C1688.0129,-149.1211 3269.5149,-124.8197 3533.5121,-98.0155"/>
<polygon fill="#191970" stroke="#191970" points="3534.1635,-101.4652 3543.724,-96.8995 3533.4029,-94.5067 3534.1635,-101.4652"/>
</g>
<!-- Node36 -->
<g id="node37" class="node">
<title>Node36</title>
<g id="a_node37"><a xlink:href="vtk__util_8h.html" target="_top" xlink:title="drake/systems/sensors\l/vtk_util.h">
<polygon fill="#ffffff" stroke="#000000" points="262,-67.5 262,-97.5 391,-97.5 391,-67.5 262,-67.5"/>
<text text-anchor="start" x="270" y="-85.5" font-family="Helvetica,sans-Serif" font-size="10.00" fill="#000000">drake/systems/sensors</text>
<text text-anchor="middle" x="326.5" y="-74.5" font-family="Helvetica,sans-Serif" font-size="10.00" fill="#000000">/vtk_util.h</text>
</a>
</g>
</g>
<!-- Node0&#45;&gt;Node36 -->
<g id="edge36" class="edge">
<title>Node0&#45;&gt;Node36</title>
<path fill="none" stroke="#191970" d="M1220.2572,-153.6697C1074.692,-150.0366 708.7983,-137.4206 405.5,-98 404.0274,-97.8086 402.5409,-97.6064 401.0442,-97.3946"/>
<polygon fill="#191970" stroke="#191970" points="401.4717,-93.9194 391.0581,-95.8706 400.4156,-100.8393 401.4717,-93.9194"/>
</g>
<!-- Node34 -->
<g id="node35" class="node">
<title>Node34</title>
<polygon fill="#ffffff" stroke="#bfbfbf" points="3431,-6 3431,-25 3500,-25 3500,-6 3431,-6"/>
<text text-anchor="middle" x="3465.5" y="-13" font-family="Helvetica,sans-Serif" font-size="10.00" fill="#000000">type_traits</text>
</g>
<!-- Node33&#45;&gt;Node34 -->
<g id="edge34" class="edge">
<title>Node33&#45;&gt;Node34</title>
<path fill="none" stroke="#191970" d="M3465.5,-67.2967C3465.5,-57.7699 3465.5,-45.3954 3465.5,-35.1306"/>
<polygon fill="#191970" stroke="#191970" points="3469.0001,-35.0549 3465.5,-25.055 3462.0001,-35.055 3469.0001,-35.0549"/>
</g>
<!-- Node36&#45;&gt;Node2 -->
<g id="edge37" class="edge">
<title>Node36&#45;&gt;Node2</title>
<path fill="none" stroke="#191970" d="M261.7426,-73.8458C211.3614,-65.9509 140.216,-52.2334 80.5,-31 79.0846,-30.4967 77.6519,-29.9389 76.2197,-29.3425"/>
<polygon fill="#191970" stroke="#191970" points="77.5019,-26.0784 66.9605,-25.0158 74.5384,-32.4202 77.5019,-26.0784"/>
</g>
<!-- Node36&#45;&gt;Node8 -->
<g id="edge38" class="edge">
<title>Node36&#45;&gt;Node8</title>
<path fill="none" stroke="#191970" d="M282.0649,-67.4639C247.2433,-55.6808 199.3239,-39.4657 166.3222,-28.2984"/>
<polygon fill="#191970" stroke="#191970" points="167.1845,-24.8953 156.5902,-25.0053 164.9408,-31.526 167.1845,-24.8953"/>
</g>
<!-- Node36&#45;&gt;Node16 -->
<g id="edge39" class="edge">
<title>Node36&#45;&gt;Node16</title>
<path fill="none" stroke="#191970" d="M301.8139,-67.4639C283.6898,-56.4247 259.1791,-41.4954 241.08,-30.4715"/>
<polygon fill="#191970" stroke="#191970" points="242.6288,-27.3167 232.2676,-25.1039 238.9874,-33.2951 242.6288,-27.3167"/>
</g>
<!-- Node36&#45;&gt;Node22 -->
<g id="edge40" class="edge">
<title>Node36&#45;&gt;Node22</title>
<path fill="none" stroke="#191970" d="M355.4501,-67.4639C377.1922,-56.1715 406.7716,-40.8086 428.1227,-29.7192"/>
<polygon fill="#191970" stroke="#191970" points="429.7477,-32.8192 437.0089,-25.1039 426.5212,-26.6071 429.7477,-32.8192"/>
</g>
<!-- Node36&#45;&gt;Node28 -->
<g id="edge41" class="edge">
<title>Node36&#45;&gt;Node28</title>
<path fill="none" stroke="#191970" d="M382.6049,-67.4639C427.4244,-55.4522 489.4292,-38.835 531.1478,-27.6544"/>
<polygon fill="#191970" stroke="#191970" points="532.2794,-30.9747 541.0325,-25.0053 530.4673,-24.2133 532.2794,-30.9747"/>
</g>
<!-- Node36&#45;&gt;Node30 -->
<g id="edge42" class="edge">
<title>Node36&#45;&gt;Node30</title>
<path fill="none" stroke="#191970" d="M391.2094,-73.8242C454.3831,-64.8755 553.0584,-49.6228 637.5,-31 642.1208,-29.9809 646.9283,-28.8149 651.6989,-27.5901"/>
<polygon fill="#191970" stroke="#191970" points="652.602,-30.9717 661.3681,-25.0214 650.8047,-24.2063 652.602,-30.9717"/>
</g>
<!-- Node37 -->
<g id="node38" class="node">
<title>Node37</title>
<g id="a_node38"><a xlink:href="drake__copyable_8h.html" target="_top" xlink:title="Provides careful macros to selectively enable or disable the special member functions for copy&#45;constr...">
<polygon fill="#ffffff" stroke="#000000" points="266,-.5 266,-30.5 387,-30.5 387,-.5 266,-.5"/>
<text text-anchor="start" x="274" y="-18.5" font-family="Helvetica,sans-Serif" font-size="10.00" fill="#000000">drake/common/drake</text>
<text text-anchor="middle" x="326.5" y="-7.5" font-family="Helvetica,sans-Serif" font-size="10.00" fill="#000000">_copyable.h</text>
</a>
</g>
</g>
<!-- Node36&#45;&gt;Node37 -->
<g id="edge43" class="edge">
<title>Node36&#45;&gt;Node37</title>
<path fill="none" stroke="#191970" d="M326.5,-67.2967C326.5,-59.5013 326.5,-49.7991 326.5,-40.9064"/>
<polygon fill="#191970" stroke="#191970" points="330.0001,-40.6431 326.5,-30.6432 323.0001,-40.6432 330.0001,-40.6431"/>
</g>
</g>
</svg>
        <g id="navigator" transform="translate(0 0)" fill="#404254">
                <rect fill="#f2f5e9" fill-opacity="0.5" stroke="#606060" stroke-width=".5" x="0" y="0" width="60" height="60"/>
                <use id="zoomplus" xlink:href="#zoomPlus" x="17" y="9" onmousedown="handleZoom(evt,'in')"/>
                <use id="zoomminus" xlink:href="#zoomMin" x="42" y="9" onmousedown="handleZoom(evt,'out')"/>
                <use id="reset" xlink:href="#resetDef" x="30" y="36" onmousedown="handleReset()"/>
                <g id="arrowUp" xlink:href="#dirArrow" transform="translate(30 24)" onmousedown="handlePan(0,-1)">
                  <use xlink:href="#rim" fill="#404040">
                        <set attributeName="fill" to="#808080" begin="arrowUp.mouseover" end="arrowUp.mouseout"/>
                  </use>
                  <path fill="none" stroke="white" stroke-width="1.5" d="M0,-3.0v7 M-2.5,-0.5L0,-3.0L2.5,-0.5"/>
                </g>
                <g id="arrowRight" xlink:href="#dirArrow" transform="rotate(90) translate(36 -43)" onmousedown="handlePan(1,0)">
                  <use xlink:href="#rim" fill="#404040">
                        <set attributeName="fill" to="#808080" begin="arrowRight.mouseover" end="arrowRight.mouseout"/>
                  </use>
                  <path fill="none" stroke="white" stroke-width="1.5" d="M0,-3.0v7 M-2.5,-0.5L0,-3.0L2.5,-0.5"/>
                </g>
                <g id="arrowDown" xlink:href="#dirArrow" transform="rotate(180) translate(-30 -48)" onmousedown="handlePan(0,1)">
                  <use xlink:href="#rim" fill="#404040">
                        <set attributeName="fill" to="#808080" begin="arrowDown.mouseover" end="arrowDown.mouseout"/>
                  </use>
                  <path fill="none" stroke="white" stroke-width="1.5" d="M0,-3.0v7 M-2.5,-0.5L0,-3.0L2.5,-0.5"/>
                </g>
                <g id="arrowLeft" xlink:href="#dirArrow" transform="rotate(270) translate(-36 17)" onmousedown="handlePan(-1,0)">
                  <use xlink:href="#rim" fill="#404040">
                        <set attributeName="fill" to="#808080" begin="arrowLeft.mouseover" end="arrowLeft.mouseout"/>
                  </use>
                  <path fill="none" stroke="white" stroke-width="1.5" d="M0,-3.0v7 M-2.5,-0.5L0,-3.0L2.5,-0.5"/>
                </g>
        </g>
        <svg viewBox="0 0 15 15" width="100%" height="30px" preserveAspectRatio="xMaxYMin meet">
         <g id="arrow_out" transform="scale(0.3 0.3)">
          <a xlink:href="rgbd__renderer__vtk_8cc__incl_org.svg" target="_base">
           <rect id="button" ry="5" rx="5" y="6" x="6" height="38" width="38"
                fill="#f2f5e9" fill-opacity="0.5" stroke="#606060" stroke-width="1.0"/>
           <path id="arrow"
             d="M 11.500037,31.436501 C 11.940474,20.09759 22.043105,11.32322 32.158766,21.979434 L 37.068811,17.246167 C 37.068811,17.246167 37.088388,32 37.088388,32 L 22.160133,31.978069 C 22.160133,31.978069 26.997745,27.140456 26.997745,27.140456 C 18.528582,18.264221 13.291696,25.230495 11.500037,31.436501 z"
             style="fill:#404040;"/>
          </a>
         </g>
        </svg>
</svg>
