<?xml version="1.0" encoding="UTF-8" standalone="no"?>
<!DOCTYPE svg PUBLIC "-//W3C//DTD SVG 1.1//EN"
 "http://www.w3.org/Graphics/SVG/1.1/DTD/svg11.dtd">
<!-- Generated by graphviz version 2.40.1 (20161225.0304)
 -->
<!-- Title: drake/attic/systems/sensors/rgbd_renderer_ospray.h Pages: 1 -->
<svg width="276pt" height="117pt"
 viewBox="0.00 0.00 275.50 117.00" xmlns="http://www.w3.org/2000/svg" xmlns:xlink="http://www.w3.org/1999/xlink">
<g id="graph0" class="graph" transform="scale(1 1) rotate(0) translate(4 113)">
<title>drake/attic/systems/sensors/rgbd_renderer_ospray.h</title>
<polygon fill="#ffffff" stroke="transparent" points="-4,4 -4,-113 271.5,-113 271.5,4 -4,4"/>
<!-- Node0 -->
<g id="node1" class="node">
<title>Node0</title>
<polygon fill="#bfbfbf" stroke="#000000" points="34,-67.5 34,-108.5 162,-108.5 162,-67.5 34,-67.5"/>
<text text-anchor="start" x="42" y="-96.5" font-family="Helvetica,sans-Serif" font-size="10.00" fill="#000000">drake/attic/systems</text>
<text text-anchor="start" x="42" y="-85.5" font-family="Helvetica,sans-Serif" font-size="10.00" fill="#000000">/sensors/rgbd_renderer</text>
<text text-anchor="middle" x="98" y="-74.5" font-family="Helvetica,sans-Serif" font-size="10.00" fill="#000000">_ospray.h</text>
</g>
<!-- Node1 -->
<g id="node2" class="node">
<title>Node1</title>
<polygon fill="#ffffff" stroke="#bfbfbf" points="0,-6 0,-25 58,-25 58,-6 0,-6"/>
<text text-anchor="middle" x="29" y="-13" font-family="Helvetica,sans-Serif" font-size="10.00" fill="#000000">memory</text>
</g>
<!-- Node0&#45;&gt;Node1 -->
<g id="edge1" class="edge">
<title>Node0&#45;&gt;Node1</title>
<path fill="none" stroke="#191970" d="M78.4119,-67.4183C67.8711,-56.3428 55.0305,-42.8509 45.0813,-32.397"/>
<polygon fill="#191970" stroke="#191970" points="47.552,-29.9162 38.1226,-25.0853 42.4814,-34.7421 47.552,-29.9162"/>
</g>
<!-- Node2 -->
<g id="node3" class="node">
<title>Node2</title>
<polygon fill="#ffffff" stroke="#bfbfbf" points="76,-6 76,-25 120,-25 120,-6 76,-6"/>
<text text-anchor="middle" x="98" y="-13" font-family="Helvetica,sans-Serif" font-size="10.00" fill="#000000">string</text>
</g>
<!-- Node0&#45;&gt;Node2 -->
<g id="edge2" class="edge">
<title>Node0&#45;&gt;Node2</title>
<path fill="none" stroke="#191970" d="M98,-67.4183C98,-57.32 98,-45.213 98,-35.2314"/>
<polygon fill="#191970" stroke="#191970" points="101.5001,-35.0853 98,-25.0853 94.5001,-35.0854 101.5001,-35.0853"/>
</g>
<!-- Node3 -->
<g id="node4" class="node">
<title>Node3</title>
<polygon fill="#ffffff" stroke="#bfbfbf" points="138.5,-.5 138.5,-30.5 267.5,-30.5 267.5,-.5 138.5,-.5"/>
<text text-anchor="start" x="146.5" y="-18.5" font-family="Helvetica,sans-Serif" font-size="10.00" fill="#000000">drake/systems/sensors</text>
<text text-anchor="middle" x="203" y="-7.5" font-family="Helvetica,sans-Serif" font-size="10.00" fill="#000000">/rgbd_renderer.h</text>
</g>
<!-- Node0&#45;&gt;Node3 -->
<g id="edge3" class="edge">
<title>Node0&#45;&gt;Node3</title>
<path fill="none" stroke="#191970" d="M127.8079,-67.4183C141.8665,-57.7112 158.6134,-46.1479 172.7301,-36.4007"/>
<polygon fill="#191970" stroke="#191970" points="174.892,-39.1612 181.1323,-30.5991 170.9147,-33.4009 174.892,-39.1612"/>
</g>
</g>
</svg>
