<?xml version="1.0" encoding="UTF-8" standalone="no"?>
<!DOCTYPE svg PUBLIC "-//W3C//DTD SVG 1.1//EN"
 "http://www.w3.org/Graphics/SVG/1.1/DTD/svg11.dtd">
<!-- Generated by graphviz version 2.40.1 (20161225.0304)
 -->
<!-- Title: drake/systems/sensors/rgbd_renderer_vtk.h Pages: 1 -->
<svg width="594pt" height="117pt"
 viewBox="0.00 0.00 594.00 117.00" xmlns="http://www.w3.org/2000/svg" xmlns:xlink="http://www.w3.org/1999/xlink">
<g id="graph0" class="graph" transform="scale(1 1) rotate(0) translate(4 113)">
<title>drake/systems/sensors/rgbd_renderer_vtk.h</title>
<polygon fill="#ffffff" stroke="transparent" points="-4,4 -4,-113 590,-113 590,4 -4,4"/>
<!-- Node69 -->
<g id="node1" class="node">
<title>Node69</title>
<polygon fill="#bfbfbf" stroke="#000000" points="224,-78.5 224,-108.5 353,-108.5 353,-78.5 224,-78.5"/>
<text text-anchor="start" x="232" y="-96.5" font-family="Helvetica,sans-Serif" font-size="10.00" fill="#000000">drake/systems/sensors</text>
<text text-anchor="middle" x="288.5" y="-85.5" font-family="Helvetica,sans-Serif" font-size="10.00" fill="#000000">/rgbd_renderer_vtk.h</text>
</g>
<!-- Node70 -->
<g id="node2" class="node">
<title>Node70</title>
<g id="a_node2"><a xlink:href="rgbd__camera_8cc.html" target="_top" xlink:title="drake/systems/sensors\l/rgbd_camera.cc">
<polygon fill="#ffffff" stroke="#000000" points="0,-6 0,-36 129,-36 129,-6 0,-6"/>
<text text-anchor="start" x="8" y="-24" font-family="Helvetica,sans-Serif" font-size="10.00" fill="#000000">drake/systems/sensors</text>
<text text-anchor="middle" x="64.5" y="-13" font-family="Helvetica,sans-Serif" font-size="10.00" fill="#000000">/rgbd_camera.cc</text>
</a>
</g>
</g>
<!-- Node69&#45;&gt;Node70 -->
<g id="edge1" class="edge">
<title>Node69&#45;&gt;Node70</title>
<path fill="none" stroke="#191970" d="M232.3225,-75.3175C194.8316,-63.1832 146.1287,-47.42 110.8535,-36.0028"/>
<polygon fill="#191970" stroke="#191970" points="231.4952,-78.7285 242.0871,-78.478 233.6508,-72.0686 231.4952,-78.7285"/>
</g>
<!-- Node71 -->
<g id="node3" class="node">
<title>Node71</title>
<g id="a_node3"><a xlink:href="rgbd__renderer__vtk_8cc.html" target="_top" xlink:title="drake/systems/sensors\l/rgbd_renderer_vtk.cc">
<polygon fill="#ffffff" stroke="#000000" points="147,-6 147,-36 276,-36 276,-6 147,-6"/>
<text text-anchor="start" x="155" y="-24" font-family="Helvetica,sans-Serif" font-size="10.00" fill="#000000">drake/systems/sensors</text>
<text text-anchor="middle" x="211.5" y="-13" font-family="Helvetica,sans-Serif" font-size="10.00" fill="#000000">/rgbd_renderer_vtk.cc</text>
</a>
</g>
</g>
<!-- Node69&#45;&gt;Node71 -->
<g id="edge2" class="edge">
<title>Node69&#45;&gt;Node71</title>
<path fill="none" stroke="#191970" d="M264.9553,-71.3313C252.7917,-59.8785 238.2699,-46.2054 227.434,-36.0028"/>
<polygon fill="#191970" stroke="#191970" points="262.8656,-74.171 272.5456,-78.478 267.6642,-69.0746 262.8656,-74.171"/>
</g>
<!-- Node72 -->
<g id="node4" class="node">
<title>Node72</title>
<g id="a_node4"><a xlink:href="rgbd__camera__test_8cc.html" target="_top" xlink:title="drake/systems/sensors\l/test/rgbd_camera_test.cc">
<polygon fill="#ffffff" stroke="#000000" points="294,-6 294,-36 437,-36 437,-6 294,-6"/>
<text text-anchor="start" x="302" y="-24" font-family="Helvetica,sans-Serif" font-size="10.00" fill="#000000">drake/systems/sensors</text>
<text text-anchor="middle" x="365.5" y="-13" font-family="Helvetica,sans-Serif" font-size="10.00" fill="#000000">/test/rgbd_camera_test.cc</text>
</a>
</g>
</g>
<!-- Node69&#45;&gt;Node72 -->
<g id="edge3" class="edge">
<title>Node69&#45;&gt;Node72</title>
<path fill="none" stroke="#191970" d="M312.0447,-71.3313C324.2083,-59.8785 338.7301,-46.2054 349.566,-36.0028"/>
<polygon fill="#191970" stroke="#191970" points="309.3358,-69.0746 304.4544,-78.478 314.1344,-74.171 309.3358,-69.0746"/>
</g>
<!-- Node73 -->
<g id="node5" class="node">
<title>Node73</title>
<g id="a_node5"><a xlink:href="rgbd__renderer__vtk__test_8cc.html" target="_top" xlink:title="drake/systems/sensors\l/test/rgbd_renderer_vtk\l_test.cc">
<polygon fill="#ffffff" stroke="#000000" points="455,-.5 455,-41.5 586,-41.5 586,-.5 455,-.5"/>
<text text-anchor="start" x="463" y="-29.5" font-family="Helvetica,sans-Serif" font-size="10.00" fill="#000000">drake/systems/sensors</text>
<text text-anchor="start" x="463" y="-18.5" font-family="Helvetica,sans-Serif" font-size="10.00" fill="#000000">/test/rgbd_renderer_vtk</text>
<text text-anchor="middle" x="520.5" y="-7.5" font-family="Helvetica,sans-Serif" font-size="10.00" fill="#000000">_test.cc</text>
</a>
</g>
</g>
<!-- Node69&#45;&gt;Node73 -->
<g id="edge4" class="edge">
<title>Node69&#45;&gt;Node73</title>
<path fill="none" stroke="#191970" d="M346.5055,-75.3733C379.4426,-65.0804 420.7785,-52.163 454.8952,-41.5015"/>
<polygon fill="#191970" stroke="#191970" points="345.0714,-72.1545 336.5705,-78.478 347.1593,-78.8358 345.0714,-72.1545"/>
</g>
</g>
</svg>
