<?xml version="1.0" encoding="UTF-8" standalone="no"?>
<!DOCTYPE svg PUBLIC "-//W3C//DTD SVG 1.1//EN"
 "http://www.w3.org/Graphics/SVG/1.1/DTD/svg11.dtd">
<!-- Generated by graphviz version 2.40.1 (20161225.0304)
 -->
<!-- Title: drake/automotive/maliput/api/rules/right_of_way_phase_provider.h Pages: 1 -->
<svg width="666pt" height="228pt"
 viewBox="0.00 0.00 665.50 228.00" xmlns="http://www.w3.org/2000/svg" xmlns:xlink="http://www.w3.org/1999/xlink">
<g id="graph0" class="graph" transform="scale(1 1) rotate(0) translate(4 224)">
<title>drake/automotive/maliput/api/rules/right_of_way_phase_provider.h</title>
<polygon fill="#ffffff" stroke="transparent" points="-4,4 -4,-224 661.5,-224 661.5,4 -4,4"/>
<!-- Node75 -->
<g id="node1" class="node">
<title>Node75</title>
<polygon fill="#bfbfbf" stroke="#000000" points="168,-178.5 168,-219.5 312,-219.5 312,-178.5 168,-178.5"/>
<text text-anchor="start" x="176" y="-207.5" font-family="Helvetica,sans-Serif" font-size="10.00" fill="#000000">drake/automotive/maliput</text>
<text text-anchor="start" x="176" y="-196.5" font-family="Helvetica,sans-Serif" font-size="10.00" fill="#000000">/api/rules/right_of_way</text>
<text text-anchor="middle" x="240" y="-185.5" font-family="Helvetica,sans-Serif" font-size="10.00" fill="#000000">_phase_provider.h</text>
</g>
<!-- Node76 -->
<g id="node2" class="node">
<title>Node76</title>
<g id="a_node2"><a xlink:href="simple__right__of__way__phase__provider_8h.html" target="_top" xlink:title="drake/automotive/maliput\l/simple_phase_provider\l/simple_right_of_way_phase\l_provider.h">
<polygon fill="#ffffff" stroke="#000000" points="162.5,-89.5 162.5,-141.5 317.5,-141.5 317.5,-89.5 162.5,-89.5"/>
<text text-anchor="start" x="170.5" y="-129.5" font-family="Helvetica,sans-Serif" font-size="10.00" fill="#000000">drake/automotive/maliput</text>
<text text-anchor="start" x="170.5" y="-118.5" font-family="Helvetica,sans-Serif" font-size="10.00" fill="#000000">/simple_phase_provider</text>
<text text-anchor="start" x="170.5" y="-107.5" font-family="Helvetica,sans-Serif" font-size="10.00" fill="#000000">/simple_right_of_way_phase</text>
<text text-anchor="middle" x="240" y="-96.5" font-family="Helvetica,sans-Serif" font-size="10.00" fill="#000000">_provider.h</text>
</a>
</g>
</g>
<!-- Node75&#45;&gt;Node76 -->
<g id="edge1" class="edge">
<title>Node75&#45;&gt;Node76</title>
<path fill="none" stroke="#191970" d="M240,-168.1618C240,-159.4305 240,-150.0145 240,-141.5925"/>
<polygon fill="#191970" stroke="#191970" points="236.5001,-168.3595 240,-178.3595 243.5001,-168.3596 236.5001,-168.3595"/>
</g>
<!-- Node78 -->
<g id="node4" class="node">
<title>Node78</title>
<g id="a_node4"><a xlink:href="simple__right__of__way__phase__provider__test_8cc.html" target="_top" xlink:title="drake/automotive/maliput\l/simple_phase_provider\l/test/simple_right_of_way\l_phase_provider_test.cc">
<polygon fill="#ffffff" stroke="#000000" points="0,-.5 0,-52.5 144,-52.5 144,-.5 0,-.5"/>
<text text-anchor="start" x="8" y="-40.5" font-family="Helvetica,sans-Serif" font-size="10.00" fill="#000000">drake/automotive/maliput</text>
<text text-anchor="start" x="8" y="-29.5" font-family="Helvetica,sans-Serif" font-size="10.00" fill="#000000">/simple_phase_provider</text>
<text text-anchor="start" x="8" y="-18.5" font-family="Helvetica,sans-Serif" font-size="10.00" fill="#000000">/test/simple_right_of_way</text>
<text text-anchor="middle" x="72" y="-7.5" font-family="Helvetica,sans-Serif" font-size="10.00" fill="#000000">_phase_provider_test.cc</text>
</a>
</g>
</g>
<!-- Node75&#45;&gt;Node78 -->
<g id="edge5" class="edge">
<title>Node75&#45;&gt;Node78</title>
<path fill="none" stroke="#191970" d="M192.8962,-172.7527C179.2231,-163.9545 164.8084,-153.4411 153,-142 125.3843,-115.2433 101.1758,-77.8642 86.5819,-52.9553"/>
<polygon fill="#191970" stroke="#191970" points="191.4043,-175.9476 201.7394,-178.2792 195.1141,-170.0114 191.4043,-175.9476"/>
</g>
<!-- Node80 -->
<g id="node6" class="node">
<title>Node80</title>
<g id="a_node6"><a xlink:href="phase__based__right__of__way__state__provider_8h.html" target="_top" xlink:title="drake/automotive/phase\l_based_right_of_way_state\l_provider.h">
<polygon fill="#ffffff" stroke="#000000" points="338.5,-95 338.5,-136 487.5,-136 487.5,-95 338.5,-95"/>
<text text-anchor="start" x="346.5" y="-124" font-family="Helvetica,sans-Serif" font-size="10.00" fill="#000000">drake/automotive/phase</text>
<text text-anchor="start" x="346.5" y="-113" font-family="Helvetica,sans-Serif" font-size="10.00" fill="#000000">_based_right_of_way_state</text>
<text text-anchor="middle" x="413" y="-102" font-family="Helvetica,sans-Serif" font-size="10.00" fill="#000000">_provider.h</text>
</a>
</g>
</g>
<!-- Node75&#45;&gt;Node80 -->
<g id="edge6" class="edge">
<title>Node75&#45;&gt;Node80</title>
<path fill="none" stroke="#191970" d="M291.7814,-174.0072C316.8854,-161.8906 346.6671,-147.5162 370.4284,-136.0476"/>
<polygon fill="#191970" stroke="#191970" points="290.2485,-170.8607 282.7641,-178.3595 293.2913,-177.1648 290.2485,-170.8607"/>
</g>
<!-- Node77 -->
<g id="node3" class="node">
<title>Node77</title>
<g id="a_node3"><a xlink:href="simple__right__of__way__phase__provider_8cc.html" target="_top" xlink:title="drake/automotive/maliput\l/simple_phase_provider\l/simple_right_of_way_phase\l_provider.cc">
<polygon fill="#ffffff" stroke="#000000" points="162.5,-.5 162.5,-52.5 317.5,-52.5 317.5,-.5 162.5,-.5"/>
<text text-anchor="start" x="170.5" y="-40.5" font-family="Helvetica,sans-Serif" font-size="10.00" fill="#000000">drake/automotive/maliput</text>
<text text-anchor="start" x="170.5" y="-29.5" font-family="Helvetica,sans-Serif" font-size="10.00" fill="#000000">/simple_phase_provider</text>
<text text-anchor="start" x="170.5" y="-18.5" font-family="Helvetica,sans-Serif" font-size="10.00" fill="#000000">/simple_right_of_way_phase</text>
<text text-anchor="middle" x="240" y="-7.5" font-family="Helvetica,sans-Serif" font-size="10.00" fill="#000000">_provider.cc</text>
</a>
</g>
</g>
<!-- Node76&#45;&gt;Node77 -->
<g id="edge2" class="edge">
<title>Node76&#45;&gt;Node77</title>
<path fill="none" stroke="#191970" d="M240,-79.1155C240,-70.2061 240,-60.8475 240,-52.5341"/>
<polygon fill="#191970" stroke="#191970" points="236.5001,-79.2784 240,-89.2784 243.5001,-79.2785 236.5001,-79.2784"/>
</g>
<!-- Node76&#45;&gt;Node78 -->
<g id="edge3" class="edge">
<title>Node76&#45;&gt;Node78</title>
<path fill="none" stroke="#191970" d="M181.6055,-84.5648C161.8823,-74.1162 140.0766,-62.5644 121.1431,-52.5341"/>
<polygon fill="#191970" stroke="#191970" points="180.028,-87.6899 190.5031,-89.2784 183.305,-81.5043 180.028,-87.6899"/>
</g>
<!-- Node79 -->
<g id="node5" class="node">
<title>Node79</title>
<g id="a_node5"><a xlink:href="phase__based__right__of__way__state__provider__test_8cc.html" target="_top" xlink:title="drake/automotive/test\l/phase_based_right_of\l_way_state_provider_test.cc">
<polygon fill="#ffffff" stroke="#000000" points="335.5,-6 335.5,-47 490.5,-47 490.5,-6 335.5,-6"/>
<text text-anchor="start" x="343.5" y="-35" font-family="Helvetica,sans-Serif" font-size="10.00" fill="#000000">drake/automotive/test</text>
<text text-anchor="start" x="343.5" y="-24" font-family="Helvetica,sans-Serif" font-size="10.00" fill="#000000">/phase_based_right_of</text>
<text text-anchor="middle" x="413" y="-13" font-family="Helvetica,sans-Serif" font-size="10.00" fill="#000000">_way_state_provider_test.cc</text>
</a>
</g>
</g>
<!-- Node76&#45;&gt;Node79 -->
<g id="edge4" class="edge">
<title>Node76&#45;&gt;Node79</title>
<path fill="none" stroke="#191970" d="M300.0633,-84.6004C324.2251,-72.1703 351.4315,-58.174 373.0863,-47.0336"/>
<polygon fill="#191970" stroke="#191970" points="298.2612,-81.5914 290.97,-89.2784 301.4634,-87.816 298.2612,-81.5914"/>
</g>
<!-- Node80&#45;&gt;Node79 -->
<g id="edge8" class="edge">
<title>Node80&#45;&gt;Node79</title>
<path fill="none" stroke="#191970" d="M413,-84.844C413,-72.3522 413,-58.2439 413,-47.0301"/>
<polygon fill="#191970" stroke="#191970" points="409.5001,-84.8579 413,-94.8579 416.5001,-84.8579 409.5001,-84.8579"/>
</g>
<!-- Node81 -->
<g id="node7" class="node">
<title>Node81</title>
<g id="a_node7"><a xlink:href="phase__based__right__of__way__state__provider_8cc.html" target="_top" xlink:title="drake/automotive/phase\l_based_right_of_way_state\l_provider.cc">
<polygon fill="#ffffff" stroke="#000000" points="508.5,-6 508.5,-47 657.5,-47 657.5,-6 508.5,-6"/>
<text text-anchor="start" x="516.5" y="-35" font-family="Helvetica,sans-Serif" font-size="10.00" fill="#000000">drake/automotive/phase</text>
<text text-anchor="start" x="516.5" y="-24" font-family="Helvetica,sans-Serif" font-size="10.00" fill="#000000">_based_right_of_way_state</text>
<text text-anchor="middle" x="583" y="-13" font-family="Helvetica,sans-Serif" font-size="10.00" fill="#000000">_provider.cc</text>
</a>
</g>
</g>
<!-- Node80&#45;&gt;Node81 -->
<g id="edge7" class="edge">
<title>Node80&#45;&gt;Node81</title>
<path fill="none" stroke="#191970" d="M461.398,-90.1622C487.4859,-76.5044 519.2598,-59.8699 543.7851,-47.0301"/>
<polygon fill="#191970" stroke="#191970" points="459.6647,-87.119 452.4287,-94.8579 462.9114,-93.3205 459.6647,-87.119"/>
</g>
</g>
</svg>
