<?xml version="1.0" encoding="UTF-8" standalone="no"?>
<!DOCTYPE svg PUBLIC "-//W3C//DTD SVG 1.1//EN"
 "http://www.w3.org/Graphics/SVG/1.1/DTD/svg11.dtd">
<!-- Generated by graphviz version 2.40.1 (20161225.0304)
 -->
<!-- Title: drake/automotive/maliput/api/rules/right_of_way_phase_book.h Pages: 1 -->
<svg width="684pt" height="217pt"
 viewBox="0.00 0.00 683.50 217.00" xmlns="http://www.w3.org/2000/svg" xmlns:xlink="http://www.w3.org/1999/xlink">
<g id="graph0" class="graph" transform="scale(1 1) rotate(0) translate(4 213)">
<title>drake/automotive/maliput/api/rules/right_of_way_phase_book.h</title>
<polygon fill="#ffffff" stroke="transparent" points="-4,4 -4,-213 679.5,-213 679.5,4 -4,4"/>
<!-- Node76 -->
<g id="node1" class="node">
<title>Node76</title>
<polygon fill="#bfbfbf" stroke="#000000" points="272,-167.5 272,-208.5 416,-208.5 416,-167.5 272,-167.5"/>
<text text-anchor="start" x="280" y="-196.5" font-family="Helvetica,sans-Serif" font-size="10.00" fill="#000000">drake/automotive/maliput</text>
<text text-anchor="start" x="280" y="-185.5" font-family="Helvetica,sans-Serif" font-size="10.00" fill="#000000">/api/rules/right_of_way</text>
<text text-anchor="middle" x="344" y="-174.5" font-family="Helvetica,sans-Serif" font-size="10.00" fill="#000000">_phase_book.h</text>
</g>
<!-- Node77 -->
<g id="node2" class="node">
<title>Node77</title>
<g id="a_node2"><a xlink:href="simple__right__of__way__phase__book_8h.html" target="_top" xlink:title="drake/automotive/maliput\l/simple_phase_book/simple\l_right_of_way_phase_book.h">
<polygon fill="#ffffff" stroke="#000000" points="180,-89.5 180,-130.5 338,-130.5 338,-89.5 180,-89.5"/>
<text text-anchor="start" x="188" y="-118.5" font-family="Helvetica,sans-Serif" font-size="10.00" fill="#000000">drake/automotive/maliput</text>
<text text-anchor="start" x="188" y="-107.5" font-family="Helvetica,sans-Serif" font-size="10.00" fill="#000000">/simple_phase_book/simple</text>
<text text-anchor="middle" x="259" y="-96.5" font-family="Helvetica,sans-Serif" font-size="10.00" fill="#000000">_right_of_way_phase_book.h</text>
</a>
</g>
</g>
<!-- Node76&#45;&gt;Node77 -->
<g id="edge1" class="edge">
<title>Node76&#45;&gt;Node77</title>
<path fill="none" stroke="#191970" d="M313.7367,-160.229C303.1295,-150.4953 291.4105,-139.7414 281.5466,-130.6898"/>
<polygon fill="#191970" stroke="#191970" points="311.4872,-162.915 321.2216,-167.0974 316.22,-157.7574 311.4872,-162.915"/>
</g>
<!-- Node81 -->
<g id="node6" class="node">
<title>Node81</title>
<g id="a_node6"><a xlink:href="phase__based__right__of__way__state__provider_8h.html" target="_top" xlink:title="drake/automotive/phase\l_based_right_of_way_state\l_provider.h">
<polygon fill="#ffffff" stroke="#000000" points="356.5,-89.5 356.5,-130.5 505.5,-130.5 505.5,-89.5 356.5,-89.5"/>
<text text-anchor="start" x="364.5" y="-118.5" font-family="Helvetica,sans-Serif" font-size="10.00" fill="#000000">drake/automotive/phase</text>
<text text-anchor="start" x="364.5" y="-107.5" font-family="Helvetica,sans-Serif" font-size="10.00" fill="#000000">_based_right_of_way_state</text>
<text text-anchor="middle" x="431" y="-96.5" font-family="Helvetica,sans-Serif" font-size="10.00" fill="#000000">_provider.h</text>
</a>
</g>
</g>
<!-- Node76&#45;&gt;Node81 -->
<g id="edge5" class="edge">
<title>Node76&#45;&gt;Node81</title>
<path fill="none" stroke="#191970" d="M374.9753,-160.229C385.8322,-150.4953 397.8269,-139.7414 407.9229,-130.6898"/>
<polygon fill="#191970" stroke="#191970" points="372.4237,-157.8159 367.3144,-167.0974 377.0965,-163.028 372.4237,-157.8159"/>
</g>
<!-- Node78 -->
<g id="node3" class="node">
<title>Node78</title>
<g id="a_node3"><a xlink:href="simple__right__of__way__phase__book_8cc.html" target="_top" xlink:title="drake/automotive/maliput\l/simple_phase_book/simple\l_right_of_way_phase_book.cc">
<polygon fill="#ffffff" stroke="#000000" points="0,-6 0,-47 162,-47 162,-6 0,-6"/>
<text text-anchor="start" x="8" y="-35" font-family="Helvetica,sans-Serif" font-size="10.00" fill="#000000">drake/automotive/maliput</text>
<text text-anchor="start" x="8" y="-24" font-family="Helvetica,sans-Serif" font-size="10.00" fill="#000000">/simple_phase_book/simple</text>
<text text-anchor="middle" x="81" y="-13" font-family="Helvetica,sans-Serif" font-size="10.00" fill="#000000">_right_of_way_phase_book.cc</text>
</a>
</g>
</g>
<!-- Node77&#45;&gt;Node78 -->
<g id="edge2" class="edge">
<title>Node77&#45;&gt;Node78</title>
<path fill="none" stroke="#191970" d="M205.722,-85.0072C179.8925,-72.8906 149.2501,-58.5162 124.802,-47.0476"/>
<polygon fill="#191970" stroke="#191970" points="204.4602,-88.2812 215,-89.3595 207.4331,-81.9439 204.4602,-88.2812"/>
</g>
<!-- Node79 -->
<g id="node4" class="node">
<title>Node79</title>
<g id="a_node4"><a xlink:href="simple__right__of__way__phase__book__test_8cc.html" target="_top" xlink:title="drake/automotive/maliput\l/simple_phase_book/test\l/simple_right_of_way_phase\l_book_test.cc">
<polygon fill="#ffffff" stroke="#000000" points="180.5,-.5 180.5,-52.5 335.5,-52.5 335.5,-.5 180.5,-.5"/>
<text text-anchor="start" x="188.5" y="-40.5" font-family="Helvetica,sans-Serif" font-size="10.00" fill="#000000">drake/automotive/maliput</text>
<text text-anchor="start" x="188.5" y="-29.5" font-family="Helvetica,sans-Serif" font-size="10.00" fill="#000000">/simple_phase_book/test</text>
<text text-anchor="start" x="188.5" y="-18.5" font-family="Helvetica,sans-Serif" font-size="10.00" fill="#000000">/simple_right_of_way_phase</text>
<text text-anchor="middle" x="258" y="-7.5" font-family="Helvetica,sans-Serif" font-size="10.00" fill="#000000">_book_test.cc</text>
</a>
</g>
</g>
<!-- Node77&#45;&gt;Node79 -->
<g id="edge3" class="edge">
<title>Node77&#45;&gt;Node79</title>
<path fill="none" stroke="#191970" d="M258.6307,-79.1618C258.5261,-70.4305 258.4133,-61.0145 258.3125,-52.5925"/>
<polygon fill="#191970" stroke="#191970" points="255.1332,-79.4022 258.7528,-89.3595 262.1327,-79.3183 255.1332,-79.4022"/>
</g>
<!-- Node80 -->
<g id="node5" class="node">
<title>Node80</title>
<g id="a_node5"><a xlink:href="phase__based__right__of__way__state__provider__test_8cc.html" target="_top" xlink:title="drake/automotive/test\l/phase_based_right_of\l_way_state_provider_test.cc">
<polygon fill="#ffffff" stroke="#000000" points="353.5,-6 353.5,-47 508.5,-47 508.5,-6 353.5,-6"/>
<text text-anchor="start" x="361.5" y="-35" font-family="Helvetica,sans-Serif" font-size="10.00" fill="#000000">drake/automotive/test</text>
<text text-anchor="start" x="361.5" y="-24" font-family="Helvetica,sans-Serif" font-size="10.00" fill="#000000">/phase_based_right_of</text>
<text text-anchor="middle" x="431" y="-13" font-family="Helvetica,sans-Serif" font-size="10.00" fill="#000000">_way_state_provider_test.cc</text>
</a>
</g>
</g>
<!-- Node77&#45;&gt;Node80 -->
<g id="edge4" class="edge">
<title>Node77&#45;&gt;Node80</title>
<path fill="none" stroke="#191970" d="M310.8108,-84.8477C335.7006,-72.7645 365.1541,-58.4659 388.6745,-47.0476"/>
<polygon fill="#191970" stroke="#191970" points="308.9843,-81.8437 301.5169,-89.3595 312.0414,-88.1409 308.9843,-81.8437"/>
</g>
<!-- Node81&#45;&gt;Node80 -->
<g id="edge7" class="edge">
<title>Node81&#45;&gt;Node80</title>
<path fill="none" stroke="#191970" d="M431,-79.1593C431,-68.5064 431,-56.8344 431,-47.1924"/>
<polygon fill="#191970" stroke="#191970" points="427.5001,-79.3595 431,-89.3595 434.5001,-79.3596 427.5001,-79.3595"/>
</g>
<!-- Node82 -->
<g id="node7" class="node">
<title>Node82</title>
<g id="a_node7"><a xlink:href="phase__based__right__of__way__state__provider_8cc.html" target="_top" xlink:title="drake/automotive/phase\l_based_right_of_way_state\l_provider.cc">
<polygon fill="#ffffff" stroke="#000000" points="526.5,-6 526.5,-47 675.5,-47 675.5,-6 526.5,-6"/>
<text text-anchor="start" x="534.5" y="-35" font-family="Helvetica,sans-Serif" font-size="10.00" fill="#000000">drake/automotive/phase</text>
<text text-anchor="start" x="534.5" y="-24" font-family="Helvetica,sans-Serif" font-size="10.00" fill="#000000">_based_right_of_way_state</text>
<text text-anchor="middle" x="601" y="-13" font-family="Helvetica,sans-Serif" font-size="10.00" fill="#000000">_provider.cc</text>
</a>
</g>
</g>
<!-- Node81&#45;&gt;Node82 -->
<g id="edge6" class="edge">
<title>Node81&#45;&gt;Node82</title>
<path fill="none" stroke="#191970" d="M482.2083,-84.8477C506.8087,-72.7645 535.9198,-58.4659 559.1666,-47.0476"/>
<polygon fill="#191970" stroke="#191970" points="480.4552,-81.8093 473.0225,-89.3595 483.5413,-88.0923 480.4552,-81.8093"/>
</g>
</g>
</svg>
