<?xml version="1.0" encoding="UTF-8" standalone="no"?>
<!DOCTYPE svg PUBLIC "-//W3C//DTD SVG 1.1//EN"
 "http://www.w3.org/Graphics/SVG/1.1/DTD/svg11.dtd">
<!-- Generated by graphviz version 2.40.1 (20161225.0304)
 -->
<!-- Title: drake/attic/multibody/rigid_body_tree_alias_groups.h Pages: 1 -->
<svg width="508pt" height="117pt"
 viewBox="0.00 0.00 508.00 117.00" xmlns="http://www.w3.org/2000/svg" xmlns:xlink="http://www.w3.org/1999/xlink">
<g id="graph0" class="graph" transform="scale(1 1) rotate(0) translate(4 113)">
<title>drake/attic/multibody/rigid_body_tree_alias_groups.h</title>
<polygon fill="#ffffff" stroke="transparent" points="-4,4 -4,-113 504,-113 504,4 -4,4"/>
<!-- Node0 -->
<g id="node1" class="node">
<title>Node0</title>
<polygon fill="#bfbfbf" stroke="#000000" points="135,-67.5 135,-108.5 259,-108.5 259,-67.5 135,-67.5"/>
<text text-anchor="start" x="143" y="-96.5" font-family="Helvetica,sans-Serif" font-size="10.00" fill="#000000">drake/attic/multibody</text>
<text text-anchor="start" x="143" y="-85.5" font-family="Helvetica,sans-Serif" font-size="10.00" fill="#000000">/rigid_body_tree_alias</text>
<text text-anchor="middle" x="197" y="-74.5" font-family="Helvetica,sans-Serif" font-size="10.00" fill="#000000">_groups.h</text>
</g>
<!-- Node1 -->
<g id="node2" class="node">
<title>Node1</title>
<polygon fill="#ffffff" stroke="#bfbfbf" points="0,-6 0,-25 44,-25 44,-6 0,-6"/>
<text text-anchor="middle" x="22" y="-13" font-family="Helvetica,sans-Serif" font-size="10.00" fill="#000000">string</text>
</g>
<!-- Node0&#45;&gt;Node1 -->
<g id="edge1" class="edge">
<title>Node0&#45;&gt;Node1</title>
<path fill="none" stroke="#191970" d="M141.8312,-67.452C114.8237,-57.0668 81.966,-43.9451 53,-31 51.9837,-30.5458 50.9524,-30.0763 49.9135,-29.5961"/>
<polygon fill="#191970" stroke="#191970" points="51.0925,-26.2798 40.5626,-25.1086 48.0639,-32.5907 51.0925,-26.2798"/>
</g>
<!-- Node2 -->
<g id="node3" class="node">
<title>Node2</title>
<polygon fill="#ffffff" stroke="#bfbfbf" points="62.5,-6 62.5,-25 155.5,-25 155.5,-6 62.5,-6"/>
<text text-anchor="middle" x="109" y="-13" font-family="Helvetica,sans-Serif" font-size="10.00" fill="#000000">unordered_map</text>
</g>
<!-- Node0&#45;&gt;Node2 -->
<g id="edge2" class="edge">
<title>Node0&#45;&gt;Node2</title>
<path fill="none" stroke="#191970" d="M172.0181,-67.4183C158.1793,-56.017 141.2324,-42.0551 128.3996,-31.4826"/>
<polygon fill="#191970" stroke="#191970" points="130.5782,-28.7427 120.6346,-25.0853 126.1272,-34.1453 130.5782,-28.7427"/>
</g>
<!-- Node3 -->
<g id="node4" class="node">
<title>Node3</title>
<polygon fill="#ffffff" stroke="#bfbfbf" points="173.5,-6 173.5,-25 220.5,-25 220.5,-6 173.5,-6"/>
<text text-anchor="middle" x="197" y="-13" font-family="Helvetica,sans-Serif" font-size="10.00" fill="#000000">vector</text>
</g>
<!-- Node0&#45;&gt;Node3 -->
<g id="edge3" class="edge">
<title>Node0&#45;&gt;Node3</title>
<path fill="none" stroke="#191970" d="M197,-67.4183C197,-57.32 197,-45.213 197,-35.2314"/>
<polygon fill="#191970" stroke="#191970" points="200.5001,-35.0853 197,-25.0853 193.5001,-35.0854 200.5001,-35.0853"/>
</g>
<!-- Node4 -->
<g id="node5" class="node">
<title>Node4</title>
<g id="a_node5"><a xlink:href="drake__copyable_8h.html" target="_top" xlink:title="Provides careful macros to selectively enable or disable the special member functions for copy&#45;constr...">
<polygon fill="#ffffff" stroke="#000000" points="238.5,-.5 238.5,-30.5 359.5,-30.5 359.5,-.5 238.5,-.5"/>
<text text-anchor="start" x="246.5" y="-18.5" font-family="Helvetica,sans-Serif" font-size="10.00" fill="#000000">drake/common/drake</text>
<text text-anchor="middle" x="299" y="-7.5" font-family="Helvetica,sans-Serif" font-size="10.00" fill="#000000">_copyable.h</text>
</a>
</g>
</g>
<!-- Node0&#45;&gt;Node4 -->
<g id="edge4" class="edge">
<title>Node0&#45;&gt;Node4</title>
<path fill="none" stroke="#191970" d="M225.9563,-67.4183C239.6132,-57.7112 255.8815,-46.1479 269.5949,-36.4007"/>
<polygon fill="#191970" stroke="#191970" points="271.634,-39.2454 277.7571,-30.5991 267.5786,-33.5398 271.634,-39.2454"/>
</g>
<!-- Node5 -->
<g id="node6" class="node">
<title>Node5</title>
<polygon fill="#ffffff" stroke="#bfbfbf" points="378,-.5 378,-30.5 500,-30.5 500,-.5 378,-.5"/>
<text text-anchor="start" x="386" y="-18.5" font-family="Helvetica,sans-Serif" font-size="10.00" fill="#000000">drake/multibody/rigid</text>
<text text-anchor="middle" x="439" y="-7.5" font-family="Helvetica,sans-Serif" font-size="10.00" fill="#000000">_body_tree.h</text>
</g>
<!-- Node0&#45;&gt;Node5 -->
<g id="edge5" class="edge">
<title>Node0&#45;&gt;Node5</title>
<path fill="none" stroke="#191970" d="M259.0068,-69.4236C295.7446,-58.4174 342.0887,-44.5334 378.5502,-33.61"/>
<polygon fill="#191970" stroke="#191970" points="379.9811,-36.8351 388.556,-30.6124 377.9721,-30.1295 379.9811,-36.8351"/>
</g>
</g>
</svg>
