<?xml version="1.0" encoding="UTF-8" standalone="no"?>
<!DOCTYPE svg PUBLIC "-//W3C//DTD SVG 1.1//EN"
 "http://www.w3.org/Graphics/SVG/1.1/DTD/svg11.dtd">
<!-- Generated by graphviz version 2.40.1 (20161225.0304)
 -->
<!-- Title: drake/attic/multibody/test/rigid_body_tree/rigid_body_tree_compare_to_clone.cc Pages: 1 -->
<!--zoomable 206 -->
<svg id="main" version="1.1" xmlns="http://www.w3.org/2000/svg" xmlns:xlink="http://www.w3.org/1999/xlink" xml:space="preserve" onload="init(evt)">
<style type="text/css"><![CDATA[
.edge:hover path { stroke: red; }
.edge:hover polygon { stroke: red; fill: red; }
]]></style>
<script type="text/javascript"><![CDATA[
var edges = document.getElementsByTagName('g');
if (edges && edges.length) {
  for (var i=0;i<edges.length;i++) {
    if (edges[i].id.substr(0,4)=='edge') {
      edges[i].setAttribute('class','edge');
    }
  }
}
]]></script>
        <defs>
                <circle id="rim" cx="0" cy="0" r="7"/>
                <circle id="rim2" cx="0" cy="0" r="3.5"/>
                <g id="zoomPlus">
                        <use xlink:href="#rim" fill="#404040">
                                <set attributeName="fill" to="#808080" begin="zoomplus.mouseover" end="zoomplus.mouseout"/>
                        </use>
                        <path d="M-4,0h8M0,-4v8" fill="none" stroke="white" stroke-width="1.5" pointer-events="none"/>
                </g>
                <g id="zoomMin">
                        <use xlink:href="#rim" fill="#404040">
                                <set attributeName="fill" to="#808080" begin="zoomminus.mouseover" end="zoomminus.mouseout"/>
                        </use>
                        <path d="M-4,0h8" fill="none" stroke="white" stroke-width="1.5" pointer-events="none"/>
                </g>
                <g id="dirArrow">
                        <path fill="none" stroke="white" stroke-width="1.5" d="M0,-3.0v7 M-2.5,-0.5L0,-3.0L2.5,-0.5"/>
                </g>
               <g id="resetDef">
                       <use xlink:href="#rim2" fill="#404040">
                               <set attributeName="fill" to="#808080" begin="reset.mouseover" end="reset.mouseout"/>
                       </use>
               </g>
        </defs>

<script type="text/javascript">
var viewWidth = 1065;
var viewHeight = 206;
var sectionId = 'dynsection-0';
</script>
<script xlink:href="svgpan.js"/>
<svg id="graph" class="graph">
<g id="viewport">
<title>drake/attic/multibody/test/rigid_body_tree/rigid_body_tree_compare_to_clone.cc</title>
<polygon fill="#ffffff" stroke="transparent" points="-4,4 -4,-202 1060.5,-202 1060.5,4 -4,4"/>
<!-- Node0 -->
<g id="node1" class="node">
<title>Node0</title>
<polygon fill="#bfbfbf" stroke="#000000" points="438.5,-145.5 438.5,-197.5 581.5,-197.5 581.5,-145.5 438.5,-145.5"/>
<text text-anchor="start" x="446.5" y="-185.5" font-family="Helvetica,sans-Serif" font-size="10.00" fill="#000000">drake/attic/multibody</text>
<text text-anchor="start" x="446.5" y="-174.5" font-family="Helvetica,sans-Serif" font-size="10.00" fill="#000000">/test/rigid_body_tree</text>
<text text-anchor="start" x="446.5" y="-163.5" font-family="Helvetica,sans-Serif" font-size="10.00" fill="#000000">/rigid_body_tree_compare</text>
<text text-anchor="middle" x="510" y="-152.5" font-family="Helvetica,sans-Serif" font-size="10.00" fill="#000000">_to_clone.cc</text>
</g>
<!-- Node1 -->
<g id="node2" class="node">
<title>Node1</title>
<polygon fill="#ffffff" stroke="#bfbfbf" points="0,-67.5 0,-108.5 174,-108.5 174,-67.5 0,-67.5"/>
<text text-anchor="start" x="8" y="-96.5" font-family="Helvetica,sans-Serif" font-size="10.00" fill="#000000">drake/multibody/test</text>
<text text-anchor="start" x="8" y="-85.5" font-family="Helvetica,sans-Serif" font-size="10.00" fill="#000000">/rigid_body_tree/rigid</text>
<text text-anchor="middle" x="87" y="-74.5" font-family="Helvetica,sans-Serif" font-size="10.00" fill="#000000">_body_tree_compare_to_clone.h</text>
</g>
<!-- Node0&#45;&gt;Node1 -->
<g id="edge1" class="edge">
<title>Node0&#45;&gt;Node1</title>
<path fill="none" stroke="#191970" d="M438.4479,-158.3886C374.394,-146.5218 277.6524,-128.2821 184.0263,-109.1886"/>
<polygon fill="#191970" stroke="#191970" points="184.5981,-105.7331 174.0996,-107.1585 183.1955,-112.5912 184.5981,-105.7331"/>
</g>
<!-- Node2 -->
<g id="node3" class="node">
<title>Node2</title>
<polygon fill="#ffffff" stroke="#bfbfbf" points="192,-78.5 192,-97.5 250,-97.5 250,-78.5 192,-78.5"/>
<text text-anchor="middle" x="221" y="-85.5" font-family="Helvetica,sans-Serif" font-size="10.00" fill="#000000">memory</text>
</g>
<!-- Node0&#45;&gt;Node2 -->
<g id="edge2" class="edge">
<title>Node0&#45;&gt;Node2</title>
<path fill="none" stroke="#191970" d="M438.2314,-158.5079C387.4525,-148.1303 318.3033,-131.5775 260,-109 255.2312,-107.1533 250.3083,-104.849 245.6331,-102.4494"/>
<polygon fill="#191970" stroke="#191970" points="246.9729,-99.1946 236.5134,-97.5062 243.6371,-105.3487 246.9729,-99.1946"/>
</g>
<!-- Node3 -->
<g id="node4" class="node">
<title>Node3</title>
<g id="a_node4"><a xlink:href="text__logging_8h.html" target="_top" xlink:title="This is the entry point for all text logging within Drake. ">
<polygon fill="#ffffff" stroke="#000000" points="268.5,-78.5 268.5,-97.5 431.5,-97.5 431.5,-78.5 268.5,-78.5"/>
<text text-anchor="middle" x="350" y="-85.5" font-family="Helvetica,sans-Serif" font-size="10.00" fill="#000000">drake/common/text_logging.h</text>
</a>
</g>
</g>
<!-- Node0&#45;&gt;Node3 -->
<g id="edge3" class="edge">
<title>Node0&#45;&gt;Node3</title>
<path fill="none" stroke="#191970" d="M459.814,-145.3092C432.5493,-131.0804 399.8933,-114.038 377.3164,-102.2558"/>
<polygon fill="#191970" stroke="#191970" points="378.7876,-99.0756 368.3029,-97.5518 375.5489,-105.2813 378.7876,-99.0756"/>
</g>
<!-- Node5 -->
<g id="node6" class="node">
<title>Node5</title>
<polygon fill="#ffffff" stroke="#bfbfbf" points="450,-67.5 450,-108.5 570,-108.5 570,-67.5 450,-67.5"/>
<text text-anchor="start" x="458" y="-96.5" font-family="Helvetica,sans-Serif" font-size="10.00" fill="#000000">drake/multibody/test</text>
<text text-anchor="start" x="458" y="-85.5" font-family="Helvetica,sans-Serif" font-size="10.00" fill="#000000">/rigid_body_actuator</text>
<text text-anchor="middle" x="510" y="-74.5" font-family="Helvetica,sans-Serif" font-size="10.00" fill="#000000">_compare_to_clone.h</text>
</g>
<!-- Node0&#45;&gt;Node5 -->
<g id="edge5" class="edge">
<title>Node0&#45;&gt;Node5</title>
<path fill="none" stroke="#191970" d="M510,-145.0801C510,-136.724 510,-127.4164 510,-118.7824"/>
<polygon fill="#191970" stroke="#191970" points="513.5001,-118.694 510,-108.6941 506.5001,-118.6941 513.5001,-118.694"/>
</g>
<!-- Node6 -->
<g id="node7" class="node">
<title>Node6</title>
<polygon fill="#ffffff" stroke="#bfbfbf" points="588,-67.5 588,-108.5 722,-108.5 722,-67.5 588,-67.5"/>
<text text-anchor="start" x="596" y="-96.5" font-family="Helvetica,sans-Serif" font-size="10.00" fill="#000000">drake/multibody/test</text>
<text text-anchor="start" x="596" y="-85.5" font-family="Helvetica,sans-Serif" font-size="10.00" fill="#000000">/rigid_body_compare_to</text>
<text text-anchor="middle" x="655" y="-74.5" font-family="Helvetica,sans-Serif" font-size="10.00" fill="#000000">_clone.h</text>
</g>
<!-- Node0&#45;&gt;Node6 -->
<g id="edge6" class="edge">
<title>Node0&#45;&gt;Node6</title>
<path fill="none" stroke="#191970" d="M555.4811,-145.3092C573.0211,-135.2086 593.0232,-123.6901 610.4721,-113.6419"/>
<polygon fill="#191970" stroke="#191970" points="612.4183,-116.5601 619.3375,-108.5367 608.925,-110.494 612.4183,-116.5601"/>
</g>
<!-- Node7 -->
<g id="node8" class="node">
<title>Node7</title>
<polygon fill="#ffffff" stroke="#bfbfbf" points="740.5,-67.5 740.5,-108.5 893.5,-108.5 893.5,-67.5 740.5,-67.5"/>
<text text-anchor="start" x="748.5" y="-96.5" font-family="Helvetica,sans-Serif" font-size="10.00" fill="#000000">drake/multibody/test</text>
<text text-anchor="start" x="748.5" y="-85.5" font-family="Helvetica,sans-Serif" font-size="10.00" fill="#000000">/rigid_body_frame_compare</text>
<text text-anchor="middle" x="817" y="-74.5" font-family="Helvetica,sans-Serif" font-size="10.00" fill="#000000">_to_clone.h</text>
</g>
<!-- Node0&#45;&gt;Node7 -->
<g id="edge7" class="edge">
<title>Node0&#45;&gt;Node7</title>
<path fill="none" stroke="#191970" d="M581.5904,-152.0283C626.4176,-139.8359 684.4251,-124.0586 731.6409,-111.2166"/>
<polygon fill="#191970" stroke="#191970" points="732.813,-114.525 741.5438,-108.5231 730.9758,-107.7704 732.813,-114.525"/>
</g>
<!-- Node8 -->
<g id="node9" class="node">
<title>Node8</title>
<polygon fill="#ffffff" stroke="#bfbfbf" points="911.5,-67.5 911.5,-108.5 1056.5,-108.5 1056.5,-67.5 911.5,-67.5"/>
<text text-anchor="start" x="919.5" y="-96.5" font-family="Helvetica,sans-Serif" font-size="10.00" fill="#000000">drake/multibody/test</text>
<text text-anchor="start" x="919.5" y="-85.5" font-family="Helvetica,sans-Serif" font-size="10.00" fill="#000000">/rigid_body_loop_compare</text>
<text text-anchor="middle" x="984" y="-74.5" font-family="Helvetica,sans-Serif" font-size="10.00" fill="#000000">_to_clone.h</text>
</g>
<!-- Node0&#45;&gt;Node8 -->
<g id="edge8" class="edge">
<title>Node0&#45;&gt;Node8</title>
<path fill="none" stroke="#191970" d="M581.7307,-162.1994C658.6411,-151.7517 784.4661,-133.2915 901.3818,-109.2605"/>
<polygon fill="#191970" stroke="#191970" points="902.1387,-112.6781 911.2198,-107.2206 900.7174,-105.8238 902.1387,-112.6781"/>
</g>
<!-- Node4 -->
<g id="node5" class="node">
<title>Node4</title>
<g id="a_node5"><a xlink:href="drake__copyable_8h.html" target="_top" xlink:title="Provides careful macros to selectively enable or disable the special member functions for copy&#45;constr...">
<polygon fill="#ffffff" stroke="#000000" points="289.5,-.5 289.5,-30.5 410.5,-30.5 410.5,-.5 289.5,-.5"/>
<text text-anchor="start" x="297.5" y="-18.5" font-family="Helvetica,sans-Serif" font-size="10.00" fill="#000000">drake/common/drake</text>
<text text-anchor="middle" x="350" y="-7.5" font-family="Helvetica,sans-Serif" font-size="10.00" fill="#000000">_copyable.h</text>
</a>
</g>
</g>
<!-- Node3&#45;&gt;Node4 -->
<g id="edge4" class="edge">
<title>Node3&#45;&gt;Node4</title>
<path fill="none" stroke="#191970" d="M350,-78.2223C350,-68.6803 350,-53.7575 350,-40.8615"/>
<polygon fill="#191970" stroke="#191970" points="353.5001,-40.668 350,-30.668 346.5001,-40.6681 353.5001,-40.668"/>
</g>
</g>
</svg>
        <g id="navigator" transform="translate(0 0)" fill="#404254">
                <rect fill="#f2f5e9" fill-opacity="0.5" stroke="#606060" stroke-width=".5" x="0" y="0" width="60" height="60"/>
                <use id="zoomplus" xlink:href="#zoomPlus" x="17" y="9" onmousedown="handleZoom(evt,'in')"/>
                <use id="zoomminus" xlink:href="#zoomMin" x="42" y="9" onmousedown="handleZoom(evt,'out')"/>
                <use id="reset" xlink:href="#resetDef" x="30" y="36" onmousedown="handleReset()"/>
                <g id="arrowUp" xlink:href="#dirArrow" transform="translate(30 24)" onmousedown="handlePan(0,-1)">
                  <use xlink:href="#rim" fill="#404040">
                        <set attributeName="fill" to="#808080" begin="arrowUp.mouseover" end="arrowUp.mouseout"/>
                  </use>
                  <path fill="none" stroke="white" stroke-width="1.5" d="M0,-3.0v7 M-2.5,-0.5L0,-3.0L2.5,-0.5"/>
                </g>
                <g id="arrowRight" xlink:href="#dirArrow" transform="rotate(90) translate(36 -43)" onmousedown="handlePan(1,0)">
                  <use xlink:href="#rim" fill="#404040">
                        <set attributeName="fill" to="#808080" begin="arrowRight.mouseover" end="arrowRight.mouseout"/>
                  </use>
                  <path fill="none" stroke="white" stroke-width="1.5" d="M0,-3.0v7 M-2.5,-0.5L0,-3.0L2.5,-0.5"/>
                </g>
                <g id="arrowDown" xlink:href="#dirArrow" transform="rotate(180) translate(-30 -48)" onmousedown="handlePan(0,1)">
                  <use xlink:href="#rim" fill="#404040">
                        <set attributeName="fill" to="#808080" begin="arrowDown.mouseover" end="arrowDown.mouseout"/>
                  </use>
                  <path fill="none" stroke="white" stroke-width="1.5" d="M0,-3.0v7 M-2.5,-0.5L0,-3.0L2.5,-0.5"/>
                </g>
                <g id="arrowLeft" xlink:href="#dirArrow" transform="rotate(270) translate(-36 17)" onmousedown="handlePan(-1,0)">
                  <use xlink:href="#rim" fill="#404040">
                        <set attributeName="fill" to="#808080" begin="arrowLeft.mouseover" end="arrowLeft.mouseout"/>
                  </use>
                  <path fill="none" stroke="white" stroke-width="1.5" d="M0,-3.0v7 M-2.5,-0.5L0,-3.0L2.5,-0.5"/>
                </g>
        </g>
        <svg viewBox="0 0 15 15" width="100%" height="30px" preserveAspectRatio="xMaxYMin meet">
         <g id="arrow_out" transform="scale(0.3 0.3)">
          <a xlink:href="rigid__body__tree__compare__to__clone_8cc__incl_org.svg" target="_base">
           <rect id="button" ry="5" rx="5" y="6" x="6" height="38" width="38"
                fill="#f2f5e9" fill-opacity="0.5" stroke="#606060" stroke-width="1.0"/>
           <path id="arrow"
             d="M 11.500037,31.436501 C 11.940474,20.09759 22.043105,11.32322 32.158766,21.979434 L 37.068811,17.246167 C 37.068811,17.246167 37.088388,32 37.088388,32 L 22.160133,31.978069 C 22.160133,31.978069 26.997745,27.140456 26.997745,27.140456 C 18.528582,18.264221 13.291696,25.230495 11.500037,31.436501 z"
             style="fill:#404040;"/>
          </a>
         </g>
        </svg>
</svg>
