<?xml version="1.0" encoding="UTF-8" standalone="no"?>
<!DOCTYPE svg PUBLIC "-//W3C//DTD SVG 1.1//EN"
 "http://www.w3.org/Graphics/SVG/1.1/DTD/svg11.dtd">
<!-- Generated by graphviz version 2.40.1 (20161225.0304)
 -->
<!-- Title: drake/attic/multibody/rigid_body_tree.cc Pages: 1 -->
<!--zoomable 419 -->
<svg id="main" version="1.1" xmlns="http://www.w3.org/2000/svg" xmlns:xlink="http://www.w3.org/1999/xlink" xml:space="preserve" onload="init(evt)">
<style type="text/css"><![CDATA[
.edge:hover path { stroke: red; }
.edge:hover polygon { stroke: red; fill: red; }
]]></style>
<script type="text/javascript"><![CDATA[
var edges = document.getElementsByTagName('g');
if (edges && edges.length) {
  for (var i=0;i<edges.length;i++) {
    if (edges[i].id.substr(0,4)=='edge') {
      edges[i].setAttribute('class','edge');
    }
  }
}
]]></script>
        <defs>
                <circle id="rim" cx="0" cy="0" r="7"/>
                <circle id="rim2" cx="0" cy="0" r="3.5"/>
                <g id="zoomPlus">
                        <use xlink:href="#rim" fill="#404040">
                                <set attributeName="fill" to="#808080" begin="zoomplus.mouseover" end="zoomplus.mouseout"/>
                        </use>
                        <path d="M-4,0h8M0,-4v8" fill="none" stroke="white" stroke-width="1.5" pointer-events="none"/>
                </g>
                <g id="zoomMin">
                        <use xlink:href="#rim" fill="#404040">
                                <set attributeName="fill" to="#808080" begin="zoomminus.mouseover" end="zoomminus.mouseout"/>
                        </use>
                        <path d="M-4,0h8" fill="none" stroke="white" stroke-width="1.5" pointer-events="none"/>
                </g>
                <g id="dirArrow">
                        <path fill="none" stroke="white" stroke-width="1.5" d="M0,-3.0v7 M-2.5,-0.5L0,-3.0L2.5,-0.5"/>
                </g>
               <g id="resetDef">
                       <use xlink:href="#rim2" fill="#404040">
                               <set attributeName="fill" to="#808080" begin="reset.mouseover" end="reset.mouseout"/>
                       </use>
               </g>
        </defs>

<script type="text/javascript">
var viewWidth = 2776;
var viewHeight = 419;
var sectionId = 'dynsection-0';
</script>
<script xlink:href="svgpan.js"/>
<svg id="graph" class="graph">
<g id="viewport">
<title>drake/attic/multibody/rigid_body_tree.cc</title>
<polygon fill="#ffffff" stroke="transparent" points="-4,4 -4,-415 2771.5,-415 2771.5,4 -4,4"/>
<!-- Node0 -->
<g id="node1" class="node">
<title>Node0</title>
<polygon fill="#bfbfbf" stroke="#000000" points="1374,-380.5 1374,-410.5 1496,-410.5 1496,-380.5 1374,-380.5"/>
<text text-anchor="start" x="1382" y="-398.5" font-family="Helvetica,sans-Serif" font-size="10.00" fill="#000000">drake/attic/multibody</text>
<text text-anchor="middle" x="1435" y="-387.5" font-family="Helvetica,sans-Serif" font-size="10.00" fill="#000000">/rigid_body_tree.cc</text>
</g>
<!-- Node1 -->
<g id="node2" class="node">
<title>Node1</title>
<polygon fill="#ffffff" stroke="#bfbfbf" points="0,-313.5 0,-343.5 122,-343.5 122,-313.5 0,-313.5"/>
<text text-anchor="start" x="8" y="-331.5" font-family="Helvetica,sans-Serif" font-size="10.00" fill="#000000">drake/multibody/rigid</text>
<text text-anchor="middle" x="61" y="-320.5" font-family="Helvetica,sans-Serif" font-size="10.00" fill="#000000">_body_tree.h</text>
</g>
<!-- Node0&#45;&gt;Node1 -->
<g id="edge1" class="edge">
<title>Node0&#45;&gt;Node1</title>
<path fill="none" stroke="#191970" d="M1373.7731,-394.407C1150.4753,-390.2129 380.1909,-373.8684 136,-344 134.738,-343.8456 133.4656,-343.6812 132.1854,-343.5076"/>
<polygon fill="#191970" stroke="#191970" points="132.6688,-340.041 122.2593,-342.0142 131.6272,-346.9631 132.6688,-340.041"/>
</g>
<!-- Node2 -->
<g id="node3" class="node">
<title>Node2</title>
<polygon fill="#ffffff" stroke="#bfbfbf" points="668,-257.5 668,-276.5 732,-276.5 732,-257.5 668,-257.5"/>
<text text-anchor="middle" x="700" y="-264.5" font-family="Helvetica,sans-Serif" font-size="10.00" fill="#000000">algorithm</text>
</g>
<!-- Node0&#45;&gt;Node2 -->
<g id="edge2" class="edge">
<title>Node0&#45;&gt;Node2</title>
<path fill="none" stroke="#191970" d="M1373.9993,-393.5195C1242.4725,-388.7189 936.0832,-374.5389 837,-344 792.6849,-330.3415 746.8259,-300.8792 721.0061,-282.6181"/>
<polygon fill="#191970" stroke="#191970" points="722.905,-279.6725 712.7444,-276.6703 718.8151,-285.3535 722.905,-279.6725"/>
</g>
<!-- Node3 -->
<g id="node4" class="node">
<title>Node3</title>
<polygon fill="#ffffff" stroke="#bfbfbf" points="1463.5,-319 1463.5,-338 1518.5,-338 1518.5,-319 1463.5,-319"/>
<text text-anchor="middle" x="1491" y="-326" font-family="Helvetica,sans-Serif" font-size="10.00" fill="#000000">fstream</text>
</g>
<!-- Node0&#45;&gt;Node3 -->
<g id="edge3" class="edge">
<title>Node0&#45;&gt;Node3</title>
<path fill="none" stroke="#191970" d="M1447.7073,-380.2967C1456.2629,-370.0605 1467.5665,-356.5366 1476.4779,-345.8746"/>
<polygon fill="#191970" stroke="#191970" points="1479.2861,-347.9724 1483.0138,-338.055 1473.9151,-343.4832 1479.2861,-347.9724"/>
</g>
<!-- Node4 -->
<g id="node5" class="node">
<title>Node4</title>
<polygon fill="#ffffff" stroke="#bfbfbf" points="951.5,-6 951.5,-25 1016.5,-25 1016.5,-6 951.5,-6"/>
<text text-anchor="middle" x="984" y="-13" font-family="Helvetica,sans-Serif" font-size="10.00" fill="#000000">functional</text>
</g>
<!-- Node0&#45;&gt;Node4 -->
<g id="edge4" class="edge">
<title>Node0&#45;&gt;Node4</title>
<path fill="none" stroke="#191970" d="M1373.9305,-385.5136C1310.7442,-371.9608 1213.6668,-341.5776 1158,-277 1112.8858,-224.6642 1135.0065,-191.7047 1097,-134 1070.0045,-93.0132 1028.0271,-53.4143 1003.5529,-31.9724"/>
<polygon fill="#191970" stroke="#191970" points="1005.5353,-29.0599 995.6793,-25.1729 1000.9601,-34.3578 1005.5353,-29.0599"/>
</g>
<!-- Node5 -->
<g id="node6" class="node">
<title>Node5</title>
<polygon fill="#ffffff" stroke="#bfbfbf" points="1537,-319 1537,-338 1597,-338 1597,-319 1537,-319"/>
<text text-anchor="middle" x="1567" y="-326" font-family="Helvetica,sans-Serif" font-size="10.00" fill="#000000">iostream</text>
</g>
<!-- Node0&#45;&gt;Node5 -->
<g id="edge5" class="edge">
<title>Node0&#45;&gt;Node5</title>
<path fill="none" stroke="#191970" d="M1464.6234,-380.4639C1486.8711,-369.1715 1517.1384,-353.8086 1538.9861,-342.7192"/>
<polygon fill="#191970" stroke="#191970" points="1540.7459,-345.7511 1548.0788,-338.1039 1537.5776,-339.5091 1540.7459,-345.7511"/>
</g>
<!-- Node6 -->
<g id="node7" class="node">
<title>Node6</title>
<polygon fill="#ffffff" stroke="#bfbfbf" points="277,-6 277,-25 321,-25 321,-6 277,-6"/>
<text text-anchor="middle" x="299" y="-13" font-family="Helvetica,sans-Serif" font-size="10.00" fill="#000000">limits</text>
</g>
<!-- Node0&#45;&gt;Node6 -->
<g id="edge6" class="edge">
<title>Node0&#45;&gt;Node6</title>
<path fill="none" stroke="#191970" d="M1373.8863,-392.6364C1118.5159,-380.2748 150,-329.2864 150,-267 150,-267 150,-267 150,-149.5 150,-86.9142 223.577,-46.1181 267.324,-27.3932"/>
<polygon fill="#191970" stroke="#191970" points="268.7866,-30.576 276.6932,-23.5235 266.1144,-24.1061 268.7866,-30.576"/>
</g>
<!-- Node7 -->
<g id="node8" class="node">
<title>Node7</title>
<polygon fill="#ffffff" stroke="#bfbfbf" points="1216,-6 1216,-25 1274,-25 1274,-6 1216,-6"/>
<text text-anchor="middle" x="1245" y="-13" font-family="Helvetica,sans-Serif" font-size="10.00" fill="#000000">memory</text>
</g>
<!-- Node0&#45;&gt;Node7 -->
<g id="edge7" class="edge">
<title>Node0&#45;&gt;Node7</title>
<path fill="none" stroke="#191970" d="M1406.1231,-380.4517C1391.467,-371.5564 1374.4004,-359.0786 1363,-344 1286.9126,-243.3642 1256.5391,-89.1514 1247.8482,-35.0621"/>
<polygon fill="#191970" stroke="#191970" points="1251.2947,-34.4461 1246.3141,-25.095 1244.3761,-35.5111 1251.2947,-34.4461"/>
</g>
<!-- Node8 -->
<g id="node9" class="node">
<title>Node8</title>
<polygon fill="#ffffff" stroke="#bfbfbf" points="1615,-319 1615,-338 1671,-338 1671,-319 1615,-319"/>
<text text-anchor="middle" x="1643" y="-326" font-family="Helvetica,sans-Serif" font-size="10.00" fill="#000000">numeric</text>
</g>
<!-- Node0&#45;&gt;Node8 -->
<g id="edge8" class="edge">
<title>Node0&#45;&gt;Node8</title>
<path fill="none" stroke="#191970" d="M1490.1519,-380.4696C1523.8905,-370.8857 1567.772,-357.7217 1606,-344 1607.8682,-343.3294 1609.779,-342.6161 1611.6997,-341.8777"/>
<polygon fill="#191970" stroke="#191970" points="1613.2524,-345.0263 1621.2355,-338.0607 1610.651,-338.5276 1613.2524,-345.0263"/>
</g>
<!-- Node9 -->
<g id="node10" class="node">
<title>Node9</title>
<polygon fill="#ffffff" stroke="#bfbfbf" points="1689,-319 1689,-338 1733,-338 1733,-319 1689,-319"/>
<text text-anchor="middle" x="1711" y="-326" font-family="Helvetica,sans-Serif" font-size="10.00" fill="#000000">string</text>
</g>
<!-- Node0&#45;&gt;Node9 -->
<g id="edge9" class="edge">
<title>Node0&#45;&gt;Node9</title>
<path fill="none" stroke="#191970" d="M1496.0814,-387.1222C1546.3734,-379.1723 1619.0524,-365.2457 1680,-344 1681.4205,-343.5048 1682.8591,-342.9586 1684.2989,-342.3759"/>
<polygon fill="#191970" stroke="#191970" points="1685.963,-345.4648 1693.6353,-338.1582 1683.0811,-339.0855 1685.963,-345.4648"/>
</g>
<!-- Node10 -->
<g id="node11" class="node">
<title>Node10</title>
<polygon fill="#ffffff" stroke="#bfbfbf" points="1751.5,-319 1751.5,-338 1844.5,-338 1844.5,-319 1751.5,-319"/>
<text text-anchor="middle" x="1798" y="-326" font-family="Helvetica,sans-Serif" font-size="10.00" fill="#000000">unordered_map</text>
</g>
<!-- Node0&#45;&gt;Node10 -->
<g id="edge10" class="edge">
<title>Node0&#45;&gt;Node10</title>
<path fill="none" stroke="#191970" d="M1496.2303,-387.1407C1558.4538,-378.1988 1657.4475,-362.7403 1742,-344 1746.6197,-342.9761 1751.4265,-341.807 1756.1968,-340.5804"/>
<polygon fill="#191970" stroke="#191970" points="1757.1006,-343.9617 1765.8655,-338.0097 1755.3019,-337.1968 1757.1006,-343.9617"/>
</g>
<!-- Node11 -->
<g id="node12" class="node">
<title>Node11</title>
<g id="a_node12"><a xlink:href="common_2autodiff_8h.html" target="_top" xlink:title="drake/common/autodiff.h">
<polygon fill="#ffffff" stroke="#000000" points="508,-201.5 508,-220.5 648,-220.5 648,-201.5 508,-201.5"/>
<text text-anchor="middle" x="578" y="-208.5" font-family="Helvetica,sans-Serif" font-size="10.00" fill="#000000">drake/common/autodiff.h</text>
</a>
</g>
</g>
<!-- Node0&#45;&gt;Node11 -->
<g id="edge11" class="edge">
<title>Node0&#45;&gt;Node11</title>
<path fill="none" stroke="#191970" d="M1373.8075,-394.4783C1230.8861,-391.499 878.7971,-380.5655 767,-344 694.1866,-320.1849 624.8498,-257.908 594.309,-227.7908"/>
<polygon fill="#191970" stroke="#191970" points="596.6157,-225.1473 587.0761,-220.5377 591.659,-230.0901 596.6157,-225.1473"/>
</g>
<!-- Node18 -->
<g id="node19" class="node">
<title>Node18</title>
<g id="a_node19"><a xlink:href="eigen__types_8h.html" target="_top" xlink:title="This file contains abbreviated definitions for certain specializations of Eigen::Matrix that are comm...">
<polygon fill="#ffffff" stroke="#000000" points="1296,-67.5 1296,-97.5 1416,-97.5 1416,-67.5 1296,-67.5"/>
<text text-anchor="start" x="1304" y="-85.5" font-family="Helvetica,sans-Serif" font-size="10.00" fill="#000000">drake/common/eigen</text>
<text text-anchor="middle" x="1356" y="-74.5" font-family="Helvetica,sans-Serif" font-size="10.00" fill="#000000">_types.h</text>
</a>
</g>
</g>
<!-- Node0&#45;&gt;Node18 -->
<g id="edge40" class="edge">
<title>Node0&#45;&gt;Node18</title>
<path fill="none" stroke="#191970" d="M1415.5907,-380.3928C1404.6513,-370.9736 1391.5139,-358.006 1383,-344 1364.3804,-313.3692 1359,-302.846 1359,-267 1359,-267 1359,-267 1359,-211 1359,-175.0727 1357.8134,-133.5105 1356.9328,-107.6111"/>
<polygon fill="#191970" stroke="#191970" points="1360.4277,-107.4032 1356.5784,-97.5324 1353.432,-107.6492 1360.4277,-107.4032"/>
</g>
<!-- Node19 -->
<g id="node20" class="node">
<title>Node19</title>
<g id="a_node20"><a xlink:href="constants_8h.html" target="_top" xlink:title="drake/common/constants.h">
<polygon fill="#ffffff" stroke="#000000" points="1291.5,-6 1291.5,-25 1440.5,-25 1440.5,-6 1291.5,-6"/>
<text text-anchor="middle" x="1366" y="-13" font-family="Helvetica,sans-Serif" font-size="10.00" fill="#000000">drake/common/constants.h</text>
</a>
</g>
</g>
<!-- Node0&#45;&gt;Node19 -->
<g id="edge39" class="edge">
<title>Node0&#45;&gt;Node19</title>
<path fill="none" stroke="#191970" d="M1432.6103,-380.2115C1429.2225,-357.6866 1423.1913,-314.2244 1421,-277 1415.5142,-183.8111 1463.6249,-151.9846 1425,-67 1418.1437,-51.9144 1404.4435,-39.5202 1391.9697,-30.674"/>
<polygon fill="#191970" stroke="#191970" points="1393.894,-27.7504 1383.6291,-25.1269 1390.0176,-33.5791 1393.894,-27.7504"/>
</g>
<!-- Node29 -->
<g id="node30" class="node">
<title>Node29</title>
<g id="a_node30"><a xlink:href="text__logging_8h.html" target="_top" xlink:title="This is the entry point for all text logging within Drake. ">
<polygon fill="#ffffff" stroke="#000000" points="1429.5,-257.5 1429.5,-276.5 1592.5,-276.5 1592.5,-257.5 1429.5,-257.5"/>
<text text-anchor="middle" x="1511" y="-264.5" font-family="Helvetica,sans-Serif" font-size="10.00" fill="#000000">drake/common/text_logging.h</text>
</a>
</g>
</g>
<!-- Node0&#45;&gt;Node29 -->
<g id="edge41" class="edge">
<title>Node0&#45;&gt;Node29</title>
<path fill="none" stroke="#191970" d="M1435.7993,-380.3907C1437.3379,-362.9475 1441.838,-333.9713 1455,-313 1462.7052,-300.7231 1474.8161,-290.1802 1485.8072,-282.2969"/>
<polygon fill="#191970" stroke="#191970" points="1487.9581,-285.0674 1494.2761,-276.5625 1484.0333,-279.2711 1487.9581,-285.0674"/>
</g>
<!-- Node30 -->
<g id="node31" class="node">
<title>Node30</title>
<g id="a_node31"><a xlink:href="math_2autodiff_8h.html" target="_top" xlink:title="Utilities for arithmetic on AutoDiffScalar. ">
<polygon fill="#ffffff" stroke="#000000" points="750.5,-257.5 750.5,-276.5 873.5,-276.5 873.5,-257.5 750.5,-257.5"/>
<text text-anchor="middle" x="812" y="-264.5" font-family="Helvetica,sans-Serif" font-size="10.00" fill="#000000">drake/math/autodiff.h</text>
</a>
</g>
</g>
<!-- Node0&#45;&gt;Node30 -->
<g id="edge43" class="edge">
<title>Node0&#45;&gt;Node30</title>
<path fill="none" stroke="#191970" d="M1373.9323,-392.5805C1237.6524,-385.6822 917.2589,-367.1973 874,-344 849.6398,-330.937 831.3914,-303.8344 821.2064,-285.5276"/>
<polygon fill="#191970" stroke="#191970" points="824.2764,-283.8459 816.5076,-276.6421 818.0883,-287.1183 824.2764,-283.8459"/>
</g>
<!-- Node33 -->
<g id="node34" class="node">
<title>Node33</title>
<g id="a_node34"><a xlink:href="autodiff__gradient_8h.html" target="_top" xlink:title="Utilities that relate simultaneously to both autodiff matrices and gradient matrices. ">
<polygon fill="#ffffff" stroke="#000000" points="883,-313.5 883,-343.5 997,-343.5 997,-313.5 883,-313.5"/>
<text text-anchor="start" x="891" y="-331.5" font-family="Helvetica,sans-Serif" font-size="10.00" fill="#000000">drake/math/autodiff</text>
<text text-anchor="middle" x="940" y="-320.5" font-family="Helvetica,sans-Serif" font-size="10.00" fill="#000000">_gradient.h</text>
</a>
</g>
</g>
<!-- Node0&#45;&gt;Node33 -->
<g id="edge49" class="edge">
<title>Node0&#45;&gt;Node33</title>
<path fill="none" stroke="#191970" d="M1373.8068,-387.2173C1280.6217,-374.6043 1103.8029,-350.6713 1007.1758,-337.5925"/>
<polygon fill="#191970" stroke="#191970" points="1007.6048,-334.1187 997.2257,-336.2457 1006.6658,-341.0555 1007.6048,-334.1187"/>
</g>
<!-- Node34 -->
<g id="node35" class="node">
<title>Node34</title>
<g id="a_node35"><a xlink:href="gradient_8h.html" target="_top" xlink:title="Utilities for arithmetic on gradients. ">
<polygon fill="#ffffff" stroke="#000000" points="1167.5,-257.5 1167.5,-276.5 1292.5,-276.5 1292.5,-257.5 1167.5,-257.5"/>
<text text-anchor="middle" x="1230" y="-264.5" font-family="Helvetica,sans-Serif" font-size="10.00" fill="#000000">drake/math/gradient.h</text>
</a>
</g>
</g>
<!-- Node0&#45;&gt;Node34 -->
<g id="edge57" class="edge">
<title>Node0&#45;&gt;Node34</title>
<path fill="none" stroke="#191970" d="M1384.3831,-380.4326C1359.8649,-371.8458 1330.6811,-359.6495 1307,-344 1281.8837,-327.402 1258.2202,-301.6594 1243.9204,-284.5711"/>
<polygon fill="#191970" stroke="#191970" points="1246.3767,-282.0456 1237.338,-276.5181 1240.9569,-286.4758 1246.3767,-282.0456"/>
</g>
<!-- Node35 -->
<g id="node36" class="node">
<title>Node35</title>
<polygon fill="#ffffff" stroke="#bfbfbf" points="1862.5,-313.5 1862.5,-343.5 1989.5,-343.5 1989.5,-313.5 1862.5,-313.5"/>
<text text-anchor="start" x="1870.5" y="-331.5" font-family="Helvetica,sans-Serif" font-size="10.00" fill="#000000">drake/multibody/joints</text>
<text text-anchor="middle" x="1926" y="-320.5" font-family="Helvetica,sans-Serif" font-size="10.00" fill="#000000">/drake_joint.h</text>
</g>
<!-- Node0&#45;&gt;Node35 -->
<g id="edge58" class="edge">
<title>Node0&#45;&gt;Node35</title>
<path fill="none" stroke="#191970" d="M1496.3132,-389.7048C1576.1707,-381.7695 1720.2769,-366.1289 1852.5495,-344.1639"/>
<polygon fill="#191970" stroke="#191970" points="1853.1728,-347.6084 1862.4564,-342.503 1852.0153,-340.7047 1853.1728,-347.6084"/>
</g>
<!-- Node36 -->
<g id="node37" class="node">
<title>Node36</title>
<polygon fill="#ffffff" stroke="#bfbfbf" points="2007.5,-313.5 2007.5,-343.5 2134.5,-343.5 2134.5,-313.5 2007.5,-313.5"/>
<text text-anchor="start" x="2015.5" y="-331.5" font-family="Helvetica,sans-Serif" font-size="10.00" fill="#000000">drake/multibody/joints</text>
<text text-anchor="middle" x="2071" y="-320.5" font-family="Helvetica,sans-Serif" font-size="10.00" fill="#000000">/fixed_joint.h</text>
</g>
<!-- Node0&#45;&gt;Node36 -->
<g id="edge59" class="edge">
<title>Node0&#45;&gt;Node36</title>
<path fill="none" stroke="#191970" d="M1496.2192,-392.3425C1598.2534,-386.5468 1809.6419,-372.272 1997.4179,-344.1354"/>
<polygon fill="#191970" stroke="#191970" points="1998.1111,-347.5704 2007.4739,-342.6118 1997.0624,-340.6494 1998.1111,-347.5704"/>
</g>
<!-- Node37 -->
<g id="node38" class="node">
<title>Node37</title>
<polygon fill="#ffffff" stroke="#bfbfbf" points="2152.5,-313.5 2152.5,-343.5 2279.5,-343.5 2279.5,-313.5 2152.5,-313.5"/>
<text text-anchor="start" x="2160.5" y="-331.5" font-family="Helvetica,sans-Serif" font-size="10.00" fill="#000000">drake/multibody/joints</text>
<text text-anchor="middle" x="2216" y="-320.5" font-family="Helvetica,sans-Serif" font-size="10.00" fill="#000000">/floating_base_types.h</text>
</g>
<!-- Node0&#45;&gt;Node37 -->
<g id="edge60" class="edge">
<title>Node0&#45;&gt;Node37</title>
<path fill="none" stroke="#191970" d="M1496.0043,-393.9339C1617.4144,-390.1954 1897.965,-378.4516 2142.3426,-344.1173"/>
<polygon fill="#191970" stroke="#191970" points="2143.0753,-347.5484 2152.4835,-342.6765 2142.0905,-340.618 2143.0753,-347.5484"/>
</g>
<!-- Node38 -->
<g id="node39" class="node">
<title>Node38</title>
<polygon fill="#ffffff" stroke="#bfbfbf" points="2298,-313.5 2298,-343.5 2452,-343.5 2452,-313.5 2298,-313.5"/>
<text text-anchor="start" x="2306" y="-331.5" font-family="Helvetica,sans-Serif" font-size="10.00" fill="#000000">drake/multibody/kinematics</text>
<text text-anchor="middle" x="2375" y="-320.5" font-family="Helvetica,sans-Serif" font-size="10.00" fill="#000000">_cache&#45;inl.h</text>
</g>
<!-- Node0&#45;&gt;Node38 -->
<g id="edge61" class="edge">
<title>Node0&#45;&gt;Node38</title>
<path fill="none" stroke="#191970" d="M1496.0561,-394.2908C1634.918,-391.0074 1985.1395,-379.7166 2287.4285,-344.0977"/>
<polygon fill="#191970" stroke="#191970" points="2288.1933,-347.5315 2297.7097,-342.8746 2287.3663,-340.5805 2288.1933,-347.5315"/>
</g>
<!-- Node39 -->
<g id="node40" class="node">
<title>Node39</title>
<polygon fill="#ffffff" stroke="#bfbfbf" points="2470,-313.5 2470,-343.5 2606,-343.5 2606,-313.5 2470,-313.5"/>
<text text-anchor="start" x="2478" y="-331.5" font-family="Helvetica,sans-Serif" font-size="10.00" fill="#000000">drake/multibody/resolve</text>
<text text-anchor="middle" x="2538" y="-320.5" font-family="Helvetica,sans-Serif" font-size="10.00" fill="#000000">_center_of_pressure.h</text>
</g>
<!-- Node0&#45;&gt;Node39 -->
<g id="edge62" class="edge">
<title>Node0&#45;&gt;Node39</title>
<path fill="none" stroke="#191970" d="M1496.1642,-393.6239C1684.2343,-387.67 2253.2067,-368.2279 2459.5176,-344.0353"/>
<polygon fill="#191970" stroke="#191970" points="2460.1469,-347.4847 2469.6527,-342.806 2459.304,-340.5356 2460.1469,-347.4847"/>
</g>
<!-- Node40 -->
<g id="node41" class="node">
<title>Node40</title>
<polygon fill="#ffffff" stroke="#bfbfbf" points="2624.5,-313.5 2624.5,-343.5 2767.5,-343.5 2767.5,-313.5 2624.5,-313.5"/>
<text text-anchor="start" x="2632.5" y="-331.5" font-family="Helvetica,sans-Serif" font-size="10.00" fill="#000000">drake/util/drakeGeometry</text>
<text text-anchor="middle" x="2696" y="-320.5" font-family="Helvetica,sans-Serif" font-size="10.00" fill="#000000">Util.h</text>
</g>
<!-- Node0&#45;&gt;Node40 -->
<g id="edge63" class="edge">
<title>Node0&#45;&gt;Node40</title>
<path fill="none" stroke="#191970" d="M1496.3125,-394.0038C1703.2307,-388.7723 2375.6246,-370.2427 2614.0909,-343.9592"/>
<polygon fill="#191970" stroke="#191970" points="2614.5547,-347.4291 2624.0953,-342.8219 2613.7639,-340.4739 2614.5547,-347.4291"/>
</g>
<!-- Node12 -->
<g id="node13" class="node">
<title>Node12</title>
<polygon fill="#ffffff" stroke="#bfbfbf" points="634.5,-140 634.5,-159 703.5,-159 703.5,-140 634.5,-140"/>
<text text-anchor="middle" x="669" y="-147" font-family="Helvetica,sans-Serif" font-size="10.00" fill="#000000">Eigen/Core</text>
</g>
<!-- Node11&#45;&gt;Node12 -->
<g id="edge12" class="edge">
<title>Node11&#45;&gt;Node12</title>
<path fill="none" stroke="#191970" d="M592.2188,-201.3906C606.6434,-191.6421 629.1976,-176.3994 646.136,-164.9521"/>
<polygon fill="#191970" stroke="#191970" points="648.5556,-167.5412 654.8811,-159.0419 644.6359,-161.7415 648.5556,-167.5412"/>
</g>
<!-- Node13 -->
<g id="node14" class="node">
<title>Node13</title>
<polygon fill="#ffffff" stroke="#bfbfbf" points="316.5,-140 316.5,-159 467.5,-159 467.5,-140 316.5,-140"/>
<text text-anchor="middle" x="392" y="-147" font-family="Helvetica,sans-Serif" font-size="10.00" fill="#000000">unsupported/Eigen/AutoDiff</text>
</g>
<!-- Node11&#45;&gt;Node13 -->
<g id="edge13" class="edge">
<title>Node11&#45;&gt;Node13</title>
<path fill="none" stroke="#191970" d="M548.9375,-201.3906C517.1338,-190.8749 465.9949,-173.966 430.7856,-162.3243"/>
<polygon fill="#191970" stroke="#191970" points="431.4517,-158.8582 420.8584,-159.0419 429.2541,-165.5043 431.4517,-158.8582"/>
</g>
<!-- Node14 -->
<g id="node15" class="node">
<title>Node14</title>
<g id="a_node15"><a xlink:href="eigen__autodiff__limits_8h.html" target="_top" xlink:title="drake/common/eigen\l_autodiff_limits.h">
<polygon fill="#ffffff" stroke="#000000" points="178,-134.5 178,-164.5 298,-164.5 298,-134.5 178,-134.5"/>
<text text-anchor="start" x="186" y="-152.5" font-family="Helvetica,sans-Serif" font-size="10.00" fill="#000000">drake/common/eigen</text>
<text text-anchor="middle" x="238" y="-141.5" font-family="Helvetica,sans-Serif" font-size="10.00" fill="#000000">_autodiff_limits.h</text>
</a>
</g>
</g>
<!-- Node11&#45;&gt;Node14 -->
<g id="edge14" class="edge">
<title>Node11&#45;&gt;Node14</title>
<path fill="none" stroke="#191970" d="M516.2121,-201.465C463.4312,-193.1026 385.2533,-180.2043 308.0674,-165.1557"/>
<polygon fill="#191970" stroke="#191970" points="308.6581,-161.705 298.1712,-163.2133 307.3098,-168.5739 308.6581,-161.705"/>
</g>
<!-- Node15 -->
<g id="node16" class="node">
<title>Node15</title>
<g id="a_node16"><a xlink:href="eigen__autodiff__types_8h.html" target="_top" xlink:title="This file contains abbreviated definitions for certain uses of AutoDiffScalar that are commonly used ...">
<polygon fill="#ffffff" stroke="#000000" points="968,-134.5 968,-164.5 1088,-164.5 1088,-134.5 968,-134.5"/>
<text text-anchor="start" x="976" y="-152.5" font-family="Helvetica,sans-Serif" font-size="10.00" fill="#000000">drake/common/eigen</text>
<text text-anchor="middle" x="1028" y="-141.5" font-family="Helvetica,sans-Serif" font-size="10.00" fill="#000000">_autodiff_types.h</text>
</a>
</g>
</g>
<!-- Node11&#45;&gt;Node15 -->
<g id="edge16" class="edge">
<title>Node11&#45;&gt;Node15</title>
<path fill="none" stroke="#191970" d="M648.3193,-201.7898C717.6734,-192.6541 826.6835,-178.1554 921,-165 932.8368,-163.349 945.4047,-161.5604 957.6077,-159.8048"/>
<polygon fill="#191970" stroke="#191970" points="958.3507,-163.2339 967.7483,-158.3416 957.351,-156.3057 958.3507,-163.2339"/>
</g>
<!-- Node21 -->
<g id="node22" class="node">
<title>Node21</title>
<g id="a_node22"><a xlink:href="autodiffxd_8h.html" target="_top" xlink:title="drake/common/autodiffxd.h">
<polygon fill="#ffffff" stroke="#000000" points="760,-140 760,-159 912,-159 912,-140 760,-140"/>
<text text-anchor="middle" x="836" y="-147" font-family="Helvetica,sans-Serif" font-size="10.00" fill="#000000">drake/common/autodiffxd.h</text>
</a>
</g>
</g>
<!-- Node11&#45;&gt;Node21 -->
<g id="edge24" class="edge">
<title>Node11&#45;&gt;Node21</title>
<path fill="none" stroke="#191970" d="M618.0294,-201.4581C663.3155,-190.6632 737.1234,-173.0694 786.1206,-161.3899"/>
<polygon fill="#191970" stroke="#191970" points="786.9608,-164.7877 795.8767,-159.0643 785.3376,-157.9785 786.9608,-164.7877"/>
</g>
<!-- Node24 -->
<g id="node25" class="node">
<title>Node24</title>
<g id="a_node25"><a xlink:href="autodiff__overloads_8h.html" target="_top" xlink:title="Overloads for STL mathematical operations on AutoDiffScalar. ">
<polygon fill="#ffffff" stroke="#000000" points="485.5,-134.5 485.5,-164.5 616.5,-164.5 616.5,-134.5 485.5,-134.5"/>
<text text-anchor="start" x="493.5" y="-152.5" font-family="Helvetica,sans-Serif" font-size="10.00" fill="#000000">drake/common/autodiff</text>
<text text-anchor="middle" x="551" y="-141.5" font-family="Helvetica,sans-Serif" font-size="10.00" fill="#000000">_overloads.h</text>
</a>
</g>
</g>
<!-- Node11&#45;&gt;Node24 -->
<g id="edge28" class="edge">
<title>Node11&#45;&gt;Node24</title>
<path fill="none" stroke="#191970" d="M573.7813,-201.3906C570.5331,-193.9922 565.8957,-183.4291 561.6517,-173.7623"/>
<polygon fill="#191970" stroke="#191970" points="564.8297,-172.2941 557.6049,-164.5446 558.4201,-175.108 564.8297,-172.2941"/>
</g>
<!-- Node14&#45;&gt;Node6 -->
<g id="edge15" class="edge">
<title>Node14&#45;&gt;Node6</title>
<path fill="none" stroke="#191970" d="M244.8789,-134.389C256.0467,-109.8564 278.1012,-61.4088 290.3272,-34.5517"/>
<polygon fill="#191970" stroke="#191970" points="293.6702,-35.6556 294.628,-25.1042 287.2993,-32.7554 293.6702,-35.6556"/>
</g>
<!-- Node16 -->
<g id="node17" class="node">
<title>Node16</title>
<polygon fill="#ffffff" stroke="#bfbfbf" points="799.5,-6 799.5,-25 868.5,-25 868.5,-6 799.5,-6"/>
<text text-anchor="middle" x="834" y="-13" font-family="Helvetica,sans-Serif" font-size="10.00" fill="#000000">type_traits</text>
</g>
<!-- Node15&#45;&gt;Node16 -->
<g id="edge17" class="edge">
<title>Node15&#45;&gt;Node16</title>
<path fill="none" stroke="#191970" d="M1022.4608,-134.2446C1015.0408,-115.8379 1000.1842,-85.1126 978,-67 949.3596,-43.6162 909.2676,-30.4335 878.6577,-23.2731"/>
<polygon fill="#191970" stroke="#191970" points="879.19,-19.8064 868.6707,-21.0696 877.6818,-26.642 879.19,-19.8064"/>
</g>
<!-- Node17 -->
<g id="node18" class="node">
<title>Node17</title>
<polygon fill="#ffffff" stroke="#bfbfbf" points="1104.5,-6 1104.5,-25 1181.5,-25 1181.5,-6 1104.5,-6"/>
<text text-anchor="middle" x="1143" y="-13" font-family="Helvetica,sans-Serif" font-size="10.00" fill="#000000">Eigen/Dense</text>
</g>
<!-- Node15&#45;&gt;Node17 -->
<g id="edge18" class="edge">
<title>Node15&#45;&gt;Node17</title>
<path fill="none" stroke="#191970" d="M1040.9684,-134.389C1062.4883,-109.3136 1105.4504,-59.2534 1128.1518,-32.8014"/>
<polygon fill="#191970" stroke="#191970" points="1130.901,-34.9722 1134.7576,-25.1042 1125.589,-30.4133 1130.901,-34.9722"/>
</g>
<!-- Node15&#45;&gt;Node18 -->
<g id="edge19" class="edge">
<title>Node15&#45;&gt;Node18</title>
<path fill="none" stroke="#191970" d="M1088.1603,-137.2112C1144.0181,-125.8012 1227.1777,-108.8143 1285.9912,-96.8006"/>
<polygon fill="#191970" stroke="#191970" points="1286.8469,-100.1981 1295.9441,-94.7675 1285.4459,-93.3398 1286.8469,-100.1981"/>
</g>
<!-- Node18&#45;&gt;Node7 -->
<g id="edge20" class="edge">
<title>Node18&#45;&gt;Node7</title>
<path fill="none" stroke="#191970" d="M1331.0894,-67.4639C1312.7167,-56.3741 1287.84,-41.3584 1269.5526,-30.32"/>
<polygon fill="#191970" stroke="#191970" points="1271.281,-27.2751 1260.911,-25.1039 1267.6636,-33.268 1271.281,-27.2751"/>
</g>
<!-- Node18&#45;&gt;Node17 -->
<g id="edge21" class="edge">
<title>Node18&#45;&gt;Node17</title>
<path fill="none" stroke="#191970" d="M1308.1986,-67.4639C1270.416,-55.5792 1218.2996,-39.1858 1182.773,-28.0108"/>
<polygon fill="#191970" stroke="#191970" points="1183.8077,-24.6672 1173.2183,-25.0053 1181.7073,-31.3447 1183.8077,-24.6672"/>
</g>
<!-- Node18&#45;&gt;Node19 -->
<g id="edge22" class="edge">
<title>Node18&#45;&gt;Node19</title>
<path fill="none" stroke="#191970" d="M1358.2692,-67.2967C1359.6911,-57.7699 1361.538,-45.3954 1363.0701,-35.1306"/>
<polygon fill="#191970" stroke="#191970" points="1366.5593,-35.4621 1364.5739,-25.055 1359.636,-34.4287 1366.5593,-35.4621"/>
</g>
<!-- Node20 -->
<g id="node21" class="node">
<title>Node20</title>
<g id="a_node21"><a xlink:href="drake__copyable_8h.html" target="_top" xlink:title="Provides careful macros to selectively enable or disable the special member functions for copy&#45;constr...">
<polygon fill="#ffffff" stroke="#000000" points="1458.5,-.5 1458.5,-30.5 1579.5,-30.5 1579.5,-.5 1458.5,-.5"/>
<text text-anchor="start" x="1466.5" y="-18.5" font-family="Helvetica,sans-Serif" font-size="10.00" fill="#000000">drake/common/drake</text>
<text text-anchor="middle" x="1519" y="-7.5" font-family="Helvetica,sans-Serif" font-size="10.00" fill="#000000">_copyable.h</text>
</a>
</g>
</g>
<!-- Node18&#45;&gt;Node20 -->
<g id="edge23" class="edge">
<title>Node18&#45;&gt;Node20</title>
<path fill="none" stroke="#191970" d="M1392.5804,-67.4639C1416.3009,-57.7137 1447.4043,-44.9289 1472.8235,-34.4805"/>
<polygon fill="#191970" stroke="#191970" points="1474.3416,-37.6407 1482.2601,-30.6017 1471.6803,-31.1663 1474.3416,-37.6407"/>
</g>
<!-- Node21&#45;&gt;Node17 -->
<g id="edge27" class="edge">
<title>Node21&#45;&gt;Node17</title>
<path fill="none" stroke="#191970" d="M865.4846,-139.9193C894.4766,-130.2396 939.8103,-114.4074 978,-98 1027.8682,-76.5752 1084.0197,-47.3625 1116.2819,-30.0619"/>
<polygon fill="#191970" stroke="#191970" points="1118.3516,-32.9224 1125.494,-25.097 1115.0305,-26.7604 1118.3516,-32.9224"/>
</g>
<!-- Node22 -->
<g id="node23" class="node">
<title>Node22</title>
<polygon fill="#ffffff" stroke="#bfbfbf" points="708.5,-73 708.5,-92 755.5,-92 755.5,-73 708.5,-73"/>
<text text-anchor="middle" x="732" y="-80" font-family="Helvetica,sans-Serif" font-size="10.00" fill="#000000">cmath</text>
</g>
<!-- Node21&#45;&gt;Node22 -->
<g id="edge25" class="edge">
<title>Node21&#45;&gt;Node22</title>
<path fill="none" stroke="#191970" d="M821.0993,-139.9005C803.9547,-128.8554 775.5832,-110.5776 755.4655,-97.6172"/>
<polygon fill="#191970" stroke="#191970" points="757.1751,-94.5552 746.873,-92.0817 753.384,-100.4397 757.1751,-94.5552"/>
</g>
<!-- Node23 -->
<g id="node24" class="node">
<title>Node23</title>
<polygon fill="#ffffff" stroke="#bfbfbf" points="912.5,-73 912.5,-92 969.5,-92 969.5,-73 912.5,-73"/>
<text text-anchor="middle" x="941" y="-80" font-family="Helvetica,sans-Serif" font-size="10.00" fill="#000000">ostream</text>
</g>
<!-- Node21&#45;&gt;Node23 -->
<g id="edge26" class="edge">
<title>Node21&#45;&gt;Node23</title>
<path fill="none" stroke="#191970" d="M851.0439,-139.9005C868.3534,-128.8554 896.9977,-110.5776 917.3089,-97.6172"/>
<polygon fill="#191970" stroke="#191970" points="919.4367,-100.4113 925.984,-92.0817 915.6712,-94.5103 919.4367,-100.4113"/>
</g>
<!-- Node24&#45;&gt;Node6 -->
<g id="edge30" class="edge">
<title>Node24&#45;&gt;Node6</title>
<path fill="none" stroke="#191970" d="M485.471,-134.5665C456.0378,-126.27 421.5799,-114.2771 393,-98 361.7721,-80.2149 331.6326,-50.943 314.2268,-32.4709"/>
<polygon fill="#191970" stroke="#191970" points="316.7302,-30.0228 307.3738,-25.052 311.5882,-34.7726 316.7302,-30.0228"/>
</g>
<!-- Node24&#45;&gt;Node22 -->
<g id="edge29" class="edge">
<title>Node24&#45;&gt;Node22</title>
<path fill="none" stroke="#191970" d="M598.1251,-134.4961C627.4349,-124.8218 665.7443,-111.5531 699,-98 700.3921,-97.4327 701.81,-96.8372 703.2368,-96.2236"/>
<polygon fill="#191970" stroke="#191970" points="704.9146,-99.3071 712.6056,-92.0202 702.0491,-92.9204 704.9146,-99.3071"/>
</g>
<!-- Node25 -->
<g id="node26" class="node">
<title>Node25</title>
<g id="a_node26"><a xlink:href="cond_8h.html" target="_top" xlink:title="drake/common/cond.h">
<polygon fill="#ffffff" stroke="#000000" points="565.5,-73 565.5,-92 690.5,-92 690.5,-73 565.5,-73"/>
<text text-anchor="middle" x="628" y="-80" font-family="Helvetica,sans-Serif" font-size="10.00" fill="#000000">drake/common/cond.h</text>
</a>
</g>
</g>
<!-- Node24&#45;&gt;Node25 -->
<g id="edge31" class="edge">
<title>Node24&#45;&gt;Node25</title>
<path fill="none" stroke="#191970" d="M568.4725,-134.2967C580.7024,-123.6551 597.0159,-109.4602 609.4721,-98.6217"/>
<polygon fill="#191970" stroke="#191970" points="611.7724,-101.2596 617.0189,-92.055 607.1775,-95.9788 611.7724,-101.2596"/>
</g>
<!-- Node27 -->
<g id="node28" class="node">
<title>Node27</title>
<g id="a_node28"><a xlink:href="drake__assert_8h.html" target="_top" xlink:title="Provides Drake&#39;s assertion implementation. ">
<polygon fill="#ffffff" stroke="#000000" points="773.5,-67.5 773.5,-97.5 894.5,-97.5 894.5,-67.5 773.5,-67.5"/>
<text text-anchor="start" x="781.5" y="-85.5" font-family="Helvetica,sans-Serif" font-size="10.00" fill="#000000">drake/common/drake</text>
<text text-anchor="middle" x="834" y="-74.5" font-family="Helvetica,sans-Serif" font-size="10.00" fill="#000000">_assert.h</text>
</a>
</g>
</g>
<!-- Node24&#45;&gt;Node27 -->
<g id="edge35" class="edge">
<title>Node24&#45;&gt;Node27</title>
<path fill="none" stroke="#191970" d="M614.5107,-134.4639C658.6916,-124.0041 717.6242,-110.0519 763.2988,-99.2384"/>
<polygon fill="#191970" stroke="#191970" points="764.2032,-102.6212 773.1278,-96.9114 762.5905,-95.8095 764.2032,-102.6212"/>
</g>
<!-- Node28 -->
<g id="node29" class="node">
<title>Node28</title>
<g id="a_node29"><a xlink:href="dummy__value_8h.html" target="_top" xlink:title="drake/common/dummy\l_value.h">
<polygon fill="#ffffff" stroke="#000000" points="402.5,-67.5 402.5,-97.5 533.5,-97.5 533.5,-67.5 402.5,-67.5"/>
<text text-anchor="start" x="410.5" y="-85.5" font-family="Helvetica,sans-Serif" font-size="10.00" fill="#000000">drake/common/dummy</text>
<text text-anchor="middle" x="468" y="-74.5" font-family="Helvetica,sans-Serif" font-size="10.00" fill="#000000">_value.h</text>
</a>
</g>
</g>
<!-- Node24&#45;&gt;Node28 -->
<g id="edge37" class="edge">
<title>Node24&#45;&gt;Node28</title>
<path fill="none" stroke="#191970" d="M532.166,-134.2967C521.1295,-125.3876 507.0078,-113.9882 494.8235,-104.1527"/>
<polygon fill="#191970" stroke="#191970" points="496.7391,-101.201 486.7595,-97.6432 492.3422,-106.6478 496.7391,-101.201"/>
</g>
<!-- Node25&#45;&gt;Node4 -->
<g id="edge32" class="edge">
<title>Node25&#45;&gt;Node4</title>
<path fill="none" stroke="#191970" d="M670.3721,-72.9871C679.7838,-70.9474 689.7202,-68.8507 699,-67 784.8773,-49.8728 885.8131,-32.2138 941.5722,-22.6735"/>
<polygon fill="#191970" stroke="#191970" points="942.1755,-26.1212 951.444,-20.9885 940.9977,-19.221 942.1755,-26.1212"/>
</g>
<!-- Node25&#45;&gt;Node16 -->
<g id="edge33" class="edge">
<title>Node25&#45;&gt;Node16</title>
<path fill="none" stroke="#191970" d="M657.5148,-72.9005C693.6159,-61.1589 754.8482,-41.2436 794.8544,-28.2318"/>
<polygon fill="#191970" stroke="#191970" points="796.1129,-31.5031 804.54,-25.0817 793.9478,-24.8463 796.1129,-31.5031"/>
</g>
<!-- Node26 -->
<g id="node27" class="node">
<title>Node26</title>
<g id="a_node27"><a xlink:href="double__overloads_8h.html" target="_top" xlink:title="Provides necessary operations on double to have it as a ScalarType in drake. ">
<polygon fill="#ffffff" stroke="#000000" points="565,-.5 565,-30.5 691,-30.5 691,-.5 565,-.5"/>
<text text-anchor="start" x="573" y="-18.5" font-family="Helvetica,sans-Serif" font-size="10.00" fill="#000000">drake/common/double</text>
<text text-anchor="middle" x="628" y="-7.5" font-family="Helvetica,sans-Serif" font-size="10.00" fill="#000000">_overloads.h</text>
</a>
</g>
</g>
<!-- Node25&#45;&gt;Node26 -->
<g id="edge34" class="edge">
<title>Node25&#45;&gt;Node26</title>
<path fill="none" stroke="#191970" d="M628,-72.9005C628,-64.5099 628,-51.9451 628,-40.7085"/>
<polygon fill="#191970" stroke="#191970" points="631.5001,-40.5217 628,-30.5218 624.5001,-40.5218 631.5001,-40.5217"/>
</g>
<!-- Node27&#45;&gt;Node16 -->
<g id="edge36" class="edge">
<title>Node27&#45;&gt;Node16</title>
<path fill="none" stroke="#191970" d="M834,-67.2967C834,-57.7699 834,-45.3954 834,-35.1306"/>
<polygon fill="#191970" stroke="#191970" points="837.5001,-35.0549 834,-25.055 830.5001,-35.055 837.5001,-35.0549"/>
</g>
<!-- Node28&#45;&gt;Node6 -->
<g id="edge38" class="edge">
<title>Node28&#45;&gt;Node6</title>
<path fill="none" stroke="#191970" d="M430.0731,-67.4639C400.1265,-55.5916 358.8307,-39.2199 330.6449,-28.0456"/>
<polygon fill="#191970" stroke="#191970" points="331.8482,-24.7577 321.2621,-24.3258 329.2683,-31.265 331.8482,-24.7577"/>
</g>
<!-- Node29&#45;&gt;Node20 -->
<g id="edge42" class="edge">
<title>Node29&#45;&gt;Node20</title>
<path fill="none" stroke="#191970" d="M1511.3038,-257.448C1512.4386,-221.7725 1516.4523,-95.5945 1518.1891,-40.9932"/>
<polygon fill="#191970" stroke="#191970" points="1521.6941,-40.8866 1518.5139,-30.7804 1514.6977,-40.664 1521.6941,-40.8866"/>
</g>
<!-- Node30&#45;&gt;Node11 -->
<g id="edge47" class="edge">
<title>Node30&#45;&gt;Node11</title>
<path fill="none" stroke="#191970" d="M772.0398,-257.4369C732.1608,-247.8932 670.7861,-233.2052 627.7672,-222.9101"/>
<polygon fill="#191970" stroke="#191970" points="628.3354,-219.4473 617.7953,-220.5237 626.7061,-226.2551 628.3354,-219.4473"/>
</g>
<!-- Node30&#45;&gt;Node17 -->
<g id="edge46" class="edge">
<title>Node30&#45;&gt;Node17</title>
<path fill="none" stroke="#191970" d="M873.78,-260.9576C938.1498,-251.4186 1037.722,-227.0193 1097,-165 1131.5918,-128.8085 1140.2174,-67.21 1142.336,-35.5681"/>
<polygon fill="#191970" stroke="#191970" points="1145.8422,-35.5343 1142.8582,-25.3684 1138.8514,-35.1764 1145.8422,-35.5343"/>
</g>
<!-- Node30&#45;&gt;Node22 -->
<g id="edge44" class="edge">
<title>Node30&#45;&gt;Node22</title>
<path fill="none" stroke="#191970" d="M797.4445,-257.4349C786.0324,-249.1557 770.6768,-236.1481 762,-221 740.1824,-182.9103 734.2042,-130.6395 732.5845,-102.4559"/>
<polygon fill="#191970" stroke="#191970" points="736.0728,-102.1136 732.1332,-92.2785 729.0797,-102.4238 736.0728,-102.1136"/>
</g>
<!-- Node31 -->
<g id="node32" class="node">
<title>Node31</title>
<polygon fill="#ffffff" stroke="#bfbfbf" points="666.5,-201.5 666.5,-220.5 707.5,-220.5 707.5,-201.5 666.5,-201.5"/>
<text text-anchor="middle" x="687" y="-208.5" font-family="Helvetica,sans-Serif" font-size="10.00" fill="#000000">tuple</text>
</g>
<!-- Node30&#45;&gt;Node31 -->
<g id="edge45" class="edge">
<title>Node30&#45;&gt;Node31</title>
<path fill="none" stroke="#191970" d="M790.5117,-257.3733C770.2338,-248.2888 739.6438,-234.5844 716.9714,-224.4272"/>
<polygon fill="#191970" stroke="#191970" points="718.3495,-221.2094 707.7925,-220.315 715.4876,-227.5977 718.3495,-221.2094"/>
</g>
<!-- Node32 -->
<g id="node33" class="node">
<title>Node32</title>
<g id="a_node33"><a xlink:href="unused_8h.html" target="_top" xlink:title="drake/common/unused.h">
<polygon fill="#ffffff" stroke="#000000" points="771.5,-201.5 771.5,-220.5 908.5,-220.5 908.5,-201.5 771.5,-201.5"/>
<text text-anchor="middle" x="840" y="-208.5" font-family="Helvetica,sans-Serif" font-size="10.00" fill="#000000">drake/common/unused.h</text>
</a>
</g>
</g>
<!-- Node30&#45;&gt;Node32 -->
<g id="edge48" class="edge">
<title>Node30&#45;&gt;Node32</title>
<path fill="none" stroke="#191970" d="M816.8772,-257.2455C820.6513,-249.6973 825.9921,-239.0158 830.5901,-229.8197"/>
<polygon fill="#191970" stroke="#191970" points="833.837,-231.1522 835.1787,-220.6427 827.576,-228.0217 833.837,-231.1522"/>
</g>
<!-- Node33&#45;&gt;Node2 -->
<g id="edge50" class="edge">
<title>Node33&#45;&gt;Node2</title>
<path fill="none" stroke="#191970" d="M882.8189,-313.8474C839.546,-302.7587 781.0953,-287.7807 742.0513,-277.7756"/>
<polygon fill="#191970" stroke="#191970" points="742.6296,-274.3108 732.0738,-275.2189 740.892,-281.0917 742.6296,-274.3108"/>
</g>
<!-- Node33&#45;&gt;Node17 -->
<g id="edge51" class="edge">
<title>Node33&#45;&gt;Node17</title>
<path fill="none" stroke="#191970" d="M964.426,-313.4065C1003.7315,-287.8284 1080.7716,-232.1433 1122,-165 1147.0516,-124.2018 1147.0446,-65.5107 1144.9848,-35.2324"/>
<polygon fill="#191970" stroke="#191970" points="1148.4603,-34.7909 1144.1428,-25.1157 1141.4844,-35.3716 1148.4603,-34.7909"/>
</g>
<!-- Node33&#45;&gt;Node27 -->
<g id="edge52" class="edge">
<title>Node33&#45;&gt;Node27</title>
<path fill="none" stroke="#191970" d="M942.8166,-313.3908C948.4477,-278.6232 957.6192,-191.5296 921,-134 912.4181,-120.5176 898.9347,-110.1108 885.1222,-102.2975"/>
<polygon fill="#191970" stroke="#191970" points="886.5269,-99.0819 876.0461,-97.5312 883.2723,-105.2793 886.5269,-99.0819"/>
</g>
<!-- Node33&#45;&gt;Node30 -->
<g id="edge54" class="edge">
<title>Node33&#45;&gt;Node30</title>
<path fill="none" stroke="#191970" d="M908.6877,-313.4554C887.9862,-303.509 861.0477,-290.5659 840.8647,-280.8686"/>
<polygon fill="#191970" stroke="#191970" points="842.3648,-277.7064 831.8355,-276.5303 839.3333,-284.0159 842.3648,-277.7064"/>
</g>
<!-- Node33&#45;&gt;Node32 -->
<g id="edge53" class="edge">
<title>Node33&#45;&gt;Node32</title>
<path fill="none" stroke="#191970" d="M928.0321,-313.2242C916.4771,-298.6017 898.3717,-276.0185 882,-257 873.6594,-247.3111 864.0655,-236.7611 856.1544,-228.2115"/>
<polygon fill="#191970" stroke="#191970" points="858.5567,-225.6553 849.1811,-220.7208 853.4331,-230.425 858.5567,-225.6553"/>
</g>
<!-- Node33&#45;&gt;Node34 -->
<g id="edge55" class="edge">
<title>Node33&#45;&gt;Node34</title>
<path fill="none" stroke="#191970" d="M997.2947,-316.3496C1048.9816,-305.3884 1124.4846,-289.3766 1175.3411,-278.5915"/>
<polygon fill="#191970" stroke="#191970" points="1176.1131,-282.0057 1185.1694,-276.5072 1174.6609,-275.1579 1176.1131,-282.0057"/>
</g>
<!-- Node34&#45;&gt;Node17 -->
<g id="edge56" class="edge">
<title>Node34&#45;&gt;Node17</title>
<path fill="none" stroke="#191970" d="M1231.2324,-257.493C1234.6657,-227.3859 1241.8729,-132.282 1206,-67 1197.7084,-51.9109 1183.0329,-39.5165 1169.9312,-30.671"/>
<polygon fill="#191970" stroke="#191970" points="1171.5264,-27.5377 1161.21,-25.1247 1167.7699,-33.4445 1171.5264,-27.5377"/>
</g>
</g>
</svg>
        <g id="navigator" transform="translate(0 0)" fill="#404254">
                <rect fill="#f2f5e9" fill-opacity="0.5" stroke="#606060" stroke-width=".5" x="0" y="0" width="60" height="60"/>
                <use id="zoomplus" xlink:href="#zoomPlus" x="17" y="9" onmousedown="handleZoom(evt,'in')"/>
                <use id="zoomminus" xlink:href="#zoomMin" x="42" y="9" onmousedown="handleZoom(evt,'out')"/>
                <use id="reset" xlink:href="#resetDef" x="30" y="36" onmousedown="handleReset()"/>
                <g id="arrowUp" xlink:href="#dirArrow" transform="translate(30 24)" onmousedown="handlePan(0,-1)">
                  <use xlink:href="#rim" fill="#404040">
                        <set attributeName="fill" to="#808080" begin="arrowUp.mouseover" end="arrowUp.mouseout"/>
                  </use>
                  <path fill="none" stroke="white" stroke-width="1.5" d="M0,-3.0v7 M-2.5,-0.5L0,-3.0L2.5,-0.5"/>
                </g>
                <g id="arrowRight" xlink:href="#dirArrow" transform="rotate(90) translate(36 -43)" onmousedown="handlePan(1,0)">
                  <use xlink:href="#rim" fill="#404040">
                        <set attributeName="fill" to="#808080" begin="arrowRight.mouseover" end="arrowRight.mouseout"/>
                  </use>
                  <path fill="none" stroke="white" stroke-width="1.5" d="M0,-3.0v7 M-2.5,-0.5L0,-3.0L2.5,-0.5"/>
                </g>
                <g id="arrowDown" xlink:href="#dirArrow" transform="rotate(180) translate(-30 -48)" onmousedown="handlePan(0,1)">
                  <use xlink:href="#rim" fill="#404040">
                        <set attributeName="fill" to="#808080" begin="arrowDown.mouseover" end="arrowDown.mouseout"/>
                  </use>
                  <path fill="none" stroke="white" stroke-width="1.5" d="M0,-3.0v7 M-2.5,-0.5L0,-3.0L2.5,-0.5"/>
                </g>
                <g id="arrowLeft" xlink:href="#dirArrow" transform="rotate(270) translate(-36 17)" onmousedown="handlePan(-1,0)">
                  <use xlink:href="#rim" fill="#404040">
                        <set attributeName="fill" to="#808080" begin="arrowLeft.mouseover" end="arrowLeft.mouseout"/>
                  </use>
                  <path fill="none" stroke="white" stroke-width="1.5" d="M0,-3.0v7 M-2.5,-0.5L0,-3.0L2.5,-0.5"/>
                </g>
        </g>
        <svg viewBox="0 0 15 15" width="100%" height="30px" preserveAspectRatio="xMaxYMin meet">
         <g id="arrow_out" transform="scale(0.3 0.3)">
          <a xlink:href="rigid__body__tree_8cc__incl_org.svg" target="_base">
           <rect id="button" ry="5" rx="5" y="6" x="6" height="38" width="38"
                fill="#f2f5e9" fill-opacity="0.5" stroke="#606060" stroke-width="1.0"/>
           <path id="arrow"
             d="M 11.500037,31.436501 C 11.940474,20.09759 22.043105,11.32322 32.158766,21.979434 L 37.068811,17.246167 C 37.068811,17.246167 37.088388,32 37.088388,32 L 22.160133,31.978069 C 22.160133,31.978069 26.997745,27.140456 26.997745,27.140456 C 18.528582,18.264221 13.291696,25.230495 11.500037,31.436501 z"
             style="fill:#404040;"/>
          </a>
         </g>
        </svg>
</svg>
