<?xml version="1.0" encoding="UTF-8" standalone="no"?>
<!DOCTYPE svg PUBLIC "-//W3C//DTD SVG 1.1//EN"
 "http://www.w3.org/Graphics/SVG/1.1/DTD/svg11.dtd">
<!-- Generated by graphviz version 2.40.1 (20161225.0304)
 -->
<!-- Title: drake/bindings/pydrake/multibody/rigid_body_tree_py.cc Pages: 1 -->
<!--zoomable 385 -->
<svg id="main" version="1.1" xmlns="http://www.w3.org/2000/svg" xmlns:xlink="http://www.w3.org/1999/xlink" xml:space="preserve" onload="init(evt)">
<style type="text/css"><![CDATA[
.edge:hover path { stroke: red; }
.edge:hover polygon { stroke: red; fill: red; }
]]></style>
<script type="text/javascript"><![CDATA[
var edges = document.getElementsByTagName('g');
if (edges && edges.length) {
  for (var i=0;i<edges.length;i++) {
    if (edges[i].id.substr(0,4)=='edge') {
      edges[i].setAttribute('class','edge');
    }
  }
}
]]></script>
        <defs>
                <circle id="rim" cx="0" cy="0" r="7"/>
                <circle id="rim2" cx="0" cy="0" r="3.5"/>
                <g id="zoomPlus">
                        <use xlink:href="#rim" fill="#404040">
                                <set attributeName="fill" to="#808080" begin="zoomplus.mouseover" end="zoomplus.mouseout"/>
                        </use>
                        <path d="M-4,0h8M0,-4v8" fill="none" stroke="white" stroke-width="1.5" pointer-events="none"/>
                </g>
                <g id="zoomMin">
                        <use xlink:href="#rim" fill="#404040">
                                <set attributeName="fill" to="#808080" begin="zoomminus.mouseover" end="zoomminus.mouseout"/>
                        </use>
                        <path d="M-4,0h8" fill="none" stroke="white" stroke-width="1.5" pointer-events="none"/>
                </g>
                <g id="dirArrow">
                        <path fill="none" stroke="white" stroke-width="1.5" d="M0,-3.0v7 M-2.5,-0.5L0,-3.0L2.5,-0.5"/>
                </g>
               <g id="resetDef">
                       <use xlink:href="#rim2" fill="#404040">
                               <set attributeName="fill" to="#808080" begin="reset.mouseover" end="reset.mouseout"/>
                       </use>
               </g>
        </defs>

<script type="text/javascript">
var viewWidth = 2264;
var viewHeight = 385;
var sectionId = 'dynsection-0';
</script>
<script xlink:href="svgpan.js"/>
<svg id="graph" class="graph">
<g id="viewport">
<title>drake/bindings/pydrake/multibody/rigid_body_tree_py.cc</title>
<polygon fill="#ffffff" stroke="transparent" points="-4,4 -4,-381 2259.5,-381 2259.5,4 -4,4"/>
<!-- Node0 -->
<g id="node1" class="node">
<title>Node0</title>
<polygon fill="#bfbfbf" stroke="#000000" points="928.5,-335.5 928.5,-376.5 1059.5,-376.5 1059.5,-335.5 928.5,-335.5"/>
<text text-anchor="start" x="936.5" y="-364.5" font-family="Helvetica,sans-Serif" font-size="10.00" fill="#000000">drake/bindings/pydrake</text>
<text text-anchor="start" x="936.5" y="-353.5" font-family="Helvetica,sans-Serif" font-size="10.00" fill="#000000">/multibody/rigid_body</text>
<text text-anchor="middle" x="994" y="-342.5" font-family="Helvetica,sans-Serif" font-size="10.00" fill="#000000">_tree_py.cc</text>
</g>
<!-- Node1 -->
<g id="node2" class="node">
<title>Node1</title>
<polygon fill="#ffffff" stroke="#bfbfbf" points="153,-274 153,-293 213,-293 213,-274 153,-274"/>
<text text-anchor="middle" x="183" y="-281" font-family="Helvetica,sans-Serif" font-size="10.00" fill="#000000">iostream</text>
</g>
<!-- Node0&#45;&gt;Node1 -->
<g id="edge1" class="edge">
<title>Node0&#45;&gt;Node1</title>
<path fill="none" stroke="#191970" d="M928.418,-353.3556C768.2079,-346.5369 360.3056,-326.9171 227,-299 223.3783,-298.2415 219.6479,-297.2601 215.963,-296.1595"/>
<polygon fill="#191970" stroke="#191970" points="217.0133,-292.8206 206.4207,-293.0388 214.8374,-299.4739 217.0133,-292.8206"/>
</g>
<!-- Node2 -->
<g id="node3" class="node">
<title>Node2</title>
<polygon fill="#ffffff" stroke="#bfbfbf" points="1160,-6 1160,-25 1218,-25 1218,-6 1160,-6"/>
<text text-anchor="middle" x="1189" y="-13" font-family="Helvetica,sans-Serif" font-size="10.00" fill="#000000">memory</text>
</g>
<!-- Node0&#45;&gt;Node2 -->
<g id="edge2" class="edge">
<title>Node0&#45;&gt;Node2</title>
<path fill="none" stroke="#191970" d="M928.3775,-348.945C866.9063,-340.8229 781.5047,-325.1256 761,-299 752.4936,-288.1617 753.3346,-279.4486 761,-268 827.8584,-168.1439 908.2191,-227.2686 1011,-165 1076.5873,-125.2647 1142.8785,-62.1497 1172.693,-32.2552"/>
<polygon fill="#191970" stroke="#191970" points="1175.2466,-34.6505 1179.7854,-25.0772 1170.2672,-29.7306 1175.2466,-34.6505"/>
</g>
<!-- Node3 -->
<g id="node4" class="node">
<title>Node3</title>
<polygon fill="#ffffff" stroke="#bfbfbf" points="653.5,-207 653.5,-226 754.5,-226 754.5,-207 653.5,-207"/>
<text text-anchor="middle" x="704" y="-214" font-family="Helvetica,sans-Serif" font-size="10.00" fill="#000000">pybind11/eigen.h</text>
</g>
<!-- Node0&#45;&gt;Node3 -->
<g id="edge3" class="edge">
<title>Node0&#45;&gt;Node3</title>
<path fill="none" stroke="#191970" d="M928.1889,-349.6111C859.0917,-341.5972 756.5687,-325.5823 728,-299 710.6454,-282.852 705.5887,-254.9604 704.2493,-236.1281"/>
<polygon fill="#191970" stroke="#191970" points="707.7405,-235.845 703.8219,-226.0015 700.7468,-236.1402 707.7405,-235.845"/>
</g>
<!-- Node4 -->
<g id="node5" class="node">
<title>Node4</title>
<polygon fill="#ffffff" stroke="#bfbfbf" points="129.5,-140 129.5,-159 248.5,-159 248.5,-140 129.5,-140"/>
<text text-anchor="middle" x="189" y="-147" font-family="Helvetica,sans-Serif" font-size="10.00" fill="#000000">pybind11/pybind11.h</text>
</g>
<!-- Node0&#45;&gt;Node4 -->
<g id="edge4" class="edge">
<title>Node0&#45;&gt;Node4</title>
<path fill="none" stroke="#191970" d="M928.4843,-353.9726C789.3569,-349.0327 468.7542,-334.1085 366,-299 313.6155,-281.1016 302.9594,-268.1096 261,-232 238.0544,-212.2533 215.7957,-185.1511 202.2478,-167.4848"/>
<polygon fill="#191970" stroke="#191970" points="204.8139,-165.0744 195.9997,-159.1956 199.224,-169.2879 204.8139,-165.0744"/>
</g>
<!-- Node5 -->
<g id="node6" class="node">
<title>Node5</title>
<polygon fill="#ffffff" stroke="#bfbfbf" points="590,-274 590,-293 676,-293 676,-274 590,-274"/>
<text text-anchor="middle" x="633" y="-281" font-family="Helvetica,sans-Serif" font-size="10.00" fill="#000000">pybind11/stl.h</text>
</g>
<!-- Node0&#45;&gt;Node5 -->
<g id="edge5" class="edge">
<title>Node0&#45;&gt;Node5</title>
<path fill="none" stroke="#191970" d="M928.4552,-345.2737C866.6747,-334.7945 771.6486,-317.7242 690,-299 685.5503,-297.9796 680.9247,-296.8454 676.3187,-295.6678"/>
<polygon fill="#191970" stroke="#191970" points="676.904,-292.2029 666.3429,-293.0479 675.1259,-298.9733 676.904,-292.2029"/>
</g>
<!-- Node6 -->
<g id="node7" class="node">
<title>Node6</title>
<g id="a_node7"><a xlink:href="autodiff__types__pybind_8h.html" target="_top" xlink:title="drake/bindings/pydrake\l/autodiff_types_pybind.h">
<polygon fill="#ffffff" stroke="#000000" points="416.5,-268.5 416.5,-298.5 553.5,-298.5 553.5,-268.5 416.5,-268.5"/>
<text text-anchor="start" x="424.5" y="-286.5" font-family="Helvetica,sans-Serif" font-size="10.00" fill="#000000">drake/bindings/pydrake</text>
<text text-anchor="middle" x="485" y="-275.5" font-family="Helvetica,sans-Serif" font-size="10.00" fill="#000000">/autodiff_types_pybind.h</text>
</a>
</g>
</g>
<!-- Node0&#45;&gt;Node6 -->
<g id="edge6" class="edge">
<title>Node0&#45;&gt;Node6</title>
<path fill="none" stroke="#191970" d="M928.4839,-347.4295C846.978,-336.6586 703.5863,-317.3532 581,-299 575.331,-298.1513 569.4771,-297.255 563.5871,-296.3388"/>
<polygon fill="#191970" stroke="#191970" points="564.0882,-292.8747 553.6666,-294.7828 563.0035,-299.7901 564.0882,-292.8747"/>
</g>
<!-- Node8 -->
<g id="node9" class="node">
<title>Node8</title>
<g id="a_node9"><a xlink:href="pydrake__pybind_8h.html" target="_top" xlink:title="drake/bindings/pydrake\l/pydrake_pybind.h">
<polygon fill="#ffffff" stroke="#000000" points="269.5,-201.5 269.5,-231.5 400.5,-231.5 400.5,-201.5 269.5,-201.5"/>
<text text-anchor="start" x="277.5" y="-219.5" font-family="Helvetica,sans-Serif" font-size="10.00" fill="#000000">drake/bindings/pydrake</text>
<text text-anchor="middle" x="335" y="-208.5" font-family="Helvetica,sans-Serif" font-size="10.00" fill="#000000">/pydrake_pybind.h</text>
</a>
</g>
</g>
<!-- Node0&#45;&gt;Node8 -->
<g id="edge41" class="edge">
<title>Node0&#45;&gt;Node8</title>
<path fill="none" stroke="#191970" d="M928.412,-352.3287C785.1692,-343.923 453.4987,-322.2086 408,-299 382.4092,-285.9463 361.7167,-259.8075 348.9848,-240.4336"/>
<polygon fill="#191970" stroke="#191970" points="351.8437,-238.4056 343.5469,-231.8167 345.9239,-242.1414 351.8437,-238.4056"/>
</g>
<!-- Node28 -->
<g id="node29" class="node">
<title>Node28</title>
<polygon fill="#ffffff" stroke="#bfbfbf" points="770,-268.5 770,-298.5 910,-298.5 910,-268.5 770,-268.5"/>
<text text-anchor="start" x="778" y="-286.5" font-family="Helvetica,sans-Serif" font-size="10.00" fill="#000000">drake/bindings/pydrake</text>
<text text-anchor="middle" x="840" y="-275.5" font-family="Helvetica,sans-Serif" font-size="10.00" fill="#000000">/documentation_pybind.h</text>
</g>
<!-- Node0&#45;&gt;Node28 -->
<g id="edge40" class="edge">
<title>Node0&#45;&gt;Node28</title>
<path fill="none" stroke="#191970" d="M950.2817,-335.4183C928.5926,-325.2075 902.5409,-312.943 881.2052,-302.8986"/>
<polygon fill="#191970" stroke="#191970" points="882.6109,-299.6919 872.0726,-298.5991 879.6293,-306.0252 882.6109,-299.6919"/>
</g>
<!-- Node29 -->
<g id="node30" class="node">
<title>Node29</title>
<polygon fill="#ffffff" stroke="#bfbfbf" points="928.5,-268.5 928.5,-298.5 1059.5,-298.5 1059.5,-268.5 928.5,-268.5"/>
<text text-anchor="start" x="936.5" y="-286.5" font-family="Helvetica,sans-Serif" font-size="10.00" fill="#000000">drake/bindings/pydrake</text>
<text text-anchor="middle" x="994" y="-275.5" font-family="Helvetica,sans-Serif" font-size="10.00" fill="#000000">/util/type_pack.h</text>
</g>
<!-- Node0&#45;&gt;Node29 -->
<g id="edge42" class="edge">
<title>Node0&#45;&gt;Node29</title>
<path fill="none" stroke="#191970" d="M994,-335.4183C994,-327.0849 994,-317.3834 994,-308.6373"/>
<polygon fill="#191970" stroke="#191970" points="997.5001,-308.5991 994,-298.5991 990.5001,-308.5991 997.5001,-308.5991"/>
</g>
<!-- Node30 -->
<g id="node31" class="node">
<title>Node30</title>
<polygon fill="#ffffff" stroke="#bfbfbf" points="1077.5,-268.5 1077.5,-298.5 1204.5,-298.5 1204.5,-268.5 1077.5,-268.5"/>
<text text-anchor="start" x="1085.5" y="-286.5" font-family="Helvetica,sans-Serif" font-size="10.00" fill="#000000">drake/multibody/joints</text>
<text text-anchor="middle" x="1141" y="-275.5" font-family="Helvetica,sans-Serif" font-size="10.00" fill="#000000">/prismatic_joint.h</text>
</g>
<!-- Node0&#45;&gt;Node30 -->
<g id="edge43" class="edge">
<title>Node0&#45;&gt;Node30</title>
<path fill="none" stroke="#191970" d="M1035.7311,-335.4183C1056.3415,-325.2533 1081.0789,-313.0529 1101.3935,-303.0338"/>
<polygon fill="#191970" stroke="#191970" points="1102.9649,-306.1614 1110.3853,-298.5991 1099.8685,-299.8834 1102.9649,-306.1614"/>
</g>
<!-- Node31 -->
<g id="node32" class="node">
<title>Node31</title>
<polygon fill="#ffffff" stroke="#bfbfbf" points="1222.5,-268.5 1222.5,-298.5 1349.5,-298.5 1349.5,-268.5 1222.5,-268.5"/>
<text text-anchor="start" x="1230.5" y="-286.5" font-family="Helvetica,sans-Serif" font-size="10.00" fill="#000000">drake/multibody/joints</text>
<text text-anchor="middle" x="1286" y="-275.5" font-family="Helvetica,sans-Serif" font-size="10.00" fill="#000000">/revolute_joint.h</text>
</g>
<!-- Node0&#45;&gt;Node31 -->
<g id="edge44" class="edge">
<title>Node0&#45;&gt;Node31</title>
<path fill="none" stroke="#191970" d="M1059.5305,-339.7296C1105.8399,-328.2315 1167.8571,-312.8334 1215.2838,-301.058"/>
<polygon fill="#191970" stroke="#191970" points="1216.3099,-304.4095 1225.1718,-298.6029 1214.623,-297.6158 1216.3099,-304.4095"/>
</g>
<!-- Node32 -->
<g id="node33" class="node">
<title>Node32</title>
<polygon fill="#ffffff" stroke="#bfbfbf" points="1368,-268.5 1368,-298.5 1504,-298.5 1504,-268.5 1368,-268.5"/>
<text text-anchor="start" x="1376" y="-286.5" font-family="Helvetica,sans-Serif" font-size="10.00" fill="#000000">drake/multibody/parsers</text>
<text text-anchor="middle" x="1436" y="-275.5" font-family="Helvetica,sans-Serif" font-size="10.00" fill="#000000">/package_map.h</text>
</g>
<!-- Node0&#45;&gt;Node32 -->
<g id="edge45" class="edge">
<title>Node0&#45;&gt;Node32</title>
<path fill="none" stroke="#191970" d="M1059.7504,-346.6163C1130.7968,-336.2772 1247.5761,-318.7057 1357.6492,-299.2022"/>
<polygon fill="#191970" stroke="#191970" points="1358.3642,-302.63 1367.5958,-297.4311 1357.1371,-295.7384 1358.3642,-302.63"/>
</g>
<!-- Node33 -->
<g id="node34" class="node">
<title>Node33</title>
<polygon fill="#ffffff" stroke="#bfbfbf" points="1522,-268.5 1522,-298.5 1658,-298.5 1658,-268.5 1522,-268.5"/>
<text text-anchor="start" x="1530" y="-286.5" font-family="Helvetica,sans-Serif" font-size="10.00" fill="#000000">drake/multibody/parsers</text>
<text text-anchor="middle" x="1590" y="-275.5" font-family="Helvetica,sans-Serif" font-size="10.00" fill="#000000">/sdf_parser.h</text>
</g>
<!-- Node0&#45;&gt;Node33 -->
<g id="edge46" class="edge">
<title>Node0&#45;&gt;Node33</title>
<path fill="none" stroke="#191970" d="M1059.7907,-350.6705C1156.63,-342.4063 1343.3964,-324.8718 1511.5942,-299.1411"/>
<polygon fill="#191970" stroke="#191970" points="1512.2736,-302.5778 1521.6229,-297.5937 1511.2061,-295.6596 1512.2736,-302.5778"/>
</g>
<!-- Node34 -->
<g id="node35" class="node">
<title>Node34</title>
<polygon fill="#ffffff" stroke="#bfbfbf" points="1676,-268.5 1676,-298.5 1812,-298.5 1812,-268.5 1676,-268.5"/>
<text text-anchor="start" x="1684" y="-286.5" font-family="Helvetica,sans-Serif" font-size="10.00" fill="#000000">drake/multibody/parsers</text>
<text text-anchor="middle" x="1744" y="-275.5" font-family="Helvetica,sans-Serif" font-size="10.00" fill="#000000">/urdf_parser.h</text>
</g>
<!-- Node0&#45;&gt;Node34 -->
<g id="edge47" class="edge">
<title>Node0&#45;&gt;Node34</title>
<path fill="none" stroke="#191970" d="M1059.7207,-352.9294C1178.7028,-346.8249 1437.8314,-331.0309 1665.5037,-299.1168"/>
<polygon fill="#191970" stroke="#191970" points="1666.2254,-302.5497 1675.6362,-297.6828 1665.2444,-295.6187 1666.2254,-302.5497"/>
</g>
<!-- Node35 -->
<g id="node36" class="node">
<title>Node35</title>
<polygon fill="#ffffff" stroke="#bfbfbf" points="1830,-268.5 1830,-298.5 1952,-298.5 1952,-268.5 1830,-268.5"/>
<text text-anchor="start" x="1838" y="-286.5" font-family="Helvetica,sans-Serif" font-size="10.00" fill="#000000">drake/multibody/rigid</text>
<text text-anchor="middle" x="1891" y="-275.5" font-family="Helvetica,sans-Serif" font-size="10.00" fill="#000000">_body_actuator.h</text>
</g>
<!-- Node0&#45;&gt;Node35 -->
<g id="edge48" class="edge">
<title>Node0&#45;&gt;Node35</title>
<path fill="none" stroke="#191970" d="M1059.7481,-354.7927C1198.5613,-351.5244 1531.7508,-339.8869 1819.4214,-299.0941"/>
<polygon fill="#191970" stroke="#191970" points="1820.2327,-302.5137 1829.6352,-297.6307 1819.2398,-295.5845 1820.2327,-302.5137"/>
</g>
<!-- Node36 -->
<g id="node37" class="node">
<title>Node36</title>
<polygon fill="#ffffff" stroke="#bfbfbf" points="1970,-268.5 1970,-298.5 2092,-298.5 2092,-268.5 1970,-268.5"/>
<text text-anchor="start" x="1978" y="-286.5" font-family="Helvetica,sans-Serif" font-size="10.00" fill="#000000">drake/multibody/rigid</text>
<text text-anchor="middle" x="2031" y="-275.5" font-family="Helvetica,sans-Serif" font-size="10.00" fill="#000000">_body_tree.h</text>
</g>
<!-- Node0&#45;&gt;Node36 -->
<g id="edge49" class="edge">
<title>Node0&#45;&gt;Node36</title>
<path fill="none" stroke="#191970" d="M1059.5052,-353.4998C1244.1375,-346.2403 1767.2773,-324.1552 1959.6362,-299.0178"/>
<polygon fill="#191970" stroke="#191970" points="1960.1991,-302.4737 1969.6401,-297.6657 1959.2614,-295.5368 1960.1991,-302.4737"/>
</g>
<!-- Node37 -->
<g id="node38" class="node">
<title>Node37</title>
<polygon fill="#ffffff" stroke="#bfbfbf" points="2110.5,-268.5 2110.5,-298.5 2255.5,-298.5 2255.5,-268.5 2110.5,-268.5"/>
<text text-anchor="start" x="2118.5" y="-286.5" font-family="Helvetica,sans-Serif" font-size="10.00" fill="#000000">drake/multibody/rigid</text>
<text text-anchor="middle" x="2183" y="-275.5" font-family="Helvetica,sans-Serif" font-size="10.00" fill="#000000">_body_tree_construction.h</text>
</g>
<!-- Node0&#45;&gt;Node37 -->
<g id="edge50" class="edge">
<title>Node0&#45;&gt;Node37</title>
<path fill="none" stroke="#191970" d="M1059.618,-353.79C1262.4297,-346.7778 1878.3522,-324.0745 2100.2526,-298.9502"/>
<polygon fill="#191970" stroke="#191970" points="2100.6745,-302.4248 2110.2018,-297.7901 2099.8637,-295.4719 2100.6745,-302.4248"/>
</g>
<!-- Node6&#45;&gt;Node3 -->
<g id="edge8" class="edge">
<title>Node6&#45;&gt;Node3</title>
<path fill="none" stroke="#191970" d="M534.1479,-268.4639C572.9948,-256.5792 626.5793,-240.1858 663.1066,-229.0108"/>
<polygon fill="#191970" stroke="#191970" points="664.3919,-232.2777 672.9305,-226.0053 662.344,-225.584 664.3919,-232.2777"/>
</g>
<!-- Node6&#45;&gt;Node4 -->
<g id="edge9" class="edge">
<title>Node6&#45;&gt;Node4</title>
<path fill="none" stroke="#191970" d="M473.0665,-268.3363C455.9985,-247.0245 425.0226,-209.8215 410,-201 406.3017,-198.8283 305.3263,-175.7704 241.1599,-161.2535"/>
<polygon fill="#191970" stroke="#191970" points="241.7238,-157.7928 231.1982,-159.0015 240.1803,-164.6205 241.7238,-157.7928"/>
</g>
<!-- Node7 -->
<g id="node8" class="node">
<title>Node7</title>
<polygon fill="#ffffff" stroke="#bfbfbf" points="266.5,-140 266.5,-159 335.5,-159 335.5,-140 266.5,-140"/>
<text text-anchor="middle" x="301" y="-147" font-family="Helvetica,sans-Serif" font-size="10.00" fill="#000000">Eigen/Core</text>
</g>
<!-- Node6&#45;&gt;Node7 -->
<g id="edge7" class="edge">
<title>Node6&#45;&gt;Node7</title>
<path fill="none" stroke="#191970" d="M480.9941,-268.2745C475.4134,-249.8979 463.5911,-219.2028 443,-201 435.0078,-193.9348 379.8108,-175.0461 340.6434,-162.2178"/>
<polygon fill="#191970" stroke="#191970" points="341.6618,-158.8686 331.0694,-159.0978 339.4928,-165.5241 341.6618,-158.8686"/>
</g>
<!-- Node6&#45;&gt;Node8 -->
<g id="edge10" class="edge">
<title>Node6&#45;&gt;Node8</title>
<path fill="none" stroke="#191970" d="M451.3371,-268.4639C429.7007,-258.7996 401.3895,-246.154 378.1132,-235.7572"/>
<polygon fill="#191970" stroke="#191970" points="379.3678,-232.4844 368.8097,-231.6017 376.5129,-238.8758 379.3678,-232.4844"/>
</g>
<!-- Node9 -->
<g id="node10" class="node">
<title>Node9</title>
<g id="a_node10"><a xlink:href="common_2autodiff_8h.html" target="_top" xlink:title="drake/common/autodiff.h">
<polygon fill="#ffffff" stroke="#000000" points="495,-207 495,-226 635,-226 635,-207 495,-207"/>
<text text-anchor="middle" x="565" y="-214" font-family="Helvetica,sans-Serif" font-size="10.00" fill="#000000">drake/common/autodiff.h</text>
</a>
</g>
</g>
<!-- Node6&#45;&gt;Node9 -->
<g id="edge12" class="edge">
<title>Node6&#45;&gt;Node9</title>
<path fill="none" stroke="#191970" d="M503.1532,-268.2967C515.8596,-257.6551 532.8087,-243.4602 545.7502,-232.6217"/>
<polygon fill="#191970" stroke="#191970" points="548.1718,-235.159 553.5911,-226.055 543.6773,-229.7924 548.1718,-235.159"/>
</g>
<!-- Node8&#45;&gt;Node4 -->
<g id="edge11" class="edge">
<title>Node8&#45;&gt;Node4</title>
<path fill="none" stroke="#191970" d="M302.2348,-201.4639C277.4068,-190.0702 243.5488,-174.5327 219.3372,-163.4219"/>
<polygon fill="#191970" stroke="#191970" points="220.4764,-160.0938 209.9279,-159.1039 217.5568,-166.4559 220.4764,-160.0938"/>
</g>
<!-- Node9&#45;&gt;Node7 -->
<g id="edge13" class="edge">
<title>Node9&#45;&gt;Node7</title>
<path fill="none" stroke="#191970" d="M521.117,-206.9514C477.5009,-197.235 408.8049,-181.3213 350,-165 346.6309,-164.0649 343.1451,-163.0529 339.6572,-162.0094"/>
<polygon fill="#191970" stroke="#191970" points="340.5041,-158.6083 329.9174,-159.0231 338.4521,-165.3008 340.5041,-158.6083"/>
</g>
<!-- Node10 -->
<g id="node11" class="node">
<title>Node10</title>
<polygon fill="#ffffff" stroke="#bfbfbf" points="712.5,-140 712.5,-159 863.5,-159 863.5,-140 712.5,-140"/>
<text text-anchor="middle" x="788" y="-147" font-family="Helvetica,sans-Serif" font-size="10.00" fill="#000000">unsupported/Eigen/AutoDiff</text>
</g>
<!-- Node9&#45;&gt;Node10 -->
<g id="edge14" class="edge">
<title>Node9&#45;&gt;Node10</title>
<path fill="none" stroke="#191970" d="M596.9505,-206.9005C636.2792,-195.0843 703.1599,-174.9901 746.447,-161.9845"/>
<polygon fill="#191970" stroke="#191970" points="747.5388,-165.3111 756.1088,-159.0817 745.5246,-158.6072 747.5388,-165.3111"/>
</g>
<!-- Node11 -->
<g id="node12" class="node">
<title>Node11</title>
<g id="a_node12"><a xlink:href="eigen__autodiff__limits_8h.html" target="_top" xlink:title="drake/common/eigen\l_autodiff_limits.h">
<polygon fill="#ffffff" stroke="#000000" points="0,-67.5 0,-97.5 120,-97.5 120,-67.5 0,-67.5"/>
<text text-anchor="start" x="8" y="-85.5" font-family="Helvetica,sans-Serif" font-size="10.00" fill="#000000">drake/common/eigen</text>
<text text-anchor="middle" x="60" y="-74.5" font-family="Helvetica,sans-Serif" font-size="10.00" fill="#000000">_autodiff_limits.h</text>
</a>
</g>
</g>
<!-- Node9&#45;&gt;Node11 -->
<g id="edge15" class="edge">
<title>Node9&#45;&gt;Node11</title>
<path fill="none" stroke="#191970" d="M511.05,-206.9749C473.9284,-199.0486 424.252,-185.6702 384,-165 364.3032,-154.8853 365.2323,-142.9958 345,-134 258.936,-95.7335 226.6094,-115.3052 130.0349,-98.0715"/>
<polygon fill="#191970" stroke="#191970" points="130.6425,-94.6245 120.1691,-96.2239 129.354,-101.5049 130.6425,-94.6245"/>
</g>
<!-- Node13 -->
<g id="node14" class="node">
<title>Node13</title>
<g id="a_node14"><a xlink:href="eigen__autodiff__types_8h.html" target="_top" xlink:title="This file contains abbreviated definitions for certain uses of AutoDiffScalar that are commonly used ...">
<polygon fill="#ffffff" stroke="#000000" points="882,-134.5 882,-164.5 1002,-164.5 1002,-134.5 882,-134.5"/>
<text text-anchor="start" x="890" y="-152.5" font-family="Helvetica,sans-Serif" font-size="10.00" fill="#000000">drake/common/eigen</text>
<text text-anchor="middle" x="942" y="-141.5" font-family="Helvetica,sans-Serif" font-size="10.00" fill="#000000">_autodiff_types.h</text>
</a>
</g>
</g>
<!-- Node9&#45;&gt;Node13 -->
<g id="edge17" class="edge">
<title>Node9&#45;&gt;Node13</title>
<path fill="none" stroke="#191970" d="M612.752,-206.9662C623.3563,-204.9277 634.5498,-202.8368 645,-201 742.8823,-183.7955 770.5238,-184.2075 871.8011,-165.1597"/>
<polygon fill="#191970" stroke="#191970" points="872.6651,-168.5583 881.8368,-163.2544 871.3594,-161.6811 872.6651,-168.5583"/>
</g>
<!-- Node19 -->
<g id="node20" class="node">
<title>Node19</title>
<g id="a_node20"><a xlink:href="autodiffxd_8h.html" target="_top" xlink:title="drake/common/autodiffxd.h">
<polygon fill="#ffffff" stroke="#000000" points="542,-140 542,-159 694,-159 694,-140 542,-140"/>
<text text-anchor="middle" x="618" y="-147" font-family="Helvetica,sans-Serif" font-size="10.00" fill="#000000">drake/common/autodiffxd.h</text>
</a>
</g>
</g>
<!-- Node9&#45;&gt;Node19 -->
<g id="edge25" class="edge">
<title>Node9&#45;&gt;Node19</title>
<path fill="none" stroke="#191970" d="M572.5936,-206.9005C580.7798,-196.552 593.9885,-179.8542 604.0543,-167.1295"/>
<polygon fill="#191970" stroke="#191970" points="606.9614,-169.0959 610.4205,-159.0817 601.4714,-164.7531 606.9614,-169.0959"/>
</g>
<!-- Node22 -->
<g id="node23" class="node">
<title>Node22</title>
<g id="a_node23"><a xlink:href="autodiff__overloads_8h.html" target="_top" xlink:title="Overloads for STL mathematical operations on AutoDiffScalar. ">
<polygon fill="#ffffff" stroke="#000000" points="392.5,-134.5 392.5,-164.5 523.5,-164.5 523.5,-134.5 392.5,-134.5"/>
<text text-anchor="start" x="400.5" y="-152.5" font-family="Helvetica,sans-Serif" font-size="10.00" fill="#000000">drake/common/autodiff</text>
<text text-anchor="middle" x="458" y="-141.5" font-family="Helvetica,sans-Serif" font-size="10.00" fill="#000000">_overloads.h</text>
</a>
</g>
</g>
<!-- Node9&#45;&gt;Node22 -->
<g id="edge29" class="edge">
<title>Node9&#45;&gt;Node22</title>
<path fill="none" stroke="#191970" d="M549.6695,-206.9005C534.3354,-197.2988 510.2723,-182.2313 490.6473,-169.9427"/>
<polygon fill="#191970" stroke="#191970" points="492.323,-166.8625 481.99,-164.5218 488.608,-172.7954 492.323,-166.8625"/>
</g>
<!-- Node12 -->
<g id="node13" class="node">
<title>Node12</title>
<polygon fill="#ffffff" stroke="#bfbfbf" points="182,-6 182,-25 226,-25 226,-6 182,-6"/>
<text text-anchor="middle" x="204" y="-13" font-family="Helvetica,sans-Serif" font-size="10.00" fill="#000000">limits</text>
</g>
<!-- Node11&#45;&gt;Node12 -->
<g id="edge16" class="edge">
<title>Node11&#45;&gt;Node12</title>
<path fill="none" stroke="#191970" d="M92.3164,-67.4639C116.8043,-56.0702 150.1984,-40.5327 174.0784,-29.4219"/>
<polygon fill="#191970" stroke="#191970" points="175.7686,-32.4958 183.3587,-25.1039 172.8156,-26.1492 175.7686,-32.4958"/>
</g>
<!-- Node14 -->
<g id="node15" class="node">
<title>Node14</title>
<polygon fill="#ffffff" stroke="#bfbfbf" points="495.5,-6 495.5,-25 564.5,-25 564.5,-6 495.5,-6"/>
<text text-anchor="middle" x="530" y="-13" font-family="Helvetica,sans-Serif" font-size="10.00" fill="#000000">type_traits</text>
</g>
<!-- Node13&#45;&gt;Node14 -->
<g id="edge18" class="edge">
<title>Node13&#45;&gt;Node14</title>
<path fill="none" stroke="#191970" d="M909.3143,-134.4032C869.8228,-116.574 801.0675,-86.8391 740,-67 683.8114,-48.7459 617.3401,-33.4717 574.4657,-24.4127"/>
<polygon fill="#191970" stroke="#191970" points="575.1313,-20.9762 564.6266,-22.3554 573.6986,-27.828 575.1313,-20.9762"/>
</g>
<!-- Node15 -->
<g id="node16" class="node">
<title>Node15</title>
<polygon fill="#ffffff" stroke="#bfbfbf" points="758.5,-6 758.5,-25 835.5,-25 835.5,-6 758.5,-6"/>
<text text-anchor="middle" x="797" y="-13" font-family="Helvetica,sans-Serif" font-size="10.00" fill="#000000">Eigen/Dense</text>
</g>
<!-- Node13&#45;&gt;Node15 -->
<g id="edge19" class="edge">
<title>Node13&#45;&gt;Node15</title>
<path fill="none" stroke="#191970" d="M919.7456,-134.4785C905.8117,-124.6943 887.7644,-111.3138 873,-98 850.093,-77.3436 826.4384,-50.6664 811.7303,-33.3262"/>
<polygon fill="#191970" stroke="#191970" points="814.0141,-30.6027 804.9058,-25.1908 808.6512,-35.1015 814.0141,-30.6027"/>
</g>
<!-- Node16 -->
<g id="node17" class="node">
<title>Node16</title>
<g id="a_node17"><a xlink:href="eigen__types_8h.html" target="_top" xlink:title="This file contains abbreviated definitions for certain specializations of Eigen::Matrix that are comm...">
<polygon fill="#ffffff" stroke="#000000" points="882,-67.5 882,-97.5 1002,-97.5 1002,-67.5 882,-67.5"/>
<text text-anchor="start" x="890" y="-85.5" font-family="Helvetica,sans-Serif" font-size="10.00" fill="#000000">drake/common/eigen</text>
<text text-anchor="middle" x="942" y="-74.5" font-family="Helvetica,sans-Serif" font-size="10.00" fill="#000000">_types.h</text>
</a>
</g>
</g>
<!-- Node13&#45;&gt;Node16 -->
<g id="edge20" class="edge">
<title>Node13&#45;&gt;Node16</title>
<path fill="none" stroke="#191970" d="M942,-134.2967C942,-126.5013 942,-116.7991 942,-107.9064"/>
<polygon fill="#191970" stroke="#191970" points="945.5001,-107.6431 942,-97.6432 938.5001,-107.6432 945.5001,-107.6431"/>
</g>
<!-- Node16&#45;&gt;Node2 -->
<g id="edge21" class="edge">
<title>Node16&#45;&gt;Node2</title>
<path fill="none" stroke="#191970" d="M1002.0657,-68.7264C1053.5619,-56.7287 1123.6359,-39.8998 1151,-31 1153.147,-30.3017 1155.3447,-29.5388 1157.5477,-28.738"/>
<polygon fill="#191970" stroke="#191970" points="1159.02,-31.9218 1167.0986,-25.067 1156.5086,-25.3878 1159.02,-31.9218"/>
</g>
<!-- Node16&#45;&gt;Node15 -->
<g id="edge22" class="edge">
<title>Node16&#45;&gt;Node15</title>
<path fill="none" stroke="#191970" d="M909.4592,-67.4639C884.8013,-56.0702 851.1752,-40.5327 827.1294,-29.4219"/>
<polygon fill="#191970" stroke="#191970" points="828.3305,-26.1213 817.7846,-25.1039 825.3943,-32.4757 828.3305,-26.1213"/>
</g>
<!-- Node17 -->
<g id="node18" class="node">
<title>Node17</title>
<g id="a_node18"><a xlink:href="constants_8h.html" target="_top" xlink:title="drake/common/constants.h">
<polygon fill="#ffffff" stroke="#000000" points="853.5,-6 853.5,-25 1002.5,-25 1002.5,-6 853.5,-6"/>
<text text-anchor="middle" x="928" y="-13" font-family="Helvetica,sans-Serif" font-size="10.00" fill="#000000">drake/common/constants.h</text>
</a>
</g>
</g>
<!-- Node16&#45;&gt;Node17 -->
<g id="edge23" class="edge">
<title>Node16&#45;&gt;Node17</title>
<path fill="none" stroke="#191970" d="M938.8232,-67.2967C936.8325,-57.7699 934.2468,-45.3954 932.1019,-35.1306"/>
<polygon fill="#191970" stroke="#191970" points="935.468,-34.1277 929.9966,-25.055 928.616,-35.5595 935.468,-34.1277"/>
</g>
<!-- Node18 -->
<g id="node19" class="node">
<title>Node18</title>
<g id="a_node19"><a xlink:href="drake__copyable_8h.html" target="_top" xlink:title="Provides careful macros to selectively enable or disable the special member functions for copy&#45;constr...">
<polygon fill="#ffffff" stroke="#000000" points="1020.5,-.5 1020.5,-30.5 1141.5,-30.5 1141.5,-.5 1020.5,-.5"/>
<text text-anchor="start" x="1028.5" y="-18.5" font-family="Helvetica,sans-Serif" font-size="10.00" fill="#000000">drake/common/drake</text>
<text text-anchor="middle" x="1081" y="-7.5" font-family="Helvetica,sans-Serif" font-size="10.00" fill="#000000">_copyable.h</text>
</a>
</g>
</g>
<!-- Node16&#45;&gt;Node18 -->
<g id="edge24" class="edge">
<title>Node16&#45;&gt;Node18</title>
<path fill="none" stroke="#191970" d="M973.1943,-67.4639C992.9961,-57.9191 1018.8312,-45.4663 1040.2461,-35.144"/>
<polygon fill="#191970" stroke="#191970" points="1041.9405,-38.2127 1049.4289,-30.7177 1038.901,-31.907 1041.9405,-38.2127"/>
</g>
<!-- Node19&#45;&gt;Node15 -->
<g id="edge28" class="edge">
<title>Node19&#45;&gt;Node15</title>
<path fill="none" stroke="#191970" d="M654.7899,-139.9564C680.6399,-131.9037 714.9406,-118.3816 740,-98 761.5376,-80.4827 778.3606,-52.7764 787.9854,-34.3724"/>
<polygon fill="#191970" stroke="#191970" points="791.217,-35.7361 792.5761,-25.2288 784.9612,-32.5952 791.217,-35.7361"/>
</g>
<!-- Node20 -->
<g id="node21" class="node">
<title>Node20</title>
<polygon fill="#ffffff" stroke="#bfbfbf" points="608.5,-73 608.5,-92 655.5,-92 655.5,-73 608.5,-73"/>
<text text-anchor="middle" x="632" y="-80" font-family="Helvetica,sans-Serif" font-size="10.00" fill="#000000">cmath</text>
</g>
<!-- Node19&#45;&gt;Node20 -->
<g id="edge26" class="edge">
<title>Node19&#45;&gt;Node20</title>
<path fill="none" stroke="#191970" d="M620.0059,-139.9005C622.0643,-130.0495 625.3249,-114.4451 627.9272,-101.9912"/>
<polygon fill="#191970" stroke="#191970" points="631.3784,-102.5862 629.9979,-92.0817 624.5264,-101.1543 631.3784,-102.5862"/>
</g>
<!-- Node21 -->
<g id="node22" class="node">
<title>Node21</title>
<polygon fill="#ffffff" stroke="#bfbfbf" points="673.5,-73 673.5,-92 730.5,-92 730.5,-73 673.5,-73"/>
<text text-anchor="middle" x="702" y="-80" font-family="Helvetica,sans-Serif" font-size="10.00" fill="#000000">ostream</text>
</g>
<!-- Node19&#45;&gt;Node21 -->
<g id="edge27" class="edge">
<title>Node19&#45;&gt;Node21</title>
<path fill="none" stroke="#191970" d="M630.0352,-139.9005C643.6332,-129.0544 665.9754,-111.2339 682.1624,-98.3229"/>
<polygon fill="#191970" stroke="#191970" points="684.3519,-101.0535 689.9872,-92.0817 679.9869,-95.5811 684.3519,-101.0535"/>
</g>
<!-- Node22&#45;&gt;Node12 -->
<g id="edge31" class="edge">
<title>Node22&#45;&gt;Node12</title>
<path fill="none" stroke="#191970" d="M405.0537,-134.4491C378.0878,-125.6987 345.3173,-113.3538 318,-98 298.6978,-87.1511 296.8041,-80.1638 279,-67 261.9614,-54.4022 242.184,-40.8648 227.2174,-30.8324"/>
<polygon fill="#191970" stroke="#191970" points="228.8497,-27.714 218.5879,-25.0784 224.9663,-33.5381 228.8497,-27.714"/>
</g>
<!-- Node22&#45;&gt;Node20 -->
<g id="edge30" class="edge">
<title>Node22&#45;&gt;Node20</title>
<path fill="none" stroke="#191970" d="M503.2269,-134.4333C531.3532,-124.7354 568.11,-111.4639 600,-98 601.3506,-97.4298 602.7261,-96.8319 604.1101,-96.2165"/>
<polygon fill="#191970" stroke="#191970" points="605.5946,-99.3862 613.1966,-92.0064 602.6518,-93.0348 605.5946,-99.3862"/>
</g>
<!-- Node23 -->
<g id="node24" class="node">
<title>Node23</title>
<g id="a_node24"><a xlink:href="cond_8h.html" target="_top" xlink:title="drake/common/cond.h">
<polygon fill="#ffffff" stroke="#000000" points="326.5,-73 326.5,-92 451.5,-92 451.5,-73 326.5,-73"/>
<text text-anchor="middle" x="389" y="-80" font-family="Helvetica,sans-Serif" font-size="10.00" fill="#000000">drake/common/cond.h</text>
</a>
</g>
</g>
<!-- Node22&#45;&gt;Node23 -->
<g id="edge32" class="edge">
<title>Node22&#45;&gt;Node23</title>
<path fill="none" stroke="#191970" d="M442.3428,-134.2967C431.5923,-123.8578 417.3206,-109.9997 406.2445,-99.2446"/>
<polygon fill="#191970" stroke="#191970" points="408.4527,-96.5103 398.8402,-92.055 403.5763,-101.5323 408.4527,-96.5103"/>
</g>
<!-- Node26 -->
<g id="node27" class="node">
<title>Node26</title>
<g id="a_node27"><a xlink:href="drake__assert_8h.html" target="_top" xlink:title="Provides Drake&#39;s assertion implementation. ">
<polygon fill="#ffffff" stroke="#000000" points="469.5,-67.5 469.5,-97.5 590.5,-97.5 590.5,-67.5 469.5,-67.5"/>
<text text-anchor="start" x="477.5" y="-85.5" font-family="Helvetica,sans-Serif" font-size="10.00" fill="#000000">drake/common/drake</text>
<text text-anchor="middle" x="530" y="-74.5" font-family="Helvetica,sans-Serif" font-size="10.00" fill="#000000">_assert.h</text>
</a>
</g>
</g>
<!-- Node22&#45;&gt;Node26 -->
<g id="edge36" class="edge">
<title>Node22&#45;&gt;Node26</title>
<path fill="none" stroke="#191970" d="M474.3379,-134.2967C483.7277,-125.559 495.6918,-114.4257 506.1198,-104.7218"/>
<polygon fill="#191970" stroke="#191970" points="508.7903,-107.0178 513.7267,-97.6432 504.0217,-101.8933 508.7903,-107.0178"/>
</g>
<!-- Node27 -->
<g id="node28" class="node">
<title>Node27</title>
<g id="a_node28"><a xlink:href="dummy__value_8h.html" target="_top" xlink:title="drake/common/dummy\l_value.h">
<polygon fill="#ffffff" stroke="#000000" points="138.5,-67.5 138.5,-97.5 269.5,-97.5 269.5,-67.5 138.5,-67.5"/>
<text text-anchor="start" x="146.5" y="-85.5" font-family="Helvetica,sans-Serif" font-size="10.00" fill="#000000">drake/common/dummy</text>
<text text-anchor="middle" x="204" y="-74.5" font-family="Helvetica,sans-Serif" font-size="10.00" fill="#000000">_value.h</text>
</a>
</g>
</g>
<!-- Node22&#45;&gt;Node27 -->
<g id="edge38" class="edge">
<title>Node22&#45;&gt;Node27</title>
<path fill="none" stroke="#191970" d="M400.9974,-134.4639C362.4872,-124.3057 311.4894,-110.8535 271.031,-100.1814"/>
<polygon fill="#191970" stroke="#191970" points="271.8132,-96.7681 261.2512,-97.6017 270.0277,-103.5366 271.8132,-96.7681"/>
</g>
<!-- Node23&#45;&gt;Node14 -->
<g id="edge34" class="edge">
<title>Node23&#45;&gt;Node14</title>
<path fill="none" stroke="#191970" d="M409.2019,-72.9005C433.179,-61.5072 473.3521,-42.4178 500.7321,-29.4075"/>
<polygon fill="#191970" stroke="#191970" points="502.3056,-32.5348 509.8356,-25.0817 499.3013,-26.2123 502.3056,-32.5348"/>
</g>
<!-- Node24 -->
<g id="node25" class="node">
<title>Node24</title>
<polygon fill="#ffffff" stroke="#bfbfbf" points="400.5,-6 400.5,-25 465.5,-25 465.5,-6 400.5,-6"/>
<text text-anchor="middle" x="433" y="-13" font-family="Helvetica,sans-Serif" font-size="10.00" fill="#000000">functional</text>
</g>
<!-- Node23&#45;&gt;Node24 -->
<g id="edge33" class="edge">
<title>Node23&#45;&gt;Node24</title>
<path fill="none" stroke="#191970" d="M395.3041,-72.9005C402.0349,-62.6515 412.8554,-46.1747 421.1807,-33.4976"/>
<polygon fill="#191970" stroke="#191970" points="424.1438,-35.3616 426.7076,-25.0817 418.2927,-31.5191 424.1438,-35.3616"/>
</g>
<!-- Node25 -->
<g id="node26" class="node">
<title>Node25</title>
<g id="a_node26"><a xlink:href="double__overloads_8h.html" target="_top" xlink:title="Provides necessary operations on double to have it as a ScalarType in drake. ">
<polygon fill="#ffffff" stroke="#000000" points="256,-.5 256,-30.5 382,-30.5 382,-.5 256,-.5"/>
<text text-anchor="start" x="264" y="-18.5" font-family="Helvetica,sans-Serif" font-size="10.00" fill="#000000">drake/common/double</text>
<text text-anchor="middle" x="319" y="-7.5" font-family="Helvetica,sans-Serif" font-size="10.00" fill="#000000">_overloads.h</text>
</a>
</g>
</g>
<!-- Node23&#45;&gt;Node25 -->
<g id="edge35" class="edge">
<title>Node23&#45;&gt;Node25</title>
<path fill="none" stroke="#191970" d="M378.9707,-72.9005C369.3909,-63.7313 354.6035,-49.5776 342.1099,-37.6195"/>
<polygon fill="#191970" stroke="#191970" points="344.3387,-34.9079 334.6944,-30.5218 339.4985,-39.9648 344.3387,-34.9079"/>
</g>
<!-- Node26&#45;&gt;Node14 -->
<g id="edge37" class="edge">
<title>Node26&#45;&gt;Node14</title>
<path fill="none" stroke="#191970" d="M530,-67.2967C530,-57.7699 530,-45.3954 530,-35.1306"/>
<polygon fill="#191970" stroke="#191970" points="533.5001,-35.0549 530,-25.055 526.5001,-35.055 533.5001,-35.0549"/>
</g>
<!-- Node27&#45;&gt;Node12 -->
<g id="edge39" class="edge">
<title>Node27&#45;&gt;Node12</title>
<path fill="none" stroke="#191970" d="M204,-67.2967C204,-57.7699 204,-45.3954 204,-35.1306"/>
<polygon fill="#191970" stroke="#191970" points="207.5001,-35.0549 204,-25.055 200.5001,-35.055 207.5001,-35.0549"/>
</g>
</g>
</svg>
        <g id="navigator" transform="translate(0 0)" fill="#404254">
                <rect fill="#f2f5e9" fill-opacity="0.5" stroke="#606060" stroke-width=".5" x="0" y="0" width="60" height="60"/>
                <use id="zoomplus" xlink:href="#zoomPlus" x="17" y="9" onmousedown="handleZoom(evt,'in')"/>
                <use id="zoomminus" xlink:href="#zoomMin" x="42" y="9" onmousedown="handleZoom(evt,'out')"/>
                <use id="reset" xlink:href="#resetDef" x="30" y="36" onmousedown="handleReset()"/>
                <g id="arrowUp" xlink:href="#dirArrow" transform="translate(30 24)" onmousedown="handlePan(0,-1)">
                  <use xlink:href="#rim" fill="#404040">
                        <set attributeName="fill" to="#808080" begin="arrowUp.mouseover" end="arrowUp.mouseout"/>
                  </use>
                  <path fill="none" stroke="white" stroke-width="1.5" d="M0,-3.0v7 M-2.5,-0.5L0,-3.0L2.5,-0.5"/>
                </g>
                <g id="arrowRight" xlink:href="#dirArrow" transform="rotate(90) translate(36 -43)" onmousedown="handlePan(1,0)">
                  <use xlink:href="#rim" fill="#404040">
                        <set attributeName="fill" to="#808080" begin="arrowRight.mouseover" end="arrowRight.mouseout"/>
                  </use>
                  <path fill="none" stroke="white" stroke-width="1.5" d="M0,-3.0v7 M-2.5,-0.5L0,-3.0L2.5,-0.5"/>
                </g>
                <g id="arrowDown" xlink:href="#dirArrow" transform="rotate(180) translate(-30 -48)" onmousedown="handlePan(0,1)">
                  <use xlink:href="#rim" fill="#404040">
                        <set attributeName="fill" to="#808080" begin="arrowDown.mouseover" end="arrowDown.mouseout"/>
                  </use>
                  <path fill="none" stroke="white" stroke-width="1.5" d="M0,-3.0v7 M-2.5,-0.5L0,-3.0L2.5,-0.5"/>
                </g>
                <g id="arrowLeft" xlink:href="#dirArrow" transform="rotate(270) translate(-36 17)" onmousedown="handlePan(-1,0)">
                  <use xlink:href="#rim" fill="#404040">
                        <set attributeName="fill" to="#808080" begin="arrowLeft.mouseover" end="arrowLeft.mouseout"/>
                  </use>
                  <path fill="none" stroke="white" stroke-width="1.5" d="M0,-3.0v7 M-2.5,-0.5L0,-3.0L2.5,-0.5"/>
                </g>
        </g>
        <svg viewBox="0 0 15 15" width="100%" height="30px" preserveAspectRatio="xMaxYMin meet">
         <g id="arrow_out" transform="scale(0.3 0.3)">
          <a xlink:href="rigid__body__tree__py_8cc__incl_org.svg" target="_base">
           <rect id="button" ry="5" rx="5" y="6" x="6" height="38" width="38"
                fill="#f2f5e9" fill-opacity="0.5" stroke="#606060" stroke-width="1.0"/>
           <path id="arrow"
             d="M 11.500037,31.436501 C 11.940474,20.09759 22.043105,11.32322 32.158766,21.979434 L 37.068811,17.246167 C 37.068811,17.246167 37.088388,32 37.088388,32 L 22.160133,31.978069 C 22.160133,31.978069 26.997745,27.140456 26.997745,27.140456 C 18.528582,18.264221 13.291696,25.230495 11.500037,31.436501 z"
             style="fill:#404040;"/>
          </a>
         </g>
        </svg>
</svg>
