<?xml version="1.0" encoding="UTF-8" standalone="no"?>
<!DOCTYPE svg PUBLIC "-//W3C//DTD SVG 1.1//EN"
 "http://www.w3.org/Graphics/SVG/1.1/DTD/svg11.dtd">
<!-- Generated by graphviz version 2.40.1 (20161225.0304)
 -->
<!-- Title: drake/examples/rimless_wheel/rimless_wheel.h Pages: 1 -->
<svg width="652pt" height="117pt"
 viewBox="0.00 0.00 652.00 117.00" xmlns="http://www.w3.org/2000/svg" xmlns:xlink="http://www.w3.org/1999/xlink">
<g id="graph0" class="graph" transform="scale(1 1) rotate(0) translate(4 113)">
<title>drake/examples/rimless_wheel/rimless_wheel.h</title>
<polygon fill="#ffffff" stroke="transparent" points="-4,4 -4,-113 648,-113 648,4 -4,4"/>
<!-- Node115 -->
<g id="node1" class="node">
<title>Node115</title>
<polygon fill="#bfbfbf" stroke="#000000" points="269,-78.5 269,-108.5 403,-108.5 403,-78.5 269,-78.5"/>
<text text-anchor="start" x="277" y="-96.5" font-family="Helvetica,sans-Serif" font-size="10.00" fill="#000000">drake/examples/rimless</text>
<text text-anchor="middle" x="336" y="-85.5" font-family="Helvetica,sans-Serif" font-size="10.00" fill="#000000">_wheel/rimless_wheel.h</text>
</g>
<!-- Node116 -->
<g id="node2" class="node">
<title>Node116</title>
<g id="a_node2"><a xlink:href="rimless__wheel__py_8cc.html" target="_top" xlink:title="drake/bindings/pydrake\l/examples/rimless_wheel_py.cc">
<polygon fill="#ffffff" stroke="#000000" points="0,-6 0,-36 172,-36 172,-6 0,-6"/>
<text text-anchor="start" x="8" y="-24" font-family="Helvetica,sans-Serif" font-size="10.00" fill="#000000">drake/bindings/pydrake</text>
<text text-anchor="middle" x="86" y="-13" font-family="Helvetica,sans-Serif" font-size="10.00" fill="#000000">/examples/rimless_wheel_py.cc</text>
</a>
</g>
</g>
<!-- Node115&#45;&gt;Node116 -->
<g id="edge1" class="edge">
<title>Node115&#45;&gt;Node116</title>
<path fill="none" stroke="#191970" d="M274.3675,-75.6266C232.3856,-63.4518 177.4386,-47.5172 137.7338,-36.0028"/>
<polygon fill="#191970" stroke="#191970" points="273.6207,-79.0541 284.1998,-78.478 275.5704,-72.3311 273.6207,-79.0541"/>
</g>
<!-- Node117 -->
<g id="node3" class="node">
<title>Node117</title>
<g id="a_node3"><a xlink:href="rimless__wheel_8cc.html" target="_top" xlink:title="drake/examples/rimless\l_wheel/rimless_wheel.cc">
<polygon fill="#ffffff" stroke="#000000" points="190,-6 190,-36 328,-36 328,-6 190,-6"/>
<text text-anchor="start" x="198" y="-24" font-family="Helvetica,sans-Serif" font-size="10.00" fill="#000000">drake/examples/rimless</text>
<text text-anchor="middle" x="259" y="-13" font-family="Helvetica,sans-Serif" font-size="10.00" fill="#000000">_wheel/rimless_wheel.cc</text>
</a>
</g>
</g>
<!-- Node115&#45;&gt;Node117 -->
<g id="edge2" class="edge">
<title>Node115&#45;&gt;Node117</title>
<path fill="none" stroke="#191970" d="M312.4553,-71.3313C300.2917,-59.8785 285.7699,-46.2054 274.934,-36.0028"/>
<polygon fill="#191970" stroke="#191970" points="310.3656,-74.171 320.0456,-78.478 315.1642,-69.0746 310.3656,-74.171"/>
</g>
<!-- Node118 -->
<g id="node4" class="node">
<title>Node118</title>
<g id="a_node4"><a xlink:href="rimless__wheel_2simulate_8cc.html" target="_top" xlink:title="drake/examples/rimless\l_wheel/simulate.cc">
<polygon fill="#ffffff" stroke="#000000" points="346,-6 346,-36 480,-36 480,-6 346,-6"/>
<text text-anchor="start" x="354" y="-24" font-family="Helvetica,sans-Serif" font-size="10.00" fill="#000000">drake/examples/rimless</text>
<text text-anchor="middle" x="413" y="-13" font-family="Helvetica,sans-Serif" font-size="10.00" fill="#000000">_wheel/simulate.cc</text>
</a>
</g>
</g>
<!-- Node115&#45;&gt;Node118 -->
<g id="edge3" class="edge">
<title>Node115&#45;&gt;Node118</title>
<path fill="none" stroke="#191970" d="M359.5447,-71.3313C371.7083,-59.8785 386.2301,-46.2054 397.066,-36.0028"/>
<polygon fill="#191970" stroke="#191970" points="356.8358,-69.0746 351.9544,-78.478 361.6344,-74.171 356.8358,-69.0746"/>
</g>
<!-- Node119 -->
<g id="node5" class="node">
<title>Node119</title>
<g id="a_node5"><a xlink:href="rimless__wheel__test_8cc.html" target="_top" xlink:title="drake/examples/rimless\l_wheel/test/rimless_wheel\l_test.cc">
<polygon fill="#ffffff" stroke="#000000" points="498,-.5 498,-41.5 644,-41.5 644,-.5 498,-.5"/>
<text text-anchor="start" x="506" y="-29.5" font-family="Helvetica,sans-Serif" font-size="10.00" fill="#000000">drake/examples/rimless</text>
<text text-anchor="start" x="506" y="-18.5" font-family="Helvetica,sans-Serif" font-size="10.00" fill="#000000">_wheel/test/rimless_wheel</text>
<text text-anchor="middle" x="571" y="-7.5" font-family="Helvetica,sans-Serif" font-size="10.00" fill="#000000">_test.cc</text>
</a>
</g>
</g>
<!-- Node115&#45;&gt;Node119 -->
<g id="edge4" class="edge">
<title>Node115&#45;&gt;Node119</title>
<path fill="none" stroke="#191970" d="M394.3246,-75.5062C427.7575,-65.1918 469.8401,-52.2089 504.5468,-41.5015"/>
<polygon fill="#191970" stroke="#191970" points="393.2159,-72.1854 384.6922,-78.478 395.2796,-78.8743 393.2159,-72.1854"/>
</g>
</g>
</svg>
