<?xml version="1.0" encoding="UTF-8" standalone="no"?>
<!DOCTYPE svg PUBLIC "-//W3C//DTD SVG 1.1//EN"
 "http://www.w3.org/Graphics/SVG/1.1/DTD/svg11.dtd">
<!-- Generated by graphviz version 2.40.1 (20161225.0304)
 -->
<!-- Title: drake/automotive/maliput/rndf/loader.h Pages: 1 -->
<svg width="638pt" height="106pt"
 viewBox="0.00 0.00 638.00 106.00" xmlns="http://www.w3.org/2000/svg" xmlns:xlink="http://www.w3.org/1999/xlink">
<g id="graph0" class="graph" transform="scale(1 1) rotate(0) translate(4 102)">
<title>drake/automotive/maliput/rndf/loader.h</title>
<polygon fill="#ffffff" stroke="transparent" points="-4,4 -4,-102 634,-102 634,4 -4,4"/>
<!-- Node75 -->
<g id="node1" class="node">
<title>Node75</title>
<polygon fill="#bfbfbf" stroke="#000000" points="243,-67.5 243,-97.5 387,-97.5 387,-67.5 243,-67.5"/>
<text text-anchor="start" x="251" y="-85.5" font-family="Helvetica,sans-Serif" font-size="10.00" fill="#000000">drake/automotive/maliput</text>
<text text-anchor="middle" x="315" y="-74.5" font-family="Helvetica,sans-Serif" font-size="10.00" fill="#000000">/rndf/loader.h</text>
</g>
<!-- Node76 -->
<g id="node2" class="node">
<title>Node76</title>
<g id="a_node2"><a xlink:href="rndf_2loader_8cc.html" target="_top" xlink:title="drake/automotive/maliput\l/rndf/loader.cc">
<polygon fill="#ffffff" stroke="#000000" points="0,-.5 0,-30.5 144,-30.5 144,-.5 0,-.5"/>
<text text-anchor="start" x="8" y="-18.5" font-family="Helvetica,sans-Serif" font-size="10.00" fill="#000000">drake/automotive/maliput</text>
<text text-anchor="middle" x="72" y="-7.5" font-family="Helvetica,sans-Serif" font-size="10.00" fill="#000000">/rndf/loader.cc</text>
</a>
</g>
</g>
<!-- Node75&#45;&gt;Node76 -->
<g id="edge1" class="edge">
<title>Node75&#45;&gt;Node76</title>
<path fill="none" stroke="#191970" d="M250.3846,-64.6842C211.8402,-54.0568 163.4316,-40.7095 126.7718,-30.6017"/>
<polygon fill="#191970" stroke="#191970" points="249.8954,-68.1799 260.4661,-67.4639 251.7561,-61.4317 249.8954,-68.1799"/>
</g>
<!-- Node77 -->
<g id="node3" class="node">
<title>Node77</title>
<g id="a_node3"><a xlink:href="loader__test_8cc.html" target="_top" xlink:title="drake/automotive/maliput\l/rndf/test/loader_test.cc">
<polygon fill="#ffffff" stroke="#000000" points="162,-.5 162,-30.5 306,-30.5 306,-.5 162,-.5"/>
<text text-anchor="start" x="170" y="-18.5" font-family="Helvetica,sans-Serif" font-size="10.00" fill="#000000">drake/automotive/maliput</text>
<text text-anchor="middle" x="234" y="-7.5" font-family="Helvetica,sans-Serif" font-size="10.00" fill="#000000">/rndf/test/loader_test.cc</text>
</a>
</g>
</g>
<!-- Node75&#45;&gt;Node77 -->
<g id="edge2" class="edge">
<title>Node75&#45;&gt;Node77</title>
<path fill="none" stroke="#191970" d="M288.7425,-60.7808C276.8433,-50.9383 263.0644,-39.541 252.3074,-30.6432"/>
<polygon fill="#191970" stroke="#191970" points="286.6835,-63.6198 296.6198,-67.2967 291.1451,-58.2259 286.6835,-63.6198"/>
</g>
<!-- Node78 -->
<g id="node4" class="node">
<title>Node78</title>
<g id="a_node4"><a xlink:href="rndf__load_8cc.html" target="_top" xlink:title="drake/automotive/maliput\l/rndf/test/rndf_load.cc">
<polygon fill="#ffffff" stroke="#000000" points="324,-.5 324,-30.5 468,-30.5 468,-.5 324,-.5"/>
<text text-anchor="start" x="332" y="-18.5" font-family="Helvetica,sans-Serif" font-size="10.00" fill="#000000">drake/automotive/maliput</text>
<text text-anchor="middle" x="396" y="-7.5" font-family="Helvetica,sans-Serif" font-size="10.00" fill="#000000">/rndf/test/rndf_load.cc</text>
</a>
</g>
</g>
<!-- Node75&#45;&gt;Node78 -->
<g id="edge3" class="edge">
<title>Node75&#45;&gt;Node78</title>
<path fill="none" stroke="#191970" d="M341.2575,-60.7808C353.1567,-50.9383 366.9356,-39.541 377.6926,-30.6432"/>
<polygon fill="#191970" stroke="#191970" points="338.8549,-58.2259 333.3802,-67.2967 343.3165,-63.6198 338.8549,-58.2259"/>
</g>
<!-- Node79 -->
<g id="node5" class="node">
<title>Node79</title>
<g id="a_node5"><a xlink:href="rndf__to__obj_8cc.html" target="_top" xlink:title="drake/automotive/maliput\l/utility/rndf_to_obj.cc">
<polygon fill="#ffffff" stroke="#000000" points="486,-.5 486,-30.5 630,-30.5 630,-.5 486,-.5"/>
<text text-anchor="start" x="494" y="-18.5" font-family="Helvetica,sans-Serif" font-size="10.00" fill="#000000">drake/automotive/maliput</text>
<text text-anchor="middle" x="558" y="-7.5" font-family="Helvetica,sans-Serif" font-size="10.00" fill="#000000">/utility/rndf_to_obj.cc</text>
</a>
</g>
</g>
<!-- Node75&#45;&gt;Node79 -->
<g id="edge4" class="edge">
<title>Node75&#45;&gt;Node79</title>
<path fill="none" stroke="#191970" d="M379.6154,-64.6842C418.1598,-54.0568 466.5684,-40.7095 503.2282,-30.6017"/>
<polygon fill="#191970" stroke="#191970" points="378.2439,-61.4317 369.5339,-67.4639 380.1046,-68.1799 378.2439,-61.4317"/>
</g>
</g>
</svg>
