<?xml version="1.0" encoding="UTF-8" standalone="no"?>
<!DOCTYPE svg PUBLIC "-//W3C//DTD SVG 1.1//EN"
 "http://www.w3.org/Graphics/SVG/1.1/DTD/svg11.dtd">
<!-- Generated by graphviz version 2.40.1 (20161225.0304)
 -->
<!-- Title: drake/automotive/maliput/rndf/road_geometry.h Pages: 1 -->
<!--zoomable 184 -->
<svg id="main" version="1.1" xmlns="http://www.w3.org/2000/svg" xmlns:xlink="http://www.w3.org/1999/xlink" xml:space="preserve" onload="init(evt)">
<style type="text/css"><![CDATA[
.edge:hover path { stroke: red; }
.edge:hover polygon { stroke: red; fill: red; }
]]></style>
<script type="text/javascript"><![CDATA[
var edges = document.getElementsByTagName('g');
if (edges && edges.length) {
  for (var i=0;i<edges.length;i++) {
    if (edges[i].id.substr(0,4)=='edge') {
      edges[i].setAttribute('class','edge');
    }
  }
}
]]></script>
        <defs>
                <circle id="rim" cx="0" cy="0" r="7"/>
                <circle id="rim2" cx="0" cy="0" r="3.5"/>
                <g id="zoomPlus">
                        <use xlink:href="#rim" fill="#404040">
                                <set attributeName="fill" to="#808080" begin="zoomplus.mouseover" end="zoomplus.mouseout"/>
                        </use>
                        <path d="M-4,0h8M0,-4v8" fill="none" stroke="white" stroke-width="1.5" pointer-events="none"/>
                </g>
                <g id="zoomMin">
                        <use xlink:href="#rim" fill="#404040">
                                <set attributeName="fill" to="#808080" begin="zoomminus.mouseover" end="zoomminus.mouseout"/>
                        </use>
                        <path d="M-4,0h8" fill="none" stroke="white" stroke-width="1.5" pointer-events="none"/>
                </g>
                <g id="dirArrow">
                        <path fill="none" stroke="white" stroke-width="1.5" d="M0,-3.0v7 M-2.5,-0.5L0,-3.0L2.5,-0.5"/>
                </g>
               <g id="resetDef">
                       <use xlink:href="#rim2" fill="#404040">
                               <set attributeName="fill" to="#808080" begin="reset.mouseover" end="reset.mouseout"/>
                       </use>
               </g>
        </defs>

<script type="text/javascript">
var viewWidth = 1108;
var viewHeight = 184;
var sectionId = 'dynsection-1';
</script>
<script xlink:href="svgpan.js"/>
<svg id="graph" class="graph">
<g id="viewport">
<title>drake/automotive/maliput/rndf/road_geometry.h</title>
<polygon fill="#ffffff" stroke="transparent" points="-4,4 -4,-180 1104,-180 1104,4 -4,4"/>
<!-- Node84 -->
<g id="node1" class="node">
<title>Node84</title>
<polygon fill="#bfbfbf" stroke="#000000" points="470,-145.5 470,-175.5 614,-175.5 614,-145.5 470,-145.5"/>
<text text-anchor="start" x="478" y="-163.5" font-family="Helvetica,sans-Serif" font-size="10.00" fill="#000000">drake/automotive/maliput</text>
<text text-anchor="middle" x="542" y="-152.5" font-family="Helvetica,sans-Serif" font-size="10.00" fill="#000000">/rndf/road_geometry.h</text>
</g>
<!-- Node85 -->
<g id="node2" class="node">
<title>Node85</title>
<g id="a_node2"><a xlink:href="rndf_2builder_8cc.html" target="_top" xlink:title="drake/automotive/maliput\l/rndf/builder.cc">
<polygon fill="#ffffff" stroke="#000000" points="0,-.5 0,-30.5 144,-30.5 144,-.5 0,-.5"/>
<text text-anchor="start" x="8" y="-18.5" font-family="Helvetica,sans-Serif" font-size="10.00" fill="#000000">drake/automotive/maliput</text>
<text text-anchor="middle" x="72" y="-7.5" font-family="Helvetica,sans-Serif" font-size="10.00" fill="#000000">/rndf/builder.cc</text>
</a>
</g>
</g>
<!-- Node84&#45;&gt;Node85 -->
<g id="edge1" class="edge">
<title>Node84&#45;&gt;Node85</title>
<path fill="none" stroke="#191970" d="M459.6898,-157.8487C357.333,-153.2273 189.6481,-140.9101 137,-109 106.7369,-90.6575 87.0159,-52.253 77.8904,-30.8098"/>
<polygon fill="#191970" stroke="#191970" points="459.548,-161.3457 469.6911,-158.2852 459.8533,-154.3524 459.548,-161.3457"/>
</g>
<!-- Node86 -->
<g id="node3" class="node">
<title>Node86</title>
<g id="a_node3"><a xlink:href="rndf_2builder_8h.html" target="_top" xlink:title="drake/automotive/maliput\l/rndf/builder.h">
<polygon fill="#ffffff" stroke="#000000" points="146,-73 146,-103 290,-103 290,-73 146,-73"/>
<text text-anchor="start" x="154" y="-91" font-family="Helvetica,sans-Serif" font-size="10.00" fill="#000000">drake/automotive/maliput</text>
<text text-anchor="middle" x="218" y="-80" font-family="Helvetica,sans-Serif" font-size="10.00" fill="#000000">/rndf/builder.h</text>
</a>
</g>
</g>
<!-- Node84&#45;&gt;Node86 -->
<g id="edge2" class="edge">
<title>Node84&#45;&gt;Node86</title>
<path fill="none" stroke="#191970" d="M459.9111,-144.0569C412.7229,-134.3664 352.395,-121.573 299,-109 291.0812,-107.1354 282.7509,-105.0816 274.5681,-103.0107"/>
<polygon fill="#191970" stroke="#191970" points="459.275,-147.4992 469.7739,-146.0765 460.6793,-140.6415 459.275,-147.4992"/>
</g>
<!-- Node89 -->
<g id="node6" class="node">
<title>Node89</title>
<g id="a_node6"><a xlink:href="rndf_2road__geometry_8cc.html" target="_top" xlink:title="drake/automotive/maliput\l/rndf/road_geometry.cc">
<polygon fill="#ffffff" stroke="#000000" points="308,-73 308,-103 452,-103 452,-73 308,-73"/>
<text text-anchor="start" x="316" y="-91" font-family="Helvetica,sans-Serif" font-size="10.00" fill="#000000">drake/automotive/maliput</text>
<text text-anchor="middle" x="380" y="-80" font-family="Helvetica,sans-Serif" font-size="10.00" fill="#000000">/rndf/road_geometry.cc</text>
</a>
</g>
</g>
<!-- Node84&#45;&gt;Node89 -->
<g id="edge6" class="edge">
<title>Node84&#45;&gt;Node89</title>
<path fill="none" stroke="#191970" d="M499.2792,-141.3811C472.4654,-129.3811 438.3837,-114.1285 413.5235,-103.0028"/>
<polygon fill="#191970" stroke="#191970" points="497.8761,-144.5877 508.4335,-145.478 500.7356,-138.1983 497.8761,-144.5877"/>
</g>
<!-- Node90 -->
<g id="node7" class="node">
<title>Node90</title>
<g id="a_node7"><a xlink:href="junction__test_8cc.html" target="_top" xlink:title="drake/automotive/maliput\l/rndf/test/junction_test.cc">
<polygon fill="#ffffff" stroke="#000000" points="470,-73 470,-103 614,-103 614,-73 470,-73"/>
<text text-anchor="start" x="478" y="-91" font-family="Helvetica,sans-Serif" font-size="10.00" fill="#000000">drake/automotive/maliput</text>
<text text-anchor="middle" x="542" y="-80" font-family="Helvetica,sans-Serif" font-size="10.00" fill="#000000">/rndf/test/junction_test.cc</text>
</a>
</g>
</g>
<!-- Node84&#45;&gt;Node90 -->
<g id="edge7" class="edge">
<title>Node84&#45;&gt;Node90</title>
<path fill="none" stroke="#191970" d="M542,-135.3409C542,-124.5601 542,-112.3309 542,-103.0028"/>
<polygon fill="#191970" stroke="#191970" points="538.5001,-135.4779 542,-145.478 545.5001,-135.478 538.5001,-135.4779"/>
</g>
<!-- Node91 -->
<g id="node8" class="node">
<title>Node91</title>
<g id="a_node8"><a xlink:href="road__geometry__test_8cc.html" target="_top" xlink:title="drake/automotive/maliput\l/rndf/test/road_geometry\l_test.cc">
<polygon fill="#ffffff" stroke="#000000" points="632,-67.5 632,-108.5 776,-108.5 776,-67.5 632,-67.5"/>
<text text-anchor="start" x="640" y="-96.5" font-family="Helvetica,sans-Serif" font-size="10.00" fill="#000000">drake/automotive/maliput</text>
<text text-anchor="start" x="640" y="-85.5" font-family="Helvetica,sans-Serif" font-size="10.00" fill="#000000">/rndf/test/road_geometry</text>
<text text-anchor="middle" x="704" y="-74.5" font-family="Helvetica,sans-Serif" font-size="10.00" fill="#000000">_test.cc</text>
</a>
</g>
</g>
<!-- Node84&#45;&gt;Node91 -->
<g id="edge8" class="edge">
<title>Node84&#45;&gt;Node91</title>
<path fill="none" stroke="#191970" d="M584.9035,-141.2993C607.4877,-131.1923 635.1884,-118.7953 658.1897,-108.5015"/>
<polygon fill="#191970" stroke="#191970" points="583.2644,-138.1983 575.5665,-145.478 586.1239,-144.5877 583.2644,-138.1983"/>
</g>
<!-- Node92 -->
<g id="node9" class="node">
<title>Node92</title>
<g id="a_node9"><a xlink:href="segment__test_8cc.html" target="_top" xlink:title="drake/automotive/maliput\l/rndf/test/segment_test.cc">
<polygon fill="#ffffff" stroke="#000000" points="794,-73 794,-103 938,-103 938,-73 794,-73"/>
<text text-anchor="start" x="802" y="-91" font-family="Helvetica,sans-Serif" font-size="10.00" fill="#000000">drake/automotive/maliput</text>
<text text-anchor="middle" x="866" y="-80" font-family="Helvetica,sans-Serif" font-size="10.00" fill="#000000">/rndf/test/segment_test.cc</text>
</a>
</g>
</g>
<!-- Node84&#45;&gt;Node92 -->
<g id="edge9" class="edge">
<title>Node84&#45;&gt;Node92</title>
<path fill="none" stroke="#191970" d="M624.0889,-144.0569C671.2771,-134.3664 731.605,-121.573 785,-109 792.9188,-107.1354 801.2491,-105.0816 809.4319,-103.0107"/>
<polygon fill="#191970" stroke="#191970" points="623.3207,-140.6415 614.2261,-146.0765 624.725,-147.4992 623.3207,-140.6415"/>
</g>
<!-- Node93 -->
<g id="node10" class="node">
<title>Node93</title>
<g id="a_node10"><a xlink:href="spline__lane__test_8cc.html" target="_top" xlink:title="drake/automotive/maliput\l/rndf/test/spline_lane\l_test.cc">
<polygon fill="#ffffff" stroke="#000000" points="956,-67.5 956,-108.5 1100,-108.5 1100,-67.5 956,-67.5"/>
<text text-anchor="start" x="964" y="-96.5" font-family="Helvetica,sans-Serif" font-size="10.00" fill="#000000">drake/automotive/maliput</text>
<text text-anchor="start" x="964" y="-85.5" font-family="Helvetica,sans-Serif" font-size="10.00" fill="#000000">/rndf/test/spline_lane</text>
<text text-anchor="middle" x="1028" y="-74.5" font-family="Helvetica,sans-Serif" font-size="10.00" fill="#000000">_test.cc</text>
</a>
</g>
</g>
<!-- Node84&#45;&gt;Node93 -->
<g id="edge10" class="edge">
<title>Node84&#45;&gt;Node93</title>
<path fill="none" stroke="#191970" d="M624.1608,-153.1463C706.3275,-145.0676 836.0866,-130.3398 947,-109 949.8532,-108.4511 952.7549,-107.8597 955.6802,-107.2359"/>
<polygon fill="#191970" stroke="#191970" points="623.7465,-149.67 614.1327,-154.1225 624.4248,-156.6371 623.7465,-149.67"/>
</g>
<!-- Node86&#45;&gt;Node85 -->
<g id="edge3" class="edge">
<title>Node86&#45;&gt;Node85</title>
<path fill="none" stroke="#191970" d="M178.5455,-68.4079C154.5296,-56.4822 124.3239,-41.4828 102.2125,-30.5028"/>
<polygon fill="#191970" stroke="#191970" points="177.2355,-71.6651 187.7487,-72.978 180.3489,-65.3955 177.2355,-71.6651"/>
</g>
<!-- Node87 -->
<g id="node4" class="node">
<title>Node87</title>
<g id="a_node4"><a xlink:href="rndf_2loader_8cc.html" target="_top" xlink:title="drake/automotive/maliput\l/rndf/loader.cc">
<polygon fill="#ffffff" stroke="#000000" points="162,-.5 162,-30.5 306,-30.5 306,-.5 162,-.5"/>
<text text-anchor="start" x="170" y="-18.5" font-family="Helvetica,sans-Serif" font-size="10.00" fill="#000000">drake/automotive/maliput</text>
<text text-anchor="middle" x="234" y="-7.5" font-family="Helvetica,sans-Serif" font-size="10.00" fill="#000000">/rndf/loader.cc</text>
</a>
</g>
</g>
<!-- Node86&#45;&gt;Node87 -->
<g id="edge4" class="edge">
<title>Node86&#45;&gt;Node87</title>
<path fill="none" stroke="#191970" d="M223.4781,-63.1774C225.8753,-52.3151 228.609,-39.9281 230.689,-30.5028"/>
<polygon fill="#191970" stroke="#191970" points="220.0526,-62.4586 221.3152,-72.978 226.8881,-63.9672 220.0526,-62.4586"/>
</g>
<!-- Node88 -->
<g id="node5" class="node">
<title>Node88</title>
<g id="a_node5"><a xlink:href="builder__test_8cc.html" target="_top" xlink:title="drake/automotive/maliput\l/rndf/test/builder_test.cc">
<polygon fill="#ffffff" stroke="#000000" points="324,-.5 324,-30.5 468,-30.5 468,-.5 324,-.5"/>
<text text-anchor="start" x="332" y="-18.5" font-family="Helvetica,sans-Serif" font-size="10.00" fill="#000000">drake/automotive/maliput</text>
<text text-anchor="middle" x="396" y="-7.5" font-family="Helvetica,sans-Serif" font-size="10.00" fill="#000000">/rndf/test/builder_test.cc</text>
</a>
</g>
</g>
<!-- Node86&#45;&gt;Node88 -->
<g id="edge5" class="edge">
<title>Node86&#45;&gt;Node88</title>
<path fill="none" stroke="#191970" d="M264.17,-69.1948C293.7474,-57.1478 331.6114,-41.7257 359.1655,-30.5028"/>
<polygon fill="#191970" stroke="#191970" points="262.8227,-65.9643 254.8817,-72.978 265.4633,-72.4472 262.8227,-65.9643"/>
</g>
</g>
</svg>
        <g id="navigator" transform="translate(0 0)" fill="#404254">
                <rect fill="#f2f5e9" fill-opacity="0.5" stroke="#606060" stroke-width=".5" x="0" y="0" width="60" height="60"/>
                <use id="zoomplus" xlink:href="#zoomPlus" x="17" y="9" onmousedown="handleZoom(evt,'in')"/>
                <use id="zoomminus" xlink:href="#zoomMin" x="42" y="9" onmousedown="handleZoom(evt,'out')"/>
                <use id="reset" xlink:href="#resetDef" x="30" y="36" onmousedown="handleReset()"/>
                <g id="arrowUp" xlink:href="#dirArrow" transform="translate(30 24)" onmousedown="handlePan(0,-1)">
                  <use xlink:href="#rim" fill="#404040">
                        <set attributeName="fill" to="#808080" begin="arrowUp.mouseover" end="arrowUp.mouseout"/>
                  </use>
                  <path fill="none" stroke="white" stroke-width="1.5" d="M0,-3.0v7 M-2.5,-0.5L0,-3.0L2.5,-0.5"/>
                </g>
                <g id="arrowRight" xlink:href="#dirArrow" transform="rotate(90) translate(36 -43)" onmousedown="handlePan(1,0)">
                  <use xlink:href="#rim" fill="#404040">
                        <set attributeName="fill" to="#808080" begin="arrowRight.mouseover" end="arrowRight.mouseout"/>
                  </use>
                  <path fill="none" stroke="white" stroke-width="1.5" d="M0,-3.0v7 M-2.5,-0.5L0,-3.0L2.5,-0.5"/>
                </g>
                <g id="arrowDown" xlink:href="#dirArrow" transform="rotate(180) translate(-30 -48)" onmousedown="handlePan(0,1)">
                  <use xlink:href="#rim" fill="#404040">
                        <set attributeName="fill" to="#808080" begin="arrowDown.mouseover" end="arrowDown.mouseout"/>
                  </use>
                  <path fill="none" stroke="white" stroke-width="1.5" d="M0,-3.0v7 M-2.5,-0.5L0,-3.0L2.5,-0.5"/>
                </g>
                <g id="arrowLeft" xlink:href="#dirArrow" transform="rotate(270) translate(-36 17)" onmousedown="handlePan(-1,0)">
                  <use xlink:href="#rim" fill="#404040">
                        <set attributeName="fill" to="#808080" begin="arrowLeft.mouseover" end="arrowLeft.mouseout"/>
                  </use>
                  <path fill="none" stroke="white" stroke-width="1.5" d="M0,-3.0v7 M-2.5,-0.5L0,-3.0L2.5,-0.5"/>
                </g>
        </g>
        <svg viewBox="0 0 15 15" width="100%" height="30px" preserveAspectRatio="xMaxYMin meet">
         <g id="arrow_out" transform="scale(0.3 0.3)">
          <a xlink:href="rndf_2road__geometry_8h__dep__incl_org.svg" target="_base">
           <rect id="button" ry="5" rx="5" y="6" x="6" height="38" width="38"
                fill="#f2f5e9" fill-opacity="0.5" stroke="#606060" stroke-width="1.0"/>
           <path id="arrow"
             d="M 11.500037,31.436501 C 11.940474,20.09759 22.043105,11.32322 32.158766,21.979434 L 37.068811,17.246167 C 37.068811,17.246167 37.088388,32 37.088388,32 L 22.160133,31.978069 C 22.160133,31.978069 26.997745,27.140456 26.997745,27.140456 C 18.528582,18.264221 13.291696,25.230495 11.500037,31.436501 z"
             style="fill:#404040;"/>
          </a>
         </g>
        </svg>
</svg>
