<?xml version="1.0" encoding="UTF-8" standalone="no"?>
<!DOCTYPE svg PUBLIC "-//W3C//DTD SVG 1.1//EN"
 "http://www.w3.org/Graphics/SVG/1.1/DTD/svg11.dtd">
<!-- Generated by graphviz version 2.40.1 (20161225.0304)
 -->
<!-- Title: drake/automotive/maliput/rndf/connection.cc Pages: 1 -->
<!--zoomable 296 -->
<svg id="main" version="1.1" xmlns="http://www.w3.org/2000/svg" xmlns:xlink="http://www.w3.org/1999/xlink" xml:space="preserve" onload="init(evt)">
<style type="text/css"><![CDATA[
.edge:hover path { stroke: red; }
.edge:hover polygon { stroke: red; fill: red; }
]]></style>
<script type="text/javascript"><![CDATA[
var edges = document.getElementsByTagName('g');
if (edges && edges.length) {
  for (var i=0;i<edges.length;i++) {
    if (edges[i].id.substr(0,4)=='edge') {
      edges[i].setAttribute('class','edge');
    }
  }
}
]]></script>
        <defs>
                <circle id="rim" cx="0" cy="0" r="7"/>
                <circle id="rim2" cx="0" cy="0" r="3.5"/>
                <g id="zoomPlus">
                        <use xlink:href="#rim" fill="#404040">
                                <set attributeName="fill" to="#808080" begin="zoomplus.mouseover" end="zoomplus.mouseout"/>
                        </use>
                        <path d="M-4,0h8M0,-4v8" fill="none" stroke="white" stroke-width="1.5" pointer-events="none"/>
                </g>
                <g id="zoomMin">
                        <use xlink:href="#rim" fill="#404040">
                                <set attributeName="fill" to="#808080" begin="zoomminus.mouseover" end="zoomminus.mouseout"/>
                        </use>
                        <path d="M-4,0h8" fill="none" stroke="white" stroke-width="1.5" pointer-events="none"/>
                </g>
                <g id="dirArrow">
                        <path fill="none" stroke="white" stroke-width="1.5" d="M0,-3.0v7 M-2.5,-0.5L0,-3.0L2.5,-0.5"/>
                </g>
               <g id="resetDef">
                       <use xlink:href="#rim2" fill="#404040">
                               <set attributeName="fill" to="#808080" begin="reset.mouseover" end="reset.mouseout"/>
                       </use>
               </g>
        </defs>

<script type="text/javascript">
var viewWidth = 745;
var viewHeight = 296;
var sectionId = 'dynsection-0';
</script>
<script xlink:href="svgpan.js"/>
<svg id="graph" class="graph">
<g id="viewport">
<title>drake/automotive/maliput/rndf/connection.cc</title>
<polygon fill="#ffffff" stroke="transparent" points="-4,4 -4,-292 741,-292 741,4 -4,4"/>
<!-- Node0 -->
<g id="node1" class="node">
<title>Node0</title>
<polygon fill="#bfbfbf" stroke="#000000" points="172.5,-257.5 172.5,-287.5 316.5,-287.5 316.5,-257.5 172.5,-257.5"/>
<text text-anchor="start" x="180.5" y="-275.5" font-family="Helvetica,sans-Serif" font-size="10.00" fill="#000000">drake/automotive/maliput</text>
<text text-anchor="middle" x="244.5" y="-264.5" font-family="Helvetica,sans-Serif" font-size="10.00" fill="#000000">/rndf/connection.cc</text>
</g>
<!-- Node1 -->
<g id="node2" class="node">
<title>Node1</title>
<g id="a_node2"><a xlink:href="rndf_2connection_8h.html" target="_top" xlink:title="drake/automotive/maliput\l/rndf/connection.h">
<polygon fill="#ffffff" stroke="#000000" points="172.5,-190.5 172.5,-220.5 316.5,-220.5 316.5,-190.5 172.5,-190.5"/>
<text text-anchor="start" x="180.5" y="-208.5" font-family="Helvetica,sans-Serif" font-size="10.00" fill="#000000">drake/automotive/maliput</text>
<text text-anchor="middle" x="244.5" y="-197.5" font-family="Helvetica,sans-Serif" font-size="10.00" fill="#000000">/rndf/connection.h</text>
</a>
</g>
</g>
<!-- Node0&#45;&gt;Node1 -->
<g id="edge1" class="edge">
<title>Node0&#45;&gt;Node1</title>
<path fill="none" stroke="#191970" d="M244.5,-257.2967C244.5,-249.5013 244.5,-239.7991 244.5,-230.9064"/>
<polygon fill="#191970" stroke="#191970" points="248.0001,-230.6431 244.5,-220.6432 241.0001,-230.6432 248.0001,-230.6431"/>
</g>
<!-- Node2 -->
<g id="node3" class="node">
<title>Node2</title>
<polygon fill="#ffffff" stroke="#bfbfbf" points="34.5,-129 34.5,-148 78.5,-148 78.5,-129 34.5,-129"/>
<text text-anchor="middle" x="56.5" y="-136" font-family="Helvetica,sans-Serif" font-size="10.00" fill="#000000">string</text>
</g>
<!-- Node1&#45;&gt;Node2 -->
<g id="edge2" class="edge">
<title>Node1&#45;&gt;Node2</title>
<path fill="none" stroke="#191970" d="M196.9092,-190.4576C166.7697,-180.6652 127.0943,-167.2836 92.5,-154 90.8841,-153.3795 89.2339,-152.7293 87.5721,-152.0614"/>
<polygon fill="#191970" stroke="#191970" points="88.6649,-148.7256 78.087,-148.1264 85.9825,-155.1912 88.6649,-148.7256"/>
</g>
<!-- Node3 -->
<g id="node4" class="node">
<title>Node3</title>
<polygon fill="#ffffff" stroke="#bfbfbf" points="0,-62 0,-81 47,-81 47,-62 0,-62"/>
<text text-anchor="middle" x="23.5" y="-69" font-family="Helvetica,sans-Serif" font-size="10.00" fill="#000000">vector</text>
</g>
<!-- Node1&#45;&gt;Node3 -->
<g id="edge3" class="edge">
<title>Node1&#45;&gt;Node3</title>
<path fill="none" stroke="#191970" d="M212.0803,-190.3102C191.9805,-180.5659 165.8254,-167.289 143.5,-154 107.6698,-132.6724 68.1993,-104.5827 44.651,-87.2963"/>
<polygon fill="#191970" stroke="#191970" points="46.5696,-84.3623 36.4463,-81.2368 42.411,-89.9931 46.5696,-84.3623"/>
</g>
<!-- Node4 -->
<g id="node5" class="node">
<title>Node4</title>
<polygon fill="#ffffff" stroke="#bfbfbf" points="65,-62 65,-81 202,-81 202,-62 65,-62"/>
<text text-anchor="middle" x="133.5" y="-69" font-family="Helvetica,sans-Serif" font-size="10.00" fill="#000000">ignition/math/Vector3.hh</text>
</g>
<!-- Node1&#45;&gt;Node4 -->
<g id="edge4" class="edge">
<title>Node1&#45;&gt;Node4</title>
<path fill="none" stroke="#191970" d="M210.4039,-190.3229C194.2925,-181.6769 175.917,-169.4616 163.5,-154 148.6428,-135.4998 140.761,-108.9888 136.8653,-91.0529"/>
<polygon fill="#191970" stroke="#191970" points="140.2814,-90.2846 134.9281,-81.1417 133.4114,-91.6274 140.2814,-90.2846"/>
</g>
<!-- Node5 -->
<g id="node6" class="node">
<title>Node5</title>
<polygon fill="#ffffff" stroke="#bfbfbf" points="283,-62 283,-81 420,-81 420,-62 283,-62"/>
<text text-anchor="middle" x="351.5" y="-69" font-family="Helvetica,sans-Serif" font-size="10.00" fill="#000000">ignition/rndf/UniqueId.hh</text>
</g>
<!-- Node1&#45;&gt;Node5 -->
<g id="edge5" class="edge">
<title>Node1&#45;&gt;Node5</title>
<path fill="none" stroke="#191970" d="M279.2957,-190.3343C295.3783,-181.756 313.5235,-169.5957 325.5,-154 339.7401,-135.4567 346.276,-108.9551 349.2116,-91.0331"/>
<polygon fill="#191970" stroke="#191970" points="352.6772,-91.5221 350.6109,-81.1307 345.7461,-90.5426 352.6772,-91.5221"/>
</g>
<!-- Node6 -->
<g id="node7" class="node">
<title>Node6</title>
<g id="a_node7"><a xlink:href="directed__waypoint_8h.html" target="_top" xlink:title="drake/automotive/maliput\l/rndf/directed_waypoint.h">
<polygon fill="#ffffff" stroke="#000000" points="172.5,-123.5 172.5,-153.5 316.5,-153.5 316.5,-123.5 172.5,-123.5"/>
<text text-anchor="start" x="180.5" y="-141.5" font-family="Helvetica,sans-Serif" font-size="10.00" fill="#000000">drake/automotive/maliput</text>
<text text-anchor="middle" x="244.5" y="-130.5" font-family="Helvetica,sans-Serif" font-size="10.00" fill="#000000">/rndf/directed_waypoint.h</text>
</a>
</g>
</g>
<!-- Node1&#45;&gt;Node6 -->
<g id="edge6" class="edge">
<title>Node1&#45;&gt;Node6</title>
<path fill="none" stroke="#191970" d="M244.5,-190.2967C244.5,-182.5013 244.5,-172.7991 244.5,-163.9064"/>
<polygon fill="#191970" stroke="#191970" points="248.0001,-163.6431 244.5,-153.6432 241.0001,-163.6432 248.0001,-163.6431"/>
</g>
<!-- Node8 -->
<g id="node9" class="node">
<title>Node8</title>
<g id="a_node9"><a xlink:href="drake__copyable_8h.html" target="_top" xlink:title="Provides careful macros to selectively enable or disable the special member functions for copy&#45;constr...">
<polygon fill="#ffffff" stroke="#000000" points="438,-56.5 438,-86.5 559,-86.5 559,-56.5 438,-56.5"/>
<text text-anchor="start" x="446" y="-74.5" font-family="Helvetica,sans-Serif" font-size="10.00" fill="#000000">drake/common/drake</text>
<text text-anchor="middle" x="498.5" y="-63.5" font-family="Helvetica,sans-Serif" font-size="10.00" fill="#000000">_copyable.h</text>
</a>
</g>
</g>
<!-- Node1&#45;&gt;Node8 -->
<g id="edge12" class="edge">
<title>Node1&#45;&gt;Node8</title>
<path fill="none" stroke="#191970" d="M275.2958,-190.4667C295.8424,-180.3474 323.4058,-166.6002 347.5,-154 387.2032,-133.2369 432.215,-108.4848 462.6869,-91.5448"/>
<polygon fill="#191970" stroke="#191970" points="464.6206,-94.4741 471.6549,-86.5514 461.2152,-88.3582 464.6206,-94.4741"/>
</g>
<!-- Node9 -->
<g id="node10" class="node">
<title>Node9</title>
<g id="a_node10"><a xlink:href="drake__throw_8h.html" target="_top" xlink:title="Provides a convenient wrapper to throw an exception when a condition is unmet. ">
<polygon fill="#ffffff" stroke="#000000" points="527,-123.5 527,-153.5 648,-153.5 648,-123.5 527,-123.5"/>
<text text-anchor="start" x="535" y="-141.5" font-family="Helvetica,sans-Serif" font-size="10.00" fill="#000000">drake/common/drake</text>
<text text-anchor="middle" x="587.5" y="-130.5" font-family="Helvetica,sans-Serif" font-size="10.00" fill="#000000">_throw.h</text>
</a>
</g>
</g>
<!-- Node1&#45;&gt;Node9 -->
<g id="edge13" class="edge">
<title>Node1&#45;&gt;Node9</title>
<path fill="none" stroke="#191970" d="M316.8224,-191.3729C375.7206,-179.868 458.3965,-163.7185 516.841,-152.3022"/>
<polygon fill="#191970" stroke="#191970" points="517.5882,-155.7225 526.7317,-150.3702 516.2462,-148.8523 517.5882,-155.7225"/>
</g>
<!-- Node6&#45;&gt;Node3 -->
<g id="edge8" class="edge">
<title>Node6&#45;&gt;Node3</title>
<path fill="none" stroke="#191970" d="M177.5097,-123.4555C140.9339,-114.4449 95.1484,-101.8581 55.5,-87 54.091,-86.472 52.6603,-85.904 51.2246,-85.3085"/>
<polygon fill="#191970" stroke="#191970" points="52.4156,-82.0068 41.8588,-81.1094 49.5518,-88.3942 52.4156,-82.0068"/>
</g>
<!-- Node6&#45;&gt;Node4 -->
<g id="edge9" class="edge">
<title>Node6&#45;&gt;Node4</title>
<path fill="none" stroke="#191970" d="M219.5894,-123.4639C201.2167,-112.3741 176.34,-97.3584 158.0526,-86.32"/>
<polygon fill="#191970" stroke="#191970" points="159.781,-83.2751 149.411,-81.1039 156.1636,-89.268 159.781,-83.2751"/>
</g>
<!-- Node6&#45;&gt;Node5 -->
<g id="edge10" class="edge">
<title>Node6&#45;&gt;Node5</title>
<path fill="none" stroke="#191970" d="M268.5129,-123.4639C286.1426,-112.4247 309.9849,-97.4954 327.5903,-86.4715"/>
<polygon fill="#191970" stroke="#191970" points="329.5444,-89.3775 336.1624,-81.1039 325.8293,-83.4446 329.5444,-89.3775"/>
</g>
<!-- Node7 -->
<g id="node8" class="node">
<title>Node7</title>
<polygon fill="#ffffff" stroke="#bfbfbf" points="220,-62 220,-81 265,-81 265,-62 220,-62"/>
<text text-anchor="middle" x="242.5" y="-69" font-family="Helvetica,sans-Serif" font-size="10.00" fill="#000000">utility</text>
</g>
<!-- Node6&#45;&gt;Node7 -->
<g id="edge7" class="edge">
<title>Node6&#45;&gt;Node7</title>
<path fill="none" stroke="#191970" d="M244.0462,-123.2967C243.7618,-113.7699 243.3924,-101.3954 243.086,-91.1306"/>
<polygon fill="#191970" stroke="#191970" points="246.5821,-90.9461 242.7852,-81.055 239.5853,-91.155 246.5821,-90.9461"/>
</g>
<!-- Node6&#45;&gt;Node8 -->
<g id="edge11" class="edge">
<title>Node6&#45;&gt;Node8</title>
<path fill="none" stroke="#191970" d="M301.5026,-123.4639C340.0128,-113.3057 391.0106,-99.8535 431.469,-89.1814"/>
<polygon fill="#191970" stroke="#191970" points="432.4723,-92.5366 441.2488,-86.6017 430.6868,-85.7681 432.4723,-92.5366"/>
</g>
<!-- Node10 -->
<g id="node11" class="node">
<title>Node10</title>
<polygon fill="#ffffff" stroke="#bfbfbf" points="597,-.5 597,-19.5 666,-19.5 666,-.5 597,-.5"/>
<text text-anchor="middle" x="631.5" y="-7.5" font-family="Helvetica,sans-Serif" font-size="10.00" fill="#000000">type_traits</text>
</g>
<!-- Node9&#45;&gt;Node10 -->
<g id="edge14" class="edge">
<title>Node9&#45;&gt;Node10</title>
<path fill="none" stroke="#191970" d="M590.043,-123.2668C593.1118,-106.456 598.9482,-78.764 607.5,-56 611.0519,-46.5453 616.0964,-36.5483 620.6447,-28.2978"/>
<polygon fill="#191970" stroke="#191970" points="623.7192,-29.9717 625.6369,-19.5519 617.6399,-26.5016 623.7192,-29.9717"/>
</g>
<!-- Node11 -->
<g id="node12" class="node">
<title>Node11</title>
<g id="a_node12"><a xlink:href="drake__assert_8h.html" target="_top" xlink:title="Provides Drake&#39;s assertion implementation. ">
<polygon fill="#ffffff" stroke="#000000" points="616,-56.5 616,-86.5 737,-86.5 737,-56.5 616,-56.5"/>
<text text-anchor="start" x="624" y="-74.5" font-family="Helvetica,sans-Serif" font-size="10.00" fill="#000000">drake/common/drake</text>
<text text-anchor="middle" x="676.5" y="-63.5" font-family="Helvetica,sans-Serif" font-size="10.00" fill="#000000">_assert.h</text>
</a>
</g>
</g>
<!-- Node9&#45;&gt;Node11 -->
<g id="edge15" class="edge">
<title>Node9&#45;&gt;Node11</title>
<path fill="none" stroke="#191970" d="M607.6955,-123.2967C619.6436,-114.302 634.9639,-102.7687 648.1138,-92.8694"/>
<polygon fill="#191970" stroke="#191970" points="650.5002,-95.4538 656.3844,-86.6432 646.2902,-89.8613 650.5002,-95.4538"/>
</g>
<!-- Node11&#45;&gt;Node10 -->
<g id="edge16" class="edge">
<title>Node11&#45;&gt;Node10</title>
<path fill="none" stroke="#191970" d="M665.3764,-56.2977C659.1299,-47.7609 651.296,-37.0545 644.7353,-28.0883"/>
<polygon fill="#191970" stroke="#191970" points="647.4348,-25.8505 638.7051,-19.8469 641.7856,-29.984 647.4348,-25.8505"/>
</g>
</g>
</svg>
        <g id="navigator" transform="translate(0 0)" fill="#404254">
                <rect fill="#f2f5e9" fill-opacity="0.5" stroke="#606060" stroke-width=".5" x="0" y="0" width="60" height="60"/>
                <use id="zoomplus" xlink:href="#zoomPlus" x="17" y="9" onmousedown="handleZoom(evt,'in')"/>
                <use id="zoomminus" xlink:href="#zoomMin" x="42" y="9" onmousedown="handleZoom(evt,'out')"/>
                <use id="reset" xlink:href="#resetDef" x="30" y="36" onmousedown="handleReset()"/>
                <g id="arrowUp" xlink:href="#dirArrow" transform="translate(30 24)" onmousedown="handlePan(0,-1)">
                  <use xlink:href="#rim" fill="#404040">
                        <set attributeName="fill" to="#808080" begin="arrowUp.mouseover" end="arrowUp.mouseout"/>
                  </use>
                  <path fill="none" stroke="white" stroke-width="1.5" d="M0,-3.0v7 M-2.5,-0.5L0,-3.0L2.5,-0.5"/>
                </g>
                <g id="arrowRight" xlink:href="#dirArrow" transform="rotate(90) translate(36 -43)" onmousedown="handlePan(1,0)">
                  <use xlink:href="#rim" fill="#404040">
                        <set attributeName="fill" to="#808080" begin="arrowRight.mouseover" end="arrowRight.mouseout"/>
                  </use>
                  <path fill="none" stroke="white" stroke-width="1.5" d="M0,-3.0v7 M-2.5,-0.5L0,-3.0L2.5,-0.5"/>
                </g>
                <g id="arrowDown" xlink:href="#dirArrow" transform="rotate(180) translate(-30 -48)" onmousedown="handlePan(0,1)">
                  <use xlink:href="#rim" fill="#404040">
                        <set attributeName="fill" to="#808080" begin="arrowDown.mouseover" end="arrowDown.mouseout"/>
                  </use>
                  <path fill="none" stroke="white" stroke-width="1.5" d="M0,-3.0v7 M-2.5,-0.5L0,-3.0L2.5,-0.5"/>
                </g>
                <g id="arrowLeft" xlink:href="#dirArrow" transform="rotate(270) translate(-36 17)" onmousedown="handlePan(-1,0)">
                  <use xlink:href="#rim" fill="#404040">
                        <set attributeName="fill" to="#808080" begin="arrowLeft.mouseover" end="arrowLeft.mouseout"/>
                  </use>
                  <path fill="none" stroke="white" stroke-width="1.5" d="M0,-3.0v7 M-2.5,-0.5L0,-3.0L2.5,-0.5"/>
                </g>
        </g>
        <svg viewBox="0 0 15 15" width="100%" height="30px" preserveAspectRatio="xMaxYMin meet">
         <g id="arrow_out" transform="scale(0.3 0.3)">
          <a xlink:href="rndf_2connection_8cc__incl_org.svg" target="_base">
           <rect id="button" ry="5" rx="5" y="6" x="6" height="38" width="38"
                fill="#f2f5e9" fill-opacity="0.5" stroke="#606060" stroke-width="1.0"/>
           <path id="arrow"
             d="M 11.500037,31.436501 C 11.940474,20.09759 22.043105,11.32322 32.158766,21.979434 L 37.068811,17.246167 C 37.068811,17.246167 37.088388,32 37.088388,32 L 22.160133,31.978069 C 22.160133,31.978069 26.997745,27.140456 26.997745,27.140456 C 18.528582,18.264221 13.291696,25.230495 11.500037,31.436501 z"
             style="fill:#404040;"/>
          </a>
         </g>
        </svg>
</svg>
