<?xml version="1.0" encoding="UTF-8" standalone="no"?>
<!DOCTYPE svg PUBLIC "-//W3C//DTD SVG 1.1//EN"
 "http://www.w3.org/Graphics/SVG/1.1/DTD/svg11.dtd">
<!-- Generated by graphviz version 2.40.1 (20161225.0304)
 -->
<!-- Title: drake/automotive/road_odometry.h Pages: 1 -->
<svg width="1139pt" height="318pt"
 viewBox="0.00 0.00 1139.00 318.00" xmlns="http://www.w3.org/2000/svg" xmlns:xlink="http://www.w3.org/1999/xlink">
<g id="graph0" class="graph" transform="scale(1 1) rotate(0) translate(4 314)">
<title>drake/automotive/road_odometry.h</title>
<polygon fill="#ffffff" stroke="transparent" points="-4,4 -4,-314 1135,-314 1135,4 -4,4"/>
<!-- Node77 -->
<g id="node1" class="node">
<title>Node77</title>
<polygon fill="#bfbfbf" stroke="#000000" points="746,-279.5 746,-309.5 874,-309.5 874,-279.5 746,-279.5"/>
<text text-anchor="start" x="754" y="-297.5" font-family="Helvetica,sans-Serif" font-size="10.00" fill="#000000">drake/automotive/road</text>
<text text-anchor="middle" x="810" y="-286.5" font-family="Helvetica,sans-Serif" font-size="10.00" fill="#000000">_odometry.h</text>
</g>
<!-- Node78 -->
<g id="node2" class="node">
<title>Node78</title>
<g id="a_node2"><a xlink:href="mobil__planner_8h.html" target="_top" xlink:title="drake/automotive/mobil\l_planner.h">
<polygon fill="#ffffff" stroke="#000000" points="175,-145.5 175,-175.5 309,-175.5 309,-145.5 175,-145.5"/>
<text text-anchor="start" x="183" y="-163.5" font-family="Helvetica,sans-Serif" font-size="10.00" fill="#000000">drake/automotive/mobil</text>
<text text-anchor="middle" x="242" y="-152.5" font-family="Helvetica,sans-Serif" font-size="10.00" fill="#000000">_planner.h</text>
</a>
</g>
</g>
<!-- Node77&#45;&gt;Node78 -->
<g id="edge1" class="edge">
<title>Node77&#45;&gt;Node78</title>
<path fill="none" stroke="#191970" d="M736.1104,-279.2442C688.8133,-269.3145 626.1874,-255.8615 571,-243 475.5128,-220.7465 365.064,-192.5418 299.5071,-175.5405"/>
<polygon fill="#191970" stroke="#191970" points="735.4571,-282.6833 745.9623,-281.3082 736.8924,-275.832 735.4571,-282.6833"/>
</g>
<!-- Node85 -->
<g id="node9" class="node">
<title>Node85</title>
<g id="a_node9"><a xlink:href="pose__selector_8h.html" target="_top" xlink:title="drake/automotive/pose\l_selector.h">
<polygon fill="#ffffff" stroke="#000000" points="580,-212.5 580,-242.5 710,-242.5 710,-212.5 580,-212.5"/>
<text text-anchor="start" x="588" y="-230.5" font-family="Helvetica,sans-Serif" font-size="10.00" fill="#000000">drake/automotive/pose</text>
<text text-anchor="middle" x="645" y="-219.5" font-family="Helvetica,sans-Serif" font-size="10.00" fill="#000000">_selector.h</text>
</a>
</g>
</g>
<!-- Node77&#45;&gt;Node85 -->
<g id="edge8" class="edge">
<title>Node77&#45;&gt;Node85</title>
<path fill="none" stroke="#191970" d="M763.4298,-275.5897C737.7245,-265.1518 706.2358,-252.3654 682.1907,-242.6017"/>
<polygon fill="#191970" stroke="#191970" points="762.3887,-278.9444 772.9708,-279.4639 765.0223,-272.4587 762.3887,-278.9444"/>
</g>
<!-- Node90 -->
<g id="node14" class="node">
<title>Node90</title>
<g id="a_node14"><a xlink:href="automotive__py_8cc.html" target="_top" xlink:title="drake/bindings/pydrake\l/automotive_py.cc">
<polygon fill="#ffffff" stroke="#000000" points="807.5,-78.5 807.5,-108.5 938.5,-108.5 938.5,-78.5 807.5,-78.5"/>
<text text-anchor="start" x="815.5" y="-96.5" font-family="Helvetica,sans-Serif" font-size="10.00" fill="#000000">drake/bindings/pydrake</text>
<text text-anchor="middle" x="873" y="-85.5" font-family="Helvetica,sans-Serif" font-size="10.00" fill="#000000">/automotive_py.cc</text>
</a>
</g>
</g>
<!-- Node77&#45;&gt;Node90 -->
<g id="edge21" class="edge">
<title>Node77&#45;&gt;Node90</title>
<path fill="none" stroke="#191970" d="M851.2478,-274.4031C886.3783,-254.7457 934.4801,-221.1826 956,-176 961.9245,-163.5611 962.6986,-157.0397 956,-145 946.8481,-128.5509 930.0283,-116.6841 913.9108,-108.5184"/>
<polygon fill="#191970" stroke="#191970" points="849.2832,-271.4873 842.1688,-279.3381 852.6263,-277.6374 849.2832,-271.4873"/>
</g>
<!-- Node93 -->
<g id="node17" class="node">
<title>Node93</title>
<g id="a_node17"><a xlink:href="road__odometry_8cc.html" target="_top" xlink:title="drake/automotive/road\l_odometry.cc">
<polygon fill="#ffffff" stroke="#000000" points="1003,-212.5 1003,-242.5 1131,-242.5 1131,-212.5 1003,-212.5"/>
<text text-anchor="start" x="1011" y="-230.5" font-family="Helvetica,sans-Serif" font-size="10.00" fill="#000000">drake/automotive/road</text>
<text text-anchor="middle" x="1067" y="-219.5" font-family="Helvetica,sans-Serif" font-size="10.00" fill="#000000">_odometry.cc</text>
</a>
</g>
</g>
<!-- Node77&#45;&gt;Node93 -->
<g id="edge20" class="edge">
<title>Node77&#45;&gt;Node93</title>
<path fill="none" stroke="#191970" d="M877.5588,-276.8874C918.449,-266.2273 970.0533,-252.774 1009.0726,-242.6017"/>
<polygon fill="#191970" stroke="#191970" points="876.4694,-273.5543 867.6758,-279.4639 878.2354,-280.3279 876.4694,-273.5543"/>
</g>
<!-- Node79 -->
<g id="node3" class="node">
<title>Node79</title>
<g id="a_node3"><a xlink:href="automotive__simulator_8h.html" target="_top" xlink:title="drake/automotive/automotive\l_simulator.h">
<polygon fill="#ffffff" stroke="#000000" points="297.5,-78.5 297.5,-108.5 460.5,-108.5 460.5,-78.5 297.5,-78.5"/>
<text text-anchor="start" x="305.5" y="-96.5" font-family="Helvetica,sans-Serif" font-size="10.00" fill="#000000">drake/automotive/automotive</text>
<text text-anchor="middle" x="379" y="-85.5" font-family="Helvetica,sans-Serif" font-size="10.00" fill="#000000">_simulator.h</text>
</a>
</g>
</g>
<!-- Node78&#45;&gt;Node79 -->
<g id="edge2" class="edge">
<title>Node78&#45;&gt;Node79</title>
<path fill="none" stroke="#191970" d="M281.7672,-141.0518C302.8184,-130.7567 328.2914,-118.2991 347.8831,-108.7177"/>
<polygon fill="#191970" stroke="#191970" points="280.1911,-137.9264 272.7455,-145.4639 283.2664,-144.2147 280.1911,-137.9264"/>
</g>
<!-- Node83 -->
<g id="node7" class="node">
<title>Node83</title>
<g id="a_node7"><a xlink:href="mobil__planner_8cc.html" target="_top" xlink:title="drake/automotive/mobil\l_planner.cc">
<polygon fill="#ffffff" stroke="#000000" points="0,-78.5 0,-108.5 134,-108.5 134,-78.5 0,-78.5"/>
<text text-anchor="start" x="8" y="-96.5" font-family="Helvetica,sans-Serif" font-size="10.00" fill="#000000">drake/automotive/mobil</text>
<text text-anchor="middle" x="67" y="-85.5" font-family="Helvetica,sans-Serif" font-size="10.00" fill="#000000">_planner.cc</text>
</a>
</g>
</g>
<!-- Node78&#45;&gt;Node83 -->
<g id="edge6" class="edge">
<title>Node78&#45;&gt;Node83</title>
<path fill="none" stroke="#191970" d="M193.3265,-141.865C165.9333,-131.3773 132.1717,-118.4515 106.4447,-108.6017"/>
<polygon fill="#191970" stroke="#191970" points="192.1362,-145.157 202.7266,-145.4639 194.6391,-138.6197 192.1362,-145.157"/>
</g>
<!-- Node84 -->
<g id="node8" class="node">
<title>Node84</title>
<g id="a_node8"><a xlink:href="mobil__planner__test_8cc.html" target="_top" xlink:title="drake/automotive/test\l/mobil_planner_test.cc">
<polygon fill="#ffffff" stroke="#000000" points="152.5,-78.5 152.5,-108.5 279.5,-108.5 279.5,-78.5 152.5,-78.5"/>
<text text-anchor="start" x="160.5" y="-96.5" font-family="Helvetica,sans-Serif" font-size="10.00" fill="#000000">drake/automotive/test</text>
<text text-anchor="middle" x="216" y="-85.5" font-family="Helvetica,sans-Serif" font-size="10.00" fill="#000000">/mobil_planner_test.cc</text>
</a>
</g>
</g>
<!-- Node78&#45;&gt;Node84 -->
<g id="edge7" class="edge">
<title>Node78&#45;&gt;Node84</title>
<path fill="none" stroke="#191970" d="M232.4546,-135.9021C228.9106,-126.7696 224.9973,-116.6854 221.8765,-108.6432"/>
<polygon fill="#191970" stroke="#191970" points="229.2195,-137.2402 236.1002,-145.2967 235.7453,-134.7078 229.2195,-137.2402"/>
</g>
<!-- Node80 -->
<g id="node4" class="node">
<title>Node80</title>
<g id="a_node4"><a xlink:href="automotive__demo_8cc.html" target="_top" xlink:title="drake/automotive/automotive\l_demo.cc">
<polygon fill="#ffffff" stroke="#000000" points="106.5,-6 106.5,-36 269.5,-36 269.5,-6 106.5,-6"/>
<text text-anchor="start" x="114.5" y="-24" font-family="Helvetica,sans-Serif" font-size="10.00" fill="#000000">drake/automotive/automotive</text>
<text text-anchor="middle" x="188" y="-13" font-family="Helvetica,sans-Serif" font-size="10.00" fill="#000000">_demo.cc</text>
</a>
</g>
</g>
<!-- Node79&#45;&gt;Node80 -->
<g id="edge3" class="edge">
<title>Node79&#45;&gt;Node80</title>
<path fill="none" stroke="#191970" d="M329.8697,-74.8511C298.0725,-62.7814 257.2191,-47.2743 227.5246,-36.0028"/>
<polygon fill="#191970" stroke="#191970" points="328.8334,-78.2013 339.4247,-78.478 331.3176,-71.6569 328.8334,-78.2013"/>
</g>
<!-- Node81 -->
<g id="node5" class="node">
<title>Node81</title>
<g id="a_node5"><a xlink:href="automotive__simulator_8cc.html" target="_top" xlink:title="drake/automotive/automotive\l_simulator.cc">
<polygon fill="#ffffff" stroke="#000000" points="434.5,-6 434.5,-36 597.5,-36 597.5,-6 434.5,-6"/>
<text text-anchor="start" x="442.5" y="-24" font-family="Helvetica,sans-Serif" font-size="10.00" fill="#000000">drake/automotive/automotive</text>
<text text-anchor="middle" x="516" y="-13" font-family="Helvetica,sans-Serif" font-size="10.00" fill="#000000">_simulator.cc</text>
</a>
</g>
</g>
<!-- Node79&#45;&gt;Node81 -->
<g id="edge4" class="edge">
<title>Node79&#45;&gt;Node81</title>
<path fill="none" stroke="#191970" d="M416.3219,-73.7494C438.8085,-61.8495 466.9933,-46.9342 487.6499,-36.0028"/>
<polygon fill="#191970" stroke="#191970" points="414.5881,-70.707 407.3865,-78.478 417.8623,-76.894 414.5881,-70.707"/>
</g>
<!-- Node82 -->
<g id="node6" class="node">
<title>Node82</title>
<g id="a_node6"><a xlink:href="automotive__simulator__test_8cc.html" target="_top" xlink:title="drake/automotive/test\l/automotive_simulator\l_test.cc">
<polygon fill="#ffffff" stroke="#000000" points="288,-.5 288,-41.5 416,-41.5 416,-.5 288,-.5"/>
<text text-anchor="start" x="296" y="-29.5" font-family="Helvetica,sans-Serif" font-size="10.00" fill="#000000">drake/automotive/test</text>
<text text-anchor="start" x="296" y="-18.5" font-family="Helvetica,sans-Serif" font-size="10.00" fill="#000000">/automotive_simulator</text>
<text text-anchor="middle" x="352" y="-7.5" font-family="Helvetica,sans-Serif" font-size="10.00" fill="#000000">_test.cc</text>
</a>
</g>
</g>
<!-- Node79&#45;&gt;Node82 -->
<g id="edge5" class="edge">
<title>Node79&#45;&gt;Node82</title>
<path fill="none" stroke="#191970" d="M369.8682,-68.9793C366.5415,-60.0467 362.8183,-50.049 359.635,-41.5015"/>
<polygon fill="#191970" stroke="#191970" points="366.6356,-70.3282 373.4056,-78.478 373.1955,-67.8852 366.6356,-70.3282"/>
</g>
<!-- Node85&#45;&gt;Node78 -->
<g id="edge16" class="edge">
<title>Node85&#45;&gt;Node78</title>
<path fill="none" stroke="#191970" d="M569.7534,-216.6315C503.3709,-206.8093 404.0703,-191.5465 318,-176 315.0846,-175.4734 312.1091,-174.9229 309.1052,-174.3564"/>
<polygon fill="#191970" stroke="#191970" points="569.3063,-220.1033 579.7101,-218.1004 570.328,-213.1783 569.3063,-220.1033"/>
</g>
<!-- Node86 -->
<g id="node10" class="node">
<title>Node86</title>
<g id="a_node10"><a xlink:href="calc__ongoing__road__position_8cc.html" target="_top" xlink:title="drake/automotive/calc\l_ongoing_road_position.cc">
<polygon fill="#ffffff" stroke="#000000" points="327,-145.5 327,-175.5 473,-175.5 473,-145.5 327,-145.5"/>
<text text-anchor="start" x="335" y="-163.5" font-family="Helvetica,sans-Serif" font-size="10.00" fill="#000000">drake/automotive/calc</text>
<text text-anchor="middle" x="400" y="-152.5" font-family="Helvetica,sans-Serif" font-size="10.00" fill="#000000">_ongoing_road_position.cc</text>
</a>
</g>
</g>
<!-- Node85&#45;&gt;Node86 -->
<g id="edge9" class="edge">
<title>Node85&#45;&gt;Node86</title>
<path fill="none" stroke="#191970" d="M580.3484,-209.8198C541.4068,-199.1704 492.3414,-185.7525 455.2226,-175.6017"/>
<polygon fill="#191970" stroke="#191970" points="579.4481,-213.202 590.0172,-212.4639 581.2947,-206.4499 579.4481,-213.202"/>
</g>
<!-- Node87 -->
<g id="node11" class="node">
<title>Node87</title>
<g id="a_node11"><a xlink:href="idm__controller_8h.html" target="_top" xlink:title="drake/automotive/idm\l_controller.h">
<polygon fill="#ffffff" stroke="#000000" points="491.5,-145.5 491.5,-175.5 616.5,-175.5 616.5,-145.5 491.5,-145.5"/>
<text text-anchor="start" x="499.5" y="-163.5" font-family="Helvetica,sans-Serif" font-size="10.00" fill="#000000">drake/automotive/idm</text>
<text text-anchor="middle" x="554" y="-152.5" font-family="Helvetica,sans-Serif" font-size="10.00" fill="#000000">_controller.h</text>
</a>
</g>
</g>
<!-- Node85&#45;&gt;Node87 -->
<g id="edge10" class="edge">
<title>Node85&#45;&gt;Node87</title>
<path fill="none" stroke="#191970" d="M616.2697,-206.3469C602.7292,-196.3776 586.885,-184.7121 574.5676,-175.6432"/>
<polygon fill="#191970" stroke="#191970" points="614.2227,-209.1861 624.3507,-212.2967 618.373,-203.5492 614.2227,-209.1861"/>
</g>
<!-- Node85&#45;&gt;Node90 -->
<g id="edge19" class="edge">
<title>Node85&#45;&gt;Node90</title>
<path fill="none" stroke="#191970" d="M644.2152,-202.2627C645.0452,-183.9988 649.2405,-159.9862 664,-145 669.1953,-139.7249 748.0744,-121.2401 807.4045,-107.925"/>
<polygon fill="#191970" stroke="#191970" points="640.7122,-202.4491 644.0648,-212.4995 647.7114,-202.552 640.7122,-202.4491"/>
</g>
<!-- Node91 -->
<g id="node15" class="node">
<title>Node91</title>
<g id="a_node15"><a xlink:href="pose__selector_8cc.html" target="_top" xlink:title="drake/automotive/pose\l_selector.cc">
<polygon fill="#ffffff" stroke="#000000" points="673,-145.5 673,-175.5 803,-175.5 803,-145.5 673,-145.5"/>
<text text-anchor="start" x="681" y="-163.5" font-family="Helvetica,sans-Serif" font-size="10.00" fill="#000000">drake/automotive/pose</text>
<text text-anchor="middle" x="738" y="-152.5" font-family="Helvetica,sans-Serif" font-size="10.00" fill="#000000">_selector.cc</text>
</a>
</g>
</g>
<!-- Node85&#45;&gt;Node91 -->
<g id="edge17" class="edge">
<title>Node85&#45;&gt;Node91</title>
<path fill="none" stroke="#191970" d="M674.3618,-206.3469C688.1998,-196.3776 704.3922,-184.7121 716.9804,-175.6432"/>
<polygon fill="#191970" stroke="#191970" points="672.171,-203.6115 666.1031,-212.2967 676.2627,-209.2911 672.171,-203.6115"/>
</g>
<!-- Node92 -->
<g id="node16" class="node">
<title>Node92</title>
<g id="a_node16"><a xlink:href="pose__selector__test_8cc.html" target="_top" xlink:title="drake/automotive/test\l/pose_selector_test.cc">
<polygon fill="#ffffff" stroke="#000000" points="821.5,-145.5 821.5,-175.5 946.5,-175.5 946.5,-145.5 821.5,-145.5"/>
<text text-anchor="start" x="829.5" y="-163.5" font-family="Helvetica,sans-Serif" font-size="10.00" fill="#000000">drake/automotive/test</text>
<text text-anchor="middle" x="884" y="-152.5" font-family="Helvetica,sans-Serif" font-size="10.00" fill="#000000">/pose_selector_test.cc</text>
</a>
</g>
</g>
<!-- Node85&#45;&gt;Node92 -->
<g id="edge18" class="edge">
<title>Node85&#45;&gt;Node92</title>
<path fill="none" stroke="#191970" d="M708.5518,-209.6842C746.4617,-199.0568 794.0735,-185.7095 830.1298,-175.6017"/>
<polygon fill="#191970" stroke="#191970" points="707.3203,-206.3945 698.6363,-212.4639 709.2098,-213.1346 707.3203,-206.3945"/>
</g>
<!-- Node87&#45;&gt;Node79 -->
<g id="edge12" class="edge">
<title>Node87&#45;&gt;Node79</title>
<path fill="none" stroke="#191970" d="M505.3265,-141.865C477.9333,-131.3773 444.1717,-118.4515 418.4447,-108.6017"/>
<polygon fill="#191970" stroke="#191970" points="504.1362,-145.157 514.7266,-145.4639 506.6391,-138.6197 504.1362,-145.157"/>
</g>
<!-- Node87&#45;&gt;Node81 -->
<g id="edge11" class="edge">
<title>Node87&#45;&gt;Node81</title>
<path fill="none" stroke="#191970" d="M527.4766,-138.0158C519.6707,-129.7798 512.123,-119.8051 508,-109 498.7573,-84.7776 505.2043,-54.1854 510.6537,-36.1898"/>
<polygon fill="#191970" stroke="#191970" points="525.0483,-140.5367 534.627,-145.0644 529.9625,-135.5516 525.0483,-140.5367"/>
</g>
<!-- Node88 -->
<g id="node12" class="node">
<title>Node88</title>
<g id="a_node12"><a xlink:href="idm__controller_8cc.html" target="_top" xlink:title="drake/automotive/idm\l_controller.cc">
<polygon fill="#ffffff" stroke="#000000" points="517.5,-78.5 517.5,-108.5 642.5,-108.5 642.5,-78.5 517.5,-78.5"/>
<text text-anchor="start" x="525.5" y="-96.5" font-family="Helvetica,sans-Serif" font-size="10.00" fill="#000000">drake/automotive/idm</text>
<text text-anchor="middle" x="580" y="-85.5" font-family="Helvetica,sans-Serif" font-size="10.00" fill="#000000">_controller.cc</text>
</a>
</g>
</g>
<!-- Node87&#45;&gt;Node88 -->
<g id="edge13" class="edge">
<title>Node87&#45;&gt;Node88</title>
<path fill="none" stroke="#191970" d="M563.5454,-135.9021C567.0894,-126.7696 571.0027,-116.6854 574.1235,-108.6432"/>
<polygon fill="#191970" stroke="#191970" points="560.2547,-134.7078 559.8998,-145.2967 566.7805,-137.2402 560.2547,-134.7078"/>
</g>
<!-- Node89 -->
<g id="node13" class="node">
<title>Node89</title>
<g id="a_node13"><a xlink:href="idm__controller__test_8cc.html" target="_top" xlink:title="drake/automotive/test\l/idm_controller_test.cc">
<polygon fill="#ffffff" stroke="#000000" points="661,-78.5 661,-108.5 789,-108.5 789,-78.5 661,-78.5"/>
<text text-anchor="start" x="669" y="-96.5" font-family="Helvetica,sans-Serif" font-size="10.00" fill="#000000">drake/automotive/test</text>
<text text-anchor="middle" x="725" y="-85.5" font-family="Helvetica,sans-Serif" font-size="10.00" fill="#000000">/idm_controller_test.cc</text>
</a>
</g>
</g>
<!-- Node87&#45;&gt;Node89 -->
<g id="edge14" class="edge">
<title>Node87&#45;&gt;Node89</title>
<path fill="none" stroke="#191970" d="M601.912,-141.7275C628.616,-131.2645 661.4277,-118.4084 686.4569,-108.6017"/>
<polygon fill="#191970" stroke="#191970" points="600.4097,-138.5569 592.3757,-145.4639 602.9634,-145.0745 600.4097,-138.5569"/>
</g>
<!-- Node87&#45;&gt;Node90 -->
<g id="edge15" class="edge">
<title>Node87&#45;&gt;Node90</title>
<path fill="none" stroke="#191970" d="M626.5692,-145.2582C680.9894,-133.8282 754.8496,-118.3153 807.484,-107.2604"/>
<polygon fill="#191970" stroke="#191970" points="625.7106,-141.8621 616.6435,-147.3429 627.1494,-148.7126 625.7106,-141.8621"/>
</g>
</g>
</svg>
