<?xml version="1.0" encoding="UTF-8" standalone="no"?>
<!DOCTYPE svg PUBLIC "-//W3C//DTD SVG 1.1//EN"
 "http://www.w3.org/Graphics/SVG/1.1/DTD/svg11.dtd">
<!-- Generated by graphviz version 2.40.1 (20161225.0304)
 -->
<!-- Title: drake/examples/valkyrie/robot_state_encoder.h Pages: 1 -->
<svg width="540pt" height="195pt"
 viewBox="0.00 0.00 540.00 195.00" xmlns="http://www.w3.org/2000/svg" xmlns:xlink="http://www.w3.org/1999/xlink">
<g id="graph0" class="graph" transform="scale(1 1) rotate(0) translate(4 191)">
<title>drake/examples/valkyrie/robot_state_encoder.h</title>
<polygon fill="#ffffff" stroke="transparent" points="-4,4 -4,-191 536,-191 536,4 -4,4"/>
<!-- Node117 -->
<g id="node1" class="node">
<title>Node117</title>
<polygon fill="#bfbfbf" stroke="#000000" points="158,-156.5 158,-186.5 296,-186.5 296,-156.5 158,-156.5"/>
<text text-anchor="start" x="166" y="-174.5" font-family="Helvetica,sans-Serif" font-size="10.00" fill="#000000">drake/examples/valkyrie</text>
<text text-anchor="middle" x="227" y="-163.5" font-family="Helvetica,sans-Serif" font-size="10.00" fill="#000000">/robot_state_encoder.h</text>
</g>
<!-- Node118 -->
<g id="node2" class="node">
<title>Node118</title>
<g id="a_node2"><a xlink:href="robot__state__encoder_8cc.html" target="_top" xlink:title="drake/examples/valkyrie\l/robot_state_encoder.cc">
<polygon fill="#ffffff" stroke="#000000" points="0,-84 0,-114 138,-114 138,-84 0,-84"/>
<text text-anchor="start" x="8" y="-102" font-family="Helvetica,sans-Serif" font-size="10.00" fill="#000000">drake/examples/valkyrie</text>
<text text-anchor="middle" x="69" y="-91" font-family="Helvetica,sans-Serif" font-size="10.00" fill="#000000">/robot_state_encoder.cc</text>
</a>
</g>
</g>
<!-- Node117&#45;&gt;Node118 -->
<g id="edge1" class="edge">
<title>Node117&#45;&gt;Node118</title>
<path fill="none" stroke="#191970" d="M184.9911,-152.2237C158.8921,-140.248 125.8363,-125.0799 101.6958,-114.0028"/>
<polygon fill="#191970" stroke="#191970" points="183.7138,-155.4885 194.2623,-156.478 186.6332,-149.1263 183.7138,-155.4885"/>
</g>
<!-- Node119 -->
<g id="node3" class="node">
<title>Node119</title>
<g id="a_node3"><a xlink:href="robot__state__encoder__decoder__test_8cc.html" target="_top" xlink:title="drake/examples/valkyrie\l/test/robot_state_encoder\l_decoder_test.cc">
<polygon fill="#ffffff" stroke="#000000" points="156.5,-78.5 156.5,-119.5 297.5,-119.5 297.5,-78.5 156.5,-78.5"/>
<text text-anchor="start" x="164.5" y="-107.5" font-family="Helvetica,sans-Serif" font-size="10.00" fill="#000000">drake/examples/valkyrie</text>
<text text-anchor="start" x="164.5" y="-96.5" font-family="Helvetica,sans-Serif" font-size="10.00" fill="#000000">/test/robot_state_encoder</text>
<text text-anchor="middle" x="227" y="-85.5" font-family="Helvetica,sans-Serif" font-size="10.00" fill="#000000">_decoder_test.cc</text>
</a>
</g>
</g>
<!-- Node117&#45;&gt;Node119 -->
<g id="edge2" class="edge">
<title>Node117&#45;&gt;Node119</title>
<path fill="none" stroke="#191970" d="M227,-146.4016C227,-137.6173 227,-127.8652 227,-119.5015"/>
<polygon fill="#191970" stroke="#191970" points="223.5001,-146.4779 227,-156.478 230.5001,-146.478 223.5001,-146.4779"/>
</g>
<!-- Node120 -->
<g id="node4" class="node">
<title>Node120</title>
<g id="a_node4"><a xlink:href="valkyrie__simulator_8h.html" target="_top" xlink:title="drake/examples/valkyrie\l/valkyrie_simulator.h">
<polygon fill="#ffffff" stroke="#000000" points="316,-84 316,-114 454,-114 454,-84 316,-84"/>
<text text-anchor="start" x="324" y="-102" font-family="Helvetica,sans-Serif" font-size="10.00" fill="#000000">drake/examples/valkyrie</text>
<text text-anchor="middle" x="385" y="-91" font-family="Helvetica,sans-Serif" font-size="10.00" fill="#000000">/valkyrie_simulator.h</text>
</a>
</g>
</g>
<!-- Node117&#45;&gt;Node120 -->
<g id="edge3" class="edge">
<title>Node117&#45;&gt;Node120</title>
<path fill="none" stroke="#191970" d="M269.0089,-152.2237C295.1079,-140.248 328.1637,-125.0799 352.3042,-114.0028"/>
<polygon fill="#191970" stroke="#191970" points="267.3668,-149.1263 259.7377,-156.478 270.2862,-155.4885 267.3668,-149.1263"/>
</g>
<!-- Node121 -->
<g id="node5" class="node">
<title>Node121</title>
<g id="a_node5"><a xlink:href="valkyrie__simulation__test_8cc.html" target="_top" xlink:title="drake/examples/valkyrie\l/test/valkyrie_simulation\l_test.cc">
<polygon fill="#ffffff" stroke="#000000" points="238,-.5 238,-41.5 376,-41.5 376,-.5 238,-.5"/>
<text text-anchor="start" x="246" y="-29.5" font-family="Helvetica,sans-Serif" font-size="10.00" fill="#000000">drake/examples/valkyrie</text>
<text text-anchor="start" x="246" y="-18.5" font-family="Helvetica,sans-Serif" font-size="10.00" fill="#000000">/test/valkyrie_simulation</text>
<text text-anchor="middle" x="307" y="-7.5" font-family="Helvetica,sans-Serif" font-size="10.00" fill="#000000">_test.cc</text>
</a>
</g>
</g>
<!-- Node120&#45;&gt;Node121 -->
<g id="edge4" class="edge">
<title>Node120&#45;&gt;Node121</title>
<path fill="none" stroke="#191970" d="M362.7201,-76.7201C351.6687,-65.6687 338.4078,-52.4078 327.5956,-41.5956"/>
<polygon fill="#191970" stroke="#191970" points="360.4148,-79.3646 369.9608,-83.9608 365.3646,-74.4148 360.4148,-79.3646"/>
</g>
<!-- Node122 -->
<g id="node6" class="node">
<title>Node122</title>
<g id="a_node6"><a xlink:href="valkyrie__simulation_8cc.html" target="_top" xlink:title="Runs the simulator for the valkyrie robot. ">
<polygon fill="#ffffff" stroke="#000000" points="394,-6 394,-36 532,-36 532,-6 394,-6"/>
<text text-anchor="start" x="402" y="-24" font-family="Helvetica,sans-Serif" font-size="10.00" fill="#000000">drake/examples/valkyrie</text>
<text text-anchor="middle" x="463" y="-13" font-family="Helvetica,sans-Serif" font-size="10.00" fill="#000000">/valkyrie_simulation.cc</text>
</a>
</g>
</g>
<!-- Node120&#45;&gt;Node122 -->
<g id="edge5" class="edge">
<title>Node120&#45;&gt;Node122</title>
<path fill="none" stroke="#191970" d="M407.2588,-76.7412C420.2141,-63.7859 436.2116,-47.7884 447.7408,-36.2592"/>
<polygon fill="#191970" stroke="#191970" points="404.6354,-74.4148 400.0392,-83.9608 409.5852,-79.3646 404.6354,-74.4148"/>
</g>
</g>
</svg>
