<?xml version="1.0" encoding="UTF-8" standalone="no"?>
<!DOCTYPE svg PUBLIC "-//W3C//DTD SVG 1.1//EN"
 "http://www.w3.org/Graphics/SVG/1.1/DTD/svg11.dtd">
<!-- Generated by graphviz version 2.40.1 (20161225.0304)
 -->
<!-- Title: drake/attic/manipulation/util/robot_state_msg_translator.h Pages: 1 -->
<svg width="502pt" height="106pt"
 viewBox="0.00 0.00 502.00 106.00" xmlns="http://www.w3.org/2000/svg" xmlns:xlink="http://www.w3.org/1999/xlink">
<g id="graph0" class="graph" transform="scale(1 1) rotate(0) translate(4 102)">
<title>drake/attic/manipulation/util/robot_state_msg_translator.h</title>
<polygon fill="#ffffff" stroke="transparent" points="-4,4 -4,-102 498,-102 498,4 -4,4"/>
<!-- Node0 -->
<g id="node1" class="node">
<title>Node0</title>
<polygon fill="#bfbfbf" stroke="#000000" points="105,-67.5 105,-97.5 287,-97.5 287,-67.5 105,-67.5"/>
<text text-anchor="start" x="113" y="-85.5" font-family="Helvetica,sans-Serif" font-size="10.00" fill="#000000">drake/attic/manipulation</text>
<text text-anchor="middle" x="196" y="-74.5" font-family="Helvetica,sans-Serif" font-size="10.00" fill="#000000">/util/robot_state_msg_translator.h</text>
</g>
<!-- Node1 -->
<g id="node2" class="node">
<title>Node1</title>
<polygon fill="#ffffff" stroke="#bfbfbf" points="0,-6 0,-25 44,-25 44,-6 0,-6"/>
<text text-anchor="middle" x="22" y="-13" font-family="Helvetica,sans-Serif" font-size="10.00" fill="#000000">string</text>
</g>
<!-- Node0&#45;&gt;Node1 -->
<g id="edge1" class="edge">
<title>Node0&#45;&gt;Node1</title>
<path fill="none" stroke="#191970" d="M150.0641,-67.4993C121.7565,-57.8766 84.8968,-44.6615 53,-31 51.8177,-30.4936 50.6167,-29.9637 49.4084,-29.4178"/>
<polygon fill="#191970" stroke="#191970" points="50.7257,-26.1689 40.1909,-25.0425 47.724,-32.4926 50.7257,-26.1689"/>
</g>
<!-- Node2 -->
<g id="node3" class="node">
<title>Node2</title>
<polygon fill="#ffffff" stroke="#bfbfbf" points="62.5,-6 62.5,-25 155.5,-25 155.5,-6 62.5,-6"/>
<text text-anchor="middle" x="109" y="-13" font-family="Helvetica,sans-Serif" font-size="10.00" fill="#000000">unordered_map</text>
</g>
<!-- Node0&#45;&gt;Node2 -->
<g id="edge2" class="edge">
<title>Node0&#45;&gt;Node2</title>
<path fill="none" stroke="#191970" d="M176.2584,-67.2967C162.3085,-56.5537 143.6565,-42.1895 129.5332,-31.3129"/>
<polygon fill="#191970" stroke="#191970" points="131.4656,-28.3835 121.4072,-25.055 127.1945,-33.9295 131.4656,-28.3835"/>
</g>
<!-- Node3 -->
<g id="node4" class="node">
<title>Node3</title>
<polygon fill="#ffffff" stroke="#bfbfbf" points="173.5,-6 173.5,-25 218.5,-25 218.5,-6 173.5,-6"/>
<text text-anchor="middle" x="196" y="-13" font-family="Helvetica,sans-Serif" font-size="10.00" fill="#000000">utility</text>
</g>
<!-- Node0&#45;&gt;Node3 -->
<g id="edge3" class="edge">
<title>Node0&#45;&gt;Node3</title>
<path fill="none" stroke="#191970" d="M196,-67.2967C196,-57.7699 196,-45.3954 196,-35.1306"/>
<polygon fill="#191970" stroke="#191970" points="199.5001,-35.0549 196,-25.055 192.5001,-35.055 199.5001,-35.0549"/>
</g>
<!-- Node4 -->
<g id="node5" class="node">
<title>Node4</title>
<polygon fill="#ffffff" stroke="#bfbfbf" points="236.5,-.5 236.5,-30.5 353.5,-30.5 353.5,-.5 236.5,-.5"/>
<text text-anchor="start" x="244.5" y="-18.5" font-family="Helvetica,sans-Serif" font-size="10.00" fill="#000000">bot_core/robot_state</text>
<text text-anchor="middle" x="295" y="-7.5" font-family="Helvetica,sans-Serif" font-size="10.00" fill="#000000">_t.hpp</text>
</g>
<!-- Node0&#45;&gt;Node4 -->
<g id="edge4" class="edge">
<title>Node0&#45;&gt;Node4</title>
<path fill="none" stroke="#191970" d="M218.4646,-67.2967C232.0085,-58.1306 249.4475,-46.3285 264.2575,-36.3055"/>
<polygon fill="#191970" stroke="#191970" points="266.3042,-39.1466 272.6243,-30.6432 262.3809,-33.3494 266.3042,-39.1466"/>
</g>
<!-- Node5 -->
<g id="node6" class="node">
<title>Node5</title>
<polygon fill="#ffffff" stroke="#bfbfbf" points="372,-.5 372,-30.5 494,-30.5 494,-.5 372,-.5"/>
<text text-anchor="start" x="380" y="-18.5" font-family="Helvetica,sans-Serif" font-size="10.00" fill="#000000">drake/multibody/rigid</text>
<text text-anchor="middle" x="433" y="-7.5" font-family="Helvetica,sans-Serif" font-size="10.00" fill="#000000">_body_tree.h</text>
</g>
<!-- Node0&#45;&gt;Node5 -->
<g id="edge5" class="edge">
<title>Node0&#45;&gt;Node5</title>
<path fill="none" stroke="#191970" d="M249.1874,-67.4639C284.8923,-57.3701 332.1016,-44.024 369.7359,-33.3848"/>
<polygon fill="#191970" stroke="#191970" points="370.9099,-36.6901 379.5806,-30.6017 369.0056,-29.9541 370.9099,-36.6901"/>
</g>
</g>
</svg>
