<?xml version="1.0" encoding="UTF-8" standalone="no"?>
<!DOCTYPE svg PUBLIC "-//W3C//DTD SVG 1.1//EN"
 "http://www.w3.org/Graphics/SVG/1.1/DTD/svg11.dtd">
<!-- Generated by graphviz version 2.40.1 (20161225.0304)
 -->
<!-- Title: drake/attic/systems/controllers/qp_inverse_dynamics/robot_kinematic_state.h Pages: 1 -->
<svg width="468pt" height="195pt"
 viewBox="0.00 0.00 467.50 195.00" xmlns="http://www.w3.org/2000/svg" xmlns:xlink="http://www.w3.org/1999/xlink">
<g id="graph0" class="graph" transform="scale(1 1) rotate(0) translate(4 191)">
<title>drake/attic/systems/controllers/qp_inverse_dynamics/robot_kinematic_state.h</title>
<polygon fill="#ffffff" stroke="transparent" points="-4,4 -4,-191 463.5,-191 463.5,4 -4,4"/>
<!-- Node0 -->
<g id="node1" class="node">
<title>Node0</title>
<polygon fill="#bfbfbf" stroke="#000000" points="87,-134.5 87,-186.5 239,-186.5 239,-134.5 87,-134.5"/>
<text text-anchor="start" x="95" y="-174.5" font-family="Helvetica,sans-Serif" font-size="10.00" fill="#000000">drake/attic/systems</text>
<text text-anchor="start" x="95" y="-163.5" font-family="Helvetica,sans-Serif" font-size="10.00" fill="#000000">/controllers/qp_inverse</text>
<text text-anchor="start" x="95" y="-152.5" font-family="Helvetica,sans-Serif" font-size="10.00" fill="#000000">_dynamics/robot_kinematic</text>
<text text-anchor="middle" x="163" y="-141.5" font-family="Helvetica,sans-Serif" font-size="10.00" fill="#000000">_state.h</text>
</g>
<!-- Node1 -->
<g id="node2" class="node">
<title>Node1</title>
<polygon fill="#ffffff" stroke="#bfbfbf" points="0,-6 0,-25 58,-25 58,-6 0,-6"/>
<text text-anchor="middle" x="29" y="-13" font-family="Helvetica,sans-Serif" font-size="10.00" fill="#000000">memory</text>
</g>
<!-- Node0&#45;&gt;Node1 -->
<g id="edge1" class="edge">
<title>Node0&#45;&gt;Node1</title>
<path fill="none" stroke="#191970" d="M138.7336,-134.2416C111.494,-104.7659 68.0804,-57.7885 44.8662,-32.6686"/>
<polygon fill="#191970" stroke="#191970" points="47.1779,-30.0132 37.8204,-25.0445 42.037,-34.7641 47.1779,-30.0132"/>
</g>
<!-- Node2 -->
<g id="node3" class="node">
<title>Node2</title>
<g id="a_node3"><a xlink:href="drake__copyable_8h.html" target="_top" xlink:title="Provides careful macros to selectively enable or disable the special member functions for copy&#45;constr...">
<polygon fill="#ffffff" stroke="#000000" points="76.5,-.5 76.5,-30.5 197.5,-30.5 197.5,-.5 76.5,-.5"/>
<text text-anchor="start" x="84.5" y="-18.5" font-family="Helvetica,sans-Serif" font-size="10.00" fill="#000000">drake/common/drake</text>
<text text-anchor="middle" x="137" y="-7.5" font-family="Helvetica,sans-Serif" font-size="10.00" fill="#000000">_copyable.h</text>
</a>
</g>
</g>
<!-- Node0&#45;&gt;Node2 -->
<g id="edge2" class="edge">
<title>Node0&#45;&gt;Node2</title>
<path fill="none" stroke="#191970" d="M150.0626,-134.3977C145.296,-123.4369 140.4619,-110.3791 138,-98 134.2543,-79.1658 134.1575,-57.4328 134.9151,-41.0023"/>
<polygon fill="#191970" stroke="#191970" points="138.4354,-40.7672 135.5417,-30.5753 131.448,-40.3473 138.4354,-40.7672"/>
</g>
<!-- Node3 -->
<g id="node4" class="node">
<title>Node3</title>
<g id="a_node4"><a xlink:href="eigen__types_8h.html" target="_top" xlink:title="This file contains abbreviated definitions for certain specializations of Eigen::Matrix that are comm...">
<polygon fill="#ffffff" stroke="#000000" points="147,-67.5 147,-97.5 267,-97.5 267,-67.5 147,-67.5"/>
<text text-anchor="start" x="155" y="-85.5" font-family="Helvetica,sans-Serif" font-size="10.00" fill="#000000">drake/common/eigen</text>
<text text-anchor="middle" x="207" y="-74.5" font-family="Helvetica,sans-Serif" font-size="10.00" fill="#000000">_types.h</text>
</a>
</g>
</g>
<!-- Node0&#45;&gt;Node3 -->
<g id="edge3" class="edge">
<title>Node0&#45;&gt;Node3</title>
<path fill="none" stroke="#191970" d="M177.8964,-134.0928C182.9496,-125.1348 188.563,-115.1838 193.5011,-106.43"/>
<polygon fill="#191970" stroke="#191970" points="196.6711,-107.934 198.5359,-97.5046 190.5742,-104.4947 196.6711,-107.934"/>
</g>
<!-- Node6 -->
<g id="node7" class="node">
<title>Node6</title>
<polygon fill="#ffffff" stroke="#bfbfbf" points="285,-67.5 285,-97.5 407,-97.5 407,-67.5 285,-67.5"/>
<text text-anchor="start" x="293" y="-85.5" font-family="Helvetica,sans-Serif" font-size="10.00" fill="#000000">drake/multibody/rigid</text>
<text text-anchor="middle" x="346" y="-74.5" font-family="Helvetica,sans-Serif" font-size="10.00" fill="#000000">_body_tree.h</text>
</g>
<!-- Node0&#45;&gt;Node6 -->
<g id="edge8" class="edge">
<title>Node0&#45;&gt;Node6</title>
<path fill="none" stroke="#191970" d="M224.1908,-134.4187C249.4872,-123.6366 278.268,-111.3694 301.4998,-101.4673"/>
<polygon fill="#191970" stroke="#191970" points="302.9359,-104.6599 310.7627,-97.5192 300.1911,-98.2205 302.9359,-104.6599"/>
</g>
<!-- Node3&#45;&gt;Node1 -->
<g id="edge4" class="edge">
<title>Node3&#45;&gt;Node1</title>
<path fill="none" stroke="#191970" d="M164.8926,-67.4429C137.0229,-57.3709 99.7183,-43.6862 67,-31 65.3558,-30.3625 63.6744,-29.7034 61.9783,-29.0328"/>
<polygon fill="#191970" stroke="#191970" points="62.8448,-25.6095 52.2605,-25.1372 60.2402,-32.1068 62.8448,-25.6095"/>
</g>
<!-- Node3&#45;&gt;Node2 -->
<g id="edge7" class="edge">
<title>Node3&#45;&gt;Node2</title>
<path fill="none" stroke="#191970" d="M191.1159,-67.2967C181.987,-58.559 170.3552,-47.4257 160.2168,-37.7218"/>
<polygon fill="#191970" stroke="#191970" points="162.4655,-35.0293 152.8212,-30.6432 157.6253,-40.0862 162.4655,-35.0293"/>
</g>
<!-- Node4 -->
<g id="node5" class="node">
<title>Node4</title>
<polygon fill="#ffffff" stroke="#bfbfbf" points="215.5,-6 215.5,-25 292.5,-25 292.5,-6 215.5,-6"/>
<text text-anchor="middle" x="254" y="-13" font-family="Helvetica,sans-Serif" font-size="10.00" fill="#000000">Eigen/Dense</text>
</g>
<!-- Node3&#45;&gt;Node4 -->
<g id="edge5" class="edge">
<title>Node3&#45;&gt;Node4</title>
<path fill="none" stroke="#191970" d="M217.665,-67.2967C224.7035,-57.2631 233.9577,-44.0709 241.3652,-33.5113"/>
<polygon fill="#191970" stroke="#191970" points="244.4197,-35.2516 247.2973,-25.055 238.6891,-31.2316 244.4197,-35.2516"/>
</g>
<!-- Node5 -->
<g id="node6" class="node">
<title>Node5</title>
<g id="a_node6"><a xlink:href="constants_8h.html" target="_top" xlink:title="drake/common/constants.h">
<polygon fill="#ffffff" stroke="#000000" points="310.5,-6 310.5,-25 459.5,-25 459.5,-6 310.5,-6"/>
<text text-anchor="middle" x="385" y="-13" font-family="Helvetica,sans-Serif" font-size="10.00" fill="#000000">drake/common/constants.h</text>
</a>
</g>
</g>
<!-- Node3&#45;&gt;Node5 -->
<g id="edge6" class="edge">
<title>Node3&#45;&gt;Node5</title>
<path fill="none" stroke="#191970" d="M246.9467,-67.4639C277.9811,-55.7824 320.5881,-39.7449 350.2279,-28.5884"/>
<polygon fill="#191970" stroke="#191970" points="351.6212,-31.8037 359.7471,-25.0053 349.1552,-25.2525 351.6212,-31.8037"/>
</g>
</g>
</svg>
