<?xml version="1.0" encoding="UTF-8" standalone="no"?>
<!DOCTYPE svg PUBLIC "-//W3C//DTD SVG 1.1//EN"
 "http://www.w3.org/Graphics/SVG/1.1/DTD/svg11.dtd">
<!-- Generated by graphviz version 2.40.1 (20161225.0304)
 -->
<!-- Title: drake/math/rotation_conversion_gradient.cc Pages: 1 -->
<!--zoomable 363 -->
<svg id="main" version="1.1" xmlns="http://www.w3.org/2000/svg" xmlns:xlink="http://www.w3.org/1999/xlink" xml:space="preserve" onload="init(evt)">
<style type="text/css"><![CDATA[
.edge:hover path { stroke: red; }
.edge:hover polygon { stroke: red; fill: red; }
]]></style>
<script type="text/javascript"><![CDATA[
var edges = document.getElementsByTagName('g');
if (edges && edges.length) {
  for (var i=0;i<edges.length;i++) {
    if (edges[i].id.substr(0,4)=='edge') {
      edges[i].setAttribute('class','edge');
    }
  }
}
]]></script>
        <defs>
                <circle id="rim" cx="0" cy="0" r="7"/>
                <circle id="rim2" cx="0" cy="0" r="3.5"/>
                <g id="zoomPlus">
                        <use xlink:href="#rim" fill="#404040">
                                <set attributeName="fill" to="#808080" begin="zoomplus.mouseover" end="zoomplus.mouseout"/>
                        </use>
                        <path d="M-4,0h8M0,-4v8" fill="none" stroke="white" stroke-width="1.5" pointer-events="none"/>
                </g>
                <g id="zoomMin">
                        <use xlink:href="#rim" fill="#404040">
                                <set attributeName="fill" to="#808080" begin="zoomminus.mouseover" end="zoomminus.mouseout"/>
                        </use>
                        <path d="M-4,0h8" fill="none" stroke="white" stroke-width="1.5" pointer-events="none"/>
                </g>
                <g id="dirArrow">
                        <path fill="none" stroke="white" stroke-width="1.5" d="M0,-3.0v7 M-2.5,-0.5L0,-3.0L2.5,-0.5"/>
                </g>
               <g id="resetDef">
                       <use xlink:href="#rim2" fill="#404040">
                               <set attributeName="fill" to="#808080" begin="reset.mouseover" end="reset.mouseout"/>
                       </use>
               </g>
        </defs>

<script type="text/javascript">
var viewWidth = 573;
var viewHeight = 363;
var sectionId = 'dynsection-0';
</script>
<script xlink:href="svgpan.js"/>
<svg id="graph" class="graph">
<g id="viewport">
<title>drake/math/rotation_conversion_gradient.cc</title>
<polygon fill="#ffffff" stroke="transparent" points="-4,4 -4,-359 568.7836,-359 568.7836,4 -4,4"/>
<!-- Node0 -->
<g id="node1" class="node">
<title>Node0</title>
<polygon fill="#bfbfbf" stroke="#000000" points="116.2836,-324.5 116.2836,-354.5 250.2836,-354.5 250.2836,-324.5 116.2836,-324.5"/>
<text text-anchor="start" x="124.2836" y="-342.5" font-family="Helvetica,sans-Serif" font-size="10.00" fill="#000000">drake/math/rotation</text>
<text text-anchor="middle" x="183.2836" y="-331.5" font-family="Helvetica,sans-Serif" font-size="10.00" fill="#000000">_conversion_gradient.cc</text>
</g>
<!-- Node1 -->
<g id="node2" class="node">
<title>Node1</title>
<g id="a_node2"><a xlink:href="rotation__conversion__gradient_8h.html" target="_top" xlink:title="drake/math/rotation\l_conversion_gradient.h">
<polygon fill="#ffffff" stroke="#000000" points="118.2836,-257.5 118.2836,-287.5 248.2836,-287.5 248.2836,-257.5 118.2836,-257.5"/>
<text text-anchor="start" x="126.2836" y="-275.5" font-family="Helvetica,sans-Serif" font-size="10.00" fill="#000000">drake/math/rotation</text>
<text text-anchor="middle" x="183.2836" y="-264.5" font-family="Helvetica,sans-Serif" font-size="10.00" fill="#000000">_conversion_gradient.h</text>
</a>
</g>
</g>
<!-- Node0&#45;&gt;Node1 -->
<g id="edge1" class="edge">
<title>Node0&#45;&gt;Node1</title>
<path fill="none" stroke="#191970" d="M183.2836,-324.2967C183.2836,-316.5013 183.2836,-306.7991 183.2836,-297.9064"/>
<polygon fill="#191970" stroke="#191970" points="186.7837,-297.6431 183.2836,-287.6432 179.7837,-297.6432 186.7837,-297.6431"/>
</g>
<!-- Node2 -->
<g id="node3" class="node">
<title>Node2</title>
<polygon fill="#ffffff" stroke="#bfbfbf" points="27.7836,-.5 27.7836,-19.5 104.7836,-19.5 104.7836,-.5 27.7836,-.5"/>
<text text-anchor="middle" x="66.2836" y="-7.5" font-family="Helvetica,sans-Serif" font-size="10.00" fill="#000000">Eigen/Dense</text>
</g>
<!-- Node1&#45;&gt;Node2 -->
<g id="edge2" class="edge">
<title>Node1&#45;&gt;Node2</title>
<path fill="none" stroke="#191970" d="M118.1132,-259.9386C78.4424,-250.8196 33.1745,-237.2574 21.2836,-221 4.6553,-198.2656 -21.6521,-203.8257 33.2836,-56 37.146,-45.6066 44.0127,-35.4405 50.4858,-27.3197"/>
<polygon fill="#191970" stroke="#191970" points="53.1658,-29.5709 56.9465,-19.6736 47.8189,-25.053 53.1658,-29.5709"/>
</g>
<!-- Node3 -->
<g id="node4" class="node">
<title>Node3</title>
<g id="a_node4"><a xlink:href="constants_8h.html" target="_top" xlink:title="drake/common/constants.h">
<polygon fill="#ffffff" stroke="#000000" points="248.7836,-196 248.7836,-215 397.7836,-215 397.7836,-196 248.7836,-196"/>
<text text-anchor="middle" x="323.2836" y="-203" font-family="Helvetica,sans-Serif" font-size="10.00" fill="#000000">drake/common/constants.h</text>
</a>
</g>
</g>
<!-- Node1&#45;&gt;Node3 -->
<g id="edge3" class="edge">
<title>Node1&#45;&gt;Node3</title>
<path fill="none" stroke="#191970" d="M214.7023,-257.4639C238.51,-246.0702 270.9765,-230.5327 294.1931,-219.4219"/>
<polygon fill="#191970" stroke="#191970" points="295.7064,-222.5779 303.2157,-215.1039 292.6845,-216.2637 295.7064,-222.5779"/>
</g>
<!-- Node4 -->
<g id="node5" class="node">
<title>Node4</title>
<g id="a_node5"><a xlink:href="gradient_8h.html" target="_top" xlink:title="Utilities for arithmetic on gradients. ">
<polygon fill="#ffffff" stroke="#000000" points="48.7836,-62 48.7836,-81 173.7836,-81 173.7836,-62 48.7836,-62"/>
<text text-anchor="middle" x="111.2836" y="-69" font-family="Helvetica,sans-Serif" font-size="10.00" fill="#000000">drake/math/gradient.h</text>
</a>
</g>
</g>
<!-- Node1&#45;&gt;Node4 -->
<g id="edge4" class="edge">
<title>Node1&#45;&gt;Node4</title>
<path fill="none" stroke="#191970" d="M180.7101,-257.3539C177.6568,-240.6193 171.992,-212.9938 164.2836,-190 152.0532,-153.5173 132.5622,-112.989 120.9353,-90.0388"/>
<polygon fill="#191970" stroke="#191970" points="124.0164,-88.3766 116.3393,-81.0751 117.7874,-91.5705 124.0164,-88.3766"/>
</g>
<!-- Node5 -->
<g id="node6" class="node">
<title>Node5</title>
<g id="a_node6"><a xlink:href="gradient__util_8h.html" target="_top" xlink:title="drake/math/gradient\l_util.h">
<polygon fill="#ffffff" stroke="#000000" points="221.2836,-123.5 221.2836,-153.5 337.2836,-153.5 337.2836,-123.5 221.2836,-123.5"/>
<text text-anchor="start" x="229.2836" y="-141.5" font-family="Helvetica,sans-Serif" font-size="10.00" fill="#000000">drake/math/gradient</text>
<text text-anchor="middle" x="279.2836" y="-130.5" font-family="Helvetica,sans-Serif" font-size="10.00" fill="#000000">_util.h</text>
</a>
</g>
</g>
<!-- Node1&#45;&gt;Node5 -->
<g id="edge6" class="edge">
<title>Node1&#45;&gt;Node5</title>
<path fill="none" stroke="#191970" d="M193.3872,-257.4593C204.6333,-240.8169 223.4448,-213.2717 240.2836,-190 247.0595,-180.6355 254.7006,-170.4641 261.4121,-161.6532"/>
<polygon fill="#191970" stroke="#191970" points="264.2056,-163.7619 267.5033,-153.6934 258.6466,-159.5079 264.2056,-163.7619"/>
</g>
<!-- Node11 -->
<g id="node12" class="node">
<title>Node11</title>
<g id="a_node12"><a xlink:href="normalize__vector_8h.html" target="_top" xlink:title="drake/math/normalize\l_vector.h">
<polygon fill="#ffffff" stroke="#000000" points="29.7836,-190.5 29.7836,-220.5 154.7836,-220.5 154.7836,-190.5 29.7836,-190.5"/>
<text text-anchor="start" x="37.7836" y="-208.5" font-family="Helvetica,sans-Serif" font-size="10.00" fill="#000000">drake/math/normalize</text>
<text text-anchor="middle" x="92.2836" y="-197.5" font-family="Helvetica,sans-Serif" font-size="10.00" fill="#000000">_vector.h</text>
</a>
</g>
</g>
<!-- Node1&#45;&gt;Node11 -->
<g id="edge14" class="edge">
<title>Node1&#45;&gt;Node11</title>
<path fill="none" stroke="#191970" d="M162.6343,-257.2967C150.3013,-248.2163 134.4544,-236.5488 120.9242,-226.587"/>
<polygon fill="#191970" stroke="#191970" points="122.9791,-223.7537 112.8512,-220.6432 118.8288,-229.3907 122.9791,-223.7537"/>
</g>
<!-- Node4&#45;&gt;Node2 -->
<g id="edge5" class="edge">
<title>Node4&#45;&gt;Node2</title>
<path fill="none" stroke="#191970" d="M104.2523,-61.8906C97.6206,-52.8273 87.514,-39.0149 79.3949,-27.9188"/>
<polygon fill="#191970" stroke="#191970" points="82.1437,-25.7484 73.414,-19.7449 76.4945,-29.882 82.1437,-25.7484"/>
</g>
<!-- Node5&#45;&gt;Node2 -->
<g id="edge10" class="edge">
<title>Node5&#45;&gt;Node2</title>
<path fill="none" stroke="#191970" d="M282.3928,-123.3325C285.1956,-105.0144 286.6923,-74.3783 270.2836,-56 250.0097,-33.2925 168.7626,-20.596 115.1223,-14.5386"/>
<polygon fill="#191970" stroke="#191970" points="115.439,-11.0525 105.1188,-13.4492 114.6811,-18.0113 115.439,-11.0525"/>
</g>
<!-- Node5&#45;&gt;Node4 -->
<g id="edge13" class="edge">
<title>Node5&#45;&gt;Node4</title>
<path fill="none" stroke="#191970" d="M241.5811,-123.4639C212.5041,-111.8677 172.6636,-95.9789 144.717,-84.8335"/>
<polygon fill="#191970" stroke="#191970" points="145.9502,-81.5574 135.3651,-81.1039 143.3571,-88.0594 145.9502,-81.5574"/>
</g>
<!-- Node6 -->
<g id="node7" class="node">
<title>Node6</title>
<polygon fill="#ffffff" stroke="#bfbfbf" points="457.2836,-62 457.2836,-81 499.2836,-81 499.2836,-62 457.2836,-62"/>
<text text-anchor="middle" x="478.2836" y="-69" font-family="Helvetica,sans-Serif" font-size="10.00" fill="#000000">array</text>
</g>
<!-- Node5&#45;&gt;Node6 -->
<g id="edge7" class="edge">
<title>Node5&#45;&gt;Node6</title>
<path fill="none" stroke="#191970" d="M337.2873,-123.6294C370.3266,-114.4672 412.2009,-101.678 448.2836,-87 449.4749,-86.5154 450.6823,-86 451.8943,-85.4627"/>
<polygon fill="#191970" stroke="#191970" points="453.5778,-88.5373 461.0849,-81.061 450.554,-82.224 453.5778,-88.5373"/>
</g>
<!-- Node7 -->
<g id="node8" class="node">
<title>Node7</title>
<polygon fill="#ffffff" stroke="#bfbfbf" points="517.7836,-62 517.7836,-81 564.7836,-81 564.7836,-62 517.7836,-62"/>
<text text-anchor="middle" x="541.2836" y="-69" font-family="Helvetica,sans-Serif" font-size="10.00" fill="#000000">vector</text>
</g>
<!-- Node5&#45;&gt;Node7 -->
<g id="edge8" class="edge">
<title>Node5&#45;&gt;Node7</title>
<path fill="none" stroke="#191970" d="M337.6573,-129.0033C384.5205,-120.5184 451.6166,-106.4201 508.2836,-87 509.9302,-86.4357 511.6039,-85.8137 513.2798,-85.1531"/>
<polygon fill="#191970" stroke="#191970" points="514.9336,-88.2515 522.7298,-81.0772 512.1613,-81.8239 514.9336,-88.2515"/>
</g>
<!-- Node8 -->
<g id="node9" class="node">
<title>Node8</title>
<polygon fill="#ffffff" stroke="#bfbfbf" points="191.7836,-62 191.7836,-81 260.7836,-81 260.7836,-62 191.7836,-62"/>
<text text-anchor="middle" x="226.2836" y="-69" font-family="Helvetica,sans-Serif" font-size="10.00" fill="#000000">Eigen/Core</text>
</g>
<!-- Node5&#45;&gt;Node8 -->
<g id="edge9" class="edge">
<title>Node5&#45;&gt;Node8</title>
<path fill="none" stroke="#191970" d="M267.2571,-123.2967C259.2399,-113.1618 248.6734,-99.804 240.2789,-89.1921"/>
<polygon fill="#191970" stroke="#191970" points="242.7911,-86.7264 233.842,-81.055 237.3011,-91.0692 242.7911,-86.7264"/>
</g>
<!-- Node9 -->
<g id="node10" class="node">
<title>Node9</title>
<g id="a_node10"><a xlink:href="drake__assert_8h.html" target="_top" xlink:title="Provides Drake&#39;s assertion implementation. ">
<polygon fill="#ffffff" stroke="#000000" points="317.7836,-56.5 317.7836,-86.5 438.7836,-86.5 438.7836,-56.5 317.7836,-56.5"/>
<text text-anchor="start" x="325.7836" y="-74.5" font-family="Helvetica,sans-Serif" font-size="10.00" fill="#000000">drake/common/drake</text>
<text text-anchor="middle" x="378.2836" y="-63.5" font-family="Helvetica,sans-Serif" font-size="10.00" fill="#000000">_assert.h</text>
</a>
</g>
</g>
<!-- Node5&#45;&gt;Node9 -->
<g id="edge11" class="edge">
<title>Node5&#45;&gt;Node9</title>
<path fill="none" stroke="#191970" d="M301.7482,-123.2967C315.2921,-114.1306 332.7311,-102.3285 347.5411,-92.3055"/>
<polygon fill="#191970" stroke="#191970" points="349.5878,-95.1466 355.9079,-86.6432 345.6645,-89.3494 349.5878,-95.1466"/>
</g>
<!-- Node10 -->
<g id="node11" class="node">
<title>Node10</title>
<polygon fill="#ffffff" stroke="#bfbfbf" points="343.7836,-.5 343.7836,-19.5 412.7836,-19.5 412.7836,-.5 343.7836,-.5"/>
<text text-anchor="middle" x="378.2836" y="-7.5" font-family="Helvetica,sans-Serif" font-size="10.00" fill="#000000">type_traits</text>
</g>
<!-- Node9&#45;&gt;Node10 -->
<g id="edge12" class="edge">
<title>Node9&#45;&gt;Node10</title>
<path fill="none" stroke="#191970" d="M378.2836,-56.2977C378.2836,-48.3834 378.2836,-38.6043 378.2836,-30.0759"/>
<polygon fill="#191970" stroke="#191970" points="381.7837,-29.8469 378.2836,-19.8469 374.7837,-29.847 381.7837,-29.8469"/>
</g>
<!-- Node11&#45;&gt;Node2 -->
<g id="edge15" class="edge">
<title>Node11&#45;&gt;Node2</title>
<path fill="none" stroke="#191970" d="M83.241,-190.4695C70.6731,-168.6121 48.5393,-126.3586 40.2836,-87 37.4552,-73.5157 36.7786,-69.3245 40.2836,-56 42.8948,-46.0734 48.1903,-36.0366 53.3248,-27.8822"/>
<polygon fill="#191970" stroke="#191970" points="56.2299,-29.8342 58.9017,-19.5817 50.4196,-25.9303 56.2299,-29.8342"/>
</g>
<!-- Node11&#45;&gt;Node4 -->
<g id="edge16" class="edge">
<title>Node11&#45;&gt;Node4</title>
<path fill="none" stroke="#191970" d="M94.4262,-190.389C97.8739,-166.0735 104.6528,-118.2644 108.4804,-91.2698"/>
<polygon fill="#191970" stroke="#191970" points="111.9832,-91.4965 109.9218,-81.1042 105.0525,-90.5137 111.9832,-91.4965"/>
</g>
<!-- Node11&#45;&gt;Node5 -->
<g id="edge17" class="edge">
<title>Node11&#45;&gt;Node5</title>
<path fill="none" stroke="#191970" d="M134.25,-190.4639C161.8228,-180.5849 198.0908,-167.5905 227.4608,-157.0675"/>
<polygon fill="#191970" stroke="#191970" points="228.9007,-160.2696 237.1341,-153.6017 226.5396,-153.6798 228.9007,-160.2696"/>
</g>
</g>
</svg>
        <g id="navigator" transform="translate(0 0)" fill="#404254">
                <rect fill="#f2f5e9" fill-opacity="0.5" stroke="#606060" stroke-width=".5" x="0" y="0" width="60" height="60"/>
                <use id="zoomplus" xlink:href="#zoomPlus" x="17" y="9" onmousedown="handleZoom(evt,'in')"/>
                <use id="zoomminus" xlink:href="#zoomMin" x="42" y="9" onmousedown="handleZoom(evt,'out')"/>
                <use id="reset" xlink:href="#resetDef" x="30" y="36" onmousedown="handleReset()"/>
                <g id="arrowUp" xlink:href="#dirArrow" transform="translate(30 24)" onmousedown="handlePan(0,-1)">
                  <use xlink:href="#rim" fill="#404040">
                        <set attributeName="fill" to="#808080" begin="arrowUp.mouseover" end="arrowUp.mouseout"/>
                  </use>
                  <path fill="none" stroke="white" stroke-width="1.5" d="M0,-3.0v7 M-2.5,-0.5L0,-3.0L2.5,-0.5"/>
                </g>
                <g id="arrowRight" xlink:href="#dirArrow" transform="rotate(90) translate(36 -43)" onmousedown="handlePan(1,0)">
                  <use xlink:href="#rim" fill="#404040">
                        <set attributeName="fill" to="#808080" begin="arrowRight.mouseover" end="arrowRight.mouseout"/>
                  </use>
                  <path fill="none" stroke="white" stroke-width="1.5" d="M0,-3.0v7 M-2.5,-0.5L0,-3.0L2.5,-0.5"/>
                </g>
                <g id="arrowDown" xlink:href="#dirArrow" transform="rotate(180) translate(-30 -48)" onmousedown="handlePan(0,1)">
                  <use xlink:href="#rim" fill="#404040">
                        <set attributeName="fill" to="#808080" begin="arrowDown.mouseover" end="arrowDown.mouseout"/>
                  </use>
                  <path fill="none" stroke="white" stroke-width="1.5" d="M0,-3.0v7 M-2.5,-0.5L0,-3.0L2.5,-0.5"/>
                </g>
                <g id="arrowLeft" xlink:href="#dirArrow" transform="rotate(270) translate(-36 17)" onmousedown="handlePan(-1,0)">
                  <use xlink:href="#rim" fill="#404040">
                        <set attributeName="fill" to="#808080" begin="arrowLeft.mouseover" end="arrowLeft.mouseout"/>
                  </use>
                  <path fill="none" stroke="white" stroke-width="1.5" d="M0,-3.0v7 M-2.5,-0.5L0,-3.0L2.5,-0.5"/>
                </g>
        </g>
        <svg viewBox="0 0 15 15" width="100%" height="30px" preserveAspectRatio="xMaxYMin meet">
         <g id="arrow_out" transform="scale(0.3 0.3)">
          <a xlink:href="rotation__conversion__gradient_8cc__incl_org.svg" target="_base">
           <rect id="button" ry="5" rx="5" y="6" x="6" height="38" width="38"
                fill="#f2f5e9" fill-opacity="0.5" stroke="#606060" stroke-width="1.0"/>
           <path id="arrow"
             d="M 11.500037,31.436501 C 11.940474,20.09759 22.043105,11.32322 32.158766,21.979434 L 37.068811,17.246167 C 37.068811,17.246167 37.088388,32 37.088388,32 L 22.160133,31.978069 C 22.160133,31.978069 26.997745,27.140456 26.997745,27.140456 C 18.528582,18.264221 13.291696,25.230495 11.500037,31.436501 z"
             style="fill:#404040;"/>
          </a>
         </g>
        </svg>
</svg>
