<?xml version="1.0" encoding="UTF-8" standalone="no"?>
<!DOCTYPE svg PUBLIC "-//W3C//DTD SVG 1.1//EN"
 "http://www.w3.org/Graphics/SVG/1.1/DTD/svg11.dtd">
<!-- Generated by graphviz version 2.40.1 (20161225.0304)
 -->
<!-- Title: drake/automotive/maliput/api/test_utilities/rules_speed_limit_compare.h Pages: 1 -->
<svg width="651pt" height="128pt"
 viewBox="0.00 0.00 650.50 128.00" xmlns="http://www.w3.org/2000/svg" xmlns:xlink="http://www.w3.org/1999/xlink">
<g id="graph0" class="graph" transform="scale(1 1) rotate(0) translate(4 124)">
<title>drake/automotive/maliput/api/test_utilities/rules_speed_limit_compare.h</title>
<polygon fill="#ffffff" stroke="transparent" points="-4,4 -4,-124 646.5,-124 646.5,4 -4,4"/>
<!-- Node78 -->
<g id="node1" class="node">
<title>Node78</title>
<polygon fill="#bfbfbf" stroke="#000000" points="247,-78.5 247,-119.5 391,-119.5 391,-78.5 247,-78.5"/>
<text text-anchor="start" x="255" y="-107.5" font-family="Helvetica,sans-Serif" font-size="10.00" fill="#000000">drake/automotive/maliput</text>
<text text-anchor="start" x="255" y="-96.5" font-family="Helvetica,sans-Serif" font-size="10.00" fill="#000000">/api/test_utilities/rules</text>
<text text-anchor="middle" x="319" y="-85.5" font-family="Helvetica,sans-Serif" font-size="10.00" fill="#000000">_speed_limit_compare.h</text>
</g>
<!-- Node79 -->
<g id="node2" class="node">
<title>Node79</title>
<g id="a_node2"><a xlink:href="rules__speed__limit__test_8cc.html" target="_top" xlink:title="drake/automotive/maliput\l/api/test/rules_speed_limit\l_test.cc">
<polygon fill="#ffffff" stroke="#000000" points="0,-.5 0,-41.5 146,-41.5 146,-.5 0,-.5"/>
<text text-anchor="start" x="8" y="-29.5" font-family="Helvetica,sans-Serif" font-size="10.00" fill="#000000">drake/automotive/maliput</text>
<text text-anchor="start" x="8" y="-18.5" font-family="Helvetica,sans-Serif" font-size="10.00" fill="#000000">/api/test/rules_speed_limit</text>
<text text-anchor="middle" x="73" y="-7.5" font-family="Helvetica,sans-Serif" font-size="10.00" fill="#000000">_test.cc</text>
</a>
</g>
</g>
<!-- Node78&#45;&gt;Node79 -->
<g id="edge1" class="edge">
<title>Node78&#45;&gt;Node79</title>
<path fill="none" stroke="#191970" d="M244.1815,-75.277C210.2604,-64.5216 170.5324,-51.9249 137.8925,-41.5757"/>
<polygon fill="#191970" stroke="#191970" points="243.4544,-78.7182 254.0446,-78.4044 245.5702,-72.0456 243.4544,-78.7182"/>
</g>
<!-- Node80 -->
<g id="node3" class="node">
<title>Node80</title>
<g id="a_node3"><a xlink:href="rules__speed__limit__compare_8cc.html" target="_top" xlink:title="drake/automotive/maliput\l/api/test_utilities/rules\l_speed_limit_compare.cc">
<polygon fill="#ffffff" stroke="#000000" points="164,-.5 164,-41.5 308,-41.5 308,-.5 164,-.5"/>
<text text-anchor="start" x="172" y="-29.5" font-family="Helvetica,sans-Serif" font-size="10.00" fill="#000000">drake/automotive/maliput</text>
<text text-anchor="start" x="172" y="-18.5" font-family="Helvetica,sans-Serif" font-size="10.00" fill="#000000">/api/test_utilities/rules</text>
<text text-anchor="middle" x="236" y="-7.5" font-family="Helvetica,sans-Serif" font-size="10.00" fill="#000000">_speed_limit_compare.cc</text>
</a>
</g>
</g>
<!-- Node78&#45;&gt;Node80 -->
<g id="edge2" class="edge">
<title>Node78&#45;&gt;Node80</title>
<path fill="none" stroke="#191970" d="M289.4488,-71.229C279.0912,-61.4953 267.6479,-50.7414 258.0161,-41.6898"/>
<polygon fill="#191970" stroke="#191970" points="287.0735,-73.7997 296.7575,-78.0974 291.8672,-68.6987 287.0735,-73.7997"/>
</g>
<!-- Node81 -->
<g id="node4" class="node">
<title>Node81</title>
<g id="a_node4"><a xlink:href="simple__rulebook__test_8cc.html" target="_top" xlink:title="drake/automotive/maliput\l/simplerulebook/test/simple\l_rulebook_test.cc">
<polygon fill="#ffffff" stroke="#000000" points="326.5,-.5 326.5,-41.5 479.5,-41.5 479.5,-.5 326.5,-.5"/>
<text text-anchor="start" x="334.5" y="-29.5" font-family="Helvetica,sans-Serif" font-size="10.00" fill="#000000">drake/automotive/maliput</text>
<text text-anchor="start" x="334.5" y="-18.5" font-family="Helvetica,sans-Serif" font-size="10.00" fill="#000000">/simplerulebook/test/simple</text>
<text text-anchor="middle" x="403" y="-7.5" font-family="Helvetica,sans-Serif" font-size="10.00" fill="#000000">_rulebook_test.cc</text>
</a>
</g>
</g>
<!-- Node78&#45;&gt;Node81 -->
<g id="edge3" class="edge">
<title>Node78&#45;&gt;Node81</title>
<path fill="none" stroke="#191970" d="M348.9072,-71.229C359.3897,-61.4953 370.9708,-50.7414 380.7187,-41.6898"/>
<polygon fill="#191970" stroke="#191970" points="346.4568,-68.7281 341.5105,-78.0974 351.22,-73.8577 346.4568,-68.7281"/>
</g>
<!-- Node82 -->
<g id="node5" class="node">
<title>Node82</title>
<g id="a_node5"><a xlink:href="yaml__io__test_8cc.html" target="_top" xlink:title="drake/automotive/maliput\l/simplerulebook/test/yaml\l_io_test.cc">
<polygon fill="#ffffff" stroke="#000000" points="497.5,-.5 497.5,-41.5 642.5,-41.5 642.5,-.5 497.5,-.5"/>
<text text-anchor="start" x="505.5" y="-29.5" font-family="Helvetica,sans-Serif" font-size="10.00" fill="#000000">drake/automotive/maliput</text>
<text text-anchor="start" x="505.5" y="-18.5" font-family="Helvetica,sans-Serif" font-size="10.00" fill="#000000">/simplerulebook/test/yaml</text>
<text text-anchor="middle" x="570" y="-7.5" font-family="Helvetica,sans-Serif" font-size="10.00" fill="#000000">_io_test.cc</text>
</a>
</g>
</g>
<!-- Node78&#45;&gt;Node82 -->
<g id="edge4" class="edge">
<title>Node78&#45;&gt;Node82</title>
<path fill="none" stroke="#191970" d="M394.8939,-75.4154C429.6017,-64.6297 470.3423,-51.9693 503.7885,-41.5757"/>
<polygon fill="#191970" stroke="#191970" points="393.7865,-72.0944 385.2756,-78.4044 395.8638,-78.7791 393.7865,-72.0944"/>
</g>
</g>
</svg>
