<?xml version="1.0" encoding="UTF-8" standalone="no"?>
<!DOCTYPE svg PUBLIC "-//W3C//DTD SVG 1.1//EN"
 "http://www.w3.org/Graphics/SVG/1.1/DTD/svg11.dtd">
<!-- Generated by graphviz version 2.40.1 (20161225.0304)
 -->
<!-- Title: drake/systems/primitives/saturation.h Pages: 1 -->
<svg width="962pt" height="117pt"
 viewBox="0.00 0.00 961.50 117.00" xmlns="http://www.w3.org/2000/svg" xmlns:xlink="http://www.w3.org/1999/xlink">
<g id="graph0" class="graph" transform="scale(1 1) rotate(0) translate(4 113)">
<title>drake/systems/primitives/saturation.h</title>
<polygon fill="#ffffff" stroke="transparent" points="-4,4 -4,-113 957.5,-113 957.5,4 -4,4"/>
<!-- Node112 -->
<g id="node1" class="node">
<title>Node112</title>
<polygon fill="#bfbfbf" stroke="#000000" points="405.5,-78.5 405.5,-108.5 546.5,-108.5 546.5,-78.5 405.5,-78.5"/>
<text text-anchor="start" x="413.5" y="-96.5" font-family="Helvetica,sans-Serif" font-size="10.00" fill="#000000">drake/systems/primitives</text>
<text text-anchor="middle" x="476" y="-85.5" font-family="Helvetica,sans-Serif" font-size="10.00" fill="#000000">/saturation.h</text>
</g>
<!-- Node113 -->
<g id="node2" class="node">
<title>Node113</title>
<g id="a_node2"><a xlink:href="primitives__py_8cc.html" target="_top" xlink:title="drake/bindings/pydrake\l/systems/primitives_py.cc">
<polygon fill="#ffffff" stroke="#000000" points="0,-6 0,-36 144,-36 144,-6 0,-6"/>
<text text-anchor="start" x="8" y="-24" font-family="Helvetica,sans-Serif" font-size="10.00" fill="#000000">drake/bindings/pydrake</text>
<text text-anchor="middle" x="72" y="-13" font-family="Helvetica,sans-Serif" font-size="10.00" fill="#000000">/systems/primitives_py.cc</text>
</a>
</g>
</g>
<!-- Node112&#45;&gt;Node113 -->
<g id="edge1" class="edge">
<title>Node112&#45;&gt;Node113</title>
<path fill="none" stroke="#191970" d="M395.124,-82.7914C329.5537,-73.5852 234.914,-59.108 153,-42 144.6099,-40.2477 135.7847,-38.1877 127.1706,-36.0548"/>
<polygon fill="#191970" stroke="#191970" points="395.0041,-86.3084 405.3917,-84.2233 395.971,-79.3755 395.0041,-86.3084"/>
</g>
<!-- Node114 -->
<g id="node3" class="node">
<title>Node114</title>
<g id="a_node3"><a xlink:href="schunk__wsg__plain__controller_8cc.html" target="_top" xlink:title="drake/manipulation\l/schunk_wsg/schunk_wsg\l_plain_controller.cc">
<polygon fill="#ffffff" stroke="#000000" points="162.5,-.5 162.5,-41.5 303.5,-41.5 303.5,-.5 162.5,-.5"/>
<text text-anchor="start" x="170.5" y="-29.5" font-family="Helvetica,sans-Serif" font-size="10.00" fill="#000000">drake/manipulation</text>
<text text-anchor="start" x="170.5" y="-18.5" font-family="Helvetica,sans-Serif" font-size="10.00" fill="#000000">/schunk_wsg/schunk_wsg</text>
<text text-anchor="middle" x="233" y="-7.5" font-family="Helvetica,sans-Serif" font-size="10.00" fill="#000000">_plain_controller.cc</text>
</a>
</g>
</g>
<!-- Node112&#45;&gt;Node114 -->
<g id="edge2" class="edge">
<title>Node112&#45;&gt;Node114</title>
<path fill="none" stroke="#191970" d="M415.6899,-75.5062C381.1188,-65.1918 337.6037,-52.2089 301.7154,-41.5015"/>
<polygon fill="#191970" stroke="#191970" points="415.067,-78.9728 425.6502,-78.478 417.0683,-72.265 415.067,-78.9728"/>
</g>
<!-- Node115 -->
<g id="node4" class="node">
<title>Node115</title>
<g id="a_node4"><a xlink:href="pid__controlled__system_8cc.html" target="_top" xlink:title="drake/systems/controllers\l/pid_controlled_system.cc">
<polygon fill="#ffffff" stroke="#000000" points="321.5,-6 321.5,-36 464.5,-36 464.5,-6 321.5,-6"/>
<text text-anchor="start" x="329.5" y="-24" font-family="Helvetica,sans-Serif" font-size="10.00" fill="#000000">drake/systems/controllers</text>
<text text-anchor="middle" x="393" y="-13" font-family="Helvetica,sans-Serif" font-size="10.00" fill="#000000">/pid_controlled_system.cc</text>
</a>
</g>
</g>
<!-- Node112&#45;&gt;Node115 -->
<g id="edge3" class="edge">
<title>Node112&#45;&gt;Node115</title>
<path fill="none" stroke="#191970" d="M450.9945,-71.6579C437.8077,-60.1393 421.9671,-46.3026 410.1756,-36.0028"/>
<polygon fill="#191970" stroke="#191970" points="448.9684,-74.5353 458.8023,-78.478 453.5735,-69.2633 448.9684,-74.5353"/>
</g>
<!-- Node116 -->
<g id="node5" class="node">
<title>Node116</title>
<g id="a_node5"><a xlink:href="pid__controlled__system__test_8cc.html" target="_top" xlink:title="drake/systems/controllers\l/test/pid_controlled_system\l_test.cc">
<polygon fill="#ffffff" stroke="#000000" points="483,-.5 483,-41.5 635,-41.5 635,-.5 483,-.5"/>
<text text-anchor="start" x="491" y="-29.5" font-family="Helvetica,sans-Serif" font-size="10.00" fill="#000000">drake/systems/controllers</text>
<text text-anchor="start" x="491" y="-18.5" font-family="Helvetica,sans-Serif" font-size="10.00" fill="#000000">/test/pid_controlled_system</text>
<text text-anchor="middle" x="559" y="-7.5" font-family="Helvetica,sans-Serif" font-size="10.00" fill="#000000">_test.cc</text>
</a>
</g>
</g>
<!-- Node112&#45;&gt;Node116 -->
<g id="edge4" class="edge">
<title>Node112&#45;&gt;Node116</title>
<path fill="none" stroke="#191970" d="M500.819,-71.8207C511.8177,-62.2135 524.6916,-50.9681 535.5293,-41.5015"/>
<polygon fill="#191970" stroke="#191970" points="498.4265,-69.2633 493.1977,-78.478 503.0316,-74.5353 498.4265,-69.2633"/>
</g>
<!-- Node117 -->
<g id="node6" class="node">
<title>Node117</title>
<g id="a_node6"><a xlink:href="saturation_8cc.html" target="_top" xlink:title="drake/systems/primitives\l/saturation.cc">
<polygon fill="#ffffff" stroke="#000000" points="653.5,-6 653.5,-36 794.5,-36 794.5,-6 653.5,-6"/>
<text text-anchor="start" x="661.5" y="-24" font-family="Helvetica,sans-Serif" font-size="10.00" fill="#000000">drake/systems/primitives</text>
<text text-anchor="middle" x="724" y="-13" font-family="Helvetica,sans-Serif" font-size="10.00" fill="#000000">/saturation.cc</text>
</a>
</g>
</g>
<!-- Node112&#45;&gt;Node117 -->
<g id="edge5" class="edge">
<title>Node112&#45;&gt;Node117</title>
<path fill="none" stroke="#191970" d="M537.1395,-75.6266C578.7855,-63.4518 633.2929,-47.5172 672.6801,-36.0028"/>
<polygon fill="#191970" stroke="#191970" points="536.0019,-72.3125 527.3858,-78.478 537.9661,-79.0313 536.0019,-72.3125"/>
</g>
<!-- Node118 -->
<g id="node7" class="node">
<title>Node118</title>
<g id="a_node7"><a xlink:href="saturation__test_8cc.html" target="_top" xlink:title="drake/systems/primitives\l/test/saturation_test.cc">
<polygon fill="#ffffff" stroke="#000000" points="812.5,-6 812.5,-36 953.5,-36 953.5,-6 812.5,-6"/>
<text text-anchor="start" x="820.5" y="-24" font-family="Helvetica,sans-Serif" font-size="10.00" fill="#000000">drake/systems/primitives</text>
<text text-anchor="middle" x="883" y="-13" font-family="Helvetica,sans-Serif" font-size="10.00" fill="#000000">/test/saturation_test.cc</text>
</a>
</g>
</g>
<!-- Node112&#45;&gt;Node118 -->
<g id="edge6" class="edge">
<title>Node112&#45;&gt;Node118</title>
<path fill="none" stroke="#191970" d="M556.7883,-83.2027C623.4409,-74.1361 720.3087,-59.6438 804,-42 812.1929,-40.2728 820.8056,-38.2262 829.2093,-36.0993"/>
<polygon fill="#191970" stroke="#191970" points="556.2099,-79.7489 546.7683,-84.5558 557.1468,-86.686 556.2099,-79.7489"/>
</g>
</g>
</svg>
