<?xml version="1.0" encoding="UTF-8" standalone="no"?>
<!DOCTYPE svg PUBLIC "-//W3C//DTD SVG 1.1//EN"
 "http://www.w3.org/Graphics/SVG/1.1/DTD/svg11.dtd">
<!-- Generated by graphviz version 2.40.1 (20161225.0304)
 -->
<!-- Title: drake/systems/analysis/scalar_view_dense_output.h Pages: 1 -->
<svg width="473pt" height="307pt"
 viewBox="0.00 0.00 472.50 307.00" xmlns="http://www.w3.org/2000/svg" xmlns:xlink="http://www.w3.org/1999/xlink">
<g id="graph0" class="graph" transform="scale(1 1) rotate(0) translate(4 303)">
<title>drake/systems/analysis/scalar_view_dense_output.h</title>
<polygon fill="#ffffff" stroke="transparent" points="-4,4 -4,-303 468.5,-303 468.5,4 -4,4"/>
<!-- Node0 -->
<g id="node1" class="node">
<title>Node0</title>
<polygon fill="#bfbfbf" stroke="#000000" points="86,-268.5 86,-298.5 244,-298.5 244,-268.5 86,-268.5"/>
<text text-anchor="start" x="94" y="-286.5" font-family="Helvetica,sans-Serif" font-size="10.00" fill="#000000">drake/systems/analysis</text>
<text text-anchor="middle" x="165" y="-275.5" font-family="Helvetica,sans-Serif" font-size="10.00" fill="#000000">/scalar_view_dense_output.h</text>
</g>
<!-- Node1 -->
<g id="node2" class="node">
<title>Node1</title>
<polygon fill="#ffffff" stroke="#bfbfbf" points="0,-6 0,-25 58,-25 58,-6 0,-6"/>
<text text-anchor="middle" x="29" y="-13" font-family="Helvetica,sans-Serif" font-size="10.00" fill="#000000">memory</text>
</g>
<!-- Node0&#45;&gt;Node1 -->
<g id="edge1" class="edge">
<title>Node0&#45;&gt;Node1</title>
<path fill="none" stroke="#191970" d="M115.6994,-268.4293C96.7851,-260.3836 76.5189,-248.6207 63,-232 15.599,-173.7235 21.0895,-76.5607 26.0821,-35.1564"/>
<polygon fill="#191970" stroke="#191970" points="29.5791,-35.4107 27.4327,-25.0356 22.6406,-34.4847 29.5791,-35.4107"/>
</g>
<!-- Node2 -->
<g id="node3" class="node">
<title>Node2</title>
<polygon fill="#ffffff" stroke="#bfbfbf" points="72.5,-207 72.5,-226 117.5,-226 117.5,-207 72.5,-207"/>
<text text-anchor="middle" x="95" y="-214" font-family="Helvetica,sans-Serif" font-size="10.00" fill="#000000">utility</text>
</g>
<!-- Node0&#45;&gt;Node2 -->
<g id="edge2" class="edge">
<title>Node0&#45;&gt;Node2</title>
<path fill="none" stroke="#191970" d="M149.1159,-268.2967C138.2096,-257.8578 123.731,-243.9997 112.4944,-233.2446"/>
<polygon fill="#191970" stroke="#191970" points="114.6271,-230.4411 104.9828,-226.055 109.7869,-235.498 114.6271,-230.4411"/>
</g>
<!-- Node3 -->
<g id="node4" class="node">
<title>Node3</title>
<polygon fill="#ffffff" stroke="#bfbfbf" points="36.5,-73 36.5,-92 115.5,-92 115.5,-73 36.5,-73"/>
<text text-anchor="middle" x="76" y="-80" font-family="Helvetica,sans-Serif" font-size="10.00" fill="#000000">fmt/format.h</text>
</g>
<!-- Node0&#45;&gt;Node3 -->
<g id="edge3" class="edge">
<title>Node0&#45;&gt;Node3</title>
<path fill="none" stroke="#191970" d="M158.3105,-268.3923C142.3534,-232.3544 102.0781,-141.3956 84.4652,-101.6181"/>
<polygon fill="#191970" stroke="#191970" points="87.569,-99.9829 80.3199,-92.2562 81.1684,-102.817 87.569,-99.9829"/>
</g>
<!-- Node4 -->
<g id="node5" class="node">
<title>Node4</title>
<g id="a_node5"><a xlink:href="drake__copyable_8h.html" target="_top" xlink:title="Provides careful macros to selectively enable or disable the special member functions for copy&#45;constr...">
<polygon fill="#ffffff" stroke="#000000" points="343.5,-.5 343.5,-30.5 464.5,-30.5 464.5,-.5 343.5,-.5"/>
<text text-anchor="start" x="351.5" y="-18.5" font-family="Helvetica,sans-Serif" font-size="10.00" fill="#000000">drake/common/drake</text>
<text text-anchor="middle" x="404" y="-7.5" font-family="Helvetica,sans-Serif" font-size="10.00" fill="#000000">_copyable.h</text>
</a>
</g>
</g>
<!-- Node0&#45;&gt;Node4 -->
<g id="edge4" class="edge">
<title>Node0&#45;&gt;Node4</title>
<path fill="none" stroke="#191970" d="M244.0725,-269.1075C287.7455,-259.7794 336.4308,-246.6602 353,-232 410.8926,-180.7774 410.9952,-144.2421 408,-67 407.6714,-58.5261 407.0398,-49.2855 406.3738,-41.0009"/>
<polygon fill="#191970" stroke="#191970" points="409.8413,-40.4706 405.5012,-30.8055 402.8668,-41.0676 409.8413,-40.4706"/>
</g>
<!-- Node5 -->
<g id="node6" class="node">
<title>Node5</title>
<g id="a_node6"><a xlink:href="dense__output_8h.html" target="_top" xlink:title="drake/systems/analysis\l/dense_output.h">
<polygon fill="#ffffff" stroke="#000000" points="193,-134.5 193,-164.5 325,-164.5 325,-134.5 193,-134.5"/>
<text text-anchor="start" x="201" y="-152.5" font-family="Helvetica,sans-Serif" font-size="10.00" fill="#000000">drake/systems/analysis</text>
<text text-anchor="middle" x="259" y="-141.5" font-family="Helvetica,sans-Serif" font-size="10.00" fill="#000000">/dense_output.h</text>
</a>
</g>
</g>
<!-- Node0&#45;&gt;Node5 -->
<g id="edge5" class="edge">
<title>Node0&#45;&gt;Node5</title>
<path fill="none" stroke="#191970" d="M169.9638,-268.238C176.0496,-250.9098 187.4971,-222.2879 203,-201 210.9761,-190.0476 221.5515,-179.6036 231.3624,-171.0192"/>
<polygon fill="#191970" stroke="#191970" points="233.6262,-173.6885 239.0024,-164.5591 229.1064,-168.3433 233.6262,-173.6885"/>
</g>
<!-- Node10 -->
<g id="node11" class="node">
<title>Node10</title>
<g id="a_node11"><a xlink:href="scalar__dense__output_8h.html" target="_top" xlink:title="drake/systems/analysis\l/scalar_dense_output.h">
<polygon fill="#ffffff" stroke="#000000" points="212,-201.5 212,-231.5 344,-231.5 344,-201.5 212,-201.5"/>
<text text-anchor="start" x="220" y="-219.5" font-family="Helvetica,sans-Serif" font-size="10.00" fill="#000000">drake/systems/analysis</text>
<text text-anchor="middle" x="278" y="-208.5" font-family="Helvetica,sans-Serif" font-size="10.00" fill="#000000">/scalar_dense_output.h</text>
</a>
</g>
</g>
<!-- Node0&#45;&gt;Node10 -->
<g id="edge14" class="edge">
<title>Node0&#45;&gt;Node10</title>
<path fill="none" stroke="#191970" d="M190.3594,-268.4639C206.0963,-259.1332 226.5205,-247.0232 243.6928,-236.8415"/>
<polygon fill="#191970" stroke="#191970" points="245.5176,-239.8285 252.3343,-231.7177 241.9475,-233.8073 245.5176,-239.8285"/>
</g>
<!-- Node5&#45;&gt;Node3 -->
<g id="edge6" class="edge">
<title>Node5&#45;&gt;Node3</title>
<path fill="none" stroke="#191970" d="M217.9312,-134.4639C186.025,-122.7824 142.2212,-106.7449 111.7488,-95.5884"/>
<polygon fill="#191970" stroke="#191970" points="112.556,-92.1567 101.9622,-92.0053 110.1493,-98.73 112.556,-92.1567"/>
</g>
<!-- Node5&#45;&gt;Node4 -->
<g id="edge8" class="edge">
<title>Node5&#45;&gt;Node4</title>
<path fill="none" stroke="#191970" d="M307.3835,-134.4658C327.5086,-126.2739 349.8841,-114.3913 366,-98 381.7112,-82.0204 391.6891,-58.3592 397.4576,-40.469"/>
<polygon fill="#191970" stroke="#191970" points="400.8659,-41.2877 400.3791,-30.704 394.1596,-39.2812 400.8659,-41.2877"/>
</g>
<!-- Node6 -->
<g id="node7" class="node">
<title>Node6</title>
<polygon fill="#ffffff" stroke="#bfbfbf" points="271,-73 271,-92 357,-92 357,-73 271,-73"/>
<text text-anchor="middle" x="314" y="-80" font-family="Helvetica,sans-Serif" font-size="10.00" fill="#000000">fmt/ostream.h</text>
</g>
<!-- Node5&#45;&gt;Node6 -->
<g id="edge7" class="edge">
<title>Node5&#45;&gt;Node6</title>
<path fill="none" stroke="#191970" d="M271.4804,-134.2967C279.8832,-124.0605 290.9849,-110.5366 299.7373,-99.8746"/>
<polygon fill="#191970" stroke="#191970" points="302.5167,-102.005 306.1564,-92.055 297.1061,-97.5635 302.5167,-102.005"/>
</g>
<!-- Node7 -->
<g id="node8" class="node">
<title>Node7</title>
<g id="a_node8"><a xlink:href="eigen__types_8h.html" target="_top" xlink:title="This file contains abbreviated definitions for certain specializations of Eigen::Matrix that are comm...">
<polygon fill="#ffffff" stroke="#000000" points="133,-67.5 133,-97.5 253,-97.5 253,-67.5 133,-67.5"/>
<text text-anchor="start" x="141" y="-85.5" font-family="Helvetica,sans-Serif" font-size="10.00" fill="#000000">drake/common/eigen</text>
<text text-anchor="middle" x="193" y="-74.5" font-family="Helvetica,sans-Serif" font-size="10.00" fill="#000000">_types.h</text>
</a>
</g>
</g>
<!-- Node5&#45;&gt;Node7 -->
<g id="edge9" class="edge">
<title>Node5&#45;&gt;Node7</title>
<path fill="none" stroke="#191970" d="M244.0236,-134.2967C235.5007,-125.6446 224.664,-114.6438 215.1717,-105.0076"/>
<polygon fill="#191970" stroke="#191970" points="217.4283,-102.311 207.9172,-97.6432 212.4415,-107.2234 217.4283,-102.311"/>
</g>
<!-- Node7&#45;&gt;Node1 -->
<g id="edge10" class="edge">
<title>Node7&#45;&gt;Node1</title>
<path fill="none" stroke="#191970" d="M156.1952,-67.4639C127.9344,-55.9183 89.258,-40.1176 61.9954,-28.9798"/>
<polygon fill="#191970" stroke="#191970" points="63.0891,-25.6459 52.5081,-25.1039 60.4417,-32.126 63.0891,-25.6459"/>
</g>
<!-- Node7&#45;&gt;Node4 -->
<g id="edge13" class="edge">
<title>Node7&#45;&gt;Node4</title>
<path fill="none" stroke="#191970" d="M240.3525,-67.4639C271.8699,-57.456 313.456,-44.2509 346.8189,-33.657"/>
<polygon fill="#191970" stroke="#191970" points="347.9692,-36.9641 356.441,-30.6017 345.8506,-30.2923 347.9692,-36.9641"/>
</g>
<!-- Node8 -->
<g id="node9" class="node">
<title>Node8</title>
<polygon fill="#ffffff" stroke="#bfbfbf" points="246.5,-6 246.5,-25 323.5,-25 323.5,-6 246.5,-6"/>
<text text-anchor="middle" x="285" y="-13" font-family="Helvetica,sans-Serif" font-size="10.00" fill="#000000">Eigen/Dense</text>
</g>
<!-- Node7&#45;&gt;Node8 -->
<g id="edge11" class="edge">
<title>Node7&#45;&gt;Node8</title>
<path fill="none" stroke="#191970" d="M213.8762,-67.2967C228.7669,-56.4524 248.7243,-41.9182 263.7081,-31.006"/>
<polygon fill="#191970" stroke="#191970" points="265.8566,-33.7712 271.8797,-25.055 261.7357,-28.1127 265.8566,-33.7712"/>
</g>
<!-- Node9 -->
<g id="node10" class="node">
<title>Node9</title>
<g id="a_node10"><a xlink:href="constants_8h.html" target="_top" xlink:title="drake/common/constants.h">
<polygon fill="#ffffff" stroke="#000000" points="79.5,-6 79.5,-25 228.5,-25 228.5,-6 79.5,-6"/>
<text text-anchor="middle" x="154" y="-13" font-family="Helvetica,sans-Serif" font-size="10.00" fill="#000000">drake/common/constants.h</text>
</a>
</g>
</g>
<!-- Node7&#45;&gt;Node9 -->
<g id="edge12" class="edge">
<title>Node7&#45;&gt;Node9</title>
<path fill="none" stroke="#191970" d="M184.1503,-67.2967C178.3689,-57.3645 170.7858,-44.3371 164.6709,-33.8321"/>
<polygon fill="#191970" stroke="#191970" points="167.6175,-31.9367 159.5618,-25.055 161.5677,-35.4582 167.6175,-31.9367"/>
</g>
<!-- Node10&#45;&gt;Node4 -->
<g id="edge15" class="edge">
<title>Node10&#45;&gt;Node4</title>
<path fill="none" stroke="#191970" d="M299.2172,-201.2317C325.5518,-180.9528 369.4891,-142.4703 390,-98 398.2854,-80.0361 401.7176,-57.8403 403.1154,-40.9975"/>
<polygon fill="#191970" stroke="#191970" points="406.6221,-41.0046 403.7707,-30.8006 399.6365,-40.5556 406.6221,-41.0046"/>
</g>
<!-- Node10&#45;&gt;Node5 -->
<g id="edge16" class="edge">
<title>Node10&#45;&gt;Node5</title>
<path fill="none" stroke="#191970" d="M273.6886,-201.2967C271.4294,-193.3299 268.6054,-183.3718 266.0389,-174.3213"/>
<polygon fill="#191970" stroke="#191970" points="269.3899,-173.3089 263.2943,-164.6432 262.6554,-175.2187 269.3899,-173.3089"/>
</g>
</g>
</svg>
