<?xml version="1.0" encoding="UTF-8" standalone="no"?>
<!DOCTYPE svg PUBLIC "-//W3C//DTD SVG 1.1//EN"
 "http://www.w3.org/Graphics/SVG/1.1/DTD/svg11.dtd">
<!-- Generated by graphviz version 2.40.1 (20161225.0304)
 -->
<!-- Title: drake/manipulation/schunk_wsg/schunk_wsg_controller.h Pages: 1 -->
<!--zoomable 128 -->
<svg id="main" version="1.1" xmlns="http://www.w3.org/2000/svg" xmlns:xlink="http://www.w3.org/1999/xlink" xml:space="preserve" onload="init(evt)">
<style type="text/css"><![CDATA[
.edge:hover path { stroke: red; }
.edge:hover polygon { stroke: red; fill: red; }
]]></style>
<script type="text/javascript"><![CDATA[
var edges = document.getElementsByTagName('g');
if (edges && edges.length) {
  for (var i=0;i<edges.length;i++) {
    if (edges[i].id.substr(0,4)=='edge') {
      edges[i].setAttribute('class','edge');
    }
  }
}
]]></script>
        <defs>
                <circle id="rim" cx="0" cy="0" r="7"/>
                <circle id="rim2" cx="0" cy="0" r="3.5"/>
                <g id="zoomPlus">
                        <use xlink:href="#rim" fill="#404040">
                                <set attributeName="fill" to="#808080" begin="zoomplus.mouseover" end="zoomplus.mouseout"/>
                        </use>
                        <path d="M-4,0h8M0,-4v8" fill="none" stroke="white" stroke-width="1.5" pointer-events="none"/>
                </g>
                <g id="zoomMin">
                        <use xlink:href="#rim" fill="#404040">
                                <set attributeName="fill" to="#808080" begin="zoomminus.mouseover" end="zoomminus.mouseout"/>
                        </use>
                        <path d="M-4,0h8" fill="none" stroke="white" stroke-width="1.5" pointer-events="none"/>
                </g>
                <g id="dirArrow">
                        <path fill="none" stroke="white" stroke-width="1.5" d="M0,-3.0v7 M-2.5,-0.5L0,-3.0L2.5,-0.5"/>
                </g>
               <g id="resetDef">
                       <use xlink:href="#rim2" fill="#404040">
                               <set attributeName="fill" to="#808080" begin="reset.mouseover" end="reset.mouseout"/>
                       </use>
               </g>
        </defs>

<script type="text/javascript">
var viewWidth = 702;
var viewHeight = 128;
var sectionId = 'dynsection-1';
</script>
<script xlink:href="svgpan.js"/>
<svg id="graph" class="graph">
<g id="viewport">
<title>drake/manipulation/schunk_wsg/schunk_wsg_controller.h</title>
<polygon fill="#ffffff" stroke="transparent" points="-4,4 -4,-124 697.5,-124 697.5,4 -4,4"/>
<!-- Node112 -->
<g id="node1" class="node">
<title>Node112</title>
<polygon fill="#bfbfbf" stroke="#000000" points="308,-78.5 308,-119.5 449,-119.5 449,-78.5 308,-78.5"/>
<text text-anchor="start" x="316" y="-107.5" font-family="Helvetica,sans-Serif" font-size="10.00" fill="#000000">drake/manipulation</text>
<text text-anchor="start" x="316" y="-96.5" font-family="Helvetica,sans-Serif" font-size="10.00" fill="#000000">/schunk_wsg/schunk_wsg</text>
<text text-anchor="middle" x="378.5" y="-85.5" font-family="Helvetica,sans-Serif" font-size="10.00" fill="#000000">_controller.h</text>
</g>
<!-- Node113 -->
<g id="node2" class="node">
<title>Node113</title>
<g id="a_node2"><a xlink:href="iiwa__wsg__simulation_8cc.html" target="_top" xlink:title="Implements a simulation of the KUKA iiwa arm with a Schunk WSG 50 attached as an end effector...">
<polygon fill="#ffffff" stroke="#000000" points="0,-6 0,-36 185,-36 185,-6 0,-6"/>
<text text-anchor="start" x="8" y="-24" font-family="Helvetica,sans-Serif" font-size="10.00" fill="#000000">drake/examples/kuka</text>
<text text-anchor="middle" x="92.5" y="-13" font-family="Helvetica,sans-Serif" font-size="10.00" fill="#000000">_iiwa_arm/iiwa_wsg_simulation.cc</text>
</a>
</g>
</g>
<!-- Node112&#45;&gt;Node113 -->
<g id="edge1" class="edge">
<title>Node112&#45;&gt;Node113</title>
<path fill="none" stroke="#191970" d="M298.0542,-77.0602C250.0308,-63.963 190.2847,-47.6686 147.604,-36.0284"/>
<polygon fill="#191970" stroke="#191970" points="297.2348,-80.4645 307.8034,-79.7191 299.0766,-73.7112 297.2348,-80.4645"/>
</g>
<!-- Node114 -->
<g id="node3" class="node">
<title>Node114</title>
<g id="a_node3"><a xlink:href="schunk__wsg__simulation_8cc.html" target="_top" xlink:title="Implements a simulation of the Schunk WSG 50 gripper. ">
<polygon fill="#ffffff" stroke="#000000" points="203.5,-6 203.5,-36 377.5,-36 377.5,-6 203.5,-6"/>
<text text-anchor="start" x="211.5" y="-24" font-family="Helvetica,sans-Serif" font-size="10.00" fill="#000000">drake/examples/schunk</text>
<text text-anchor="middle" x="290.5" y="-13" font-family="Helvetica,sans-Serif" font-size="10.00" fill="#000000">_wsg/schunk_wsg_simulation.cc</text>
</a>
</g>
</g>
<!-- Node112&#45;&gt;Node114 -->
<g id="edge2" class="edge">
<title>Node112&#45;&gt;Node114</title>
<path fill="none" stroke="#191970" d="M347.2658,-71.3152C333.8583,-59.4312 318.7194,-46.0126 307.4494,-36.0233"/>
<polygon fill="#191970" stroke="#191970" points="345.1125,-74.0835 354.9176,-78.0974 349.7557,-68.8451 345.1125,-74.0835"/>
</g>
<!-- Node115 -->
<g id="node4" class="node">
<title>Node115</title>
<g id="a_node4"><a xlink:href="schunk__wsg__controller_8cc.html" target="_top" xlink:title="drake/manipulation\l/schunk_wsg/schunk_wsg\l_controller.cc">
<polygon fill="#ffffff" stroke="#000000" points="396,-.5 396,-41.5 537,-41.5 537,-.5 396,-.5"/>
<text text-anchor="start" x="404" y="-29.5" font-family="Helvetica,sans-Serif" font-size="10.00" fill="#000000">drake/manipulation</text>
<text text-anchor="start" x="404" y="-18.5" font-family="Helvetica,sans-Serif" font-size="10.00" fill="#000000">/schunk_wsg/schunk_wsg</text>
<text text-anchor="middle" x="466.5" y="-7.5" font-family="Helvetica,sans-Serif" font-size="10.00" fill="#000000">_controller.cc</text>
</a>
</g>
</g>
<!-- Node112&#45;&gt;Node115 -->
<g id="edge3" class="edge">
<title>Node112&#45;&gt;Node115</title>
<path fill="none" stroke="#191970" d="M409.8314,-71.229C420.813,-61.4953 432.9456,-50.7414 443.1577,-41.6898"/>
<polygon fill="#191970" stroke="#191970" points="407.2443,-68.8451 402.0824,-78.0974 411.8875,-74.0835 407.2443,-68.8451"/>
</g>
<!-- Node116 -->
<g id="node5" class="node">
<title>Node116</title>
<g id="a_node5"><a xlink:href="schunk__wsg__controller__test_8cc.html" target="_top" xlink:title="drake/manipulation\l/schunk_wsg/test/schunk\l_wsg_controller_test.cc">
<polygon fill="#ffffff" stroke="#000000" points="555.5,-.5 555.5,-41.5 693.5,-41.5 693.5,-.5 555.5,-.5"/>
<text text-anchor="start" x="563.5" y="-29.5" font-family="Helvetica,sans-Serif" font-size="10.00" fill="#000000">drake/manipulation</text>
<text text-anchor="start" x="563.5" y="-18.5" font-family="Helvetica,sans-Serif" font-size="10.00" fill="#000000">/schunk_wsg/test/schunk</text>
<text text-anchor="middle" x="624.5" y="-7.5" font-family="Helvetica,sans-Serif" font-size="10.00" fill="#000000">_wsg_controller_test.cc</text>
</a>
</g>
</g>
<!-- Node112&#45;&gt;Node116 -->
<g id="edge4" class="edge">
<title>Node112&#45;&gt;Node116</title>
<path fill="none" stroke="#191970" d="M453.3185,-75.277C487.2396,-64.5216 526.9676,-51.9249 559.6075,-41.5757"/>
<polygon fill="#191970" stroke="#191970" points="451.9298,-72.0456 443.4554,-78.4044 454.0456,-78.7182 451.9298,-72.0456"/>
</g>
</g>
</svg>
        <g id="navigator" transform="translate(0 0)" fill="#404254">
                <rect fill="#f2f5e9" fill-opacity="0.5" stroke="#606060" stroke-width=".5" x="0" y="0" width="60" height="60"/>
                <use id="zoomplus" xlink:href="#zoomPlus" x="17" y="9" onmousedown="handleZoom(evt,'in')"/>
                <use id="zoomminus" xlink:href="#zoomMin" x="42" y="9" onmousedown="handleZoom(evt,'out')"/>
                <use id="reset" xlink:href="#resetDef" x="30" y="36" onmousedown="handleReset()"/>
                <g id="arrowUp" xlink:href="#dirArrow" transform="translate(30 24)" onmousedown="handlePan(0,-1)">
                  <use xlink:href="#rim" fill="#404040">
                        <set attributeName="fill" to="#808080" begin="arrowUp.mouseover" end="arrowUp.mouseout"/>
                  </use>
                  <path fill="none" stroke="white" stroke-width="1.5" d="M0,-3.0v7 M-2.5,-0.5L0,-3.0L2.5,-0.5"/>
                </g>
                <g id="arrowRight" xlink:href="#dirArrow" transform="rotate(90) translate(36 -43)" onmousedown="handlePan(1,0)">
                  <use xlink:href="#rim" fill="#404040">
                        <set attributeName="fill" to="#808080" begin="arrowRight.mouseover" end="arrowRight.mouseout"/>
                  </use>
                  <path fill="none" stroke="white" stroke-width="1.5" d="M0,-3.0v7 M-2.5,-0.5L0,-3.0L2.5,-0.5"/>
                </g>
                <g id="arrowDown" xlink:href="#dirArrow" transform="rotate(180) translate(-30 -48)" onmousedown="handlePan(0,1)">
                  <use xlink:href="#rim" fill="#404040">
                        <set attributeName="fill" to="#808080" begin="arrowDown.mouseover" end="arrowDown.mouseout"/>
                  </use>
                  <path fill="none" stroke="white" stroke-width="1.5" d="M0,-3.0v7 M-2.5,-0.5L0,-3.0L2.5,-0.5"/>
                </g>
                <g id="arrowLeft" xlink:href="#dirArrow" transform="rotate(270) translate(-36 17)" onmousedown="handlePan(-1,0)">
                  <use xlink:href="#rim" fill="#404040">
                        <set attributeName="fill" to="#808080" begin="arrowLeft.mouseover" end="arrowLeft.mouseout"/>
                  </use>
                  <path fill="none" stroke="white" stroke-width="1.5" d="M0,-3.0v7 M-2.5,-0.5L0,-3.0L2.5,-0.5"/>
                </g>
        </g>
        <svg viewBox="0 0 15 15" width="100%" height="30px" preserveAspectRatio="xMaxYMin meet">
         <g id="arrow_out" transform="scale(0.3 0.3)">
          <a xlink:href="schunk__wsg__controller_8h__dep__incl_org.svg" target="_base">
           <rect id="button" ry="5" rx="5" y="6" x="6" height="38" width="38"
                fill="#f2f5e9" fill-opacity="0.5" stroke="#606060" stroke-width="1.0"/>
           <path id="arrow"
             d="M 11.500037,31.436501 C 11.940474,20.09759 22.043105,11.32322 32.158766,21.979434 L 37.068811,17.246167 C 37.068811,17.246167 37.088388,32 37.088388,32 L 22.160133,31.978069 C 22.160133,31.978069 26.997745,27.140456 26.997745,27.140456 C 18.528582,18.264221 13.291696,25.230495 11.500037,31.436501 z"
             style="fill:#404040;"/>
          </a>
         </g>
        </svg>
</svg>
