<?xml version="1.0" encoding="UTF-8" standalone="no"?>
<!DOCTYPE svg PUBLIC "-//W3C//DTD SVG 1.1//EN"
 "http://www.w3.org/Graphics/SVG/1.1/DTD/svg11.dtd">
<!-- Generated by graphviz version 2.40.1 (20161225.0304)
 -->
<!-- Title: drake/manipulation/schunk_wsg/schunk_wsg_position_controller.h Pages: 1 -->
<svg width="500pt" height="139pt"
 viewBox="0.00 0.00 500.00 139.00" xmlns="http://www.w3.org/2000/svg" xmlns:xlink="http://www.w3.org/1999/xlink">
<g id="graph0" class="graph" transform="scale(1 1) rotate(0) translate(4 135)">
<title>drake/manipulation/schunk_wsg/schunk_wsg_position_controller.h</title>
<polygon fill="#ffffff" stroke="transparent" points="-4,4 -4,-135 496,-135 496,4 -4,4"/>
<!-- Node119 -->
<g id="node1" class="node">
<title>Node119</title>
<polygon fill="#bfbfbf" stroke="#000000" points="194.5,-89.5 194.5,-130.5 335.5,-130.5 335.5,-89.5 194.5,-89.5"/>
<text text-anchor="start" x="202.5" y="-118.5" font-family="Helvetica,sans-Serif" font-size="10.00" fill="#000000">drake/manipulation</text>
<text text-anchor="start" x="202.5" y="-107.5" font-family="Helvetica,sans-Serif" font-size="10.00" fill="#000000">/schunk_wsg/schunk_wsg</text>
<text text-anchor="middle" x="265" y="-96.5" font-family="Helvetica,sans-Serif" font-size="10.00" fill="#000000">_position_controller.h</text>
</g>
<!-- Node120 -->
<g id="node2" class="node">
<title>Node120</title>
<g id="a_node2"><a xlink:href="manipulation__station_8cc.html" target="_top" xlink:title="drake/examples/manipulation\l_station/manipulation_station.cc">
<polygon fill="#ffffff" stroke="#000000" points="0,-11.5 0,-41.5 176,-41.5 176,-11.5 0,-11.5"/>
<text text-anchor="start" x="8" y="-29.5" font-family="Helvetica,sans-Serif" font-size="10.00" fill="#000000">drake/examples/manipulation</text>
<text text-anchor="middle" x="88" y="-18.5" font-family="Helvetica,sans-Serif" font-size="10.00" fill="#000000">_station/manipulation_station.cc</text>
</a>
</g>
</g>
<!-- Node119&#45;&gt;Node120 -->
<g id="edge1" class="edge">
<title>Node119&#45;&gt;Node120</title>
<path fill="none" stroke="#191970" d="M212.158,-85.0717C182.1275,-70.9048 145.5193,-53.6348 119.8629,-41.5314"/>
<polygon fill="#191970" stroke="#191970" points="210.7097,-88.2584 221.2472,-89.3595 213.6964,-81.9275 210.7097,-88.2584"/>
</g>
<!-- Node121 -->
<g id="node3" class="node">
<title>Node121</title>
<g id="a_node3"><a xlink:href="schunk__wsg__position__controller_8cc.html" target="_top" xlink:title="drake/manipulation\l/schunk_wsg/schunk_wsg\l_position_controller.cc">
<polygon fill="#ffffff" stroke="#000000" points="194.5,-6 194.5,-47 335.5,-47 335.5,-6 194.5,-6"/>
<text text-anchor="start" x="202.5" y="-35" font-family="Helvetica,sans-Serif" font-size="10.00" fill="#000000">drake/manipulation</text>
<text text-anchor="start" x="202.5" y="-24" font-family="Helvetica,sans-Serif" font-size="10.00" fill="#000000">/schunk_wsg/schunk_wsg</text>
<text text-anchor="middle" x="265" y="-13" font-family="Helvetica,sans-Serif" font-size="10.00" fill="#000000">_position_controller.cc</text>
</a>
</g>
</g>
<!-- Node119&#45;&gt;Node121 -->
<g id="edge2" class="edge">
<title>Node119&#45;&gt;Node121</title>
<path fill="none" stroke="#191970" d="M265,-79.1593C265,-68.5064 265,-56.8344 265,-47.1924"/>
<polygon fill="#191970" stroke="#191970" points="261.5001,-79.3595 265,-89.3595 268.5001,-79.3596 261.5001,-79.3595"/>
</g>
<!-- Node122 -->
<g id="node4" class="node">
<title>Node122</title>
<g id="a_node4"><a xlink:href="schunk__wsg__position__controller__test_8cc.html" target="_top" xlink:title="drake/manipulation\l/schunk_wsg/test/schunk\l_wsg_position_controller\l_test.cc">
<polygon fill="#ffffff" stroke="#000000" points="354,-.5 354,-52.5 492,-52.5 492,-.5 354,-.5"/>
<text text-anchor="start" x="362" y="-40.5" font-family="Helvetica,sans-Serif" font-size="10.00" fill="#000000">drake/manipulation</text>
<text text-anchor="start" x="362" y="-29.5" font-family="Helvetica,sans-Serif" font-size="10.00" fill="#000000">/schunk_wsg/test/schunk</text>
<text text-anchor="start" x="362" y="-18.5" font-family="Helvetica,sans-Serif" font-size="10.00" fill="#000000">_wsg_position_controller</text>
<text text-anchor="middle" x="423" y="-7.5" font-family="Helvetica,sans-Serif" font-size="10.00" fill="#000000">_test.cc</text>
</a>
</g>
</g>
<!-- Node119&#45;&gt;Node122 -->
<g id="edge3" class="edge">
<title>Node119&#45;&gt;Node122</title>
<path fill="none" stroke="#191970" d="M312.9414,-84.6639C332.1517,-74.5116 354.2763,-62.8192 373.6273,-52.5925"/>
<polygon fill="#191970" stroke="#191970" points="311.2621,-81.5926 304.0562,-89.3595 314.5329,-87.7815 311.2621,-81.5926"/>
</g>
</g>
</svg>
