<?xml version="1.0" encoding="UTF-8" standalone="no"?>
<!DOCTYPE svg PUBLIC "-//W3C//DTD SVG 1.1//EN"
 "http://www.w3.org/Graphics/SVG/1.1/DTD/svg11.dtd">
<!-- Generated by graphviz version 2.40.1 (20161225.0304)
 -->
<!-- Title: drake/multibody/parsing/sdf_parser_common.h Pages: 1 -->
<svg width="480pt" height="106pt"
 viewBox="0.00 0.00 480.00 106.00" xmlns="http://www.w3.org/2000/svg" xmlns:xlink="http://www.w3.org/1999/xlink">
<g id="graph0" class="graph" transform="scale(1 1) rotate(0) translate(4 102)">
<title>drake/multibody/parsing/sdf_parser_common.h</title>
<polygon fill="#ffffff" stroke="transparent" points="-4,4 -4,-102 476,-102 476,4 -4,4"/>
<!-- Node7 -->
<g id="node1" class="node">
<title>Node7</title>
<polygon fill="#bfbfbf" stroke="#000000" points="182,-67.5 182,-97.5 318,-97.5 318,-67.5 182,-67.5"/>
<text text-anchor="start" x="190" y="-85.5" font-family="Helvetica,sans-Serif" font-size="10.00" fill="#000000">drake/multibody/parsing</text>
<text text-anchor="middle" x="250" y="-74.5" font-family="Helvetica,sans-Serif" font-size="10.00" fill="#000000">/sdf_parser_common.h</text>
</g>
<!-- Node8 -->
<g id="node2" class="node">
<title>Node8</title>
<g id="a_node2"><a xlink:href="scene__graph__parser__detail_8cc.html" target="_top" xlink:title="drake/multibody/parsing\l/scene_graph_parser_detail.cc">
<polygon fill="#ffffff" stroke="#000000" points="0,-.5 0,-30.5 164,-30.5 164,-.5 0,-.5"/>
<text text-anchor="start" x="8" y="-18.5" font-family="Helvetica,sans-Serif" font-size="10.00" fill="#000000">drake/multibody/parsing</text>
<text text-anchor="middle" x="82" y="-7.5" font-family="Helvetica,sans-Serif" font-size="10.00" fill="#000000">/scene_graph_parser_detail.cc</text>
</a>
</g>
</g>
<!-- Node7&#45;&gt;Node8 -->
<g id="edge1" class="edge">
<title>Node7&#45;&gt;Node8</title>
<path fill="none" stroke="#191970" d="M202.9286,-63.7275C176.6931,-53.2645 144.457,-40.4084 119.8669,-30.6017"/>
<polygon fill="#191970" stroke="#191970" points="201.7124,-67.0105 212.2975,-67.4639 204.3055,-60.5085 201.7124,-67.0105"/>
</g>
<!-- Node9 -->
<g id="node3" class="node">
<title>Node9</title>
<g id="a_node3"><a xlink:href="multibody_2parsing_2sdf__parser_8cc.html" target="_top" xlink:title="drake/multibody/parsing\l/sdf_parser.cc">
<polygon fill="#ffffff" stroke="#000000" points="182,-.5 182,-30.5 318,-30.5 318,-.5 182,-.5"/>
<text text-anchor="start" x="190" y="-18.5" font-family="Helvetica,sans-Serif" font-size="10.00" fill="#000000">drake/multibody/parsing</text>
<text text-anchor="middle" x="250" y="-7.5" font-family="Helvetica,sans-Serif" font-size="10.00" fill="#000000">/sdf_parser.cc</text>
</a>
</g>
</g>
<!-- Node7&#45;&gt;Node9 -->
<g id="edge2" class="edge">
<title>Node7&#45;&gt;Node9</title>
<path fill="none" stroke="#191970" d="M250,-57.0249C250,-48.128 250,-38.4287 250,-30.6432"/>
<polygon fill="#191970" stroke="#191970" points="246.5001,-57.2966 250,-67.2967 253.5001,-57.2967 246.5001,-57.2966"/>
</g>
<!-- Node10 -->
<g id="node4" class="node">
<title>Node10</title>
<g id="a_node4"><a xlink:href="sdf__parser__common_8cc.html" target="_top" xlink:title="drake/multibody/parsing\l/sdf_parser_common.cc">
<polygon fill="#ffffff" stroke="#000000" points="336,-.5 336,-30.5 472,-30.5 472,-.5 336,-.5"/>
<text text-anchor="start" x="344" y="-18.5" font-family="Helvetica,sans-Serif" font-size="10.00" fill="#000000">drake/multibody/parsing</text>
<text text-anchor="middle" x="404" y="-7.5" font-family="Helvetica,sans-Serif" font-size="10.00" fill="#000000">/sdf_parser_common.cc</text>
</a>
</g>
</g>
<!-- Node7&#45;&gt;Node10 -->
<g id="edge3" class="edge">
<title>Node7&#45;&gt;Node10</title>
<path fill="none" stroke="#191970" d="M293.7829,-63.4516C317.7159,-53.0392 346.9455,-40.3224 369.2887,-30.6017"/>
<polygon fill="#191970" stroke="#191970" points="292.334,-60.265 284.5606,-67.4639 295.1267,-66.6838 292.334,-60.265"/>
</g>
</g>
</svg>
