<?xml version="1.0" encoding="UTF-8" standalone="no"?>
<!DOCTYPE svg PUBLIC "-//W3C//DTD SVG 1.1//EN"
 "http://www.w3.org/Graphics/SVG/1.1/DTD/svg11.dtd">
<!-- Generated by graphviz version 2.40.1 (20161225.0304)
 -->
<!-- Title: drake/multibody/parsing/sdf_parser_common.h Pages: 1 -->
<svg width="634pt" height="106pt"
 viewBox="0.00 0.00 634.00 106.00" xmlns="http://www.w3.org/2000/svg" xmlns:xlink="http://www.w3.org/1999/xlink">
<g id="graph0" class="graph" transform="scale(1 1) rotate(0) translate(4 102)">
<title>drake/multibody/parsing/sdf_parser_common.h</title>
<polygon fill="#ffffff" stroke="transparent" points="-4,4 -4,-102 630,-102 630,4 -4,4"/>
<!-- Node7 -->
<g id="node1" class="node">
<title>Node7</title>
<polygon fill="#bfbfbf" stroke="#000000" points="259,-67.5 259,-97.5 395,-97.5 395,-67.5 259,-67.5"/>
<text text-anchor="start" x="267" y="-85.5" font-family="Helvetica,sans-Serif" font-size="10.00" fill="#000000">drake/multibody/parsing</text>
<text text-anchor="middle" x="327" y="-74.5" font-family="Helvetica,sans-Serif" font-size="10.00" fill="#000000">/sdf_parser_common.h</text>
</g>
<!-- Node8 -->
<g id="node2" class="node">
<title>Node8</title>
<g id="a_node2"><a xlink:href="scene__graph__parser__detail_8cc.html" target="_top" xlink:title="drake/multibody/parsing\l/scene_graph_parser_detail.cc">
<polygon fill="#ffffff" stroke="#000000" points="0,-.5 0,-30.5 164,-30.5 164,-.5 0,-.5"/>
<text text-anchor="start" x="8" y="-18.5" font-family="Helvetica,sans-Serif" font-size="10.00" fill="#000000">drake/multibody/parsing</text>
<text text-anchor="middle" x="82" y="-7.5" font-family="Helvetica,sans-Serif" font-size="10.00" fill="#000000">/scene_graph_parser_detail.cc</text>
</a>
</g>
</g>
<!-- Node7&#45;&gt;Node8 -->
<g id="edge1" class="edge">
<title>Node7&#45;&gt;Node8</title>
<path fill="none" stroke="#191970" d="M262.3484,-64.8198C223.4068,-54.1704 174.3414,-40.7525 137.2226,-30.6017"/>
<polygon fill="#191970" stroke="#191970" points="261.4481,-68.202 272.0172,-67.4639 263.2947,-61.4499 261.4481,-68.202"/>
</g>
<!-- Node9 -->
<g id="node3" class="node">
<title>Node9</title>
<g id="a_node3"><a xlink:href="multibody_2parsing_2sdf__parser_8cc.html" target="_top" xlink:title="drake/multibody/parsing\l/sdf_parser.cc">
<polygon fill="#ffffff" stroke="#000000" points="182,-.5 182,-30.5 318,-30.5 318,-.5 182,-.5"/>
<text text-anchor="start" x="190" y="-18.5" font-family="Helvetica,sans-Serif" font-size="10.00" fill="#000000">drake/multibody/parsing</text>
<text text-anchor="middle" x="250" y="-7.5" font-family="Helvetica,sans-Serif" font-size="10.00" fill="#000000">/sdf_parser.cc</text>
</a>
</g>
</g>
<!-- Node7&#45;&gt;Node9 -->
<g id="edge2" class="edge">
<title>Node7&#45;&gt;Node9</title>
<path fill="none" stroke="#191970" d="M301.7124,-60.4965C290.476,-50.7193 277.5308,-39.4554 267.4033,-30.6432"/>
<polygon fill="#191970" stroke="#191970" points="299.6861,-63.3728 309.5275,-67.2967 304.281,-58.092 299.6861,-63.3728"/>
</g>
<!-- Node10 -->
<g id="node4" class="node">
<title>Node10</title>
<g id="a_node4"><a xlink:href="sdf__parser__common_8cc.html" target="_top" xlink:title="drake/multibody/parsing\l/sdf_parser_common.cc">
<polygon fill="#ffffff" stroke="#000000" points="336,-.5 336,-30.5 472,-30.5 472,-.5 336,-.5"/>
<text text-anchor="start" x="344" y="-18.5" font-family="Helvetica,sans-Serif" font-size="10.00" fill="#000000">drake/multibody/parsing</text>
<text text-anchor="middle" x="404" y="-7.5" font-family="Helvetica,sans-Serif" font-size="10.00" fill="#000000">/sdf_parser_common.cc</text>
</a>
</g>
</g>
<!-- Node7&#45;&gt;Node10 -->
<g id="edge3" class="edge">
<title>Node7&#45;&gt;Node10</title>
<path fill="none" stroke="#191970" d="M352.2876,-60.4965C363.524,-50.7193 376.4692,-39.4554 386.5967,-30.6432"/>
<polygon fill="#191970" stroke="#191970" points="349.719,-58.092 344.4725,-67.2967 354.3139,-63.3728 349.719,-58.092"/>
</g>
<!-- Node11 -->
<g id="node5" class="node">
<title>Node11</title>
<g id="a_node5"><a xlink:href="sdf__parser__test_8cc.html" target="_top" xlink:title="drake/multibody/parsing\l/test/sdf_parser_test.cc">
<polygon fill="#ffffff" stroke="#000000" points="490,-.5 490,-30.5 626,-30.5 626,-.5 490,-.5"/>
<text text-anchor="start" x="498" y="-18.5" font-family="Helvetica,sans-Serif" font-size="10.00" fill="#000000">drake/multibody/parsing</text>
<text text-anchor="middle" x="558" y="-7.5" font-family="Helvetica,sans-Serif" font-size="10.00" fill="#000000">/test/sdf_parser_test.cc</text>
</a>
</g>
</g>
<!-- Node7&#45;&gt;Node11 -->
<g id="edge4" class="edge">
<title>Node7&#45;&gt;Node11</title>
<path fill="none" stroke="#191970" d="M388.8928,-64.5484C425.4569,-53.9432 471.2319,-40.6665 505.933,-30.6017"/>
<polygon fill="#191970" stroke="#191970" points="387.4701,-61.3167 378.8409,-67.4639 389.4201,-68.0397 387.4701,-61.3167"/>
</g>
</g>
</svg>
