<?xml version="1.0" encoding="UTF-8" standalone="no"?>
<!DOCTYPE svg PUBLIC "-//W3C//DTD SVG 1.1//EN"
 "http://www.w3.org/Graphics/SVG/1.1/DTD/svg11.dtd">
<!-- Generated by graphviz version 2.40.1 (20161225.0304)
 -->
<!-- Title: drake/systems/analysis/semi_explicit_euler_integrator.h Pages: 1 -->
<!--zoomable 195 -->
<svg id="main" version="1.1" xmlns="http://www.w3.org/2000/svg" xmlns:xlink="http://www.w3.org/1999/xlink" xml:space="preserve" onload="init(evt)">
<style type="text/css"><![CDATA[
.edge:hover path { stroke: red; }
.edge:hover polygon { stroke: red; fill: red; }
]]></style>
<script type="text/javascript"><![CDATA[
var edges = document.getElementsByTagName('g');
if (edges && edges.length) {
  for (var i=0;i<edges.length;i++) {
    if (edges[i].id.substr(0,4)=='edge') {
      edges[i].setAttribute('class','edge');
    }
  }
}
]]></script>
        <defs>
                <circle id="rim" cx="0" cy="0" r="7"/>
                <circle id="rim2" cx="0" cy="0" r="3.5"/>
                <g id="zoomPlus">
                        <use xlink:href="#rim" fill="#404040">
                                <set attributeName="fill" to="#808080" begin="zoomplus.mouseover" end="zoomplus.mouseout"/>
                        </use>
                        <path d="M-4,0h8M0,-4v8" fill="none" stroke="white" stroke-width="1.5" pointer-events="none"/>
                </g>
                <g id="zoomMin">
                        <use xlink:href="#rim" fill="#404040">
                                <set attributeName="fill" to="#808080" begin="zoomminus.mouseover" end="zoomminus.mouseout"/>
                        </use>
                        <path d="M-4,0h8" fill="none" stroke="white" stroke-width="1.5" pointer-events="none"/>
                </g>
                <g id="dirArrow">
                        <path fill="none" stroke="white" stroke-width="1.5" d="M0,-3.0v7 M-2.5,-0.5L0,-3.0L2.5,-0.5"/>
                </g>
               <g id="resetDef">
                       <use xlink:href="#rim2" fill="#404040">
                               <set attributeName="fill" to="#808080" begin="reset.mouseover" end="reset.mouseout"/>
                       </use>
               </g>
        </defs>

<script type="text/javascript">
var viewWidth = 1258;
var viewHeight = 195;
var sectionId = 'dynsection-1';
</script>
<script xlink:href="svgpan.js"/>
<svg id="graph" class="graph">
<g id="viewport">
<title>drake/systems/analysis/semi_explicit_euler_integrator.h</title>
<polygon fill="#ffffff" stroke="transparent" points="-4,4 -4,-191 1254,-191 1254,4 -4,4"/>
<!-- Node114 -->
<g id="node1" class="node">
<title>Node114</title>
<polygon fill="#bfbfbf" stroke="#000000" points="701,-156.5 701,-186.5 878,-186.5 878,-156.5 701,-156.5"/>
<text text-anchor="start" x="709" y="-174.5" font-family="Helvetica,sans-Serif" font-size="10.00" fill="#000000">drake/systems/analysis</text>
<text text-anchor="middle" x="789.5" y="-163.5" font-family="Helvetica,sans-Serif" font-size="10.00" fill="#000000">/semi_explicit_euler_integrator.h</text>
</g>
<!-- Node115 -->
<g id="node2" class="node">
<title>Node115</title>
<g id="a_node2"><a xlink:href="multibody_2acrobot_2passive__simulation_8cc.html" target="_top" xlink:title="drake/examples/multibody\l/acrobot/passive_simulation.cc">
<polygon fill="#ffffff" stroke="#000000" points="0,-84 0,-114 167,-114 167,-84 0,-84"/>
<text text-anchor="start" x="8" y="-102" font-family="Helvetica,sans-Serif" font-size="10.00" fill="#000000">drake/examples/multibody</text>
<text text-anchor="middle" x="83.5" y="-91" font-family="Helvetica,sans-Serif" font-size="10.00" fill="#000000">/acrobot/passive_simulation.cc</text>
</a>
</g>
</g>
<!-- Node114&#45;&gt;Node115 -->
<g id="edge1" class="edge">
<title>Node114&#45;&gt;Node115</title>
<path fill="none" stroke="#191970" d="M690.9547,-167.4211C569.4274,-161.4267 356.8064,-147.7948 176.5,-120 166.112,-118.3987 155.1553,-116.2997 144.5513,-114.0484"/>
<polygon fill="#191970" stroke="#191970" points="690.8271,-170.9189 700.9852,-167.9086 691.167,-163.9272 690.8271,-170.9189"/>
</g>
<!-- Node116 -->
<g id="node3" class="node">
<title>Node116</title>
<g id="a_node3"><a xlink:href="multibody_2bouncing__ball_2bouncing__ball__run__dynamics_8cc.html" target="_top" xlink:title="drake/examples/multibody\l/bouncing_ball/bouncing\l_ball_run_dynamics.cc">
<polygon fill="#ffffff" stroke="#000000" points="185.5,-78.5 185.5,-119.5 333.5,-119.5 333.5,-78.5 185.5,-78.5"/>
<text text-anchor="start" x="193.5" y="-107.5" font-family="Helvetica,sans-Serif" font-size="10.00" fill="#000000">drake/examples/multibody</text>
<text text-anchor="start" x="193.5" y="-96.5" font-family="Helvetica,sans-Serif" font-size="10.00" fill="#000000">/bouncing_ball/bouncing</text>
<text text-anchor="middle" x="259.5" y="-85.5" font-family="Helvetica,sans-Serif" font-size="10.00" fill="#000000">_ball_run_dynamics.cc</text>
</a>
</g>
</g>
<!-- Node114&#45;&gt;Node116 -->
<g id="edge2" class="edge">
<title>Node114&#45;&gt;Node116</title>
<path fill="none" stroke="#191970" d="M690.7554,-163.9235C599.8072,-156.0474 461.3685,-141.7851 342.5,-120 339.5759,-119.4641 336.6022,-118.8838 333.6043,-118.2692"/>
<polygon fill="#191970" stroke="#191970" points="690.5176,-167.4159 700.7799,-164.7824 691.1152,-160.4415 690.5176,-167.4159"/>
</g>
<!-- Node117 -->
<g id="node4" class="node">
<title>Node117</title>
<g id="a_node4"><a xlink:href="multibody_2pendulum_2passive__simulation_8cc.html" target="_top" xlink:title="drake/examples/multibody\l/pendulum/passive_simulation.cc">
<polygon fill="#ffffff" stroke="#000000" points="352,-84 352,-114 531,-114 531,-84 352,-84"/>
<text text-anchor="start" x="360" y="-102" font-family="Helvetica,sans-Serif" font-size="10.00" fill="#000000">drake/examples/multibody</text>
<text text-anchor="middle" x="441.5" y="-91" font-family="Helvetica,sans-Serif" font-size="10.00" fill="#000000">/pendulum/passive_simulation.cc</text>
</a>
</g>
</g>
<!-- Node114&#45;&gt;Node117 -->
<g id="edge3" class="edge">
<title>Node114&#45;&gt;Node117</title>
<path fill="none" stroke="#191970" d="M706.0594,-154.4837C657.4472,-144.5269 594.982,-131.6589 539.5,-120 530.3899,-118.0856 520.8074,-116.0542 511.3479,-114.0383"/>
<polygon fill="#191970" stroke="#191970" points="705.4037,-157.9219 715.9025,-156.4987 706.8077,-151.0642 705.4037,-157.9219"/>
</g>
<!-- Node118 -->
<g id="node5" class="node">
<title>Node118</title>
<g id="a_node5"><a xlink:href="pr2__passive__simulation_8cc.html" target="_top" xlink:title="drake/examples/pr2\l/pr2_passive_simulation.cc">
<polygon fill="#ffffff" stroke="#000000" points="549,-84 549,-114 698,-114 698,-84 549,-84"/>
<text text-anchor="start" x="557" y="-102" font-family="Helvetica,sans-Serif" font-size="10.00" fill="#000000">drake/examples/pr2</text>
<text text-anchor="middle" x="623.5" y="-91" font-family="Helvetica,sans-Serif" font-size="10.00" fill="#000000">/pr2_passive_simulation.cc</text>
</a>
</g>
</g>
<!-- Node114&#45;&gt;Node118 -->
<g id="edge4" class="edge">
<title>Node114&#45;&gt;Node118</title>
<path fill="none" stroke="#191970" d="M745.7244,-152.3811C718.2485,-140.3811 683.3253,-125.1285 657.8512,-114.0028"/>
<polygon fill="#191970" stroke="#191970" points="744.5397,-155.6829 755.1047,-156.478 747.3414,-149.2681 744.5397,-155.6829"/>
</g>
<!-- Node119 -->
<g id="node6" class="node">
<title>Node119</title>
<g id="a_node6"><a xlink:href="simple__gripper_8cc.html" target="_top" xlink:title="drake/examples/simple\l_gripper/simple_gripper.cc">
<polygon fill="#ffffff" stroke="#000000" points="716.5,-84 716.5,-114 862.5,-114 862.5,-84 716.5,-84"/>
<text text-anchor="start" x="724.5" y="-102" font-family="Helvetica,sans-Serif" font-size="10.00" fill="#000000">drake/examples/simple</text>
<text text-anchor="middle" x="789.5" y="-91" font-family="Helvetica,sans-Serif" font-size="10.00" fill="#000000">_gripper/simple_gripper.cc</text>
</a>
</g>
</g>
<!-- Node114&#45;&gt;Node119 -->
<g id="edge5" class="edge">
<title>Node114&#45;&gt;Node119</title>
<path fill="none" stroke="#191970" d="M789.5,-146.3409C789.5,-135.5601 789.5,-123.3309 789.5,-114.0028"/>
<polygon fill="#191970" stroke="#191970" points="786.0001,-146.4779 789.5,-156.478 793.0001,-146.478 786.0001,-146.4779"/>
</g>
<!-- Node120 -->
<g id="node7" class="node">
<title>Node120</title>
<g id="a_node7"><a xlink:href="valkyrie__simulation__test_8cc.html" target="_top" xlink:title="drake/examples/valkyrie\l/test/valkyrie_simulation\l_test.cc">
<polygon fill="#ffffff" stroke="#000000" points="840.5,-.5 840.5,-41.5 978.5,-41.5 978.5,-.5 840.5,-.5"/>
<text text-anchor="start" x="848.5" y="-29.5" font-family="Helvetica,sans-Serif" font-size="10.00" fill="#000000">drake/examples/valkyrie</text>
<text text-anchor="start" x="848.5" y="-18.5" font-family="Helvetica,sans-Serif" font-size="10.00" fill="#000000">/test/valkyrie_simulation</text>
<text text-anchor="middle" x="909.5" y="-7.5" font-family="Helvetica,sans-Serif" font-size="10.00" fill="#000000">_test.cc</text>
</a>
</g>
</g>
<!-- Node114&#45;&gt;Node120 -->
<g id="edge6" class="edge">
<title>Node114&#45;&gt;Node120</title>
<path fill="none" stroke="#191970" d="M832.8543,-151.3083C846.6791,-143.1714 861.0763,-132.6747 871.5,-120 890.5611,-96.8227 900.7547,-63.0246 905.6454,-41.5269"/>
<polygon fill="#191970" stroke="#191970" points="830.9207,-148.3794 823.8996,-156.3138 834.3362,-154.4896 830.9207,-148.3794"/>
</g>
<!-- Node121 -->
<g id="node8" class="node">
<title>Node121</title>
<g id="a_node8"><a xlink:href="valkyrie__simulation_8cc.html" target="_top" xlink:title="Runs the simulator for the valkyrie robot. ">
<polygon fill="#ffffff" stroke="#000000" points="1005.5,-6 1005.5,-36 1143.5,-36 1143.5,-6 1005.5,-6"/>
<text text-anchor="start" x="1013.5" y="-24" font-family="Helvetica,sans-Serif" font-size="10.00" fill="#000000">drake/examples/valkyrie</text>
<text text-anchor="middle" x="1074.5" y="-13" font-family="Helvetica,sans-Serif" font-size="10.00" fill="#000000">/valkyrie_simulation.cc</text>
</a>
</g>
</g>
<!-- Node114&#45;&gt;Node121 -->
<g id="edge7" class="edge">
<title>Node114&#45;&gt;Node121</title>
<path fill="none" stroke="#191970" d="M888.3065,-165.4449C957.5912,-158.9892 1041.8875,-145.9385 1065.5,-120 1086.296,-97.1555 1082.4103,-57.8558 1078.1913,-36.2813"/>
<polygon fill="#191970" stroke="#191970" points="887.8498,-161.9717 878.2021,-166.3503 888.4745,-168.9438 887.8498,-161.9717"/>
</g>
<!-- Node122 -->
<g id="node9" class="node">
<title>Node122</title>
<g id="a_node9"><a xlink:href="valkyrie__simulator_8h.html" target="_top" xlink:title="drake/examples/valkyrie\l/valkyrie_simulator.h">
<polygon fill="#ffffff" stroke="#000000" points="918.5,-84 918.5,-114 1056.5,-114 1056.5,-84 918.5,-84"/>
<text text-anchor="start" x="926.5" y="-102" font-family="Helvetica,sans-Serif" font-size="10.00" fill="#000000">drake/examples/valkyrie</text>
<text text-anchor="middle" x="987.5" y="-91" font-family="Helvetica,sans-Serif" font-size="10.00" fill="#000000">/valkyrie_simulator.h</text>
</a>
</g>
</g>
<!-- Node114&#45;&gt;Node122 -->
<g id="edge8" class="edge">
<title>Node114&#45;&gt;Node122</title>
<path fill="none" stroke="#191970" d="M840.0052,-153.0069C873.0281,-140.9152 915.6114,-125.3228 946.5268,-114.0028"/>
<polygon fill="#191970" stroke="#191970" points="838.7126,-149.7529 830.5257,-156.478 841.1195,-156.3261 838.7126,-149.7529"/>
</g>
<!-- Node123 -->
<g id="node10" class="node">
<title>Node123</title>
<g id="a_node10"><a xlink:href="semi__explicit__euler__integrator__test_8cc.html" target="_top" xlink:title="drake/systems/analysis\l/test/semi_explicit_euler\l_integrator_test.cc">
<polygon fill="#ffffff" stroke="#000000" points="1113,-78.5 1113,-119.5 1250,-119.5 1250,-78.5 1113,-78.5"/>
<text text-anchor="start" x="1121" y="-107.5" font-family="Helvetica,sans-Serif" font-size="10.00" fill="#000000">drake/systems/analysis</text>
<text text-anchor="start" x="1121" y="-96.5" font-family="Helvetica,sans-Serif" font-size="10.00" fill="#000000">/test/semi_explicit_euler</text>
<text text-anchor="middle" x="1181.5" y="-85.5" font-family="Helvetica,sans-Serif" font-size="10.00" fill="#000000">_integrator_test.cc</text>
</a>
</g>
</g>
<!-- Node114&#45;&gt;Node123 -->
<g id="edge11" class="edge">
<title>Node114&#45;&gt;Node123</title>
<path fill="none" stroke="#191970" d="M888.0907,-157.1951C948.9644,-147.8366 1028.5374,-134.6547 1098.5,-120 1103.1554,-119.0249 1107.9438,-117.9654 1112.7592,-116.8579"/>
<polygon fill="#191970" stroke="#191970" points="887.4591,-153.7509 878.1029,-158.7221 888.517,-160.6705 887.4591,-153.7509"/>
</g>
<!-- Node122&#45;&gt;Node120 -->
<g id="edge9" class="edge">
<title>Node122&#45;&gt;Node120</title>
<path fill="none" stroke="#191970" d="M965.2201,-76.7201C954.1687,-65.6687 940.9078,-52.4078 930.0956,-41.5956"/>
<polygon fill="#191970" stroke="#191970" points="962.9148,-79.3646 972.4608,-83.9608 967.8646,-74.4148 962.9148,-79.3646"/>
</g>
<!-- Node122&#45;&gt;Node121 -->
<g id="edge10" class="edge">
<title>Node122&#45;&gt;Node121</title>
<path fill="none" stroke="#191970" d="M1011.9229,-77.1036C1026.4434,-64.0853 1044.5004,-47.8962 1057.4802,-36.2592"/>
<polygon fill="#191970" stroke="#191970" points="1009.3838,-74.6793 1004.2745,-83.9608 1014.0566,-79.8913 1009.3838,-74.6793"/>
</g>
</g>
</svg>
        <g id="navigator" transform="translate(0 0)" fill="#404254">
                <rect fill="#f2f5e9" fill-opacity="0.5" stroke="#606060" stroke-width=".5" x="0" y="0" width="60" height="60"/>
                <use id="zoomplus" xlink:href="#zoomPlus" x="17" y="9" onmousedown="handleZoom(evt,'in')"/>
                <use id="zoomminus" xlink:href="#zoomMin" x="42" y="9" onmousedown="handleZoom(evt,'out')"/>
                <use id="reset" xlink:href="#resetDef" x="30" y="36" onmousedown="handleReset()"/>
                <g id="arrowUp" xlink:href="#dirArrow" transform="translate(30 24)" onmousedown="handlePan(0,-1)">
                  <use xlink:href="#rim" fill="#404040">
                        <set attributeName="fill" to="#808080" begin="arrowUp.mouseover" end="arrowUp.mouseout"/>
                  </use>
                  <path fill="none" stroke="white" stroke-width="1.5" d="M0,-3.0v7 M-2.5,-0.5L0,-3.0L2.5,-0.5"/>
                </g>
                <g id="arrowRight" xlink:href="#dirArrow" transform="rotate(90) translate(36 -43)" onmousedown="handlePan(1,0)">
                  <use xlink:href="#rim" fill="#404040">
                        <set attributeName="fill" to="#808080" begin="arrowRight.mouseover" end="arrowRight.mouseout"/>
                  </use>
                  <path fill="none" stroke="white" stroke-width="1.5" d="M0,-3.0v7 M-2.5,-0.5L0,-3.0L2.5,-0.5"/>
                </g>
                <g id="arrowDown" xlink:href="#dirArrow" transform="rotate(180) translate(-30 -48)" onmousedown="handlePan(0,1)">
                  <use xlink:href="#rim" fill="#404040">
                        <set attributeName="fill" to="#808080" begin="arrowDown.mouseover" end="arrowDown.mouseout"/>
                  </use>
                  <path fill="none" stroke="white" stroke-width="1.5" d="M0,-3.0v7 M-2.5,-0.5L0,-3.0L2.5,-0.5"/>
                </g>
                <g id="arrowLeft" xlink:href="#dirArrow" transform="rotate(270) translate(-36 17)" onmousedown="handlePan(-1,0)">
                  <use xlink:href="#rim" fill="#404040">
                        <set attributeName="fill" to="#808080" begin="arrowLeft.mouseover" end="arrowLeft.mouseout"/>
                  </use>
                  <path fill="none" stroke="white" stroke-width="1.5" d="M0,-3.0v7 M-2.5,-0.5L0,-3.0L2.5,-0.5"/>
                </g>
        </g>
        <svg viewBox="0 0 15 15" width="100%" height="30px" preserveAspectRatio="xMaxYMin meet">
         <g id="arrow_out" transform="scale(0.3 0.3)">
          <a xlink:href="semi__explicit__euler__integrator_8h__dep__incl_org.svg" target="_base">
           <rect id="button" ry="5" rx="5" y="6" x="6" height="38" width="38"
                fill="#f2f5e9" fill-opacity="0.5" stroke="#606060" stroke-width="1.0"/>
           <path id="arrow"
             d="M 11.500037,31.436501 C 11.940474,20.09759 22.043105,11.32322 32.158766,21.979434 L 37.068811,17.246167 C 37.068811,17.246167 37.088388,32 37.088388,32 L 22.160133,31.978069 C 22.160133,31.978069 26.997745,27.140456 26.997745,27.140456 C 18.528582,18.264221 13.291696,25.230495 11.500037,31.436501 z"
             style="fill:#404040;"/>
          </a>
         </g>
        </svg>
</svg>
