<?xml version="1.0" encoding="UTF-8" standalone="no"?>
<!DOCTYPE svg PUBLIC "-//W3C//DTD SVG 1.1//EN"
 "http://www.w3.org/Graphics/SVG/1.1/DTD/svg11.dtd">
<!-- Generated by graphviz version 2.40.1 (20161225.0304)
 -->
<!-- Title: drake/systems/lcm/serializer.h Pages: 1 -->
<!--zoomable 296 -->
<svg id="main" version="1.1" xmlns="http://www.w3.org/2000/svg" xmlns:xlink="http://www.w3.org/1999/xlink" xml:space="preserve" onload="init(evt)">
<style type="text/css"><![CDATA[
.edge:hover path { stroke: red; }
.edge:hover polygon { stroke: red; fill: red; }
]]></style>
<script type="text/javascript"><![CDATA[
var edges = document.getElementsByTagName('g');
if (edges && edges.length) {
  for (var i=0;i<edges.length;i++) {
    if (edges[i].id.substr(0,4)=='edge') {
      edges[i].setAttribute('class','edge');
    }
  }
}
]]></script>
        <defs>
                <circle id="rim" cx="0" cy="0" r="7"/>
                <circle id="rim2" cx="0" cy="0" r="3.5"/>
                <g id="zoomPlus">
                        <use xlink:href="#rim" fill="#404040">
                                <set attributeName="fill" to="#808080" begin="zoomplus.mouseover" end="zoomplus.mouseout"/>
                        </use>
                        <path d="M-4,0h8M0,-4v8" fill="none" stroke="white" stroke-width="1.5" pointer-events="none"/>
                </g>
                <g id="zoomMin">
                        <use xlink:href="#rim" fill="#404040">
                                <set attributeName="fill" to="#808080" begin="zoomminus.mouseover" end="zoomminus.mouseout"/>
                        </use>
                        <path d="M-4,0h8" fill="none" stroke="white" stroke-width="1.5" pointer-events="none"/>
                </g>
                <g id="dirArrow">
                        <path fill="none" stroke="white" stroke-width="1.5" d="M0,-3.0v7 M-2.5,-0.5L0,-3.0L2.5,-0.5"/>
                </g>
               <g id="resetDef">
                       <use xlink:href="#rim2" fill="#404040">
                               <set attributeName="fill" to="#808080" begin="reset.mouseover" end="reset.mouseout"/>
                       </use>
               </g>
        </defs>

<script type="text/javascript">
var viewWidth = 1115;
var viewHeight = 296;
var sectionId = 'dynsection-0';
</script>
<script xlink:href="svgpan.js"/>
<svg id="graph" class="graph">
<g id="viewport">
<title>drake/systems/lcm/serializer.h</title>
<polygon fill="#ffffff" stroke="transparent" points="-4,4 -4,-292 1111,-292 1111,4 -4,4"/>
<!-- Node0 -->
<g id="node1" class="node">
<title>Node0</title>
<polygon fill="#bfbfbf" stroke="#000000" points="298,-268.5 298,-287.5 465,-287.5 465,-268.5 298,-268.5"/>
<text text-anchor="middle" x="381.5" y="-275.5" font-family="Helvetica,sans-Serif" font-size="10.00" fill="#000000">drake/systems/lcm/serializer.h</text>
</g>
<!-- Node1 -->
<g id="node2" class="node">
<title>Node1</title>
<polygon fill="#ffffff" stroke="#bfbfbf" points="33.5,-207 33.5,-226 83.5,-226 83.5,-207 33.5,-207"/>
<text text-anchor="middle" x="58.5" y="-214" font-family="Helvetica,sans-Serif" font-size="10.00" fill="#000000">cstdint</text>
</g>
<!-- Node0&#45;&gt;Node1 -->
<g id="edge1" class="edge">
<title>Node0&#45;&gt;Node1</title>
<path fill="none" stroke="#191970" d="M297.8337,-269.3072C240.7177,-262.195 163.7008,-250.2814 97.5,-232 94.8905,-231.2794 92.2169,-230.4414 89.5528,-229.5354"/>
<polygon fill="#191970" stroke="#191970" points="90.6711,-226.2174 80.0777,-226.0438 88.2507,-232.7857 90.6711,-226.2174"/>
</g>
<!-- Node2 -->
<g id="node3" class="node">
<title>Node2</title>
<polygon fill="#ffffff" stroke="#bfbfbf" points="403.5,-73 403.5,-92 461.5,-92 461.5,-73 403.5,-73"/>
<text text-anchor="middle" x="432.5" y="-80" font-family="Helvetica,sans-Serif" font-size="10.00" fill="#000000">memory</text>
</g>
<!-- Node0&#45;&gt;Node2 -->
<g id="edge2" class="edge">
<title>Node0&#45;&gt;Node2</title>
<path fill="none" stroke="#191970" d="M384.0291,-268.3051C391.9827,-237.8163 416.5962,-143.4646 427.366,-102.1804"/>
<polygon fill="#191970" stroke="#191970" points="430.818,-102.8131 429.9556,-92.2534 424.0447,-101.0461 430.818,-102.8131"/>
</g>
<!-- Node3 -->
<g id="node4" class="node">
<title>Node3</title>
<polygon fill="#ffffff" stroke="#bfbfbf" points="971,-73 971,-92 1018,-92 1018,-73 971,-73"/>
<text text-anchor="middle" x="994.5" y="-80" font-family="Helvetica,sans-Serif" font-size="10.00" fill="#000000">vector</text>
</g>
<!-- Node0&#45;&gt;Node3 -->
<g id="edge3" class="edge">
<title>Node0&#45;&gt;Node3</title>
<path fill="none" stroke="#191970" d="M465.2123,-271.9055C607.2403,-259.934 887.0808,-228.7719 959.5,-165 978.0457,-148.6688 987.0514,-120.8459 991.2161,-102.0769"/>
<polygon fill="#191970" stroke="#191970" points="994.6578,-102.7138 993.1443,-92.2276 987.7882,-101.3688 994.6578,-102.7138"/>
</g>
<!-- Node4 -->
<g id="node5" class="node">
<title>Node4</title>
<g id="a_node5"><a xlink:href="drake__assert_8h.html" target="_top" xlink:title="Provides Drake&#39;s assertion implementation. ">
<polygon fill="#ffffff" stroke="#000000" points="38,-67.5 38,-97.5 159,-97.5 159,-67.5 38,-67.5"/>
<text text-anchor="start" x="46" y="-85.5" font-family="Helvetica,sans-Serif" font-size="10.00" fill="#000000">drake/common/drake</text>
<text text-anchor="middle" x="98.5" y="-74.5" font-family="Helvetica,sans-Serif" font-size="10.00" fill="#000000">_assert.h</text>
</a>
</g>
</g>
<!-- Node0&#45;&gt;Node4 -->
<g id="edge4" class="edge">
<title>Node0&#45;&gt;Node4</title>
<path fill="none" stroke="#191970" d="M358.1349,-268.4122C317.9663,-251.279 234.2822,-212.6938 173.5,-165 151.3831,-147.6456 130.222,-123.4293 116.0505,-105.7225"/>
<polygon fill="#191970" stroke="#191970" points="118.6103,-103.3151 109.6816,-97.6116 113.1047,-107.6382 118.6103,-103.3151"/>
</g>
<!-- Node6 -->
<g id="node7" class="node">
<title>Node6</title>
<g id="a_node7"><a xlink:href="drake__copyable_8h.html" target="_top" xlink:title="Provides careful macros to selectively enable or disable the special member functions for copy&#45;constr...">
<polygon fill="#ffffff" stroke="#000000" points="986,-.5 986,-30.5 1107,-30.5 1107,-.5 986,-.5"/>
<text text-anchor="start" x="994" y="-18.5" font-family="Helvetica,sans-Serif" font-size="10.00" fill="#000000">drake/common/drake</text>
<text text-anchor="middle" x="1046.5" y="-7.5" font-family="Helvetica,sans-Serif" font-size="10.00" fill="#000000">_copyable.h</text>
</a>
</g>
</g>
<!-- Node0&#45;&gt;Node6 -->
<g id="edge6" class="edge">
<title>Node0&#45;&gt;Node6</title>
<path fill="none" stroke="#191970" d="M465.4628,-273.0303C579.6339,-265.7027 777.6349,-250.8119 847.5,-232 950.4598,-204.277 1011.9479,-198.8734 1046.5,-98 1052.8201,-79.5486 1052.4167,-57.384 1050.6542,-40.6771"/>
<polygon fill="#191970" stroke="#191970" points="1054.1028,-40.0527 1049.3568,-30.5803 1047.1599,-40.9449 1054.1028,-40.0527"/>
</g>
<!-- Node7 -->
<g id="node8" class="node">
<title>Node7</title>
<g id="a_node8"><a xlink:href="drake__throw_8h.html" target="_top" xlink:title="Provides a convenient wrapper to throw an exception when a condition is unmet. ">
<polygon fill="#ffffff" stroke="#000000" points="0,-134.5 0,-164.5 121,-164.5 121,-134.5 0,-134.5"/>
<text text-anchor="start" x="8" y="-152.5" font-family="Helvetica,sans-Serif" font-size="10.00" fill="#000000">drake/common/drake</text>
<text text-anchor="middle" x="60.5" y="-141.5" font-family="Helvetica,sans-Serif" font-size="10.00" fill="#000000">_throw.h</text>
</a>
</g>
</g>
<!-- Node0&#45;&gt;Node7 -->
<g id="edge7" class="edge">
<title>Node0&#45;&gt;Node7</title>
<path fill="none" stroke="#191970" d="M300.235,-268.4628C239.8379,-260.33 163.2928,-247.5067 135.5,-232 110.2546,-217.9146 88.9392,-192.1854 75.5606,-173.1921"/>
<polygon fill="#191970" stroke="#191970" points="78.3353,-171.0482 69.8173,-164.7479 72.5472,-174.985 78.3353,-171.0482"/>
</g>
<!-- Node8 -->
<g id="node9" class="node">
<title>Node8</title>
<g id="a_node9"><a xlink:href="value_8h.html" target="_top" xlink:title="drake/systems/framework\l/value.h">
<polygon fill="#ffffff" stroke="#000000" points="567,-201.5 567,-231.5 712,-231.5 712,-201.5 567,-201.5"/>
<text text-anchor="start" x="575" y="-219.5" font-family="Helvetica,sans-Serif" font-size="10.00" fill="#000000">drake/systems/framework</text>
<text text-anchor="middle" x="639.5" y="-208.5" font-family="Helvetica,sans-Serif" font-size="10.00" fill="#000000">/value.h</text>
</a>
</g>
</g>
<!-- Node0&#45;&gt;Node8 -->
<g id="edge10" class="edge">
<title>Node0&#45;&gt;Node8</title>
<path fill="none" stroke="#191970" d="M421.5294,-268.4581C460.114,-259.2606 519.4036,-245.1276 566.4115,-233.9223"/>
<polygon fill="#191970" stroke="#191970" points="567.3283,-237.3019 576.2442,-231.5784 565.7051,-230.4926 567.3283,-237.3019"/>
</g>
<!-- Node5 -->
<g id="node6" class="node">
<title>Node5</title>
<polygon fill="#ffffff" stroke="#bfbfbf" points="153,-6 153,-25 222,-25 222,-6 153,-6"/>
<text text-anchor="middle" x="187.5" y="-13" font-family="Helvetica,sans-Serif" font-size="10.00" fill="#000000">type_traits</text>
</g>
<!-- Node4&#45;&gt;Node5 -->
<g id="edge5" class="edge">
<title>Node4&#45;&gt;Node5</title>
<path fill="none" stroke="#191970" d="M118.6955,-67.2967C132.966,-56.5537 152.0468,-42.1895 166.4948,-31.3129"/>
<polygon fill="#191970" stroke="#191970" points="168.9234,-33.8656 174.8076,-25.055 164.7133,-28.2731 168.9234,-33.8656"/>
</g>
<!-- Node7&#45;&gt;Node4 -->
<g id="edge9" class="edge">
<title>Node7&#45;&gt;Node4</title>
<path fill="none" stroke="#191970" d="M69.1228,-134.2967C73.787,-126.0729 79.6547,-115.7272 84.9174,-106.4483"/>
<polygon fill="#191970" stroke="#191970" points="88.0223,-108.0683 89.9113,-97.6432 81.9335,-104.6148 88.0223,-108.0683"/>
</g>
<!-- Node7&#45;&gt;Node5 -->
<g id="edge8" class="edge">
<title>Node7&#45;&gt;Node5</title>
<path fill="none" stroke="#191970" d="M46.3747,-134.3559C31.8451,-116.88 13.3201,-87.8731 28.5,-67 42.1377,-48.2476 100.7186,-32.8371 142.8108,-23.9047"/>
<polygon fill="#191970" stroke="#191970" points="143.7675,-27.281 152.8519,-21.8291 142.3504,-20.426 143.7675,-27.281"/>
</g>
<!-- Node8&#45;&gt;Node2 -->
<g id="edge11" class="edge">
<title>Node8&#45;&gt;Node2</title>
<path fill="none" stroke="#191970" d="M566.7698,-206.8932C516.2266,-198.6109 455.0773,-184.8302 438.5,-165 424.016,-147.6738 425.0623,-120.5038 428.0244,-102.1213"/>
<polygon fill="#191970" stroke="#191970" points="431.4775,-102.6986 429.9406,-92.2159 424.605,-101.3691 431.4775,-102.6986"/>
</g>
<!-- Node8&#45;&gt;Node5 -->
<g id="edge14" class="edge">
<title>Node8&#45;&gt;Node5</title>
<path fill="none" stroke="#191970" d="M566.6277,-212.6702C449.9143,-205.83 231.5586,-189.8581 206.5,-165 171.9396,-130.716 177.5799,-67.2946 183.2412,-35.2008"/>
<polygon fill="#191970" stroke="#191970" points="186.702,-35.7392 185.1786,-25.2544 179.8311,-34.4007 186.702,-35.7392"/>
</g>
<!-- Node8&#45;&gt;Node6 -->
<g id="edge23" class="edge">
<title>Node8&#45;&gt;Node6</title>
<path fill="none" stroke="#191970" d="M712.3538,-209.9613C793.0678,-201.8148 917.3948,-186.3234 959.5,-165 997.3505,-145.8313 1006.8033,-135.0371 1027.5,-98 1037.322,-80.4233 1042.0729,-58.0334 1044.3673,-41.0149"/>
<polygon fill="#191970" stroke="#191970" points="1047.8867,-41.0453 1045.549,-30.7116 1040.9323,-40.2476 1047.8867,-41.0453"/>
</g>
<!-- Node9 -->
<g id="node10" class="node">
<title>Node9</title>
<polygon fill="#ffffff" stroke="#bfbfbf" points="706,-140 706,-159 771,-159 771,-140 706,-140"/>
<text text-anchor="middle" x="738.5" y="-147" font-family="Helvetica,sans-Serif" font-size="10.00" fill="#000000">stdexcept</text>
</g>
<!-- Node8&#45;&gt;Node9 -->
<g id="edge12" class="edge">
<title>Node8&#45;&gt;Node9</title>
<path fill="none" stroke="#191970" d="M661.9646,-201.2967C678.1381,-190.351 699.8661,-175.6462 716.0388,-164.701"/>
<polygon fill="#191970" stroke="#191970" points="718.0614,-167.5584 724.3815,-159.055 714.1381,-161.7612 718.0614,-167.5584"/>
</g>
<!-- Node10 -->
<g id="node11" class="node">
<title>Node10</title>
<polygon fill="#ffffff" stroke="#bfbfbf" points="617.5,-73 617.5,-92 661.5,-92 661.5,-73 617.5,-73"/>
<text text-anchor="middle" x="639.5" y="-80" font-family="Helvetica,sans-Serif" font-size="10.00" fill="#000000">string</text>
</g>
<!-- Node8&#45;&gt;Node10 -->
<g id="edge13" class="edge">
<title>Node8&#45;&gt;Node10</title>
<path fill="none" stroke="#191970" d="M639.5,-201.389C639.5,-177.0735 639.5,-129.2644 639.5,-102.2698"/>
<polygon fill="#191970" stroke="#191970" points="643.0001,-102.1041 639.5,-92.1042 636.0001,-102.1042 643.0001,-102.1041"/>
</g>
<!-- Node11 -->
<g id="node12" class="node">
<title>Node11</title>
<polygon fill="#ffffff" stroke="#bfbfbf" points="680,-73 680,-92 737,-92 737,-73 680,-73"/>
<text text-anchor="middle" x="708.5" y="-80" font-family="Helvetica,sans-Serif" font-size="10.00" fill="#000000">typeinfo</text>
</g>
<!-- Node8&#45;&gt;Node11 -->
<g id="edge15" class="edge">
<title>Node8&#45;&gt;Node11</title>
<path fill="none" stroke="#191970" d="M647.2811,-201.389C659.9694,-176.7478 685.0814,-127.9796 698.8727,-101.1965"/>
<polygon fill="#191970" stroke="#191970" points="702.0882,-102.597 703.5546,-92.1042 695.8648,-99.3924 702.0882,-102.597"/>
</g>
<!-- Node12 -->
<g id="node13" class="node">
<title>Node12</title>
<polygon fill="#ffffff" stroke="#bfbfbf" points="762,-6 762,-25 807,-25 807,-6 762,-6"/>
<text text-anchor="middle" x="784.5" y="-13" font-family="Helvetica,sans-Serif" font-size="10.00" fill="#000000">utility</text>
</g>
<!-- Node8&#45;&gt;Node12 -->
<g id="edge16" class="edge">
<title>Node8&#45;&gt;Node12</title>
<path fill="none" stroke="#191970" d="M712.0691,-208.8913C795.8325,-199.3641 924.0126,-182.196 938.5,-165 996.2238,-96.4838 881.4019,-148.4052 823.5,-98 804.5212,-81.4784 794.0801,-53.7013 788.8882,-34.9946"/>
<polygon fill="#191970" stroke="#191970" points="792.2526,-34.0223 786.4129,-25.1822 785.4652,-35.7346 792.2526,-34.0223"/>
</g>
<!-- Node13 -->
<g id="node14" class="node">
<title>Node13</title>
<g id="a_node14"><a xlink:href="copyable__unique__ptr_8h.html" target="_top" xlink:title="drake/common/copyable\l_unique_ptr.h">
<polygon fill="#ffffff" stroke="#000000" points="216,-134.5 216,-164.5 353,-164.5 353,-134.5 216,-134.5"/>
<text text-anchor="start" x="224" y="-152.5" font-family="Helvetica,sans-Serif" font-size="10.00" fill="#000000">drake/common/copyable</text>
<text text-anchor="middle" x="284.5" y="-141.5" font-family="Helvetica,sans-Serif" font-size="10.00" fill="#000000">_unique_ptr.h</text>
</a>
</g>
</g>
<!-- Node8&#45;&gt;Node13 -->
<g id="edge17" class="edge">
<title>Node8&#45;&gt;Node13</title>
<path fill="none" stroke="#191970" d="M566.8038,-202.7799C507.5243,-191.5919 423.9473,-175.8182 363.1208,-164.3383"/>
<polygon fill="#191970" stroke="#191970" points="363.6574,-160.8779 353.1818,-162.4625 362.3592,-167.7564 363.6574,-160.8779"/>
</g>
<!-- Node16 -->
<g id="node17" class="node">
<title>Node16</title>
<g id="a_node17"><a xlink:href="is__cloneable_8h.html" target="_top" xlink:title="drake/common/is_cloneable.h">
<polygon fill="#ffffff" stroke="#000000" points="448,-140 448,-159 611,-159 611,-140 448,-140"/>
<text text-anchor="middle" x="529.5" y="-147" font-family="Helvetica,sans-Serif" font-size="10.00" fill="#000000">drake/common/is_cloneable.h</text>
</a>
</g>
</g>
<!-- Node8&#45;&gt;Node16 -->
<g id="edge24" class="edge">
<title>Node8&#45;&gt;Node16</title>
<path fill="none" stroke="#191970" d="M614.8139,-201.4639C596.6898,-190.4247 572.1791,-175.4954 554.08,-164.4715"/>
<polygon fill="#191970" stroke="#191970" points="555.6288,-161.3167 545.2676,-159.1039 551.9874,-167.2951 555.6288,-161.3167"/>
</g>
<!-- Node17 -->
<g id="node18" class="node">
<title>Node17</title>
<g id="a_node18"><a xlink:href="nice__type__name_8h.html" target="_top" xlink:title="drake/common/nice_type\l_name.h">
<polygon fill="#ffffff" stroke="#000000" points="789.5,-134.5 789.5,-164.5 929.5,-164.5 929.5,-134.5 789.5,-134.5"/>
<text text-anchor="start" x="797.5" y="-152.5" font-family="Helvetica,sans-Serif" font-size="10.00" fill="#000000">drake/common/nice_type</text>
<text text-anchor="middle" x="859.5" y="-141.5" font-family="Helvetica,sans-Serif" font-size="10.00" fill="#000000">_name.h</text>
</a>
</g>
</g>
<!-- Node8&#45;&gt;Node17 -->
<g id="edge27" class="edge">
<title>Node8&#45;&gt;Node17</title>
<path fill="none" stroke="#191970" d="M688.8723,-201.4639C721.875,-191.4131 765.4663,-178.1375 800.3273,-167.5208"/>
<polygon fill="#191970" stroke="#191970" points="801.3658,-170.8633 809.9124,-164.6017 799.3265,-164.1669 801.3658,-170.8633"/>
</g>
<!-- Node13&#45;&gt;Node2 -->
<g id="edge20" class="edge">
<title>Node13&#45;&gt;Node2</title>
<path fill="none" stroke="#191970" d="M317.7141,-134.4639C342.994,-123.0196 377.5092,-107.3945 402.0739,-96.274"/>
<polygon fill="#191970" stroke="#191970" points="403.6188,-99.4166 411.2854,-92.1039 400.7319,-93.0396 403.6188,-99.4166"/>
</g>
<!-- Node13&#45;&gt;Node4 -->
<g id="edge22" class="edge">
<title>Node13&#45;&gt;Node4</title>
<path fill="none" stroke="#191970" d="M242.758,-134.4639C215.3326,-124.5849 179.2586,-111.5905 150.0456,-101.0675"/>
<polygon fill="#191970" stroke="#191970" points="151.0185,-97.6979 140.4241,-97.6017 148.6462,-104.2836 151.0185,-97.6979"/>
</g>
<!-- Node13&#45;&gt;Node12 -->
<g id="edge21" class="edge">
<title>Node13&#45;&gt;Node12</title>
<path fill="none" stroke="#191970" d="M306.502,-134.3042C320.8949,-124.2317 340.016,-110.599 356.5,-98 373.817,-84.7643 374.4914,-75.6439 394.5,-67 458.7019,-39.2641 669.7898,-22.9452 751.6497,-17.5274"/>
<polygon fill="#191970" stroke="#191970" points="752.1171,-21.0045 761.8692,-16.8635 751.6633,-14.0192 752.1171,-21.0045"/>
</g>
<!-- Node14 -->
<g id="node15" class="node">
<title>Node14</title>
<polygon fill="#ffffff" stroke="#bfbfbf" points="216,-73 216,-92 269,-92 269,-73 216,-73"/>
<text text-anchor="middle" x="242.5" y="-80" font-family="Helvetica,sans-Serif" font-size="10.00" fill="#000000">cstddef</text>
</g>
<!-- Node13&#45;&gt;Node14 -->
<g id="edge18" class="edge">
<title>Node13&#45;&gt;Node14</title>
<path fill="none" stroke="#191970" d="M274.9695,-134.2967C268.7434,-124.3645 260.577,-111.3371 253.9918,-100.8321"/>
<polygon fill="#191970" stroke="#191970" points="256.7666,-98.6689 248.4897,-92.055 250.8356,-102.3868 256.7666,-98.6689"/>
</g>
<!-- Node15 -->
<g id="node16" class="node">
<title>Node15</title>
<polygon fill="#ffffff" stroke="#bfbfbf" points="287.5,-73 287.5,-92 347.5,-92 347.5,-73 287.5,-73"/>
<text text-anchor="middle" x="317.5" y="-80" font-family="Helvetica,sans-Serif" font-size="10.00" fill="#000000">iostream</text>
</g>
<!-- Node13&#45;&gt;Node15 -->
<g id="edge19" class="edge">
<title>Node13&#45;&gt;Node15</title>
<path fill="none" stroke="#191970" d="M291.9882,-134.2967C296.8303,-124.4658 303.1659,-111.6026 308.312,-101.1545"/>
<polygon fill="#191970" stroke="#191970" points="311.5151,-102.5724 312.7938,-92.055 305.2355,-99.4794 311.5151,-102.5724"/>
</g>
<!-- Node16&#45;&gt;Node2 -->
<g id="edge25" class="edge">
<title>Node16&#45;&gt;Node2</title>
<path fill="none" stroke="#191970" d="M515.6023,-139.9005C499.6836,-128.9052 473.3879,-110.7422 454.6401,-97.7927"/>
<polygon fill="#191970" stroke="#191970" points="456.5892,-94.8852 446.372,-92.0817 452.6108,-100.6448 456.5892,-94.8852"/>
</g>
<!-- Node16&#45;&gt;Node5 -->
<g id="edge26" class="edge">
<title>Node16&#45;&gt;Node5</title>
<path fill="none" stroke="#191970" d="M525.5145,-139.7276C517.7676,-122.0684 498.9059,-85.0072 470.5,-67 431.585,-42.3308 301.7332,-26.4675 232.2598,-19.5327"/>
<polygon fill="#191970" stroke="#191970" points="232.3516,-16.025 222.0585,-18.5353 231.6704,-22.9918 232.3516,-16.025"/>
</g>
<!-- Node17&#45;&gt;Node2 -->
<g id="edge28" class="edge">
<title>Node17&#45;&gt;Node2</title>
<path fill="none" stroke="#191970" d="M789.3202,-135.5536C786.3423,-135.0177 783.3926,-134.4975 780.5,-134 669.0323,-114.8277 536.725,-96.4436 472.0608,-87.7403"/>
<polygon fill="#191970" stroke="#191970" points="472.2819,-84.2387 461.9053,-86.3783 471.3513,-91.1765 472.2819,-84.2387"/>
</g>
<!-- Node17&#45;&gt;Node3 -->
<g id="edge32" class="edge">
<title>Node17&#45;&gt;Node3</title>
<path fill="none" stroke="#191970" d="M889.7966,-134.4639C912.652,-123.1209 943.7829,-107.6707 966.1494,-96.5703"/>
<polygon fill="#191970" stroke="#191970" points="967.7473,-99.6847 975.1488,-92.1039 964.6353,-93.4144 967.7473,-99.6847"/>
</g>
<!-- Node17&#45;&gt;Node10 -->
<g id="edge29" class="edge">
<title>Node17&#45;&gt;Node10</title>
<path fill="none" stroke="#191970" d="M792.8678,-134.4186C756.4865,-125.3971 710.9432,-112.8116 671.5,-98 670.0914,-97.471 668.6609,-96.9023 667.2255,-96.3061"/>
<polygon fill="#191970" stroke="#191970" points="668.417,-93.0047 657.8605,-92.105 665.5519,-99.3915 668.417,-93.0047"/>
</g>
<!-- Node17&#45;&gt;Node11 -->
<g id="edge30" class="edge">
<title>Node17&#45;&gt;Node11</title>
<path fill="none" stroke="#191970" d="M825.6127,-134.4639C799.8203,-123.0196 764.6055,-107.3945 739.5429,-96.274"/>
<polygon fill="#191970" stroke="#191970" points="740.7048,-92.9605 730.1447,-92.1039 737.8657,-99.359 740.7048,-92.9605"/>
</g>
<!-- Node17&#45;&gt;Node12 -->
<g id="edge31" class="edge">
<title>Node17&#45;&gt;Node12</title>
<path fill="none" stroke="#191970" d="M827.8273,-134.3698C813.5496,-125.7999 798.0121,-113.6364 789.5,-98 778.9758,-78.6675 779.2688,-52.8815 781.1942,-35.3174"/>
<polygon fill="#191970" stroke="#191970" points="784.7024,-35.4968 782.5978,-25.1131 777.7677,-34.5428 784.7024,-35.4968"/>
</g>
<!-- Node18 -->
<g id="node19" class="node">
<title>Node18</title>
<g id="a_node19"><a xlink:href="never__destroyed_8h.html" target="_top" xlink:title="drake/common/never\l_destroyed.h">
<polygon fill="#ffffff" stroke="#000000" points="832,-67.5 832,-97.5 953,-97.5 953,-67.5 832,-67.5"/>
<text text-anchor="start" x="840" y="-85.5" font-family="Helvetica,sans-Serif" font-size="10.00" fill="#000000">drake/common/never</text>
<text text-anchor="middle" x="892.5" y="-74.5" font-family="Helvetica,sans-Serif" font-size="10.00" fill="#000000">_destroyed.h</text>
</a>
</g>
</g>
<!-- Node17&#45;&gt;Node18 -->
<g id="edge33" class="edge">
<title>Node17&#45;&gt;Node18</title>
<path fill="none" stroke="#191970" d="M866.9882,-134.2967C870.9965,-126.1586 876.0283,-115.9425 880.5616,-106.7386"/>
<polygon fill="#191970" stroke="#191970" points="883.7627,-108.1606 885.0414,-97.6432 877.4831,-105.0676 883.7627,-108.1606"/>
</g>
<!-- Node18&#45;&gt;Node5 -->
<g id="edge35" class="edge">
<title>Node18&#45;&gt;Node5</title>
<path fill="none" stroke="#191970" d="M831.7851,-75.8635C805.5625,-73.0466 774.5287,-69.7788 746.5,-67 555.3338,-48.0474 327.1496,-27.749 232.2843,-19.4131"/>
<polygon fill="#191970" stroke="#191970" points="232.4544,-15.9147 222.1866,-18.5268 231.8423,-22.8878 232.4544,-15.9147"/>
</g>
<!-- Node18&#45;&gt;Node6 -->
<g id="edge37" class="edge">
<title>Node18&#45;&gt;Node6</title>
<path fill="none" stroke="#191970" d="M927.0606,-67.4639C949.3727,-57.7567 978.5987,-45.0415 1002.5554,-34.6188"/>
<polygon fill="#191970" stroke="#191970" points="1004.0152,-37.8006 1011.7887,-30.6017 1001.2226,-31.3818 1004.0152,-37.8006"/>
</g>
<!-- Node18&#45;&gt;Node12 -->
<g id="edge36" class="edge">
<title>Node18&#45;&gt;Node12</title>
<path fill="none" stroke="#191970" d="M868.2627,-67.4639C850.4682,-56.4247 826.4031,-41.4954 808.6331,-30.4715"/>
<polygon fill="#191970" stroke="#191970" points="810.3237,-27.4015 799.9809,-25.1039 806.6335,-33.3498 810.3237,-27.4015"/>
</g>
<!-- Node19 -->
<g id="node20" class="node">
<title>Node19</title>
<polygon fill="#ffffff" stroke="#bfbfbf" points="874,-6 874,-25 911,-25 911,-6 874,-6"/>
<text text-anchor="middle" x="892.5" y="-13" font-family="Helvetica,sans-Serif" font-size="10.00" fill="#000000">new</text>
</g>
<!-- Node18&#45;&gt;Node19 -->
<g id="edge34" class="edge">
<title>Node18&#45;&gt;Node19</title>
<path fill="none" stroke="#191970" d="M892.5,-67.2967C892.5,-57.7699 892.5,-45.3954 892.5,-35.1306"/>
<polygon fill="#191970" stroke="#191970" points="896.0001,-35.0549 892.5,-25.055 889.0001,-35.055 896.0001,-35.0549"/>
</g>
</g>
</svg>
        <g id="navigator" transform="translate(0 0)" fill="#404254">
                <rect fill="#f2f5e9" fill-opacity="0.5" stroke="#606060" stroke-width=".5" x="0" y="0" width="60" height="60"/>
                <use id="zoomplus" xlink:href="#zoomPlus" x="17" y="9" onmousedown="handleZoom(evt,'in')"/>
                <use id="zoomminus" xlink:href="#zoomMin" x="42" y="9" onmousedown="handleZoom(evt,'out')"/>
                <use id="reset" xlink:href="#resetDef" x="30" y="36" onmousedown="handleReset()"/>
                <g id="arrowUp" xlink:href="#dirArrow" transform="translate(30 24)" onmousedown="handlePan(0,-1)">
                  <use xlink:href="#rim" fill="#404040">
                        <set attributeName="fill" to="#808080" begin="arrowUp.mouseover" end="arrowUp.mouseout"/>
                  </use>
                  <path fill="none" stroke="white" stroke-width="1.5" d="M0,-3.0v7 M-2.5,-0.5L0,-3.0L2.5,-0.5"/>
                </g>
                <g id="arrowRight" xlink:href="#dirArrow" transform="rotate(90) translate(36 -43)" onmousedown="handlePan(1,0)">
                  <use xlink:href="#rim" fill="#404040">
                        <set attributeName="fill" to="#808080" begin="arrowRight.mouseover" end="arrowRight.mouseout"/>
                  </use>
                  <path fill="none" stroke="white" stroke-width="1.5" d="M0,-3.0v7 M-2.5,-0.5L0,-3.0L2.5,-0.5"/>
                </g>
                <g id="arrowDown" xlink:href="#dirArrow" transform="rotate(180) translate(-30 -48)" onmousedown="handlePan(0,1)">
                  <use xlink:href="#rim" fill="#404040">
                        <set attributeName="fill" to="#808080" begin="arrowDown.mouseover" end="arrowDown.mouseout"/>
                  </use>
                  <path fill="none" stroke="white" stroke-width="1.5" d="M0,-3.0v7 M-2.5,-0.5L0,-3.0L2.5,-0.5"/>
                </g>
                <g id="arrowLeft" xlink:href="#dirArrow" transform="rotate(270) translate(-36 17)" onmousedown="handlePan(-1,0)">
                  <use xlink:href="#rim" fill="#404040">
                        <set attributeName="fill" to="#808080" begin="arrowLeft.mouseover" end="arrowLeft.mouseout"/>
                  </use>
                  <path fill="none" stroke="white" stroke-width="1.5" d="M0,-3.0v7 M-2.5,-0.5L0,-3.0L2.5,-0.5"/>
                </g>
        </g>
        <svg viewBox="0 0 15 15" width="100%" height="30px" preserveAspectRatio="xMaxYMin meet">
         <g id="arrow_out" transform="scale(0.3 0.3)">
          <a xlink:href="serializer_8h__incl_org.svg" target="_base">
           <rect id="button" ry="5" rx="5" y="6" x="6" height="38" width="38"
                fill="#f2f5e9" fill-opacity="0.5" stroke="#606060" stroke-width="1.0"/>
           <path id="arrow"
             d="M 11.500037,31.436501 C 11.940474,20.09759 22.043105,11.32322 32.158766,21.979434 L 37.068811,17.246167 C 37.068811,17.246167 37.088388,32 37.088388,32 L 22.160133,31.978069 C 22.160133,31.978069 26.997745,27.140456 26.997745,27.140456 C 18.528582,18.264221 13.291696,25.230495 11.500037,31.436501 z"
             style="fill:#404040;"/>
          </a>
         </g>
        </svg>
</svg>
