<?xml version="1.0" encoding="UTF-8" standalone="no"?>
<!DOCTYPE svg PUBLIC "-//W3C//DTD SVG 1.1//EN"
 "http://www.w3.org/Graphics/SVG/1.1/DTD/svg11.dtd">
<!-- Generated by graphviz version 2.40.1 (20161225.0304)
 -->
<!-- Title: drake/bindings/pydrake/multibody/shapes_py.cc Pages: 1 -->
<svg width="712pt" height="162pt"
 viewBox="0.00 0.00 711.50 162.00" xmlns="http://www.w3.org/2000/svg" xmlns:xlink="http://www.w3.org/1999/xlink">
<g id="graph0" class="graph" transform="scale(1 1) rotate(0) translate(4 158)">
<title>drake/bindings/pydrake/multibody/shapes_py.cc</title>
<polygon fill="#ffffff" stroke="transparent" points="-4,4 -4,-158 707.5,-158 707.5,4 -4,4"/>
<!-- Node0 -->
<g id="node1" class="node">
<title>Node0</title>
<polygon fill="#bfbfbf" stroke="#000000" points="197,-123.5 197,-153.5 334,-153.5 334,-123.5 197,-123.5"/>
<text text-anchor="start" x="205" y="-141.5" font-family="Helvetica,sans-Serif" font-size="10.00" fill="#000000">drake/bindings/pydrake</text>
<text text-anchor="middle" x="265.5" y="-130.5" font-family="Helvetica,sans-Serif" font-size="10.00" fill="#000000">/multibody/shapes_py.cc</text>
</g>
<!-- Node1 -->
<g id="node2" class="node">
<title>Node1</title>
<polygon fill="#ffffff" stroke="#bfbfbf" points="0,-62 0,-81 101,-81 101,-62 0,-62"/>
<text text-anchor="middle" x="50.5" y="-69" font-family="Helvetica,sans-Serif" font-size="10.00" fill="#000000">pybind11/eigen.h</text>
</g>
<!-- Node0&#45;&gt;Node1 -->
<g id="edge1" class="edge">
<title>Node0&#45;&gt;Node1</title>
<path fill="none" stroke="#191970" d="M217.2498,-123.4639C179.1124,-111.5792 126.5066,-95.1858 90.6464,-84.0108"/>
<polygon fill="#191970" stroke="#191970" points="91.5905,-80.639 81.002,-81.0053 89.5079,-87.322 91.5905,-80.639"/>
</g>
<!-- Node2 -->
<g id="node3" class="node">
<title>Node2</title>
<polygon fill="#ffffff" stroke="#bfbfbf" points="248,-.5 248,-19.5 367,-19.5 367,-.5 248,-.5"/>
<text text-anchor="middle" x="307.5" y="-7.5" font-family="Helvetica,sans-Serif" font-size="10.00" fill="#000000">pybind11/pybind11.h</text>
</g>
<!-- Node0&#45;&gt;Node2 -->
<g id="edge2" class="edge">
<title>Node0&#45;&gt;Node2</title>
<path fill="none" stroke="#191970" d="M211.2169,-123.3889C170.7075,-109.3121 125.9492,-85.9997 148.5,-56 159.7537,-41.029 200.7709,-29.3776 238.3236,-21.5468"/>
<polygon fill="#191970" stroke="#191970" points="239.1728,-24.9461 248.2842,-19.5393 237.7898,-18.0841 239.1728,-24.9461"/>
</g>
<!-- Node3 -->
<g id="node4" class="node">
<title>Node3</title>
<polygon fill="#ffffff" stroke="#bfbfbf" points="157.5,-62 157.5,-81 243.5,-81 243.5,-62 157.5,-62"/>
<text text-anchor="middle" x="200.5" y="-69" font-family="Helvetica,sans-Serif" font-size="10.00" fill="#000000">pybind11/stl.h</text>
</g>
<!-- Node0&#45;&gt;Node3 -->
<g id="edge3" class="edge">
<title>Node0&#45;&gt;Node3</title>
<path fill="none" stroke="#191970" d="M250.7505,-123.2967C240.6232,-112.8578 227.1788,-98.9997 216.7448,-88.2446"/>
<polygon fill="#191970" stroke="#191970" points="219.245,-85.7953 209.7697,-81.055 214.2208,-90.6695 219.245,-85.7953"/>
</g>
<!-- Node4 -->
<g id="node5" class="node">
<title>Node4</title>
<polygon fill="#ffffff" stroke="#bfbfbf" points="261.5,-56.5 261.5,-86.5 401.5,-86.5 401.5,-56.5 261.5,-56.5"/>
<text text-anchor="start" x="269.5" y="-74.5" font-family="Helvetica,sans-Serif" font-size="10.00" fill="#000000">drake/bindings/pydrake</text>
<text text-anchor="middle" x="331.5" y="-63.5" font-family="Helvetica,sans-Serif" font-size="10.00" fill="#000000">/documentation_pybind.h</text>
</g>
<!-- Node0&#45;&gt;Node4 -->
<g id="edge4" class="edge">
<title>Node0&#45;&gt;Node4</title>
<path fill="none" stroke="#191970" d="M280.4764,-123.2967C288.9993,-114.6446 299.836,-103.6438 309.3283,-94.0076"/>
<polygon fill="#191970" stroke="#191970" points="312.0585,-96.2234 316.5828,-86.6432 307.0717,-91.311 312.0585,-96.2234"/>
</g>
<!-- Node5 -->
<g id="node6" class="node">
<title>Node5</title>
<g id="a_node6"><a xlink:href="pydrake__pybind_8h.html" target="_top" xlink:title="drake/bindings/pydrake\l/pydrake_pybind.h">
<polygon fill="#ffffff" stroke="#000000" points="420,-56.5 420,-86.5 551,-86.5 551,-56.5 420,-56.5"/>
<text text-anchor="start" x="428" y="-74.5" font-family="Helvetica,sans-Serif" font-size="10.00" fill="#000000">drake/bindings/pydrake</text>
<text text-anchor="middle" x="485.5" y="-63.5" font-family="Helvetica,sans-Serif" font-size="10.00" fill="#000000">/pydrake_pybind.h</text>
</a>
</g>
</g>
<!-- Node0&#45;&gt;Node5 -->
<g id="edge5" class="edge">
<title>Node0&#45;&gt;Node5</title>
<path fill="none" stroke="#191970" d="M314.8723,-123.4639C347.875,-113.4131 391.4663,-100.1375 426.3273,-89.5208"/>
<polygon fill="#191970" stroke="#191970" points="427.3658,-92.8633 435.9124,-86.6017 425.3265,-86.1669 427.3658,-92.8633"/>
</g>
<!-- Node6 -->
<g id="node7" class="node">
<title>Node6</title>
<polygon fill="#ffffff" stroke="#bfbfbf" points="569.5,-56.5 569.5,-86.5 703.5,-86.5 703.5,-56.5 569.5,-56.5"/>
<text text-anchor="start" x="577.5" y="-74.5" font-family="Helvetica,sans-Serif" font-size="10.00" fill="#000000">drake/multibody/shapes</text>
<text text-anchor="middle" x="636.5" y="-63.5" font-family="Helvetica,sans-Serif" font-size="10.00" fill="#000000">/drake_shapes.h</text>
</g>
<!-- Node0&#45;&gt;Node6 -->
<g id="edge7" class="edge">
<title>Node0&#45;&gt;Node6</title>
<path fill="none" stroke="#191970" d="M334.1492,-127.0821C391.7218,-117.3764 476.3636,-102.8056 559.5154,-87.159"/>
<polygon fill="#191970" stroke="#191970" points="560.2067,-90.5904 569.3836,-85.2957 558.9078,-83.712 560.2067,-90.5904"/>
</g>
<!-- Node5&#45;&gt;Node2 -->
<g id="edge6" class="edge">
<title>Node5&#45;&gt;Node2</title>
<path fill="none" stroke="#191970" d="M441.9563,-56.4554C412.1263,-46.149 372.9834,-32.6249 344.6298,-22.8286"/>
<polygon fill="#191970" stroke="#191970" points="345.6784,-19.4879 335.0837,-19.5303 343.3924,-26.1041 345.6784,-19.4879"/>
</g>
</g>
</svg>
