<?xml version="1.0" encoding="UTF-8" standalone="no"?>
<!DOCTYPE svg PUBLIC "-//W3C//DTD SVG 1.1//EN"
 "http://www.w3.org/Graphics/SVG/1.1/DTD/svg11.dtd">
<!-- Generated by graphviz version 2.40.1 (20161225.0304)
 -->
<!-- Title: drake/automotive/simple_powertrain.h Pages: 1 -->
<svg width="314pt" height="106pt"
 viewBox="0.00 0.00 314.00 106.00" xmlns="http://www.w3.org/2000/svg" xmlns:xlink="http://www.w3.org/1999/xlink">
<g id="graph0" class="graph" transform="scale(1 1) rotate(0) translate(4 102)">
<title>drake/automotive/simple_powertrain.h</title>
<polygon fill="#ffffff" stroke="transparent" points="-4,4 -4,-102 310,-102 310,4 -4,4"/>
<!-- Node112 -->
<g id="node1" class="node">
<title>Node112</title>
<polygon fill="#bfbfbf" stroke="#000000" points="81,-67.5 81,-97.5 221,-97.5 221,-67.5 81,-67.5"/>
<text text-anchor="start" x="89" y="-85.5" font-family="Helvetica,sans-Serif" font-size="10.00" fill="#000000">drake/automotive/simple</text>
<text text-anchor="middle" x="151" y="-74.5" font-family="Helvetica,sans-Serif" font-size="10.00" fill="#000000">_powertrain.h</text>
</g>
<!-- Node113 -->
<g id="node2" class="node">
<title>Node113</title>
<g id="a_node2"><a xlink:href="simple__powertrain_8cc.html" target="_top" xlink:title="drake/automotive/simple\l_powertrain.cc">
<polygon fill="#ffffff" stroke="#000000" points="0,-.5 0,-30.5 140,-30.5 140,-.5 0,-.5"/>
<text text-anchor="start" x="8" y="-18.5" font-family="Helvetica,sans-Serif" font-size="10.00" fill="#000000">drake/automotive/simple</text>
<text text-anchor="middle" x="70" y="-7.5" font-family="Helvetica,sans-Serif" font-size="10.00" fill="#000000">_powertrain.cc</text>
</a>
</g>
</g>
<!-- Node112&#45;&gt;Node113 -->
<g id="edge1" class="edge">
<title>Node112&#45;&gt;Node113</title>
<path fill="none" stroke="#191970" d="M124.7425,-60.7808C112.8433,-50.9383 99.0644,-39.541 88.3074,-30.6432"/>
<polygon fill="#191970" stroke="#191970" points="122.6835,-63.6198 132.6198,-67.2967 127.1451,-58.2259 122.6835,-63.6198"/>
</g>
<!-- Node114 -->
<g id="node3" class="node">
<title>Node114</title>
<g id="a_node3"><a xlink:href="simple__powertrain__test_8cc.html" target="_top" xlink:title="drake/automotive/test\l/simple_powertrain_test.cc">
<polygon fill="#ffffff" stroke="#000000" points="158,-.5 158,-30.5 306,-30.5 306,-.5 158,-.5"/>
<text text-anchor="start" x="166" y="-18.5" font-family="Helvetica,sans-Serif" font-size="10.00" fill="#000000">drake/automotive/test</text>
<text text-anchor="middle" x="232" y="-7.5" font-family="Helvetica,sans-Serif" font-size="10.00" fill="#000000">/simple_powertrain_test.cc</text>
</a>
</g>
</g>
<!-- Node112&#45;&gt;Node114 -->
<g id="edge2" class="edge">
<title>Node112&#45;&gt;Node114</title>
<path fill="none" stroke="#191970" d="M177.2575,-60.7808C189.1567,-50.9383 202.9356,-39.541 213.6926,-30.6432"/>
<polygon fill="#191970" stroke="#191970" points="174.8549,-58.2259 169.3802,-67.2967 179.3165,-63.6198 174.8549,-58.2259"/>
</g>
</g>
</svg>
