<?xml version="1.0" encoding="UTF-8" standalone="no"?>
<!DOCTYPE svg PUBLIC "-//W3C//DTD SVG 1.1//EN"
 "http://www.w3.org/Graphics/SVG/1.1/DTD/svg11.dtd">
<!-- Generated by graphviz version 2.40.1 (20161225.0304)
 -->
<!-- Title: drake/examples/schunk_wsg/simulated_schunk_wsg_system.h Pages: 1 -->
<svg width="214pt" height="128pt"
 viewBox="0.00 0.00 214.00 128.00" xmlns="http://www.w3.org/2000/svg" xmlns:xlink="http://www.w3.org/1999/xlink">
<g id="graph0" class="graph" transform="scale(1 1) rotate(0) translate(4 124)">
<title>drake/examples/schunk_wsg/simulated_schunk_wsg_system.h</title>
<polygon fill="#ffffff" stroke="transparent" points="-4,4 -4,-124 210,-124 210,4 -4,4"/>
<!-- Node0 -->
<g id="node1" class="node">
<title>Node0</title>
<polygon fill="#bfbfbf" stroke="#000000" points="18.5,-78.5 18.5,-119.5 151.5,-119.5 151.5,-78.5 18.5,-78.5"/>
<text text-anchor="start" x="26.5" y="-107.5" font-family="Helvetica,sans-Serif" font-size="10.00" fill="#000000">drake/examples/schunk</text>
<text text-anchor="start" x="26.5" y="-96.5" font-family="Helvetica,sans-Serif" font-size="10.00" fill="#000000">_wsg/simulated_schunk</text>
<text text-anchor="middle" x="85" y="-85.5" font-family="Helvetica,sans-Serif" font-size="10.00" fill="#000000">_wsg_system.h</text>
</g>
<!-- Node1 -->
<g id="node2" class="node">
<title>Node1</title>
<polygon fill="#ffffff" stroke="#bfbfbf" points="0,-11.5 0,-30.5 58,-30.5 58,-11.5 0,-11.5"/>
<text text-anchor="middle" x="29" y="-18.5" font-family="Helvetica,sans-Serif" font-size="10.00" fill="#000000">memory</text>
</g>
<!-- Node0&#45;&gt;Node1 -->
<g id="edge1" class="edge">
<title>Node0&#45;&gt;Node1</title>
<path fill="none" stroke="#191970" d="M69.993,-78.0974C61.3012,-65.991 50.463,-50.895 42.1143,-39.2663"/>
<polygon fill="#191970" stroke="#191970" points="44.7163,-36.8892 36.041,-30.8072 39.03,-40.9717 44.7163,-36.8892"/>
</g>
<!-- Node2 -->
<g id="node3" class="node">
<title>Node2</title>
<polygon fill="#ffffff" stroke="#bfbfbf" points="76,-.5 76,-41.5 206,-41.5 206,-.5 76,-.5"/>
<text text-anchor="start" x="84" y="-29.5" font-family="Helvetica,sans-Serif" font-size="10.00" fill="#000000">drake/multibody/rigid</text>
<text text-anchor="start" x="84" y="-18.5" font-family="Helvetica,sans-Serif" font-size="10.00" fill="#000000">_body_plant/rigid_body</text>
<text text-anchor="middle" x="141" y="-7.5" font-family="Helvetica,sans-Serif" font-size="10.00" fill="#000000">_plant.h</text>
</g>
<!-- Node0&#45;&gt;Node2 -->
<g id="edge2" class="edge">
<title>Node0&#45;&gt;Node2</title>
<path fill="none" stroke="#191970" d="M100.007,-78.0974C106.2082,-69.46 113.5019,-59.3009 120.2047,-49.9649"/>
<polygon fill="#191970" stroke="#191970" points="123.1568,-51.8543 126.1458,-41.6898 117.4705,-47.7718 123.1568,-51.8543"/>
</g>
</g>
</svg>
