<?xml version="1.0" encoding="UTF-8" standalone="no"?>
<!DOCTYPE svg PUBLIC "-//W3C//DTD SVG 1.1//EN"
 "http://www.w3.org/Graphics/SVG/1.1/DTD/svg11.dtd">
<!-- Generated by graphviz version 2.40.1 (20161225.0304)
 -->
<!-- Title: drake/solvers/solver_type_converter.h Pages: 1 -->
<svg width="982pt" height="363pt"
 viewBox="0.00 0.00 982.00 363.00" xmlns="http://www.w3.org/2000/svg" xmlns:xlink="http://www.w3.org/1999/xlink">
<g id="graph0" class="graph" transform="scale(1 1) rotate(0) translate(4 359)">
<title>drake/solvers/solver_type_converter.h</title>
<polygon fill="#ffffff" stroke="transparent" points="-4,4 -4,-359 978,-359 978,4 -4,4"/>
<!-- Node0 -->
<g id="node1" class="node">
<title>Node0</title>
<polygon fill="#bfbfbf" stroke="#000000" points="274.5,-324.5 274.5,-354.5 390.5,-354.5 390.5,-324.5 274.5,-324.5"/>
<text text-anchor="start" x="282.5" y="-342.5" font-family="Helvetica,sans-Serif" font-size="10.00" fill="#000000">drake/solvers/solver</text>
<text text-anchor="middle" x="332.5" y="-331.5" font-family="Helvetica,sans-Serif" font-size="10.00" fill="#000000">_type_converter.h</text>
</g>
<!-- Node1 -->
<g id="node2" class="node">
<title>Node1</title>
<g id="a_node2"><a xlink:href="drake__copyable_8h.html" target="_top" xlink:title="Provides careful macros to selectively enable or disable the special member functions for copy&#45;constr...">
<polygon fill="#ffffff" stroke="#000000" points="215,-190.5 215,-220.5 336,-220.5 336,-190.5 215,-190.5"/>
<text text-anchor="start" x="223" y="-208.5" font-family="Helvetica,sans-Serif" font-size="10.00" fill="#000000">drake/common/drake</text>
<text text-anchor="middle" x="275.5" y="-197.5" font-family="Helvetica,sans-Serif" font-size="10.00" fill="#000000">_copyable.h</text>
</a>
</g>
</g>
<!-- Node0&#45;&gt;Node1 -->
<g id="edge1" class="edge">
<title>Node0&#45;&gt;Node1</title>
<path fill="none" stroke="#191970" d="M326.0722,-324.389C316.3222,-301.4681 297.6922,-257.6712 285.9691,-230.1116"/>
<polygon fill="#191970" stroke="#191970" points="289.1269,-228.5934 281.9918,-220.7614 282.6854,-231.3335 289.1269,-228.5934"/>
</g>
<!-- Node2 -->
<g id="node3" class="node">
<title>Node2</title>
<g id="a_node3"><a xlink:href="drake__optional_8h.html" target="_top" xlink:title="Provides drake::optional as an alias for the appropriate implementation of std::optional or std::expe...">
<polygon fill="#ffffff" stroke="#000000" points="42,-123.5 42,-153.5 163,-153.5 163,-123.5 42,-123.5"/>
<text text-anchor="start" x="50" y="-141.5" font-family="Helvetica,sans-Serif" font-size="10.00" fill="#000000">drake/common/drake</text>
<text text-anchor="middle" x="102.5" y="-130.5" font-family="Helvetica,sans-Serif" font-size="10.00" fill="#000000">_optional.h</text>
</a>
</g>
</g>
<!-- Node0&#45;&gt;Node2 -->
<g id="edge2" class="edge">
<title>Node0&#45;&gt;Node2</title>
<path fill="none" stroke="#191970" d="M315.2126,-324.3923C274.8207,-289.0933 174.1349,-201.1027 127.2492,-160.1286"/>
<polygon fill="#191970" stroke="#191970" points="129.5072,-157.4538 119.6742,-153.5088 124.9009,-162.7247 129.5072,-157.4538"/>
</g>
<!-- Node5 -->
<g id="node6" class="node">
<title>Node5</title>
<g id="a_node6"><a xlink:href="solver__id_8h.html" target="_top" xlink:title="drake/solvers/solver_id.h">
<polygon fill="#ffffff" stroke="#000000" points="341,-263 341,-282 480,-282 480,-263 341,-263"/>
<text text-anchor="middle" x="410.5" y="-270" font-family="Helvetica,sans-Serif" font-size="10.00" fill="#000000">drake/solvers/solver_id.h</text>
</a>
</g>
</g>
<!-- Node0&#45;&gt;Node5 -->
<g id="edge5" class="edge">
<title>Node0&#45;&gt;Node5</title>
<path fill="none" stroke="#191970" d="M350.1994,-324.2967C362.5881,-313.6551 379.1135,-299.4602 391.7315,-288.6217"/>
<polygon fill="#191970" stroke="#191970" points="394.0712,-291.2259 399.3763,-282.055 389.51,-285.9159 394.0712,-291.2259"/>
</g>
<!-- Node21 -->
<g id="node22" class="node">
<title>Node21</title>
<g id="a_node22"><a xlink:href="solver__type_8h.html" target="_top" xlink:title="drake/solvers/solver\l_type.h">
<polygon fill="#ffffff" stroke="#000000" points="498.5,-257.5 498.5,-287.5 614.5,-287.5 614.5,-257.5 498.5,-257.5"/>
<text text-anchor="start" x="506.5" y="-275.5" font-family="Helvetica,sans-Serif" font-size="10.00" fill="#000000">drake/solvers/solver</text>
<text text-anchor="middle" x="556.5" y="-264.5" font-family="Helvetica,sans-Serif" font-size="10.00" fill="#000000">_type.h</text>
</a>
</g>
</g>
<!-- Node0&#45;&gt;Node21 -->
<g id="edge29" class="edge">
<title>Node0&#45;&gt;Node21</title>
<path fill="none" stroke="#191970" d="M382.77,-324.4639C416.3728,-314.4131 460.7566,-301.1375 496.2515,-290.5208"/>
<polygon fill="#191970" stroke="#191970" points="497.4332,-293.8206 506.0108,-287.6017 495.4272,-287.1142 497.4332,-293.8206"/>
</g>
<!-- Node3 -->
<g id="node4" class="node">
<title>Node3</title>
<polygon fill="#ffffff" stroke="#bfbfbf" points="113.5,-62 113.5,-81 203.5,-81 203.5,-62 113.5,-62"/>
<text text-anchor="middle" x="158.5" y="-69" font-family="Helvetica,sans-Serif" font-size="10.00" fill="#000000">stx/variant.hpp</text>
</g>
<!-- Node2&#45;&gt;Node3 -->
<g id="edge3" class="edge">
<title>Node2&#45;&gt;Node3</title>
<path fill="none" stroke="#191970" d="M115.2073,-123.2967C123.7629,-113.0605 135.0665,-99.5366 143.9779,-88.8746"/>
<polygon fill="#191970" stroke="#191970" points="146.7861,-90.9724 150.5138,-81.055 141.4151,-86.4832 146.7861,-90.9724"/>
</g>
<!-- Node4 -->
<g id="node5" class="node">
<title>Node4</title>
<polygon fill="#ffffff" stroke="#bfbfbf" points="0,-62 0,-81 95,-81 95,-62 0,-62"/>
<text text-anchor="middle" x="47.5" y="-69" font-family="Helvetica,sans-Serif" font-size="10.00" fill="#000000">stx/optional.hpp</text>
</g>
<!-- Node2&#45;&gt;Node4 -->
<g id="edge4" class="edge">
<title>Node2&#45;&gt;Node4</title>
<path fill="none" stroke="#191970" d="M90.0196,-123.2967C81.6168,-113.0605 70.5151,-99.5366 61.7627,-88.8746"/>
<polygon fill="#191970" stroke="#191970" points="64.3939,-86.5635 55.3436,-81.055 58.9833,-91.005 64.3939,-86.5635"/>
</g>
<!-- Node5&#45;&gt;Node1 -->
<g id="edge9" class="edge">
<title>Node5&#45;&gt;Node1</title>
<path fill="none" stroke="#191970" d="M391.1578,-262.9005C371.3753,-253.0826 340.0779,-237.5498 315.0262,-225.1167"/>
<polygon fill="#191970" stroke="#191970" points="316.2812,-221.8323 305.7677,-220.5218 313.1693,-228.1025 316.2812,-221.8323"/>
</g>
<!-- Node6 -->
<g id="node7" class="node">
<title>Node6</title>
<polygon fill="#ffffff" stroke="#bfbfbf" points="909,-129 909,-148 974,-148 974,-129 909,-129"/>
<text text-anchor="middle" x="941.5" y="-136" font-family="Helvetica,sans-Serif" font-size="10.00" fill="#000000">functional</text>
</g>
<!-- Node5&#45;&gt;Node6 -->
<g id="edge6" class="edge">
<title>Node5&#45;&gt;Node6</title>
<path fill="none" stroke="#191970" d="M455.4991,-262.9559C466.5821,-260.803 478.4432,-258.665 489.5,-257 640.1988,-234.3071 688.5354,-276.4179 830.5,-221 868.4118,-206.2006 904.7813,-174.8317 925.0306,-155.3229"/>
<polygon fill="#191970" stroke="#191970" points="927.5438,-157.7602 932.2083,-148.2474 922.6297,-152.7751 927.5438,-157.7602"/>
</g>
<!-- Node7 -->
<g id="node8" class="node">
<title>Node7</title>
<polygon fill="#ffffff" stroke="#bfbfbf" points="354,-196 354,-215 411,-215 411,-196 354,-196"/>
<text text-anchor="middle" x="382.5" y="-203" font-family="Helvetica,sans-Serif" font-size="10.00" fill="#000000">ostream</text>
</g>
<!-- Node5&#45;&gt;Node7 -->
<g id="edge7" class="edge">
<title>Node5&#45;&gt;Node7</title>
<path fill="none" stroke="#191970" d="M406.4883,-262.9005C402.3298,-252.95 395.7182,-237.1292 390.4883,-224.6147"/>
<polygon fill="#191970" stroke="#191970" points="393.5896,-222.9588 386.5043,-215.0817 387.1309,-225.658 393.5896,-222.9588"/>
</g>
<!-- Node8 -->
<g id="node9" class="node">
<title>Node8</title>
<polygon fill="#ffffff" stroke="#bfbfbf" points="181.5,-129 181.5,-148 225.5,-148 225.5,-129 181.5,-129"/>
<text text-anchor="middle" x="203.5" y="-136" font-family="Helvetica,sans-Serif" font-size="10.00" fill="#000000">string</text>
</g>
<!-- Node5&#45;&gt;Node8 -->
<g id="edge8" class="edge">
<title>Node5&#45;&gt;Node8</title>
<path fill="none" stroke="#191970" d="M415.5856,-262.8231C423.6598,-245.9668 436.8188,-211.0138 419.5,-190 366.2259,-125.3597 313.8011,-180.9784 234.5,-154 232.8943,-153.4537 231.2663,-152.8398 229.6405,-152.1798"/>
<polygon fill="#191970" stroke="#191970" points="231.0748,-148.9872 220.5219,-148.0454 228.1841,-155.3625 231.0748,-148.9872"/>
</g>
<!-- Node9 -->
<g id="node10" class="node">
<title>Node9</title>
<g id="a_node10"><a xlink:href="hash_8h.html" target="_top" xlink:title="drake/common/hash.h">
<polygon fill="#ffffff" stroke="#000000" points="468,-196 468,-215 593,-215 593,-196 468,-196"/>
<text text-anchor="middle" x="530.5" y="-203" font-family="Helvetica,sans-Serif" font-size="10.00" fill="#000000">drake/common/hash.h</text>
</a>
</g>
</g>
<!-- Node5&#45;&gt;Node9 -->
<g id="edge10" class="edge">
<title>Node5&#45;&gt;Node9</title>
<path fill="none" stroke="#191970" d="M427.6931,-262.9005C447.7427,-251.7062 481.0988,-233.0823 504.3602,-220.0947"/>
<polygon fill="#191970" stroke="#191970" points="506.3138,-223.0126 513.3388,-215.0817 502.9013,-216.9007 506.3138,-223.0126"/>
</g>
<!-- Node20 -->
<g id="node21" class="node">
<title>Node20</title>
<g id="a_node21"><a xlink:href="reset__after__move_8h.html" target="_top" xlink:title="drake/common/reset\l_after_move.h">
<polygon fill="#ffffff" stroke="#000000" points="703.5,-190.5 703.5,-220.5 821.5,-220.5 821.5,-190.5 703.5,-190.5"/>
<text text-anchor="start" x="711.5" y="-208.5" font-family="Helvetica,sans-Serif" font-size="10.00" fill="#000000">drake/common/reset</text>
<text text-anchor="middle" x="762.5" y="-197.5" font-family="Helvetica,sans-Serif" font-size="10.00" fill="#000000">_after_move.h</text>
</a>
</g>
</g>
<!-- Node5&#45;&gt;Node20 -->
<g id="edge27" class="edge">
<title>Node5&#45;&gt;Node20</title>
<path fill="none" stroke="#191970" d="M458.9528,-262.9355C469.0456,-260.9595 479.618,-258.9015 489.5,-257 558.834,-243.6587 638.1417,-228.7353 693.3451,-218.4017"/>
<polygon fill="#191970" stroke="#191970" points="694.1787,-221.8065 703.3644,-216.527 692.8913,-214.926 694.1787,-221.8065"/>
</g>
<!-- Node9&#45;&gt;Node2 -->
<g id="edge23" class="edge">
<title>Node9&#45;&gt;Node2</title>
<path fill="none" stroke="#191970" d="M467.8304,-196.7459C379.6294,-184.3886 224.6945,-162.5352 173.0272,-153.9356"/>
<polygon fill="#191970" stroke="#191970" points="173.6011,-150.4829 163.1499,-152.2217 172.4043,-157.3799 173.6011,-150.4829"/>
</g>
<!-- Node9&#45;&gt;Node6 -->
<g id="edge13" class="edge">
<title>Node9&#45;&gt;Node6</title>
<path fill="none" stroke="#191970" d="M593.2653,-198.4806C683.1075,-188.1397 843.7858,-168.4737 900.5,-154 903.3342,-153.2767 906.2415,-152.4212 909.1363,-151.4895"/>
<polygon fill="#191970" stroke="#191970" points="910.5199,-154.7135 918.8045,-148.1094 908.2097,-148.1057 910.5199,-154.7135"/>
</g>
<!-- Node9&#45;&gt;Node8 -->
<g id="edge17" class="edge">
<title>Node9&#45;&gt;Node8</title>
<path fill="none" stroke="#191970" d="M484.542,-195.9693C474.3351,-193.9306 463.5605,-191.8389 453.5,-190 356.4679,-172.2644 328.3384,-184.3995 234.5,-154 232.8865,-153.4773 231.2524,-152.8818 229.6219,-152.2358"/>
<polygon fill="#191970" stroke="#191970" points="231.047,-149.0391 220.4903,-148.1404 228.1824,-155.4262 231.047,-149.0391"/>
</g>
<!-- Node10 -->
<g id="node11" class="node">
<title>Node10</title>
<polygon fill="#ffffff" stroke="#bfbfbf" points="244,-129 244,-148 291,-148 291,-129 244,-129"/>
<text text-anchor="middle" x="267.5" y="-136" font-family="Helvetica,sans-Serif" font-size="10.00" fill="#000000">cmath</text>
</g>
<!-- Node9&#45;&gt;Node10 -->
<g id="edge11" class="edge">
<title>Node9&#45;&gt;Node10</title>
<path fill="none" stroke="#191970" d="M485.0891,-195.967C422.8829,-182.8175 316.8638,-160.0488 299.5,-154 297.8969,-153.4416 296.269,-152.8242 294.64,-152.1671"/>
<polygon fill="#191970" stroke="#191970" points="296.026,-148.953 285.4654,-148.1014 293.1899,-155.3528 296.026,-148.953"/>
</g>
<!-- Node11 -->
<g id="node12" class="node">
<title>Node11</title>
<polygon fill="#ffffff" stroke="#bfbfbf" points="309,-129 309,-148 362,-148 362,-129 309,-129"/>
<text text-anchor="middle" x="335.5" y="-136" font-family="Helvetica,sans-Serif" font-size="10.00" fill="#000000">cstddef</text>
</g>
<!-- Node9&#45;&gt;Node11 -->
<g id="edge12" class="edge">
<title>Node9&#45;&gt;Node11</title>
<path fill="none" stroke="#191970" d="M497.9141,-195.9198C465.5575,-186.1795 414.6797,-170.2481 371.5,-154 369.6849,-153.317 367.8278,-152.594 365.9605,-151.8483"/>
<polygon fill="#191970" stroke="#191970" points="367.265,-148.6003 356.6865,-148.0115 364.5889,-155.0686 367.265,-148.6003"/>
</g>
<!-- Node12 -->
<g id="node13" class="node">
<title>Node12</title>
<polygon fill="#ffffff" stroke="#bfbfbf" points="380.5,-129 380.5,-148 440.5,-148 440.5,-129 380.5,-129"/>
<text text-anchor="middle" x="410.5" y="-136" font-family="Helvetica,sans-Serif" font-size="10.00" fill="#000000">iostream</text>
</g>
<!-- Node9&#45;&gt;Node12 -->
<g id="edge14" class="edge">
<title>Node9&#45;&gt;Node12</title>
<path fill="none" stroke="#191970" d="M513.3069,-195.9005C493.2573,-184.7062 459.9012,-166.0823 436.6398,-153.0947"/>
<polygon fill="#191970" stroke="#191970" points="438.0987,-149.9007 427.6612,-148.0817 434.6862,-156.0126 438.0987,-149.9007"/>
</g>
<!-- Node13 -->
<g id="node14" class="node">
<title>Node13</title>
<polygon fill="#ffffff" stroke="#bfbfbf" points="458.5,-129 458.5,-148 496.5,-148 496.5,-129 458.5,-129"/>
<text text-anchor="middle" x="477.5" y="-136" font-family="Helvetica,sans-Serif" font-size="10.00" fill="#000000">map</text>
</g>
<!-- Node9&#45;&gt;Node13 -->
<g id="edge15" class="edge">
<title>Node9&#45;&gt;Node13</title>
<path fill="none" stroke="#191970" d="M522.9064,-195.9005C514.7202,-185.552 501.5115,-168.8542 491.4457,-156.1295"/>
<polygon fill="#191970" stroke="#191970" points="494.0286,-153.7531 485.0795,-148.0817 488.5386,-158.0959 494.0286,-153.7531"/>
</g>
<!-- Node14 -->
<g id="node15" class="node">
<title>Node14</title>
<polygon fill="#ffffff" stroke="#bfbfbf" points="514.5,-129 514.5,-148 546.5,-148 546.5,-129 514.5,-129"/>
<text text-anchor="middle" x="530.5" y="-136" font-family="Helvetica,sans-Serif" font-size="10.00" fill="#000000">set</text>
</g>
<!-- Node9&#45;&gt;Node14 -->
<g id="edge16" class="edge">
<title>Node9&#45;&gt;Node14</title>
<path fill="none" stroke="#191970" d="M530.5,-195.9005C530.5,-186.149 530.5,-170.7597 530.5,-158.3695"/>
<polygon fill="#191970" stroke="#191970" points="534.0001,-158.0816 530.5,-148.0817 527.0001,-158.0817 534.0001,-158.0816"/>
</g>
<!-- Node15 -->
<g id="node16" class="node">
<title>Node15</title>
<polygon fill="#ffffff" stroke="#bfbfbf" points="690,-.5 690,-19.5 759,-19.5 759,-.5 690,-.5"/>
<text text-anchor="middle" x="724.5" y="-7.5" font-family="Helvetica,sans-Serif" font-size="10.00" fill="#000000">type_traits</text>
</g>
<!-- Node9&#45;&gt;Node15 -->
<g id="edge18" class="edge">
<title>Node9&#45;&gt;Node15</title>
<path fill="none" stroke="#191970" d="M593.2224,-199.9542C657.4881,-192.995 751.5619,-178.8478 777.5,-154 809.4221,-123.4197 815.4879,-94.906 794.5,-56 786.927,-41.9617 772.9927,-31.5084 759.5386,-24.1453"/>
<polygon fill="#191970" stroke="#191970" points="760.8906,-20.9074 750.385,-19.5353 757.742,-27.1593 760.8906,-20.9074"/>
</g>
<!-- Node16 -->
<g id="node17" class="node">
<title>Node16</title>
<polygon fill="#ffffff" stroke="#bfbfbf" points="846,-129 846,-148 891,-148 891,-129 846,-129"/>
<text text-anchor="middle" x="868.5" y="-136" font-family="Helvetica,sans-Serif" font-size="10.00" fill="#000000">utility</text>
</g>
<!-- Node9&#45;&gt;Node16 -->
<g id="edge19" class="edge">
<title>Node9&#45;&gt;Node16</title>
<path fill="none" stroke="#191970" d="M593.1145,-198.9932C654.6558,-191.6202 750.8136,-177.4712 831.5,-154 833.8134,-153.327 836.1772,-152.5529 838.5355,-151.7173"/>
<polygon fill="#191970" stroke="#191970" points="839.9909,-154.9072 848.0565,-148.0371 837.4671,-148.3779 839.9909,-154.9072"/>
</g>
<!-- Node17 -->
<g id="node18" class="node">
<title>Node17</title>
<polygon fill="#ffffff" stroke="#bfbfbf" points="704,-129 704,-148 751,-148 751,-129 704,-129"/>
<text text-anchor="middle" x="727.5" y="-136" font-family="Helvetica,sans-Serif" font-size="10.00" fill="#000000">vector</text>
</g>
<!-- Node9&#45;&gt;Node17 -->
<g id="edge20" class="edge">
<title>Node9&#45;&gt;Node17</title>
<path fill="none" stroke="#191970" d="M566.4353,-195.9495C600.2219,-186.581 651.9706,-171.2251 695.5,-154 696.8632,-153.4606 698.2489,-152.8878 699.6412,-152.2925"/>
<polygon fill="#191970" stroke="#191970" points="701.0988,-155.4747 708.7564,-148.1526 698.2041,-149.1012 701.0988,-155.4747"/>
</g>
<!-- Node18 -->
<g id="node19" class="node">
<title>Node18</title>
<g id="a_node19"><a xlink:href="drake__assert_8h.html" target="_top" xlink:title="Provides Drake&#39;s assertion implementation. ">
<polygon fill="#ffffff" stroke="#000000" points="664,-56.5 664,-86.5 785,-86.5 785,-56.5 664,-56.5"/>
<text text-anchor="start" x="672" y="-74.5" font-family="Helvetica,sans-Serif" font-size="10.00" fill="#000000">drake/common/drake</text>
<text text-anchor="middle" x="724.5" y="-63.5" font-family="Helvetica,sans-Serif" font-size="10.00" fill="#000000">_assert.h</text>
</a>
</g>
</g>
<!-- Node9&#45;&gt;Node18 -->
<g id="edge21" class="edge">
<title>Node9&#45;&gt;Node18</title>
<path fill="none" stroke="#191970" d="M593.2232,-200.1405C653.9813,-193.4946 739.8772,-179.7511 760.5,-154 774.7315,-136.2295 761.1058,-111.9661 746.7204,-94.3553"/>
<polygon fill="#191970" stroke="#191970" points="749.3489,-92.0441 740.1548,-86.7792 744.0589,-96.6285 749.3489,-92.0441"/>
</g>
<!-- Node19 -->
<g id="node20" class="node">
<title>Node19</title>
<g id="a_node20"><a xlink:href="drake__throw_8h.html" target="_top" xlink:title="Provides a convenient wrapper to throw an exception when a condition is unmet. ">
<polygon fill="#ffffff" stroke="#000000" points="565,-123.5 565,-153.5 686,-153.5 686,-123.5 565,-123.5"/>
<text text-anchor="start" x="573" y="-141.5" font-family="Helvetica,sans-Serif" font-size="10.00" fill="#000000">drake/common/drake</text>
<text text-anchor="middle" x="625.5" y="-130.5" font-family="Helvetica,sans-Serif" font-size="10.00" fill="#000000">_throw.h</text>
</a>
</g>
</g>
<!-- Node9&#45;&gt;Node19 -->
<g id="edge24" class="edge">
<title>Node9&#45;&gt;Node19</title>
<path fill="none" stroke="#191970" d="M544.1112,-195.9005C557.4802,-186.4718 578.3226,-171.7725 595.5685,-159.6096"/>
<polygon fill="#191970" stroke="#191970" points="598.0456,-162.1455 604.2005,-153.5218 594.0112,-156.425 598.0456,-162.1455"/>
</g>
<!-- Node18&#45;&gt;Node15 -->
<g id="edge22" class="edge">
<title>Node18&#45;&gt;Node15</title>
<path fill="none" stroke="#191970" d="M724.5,-56.2977C724.5,-48.3834 724.5,-38.6043 724.5,-30.0759"/>
<polygon fill="#191970" stroke="#191970" points="728.0001,-29.8469 724.5,-19.8469 721.0001,-29.847 728.0001,-29.8469"/>
</g>
<!-- Node19&#45;&gt;Node15 -->
<g id="edge25" class="edge">
<title>Node19&#45;&gt;Node15</title>
<path fill="none" stroke="#191970" d="M628.0272,-123.4097C631.6126,-105.7216 639.5909,-76.2557 655.5,-56 665.8323,-42.8448 680.9989,-32.1554 694.4833,-24.4033"/>
<polygon fill="#191970" stroke="#191970" points="696.3601,-27.3667 703.4698,-19.5116 693.0134,-21.2185 696.3601,-27.3667"/>
</g>
<!-- Node19&#45;&gt;Node18 -->
<g id="edge26" class="edge">
<title>Node19&#45;&gt;Node18</title>
<path fill="none" stroke="#191970" d="M647.9646,-123.2967C661.5085,-114.1306 678.9475,-102.3285 693.7575,-92.3055"/>
<polygon fill="#191970" stroke="#191970" points="695.8042,-95.1466 702.1243,-86.6432 691.8809,-89.3494 695.8042,-95.1466"/>
</g>
<!-- Node20&#45;&gt;Node16 -->
<g id="edge28" class="edge">
<title>Node20&#45;&gt;Node16</title>
<path fill="none" stroke="#191970" d="M786.2885,-190.4639C803.7535,-179.4247 827.3729,-164.4954 844.8138,-153.4715"/>
<polygon fill="#191970" stroke="#191970" points="846.7228,-156.4054 853.3057,-148.1039 842.9827,-150.4883 846.7228,-156.4054"/>
</g>
</g>
</svg>
