<?xml version="1.0" encoding="UTF-8" standalone="no"?>
<!DOCTYPE svg PUBLIC "-//W3C//DTD SVG 1.1//EN"
 "http://www.w3.org/Graphics/SVG/1.1/DTD/svg11.dtd">
<!-- Generated by graphviz version 2.40.1 (20161225.0304)
 -->
<!-- Title: drake/solvers/solve.h Pages: 1 -->
<svg width="398pt" height="106pt"
 viewBox="0.00 0.00 397.50 106.00" xmlns="http://www.w3.org/2000/svg" xmlns:xlink="http://www.w3.org/1999/xlink">
<g id="graph0" class="graph" transform="scale(1 1) rotate(0) translate(4 102)">
<title>drake/solvers/solve.h</title>
<polygon fill="#ffffff" stroke="transparent" points="-4,4 -4,-102 393.5,-102 393.5,4 -4,4"/>
<!-- Node92 -->
<g id="node1" class="node">
<title>Node92</title>
<polygon fill="#bfbfbf" stroke="#000000" points="145,-78.5 145,-97.5 266,-97.5 266,-78.5 145,-78.5"/>
<text text-anchor="middle" x="205.5" y="-85.5" font-family="Helvetica,sans-Serif" font-size="10.00" fill="#000000">drake/solvers/solve.h</text>
</g>
<!-- Node93 -->
<g id="node2" class="node">
<title>Node93</title>
<g id="a_node2"><a xlink:href="solve_8cc.html" target="_top" xlink:title="drake/solvers/solve.cc">
<polygon fill="#ffffff" stroke="#000000" points="0,-11.5 0,-30.5 125,-30.5 125,-11.5 0,-11.5"/>
<text text-anchor="middle" x="62.5" y="-18.5" font-family="Helvetica,sans-Serif" font-size="10.00" fill="#000000">drake/solvers/solve.cc</text>
</a>
</g>
</g>
<!-- Node92&#45;&gt;Node93 -->
<g id="edge1" class="edge">
<title>Node92&#45;&gt;Node93</title>
<path fill="none" stroke="#191970" d="M175.7735,-74.0722C147.9917,-61.0555 107.2505,-41.967 82.9504,-30.5817"/>
<polygon fill="#191970" stroke="#191970" points="174.4713,-77.3271 185.0116,-78.4005 177.4412,-70.9884 174.4713,-77.3271"/>
</g>
<!-- Node94 -->
<g id="node3" class="node">
<title>Node94</title>
<g id="a_node3"><a xlink:href="linear__system__solver__test_8cc.html" target="_top" xlink:title="drake/solvers/test\l/linear_system_solver\l_test.cc">
<polygon fill="#ffffff" stroke="#000000" points="143.5,-.5 143.5,-41.5 267.5,-41.5 267.5,-.5 143.5,-.5"/>
<text text-anchor="start" x="151.5" y="-29.5" font-family="Helvetica,sans-Serif" font-size="10.00" fill="#000000">drake/solvers/test</text>
<text text-anchor="start" x="151.5" y="-18.5" font-family="Helvetica,sans-Serif" font-size="10.00" fill="#000000">/linear_system_solver</text>
<text text-anchor="middle" x="205.5" y="-7.5" font-family="Helvetica,sans-Serif" font-size="10.00" fill="#000000">_test.cc</text>
</a>
</g>
</g>
<!-- Node92&#45;&gt;Node94 -->
<g id="edge2" class="edge">
<title>Node92&#45;&gt;Node94</title>
<path fill="none" stroke="#191970" d="M205.5,-68.3919C205.5,-59.9817 205.5,-50.1519 205.5,-41.6318"/>
<polygon fill="#191970" stroke="#191970" points="202.0001,-68.4005 205.5,-78.4005 209.0001,-68.4006 202.0001,-68.4005"/>
</g>
<!-- Node95 -->
<g id="node4" class="node">
<title>Node95</title>
<g id="a_node4"><a xlink:href="solve__test_8cc.html" target="_top" xlink:title="drake/solvers/test\l/solve_test.cc">
<polygon fill="#ffffff" stroke="#000000" points="285.5,-6 285.5,-36 389.5,-36 389.5,-6 285.5,-6"/>
<text text-anchor="start" x="293.5" y="-24" font-family="Helvetica,sans-Serif" font-size="10.00" fill="#000000">drake/solvers/test</text>
<text text-anchor="middle" x="337.5" y="-13" font-family="Helvetica,sans-Serif" font-size="10.00" fill="#000000">/solve_test.cc</text>
</a>
</g>
</g>
<!-- Node92&#45;&gt;Node95 -->
<g id="edge3" class="edge">
<title>Node92&#45;&gt;Node95</title>
<path fill="none" stroke="#191970" d="M233.5087,-73.7834C255.3661,-62.6892 285.6528,-47.3164 307.9049,-36.0218"/>
<polygon fill="#191970" stroke="#191970" points="231.7453,-70.7534 224.4124,-78.4005 234.9136,-76.9954 231.7453,-70.7534"/>
</g>
</g>
</svg>
