<?xml version="1.0" encoding="UTF-8" standalone="no"?>
<!DOCTYPE svg PUBLIC "-//W3C//DTD SVG 1.1//EN"
 "http://www.w3.org/Graphics/SVG/1.1/DTD/svg11.dtd">
<!-- Generated by graphviz version 2.40.1 (20161225.0304)
 -->
<!-- Title: drake/solvers/solve.h Pages: 1 -->
<svg width="256pt" height="95pt"
 viewBox="0.00 0.00 255.50 95.00" xmlns="http://www.w3.org/2000/svg" xmlns:xlink="http://www.w3.org/1999/xlink">
<g id="graph0" class="graph" transform="scale(1 1) rotate(0) translate(4 91)">
<title>drake/solvers/solve.h</title>
<polygon fill="#ffffff" stroke="transparent" points="-4,4 -4,-91 251.5,-91 251.5,4 -4,4"/>
<!-- Node90 -->
<g id="node1" class="node">
<title>Node90</title>
<polygon fill="#bfbfbf" stroke="#000000" points="68,-67.5 68,-86.5 189,-86.5 189,-67.5 68,-67.5"/>
<text text-anchor="middle" x="128.5" y="-74.5" font-family="Helvetica,sans-Serif" font-size="10.00" fill="#000000">drake/solvers/solve.h</text>
</g>
<!-- Node91 -->
<g id="node2" class="node">
<title>Node91</title>
<g id="a_node2"><a xlink:href="solve_8cc.html" target="_top" xlink:title="drake/solvers/solve.cc">
<polygon fill="#ffffff" stroke="#000000" points="0,-6 0,-25 125,-25 125,-6 0,-6"/>
<text text-anchor="middle" x="62.5" y="-13" font-family="Helvetica,sans-Serif" font-size="10.00" fill="#000000">drake/solvers/solve.cc</text>
</a>
</g>
</g>
<!-- Node90&#45;&gt;Node91 -->
<g id="edge1" class="edge">
<title>Node90&#45;&gt;Node91</title>
<path fill="none" stroke="#191970" d="M110.8444,-60.5482C98.7515,-49.2798 83.1221,-34.716 72.9579,-25.2449"/>
<polygon fill="#191970" stroke="#191970" points="108.4853,-63.134 118.1875,-67.3906 113.2574,-58.0127 108.4853,-63.134"/>
</g>
<!-- Node92 -->
<g id="node3" class="node">
<title>Node92</title>
<g id="a_node3"><a xlink:href="solve__test_8cc.html" target="_top" xlink:title="drake/solvers/test\l/solve_test.cc">
<polygon fill="#ffffff" stroke="#000000" points="143.5,-.5 143.5,-30.5 247.5,-30.5 247.5,-.5 143.5,-.5"/>
<text text-anchor="start" x="151.5" y="-18.5" font-family="Helvetica,sans-Serif" font-size="10.00" fill="#000000">drake/solvers/test</text>
<text text-anchor="middle" x="195.5" y="-7.5" font-family="Helvetica,sans-Serif" font-size="10.00" fill="#000000">/solve_test.cc</text>
</a>
</g>
</g>
<!-- Node90&#45;&gt;Node92 -->
<g id="edge2" class="edge">
<title>Node90&#45;&gt;Node92</title>
<path fill="none" stroke="#191970" d="M146.4892,-60.4875C156.6412,-51.1689 169.2321,-39.6116 179.11,-30.5446"/>
<polygon fill="#191970" stroke="#191970" points="143.969,-58.0499 138.9688,-67.3906 148.7025,-63.2068 143.969,-58.0499"/>
</g>
</g>
</svg>
