<?xml version="1.0" encoding="UTF-8" standalone="no"?>
<!DOCTYPE svg PUBLIC "-//W3C//DTD SVG 1.1//EN"
 "http://www.w3.org/Graphics/SVG/1.1/DTD/svg11.dtd">
<!-- Generated by graphviz version 2.40.1 (20161225.0304)
 -->
<!-- Title: drake/solvers/solver_type_converter.h Pages: 1 -->
<svg width="652pt" height="117pt"
 viewBox="0.00 0.00 652.00 117.00" xmlns="http://www.w3.org/2000/svg" xmlns:xlink="http://www.w3.org/1999/xlink">
<g id="graph0" class="graph" transform="scale(1 1) rotate(0) translate(4 113)">
<title>drake/solvers/solver_type_converter.h</title>
<polygon fill="#ffffff" stroke="transparent" points="-4,4 -4,-113 648,-113 648,4 -4,4"/>
<!-- Node22 -->
<g id="node1" class="node">
<title>Node22</title>
<polygon fill="#bfbfbf" stroke="#000000" points="291,-78.5 291,-108.5 407,-108.5 407,-78.5 291,-78.5"/>
<text text-anchor="start" x="299" y="-96.5" font-family="Helvetica,sans-Serif" font-size="10.00" fill="#000000">drake/solvers/solver</text>
<text text-anchor="middle" x="349" y="-85.5" font-family="Helvetica,sans-Serif" font-size="10.00" fill="#000000">_type_converter.h</text>
</g>
<!-- Node23 -->
<g id="node2" class="node">
<title>Node23</title>
<g id="a_node2"><a xlink:href="mathematicalprogram__py_8cc.html" target="_top" xlink:title="drake/bindings/pydrake\l/solvers/mathematicalprogram_py.cc">
<polygon fill="#ffffff" stroke="#000000" points="0,-6 0,-36 198,-36 198,-6 0,-6"/>
<text text-anchor="start" x="8" y="-24" font-family="Helvetica,sans-Serif" font-size="10.00" fill="#000000">drake/bindings/pydrake</text>
<text text-anchor="middle" x="99" y="-13" font-family="Helvetica,sans-Serif" font-size="10.00" fill="#000000">/solvers/mathematicalprogram_py.cc</text>
</a>
</g>
</g>
<!-- Node22&#45;&gt;Node23 -->
<g id="edge1" class="edge">
<title>Node22&#45;&gt;Node23</title>
<path fill="none" stroke="#191970" d="M287.3675,-75.6266C245.3856,-63.4518 190.4386,-47.5172 150.7338,-36.0028"/>
<polygon fill="#191970" stroke="#191970" points="286.6207,-79.0541 297.1998,-78.478 288.5704,-72.3311 286.6207,-79.0541"/>
</g>
<!-- Node24 -->
<g id="node3" class="node">
<title>Node24</title>
<g id="a_node3"><a xlink:href="solver__type__converter_8cc.html" target="_top" xlink:title="drake/solvers/solver\l_type_converter.cc">
<polygon fill="#ffffff" stroke="#000000" points="216,-6 216,-36 332,-36 332,-6 216,-6"/>
<text text-anchor="start" x="224" y="-24" font-family="Helvetica,sans-Serif" font-size="10.00" fill="#000000">drake/solvers/solver</text>
<text text-anchor="middle" x="274" y="-13" font-family="Helvetica,sans-Serif" font-size="10.00" fill="#000000">_type_converter.cc</text>
</a>
</g>
</g>
<!-- Node22&#45;&gt;Node24 -->
<g id="edge2" class="edge">
<title>Node22&#45;&gt;Node24</title>
<path fill="none" stroke="#191970" d="M326.0668,-71.3313C314.2192,-59.8785 300.0746,-46.2054 289.5201,-36.0028"/>
<polygon fill="#191970" stroke="#191970" points="323.8375,-74.0442 333.46,-78.478 328.7026,-69.0112 323.8375,-74.0442"/>
</g>
<!-- Node25 -->
<g id="node4" class="node">
<title>Node25</title>
<g id="a_node4"><a xlink:href="optimization__examples_8cc.html" target="_top" xlink:title="drake/solvers/test\l/optimization_examples.cc">
<polygon fill="#ffffff" stroke="#000000" points="350,-6 350,-36 498,-36 498,-6 350,-6"/>
<text text-anchor="start" x="358" y="-24" font-family="Helvetica,sans-Serif" font-size="10.00" fill="#000000">drake/solvers/test</text>
<text text-anchor="middle" x="424" y="-13" font-family="Helvetica,sans-Serif" font-size="10.00" fill="#000000">/optimization_examples.cc</text>
</a>
</g>
</g>
<!-- Node22&#45;&gt;Node25 -->
<g id="edge3" class="edge">
<title>Node22&#45;&gt;Node25</title>
<path fill="none" stroke="#191970" d="M371.9332,-71.3313C383.7808,-59.8785 397.9254,-46.2054 408.4799,-36.0028"/>
<polygon fill="#191970" stroke="#191970" points="369.2974,-69.0112 364.54,-78.478 374.1625,-74.0442 369.2974,-69.0112"/>
</g>
<!-- Node26 -->
<g id="node5" class="node">
<title>Node26</title>
<g id="a_node5"><a xlink:href="solver__type__converter__test_8cc.html" target="_top" xlink:title="drake/solvers/test\l/solver_type_converter\l_test.cc">
<polygon fill="#ffffff" stroke="#000000" points="516,-.5 516,-41.5 644,-41.5 644,-.5 516,-.5"/>
<text text-anchor="start" x="524" y="-29.5" font-family="Helvetica,sans-Serif" font-size="10.00" fill="#000000">drake/solvers/test</text>
<text text-anchor="start" x="524" y="-18.5" font-family="Helvetica,sans-Serif" font-size="10.00" fill="#000000">/solver_type_converter</text>
<text text-anchor="middle" x="580" y="-7.5" font-family="Helvetica,sans-Serif" font-size="10.00" fill="#000000">_test.cc</text>
</a>
</g>
</g>
<!-- Node22&#45;&gt;Node26 -->
<g id="edge4" class="edge">
<title>Node22&#45;&gt;Node26</title>
<path fill="none" stroke="#191970" d="M406.4451,-75.4707C439.7108,-65.0302 481.6593,-51.8645 515.9819,-41.0922"/>
<polygon fill="#191970" stroke="#191970" points="405.3564,-72.144 396.8633,-78.478 407.4526,-78.8228 405.3564,-72.144"/>
</g>
</g>
</svg>
