<?xml version="1.0" encoding="UTF-8" standalone="no"?>
<!DOCTYPE svg PUBLIC "-//W3C//DTD SVG 1.1//EN"
 "http://www.w3.org/Graphics/SVG/1.1/DTD/svg11.dtd">
<!-- Generated by graphviz version 2.40.1 (20161225.0304)
 -->
<!-- Title: drake/common/sorted_pair.h Pages: 1 -->
<svg width="296pt" height="106pt"
 viewBox="0.00 0.00 296.00 106.00" xmlns="http://www.w3.org/2000/svg" xmlns:xlink="http://www.w3.org/1999/xlink">
<g id="graph0" class="graph" transform="scale(1 1) rotate(0) translate(4 102)">
<title>drake/common/sorted_pair.h</title>
<polygon fill="#ffffff" stroke="transparent" points="-4,4 -4,-102 292,-102 292,4 -4,4"/>
<!-- Node21 -->
<g id="node1" class="node">
<title>Node21</title>
<polygon fill="#bfbfbf" stroke="#000000" points="76,-67.5 76,-97.5 200,-97.5 200,-67.5 76,-67.5"/>
<text text-anchor="start" x="84" y="-85.5" font-family="Helvetica,sans-Serif" font-size="10.00" fill="#000000">drake/common/sorted</text>
<text text-anchor="middle" x="138" y="-74.5" font-family="Helvetica,sans-Serif" font-size="10.00" fill="#000000">_pair.h</text>
</g>
<!-- Node22 -->
<g id="node2" class="node">
<title>Node22</title>
<g id="a_node2"><a xlink:href="sorted__pair_8cc.html" target="_top" xlink:title="drake/common/sorted\l_pair.cc">
<polygon fill="#ffffff" stroke="#000000" points="0,-.5 0,-30.5 124,-30.5 124,-.5 0,-.5"/>
<text text-anchor="start" x="8" y="-18.5" font-family="Helvetica,sans-Serif" font-size="10.00" fill="#000000">drake/common/sorted</text>
<text text-anchor="middle" x="62" y="-7.5" font-family="Helvetica,sans-Serif" font-size="10.00" fill="#000000">_pair.cc</text>
</a>
</g>
</g>
<!-- Node21&#45;&gt;Node22 -->
<g id="edge1" class="edge">
<title>Node21&#45;&gt;Node22</title>
<path fill="none" stroke="#191970" d="M113.0408,-60.4965C101.9503,-50.7193 89.1733,-39.4554 79.1773,-30.6432"/>
<polygon fill="#191970" stroke="#191970" points="110.9386,-63.3091 120.7544,-67.2967 115.5677,-58.0582 110.9386,-63.3091"/>
</g>
<!-- Node23 -->
<g id="node3" class="node">
<title>Node23</title>
<g id="a_node3"><a xlink:href="sorted__pair__test_8cc.html" target="_top" xlink:title="drake/common/test/sorted\l_pair_test.cc">
<polygon fill="#ffffff" stroke="#000000" points="142,-.5 142,-30.5 288,-30.5 288,-.5 142,-.5"/>
<text text-anchor="start" x="150" y="-18.5" font-family="Helvetica,sans-Serif" font-size="10.00" fill="#000000">drake/common/test/sorted</text>
<text text-anchor="middle" x="215" y="-7.5" font-family="Helvetica,sans-Serif" font-size="10.00" fill="#000000">_pair_test.cc</text>
</a>
</g>
</g>
<!-- Node21&#45;&gt;Node23 -->
<g id="edge2" class="edge">
<title>Node21&#45;&gt;Node23</title>
<path fill="none" stroke="#191970" d="M163.2876,-60.4965C174.524,-50.7193 187.4692,-39.4554 197.5967,-30.6432"/>
<polygon fill="#191970" stroke="#191970" points="160.719,-58.092 155.4725,-67.2967 165.3139,-63.3728 160.719,-58.092"/>
</g>
</g>
</svg>
