<?xml version="1.0" encoding="UTF-8" standalone="no"?>
<!DOCTYPE svg PUBLIC "-//W3C//DTD SVG 1.1//EN"
 "http://www.w3.org/Graphics/SVG/1.1/DTD/svg11.dtd">
<!-- Generated by graphviz version 2.40.1 (20161225.0304)
 -->
<!-- Title: drake/common/sorted_vectors_have_intersection.h Pages: 1 -->
<svg width="462pt" height="117pt"
 viewBox="0.00 0.00 461.50 117.00" xmlns="http://www.w3.org/2000/svg" xmlns:xlink="http://www.w3.org/1999/xlink">
<g id="graph0" class="graph" transform="scale(1 1) rotate(0) translate(4 113)">
<title>drake/common/sorted_vectors_have_intersection.h</title>
<polygon fill="#ffffff" stroke="transparent" points="-4,4 -4,-113 457.5,-113 457.5,4 -4,4"/>
<!-- Node5 -->
<g id="node1" class="node">
<title>Node5</title>
<polygon fill="#bfbfbf" stroke="#000000" points="135.5,-78.5 135.5,-108.5 294.5,-108.5 294.5,-78.5 135.5,-78.5"/>
<text text-anchor="start" x="143.5" y="-96.5" font-family="Helvetica,sans-Serif" font-size="10.00" fill="#000000">drake/common/sorted</text>
<text text-anchor="middle" x="215" y="-85.5" font-family="Helvetica,sans-Serif" font-size="10.00" fill="#000000">_vectors_have_intersection.h</text>
</g>
<!-- Node6 -->
<g id="node2" class="node">
<title>Node6</title>
<g id="a_node2"><a xlink:href="collision_2element_8cc.html" target="_top" xlink:title="drake/attic/multibody\l/collision/element.cc">
<polygon fill="#ffffff" stroke="#000000" points="0,-6 0,-36 122,-36 122,-6 0,-6"/>
<text text-anchor="start" x="8" y="-24" font-family="Helvetica,sans-Serif" font-size="10.00" fill="#000000">drake/attic/multibody</text>
<text text-anchor="middle" x="61" y="-13" font-family="Helvetica,sans-Serif" font-size="10.00" fill="#000000">/collision/element.cc</text>
</a>
</g>
</g>
<!-- Node5&#45;&gt;Node6 -->
<g id="edge1" class="edge">
<title>Node5&#45;&gt;Node6</title>
<path fill="none" stroke="#191970" d="M173.7195,-74.066C148.3339,-62.115 116.2942,-47.0313 92.868,-36.0028"/>
<polygon fill="#191970" stroke="#191970" points="172.5528,-77.3851 183.0911,-78.478 175.5344,-71.0519 172.5528,-77.3851"/>
</g>
<!-- Node7 -->
<g id="node3" class="node">
<title>Node7</title>
<g id="a_node3"><a xlink:href="sorted__vectors__have__intersection__test_8cc.html" target="_top" xlink:title="drake/common/test/sorted\l_vectors_have_intersection\l_test.cc">
<polygon fill="#ffffff" stroke="#000000" points="140,-.5 140,-41.5 290,-41.5 290,-.5 140,-.5"/>
<text text-anchor="start" x="148" y="-29.5" font-family="Helvetica,sans-Serif" font-size="10.00" fill="#000000">drake/common/test/sorted</text>
<text text-anchor="start" x="148" y="-18.5" font-family="Helvetica,sans-Serif" font-size="10.00" fill="#000000">_vectors_have_intersection</text>
<text text-anchor="middle" x="215" y="-7.5" font-family="Helvetica,sans-Serif" font-size="10.00" fill="#000000">_test.cc</text>
</a>
</g>
</g>
<!-- Node5&#45;&gt;Node7 -->
<g id="edge2" class="edge">
<title>Node5&#45;&gt;Node7</title>
<path fill="none" stroke="#191970" d="M215,-68.4016C215,-59.6173 215,-49.8652 215,-41.5015"/>
<polygon fill="#191970" stroke="#191970" points="211.5001,-68.4779 215,-78.478 218.5001,-68.478 211.5001,-68.4779"/>
</g>
<!-- Node8 -->
<g id="node4" class="node">
<title>Node8</title>
<g id="a_node4"><a xlink:href="proximity__engine_8cc.html" target="_top" xlink:title="drake/geometry/proximity\l_engine.cc">
<polygon fill="#ffffff" stroke="#000000" points="308.5,-6 308.5,-36 453.5,-36 453.5,-6 308.5,-6"/>
<text text-anchor="start" x="316.5" y="-24" font-family="Helvetica,sans-Serif" font-size="10.00" fill="#000000">drake/geometry/proximity</text>
<text text-anchor="middle" x="381" y="-13" font-family="Helvetica,sans-Serif" font-size="10.00" fill="#000000">_engine.cc</text>
</a>
</g>
</g>
<!-- Node5&#45;&gt;Node8 -->
<g id="edge3" class="edge">
<title>Node5&#45;&gt;Node8</title>
<path fill="none" stroke="#191970" d="M258.7756,-74.3811C286.2515,-62.3811 321.1747,-47.1285 346.6488,-36.0028"/>
<polygon fill="#191970" stroke="#191970" points="257.1586,-71.2681 249.3953,-78.478 259.9603,-77.6829 257.1586,-71.2681"/>
</g>
</g>
</svg>
