<?xml version="1.0" encoding="UTF-8" standalone="no"?>
<!DOCTYPE svg PUBLIC "-//W3C//DTD SVG 1.1//EN"
 "http://www.w3.org/Graphics/SVG/1.1/DTD/svg11.dtd">
<!-- Generated by graphviz version 2.40.1 (20161225.0304)
 -->
<!-- Title: drake/multibody/test_utilities/spatial_kinematics.h Pages: 1 -->
<!--zoomable 374 -->
<svg id="main" version="1.1" xmlns="http://www.w3.org/2000/svg" xmlns:xlink="http://www.w3.org/1999/xlink" xml:space="preserve" onload="init(evt)">
<style type="text/css"><![CDATA[
.edge:hover path { stroke: red; }
.edge:hover polygon { stroke: red; fill: red; }
]]></style>
<script type="text/javascript"><![CDATA[
var edges = document.getElementsByTagName('g');
if (edges && edges.length) {
  for (var i=0;i<edges.length;i++) {
    if (edges[i].id.substr(0,4)=='edge') {
      edges[i].setAttribute('class','edge');
    }
  }
}
]]></script>
        <defs>
                <circle id="rim" cx="0" cy="0" r="7"/>
                <circle id="rim2" cx="0" cy="0" r="3.5"/>
                <g id="zoomPlus">
                        <use xlink:href="#rim" fill="#404040">
                                <set attributeName="fill" to="#808080" begin="zoomplus.mouseover" end="zoomplus.mouseout"/>
                        </use>
                        <path d="M-4,0h8M0,-4v8" fill="none" stroke="white" stroke-width="1.5" pointer-events="none"/>
                </g>
                <g id="zoomMin">
                        <use xlink:href="#rim" fill="#404040">
                                <set attributeName="fill" to="#808080" begin="zoomminus.mouseover" end="zoomminus.mouseout"/>
                        </use>
                        <path d="M-4,0h8" fill="none" stroke="white" stroke-width="1.5" pointer-events="none"/>
                </g>
                <g id="dirArrow">
                        <path fill="none" stroke="white" stroke-width="1.5" d="M0,-3.0v7 M-2.5,-0.5L0,-3.0L2.5,-0.5"/>
                </g>
               <g id="resetDef">
                       <use xlink:href="#rim2" fill="#404040">
                               <set attributeName="fill" to="#808080" begin="reset.mouseover" end="reset.mouseout"/>
                       </use>
               </g>
        </defs>

<script type="text/javascript">
var viewWidth = 589;
var viewHeight = 374;
var sectionId = 'dynsection-0';
</script>
<script xlink:href="svgpan.js"/>
<svg id="graph" class="graph">
<g id="viewport">
<title>drake/multibody/test_utilities/spatial_kinematics.h</title>
<polygon fill="#ffffff" stroke="transparent" points="-4,4 -4,-370 585,-370 585,4 -4,4"/>
<!-- Node0 -->
<g id="node1" class="node">
<title>Node0</title>
<polygon fill="#bfbfbf" stroke="#000000" points="195,-335.5 195,-365.5 358,-365.5 358,-335.5 195,-335.5"/>
<text text-anchor="start" x="203" y="-353.5" font-family="Helvetica,sans-Serif" font-size="10.00" fill="#000000">drake/multibody/test</text>
<text text-anchor="middle" x="276.5" y="-342.5" font-family="Helvetica,sans-Serif" font-size="10.00" fill="#000000">_utilities/spatial_kinematics.h</text>
</g>
<!-- Node1 -->
<g id="node2" class="node">
<title>Node1</title>
<g id="a_node2"><a xlink:href="eigen__types_8h.html" target="_top" xlink:title="This file contains abbreviated definitions for certain specializations of Eigen::Matrix that are comm...">
<polygon fill="#ffffff" stroke="#000000" points="351.5,-67.5 351.5,-97.5 471.5,-97.5 471.5,-67.5 351.5,-67.5"/>
<text text-anchor="start" x="359.5" y="-85.5" font-family="Helvetica,sans-Serif" font-size="10.00" fill="#000000">drake/common/eigen</text>
<text text-anchor="middle" x="411.5" y="-74.5" font-family="Helvetica,sans-Serif" font-size="10.00" fill="#000000">_types.h</text>
</a>
</g>
</g>
<!-- Node0&#45;&gt;Node1 -->
<g id="edge1" class="edge">
<title>Node0&#45;&gt;Node1</title>
<path fill="none" stroke="#191970" d="M313.9793,-335.4581C371.2771,-310.1317 478.5231,-252.9619 521.5,-165 527.5483,-152.6208 528.8939,-145.6258 521.5,-134 512.0404,-119.1262 497.0297,-108.4748 481.1018,-100.8743"/>
<polygon fill="#191970" stroke="#191970" points="482.2173,-97.5421 471.6527,-96.7428 479.413,-103.9559 482.2173,-97.5421"/>
</g>
<!-- Node6 -->
<g id="node7" class="node">
<title>Node6</title>
<g id="a_node7"><a xlink:href="spatial__acceleration_8h.html" target="_top" xlink:title="drake/multibody/math\l/spatial_acceleration.h">
<polygon fill="#ffffff" stroke="#000000" points="213,-268.5 213,-298.5 340,-298.5 340,-268.5 213,-268.5"/>
<text text-anchor="start" x="221" y="-286.5" font-family="Helvetica,sans-Serif" font-size="10.00" fill="#000000">drake/multibody/math</text>
<text text-anchor="middle" x="276.5" y="-275.5" font-family="Helvetica,sans-Serif" font-size="10.00" fill="#000000">/spatial_acceleration.h</text>
</a>
</g>
</g>
<!-- Node0&#45;&gt;Node6 -->
<g id="edge6" class="edge">
<title>Node0&#45;&gt;Node6</title>
<path fill="none" stroke="#191970" d="M276.5,-335.2967C276.5,-327.5013 276.5,-317.7991 276.5,-308.9064"/>
<polygon fill="#191970" stroke="#191970" points="280.0001,-308.6431 276.5,-298.6432 273.0001,-308.6432 280.0001,-308.6431"/>
</g>
<!-- Node13 -->
<g id="node14" class="node">
<title>Node13</title>
<g id="a_node14"><a xlink:href="spatial__velocity_8h.html" target="_top" xlink:title="drake/multibody/math\l/spatial_velocity.h">
<polygon fill="#ffffff" stroke="#000000" points="122,-201.5 122,-231.5 247,-231.5 247,-201.5 122,-201.5"/>
<text text-anchor="start" x="130" y="-219.5" font-family="Helvetica,sans-Serif" font-size="10.00" fill="#000000">drake/multibody/math</text>
<text text-anchor="middle" x="184.5" y="-208.5" font-family="Helvetica,sans-Serif" font-size="10.00" fill="#000000">/spatial_velocity.h</text>
</a>
</g>
</g>
<!-- Node0&#45;&gt;Node13 -->
<g id="edge27" class="edge">
<title>Node0&#45;&gt;Node13</title>
<path fill="none" stroke="#191970" d="M246.231,-335.4976C231.5598,-326.7601 214.9056,-314.412 204.5,-299 193.0267,-282.0066 188.117,-259.1176 186.0254,-241.7599"/>
<polygon fill="#191970" stroke="#191970" points="189.5054,-241.3834 185.0537,-231.7692 182.5382,-242.0611 189.5054,-241.3834"/>
</g>
<!-- Node2 -->
<g id="node3" class="node">
<title>Node2</title>
<polygon fill="#ffffff" stroke="#bfbfbf" points="261.5,-6 261.5,-25 319.5,-25 319.5,-6 261.5,-6"/>
<text text-anchor="middle" x="290.5" y="-13" font-family="Helvetica,sans-Serif" font-size="10.00" fill="#000000">memory</text>
</g>
<!-- Node1&#45;&gt;Node2 -->
<g id="edge2" class="edge">
<title>Node1&#45;&gt;Node2</title>
<path fill="none" stroke="#191970" d="M384.3452,-67.4639C364.1344,-56.2728 336.7036,-41.0838 316.7201,-30.0186"/>
<polygon fill="#191970" stroke="#191970" points="318.2883,-26.8862 307.8444,-25.1039 314.8973,-33.0101 318.2883,-26.8862"/>
</g>
<!-- Node3 -->
<g id="node4" class="node">
<title>Node3</title>
<polygon fill="#ffffff" stroke="#bfbfbf" points="504,-6 504,-25 581,-25 581,-6 504,-6"/>
<text text-anchor="middle" x="542.5" y="-13" font-family="Helvetica,sans-Serif" font-size="10.00" fill="#000000">Eigen/Dense</text>
</g>
<!-- Node1&#45;&gt;Node3 -->
<g id="edge3" class="edge">
<title>Node1&#45;&gt;Node3</title>
<path fill="none" stroke="#191970" d="M440.899,-67.4639C462.9781,-56.1715 493.0161,-40.8086 514.6983,-29.7192"/>
<polygon fill="#191970" stroke="#191970" points="516.4128,-32.7736 523.7222,-25.1039 513.2253,-26.5414 516.4128,-32.7736"/>
</g>
<!-- Node4 -->
<g id="node5" class="node">
<title>Node4</title>
<g id="a_node5"><a xlink:href="constants_8h.html" target="_top" xlink:title="drake/common/constants.h">
<polygon fill="#ffffff" stroke="#000000" points="337,-6 337,-25 486,-25 486,-6 337,-6"/>
<text text-anchor="middle" x="411.5" y="-13" font-family="Helvetica,sans-Serif" font-size="10.00" fill="#000000">drake/common/constants.h</text>
</a>
</g>
</g>
<!-- Node1&#45;&gt;Node4 -->
<g id="edge4" class="edge">
<title>Node1&#45;&gt;Node4</title>
<path fill="none" stroke="#191970" d="M411.5,-67.2967C411.5,-57.7699 411.5,-45.3954 411.5,-35.1306"/>
<polygon fill="#191970" stroke="#191970" points="415.0001,-35.0549 411.5,-25.055 408.0001,-35.055 415.0001,-35.0549"/>
</g>
<!-- Node5 -->
<g id="node6" class="node">
<title>Node5</title>
<g id="a_node6"><a xlink:href="drake__copyable_8h.html" target="_top" xlink:title="Provides careful macros to selectively enable or disable the special member functions for copy&#45;constr...">
<polygon fill="#ffffff" stroke="#000000" points="0,-.5 0,-30.5 121,-30.5 121,-.5 0,-.5"/>
<text text-anchor="start" x="8" y="-18.5" font-family="Helvetica,sans-Serif" font-size="10.00" fill="#000000">drake/common/drake</text>
<text text-anchor="middle" x="60.5" y="-7.5" font-family="Helvetica,sans-Serif" font-size="10.00" fill="#000000">_copyable.h</text>
</a>
</g>
</g>
<!-- Node1&#45;&gt;Node5 -->
<g id="edge5" class="edge">
<title>Node1&#45;&gt;Node5</title>
<path fill="none" stroke="#191970" d="M351.3199,-68.8312C348.3399,-68.2015 345.3874,-67.5877 342.5,-67 270.7309,-52.3918 188.2854,-37.56 131.1554,-27.5892"/>
<polygon fill="#191970" stroke="#191970" points="131.5986,-24.1138 121.1465,-25.8469 130.3981,-31.0101 131.5986,-24.1138"/>
</g>
<!-- Node6&#45;&gt;Node1 -->
<g id="edge11" class="edge">
<title>Node6&#45;&gt;Node1</title>
<path fill="none" stroke="#191970" d="M286.6469,-268.3923C310.0123,-233.6038 367.7514,-147.6368 395.7597,-105.9356"/>
<polygon fill="#191970" stroke="#191970" points="398.7494,-107.7617 401.4195,-97.5088 392.9384,-103.8587 398.7494,-107.7617"/>
</g>
<!-- Node6&#45;&gt;Node5 -->
<g id="edge10" class="edge">
<title>Node6&#45;&gt;Node5</title>
<path fill="none" stroke="#191970" d="M212.9779,-273.1393C164.3083,-264.0242 102.3912,-249.4973 83.5,-232 27.5585,-180.1862 20.0052,-141.4449 36.5,-67 38.5775,-57.6237 42.5461,-47.9305 46.6669,-39.5175"/>
<polygon fill="#191970" stroke="#191970" points="49.7715,-41.1334 51.2913,-30.6481 43.5645,-37.8971 49.7715,-41.1334"/>
</g>
<!-- Node7 -->
<g id="node8" class="node">
<title>Node7</title>
<polygon fill="#ffffff" stroke="#bfbfbf" points="52.5,-73 52.5,-92 96.5,-92 96.5,-73 52.5,-73"/>
<text text-anchor="middle" x="74.5" y="-80" font-family="Helvetica,sans-Serif" font-size="10.00" fill="#000000">limits</text>
</g>
<!-- Node6&#45;&gt;Node7 -->
<g id="edge7" class="edge">
<title>Node6&#45;&gt;Node7</title>
<path fill="none" stroke="#191970" d="M212.6981,-274.8822C180.1598,-267.8146 141.6279,-255.0326 113.5,-232 87.1812,-210.4488 85.3896,-197.8346 76.5,-165 70.9026,-144.3253 71.1607,-119.6624 72.3442,-102.7202"/>
<polygon fill="#191970" stroke="#191970" points="75.8649,-102.6357 73.2508,-92.3684 68.8916,-102.0249 75.8649,-102.6357"/>
</g>
<!-- Node8 -->
<g id="node9" class="node">
<title>Node8</title>
<g id="a_node9"><a xlink:href="drake__assert_8h.html" target="_top" xlink:title="Provides Drake&#39;s assertion implementation. ">
<polygon fill="#ffffff" stroke="#000000" points="212,-67.5 212,-97.5 333,-97.5 333,-67.5 212,-67.5"/>
<text text-anchor="start" x="220" y="-85.5" font-family="Helvetica,sans-Serif" font-size="10.00" fill="#000000">drake/common/drake</text>
<text text-anchor="middle" x="272.5" y="-74.5" font-family="Helvetica,sans-Serif" font-size="10.00" fill="#000000">_assert.h</text>
</a>
</g>
</g>
<!-- Node6&#45;&gt;Node8 -->
<g id="edge8" class="edge">
<title>Node6&#45;&gt;Node8</title>
<path fill="none" stroke="#191970" d="M276.6535,-268.2933C276.7848,-251.7388 276.8963,-224.4862 276.5,-201 275.9579,-168.8732 274.5898,-131.8681 273.6045,-107.8778"/>
<polygon fill="#191970" stroke="#191970" points="277.0993,-107.6798 273.183,-97.8354 270.1055,-107.9734 277.0993,-107.6798"/>
</g>
<!-- Node10 -->
<g id="node11" class="node">
<title>Node10</title>
<g id="a_node11"><a xlink:href="convert__time__derivative_8h.html" target="_top" xlink:title="drake/math/convert\l_time_derivative.h">
<polygon fill="#ffffff" stroke="#000000" points="399,-134.5 399,-164.5 512,-164.5 512,-134.5 399,-134.5"/>
<text text-anchor="start" x="407" y="-152.5" font-family="Helvetica,sans-Serif" font-size="10.00" fill="#000000">drake/math/convert</text>
<text text-anchor="middle" x="455.5" y="-141.5" font-family="Helvetica,sans-Serif" font-size="10.00" fill="#000000">_time_derivative.h</text>
</a>
</g>
</g>
<!-- Node6&#45;&gt;Node10 -->
<g id="edge12" class="edge">
<title>Node6&#45;&gt;Node10</title>
<path fill="none" stroke="#191970" d="M318.0038,-268.4816C339.1013,-259.7046 364.4471,-247.3257 384.5,-232 406.4344,-215.2363 426.4567,-190.7378 439.6058,-172.7923"/>
<polygon fill="#191970" stroke="#191970" points="442.515,-174.7411 445.4869,-164.5716 436.8219,-170.6682 442.515,-174.7411"/>
</g>
<!-- Node11 -->
<g id="node12" class="node">
<title>Node11</title>
<g id="a_node12"><a xlink:href="spatial__vector_8h.html" target="_top" xlink:title="drake/multibody/math\l/spatial_vector.h">
<polygon fill="#ffffff" stroke="#000000" points="103,-134.5 103,-164.5 228,-164.5 228,-134.5 103,-134.5"/>
<text text-anchor="start" x="111" y="-152.5" font-family="Helvetica,sans-Serif" font-size="10.00" fill="#000000">drake/multibody/math</text>
<text text-anchor="middle" x="165.5" y="-141.5" font-family="Helvetica,sans-Serif" font-size="10.00" fill="#000000">/spatial_vector.h</text>
</a>
</g>
</g>
<!-- Node6&#45;&gt;Node11 -->
<g id="edge15" class="edge">
<title>Node6&#45;&gt;Node11</title>
<path fill="none" stroke="#191970" d="M276.3411,-268.2781C275.4183,-250.4633 271.5101,-220.8758 256.5,-201 246.3531,-187.5639 231.6137,-177.1037 216.9414,-169.2265"/>
<polygon fill="#191970" stroke="#191970" points="218.362,-166.0232 207.8562,-164.6522 215.214,-172.2755 218.362,-166.0232"/>
</g>
<!-- Node6&#45;&gt;Node13 -->
<g id="edge21" class="edge">
<title>Node6&#45;&gt;Node13</title>
<path fill="none" stroke="#191970" d="M255.6238,-268.2967C243.1552,-259.2163 227.1342,-247.5488 213.4553,-237.587"/>
<polygon fill="#191970" stroke="#191970" points="215.4376,-234.7009 205.2936,-231.6432 211.3167,-240.3594 215.4376,-234.7009"/>
</g>
<!-- Node9 -->
<g id="node10" class="node">
<title>Node9</title>
<polygon fill="#ffffff" stroke="#bfbfbf" points="174,-6 174,-25 243,-25 243,-6 174,-6"/>
<text text-anchor="middle" x="208.5" y="-13" font-family="Helvetica,sans-Serif" font-size="10.00" fill="#000000">type_traits</text>
</g>
<!-- Node8&#45;&gt;Node9 -->
<g id="edge9" class="edge">
<title>Node8&#45;&gt;Node9</title>
<path fill="none" stroke="#191970" d="M257.9774,-67.2967C248.1027,-56.9591 235.0251,-43.2684 224.7949,-32.5588"/>
<polygon fill="#191970" stroke="#191970" points="227.0654,-29.8685 217.6271,-25.055 222.0036,-34.7037 227.0654,-29.8685"/>
</g>
<!-- Node10&#45;&gt;Node1 -->
<g id="edge14" class="edge">
<title>Node10&#45;&gt;Node1</title>
<path fill="none" stroke="#191970" d="M445.5157,-134.2967C440.0588,-125.9873 433.1792,-115.5115 427.0371,-106.1587"/>
<polygon fill="#191970" stroke="#191970" points="429.8596,-104.0806 421.4448,-97.6432 424.0086,-107.9231 429.8596,-104.0806"/>
</g>
<!-- Node10&#45;&gt;Node3 -->
<g id="edge13" class="edge">
<title>Node10&#45;&gt;Node3</title>
<path fill="none" stroke="#191970" d="M465.3109,-134.389C481.4502,-109.5307 513.5314,-60.1184 530.8175,-33.4937"/>
<polygon fill="#191970" stroke="#191970" points="533.7545,-35.3974 536.2645,-25.1042 527.8834,-31.5855 533.7545,-35.3974"/>
</g>
<!-- Node11&#45;&gt;Node1 -->
<g id="edge20" class="edge">
<title>Node11&#45;&gt;Node1</title>
<path fill="none" stroke="#191970" d="M220.7072,-134.4639C257.9257,-124.3272 307.1873,-110.9104 346.3316,-100.2491"/>
<polygon fill="#191970" stroke="#191970" points="347.3232,-103.6066 356.052,-97.6017 345.4837,-96.8526 347.3232,-103.6066"/>
</g>
<!-- Node11&#45;&gt;Node5 -->
<g id="edge19" class="edge">
<title>Node11&#45;&gt;Node5</title>
<path fill="none" stroke="#191970" d="M155.0544,-134.2963C143.3826,-117.5112 123.7257,-89.8417 105.5,-67 97.7891,-57.3362 88.9062,-47.0137 81.0804,-38.1671"/>
<polygon fill="#191970" stroke="#191970" points="83.5244,-35.6492 74.2545,-30.5189 78.3018,-40.3102 83.5244,-35.6492"/>
</g>
<!-- Node11&#45;&gt;Node7 -->
<g id="edge16" class="edge">
<title>Node11&#45;&gt;Node7</title>
<path fill="none" stroke="#191970" d="M144.8507,-134.2967C130.1219,-123.4524 110.3814,-108.9182 95.5604,-98.006"/>
<polygon fill="#191970" stroke="#191970" points="97.6056,-95.1655 87.4776,-92.055 93.4553,-100.8025 97.6056,-95.1655"/>
</g>
<!-- Node11&#45;&gt;Node8 -->
<g id="edge18" class="edge">
<title>Node11&#45;&gt;Node8</title>
<path fill="none" stroke="#191970" d="M189.5129,-134.4639C204.2775,-125.2188 223.3995,-113.2452 239.5661,-103.1222"/>
<polygon fill="#191970" stroke="#191970" points="241.579,-105.9913 248.197,-97.7177 237.864,-100.0584 241.579,-105.9913"/>
</g>
<!-- Node12 -->
<g id="node13" class="node">
<title>Node12</title>
<polygon fill="#ffffff" stroke="#bfbfbf" points="153,-73 153,-92 194,-92 194,-73 153,-73"/>
<text text-anchor="middle" x="173.5" y="-80" font-family="Helvetica,sans-Serif" font-size="10.00" fill="#000000">tuple</text>
</g>
<!-- Node11&#45;&gt;Node12 -->
<g id="edge17" class="edge">
<title>Node11&#45;&gt;Node12</title>
<path fill="none" stroke="#191970" d="M167.3153,-134.2967C168.4528,-124.7699 169.9304,-112.3954 171.156,-102.1306"/>
<polygon fill="#191970" stroke="#191970" points="174.6487,-102.3994 172.3591,-92.055 167.6981,-101.5694 174.6487,-102.3994"/>
</g>
<!-- Node13&#45;&gt;Node1 -->
<g id="edge25" class="edge">
<title>Node13&#45;&gt;Node1</title>
<path fill="none" stroke="#191970" d="M210.0985,-201.389C251.0795,-177.1976 331.4543,-129.7517 377.3067,-102.6846"/>
<polygon fill="#191970" stroke="#191970" points="379.1627,-105.6533 385.995,-97.5558 375.6043,-99.6253 379.1627,-105.6533"/>
</g>
<!-- Node13&#45;&gt;Node5 -->
<g id="edge24" class="edge">
<title>Node13&#45;&gt;Node5</title>
<path fill="none" stroke="#191970" d="M136.1423,-201.4632C115.7965,-193.247 93.0553,-181.3463 76.5,-165 43.7966,-132.7094 36.2044,-112.3759 43.5,-67 44.9451,-58.0118 47.7236,-48.4668 50.6222,-40.0676"/>
<polygon fill="#191970" stroke="#191970" points="53.972,-41.0988 54.1358,-30.5053 47.4015,-38.6845 53.972,-41.0988"/>
</g>
<!-- Node13&#45;&gt;Node7 -->
<g id="edge22" class="edge">
<title>Node13&#45;&gt;Node7</title>
<path fill="none" stroke="#191970" d="M143.0658,-201.4674C125.6886,-193.2025 106.7209,-181.2625 94.5,-165 80.7808,-146.7436 76.3422,-120.3623 74.9758,-102.3805"/>
<polygon fill="#191970" stroke="#191970" points="78.4607,-101.9925 74.4605,-92.1819 71.4697,-102.3458 78.4607,-101.9925"/>
</g>
<!-- Node13&#45;&gt;Node8 -->
<g id="edge23" class="edge">
<title>Node13&#45;&gt;Node8</title>
<path fill="none" stroke="#191970" d="M203.5299,-201.3543C214.5556,-191.8265 228.0757,-178.7611 237.5,-165 249.6581,-147.2472 258.8945,-124.5985 264.8176,-107.5247"/>
<polygon fill="#191970" stroke="#191970" points="268.2475,-108.3012 268.074,-97.7078 261.6035,-106.0973 268.2475,-108.3012"/>
</g>
<!-- Node13&#45;&gt;Node11 -->
<g id="edge26" class="edge">
<title>Node13&#45;&gt;Node11</title>
<path fill="none" stroke="#191970" d="M180.1886,-201.2967C177.9294,-193.3299 175.1054,-183.3718 172.5389,-174.3213"/>
<polygon fill="#191970" stroke="#191970" points="175.8899,-173.3089 169.7943,-164.6432 169.1554,-175.2187 175.8899,-173.3089"/>
</g>
</g>
</svg>
        <g id="navigator" transform="translate(0 0)" fill="#404254">
                <rect fill="#f2f5e9" fill-opacity="0.5" stroke="#606060" stroke-width=".5" x="0" y="0" width="60" height="60"/>
                <use id="zoomplus" xlink:href="#zoomPlus" x="17" y="9" onmousedown="handleZoom(evt,'in')"/>
                <use id="zoomminus" xlink:href="#zoomMin" x="42" y="9" onmousedown="handleZoom(evt,'out')"/>
                <use id="reset" xlink:href="#resetDef" x="30" y="36" onmousedown="handleReset()"/>
                <g id="arrowUp" xlink:href="#dirArrow" transform="translate(30 24)" onmousedown="handlePan(0,-1)">
                  <use xlink:href="#rim" fill="#404040">
                        <set attributeName="fill" to="#808080" begin="arrowUp.mouseover" end="arrowUp.mouseout"/>
                  </use>
                  <path fill="none" stroke="white" stroke-width="1.5" d="M0,-3.0v7 M-2.5,-0.5L0,-3.0L2.5,-0.5"/>
                </g>
                <g id="arrowRight" xlink:href="#dirArrow" transform="rotate(90) translate(36 -43)" onmousedown="handlePan(1,0)">
                  <use xlink:href="#rim" fill="#404040">
                        <set attributeName="fill" to="#808080" begin="arrowRight.mouseover" end="arrowRight.mouseout"/>
                  </use>
                  <path fill="none" stroke="white" stroke-width="1.5" d="M0,-3.0v7 M-2.5,-0.5L0,-3.0L2.5,-0.5"/>
                </g>
                <g id="arrowDown" xlink:href="#dirArrow" transform="rotate(180) translate(-30 -48)" onmousedown="handlePan(0,1)">
                  <use xlink:href="#rim" fill="#404040">
                        <set attributeName="fill" to="#808080" begin="arrowDown.mouseover" end="arrowDown.mouseout"/>
                  </use>
                  <path fill="none" stroke="white" stroke-width="1.5" d="M0,-3.0v7 M-2.5,-0.5L0,-3.0L2.5,-0.5"/>
                </g>
                <g id="arrowLeft" xlink:href="#dirArrow" transform="rotate(270) translate(-36 17)" onmousedown="handlePan(-1,0)">
                  <use xlink:href="#rim" fill="#404040">
                        <set attributeName="fill" to="#808080" begin="arrowLeft.mouseover" end="arrowLeft.mouseout"/>
                  </use>
                  <path fill="none" stroke="white" stroke-width="1.5" d="M0,-3.0v7 M-2.5,-0.5L0,-3.0L2.5,-0.5"/>
                </g>
        </g>
        <svg viewBox="0 0 15 15" width="100%" height="30px" preserveAspectRatio="xMaxYMin meet">
         <g id="arrow_out" transform="scale(0.3 0.3)">
          <a xlink:href="spatial__kinematics_8h__incl_org.svg" target="_base">
           <rect id="button" ry="5" rx="5" y="6" x="6" height="38" width="38"
                fill="#f2f5e9" fill-opacity="0.5" stroke="#606060" stroke-width="1.0"/>
           <path id="arrow"
             d="M 11.500037,31.436501 C 11.940474,20.09759 22.043105,11.32322 32.158766,21.979434 L 37.068811,17.246167 C 37.068811,17.246167 37.088388,32 37.088388,32 L 22.160133,31.978069 C 22.160133,31.978069 26.997745,27.140456 26.997745,27.140456 C 18.528582,18.264221 13.291696,25.230495 11.500037,31.436501 z"
             style="fill:#404040;"/>
          </a>
         </g>
        </svg>
</svg>
