<?xml version="1.0" encoding="UTF-8" standalone="no"?>
<!DOCTYPE svg PUBLIC "-//W3C//DTD SVG 1.1//EN"
 "http://www.w3.org/Graphics/SVG/1.1/DTD/svg11.dtd">
<!-- Generated by graphviz version 2.40.1 (20161225.0304)
 -->
<!-- Title: drake/multibody/math/spatial_acceleration.h Pages: 1 -->
<svg width="568pt" height="307pt"
 viewBox="0.00 0.00 568.00 307.00" xmlns="http://www.w3.org/2000/svg" xmlns:xlink="http://www.w3.org/1999/xlink">
<g id="graph0" class="graph" transform="scale(1 1) rotate(0) translate(4 303)">
<title>drake/multibody/math/spatial_acceleration.h</title>
<polygon fill="#ffffff" stroke="transparent" points="-4,4 -4,-303 564,-303 564,4 -4,4"/>
<!-- Node0 -->
<g id="node1" class="node">
<title>Node0</title>
<polygon fill="#bfbfbf" stroke="#000000" points="223,-268.5 223,-298.5 350,-298.5 350,-268.5 223,-268.5"/>
<text text-anchor="start" x="231" y="-286.5" font-family="Helvetica,sans-Serif" font-size="10.00" fill="#000000">drake/multibody/math</text>
<text text-anchor="middle" x="286.5" y="-275.5" font-family="Helvetica,sans-Serif" font-size="10.00" fill="#000000">/spatial_acceleration.h</text>
</g>
<!-- Node1 -->
<g id="node2" class="node">
<title>Node1</title>
<polygon fill="#ffffff" stroke="#bfbfbf" points="73.5,-73 73.5,-92 117.5,-92 117.5,-73 73.5,-73"/>
<text text-anchor="middle" x="95.5" y="-80" font-family="Helvetica,sans-Serif" font-size="10.00" fill="#000000">limits</text>
</g>
<!-- Node0&#45;&gt;Node1 -->
<g id="edge1" class="edge">
<title>Node0&#45;&gt;Node1</title>
<path fill="none" stroke="#191970" d="M222.784,-269.7035C183.7359,-260.0557 138.6158,-246.3681 124.5,-232 90.1756,-197.0623 90.342,-134.4039 93.0557,-102.4389"/>
<polygon fill="#191970" stroke="#191970" points="96.5714,-102.4646 94.1115,-92.1593 89.608,-101.7493 96.5714,-102.4646"/>
</g>
<!-- Node2 -->
<g id="node3" class="node">
<title>Node2</title>
<g id="a_node3"><a xlink:href="drake__assert_8h.html" target="_top" xlink:title="Provides Drake&#39;s assertion implementation. ">
<polygon fill="#ffffff" stroke="#000000" points="234,-67.5 234,-97.5 355,-97.5 355,-67.5 234,-67.5"/>
<text text-anchor="start" x="242" y="-85.5" font-family="Helvetica,sans-Serif" font-size="10.00" fill="#000000">drake/common/drake</text>
<text text-anchor="middle" x="294.5" y="-74.5" font-family="Helvetica,sans-Serif" font-size="10.00" fill="#000000">_assert.h</text>
</a>
</g>
</g>
<!-- Node0&#45;&gt;Node2 -->
<g id="edge2" class="edge">
<title>Node0&#45;&gt;Node2</title>
<path fill="none" stroke="#191970" d="M287.1013,-268.3923C288.4685,-234.0414 291.8217,-149.7914 293.5038,-107.5301"/>
<polygon fill="#191970" stroke="#191970" points="297.0021,-107.6401 293.9026,-97.5088 290.0076,-107.3617 297.0021,-107.6401"/>
</g>
<!-- Node4 -->
<g id="node5" class="node">
<title>Node4</title>
<g id="a_node5"><a xlink:href="drake__copyable_8h.html" target="_top" xlink:title="Provides careful macros to selectively enable or disable the special member functions for copy&#45;constr...">
<polygon fill="#ffffff" stroke="#000000" points="0,-.5 0,-30.5 121,-30.5 121,-.5 0,-.5"/>
<text text-anchor="start" x="8" y="-18.5" font-family="Helvetica,sans-Serif" font-size="10.00" fill="#000000">drake/common/drake</text>
<text text-anchor="middle" x="60.5" y="-7.5" font-family="Helvetica,sans-Serif" font-size="10.00" fill="#000000">_copyable.h</text>
</a>
</g>
</g>
<!-- Node0&#45;&gt;Node4 -->
<g id="edge4" class="edge">
<title>Node0&#45;&gt;Node4</title>
<path fill="none" stroke="#191970" d="M222.8535,-272.4314C176.3044,-263.1574 118.3114,-248.7641 100.5,-232 47.4016,-182.0239 51.228,-86.3053 56.6254,-40.7713"/>
<polygon fill="#191970" stroke="#191970" points="60.1311,-40.9557 57.9614,-30.5854 53.1905,-40.0453 60.1311,-40.9557"/>
</g>
<!-- Node5 -->
<g id="node6" class="node">
<title>Node5</title>
<g id="a_node6"><a xlink:href="eigen__types_8h.html" target="_top" xlink:title="This file contains abbreviated definitions for certain specializations of Eigen::Matrix that are comm...">
<polygon fill="#ffffff" stroke="#000000" points="373.5,-67.5 373.5,-97.5 493.5,-97.5 493.5,-67.5 373.5,-67.5"/>
<text text-anchor="start" x="381.5" y="-85.5" font-family="Helvetica,sans-Serif" font-size="10.00" fill="#000000">drake/common/eigen</text>
<text text-anchor="middle" x="433.5" y="-74.5" font-family="Helvetica,sans-Serif" font-size="10.00" fill="#000000">_types.h</text>
</a>
</g>
</g>
<!-- Node0&#45;&gt;Node5 -->
<g id="edge5" class="edge">
<title>Node0&#45;&gt;Node5</title>
<path fill="none" stroke="#191970" d="M297.5489,-268.3923C323.0446,-233.5309 386.1264,-147.2761 416.5519,-105.6739"/>
<polygon fill="#191970" stroke="#191970" points="419.4453,-107.6466 422.5234,-97.5088 413.7951,-103.5144 419.4453,-107.6466"/>
</g>
<!-- Node9 -->
<g id="node10" class="node">
<title>Node9</title>
<g id="a_node10"><a xlink:href="convert__time__derivative_8h.html" target="_top" xlink:title="drake/math/convert\l_time_derivative.h">
<polygon fill="#ffffff" stroke="#000000" points="429,-134.5 429,-164.5 542,-164.5 542,-134.5 429,-134.5"/>
<text text-anchor="start" x="437" y="-152.5" font-family="Helvetica,sans-Serif" font-size="10.00" fill="#000000">drake/math/convert</text>
<text text-anchor="middle" x="485.5" y="-141.5" font-family="Helvetica,sans-Serif" font-size="10.00" fill="#000000">_time_derivative.h</text>
</a>
</g>
</g>
<!-- Node0&#45;&gt;Node9 -->
<g id="edge10" class="edge">
<title>Node0&#45;&gt;Node9</title>
<path fill="none" stroke="#191970" d="M339.8327,-268.4344C363.9973,-260.0569 392.1022,-248.0357 414.5,-232 437.079,-215.8345 457.1314,-191.043 470.1178,-172.8556"/>
<polygon fill="#191970" stroke="#191970" points="473.0744,-174.7341 475.9054,-164.5244 467.3255,-170.7403 473.0744,-174.7341"/>
</g>
<!-- Node10 -->
<g id="node11" class="node">
<title>Node10</title>
<g id="a_node11"><a xlink:href="spatial__vector_8h.html" target="_top" xlink:title="drake/multibody/math\l/spatial_vector.h">
<polygon fill="#ffffff" stroke="#000000" points="133,-134.5 133,-164.5 258,-164.5 258,-134.5 133,-134.5"/>
<text text-anchor="start" x="141" y="-152.5" font-family="Helvetica,sans-Serif" font-size="10.00" fill="#000000">drake/multibody/math</text>
<text text-anchor="middle" x="195.5" y="-141.5" font-family="Helvetica,sans-Serif" font-size="10.00" fill="#000000">/spatial_vector.h</text>
</a>
</g>
</g>
<!-- Node0&#45;&gt;Node10 -->
<g id="edge13" class="edge">
<title>Node0&#45;&gt;Node10</title>
<path fill="none" stroke="#191970" d="M286.1645,-268.2391C285.1009,-250.6535 281.1993,-221.5437 267.5,-201 259.2666,-188.6532 247.0005,-178.2934 234.9153,-170.1784"/>
<polygon fill="#191970" stroke="#191970" points="236.5297,-167.0582 226.2076,-164.6698 232.7874,-172.9739 236.5297,-167.0582"/>
</g>
<!-- Node12 -->
<g id="node13" class="node">
<title>Node12</title>
<g id="a_node13"><a xlink:href="spatial__velocity_8h.html" target="_top" xlink:title="drake/multibody/math\l/spatial_velocity.h">
<polygon fill="#ffffff" stroke="#000000" points="133,-201.5 133,-231.5 258,-231.5 258,-201.5 133,-201.5"/>
<text text-anchor="start" x="141" y="-219.5" font-family="Helvetica,sans-Serif" font-size="10.00" fill="#000000">drake/multibody/math</text>
<text text-anchor="middle" x="195.5" y="-208.5" font-family="Helvetica,sans-Serif" font-size="10.00" fill="#000000">/spatial_velocity.h</text>
</a>
</g>
</g>
<!-- Node0&#45;&gt;Node12 -->
<g id="edge19" class="edge">
<title>Node0&#45;&gt;Node12</title>
<path fill="none" stroke="#191970" d="M265.8507,-268.2967C253.5177,-259.2163 237.6708,-247.5488 224.1406,-237.587"/>
<polygon fill="#191970" stroke="#191970" points="226.1955,-234.7537 216.0676,-231.6432 222.0452,-240.3907 226.1955,-234.7537"/>
</g>
<!-- Node3 -->
<g id="node4" class="node">
<title>Node3</title>
<polygon fill="#ffffff" stroke="#bfbfbf" points="153,-6 153,-25 222,-25 222,-6 153,-6"/>
<text text-anchor="middle" x="187.5" y="-13" font-family="Helvetica,sans-Serif" font-size="10.00" fill="#000000">type_traits</text>
</g>
<!-- Node2&#45;&gt;Node3 -->
<g id="edge3" class="edge">
<title>Node2&#45;&gt;Node3</title>
<path fill="none" stroke="#191970" d="M270.4871,-67.4639C252.8574,-56.4247 229.0151,-41.4954 211.4097,-30.4715"/>
<polygon fill="#191970" stroke="#191970" points="213.1707,-27.4446 202.8376,-25.1039 209.4556,-33.3775 213.1707,-27.4446"/>
</g>
<!-- Node5&#45;&gt;Node4 -->
<g id="edge9" class="edge">
<title>Node5&#45;&gt;Node4</title>
<path fill="none" stroke="#191970" d="M373.3329,-68.7656C370.3495,-68.1532 367.3927,-67.5611 364.5,-67 267.2345,-48.1341 242.1106,-47.9903 144.5,-31 140.1079,-30.2355 135.589,-29.4368 131.0336,-28.6225"/>
<polygon fill="#191970" stroke="#191970" points="131.4999,-25.1502 121.0378,-26.8221 130.259,-32.0394 131.4999,-25.1502"/>
</g>
<!-- Node6 -->
<g id="node7" class="node">
<title>Node6</title>
<polygon fill="#ffffff" stroke="#bfbfbf" points="406.5,-6 406.5,-25 464.5,-25 464.5,-6 406.5,-6"/>
<text text-anchor="middle" x="435.5" y="-13" font-family="Helvetica,sans-Serif" font-size="10.00" fill="#000000">memory</text>
</g>
<!-- Node5&#45;&gt;Node6 -->
<g id="edge6" class="edge">
<title>Node5&#45;&gt;Node6</title>
<path fill="none" stroke="#191970" d="M433.9538,-67.2967C434.2382,-57.7699 434.6076,-45.3954 434.914,-35.1306"/>
<polygon fill="#191970" stroke="#191970" points="438.4147,-35.155 435.2148,-25.055 431.4179,-34.9461 438.4147,-35.155"/>
</g>
<!-- Node7 -->
<g id="node8" class="node">
<title>Node7</title>
<polygon fill="#ffffff" stroke="#bfbfbf" points="483,-6 483,-25 560,-25 560,-6 483,-6"/>
<text text-anchor="middle" x="521.5" y="-13" font-family="Helvetica,sans-Serif" font-size="10.00" fill="#000000">Eigen/Dense</text>
</g>
<!-- Node5&#45;&gt;Node7 -->
<g id="edge7" class="edge">
<title>Node5&#45;&gt;Node7</title>
<path fill="none" stroke="#191970" d="M453.4686,-67.2967C467.5787,-56.5537 486.4451,-42.1895 500.7308,-31.3129"/>
<polygon fill="#191970" stroke="#191970" points="503.114,-33.8975 508.9502,-25.055 498.8736,-28.328 503.114,-33.8975"/>
</g>
<!-- Node8 -->
<g id="node9" class="node">
<title>Node8</title>
<g id="a_node9"><a xlink:href="constants_8h.html" target="_top" xlink:title="drake/common/constants.h">
<polygon fill="#ffffff" stroke="#000000" points="240,-6 240,-25 389,-25 389,-6 240,-6"/>
<text text-anchor="middle" x="314.5" y="-13" font-family="Helvetica,sans-Serif" font-size="10.00" fill="#000000">drake/common/constants.h</text>
</a>
</g>
</g>
<!-- Node5&#45;&gt;Node8 -->
<g id="edge8" class="edge">
<title>Node5&#45;&gt;Node8</title>
<path fill="none" stroke="#191970" d="M406.7941,-67.4639C386.9173,-56.2728 359.9399,-41.0838 340.2868,-30.0186"/>
<polygon fill="#191970" stroke="#191970" points="341.9887,-26.9602 331.5577,-25.1039 338.5544,-33.0599 341.9887,-26.9602"/>
</g>
<!-- Node9&#45;&gt;Node5 -->
<g id="edge12" class="edge">
<title>Node9&#45;&gt;Node5</title>
<path fill="none" stroke="#191970" d="M473.7004,-134.2967C467.1184,-125.816 458.7848,-115.0785 451.4141,-105.5817"/>
<polygon fill="#191970" stroke="#191970" points="454.1491,-103.3971 445.2529,-97.6432 448.6192,-107.689 454.1491,-103.3971"/>
</g>
<!-- Node9&#45;&gt;Node7 -->
<g id="edge11" class="edge">
<title>Node9&#45;&gt;Node7</title>
<path fill="none" stroke="#191970" d="M490.9316,-134.2901C494.4701,-124.0962 499.0525,-110.3323 502.5,-98 508.4159,-76.8381 513.9019,-52.257 517.4426,-35.4673"/>
<polygon fill="#191970" stroke="#191970" points="520.9628,-35.7283 519.5645,-25.2261 514.1084,-34.3081 520.9628,-35.7283"/>
</g>
<!-- Node10&#45;&gt;Node1 -->
<g id="edge14" class="edge">
<title>Node10&#45;&gt;Node1</title>
<path fill="none" stroke="#191970" d="M172.8085,-134.2967C156.4717,-123.351 134.5241,-108.6462 118.1881,-97.701"/>
<polygon fill="#191970" stroke="#191970" points="120.017,-94.7135 109.7612,-92.055 116.1207,-100.5289 120.017,-94.7135"/>
</g>
<!-- Node10&#45;&gt;Node2 -->
<g id="edge16" class="edge">
<title>Node10&#45;&gt;Node2</title>
<path fill="none" stroke="#191970" d="M217.9646,-134.2967C231.5085,-125.1306 248.9475,-113.3285 263.7575,-103.3055"/>
<polygon fill="#191970" stroke="#191970" points="265.8042,-106.1466 272.1243,-97.6432 261.8809,-100.3494 265.8042,-106.1466"/>
</g>
<!-- Node10&#45;&gt;Node4 -->
<g id="edge17" class="edge">
<title>Node10&#45;&gt;Node4</title>
<path fill="none" stroke="#191970" d="M198.1256,-134.4471C200.372,-116.524 201.2396,-86.562 186.5,-67 172.8728,-48.9143 151.7934,-37.1524 130.75,-29.5141"/>
<polygon fill="#191970" stroke="#191970" points="131.7047,-26.1428 121.1108,-26.2868 129.4823,-32.7807 131.7047,-26.1428"/>
</g>
<!-- Node10&#45;&gt;Node5 -->
<g id="edge18" class="edge">
<title>Node10&#45;&gt;Node5</title>
<path fill="none" stroke="#191970" d="M248.9118,-134.4639C284.7674,-124.3701 332.1759,-111.024 369.9689,-100.3848"/>
<polygon fill="#191970" stroke="#191970" points="371.1778,-103.6806 379.8552,-97.6017 369.2809,-96.9425 371.1778,-103.6806"/>
</g>
<!-- Node11 -->
<g id="node12" class="node">
<title>Node11</title>
<polygon fill="#ffffff" stroke="#bfbfbf" points="136,-73 136,-92 177,-92 177,-73 136,-73"/>
<text text-anchor="middle" x="156.5" y="-80" font-family="Helvetica,sans-Serif" font-size="10.00" fill="#000000">tuple</text>
</g>
<!-- Node10&#45;&gt;Node11 -->
<g id="edge15" class="edge">
<title>Node10&#45;&gt;Node11</title>
<path fill="none" stroke="#191970" d="M186.6503,-134.2967C180.8689,-124.3645 173.2858,-111.3371 167.1709,-100.8321"/>
<polygon fill="#191970" stroke="#191970" points="170.1175,-98.9367 162.0618,-92.055 164.0677,-102.4582 170.1175,-98.9367"/>
</g>
<!-- Node12&#45;&gt;Node1 -->
<g id="edge20" class="edge">
<title>Node12&#45;&gt;Node1</title>
<path fill="none" stroke="#191970" d="M166.9861,-201.4011C152.5228,-192.4914 135.6951,-180.0161 124.5,-165 110.3722,-146.0503 102.7025,-119.6365 98.861,-101.8459"/>
<polygon fill="#191970" stroke="#191970" points="102.295,-101.1689 96.9403,-92.0268 95.4252,-102.5128 102.295,-101.1689"/>
</g>
<!-- Node12&#45;&gt;Node2 -->
<g id="edge21" class="edge">
<title>Node12&#45;&gt;Node2</title>
<path fill="none" stroke="#191970" d="M224.9114,-201.3655C239.535,-192.5208 256.4071,-180.116 267.5,-165 279.9047,-148.0965 286.8009,-125.1996 290.5122,-107.8161"/>
<polygon fill="#191970" stroke="#191970" points="293.9854,-108.288 292.4322,-97.8077 287.1107,-106.9692 293.9854,-108.288"/>
</g>
<!-- Node12&#45;&gt;Node4 -->
<g id="edge22" class="edge">
<title>Node12&#45;&gt;Node4</title>
<path fill="none" stroke="#191970" d="M159.3787,-201.4462C141.4001,-192.6952 120.2112,-180.3504 104.5,-165 79.6938,-140.7633 74.5278,-131.1995 64.5,-98 58.888,-79.42 58.0921,-57.4249 58.5885,-40.8199"/>
<polygon fill="#191970" stroke="#191970" points="62.087,-40.9307 59.0636,-30.7764 55.0949,-40.5998 62.087,-40.9307"/>
</g>
<!-- Node12&#45;&gt;Node5 -->
<g id="edge23" class="edge">
<title>Node12&#45;&gt;Node5</title>
<path fill="none" stroke="#191970" d="M222.811,-201.4845C241.3672,-191.2557 266.4514,-177.3768 288.5,-165 325.9888,-143.956 368.7524,-119.5794 398.0702,-102.8097"/>
<polygon fill="#191970" stroke="#191970" points="400.152,-105.651 407.0928,-97.6462 396.6751,-99.5756 400.152,-105.651"/>
</g>
<!-- Node12&#45;&gt;Node10 -->
<g id="edge24" class="edge">
<title>Node12&#45;&gt;Node10</title>
<path fill="none" stroke="#191970" d="M195.5,-201.2967C195.5,-193.5013 195.5,-183.7991 195.5,-174.9064"/>
<polygon fill="#191970" stroke="#191970" points="199.0001,-174.6431 195.5,-164.6432 192.0001,-174.6432 199.0001,-174.6431"/>
</g>
</g>
</svg>
