<?xml version="1.0" encoding="UTF-8" standalone="no"?>
<!DOCTYPE svg PUBLIC "-//W3C//DTD SVG 1.1//EN"
 "http://www.w3.org/Graphics/SVG/1.1/DTD/svg11.dtd">
<!-- Generated by graphviz version 2.40.1 (20161225.0304)
 -->
<!-- Title: drake/multibody/test_utilities/spatial_kinematics.h Pages: 1 -->
<svg width="624pt" height="173pt"
 viewBox="0.00 0.00 623.50 173.00" xmlns="http://www.w3.org/2000/svg" xmlns:xlink="http://www.w3.org/1999/xlink">
<g id="graph0" class="graph" transform="scale(1 1) rotate(0) translate(4 169)">
<title>drake/multibody/test_utilities/spatial_kinematics.h</title>
<polygon fill="#ffffff" stroke="transparent" points="-4,4 -4,-169 619.5,-169 619.5,4 -4,4"/>
<!-- Node0 -->
<g id="node1" class="node">
<title>Node0</title>
<polygon fill="#bfbfbf" stroke="#000000" points="266.5,-134.5 266.5,-164.5 429.5,-164.5 429.5,-134.5 266.5,-134.5"/>
<text text-anchor="start" x="274.5" y="-152.5" font-family="Helvetica,sans-Serif" font-size="10.00" fill="#000000">drake/multibody/test</text>
<text text-anchor="middle" x="348" y="-141.5" font-family="Helvetica,sans-Serif" font-size="10.00" fill="#000000">_utilities/spatial_kinematics.h</text>
</g>
<!-- Node1 -->
<g id="node2" class="node">
<title>Node1</title>
<g id="a_node2"><a xlink:href="eigen__types_8h.html" target="_top" xlink:title="This file contains abbreviated definitions for certain specializations of Eigen::Matrix that are comm...">
<polygon fill="#ffffff" stroke="#000000" points="120,-67.5 120,-97.5 240,-97.5 240,-67.5 120,-67.5"/>
<text text-anchor="start" x="128" y="-85.5" font-family="Helvetica,sans-Serif" font-size="10.00" fill="#000000">drake/common/eigen</text>
<text text-anchor="middle" x="180" y="-74.5" font-family="Helvetica,sans-Serif" font-size="10.00" fill="#000000">_types.h</text>
</a>
</g>
</g>
<!-- Node0&#45;&gt;Node1 -->
<g id="edge1" class="edge">
<title>Node0&#45;&gt;Node1</title>
<path fill="none" stroke="#191970" d="M310.2975,-134.4639C285.7416,-124.6708 253.5093,-111.8162 227.2471,-101.3426"/>
<polygon fill="#191970" stroke="#191970" points="228.4521,-98.0551 217.8669,-97.6017 225.8589,-104.5571 228.4521,-98.0551"/>
</g>
<!-- Node6 -->
<g id="node7" class="node">
<title>Node6</title>
<polygon fill="#ffffff" stroke="#bfbfbf" points="258,-67.5 258,-97.5 438,-97.5 438,-67.5 258,-67.5"/>
<text text-anchor="start" x="266" y="-85.5" font-family="Helvetica,sans-Serif" font-size="10.00" fill="#000000">drake/multibody/multibody</text>
<text text-anchor="middle" x="348" y="-74.5" font-family="Helvetica,sans-Serif" font-size="10.00" fill="#000000">_tree/math/spatial_acceleration.h</text>
</g>
<!-- Node0&#45;&gt;Node6 -->
<g id="edge6" class="edge">
<title>Node0&#45;&gt;Node6</title>
<path fill="none" stroke="#191970" d="M348,-134.2967C348,-126.5013 348,-116.7991 348,-107.9064"/>
<polygon fill="#191970" stroke="#191970" points="351.5001,-107.6431 348,-97.6432 344.5001,-107.6432 351.5001,-107.6431"/>
</g>
<!-- Node7 -->
<g id="node8" class="node">
<title>Node7</title>
<polygon fill="#ffffff" stroke="#bfbfbf" points="456.5,-67.5 456.5,-97.5 615.5,-97.5 615.5,-67.5 456.5,-67.5"/>
<text text-anchor="start" x="464.5" y="-85.5" font-family="Helvetica,sans-Serif" font-size="10.00" fill="#000000">drake/multibody/multibody</text>
<text text-anchor="middle" x="536" y="-74.5" font-family="Helvetica,sans-Serif" font-size="10.00" fill="#000000">_tree/math/spatial_velocity.h</text>
</g>
<!-- Node0&#45;&gt;Node7 -->
<g id="edge7" class="edge">
<title>Node0&#45;&gt;Node7</title>
<path fill="none" stroke="#191970" d="M390.1909,-134.4639C417.9111,-124.5849 454.3731,-111.5905 483.9001,-101.0675"/>
<polygon fill="#191970" stroke="#191970" points="485.3804,-104.2557 493.6251,-97.6017 483.0304,-97.6619 485.3804,-104.2557"/>
</g>
<!-- Node2 -->
<g id="node3" class="node">
<title>Node2</title>
<polygon fill="#ffffff" stroke="#bfbfbf" points="0,-6 0,-25 58,-25 58,-6 0,-6"/>
<text text-anchor="middle" x="29" y="-13" font-family="Helvetica,sans-Serif" font-size="10.00" fill="#000000">memory</text>
</g>
<!-- Node1&#45;&gt;Node2 -->
<g id="edge2" class="edge">
<title>Node1&#45;&gt;Node2</title>
<path fill="none" stroke="#191970" d="M146.1127,-67.4639C120.3203,-56.0196 85.1055,-40.3945 60.0429,-29.274"/>
<polygon fill="#191970" stroke="#191970" points="61.2048,-25.9605 50.6447,-25.1039 58.3657,-32.359 61.2048,-25.9605"/>
</g>
<!-- Node3 -->
<g id="node4" class="node">
<title>Node3</title>
<polygon fill="#ffffff" stroke="#bfbfbf" points="76.5,-6 76.5,-25 153.5,-25 153.5,-6 76.5,-6"/>
<text text-anchor="middle" x="115" y="-13" font-family="Helvetica,sans-Serif" font-size="10.00" fill="#000000">Eigen/Dense</text>
</g>
<!-- Node1&#45;&gt;Node3 -->
<g id="edge3" class="edge">
<title>Node1&#45;&gt;Node3</title>
<path fill="none" stroke="#191970" d="M165.2505,-67.2967C155.1232,-56.8578 141.6788,-42.9997 131.2448,-32.2446"/>
<polygon fill="#191970" stroke="#191970" points="133.745,-29.7953 124.2697,-25.055 128.7208,-34.6695 133.745,-29.7953"/>
</g>
<!-- Node4 -->
<g id="node5" class="node">
<title>Node4</title>
<g id="a_node5"><a xlink:href="constants_8h.html" target="_top" xlink:title="drake/common/constants.h">
<polygon fill="#ffffff" stroke="#000000" points="171.5,-6 171.5,-25 320.5,-25 320.5,-6 171.5,-6"/>
<text text-anchor="middle" x="246" y="-13" font-family="Helvetica,sans-Serif" font-size="10.00" fill="#000000">drake/common/constants.h</text>
</a>
</g>
</g>
<!-- Node1&#45;&gt;Node4 -->
<g id="edge4" class="edge">
<title>Node1&#45;&gt;Node4</title>
<path fill="none" stroke="#191970" d="M194.9764,-67.2967C205.2595,-56.8578 218.9108,-42.9997 229.5053,-32.2446"/>
<polygon fill="#191970" stroke="#191970" points="232.0633,-34.6352 236.5876,-25.055 227.0765,-29.7228 232.0633,-34.6352"/>
</g>
<!-- Node5 -->
<g id="node6" class="node">
<title>Node5</title>
<g id="a_node6"><a xlink:href="drake__copyable_8h.html" target="_top" xlink:title="Provides careful macros to selectively enable or disable the special member functions for copy&#45;constr...">
<polygon fill="#ffffff" stroke="#000000" points="338.5,-.5 338.5,-30.5 459.5,-30.5 459.5,-.5 338.5,-.5"/>
<text text-anchor="start" x="346.5" y="-18.5" font-family="Helvetica,sans-Serif" font-size="10.00" fill="#000000">drake/common/drake</text>
<text text-anchor="middle" x="399" y="-7.5" font-family="Helvetica,sans-Serif" font-size="10.00" fill="#000000">_copyable.h</text>
</a>
</g>
</g>
<!-- Node1&#45;&gt;Node5 -->
<g id="edge5" class="edge">
<title>Node1&#45;&gt;Node5</title>
<path fill="none" stroke="#191970" d="M229.1479,-67.4639C261.8602,-57.456 305.023,-44.2509 339.6509,-33.657"/>
<polygon fill="#191970" stroke="#191970" points="341.0992,-36.8741 349.6378,-30.6017 339.0513,-30.1804 341.0992,-36.8741"/>
</g>
</g>
</svg>
