<?xml version="1.0" encoding="UTF-8" standalone="no"?>
<!DOCTYPE svg PUBLIC "-//W3C//DTD SVG 1.1//EN"
 "http://www.w3.org/Graphics/SVG/1.1/DTD/svg11.dtd">
<!-- Generated by graphviz version 2.40.1 (20161225.0304)
 -->
<!-- Title: drake/multibody/multibody_tree/math/spatial_acceleration.h Pages: 1 -->
<svg width="568pt" height="307pt"
 viewBox="0.00 0.00 568.00 307.00" xmlns="http://www.w3.org/2000/svg" xmlns:xlink="http://www.w3.org/1999/xlink">
<g id="graph0" class="graph" transform="scale(1 1) rotate(0) translate(4 303)">
<title>drake/multibody/multibody_tree/math/spatial_acceleration.h</title>
<polygon fill="#ffffff" stroke="transparent" points="-4,4 -4,-303 564,-303 564,4 -4,4"/>
<!-- Node0 -->
<g id="node1" class="node">
<title>Node0</title>
<polygon fill="#bfbfbf" stroke="#000000" points="212.5,-268.5 212.5,-298.5 392.5,-298.5 392.5,-268.5 212.5,-268.5"/>
<text text-anchor="start" x="220.5" y="-286.5" font-family="Helvetica,sans-Serif" font-size="10.00" fill="#000000">drake/multibody/multibody</text>
<text text-anchor="middle" x="302.5" y="-275.5" font-family="Helvetica,sans-Serif" font-size="10.00" fill="#000000">_tree/math/spatial_acceleration.h</text>
</g>
<!-- Node1 -->
<g id="node2" class="node">
<title>Node1</title>
<polygon fill="#ffffff" stroke="#bfbfbf" points="73.5,-73 73.5,-92 117.5,-92 117.5,-73 73.5,-73"/>
<text text-anchor="middle" x="95.5" y="-80" font-family="Helvetica,sans-Serif" font-size="10.00" fill="#000000">limits</text>
</g>
<!-- Node0&#45;&gt;Node1 -->
<g id="edge1" class="edge">
<title>Node0&#45;&gt;Node1</title>
<path fill="none" stroke="#191970" d="M212.2609,-269.1879C168.5457,-260.4313 122.3315,-247.853 107.5,-232 74.4012,-196.6215 83.0763,-133.6966 90.2865,-101.9557"/>
<polygon fill="#191970" stroke="#191970" points="93.7146,-102.672 92.7049,-92.1254 86.9173,-100.9997 93.7146,-102.672"/>
</g>
<!-- Node2 -->
<g id="node3" class="node">
<title>Node2</title>
<g id="a_node3"><a xlink:href="drake__assert_8h.html" target="_top" xlink:title="Provides Drake&#39;s assertion implementation. ">
<polygon fill="#ffffff" stroke="#000000" points="234,-67.5 234,-97.5 355,-97.5 355,-67.5 234,-67.5"/>
<text text-anchor="start" x="242" y="-85.5" font-family="Helvetica,sans-Serif" font-size="10.00" fill="#000000">drake/common/drake</text>
<text text-anchor="middle" x="294.5" y="-74.5" font-family="Helvetica,sans-Serif" font-size="10.00" fill="#000000">_assert.h</text>
</a>
</g>
</g>
<!-- Node0&#45;&gt;Node2 -->
<g id="edge2" class="edge">
<title>Node0&#45;&gt;Node2</title>
<path fill="none" stroke="#191970" d="M303.2507,-268.1809C303.7142,-257.9409 304.2638,-244.1666 304.5,-232 305.3464,-188.396 303.2302,-177.4524 299.5,-134 298.7734,-125.5366 297.9014,-116.2987 297.0905,-108.0134"/>
<polygon fill="#191970" stroke="#191970" points="300.5489,-107.4203 296.0771,-97.8155 293.5832,-108.1126 300.5489,-107.4203"/>
</g>
<!-- Node4 -->
<g id="node5" class="node">
<title>Node4</title>
<g id="a_node5"><a xlink:href="drake__copyable_8h.html" target="_top" xlink:title="Provides careful macros to selectively enable or disable the special member functions for copy&#45;constr...">
<polygon fill="#ffffff" stroke="#000000" points="0,-.5 0,-30.5 121,-30.5 121,-.5 0,-.5"/>
<text text-anchor="start" x="8" y="-18.5" font-family="Helvetica,sans-Serif" font-size="10.00" fill="#000000">drake/common/drake</text>
<text text-anchor="middle" x="60.5" y="-7.5" font-family="Helvetica,sans-Serif" font-size="10.00" fill="#000000">_copyable.h</text>
</a>
</g>
</g>
<!-- Node0&#45;&gt;Node4 -->
<g id="edge4" class="edge">
<title>Node0&#45;&gt;Node4</title>
<path fill="none" stroke="#191970" d="M212.3025,-271.8523C161.0205,-263.4086 103.5226,-250.2541 85.5,-232 34.803,-180.6516 45.7666,-85.6572 54.6564,-40.5432"/>
<polygon fill="#191970" stroke="#191970" points="58.0929,-41.2086 56.7216,-30.7029 51.2421,-39.7708 58.0929,-41.2086"/>
</g>
<!-- Node5 -->
<g id="node6" class="node">
<title>Node5</title>
<g id="a_node6"><a xlink:href="eigen__types_8h.html" target="_top" xlink:title="This file contains abbreviated definitions for certain specializations of Eigen::Matrix that are comm...">
<polygon fill="#ffffff" stroke="#000000" points="373.5,-67.5 373.5,-97.5 493.5,-97.5 493.5,-67.5 373.5,-67.5"/>
<text text-anchor="start" x="381.5" y="-85.5" font-family="Helvetica,sans-Serif" font-size="10.00" fill="#000000">drake/common/eigen</text>
<text text-anchor="middle" x="433.5" y="-74.5" font-family="Helvetica,sans-Serif" font-size="10.00" fill="#000000">_types.h</text>
</a>
</g>
</g>
<!-- Node0&#45;&gt;Node5 -->
<g id="edge5" class="edge">
<title>Node0&#45;&gt;Node5</title>
<path fill="none" stroke="#191970" d="M312.3463,-268.3923C335.0194,-233.6038 391.0476,-147.6368 418.226,-105.9356"/>
<polygon fill="#191970" stroke="#191970" points="421.1902,-107.7976 423.7181,-97.5088 415.3257,-103.9755 421.1902,-107.7976"/>
</g>
<!-- Node9 -->
<g id="node10" class="node">
<title>Node9</title>
<g id="a_node10"><a xlink:href="convert__time__derivative_8h.html" target="_top" xlink:title="drake/math/convert\l_time_derivative.h">
<polygon fill="#ffffff" stroke="#000000" points="442,-134.5 442,-164.5 555,-164.5 555,-134.5 442,-134.5"/>
<text text-anchor="start" x="450" y="-152.5" font-family="Helvetica,sans-Serif" font-size="10.00" fill="#000000">drake/math/convert</text>
<text text-anchor="middle" x="498.5" y="-141.5" font-family="Helvetica,sans-Serif" font-size="10.00" fill="#000000">_time_derivative.h</text>
</a>
</g>
</g>
<!-- Node0&#45;&gt;Node9 -->
<g id="edge10" class="edge">
<title>Node0&#45;&gt;Node9</title>
<path fill="none" stroke="#191970" d="M353.9601,-268.442C377.6937,-260.0096 405.4282,-247.941 427.5,-232 449.8802,-215.8362 469.8395,-191.253 482.8523,-173.124"/>
<polygon fill="#191970" stroke="#191970" points="485.8042,-175.01 488.6626,-164.808 480.0661,-171.0008 485.8042,-175.01"/>
</g>
<!-- Node10 -->
<g id="node11" class="node">
<title>Node10</title>
<g id="a_node11"><a xlink:href="spatial__vector_8h.html" target="_top" xlink:title="drake/multibody/multibody\l_tree/math/spatial_vector.h">
<polygon fill="#ffffff" stroke="#000000" points="120,-134.5 120,-164.5 271,-164.5 271,-134.5 120,-134.5"/>
<text text-anchor="start" x="128" y="-152.5" font-family="Helvetica,sans-Serif" font-size="10.00" fill="#000000">drake/multibody/multibody</text>
<text text-anchor="middle" x="195.5" y="-141.5" font-family="Helvetica,sans-Serif" font-size="10.00" fill="#000000">_tree/math/spatial_vector.h</text>
</a>
</g>
</g>
<!-- Node0&#45;&gt;Node10 -->
<g id="edge13" class="edge">
<title>Node0&#45;&gt;Node10</title>
<path fill="none" stroke="#191970" d="M302.7372,-268.3251C302.2724,-250.5555 299.1065,-221.0114 284.5,-201 274.6511,-187.5067 260.1104,-176.9967 245.624,-169.0919"/>
<polygon fill="#191970" stroke="#191970" points="247.1505,-165.9414 236.6537,-164.5033 243.9626,-172.1734 247.1505,-165.9414"/>
</g>
<!-- Node12 -->
<g id="node13" class="node">
<title>Node12</title>
<g id="a_node13"><a xlink:href="spatial__velocity_8h.html" target="_top" xlink:title="drake/multibody/multibody\l_tree/math/spatial_velocity.h">
<polygon fill="#ffffff" stroke="#000000" points="116,-201.5 116,-231.5 275,-231.5 275,-201.5 116,-201.5"/>
<text text-anchor="start" x="124" y="-219.5" font-family="Helvetica,sans-Serif" font-size="10.00" fill="#000000">drake/multibody/multibody</text>
<text text-anchor="middle" x="195.5" y="-208.5" font-family="Helvetica,sans-Serif" font-size="10.00" fill="#000000">_tree/math/spatial_velocity.h</text>
</a>
</g>
</g>
<!-- Node0&#45;&gt;Node12 -->
<g id="edge19" class="edge">
<title>Node0&#45;&gt;Node12</title>
<path fill="none" stroke="#191970" d="M278.4871,-268.4639C263.7225,-259.2188 244.6005,-247.2452 228.4339,-237.1222"/>
<polygon fill="#191970" stroke="#191970" points="230.136,-234.0584 219.803,-231.7177 226.421,-239.9913 230.136,-234.0584"/>
</g>
<!-- Node3 -->
<g id="node4" class="node">
<title>Node3</title>
<polygon fill="#ffffff" stroke="#bfbfbf" points="153,-6 153,-25 222,-25 222,-6 153,-6"/>
<text text-anchor="middle" x="187.5" y="-13" font-family="Helvetica,sans-Serif" font-size="10.00" fill="#000000">type_traits</text>
</g>
<!-- Node2&#45;&gt;Node3 -->
<g id="edge3" class="edge">
<title>Node2&#45;&gt;Node3</title>
<path fill="none" stroke="#191970" d="M270.4871,-67.4639C252.8574,-56.4247 229.0151,-41.4954 211.4097,-30.4715"/>
<polygon fill="#191970" stroke="#191970" points="213.1707,-27.4446 202.8376,-25.1039 209.4556,-33.3775 213.1707,-27.4446"/>
</g>
<!-- Node5&#45;&gt;Node4 -->
<g id="edge9" class="edge">
<title>Node5&#45;&gt;Node4</title>
<path fill="none" stroke="#191970" d="M373.3329,-68.7656C370.3495,-68.1532 367.3927,-67.5611 364.5,-67 267.2345,-48.1341 242.1106,-47.9903 144.5,-31 140.1079,-30.2355 135.589,-29.4368 131.0336,-28.6225"/>
<polygon fill="#191970" stroke="#191970" points="131.4999,-25.1502 121.0378,-26.8221 130.259,-32.0394 131.4999,-25.1502"/>
</g>
<!-- Node6 -->
<g id="node7" class="node">
<title>Node6</title>
<polygon fill="#ffffff" stroke="#bfbfbf" points="406.5,-6 406.5,-25 464.5,-25 464.5,-6 406.5,-6"/>
<text text-anchor="middle" x="435.5" y="-13" font-family="Helvetica,sans-Serif" font-size="10.00" fill="#000000">memory</text>
</g>
<!-- Node5&#45;&gt;Node6 -->
<g id="edge6" class="edge">
<title>Node5&#45;&gt;Node6</title>
<path fill="none" stroke="#191970" d="M433.9538,-67.2967C434.2382,-57.7699 434.6076,-45.3954 434.914,-35.1306"/>
<polygon fill="#191970" stroke="#191970" points="438.4147,-35.155 435.2148,-25.055 431.4179,-34.9461 438.4147,-35.155"/>
</g>
<!-- Node7 -->
<g id="node8" class="node">
<title>Node7</title>
<polygon fill="#ffffff" stroke="#bfbfbf" points="483,-6 483,-25 560,-25 560,-6 483,-6"/>
<text text-anchor="middle" x="521.5" y="-13" font-family="Helvetica,sans-Serif" font-size="10.00" fill="#000000">Eigen/Dense</text>
</g>
<!-- Node5&#45;&gt;Node7 -->
<g id="edge7" class="edge">
<title>Node5&#45;&gt;Node7</title>
<path fill="none" stroke="#191970" d="M453.4686,-67.2967C467.5787,-56.5537 486.4451,-42.1895 500.7308,-31.3129"/>
<polygon fill="#191970" stroke="#191970" points="503.114,-33.8975 508.9502,-25.055 498.8736,-28.328 503.114,-33.8975"/>
</g>
<!-- Node8 -->
<g id="node9" class="node">
<title>Node8</title>
<g id="a_node9"><a xlink:href="constants_8h.html" target="_top" xlink:title="drake/common/constants.h">
<polygon fill="#ffffff" stroke="#000000" points="240,-6 240,-25 389,-25 389,-6 240,-6"/>
<text text-anchor="middle" x="314.5" y="-13" font-family="Helvetica,sans-Serif" font-size="10.00" fill="#000000">drake/common/constants.h</text>
</a>
</g>
</g>
<!-- Node5&#45;&gt;Node8 -->
<g id="edge8" class="edge">
<title>Node5&#45;&gt;Node8</title>
<path fill="none" stroke="#191970" d="M406.7941,-67.4639C386.9173,-56.2728 359.9399,-41.0838 340.2868,-30.0186"/>
<polygon fill="#191970" stroke="#191970" points="341.9887,-26.9602 331.5577,-25.1039 338.5544,-33.0599 341.9887,-26.9602"/>
</g>
<!-- Node9&#45;&gt;Node5 -->
<g id="edge12" class="edge">
<title>Node9&#45;&gt;Node5</title>
<path fill="none" stroke="#191970" d="M483.7505,-134.2967C475.3567,-125.6446 464.6843,-114.6438 455.3358,-105.0076"/>
<polygon fill="#191970" stroke="#191970" points="457.6664,-102.3835 448.1911,-97.6432 452.6422,-107.2577 457.6664,-102.3835"/>
</g>
<!-- Node9&#45;&gt;Node7 -->
<g id="edge11" class="edge">
<title>Node9&#45;&gt;Node7</title>
<path fill="none" stroke="#191970" d="M501.0937,-134.389C505.2672,-110.0735 513.4733,-62.2644 518.1067,-35.2698"/>
<polygon fill="#191970" stroke="#191970" points="521.6093,-35.5522 519.8515,-25.1042 514.7102,-34.3679 521.6093,-35.5522"/>
</g>
<!-- Node10&#45;&gt;Node1 -->
<g id="edge14" class="edge">
<title>Node10&#45;&gt;Node1</title>
<path fill="none" stroke="#191970" d="M172.8085,-134.2967C156.4717,-123.351 134.5241,-108.6462 118.1881,-97.701"/>
<polygon fill="#191970" stroke="#191970" points="120.017,-94.7135 109.7612,-92.055 116.1207,-100.5289 120.017,-94.7135"/>
</g>
<!-- Node10&#45;&gt;Node2 -->
<g id="edge16" class="edge">
<title>Node10&#45;&gt;Node2</title>
<path fill="none" stroke="#191970" d="M217.9646,-134.2967C231.5085,-125.1306 248.9475,-113.3285 263.7575,-103.3055"/>
<polygon fill="#191970" stroke="#191970" points="265.8042,-106.1466 272.1243,-97.6432 261.8809,-100.3494 265.8042,-106.1466"/>
</g>
<!-- Node10&#45;&gt;Node4 -->
<g id="edge17" class="edge">
<title>Node10&#45;&gt;Node4</title>
<path fill="none" stroke="#191970" d="M198.1256,-134.4471C200.372,-116.524 201.2396,-86.562 186.5,-67 172.8728,-48.9143 151.7934,-37.1524 130.75,-29.5141"/>
<polygon fill="#191970" stroke="#191970" points="131.7047,-26.1428 121.1108,-26.2868 129.4823,-32.7807 131.7047,-26.1428"/>
</g>
<!-- Node10&#45;&gt;Node5 -->
<g id="edge18" class="edge">
<title>Node10&#45;&gt;Node5</title>
<path fill="none" stroke="#191970" d="M248.9118,-134.4639C284.7674,-124.3701 332.1759,-111.024 369.9689,-100.3848"/>
<polygon fill="#191970" stroke="#191970" points="371.1778,-103.6806 379.8552,-97.6017 369.2809,-96.9425 371.1778,-103.6806"/>
</g>
<!-- Node11 -->
<g id="node12" class="node">
<title>Node11</title>
<polygon fill="#ffffff" stroke="#bfbfbf" points="136,-73 136,-92 177,-92 177,-73 136,-73"/>
<text text-anchor="middle" x="156.5" y="-80" font-family="Helvetica,sans-Serif" font-size="10.00" fill="#000000">tuple</text>
</g>
<!-- Node10&#45;&gt;Node11 -->
<g id="edge15" class="edge">
<title>Node10&#45;&gt;Node11</title>
<path fill="none" stroke="#191970" d="M186.6503,-134.2967C180.8689,-124.3645 173.2858,-111.3371 167.1709,-100.8321"/>
<polygon fill="#191970" stroke="#191970" points="170.1175,-98.9367 162.0618,-92.055 164.0677,-102.4582 170.1175,-98.9367"/>
</g>
<!-- Node12&#45;&gt;Node1 -->
<g id="edge20" class="edge">
<title>Node12&#45;&gt;Node1</title>
<path fill="none" stroke="#191970" d="M156.892,-201.3351C140.4829,-192.9918 122.6103,-181.0263 111.5,-165 98.6198,-146.4206 95.4701,-120.1073 94.9903,-102.2295"/>
<polygon fill="#191970" stroke="#191970" points="98.4903,-102.0951 94.9792,-92.099 91.4903,-102.1029 98.4903,-102.0951"/>
</g>
<!-- Node12&#45;&gt;Node2 -->
<g id="edge21" class="edge">
<title>Node12&#45;&gt;Node2</title>
<path fill="none" stroke="#191970" d="M235.1752,-201.3376C251.6921,-193.0476 269.5381,-181.1239 280.5,-165 291.9312,-148.1859 295.0479,-125.0991 295.5246,-107.6234"/>
<polygon fill="#191970" stroke="#191970" points="299.0246,-107.5758 295.531,-97.5736 292.0246,-107.5713 299.0246,-107.5758"/>
</g>
<!-- Node12&#45;&gt;Node4 -->
<g id="edge22" class="edge">
<title>Node12&#45;&gt;Node4</title>
<path fill="none" stroke="#191970" d="M150.7636,-201.4433C131.4894,-193.1481 109.8924,-181.1908 94.5,-165 62.3694,-131.2029 58.2927,-73.6469 58.9203,-40.6798"/>
<polygon fill="#191970" stroke="#191970" points="62.4242,-40.6296 59.2798,-30.5121 55.4285,-40.3822 62.4242,-40.6296"/>
</g>
<!-- Node12&#45;&gt;Node5 -->
<g id="edge23" class="edge">
<title>Node12&#45;&gt;Node5</title>
<path fill="none" stroke="#191970" d="M227.755,-201.4722C248.495,-191.5787 275.8825,-178.0816 299.5,-165 335.1422,-145.258 374.7351,-120.5181 401.5785,-103.3041"/>
<polygon fill="#191970" stroke="#191970" points="403.6559,-106.1293 410.1691,-97.7729 399.8664,-100.2438 403.6559,-106.1293"/>
</g>
<!-- Node12&#45;&gt;Node10 -->
<g id="edge24" class="edge">
<title>Node12&#45;&gt;Node10</title>
<path fill="none" stroke="#191970" d="M195.5,-201.2967C195.5,-193.5013 195.5,-183.7991 195.5,-174.9064"/>
<polygon fill="#191970" stroke="#191970" points="199.0001,-174.6431 195.5,-164.6432 192.0001,-174.6432 199.0001,-174.6431"/>
</g>
</g>
</svg>
