<?xml version="1.0" encoding="UTF-8" standalone="no"?>
<!DOCTYPE svg PUBLIC "-//W3C//DTD SVG 1.1//EN"
 "http://www.w3.org/Graphics/SVG/1.1/DTD/svg11.dtd">
<!-- Generated by graphviz version 2.40.1 (20161225.0304)
 -->
<!-- Title: drake/multibody/multibody_tree/test_utilities/spatial_kinematics.h Pages: 1 -->
<svg width="1110pt" height="206pt"
 viewBox="0.00 0.00 1109.50 206.00" xmlns="http://www.w3.org/2000/svg" xmlns:xlink="http://www.w3.org/1999/xlink">
<g id="graph0" class="graph" transform="scale(1 1) rotate(0) translate(4 202)">
<title>drake/multibody/multibody_tree/test_utilities/spatial_kinematics.h</title>
<polygon fill="#ffffff" stroke="transparent" points="-4,4 -4,-202 1105.5,-202 1105.5,4 -4,4"/>
<!-- Node8 -->
<g id="node1" class="node">
<title>Node8</title>
<polygon fill="#bfbfbf" stroke="#000000" points="401.5,-156.5 401.5,-197.5 550.5,-197.5 550.5,-156.5 401.5,-156.5"/>
<text text-anchor="start" x="409.5" y="-185.5" font-family="Helvetica,sans-Serif" font-size="10.00" fill="#000000">drake/multibody/multibody</text>
<text text-anchor="start" x="409.5" y="-174.5" font-family="Helvetica,sans-Serif" font-size="10.00" fill="#000000">_tree/test_utilities/spatial</text>
<text text-anchor="middle" x="476" y="-163.5" font-family="Helvetica,sans-Serif" font-size="10.00" fill="#000000">_kinematics.h</text>
</g>
<!-- Node9 -->
<g id="node2" class="node">
<title>Node9</title>
<g id="a_node2"><a xlink:href="drake__kuka__iiwa__robot_8h.html" target="_top" xlink:title="drake/multibody/benchmarks\l/kuka_iiwa_robot/drake_kuka\l_iiwa_robot.h">
<polygon fill="#ffffff" stroke="#000000" points="305,-78.5 305,-119.5 465,-119.5 465,-78.5 305,-78.5"/>
<text text-anchor="start" x="313" y="-107.5" font-family="Helvetica,sans-Serif" font-size="10.00" fill="#000000">drake/multibody/benchmarks</text>
<text text-anchor="start" x="313" y="-96.5" font-family="Helvetica,sans-Serif" font-size="10.00" fill="#000000">/kuka_iiwa_robot/drake_kuka</text>
<text text-anchor="middle" x="385" y="-85.5" font-family="Helvetica,sans-Serif" font-size="10.00" fill="#000000">_iiwa_robot.h</text>
</a>
</g>
</g>
<!-- Node8&#45;&gt;Node9 -->
<g id="edge1" class="edge">
<title>Node8&#45;&gt;Node9</title>
<path fill="none" stroke="#191970" d="M443.9309,-149.5122C432.4883,-139.7043 419.8009,-128.8293 409.1381,-119.6898"/>
<polygon fill="#191970" stroke="#191970" points="441.7433,-152.2469 451.6137,-156.0974 446.2989,-146.9321 441.7433,-152.2469"/>
</g>
<!-- Node13 -->
<g id="node6" class="node">
<title>Node13</title>
<g id="a_node6"><a xlink:href="_m_g__kuka__iiwa__robot_8h.html" target="_top" xlink:title="drake/multibody/benchmarks\l/kuka_iiwa_robot/MG/MG_kuka\l_iiwa_robot.h">
<polygon fill="#ffffff" stroke="#000000" points="494.5,-78.5 494.5,-119.5 661.5,-119.5 661.5,-78.5 494.5,-78.5"/>
<text text-anchor="start" x="502.5" y="-107.5" font-family="Helvetica,sans-Serif" font-size="10.00" fill="#000000">drake/multibody/benchmarks</text>
<text text-anchor="start" x="502.5" y="-96.5" font-family="Helvetica,sans-Serif" font-size="10.00" fill="#000000">/kuka_iiwa_robot/MG/MG_kuka</text>
<text text-anchor="middle" x="578" y="-85.5" font-family="Helvetica,sans-Serif" font-size="10.00" fill="#000000">_iiwa_robot.h</text>
</a>
</g>
</g>
<!-- Node8&#45;&gt;Node13 -->
<g id="edge5" class="edge">
<title>Node8&#45;&gt;Node13</title>
<path fill="none" stroke="#191970" d="M511.0106,-150.2272C524.1543,-140.1761 538.8743,-128.9196 551.1611,-119.5239"/>
<polygon fill="#191970" stroke="#191970" points="508.8838,-147.4474 503.0663,-156.3022 513.136,-153.0079 508.8838,-147.4474"/>
</g>
<!-- Node10 -->
<g id="node3" class="node">
<title>Node10</title>
<g id="a_node3"><a xlink:href="drake__kuka__iiwa__robot_8cc.html" target="_top" xlink:title="drake/multibody/benchmarks\l/kuka_iiwa_robot/drake_kuka\l_iiwa_robot.cc">
<polygon fill="#ffffff" stroke="#000000" points="0,-.5 0,-41.5 160,-41.5 160,-.5 0,-.5"/>
<text text-anchor="start" x="8" y="-29.5" font-family="Helvetica,sans-Serif" font-size="10.00" fill="#000000">drake/multibody/benchmarks</text>
<text text-anchor="start" x="8" y="-18.5" font-family="Helvetica,sans-Serif" font-size="10.00" fill="#000000">/kuka_iiwa_robot/drake_kuka</text>
<text text-anchor="middle" x="80" y="-7.5" font-family="Helvetica,sans-Serif" font-size="10.00" fill="#000000">_iiwa_robot.cc</text>
</a>
</g>
</g>
<!-- Node9&#45;&gt;Node10 -->
<g id="edge2" class="edge">
<title>Node9&#45;&gt;Node10</title>
<path fill="none" stroke="#191970" d="M295.0234,-75.9896C252.2562,-65.0524 201.5547,-52.0861 160.1289,-41.492"/>
<polygon fill="#191970" stroke="#191970" points="294.3094,-79.4196 304.8648,-78.5064 296.0438,-72.6378 294.3094,-79.4196"/>
</g>
<!-- Node11 -->
<g id="node4" class="node">
<title>Node11</title>
<g id="a_node4"><a xlink:href="kuka__iiwa__robot__inverse__dynamics__test_8cc.html" target="_top" xlink:title="drake/multibody/benchmarks\l/kuka_iiwa_robot/test/kuka\l_iiwa_robot_inverse_dynamics_test.cc">
<polygon fill="#ffffff" stroke="#000000" points="178,-.5 178,-41.5 382,-41.5 382,-.5 178,-.5"/>
<text text-anchor="start" x="186" y="-29.5" font-family="Helvetica,sans-Serif" font-size="10.00" fill="#000000">drake/multibody/benchmarks</text>
<text text-anchor="start" x="186" y="-18.5" font-family="Helvetica,sans-Serif" font-size="10.00" fill="#000000">/kuka_iiwa_robot/test/kuka</text>
<text text-anchor="middle" x="280" y="-7.5" font-family="Helvetica,sans-Serif" font-size="10.00" fill="#000000">_iiwa_robot_inverse_dynamics_test.cc</text>
</a>
</g>
</g>
<!-- Node9&#45;&gt;Node11 -->
<g id="edge3" class="edge">
<title>Node9&#45;&gt;Node11</title>
<path fill="none" stroke="#191970" d="M348.9597,-72.2272C335.4294,-62.1761 320.2764,-50.9196 307.6283,-41.5239"/>
<polygon fill="#191970" stroke="#191970" points="347.023,-75.1485 357.1376,-78.3022 351.1973,-69.5293 347.023,-75.1485"/>
</g>
<!-- Node12 -->
<g id="node5" class="node">
<title>Node12</title>
<g id="a_node5"><a xlink:href="kuka__iiwa__robot__kinematics__test_8cc.html" target="_top" xlink:title="drake/multibody/benchmarks\l/kuka_iiwa_robot/test/kuka\l_iiwa_robot_kinematics_test.cc">
<polygon fill="#ffffff" stroke="#000000" points="400,-.5 400,-41.5 570,-41.5 570,-.5 400,-.5"/>
<text text-anchor="start" x="408" y="-29.5" font-family="Helvetica,sans-Serif" font-size="10.00" fill="#000000">drake/multibody/benchmarks</text>
<text text-anchor="start" x="408" y="-18.5" font-family="Helvetica,sans-Serif" font-size="10.00" fill="#000000">/kuka_iiwa_robot/test/kuka</text>
<text text-anchor="middle" x="485" y="-7.5" font-family="Helvetica,sans-Serif" font-size="10.00" fill="#000000">_iiwa_robot_kinematics_test.cc</text>
</a>
</g>
</g>
<!-- Node9&#45;&gt;Node12 -->
<g id="edge4" class="edge">
<title>Node9&#45;&gt;Node12</title>
<path fill="none" stroke="#191970" d="M419.6892,-71.9424C432.4822,-61.9639 446.7551,-50.831 458.6874,-41.5239"/>
<polygon fill="#191970" stroke="#191970" points="417.268,-69.3921 411.5356,-78.3022 421.5733,-74.9116 417.268,-69.3921"/>
</g>
<!-- Node13&#45;&gt;Node11 -->
<g id="edge8" class="edge">
<title>Node13&#45;&gt;Node11</title>
<path fill="none" stroke="#191970" d="M489.4563,-75.8241C447.825,-64.9273 398.611,-52.0458 358.3512,-41.508"/>
<polygon fill="#191970" stroke="#191970" points="488.7538,-79.2581 499.3142,-78.4044 490.5264,-72.4862 488.7538,-79.2581"/>
</g>
<!-- Node13&#45;&gt;Node12 -->
<g id="edge9" class="edge">
<title>Node13&#45;&gt;Node12</title>
<path fill="none" stroke="#191970" d="M545.2261,-71.5122C533.532,-61.7043 520.5657,-50.8293 509.6686,-41.6898"/>
<polygon fill="#191970" stroke="#191970" points="543.1666,-74.353 553.0777,-78.0974 547.6649,-68.9896 543.1666,-74.353"/>
</g>
<!-- Node14 -->
<g id="node7" class="node">
<title>Node14</title>
<g id="a_node7"><a xlink:href="_m_g__kuka__iiwa__robot_8cc.html" target="_top" xlink:title="drake/multibody/benchmarks\l/kuka_iiwa_robot/MG/MG_kuka\l_iiwa_robot.cc">
<polygon fill="#ffffff" stroke="#000000" points="588.5,-.5 588.5,-41.5 755.5,-41.5 755.5,-.5 588.5,-.5"/>
<text text-anchor="start" x="596.5" y="-29.5" font-family="Helvetica,sans-Serif" font-size="10.00" fill="#000000">drake/multibody/benchmarks</text>
<text text-anchor="start" x="596.5" y="-18.5" font-family="Helvetica,sans-Serif" font-size="10.00" fill="#000000">/kuka_iiwa_robot/MG/MG_kuka</text>
<text text-anchor="middle" x="672" y="-7.5" font-family="Helvetica,sans-Serif" font-size="10.00" fill="#000000">_iiwa_robot.cc</text>
</a>
</g>
</g>
<!-- Node13&#45;&gt;Node14 -->
<g id="edge6" class="edge">
<title>Node13&#45;&gt;Node14</title>
<path fill="none" stroke="#191970" d="M611.1263,-71.5122C622.9461,-61.7043 636.0519,-50.8293 647.0661,-41.6898"/>
<polygon fill="#191970" stroke="#191970" points="608.6509,-69.0182 603.1903,-78.0974 613.1209,-74.4051 608.6509,-69.0182"/>
</g>
<!-- Node15 -->
<g id="node8" class="node">
<title>Node15</title>
<g id="a_node8"><a xlink:href="_m_g__kuka__iiwa__robot__test_8cc.html" target="_top" xlink:title="drake/multibody/benchmarks\l/kuka_iiwa_robot/MG/test\l/MG_kuka_iiwa_robot_test.cc">
<polygon fill="#ffffff" stroke="#000000" points="774,-.5 774,-41.5 934,-41.5 934,-.5 774,-.5"/>
<text text-anchor="start" x="782" y="-29.5" font-family="Helvetica,sans-Serif" font-size="10.00" fill="#000000">drake/multibody/benchmarks</text>
<text text-anchor="start" x="782" y="-18.5" font-family="Helvetica,sans-Serif" font-size="10.00" fill="#000000">/kuka_iiwa_robot/MG/test</text>
<text text-anchor="middle" x="854" y="-7.5" font-family="Helvetica,sans-Serif" font-size="10.00" fill="#000000">/MG_kuka_iiwa_robot_test.cc</text>
</a>
</g>
</g>
<!-- Node13&#45;&gt;Node15 -->
<g id="edge7" class="edge">
<title>Node13&#45;&gt;Node15</title>
<path fill="none" stroke="#191970" d="M660.9642,-75.5536C699.2348,-64.738 744.259,-52.0138 781.1938,-41.5757"/>
<polygon fill="#191970" stroke="#191970" points="659.548,-72.3167 650.8768,-78.4044 661.4517,-79.0528 659.548,-72.3167"/>
</g>
<!-- Node16 -->
<g id="node9" class="node">
<title>Node16</title>
<g id="a_node9"><a xlink:href="multibody__tree__test_8cc.html" target="_top" xlink:title="drake/multibody/multibody\l_tree/test/multibody_tree\l_test.cc">
<polygon fill="#ffffff" stroke="#000000" points="952.5,-.5 952.5,-41.5 1101.5,-41.5 1101.5,-.5 952.5,-.5"/>
<text text-anchor="start" x="960.5" y="-29.5" font-family="Helvetica,sans-Serif" font-size="10.00" fill="#000000">drake/multibody/multibody</text>
<text text-anchor="start" x="960.5" y="-18.5" font-family="Helvetica,sans-Serif" font-size="10.00" fill="#000000">_tree/test/multibody_tree</text>
<text text-anchor="middle" x="1027" y="-7.5" font-family="Helvetica,sans-Serif" font-size="10.00" fill="#000000">_test.cc</text>
</a>
</g>
</g>
<!-- Node13&#45;&gt;Node16 -->
<g id="edge10" class="edge">
<title>Node13&#45;&gt;Node16</title>
<path fill="none" stroke="#191970" d="M671.9586,-86.6996C745.922,-76.4459 851.4472,-60.5535 943,-42 946.0939,-41.373 949.2454,-40.7076 952.4243,-40.0142"/>
<polygon fill="#191970" stroke="#191970" points="671.1646,-83.2758 661.7363,-88.1087 672.1206,-90.2103 671.1646,-83.2758"/>
</g>
</g>
</svg>
