<?xml version="1.0" encoding="UTF-8" standalone="no"?>
<!DOCTYPE svg PUBLIC "-//W3C//DTD SVG 1.1//EN"
 "http://www.w3.org/Graphics/SVG/1.1/DTD/svg11.dtd">
<!-- Generated by graphviz version 2.40.1 (20161225.0304)
 -->
<!-- Title: drake/automotive/maliput/api/rules/speed_limit_rule.h Pages: 1 -->
<svg width="864pt" height="351pt"
 viewBox="0.00 0.00 863.59 351.00" xmlns="http://www.w3.org/2000/svg" xmlns:xlink="http://www.w3.org/1999/xlink">
<g id="graph0" class="graph" transform="scale(1 1) rotate(0) translate(4 347)">
<title>drake/automotive/maliput/api/rules/speed_limit_rule.h</title>
<polygon fill="#ffffff" stroke="transparent" points="-4,4 -4,-347 859.591,-347 859.591,4 -4,4"/>
<!-- Node74 -->
<g id="node1" class="node">
<title>Node74</title>
<polygon fill="#bfbfbf" stroke="#000000" points="317.891,-312.5 317.891,-342.5 472.891,-342.5 472.891,-312.5 317.891,-312.5"/>
<text text-anchor="start" x="325.891" y="-330.5" font-family="Helvetica,sans-Serif" font-size="10.00" fill="#000000">drake/automotive/maliput</text>
<text text-anchor="middle" x="395.391" y="-319.5" font-family="Helvetica,sans-Serif" font-size="10.00" fill="#000000">/api/rules/speed_limit_rule.h</text>
</g>
<!-- Node75 -->
<g id="node2" class="node">
<title>Node75</title>
<g id="a_node2"><a xlink:href="road__rulebook_8h.html" target="_top" xlink:title="drake/automotive/maliput\l/api/rules/road_rulebook.h">
<polygon fill="#ffffff" stroke="#000000" points="204.391,-240 204.391,-270 348.391,-270 348.391,-240 204.391,-240"/>
<text text-anchor="start" x="212.391" y="-258" font-family="Helvetica,sans-Serif" font-size="10.00" fill="#000000">drake/automotive/maliput</text>
<text text-anchor="middle" x="276.391" y="-247" font-family="Helvetica,sans-Serif" font-size="10.00" fill="#000000">/api/rules/road_rulebook.h</text>
</a>
</g>
</g>
<!-- Node74&#45;&gt;Node75 -->
<g id="edge1" class="edge">
<title>Node74&#45;&gt;Node75</title>
<path fill="none" stroke="#191970" d="M362.1888,-307.2718C342.7889,-295.4525 318.7196,-280.7884 301.0163,-270.0028"/>
<polygon fill="#191970" stroke="#191970" points="360.3732,-310.264 370.7341,-312.478 364.0152,-304.286 360.3732,-310.264"/>
</g>
<!-- Node76 -->
<g id="node3" class="node">
<title>Node76</title>
<g id="a_node3"><a xlink:href="rules__road__rulebook__test_8cc.html" target="_top" xlink:title="drake/automotive/maliput\l/api/test/rules_road_rulebook\l_test.cc">
<polygon fill="#ffffff" stroke="#000000" points="63.391,-156.5 63.391,-197.5 221.391,-197.5 221.391,-156.5 63.391,-156.5"/>
<text text-anchor="start" x="71.391" y="-185.5" font-family="Helvetica,sans-Serif" font-size="10.00" fill="#000000">drake/automotive/maliput</text>
<text text-anchor="start" x="71.391" y="-174.5" font-family="Helvetica,sans-Serif" font-size="10.00" fill="#000000">/api/test/rules_road_rulebook</text>
<text text-anchor="middle" x="142.391" y="-163.5" font-family="Helvetica,sans-Serif" font-size="10.00" fill="#000000">_test.cc</text>
</a>
</g>
</g>
<!-- Node74&#45;&gt;Node76 -->
<g id="edge10" class="edge">
<title>Node74&#45;&gt;Node76</title>
<path fill="none" stroke="#191970" d="M307.792,-312.1451C262.6103,-302.8323 213.2893,-290.0536 195.391,-276 169.9373,-256.0139 155.2089,-220.3206 147.9989,-197.694"/>
<polygon fill="#191970" stroke="#191970" points="307.1617,-315.5884 317.6568,-314.1383 308.548,-308.727 307.1617,-315.5884"/>
</g>
<!-- Node77 -->
<g id="node4" class="node">
<title>Node77</title>
<g id="a_node4"><a xlink:href="simple__rulebook_8h.html" target="_top" xlink:title="drake/automotive/maliput\l/simplerulebook/simple\l_rulebook.h">
<polygon fill="#ffffff" stroke="#000000" points="239.391,-156.5 239.391,-197.5 383.391,-197.5 383.391,-156.5 239.391,-156.5"/>
<text text-anchor="start" x="247.391" y="-185.5" font-family="Helvetica,sans-Serif" font-size="10.00" fill="#000000">drake/automotive/maliput</text>
<text text-anchor="start" x="247.391" y="-174.5" font-family="Helvetica,sans-Serif" font-size="10.00" fill="#000000">/simplerulebook/simple</text>
<text text-anchor="middle" x="311.391" y="-163.5" font-family="Helvetica,sans-Serif" font-size="10.00" fill="#000000">_rulebook.h</text>
</a>
</g>
</g>
<!-- Node74&#45;&gt;Node77 -->
<g id="edge17" class="edge">
<title>Node74&#45;&gt;Node77</title>
<path fill="none" stroke="#191970" d="M387.5386,-302.6731C380.8831,-283.276 370.3611,-256.0092 357.391,-234 349.7728,-221.0725 339.4043,-207.9521 330.4395,-197.5633"/>
<polygon fill="#191970" stroke="#191970" points="384.2622,-303.912 390.7442,-312.2926 390.9032,-301.6989 384.2622,-303.912"/>
</g>
<!-- Node79 -->
<g id="node6" class="node">
<title>Node79</title>
<g id="a_node6"><a xlink:href="simple__rulebook__test_8cc.html" target="_top" xlink:title="drake/automotive/maliput\l/simplerulebook/test/simple\l_rulebook_test.cc">
<polygon fill="#ffffff" stroke="#000000" points="359.891,-78.5 359.891,-119.5 512.891,-119.5 512.891,-78.5 359.891,-78.5"/>
<text text-anchor="start" x="367.891" y="-107.5" font-family="Helvetica,sans-Serif" font-size="10.00" fill="#000000">drake/automotive/maliput</text>
<text text-anchor="start" x="367.891" y="-96.5" font-family="Helvetica,sans-Serif" font-size="10.00" fill="#000000">/simplerulebook/test/simple</text>
<text text-anchor="middle" x="436.391" y="-85.5" font-family="Helvetica,sans-Serif" font-size="10.00" fill="#000000">_rulebook_test.cc</text>
</a>
</g>
</g>
<!-- Node74&#45;&gt;Node79 -->
<g id="edge18" class="edge">
<title>Node74&#45;&gt;Node79</title>
<path fill="none" stroke="#191970" d="M399.9297,-302.2049C408.1013,-256.6632 425.138,-161.7151 432.6713,-119.7307"/>
<polygon fill="#191970" stroke="#191970" points="396.466,-301.6917 398.1448,-312.1527 403.356,-302.928 396.466,-301.6917"/>
</g>
<!-- Node80 -->
<g id="node7" class="node">
<title>Node80</title>
<g id="a_node7"><a xlink:href="yaml__io__test_8cc.html" target="_top" xlink:title="drake/automotive/maliput\l/simplerulebook/test/yaml\l_io_test.cc">
<polygon fill="#ffffff" stroke="#000000" points="88.891,-.5 88.891,-41.5 233.891,-41.5 233.891,-.5 88.891,-.5"/>
<text text-anchor="start" x="96.891" y="-29.5" font-family="Helvetica,sans-Serif" font-size="10.00" fill="#000000">drake/automotive/maliput</text>
<text text-anchor="start" x="96.891" y="-18.5" font-family="Helvetica,sans-Serif" font-size="10.00" fill="#000000">/simplerulebook/test/yaml</text>
<text text-anchor="middle" x="161.391" y="-7.5" font-family="Helvetica,sans-Serif" font-size="10.00" fill="#000000">_io_test.cc</text>
</a>
</g>
</g>
<!-- Node74&#45;&gt;Node80 -->
<g id="edge19" class="edge">
<title>Node74&#45;&gt;Node80</title>
<path fill="none" stroke="#191970" d="M307.556,-317.1735C262.1674,-309.6502 206.7319,-296.9765 160.391,-276 107.1046,-251.8796 92.7468,-242.1596 54.391,-198 17.3373,-155.3395 -19.6408,-124.5495 12.391,-78 21.8898,-64.1962 55.6964,-50.7073 88.7103,-40.3194"/>
<polygon fill="#191970" stroke="#191970" points="307.2459,-320.6683 317.6735,-318.7934 308.3527,-313.7563 307.2459,-320.6683"/>
</g>
<!-- Node82 -->
<g id="node9" class="node">
<title>Node82</title>
<g id="a_node9"><a xlink:href="yaml__io_8cc.html" target="_top" xlink:title="drake/automotive/maliput\l/simplerulebook/yaml_io.cc">
<polygon fill="#ffffff" stroke="#000000" points="299.891,-6 299.891,-36 450.891,-36 450.891,-6 299.891,-6"/>
<text text-anchor="start" x="307.891" y="-24" font-family="Helvetica,sans-Serif" font-size="10.00" fill="#000000">drake/automotive/maliput</text>
<text text-anchor="middle" x="375.391" y="-13" font-family="Helvetica,sans-Serif" font-size="10.00" fill="#000000">/simplerulebook/yaml_io.cc</text>
</a>
</g>
</g>
<!-- Node74&#45;&gt;Node82 -->
<g id="edge20" class="edge">
<title>Node74&#45;&gt;Node82</title>
<path fill="none" stroke="#191970" d="M483.2184,-315.6522C602.7073,-297.4425 806.3784,-258.2366 847.391,-198 857.8965,-182.5702 858.6299,-170.9041 847.391,-156 799.6673,-92.7129 572.1266,-50.1243 451.2584,-31.5655"/>
<polygon fill="#191970" stroke="#191970" points="482.3592,-312.242 472.9913,-317.1909 483.4007,-319.1641 482.3592,-312.242"/>
</g>
<!-- Node83 -->
<g id="node10" class="node">
<title>Node83</title>
<g id="a_node10"><a xlink:href="rules__speed__limit__test_8cc.html" target="_top" xlink:title="drake/automotive/maliput\l/api/test/rules_speed_limit\l_test.cc">
<polygon fill="#ffffff" stroke="#000000" points="692.391,-156.5 692.391,-197.5 838.391,-197.5 838.391,-156.5 692.391,-156.5"/>
<text text-anchor="start" x="700.391" y="-185.5" font-family="Helvetica,sans-Serif" font-size="10.00" fill="#000000">drake/automotive/maliput</text>
<text text-anchor="start" x="700.391" y="-174.5" font-family="Helvetica,sans-Serif" font-size="10.00" fill="#000000">/api/test/rules_speed_limit</text>
<text text-anchor="middle" x="765.391" y="-163.5" font-family="Helvetica,sans-Serif" font-size="10.00" fill="#000000">_test.cc</text>
</a>
</g>
</g>
<!-- Node74&#45;&gt;Node83 -->
<g id="edge11" class="edge">
<title>Node74&#45;&gt;Node83</title>
<path fill="none" stroke="#191970" d="M482.8607,-310.4817C518.4855,-302.1454 559.6175,-290.6917 595.391,-276 647.5198,-254.5915 703.0728,-219.6532 735.9806,-197.5195"/>
<polygon fill="#191970" stroke="#191970" points="481.9324,-307.1036 472.9678,-312.7504 483.4971,-313.9265 481.9324,-307.1036"/>
</g>
<!-- Node84 -->
<g id="node11" class="node">
<title>Node84</title>
<g id="a_node11"><a xlink:href="rules__speed__limit__compare_8h.html" target="_top" xlink:title="drake/automotive/maliput\l/api/test_utilities/rules\l_speed_limit_compare.h">
<polygon fill="#ffffff" stroke="#000000" points="442.391,-234.5 442.391,-275.5 586.391,-275.5 586.391,-234.5 442.391,-234.5"/>
<text text-anchor="start" x="450.391" y="-263.5" font-family="Helvetica,sans-Serif" font-size="10.00" fill="#000000">drake/automotive/maliput</text>
<text text-anchor="start" x="450.391" y="-252.5" font-family="Helvetica,sans-Serif" font-size="10.00" fill="#000000">/api/test_utilities/rules</text>
<text text-anchor="middle" x="514.391" y="-241.5" font-family="Helvetica,sans-Serif" font-size="10.00" fill="#000000">_speed_limit_compare.h</text>
</a>
</g>
</g>
<!-- Node74&#45;&gt;Node84 -->
<g id="edge12" class="edge">
<title>Node74&#45;&gt;Node84</title>
<path fill="none" stroke="#191970" d="M428.6981,-307.2079C444.9452,-297.3094 464.4476,-285.4277 480.7402,-275.5015"/>
<polygon fill="#191970" stroke="#191970" points="426.7668,-304.286 420.0479,-312.478 430.4088,-310.264 426.7668,-304.286"/>
</g>
<!-- Node75&#45;&gt;Node76 -->
<g id="edge2" class="edge">
<title>Node75&#45;&gt;Node76</title>
<path fill="none" stroke="#191970" d="M241.8949,-234.9202C222.2154,-223.4649 197.5982,-209.1355 177.7732,-197.5956"/>
<polygon fill="#191970" stroke="#191970" points="240.1512,-237.9549 250.5545,-239.9608 243.6727,-231.9052 240.1512,-237.9549"/>
</g>
<!-- Node75&#45;&gt;Node77 -->
<g id="edge3" class="edge">
<title>Node75&#45;&gt;Node77</title>
<path fill="none" stroke="#191970" d="M287.2562,-230.7862C292.0303,-220.1468 297.5777,-207.784 302.1494,-197.5956"/>
<polygon fill="#191970" stroke="#191970" points="284.0401,-229.4043 283.1394,-239.9608 290.4266,-232.2701 284.0401,-229.4043"/>
</g>
<!-- Node78 -->
<g id="node5" class="node">
<title>Node78</title>
<g id="a_node5"><a xlink:href="simple__rulebook_8cc.html" target="_top" xlink:title="drake/automotive/maliput\l/simplerulebook/simple\l_rulebook.cc">
<polygon fill="#ffffff" stroke="#000000" points="33.391,-78.5 33.391,-119.5 177.391,-119.5 177.391,-78.5 33.391,-78.5"/>
<text text-anchor="start" x="41.391" y="-107.5" font-family="Helvetica,sans-Serif" font-size="10.00" fill="#000000">drake/automotive/maliput</text>
<text text-anchor="start" x="41.391" y="-96.5" font-family="Helvetica,sans-Serif" font-size="10.00" fill="#000000">/simplerulebook/simple</text>
<text text-anchor="middle" x="105.391" y="-85.5" font-family="Helvetica,sans-Serif" font-size="10.00" fill="#000000">_rulebook.cc</text>
</a>
</g>
</g>
<!-- Node77&#45;&gt;Node78 -->
<g id="edge4" class="edge">
<title>Node77&#45;&gt;Node78</title>
<path fill="none" stroke="#191970" d="M247.6385,-152.8607C219.4769,-142.1976 186.7126,-129.7917 159.7319,-119.5757"/>
<polygon fill="#191970" stroke="#191970" points="246.406,-156.1365 256.9975,-156.4044 248.8848,-149.59 246.406,-156.1365"/>
</g>
<!-- Node77&#45;&gt;Node79 -->
<g id="edge5" class="edge">
<title>Node77&#45;&gt;Node79</title>
<path fill="none" stroke="#191970" d="M353.3865,-150.7948C369.7218,-140.6016 388.1587,-129.0969 403.5002,-119.5239"/>
<polygon fill="#191970" stroke="#191970" points="351.1915,-148.0389 344.5605,-156.3022 354.8972,-153.9776 351.1915,-148.0389"/>
</g>
<!-- Node77&#45;&gt;Node80 -->
<g id="edge6" class="edge">
<title>Node77&#45;&gt;Node80</title>
<path fill="none" stroke="#191970" d="M229.1449,-156.1245C170.4924,-147.083 52.596,-153.5614 24.391,-120 12.3814,-105.7096 14.0326,-93.5289 24.391,-78 39.1152,-55.9261 64.1686,-42.3877 88.8559,-34.0896"/>
<polygon fill="#191970" stroke="#191970" points="228.5702,-159.5773 239.0367,-157.9329 229.8292,-152.6915 228.5702,-159.5773"/>
</g>
<!-- Node81 -->
<g id="node8" class="node">
<title>Node81</title>
<g id="a_node8"><a xlink:href="yaml__io_8h.html" target="_top" xlink:title="YAML IO for SimpleRulebook. ">
<polygon fill="#ffffff" stroke="#000000" points="195.391,-84 195.391,-114 341.391,-114 341.391,-84 195.391,-84"/>
<text text-anchor="start" x="203.391" y="-102" font-family="Helvetica,sans-Serif" font-size="10.00" fill="#000000">drake/automotive/maliput</text>
<text text-anchor="middle" x="268.391" y="-91" font-family="Helvetica,sans-Serif" font-size="10.00" fill="#000000">/simplerulebook/yaml_io.h</text>
</a>
</g>
</g>
<!-- Node77&#45;&gt;Node81 -->
<g id="edge7" class="edge">
<title>Node77&#45;&gt;Node81</title>
<path fill="none" stroke="#191970" d="M294.8685,-147.0289C288.6976,-135.8353 281.9479,-123.5916 276.8079,-114.2679"/>
<polygon fill="#191970" stroke="#191970" points="291.9748,-149.0298 299.8678,-156.0974 298.105,-145.6503 291.9748,-149.0298"/>
</g>
<!-- Node81&#45;&gt;Node80 -->
<g id="edge8" class="edge">
<title>Node81&#45;&gt;Node80</title>
<path fill="none" stroke="#191970" d="M239.563,-77.9852C224.0716,-66.6924 205.0465,-52.8237 189.644,-41.5956"/>
<polygon fill="#191970" stroke="#191970" points="237.6177,-80.8984 247.7603,-83.9608 241.7412,-75.2418 237.6177,-80.8984"/>
</g>
<!-- Node81&#45;&gt;Node82 -->
<g id="edge9" class="edge">
<title>Node81&#45;&gt;Node82</title>
<path fill="none" stroke="#191970" d="M297.4407,-77.8236C315.4622,-64.6864 338.1994,-48.1117 354.4586,-36.2592"/>
<polygon fill="#191970" stroke="#191970" points="295.0408,-75.2418 289.0217,-83.9608 299.1643,-80.8984 295.0408,-75.2418"/>
</g>
<!-- Node84&#45;&gt;Node79 -->
<g id="edge15" class="edge">
<title>Node84&#45;&gt;Node79</title>
<path fill="none" stroke="#191970" d="M499.5293,-225.2766C484.0901,-194.3982 460.3332,-146.8844 446.7916,-119.8013"/>
<polygon fill="#191970" stroke="#191970" points="496.4305,-226.9054 504.0332,-234.2844 502.6915,-223.7749 496.4305,-226.9054"/>
</g>
<!-- Node84&#45;&gt;Node80 -->
<g id="edge16" class="edge">
<title>Node84&#45;&gt;Node80</title>
<path fill="none" stroke="#191970" d="M516.673,-224.3833C520.1892,-175.1855 526.0612,-83.4544 521.391,-78 487.6013,-38.5365 341.6969,-50.1738 290.391,-42 272.1284,-39.0905 252.4195,-35.9051 234.0361,-32.9144"/>
<polygon fill="#191970" stroke="#191970" points="513.1737,-224.2485 515.9422,-234.4752 520.1554,-224.7541 513.1737,-224.2485"/>
</g>
<!-- Node84&#45;&gt;Node83 -->
<g id="edge13" class="edge">
<title>Node84&#45;&gt;Node83</title>
<path fill="none" stroke="#191970" d="M590.2849,-231.4154C624.9927,-220.6297 665.7333,-207.9693 699.1795,-197.5757"/>
<polygon fill="#191970" stroke="#191970" points="589.1775,-228.0944 580.6666,-234.4044 591.2548,-234.7791 589.1775,-228.0944"/>
</g>
<!-- Node85 -->
<g id="node12" class="node">
<title>Node85</title>
<g id="a_node12"><a xlink:href="rules__speed__limit__compare_8cc.html" target="_top" xlink:title="drake/automotive/maliput\l/api/test_utilities/rules\l_speed_limit_compare.cc">
<polygon fill="#ffffff" stroke="#000000" points="530.391,-156.5 530.391,-197.5 674.391,-197.5 674.391,-156.5 530.391,-156.5"/>
<text text-anchor="start" x="538.391" y="-185.5" font-family="Helvetica,sans-Serif" font-size="10.00" fill="#000000">drake/automotive/maliput</text>
<text text-anchor="start" x="538.391" y="-174.5" font-family="Helvetica,sans-Serif" font-size="10.00" fill="#000000">/api/test_utilities/rules</text>
<text text-anchor="middle" x="602.391" y="-163.5" font-family="Helvetica,sans-Serif" font-size="10.00" fill="#000000">_speed_limit_compare.cc</text>
</a>
</g>
</g>
<!-- Node84&#45;&gt;Node85 -->
<g id="edge14" class="edge">
<title>Node84&#45;&gt;Node85</title>
<path fill="none" stroke="#191970" d="M545.7224,-227.229C556.704,-217.4953 568.8366,-206.7414 579.0487,-197.6898"/>
<polygon fill="#191970" stroke="#191970" points="543.1353,-224.8451 537.9734,-234.0974 547.7785,-230.0835 543.1353,-224.8451"/>
</g>
</g>
</svg>
