<?xml version="1.0" encoding="UTF-8" standalone="no"?>
<!DOCTYPE svg PUBLIC "-//W3C//DTD SVG 1.1//EN"
 "http://www.w3.org/Graphics/SVG/1.1/DTD/svg11.dtd">
<!-- Generated by graphviz version 2.40.1 (20161225.0304)
 -->
<!-- Title: drake/systems/framework/state.h Pages: 1 -->
<svg width="2849pt" height="441pt"
 viewBox="0.00 0.00 2849.00 441.00" xmlns="http://www.w3.org/2000/svg" xmlns:xlink="http://www.w3.org/1999/xlink">
<g id="graph0" class="graph" transform="scale(1 1) rotate(0) translate(4 437)">
<title>drake/systems/framework/state.h</title>
<polygon fill="#ffffff" stroke="transparent" points="-4,4 -4,-437 2845,-437 2845,4 -4,4"/>
<!-- Node0 -->
<g id="node1" class="node">
<title>Node0</title>
<polygon fill="#bfbfbf" stroke="#000000" points="1313.5,-402.5 1313.5,-432.5 1458.5,-432.5 1458.5,-402.5 1313.5,-402.5"/>
<text text-anchor="start" x="1321.5" y="-420.5" font-family="Helvetica,sans-Serif" font-size="10.00" fill="#000000">drake/systems/framework</text>
<text text-anchor="middle" x="1386" y="-409.5" font-family="Helvetica,sans-Serif" font-size="10.00" fill="#000000">/state.h</text>
</g>
<!-- Node1 -->
<g id="node2" class="node">
<title>Node1</title>
<polygon fill="#ffffff" stroke="#bfbfbf" points="1303,-73 1303,-92 1361,-92 1361,-73 1303,-73"/>
<text text-anchor="middle" x="1332" y="-80" font-family="Helvetica,sans-Serif" font-size="10.00" fill="#000000">memory</text>
</g>
<!-- Node0&#45;&gt;Node1 -->
<g id="edge1" class="edge">
<title>Node0&#45;&gt;Node1</title>
<path fill="none" stroke="#191970" d="M1313.2851,-415.2029C1161.531,-408.7188 819.2562,-384.7098 748,-299 739.192,-288.4054 742.824,-280.7686 748,-268 763.5861,-229.5506 779.8916,-226.0024 813,-201 839.9762,-180.6285 852.4124,-184.5357 880,-165 896.6887,-153.1822 895.4203,-142.542 914,-134 948.052,-118.3446 1195.6792,-94.732 1292.9365,-85.9499"/>
<polygon fill="#191970" stroke="#191970" points="1293.3047,-89.431 1302.9514,-85.0501 1292.6783,-82.4591 1293.3047,-89.431"/>
</g>
<!-- Node2 -->
<g id="node3" class="node">
<title>Node2</title>
<polygon fill="#ffffff" stroke="#bfbfbf" points="2018.5,-6 2018.5,-25 2063.5,-25 2063.5,-6 2018.5,-6"/>
<text text-anchor="middle" x="2041" y="-13" font-family="Helvetica,sans-Serif" font-size="10.00" fill="#000000">utility</text>
</g>
<!-- Node0&#45;&gt;Node2 -->
<g id="edge2" class="edge">
<title>Node0&#45;&gt;Node2</title>
<path fill="none" stroke="#191970" d="M1458.5435,-415.246C1661.6785,-408.7178 2233.4517,-388.8039 2420,-366 2609.2611,-342.8645 2841,-474.1699 2841,-283.5 2841,-283.5 2841,-283.5 2841,-149.5 2841,-109.8416 2839.3121,-89.9939 2807,-67 2749.8738,-26.3478 2246.8594,-36.9722 2177,-31 2141.6741,-27.9801 2101.3314,-23.2156 2073.8178,-19.7657"/>
<polygon fill="#191970" stroke="#191970" points="2073.9417,-16.2535 2063.581,-18.4685 2073.0616,-23.1979 2073.9417,-16.2535"/>
</g>
<!-- Node3 -->
<g id="node4" class="node">
<title>Node3</title>
<polygon fill="#ffffff" stroke="#bfbfbf" points="2506.5,-73 2506.5,-92 2553.5,-92 2553.5,-73 2506.5,-73"/>
<text text-anchor="middle" x="2530" y="-80" font-family="Helvetica,sans-Serif" font-size="10.00" fill="#000000">vector</text>
</g>
<!-- Node0&#45;&gt;Node3 -->
<g id="edge3" class="edge">
<title>Node0&#45;&gt;Node3</title>
<path fill="none" stroke="#191970" d="M1458.6827,-414.2868C1743.0986,-401.2417 2765,-349.7605 2765,-283.5 2765,-283.5 2765,-283.5 2765,-216.5 2765,-178.8735 2773.0297,-160.1753 2746,-134 2686.4528,-76.3351 2641.7704,-123.8135 2563,-98 2561.1504,-97.3939 2559.269,-96.7097 2557.3902,-95.9751"/>
<polygon fill="#191970" stroke="#191970" points="2558.7449,-92.7477 2548.1759,-92.0078 2555.9766,-99.1771 2558.7449,-92.7477"/>
</g>
<!-- Node4 -->
<g id="node5" class="node">
<title>Node4</title>
<g id="a_node5"><a xlink:href="drake__copyable_8h.html" target="_top" xlink:title="Provides careful macros to selectively enable or disable the special member functions for copy&#45;constr...">
<polygon fill="#ffffff" stroke="#000000" points="225.5,-.5 225.5,-30.5 346.5,-30.5 346.5,-.5 225.5,-.5"/>
<text text-anchor="start" x="233.5" y="-18.5" font-family="Helvetica,sans-Serif" font-size="10.00" fill="#000000">drake/common/drake</text>
<text text-anchor="middle" x="286" y="-7.5" font-family="Helvetica,sans-Serif" font-size="10.00" fill="#000000">_copyable.h</text>
</a>
</g>
</g>
<!-- Node0&#45;&gt;Node4 -->
<g id="edge4" class="edge">
<title>Node0&#45;&gt;Node4</title>
<path fill="none" stroke="#191970" d="M1313.4341,-414.3282C1028.2542,-401.3926 0,-350.1315 0,-283.5 0,-283.5 0,-283.5 0,-149.5 0,-106.1576 16.5369,-91.9186 52,-67 78.0206,-48.7162 156.4365,-33.9012 215.3754,-24.9339"/>
<polygon fill="#191970" stroke="#191970" points="216.0221,-28.3762 225.395,-23.4368 214.9876,-21.4531 216.0221,-28.3762"/>
</g>
<!-- Node5 -->
<g id="node6" class="node">
<title>Node5</title>
<g id="a_node6"><a xlink:href="abstract__values_8h.html" target="_top" xlink:title="drake/systems/framework\l/abstract_values.h">
<polygon fill="#ffffff" stroke="#000000" points="1313.5,-268.5 1313.5,-298.5 1458.5,-298.5 1458.5,-268.5 1313.5,-268.5"/>
<text text-anchor="start" x="1321.5" y="-286.5" font-family="Helvetica,sans-Serif" font-size="10.00" fill="#000000">drake/systems/framework</text>
<text text-anchor="middle" x="1386" y="-275.5" font-family="Helvetica,sans-Serif" font-size="10.00" fill="#000000">/abstract_values.h</text>
</a>
</g>
</g>
<!-- Node0&#45;&gt;Node5 -->
<g id="edge5" class="edge">
<title>Node0&#45;&gt;Node5</title>
<path fill="none" stroke="#191970" d="M1386,-402.389C1386,-379.6691 1386,-336.438 1386,-308.8405"/>
<polygon fill="#191970" stroke="#191970" points="1389.5001,-308.7614 1386,-298.7614 1382.5001,-308.7614 1389.5001,-308.7614"/>
</g>
<!-- Node19 -->
<g id="node20" class="node">
<title>Node19</title>
<g id="a_node20"><a xlink:href="continuous__state_8h.html" target="_top" xlink:title="drake/systems/framework\l/continuous_state.h">
<polygon fill="#ffffff" stroke="#000000" points="540.5,-335.5 540.5,-365.5 685.5,-365.5 685.5,-335.5 540.5,-335.5"/>
<text text-anchor="start" x="548.5" y="-353.5" font-family="Helvetica,sans-Serif" font-size="10.00" fill="#000000">drake/systems/framework</text>
<text text-anchor="middle" x="613" y="-342.5" font-family="Helvetica,sans-Serif" font-size="10.00" fill="#000000">/continuous_state.h</text>
</a>
</g>
</g>
<!-- Node0&#45;&gt;Node19 -->
<g id="edge39" class="edge">
<title>Node0&#45;&gt;Node19</title>
<path fill="none" stroke="#191970" d="M1313.3476,-413.6953C1190.0506,-406.8424 932.0719,-390.7889 715,-366 708.7519,-365.2865 702.2992,-364.4772 695.8153,-363.6117"/>
<polygon fill="#191970" stroke="#191970" points="696.0093,-360.1055 685.6258,-362.2112 695.0561,-367.0403 696.0093,-360.1055"/>
</g>
<!-- Node33 -->
<g id="node34" class="node">
<title>Node33</title>
<g id="a_node34"><a xlink:href="discrete__values_8h.html" target="_top" xlink:title="drake/systems/framework\l/discrete_values.h">
<polygon fill="#ffffff" stroke="#000000" points="1414.5,-335.5 1414.5,-365.5 1559.5,-365.5 1559.5,-335.5 1414.5,-335.5"/>
<text text-anchor="start" x="1422.5" y="-353.5" font-family="Helvetica,sans-Serif" font-size="10.00" fill="#000000">drake/systems/framework</text>
<text text-anchor="middle" x="1487" y="-342.5" font-family="Helvetica,sans-Serif" font-size="10.00" fill="#000000">/discrete_values.h</text>
</a>
</g>
</g>
<!-- Node0&#45;&gt;Node33 -->
<g id="edge81" class="edge">
<title>Node0&#45;&gt;Node33</title>
<path fill="none" stroke="#191970" d="M1408.6664,-402.4639C1422.474,-393.3044 1440.3189,-381.4667 1455.4882,-371.4038"/>
<polygon fill="#191970" stroke="#191970" points="1457.6614,-374.1623 1464.0598,-365.7177 1453.7918,-368.3291 1457.6614,-374.1623"/>
</g>
<!-- Node5&#45;&gt;Node1 -->
<g id="edge6" class="edge">
<title>Node5&#45;&gt;Node1</title>
<path fill="none" stroke="#191970" d="M1381.9412,-268.3923C1372.3006,-232.5077 1348.0304,-142.1687 1337.2734,-102.1287"/>
<polygon fill="#191970" stroke="#191970" points="1340.5958,-101.0056 1334.6211,-92.2562 1333.8356,-102.8219 1340.5958,-101.0056"/>
</g>
<!-- Node5&#45;&gt;Node3 -->
<g id="edge7" class="edge">
<title>Node5&#45;&gt;Node3</title>
<path fill="none" stroke="#191970" d="M1458.5003,-282.3412C1639.0544,-278.953 2105.1038,-266.9886 2256,-232 2331.1017,-214.586 2348.7732,-202.7368 2416,-165 2451.3575,-145.1525 2488.7851,-116.3641 2510.7373,-98.57"/>
<polygon fill="#191970" stroke="#191970" points="2513.103,-101.1565 2518.6203,-92.1116 2508.6668,-95.7417 2513.103,-101.1565"/>
</g>
<!-- Node5&#45;&gt;Node4 -->
<g id="edge10" class="edge">
<title>Node5&#45;&gt;Node4</title>
<path fill="none" stroke="#191970" d="M1374.9535,-268.4066C1351.1602,-237.1931 1291.6322,-165.8101 1223,-134 1068.4298,-62.3588 547.4092,-28.9441 356.6984,-18.9014"/>
<polygon fill="#191970" stroke="#191970" points="356.6802,-15.3958 346.5116,-18.3707 356.316,-22.3863 356.6802,-15.3958"/>
</g>
<!-- Node6 -->
<g id="node7" class="node">
<title>Node6</title>
<g id="a_node7"><a xlink:href="drake__assert_8h.html" target="_top" xlink:title="Provides Drake&#39;s assertion implementation. ">
<polygon fill="#ffffff" stroke="#000000" points="1433.5,-67.5 1433.5,-97.5 1554.5,-97.5 1554.5,-67.5 1433.5,-67.5"/>
<text text-anchor="start" x="1441.5" y="-85.5" font-family="Helvetica,sans-Serif" font-size="10.00" fill="#000000">drake/common/drake</text>
<text text-anchor="middle" x="1494" y="-74.5" font-family="Helvetica,sans-Serif" font-size="10.00" fill="#000000">_assert.h</text>
</a>
</g>
</g>
<!-- Node5&#45;&gt;Node6 -->
<g id="edge8" class="edge">
<title>Node5&#45;&gt;Node6</title>
<path fill="none" stroke="#191970" d="M1392.943,-268.3744C1405.6152,-241.075 1433.7096,-181.9497 1461,-134 1466.3019,-124.6845 1472.5531,-114.7087 1478.1808,-106.0414"/>
<polygon fill="#191970" stroke="#191970" points="1481.1843,-107.844 1483.7538,-97.5654 1475.3353,-103.9982 1481.1843,-107.844"/>
</g>
<!-- Node8 -->
<g id="node9" class="node">
<title>Node8</title>
<g id="a_node9"><a xlink:href="value_8h.html" target="_top" xlink:title="drake/systems/framework\l/value.h">
<polygon fill="#ffffff" stroke="#000000" points="1911.5,-201.5 1911.5,-231.5 2056.5,-231.5 2056.5,-201.5 1911.5,-201.5"/>
<text text-anchor="start" x="1919.5" y="-219.5" font-family="Helvetica,sans-Serif" font-size="10.00" fill="#000000">drake/systems/framework</text>
<text text-anchor="middle" x="1984" y="-208.5" font-family="Helvetica,sans-Serif" font-size="10.00" fill="#000000">/value.h</text>
</a>
</g>
</g>
<!-- Node5&#45;&gt;Node8 -->
<g id="edge11" class="edge">
<title>Node5&#45;&gt;Node8</title>
<path fill="none" stroke="#191970" d="M1458.7287,-275.3515C1570.4842,-262.8304 1783.8012,-238.9303 1901.2869,-225.7672"/>
<polygon fill="#191970" stroke="#191970" points="1901.7623,-229.2359 1911.3104,-224.6442 1900.9828,-222.2794 1901.7623,-229.2359"/>
</g>
<!-- Node7 -->
<g id="node8" class="node">
<title>Node7</title>
<polygon fill="#ffffff" stroke="#bfbfbf" points="1626.5,-6 1626.5,-25 1695.5,-25 1695.5,-6 1626.5,-6"/>
<text text-anchor="middle" x="1661" y="-13" font-family="Helvetica,sans-Serif" font-size="10.00" fill="#000000">type_traits</text>
</g>
<!-- Node6&#45;&gt;Node7 -->
<g id="edge9" class="edge">
<title>Node6&#45;&gt;Node7</title>
<path fill="none" stroke="#191970" d="M1531.4781,-67.4639C1560.382,-55.8677 1599.9854,-39.9789 1627.7657,-28.8335"/>
<polygon fill="#191970" stroke="#191970" points="1629.0842,-32.0758 1637.0619,-25.1039 1626.4777,-25.5791 1629.0842,-32.0758"/>
</g>
<!-- Node8&#45;&gt;Node1 -->
<g id="edge12" class="edge">
<title>Node8&#45;&gt;Node1</title>
<path fill="none" stroke="#191970" d="M1911.3939,-212.0983C1828.0909,-205.9845 1687.8064,-192.4244 1570,-165 1494.2093,-147.3565 1408.7914,-114.3807 1363.7482,-95.9117"/>
<polygon fill="#191970" stroke="#191970" points="1365.0837,-92.6766 1354.5049,-92.0923 1362.4104,-99.146 1365.0837,-92.6766"/>
</g>
<!-- Node8&#45;&gt;Node2 -->
<g id="edge17" class="edge">
<title>Node8&#45;&gt;Node2</title>
<path fill="none" stroke="#191970" d="M1996.2095,-201.1745C2003.3853,-191.3792 2012.0029,-178.0962 2017,-165 2033.8773,-120.769 2038.8862,-64.7827 2040.3727,-35.4705"/>
<polygon fill="#191970" stroke="#191970" points="2043.8771,-35.435 2040.798,-25.2975 2036.8832,-35.1425 2043.8771,-35.435"/>
</g>
<!-- Node8&#45;&gt;Node4 -->
<g id="edge24" class="edge">
<title>Node8&#45;&gt;Node4</title>
<path fill="none" stroke="#191970" d="M1981.2156,-201.4382C1974.4208,-169.6224 1953.6839,-96.1104 1903,-67 1835.1894,-28.0528 661.3167,-17.8927 357.3822,-15.9099"/>
<polygon fill="#191970" stroke="#191970" points="356.9628,-12.4072 346.9405,-15.8428 356.9178,-19.4071 356.9628,-12.4072"/>
</g>
<!-- Node8&#45;&gt;Node7 -->
<g id="edge15" class="edge">
<title>Node8&#45;&gt;Node7</title>
<path fill="none" stroke="#191970" d="M1989.12,-201.0949C1997.9961,-171.1716 2012.2897,-104.8153 1979,-67 1961.1475,-46.7205 1789.0618,-27.7132 1705.753,-19.6121"/>
<polygon fill="#191970" stroke="#191970" points="1705.8589,-16.1062 1695.5698,-18.6332 1705.189,-23.0741 1705.8589,-16.1062"/>
</g>
<!-- Node9 -->
<g id="node10" class="node">
<title>Node9</title>
<polygon fill="#ffffff" stroke="#bfbfbf" points="590.5,-140 590.5,-159 655.5,-159 655.5,-140 590.5,-140"/>
<text text-anchor="middle" x="623" y="-147" font-family="Helvetica,sans-Serif" font-size="10.00" fill="#000000">stdexcept</text>
</g>
<!-- Node8&#45;&gt;Node9 -->
<g id="edge13" class="edge">
<title>Node8&#45;&gt;Node9</title>
<path fill="none" stroke="#191970" d="M1911.3508,-215.7521C1719.6758,-213.2893 1184.5509,-203.2434 741,-165 716.0314,-162.8472 688.2341,-159.2549 665.8934,-156.0704"/>
<polygon fill="#191970" stroke="#191970" points="666.1214,-152.567 655.7226,-154.5955 665.1167,-159.4945 666.1214,-152.567"/>
</g>
<!-- Node10 -->
<g id="node11" class="node">
<title>Node10</title>
<polygon fill="#ffffff" stroke="#bfbfbf" points="2322,-73 2322,-92 2366,-92 2366,-73 2322,-73"/>
<text text-anchor="middle" x="2344" y="-80" font-family="Helvetica,sans-Serif" font-size="10.00" fill="#000000">string</text>
</g>
<!-- Node8&#45;&gt;Node10 -->
<g id="edge14" class="edge">
<title>Node8&#45;&gt;Node10</title>
<path fill="none" stroke="#191970" d="M2056.6534,-204.9006C2131.0965,-192.6716 2238.3837,-173.9627 2256,-165 2273.9353,-155.875 2274.3222,-147.766 2289,-134 2301.3174,-122.4478 2315.1981,-109.4506 2325.9333,-99.4033"/>
<polygon fill="#191970" stroke="#191970" points="2328.5413,-101.7562 2333.4514,-92.3679 2323.7583,-96.6451 2328.5413,-101.7562"/>
</g>
<!-- Node11 -->
<g id="node12" class="node">
<title>Node11</title>
<polygon fill="#ffffff" stroke="#bfbfbf" points="2069.5,-73 2069.5,-92 2126.5,-92 2126.5,-73 2069.5,-73"/>
<text text-anchor="middle" x="2098" y="-80" font-family="Helvetica,sans-Serif" font-size="10.00" fill="#000000">typeinfo</text>
</g>
<!-- Node8&#45;&gt;Node11 -->
<g id="edge16" class="edge">
<title>Node8&#45;&gt;Node11</title>
<path fill="none" stroke="#191970" d="M2010.6356,-201.3851C2025.0708,-192.23 2042.4663,-179.5272 2055,-165 2071.5041,-145.8709 2083.8935,-119.3172 2091.0347,-101.5538"/>
<polygon fill="#191970" stroke="#191970" points="2094.3846,-102.5938 2094.7086,-92.0039 2087.8514,-100.0804 2094.3846,-102.5938"/>
</g>
<!-- Node12 -->
<g id="node13" class="node">
<title>Node12</title>
<g id="a_node13"><a xlink:href="copyable__unique__ptr_8h.html" target="_top" xlink:title="drake/common/copyable\l_unique_ptr.h">
<polygon fill="#ffffff" stroke="#000000" points="1799.5,-134.5 1799.5,-164.5 1936.5,-164.5 1936.5,-134.5 1799.5,-134.5"/>
<text text-anchor="start" x="1807.5" y="-152.5" font-family="Helvetica,sans-Serif" font-size="10.00" fill="#000000">drake/common/copyable</text>
<text text-anchor="middle" x="1868" y="-141.5" font-family="Helvetica,sans-Serif" font-size="10.00" fill="#000000">_unique_ptr.h</text>
</a>
</g>
</g>
<!-- Node8&#45;&gt;Node12 -->
<g id="edge18" class="edge">
<title>Node8&#45;&gt;Node12</title>
<path fill="none" stroke="#191970" d="M1957.9673,-201.4639C1941.8126,-192.1332 1920.8462,-180.0232 1903.218,-169.8415"/>
<polygon fill="#191970" stroke="#191970" points="1904.7571,-166.6885 1894.3471,-164.7177 1901.256,-172.7501 1904.7571,-166.6885"/>
</g>
<!-- Node15 -->
<g id="node16" class="node">
<title>Node15</title>
<g id="a_node16"><a xlink:href="is__cloneable_8h.html" target="_top" xlink:title="drake/common/is_cloneable.h">
<polygon fill="#ffffff" stroke="#000000" points="1579.5,-140 1579.5,-159 1742.5,-159 1742.5,-140 1579.5,-140"/>
<text text-anchor="middle" x="1661" y="-147" font-family="Helvetica,sans-Serif" font-size="10.00" fill="#000000">drake/common/is_cloneable.h</text>
</a>
</g>
</g>
<!-- Node8&#45;&gt;Node15 -->
<g id="edge25" class="edge">
<title>Node8&#45;&gt;Node15</title>
<path fill="none" stroke="#191970" d="M1911.5125,-201.4639C1852.6262,-189.2491 1770.7793,-172.2716 1716.8828,-161.0918"/>
<polygon fill="#191970" stroke="#191970" points="1717.3265,-157.6094 1706.824,-159.0053 1715.9047,-164.4635 1717.3265,-157.6094"/>
</g>
<!-- Node16 -->
<g id="node17" class="node">
<title>Node16</title>
<g id="a_node17"><a xlink:href="nice__type__name_8h.html" target="_top" xlink:title="drake/common/nice_type\l_name.h">
<polygon fill="#ffffff" stroke="#000000" points="2107,-134.5 2107,-164.5 2247,-164.5 2247,-134.5 2107,-134.5"/>
<text text-anchor="start" x="2115" y="-152.5" font-family="Helvetica,sans-Serif" font-size="10.00" fill="#000000">drake/common/nice_type</text>
<text text-anchor="middle" x="2177" y="-141.5" font-family="Helvetica,sans-Serif" font-size="10.00" fill="#000000">_name.h</text>
</a>
</g>
</g>
<!-- Node8&#45;&gt;Node16 -->
<g id="edge28" class="edge">
<title>Node8&#45;&gt;Node16</title>
<path fill="none" stroke="#191970" d="M2027.313,-201.4639C2055.8942,-191.5419 2093.5278,-178.4774 2123.9094,-167.9304"/>
<polygon fill="#191970" stroke="#191970" points="2125.199,-171.1877 2133.4981,-164.6017 2122.9033,-164.5748 2125.199,-171.1877"/>
</g>
<!-- Node12&#45;&gt;Node1 -->
<g id="edge21" class="edge">
<title>Node12&#45;&gt;Node1</title>
<path fill="none" stroke="#191970" d="M1799.3598,-140.1492C1783.488,-138.0585 1766.6625,-135.8994 1751,-134 1605.852,-116.3979 1568.8158,-118.1538 1424,-98 1406.7604,-95.6008 1387.7831,-92.4846 1371.5647,-89.6761"/>
<polygon fill="#191970" stroke="#191970" points="1371.8055,-86.165 1361.3513,-87.8856 1370.5967,-93.0599 1371.8055,-86.165"/>
</g>
<!-- Node12&#45;&gt;Node2 -->
<g id="edge22" class="edge">
<title>Node12&#45;&gt;Node2</title>
<path fill="none" stroke="#191970" d="M1887.509,-134.389C1920.443,-108.8794 1986.7603,-57.5122 2020.4095,-31.4487"/>
<polygon fill="#191970" stroke="#191970" points="2022.838,-33.9948 2028.6006,-25.1042 2018.5515,-28.4607 2022.838,-33.9948"/>
</g>
<!-- Node12&#45;&gt;Node6 -->
<g id="edge23" class="edge">
<title>Node12&#45;&gt;Node6</title>
<path fill="none" stroke="#191970" d="M1799.1668,-136.5938C1794.3734,-135.711 1789.6151,-134.8393 1785,-134 1709.7257,-120.3108 1623.4056,-105.0949 1564.4504,-94.7759"/>
<polygon fill="#191970" stroke="#191970" points="1564.9542,-91.311 1554.5007,-93.0354 1563.748,-98.2063 1564.9542,-91.311"/>
</g>
<!-- Node13 -->
<g id="node14" class="node">
<title>Node13</title>
<polygon fill="#ffffff" stroke="#bfbfbf" points="1841.5,-73 1841.5,-92 1894.5,-92 1894.5,-73 1841.5,-73"/>
<text text-anchor="middle" x="1868" y="-80" font-family="Helvetica,sans-Serif" font-size="10.00" fill="#000000">cstddef</text>
</g>
<!-- Node12&#45;&gt;Node13 -->
<g id="edge19" class="edge">
<title>Node12&#45;&gt;Node13</title>
<path fill="none" stroke="#191970" d="M1868,-134.2967C1868,-124.7699 1868,-112.3954 1868,-102.1306"/>
<polygon fill="#191970" stroke="#191970" points="1871.5001,-102.0549 1868,-92.055 1864.5001,-102.055 1871.5001,-102.0549"/>
</g>
<!-- Node14 -->
<g id="node15" class="node">
<title>Node14</title>
<polygon fill="#ffffff" stroke="#bfbfbf" points="1726,-73 1726,-92 1786,-92 1786,-73 1726,-73"/>
<text text-anchor="middle" x="1756" y="-80" font-family="Helvetica,sans-Serif" font-size="10.00" fill="#000000">iostream</text>
</g>
<!-- Node12&#45;&gt;Node14 -->
<g id="edge20" class="edge">
<title>Node12&#45;&gt;Node14</title>
<path fill="none" stroke="#191970" d="M1842.865,-134.4639C1824.3268,-123.3741 1799.226,-108.3584 1780.7738,-97.32"/>
<polygon fill="#191970" stroke="#191970" points="1782.4328,-94.2341 1772.0543,-92.1039 1778.8392,-100.2412 1782.4328,-94.2341"/>
</g>
<!-- Node15&#45;&gt;Node1 -->
<g id="edge26" class="edge">
<title>Node15&#45;&gt;Node1</title>
<path fill="none" stroke="#191970" d="M1614.2117,-139.9717C1548.9754,-126.6865 1431.8722,-102.8387 1371.0564,-90.4537"/>
<polygon fill="#191970" stroke="#191970" points="1371.5851,-86.9896 1361.0877,-88.4236 1370.1881,-93.8488 1371.5851,-86.9896"/>
</g>
<!-- Node15&#45;&gt;Node7 -->
<g id="edge27" class="edge">
<title>Node15&#45;&gt;Node7</title>
<path fill="none" stroke="#191970" d="M1661,-139.8631C1661,-118.0364 1661,-64.4605 1661,-35.2589"/>
<polygon fill="#191970" stroke="#191970" points="1664.5001,-35.0496 1661,-25.0496 1657.5001,-35.0497 1664.5001,-35.0496"/>
</g>
<!-- Node16&#45;&gt;Node1 -->
<g id="edge29" class="edge">
<title>Node16&#45;&gt;Node1</title>
<path fill="none" stroke="#191970" d="M2106.9824,-144.8029C1923.3564,-132.4725 1440.8457,-99.9902 1424,-98 1406.7144,-95.9578 1387.7298,-92.8989 1371.5183,-90.0367"/>
<polygon fill="#191970" stroke="#191970" points="1371.7736,-86.5264 1361.3113,-88.1969 1370.5318,-93.4154 1371.7736,-86.5264"/>
</g>
<!-- Node16&#45;&gt;Node2 -->
<g id="edge32" class="edge">
<title>Node16&#45;&gt;Node2</title>
<path fill="none" stroke="#191970" d="M2218.3772,-134.4596C2253.7965,-119.2772 2295.872,-94.2343 2274,-67 2261.463,-51.3894 2134.9946,-29.9879 2073.8127,-20.4432"/>
<polygon fill="#191970" stroke="#191970" points="2074.3017,-16.9773 2063.8845,-18.9091 2073.2328,-23.8952 2074.3017,-16.9773"/>
</g>
<!-- Node16&#45;&gt;Node3 -->
<g id="edge33" class="edge">
<title>Node16&#45;&gt;Node3</title>
<path fill="none" stroke="#191970" d="M2247.1635,-136.1828C2322.6879,-121.8482 2439.6259,-99.6532 2496.5639,-88.8462"/>
<polygon fill="#191970" stroke="#191970" points="2497.3018,-92.2688 2506.4737,-86.9653 2495.9964,-85.3915 2497.3018,-92.2688"/>
</g>
<!-- Node16&#45;&gt;Node10 -->
<g id="edge30" class="edge">
<title>Node16&#45;&gt;Node10</title>
<path fill="none" stroke="#191970" d="M2216.3977,-134.3899C2242.4747,-124.2958 2277.3809,-110.6065 2308,-98 2309.4158,-97.4171 2310.8607,-96.8169 2312.3189,-96.207"/>
<polygon fill="#191970" stroke="#191970" points="2314.1205,-99.2449 2321.9624,-92.1207 2311.3894,-92.7997 2314.1205,-99.2449"/>
</g>
<!-- Node16&#45;&gt;Node11 -->
<g id="edge31" class="edge">
<title>Node16&#45;&gt;Node11</title>
<path fill="none" stroke="#191970" d="M2159.0737,-134.2967C2146.5261,-123.6551 2129.7889,-109.4602 2117.0091,-98.6217"/>
<polygon fill="#191970" stroke="#191970" points="2119.1567,-95.8538 2109.2663,-92.055 2114.629,-101.1924 2119.1567,-95.8538"/>
</g>
<!-- Node17 -->
<g id="node18" class="node">
<title>Node17</title>
<g id="a_node18"><a xlink:href="never__destroyed_8h.html" target="_top" xlink:title="drake/common/never\l_destroyed.h">
<polygon fill="#ffffff" stroke="#000000" points="2144.5,-67.5 2144.5,-97.5 2265.5,-97.5 2265.5,-67.5 2144.5,-67.5"/>
<text text-anchor="start" x="2152.5" y="-85.5" font-family="Helvetica,sans-Serif" font-size="10.00" fill="#000000">drake/common/never</text>
<text text-anchor="middle" x="2205" y="-74.5" font-family="Helvetica,sans-Serif" font-size="10.00" fill="#000000">_destroyed.h</text>
</a>
</g>
</g>
<!-- Node16&#45;&gt;Node17 -->
<g id="edge34" class="edge">
<title>Node16&#45;&gt;Node17</title>
<path fill="none" stroke="#191970" d="M2183.3536,-134.2967C2186.7188,-126.2443 2190.9342,-116.1574 2194.7488,-107.0296"/>
<polygon fill="#191970" stroke="#191970" points="2198.0449,-108.2195 2198.6715,-97.6432 2191.5862,-105.5203 2198.0449,-108.2195"/>
</g>
<!-- Node17&#45;&gt;Node2 -->
<g id="edge37" class="edge">
<title>Node17&#45;&gt;Node2</title>
<path fill="none" stroke="#191970" d="M2168.1952,-67.4639C2139.598,-55.7809 2100.3356,-39.7408 2073.0266,-28.584"/>
<polygon fill="#191970" stroke="#191970" points="2074.1291,-25.2537 2063.5481,-24.7117 2071.4817,-31.7338 2074.1291,-25.2537"/>
</g>
<!-- Node17&#45;&gt;Node4 -->
<g id="edge38" class="edge">
<title>Node17&#45;&gt;Node4</title>
<path fill="none" stroke="#191970" d="M2144.4161,-68.3463C2141.241,-67.8361 2138.0883,-67.3814 2135,-67 1781.4404,-23.3349 651.8888,-16.6737 356.9815,-15.6737"/>
<polygon fill="#191970" stroke="#191970" points="356.857,-12.1734 346.8455,-15.6405 356.8339,-19.1733 356.857,-12.1734"/>
</g>
<!-- Node17&#45;&gt;Node7 -->
<g id="edge36" class="edge">
<title>Node17&#45;&gt;Node7</title>
<path fill="none" stroke="#191970" d="M2144.3726,-68.6486C2141.2089,-68.0595 2138.0705,-67.5052 2135,-67 1978.1849,-41.1992 1789.9796,-25.1317 1705.6688,-18.7098"/>
<polygon fill="#191970" stroke="#191970" points="1705.9059,-15.2179 1695.6712,-17.9566 1705.38,-22.1981 1705.9059,-15.2179"/>
</g>
<!-- Node18 -->
<g id="node19" class="node">
<title>Node18</title>
<polygon fill="#ffffff" stroke="#bfbfbf" points="2186.5,-6 2186.5,-25 2223.5,-25 2223.5,-6 2186.5,-6"/>
<text text-anchor="middle" x="2205" y="-13" font-family="Helvetica,sans-Serif" font-size="10.00" fill="#000000">new</text>
</g>
<!-- Node17&#45;&gt;Node18 -->
<g id="edge35" class="edge">
<title>Node17&#45;&gt;Node18</title>
<path fill="none" stroke="#191970" d="M2205,-67.2967C2205,-57.7699 2205,-45.3954 2205,-35.1306"/>
<polygon fill="#191970" stroke="#191970" points="2208.5001,-35.0549 2205,-25.055 2201.5001,-35.055 2208.5001,-35.0549"/>
</g>
<!-- Node19&#45;&gt;Node1 -->
<g id="edge40" class="edge">
<title>Node19&#45;&gt;Node1</title>
<path fill="none" stroke="#191970" d="M631.5047,-335.1863C642.2635,-325.599 655.5249,-312.5299 665,-299 711.3143,-232.866 674.9637,-180.4534 741,-134 786.019,-102.3313 1167.9496,-87.6414 1292.7332,-83.6566"/>
<polygon fill="#191970" stroke="#191970" points="1293.0886,-87.1473 1302.9739,-83.3353 1292.869,-80.1507 1293.0886,-87.1473"/>
</g>
<!-- Node19&#45;&gt;Node2 -->
<g id="edge44" class="edge">
<title>Node19&#45;&gt;Node2</title>
<path fill="none" stroke="#191970" d="M618.7659,-335.3536C624.4649,-317.6115 630.5475,-288.0938 617,-268 593.1469,-232.621 551.8531,-267.379 528,-232 499.0931,-189.1251 580.5542,-134.2437 581,-134 645.8717,-98.5343 1797.9654,-29.7003 2008.2096,-17.4032"/>
<polygon fill="#191970" stroke="#191970" points="2008.5323,-20.8904 2018.3113,-16.8135 2008.1243,-13.9023 2008.5323,-20.8904"/>
</g>
<!-- Node19&#45;&gt;Node4 -->
<g id="edge46" class="edge">
<title>Node19&#45;&gt;Node4</title>
<path fill="none" stroke="#191970" d="M540.4672,-348.7083C385.888,-342.9188 38,-318.5529 38,-216.5 38,-216.5 38,-216.5 38,-149.5 38,-68.4057 141.9079,-36.1506 215.2067,-23.4856"/>
<polygon fill="#191970" stroke="#191970" points="216.0304,-26.8974 225.3324,-21.8255 214.8978,-19.9896 216.0304,-26.8974"/>
</g>
<!-- Node19&#45;&gt;Node6 -->
<g id="edge45" class="edge">
<title>Node19&#45;&gt;Node6</title>
<path fill="none" stroke="#191970" d="M540.3131,-343.746C458.5699,-335.3209 331.5488,-319.4939 288,-299 238.1281,-275.5305 178.42,-244.7082 212,-201 249.8316,-151.758 287.0394,-181.1472 347,-165 397.7003,-151.3466 409.1032,-141.9787 461,-134 860.6215,-72.5618 967.0408,-131.1044 1370,-98 1387.2617,-96.5819 1405.816,-94.5409 1423.1782,-92.4035"/>
<polygon fill="#191970" stroke="#191970" points="1423.759,-95.8581 1433.2442,-91.1378 1422.8857,-88.9128 1423.759,-95.8581"/>
</g>
<!-- Node19&#45;&gt;Node9 -->
<g id="edge41" class="edge">
<title>Node19&#45;&gt;Node9</title>
<path fill="none" stroke="#191970" d="M540.4434,-335.8794C520.7943,-328.2431 501.7348,-316.6352 490,-299 482.3674,-287.5296 486.4851,-281.3219 490,-268 498.7334,-234.899 503.5622,-224.9739 528,-201 544.8413,-184.4784 568.0606,-171.7613 587.328,-163.0978"/>
<polygon fill="#191970" stroke="#191970" points="588.9082,-166.2281 596.7055,-159.055 586.1368,-159.8 588.9082,-166.2281"/>
</g>
<!-- Node19&#45;&gt;Node10 -->
<g id="edge42" class="edge">
<title>Node19&#45;&gt;Node10</title>
<path fill="none" stroke="#191970" d="M685.5844,-346.7237C832.944,-338.9244 1177.7501,-319.9996 1467,-299 1679.4218,-283.5782 2298.0167,-342.3155 2416,-165 2423.6324,-153.5294 2422.3004,-146.2528 2416,-134 2407.3865,-117.2488 2390.5174,-104.7328 2375.2719,-96.2363"/>
<polygon fill="#191970" stroke="#191970" points="2376.5656,-92.9644 2366.0776,-91.4636 2373.3405,-99.1773 2376.5656,-92.9644"/>
</g>
<!-- Node20 -->
<g id="node21" class="node">
<title>Node20</title>
<polygon fill="#ffffff" stroke="#bfbfbf" points="499,-274 499,-293 585,-293 585,-274 499,-274"/>
<text text-anchor="middle" x="542" y="-281" font-family="Helvetica,sans-Serif" font-size="10.00" fill="#000000">unordered_set</text>
</g>
<!-- Node19&#45;&gt;Node20 -->
<g id="edge43" class="edge">
<title>Node19&#45;&gt;Node20</title>
<path fill="none" stroke="#191970" d="M596.889,-335.2967C585.7195,-324.7564 570.856,-310.7303 559.4133,-299.9323"/>
<polygon fill="#191970" stroke="#191970" points="561.8006,-297.3727 552.1254,-293.055 556.9963,-302.4638 561.8006,-297.3727"/>
</g>
<!-- Node21 -->
<g id="node22" class="node">
<title>Node21</title>
<g id="a_node22"><a xlink:href="basic__vector_8h.html" target="_top" xlink:title="drake/systems/framework\l/basic_vector.h">
<polygon fill="#ffffff" stroke="#000000" points="757.5,-268.5 757.5,-298.5 902.5,-298.5 902.5,-268.5 757.5,-268.5"/>
<text text-anchor="start" x="765.5" y="-286.5" font-family="Helvetica,sans-Serif" font-size="10.00" fill="#000000">drake/systems/framework</text>
<text text-anchor="middle" x="830" y="-275.5" font-family="Helvetica,sans-Serif" font-size="10.00" fill="#000000">/basic_vector.h</text>
</a>
</g>
</g>
<!-- Node19&#45;&gt;Node21 -->
<g id="edge47" class="edge">
<title>Node19&#45;&gt;Node21</title>
<path fill="none" stroke="#191970" d="M661.699,-335.4639C694.1126,-325.456 736.8813,-312.2509 771.1929,-301.657"/>
<polygon fill="#191970" stroke="#191970" points="772.5662,-304.8961 781.0886,-298.6017 770.5011,-298.2077 772.5662,-304.8961"/>
</g>
<!-- Node28 -->
<g id="node29" class="node">
<title>Node28</title>
<g id="a_node29"><a xlink:href="vector__base_8h.html" target="_top" xlink:title="drake/systems/framework\l/vector_base.h">
<polygon fill="#ffffff" stroke="#000000" points="221.5,-201.5 221.5,-231.5 366.5,-231.5 366.5,-201.5 221.5,-201.5"/>
<text text-anchor="start" x="229.5" y="-219.5" font-family="Helvetica,sans-Serif" font-size="10.00" fill="#000000">drake/systems/framework</text>
<text text-anchor="middle" x="294" y="-208.5" font-family="Helvetica,sans-Serif" font-size="10.00" fill="#000000">/vector_base.h</text>
</a>
</g>
</g>
<!-- Node19&#45;&gt;Node28 -->
<g id="edge80" class="edge">
<title>Node19&#45;&gt;Node28</title>
<path fill="none" stroke="#191970" d="M614.147,-335.283C614.6484,-316.6222 612.3947,-285.3415 594,-268 559.0704,-235.0703 428.2974,-240.2101 381,-232 379.5356,-231.7458 378.0575,-231.4887 376.5688,-231.2291"/>
<polygon fill="#191970" stroke="#191970" points="377.0761,-227.7648 366.6224,-229.4882 375.8692,-234.66 377.0761,-227.7648"/>
</g>
<!-- Node32 -->
<g id="node33" class="node">
<title>Node32</title>
<g id="a_node33"><a xlink:href="subvector_8h.html" target="_top" xlink:title="drake/systems/framework\l/subvector.h">
<polygon fill="#ffffff" stroke="#000000" points="297.5,-268.5 297.5,-298.5 442.5,-298.5 442.5,-268.5 297.5,-268.5"/>
<text text-anchor="start" x="305.5" y="-286.5" font-family="Helvetica,sans-Serif" font-size="10.00" fill="#000000">drake/systems/framework</text>
<text text-anchor="middle" x="370" y="-275.5" font-family="Helvetica,sans-Serif" font-size="10.00" fill="#000000">/subvector.h</text>
</a>
</g>
</g>
<!-- Node19&#45;&gt;Node32 -->
<g id="edge73" class="edge">
<title>Node19&#45;&gt;Node32</title>
<path fill="none" stroke="#191970" d="M558.4661,-335.4639C521.8573,-325.3701 473.4527,-312.024 434.8658,-301.3848"/>
<polygon fill="#191970" stroke="#191970" points="435.3424,-297.8857 424.7718,-298.6017 433.4817,-304.6339 435.3424,-297.8857"/>
</g>
<!-- Node21&#45;&gt;Node1 -->
<g id="edge52" class="edge">
<title>Node21&#45;&gt;Node1</title>
<path fill="none" stroke="#191970" d="M823.6778,-268.3547C817.3668,-250.6136 810.3937,-221.0969 824,-201 848.1526,-165.3258 875.1493,-183.6177 914,-165 939.3044,-152.8738 942.4278,-143.0154 969,-134 1028.4177,-113.8408 1211.6037,-94.1881 1292.6885,-86.2176"/>
<polygon fill="#191970" stroke="#191970" points="1293.3587,-89.669 1302.9722,-85.2157 1292.6799,-82.7019 1293.3587,-89.669"/>
</g>
<!-- Node21&#45;&gt;Node2 -->
<g id="edge54" class="edge">
<title>Node21&#45;&gt;Node2</title>
<path fill="none" stroke="#191970" d="M902.767,-279.0494C989.3897,-272.6407 1127.8857,-258.5509 1172,-232 1250.1408,-184.9698 1214.0272,-110.8427 1294,-67 1325.7316,-49.6041 1867.5494,-23.5014 2007.9772,-17.0046"/>
<polygon fill="#191970" stroke="#191970" points="2008.2909,-20.494 2018.1191,-16.5373 2007.9686,-13.5014 2008.2909,-20.494"/>
</g>
<!-- Node21&#45;&gt;Node9 -->
<g id="edge53" class="edge">
<title>Node21&#45;&gt;Node9</title>
<path fill="none" stroke="#191970" d="M757.4747,-272.1057C710.569,-263.2527 655.3197,-249.5358 639,-232 623.287,-215.1161 620.8789,-187.6244 621.3355,-169.0646"/>
<polygon fill="#191970" stroke="#191970" points="624.8304,-169.2515 621.8763,-159.0769 617.8406,-168.8729 624.8304,-169.2515"/>
</g>
<!-- Node21&#45;&gt;Node14 -->
<g id="edge50" class="edge">
<title>Node21&#45;&gt;Node14</title>
<path fill="none" stroke="#191970" d="M858.373,-268.4875C927.2202,-232.172 1099.5768,-141.9707 1128,-134 1131.5609,-133.0014 1577.6898,-96.9038 1715.7536,-85.7496"/>
<polygon fill="#191970" stroke="#191970" points="1716.2179,-89.2236 1725.9036,-84.9297 1715.6542,-82.2464 1716.2179,-89.2236"/>
</g>
<!-- Node22 -->
<g id="node23" class="node">
<title>Node22</title>
<polygon fill="#ffffff" stroke="#bfbfbf" points="537,-207 537,-226 587,-226 587,-207 537,-207"/>
<text text-anchor="middle" x="562" y="-214" font-family="Helvetica,sans-Serif" font-size="10.00" fill="#000000">cstdint</text>
</g>
<!-- Node21&#45;&gt;Node22 -->
<g id="edge48" class="edge">
<title>Node21&#45;&gt;Node22</title>
<path fill="none" stroke="#191970" d="M757.2953,-270.1876C711.894,-261.1292 652.4887,-247.9133 601,-232 598.7094,-231.292 596.3632,-230.51 594.0137,-229.6846"/>
<polygon fill="#191970" stroke="#191970" points="595.0623,-226.3402 584.4696,-226.1261 592.6168,-232.8992 595.0623,-226.3402"/>
</g>
<!-- Node23 -->
<g id="node24" class="node">
<title>Node23</title>
<polygon fill="#ffffff" stroke="#bfbfbf" points="833.5,-207 833.5,-226 916.5,-226 916.5,-207 833.5,-207"/>
<text text-anchor="middle" x="875" y="-214" font-family="Helvetica,sans-Serif" font-size="10.00" fill="#000000">initializer_list</text>
</g>
<!-- Node21&#45;&gt;Node23 -->
<g id="edge49" class="edge">
<title>Node21&#45;&gt;Node23</title>
<path fill="none" stroke="#191970" d="M840.2112,-268.2967C846.9501,-258.2631 855.8106,-245.0709 862.9029,-234.5113"/>
<polygon fill="#191970" stroke="#191970" points="865.9124,-236.3078 868.5825,-226.055 860.1014,-232.4049 865.9124,-236.3078"/>
</g>
<!-- Node24 -->
<g id="node25" class="node">
<title>Node24</title>
<polygon fill="#ffffff" stroke="#bfbfbf" points="1137,-140 1137,-159 1181,-159 1181,-140 1137,-140"/>
<text text-anchor="middle" x="1159" y="-147" font-family="Helvetica,sans-Serif" font-size="10.00" fill="#000000">limits</text>
</g>
<!-- Node21&#45;&gt;Node24 -->
<g id="edge51" class="edge">
<title>Node21&#45;&gt;Node24</title>
<path fill="none" stroke="#191970" d="M902.5308,-276.5411C991.9365,-267.2552 1134.1891,-249.8943 1151,-232 1166.576,-215.4202 1165.9656,-187.8571 1163.2201,-169.198"/>
<polygon fill="#191970" stroke="#191970" points="1166.6277,-168.3717 1161.4119,-159.1497 1159.7384,-169.6116 1166.6277,-168.3717"/>
</g>
<!-- Node25 -->
<g id="node26" class="node">
<title>Node25</title>
<polygon fill="#ffffff" stroke="#bfbfbf" points="180.5,-73 180.5,-92 257.5,-92 257.5,-73 180.5,-73"/>
<text text-anchor="middle" x="219" y="-80" font-family="Helvetica,sans-Serif" font-size="10.00" fill="#000000">Eigen/Dense</text>
</g>
<!-- Node21&#45;&gt;Node25 -->
<g id="edge55" class="edge">
<title>Node21&#45;&gt;Node25</title>
<path fill="none" stroke="#191970" d="M815.7397,-268.4654C782.4684,-233.7659 699.8247,-149.8442 664,-134 516.9426,-68.9607 463.2243,-120.4414 304,-98 292.282,-96.3484 279.714,-94.2428 267.9328,-92.1198"/>
<polygon fill="#191970" stroke="#191970" points="268.2913,-88.6271 257.8232,-90.2606 267.0252,-95.5117 268.2913,-88.6271"/>
</g>
<!-- Node26 -->
<g id="node27" class="node">
<title>Node26</title>
<g id="a_node27"><a xlink:href="drake__throw_8h.html" target="_top" xlink:title="Provides a convenient wrapper to throw an exception when a condition is unmet. ">
<polygon fill="#ffffff" stroke="#000000" points="750.5,-134.5 750.5,-164.5 871.5,-164.5 871.5,-134.5 750.5,-134.5"/>
<text text-anchor="start" x="758.5" y="-152.5" font-family="Helvetica,sans-Serif" font-size="10.00" fill="#000000">drake/common/drake</text>
<text text-anchor="middle" x="811" y="-141.5" font-family="Helvetica,sans-Serif" font-size="10.00" fill="#000000">_throw.h</text>
</a>
</g>
</g>
<!-- Node21&#45;&gt;Node26 -->
<g id="edge56" class="edge">
<title>Node21&#45;&gt;Node26</title>
<path fill="none" stroke="#191970" d="M814.3311,-268.3979C805.6272,-258.8856 795.6427,-245.8211 791,-232 784.5875,-212.9104 790.7182,-190.6955 797.8291,-174.13"/>
<polygon fill="#191970" stroke="#191970" points="801.2092,-175.1648 802.2799,-164.6242 794.8697,-172.1965 801.2092,-175.1648"/>
</g>
<!-- Node27 -->
<g id="node28" class="node">
<title>Node27</title>
<g id="a_node28"><a xlink:href="dummy__value_8h.html" target="_top" xlink:title="drake/common/dummy\l_value.h">
<polygon fill="#ffffff" stroke="#000000" points="1011.5,-201.5 1011.5,-231.5 1142.5,-231.5 1142.5,-201.5 1011.5,-201.5"/>
<text text-anchor="start" x="1019.5" y="-219.5" font-family="Helvetica,sans-Serif" font-size="10.00" fill="#000000">drake/common/dummy</text>
<text text-anchor="middle" x="1077" y="-208.5" font-family="Helvetica,sans-Serif" font-size="10.00" fill="#000000">_value.h</text>
</a>
</g>
</g>
<!-- Node21&#45;&gt;Node27 -->
<g id="edge59" class="edge">
<title>Node21&#45;&gt;Node27</title>
<path fill="none" stroke="#191970" d="M885.4316,-268.4639C922.8014,-258.3272 972.2633,-244.9104 1011.5666,-234.2491"/>
<polygon fill="#191970" stroke="#191970" points="1012.5917,-237.5976 1021.3266,-231.6017 1010.7591,-230.8418 1012.5917,-237.5976"/>
</g>
<!-- Node21&#45;&gt;Node28 -->
<g id="edge61" class="edge">
<title>Node21&#45;&gt;Node28</title>
<path fill="none" stroke="#191970" d="M757.4339,-274.4292C658.3476,-262.0434 481.154,-239.8942 376.9331,-226.8666"/>
<polygon fill="#191970" stroke="#191970" points="377.1268,-223.3637 366.7699,-225.5962 376.2585,-230.3096 377.1268,-223.3637"/>
</g>
<!-- Node26&#45;&gt;Node6 -->
<g id="edge58" class="edge">
<title>Node26&#45;&gt;Node6</title>
<path fill="none" stroke="#191970" d="M871.7621,-143.4209C901.1317,-140.5128 936.8935,-137.016 969,-134 1147.1547,-117.2647 1192.0833,-117.1002 1370,-98 1387.2209,-96.1513 1405.7599,-93.9482 1423.1202,-91.7917"/>
<polygon fill="#191970" stroke="#191970" points="1423.6994,-95.2465 1433.1867,-90.5303 1422.8291,-88.3009 1423.6994,-95.2465"/>
</g>
<!-- Node26&#45;&gt;Node7 -->
<g id="edge57" class="edge">
<title>Node26&#45;&gt;Node7</title>
<path fill="none" stroke="#191970" d="M871.5684,-136.9118C876.4495,-135.9189 881.3063,-134.9381 886,-134 1040.0245,-103.2157 1077.8182,-91.2864 1233,-67 1372.4057,-45.1826 1538.6157,-27.5681 1616.538,-19.7992"/>
<polygon fill="#191970" stroke="#191970" points="1616.8833,-23.2822 1626.4893,-18.8129 1616.1928,-16.3164 1616.8833,-23.2822"/>
</g>
<!-- Node27&#45;&gt;Node24 -->
<g id="edge60" class="edge">
<title>Node27&#45;&gt;Node24</title>
<path fill="none" stroke="#191970" d="M1095.6071,-201.2967C1108.6311,-190.6551 1126.0039,-176.4602 1139.269,-165.6217"/>
<polygon fill="#191970" stroke="#191970" points="1141.7766,-168.0926 1147.3059,-159.055 1137.3475,-162.6719 1141.7766,-168.0926"/>
</g>
<!-- Node28&#45;&gt;Node1 -->
<g id="edge63" class="edge">
<title>Node28&#45;&gt;Node1</title>
<path fill="none" stroke="#191970" d="M316.88,-201.4684C348.0119,-181.9126 406.1391,-148.5326 461,-134 621.175,-91.5697 1143.6948,-84.0487 1292.2669,-82.7586"/>
<polygon fill="#191970" stroke="#191970" points="1292.7359,-86.255 1302.7069,-82.673 1292.6785,-79.2552 1292.7359,-86.255"/>
</g>
<!-- Node28&#45;&gt;Node2 -->
<g id="edge64" class="edge">
<title>Node28&#45;&gt;Node2</title>
<path fill="none" stroke="#191970" d="M309.5391,-201.4542C333.6085,-178.2184 377.6101,-136.0448 382,-134 610.0241,-27.7895 693.3149,-87.8004 944,-67 971.2033,-64.7428 1828.0675,-25.2902 2008.0398,-17.0148"/>
<polygon fill="#191970" stroke="#191970" points="2008.3805,-20.5029 2018.2092,-16.5473 2008.0589,-13.5103 2008.3805,-20.5029"/>
</g>
<!-- Node28&#45;&gt;Node4 -->
<g id="edge66" class="edge">
<title>Node28&#45;&gt;Node4</title>
<path fill="none" stroke="#191970" d="M252.4545,-201.407C234.1069,-193.0238 213.4668,-181.0056 199,-165 177.3592,-141.0573 177.3461,-129.6434 171,-98 168.2908,-84.4912 163.5086,-78.5631 171,-67 181.3873,-50.967 198.07,-39.8796 215.5444,-32.2294"/>
<polygon fill="#191970" stroke="#191970" points="217.3166,-35.29 225.2988,-28.3234 214.7143,-28.7917 217.3166,-35.29"/>
</g>
<!-- Node28&#45;&gt;Node25 -->
<g id="edge65" class="edge">
<title>Node28&#45;&gt;Node25</title>
<path fill="none" stroke="#191970" d="M251.6841,-201.4897C235.3193,-193.3701 218.3156,-181.5362 209,-165 198.0337,-145.5337 203.9942,-119.4294 210.4156,-101.8414"/>
<polygon fill="#191970" stroke="#191970" points="213.8388,-102.7099 214.3262,-92.1263 207.3451,-100.096 213.8388,-102.7099"/>
</g>
<!-- Node28&#45;&gt;Node26 -->
<g id="edge67" class="edge">
<title>Node28&#45;&gt;Node26</title>
<path fill="none" stroke="#191970" d="M366.7038,-207.078C465.8233,-194.2328 642.222,-171.3726 740.2917,-158.6634"/>
<polygon fill="#191970" stroke="#191970" points="740.9351,-162.1093 750.4024,-157.3531 740.0354,-155.1674 740.9351,-162.1093"/>
</g>
<!-- Node29 -->
<g id="node30" class="node">
<title>Node29</title>
<polygon fill="#ffffff" stroke="#bfbfbf" points="470,-140 470,-159 534,-159 534,-140 470,-140"/>
<text text-anchor="middle" x="502" y="-147" font-family="Helvetica,sans-Serif" font-size="10.00" fill="#000000">algorithm</text>
</g>
<!-- Node28&#45;&gt;Node29 -->
<g id="edge62" class="edge">
<title>Node28&#45;&gt;Node29</title>
<path fill="none" stroke="#191970" d="M342.2724,-201.393C374.5193,-191.2425 417.856,-177.4884 456,-165 458.703,-164.115 461.4929,-163.194 464.2996,-162.2618"/>
<polygon fill="#191970" stroke="#191970" points="465.4307,-165.5741 473.8061,-159.0855 463.2124,-158.9349 465.4307,-165.5741"/>
</g>
<!-- Node30 -->
<g id="node31" class="node">
<title>Node30</title>
<g id="a_node31"><a xlink:href="eigen__types_8h.html" target="_top" xlink:title="This file contains abbreviated definitions for certain specializations of Eigen::Matrix that are comm...">
<polygon fill="#ffffff" stroke="#000000" points="218,-134.5 218,-164.5 338,-164.5 338,-134.5 218,-134.5"/>
<text text-anchor="start" x="226" y="-152.5" font-family="Helvetica,sans-Serif" font-size="10.00" fill="#000000">drake/common/eigen</text>
<text text-anchor="middle" x="278" y="-141.5" font-family="Helvetica,sans-Serif" font-size="10.00" fill="#000000">_types.h</text>
</a>
</g>
</g>
<!-- Node28&#45;&gt;Node30 -->
<g id="edge68" class="edge">
<title>Node28&#45;&gt;Node30</title>
<path fill="none" stroke="#191970" d="M290.3694,-201.2967C288.4873,-193.4156 286.1399,-183.5857 283.9973,-174.6135"/>
<polygon fill="#191970" stroke="#191970" points="287.3434,-173.5567 281.6163,-164.6432 280.5348,-175.1827 287.3434,-173.5567"/>
</g>
<!-- Node30&#45;&gt;Node1 -->
<g id="edge69" class="edge">
<title>Node30&#45;&gt;Node1</title>
<path fill="none" stroke="#191970" d="M338.0519,-140.255C354.8317,-137.9264 373.0985,-135.6287 390,-134 738.8602,-100.3822 1162.6778,-86.9826 1292.3976,-83.4897"/>
<polygon fill="#191970" stroke="#191970" points="1292.7287,-86.9823 1302.6324,-83.2184 1292.5431,-79.9847 1292.7287,-86.9823"/>
</g>
<!-- Node30&#45;&gt;Node4 -->
<g id="edge72" class="edge">
<title>Node30&#45;&gt;Node4</title>
<path fill="none" stroke="#191970" d="M278.9022,-134.389C280.2586,-111.6691 282.8395,-68.438 284.4871,-40.8405"/>
<polygon fill="#191970" stroke="#191970" points="287.9866,-40.9522 285.0889,-30.7614 280.999,-40.535 287.9866,-40.9522"/>
</g>
<!-- Node30&#45;&gt;Node25 -->
<g id="edge70" class="edge">
<title>Node30&#45;&gt;Node25</title>
<path fill="none" stroke="#191970" d="M264.612,-134.2967C255.598,-124.0605 243.6889,-110.5366 234.3,-99.8746"/>
<polygon fill="#191970" stroke="#191970" points="236.6496,-97.2468 227.4141,-92.055 231.3962,-101.873 236.6496,-97.2468"/>
</g>
<!-- Node31 -->
<g id="node32" class="node">
<title>Node31</title>
<g id="a_node32"><a xlink:href="constants_8h.html" target="_top" xlink:title="drake/common/constants.h">
<polygon fill="#ffffff" stroke="#000000" points="313.5,-73 313.5,-92 462.5,-92 462.5,-73 313.5,-73"/>
<text text-anchor="middle" x="388" y="-80" font-family="Helvetica,sans-Serif" font-size="10.00" fill="#000000">drake/common/constants.h</text>
</a>
</g>
</g>
<!-- Node30&#45;&gt;Node31 -->
<g id="edge71" class="edge">
<title>Node30&#45;&gt;Node31</title>
<path fill="none" stroke="#191970" d="M302.6861,-134.4639C320.8102,-123.4247 345.3209,-108.4954 363.42,-97.4715"/>
<polygon fill="#191970" stroke="#191970" points="365.5126,-100.2951 372.2324,-92.1039 361.8712,-94.3167 365.5126,-100.2951"/>
</g>
<!-- Node32&#45;&gt;Node4 -->
<g id="edge77" class="edge">
<title>Node32&#45;&gt;Node4</title>
<path fill="none" stroke="#191970" d="M297.3105,-270.4791C254.4556,-261.3432 205.7966,-247.9366 191,-232 140.3899,-177.4907 121.794,-128.925 163,-67 175.1786,-48.6978 195.2466,-36.8874 215.6752,-29.271"/>
<polygon fill="#191970" stroke="#191970" points="217.0453,-32.5017 225.3784,-25.9588 214.7838,-25.877 217.0453,-32.5017"/>
</g>
<!-- Node32&#45;&gt;Node9 -->
<g id="edge75" class="edge">
<title>Node32&#45;&gt;Node9</title>
<path fill="none" stroke="#191970" d="M382.2465,-268.2039C397.7862,-249.756 426.2861,-218.9892 457,-201 495.7461,-178.3063 545.538,-164.5941 580.4417,-157.0898"/>
<polygon fill="#191970" stroke="#191970" points="581.2345,-160.5 590.3179,-155.0463 579.8161,-153.6452 581.2345,-160.5"/>
</g>
<!-- Node32&#45;&gt;Node22 -->
<g id="edge74" class="edge">
<title>Node32&#45;&gt;Node22</title>
<path fill="none" stroke="#191970" d="M416.7617,-268.4803C447.1724,-258.5355 487.6085,-244.9787 523,-232 524.8982,-231.3039 526.8432,-230.5765 528.8025,-229.8329"/>
<polygon fill="#191970" stroke="#191970" points="530.5081,-232.9256 538.5677,-226.0486 527.9786,-226.3986 530.5081,-232.9256"/>
</g>
<!-- Node32&#45;&gt;Node25 -->
<g id="edge76" class="edge">
<title>Node32&#45;&gt;Node25</title>
<path fill="none" stroke="#191970" d="M301.4496,-268.4573C264.6558,-259.0136 224.3695,-245.9991 212,-232 182.9073,-199.0746 190.9088,-177.1857 199,-134 201.1014,-122.7842 205.569,-110.8706 209.7497,-101.33"/>
<polygon fill="#191970" stroke="#191970" points="213.0192,-102.5989 214.0481,-92.0541 206.6679,-99.6557 213.0192,-102.5989"/>
</g>
<!-- Node32&#45;&gt;Node26 -->
<g id="edge78" class="edge">
<title>Node32&#45;&gt;Node26</title>
<path fill="none" stroke="#191970" d="M393.3482,-268.4251C423.3248,-249.7626 477.511,-218.3282 528,-201 598.069,-176.9518 681.9588,-163.4811 740.1241,-156.4043"/>
<polygon fill="#191970" stroke="#191970" points="740.7953,-159.8493 750.3144,-155.1978 739.9722,-152.8979 740.7953,-159.8493"/>
</g>
<!-- Node32&#45;&gt;Node28 -->
<g id="edge79" class="edge">
<title>Node32&#45;&gt;Node28</title>
<path fill="none" stroke="#191970" d="M352.7544,-268.2967C342.7458,-259.4733 329.9664,-248.2072 318.8836,-238.4368"/>
<polygon fill="#191970" stroke="#191970" points="320.9932,-235.6307 311.1773,-231.6432 316.3641,-240.8816 320.9932,-235.6307"/>
</g>
<!-- Node33&#45;&gt;Node1 -->
<g id="edge82" class="edge">
<title>Node33&#45;&gt;Node1</title>
<path fill="none" stroke="#191970" d="M1414.4744,-339.2385C1369.4765,-330.6026 1317.7003,-317.0881 1304,-299 1258.5487,-238.9922 1300.4815,-141.7732 1321.5613,-101.2085"/>
<polygon fill="#191970" stroke="#191970" points="1324.6524,-102.8502 1326.2896,-92.3826 1318.4821,-99.5445 1324.6524,-102.8502"/>
</g>
<!-- Node33&#45;&gt;Node2 -->
<g id="edge83" class="edge">
<title>Node33&#45;&gt;Node2</title>
<path fill="none" stroke="#191970" d="M1559.6674,-349.098C1763.1297,-344.8199 2335.6836,-330.2747 2521,-299 2649.7659,-277.269 2803,-347.0867 2803,-216.5 2803,-216.5 2803,-216.5 2803,-149.5 2803,-111.8735 2812.7337,-91.2925 2784,-67 2732.4051,-23.3798 2244.3112,-36.8275 2177,-31 2141.6774,-27.9419 2101.3341,-23.1838 2073.8195,-19.7458"/>
<polygon fill="#191970" stroke="#191970" points="2073.9419,-16.2335 2063.5823,-18.4535 2073.0652,-23.1784 2073.9419,-16.2335"/>
</g>
<!-- Node33&#45;&gt;Node3 -->
<g id="edge84" class="edge">
<title>Node33&#45;&gt;Node3</title>
<path fill="none" stroke="#191970" d="M1559.6103,-349.1707C1806.4312,-343.8641 2601.6018,-320.0074 2670,-232 2678.4547,-221.1214 2676.9154,-212.9165 2670,-201 2653.8133,-173.1075 2632.2874,-185.0137 2607,-165 2582.1796,-145.3559 2558.0192,-117.6476 2543.5715,-99.878"/>
<polygon fill="#191970" stroke="#191970" points="2546.2771,-97.6571 2537.2989,-92.0319 2540.8096,-102.0282 2546.2771,-97.6571"/>
</g>
<!-- Node33&#45;&gt;Node4 -->
<g id="edge86" class="edge">
<title>Node33&#45;&gt;Node4</title>
<path fill="none" stroke="#191970" d="M1414.4224,-338.1467C1365.1725,-328.6275 1305.4353,-314.5032 1285,-299 1217.5851,-247.8558 1260.3437,-181.0346 1190,-134 1188.9102,-133.2713 569.5092,-52.4623 356.7557,-24.7231"/>
<polygon fill="#191970" stroke="#191970" points="357.0031,-21.2258 346.6345,-23.4035 356.0981,-28.1671 357.0031,-21.2258"/>
</g>
<!-- Node33&#45;&gt;Node6 -->
<g id="edge85" class="edge">
<title>Node33&#45;&gt;Node6</title>
<path fill="none" stroke="#191970" d="M1487.3964,-335.3233C1488.5491,-291.1927 1491.9085,-162.576 1493.3407,-107.7412"/>
<polygon fill="#191970" stroke="#191970" points="1496.8455,-107.5983 1493.6079,-97.5103 1489.8479,-107.4154 1496.8455,-107.5983"/>
</g>
<!-- Node33&#45;&gt;Node8 -->
<g id="edge106" class="edge">
<title>Node33&#45;&gt;Node8</title>
<path fill="none" stroke="#191970" d="M1543.0461,-335.389C1635.5749,-310.4416 1819.8284,-260.7636 1918.3216,-234.2081"/>
<polygon fill="#191970" stroke="#191970" points="1919.4146,-237.5384 1928.1587,-231.5558 1917.5923,-230.7798 1919.4146,-237.5384"/>
</g>
<!-- Node33&#45;&gt;Node21 -->
<g id="edge87" class="edge">
<title>Node33&#45;&gt;Node21</title>
<path fill="none" stroke="#191970" d="M1414.495,-343.106C1291.5123,-330.5644 1042.7621,-305.1972 913.0033,-291.9646"/>
<polygon fill="#191970" stroke="#191970" points="913.0314,-288.4494 902.7279,-290.9167 912.3212,-295.4132 913.0314,-288.4494"/>
</g>
<!-- Node34 -->
<g id="node35" class="node">
<title>Node34</title>
<g id="a_node35"><a xlink:href="framework__common_8h.html" target="_top" xlink:title="drake/systems/framework\l/framework_common.h">
<polygon fill="#ffffff" stroke="#000000" points="2252.5,-268.5 2252.5,-298.5 2397.5,-298.5 2397.5,-268.5 2252.5,-268.5"/>
<text text-anchor="start" x="2260.5" y="-286.5" font-family="Helvetica,sans-Serif" font-size="10.00" fill="#000000">drake/systems/framework</text>
<text text-anchor="middle" x="2325" y="-275.5" font-family="Helvetica,sans-Serif" font-size="10.00" fill="#000000">/framework_common.h</text>
</a>
</g>
</g>
<!-- Node33&#45;&gt;Node34 -->
<g id="edge88" class="edge">
<title>Node33&#45;&gt;Node34</title>
<path fill="none" stroke="#191970" d="M1559.7456,-348.1195C1694.1423,-343.1428 1990.2528,-329.474 2238,-299 2239.4751,-298.8186 2240.9632,-298.6286 2242.4611,-298.4312"/>
<polygon fill="#191970" stroke="#191970" points="2243.0414,-301.8841 2252.4576,-297.0276 2242.068,-294.9521 2243.0414,-301.8841"/>
</g>
<!-- Node34&#45;&gt;Node1 -->
<g id="edge90" class="edge">
<title>Node34&#45;&gt;Node1</title>
<path fill="none" stroke="#191970" d="M2252.4199,-280.7176C2107.0828,-274.6552 1785.0983,-258.6225 1678,-232 1551.934,-200.6625 1413.3256,-128.0283 1357.4336,-96.9886"/>
<polygon fill="#191970" stroke="#191970" points="1359.018,-93.8645 1348.5822,-92.0352 1355.5995,-99.9731 1359.018,-93.8645"/>
</g>
<!-- Node34&#45;&gt;Node3 -->
<g id="edge92" class="edge">
<title>Node34&#45;&gt;Node3</title>
<path fill="none" stroke="#191970" d="M2397.5772,-270.6149C2423.0712,-263.0019 2450.2509,-250.9672 2470,-232 2507.3668,-196.1125 2522.0726,-133.8789 2527.3469,-102.2213"/>
<polygon fill="#191970" stroke="#191970" points="2530.8509,-102.4582 2528.8879,-92.0468 2523.9298,-101.4099 2530.8509,-102.4582"/>
</g>
<!-- Node34&#45;&gt;Node6 -->
<g id="edge93" class="edge">
<title>Node34&#45;&gt;Node6</title>
<path fill="none" stroke="#191970" d="M2252.4443,-278.5684C2086.8533,-266.2937 1686.4124,-230.5386 1570,-165 1544.6563,-150.7319 1523.017,-125.0332 1509.3855,-106.0969"/>
<polygon fill="#191970" stroke="#191970" points="1512.1136,-103.8898 1503.5286,-97.6812 1506.3681,-107.8884 1512.1136,-103.8898"/>
</g>
<!-- Node34&#45;&gt;Node10 -->
<g id="edge91" class="edge">
<title>Node34&#45;&gt;Node10</title>
<path fill="none" stroke="#191970" d="M2397.8076,-269.1343C2417.7305,-261.5051 2437.0938,-249.8372 2449,-232 2473.181,-195.7734 2472.04,-170.9627 2449,-134 2433.2118,-108.6712 2400.934,-95.45 2376.3097,-88.7832"/>
<polygon fill="#191970" stroke="#191970" points="2376.8428,-85.3098 2366.2954,-86.311 2375.1651,-92.1058 2376.8428,-85.3098"/>
</g>
<!-- Node34&#45;&gt;Node29 -->
<g id="edge89" class="edge">
<title>Node34&#45;&gt;Node29</title>
<path fill="none" stroke="#191970" d="M2252.0781,-282.1219C1992.7513,-277.02 1124.1495,-258.1407 1002,-232 965.9253,-224.2798 960.8032,-209.8949 925,-201 775.8113,-163.9359 733.0204,-187.8212 581,-165 569.0268,-163.2026 556.111,-160.8468 544.2615,-158.5164"/>
<polygon fill="#191970" stroke="#191970" points="544.6668,-155.028 534.1733,-156.4896 543.288,-161.8908 544.6668,-155.028"/>
</g>
<!-- Node35 -->
<g id="node36" class="node">
<title>Node35</title>
<g id="a_node36"><a xlink:href="drake__optional_8h.html" target="_top" xlink:title="Provides drake::optional as an alias for the appropriate implementation of std::optional or std::expe...">
<polygon fill="#ffffff" stroke="#000000" points="2615.5,-134.5 2615.5,-164.5 2736.5,-164.5 2736.5,-134.5 2615.5,-134.5"/>
<text text-anchor="start" x="2623.5" y="-152.5" font-family="Helvetica,sans-Serif" font-size="10.00" fill="#000000">drake/common/drake</text>
<text text-anchor="middle" x="2676" y="-141.5" font-family="Helvetica,sans-Serif" font-size="10.00" fill="#000000">_optional.h</text>
</a>
</g>
</g>
<!-- Node34&#45;&gt;Node35 -->
<g id="edge94" class="edge">
<title>Node34&#45;&gt;Node35</title>
<path fill="none" stroke="#191970" d="M2397.6754,-277.4647C2493.3841,-268.7959 2651.755,-251.6789 2670,-232 2683.9567,-216.9464 2684.1979,-192.9816 2681.6889,-174.7507"/>
<polygon fill="#191970" stroke="#191970" points="2685.1203,-174.0525 2679.9767,-164.7899 2678.2215,-175.2384 2685.1203,-174.0525"/>
</g>
<!-- Node38 -->
<g id="node39" class="node">
<title>Node38</title>
<g id="a_node39"><a xlink:href="drake__variant_8h.html" target="_top" xlink:title="Provides drake::variant as an alias for the appropriate implementation of std::variant or or stx::var...">
<polygon fill="#ffffff" stroke="#000000" points="2539.5,-201.5 2539.5,-231.5 2660.5,-231.5 2660.5,-201.5 2539.5,-201.5"/>
<text text-anchor="start" x="2547.5" y="-219.5" font-family="Helvetica,sans-Serif" font-size="10.00" fill="#000000">drake/common/drake</text>
<text text-anchor="middle" x="2600" y="-208.5" font-family="Helvetica,sans-Serif" font-size="10.00" fill="#000000">_variant.h</text>
</a>
</g>
</g>
<!-- Node34&#45;&gt;Node38 -->
<g id="edge97" class="edge">
<title>Node34&#45;&gt;Node38</title>
<path fill="none" stroke="#191970" d="M2386.7154,-268.4639C2429.1156,-258.1336 2485.4977,-244.3969 2529.6426,-233.6416"/>
<polygon fill="#191970" stroke="#191970" points="2530.5501,-237.023 2539.4374,-231.2553 2528.8931,-230.2219 2530.5501,-237.023"/>
</g>
<!-- Node39 -->
<g id="node40" class="node">
<title>Node39</title>
<g id="a_node40"><a xlink:href="type__safe__index_8h.html" target="_top" xlink:title="drake/common/type_safe\l_index.h">
<polygon fill="#ffffff" stroke="#000000" points="2106.5,-201.5 2106.5,-231.5 2247.5,-231.5 2247.5,-201.5 2106.5,-201.5"/>
<text text-anchor="start" x="2114.5" y="-219.5" font-family="Helvetica,sans-Serif" font-size="10.00" fill="#000000">drake/common/type_safe</text>
<text text-anchor="middle" x="2177" y="-208.5" font-family="Helvetica,sans-Serif" font-size="10.00" fill="#000000">_index.h</text>
</a>
</g>
</g>
<!-- Node34&#45;&gt;Node39 -->
<g id="edge99" class="edge">
<title>Node34&#45;&gt;Node39</title>
<path fill="none" stroke="#191970" d="M2291.7859,-268.4639C2270.438,-258.7996 2242.5043,-246.154 2219.5384,-235.7572"/>
<polygon fill="#191970" stroke="#191970" points="2220.9124,-232.5374 2210.359,-231.6017 2218.0255,-238.9144 2220.9124,-232.5374"/>
</g>
<!-- Node36 -->
<g id="node37" class="node">
<title>Node36</title>
<polygon fill="#ffffff" stroke="#bfbfbf" points="2685,-73 2685,-92 2775,-92 2775,-73 2685,-73"/>
<text text-anchor="middle" x="2730" y="-80" font-family="Helvetica,sans-Serif" font-size="10.00" fill="#000000">stx/variant.hpp</text>
</g>
<!-- Node35&#45;&gt;Node36 -->
<g id="edge95" class="edge">
<title>Node35&#45;&gt;Node36</title>
<path fill="none" stroke="#191970" d="M2688.2534,-134.2967C2696.5035,-124.0605 2707.4034,-110.5366 2715.9966,-99.8746"/>
<polygon fill="#191970" stroke="#191970" points="2718.7488,-102.0373 2722.299,-92.055 2713.2986,-97.6446 2718.7488,-102.0373"/>
</g>
<!-- Node37 -->
<g id="node38" class="node">
<title>Node37</title>
<polygon fill="#ffffff" stroke="#bfbfbf" points="2571.5,-73 2571.5,-92 2666.5,-92 2666.5,-73 2571.5,-73"/>
<text text-anchor="middle" x="2619" y="-80" font-family="Helvetica,sans-Serif" font-size="10.00" fill="#000000">stx/optional.hpp</text>
</g>
<!-- Node35&#45;&gt;Node37 -->
<g id="edge96" class="edge">
<title>Node35&#45;&gt;Node37</title>
<path fill="none" stroke="#191970" d="M2663.0658,-134.2967C2654.3574,-124.0605 2642.852,-110.5366 2633.7814,-99.8746"/>
<polygon fill="#191970" stroke="#191970" points="2636.2745,-97.4036 2627.1289,-92.055 2630.9429,-101.9395 2636.2745,-97.4036"/>
</g>
<!-- Node38&#45;&gt;Node35 -->
<g id="edge98" class="edge">
<title>Node38&#45;&gt;Node35</title>
<path fill="none" stroke="#191970" d="M2617.2456,-201.2967C2627.2542,-192.4733 2640.0336,-181.2072 2651.1164,-171.4368"/>
<polygon fill="#191970" stroke="#191970" points="2653.6359,-173.8816 2658.8227,-164.6432 2649.0068,-168.6307 2653.6359,-173.8816"/>
</g>
<!-- Node39&#45;&gt;Node6 -->
<g id="edge103" class="edge">
<title>Node39&#45;&gt;Node6</title>
<path fill="none" stroke="#191970" d="M2106.2116,-206.6231C2092.5397,-204.7382 2078.3261,-202.7944 2065,-201 1942.8374,-184.5509 1903.492,-213.1024 1790,-165 1769.6135,-156.3594 1771.0829,-143.3246 1751,-134 1691.6755,-106.4552 1617.9499,-93.6062 1564.6968,-87.6341"/>
<polygon fill="#191970" stroke="#191970" points="1564.98,-84.1445 1554.6649,-86.5629 1564.2368,-91.1049 1564.98,-84.1445"/>
</g>
<!-- Node39&#45;&gt;Node10 -->
<g id="edge102" class="edge">
<title>Node39&#45;&gt;Node10</title>
<path fill="none" stroke="#191970" d="M2224.1925,-201.4972C2245.5704,-193.1052 2270.2042,-181.0542 2289,-165 2309.8733,-147.1713 2326.0835,-119.5416 2335.3406,-101.2396"/>
<polygon fill="#191970" stroke="#191970" points="2338.5333,-102.6773 2339.7536,-92.1529 2332.2366,-99.6192 2338.5333,-102.6773"/>
</g>
<!-- Node39&#45;&gt;Node16 -->
<g id="edge105" class="edge">
<title>Node39&#45;&gt;Node16</title>
<path fill="none" stroke="#191970" d="M2177,-201.2967C2177,-193.5013 2177,-183.7991 2177,-174.9064"/>
<polygon fill="#191970" stroke="#191970" points="2180.5001,-174.6431 2177,-164.6432 2173.5001,-174.6432 2180.5001,-174.6431"/>
</g>
<!-- Node39&#45;&gt;Node24 -->
<g id="edge101" class="edge">
<title>Node39&#45;&gt;Node24</title>
<path fill="none" stroke="#191970" d="M2106.3031,-205.8344C2092.623,-204.0203 2078.383,-202.3043 2065,-201 1724.015,-167.7684 1308.5846,-153.8332 1191.2327,-150.3906"/>
<polygon fill="#191970" stroke="#191970" points="1191.2218,-146.889 1181.1249,-150.0986 1191.0196,-153.886 1191.2218,-146.889"/>
</g>
<!-- Node39&#45;&gt;Node26 -->
<g id="edge104" class="edge">
<title>Node39&#45;&gt;Node26</title>
<path fill="none" stroke="#191970" d="M2106.3215,-205.6364C2092.6397,-203.8401 2078.3944,-202.1812 2065,-201 1649.8595,-164.3896 1544.3551,-183.1768 1128,-165 1043.3507,-161.3045 946.0174,-156.456 881.7807,-153.173"/>
<polygon fill="#191970" stroke="#191970" points="881.9282,-149.6761 871.7623,-152.66 881.5702,-156.6669 881.9282,-149.6761"/>
</g>
<!-- Node40 -->
<g id="node41" class="node">
<title>Node40</title>
<polygon fill="#ffffff" stroke="#bfbfbf" points="2341.5,-140 2341.5,-159 2406.5,-159 2406.5,-140 2341.5,-140"/>
<text text-anchor="middle" x="2374" y="-147" font-family="Helvetica,sans-Serif" font-size="10.00" fill="#000000">functional</text>
</g>
<!-- Node39&#45;&gt;Node40 -->
<g id="edge100" class="edge">
<title>Node39&#45;&gt;Node40</title>
<path fill="none" stroke="#191970" d="M2221.2106,-201.4639C2255.8565,-189.6808 2303.5337,-173.4657 2336.3688,-162.2984"/>
<polygon fill="#191970" stroke="#191970" points="2337.7112,-165.5388 2346.0516,-159.0053 2335.4572,-158.9116 2337.7112,-165.5388"/>
</g>
</g>
</svg>
