<?xml version="1.0" encoding="UTF-8" standalone="no"?>
<!DOCTYPE svg PUBLIC "-//W3C//DTD SVG 1.1//EN"
 "http://www.w3.org/Graphics/SVG/1.1/DTD/svg11.dtd">
<!-- Generated by graphviz version 2.40.1 (20161225.0304)
 -->
<!-- Title: drake/systems/framework/supervector.h Pages: 1 -->
<svg width="820pt" height="296pt"
 viewBox="0.00 0.00 819.50 296.00" xmlns="http://www.w3.org/2000/svg" xmlns:xlink="http://www.w3.org/1999/xlink">
<g id="graph0" class="graph" transform="scale(1 1) rotate(0) translate(4 292)">
<title>drake/systems/framework/supervector.h</title>
<polygon fill="#ffffff" stroke="transparent" points="-4,4 -4,-292 815.5,-292 815.5,4 -4,4"/>
<!-- Node0 -->
<g id="node1" class="node">
<title>Node0</title>
<polygon fill="#bfbfbf" stroke="#000000" points="493.5,-257.5 493.5,-287.5 638.5,-287.5 638.5,-257.5 493.5,-257.5"/>
<text text-anchor="start" x="501.5" y="-275.5" font-family="Helvetica,sans-Serif" font-size="10.00" fill="#000000">drake/systems/framework</text>
<text text-anchor="middle" x="566" y="-264.5" font-family="Helvetica,sans-Serif" font-size="10.00" fill="#000000">/supervector.h</text>
</g>
<!-- Node1 -->
<g id="node2" class="node">
<title>Node1</title>
<polygon fill="#ffffff" stroke="#bfbfbf" points="0,-129 0,-148 64,-148 64,-129 0,-129"/>
<text text-anchor="middle" x="32" y="-136" font-family="Helvetica,sans-Serif" font-size="10.00" fill="#000000">algorithm</text>
</g>
<!-- Node0&#45;&gt;Node1 -->
<g id="edge1" class="edge">
<title>Node0&#45;&gt;Node1</title>
<path fill="none" stroke="#191970" d="M493.4842,-269.1457C418.3669,-264.1029 298.2941,-251.6208 199,-221 145.5107,-204.5047 88.0064,-172.599 56.3706,-153.6635"/>
<polygon fill="#191970" stroke="#191970" points="57.7819,-150.4261 47.4162,-148.2348 54.1529,-156.412 57.7819,-150.4261"/>
</g>
<!-- Node2 -->
<g id="node3" class="node">
<title>Node2</title>
<polygon fill="#ffffff" stroke="#bfbfbf" points="613,-196 613,-215 663,-215 663,-196 613,-196"/>
<text text-anchor="middle" x="638" y="-203" font-family="Helvetica,sans-Serif" font-size="10.00" fill="#000000">cstdint</text>
</g>
<!-- Node0&#45;&gt;Node2 -->
<g id="edge2" class="edge">
<title>Node0&#45;&gt;Node2</title>
<path fill="none" stroke="#191970" d="M582.3379,-257.2967C593.6648,-246.7564 608.7376,-232.7303 620.3414,-221.9323"/>
<polygon fill="#191970" stroke="#191970" points="622.7956,-224.4296 627.732,-215.055 618.0269,-219.3051 622.7956,-224.4296"/>
</g>
<!-- Node3 -->
<g id="node4" class="node">
<title>Node3</title>
<polygon fill="#ffffff" stroke="#bfbfbf" points="681.5,-196 681.5,-215 746.5,-215 746.5,-196 681.5,-196"/>
<text text-anchor="middle" x="714" y="-203" font-family="Helvetica,sans-Serif" font-size="10.00" fill="#000000">stdexcept</text>
</g>
<!-- Node0&#45;&gt;Node3 -->
<g id="edge3" class="edge">
<title>Node0&#45;&gt;Node3</title>
<path fill="none" stroke="#191970" d="M599.2141,-257.4639C624.494,-246.0196 659.0092,-230.3945 683.5739,-219.274"/>
<polygon fill="#191970" stroke="#191970" points="685.1188,-222.4166 692.7854,-215.1039 682.2319,-216.0396 685.1188,-222.4166"/>
</g>
<!-- Node4 -->
<g id="node5" class="node">
<title>Node4</title>
<polygon fill="#ffffff" stroke="#bfbfbf" points="82.5,-129 82.5,-148 127.5,-148 127.5,-129 82.5,-129"/>
<text text-anchor="middle" x="105" y="-136" font-family="Helvetica,sans-Serif" font-size="10.00" fill="#000000">utility</text>
</g>
<!-- Node0&#45;&gt;Node4 -->
<g id="edge4" class="edge">
<title>Node0&#45;&gt;Node4</title>
<path fill="none" stroke="#191970" d="M493.4606,-265.1943C433.9788,-257.8873 348.1371,-244.3029 276,-221 221.4733,-203.3859 162.1482,-171.6511 129.6852,-153.0956"/>
<polygon fill="#191970" stroke="#191970" points="131.297,-149.9847 120.8874,-148.0121 127.7949,-156.0456 131.297,-149.9847"/>
</g>
<!-- Node5 -->
<g id="node6" class="node">
<title>Node5</title>
<polygon fill="#ffffff" stroke="#bfbfbf" points="764.5,-196 764.5,-215 811.5,-215 811.5,-196 764.5,-196"/>
<text text-anchor="middle" x="788" y="-203" font-family="Helvetica,sans-Serif" font-size="10.00" fill="#000000">vector</text>
</g>
<!-- Node0&#45;&gt;Node5 -->
<g id="edge5" class="edge">
<title>Node0&#45;&gt;Node5</title>
<path fill="none" stroke="#191970" d="M633.3483,-257.4923C670.1187,-248.4928 716.1463,-235.9047 756,-221 757.4093,-220.4729 758.8404,-219.9057 760.2763,-219.3108"/>
<polygon fill="#191970" stroke="#191970" points="761.9482,-222.3969 769.6428,-215.1138 759.0859,-216.0089 761.9482,-222.3969"/>
</g>
<!-- Node6 -->
<g id="node7" class="node">
<title>Node6</title>
<polygon fill="#ffffff" stroke="#bfbfbf" points="475.5,-62 475.5,-81 552.5,-81 552.5,-62 475.5,-62"/>
<text text-anchor="middle" x="514" y="-69" font-family="Helvetica,sans-Serif" font-size="10.00" fill="#000000">Eigen/Dense</text>
</g>
<!-- Node0&#45;&gt;Node6 -->
<g id="edge6" class="edge">
<title>Node0&#45;&gt;Node6</title>
<path fill="none" stroke="#191970" d="M562.0915,-257.3923C552.808,-221.5077 529.4367,-131.1687 519.0781,-91.1287"/>
<polygon fill="#191970" stroke="#191970" points="522.4171,-90.0608 516.524,-81.2562 515.6402,-91.8141 522.4171,-90.0608"/>
</g>
<!-- Node7 -->
<g id="node8" class="node">
<title>Node7</title>
<g id="a_node8"><a xlink:href="drake__copyable_8h.html" target="_top" xlink:title="Provides careful macros to selectively enable or disable the special member functions for copy&#45;constr...">
<polygon fill="#ffffff" stroke="#000000" points="570.5,-56.5 570.5,-86.5 691.5,-86.5 691.5,-56.5 570.5,-56.5"/>
<text text-anchor="start" x="578.5" y="-74.5" font-family="Helvetica,sans-Serif" font-size="10.00" fill="#000000">drake/common/drake</text>
<text text-anchor="middle" x="631" y="-63.5" font-family="Helvetica,sans-Serif" font-size="10.00" fill="#000000">_copyable.h</text>
</a>
</g>
</g>
<!-- Node0&#45;&gt;Node7 -->
<g id="edge7" class="edge">
<title>Node0&#45;&gt;Node7</title>
<path fill="none" stroke="#191970" d="M570.8856,-257.3923C582.0176,-222.9685 609.3549,-138.4334 622.9926,-96.2615"/>
<polygon fill="#191970" stroke="#191970" points="626.3996,-97.1006 626.1464,-86.5088 619.7392,-94.9467 626.3996,-97.1006"/>
</g>
<!-- Node8 -->
<g id="node9" class="node">
<title>Node8</title>
<g id="a_node9"><a xlink:href="vector__base_8h.html" target="_top" xlink:title="drake/systems/framework\l/vector_base.h">
<polygon fill="#ffffff" stroke="#000000" points="284.5,-190.5 284.5,-220.5 429.5,-220.5 429.5,-190.5 284.5,-190.5"/>
<text text-anchor="start" x="292.5" y="-208.5" font-family="Helvetica,sans-Serif" font-size="10.00" fill="#000000">drake/systems/framework</text>
<text text-anchor="middle" x="357" y="-197.5" font-family="Helvetica,sans-Serif" font-size="10.00" fill="#000000">/vector_base.h</text>
</a>
</g>
</g>
<!-- Node0&#45;&gt;Node8 -->
<g id="edge8" class="edge">
<title>Node0&#45;&gt;Node8</title>
<path fill="none" stroke="#191970" d="M519.0963,-257.4639C487.8777,-247.456 446.6858,-234.2509 413.6391,-223.657"/>
<polygon fill="#191970" stroke="#191970" points="414.6994,-220.3215 404.1083,-220.6017 412.5624,-226.9874 414.6994,-220.3215"/>
</g>
<!-- Node8&#45;&gt;Node1 -->
<g id="edge9" class="edge">
<title>Node8&#45;&gt;Node1</title>
<path fill="none" stroke="#191970" d="M284.3995,-196.0571C226.5249,-187.6416 143.7429,-173.6103 73,-154 70.2501,-153.2377 67.426,-152.3661 64.6085,-151.4337"/>
<polygon fill="#191970" stroke="#191970" points="65.7669,-148.131 55.1721,-148.0991 63.4346,-154.731 65.7669,-148.131"/>
</g>
<!-- Node8&#45;&gt;Node4 -->
<g id="edge11" class="edge">
<title>Node8&#45;&gt;Node4</title>
<path fill="none" stroke="#191970" d="M284.2596,-192.6803C240.833,-183.995 184.9747,-170.998 137,-154 135.3999,-153.4331 133.7743,-152.8091 132.1472,-152.1468"/>
<polygon fill="#191970" stroke="#191970" points="133.5369,-148.9344 122.9777,-148.0664 130.691,-155.3298 133.5369,-148.9344"/>
</g>
<!-- Node8&#45;&gt;Node6 -->
<g id="edge12" class="edge">
<title>Node8&#45;&gt;Node6</title>
<path fill="none" stroke="#191970" d="M393.1305,-190.4435C411.9102,-181.5459 434.5236,-169.0685 452,-154 473.5243,-135.4414 492.1787,-108.2067 503.2557,-90.1731"/>
<polygon fill="#191970" stroke="#191970" points="506.4825,-91.5957 508.6002,-81.2146 500.471,-88.0093 506.4825,-91.5957"/>
</g>
<!-- Node8&#45;&gt;Node7 -->
<g id="edge13" class="edge">
<title>Node8&#45;&gt;Node7</title>
<path fill="none" stroke="#191970" d="M395.3444,-190.4376C419.592,-180.6374 451.445,-167.2547 479,-154 519.9501,-134.3019 565.6061,-109.0604 596.0918,-91.7144"/>
<polygon fill="#191970" stroke="#191970" points="598.0975,-94.5995 605.0438,-86.5996 594.6248,-88.5216 598.0975,-94.5995"/>
</g>
<!-- Node9 -->
<g id="node10" class="node">
<title>Node9</title>
<polygon fill="#ffffff" stroke="#bfbfbf" points="233,-62 233,-81 291,-81 291,-62 233,-62"/>
<text text-anchor="middle" x="262" y="-69" font-family="Helvetica,sans-Serif" font-size="10.00" fill="#000000">memory</text>
</g>
<!-- Node8&#45;&gt;Node9 -->
<g id="edge10" class="edge">
<title>Node8&#45;&gt;Node9</title>
<path fill="none" stroke="#191970" d="M343.2676,-190.158C334.5344,-180.1392 323.1834,-166.6205 314,-154 298.6779,-132.9432 282.9959,-107.4073 272.9177,-90.3761"/>
<polygon fill="#191970" stroke="#191970" points="275.7512,-88.2885 267.6765,-81.4293 269.7113,-91.8269 275.7512,-88.2885"/>
</g>
<!-- Node10 -->
<g id="node11" class="node">
<title>Node10</title>
<g id="a_node11"><a xlink:href="drake__throw_8h.html" target="_top" xlink:title="Provides a convenient wrapper to throw an exception when a condition is unmet. ">
<polygon fill="#ffffff" stroke="#000000" points="145.5,-123.5 145.5,-153.5 266.5,-153.5 266.5,-123.5 145.5,-123.5"/>
<text text-anchor="start" x="153.5" y="-141.5" font-family="Helvetica,sans-Serif" font-size="10.00" fill="#000000">drake/common/drake</text>
<text text-anchor="middle" x="206" y="-130.5" font-family="Helvetica,sans-Serif" font-size="10.00" fill="#000000">_throw.h</text>
</a>
</g>
</g>
<!-- Node8&#45;&gt;Node10 -->
<g id="edge14" class="edge">
<title>Node8&#45;&gt;Node10</title>
<path fill="none" stroke="#191970" d="M323.1127,-190.4639C301.332,-180.7996 272.8321,-168.154 249.4007,-157.7572"/>
<polygon fill="#191970" stroke="#191970" points="250.5953,-154.4583 240.0351,-153.6017 247.7562,-160.8567 250.5953,-154.4583"/>
</g>
<!-- Node13 -->
<g id="node14" class="node">
<title>Node13</title>
<g id="a_node14"><a xlink:href="eigen__types_8h.html" target="_top" xlink:title="This file contains abbreviated definitions for certain specializations of Eigen::Matrix that are comm...">
<polygon fill="#ffffff" stroke="#000000" points="323,-123.5 323,-153.5 443,-153.5 443,-123.5 323,-123.5"/>
<text text-anchor="start" x="331" y="-141.5" font-family="Helvetica,sans-Serif" font-size="10.00" fill="#000000">drake/common/eigen</text>
<text text-anchor="middle" x="383" y="-130.5" font-family="Helvetica,sans-Serif" font-size="10.00" fill="#000000">_types.h</text>
</a>
</g>
</g>
<!-- Node8&#45;&gt;Node13 -->
<g id="edge18" class="edge">
<title>Node8&#45;&gt;Node13</title>
<path fill="none" stroke="#191970" d="M362.8998,-190.2967C366.0246,-182.2443 369.9389,-172.1574 373.481,-163.0296"/>
<polygon fill="#191970" stroke="#191970" points="376.7687,-164.2321 377.1235,-153.6432 370.2428,-161.6996 376.7687,-164.2321"/>
</g>
<!-- Node11 -->
<g id="node12" class="node">
<title>Node11</title>
<polygon fill="#ffffff" stroke="#bfbfbf" points="74.5,-.5 74.5,-19.5 143.5,-19.5 143.5,-.5 74.5,-.5"/>
<text text-anchor="middle" x="109" y="-7.5" font-family="Helvetica,sans-Serif" font-size="10.00" fill="#000000">type_traits</text>
</g>
<!-- Node10&#45;&gt;Node11 -->
<g id="edge15" class="edge">
<title>Node10&#45;&gt;Node11</title>
<path fill="none" stroke="#191970" d="M155.4178,-123.4164C125.7886,-113.4458 92.5463,-99.8842 84,-87 71.9384,-68.8163 83.7006,-44.3687 94.8269,-27.9421"/>
<polygon fill="#191970" stroke="#191970" points="97.7446,-29.8807 100.7874,-19.7322 92.0801,-25.7681 97.7446,-29.8807"/>
</g>
<!-- Node12 -->
<g id="node13" class="node">
<title>Node12</title>
<g id="a_node13"><a xlink:href="drake__assert_8h.html" target="_top" xlink:title="Provides Drake&#39;s assertion implementation. ">
<polygon fill="#ffffff" stroke="#000000" points="93.5,-56.5 93.5,-86.5 214.5,-86.5 214.5,-56.5 93.5,-56.5"/>
<text text-anchor="start" x="101.5" y="-74.5" font-family="Helvetica,sans-Serif" font-size="10.00" fill="#000000">drake/common/drake</text>
<text text-anchor="middle" x="154" y="-63.5" font-family="Helvetica,sans-Serif" font-size="10.00" fill="#000000">_assert.h</text>
</a>
</g>
</g>
<!-- Node10&#45;&gt;Node12 -->
<g id="edge16" class="edge">
<title>Node10&#45;&gt;Node12</title>
<path fill="none" stroke="#191970" d="M194.2004,-123.2967C187.6184,-114.816 179.2848,-104.0785 171.9141,-94.5817"/>
<polygon fill="#191970" stroke="#191970" points="174.6491,-92.3971 165.7529,-86.6432 169.1192,-96.689 174.6491,-92.3971"/>
</g>
<!-- Node12&#45;&gt;Node11 -->
<g id="edge17" class="edge">
<title>Node12&#45;&gt;Node11</title>
<path fill="none" stroke="#191970" d="M142.8764,-56.2977C136.6299,-47.7609 128.796,-37.0545 122.2353,-28.0883"/>
<polygon fill="#191970" stroke="#191970" points="124.9348,-25.8505 116.2051,-19.8469 119.2856,-29.984 124.9348,-25.8505"/>
</g>
<!-- Node13&#45;&gt;Node6 -->
<g id="edge20" class="edge">
<title>Node13&#45;&gt;Node6</title>
<path fill="none" stroke="#191970" d="M412.399,-123.4639C434.4781,-112.1715 464.5161,-96.8086 486.1983,-85.7192"/>
<polygon fill="#191970" stroke="#191970" points="487.9128,-88.7736 495.2222,-81.1039 484.7253,-82.5414 487.9128,-88.7736"/>
</g>
<!-- Node13&#45;&gt;Node7 -->
<g id="edge22" class="edge">
<title>Node13&#45;&gt;Node7</title>
<path fill="none" stroke="#191970" d="M438.656,-123.4639C476.1771,-113.3272 525.8392,-99.9104 565.3017,-89.2491"/>
<polygon fill="#191970" stroke="#191970" points="566.3602,-92.5887 575.1012,-86.6017 564.5344,-85.831 566.3602,-92.5887"/>
</g>
<!-- Node13&#45;&gt;Node9 -->
<g id="edge19" class="edge">
<title>Node13&#45;&gt;Node9</title>
<path fill="none" stroke="#191970" d="M355.8452,-123.4639C335.6344,-112.2728 308.2036,-97.0838 288.2201,-86.0186"/>
<polygon fill="#191970" stroke="#191970" points="289.7883,-82.8862 279.3444,-81.1039 286.3973,-89.0101 289.7883,-82.8862"/>
</g>
<!-- Node14 -->
<g id="node15" class="node">
<title>Node14</title>
<g id="a_node15"><a xlink:href="constants_8h.html" target="_top" xlink:title="drake/common/constants.h">
<polygon fill="#ffffff" stroke="#000000" points="308.5,-62 308.5,-81 457.5,-81 457.5,-62 308.5,-62"/>
<text text-anchor="middle" x="383" y="-69" font-family="Helvetica,sans-Serif" font-size="10.00" fill="#000000">drake/common/constants.h</text>
</a>
</g>
</g>
<!-- Node13&#45;&gt;Node14 -->
<g id="edge21" class="edge">
<title>Node13&#45;&gt;Node14</title>
<path fill="none" stroke="#191970" d="M383,-123.2967C383,-113.7699 383,-101.3954 383,-91.1306"/>
<polygon fill="#191970" stroke="#191970" points="386.5001,-91.0549 383,-81.055 379.5001,-91.055 386.5001,-91.0549"/>
</g>
</g>
</svg>
