<?xml version="1.0" encoding="UTF-8" standalone="no"?>
<!DOCTYPE svg PUBLIC "-//W3C//DTD SVG 1.1//EN"
 "http://www.w3.org/Graphics/SVG/1.1/DTD/svg11.dtd">
<!-- Generated by graphviz version 2.40.1 (20161225.0304)
 -->
<!-- Title: drake/systems/framework/system_base.cc Pages: 1 -->
<!--zoomable 709 -->
<svg id="main" version="1.1" xmlns="http://www.w3.org/2000/svg" xmlns:xlink="http://www.w3.org/1999/xlink" xml:space="preserve" onload="init(evt)">
<style type="text/css"><![CDATA[
.edge:hover path { stroke: red; }
.edge:hover polygon { stroke: red; fill: red; }
]]></style>
<script type="text/javascript"><![CDATA[
var edges = document.getElementsByTagName('g');
if (edges && edges.length) {
  for (var i=0;i<edges.length;i++) {
    if (edges[i].id.substr(0,4)=='edge') {
      edges[i].setAttribute('class','edge');
    }
  }
}
]]></script>
        <defs>
                <circle id="rim" cx="0" cy="0" r="7"/>
                <circle id="rim2" cx="0" cy="0" r="3.5"/>
                <g id="zoomPlus">
                        <use xlink:href="#rim" fill="#404040">
                                <set attributeName="fill" to="#808080" begin="zoomplus.mouseover" end="zoomplus.mouseout"/>
                        </use>
                        <path d="M-4,0h8M0,-4v8" fill="none" stroke="white" stroke-width="1.5" pointer-events="none"/>
                </g>
                <g id="zoomMin">
                        <use xlink:href="#rim" fill="#404040">
                                <set attributeName="fill" to="#808080" begin="zoomminus.mouseover" end="zoomminus.mouseout"/>
                        </use>
                        <path d="M-4,0h8" fill="none" stroke="white" stroke-width="1.5" pointer-events="none"/>
                </g>
                <g id="dirArrow">
                        <path fill="none" stroke="white" stroke-width="1.5" d="M0,-3.0v7 M-2.5,-0.5L0,-3.0L2.5,-0.5"/>
                </g>
               <g id="resetDef">
                       <use xlink:href="#rim2" fill="#404040">
                               <set attributeName="fill" to="#808080" begin="reset.mouseover" end="reset.mouseout"/>
                       </use>
               </g>
        </defs>

<script type="text/javascript">
var viewWidth = 3508;
var viewHeight = 709;
var sectionId = 'dynsection-0';
</script>
<script xlink:href="svgpan.js"/>
<svg id="graph" class="graph">
<g id="viewport">
<title>drake/systems/framework/system_base.cc</title>
<polygon fill="#ffffff" stroke="transparent" points="-4,4 -4,-705 3504,-705 3504,4 -4,4"/>
<!-- Node0 -->
<g id="node1" class="node">
<title>Node0</title>
<polygon fill="#bfbfbf" stroke="#000000" points="2141.5,-670.5 2141.5,-700.5 2286.5,-700.5 2286.5,-670.5 2141.5,-670.5"/>
<text text-anchor="start" x="2149.5" y="-688.5" font-family="Helvetica,sans-Serif" font-size="10.00" fill="#000000">drake/systems/framework</text>
<text text-anchor="middle" x="2214" y="-677.5" font-family="Helvetica,sans-Serif" font-size="10.00" fill="#000000">/system_base.cc</text>
</g>
<!-- Node1 -->
<g id="node2" class="node">
<title>Node1</title>
<g id="a_node2"><a xlink:href="system__base_8h.html" target="_top" xlink:title="drake/systems/framework\l/system_base.h">
<polygon fill="#ffffff" stroke="#000000" points="2141.5,-603.5 2141.5,-633.5 2286.5,-633.5 2286.5,-603.5 2141.5,-603.5"/>
<text text-anchor="start" x="2149.5" y="-621.5" font-family="Helvetica,sans-Serif" font-size="10.00" fill="#000000">drake/systems/framework</text>
<text text-anchor="middle" x="2214" y="-610.5" font-family="Helvetica,sans-Serif" font-size="10.00" fill="#000000">/system_base.h</text>
</a>
</g>
</g>
<!-- Node0&#45;&gt;Node1 -->
<g id="edge1" class="edge">
<title>Node0&#45;&gt;Node1</title>
<path fill="none" stroke="#191970" d="M2214,-670.2967C2214,-662.5013 2214,-652.7991 2214,-643.9064"/>
<polygon fill="#191970" stroke="#191970" points="2217.5001,-643.6431 2214,-633.6432 2210.5001,-643.6432 2217.5001,-643.6431"/>
</g>
<!-- Node39 -->
<g id="node40" class="node">
<title>Node39</title>
<g id="a_node40"><a xlink:href="fixed__input__port__value_8h.html" target="_top" xlink:title="drake/systems/framework\l/fixed_input_port_value.h">
<polygon fill="#ffffff" stroke="#000000" points="1964.5,-335.5 1964.5,-365.5 2109.5,-365.5 2109.5,-335.5 1964.5,-335.5"/>
<text text-anchor="start" x="1972.5" y="-353.5" font-family="Helvetica,sans-Serif" font-size="10.00" fill="#000000">drake/systems/framework</text>
<text text-anchor="middle" x="2037" y="-342.5" font-family="Helvetica,sans-Serif" font-size="10.00" fill="#000000">/fixed_input_port_value.h</text>
</a>
</g>
</g>
<!-- Node0&#45;&gt;Node39 -->
<g id="edge154" class="edge">
<title>Node0&#45;&gt;Node39</title>
<path fill="none" stroke="#191970" d="M2178.8987,-670.329C2162.647,-661.7493 2144.2666,-649.5895 2132,-634 2068.7688,-553.6403 2046.5983,-429.0893 2039.737,-375.9377"/>
<polygon fill="#191970" stroke="#191970" points="2043.1764,-375.226 2038.496,-365.721 2036.2275,-376.0701 2043.1764,-375.226"/>
</g>
<!-- Node52 -->
<g id="node53" class="node">
<title>Node52</title>
<polygon fill="#ffffff" stroke="#bfbfbf" points="2304.5,-609 2304.5,-628 2383.5,-628 2383.5,-609 2304.5,-609"/>
<text text-anchor="middle" x="2344" y="-616" font-family="Helvetica,sans-Serif" font-size="10.00" fill="#000000">fmt/format.h</text>
</g>
<!-- Node0&#45;&gt;Node52 -->
<g id="edge153" class="edge">
<title>Node0&#45;&gt;Node52</title>
<path fill="none" stroke="#191970" d="M2243.1745,-670.4639C2265.0851,-659.1715 2294.8938,-643.8086 2316.4105,-632.7192"/>
<polygon fill="#191970" stroke="#191970" points="2318.0801,-635.7963 2325.3655,-628.1039 2314.8732,-629.5741 2318.0801,-635.7963"/>
</g>
<!-- Node2 -->
<g id="node3" class="node">
<title>Node2</title>
<polygon fill="#ffffff" stroke="#bfbfbf" points="3280.5,-140 3280.5,-159 3345.5,-159 3345.5,-140 3280.5,-140"/>
<text text-anchor="middle" x="3313" y="-147" font-family="Helvetica,sans-Serif" font-size="10.00" fill="#000000">functional</text>
</g>
<!-- Node1&#45;&gt;Node2 -->
<g id="edge2" class="edge">
<title>Node1&#45;&gt;Node2</title>
<path fill="none" stroke="#191970" d="M2286.776,-604.0176C2289.5479,-603.6429 2292.2964,-603.3011 2295,-603 2355.713,-596.2386 3351.517,-610.8974 3394,-567 3486.9434,-470.9622 3403.1843,-395.1439 3362,-268 3350.3397,-232.0023 3332.5628,-191.5685 3321.9316,-168.4575"/>
<polygon fill="#191970" stroke="#191970" points="3324.9874,-166.7282 3317.5974,-159.1361 3318.64,-169.6796 3324.9874,-166.7282"/>
</g>
<!-- Node3 -->
<g id="node4" class="node">
<title>Node3</title>
<polygon fill="#ffffff" stroke="#bfbfbf" points="2286,-73 2286,-92 2344,-92 2344,-73 2286,-73"/>
<text text-anchor="middle" x="2315" y="-80" font-family="Helvetica,sans-Serif" font-size="10.00" fill="#000000">memory</text>
</g>
<!-- Node1&#45;&gt;Node3 -->
<g id="edge3" class="edge">
<title>Node1&#45;&gt;Node3</title>
<path fill="none" stroke="#191970" d="M2286.7798,-604.0509C2289.5506,-603.6669 2292.2978,-603.314 2295,-603 2670.5884,-559.3495 2774.8713,-644.3096 3145,-567 3225.7119,-550.1415 3269.5571,-566.7226 3318,-500 3378.6475,-416.4675 3396.8314,-345.8119 3329,-268 3218.7431,-141.5202 2739.1012,-221.1938 2581,-165 2556.0062,-156.1165 2554.5273,-144.1003 2530,-134 2471.0221,-109.713 2398.0181,-95.2563 2354.0492,-88.1014"/>
<polygon fill="#191970" stroke="#191970" points="2354.4806,-84.6262 2344.0564,-86.5201 2353.3864,-91.5401 2354.4806,-84.6262"/>
</g>
<!-- Node4 -->
<g id="node5" class="node">
<title>Node4</title>
<polygon fill="#ffffff" stroke="#bfbfbf" points="3288,-274 3288,-293 3320,-293 3320,-274 3288,-274"/>
<text text-anchor="middle" x="3304" y="-281" font-family="Helvetica,sans-Serif" font-size="10.00" fill="#000000">set</text>
</g>
<!-- Node1&#45;&gt;Node4 -->
<g id="edge4" class="edge">
<title>Node1&#45;&gt;Node4</title>
<path fill="none" stroke="#191970" d="M2286.7844,-604.089C2289.5538,-603.6942 2292.2996,-603.3288 2295,-603 2593.2233,-566.6841 2672.8455,-611.218 2970,-567 3121.2406,-544.4947 3304,-637.4058 3304,-484.5 3304,-484.5 3304,-484.5 3304,-417.5 3304,-376.9699 3304,-329.5443 3304,-303.3795"/>
<polygon fill="#191970" stroke="#191970" points="3307.5001,-303.2517 3304,-293.2517 3300.5001,-303.2518 3307.5001,-303.2517"/>
</g>
<!-- Node5 -->
<g id="node6" class="node">
<title>Node5</title>
<polygon fill="#ffffff" stroke="#bfbfbf" points="813,-73 813,-92 857,-92 857,-73 813,-73"/>
<text text-anchor="middle" x="835" y="-80" font-family="Helvetica,sans-Serif" font-size="10.00" fill="#000000">string</text>
</g>
<!-- Node1&#45;&gt;Node5 -->
<g id="edge5" class="edge">
<title>Node1&#45;&gt;Node5</title>
<path fill="none" stroke="#191970" d="M2141.3858,-616.6702C1815.6445,-607.9937 505,-567.9011 505,-484.5 505,-484.5 505,-484.5 505,-350.5 505,-283.5211 482.359,-253.4614 524,-201 552.5887,-164.9826 577.9904,-181.2708 621,-165 685.9912,-140.4134 761.8189,-111.0105 803.5086,-94.7827"/>
<polygon fill="#191970" stroke="#191970" points="804.8058,-98.0337 812.8539,-91.1432 802.2654,-91.5109 804.8058,-98.0337"/>
</g>
<!-- Node6 -->
<g id="node7" class="node">
<title>Node6</title>
<polygon fill="#ffffff" stroke="#bfbfbf" points="2887.5,-6 2887.5,-25 2932.5,-25 2932.5,-6 2887.5,-6"/>
<text text-anchor="middle" x="2910" y="-13" font-family="Helvetica,sans-Serif" font-size="10.00" fill="#000000">utility</text>
</g>
<!-- Node1&#45;&gt;Node6 -->
<g id="edge6" class="edge">
<title>Node1&#45;&gt;Node6</title>
<path fill="none" stroke="#191970" d="M2286.7755,-604.0124C2289.5474,-603.6391 2292.2961,-603.2991 2295,-603 2358.6431,-595.9608 3391.2899,-598.5656 3447,-567 3484.9175,-545.5158 3500,-528.0811 3500,-484.5 3500,-484.5 3500,-484.5 3500,-149.5 3500,-93.2427 3455.6642,-89.2643 3404,-67 3320.4217,-30.9825 3038.805,-19.3474 2942.5628,-16.3734"/>
<polygon fill="#191970" stroke="#191970" points="2942.6409,-12.8743 2932.541,-16.0747 2942.4322,-19.8712 2942.6409,-12.8743"/>
</g>
<!-- Node7 -->
<g id="node8" class="node">
<title>Node7</title>
<polygon fill="#ffffff" stroke="#bfbfbf" points="3024.5,-73 3024.5,-92 3071.5,-92 3071.5,-73 3024.5,-73"/>
<text text-anchor="middle" x="3048" y="-80" font-family="Helvetica,sans-Serif" font-size="10.00" fill="#000000">vector</text>
</g>
<!-- Node1&#45;&gt;Node7 -->
<g id="edge7" class="edge">
<title>Node1&#45;&gt;Node7</title>
<path fill="none" stroke="#191970" d="M2286.7758,-604.0151C2289.5477,-603.6411 2292.2963,-603.3001 2295,-603 2357.0951,-596.1076 3368.7416,-604.1133 3419,-567 3520.375,-492.1398 3424,-409.5196 3424,-283.5 3424,-283.5 3424,-283.5 3424,-216.5 3424,-168.4131 3395.8031,-157.7664 3354,-134 3307.7839,-107.7246 3150.9457,-91.353 3081.5285,-85.2321"/>
<polygon fill="#191970" stroke="#191970" points="3081.82,-81.7443 3071.5558,-84.3705 3081.2174,-88.7183 3081.82,-81.7443"/>
</g>
<!-- Node8 -->
<g id="node9" class="node">
<title>Node8</title>
<g id="a_node9"><a xlink:href="drake__throw_8h.html" target="_top" xlink:title="Provides a convenient wrapper to throw an exception when a condition is unmet. ">
<polygon fill="#ffffff" stroke="#000000" points="1245.5,-134.5 1245.5,-164.5 1366.5,-164.5 1366.5,-134.5 1245.5,-134.5"/>
<text text-anchor="start" x="1253.5" y="-152.5" font-family="Helvetica,sans-Serif" font-size="10.00" fill="#000000">drake/common/drake</text>
<text text-anchor="middle" x="1306" y="-141.5" font-family="Helvetica,sans-Serif" font-size="10.00" fill="#000000">_throw.h</text>
</a>
</g>
</g>
<!-- Node1&#45;&gt;Node8 -->
<g id="edge8" class="edge">
<title>Node1&#45;&gt;Node8</title>
<path fill="none" stroke="#191970" d="M2141.3656,-603.9306C2139.5601,-603.6122 2137.7693,-603.3014 2136,-603 1951.6807,-571.6002 1303,-671.4748 1303,-484.5 1303,-484.5 1303,-484.5 1303,-283.5 1303,-245.664 1304.2102,-201.8337 1305.0934,-174.887"/>
<polygon fill="#191970" stroke="#191970" points="1308.5954,-174.8831 1305.4357,-164.7705 1301.5994,-174.6463 1308.5954,-174.8831"/>
</g>
<!-- Node11 -->
<g id="node12" class="node">
<title>Node11</title>
<g id="a_node12"><a xlink:href="unused_8h.html" target="_top" xlink:title="drake/common/unused.h">
<polygon fill="#ffffff" stroke="#000000" points="3100.5,-408 3100.5,-427 3237.5,-427 3237.5,-408 3100.5,-408"/>
<text text-anchor="middle" x="3169" y="-415" font-family="Helvetica,sans-Serif" font-size="10.00" fill="#000000">drake/common/unused.h</text>
</a>
</g>
</g>
<!-- Node1&#45;&gt;Node11 -->
<g id="edge12" class="edge">
<title>Node1&#45;&gt;Node11</title>
<path fill="none" stroke="#191970" d="M2286.8216,-604.3529C2289.5807,-603.8843 2292.3141,-603.4315 2295,-603 2645.0359,-546.7702 2767.6906,-656.0964 3086,-500 3116.2357,-485.1726 3142.1126,-454.9611 3156.6,-435.5024"/>
<polygon fill="#191970" stroke="#191970" points="3159.5963,-437.3309 3162.5983,-427.1702 3153.9153,-433.2411 3159.5963,-437.3309"/>
</g>
<!-- Node12 -->
<g id="node13" class="node">
<title>Node12</title>
<g id="a_node13"><a xlink:href="cache__entry_8h.html" target="_top" xlink:title="drake/systems/framework\l/cache_entry.h">
<polygon fill="#ffffff" stroke="#000000" points="2141.5,-536.5 2141.5,-566.5 2286.5,-566.5 2286.5,-536.5 2141.5,-536.5"/>
<text text-anchor="start" x="2149.5" y="-554.5" font-family="Helvetica,sans-Serif" font-size="10.00" fill="#000000">drake/systems/framework</text>
<text text-anchor="middle" x="2214" y="-543.5" font-family="Helvetica,sans-Serif" font-size="10.00" fill="#000000">/cache_entry.h</text>
</a>
</g>
</g>
<!-- Node1&#45;&gt;Node12 -->
<g id="edge13" class="edge">
<title>Node1&#45;&gt;Node12</title>
<path fill="none" stroke="#191970" d="M2214,-603.2967C2214,-595.5013 2214,-585.7991 2214,-576.9064"/>
<polygon fill="#191970" stroke="#191970" points="2217.5001,-576.6431 2214,-566.6432 2210.5001,-576.6432 2217.5001,-576.6431"/>
</g>
<!-- Node25 -->
<g id="node26" class="node">
<title>Node25</title>
<g id="a_node26"><a xlink:href="framework__common_8h.html" target="_top" xlink:title="drake/systems/framework\l/framework_common.h">
<polygon fill="#ffffff" stroke="#000000" points="1091.5,-268.5 1091.5,-298.5 1236.5,-298.5 1236.5,-268.5 1091.5,-268.5"/>
<text text-anchor="start" x="1099.5" y="-286.5" font-family="Helvetica,sans-Serif" font-size="10.00" fill="#000000">drake/systems/framework</text>
<text text-anchor="middle" x="1164" y="-275.5" font-family="Helvetica,sans-Serif" font-size="10.00" fill="#000000">/framework_common.h</text>
</a>
</g>
</g>
<!-- Node1&#45;&gt;Node25 -->
<g id="edge142" class="edge">
<title>Node1&#45;&gt;Node25</title>
<path fill="none" stroke="#191970" d="M2141.4,-603.6934C2139.5843,-603.4456 2137.7821,-603.2137 2136,-603 2042.4737,-591.7872 1364.7359,-623.0088 1289,-567 1201.0702,-501.9735 1261.1232,-430.0304 1207,-335 1201.2337,-324.8755 1193.4084,-314.8 1186.0135,-306.2811"/>
<polygon fill="#191970" stroke="#191970" points="1188.4278,-303.7316 1179.1368,-298.6397 1183.2245,-308.4142 1188.4278,-303.7316"/>
</g>
<!-- Node48 -->
<g id="node49" class="node">
<title>Node48</title>
<g id="a_node49"><a xlink:href="input__port__base_8h.html" target="_top" xlink:title="drake/systems/framework\l/input_port_base.h">
<polygon fill="#ffffff" stroke="#000000" points="325.5,-335.5 325.5,-365.5 470.5,-365.5 470.5,-335.5 325.5,-335.5"/>
<text text-anchor="start" x="333.5" y="-353.5" font-family="Helvetica,sans-Serif" font-size="10.00" fill="#000000">drake/systems/framework</text>
<text text-anchor="middle" x="398" y="-342.5" font-family="Helvetica,sans-Serif" font-size="10.00" fill="#000000">/input_port_base.h</text>
</a>
</g>
</g>
<!-- Node1&#45;&gt;Node48 -->
<g id="edge143" class="edge">
<title>Node1&#45;&gt;Node48</title>
<path fill="none" stroke="#191970" d="M2141.3181,-617.3877C1818.11,-612.3099 525.6292,-590.563 491,-567 425.893,-522.6988 406.1153,-422.6016 400.3097,-375.6731"/>
<polygon fill="#191970" stroke="#191970" points="403.7869,-375.2728 399.1926,-365.726 396.8306,-376.0542 403.7869,-375.2728"/>
</g>
<!-- Node51 -->
<g id="node52" class="node">
<title>Node51</title>
<g id="a_node52"><a xlink:href="output__port__base_8h.html" target="_top" xlink:title="drake/systems/framework\l/output_port_base.h">
<polygon fill="#ffffff" stroke="#000000" points="1053.5,-335.5 1053.5,-365.5 1198.5,-365.5 1198.5,-335.5 1053.5,-335.5"/>
<text text-anchor="start" x="1061.5" y="-353.5" font-family="Helvetica,sans-Serif" font-size="10.00" fill="#000000">drake/systems/framework</text>
<text text-anchor="middle" x="1126" y="-342.5" font-family="Helvetica,sans-Serif" font-size="10.00" fill="#000000">/output_port_base.h</text>
</a>
</g>
</g>
<!-- Node1&#45;&gt;Node51 -->
<g id="edge150" class="edge">
<title>Node1&#45;&gt;Node51</title>
<path fill="none" stroke="#191970" d="M2141.4016,-616.5041C1923.6673,-610.2703 1288.7954,-590.1885 1251,-567 1179.6128,-523.2021 1144.8229,-422.4192 1132.0188,-375.4457"/>
<polygon fill="#191970" stroke="#191970" points="1135.3347,-374.2908 1129.42,-365.5006 1128.5621,-376.0606 1135.3347,-374.2908"/>
</g>
<!-- Node9 -->
<g id="node10" class="node">
<title>Node9</title>
<polygon fill="#ffffff" stroke="#bfbfbf" points="2096.5,-6 2096.5,-25 2165.5,-25 2165.5,-6 2096.5,-6"/>
<text text-anchor="middle" x="2131" y="-13" font-family="Helvetica,sans-Serif" font-size="10.00" fill="#000000">type_traits</text>
</g>
<!-- Node8&#45;&gt;Node9 -->
<g id="edge9" class="edge">
<title>Node8&#45;&gt;Node9</title>
<path fill="none" stroke="#191970" d="M1311.8984,-134.455C1320.3968,-115.0472 1338.0844,-82.0043 1365,-67 1427.9479,-31.9091 1931.2768,-19.3521 2085.9487,-16.3003"/>
<polygon fill="#191970" stroke="#191970" points="2086.1182,-19.7978 2096.0486,-16.1049 2085.9827,-12.7991 2086.1182,-19.7978"/>
</g>
<!-- Node10 -->
<g id="node11" class="node">
<title>Node10</title>
<g id="a_node11"><a xlink:href="drake__assert_8h.html" target="_top" xlink:title="Provides Drake&#39;s assertion implementation. ">
<polygon fill="#ffffff" stroke="#000000" points="1497.5,-67.5 1497.5,-97.5 1618.5,-97.5 1618.5,-67.5 1497.5,-67.5"/>
<text text-anchor="start" x="1505.5" y="-85.5" font-family="Helvetica,sans-Serif" font-size="10.00" fill="#000000">drake/common/drake</text>
<text text-anchor="middle" x="1558" y="-74.5" font-family="Helvetica,sans-Serif" font-size="10.00" fill="#000000">_assert.h</text>
</a>
</g>
</g>
<!-- Node8&#45;&gt;Node10 -->
<g id="edge10" class="edge">
<title>Node8&#45;&gt;Node10</title>
<path fill="none" stroke="#191970" d="M1362.5537,-134.4639C1400.7607,-124.3057 1451.357,-110.8535 1491.4968,-100.1814"/>
<polygon fill="#191970" stroke="#191970" points="1492.4347,-103.5537 1501.1996,-97.6017 1490.636,-96.7887 1492.4347,-103.5537"/>
</g>
<!-- Node10&#45;&gt;Node9 -->
<g id="edge11" class="edge">
<title>Node10&#45;&gt;Node9</title>
<path fill="none" stroke="#191970" d="M1618.5081,-75.4249C1734.2095,-61.8961 1984.3697,-32.6453 2086.3548,-20.7203"/>
<polygon fill="#191970" stroke="#191970" points="2086.8008,-24.1921 2096.3266,-19.5543 2085.9877,-17.2395 2086.8008,-24.1921"/>
</g>
<!-- Node12&#45;&gt;Node2 -->
<g id="edge14" class="edge">
<title>Node12&#45;&gt;Node2</title>
<path fill="none" stroke="#191970" d="M2286.6667,-547.343C2426.0335,-539.0502 2726.0981,-519.5609 2828,-500 2928.3789,-480.7315 2956.4189,-478.3884 3048,-433 3069.1094,-422.538 3069.9579,-412.5969 3091,-402 3138.0766,-378.292 3163.9038,-400.2136 3204,-366 3267.4732,-311.8391 3298.0116,-211.6976 3308.5556,-169.2943"/>
<polygon fill="#191970" stroke="#191970" points="3312.0038,-169.9223 3310.9126,-159.3838 3305.1938,-168.3027 3312.0038,-169.9223"/>
</g>
<!-- Node12&#45;&gt;Node3 -->
<g id="edge15" class="edge">
<title>Node12&#45;&gt;Node3</title>
<path fill="none" stroke="#191970" d="M2221.2064,-536.2801C2242.3047,-491.0471 2304.3795,-353.0415 2335,-232 2345.7269,-189.5969 2355.0932,-176.3087 2344,-134 2340.8771,-122.0893 2334.3098,-110.029 2328.2135,-100.5764"/>
<polygon fill="#191970" stroke="#191970" points="2330.9502,-98.3777 2322.4191,-92.0952 2325.1704,-102.3266 2330.9502,-98.3777"/>
</g>
<!-- Node12&#45;&gt;Node4 -->
<g id="edge16" class="edge">
<title>Node12&#45;&gt;Node4</title>
<path fill="none" stroke="#191970" d="M2286.6668,-550.3496C2467.6357,-546.981 2934.7557,-535.0585 3086,-500 3161.1028,-482.5911 3192.2128,-488.2308 3246,-433 3264.6585,-413.8408 3287.9785,-339.2358 3298.4542,-303.199"/>
<polygon fill="#191970" stroke="#191970" points="3301.8841,-303.9346 3301.2735,-293.3574 3295.1548,-302.0068 3301.8841,-303.9346"/>
</g>
<!-- Node12&#45;&gt;Node5 -->
<g id="edge17" class="edge">
<title>Node12&#45;&gt;Node5</title>
<path fill="none" stroke="#191970" d="M2141.4431,-549.0013C1837.5773,-538.0676 683,-491.6453 683,-417.5 683,-417.5 683,-417.5 683,-283.5 683,-199.155 769.2025,-127.8547 811.7736,-97.7858"/>
<polygon fill="#191970" stroke="#191970" points="813.9068,-100.5662 820.1488,-92.0053 809.9306,-94.8051 813.9068,-100.5662"/>
</g>
<!-- Node12&#45;&gt;Node6 -->
<g id="edge18" class="edge">
<title>Node12&#45;&gt;Node6</title>
<path fill="none" stroke="#191970" d="M2286.5081,-549.566C2493.1753,-543.7704 3075.6481,-525.3647 3158,-500 3316.5237,-451.1742 3462,-449.3726 3462,-283.5 3462,-283.5 3462,-283.5 3462,-149.5 3462,-42.0345 3061.9105,-20.4277 2942.9653,-16.3787"/>
<polygon fill="#191970" stroke="#191970" points="2942.7752,-12.8709 2932.6682,-16.0487 2942.5509,-19.8673 2942.7752,-12.8709"/>
</g>
<!-- Node13 -->
<g id="node14" class="node">
<title>Node13</title>
<g id="a_node14"><a xlink:href="drake__copyable_8h.html" target="_top" xlink:title="Provides careful macros to selectively enable or disable the special member functions for copy&#45;constr...">
<polygon fill="#ffffff" stroke="#000000" points="473.5,-.5 473.5,-30.5 594.5,-30.5 594.5,-.5 473.5,-.5"/>
<text text-anchor="start" x="481.5" y="-18.5" font-family="Helvetica,sans-Serif" font-size="10.00" fill="#000000">drake/common/drake</text>
<text text-anchor="middle" x="534" y="-7.5" font-family="Helvetica,sans-Serif" font-size="10.00" fill="#000000">_copyable.h</text>
</a>
</g>
</g>
<!-- Node12&#45;&gt;Node13 -->
<g id="edge19" class="edge">
<title>Node12&#45;&gt;Node13</title>
<path fill="none" stroke="#191970" d="M2141.2812,-550.9881C1759.063,-547.8315 0,-527.3376 0,-417.5 0,-417.5 0,-417.5 0,-149.5 0,-107.0788 12.3939,-90.0599 48,-67 82.0627,-44.9397 336.6513,-27.0889 463.126,-19.4768"/>
<polygon fill="#191970" stroke="#191970" points="463.3387,-22.9704 473.1125,-18.881 462.9218,-15.9828 463.3387,-22.9704"/>
</g>
<!-- Node14 -->
<g id="node15" class="node">
<title>Node14</title>
<g id="a_node15"><a xlink:href="context__base_8h.html" target="_top" xlink:title="drake/systems/framework\l/context_base.h">
<polygon fill="#ffffff" stroke="#000000" points="2674.5,-469.5 2674.5,-499.5 2819.5,-499.5 2819.5,-469.5 2674.5,-469.5"/>
<text text-anchor="start" x="2682.5" y="-487.5" font-family="Helvetica,sans-Serif" font-size="10.00" fill="#000000">drake/systems/framework</text>
<text text-anchor="middle" x="2747" y="-476.5" font-family="Helvetica,sans-Serif" font-size="10.00" fill="#000000">/context_base.h</text>
</a>
</g>
</g>
<!-- Node12&#45;&gt;Node14 -->
<g id="edge20" class="edge">
<title>Node12&#45;&gt;Node14</title>
<path fill="none" stroke="#191970" d="M2286.7154,-542.3594C2385.2749,-529.9701 2560.8105,-507.9047 2664.2859,-494.8975"/>
<polygon fill="#191970" stroke="#191970" points="2664.8924,-498.3489 2674.3777,-493.6289 2664.0193,-491.4035 2664.8924,-498.3489"/>
</g>
<!-- Node12&#45;&gt;Node25 -->
<g id="edge140" class="edge">
<title>Node12&#45;&gt;Node25</title>
<path fill="none" stroke="#191970" d="M2154.9188,-536.4202C1973.6727,-490.1593 1426.1343,-350.4067 1232.6404,-301.0196"/>
<polygon fill="#191970" stroke="#191970" points="1233.4274,-297.6084 1222.8725,-298.5265 1231.6962,-304.3909 1233.4274,-297.6084"/>
</g>
<!-- Node34 -->
<g id="node35" class="node">
<title>Node34</title>
<g id="a_node35"><a xlink:href="value_8h.html" target="_top" xlink:title="drake/systems/framework\l/value.h">
<polygon fill="#ffffff" stroke="#000000" points="2160.5,-201.5 2160.5,-231.5 2305.5,-231.5 2305.5,-201.5 2160.5,-201.5"/>
<text text-anchor="start" x="2168.5" y="-219.5" font-family="Helvetica,sans-Serif" font-size="10.00" fill="#000000">drake/systems/framework</text>
<text text-anchor="middle" x="2233" y="-208.5" font-family="Helvetica,sans-Serif" font-size="10.00" fill="#000000">/value.h</text>
</a>
</g>
</g>
<!-- Node12&#45;&gt;Node34 -->
<g id="edge141" class="edge">
<title>Node12&#45;&gt;Node34</title>
<path fill="none" stroke="#191970" d="M2206.6732,-536.222C2195.6309,-511.7522 2176,-461.9935 2176,-417.5 2176,-417.5 2176,-417.5 2176,-350.5 2176,-309.115 2199.3071,-265.8651 2216.1138,-240.0576"/>
<polygon fill="#191970" stroke="#191970" points="2219.0655,-241.9403 2221.7386,-231.6882 2213.2557,-238.0357 2219.0655,-241.9403"/>
</g>
<!-- Node14&#45;&gt;Node2 -->
<g id="edge23" class="edge">
<title>Node14&#45;&gt;Node2</title>
<path fill="none" stroke="#191970" d="M2819.6691,-474.473C2864.7453,-466.6601 2923.1714,-453.5999 2972,-433 2995.3986,-423.1286 2997.1061,-412.9912 3020,-402 3065.6122,-380.1019 3086.3546,-394.7342 3128,-366 3174.2785,-334.0691 3171.5708,-310.8276 3208,-268 3239.0885,-231.4512 3276.6009,-189.648 3297.3215,-166.7501"/>
<polygon fill="#191970" stroke="#191970" points="3300.0296,-168.9739 3304.1526,-159.2142 3294.8433,-164.2726 3300.0296,-168.9739"/>
</g>
<!-- Node14&#45;&gt;Node3 -->
<g id="edge24" class="edge">
<title>Node14&#45;&gt;Node3</title>
<path fill="none" stroke="#191970" d="M2751.4982,-469.3372C2754.2764,-459.1632 2757.574,-445.4038 2759,-433 2760.5736,-419.3124 2760.5142,-415.6943 2759,-402 2748.6038,-307.9773 2760.3884,-263.0648 2689,-201 2640.1903,-158.565 2608.7442,-187.2094 2548,-165 2518.3163,-154.147 2513.4274,-145.5301 2484,-134 2440.3324,-116.8903 2388.5376,-101.8466 2353.9028,-92.5049"/>
<polygon fill="#191970" stroke="#191970" points="2354.7364,-89.1049 2344.1721,-89.9086 2352.9318,-95.8683 2354.7364,-89.1049"/>
</g>
<!-- Node14&#45;&gt;Node5 -->
<g id="edge25" class="edge">
<title>Node14&#45;&gt;Node5</title>
<path fill="none" stroke="#191970" d="M2674.161,-480.8709C2419.9319,-467.8358 1573.0269,-421.2149 1307,-366 1261.44,-356.5438 1252.4265,-345.0782 1207,-335 1091.8217,-309.4468 1050.946,-348.8154 944,-299 876.153,-267.3969 859.8092,-237.6967 842,-165 836.8867,-144.1275 835.3583,-119.4978 834.9716,-102.6175"/>
<polygon fill="#191970" stroke="#191970" points="838.468,-102.2708 834.8562,-92.3107 831.4685,-102.3492 838.468,-102.2708"/>
</g>
<!-- Node14&#45;&gt;Node6 -->
<g id="edge26" class="edge">
<title>Node14&#45;&gt;Node6</title>
<path fill="none" stroke="#191970" d="M2819.5422,-469.8817C2821.0411,-469.5847 2822.5284,-469.2905 2824,-469 2906.6064,-452.6918 2933.7383,-468.6922 3010,-433 3029.7408,-423.7609 3028.8614,-412.4296 3048,-402 3093.54,-377.183 3114.9786,-393.4207 3159,-366 3211.823,-333.0968 3330.6209,-222.6741 3354,-165 3359.176,-152.2314 3362.1125,-145.1362 3354,-134 3304.6395,-66.2421 3037.1166,-29.8746 2942.8742,-19.0213"/>
<polygon fill="#191970" stroke="#191970" points="2943.1023,-15.5249 2932.7725,-17.8798 2942.3162,-22.4806 2943.1023,-15.5249"/>
</g>
<!-- Node14&#45;&gt;Node7 -->
<g id="edge27" class="edge">
<title>Node14&#45;&gt;Node7</title>
<path fill="none" stroke="#191970" d="M2785.7686,-469.4255C2808.1082,-460.109 2836.3582,-447.234 2860,-433 2943.6217,-382.654 2971.713,-374.1508 3034,-299 3082.152,-240.9034 3091.4789,-207.4052 3074,-134 3071.2159,-122.3079 3065.3291,-110.2613 3059.86,-100.7615"/>
<polygon fill="#191970" stroke="#191970" points="3062.8492,-98.9409 3054.6605,-92.2181 3056.8696,-102.5801 3062.8492,-98.9409"/>
</g>
<!-- Node14&#45;&gt;Node11 -->
<g id="edge31" class="edge">
<title>Node14&#45;&gt;Node11</title>
<path fill="none" stroke="#191970" d="M2819.5444,-472.9823C2897.8035,-460.5573 3021.5584,-440.909 3098.8673,-428.6348"/>
<polygon fill="#191970" stroke="#191970" points="3099.6636,-432.0523 3108.9911,-427.0275 3098.566,-425.1389 3099.6636,-432.0523"/>
</g>
<!-- Node15 -->
<g id="node16" class="node">
<title>Node15</title>
<polygon fill="#ffffff" stroke="#bfbfbf" points="955,-140 955,-159 1019,-159 1019,-140 955,-140"/>
<text text-anchor="middle" x="987" y="-147" font-family="Helvetica,sans-Serif" font-size="10.00" fill="#000000">algorithm</text>
</g>
<!-- Node14&#45;&gt;Node15 -->
<g id="edge21" class="edge">
<title>Node14&#45;&gt;Node15</title>
<path fill="none" stroke="#191970" d="M2674.3595,-477.5045C2363.4492,-447.4225 1157.1809,-329.2254 1082,-299 1035.4008,-280.2654 1014.7385,-276.2601 991,-232 980.6031,-212.6152 981.2299,-186.8395 983.4024,-169.2922"/>
<polygon fill="#191970" stroke="#191970" points="986.9092,-169.5118 984.9529,-159.0992 979.9888,-168.4591 986.9092,-169.5118"/>
</g>
<!-- Node16 -->
<g id="node17" class="node">
<title>Node16</title>
<polygon fill="#ffffff" stroke="#bfbfbf" points="2590,-207 2590,-226 2640,-226 2640,-207 2590,-207"/>
<text text-anchor="middle" x="2615" y="-214" font-family="Helvetica,sans-Serif" font-size="10.00" fill="#000000">cstdint</text>
</g>
<!-- Node14&#45;&gt;Node16 -->
<g id="edge22" class="edge">
<title>Node14&#45;&gt;Node16</title>
<path fill="none" stroke="#191970" d="M2747.508,-469.2229C2747.8395,-441.1752 2745.7333,-380.2039 2724,-335 2703.2156,-291.7698 2661.3189,-253.2503 2635.9528,-232.5508"/>
<polygon fill="#191970" stroke="#191970" points="2638.0374,-229.7364 2628.0385,-226.233 2633.6702,-235.2071 2638.0374,-229.7364"/>
</g>
<!-- Node17 -->
<g id="node18" class="node">
<title>Node17</title>
<g id="a_node18"><a xlink:href="reset__on__copy_8h.html" target="_top" xlink:title="drake/common/reset\l_on_copy.h">
<polygon fill="#ffffff" stroke="#000000" points="2848,-268.5 2848,-298.5 2966,-298.5 2966,-268.5 2848,-268.5"/>
<text text-anchor="start" x="2856" y="-286.5" font-family="Helvetica,sans-Serif" font-size="10.00" fill="#000000">drake/common/reset</text>
<text text-anchor="middle" x="2907" y="-275.5" font-family="Helvetica,sans-Serif" font-size="10.00" fill="#000000">_on_copy.h</text>
</a>
</g>
</g>
<!-- Node14&#45;&gt;Node17 -->
<g id="edge28" class="edge">
<title>Node14&#45;&gt;Node17</title>
<path fill="none" stroke="#191970" d="M2782.4788,-469.4447C2799.7069,-460.7622 2819.7159,-448.4789 2834,-433 2867.9658,-396.1932 2889.4104,-340.6591 2899.7129,-308.6536"/>
<polygon fill="#191970" stroke="#191970" points="2903.1611,-309.3506 2902.7816,-298.7626 2896.4755,-307.2763 2903.1611,-309.3506"/>
</g>
<!-- Node18 -->
<g id="node19" class="node">
<title>Node18</title>
<g id="a_node19"><a xlink:href="cache_8h.html" target="_top" xlink:title="Declares CacheEntryValue and Cache, which is the container for cache entry values. ">
<polygon fill="#ffffff" stroke="#000000" points="2570.5,-335.5 2570.5,-365.5 2715.5,-365.5 2715.5,-335.5 2570.5,-335.5"/>
<text text-anchor="start" x="2578.5" y="-353.5" font-family="Helvetica,sans-Serif" font-size="10.00" fill="#000000">drake/systems/framework</text>
<text text-anchor="middle" x="2643" y="-342.5" font-family="Helvetica,sans-Serif" font-size="10.00" fill="#000000">/cache.h</text>
</a>
</g>
</g>
<!-- Node14&#45;&gt;Node18 -->
<g id="edge32" class="edge">
<title>Node14&#45;&gt;Node18</title>
<path fill="none" stroke="#191970" d="M2735.272,-469.389C2717.1706,-446.066 2682.2934,-401.1281 2660.9875,-373.6763"/>
<polygon fill="#191970" stroke="#191970" points="2663.7409,-371.5153 2654.8447,-365.7614 2658.211,-375.8072 2663.7409,-371.5153"/>
</g>
<!-- Node14&#45;&gt;Node34 -->
<g id="edge139" class="edge">
<title>Node14&#45;&gt;Node34</title>
<path fill="none" stroke="#191970" d="M2674.3358,-481.4527C2580.7176,-476.342 2424.2697,-463.4311 2376,-433 2302.4911,-386.6571 2258.5663,-287.2195 2241.3808,-241.0224"/>
<polygon fill="#191970" stroke="#191970" points="2244.63,-239.7152 2237.9392,-231.5003 2238.0468,-242.0946 2244.63,-239.7152"/>
</g>
<!-- Node36 -->
<g id="node37" class="node">
<title>Node36</title>
<g id="a_node37"><a xlink:href="dependency__tracker_8h.html" target="_top" xlink:title="Declares DependencyTracker and DependencyGraph which is the container for trackers. ">
<polygon fill="#ffffff" stroke="#000000" points="2385.5,-402.5 2385.5,-432.5 2530.5,-432.5 2530.5,-402.5 2385.5,-402.5"/>
<text text-anchor="start" x="2393.5" y="-420.5" font-family="Helvetica,sans-Serif" font-size="10.00" fill="#000000">drake/systems/framework</text>
<text text-anchor="middle" x="2458" y="-409.5" font-family="Helvetica,sans-Serif" font-size="10.00" fill="#000000">/dependency_tracker.h</text>
</a>
</g>
</g>
<!-- Node14&#45;&gt;Node36 -->
<g id="edge90" class="edge">
<title>Node14&#45;&gt;Node36</title>
<path fill="none" stroke="#191970" d="M2682.1428,-469.4639C2637.9554,-459.2198 2579.3185,-445.6257 2533.1023,-434.9113"/>
<polygon fill="#191970" stroke="#191970" points="2533.6722,-431.4506 2523.1401,-432.6017 2532.0913,-438.2698 2533.6722,-431.4506"/>
</g>
<!-- Node14&#45;&gt;Node39 -->
<g id="edge103" class="edge">
<title>Node14&#45;&gt;Node39</title>
<path fill="none" stroke="#191970" d="M2674.3157,-479.8413C2568.7439,-472.3999 2378.5425,-456.2612 2314,-433 2290.1086,-424.3895 2289.4173,-411.8269 2266,-402 2219.3639,-382.4294 2164.1218,-369.7302 2119.5801,-361.8396"/>
<polygon fill="#191970" stroke="#191970" points="2120.1151,-358.3803 2109.6659,-360.131 2118.9262,-365.2786 2120.1151,-358.3803"/>
</g>
<!-- Node17&#45;&gt;Node6 -->
<g id="edge30" class="edge">
<title>Node17&#45;&gt;Node6</title>
<path fill="none" stroke="#191970" d="M2935.9726,-268.3088C2998.8033,-233.394 3137.4793,-144.4719 3080,-67 3063.5841,-44.8743 2987.2699,-28.5464 2942.6665,-20.7014"/>
<polygon fill="#191970" stroke="#191970" points="2943.0446,-17.2153 2932.5977,-18.9795 2941.8646,-24.1151 2943.0446,-17.2153"/>
</g>
<!-- Node17&#45;&gt;Node9 -->
<g id="edge29" class="edge">
<title>Node17&#45;&gt;Node9</title>
<path fill="none" stroke="#191970" d="M2896.5439,-268.3534C2866.279,-226.0672 2773.6099,-107.2134 2662,-67 2572.8381,-34.8747 2286.8925,-21.2006 2175.7633,-17.0074"/>
<polygon fill="#191970" stroke="#191970" points="2175.6894,-13.5024 2165.567,-16.6309 2175.431,-20.4976 2175.6894,-13.5024"/>
</g>
<!-- Node18&#45;&gt;Node3 -->
<g id="edge34" class="edge">
<title>Node18&#45;&gt;Node3</title>
<path fill="none" stroke="#191970" d="M2657.4829,-335.184C2665.524,-325.596 2674.7409,-312.5269 2679,-299 2686.0633,-276.5672 2674.074,-204.4018 2671,-201 2621.8403,-146.5985 2579.825,-187.3755 2510,-165 2449.1054,-145.4863 2380.9294,-114.3989 2343.4849,-96.4769"/>
<polygon fill="#191970" stroke="#191970" points="2344.7377,-93.1955 2334.2099,-92.0054 2341.6977,-99.5009 2344.7377,-93.1955"/>
</g>
<!-- Node18&#45;&gt;Node4 -->
<g id="edge35" class="edge">
<title>Node18&#45;&gt;Node4</title>
<path fill="none" stroke="#191970" d="M2715.6294,-343.1382C2861.4436,-328.3582 3183.8977,-295.6738 3277.8401,-286.1516"/>
<polygon fill="#191970" stroke="#191970" points="3278.3028,-289.6227 3287.8989,-285.132 3277.5968,-282.6584 3278.3028,-289.6227"/>
</g>
<!-- Node18&#45;&gt;Node5 -->
<g id="edge37" class="edge">
<title>Node18&#45;&gt;Node5</title>
<path fill="none" stroke="#191970" d="M2570.2852,-343.434C2538.3198,-340.5084 2500.3188,-337.2748 2466,-335 2111.3069,-311.4896 2019.6239,-343.9032 1667,-299 1524.1521,-280.8097 1489.458,-267.8868 1350,-232 1313.7819,-222.68 1063.9612,-144.2669 1028,-134 971.6099,-117.9006 905.5054,-100.5992 867.1249,-90.7084"/>
<polygon fill="#191970" stroke="#191970" points="867.6225,-87.2226 857.0659,-88.1224 865.8795,-94.0021 867.6225,-87.2226"/>
</g>
<!-- Node18&#45;&gt;Node6 -->
<g id="edge38" class="edge">
<title>Node18&#45;&gt;Node6</title>
<path fill="none" stroke="#191970" d="M2715.636,-347.0698C2806.9108,-341.5883 2957.2833,-328.3235 3004,-299 3064.7633,-260.8596 3069.5503,-232.4469 3094,-165 3108.8816,-123.9476 3127.5553,-101.6639 3101,-67 3081.8824,-42.0449 2992.4339,-26.445 2943.019,-19.5818"/>
<polygon fill="#191970" stroke="#191970" points="2943.209,-16.0759 2932.8317,-18.2119 2942.276,-23.0135 2943.209,-16.0759"/>
</g>
<!-- Node18&#45;&gt;Node7 -->
<g id="edge39" class="edge">
<title>Node18&#45;&gt;Node7</title>
<path fill="none" stroke="#191970" d="M2715.6027,-337.3948C2720.4723,-336.5683 2725.3056,-335.7629 2730,-335 2784.3165,-326.173 2930.8156,-331.8015 2975,-299 3038.5778,-251.8013 3047.3904,-146.5681 3048.1885,-102.5077"/>
<polygon fill="#191970" stroke="#191970" points="3051.6885,-102.4905 3048.2455,-92.4707 3044.6886,-102.4506 3051.6885,-102.4905"/>
</g>
<!-- Node18&#45;&gt;Node10 -->
<g id="edge46" class="edge">
<title>Node18&#45;&gt;Node10</title>
<path fill="none" stroke="#191970" d="M2570.1788,-344.3516C2491.0358,-336.8772 2361.134,-322.2926 2251,-299 2100.0627,-267.0778 2066.658,-242.2541 1918,-201 1856.9223,-184.0503 1840.4511,-184.0642 1780,-165 1718.4425,-145.5869 1648.9027,-118.9603 1604.3173,-101.2668"/>
<polygon fill="#191970" stroke="#191970" points="1605.5043,-97.9722 1594.919,-97.5226 1602.9136,-104.4751 1605.5043,-97.9722"/>
</g>
<!-- Node18&#45;&gt;Node16 -->
<g id="edge33" class="edge">
<title>Node18&#45;&gt;Node16</title>
<path fill="none" stroke="#191970" d="M2639.8425,-335.389C2634.7389,-310.9649 2624.6824,-262.8371 2619.0557,-235.9095"/>
<polygon fill="#191970" stroke="#191970" points="2622.4783,-235.1768 2617.0068,-226.1042 2615.6263,-236.6087 2622.4783,-235.1768"/>
</g>
<!-- Node18&#45;&gt;Node17 -->
<g id="edge52" class="edge">
<title>Node18&#45;&gt;Node17</title>
<path fill="none" stroke="#191970" d="M2702.2468,-335.4639C2742.4985,-325.2485 2795.876,-311.7019 2838.0392,-301.0014"/>
<polygon fill="#191970" stroke="#191970" points="2839.1192,-304.3383 2847.951,-298.4859 2837.3973,-297.5534 2839.1192,-304.3383"/>
</g>
<!-- Node19 -->
<g id="node20" class="node">
<title>Node19</title>
<polygon fill="#ffffff" stroke="#bfbfbf" points="1944.5,-140 1944.5,-159 2009.5,-159 2009.5,-140 1944.5,-140"/>
<text text-anchor="middle" x="1977" y="-147" font-family="Helvetica,sans-Serif" font-size="10.00" fill="#000000">stdexcept</text>
</g>
<!-- Node18&#45;&gt;Node19 -->
<g id="edge36" class="edge">
<title>Node18&#45;&gt;Node19</title>
<path fill="none" stroke="#191970" d="M2649.7594,-335.3758C2662.025,-305.3559 2683.6361,-237.9599 2649,-201 2606.8198,-155.9898 2156.3909,-171.0201 2095,-165 2070.0584,-162.5542 2042.2625,-158.9465 2019.9158,-155.8271"/>
<polygon fill="#191970" stroke="#191970" points="2020.1333,-152.3231 2009.7417,-154.3882 2019.153,-159.2541 2020.1333,-152.3231"/>
</g>
<!-- Node20 -->
<g id="node21" class="node">
<title>Node20</title>
<g id="a_node21"><a xlink:href="copyable__unique__ptr_8h.html" target="_top" xlink:title="drake/common/copyable\l_unique_ptr.h">
<polygon fill="#ffffff" stroke="#000000" points="1789.5,-134.5 1789.5,-164.5 1926.5,-164.5 1926.5,-134.5 1789.5,-134.5"/>
<text text-anchor="start" x="1797.5" y="-152.5" font-family="Helvetica,sans-Serif" font-size="10.00" fill="#000000">drake/common/copyable</text>
<text text-anchor="middle" x="1858" y="-141.5" font-family="Helvetica,sans-Serif" font-size="10.00" fill="#000000">_unique_ptr.h</text>
</a>
</g>
</g>
<!-- Node18&#45;&gt;Node20 -->
<g id="edge40" class="edge">
<title>Node18&#45;&gt;Node20</title>
<path fill="none" stroke="#191970" d="M2578.278,-335.4536C2534.6591,-325.2706 2475.8386,-311.456 2424,-299 2302.5237,-269.8111 2264.4223,-284.3821 2151,-232 2129.6111,-222.1219 2129.5704,-210.4753 2108,-201 2105.9747,-200.1104 2009.1416,-180.2799 1936.6041,-165.492"/>
<polygon fill="#191970" stroke="#191970" points="1937.0399,-162.009 1926.5424,-163.4414 1935.6419,-168.868 1937.0399,-162.009"/>
</g>
<!-- Node23 -->
<g id="node24" class="node">
<title>Node23</title>
<g id="a_node24"><a xlink:href="never__destroyed_8h.html" target="_top" xlink:title="drake/common/never\l_destroyed.h">
<polygon fill="#ffffff" stroke="#000000" points="2532.5,-67.5 2532.5,-97.5 2653.5,-97.5 2653.5,-67.5 2532.5,-67.5"/>
<text text-anchor="start" x="2540.5" y="-85.5" font-family="Helvetica,sans-Serif" font-size="10.00" fill="#000000">drake/common/never</text>
<text text-anchor="middle" x="2593" y="-74.5" font-family="Helvetica,sans-Serif" font-size="10.00" fill="#000000">_destroyed.h</text>
</a>
</g>
</g>
<!-- Node18&#45;&gt;Node23 -->
<g id="edge47" class="edge">
<title>Node18&#45;&gt;Node23</title>
<path fill="none" stroke="#191970" d="M2709.4391,-335.4645C2728.3441,-327.7857 2746.8191,-316.258 2758,-299 2781.6825,-262.4456 2763.9987,-244.1405 2758,-201 2753.7372,-170.343 2760.1886,-156.5625 2739,-134 2719.2534,-112.973 2690.4044,-100.525 2663.555,-93.1584"/>
<polygon fill="#191970" stroke="#191970" points="2664.3287,-89.7438 2653.7742,-90.6678 2662.6013,-96.5273 2664.3287,-89.7438"/>
</g>
<!-- Node18&#45;&gt;Node25 -->
<g id="edge53" class="edge">
<title>Node18&#45;&gt;Node25</title>
<path fill="none" stroke="#191970" d="M2570.2992,-343.2115C2538.3364,-340.2455 2500.3335,-337.0419 2466,-335 1958.2011,-304.7997 1829.6343,-331.8507 1322,-299 1297.5724,-297.4192 1271.0775,-295.0697 1246.8898,-292.6752"/>
<polygon fill="#191970" stroke="#191970" points="1246.9777,-289.1664 1236.6777,-291.6483 1246.2773,-296.1313 1246.9777,-289.1664"/>
</g>
<!-- Node18&#45;&gt;Node34 -->
<g id="edge77" class="edge">
<title>Node18&#45;&gt;Node34</title>
<path fill="none" stroke="#191970" d="M2606.187,-335.3798C2562.9792,-317.9265 2488.9654,-288.9407 2424,-268 2385.0083,-255.4316 2340.8843,-243.3944 2304.8766,-234.1221"/>
<polygon fill="#191970" stroke="#191970" points="2305.5023,-230.6695 2294.9469,-231.582 2303.7675,-237.4512 2305.5023,-230.6695"/>
</g>
<!-- Node20&#45;&gt;Node3 -->
<g id="edge43" class="edge">
<title>Node20&#45;&gt;Node3</title>
<path fill="none" stroke="#191970" d="M1926.8066,-135.4226C1929.5714,-134.9288 1932.3106,-134.4525 1935,-134 2058.9573,-113.146 2206.7713,-95.0394 2275.8253,-86.9712"/>
<polygon fill="#191970" stroke="#191970" points="2276.2944,-90.4404 2285.8234,-85.8091 2275.4861,-83.4872 2276.2944,-90.4404"/>
</g>
<!-- Node20&#45;&gt;Node6 -->
<g id="edge44" class="edge">
<title>Node20&#45;&gt;Node6</title>
<path fill="none" stroke="#191970" d="M1926.7637,-135.1295C1929.5403,-134.7168 1932.2937,-134.3375 1935,-134 2095.5103,-113.9841 2509.9666,-153.2271 2662,-98 2683.4718,-90.2002 2682.3863,-76.8464 2703,-67 2760.9151,-39.3362 2835.2876,-25.5252 2877.2898,-19.4895"/>
<polygon fill="#191970" stroke="#191970" points="2877.8123,-22.9507 2887.2411,-18.1188 2876.857,-16.0161 2877.8123,-22.9507"/>
</g>
<!-- Node20&#45;&gt;Node10 -->
<g id="edge45" class="edge">
<title>Node20&#45;&gt;Node10</title>
<path fill="none" stroke="#191970" d="M1790.6741,-134.4639C1742.4308,-123.6895 1677.5949,-109.2095 1628.6187,-98.2715"/>
<polygon fill="#191970" stroke="#191970" points="1629.2552,-94.8275 1618.7328,-96.0636 1627.7294,-101.6592 1629.2552,-94.8275"/>
</g>
<!-- Node21 -->
<g id="node22" class="node">
<title>Node21</title>
<polygon fill="#ffffff" stroke="#bfbfbf" points="1374.5,-73 1374.5,-92 1427.5,-92 1427.5,-73 1374.5,-73"/>
<text text-anchor="middle" x="1401" y="-80" font-family="Helvetica,sans-Serif" font-size="10.00" fill="#000000">cstddef</text>
</g>
<!-- Node20&#45;&gt;Node21 -->
<g id="edge41" class="edge">
<title>Node20&#45;&gt;Node21</title>
<path fill="none" stroke="#191970" d="M1789.3503,-140.7385C1714.9797,-131.0617 1592.8894,-114.6372 1488,-98 1471.5026,-95.3832 1453.3016,-92.1887 1437.8301,-89.3812"/>
<polygon fill="#191970" stroke="#191970" points="1438.0762,-85.8682 1427.6095,-87.5112 1436.8163,-92.7539 1438.0762,-85.8682"/>
</g>
<!-- Node22 -->
<g id="node23" class="node">
<title>Node22</title>
<polygon fill="#ffffff" stroke="#bfbfbf" points="1742,-73 1742,-92 1802,-92 1802,-73 1742,-73"/>
<text text-anchor="middle" x="1772" y="-80" font-family="Helvetica,sans-Serif" font-size="10.00" fill="#000000">iostream</text>
</g>
<!-- Node20&#45;&gt;Node22 -->
<g id="edge42" class="edge">
<title>Node20&#45;&gt;Node22</title>
<path fill="none" stroke="#191970" d="M1838.4853,-134.2967C1824.6958,-123.5537 1806.2582,-109.1895 1792.2972,-98.3129"/>
<polygon fill="#191970" stroke="#191970" points="1794.3042,-95.4398 1784.2646,-92.055 1790.0022,-100.9618 1794.3042,-95.4398"/>
</g>
<!-- Node23&#45;&gt;Node6 -->
<g id="edge50" class="edge">
<title>Node23&#45;&gt;Node6</title>
<path fill="none" stroke="#191970" d="M2653.7457,-69.661C2720.3492,-55.5839 2824.735,-33.5213 2877.3534,-22.4001"/>
<polygon fill="#191970" stroke="#191970" points="2878.4021,-25.7558 2887.4622,-20.2635 2876.9546,-18.9071 2878.4021,-25.7558"/>
</g>
<!-- Node23&#45;&gt;Node9 -->
<g id="edge49" class="edge">
<title>Node23&#45;&gt;Node9</title>
<path fill="none" stroke="#191970" d="M2532.2456,-71.6253C2522.7988,-70.0193 2513.1429,-68.4269 2504,-67 2385.7364,-48.5433 2245.8325,-30.1429 2175.7436,-21.16"/>
<polygon fill="#191970" stroke="#191970" points="2175.877,-17.6487 2165.5139,-19.8524 2174.9894,-24.5922 2175.877,-17.6487"/>
</g>
<!-- Node23&#45;&gt;Node13 -->
<g id="edge51" class="edge">
<title>Node23&#45;&gt;Node13</title>
<path fill="none" stroke="#191970" d="M2532.3612,-70.7198C2522.899,-69.2349 2513.208,-67.9172 2504,-67 2124.458,-29.194 911.6438,-18.1765 604.9767,-15.9627"/>
<polygon fill="#191970" stroke="#191970" points="604.9053,-12.4622 594.8806,-15.8907 604.8553,-19.462 604.9053,-12.4622"/>
</g>
<!-- Node24 -->
<g id="node25" class="node">
<title>Node24</title>
<polygon fill="#ffffff" stroke="#bfbfbf" points="2574.5,-6 2574.5,-25 2611.5,-25 2611.5,-6 2574.5,-6"/>
<text text-anchor="middle" x="2593" y="-13" font-family="Helvetica,sans-Serif" font-size="10.00" fill="#000000">new</text>
</g>
<!-- Node23&#45;&gt;Node24 -->
<g id="edge48" class="edge">
<title>Node23&#45;&gt;Node24</title>
<path fill="none" stroke="#191970" d="M2593,-67.2967C2593,-57.7699 2593,-45.3954 2593,-35.1306"/>
<polygon fill="#191970" stroke="#191970" points="2596.5001,-35.0549 2593,-25.055 2589.5001,-35.055 2596.5001,-35.0549"/>
</g>
<!-- Node25&#45;&gt;Node3 -->
<g id="edge55" class="edge">
<title>Node25&#45;&gt;Node3</title>
<path fill="none" stroke="#191970" d="M1236.7203,-275.9258C1263.5124,-273.2514 1294.1217,-270.332 1322,-268 1379.7145,-263.1723 1802.4867,-274.3435 1842,-232 1851.3999,-221.9268 1849.2434,-212.7201 1842,-201 1823.1909,-170.5662 1788.8091,-195.4338 1770,-165 1762.7566,-153.2799 1760.7272,-144.1903 1770,-134 1803.9555,-96.6846 2156.5422,-85.8403 2275.8161,-83.2268"/>
<polygon fill="#191970" stroke="#191970" points="2276.0391,-86.7229 2285.9628,-83.0121 2275.891,-79.7245 2276.0391,-86.7229"/>
</g>
<!-- Node25&#45;&gt;Node5 -->
<g id="edge56" class="edge">
<title>Node25&#45;&gt;Node5</title>
<path fill="none" stroke="#191970" d="M1091.4452,-270.0138C1059.236,-262.029 1021.7468,-249.8803 991,-232 929.6105,-196.3 873.7057,-131.6444 848.7453,-100.3817"/>
<polygon fill="#191970" stroke="#191970" points="851.2141,-97.8588 842.2827,-92.1597 845.7107,-102.1847 851.2141,-97.8588"/>
</g>
<!-- Node25&#45;&gt;Node7 -->
<g id="edge57" class="edge">
<title>Node25&#45;&gt;Node7</title>
<path fill="none" stroke="#191970" d="M1236.6825,-275.4252C1263.4708,-272.6984 1294.0872,-269.8738 1322,-268 1762.1883,-238.4493 1874.4862,-270.2968 2314,-232 2327.5214,-230.8218 2784.7791,-168.0698 2798,-165 2877.3875,-146.5667 2967.4755,-113.7854 3014.8399,-95.5878"/>
<polygon fill="#191970" stroke="#191970" points="3016.2155,-98.8085 3024.2793,-91.9364 3013.69,-92.2799 3016.2155,-98.8085"/>
</g>
<!-- Node25&#45;&gt;Node10 -->
<g id="edge58" class="edge">
<title>Node25&#45;&gt;Node10</title>
<path fill="none" stroke="#191970" d="M1123.569,-268.3679C1107.6433,-260.182 1091.028,-248.3309 1082,-232 1075.3342,-219.9421 1075.1574,-212.9585 1082,-201 1111.1874,-149.991 1140.5234,-153.3953 1196,-134 1209.5782,-129.2529 1385.4373,-105.406 1486.9459,-91.8889"/>
<polygon fill="#191970" stroke="#191970" points="1487.6805,-95.3221 1497.1316,-90.5339 1486.7574,-88.3832 1487.6805,-95.3221"/>
</g>
<!-- Node25&#45;&gt;Node15 -->
<g id="edge54" class="edge">
<title>Node25&#45;&gt;Node15</title>
<path fill="none" stroke="#191970" d="M1100.5068,-268.4629C1064.3884,-258.7247 1023.8536,-245.3996 1011,-232 994.7526,-215.0624 989.411,-187.7799 987.7069,-169.2673"/>
<polygon fill="#191970" stroke="#191970" points="991.1842,-168.8002 987.0509,-159.0448 984.1986,-169.2485 991.1842,-168.8002"/>
</g>
<!-- Node26 -->
<g id="node27" class="node">
<title>Node26</title>
<g id="a_node27"><a xlink:href="drake__optional_8h.html" target="_top" xlink:title="Provides drake::optional as an alias for the appropriate implementation of std::optional or std::expe...">
<polygon fill="#ffffff" stroke="#000000" points="148.5,-134.5 148.5,-164.5 269.5,-164.5 269.5,-134.5 148.5,-134.5"/>
<text text-anchor="start" x="156.5" y="-152.5" font-family="Helvetica,sans-Serif" font-size="10.00" fill="#000000">drake/common/drake</text>
<text text-anchor="middle" x="209" y="-141.5" font-family="Helvetica,sans-Serif" font-size="10.00" fill="#000000">_optional.h</text>
</a>
</g>
</g>
<!-- Node25&#45;&gt;Node26 -->
<g id="edge59" class="edge">
<title>Node25&#45;&gt;Node26</title>
<path fill="none" stroke="#191970" d="M1091.3264,-271.2494C962.7439,-249.6162 704.7151,-206.4094 663,-201 495.2023,-179.241 451.3216,-190.1599 284,-165 282.7057,-164.8054 281.4001,-164.6028 280.0859,-164.3932"/>
<polygon fill="#191970" stroke="#191970" points="280.3336,-160.8853 269.889,-162.663 279.1625,-167.7866 280.3336,-160.8853"/>
</g>
<!-- Node29 -->
<g id="node30" class="node">
<title>Node29</title>
<g id="a_node30"><a xlink:href="drake__variant_8h.html" target="_top" xlink:title="Provides drake::variant as an alias for the appropriate implementation of std::variant or or stx::var...">
<polygon fill="#ffffff" stroke="#000000" points="533.5,-201.5 533.5,-231.5 654.5,-231.5 654.5,-201.5 533.5,-201.5"/>
<text text-anchor="start" x="541.5" y="-219.5" font-family="Helvetica,sans-Serif" font-size="10.00" fill="#000000">drake/common/drake</text>
<text text-anchor="middle" x="594" y="-208.5" font-family="Helvetica,sans-Serif" font-size="10.00" fill="#000000">_variant.h</text>
</a>
</g>
</g>
<!-- Node25&#45;&gt;Node29 -->
<g id="edge62" class="edge">
<title>Node25&#45;&gt;Node29</title>
<path fill="none" stroke="#191970" d="M1091.2301,-274.9463C981.1821,-262.0109 773.7381,-237.6271 664.8409,-224.8269"/>
<polygon fill="#191970" stroke="#191970" points="664.9569,-221.3165 654.6167,-223.6251 664.1397,-228.2687 664.9569,-221.3165"/>
</g>
<!-- Node30 -->
<g id="node31" class="node">
<title>Node30</title>
<g id="a_node31"><a xlink:href="type__safe__index_8h.html" target="_top" xlink:title="drake/common/type_safe\l_index.h">
<polygon fill="#ffffff" stroke="#000000" points="1658.5,-201.5 1658.5,-231.5 1799.5,-231.5 1799.5,-201.5 1658.5,-201.5"/>
<text text-anchor="start" x="1666.5" y="-219.5" font-family="Helvetica,sans-Serif" font-size="10.00" fill="#000000">drake/common/type_safe</text>
<text text-anchor="middle" x="1729" y="-208.5" font-family="Helvetica,sans-Serif" font-size="10.00" fill="#000000">_index.h</text>
</a>
</g>
</g>
<!-- Node25&#45;&gt;Node30 -->
<g id="edge64" class="edge">
<title>Node25&#45;&gt;Node30</title>
<path fill="none" stroke="#191970" d="M1236.651,-276.1327C1354.8844,-264.0943 1581.6527,-240.7859 1648.1919,-231.9507"/>
<polygon fill="#191970" stroke="#191970" points="1648.9691,-235.3761 1658.3862,-230.5214 1647.9971,-228.4439 1648.9691,-235.3761"/>
</g>
<!-- Node27 -->
<g id="node28" class="node">
<title>Node27</title>
<polygon fill="#ffffff" stroke="#bfbfbf" points="180,-73 180,-92 270,-92 270,-73 180,-73"/>
<text text-anchor="middle" x="225" y="-80" font-family="Helvetica,sans-Serif" font-size="10.00" fill="#000000">stx/variant.hpp</text>
</g>
<!-- Node26&#45;&gt;Node27 -->
<g id="edge60" class="edge">
<title>Node26&#45;&gt;Node27</title>
<path fill="none" stroke="#191970" d="M212.6306,-134.2967C214.9299,-124.6685 217.9238,-112.1318 220.3901,-101.8038"/>
<polygon fill="#191970" stroke="#191970" points="223.7997,-102.5945 222.7182,-92.055 216.9911,-100.9685 223.7997,-102.5945"/>
</g>
<!-- Node28 -->
<g id="node29" class="node">
<title>Node28</title>
<polygon fill="#ffffff" stroke="#bfbfbf" points="66.5,-73 66.5,-92 161.5,-92 161.5,-73 66.5,-73"/>
<text text-anchor="middle" x="114" y="-80" font-family="Helvetica,sans-Serif" font-size="10.00" fill="#000000">stx/optional.hpp</text>
</g>
<!-- Node26&#45;&gt;Node28 -->
<g id="edge61" class="edge">
<title>Node26&#45;&gt;Node28</title>
<path fill="none" stroke="#191970" d="M187.443,-134.2967C172.0668,-123.4524 151.4586,-108.9182 135.9862,-98.006"/>
<polygon fill="#191970" stroke="#191970" points="137.7374,-94.9582 127.5481,-92.055 133.703,-100.6787 137.7374,-94.9582"/>
</g>
<!-- Node29&#45;&gt;Node26 -->
<g id="edge63" class="edge">
<title>Node29&#45;&gt;Node26</title>
<path fill="none" stroke="#191970" d="M533.2876,-207.1343C470.7006,-197.3106 370.3508,-181.0892 284,-165 282.5295,-164.726 281.0434,-164.4462 279.5459,-164.1615"/>
<polygon fill="#191970" stroke="#191970" points="280.0252,-160.6894 269.5421,-162.2241 278.6942,-167.5617 280.0252,-160.6894"/>
</g>
<!-- Node30&#45;&gt;Node2 -->
<g id="edge65" class="edge">
<title>Node30&#45;&gt;Node2</title>
<path fill="none" stroke="#191970" d="M1799.6215,-213.5129C2072.5206,-201.9698 3053.6967,-160.468 3270.4295,-151.3006"/>
<polygon fill="#191970" stroke="#191970" points="3270.6132,-154.7961 3280.4564,-150.8765 3270.3173,-147.8024 3270.6132,-154.7961"/>
</g>
<!-- Node30&#45;&gt;Node5 -->
<g id="edge67" class="edge">
<title>Node30&#45;&gt;Node5</title>
<path fill="none" stroke="#191970" d="M1659.0698,-201.4535C1605.8892,-189.7488 1537.3541,-174.0274 1510,-165 1476.9151,-154.0813 1471.7921,-142.4805 1438,-134 1328.1572,-106.4337 975.7237,-88.775 867.1479,-83.885"/>
<polygon fill="#191970" stroke="#191970" points="867.2763,-80.3874 857.1305,-83.4391 866.9649,-87.3805 867.2763,-80.3874"/>
</g>
<!-- Node30&#45;&gt;Node8 -->
<g id="edge69" class="edge">
<title>Node30&#45;&gt;Node8</title>
<path fill="none" stroke="#191970" d="M1658.371,-202.5762C1655.2068,-202.028 1652.072,-201.4997 1649,-201 1531.3889,-181.8697 1498.2574,-186.008 1376.7146,-165.0265"/>
<polygon fill="#191970" stroke="#191970" points="1377.0954,-161.5401 1366.642,-163.2657 1375.8899,-168.4355 1377.0954,-161.5401"/>
</g>
<!-- Node30&#45;&gt;Node10 -->
<g id="edge68" class="edge">
<title>Node30&#45;&gt;Node10</title>
<path fill="none" stroke="#191970" d="M1658.826,-201.4489C1599.5264,-188.395 1523.4888,-170.7227 1519,-165 1504.755,-146.8395 1519.3542,-122.6301 1534.581,-105.1381"/>
<polygon fill="#191970" stroke="#191970" points="1537.3097,-107.3421 1541.52,-97.6198 1532.1657,-102.5946 1537.3097,-107.3421"/>
</g>
<!-- Node31 -->
<g id="node32" class="node">
<title>Node31</title>
<polygon fill="#ffffff" stroke="#bfbfbf" points="1385,-140 1385,-159 1429,-159 1429,-140 1385,-140"/>
<text text-anchor="middle" x="1407" y="-147" font-family="Helvetica,sans-Serif" font-size="10.00" fill="#000000">limits</text>
</g>
<!-- Node30&#45;&gt;Node31 -->
<g id="edge66" class="edge">
<title>Node30&#45;&gt;Node31</title>
<path fill="none" stroke="#191970" d="M1658.3431,-202.7372C1655.1865,-202.1454 1652.0609,-201.5639 1649,-201 1557.5953,-184.1598 1532.0678,-191.5584 1443,-165 1440.8277,-164.3523 1438.6112,-163.6106 1436.3987,-162.8105"/>
<polygon fill="#191970" stroke="#191970" points="1437.4608,-159.4667 1426.8746,-159.0381 1434.8829,-165.9748 1437.4608,-159.4667"/>
</g>
<!-- Node32 -->
<g id="node33" class="node">
<title>Node32</title>
<g id="a_node33"><a xlink:href="nice__type__name_8h.html" target="_top" xlink:title="drake/common/nice_type\l_name.h">
<polygon fill="#ffffff" stroke="#000000" points="2590,-134.5 2590,-164.5 2730,-164.5 2730,-134.5 2590,-134.5"/>
<text text-anchor="start" x="2598" y="-152.5" font-family="Helvetica,sans-Serif" font-size="10.00" fill="#000000">drake/common/nice_type</text>
<text text-anchor="middle" x="2660" y="-141.5" font-family="Helvetica,sans-Serif" font-size="10.00" fill="#000000">_name.h</text>
</a>
</g>
</g>
<!-- Node30&#45;&gt;Node32 -->
<g id="edge70" class="edge">
<title>Node30&#45;&gt;Node32</title>
<path fill="none" stroke="#191970" d="M1799.7405,-211.4091C1969.6787,-199.1794 2400.0831,-168.2051 2579.5223,-155.2916"/>
<polygon fill="#191970" stroke="#191970" points="2579.962,-158.7691 2589.685,-154.5603 2579.4595,-151.7872 2579.962,-158.7691"/>
</g>
<!-- Node32&#45;&gt;Node3 -->
<g id="edge71" class="edge">
<title>Node32&#45;&gt;Node3</title>
<path fill="none" stroke="#191970" d="M2589.7683,-135.8608C2518.732,-122.0653 2411.4823,-101.2371 2354.2517,-90.1228"/>
<polygon fill="#191970" stroke="#191970" points="2354.6515,-86.6351 2344.1676,-88.1644 2353.3169,-93.5067 2354.6515,-86.6351"/>
</g>
<!-- Node32&#45;&gt;Node5 -->
<g id="edge72" class="edge">
<title>Node32&#45;&gt;Node5</title>
<path fill="none" stroke="#191970" d="M2589.9327,-146.5745C2512.9578,-143.3834 2385.6766,-138.1734 2276,-134 1711.6916,-112.5271 1022.9714,-88.9078 867.2897,-83.5987"/>
<polygon fill="#191970" stroke="#191970" points="867.1242,-80.0912 857.0108,-83.2484 866.8857,-87.0871 867.1242,-80.0912"/>
</g>
<!-- Node32&#45;&gt;Node6 -->
<g id="edge74" class="edge">
<title>Node32&#45;&gt;Node6</title>
<path fill="none" stroke="#191970" d="M2671.7084,-134.184C2686.5956,-115.7161 2713.9951,-84.9291 2744,-67 2786.3709,-41.6818 2842.3701,-27.6921 2877.2816,-20.8908"/>
<polygon fill="#191970" stroke="#191970" points="2878.2107,-24.278 2887.4008,-19.0062 2876.929,-17.3963 2878.2107,-24.278"/>
</g>
<!-- Node32&#45;&gt;Node7 -->
<g id="edge75" class="edge">
<title>Node32&#45;&gt;Node7</title>
<path fill="none" stroke="#191970" d="M2730.2639,-137.3668C2814.0777,-122.8938 2950.7748,-99.2889 3013.9769,-88.3751"/>
<polygon fill="#191970" stroke="#191970" points="3014.9249,-91.7633 3024.1834,-86.6127 3013.7337,-84.8654 3014.9249,-91.7633"/>
</g>
<!-- Node32&#45;&gt;Node23 -->
<g id="edge76" class="edge">
<title>Node32&#45;&gt;Node23</title>
<path fill="none" stroke="#191970" d="M2644.7967,-134.2967C2636.059,-125.559 2624.9257,-114.4257 2615.2218,-104.7218"/>
<polygon fill="#191970" stroke="#191970" points="2617.6892,-102.2394 2608.1432,-97.6432 2612.7394,-107.1892 2617.6892,-102.2394"/>
</g>
<!-- Node33 -->
<g id="node34" class="node">
<title>Node33</title>
<polygon fill="#ffffff" stroke="#bfbfbf" points="2438.5,-73 2438.5,-92 2495.5,-92 2495.5,-73 2438.5,-73"/>
<text text-anchor="middle" x="2467" y="-80" font-family="Helvetica,sans-Serif" font-size="10.00" fill="#000000">typeinfo</text>
</g>
<!-- Node32&#45;&gt;Node33 -->
<g id="edge73" class="edge">
<title>Node32&#45;&gt;Node33</title>
<path fill="none" stroke="#191970" d="M2616.687,-134.4639C2582.7447,-122.6808 2536.0355,-106.4657 2503.8671,-95.2984"/>
<polygon fill="#191970" stroke="#191970" points="2504.9757,-91.9784 2494.3809,-92.0053 2502.68,-98.5913 2504.9757,-91.9784"/>
</g>
<!-- Node34&#45;&gt;Node3 -->
<g id="edge78" class="edge">
<title>Node34&#45;&gt;Node3</title>
<path fill="none" stroke="#191970" d="M2247.6651,-201.0755C2256.547,-191.243 2267.7207,-177.9556 2276,-165 2289.1406,-144.4375 2300.5871,-118.7523 2307.621,-101.553"/>
<polygon fill="#191970" stroke="#191970" points="2310.9526,-102.6474 2311.406,-92.0623 2304.4506,-100.0543 2310.9526,-102.6474"/>
</g>
<!-- Node34&#45;&gt;Node5 -->
<g id="edge80" class="edge">
<title>Node34&#45;&gt;Node5</title>
<path fill="none" stroke="#191970" d="M2160.2459,-208.1465C1999.3902,-189.7259 1617.5503,-146.2786 1488,-134 1249.8099,-111.4247 962.0769,-91.1717 867.1133,-84.6718"/>
<polygon fill="#191970" stroke="#191970" points="867.2217,-81.1711 857.0066,-83.9822 866.7451,-88.1549 867.2217,-81.1711"/>
</g>
<!-- Node34&#45;&gt;Node6 -->
<g id="edge83" class="edge">
<title>Node34&#45;&gt;Node6</title>
<path fill="none" stroke="#191970" d="M2305.6445,-209.5873C2452.6788,-195.592 2771.7026,-165.2058 2772,-165 2811.8826,-137.4033 2786.8257,-102.3788 2820,-67 2836.0435,-49.8903 2859.0686,-36.8567 2877.8131,-28.1819"/>
<polygon fill="#191970" stroke="#191970" points="2879.4365,-31.291 2887.1655,-24.0444 2876.6044,-24.8895 2879.4365,-31.291"/>
</g>
<!-- Node34&#45;&gt;Node9 -->
<g id="edge81" class="edge">
<title>Node34&#45;&gt;Node9</title>
<path fill="none" stroke="#191970" d="M2173.2572,-201.4967C2140.4638,-191.9227 2104.5516,-178.7596 2095,-165 2066.7016,-124.2347 2098.4786,-63.8485 2118.0087,-33.8277"/>
<polygon fill="#191970" stroke="#191970" points="2121.1316,-35.4572 2123.8276,-25.2111 2115.3305,-31.5396 2121.1316,-35.4572"/>
</g>
<!-- Node34&#45;&gt;Node13 -->
<g id="edge85" class="edge">
<title>Node34&#45;&gt;Node13</title>
<path fill="none" stroke="#191970" d="M2183.1082,-201.4095C2153.1477,-191.9014 2114.474,-178.8371 2081,-165 2052.1606,-153.0787 2046.9201,-145.7242 2018,-134 1928.385,-97.67 1906.1939,-83.995 1811,-67 1576.5357,-25.1411 837.2525,-17.2706 604.7299,-15.8204"/>
<polygon fill="#191970" stroke="#191970" points="604.72,-12.3204 594.699,-15.7599 604.6777,-19.3202 604.72,-12.3204"/>
</g>
<!-- Node34&#45;&gt;Node19 -->
<g id="edge79" class="edge">
<title>Node34&#45;&gt;Node19</title>
<path fill="none" stroke="#191970" d="M2166.2946,-201.4445C2125.0819,-191.8015 2071.2268,-178.5842 2024,-165 2020.8623,-164.0975 2017.6205,-163.1214 2014.3746,-162.1134"/>
<polygon fill="#191970" stroke="#191970" points="2015.3157,-158.7399 2004.725,-159.0357 2013.1886,-165.4089 2015.3157,-158.7399"/>
</g>
<!-- Node34&#45;&gt;Node20 -->
<g id="edge84" class="edge">
<title>Node34&#45;&gt;Node20</title>
<path fill="none" stroke="#191970" d="M2160.3761,-203.5203C2155.5116,-202.6635 2150.6853,-201.8171 2146,-201 2055.3932,-185.1994 2030.1846,-182.5548 1936.7056,-165.2915"/>
<polygon fill="#191970" stroke="#191970" points="1937.2979,-161.8418 1926.8274,-163.46 1936.0217,-168.7245 1937.2979,-161.8418"/>
</g>
<!-- Node34&#45;&gt;Node32 -->
<g id="edge89" class="edge">
<title>Node34&#45;&gt;Node32</title>
<path fill="none" stroke="#191970" d="M2305.9187,-205.0584C2381.9437,-193.1294 2500.7803,-174.4829 2579.5095,-162.1297"/>
<polygon fill="#191970" stroke="#191970" points="2580.5272,-165.5129 2589.8638,-160.505 2579.4421,-158.5975 2580.5272,-165.5129"/>
</g>
<!-- Node34&#45;&gt;Node33 -->
<g id="edge82" class="edge">
<title>Node34&#45;&gt;Node33</title>
<path fill="none" stroke="#191970" d="M2259.3879,-201.389C2304.6927,-175.4452 2396.7021,-122.7561 2441.4345,-97.1401"/>
<polygon fill="#191970" stroke="#191970" points="2443.29,-100.1108 2450.2285,-92.1042 2439.8114,-94.0363 2443.29,-100.1108"/>
</g>
<!-- Node35 -->
<g id="node36" class="node">
<title>Node35</title>
<g id="a_node36"><a xlink:href="is__cloneable_8h.html" target="_top" xlink:title="drake/common/is_cloneable.h">
<polygon fill="#ffffff" stroke="#000000" points="2104.5,-140 2104.5,-159 2267.5,-159 2267.5,-140 2104.5,-140"/>
<text text-anchor="middle" x="2186" y="-147" font-family="Helvetica,sans-Serif" font-size="10.00" fill="#000000">drake/common/is_cloneable.h</text>
</a>
</g>
</g>
<!-- Node34&#45;&gt;Node35 -->
<g id="edge86" class="edge">
<title>Node34&#45;&gt;Node35</title>
<path fill="none" stroke="#191970" d="M2222.335,-201.2967C2215.2965,-191.2631 2206.0423,-178.0709 2198.6348,-167.5113"/>
<polygon fill="#191970" stroke="#191970" points="2201.3109,-165.2316 2192.7027,-159.055 2195.5803,-169.2516 2201.3109,-165.2316"/>
</g>
<!-- Node35&#45;&gt;Node3 -->
<g id="edge87" class="edge">
<title>Node35&#45;&gt;Node3</title>
<path fill="none" stroke="#191970" d="M2204.4826,-139.9005C2226.2275,-128.6067 2262.5323,-109.7506 2287.564,-96.7497"/>
<polygon fill="#191970" stroke="#191970" points="2289.2905,-99.797 2296.5517,-92.0817 2286.0641,-93.5849 2289.2905,-99.797"/>
</g>
<!-- Node35&#45;&gt;Node9 -->
<g id="edge88" class="edge">
<title>Node35&#45;&gt;Node9</title>
<path fill="none" stroke="#191970" d="M2182.0445,-139.8631C2173.0065,-117.8432 2150.7055,-63.5098 2138.7941,-34.4894"/>
<polygon fill="#191970" stroke="#191970" points="2141.9546,-32.9717 2134.9196,-25.0496 2135.4789,-35.6297 2141.9546,-32.9717"/>
</g>
<!-- Node36&#45;&gt;Node3 -->
<g id="edge92" class="edge">
<title>Node36&#45;&gt;Node3</title>
<path fill="none" stroke="#191970" d="M2462.0084,-402.4772C2465.8546,-385.8506 2470.4701,-358.3191 2466,-335 2447.8985,-240.5702 2445.0283,-209.8966 2386,-134 2374.2324,-118.8696 2356.8715,-106.1674 2342.2628,-97.1635"/>
<polygon fill="#191970" stroke="#191970" points="2343.9876,-94.1173 2333.5971,-92.0466 2340.4284,-100.145 2343.9876,-94.1173"/>
</g>
<!-- Node36&#45;&gt;Node5 -->
<g id="edge93" class="edge">
<title>Node36&#45;&gt;Node5</title>
<path fill="none" stroke="#191970" d="M2385.4135,-414.8923C2236.8141,-409.1739 1887.3026,-393.775 1595,-366 1480.5474,-355.1245 1193.7092,-326.1795 1082,-299 997.0305,-278.3264 960.2307,-292.4076 897,-232 859.363,-196.0434 843.7308,-133.8407 837.965,-102.2055"/>
<polygon fill="#191970" stroke="#191970" points="841.3663,-101.3243 836.2647,-92.0386 834.4622,-102.479 841.3663,-101.3243"/>
</g>
<!-- Node36&#45;&gt;Node6 -->
<g id="edge95" class="edge">
<title>Node36&#45;&gt;Node6</title>
<path fill="none" stroke="#191970" d="M2530.5356,-414.6781C2614.8345,-410.0026 2757.5246,-397.7489 2876,-366 2949.6755,-346.2565 2972.923,-344.6889 3034,-299 3122.306,-232.9423 3190.1569,-153.6961 3122,-67 3100.0543,-39.0849 2996.5299,-24.4343 2942.6995,-18.5926"/>
<polygon fill="#191970" stroke="#191970" points="2942.9447,-15.0992 2932.6349,-17.5404 2942.2168,-22.0613 2942.9447,-15.0992"/>
</g>
<!-- Node36&#45;&gt;Node7 -->
<g id="edge96" class="edge">
<title>Node36&#45;&gt;Node7</title>
<path fill="none" stroke="#191970" d="M2530.518,-409.1652C2661.1094,-392.9716 2929.2066,-353.9605 3004,-299 3055.8768,-260.8793 3051.9248,-228.987 3059,-165 3060.5142,-151.3057 3060.447,-147.7016 3059,-134 3057.8698,-123.2983 3055.4536,-111.5506 3053.1728,-101.9809"/>
<polygon fill="#191970" stroke="#191970" points="3056.5648,-101.1179 3050.731,-92.2739 3049.7763,-102.8256 3056.5648,-101.1179"/>
</g>
<!-- Node36&#45;&gt;Node10 -->
<g id="edge97" class="edge">
<title>Node36&#45;&gt;Node10</title>
<path fill="none" stroke="#191970" d="M2414.2413,-402.4609C2273.519,-354.1032 1840.8705,-205.4798 1826,-201 1765.3083,-182.7163 1746.1241,-190.2856 1688,-165 1650.3421,-148.6178 1611.0633,-122.1857 1585.6718,-103.6663"/>
<polygon fill="#191970" stroke="#191970" points="1587.7386,-100.8417 1577.6155,-97.7151 1583.5793,-106.4721 1587.7386,-100.8417"/>
</g>
<!-- Node36&#45;&gt;Node13 -->
<g id="edge98" class="edge">
<title>Node36&#45;&gt;Node13</title>
<path fill="none" stroke="#191970" d="M2385.3246,-416.9233C2134.6044,-414.6101 1306.8471,-404.1957 1044,-366 807.8193,-331.6793 670.1944,-420.6436 524,-232 481.6063,-177.2968 584.6425,-211.8341 634,-98 639.4809,-85.3593 641.1734,-78.7631 634,-67 625.4118,-52.9169 611.604,-42.5205 596.956,-34.9112"/>
<polygon fill="#191970" stroke="#191970" points="598.2986,-31.6739 587.7661,-30.5255 595.2836,-37.9913 598.2986,-31.6739"/>
</g>
<!-- Node36&#45;&gt;Node16 -->
<g id="edge91" class="edge">
<title>Node36&#45;&gt;Node16</title>
<path fill="none" stroke="#191970" d="M2470.6116,-402.2685C2479.0127,-392.0655 2490.2573,-378.2995 2500,-366 2537.4275,-318.7503 2580.4898,-262.1534 2601.7319,-234.0815"/>
<polygon fill="#191970" stroke="#191970" points="2604.5893,-236.1056 2607.8271,-226.0176 2599.005,-231.8846 2604.5893,-236.1056"/>
</g>
<!-- Node36&#45;&gt;Node18 -->
<g id="edge101" class="edge">
<title>Node36&#45;&gt;Node18</title>
<path fill="none" stroke="#191970" d="M2499.5176,-402.4639C2526.7955,-392.5849 2562.6756,-379.5905 2591.7315,-369.0675"/>
<polygon fill="#191970" stroke="#191970" points="2593.0908,-372.2978 2601.3013,-365.6017 2590.7071,-365.7161 2593.0908,-372.2978"/>
</g>
<!-- Node36&#45;&gt;Node25 -->
<g id="edge102" class="edge">
<title>Node36&#45;&gt;Node25</title>
<path fill="none" stroke="#191970" d="M2385.287,-411.1169C2159.5872,-391.1846 1472.8777,-329.6086 1251,-299 1249.5277,-298.7969 1248.0422,-298.587 1246.5467,-298.371"/>
<polygon fill="#191970" stroke="#191970" points="1246.9733,-294.8959 1236.5634,-296.867 1245.9304,-301.8177 1246.9733,-294.8959"/>
</g>
<!-- Node37 -->
<g id="node38" class="node">
<title>Node37</title>
<polygon fill="#ffffff" stroke="#bfbfbf" points="2364.5,-341 2364.5,-360 2457.5,-360 2457.5,-341 2364.5,-341"/>
<text text-anchor="middle" x="2411" y="-348" font-family="Helvetica,sans-Serif" font-size="10.00" fill="#000000">unordered_map</text>
</g>
<!-- Node36&#45;&gt;Node37 -->
<g id="edge94" class="edge">
<title>Node36&#45;&gt;Node37</title>
<path fill="none" stroke="#191970" d="M2447.335,-402.2967C2440.2965,-392.2631 2431.0423,-379.0709 2423.6348,-368.5113"/>
<polygon fill="#191970" stroke="#191970" points="2426.3109,-366.2316 2417.7027,-360.055 2420.5803,-370.2516 2426.3109,-366.2316"/>
</g>
<!-- Node38 -->
<g id="node39" class="node">
<title>Node38</title>
<g id="a_node39"><a xlink:href="text__logging_8h.html" target="_top" xlink:title="This is the entry point for all text logging within Drake. ">
<polygon fill="#ffffff" stroke="#000000" points="126.5,-341 126.5,-360 289.5,-360 289.5,-341 126.5,-341"/>
<text text-anchor="middle" x="208" y="-348" font-family="Helvetica,sans-Serif" font-size="10.00" fill="#000000">drake/common/text_logging.h</text>
</a>
</g>
</g>
<!-- Node36&#45;&gt;Node38 -->
<g id="edge99" class="edge">
<title>Node36&#45;&gt;Node38</title>
<path fill="none" stroke="#191970" d="M2385.4223,-416.9118C2059.7628,-414.0949 731.176,-400.6609 316,-366 302.8381,-364.9012 288.834,-363.2511 275.4229,-361.4315"/>
<polygon fill="#191970" stroke="#191970" points="275.6958,-357.9356 265.3067,-360.0133 274.724,-364.8678 275.6958,-357.9356"/>
</g>
<!-- Node38&#45;&gt;Node13 -->
<g id="edge100" class="edge">
<title>Node38&#45;&gt;Node13</title>
<path fill="none" stroke="#191970" d="M207.1749,-340.5422C206.2024,-324.721 205.6481,-293.0691 214,-268 225.1837,-234.431 227.1241,-219.9573 257,-201 360.708,-135.1937 420.0002,-217.5821 531,-165 549.1858,-156.3851 548.2949,-146.5813 564,-134 586.2239,-116.1965 603.6723,-123.1642 617,-98 623.4485,-85.8245 623.6986,-79.0397 617,-67 609.5641,-53.6351 597.0662,-43.2953 583.9958,-35.5077"/>
<polygon fill="#191970" stroke="#191970" points="585.3607,-32.2643 574.9108,-30.5184 581.9911,-38.3999 585.3607,-32.2643"/>
</g>
<!-- Node39&#45;&gt;Node2 -->
<g id="edge105" class="edge">
<title>Node39&#45;&gt;Node2</title>
<path fill="none" stroke="#191970" d="M2109.7221,-339.0446C2345.5464,-301.8967 3084.5643,-185.484 3270.3093,-156.2248"/>
<polygon fill="#191970" stroke="#191970" points="3270.9102,-159.6734 3280.2437,-154.6599 3269.8209,-152.7586 3270.9102,-159.6734"/>
</g>
<!-- Node39&#45;&gt;Node3 -->
<g id="edge106" class="edge">
<title>Node39&#45;&gt;Node3</title>
<path fill="none" stroke="#191970" d="M2089.7664,-335.4607C2162.6343,-313.5072 2288.0499,-271.0417 2314,-232 2340.3602,-192.3413 2329.4507,-132.7408 2321.1527,-102.1516"/>
<polygon fill="#191970" stroke="#191970" points="2324.4375,-100.9125 2318.2876,-92.2852 2317.7152,-102.8646 2324.4375,-100.9125"/>
</g>
<!-- Node39&#45;&gt;Node6 -->
<g id="edge107" class="edge">
<title>Node39&#45;&gt;Node6</title>
<path fill="none" stroke="#191970" d="M2109.5874,-336.7593C2150.5747,-327.9985 2202.3744,-315.2332 2247,-299 2276.3262,-288.3322 2281.5804,-280.8901 2310,-268 2345.2917,-251.9929 2433.4241,-210.4751 2471,-201 2626.9175,-161.6841 2687.9474,-238.43 2831,-165 2866.2989,-146.8808 2871.6807,-133.1955 2890,-98 2900.3821,-78.0536 2905.4931,-52.5775 2907.9282,-35.2487"/>
<polygon fill="#191970" stroke="#191970" points="2911.4199,-35.531 2909.1706,-25.1777 2904.4725,-34.6739 2911.4199,-35.531"/>
</g>
<!-- Node39&#45;&gt;Node7 -->
<g id="edge108" class="edge">
<title>Node39&#45;&gt;Node7</title>
<path fill="none" stroke="#191970" d="M2109.6386,-341.3452C2165.2754,-333.2475 2243.5138,-319.4983 2310,-299 2342.9039,-288.8554 2348.8664,-280.3697 2381,-268 2468.486,-234.3228 2489.6119,-221.8846 2581,-201 2705.0347,-172.6547 2742.542,-199.5265 2865,-165 2923.5604,-148.4892 2987.3589,-116.1283 3022.0151,-97.2151"/>
<polygon fill="#191970" stroke="#191970" points="3023.9254,-100.1585 3030.9886,-92.2616 3020.5424,-94.0302 3023.9254,-100.1585"/>
</g>
<!-- Node39&#45;&gt;Node13 -->
<g id="edge110" class="edge">
<title>Node39&#45;&gt;Node13</title>
<path fill="none" stroke="#191970" d="M1964.4047,-348.2119C1804.6674,-342.8203 1410.7644,-327.5712 1082,-299 833.1566,-277.3743 771.1275,-268.3139 524,-232 502.5203,-228.8437 158.7459,-174.0244 139,-165 96.1957,-145.4372 77.1679,-140.5226 57,-98 51.0958,-85.5514 47.7954,-77.2519 57,-67 83.589,-37.3858 336.3538,-23.285 462.7528,-18.0402"/>
<polygon fill="#191970" stroke="#191970" points="463.2562,-21.5227 473.1055,-17.6187 462.9714,-14.5285 463.2562,-21.5227"/>
</g>
<!-- Node39&#45;&gt;Node17 -->
<g id="edge112" class="edge">
<title>Node39&#45;&gt;Node17</title>
<path fill="none" stroke="#191970" d="M2109.6793,-344.9029C2274.6208,-332.2005 2675.4782,-301.3298 2837.4191,-288.8585"/>
<polygon fill="#191970" stroke="#191970" points="2838.0337,-292.3217 2847.7354,-288.0641 2837.4961,-285.3423 2838.0337,-292.3217"/>
</g>
<!-- Node39&#45;&gt;Node20 -->
<g id="edge109" class="edge">
<title>Node39&#45;&gt;Node20</title>
<path fill="none" stroke="#191970" d="M2036.9019,-335.2214C2035.8893,-305.5198 2029.4998,-239.5341 1994,-201 1983.5036,-189.6064 1951.8183,-177.3018 1921.6708,-167.5779"/>
<polygon fill="#191970" stroke="#191970" points="1922.5552,-164.1869 1911.9655,-164.5158 1920.449,-170.8625 1922.5552,-164.1869"/>
</g>
<!-- Node39&#45;&gt;Node21 -->
<g id="edge104" class="edge">
<title>Node39&#45;&gt;Node21</title>
<path fill="none" stroke="#191970" d="M1964.413,-346.5529C1795.0361,-337.1587 1383.3837,-313.1994 1322,-299 1286.0575,-290.6857 1280.2432,-278.9042 1245,-268 1174.1246,-246.0713 1128.4605,-289.8413 1082,-232 1002.0842,-132.5081 1264.3387,-95.8851 1364.0919,-85.7407"/>
<polygon fill="#191970" stroke="#191970" points="1364.7145,-89.1965 1374.3244,-84.7355 1364.0301,-82.23 1364.7145,-89.1965"/>
</g>
<!-- Node39&#45;&gt;Node25 -->
<g id="edge137" class="edge">
<title>Node39&#45;&gt;Node25</title>
<path fill="none" stroke="#191970" d="M1964.2026,-344.6841C1925.534,-341.6599 1877.1956,-337.9826 1834,-335 1575.012,-317.1173 1508.7689,-329.8178 1251,-299 1249.5243,-298.8236 1248.0356,-298.6383 1246.5372,-298.4451"/>
<polygon fill="#191970" stroke="#191970" points="1246.9226,-294.9652 1236.5379,-297.0648 1245.9654,-301.8994 1246.9226,-294.9652"/>
</g>
<!-- Node39&#45;&gt;Node34 -->
<g id="edge138" class="edge">
<title>Node39&#45;&gt;Node34</title>
<path fill="none" stroke="#191970" d="M2059.1027,-335.389C2094.1923,-311.3991 2162.7314,-264.5408 2202.4804,-237.3655"/>
<polygon fill="#191970" stroke="#191970" points="2204.6983,-240.089 2210.9781,-231.5558 2200.7476,-234.3104 2204.6983,-240.089"/>
</g>
<!-- Node40 -->
<g id="node41" class="node">
<title>Node40</title>
<g id="a_node41"><a xlink:href="drake__deprecated_8h.html" target="_top" xlink:title="Provides a portable macro for use in generating compile&#45;time warnings for use of code that is permitt...">
<polygon fill="#ffffff" stroke="#000000" points="1331.5,-268.5 1331.5,-298.5 1452.5,-298.5 1452.5,-268.5 1331.5,-268.5"/>
<text text-anchor="start" x="1339.5" y="-286.5" font-family="Helvetica,sans-Serif" font-size="10.00" fill="#000000">drake/common/drake</text>
<text text-anchor="middle" x="1392" y="-275.5" font-family="Helvetica,sans-Serif" font-size="10.00" fill="#000000">_deprecated.h</text>
</a>
</g>
</g>
<!-- Node39&#45;&gt;Node40 -->
<g id="edge111" class="edge">
<title>Node39&#45;&gt;Node40</title>
<path fill="none" stroke="#191970" d="M1964.3477,-344.9727C1833.0261,-334.8092 1561.0517,-312.9214 1467,-299 1465.7053,-298.8084 1464.3992,-298.6085 1463.0847,-298.4014"/>
<polygon fill="#191970" stroke="#191970" points="1463.3274,-294.8932 1452.8854,-296.6866 1462.1667,-301.7963 1463.3274,-294.8932"/>
</g>
<!-- Node41 -->
<g id="node42" class="node">
<title>Node41</title>
<g id="a_node42"><a xlink:href="basic__vector_8h.html" target="_top" xlink:title="drake/systems/framework\l/basic_vector.h">
<polygon fill="#ffffff" stroke="#000000" points="1676.5,-268.5 1676.5,-298.5 1821.5,-298.5 1821.5,-268.5 1676.5,-268.5"/>
<text text-anchor="start" x="1684.5" y="-286.5" font-family="Helvetica,sans-Serif" font-size="10.00" fill="#000000">drake/systems/framework</text>
<text text-anchor="middle" x="1749" y="-275.5" font-family="Helvetica,sans-Serif" font-size="10.00" fill="#000000">/basic_vector.h</text>
</a>
</g>
</g>
<!-- Node39&#45;&gt;Node41 -->
<g id="edge113" class="edge">
<title>Node39&#45;&gt;Node41</title>
<path fill="none" stroke="#191970" d="M1972.3672,-335.4639C1928.3328,-325.2198 1869.8987,-311.6257 1823.8424,-300.9113"/>
<polygon fill="#191970" stroke="#191970" points="1824.4477,-297.4587 1813.9147,-298.6017 1822.8615,-304.2766 1824.4477,-297.4587"/>
</g>
<!-- Node41&#45;&gt;Node3 -->
<g id="edge118" class="edge">
<title>Node41&#45;&gt;Node3</title>
<path fill="none" stroke="#191970" d="M1811.1758,-268.4323C1829.7623,-260.7135 1848.0799,-249.1702 1859,-232 1866.3939,-220.3742 1866.4536,-212.5876 1859,-201 1838.1262,-168.5489 1800.8738,-197.4511 1780,-165 1772.5464,-153.4124 1770.7361,-144.1984 1780,-134 1813.2298,-97.4178 2157.8599,-86.1135 2275.7263,-83.3026"/>
<polygon fill="#191970" stroke="#191970" points="2275.8473,-86.8009 2285.7638,-83.0709 2275.6856,-79.8027 2275.8473,-86.8009"/>
</g>
<!-- Node41&#45;&gt;Node6 -->
<g id="edge120" class="edge">
<title>Node41&#45;&gt;Node6</title>
<path fill="none" stroke="#191970" d="M1821.7347,-280.6372C1929.7968,-275.5355 2138.8319,-262.403 2314,-232 2368.2728,-222.5802 2379.7638,-210.6282 2434,-201 2514.0322,-186.7924 2727.1878,-204.908 2798,-165 2851.5367,-134.8281 2887.1822,-67.4116 2902.09,-34.4189"/>
<polygon fill="#191970" stroke="#191970" points="2905.4053,-35.5726 2906.1979,-25.0075 2898.9897,-32.7724 2905.4053,-35.5726"/>
</g>
<!-- Node41&#45;&gt;Node8 -->
<g id="edge122" class="edge">
<title>Node41&#45;&gt;Node8</title>
<path fill="none" stroke="#191970" d="M1676.4344,-277.4985C1625.195,-271.1456 1555.9736,-258.1995 1500,-232 1479.946,-222.6133 1480.4718,-211.5415 1461,-201 1434.6823,-186.7523 1403.7204,-175.4993 1376.4165,-167.1932"/>
<polygon fill="#191970" stroke="#191970" points="1377.1203,-163.7515 1366.538,-164.2664 1375.1317,-170.4631 1377.1203,-163.7515"/>
</g>
<!-- Node41&#45;&gt;Node16 -->
<g id="edge114" class="edge">
<title>Node41&#45;&gt;Node16</title>
<path fill="none" stroke="#191970" d="M1821.6574,-281.9954C1961.1051,-278.3923 2275.7095,-266.8014 2538,-232 2551.7596,-230.1743 2566.7506,-227.35 2579.8185,-224.6098"/>
<polygon fill="#191970" stroke="#191970" points="2580.789,-227.981 2589.826,-222.4509 2579.3128,-221.1384 2580.789,-227.981"/>
</g>
<!-- Node41&#45;&gt;Node19 -->
<g id="edge119" class="edge">
<title>Node41&#45;&gt;Node19</title>
<path fill="none" stroke="#191970" d="M1821.5494,-278.1757C1885.7769,-271.7742 1972.5666,-258.4072 1994,-232 2008.6964,-213.8931 1998.4867,-186.3318 1988.6974,-168.1209"/>
<polygon fill="#191970" stroke="#191970" points="1991.5043,-165.9837 1983.463,-159.0852 1985.4472,-169.4926 1991.5043,-165.9837"/>
</g>
<!-- Node41&#45;&gt;Node22 -->
<g id="edge116" class="edge">
<title>Node41&#45;&gt;Node22</title>
<path fill="none" stroke="#191970" d="M1797.6288,-268.31C1814.7478,-260.3591 1832.161,-248.6954 1842,-232 1848.9952,-220.1301 1849.8282,-212.3379 1842,-201 1816.3457,-163.8439 1772.6543,-202.1561 1747,-165 1733.4591,-145.3882 1746.4375,-118.253 1758.1825,-100.5426"/>
<polygon fill="#191970" stroke="#191970" points="1761.1454,-102.4147 1764.065,-92.2301 1755.4314,-98.3711 1761.1454,-102.4147"/>
</g>
<!-- Node41&#45;&gt;Node31 -->
<g id="edge117" class="edge">
<title>Node41&#45;&gt;Node31</title>
<path fill="none" stroke="#191970" d="M1676.2808,-278.9827C1569.4578,-271.5958 1380.485,-255.3758 1360,-232 1342.144,-211.6242 1366.5881,-183.4065 1386.3778,-165.8147"/>
<polygon fill="#191970" stroke="#191970" points="1388.8134,-168.338 1394.1696,-159.1968 1384.2819,-163.0027 1388.8134,-168.338"/>
</g>
<!-- Node42 -->
<g id="node43" class="node">
<title>Node42</title>
<polygon fill="#ffffff" stroke="#bfbfbf" points="1369.5,-207 1369.5,-226 1452.5,-226 1452.5,-207 1369.5,-207"/>
<text text-anchor="middle" x="1411" y="-214" font-family="Helvetica,sans-Serif" font-size="10.00" fill="#000000">initializer_list</text>
</g>
<!-- Node41&#45;&gt;Node42 -->
<g id="edge115" class="edge">
<title>Node41&#45;&gt;Node42</title>
<path fill="none" stroke="#191970" d="M1676.4814,-272.0895C1619.3071,-262.6527 1537.7032,-248.2068 1467,-232 1462.566,-230.9836 1457.9566,-229.8444 1453.371,-228.6571"/>
<polygon fill="#191970" stroke="#191970" points="1454.0123,-225.2059 1443.448,-226.0102 1452.2081,-231.9694 1454.0123,-225.2059"/>
</g>
<!-- Node43 -->
<g id="node44" class="node">
<title>Node43</title>
<polygon fill="#ffffff" stroke="#bfbfbf" points="326.5,-73 326.5,-92 403.5,-92 403.5,-73 326.5,-73"/>
<text text-anchor="middle" x="365" y="-80" font-family="Helvetica,sans-Serif" font-size="10.00" fill="#000000">Eigen/Dense</text>
</g>
<!-- Node41&#45;&gt;Node43 -->
<g id="edge121" class="edge">
<title>Node41&#45;&gt;Node43</title>
<path fill="none" stroke="#191970" d="M1676.4124,-278.4277C1553.8387,-269.7431 1298.0544,-251.1065 1082,-232 943.6328,-219.7637 909.2896,-214.084 771,-201 726.354,-196.7759 400.056,-197.3518 369,-165 353.2277,-148.5696 355.4867,-120.7705 359.474,-102.034"/>
<polygon fill="#191970" stroke="#191970" points="362.902,-102.7511 361.8982,-92.2039 356.1056,-101.075 362.902,-102.7511"/>
</g>
<!-- Node44 -->
<g id="node45" class="node">
<title>Node44</title>
<g id="a_node45"><a xlink:href="dummy__value_8h.html" target="_top" xlink:title="drake/common/dummy\l_value.h">
<polygon fill="#ffffff" stroke="#000000" points="1509.5,-201.5 1509.5,-231.5 1640.5,-231.5 1640.5,-201.5 1509.5,-201.5"/>
<text text-anchor="start" x="1517.5" y="-219.5" font-family="Helvetica,sans-Serif" font-size="10.00" fill="#000000">drake/common/dummy</text>
<text text-anchor="middle" x="1575" y="-208.5" font-family="Helvetica,sans-Serif" font-size="10.00" fill="#000000">_value.h</text>
</a>
</g>
</g>
<!-- Node41&#45;&gt;Node44 -->
<g id="edge123" class="edge">
<title>Node41&#45;&gt;Node44</title>
<path fill="none" stroke="#191970" d="M1709.951,-268.4639C1684.4066,-258.6278 1650.8416,-245.7034 1623.5769,-235.2049"/>
<polygon fill="#191970" stroke="#191970" points="1624.8091,-231.9289 1614.2193,-231.6017 1622.2937,-238.4614 1624.8091,-231.9289"/>
</g>
<!-- Node45 -->
<g id="node46" class="node">
<title>Node45</title>
<g id="a_node46"><a xlink:href="vector__base_8h.html" target="_top" xlink:title="drake/systems/framework\l/vector_base.h">
<polygon fill="#ffffff" stroke="#000000" points="1091.5,-201.5 1091.5,-231.5 1236.5,-231.5 1236.5,-201.5 1091.5,-201.5"/>
<text text-anchor="start" x="1099.5" y="-219.5" font-family="Helvetica,sans-Serif" font-size="10.00" fill="#000000">drake/systems/framework</text>
<text text-anchor="middle" x="1164" y="-208.5" font-family="Helvetica,sans-Serif" font-size="10.00" fill="#000000">/vector_base.h</text>
</a>
</g>
</g>
<!-- Node41&#45;&gt;Node45 -->
<g id="edge125" class="edge">
<title>Node41&#45;&gt;Node45</title>
<path fill="none" stroke="#191970" d="M1676.3867,-275.1836C1567.2286,-262.6817 1361.4413,-239.1129 1246.6678,-225.9679"/>
<polygon fill="#191970" stroke="#191970" points="1246.863,-222.4675 1236.5297,-224.8068 1246.0664,-229.422 1246.863,-222.4675"/>
</g>
<!-- Node44&#45;&gt;Node31 -->
<g id="edge124" class="edge">
<title>Node44&#45;&gt;Node31</title>
<path fill="none" stroke="#191970" d="M1535.2917,-201.4189C1509.0116,-191.3368 1473.838,-177.6501 1443,-165 1441.5835,-164.4189 1440.1379,-163.8203 1438.6792,-163.2116"/>
<polygon fill="#191970" stroke="#191970" points="1439.6072,-159.8038 1429.0338,-159.1297 1436.8791,-166.2504 1439.6072,-159.8038"/>
</g>
<!-- Node45&#45;&gt;Node3 -->
<g id="edge127" class="edge">
<title>Node45&#45;&gt;Node3</title>
<path fill="none" stroke="#191970" d="M1172.068,-201.299C1183.402,-181.7184 1206.0506,-148.4847 1236,-134 1259.8709,-122.4551 2084.1417,-91.0981 2275.5703,-83.9596"/>
<polygon fill="#191970" stroke="#191970" points="2275.8764,-87.4507 2285.7392,-83.581 2275.6159,-80.4556 2275.8764,-87.4507"/>
</g>
<!-- Node45&#45;&gt;Node6 -->
<g id="edge128" class="edge">
<title>Node45&#45;&gt;Node6</title>
<path fill="none" stroke="#191970" d="M1236.5426,-209.8446C1273.4727,-206.6899 1319.0956,-203.1498 1360,-201 1436.5316,-196.9777 2672.6364,-203.3294 2739,-165 2783.2242,-139.4576 2760.8726,-100.9779 2799,-67 2821.7591,-46.7179 2853.8807,-32.9919 2877.7174,-24.845"/>
<polygon fill="#191970" stroke="#191970" points="2878.9545,-28.123 2887.3744,-21.6922 2876.782,-21.4687 2878.9545,-28.123"/>
</g>
<!-- Node45&#45;&gt;Node8 -->
<g id="edge131" class="edge">
<title>Node45&#45;&gt;Node8</title>
<path fill="none" stroke="#191970" d="M1195.8676,-201.4639C1216.1875,-191.8763 1242.7262,-179.3545 1264.6605,-169.0052"/>
<polygon fill="#191970" stroke="#191970" points="1266.1972,-172.1503 1273.7475,-164.7177 1263.2101,-165.8196 1266.1972,-172.1503"/>
</g>
<!-- Node45&#45;&gt;Node13 -->
<g id="edge130" class="edge">
<title>Node45&#45;&gt;Node13</title>
<path fill="none" stroke="#191970" d="M1091.2468,-213.4053C900.8925,-205.0921 400.6147,-181.7712 369,-165 325.4422,-141.8932 286.4238,-105.6821 317,-67 335.1207,-44.0754 407.3087,-30.2806 463.5086,-22.8191"/>
<polygon fill="#191970" stroke="#191970" points="463.971,-26.2885 473.4435,-21.5429 463.0791,-19.3456 463.971,-26.2885"/>
</g>
<!-- Node45&#45;&gt;Node15 -->
<g id="edge126" class="edge">
<title>Node45&#45;&gt;Node15</title>
<path fill="none" stroke="#191970" d="M1124.2777,-201.4639C1093.4176,-189.7824 1051.05,-173.7449 1021.5767,-162.5884"/>
<polygon fill="#191970" stroke="#191970" points="1022.7025,-159.2722 1012.111,-159.0053 1020.2243,-165.8189 1022.7025,-159.2722"/>
</g>
<!-- Node45&#45;&gt;Node43 -->
<g id="edge129" class="edge">
<title>Node45&#45;&gt;Node43</title>
<path fill="none" stroke="#191970" d="M1091.1754,-212.1638C900.3363,-200.7327 399.8854,-170.2905 393,-165 373.75,-150.2091 367.6317,-121.5363 365.7458,-102.2021"/>
<polygon fill="#191970" stroke="#191970" points="369.2275,-101.8126 365.0572,-92.073 362.2437,-102.2874 369.2275,-101.8126"/>
</g>
<!-- Node46 -->
<g id="node47" class="node">
<title>Node46</title>
<g id="a_node47"><a xlink:href="eigen__types_8h.html" target="_top" xlink:title="This file contains abbreviated definitions for certain specializations of Eigen::Matrix that are comm...">
<polygon fill="#ffffff" stroke="#000000" points="402,-134.5 402,-164.5 522,-164.5 522,-134.5 402,-134.5"/>
<text text-anchor="start" x="410" y="-152.5" font-family="Helvetica,sans-Serif" font-size="10.00" fill="#000000">drake/common/eigen</text>
<text text-anchor="middle" x="462" y="-141.5" font-family="Helvetica,sans-Serif" font-size="10.00" fill="#000000">_types.h</text>
</a>
</g>
</g>
<!-- Node45&#45;&gt;Node46 -->
<g id="edge132" class="edge">
<title>Node45&#45;&gt;Node46</title>
<path fill="none" stroke="#191970" d="M1091.1893,-209.5508C955.651,-196.6148 666.2908,-168.9978 532.5125,-156.2298"/>
<polygon fill="#191970" stroke="#191970" points="532.6665,-152.7287 522.3792,-155.2627 532.0014,-159.697 532.6665,-152.7287"/>
</g>
<!-- Node46&#45;&gt;Node3 -->
<g id="edge133" class="edge">
<title>Node46&#45;&gt;Node3</title>
<path fill="none" stroke="#191970" d="M522.0755,-147.3278C809.3487,-136.9407 2038.7908,-92.4871 2275.4863,-83.9287"/>
<polygon fill="#191970" stroke="#191970" points="2275.8223,-87.419 2285.6893,-83.5598 2275.5693,-80.4235 2275.8223,-87.419"/>
</g>
<!-- Node46&#45;&gt;Node13 -->
<g id="edge136" class="edge">
<title>Node46&#45;&gt;Node13</title>
<path fill="none" stroke="#191970" d="M454.51,-134.4776C447.0012,-117.1162 438.1211,-88.2166 450,-67 457.4688,-53.6601 469.961,-43.3575 483.0587,-35.5975"/>
<polygon fill="#191970" stroke="#191970" points="485.0678,-38.4884 492.1687,-30.6253 481.7142,-32.344 485.0678,-38.4884"/>
</g>
<!-- Node46&#45;&gt;Node43 -->
<g id="edge134" class="edge">
<title>Node46&#45;&gt;Node43</title>
<path fill="none" stroke="#191970" d="M439.9892,-134.2967C424.2892,-123.4524 403.2472,-108.9182 387.449,-98.006"/>
<polygon fill="#191970" stroke="#191970" points="389.0505,-94.8585 378.8333,-92.055 385.0722,-100.6181 389.0505,-94.8585"/>
</g>
<!-- Node47 -->
<g id="node48" class="node">
<title>Node47</title>
<g id="a_node48"><a xlink:href="constants_8h.html" target="_top" xlink:title="drake/common/constants.h">
<polygon fill="#ffffff" stroke="#000000" points="459.5,-73 459.5,-92 608.5,-92 608.5,-73 459.5,-73"/>
<text text-anchor="middle" x="534" y="-80" font-family="Helvetica,sans-Serif" font-size="10.00" fill="#000000">drake/common/constants.h</text>
</a>
</g>
</g>
<!-- Node46&#45;&gt;Node47 -->
<g id="edge135" class="edge">
<title>Node46&#45;&gt;Node47</title>
<path fill="none" stroke="#191970" d="M478.3379,-134.2967C489.6648,-123.7564 504.7376,-109.7303 516.3414,-98.9323"/>
<polygon fill="#191970" stroke="#191970" points="518.7956,-101.4296 523.732,-92.055 514.0269,-96.3051 518.7956,-101.4296"/>
</g>
<!-- Node48&#45;&gt;Node5 -->
<g id="edge144" class="edge">
<title>Node48&#45;&gt;Node5</title>
<path fill="none" stroke="#191970" d="M399.2597,-335.4481C402.5653,-305.5581 414.1324,-238.3842 453,-201 490.3791,-165.0475 514.9319,-181.7958 564,-165 602.44,-151.8422 611.2914,-146.3455 650,-134 703.2762,-117.0084 766.157,-100.1744 803.186,-90.5857"/>
<polygon fill="#191970" stroke="#191970" points="804.1045,-93.9634 812.9151,-88.0792 802.358,-87.1848 804.1045,-93.9634"/>
</g>
<!-- Node48&#45;&gt;Node10 -->
<g id="edge145" class="edge">
<title>Node48&#45;&gt;Node10</title>
<path fill="none" stroke="#191970" d="M470.7121,-340.0202C595.4855,-322.4207 858.5357,-286.9931 1082,-268 1122.2378,-264.58 1780.1611,-261.2536 1808,-232 1817.498,-222.0193 1817.0243,-211.411 1808,-201 1734.1844,-115.8419 1630.8156,-250.1581 1557,-165 1543.5888,-149.528 1545.4665,-125.612 1549.7405,-107.5059"/>
<polygon fill="#191970" stroke="#191970" points="1553.1809,-108.193 1552.4364,-97.6244 1546.4277,-106.3505 1553.1809,-108.193"/>
</g>
<!-- Node48&#45;&gt;Node25 -->
<g id="edge149" class="edge">
<title>Node48&#45;&gt;Node25</title>
<path fill="none" stroke="#191970" d="M470.8838,-344.5026C584.2697,-335.1212 809.7643,-316.2585 1001,-299 1027.1182,-296.6429 1055.58,-293.9718 1081.3045,-291.519"/>
<polygon fill="#191970" stroke="#191970" points="1081.7705,-294.9905 1091.3922,-290.555 1081.1045,-288.0222 1081.7705,-294.9905"/>
</g>
<!-- Node48&#45;&gt;Node26 -->
<g id="edge146" class="edge">
<title>Node48&#45;&gt;Node26</title>
<path fill="none" stroke="#191970" d="M395.3589,-335.2174C389.3047,-304.9126 371.5334,-237.0297 329,-201 312.4244,-186.9589 291.4453,-176.2138 271.6815,-168.2645"/>
<polygon fill="#191970" stroke="#191970" points="272.6915,-164.9032 262.1014,-164.5845 270.1813,-171.4377 272.6915,-164.9032"/>
</g>
<!-- Node49 -->
<g id="node50" class="node">
<title>Node49</title>
<g id="a_node50"><a xlink:href="random_8h.html" target="_top" xlink:title="drake/common/random.h">
<polygon fill="#ffffff" stroke="#000000" points="223,-274 223,-293 363,-293 363,-274 223,-274"/>
<text text-anchor="middle" x="293" y="-281" font-family="Helvetica,sans-Serif" font-size="10.00" fill="#000000">drake/common/random.h</text>
</a>
</g>
</g>
<!-- Node48&#45;&gt;Node49 -->
<g id="edge147" class="edge">
<title>Node48&#45;&gt;Node49</title>
<path fill="none" stroke="#191970" d="M374.436,-335.4639C357.2944,-324.526 334.1679,-309.769 316.9398,-298.7759"/>
<polygon fill="#191970" stroke="#191970" points="318.3636,-295.5326 308.0509,-293.1039 314.5982,-301.4336 318.3636,-295.5326"/>
</g>
<!-- Node50 -->
<g id="node51" class="node">
<title>Node50</title>
<polygon fill="#ffffff" stroke="#bfbfbf" points="266,-207 266,-226 320,-226 320,-207 266,-207"/>
<text text-anchor="middle" x="293" y="-214" font-family="Helvetica,sans-Serif" font-size="10.00" fill="#000000">random</text>
</g>
<!-- Node49&#45;&gt;Node50 -->
<g id="edge148" class="edge">
<title>Node49&#45;&gt;Node50</title>
<path fill="none" stroke="#191970" d="M293,-273.9005C293,-264.149 293,-248.7597 293,-236.3695"/>
<polygon fill="#191970" stroke="#191970" points="296.5001,-236.0816 293,-226.0817 289.5001,-236.0817 296.5001,-236.0816"/>
</g>
<!-- Node51&#45;&gt;Node5 -->
<g id="edge151" class="edge">
<title>Node51&#45;&gt;Node5</title>
<path fill="none" stroke="#191970" d="M1053.2911,-340.8652C986.3351,-331.2053 892.4751,-315.4414 859,-299 818.5824,-279.1488 801.5307,-273.0398 783,-232 765.0758,-192.3035 766.2349,-174.1997 783,-134 788.9239,-119.7957 800.8831,-107.5036 811.8403,-98.4942"/>
<polygon fill="#191970" stroke="#191970" points="814.13,-101.1482 819.9074,-92.2672 809.8528,-95.607 814.13,-101.1482"/>
</g>
<!-- Node51&#45;&gt;Node25 -->
<g id="edge152" class="edge">
<title>Node51&#45;&gt;Node25</title>
<path fill="none" stroke="#191970" d="M1134.6228,-335.2967C1139.287,-327.0729 1145.1547,-316.7272 1150.4174,-307.4483"/>
<polygon fill="#191970" stroke="#191970" points="1153.5223,-309.0683 1155.4113,-298.6432 1147.4335,-305.6148 1153.5223,-309.0683"/>
</g>
</g>
</svg>
        <g id="navigator" transform="translate(0 0)" fill="#404254">
                <rect fill="#f2f5e9" fill-opacity="0.5" stroke="#606060" stroke-width=".5" x="0" y="0" width="60" height="60"/>
                <use id="zoomplus" xlink:href="#zoomPlus" x="17" y="9" onmousedown="handleZoom(evt,'in')"/>
                <use id="zoomminus" xlink:href="#zoomMin" x="42" y="9" onmousedown="handleZoom(evt,'out')"/>
                <use id="reset" xlink:href="#resetDef" x="30" y="36" onmousedown="handleReset()"/>
                <g id="arrowUp" xlink:href="#dirArrow" transform="translate(30 24)" onmousedown="handlePan(0,-1)">
                  <use xlink:href="#rim" fill="#404040">
                        <set attributeName="fill" to="#808080" begin="arrowUp.mouseover" end="arrowUp.mouseout"/>
                  </use>
                  <path fill="none" stroke="white" stroke-width="1.5" d="M0,-3.0v7 M-2.5,-0.5L0,-3.0L2.5,-0.5"/>
                </g>
                <g id="arrowRight" xlink:href="#dirArrow" transform="rotate(90) translate(36 -43)" onmousedown="handlePan(1,0)">
                  <use xlink:href="#rim" fill="#404040">
                        <set attributeName="fill" to="#808080" begin="arrowRight.mouseover" end="arrowRight.mouseout"/>
                  </use>
                  <path fill="none" stroke="white" stroke-width="1.5" d="M0,-3.0v7 M-2.5,-0.5L0,-3.0L2.5,-0.5"/>
                </g>
                <g id="arrowDown" xlink:href="#dirArrow" transform="rotate(180) translate(-30 -48)" onmousedown="handlePan(0,1)">
                  <use xlink:href="#rim" fill="#404040">
                        <set attributeName="fill" to="#808080" begin="arrowDown.mouseover" end="arrowDown.mouseout"/>
                  </use>
                  <path fill="none" stroke="white" stroke-width="1.5" d="M0,-3.0v7 M-2.5,-0.5L0,-3.0L2.5,-0.5"/>
                </g>
                <g id="arrowLeft" xlink:href="#dirArrow" transform="rotate(270) translate(-36 17)" onmousedown="handlePan(-1,0)">
                  <use xlink:href="#rim" fill="#404040">
                        <set attributeName="fill" to="#808080" begin="arrowLeft.mouseover" end="arrowLeft.mouseout"/>
                  </use>
                  <path fill="none" stroke="white" stroke-width="1.5" d="M0,-3.0v7 M-2.5,-0.5L0,-3.0L2.5,-0.5"/>
                </g>
        </g>
        <svg viewBox="0 0 15 15" width="100%" height="30px" preserveAspectRatio="xMaxYMin meet">
         <g id="arrow_out" transform="scale(0.3 0.3)">
          <a xlink:href="system__base_8cc__incl_org.svg" target="_base">
           <rect id="button" ry="5" rx="5" y="6" x="6" height="38" width="38"
                fill="#f2f5e9" fill-opacity="0.5" stroke="#606060" stroke-width="1.0"/>
           <path id="arrow"
             d="M 11.500037,31.436501 C 11.940474,20.09759 22.043105,11.32322 32.158766,21.979434 L 37.068811,17.246167 C 37.068811,17.246167 37.088388,32 37.088388,32 L 22.160133,31.978069 C 22.160133,31.978069 26.997745,27.140456 26.997745,27.140456 C 18.528582,18.264221 13.291696,25.230495 11.500037,31.436501 z"
             style="fill:#404040;"/>
          </a>
         </g>
        </svg>
</svg>
