<?xml version="1.0" encoding="UTF-8" standalone="no"?>
<!DOCTYPE svg PUBLIC "-//W3C//DTD SVG 1.1//EN"
 "http://www.w3.org/Graphics/SVG/1.1/DTD/svg11.dtd">
<!-- Generated by graphviz version 2.40.1 (20161225.0304)
 -->
<!-- Title: drake/systems/framework/system_output.h Pages: 1 -->
<svg width="1650pt" height="363pt"
 viewBox="0.00 0.00 1649.67 363.00" xmlns="http://www.w3.org/2000/svg" xmlns:xlink="http://www.w3.org/1999/xlink">
<g id="graph0" class="graph" transform="scale(1 1) rotate(0) translate(4 359)">
<title>drake/systems/framework/system_output.h</title>
<polygon fill="#ffffff" stroke="transparent" points="-4,4 -4,-359 1645.6656,-359 1645.6656,4 -4,4"/>
<!-- Node0 -->
<g id="node1" class="node">
<title>Node0</title>
<polygon fill="#bfbfbf" stroke="#000000" points="452.232,-324.5 452.232,-354.5 597.232,-354.5 597.232,-324.5 452.232,-324.5"/>
<text text-anchor="start" x="460.232" y="-342.5" font-family="Helvetica,sans-Serif" font-size="10.00" fill="#000000">drake/systems/framework</text>
<text text-anchor="middle" x="524.732" y="-331.5" font-family="Helvetica,sans-Serif" font-size="10.00" fill="#000000">/system_output.h</text>
</g>
<!-- Node1 -->
<g id="node2" class="node">
<title>Node1</title>
<polygon fill="#ffffff" stroke="#bfbfbf" points="922.732,-62 922.732,-81 980.732,-81 980.732,-62 922.732,-62"/>
<text text-anchor="middle" x="951.732" y="-69" font-family="Helvetica,sans-Serif" font-size="10.00" fill="#000000">memory</text>
</g>
<!-- Node0&#45;&gt;Node1 -->
<g id="edge1" class="edge">
<title>Node0&#45;&gt;Node1</title>
<path fill="none" stroke="#191970" d="M597.2468,-325.4724C696.7747,-304.9124 868.6423,-264.3106 914.732,-221 950.8278,-187.0807 954.0582,-123.9668 953.0869,-91.6723"/>
<polygon fill="#191970" stroke="#191970" points="956.5638,-91.102 952.592,-81.2799 949.5717,-91.4351 956.5638,-91.102"/>
</g>
<!-- Node2 -->
<g id="node3" class="node">
<title>Node2</title>
<polygon fill="#ffffff" stroke="#bfbfbf" points="422.232,-62 422.232,-81 467.232,-81 467.232,-62 422.232,-62"/>
<text text-anchor="middle" x="444.732" y="-69" font-family="Helvetica,sans-Serif" font-size="10.00" fill="#000000">utility</text>
</g>
<!-- Node0&#45;&gt;Node2 -->
<g id="edge2" class="edge">
<title>Node0&#45;&gt;Node2</title>
<path fill="none" stroke="#191970" d="M452.0725,-334.6842C358.7609,-327.6137 202.6593,-312.5362 150.732,-288 71.3936,-250.5117 40.9029,-234.3925 5.732,-154 .2097,-141.3773 -3.4252,-133.2943 5.732,-123 32.7086,-92.6738 314.935,-77.2985 412.0884,-72.8749"/>
<polygon fill="#191970" stroke="#191970" points="412.3769,-76.3656 422.211,-72.4234 412.0649,-69.3726 412.3769,-76.3656"/>
</g>
<!-- Node3 -->
<g id="node4" class="node">
<title>Node3</title>
<polygon fill="#ffffff" stroke="#bfbfbf" points="193.232,-129 193.232,-148 240.232,-148 240.232,-129 193.232,-129"/>
<text text-anchor="middle" x="216.732" y="-136" font-family="Helvetica,sans-Serif" font-size="10.00" fill="#000000">vector</text>
</g>
<!-- Node0&#45;&gt;Node3 -->
<g id="edge3" class="edge">
<title>Node0&#45;&gt;Node3</title>
<path fill="none" stroke="#191970" d="M458.6214,-324.4869C399.0632,-307.983 312.4042,-276.1816 255.732,-221 237.7987,-203.5384 227.1463,-176.2071 221.6184,-157.8392"/>
<polygon fill="#191970" stroke="#191970" points="224.99,-156.8998 218.9395,-148.2026 218.2458,-158.7747 224.99,-156.8998"/>
</g>
<!-- Node4 -->
<g id="node5" class="node">
<title>Node4</title>
<g id="a_node5"><a xlink:href="drake__assert_8h.html" target="_top" xlink:title="Provides Drake&#39;s assertion implementation. ">
<polygon fill="#ffffff" stroke="#000000" points="609.232,-56.5 609.232,-86.5 730.232,-86.5 730.232,-56.5 609.232,-56.5"/>
<text text-anchor="start" x="617.232" y="-74.5" font-family="Helvetica,sans-Serif" font-size="10.00" fill="#000000">drake/common/drake</text>
<text text-anchor="middle" x="669.732" y="-63.5" font-family="Helvetica,sans-Serif" font-size="10.00" fill="#000000">_assert.h</text>
</a>
</g>
</g>
<!-- Node0&#45;&gt;Node4 -->
<g id="edge4" class="edge">
<title>Node0&#45;&gt;Node4</title>
<path fill="none" stroke="#191970" d="M452.0252,-332.537C406.6889,-325.8757 348.3182,-312.9498 301.732,-288 222.2558,-245.4355 122.7918,-189.4416 183.732,-123 213.5609,-90.4783 521.5217,-93.6144 599.0659,-86.6003"/>
<polygon fill="#191970" stroke="#191970" points="599.5879,-90.0633 609.1176,-85.4336 598.7808,-83.1099 599.5879,-90.0633"/>
</g>
<!-- Node6 -->
<g id="node7" class="node">
<title>Node6</title>
<g id="a_node7"><a xlink:href="drake__copyable_8h.html" target="_top" xlink:title="Provides careful macros to selectively enable or disable the special member functions for copy&#45;constr...">
<polygon fill="#ffffff" stroke="#000000" points="1221.232,-56.5 1221.232,-86.5 1342.232,-86.5 1342.232,-56.5 1221.232,-56.5"/>
<text text-anchor="start" x="1229.232" y="-74.5" font-family="Helvetica,sans-Serif" font-size="10.00" fill="#000000">drake/common/drake</text>
<text text-anchor="middle" x="1281.732" y="-63.5" font-family="Helvetica,sans-Serif" font-size="10.00" fill="#000000">_copyable.h</text>
</a>
</g>
</g>
<!-- Node0&#45;&gt;Node6 -->
<g id="edge6" class="edge">
<title>Node0&#45;&gt;Node6</title>
<path fill="none" stroke="#191970" d="M597.5796,-336.8256C829.6801,-327.5953 1540.7733,-293.577 1611.732,-221 1642.448,-189.5835 1653.7061,-156.0299 1624.732,-123 1586.0533,-78.9071 1426.4764,-95.9979 1352.1519,-86.8881"/>
<polygon fill="#191970" stroke="#191970" points="1352.6569,-83.4248 1342.2516,-85.4197 1351.6299,-90.3491 1352.6569,-83.4248"/>
</g>
<!-- Node7 -->
<g id="node8" class="node">
<title>Node7</title>
<g id="a_node8"><a xlink:href="basic__vector_8h.html" target="_top" xlink:title="drake/systems/framework\l/basic_vector.h">
<polygon fill="#ffffff" stroke="#000000" points="1150.232,-257.5 1150.232,-287.5 1295.232,-287.5 1295.232,-257.5 1150.232,-257.5"/>
<text text-anchor="start" x="1158.232" y="-275.5" font-family="Helvetica,sans-Serif" font-size="10.00" fill="#000000">drake/systems/framework</text>
<text text-anchor="middle" x="1222.732" y="-264.5" font-family="Helvetica,sans-Serif" font-size="10.00" fill="#000000">/basic_vector.h</text>
</a>
</g>
</g>
<!-- Node0&#45;&gt;Node7 -->
<g id="edge7" class="edge">
<title>Node0&#45;&gt;Node7</title>
<path fill="none" stroke="#191970" d="M597.4549,-332.5194C728.2628,-319.9634 1002.4035,-293.649 1140.0962,-280.4321"/>
<polygon fill="#191970" stroke="#191970" points="1140.5529,-283.9044 1150.1727,-279.4649 1139.884,-276.9365 1140.5529,-283.9044"/>
</g>
<!-- Node20 -->
<g id="node21" class="node">
<title>Node20</title>
<g id="a_node21"><a xlink:href="value_8h.html" target="_top" xlink:title="drake/systems/framework\l/value.h">
<polygon fill="#ffffff" stroke="#000000" points="452.232,-257.5 452.232,-287.5 597.232,-287.5 597.232,-257.5 452.232,-257.5"/>
<text text-anchor="start" x="460.232" y="-275.5" font-family="Helvetica,sans-Serif" font-size="10.00" fill="#000000">drake/systems/framework</text>
<text text-anchor="middle" x="524.732" y="-264.5" font-family="Helvetica,sans-Serif" font-size="10.00" fill="#000000">/value.h</text>
</a>
</g>
</g>
<!-- Node0&#45;&gt;Node20 -->
<g id="edge33" class="edge">
<title>Node0&#45;&gt;Node20</title>
<path fill="none" stroke="#191970" d="M524.732,-324.2967C524.732,-316.5013 524.732,-306.7991 524.732,-297.9064"/>
<polygon fill="#191970" stroke="#191970" points="528.2321,-297.6431 524.732,-287.6432 521.2321,-297.6432 528.2321,-297.6431"/>
</g>
<!-- Node5 -->
<g id="node6" class="node">
<title>Node5</title>
<polygon fill="#ffffff" stroke="#bfbfbf" points="635.232,-.5 635.232,-19.5 704.232,-19.5 704.232,-.5 635.232,-.5"/>
<text text-anchor="middle" x="669.732" y="-7.5" font-family="Helvetica,sans-Serif" font-size="10.00" fill="#000000">type_traits</text>
</g>
<!-- Node4&#45;&gt;Node5 -->
<g id="edge5" class="edge">
<title>Node4&#45;&gt;Node5</title>
<path fill="none" stroke="#191970" d="M669.732,-56.2977C669.732,-48.3834 669.732,-38.6043 669.732,-30.0759"/>
<polygon fill="#191970" stroke="#191970" points="673.2321,-29.8469 669.732,-19.8469 666.2321,-29.847 673.2321,-29.8469"/>
</g>
<!-- Node7&#45;&gt;Node1 -->
<g id="edge12" class="edge">
<title>Node7&#45;&gt;Node1</title>
<path fill="none" stroke="#191970" d="M1153.216,-257.4108C1126.4721,-249.4382 1096.6449,-237.7327 1072.732,-221 1045.9856,-202.2846 989.5096,-124.9461 964.3203,-89.4523"/>
<polygon fill="#191970" stroke="#191970" points="966.9874,-87.1616 958.3605,-81.0112 961.2691,-91.199 966.9874,-87.1616"/>
</g>
<!-- Node7&#45;&gt;Node2 -->
<g id="edge14" class="edge">
<title>Node7&#45;&gt;Node2</title>
<path fill="none" stroke="#191970" d="M1168.6336,-257.454C1087.1489,-234.8759 939.7445,-194.3918 914.732,-190 822.904,-173.8764 576.3536,-202.505 496.732,-154 484.3815,-146.4761 465.3577,-112.2546 454.0671,-90.3182"/>
<polygon fill="#191970" stroke="#191970" points="457.1134,-88.5863 449.4755,-81.2438 450.8675,-91.7468 457.1134,-88.5863"/>
</g>
<!-- Node8 -->
<g id="node9" class="node">
<title>Node8</title>
<polygon fill="#ffffff" stroke="#bfbfbf" points="1255.732,-196 1255.732,-215 1305.732,-215 1305.732,-196 1255.732,-196"/>
<text text-anchor="middle" x="1280.732" y="-203" font-family="Helvetica,sans-Serif" font-size="10.00" fill="#000000">cstdint</text>
</g>
<!-- Node7&#45;&gt;Node8 -->
<g id="edge8" class="edge">
<title>Node7&#45;&gt;Node8</title>
<path fill="none" stroke="#191970" d="M1235.8931,-257.2967C1244.7543,-247.0605 1256.4615,-233.5366 1265.6913,-222.8746"/>
<polygon fill="#191970" stroke="#191970" points="1268.5617,-224.9064 1272.4605,-215.055 1263.2693,-220.3248 1268.5617,-224.9064"/>
</g>
<!-- Node9 -->
<g id="node10" class="node">
<title>Node9</title>
<polygon fill="#ffffff" stroke="#bfbfbf" points="1473.232,-196 1473.232,-215 1556.232,-215 1556.232,-196 1473.232,-196"/>
<text text-anchor="middle" x="1514.732" y="-203" font-family="Helvetica,sans-Serif" font-size="10.00" fill="#000000">initializer_list</text>
</g>
<!-- Node7&#45;&gt;Node9 -->
<g id="edge9" class="edge">
<title>Node7&#45;&gt;Node9</title>
<path fill="none" stroke="#191970" d="M1295.3438,-258.6482C1343.3724,-249.0779 1407.6009,-235.4995 1463.732,-221 1467.505,-220.0254 1471.4166,-218.952 1475.3192,-217.8388"/>
<polygon fill="#191970" stroke="#191970" points="1476.3072,-221.1965 1484.9174,-215.0228 1474.3365,-214.4796 1476.3072,-221.1965"/>
</g>
<!-- Node10 -->
<g id="node11" class="node">
<title>Node10</title>
<polygon fill="#ffffff" stroke="#bfbfbf" points="1124.732,-62 1124.732,-81 1184.732,-81 1184.732,-62 1124.732,-62"/>
<text text-anchor="middle" x="1154.732" y="-69" font-family="Helvetica,sans-Serif" font-size="10.00" fill="#000000">iostream</text>
</g>
<!-- Node7&#45;&gt;Node10 -->
<g id="edge10" class="edge">
<title>Node7&#45;&gt;Node10</title>
<path fill="none" stroke="#191970" d="M1295.2918,-266.487C1394.9568,-257.5862 1564.3749,-239.9075 1585.732,-221 1618.8894,-191.6457 1633.5795,-155.7142 1603.732,-123 1574.2521,-90.6887 1254.7755,-94.7679 1211.732,-87 1206.2444,-86.0097 1200.5164,-84.7408 1194.8977,-83.3563"/>
<polygon fill="#191970" stroke="#191970" points="1195.5368,-79.9061 1184.9777,-80.7746 1193.7738,-86.6805 1195.5368,-79.9061"/>
</g>
<!-- Node11 -->
<g id="node12" class="node">
<title>Node11</title>
<polygon fill="#ffffff" stroke="#bfbfbf" points="1550.732,-129 1550.732,-148 1594.732,-148 1594.732,-129 1550.732,-129"/>
<text text-anchor="middle" x="1572.732" y="-136" font-family="Helvetica,sans-Serif" font-size="10.00" fill="#000000">limits</text>
</g>
<!-- Node7&#45;&gt;Node11 -->
<g id="edge11" class="edge">
<title>Node7&#45;&gt;Node11</title>
<path fill="none" stroke="#191970" d="M1295.5155,-266.2837C1390.3979,-257.468 1546.4727,-240.2497 1564.732,-221 1580.3876,-204.4953 1579.7585,-176.9145 1576.987,-158.231"/>
<polygon fill="#191970" stroke="#191970" points="1580.3905,-157.3831 1575.1629,-148.1677 1573.5027,-158.6317 1580.3905,-157.3831"/>
</g>
<!-- Node12 -->
<g id="node13" class="node">
<title>Node12</title>
<polygon fill="#ffffff" stroke="#bfbfbf" points="841.232,-196 841.232,-215 906.232,-215 906.232,-196 841.232,-196"/>
<text text-anchor="middle" x="873.732" y="-203" font-family="Helvetica,sans-Serif" font-size="10.00" fill="#000000">stdexcept</text>
</g>
<!-- Node7&#45;&gt;Node12 -->
<g id="edge13" class="edge">
<title>Node7&#45;&gt;Node12</title>
<path fill="none" stroke="#191970" d="M1150.1004,-263.226C1088.5316,-254.6251 998.1552,-240.2531 920.732,-221 917.2926,-220.1447 913.7412,-219.1626 910.2034,-218.1168"/>
<polygon fill="#191970" stroke="#191970" points="910.9612,-214.6869 900.3726,-215.053 908.8783,-221.3699 910.9612,-214.6869"/>
</g>
<!-- Node13 -->
<g id="node14" class="node">
<title>Node13</title>
<polygon fill="#ffffff" stroke="#bfbfbf" points="1527.232,-62 1527.232,-81 1604.232,-81 1604.232,-62 1527.232,-62"/>
<text text-anchor="middle" x="1565.732" y="-69" font-family="Helvetica,sans-Serif" font-size="10.00" fill="#000000">Eigen/Dense</text>
</g>
<!-- Node7&#45;&gt;Node13 -->
<g id="edge15" class="edge">
<title>Node7&#45;&gt;Node13</title>
<path fill="none" stroke="#191970" d="M1295.3579,-267.4383C1401.5589,-259.3619 1589.1354,-242.2794 1611.732,-221 1643.7185,-190.878 1642.9116,-162.9997 1624.732,-123 1617.8757,-107.9144 1604.1755,-95.5202 1591.7017,-86.674"/>
<polygon fill="#191970" stroke="#191970" points="1593.626,-83.7504 1583.3611,-81.1269 1589.7496,-89.5791 1593.626,-83.7504"/>
</g>
<!-- Node14 -->
<g id="node15" class="node">
<title>Node14</title>
<g id="a_node15"><a xlink:href="drake__throw_8h.html" target="_top" xlink:title="Provides a convenient wrapper to throw an exception when a condition is unmet. ">
<polygon fill="#ffffff" stroke="#000000" points="1039.232,-123.5 1039.232,-153.5 1160.232,-153.5 1160.232,-123.5 1039.232,-123.5"/>
<text text-anchor="start" x="1047.232" y="-141.5" font-family="Helvetica,sans-Serif" font-size="10.00" fill="#000000">drake/common/drake</text>
<text text-anchor="middle" x="1099.732" y="-130.5" font-family="Helvetica,sans-Serif" font-size="10.00" fill="#000000">_throw.h</text>
</a>
</g>
</g>
<!-- Node7&#45;&gt;Node14 -->
<g id="edge16" class="edge">
<title>Node7&#45;&gt;Node14</title>
<path fill="none" stroke="#191970" d="M1161.7536,-257.4964C1128.5925,-247.9711 1092.4008,-234.8589 1082.732,-221 1070.8007,-203.898 1077.4354,-180.2517 1085.6551,-162.6575"/>
<polygon fill="#191970" stroke="#191970" points="1088.8559,-164.0848 1090.2768,-153.5856 1082.6187,-160.9072 1088.8559,-164.0848"/>
</g>
<!-- Node15 -->
<g id="node16" class="node">
<title>Node15</title>
<g id="a_node16"><a xlink:href="dummy__value_8h.html" target="_top" xlink:title="drake/common/dummy\l_value.h">
<polygon fill="#ffffff" stroke="#000000" points="1324.232,-190.5 1324.232,-220.5 1455.232,-220.5 1455.232,-190.5 1324.232,-190.5"/>
<text text-anchor="start" x="1332.232" y="-208.5" font-family="Helvetica,sans-Serif" font-size="10.00" fill="#000000">drake/common/dummy</text>
<text text-anchor="middle" x="1389.732" y="-197.5" font-family="Helvetica,sans-Serif" font-size="10.00" fill="#000000">_value.h</text>
</a>
</g>
</g>
<!-- Node7&#45;&gt;Node15 -->
<g id="edge19" class="edge">
<title>Node7&#45;&gt;Node15</title>
<path fill="none" stroke="#191970" d="M1260.2101,-257.4639C1284.6198,-247.6708 1316.6603,-234.8162 1342.7662,-224.3426"/>
<polygon fill="#191970" stroke="#191970" points="1344.1128,-227.5736 1352.0905,-220.6017 1341.5063,-221.0769 1344.1128,-227.5736"/>
</g>
<!-- Node16 -->
<g id="node17" class="node">
<title>Node16</title>
<g id="a_node17"><a xlink:href="vector__base_8h.html" target="_top" xlink:title="drake/systems/framework\l/vector_base.h">
<polygon fill="#ffffff" stroke="#000000" points="1092.232,-190.5 1092.232,-220.5 1237.232,-220.5 1237.232,-190.5 1092.232,-190.5"/>
<text text-anchor="start" x="1100.232" y="-208.5" font-family="Helvetica,sans-Serif" font-size="10.00" fill="#000000">drake/systems/framework</text>
<text text-anchor="middle" x="1164.732" y="-197.5" font-family="Helvetica,sans-Serif" font-size="10.00" fill="#000000">/vector_base.h</text>
</a>
</g>
</g>
<!-- Node7&#45;&gt;Node16 -->
<g id="edge21" class="edge">
<title>Node7&#45;&gt;Node16</title>
<path fill="none" stroke="#191970" d="M1209.5709,-257.2967C1202.1552,-248.7303 1192.7463,-237.8614 1184.4644,-228.2943"/>
<polygon fill="#191970" stroke="#191970" points="1187.0323,-225.913 1177.841,-220.6432 1181.7398,-230.4946 1187.0323,-225.913"/>
</g>
<!-- Node14&#45;&gt;Node4 -->
<g id="edge18" class="edge">
<title>Node14&#45;&gt;Node4</title>
<path fill="none" stroke="#191970" d="M1039.0355,-129.0426C960.4757,-116.8019 823.8231,-95.5095 740.594,-82.5413"/>
<polygon fill="#191970" stroke="#191970" points="740.8863,-79.0447 730.4667,-80.9633 739.8086,-85.9612 740.8863,-79.0447"/>
</g>
<!-- Node14&#45;&gt;Node5 -->
<g id="edge17" class="edge">
<title>Node14&#45;&gt;Node5</title>
<path fill="none" stroke="#191970" d="M1084.9137,-123.4268C1065.1286,-104.3066 1028.0997,-71.9121 989.732,-56 940.897,-35.7468 790.6435,-20.3912 714.6845,-13.6928"/>
<polygon fill="#191970" stroke="#191970" points="714.7433,-10.1848 704.4777,-12.8055 714.137,-17.1585 714.7433,-10.1848"/>
</g>
<!-- Node15&#45;&gt;Node11 -->
<g id="edge20" class="edge">
<title>Node15&#45;&gt;Node11</title>
<path fill="none" stroke="#191970" d="M1435.393,-190.4172C1464.5667,-180.5559 1503.0975,-167.1142 1536.732,-154 1538.3447,-153.3712 1539.9923,-152.7143 1541.6521,-152.0412"/>
<polygon fill="#191970" stroke="#191970" points="1543.2475,-155.1681 1551.1308,-148.0897 1540.554,-148.707 1543.2475,-155.1681"/>
</g>
<!-- Node16&#45;&gt;Node1 -->
<g id="edge23" class="edge">
<title>Node16&#45;&gt;Node1</title>
<path fill="none" stroke="#191970" d="M1170.901,-190.2989C1177.1248,-172.23 1183.8489,-142.1245 1168.732,-123 1146.9756,-95.4759 1047.2801,-81.1128 990.8931,-75.0701"/>
<polygon fill="#191970" stroke="#191970" points="991.2037,-71.5837 980.8969,-74.0374 990.4842,-78.5466 991.2037,-71.5837"/>
</g>
<!-- Node16&#45;&gt;Node2 -->
<g id="edge24" class="edge">
<title>Node16&#45;&gt;Node2</title>
<path fill="none" stroke="#191970" d="M1092.0251,-200.1026C929.972,-187.9938 552.329,-159.3059 539.732,-154 521.9941,-146.5287 483.6606,-110.2506 461.4915,-88.3654"/>
<polygon fill="#191970" stroke="#191970" points="463.9424,-85.8666 454.3844,-81.2954 459.0056,-90.8293 463.9424,-85.8666"/>
</g>
<!-- Node16&#45;&gt;Node6 -->
<g id="edge26" class="edge">
<title>Node16&#45;&gt;Node6</title>
<path fill="none" stroke="#191970" d="M1237.3676,-191.3463C1275.4366,-182.2962 1316.4616,-169.3804 1327.732,-154 1341.8109,-134.7868 1325.1051,-110.8174 1308.0157,-93.6742"/>
<polygon fill="#191970" stroke="#191970" points="1310.4176,-91.1284 1300.7568,-86.7788 1305.5965,-96.2036 1310.4176,-91.1284"/>
</g>
<!-- Node16&#45;&gt;Node13 -->
<g id="edge25" class="edge">
<title>Node16&#45;&gt;Node13</title>
<path fill="none" stroke="#191970" d="M1237.5776,-191.5439C1240.6684,-191.0108 1243.7298,-190.4937 1246.732,-190 1360.5407,-171.2836 1404.3788,-212.5803 1503.732,-154 1528.9661,-139.1216 1547.2575,-109.5961 1557.1813,-90.2019"/>
<polygon fill="#191970" stroke="#191970" points="1560.3747,-91.6383 1561.6006,-81.1146 1554.0796,-88.5769 1560.3747,-91.6383"/>
</g>
<!-- Node16&#45;&gt;Node14 -->
<g id="edge27" class="edge">
<title>Node16&#45;&gt;Node14</title>
<path fill="none" stroke="#191970" d="M1149.9825,-190.2967C1141.5887,-181.6446 1130.9163,-170.6438 1121.5678,-161.0076"/>
<polygon fill="#191970" stroke="#191970" points="1123.8984,-158.3835 1114.4231,-153.6432 1118.8742,-163.2577 1123.8984,-158.3835"/>
</g>
<!-- Node17 -->
<g id="node18" class="node">
<title>Node17</title>
<polygon fill="#ffffff" stroke="#bfbfbf" points="1254.732,-129 1254.732,-148 1318.732,-148 1318.732,-129 1254.732,-129"/>
<text text-anchor="middle" x="1286.732" y="-136" font-family="Helvetica,sans-Serif" font-size="10.00" fill="#000000">algorithm</text>
</g>
<!-- Node16&#45;&gt;Node17 -->
<g id="edge22" class="edge">
<title>Node16&#45;&gt;Node17</title>
<path fill="none" stroke="#191970" d="M1192.1112,-190.4639C1212.489,-179.2728 1240.1466,-164.0838 1260.2952,-153.0186"/>
<polygon fill="#191970" stroke="#191970" points="1262.1639,-155.9855 1269.2443,-148.1039 1258.7943,-149.8498 1262.1639,-155.9855"/>
</g>
<!-- Node18 -->
<g id="node19" class="node">
<title>Node18</title>
<g id="a_node19"><a xlink:href="eigen__types_8h.html" target="_top" xlink:title="This file contains abbreviated definitions for certain specializations of Eigen::Matrix that are comm...">
<polygon fill="#ffffff" stroke="#000000" points="1374.732,-123.5 1374.732,-153.5 1494.732,-153.5 1494.732,-123.5 1374.732,-123.5"/>
<text text-anchor="start" x="1382.732" y="-141.5" font-family="Helvetica,sans-Serif" font-size="10.00" fill="#000000">drake/common/eigen</text>
<text text-anchor="middle" x="1434.732" y="-130.5" font-family="Helvetica,sans-Serif" font-size="10.00" fill="#000000">_types.h</text>
</a>
</g>
</g>
<!-- Node16&#45;&gt;Node18 -->
<g id="edge28" class="edge">
<title>Node16&#45;&gt;Node18</title>
<path fill="none" stroke="#191970" d="M1225.3253,-190.4639C1266.5787,-180.2269 1321.3129,-166.6447 1364.4767,-155.9337"/>
<polygon fill="#191970" stroke="#191970" points="1365.4783,-159.2914 1374.341,-153.4859 1363.7923,-152.4975 1365.4783,-159.2914"/>
</g>
<!-- Node18&#45;&gt;Node1 -->
<g id="edge29" class="edge">
<title>Node18&#45;&gt;Node1</title>
<path fill="none" stroke="#191970" d="M1374.4762,-129.688C1359.2279,-127.481 1342.8801,-125.1346 1327.732,-123 1205.1114,-105.7213 1059.8761,-86.0552 991.3234,-76.8202"/>
<polygon fill="#191970" stroke="#191970" points="991.3723,-73.2953 980.9947,-75.4296 990.4382,-80.2327 991.3723,-73.2953"/>
</g>
<!-- Node18&#45;&gt;Node6 -->
<g id="edge32" class="edge">
<title>Node18&#45;&gt;Node6</title>
<path fill="none" stroke="#191970" d="M1400.3958,-123.4639C1378.2286,-113.7567 1349.1924,-101.0415 1325.3912,-90.6188"/>
<polygon fill="#191970" stroke="#191970" points="1326.7821,-87.407 1316.2179,-86.6017 1323.9742,-93.8191 1326.7821,-87.407"/>
</g>
<!-- Node18&#45;&gt;Node13 -->
<g id="edge30" class="edge">
<title>Node18&#45;&gt;Node13</title>
<path fill="none" stroke="#191970" d="M1464.131,-123.4639C1486.2101,-112.1715 1516.2481,-96.8086 1537.9303,-85.7192"/>
<polygon fill="#191970" stroke="#191970" points="1539.6448,-88.7736 1546.9542,-81.1039 1536.4573,-82.5414 1539.6448,-88.7736"/>
</g>
<!-- Node19 -->
<g id="node20" class="node">
<title>Node19</title>
<g id="a_node20"><a xlink:href="constants_8h.html" target="_top" xlink:title="drake/common/constants.h">
<polygon fill="#ffffff" stroke="#000000" points="1360.232,-62 1360.232,-81 1509.232,-81 1509.232,-62 1360.232,-62"/>
<text text-anchor="middle" x="1434.732" y="-69" font-family="Helvetica,sans-Serif" font-size="10.00" fill="#000000">drake/common/constants.h</text>
</a>
</g>
</g>
<!-- Node18&#45;&gt;Node19 -->
<g id="edge31" class="edge">
<title>Node18&#45;&gt;Node19</title>
<path fill="none" stroke="#191970" d="M1434.732,-123.2967C1434.732,-113.7699 1434.732,-101.3954 1434.732,-91.1306"/>
<polygon fill="#191970" stroke="#191970" points="1438.2321,-91.0549 1434.732,-81.055 1431.2321,-91.055 1438.2321,-91.0549"/>
</g>
<!-- Node20&#45;&gt;Node1 -->
<g id="edge34" class="edge">
<title>Node20&#45;&gt;Node1</title>
<path fill="none" stroke="#191970" d="M574.67,-257.4703C679.5122,-225.8975 913.085,-155.4507 914.732,-154 933.4415,-137.5211 943.1776,-109.7337 947.8732,-91.0131"/>
<polygon fill="#191970" stroke="#191970" points="951.3022,-91.7171 950.0851,-81.1924 944.4733,-90.1789 951.3022,-91.7171"/>
</g>
<!-- Node20&#45;&gt;Node2 -->
<g id="edge39" class="edge">
<title>Node20&#45;&gt;Node2</title>
<path fill="none" stroke="#191970" d="M516.6939,-257.4958C505.0364,-235.3249 483.2479,-192.2995 468.732,-154 460.7526,-132.9466 453.8394,-108.04 449.509,-91.1427"/>
<polygon fill="#191970" stroke="#191970" points="452.8732,-90.1682 447.0511,-81.3164 446.0824,-91.8668 452.8732,-90.1682"/>
</g>
<!-- Node20&#45;&gt;Node5 -->
<g id="edge37" class="edge">
<title>Node20&#45;&gt;Node5</title>
<path fill="none" stroke="#191970" d="M451.992,-267.0268C322.2648,-255.5649 59.4972,-224.0716 5.732,-154 -2.6551,-143.0692 1.9248,-136.2413 5.732,-123 15.4435,-89.2236 17.6303,-74.1397 47.732,-56 96.8314,-26.4121 490.3174,-14.2983 624.8343,-10.9954"/>
<polygon fill="#191970" stroke="#191970" points="625.2683,-14.4861 635.1811,-10.7463 625.0998,-7.4881 625.2683,-14.4861"/>
</g>
<!-- Node20&#45;&gt;Node6 -->
<g id="edge46" class="edge">
<title>Node20&#45;&gt;Node6</title>
<path fill="none" stroke="#191970" d="M597.3037,-260.679C644.741,-251.9918 707.6934,-238.6345 761.732,-221 794.0786,-210.4443 798.8648,-198.8018 831.732,-190 977.2348,-151.0344 1028.2156,-208.2634 1168.732,-154 1203.6929,-140.4991 1237.5583,-113.3049 1258.9496,-93.8271"/>
<polygon fill="#191970" stroke="#191970" points="1261.5798,-96.1605 1266.5136,-86.7845 1256.8097,-91.0373 1261.5798,-96.1605"/>
</g>
<!-- Node20&#45;&gt;Node12 -->
<g id="edge35" class="edge">
<title>Node20&#45;&gt;Node12</title>
<path fill="none" stroke="#191970" d="M597.3636,-263.226C658.9325,-254.6251 749.3088,-240.2531 826.732,-221 830.1715,-220.1447 833.7228,-219.1626 837.2606,-218.1168"/>
<polygon fill="#191970" stroke="#191970" points="838.5857,-221.3699 847.0914,-215.053 836.5029,-214.6869 838.5857,-221.3699"/>
</g>
<!-- Node21 -->
<g id="node22" class="node">
<title>Node21</title>
<polygon fill="#ffffff" stroke="#bfbfbf" points="258.732,-129 258.732,-148 302.732,-148 302.732,-129 258.732,-129"/>
<text text-anchor="middle" x="280.732" y="-136" font-family="Helvetica,sans-Serif" font-size="10.00" fill="#000000">string</text>
</g>
<!-- Node20&#45;&gt;Node21 -->
<g id="edge36" class="edge">
<title>Node20&#45;&gt;Node21</title>
<path fill="none" stroke="#191970" d="M451.9168,-268.0424C384.0029,-262.1848 289.7948,-249.1214 266.732,-221 252.041,-203.0866 261.0853,-175.4777 269.9949,-157.2035"/>
<polygon fill="#191970" stroke="#191970" points="273.2098,-158.6103 274.7792,-148.1323 267.0182,-155.3447 273.2098,-158.6103"/>
</g>
<!-- Node22 -->
<g id="node23" class="node">
<title>Node22</title>
<polygon fill="#ffffff" stroke="#bfbfbf" points="359.232,-129 359.232,-148 416.232,-148 416.232,-129 359.232,-129"/>
<text text-anchor="middle" x="387.732" y="-136" font-family="Helvetica,sans-Serif" font-size="10.00" fill="#000000">typeinfo</text>
</g>
<!-- Node20&#45;&gt;Node22 -->
<g id="edge38" class="edge">
<title>Node20&#45;&gt;Node22</title>
<path fill="none" stroke="#191970" d="M507.5024,-257.4648C496.0529,-247.3447 480.7816,-233.5974 467.732,-221 445.0346,-199.0892 419.8546,-172.7702 403.9185,-155.8483"/>
<polygon fill="#191970" stroke="#191970" points="406.284,-153.2543 396.8892,-148.3565 401.1792,-158.0439 406.284,-153.2543"/>
</g>
<!-- Node23 -->
<g id="node24" class="node">
<title>Node23</title>
<g id="a_node24"><a xlink:href="copyable__unique__ptr_8h.html" target="_top" xlink:title="drake/common/copyable\l_unique_ptr.h">
<polygon fill="#ffffff" stroke="#000000" points="549.232,-123.5 549.232,-153.5 686.232,-153.5 686.232,-123.5 549.232,-123.5"/>
<text text-anchor="start" x="557.232" y="-141.5" font-family="Helvetica,sans-Serif" font-size="10.00" fill="#000000">drake/common/copyable</text>
<text text-anchor="middle" x="617.732" y="-130.5" font-family="Helvetica,sans-Serif" font-size="10.00" fill="#000000">_unique_ptr.h</text>
</a>
</g>
</g>
<!-- Node20&#45;&gt;Node23 -->
<g id="edge40" class="edge">
<title>Node20&#45;&gt;Node23</title>
<path fill="none" stroke="#191970" d="M535.2195,-257.389C551.3366,-234.1665 582.326,-189.5151 601.4,-162.0322"/>
<polygon fill="#191970" stroke="#191970" points="604.3138,-163.9723 607.1401,-153.7614 598.5631,-159.9811 604.3138,-163.9723"/>
</g>
<!-- Node25 -->
<g id="node26" class="node">
<title>Node25</title>
<g id="a_node26"><a xlink:href="is__cloneable_8h.html" target="_top" xlink:title="drake/common/is_cloneable.h">
<polygon fill="#ffffff" stroke="#000000" points="743.232,-129 743.232,-148 906.232,-148 906.232,-129 743.232,-129"/>
<text text-anchor="middle" x="824.732" y="-136" font-family="Helvetica,sans-Serif" font-size="10.00" fill="#000000">drake/common/is_cloneable.h</text>
</a>
</g>
</g>
<!-- Node20&#45;&gt;Node25 -->
<g id="edge47" class="edge">
<title>Node20&#45;&gt;Node25</title>
<path fill="none" stroke="#191970" d="M558.5627,-257.389C617.3748,-231.1196 737.5773,-177.4291 794.0865,-152.1883"/>
<polygon fill="#191970" stroke="#191970" points="795.527,-155.3782 803.2301,-148.1042 792.6721,-148.9868 795.527,-155.3782"/>
</g>
<!-- Node26 -->
<g id="node27" class="node">
<title>Node26</title>
<g id="a_node27"><a xlink:href="nice__type__name_8h.html" target="_top" xlink:title="drake/common/nice_type\l_name.h">
<polygon fill="#ffffff" stroke="#000000" points="275.732,-190.5 275.732,-220.5 415.732,-220.5 415.732,-190.5 275.732,-190.5"/>
<text text-anchor="start" x="283.732" y="-208.5" font-family="Helvetica,sans-Serif" font-size="10.00" fill="#000000">drake/common/nice_type</text>
<text text-anchor="middle" x="345.732" y="-197.5" font-family="Helvetica,sans-Serif" font-size="10.00" fill="#000000">_name.h</text>
</a>
</g>
</g>
<!-- Node20&#45;&gt;Node26 -->
<g id="edge50" class="edge">
<title>Node20&#45;&gt;Node26</title>
<path fill="none" stroke="#191970" d="M484.5609,-257.4639C458.2824,-247.6278 423.753,-234.7034 395.7048,-224.2049"/>
<polygon fill="#191970" stroke="#191970" points="396.6707,-220.8293 386.0783,-220.6017 394.2168,-227.3852 396.6707,-220.8293"/>
</g>
<!-- Node23&#45;&gt;Node1 -->
<g id="edge43" class="edge">
<title>Node23&#45;&gt;Node1</title>
<path fill="none" stroke="#191970" d="M686.532,-124.6988C754.7051,-111.0234 856.7399,-90.5553 912.2733,-79.4154"/>
<polygon fill="#191970" stroke="#191970" points="913.2933,-82.7806 922.4096,-77.382 911.9165,-75.9173 913.2933,-82.7806"/>
</g>
<!-- Node23&#45;&gt;Node2 -->
<g id="edge44" class="edge">
<title>Node23&#45;&gt;Node2</title>
<path fill="none" stroke="#191970" d="M578.9074,-123.4639C548.2521,-111.5916 505.9788,-95.2199 477.1259,-84.0456"/>
<polygon fill="#191970" stroke="#191970" points="478.1102,-80.6736 467.5211,-80.3258 475.5821,-87.2011 478.1102,-80.6736"/>
</g>
<!-- Node23&#45;&gt;Node4 -->
<g id="edge45" class="edge">
<title>Node23&#45;&gt;Node4</title>
<path fill="none" stroke="#191970" d="M629.5316,-123.2967C636.1137,-114.816 644.4472,-104.0785 651.8179,-94.5817"/>
<polygon fill="#191970" stroke="#191970" points="654.6128,-96.689 657.9791,-86.6432 649.0829,-92.3971 654.6128,-96.689"/>
</g>
<!-- Node23&#45;&gt;Node10 -->
<g id="edge42" class="edge">
<title>Node23&#45;&gt;Node10</title>
<path fill="none" stroke="#191970" d="M686.4144,-129.1943C701.9693,-127.1225 718.4153,-124.9601 733.732,-123 873.5976,-105.1014 1039.7825,-85.1638 1114.6524,-76.2525"/>
<polygon fill="#191970" stroke="#191970" points="1115.0819,-79.7262 1124.5986,-75.0696 1114.2552,-72.7752 1115.0819,-79.7262"/>
</g>
<!-- Node24 -->
<g id="node25" class="node">
<title>Node24</title>
<polygon fill="#ffffff" stroke="#bfbfbf" points="538.232,-62 538.232,-81 591.232,-81 591.232,-62 538.232,-62"/>
<text text-anchor="middle" x="564.732" y="-69" font-family="Helvetica,sans-Serif" font-size="10.00" fill="#000000">cstddef</text>
</g>
<!-- Node23&#45;&gt;Node24 -->
<g id="edge41" class="edge">
<title>Node23&#45;&gt;Node24</title>
<path fill="none" stroke="#191970" d="M605.7055,-123.2967C597.6884,-113.1618 587.1218,-99.804 578.7273,-89.1921"/>
<polygon fill="#191970" stroke="#191970" points="581.2395,-86.7264 572.2904,-81.055 575.7495,-91.0692 581.2395,-86.7264"/>
</g>
<!-- Node25&#45;&gt;Node1 -->
<g id="edge48" class="edge">
<title>Node25&#45;&gt;Node1</title>
<path fill="none" stroke="#191970" d="M842.928,-128.9005C864.3358,-117.6067 900.0778,-98.7506 924.7213,-85.7497"/>
<polygon fill="#191970" stroke="#191970" points="926.3582,-88.8434 933.5698,-81.0817 923.092,-82.6522 926.3582,-88.8434"/>
</g>
<!-- Node25&#45;&gt;Node5 -->
<g id="edge49" class="edge">
<title>Node25&#45;&gt;Node5</title>
<path fill="none" stroke="#191970" d="M815.6902,-128.7711C800.5438,-112.724 768.7443,-80.0875 738.732,-56 724.7741,-44.7975 708.1015,-33.6279 694.6421,-25.1007"/>
<polygon fill="#191970" stroke="#191970" points="696.2469,-21.9766 685.9103,-19.6515 692.5409,-27.9151 696.2469,-21.9766"/>
</g>
<!-- Node26&#45;&gt;Node1 -->
<g id="edge51" class="edge">
<title>Node26&#45;&gt;Node1</title>
<path fill="none" stroke="#191970" d="M415.9189,-199.4859C503.0085,-191.2758 645.9843,-175.1326 694.732,-154 715.0473,-145.1931 713.8116,-132.6668 733.732,-123 792.3199,-94.5689 867.538,-81.297 912.5612,-75.5174"/>
<polygon fill="#191970" stroke="#191970" points="913.01,-78.9886 922.5106,-74.2995 912.1594,-72.0405 913.01,-78.9886"/>
</g>
<!-- Node26&#45;&gt;Node2 -->
<g id="edge54" class="edge">
<title>Node26&#45;&gt;Node2</title>
<path fill="none" stroke="#191970" d="M342.2797,-190.1864C339.1942,-172.5514 336.91,-143.3951 349.732,-123 363.6101,-100.9249 390.4215,-87.6396 412.0317,-80.1066"/>
<polygon fill="#191970" stroke="#191970" points="413.3906,-83.3461 421.8357,-76.9484 411.2442,-76.6833 413.3906,-83.3461"/>
</g>
<!-- Node26&#45;&gt;Node3 -->
<g id="edge55" class="edge">
<title>Node26&#45;&gt;Node3</title>
<path fill="none" stroke="#191970" d="M316.7819,-190.4639C295.0398,-179.1715 265.4604,-163.8086 244.1093,-152.7192"/>
<polygon fill="#191970" stroke="#191970" points="245.7108,-149.6071 235.2231,-148.1039 242.4843,-155.8192 245.7108,-149.6071"/>
</g>
<!-- Node26&#45;&gt;Node21 -->
<g id="edge52" class="edge">
<title>Node26&#45;&gt;Node21</title>
<path fill="none" stroke="#191970" d="M330.9825,-190.2967C320.8552,-179.8578 307.4108,-165.9997 296.9768,-155.2446"/>
<polygon fill="#191970" stroke="#191970" points="299.477,-152.7953 290.0018,-148.055 294.4528,-157.6695 299.477,-152.7953"/>
</g>
<!-- Node26&#45;&gt;Node22 -->
<g id="edge53" class="edge">
<title>Node26&#45;&gt;Node22</title>
<path fill="none" stroke="#191970" d="M355.2625,-190.2967C361.4886,-180.3645 369.655,-167.3371 376.2402,-156.8321"/>
<polygon fill="#191970" stroke="#191970" points="379.3964,-158.3868 381.7423,-148.055 373.4654,-154.6689 379.3964,-158.3868"/>
</g>
<!-- Node27 -->
<g id="node28" class="node">
<title>Node27</title>
<g id="a_node28"><a xlink:href="never__destroyed_8h.html" target="_top" xlink:title="drake/common/never\l_destroyed.h">
<polygon fill="#ffffff" stroke="#000000" points="15.232,-123.5 15.232,-153.5 136.232,-153.5 136.232,-123.5 15.232,-123.5"/>
<text text-anchor="start" x="23.232" y="-141.5" font-family="Helvetica,sans-Serif" font-size="10.00" fill="#000000">drake/common/never</text>
<text text-anchor="middle" x="75.732" y="-130.5" font-family="Helvetica,sans-Serif" font-size="10.00" fill="#000000">_destroyed.h</text>
</a>
</g>
</g>
<!-- Node26&#45;&gt;Node27 -->
<g id="edge56" class="edge">
<title>Node26&#45;&gt;Node27</title>
<path fill="none" stroke="#191970" d="M285.1387,-190.4639C244.0296,-180.2627 189.5337,-166.7397 146.4405,-156.0462"/>
<polygon fill="#191970" stroke="#191970" points="147.1382,-152.6132 136.5896,-153.6017 145.4522,-159.4072 147.1382,-152.6132"/>
</g>
<!-- Node27&#45;&gt;Node2 -->
<g id="edge59" class="edge">
<title>Node27&#45;&gt;Node2</title>
<path fill="none" stroke="#191970" d="M136.2828,-125.8217C141.1678,-124.849 146.0303,-123.8974 150.732,-123 245.4536,-104.9202 357.8206,-85.912 412.1257,-76.8789"/>
<polygon fill="#191970" stroke="#191970" points="412.8982,-80.2987 422.1902,-75.2085 411.7521,-73.3931 412.8982,-80.2987"/>
</g>
<!-- Node27&#45;&gt;Node5 -->
<g id="edge58" class="edge">
<title>Node27&#45;&gt;Node5</title>
<path fill="none" stroke="#191970" d="M132.4259,-123.4632C199.1955,-106.0235 313.5842,-76.9874 412.732,-56 486.7852,-40.3245 573.5855,-25.5258 624.9907,-17.1303"/>
<polygon fill="#191970" stroke="#191970" points="625.7865,-20.547 635.0955,-15.4881 624.6635,-13.6376 625.7865,-20.547"/>
</g>
<!-- Node27&#45;&gt;Node6 -->
<g id="edge60" class="edge">
<title>Node27&#45;&gt;Node6</title>
<path fill="none" stroke="#191970" d="M136.4298,-128.6271C151.8233,-126.4434 168.3554,-124.3735 183.732,-123 631.1247,-83.0374 747.0313,-134.0714 1193.732,-87 1199.2281,-86.4208 1204.8986,-85.7027 1210.5887,-84.8955"/>
<polygon fill="#191970" stroke="#191970" points="1211.4501,-88.3054 1220.8184,-83.3571 1210.4091,-81.3832 1211.4501,-88.3054"/>
</g>
<!-- Node28 -->
<g id="node29" class="node">
<title>Node28</title>
<polygon fill="#ffffff" stroke="#bfbfbf" points="57.232,-62 57.232,-81 94.232,-81 94.232,-62 57.232,-62"/>
<text text-anchor="middle" x="75.732" y="-69" font-family="Helvetica,sans-Serif" font-size="10.00" fill="#000000">new</text>
</g>
<!-- Node27&#45;&gt;Node28 -->
<g id="edge57" class="edge">
<title>Node27&#45;&gt;Node28</title>
<path fill="none" stroke="#191970" d="M75.732,-123.2967C75.732,-113.7699 75.732,-101.3954 75.732,-91.1306"/>
<polygon fill="#191970" stroke="#191970" points="79.2321,-91.0549 75.732,-81.055 72.2321,-91.055 79.2321,-91.0549"/>
</g>
</g>
</svg>
