<?xml version="1.0" encoding="UTF-8" standalone="no"?>
<!DOCTYPE svg PUBLIC "-//W3C//DTD SVG 1.1//EN"
 "http://www.w3.org/Graphics/SVG/1.1/DTD/svg11.dtd">
<!-- Generated by graphviz version 2.40.1 (20161225.0304)
 -->
<!-- Title: drake/bindings/pydrake/systems/systems_pybind.h Pages: 1 -->
<svg width="2187pt" height="117pt"
 viewBox="0.00 0.00 2186.50 117.00" xmlns="http://www.w3.org/2000/svg" xmlns:xlink="http://www.w3.org/1999/xlink">
<g id="graph0" class="graph" transform="scale(1 1) rotate(0) translate(4 113)">
<title>drake/bindings/pydrake/systems/systems_pybind.h</title>
<polygon fill="#ffffff" stroke="transparent" points="-4,4 -4,-113 2182.5,-113 2182.5,4 -4,4"/>
<!-- Node71 -->
<g id="node1" class="node">
<title>Node71</title>
<polygon fill="#bfbfbf" stroke="#000000" points="1011.5,-78.5 1011.5,-108.5 1163.5,-108.5 1163.5,-78.5 1011.5,-78.5"/>
<text text-anchor="start" x="1019.5" y="-96.5" font-family="Helvetica,sans-Serif" font-size="10.00" fill="#000000">drake/bindings/pydrake</text>
<text text-anchor="middle" x="1087.5" y="-85.5" font-family="Helvetica,sans-Serif" font-size="10.00" fill="#000000">/systems/systems_pybind.h</text>
</g>
<!-- Node72 -->
<g id="node2" class="node">
<title>Node72</title>
<g id="a_node2"><a xlink:href="automotive__py_8cc.html" target="_top" xlink:title="drake/bindings/pydrake\l/automotive_py.cc">
<polygon fill="#ffffff" stroke="#000000" points="0,-6 0,-36 131,-36 131,-6 0,-6"/>
<text text-anchor="start" x="8" y="-24" font-family="Helvetica,sans-Serif" font-size="10.00" fill="#000000">drake/bindings/pydrake</text>
<text text-anchor="middle" x="65.5" y="-13" font-family="Helvetica,sans-Serif" font-size="10.00" fill="#000000">/automotive_py.cc</text>
</a>
</g>
</g>
<!-- Node71&#45;&gt;Node72 -->
<g id="edge1" class="edge">
<title>Node71&#45;&gt;Node72</title>
<path fill="none" stroke="#191970" d="M1001.0026,-91.2601C799.5603,-85.6456 303.7927,-69.4233 139.5,-42 130.6746,-40.5269 121.3999,-38.3864 112.5158,-36.0288"/>
<polygon fill="#191970" stroke="#191970" points="1001.1468,-94.7653 1011.2398,-91.5434 1001.3405,-87.768 1001.1468,-94.7653"/>
</g>
<!-- Node73 -->
<g id="node3" class="node">
<title>Node73</title>
<g id="a_node3"><a xlink:href="geometry__py_8cc.html" target="_top" xlink:title="drake/bindings/pydrake\l/geometry_py.cc">
<polygon fill="#ffffff" stroke="#000000" points="149,-6 149,-36 280,-36 280,-6 149,-6"/>
<text text-anchor="start" x="157" y="-24" font-family="Helvetica,sans-Serif" font-size="10.00" fill="#000000">drake/bindings/pydrake</text>
<text text-anchor="middle" x="214.5" y="-13" font-family="Helvetica,sans-Serif" font-size="10.00" fill="#000000">/geometry_py.cc</text>
</a>
</g>
</g>
<!-- Node71&#45;&gt;Node73 -->
<g id="edge2" class="edge">
<title>Node71&#45;&gt;Node73</title>
<path fill="none" stroke="#191970" d="M1001.3791,-90.2604C824.0489,-83.2109 423.4682,-65.2294 288.5,-42 279.8137,-40.505 270.6877,-38.3851 261.9261,-36.0618"/>
<polygon fill="#191970" stroke="#191970" points="1001.32,-93.7607 1011.4504,-90.6586 1001.5965,-86.7662 1001.32,-93.7607"/>
</g>
<!-- Node74 -->
<g id="node4" class="node">
<title>Node74</title>
<g id="a_node4"><a xlink:href="multibody__tree__py_8cc.html" target="_top" xlink:title="drake/bindings/pydrake\l/multibody/multibody_tree_py.cc">
<polygon fill="#ffffff" stroke="#000000" points="298,-6 298,-36 475,-36 475,-6 298,-6"/>
<text text-anchor="start" x="306" y="-24" font-family="Helvetica,sans-Serif" font-size="10.00" fill="#000000">drake/bindings/pydrake</text>
<text text-anchor="middle" x="386.5" y="-13" font-family="Helvetica,sans-Serif" font-size="10.00" fill="#000000">/multibody/multibody_tree_py.cc</text>
</a>
</g>
</g>
<!-- Node71&#45;&gt;Node74 -->
<g id="edge3" class="edge">
<title>Node71&#45;&gt;Node74</title>
<path fill="none" stroke="#191970" d="M1001.3093,-89.6302C883.7533,-83.5609 666.791,-69.539 483.5,-42 472.6801,-40.3743 461.2598,-38.2631 450.2026,-36.0072"/>
<polygon fill="#191970" stroke="#191970" points="1001.1663,-93.1274 1011.3314,-90.1408 1001.5225,-86.1365 1001.1663,-93.1274"/>
</g>
<!-- Node75 -->
<g id="node5" class="node">
<title>Node75</title>
<g id="a_node5"><a xlink:href="rigid__body__plant__py_8cc.html" target="_top" xlink:title="drake/bindings/pydrake\l/multibody/rigid_body\l_plant_py.cc">
<polygon fill="#ffffff" stroke="#000000" points="493,-.5 493,-41.5 624,-41.5 624,-.5 493,-.5"/>
<text text-anchor="start" x="501" y="-29.5" font-family="Helvetica,sans-Serif" font-size="10.00" fill="#000000">drake/bindings/pydrake</text>
<text text-anchor="start" x="501" y="-18.5" font-family="Helvetica,sans-Serif" font-size="10.00" fill="#000000">/multibody/rigid_body</text>
<text text-anchor="middle" x="558.5" y="-7.5" font-family="Helvetica,sans-Serif" font-size="10.00" fill="#000000">_plant_py.cc</text>
</a>
</g>
</g>
<!-- Node71&#45;&gt;Node75 -->
<g id="edge4" class="edge">
<title>Node71&#45;&gt;Node75</title>
<path fill="none" stroke="#191970" d="M1001.1399,-87.9561C909.1377,-81.0672 759.5517,-67.0426 632.5,-42 629.7485,-41.4577 626.9504,-40.863 624.132,-40.2282"/>
<polygon fill="#191970" stroke="#191970" points="1001.0093,-91.4559 1011.2396,-88.701 1001.5242,-84.4749 1001.0093,-91.4559"/>
</g>
<!-- Node76 -->
<g id="node6" class="node">
<title>Node76</title>
<g id="a_node6"><a xlink:href="perception__py_8cc.html" target="_top" xlink:title="drake/bindings/pydrake\l/perception_py.cc">
<polygon fill="#ffffff" stroke="#000000" points="642,-6 642,-36 773,-36 773,-6 642,-6"/>
<text text-anchor="start" x="650" y="-24" font-family="Helvetica,sans-Serif" font-size="10.00" fill="#000000">drake/bindings/pydrake</text>
<text text-anchor="middle" x="707.5" y="-13" font-family="Helvetica,sans-Serif" font-size="10.00" fill="#000000">/perception_py.cc</text>
</a>
</g>
</g>
<!-- Node71&#45;&gt;Node76 -->
<g id="edge5" class="edge">
<title>Node71&#45;&gt;Node76</title>
<path fill="none" stroke="#191970" d="M1001.2184,-81.5643C939.6445,-72.4185 855.0545,-58.5738 781.5,-42 773.8135,-40.268 765.7395,-38.219 757.8648,-36.0909"/>
<polygon fill="#191970" stroke="#191970" points="1000.8785,-85.0519 1011.282,-83.0477 1001.8993,-78.1268 1000.8785,-85.0519"/>
</g>
<!-- Node77 -->
<g id="node7" class="node">
<title>Node77</title>
<g id="a_node7"><a xlink:href="analysis__py_8cc.html" target="_top" xlink:title="drake/bindings/pydrake\l/systems/analysis_py.cc">
<polygon fill="#ffffff" stroke="#000000" points="791,-6 791,-36 926,-36 926,-6 791,-6"/>
<text text-anchor="start" x="799" y="-24" font-family="Helvetica,sans-Serif" font-size="10.00" fill="#000000">drake/bindings/pydrake</text>
<text text-anchor="middle" x="858.5" y="-13" font-family="Helvetica,sans-Serif" font-size="10.00" fill="#000000">/systems/analysis_py.cc</text>
</a>
</g>
</g>
<!-- Node71&#45;&gt;Node77 -->
<g id="edge6" class="edge">
<title>Node71&#45;&gt;Node77</title>
<path fill="none" stroke="#191970" d="M1030.0685,-75.3175C991.7407,-63.1832 941.9508,-47.42 905.8882,-36.0028"/>
<polygon fill="#191970" stroke="#191970" points="1029.461,-78.7964 1040.0511,-78.478 1031.5738,-72.1228 1029.461,-78.7964"/>
</g>
<!-- Node78 -->
<g id="node8" class="node">
<title>Node78</title>
<g id="a_node8"><a xlink:href="framework__py__semantics_8cc.html" target="_top" xlink:title="drake/bindings/pydrake\l/systems/framework_py\l_semantics.cc">
<polygon fill="#ffffff" stroke="#000000" points="944.5,-.5 944.5,-41.5 1078.5,-41.5 1078.5,-.5 944.5,-.5"/>
<text text-anchor="start" x="952.5" y="-29.5" font-family="Helvetica,sans-Serif" font-size="10.00" fill="#000000">drake/bindings/pydrake</text>
<text text-anchor="start" x="952.5" y="-18.5" font-family="Helvetica,sans-Serif" font-size="10.00" fill="#000000">/systems/framework_py</text>
<text text-anchor="middle" x="1011.5" y="-7.5" font-family="Helvetica,sans-Serif" font-size="10.00" fill="#000000">_semantics.cc</text>
</a>
</g>
</g>
<!-- Node71&#45;&gt;Node78 -->
<g id="edge7" class="edge">
<title>Node71&#45;&gt;Node78</title>
<path fill="none" stroke="#191970" d="M1064.4803,-71.5405C1054.4744,-61.9953 1042.8185,-50.8762 1032.9912,-41.5015"/>
<polygon fill="#191970" stroke="#191970" points="1062.1011,-74.1079 1071.7528,-78.478 1066.9329,-69.0429 1062.1011,-74.1079"/>
</g>
<!-- Node79 -->
<g id="node9" class="node">
<title>Node79</title>
<g id="a_node9"><a xlink:href="framework__py__systems_8cc.html" target="_top" xlink:title="drake/bindings/pydrake\l/systems/framework_py\l_systems.cc">
<polygon fill="#ffffff" stroke="#000000" points="1096.5,-.5 1096.5,-41.5 1230.5,-41.5 1230.5,-.5 1096.5,-.5"/>
<text text-anchor="start" x="1104.5" y="-29.5" font-family="Helvetica,sans-Serif" font-size="10.00" fill="#000000">drake/bindings/pydrake</text>
<text text-anchor="start" x="1104.5" y="-18.5" font-family="Helvetica,sans-Serif" font-size="10.00" fill="#000000">/systems/framework_py</text>
<text text-anchor="middle" x="1163.5" y="-7.5" font-family="Helvetica,sans-Serif" font-size="10.00" fill="#000000">_systems.cc</text>
</a>
</g>
</g>
<!-- Node71&#45;&gt;Node79 -->
<g id="edge8" class="edge">
<title>Node71&#45;&gt;Node79</title>
<path fill="none" stroke="#191970" d="M1110.5197,-71.5405C1120.5256,-61.9953 1132.1815,-50.8762 1142.0088,-41.5015"/>
<polygon fill="#191970" stroke="#191970" points="1108.0671,-69.0429 1103.2472,-78.478 1112.8989,-74.1079 1108.0671,-69.0429"/>
</g>
<!-- Node80 -->
<g id="node10" class="node">
<title>Node80</title>
<g id="a_node10"><a xlink:href="framework__py__values_8cc.html" target="_top" xlink:title="drake/bindings/pydrake\l/systems/framework_py\l_values.cc">
<polygon fill="#ffffff" stroke="#000000" points="1248.5,-.5 1248.5,-41.5 1382.5,-41.5 1382.5,-.5 1248.5,-.5"/>
<text text-anchor="start" x="1256.5" y="-29.5" font-family="Helvetica,sans-Serif" font-size="10.00" fill="#000000">drake/bindings/pydrake</text>
<text text-anchor="start" x="1256.5" y="-18.5" font-family="Helvetica,sans-Serif" font-size="10.00" fill="#000000">/systems/framework_py</text>
<text text-anchor="middle" x="1315.5" y="-7.5" font-family="Helvetica,sans-Serif" font-size="10.00" fill="#000000">_values.cc</text>
</a>
</g>
</g>
<!-- Node71&#45;&gt;Node80 -->
<g id="edge9" class="edge">
<title>Node71&#45;&gt;Node80</title>
<path fill="none" stroke="#191970" d="M1144.5054,-75.3733C1176.8747,-65.0804 1217.4979,-52.163 1251.0263,-41.5015"/>
<polygon fill="#191970" stroke="#191970" points="1143.2109,-72.1121 1134.7417,-78.478 1145.3322,-78.783 1143.2109,-72.1121"/>
</g>
<!-- Node81 -->
<g id="node11" class="node">
<title>Node81</title>
<g id="a_node11"><a xlink:href="systems_2lcm__py_8cc.html" target="_top" xlink:title="drake/bindings/pydrake\l/systems/lcm_py.cc">
<polygon fill="#ffffff" stroke="#000000" points="1401,-6 1401,-36 1532,-36 1532,-6 1401,-6"/>
<text text-anchor="start" x="1409" y="-24" font-family="Helvetica,sans-Serif" font-size="10.00" fill="#000000">drake/bindings/pydrake</text>
<text text-anchor="middle" x="1466.5" y="-13" font-family="Helvetica,sans-Serif" font-size="10.00" fill="#000000">/systems/lcm_py.cc</text>
</a>
</g>
</g>
<!-- Node71&#45;&gt;Node81 -->
<g id="edge10" class="edge">
<title>Node71&#45;&gt;Node81</title>
<path fill="none" stroke="#191970" d="M1173.5079,-81.3979C1234.6434,-72.1956 1318.5167,-58.352 1391.5,-42 1399.2848,-40.2558 1407.4649,-38.2002 1415.4447,-36.0692"/>
<polygon fill="#191970" stroke="#191970" points="1172.8877,-77.9516 1163.5148,-82.8913 1173.9223,-84.8748 1172.8877,-77.9516"/>
</g>
<!-- Node82 -->
<g id="node12" class="node">
<title>Node82</title>
<g id="a_node12"><a xlink:href="primitives__py_8cc.html" target="_top" xlink:title="drake/bindings/pydrake\l/systems/primitives_py.cc">
<polygon fill="#ffffff" stroke="#000000" points="1550.5,-6 1550.5,-36 1694.5,-36 1694.5,-6 1550.5,-6"/>
<text text-anchor="start" x="1558.5" y="-24" font-family="Helvetica,sans-Serif" font-size="10.00" fill="#000000">drake/bindings/pydrake</text>
<text text-anchor="middle" x="1622.5" y="-13" font-family="Helvetica,sans-Serif" font-size="10.00" fill="#000000">/systems/primitives_py.cc</text>
</a>
</g>
</g>
<!-- Node71&#45;&gt;Node82 -->
<g id="edge11" class="edge">
<title>Node71&#45;&gt;Node82</title>
<path fill="none" stroke="#191970" d="M1173.9675,-87.3328C1265.7096,-79.9421 1414.6377,-65.5196 1541.5,-42 1550.3561,-40.3581 1559.6735,-38.2798 1568.7094,-36.0727"/>
<polygon fill="#191970" stroke="#191970" points="1173.586,-83.852 1163.8952,-88.1345 1174.1414,-90.83 1173.586,-83.852"/>
</g>
<!-- Node83 -->
<g id="node13" class="node">
<title>Node83</title>
<g id="a_node13"><a xlink:href="rendering__py_8cc.html" target="_top" xlink:title="drake/bindings/pydrake\l/systems/rendering_py.cc">
<polygon fill="#ffffff" stroke="#000000" points="1713,-6 1713,-36 1854,-36 1854,-6 1713,-6"/>
<text text-anchor="start" x="1721" y="-24" font-family="Helvetica,sans-Serif" font-size="10.00" fill="#000000">drake/bindings/pydrake</text>
<text text-anchor="middle" x="1783.5" y="-13" font-family="Helvetica,sans-Serif" font-size="10.00" fill="#000000">/systems/rendering_py.cc</text>
</a>
</g>
</g>
<!-- Node71&#45;&gt;Node83 -->
<g id="edge12" class="edge">
<title>Node71&#45;&gt;Node83</title>
<path fill="none" stroke="#191970" d="M1174.1085,-90.9862C1293.8693,-86.4388 1516.4513,-74.1196 1703.5,-42 1712.5575,-40.4447 1722.0862,-38.3545 1731.2845,-36.0941"/>
<polygon fill="#191970" stroke="#191970" points="1173.766,-87.4964 1163.9024,-91.3643 1174.0252,-94.4916 1173.766,-87.4964"/>
</g>
<!-- Node84 -->
<g id="node14" class="node">
<title>Node84</title>
<g id="a_node14"><a xlink:href="sensors__py_8cc.html" target="_top" xlink:title="drake/bindings/pydrake\l/systems/sensors_py.cc">
<polygon fill="#ffffff" stroke="#000000" points="1872.5,-6 1872.5,-36 2004.5,-36 2004.5,-6 1872.5,-6"/>
<text text-anchor="start" x="1880.5" y="-24" font-family="Helvetica,sans-Serif" font-size="10.00" fill="#000000">drake/bindings/pydrake</text>
<text text-anchor="middle" x="1938.5" y="-13" font-family="Helvetica,sans-Serif" font-size="10.00" fill="#000000">/systems/sensors_py.cc</text>
</a>
</g>
</g>
<!-- Node71&#45;&gt;Node84 -->
<g id="edge13" class="edge">
<title>Node71&#45;&gt;Node84</title>
<path fill="none" stroke="#191970" d="M1173.6582,-90.031C1347.1203,-82.6772 1733.0187,-64.3495 1863.5,-42 1872.2962,-40.4933 1881.5419,-38.3678 1890.4206,-36.0425"/>
<polygon fill="#191970" stroke="#191970" points="1173.3921,-86.539 1163.5485,-90.4574 1173.6871,-93.5328 1173.3921,-86.539"/>
</g>
<!-- Node85 -->
<g id="node15" class="node">
<title>Node85</title>
<g id="a_node15"><a xlink:href="test__util__py_8cc.html" target="_top" xlink:title="drake/bindings/pydrake\l/systems/test/test_util_py.cc">
<polygon fill="#ffffff" stroke="#000000" points="2022.5,-6 2022.5,-36 2178.5,-36 2178.5,-6 2022.5,-6"/>
<text text-anchor="start" x="2030.5" y="-24" font-family="Helvetica,sans-Serif" font-size="10.00" fill="#000000">drake/bindings/pydrake</text>
<text text-anchor="middle" x="2100.5" y="-13" font-family="Helvetica,sans-Serif" font-size="10.00" fill="#000000">/systems/test/test_util_py.cc</text>
</a>
</g>
</g>
<!-- Node71&#45;&gt;Node85 -->
<g id="edge14" class="edge">
<title>Node71&#45;&gt;Node85</title>
<path fill="none" stroke="#191970" d="M1173.725,-90.7044C1371.4879,-83.9681 1853.0135,-65.6323 2013.5,-42 2023.6456,-40.506 2034.3426,-38.3865 2044.6322,-36.0634"/>
<polygon fill="#191970" stroke="#191970" points="1173.5457,-87.2084 1163.6701,-91.0453 1173.7829,-94.2044 1173.5457,-87.2084"/>
</g>
</g>
</svg>
