<?xml version="1.0" encoding="UTF-8" standalone="no"?>
<!DOCTYPE svg PUBLIC "-//W3C//DTD SVG 1.1//EN"
 "http://www.w3.org/Graphics/SVG/1.1/DTD/svg11.dtd">
<!-- Generated by graphviz version 2.40.1 (20161225.0304)
 -->
<!-- Title: drake/multibody/parsing/tinyxml_util.h Pages: 1 -->
<svg width="235pt" height="95pt"
 viewBox="0.00 0.00 234.50 95.00" xmlns="http://www.w3.org/2000/svg" xmlns:xlink="http://www.w3.org/1999/xlink">
<g id="graph0" class="graph" transform="scale(1 1) rotate(0) translate(4 91)">
<title>drake/multibody/parsing/tinyxml_util.h</title>
<polygon fill="#ffffff" stroke="transparent" points="-4,4 -4,-91 230.5,-91 230.5,4 -4,4"/>
<!-- Node0 -->
<g id="node1" class="node">
<title>Node0</title>
<polygon fill="#bfbfbf" stroke="#000000" points="33,-56.5 33,-86.5 169,-86.5 169,-56.5 33,-56.5"/>
<text text-anchor="start" x="41" y="-74.5" font-family="Helvetica,sans-Serif" font-size="10.00" fill="#000000">drake/multibody/parsing</text>
<text text-anchor="middle" x="101" y="-63.5" font-family="Helvetica,sans-Serif" font-size="10.00" fill="#000000">/tinyxml_util.h</text>
</g>
<!-- Node1 -->
<g id="node2" class="node">
<title>Node1</title>
<polygon fill="#ffffff" stroke="#bfbfbf" points="0,-.5 0,-19.5 44,-19.5 44,-.5 0,-.5"/>
<text text-anchor="middle" x="22" y="-7.5" font-family="Helvetica,sans-Serif" font-size="10.00" fill="#000000">string</text>
</g>
<!-- Node0&#45;&gt;Node1 -->
<g id="edge1" class="edge">
<title>Node0&#45;&gt;Node1</title>
<path fill="none" stroke="#191970" d="M81.4719,-56.2977C69.7063,-47.1384 54.7325,-35.4816 42.7535,-26.1562"/>
<polygon fill="#191970" stroke="#191970" points="44.6898,-23.228 34.6489,-19.8469 40.3897,-28.7516 44.6898,-23.228"/>
</g>
<!-- Node2 -->
<g id="node3" class="node">
<title>Node2</title>
<polygon fill="#ffffff" stroke="#bfbfbf" points="62.5,-.5 62.5,-19.5 139.5,-19.5 139.5,-.5 62.5,-.5"/>
<text text-anchor="middle" x="101" y="-7.5" font-family="Helvetica,sans-Serif" font-size="10.00" fill="#000000">Eigen/Dense</text>
</g>
<!-- Node0&#45;&gt;Node2 -->
<g id="edge2" class="edge">
<title>Node0&#45;&gt;Node2</title>
<path fill="none" stroke="#191970" d="M101,-56.2977C101,-48.3834 101,-38.6043 101,-30.0759"/>
<polygon fill="#191970" stroke="#191970" points="104.5001,-29.8469 101,-19.8469 97.5001,-29.847 104.5001,-29.8469"/>
</g>
<!-- Node3 -->
<g id="node4" class="node">
<title>Node3</title>
<polygon fill="#ffffff" stroke="#bfbfbf" points="157.5,-.5 157.5,-19.5 226.5,-19.5 226.5,-.5 157.5,-.5"/>
<text text-anchor="middle" x="192" y="-7.5" font-family="Helvetica,sans-Serif" font-size="10.00" fill="#000000">tinyxml2.h</text>
</g>
<!-- Node0&#45;&gt;Node3 -->
<g id="edge3" class="edge">
<title>Node0&#45;&gt;Node3</title>
<path fill="none" stroke="#191970" d="M123.4944,-56.2977C137.3967,-46.9022 155.1876,-34.8787 169.1546,-25.4395"/>
<polygon fill="#191970" stroke="#191970" points="171.376,-28.1626 177.7015,-19.6633 167.4564,-22.3629 171.376,-28.1626"/>
</g>
</g>
</svg>
