<?xml version="1.0" encoding="UTF-8" standalone="no"?>
<!DOCTYPE svg PUBLIC "-//W3C//DTD SVG 1.1//EN"
 "http://www.w3.org/Graphics/SVG/1.1/DTD/svg11.dtd">
<!-- Generated by graphviz version 2.40.1 (20161225.0304)
 -->
<!-- Title: drake/automotive/trivial_right_of_way_state_provider.h Pages: 1 -->
<svg width="330pt" height="117pt"
 viewBox="0.00 0.00 330.00 117.00" xmlns="http://www.w3.org/2000/svg" xmlns:xlink="http://www.w3.org/1999/xlink">
<g id="graph0" class="graph" transform="scale(1 1) rotate(0) translate(4 113)">
<title>drake/automotive/trivial_right_of_way_state_provider.h</title>
<polygon fill="#ffffff" stroke="transparent" points="-4,4 -4,-113 326,-113 326,4 -4,4"/>
<!-- Node73 -->
<g id="node1" class="node">
<title>Node73</title>
<polygon fill="#bfbfbf" stroke="#000000" points="65,-78.5 65,-108.5 235,-108.5 235,-78.5 65,-78.5"/>
<text text-anchor="start" x="73" y="-96.5" font-family="Helvetica,sans-Serif" font-size="10.00" fill="#000000">drake/automotive/trivial</text>
<text text-anchor="middle" x="150" y="-85.5" font-family="Helvetica,sans-Serif" font-size="10.00" fill="#000000">_right_of_way_state_provider.h</text>
</g>
<!-- Node74 -->
<g id="node2" class="node">
<title>Node74</title>
<g id="a_node2"><a xlink:href="trivial__right__of__way__state__provider__test_8cc.html" target="_top" xlink:title="drake/automotive/test\l/trivial_right_of_way\l_state_provider_test.cc">
<polygon fill="#ffffff" stroke="#000000" points="0,-.5 0,-41.5 130,-41.5 130,-.5 0,-.5"/>
<text text-anchor="start" x="8" y="-29.5" font-family="Helvetica,sans-Serif" font-size="10.00" fill="#000000">drake/automotive/test</text>
<text text-anchor="start" x="8" y="-18.5" font-family="Helvetica,sans-Serif" font-size="10.00" fill="#000000">/trivial_right_of_way</text>
<text text-anchor="middle" x="65" y="-7.5" font-family="Helvetica,sans-Serif" font-size="10.00" fill="#000000">_state_provider_test.cc</text>
</a>
</g>
</g>
<!-- Node73&#45;&gt;Node74 -->
<g id="edge1" class="edge">
<title>Node73&#45;&gt;Node74</title>
<path fill="none" stroke="#191970" d="M124.5829,-71.8207C113.3192,-62.2135 100.1351,-50.9681 89.0363,-41.5015"/>
<polygon fill="#191970" stroke="#191970" points="122.5083,-74.6514 132.3879,-78.478 127.0509,-69.3255 122.5083,-74.6514"/>
</g>
<!-- Node75 -->
<g id="node3" class="node">
<title>Node75</title>
<g id="a_node3"><a xlink:href="trivial__right__of__way__state__provider_8cc.html" target="_top" xlink:title="drake/automotive/trivial\l_right_of_way_state_provider.cc">
<polygon fill="#ffffff" stroke="#000000" points="148,-6 148,-36 322,-36 322,-6 148,-6"/>
<text text-anchor="start" x="156" y="-24" font-family="Helvetica,sans-Serif" font-size="10.00" fill="#000000">drake/automotive/trivial</text>
<text text-anchor="middle" x="235" y="-13" font-family="Helvetica,sans-Serif" font-size="10.00" fill="#000000">_right_of_way_state_provider.cc</text>
</a>
</g>
</g>
<!-- Node73&#45;&gt;Node75 -->
<g id="edge2" class="edge">
<title>Node73&#45;&gt;Node75</title>
<path fill="none" stroke="#191970" d="M175.2265,-71.9833C188.8061,-60.4007 205.221,-46.3998 217.4105,-36.0028"/>
<polygon fill="#191970" stroke="#191970" points="172.9491,-69.3255 167.6121,-78.478 177.4917,-74.6514 172.9491,-69.3255"/>
</g>
</g>
</svg>
