<?xml version="1.0" encoding="UTF-8" standalone="no"?>
<!DOCTYPE svg PUBLIC "-//W3C//DTD SVG 1.1//EN"
 "http://www.w3.org/Graphics/SVG/1.1/DTD/svg11.dtd">
<!-- Generated by graphviz version 2.40.1 (20161225.0304)
 -->
<!-- Title: drake/bindings/pydrake/common/type_safe_index_pybind.h Pages: 1 -->
<svg width="711pt" height="318pt"
 viewBox="0.00 0.00 710.50 318.00" xmlns="http://www.w3.org/2000/svg" xmlns:xlink="http://www.w3.org/1999/xlink">
<g id="graph0" class="graph" transform="scale(1 1) rotate(0) translate(4 314)">
<title>drake/bindings/pydrake/common/type_safe_index_pybind.h</title>
<polygon fill="#ffffff" stroke="transparent" points="-4,4 -4,-314 706.5,-314 706.5,4 -4,4"/>
<!-- Node0 -->
<g id="node1" class="node">
<title>Node0</title>
<polygon fill="#bfbfbf" stroke="#000000" points="184.5,-268.5 184.5,-309.5 330.5,-309.5 330.5,-268.5 184.5,-268.5"/>
<text text-anchor="start" x="192.5" y="-297.5" font-family="Helvetica,sans-Serif" font-size="10.00" fill="#000000">drake/bindings/pydrake</text>
<text text-anchor="start" x="192.5" y="-286.5" font-family="Helvetica,sans-Serif" font-size="10.00" fill="#000000">/common/type_safe_index</text>
<text text-anchor="middle" x="257.5" y="-275.5" font-family="Helvetica,sans-Serif" font-size="10.00" fill="#000000">_pybind.h</text>
</g>
<!-- Node1 -->
<g id="node2" class="node">
<title>Node1</title>
<polygon fill="#ffffff" stroke="#bfbfbf" points="658.5,-73 658.5,-92 702.5,-92 702.5,-73 658.5,-73"/>
<text text-anchor="middle" x="680.5" y="-80" font-family="Helvetica,sans-Serif" font-size="10.00" fill="#000000">string</text>
</g>
<!-- Node0&#45;&gt;Node1 -->
<g id="edge1" class="edge">
<title>Node0&#45;&gt;Node1</title>
<path fill="none" stroke="#191970" d="M330.5525,-276.2386C434.8184,-256.4859 618.4949,-215.4691 661.5,-165 676.4202,-147.4902 680.1984,-120.5528 680.8817,-102.2607"/>
<polygon fill="#191970" stroke="#191970" points="684.3826,-102.1834 680.9792,-92.1501 677.3829,-102.1159 684.3826,-102.1834"/>
</g>
<!-- Node2 -->
<g id="node3" class="node">
<title>Node2</title>
<polygon fill="#ffffff" stroke="#bfbfbf" points="6,-140 6,-159 125,-159 125,-140 6,-140"/>
<text text-anchor="middle" x="65.5" y="-147" font-family="Helvetica,sans-Serif" font-size="10.00" fill="#000000">pybind11/pybind11.h</text>
</g>
<!-- Node0&#45;&gt;Node2 -->
<g id="edge2" class="edge">
<title>Node0&#45;&gt;Node2</title>
<path fill="none" stroke="#191970" d="M228.3718,-268.4737C213.3531,-257.767 194.8121,-244.3572 178.5,-232 160.8505,-218.6296 157.2627,-214.2196 139.5,-201 122.6548,-188.4631 103.1426,-174.9229 88.3849,-164.8738"/>
<polygon fill="#191970" stroke="#191970" points="90.1186,-161.8207 79.8768,-159.1082 86.1916,-167.6155 90.1186,-161.8207"/>
</g>
<!-- Node3 -->
<g id="node4" class="node">
<title>Node3</title>
<polygon fill="#ffffff" stroke="#bfbfbf" points="187.5,-201.5 187.5,-231.5 327.5,-231.5 327.5,-201.5 187.5,-201.5"/>
<text text-anchor="start" x="195.5" y="-219.5" font-family="Helvetica,sans-Serif" font-size="10.00" fill="#000000">drake/bindings/pydrake</text>
<text text-anchor="middle" x="257.5" y="-208.5" font-family="Helvetica,sans-Serif" font-size="10.00" fill="#000000">/documentation_pybind.h</text>
</g>
<!-- Node0&#45;&gt;Node3 -->
<g id="edge3" class="edge">
<title>Node0&#45;&gt;Node3</title>
<path fill="none" stroke="#191970" d="M257.5,-268.4183C257.5,-260.0849 257.5,-250.3834 257.5,-241.6373"/>
<polygon fill="#191970" stroke="#191970" points="261.0001,-241.5991 257.5,-231.5991 254.0001,-241.5991 261.0001,-241.5991"/>
</g>
<!-- Node4 -->
<g id="node5" class="node">
<title>Node4</title>
<g id="a_node5"><a xlink:href="pydrake__pybind_8h.html" target="_top" xlink:title="drake/bindings/pydrake\l/pydrake_pybind.h">
<polygon fill="#ffffff" stroke="#000000" points="0,-201.5 0,-231.5 131,-231.5 131,-201.5 0,-201.5"/>
<text text-anchor="start" x="8" y="-219.5" font-family="Helvetica,sans-Serif" font-size="10.00" fill="#000000">drake/bindings/pydrake</text>
<text text-anchor="middle" x="65.5" y="-208.5" font-family="Helvetica,sans-Serif" font-size="10.00" fill="#000000">/pydrake_pybind.h</text>
</a>
</g>
</g>
<!-- Node0&#45;&gt;Node4 -->
<g id="edge4" class="edge">
<title>Node0&#45;&gt;Node4</title>
<path fill="none" stroke="#191970" d="M202.9941,-268.4183C175.3468,-257.9786 142.0138,-245.3919 115.0925,-235.2263"/>
<polygon fill="#191970" stroke="#191970" points="116.0783,-231.8574 105.4866,-231.5991 113.6054,-238.4061 116.0783,-231.8574"/>
</g>
<!-- Node5 -->
<g id="node6" class="node">
<title>Node5</title>
<g id="a_node6"><a xlink:href="type__safe__index_8h.html" target="_top" xlink:title="drake/common/type_safe\l_index.h">
<polygon fill="#ffffff" stroke="#000000" points="346,-201.5 346,-231.5 487,-231.5 487,-201.5 346,-201.5"/>
<text text-anchor="start" x="354" y="-219.5" font-family="Helvetica,sans-Serif" font-size="10.00" fill="#000000">drake/common/type_safe</text>
<text text-anchor="middle" x="416.5" y="-208.5" font-family="Helvetica,sans-Serif" font-size="10.00" fill="#000000">_index.h</text>
</a>
</g>
</g>
<!-- Node0&#45;&gt;Node5 -->
<g id="edge6" class="edge">
<title>Node0&#45;&gt;Node5</title>
<path fill="none" stroke="#191970" d="M302.6377,-268.4183C325.1315,-258.1617 352.1699,-245.8329 374.253,-235.7636"/>
<polygon fill="#191970" stroke="#191970" points="375.7394,-238.9325 383.3861,-231.5991 372.8352,-232.5634 375.7394,-238.9325"/>
</g>
<!-- Node4&#45;&gt;Node2 -->
<g id="edge5" class="edge">
<title>Node4&#45;&gt;Node2</title>
<path fill="none" stroke="#191970" d="M65.5,-201.2967C65.5,-191.7699 65.5,-179.3954 65.5,-169.1306"/>
<polygon fill="#191970" stroke="#191970" points="69.0001,-169.0549 65.5,-159.055 62.0001,-169.055 69.0001,-169.0549"/>
</g>
<!-- Node5&#45;&gt;Node1 -->
<g id="edge9" class="edge">
<title>Node5&#45;&gt;Node1</title>
<path fill="none" stroke="#191970" d="M472.8337,-201.4387C500.5195,-192.8211 533.7988,-180.5963 561.5,-165 580.4926,-154.3068 581.8283,-146.7582 599.5,-134 617.6839,-120.872 639.1357,-107.3135 655.3936,-97.4055"/>
<polygon fill="#191970" stroke="#191970" points="657.5518,-100.1909 664.3018,-92.0246 653.9325,-94.1991 657.5518,-100.1909"/>
</g>
<!-- Node6 -->
<g id="node7" class="node">
<title>Node6</title>
<polygon fill="#ffffff" stroke="#bfbfbf" points="487,-140 487,-159 552,-159 552,-140 487,-140"/>
<text text-anchor="middle" x="519.5" y="-147" font-family="Helvetica,sans-Serif" font-size="10.00" fill="#000000">functional</text>
</g>
<!-- Node5&#45;&gt;Node6 -->
<g id="edge7" class="edge">
<title>Node5&#45;&gt;Node6</title>
<path fill="none" stroke="#191970" d="M439.6152,-201.4639C456.4302,-190.526 479.1163,-175.769 496.0162,-164.7759"/>
<polygon fill="#191970" stroke="#191970" points="498.2616,-167.4906 504.7358,-159.1039 494.4447,-161.6228 498.2616,-167.4906"/>
</g>
<!-- Node7 -->
<g id="node8" class="node">
<title>Node7</title>
<polygon fill="#ffffff" stroke="#bfbfbf" points="608.5,-140 608.5,-159 652.5,-159 652.5,-140 608.5,-140"/>
<text text-anchor="middle" x="630.5" y="-147" font-family="Helvetica,sans-Serif" font-size="10.00" fill="#000000">limits</text>
</g>
<!-- Node5&#45;&gt;Node7 -->
<g id="edge8" class="edge">
<title>Node5&#45;&gt;Node7</title>
<path fill="none" stroke="#191970" d="M475.2073,-201.4976C510.1923,-192.068 555.2817,-179.0542 594.5,-165 596.3257,-164.3458 598.191,-163.6451 600.0646,-162.9164"/>
<polygon fill="#191970" stroke="#191970" points="601.4188,-166.1441 609.3553,-159.1253 598.7741,-159.6629 601.4188,-166.1441"/>
</g>
<!-- Node8 -->
<g id="node9" class="node">
<title>Node8</title>
<g id="a_node9"><a xlink:href="drake__assert_8h.html" target="_top" xlink:title="Provides Drake&#39;s assertion implementation. ">
<polygon fill="#ffffff" stroke="#000000" points="86,-67.5 86,-97.5 207,-97.5 207,-67.5 86,-67.5"/>
<text text-anchor="start" x="94" y="-85.5" font-family="Helvetica,sans-Serif" font-size="10.00" fill="#000000">drake/common/drake</text>
<text text-anchor="middle" x="146.5" y="-74.5" font-family="Helvetica,sans-Serif" font-size="10.00" fill="#000000">_assert.h</text>
</a>
</g>
</g>
<!-- Node5&#45;&gt;Node8 -->
<g id="edge10" class="edge">
<title>Node5&#45;&gt;Node8</title>
<path fill="none" stroke="#191970" d="M345.8851,-202.4821C275.0001,-188.2787 175.7868,-167.9816 172.5,-165 156.5077,-150.4925 150.2778,-126.2569 147.889,-107.797"/>
<polygon fill="#191970" stroke="#191970" points="151.3584,-107.3152 146.8816,-97.7127 144.3931,-108.0111 151.3584,-107.3152"/>
</g>
<!-- Node10 -->
<g id="node11" class="node">
<title>Node10</title>
<g id="a_node11"><a xlink:href="drake__throw_8h.html" target="_top" xlink:title="Provides a convenient wrapper to throw an exception when a condition is unmet. ">
<polygon fill="#ffffff" stroke="#000000" points="182,-134.5 182,-164.5 303,-164.5 303,-134.5 182,-134.5"/>
<text text-anchor="start" x="190" y="-152.5" font-family="Helvetica,sans-Serif" font-size="10.00" fill="#000000">drake/common/drake</text>
<text text-anchor="middle" x="242.5" y="-141.5" font-family="Helvetica,sans-Serif" font-size="10.00" fill="#000000">_throw.h</text>
</a>
</g>
</g>
<!-- Node5&#45;&gt;Node10 -->
<g id="edge12" class="edge">
<title>Node5&#45;&gt;Node10</title>
<path fill="none" stroke="#191970" d="M377.451,-201.4639C351.9066,-191.6278 318.3416,-178.7034 291.0769,-168.2049"/>
<polygon fill="#191970" stroke="#191970" points="292.3091,-164.9289 281.7193,-164.6017 289.7937,-171.4614 292.3091,-164.9289"/>
</g>
<!-- Node11 -->
<g id="node12" class="node">
<title>Node11</title>
<g id="a_node12"><a xlink:href="nice__type__name_8h.html" target="_top" xlink:title="drake/common/nice_type\l_name.h">
<polygon fill="#ffffff" stroke="#000000" points="328.5,-134.5 328.5,-164.5 468.5,-164.5 468.5,-134.5 328.5,-134.5"/>
<text text-anchor="start" x="336.5" y="-152.5" font-family="Helvetica,sans-Serif" font-size="10.00" fill="#000000">drake/common/nice_type</text>
<text text-anchor="middle" x="398.5" y="-141.5" font-family="Helvetica,sans-Serif" font-size="10.00" fill="#000000">_name.h</text>
</a>
</g>
</g>
<!-- Node5&#45;&gt;Node11 -->
<g id="edge15" class="edge">
<title>Node5&#45;&gt;Node11</title>
<path fill="none" stroke="#191970" d="M412.4155,-201.2967C410.2752,-193.3299 407.5999,-183.3718 405.1684,-174.3213"/>
<polygon fill="#191970" stroke="#191970" points="408.5431,-173.3926 402.5683,-164.6432 401.7828,-175.2088 408.5431,-173.3926"/>
</g>
<!-- Node9 -->
<g id="node10" class="node">
<title>Node9</title>
<polygon fill="#ffffff" stroke="#bfbfbf" points="201,-6 201,-25 270,-25 270,-6 201,-6"/>
<text text-anchor="middle" x="235.5" y="-13" font-family="Helvetica,sans-Serif" font-size="10.00" fill="#000000">type_traits</text>
</g>
<!-- Node8&#45;&gt;Node9 -->
<g id="edge11" class="edge">
<title>Node8&#45;&gt;Node9</title>
<path fill="none" stroke="#191970" d="M166.6955,-67.2967C180.966,-56.5537 200.0468,-42.1895 214.4948,-31.3129"/>
<polygon fill="#191970" stroke="#191970" points="216.9234,-33.8656 222.8076,-25.055 212.7133,-28.2731 216.9234,-33.8656"/>
</g>
<!-- Node10&#45;&gt;Node8 -->
<g id="edge14" class="edge">
<title>Node10&#45;&gt;Node8</title>
<path fill="none" stroke="#191970" d="M220.7161,-134.2967C207.7055,-125.2163 190.9879,-113.5488 176.7142,-103.587"/>
<polygon fill="#191970" stroke="#191970" points="178.4012,-100.4962 168.1977,-97.6432 174.3949,-106.2365 178.4012,-100.4962"/>
</g>
<!-- Node10&#45;&gt;Node9 -->
<g id="edge13" class="edge">
<title>Node10&#45;&gt;Node9</title>
<path fill="none" stroke="#191970" d="M241.7106,-134.389C240.4404,-110.0735 237.9429,-62.2644 236.5327,-35.2698"/>
<polygon fill="#191970" stroke="#191970" points="240.0187,-34.9079 236.0017,-25.1042 233.0282,-35.2732 240.0187,-34.9079"/>
</g>
<!-- Node11&#45;&gt;Node1 -->
<g id="edge17" class="edge">
<title>Node11&#45;&gt;Node1</title>
<path fill="none" stroke="#191970" d="M468.692,-135.5516C535.3506,-122.1841 627.8076,-103.2821 644.5,-98 646.6085,-97.3328 648.7618,-96.5852 650.9146,-95.7883"/>
<polygon fill="#191970" stroke="#191970" points="652.2205,-99.0357 660.209,-92.0762 649.6241,-92.535 652.2205,-99.0357"/>
</g>
<!-- Node12 -->
<g id="node13" class="node">
<title>Node12</title>
<polygon fill="#ffffff" stroke="#bfbfbf" points="329.5,-73 329.5,-92 387.5,-92 387.5,-73 329.5,-73"/>
<text text-anchor="middle" x="358.5" y="-80" font-family="Helvetica,sans-Serif" font-size="10.00" fill="#000000">memory</text>
</g>
<!-- Node11&#45;&gt;Node12 -->
<g id="edge16" class="edge">
<title>Node11&#45;&gt;Node12</title>
<path fill="none" stroke="#191970" d="M389.4234,-134.2967C383.4937,-124.3645 375.7162,-111.3371 369.4445,-100.8321"/>
<polygon fill="#191970" stroke="#191970" points="372.3358,-98.8471 364.2045,-92.055 366.3254,-102.4354 372.3358,-98.8471"/>
</g>
<!-- Node13 -->
<g id="node14" class="node">
<title>Node13</title>
<polygon fill="#ffffff" stroke="#bfbfbf" points="406,-73 406,-92 463,-92 463,-73 406,-73"/>
<text text-anchor="middle" x="434.5" y="-80" font-family="Helvetica,sans-Serif" font-size="10.00" fill="#000000">typeinfo</text>
</g>
<!-- Node11&#45;&gt;Node13 -->
<g id="edge18" class="edge">
<title>Node11&#45;&gt;Node13</title>
<path fill="none" stroke="#191970" d="M406.669,-134.2967C411.9512,-124.4658 418.8628,-111.6026 424.4767,-101.1545"/>
<polygon fill="#191970" stroke="#191970" points="427.7159,-102.5205 429.366,-92.055 421.5496,-99.2073 427.7159,-102.5205"/>
</g>
<!-- Node14 -->
<g id="node15" class="node">
<title>Node14</title>
<polygon fill="#ffffff" stroke="#bfbfbf" points="614,-6 614,-25 659,-25 659,-6 614,-6"/>
<text text-anchor="middle" x="636.5" y="-13" font-family="Helvetica,sans-Serif" font-size="10.00" fill="#000000">utility</text>
</g>
<!-- Node11&#45;&gt;Node14 -->
<g id="edge19" class="edge">
<title>Node11&#45;&gt;Node14</title>
<path fill="none" stroke="#191970" d="M467.8547,-134.4603C527.9417,-121.1615 606.0982,-103.1024 611.5,-98 628.6996,-81.7539 634.1903,-54.1124 635.8743,-35.3445"/>
<polygon fill="#191970" stroke="#191970" points="639.3758,-35.425 636.4938,-25.2297 632.3889,-34.997 639.3758,-35.425"/>
</g>
<!-- Node15 -->
<g id="node16" class="node">
<title>Node15</title>
<polygon fill="#ffffff" stroke="#bfbfbf" points="264,-73 264,-92 311,-92 311,-73 264,-73"/>
<text text-anchor="middle" x="287.5" y="-80" font-family="Helvetica,sans-Serif" font-size="10.00" fill="#000000">vector</text>
</g>
<!-- Node11&#45;&gt;Node15 -->
<g id="edge20" class="edge">
<title>Node11&#45;&gt;Node15</title>
<path fill="none" stroke="#191970" d="M373.5894,-134.4639C355.2167,-123.3741 330.34,-108.3584 312.0526,-97.32"/>
<polygon fill="#191970" stroke="#191970" points="313.781,-94.2751 303.411,-92.1039 310.1636,-100.268 313.781,-94.2751"/>
</g>
<!-- Node16 -->
<g id="node17" class="node">
<title>Node16</title>
<g id="a_node17"><a xlink:href="never__destroyed_8h.html" target="_top" xlink:title="drake/common/never\l_destroyed.h">
<polygon fill="#ffffff" stroke="#000000" points="481,-67.5 481,-97.5 602,-97.5 602,-67.5 481,-67.5"/>
<text text-anchor="start" x="489" y="-85.5" font-family="Helvetica,sans-Serif" font-size="10.00" fill="#000000">drake/common/never</text>
<text text-anchor="middle" x="541.5" y="-74.5" font-family="Helvetica,sans-Serif" font-size="10.00" fill="#000000">_destroyed.h</text>
</a>
</g>
</g>
<!-- Node11&#45;&gt;Node16 -->
<g id="edge21" class="edge">
<title>Node11&#45;&gt;Node16</title>
<path fill="none" stroke="#191970" d="M430.592,-134.4639C451.055,-124.8763 477.7806,-112.3545 499.8694,-102.0052"/>
<polygon fill="#191970" stroke="#191970" points="501.45,-105.1299 509.0204,-97.7177 498.48,-98.7911 501.45,-105.1299"/>
</g>
<!-- Node16&#45;&gt;Node9 -->
<g id="edge23" class="edge">
<title>Node16&#45;&gt;Node9</title>
<path fill="none" stroke="#191970" d="M480.9233,-68.867C478.0762,-68.2342 475.2574,-67.6093 472.5,-67 405.4684,-52.1883 327.6907,-35.3545 280.0422,-25.0818"/>
<polygon fill="#191970" stroke="#191970" points="280.5692,-21.6151 270.0563,-22.9298 279.0946,-28.458 280.5692,-21.6151"/>
</g>
<!-- Node16&#45;&gt;Node14 -->
<g id="edge24" class="edge">
<title>Node16&#45;&gt;Node14</title>
<path fill="none" stroke="#191970" d="M563.057,-67.2967C578.4332,-56.4524 599.0414,-41.9182 614.5138,-31.006"/>
<polygon fill="#191970" stroke="#191970" points="616.797,-33.6787 622.9519,-25.055 612.7626,-27.9582 616.797,-33.6787"/>
</g>
<!-- Node17 -->
<g id="node18" class="node">
<title>Node17</title>
<polygon fill="#ffffff" stroke="#bfbfbf" points="420,-6 420,-25 457,-25 457,-6 420,-6"/>
<text text-anchor="middle" x="438.5" y="-13" font-family="Helvetica,sans-Serif" font-size="10.00" fill="#000000">new</text>
</g>
<!-- Node16&#45;&gt;Node17 -->
<g id="edge22" class="edge">
<title>Node16&#45;&gt;Node17</title>
<path fill="none" stroke="#191970" d="M518.3848,-67.4639C501.5698,-56.526 478.8837,-41.769 461.9838,-30.7759"/>
<polygon fill="#191970" stroke="#191970" points="463.5553,-27.6228 453.2642,-25.1039 459.7384,-33.4906 463.5553,-27.6228"/>
</g>
<!-- Node18 -->
<g id="node19" class="node">
<title>Node18</title>
<g id="a_node19"><a xlink:href="drake__copyable_8h.html" target="_top" xlink:title="Provides careful macros to selectively enable or disable the special member functions for copy&#45;constr...">
<polygon fill="#ffffff" stroke="#000000" points="475,-.5 475,-30.5 596,-30.5 596,-.5 475,-.5"/>
<text text-anchor="start" x="483" y="-18.5" font-family="Helvetica,sans-Serif" font-size="10.00" fill="#000000">drake/common/drake</text>
<text text-anchor="middle" x="535.5" y="-7.5" font-family="Helvetica,sans-Serif" font-size="10.00" fill="#000000">_copyable.h</text>
</a>
</g>
</g>
<!-- Node16&#45;&gt;Node18 -->
<g id="edge25" class="edge">
<title>Node16&#45;&gt;Node18</title>
<path fill="none" stroke="#191970" d="M540.1385,-67.2967C539.4327,-59.4156 538.5524,-49.5857 537.749,-40.6135"/>
<polygon fill="#191970" stroke="#191970" points="541.2342,-40.2911 536.8561,-30.6432 534.2621,-40.9155 541.2342,-40.2911"/>
</g>
</g>
</svg>
