<?xml version="1.0" encoding="UTF-8" standalone="no"?>
<!DOCTYPE svg PUBLIC "-//W3C//DTD SVG 1.1//EN"
 "http://www.w3.org/Graphics/SVG/1.1/DTD/svg11.dtd">
<!-- Generated by graphviz version 2.40.1 (20161225.0304)
 -->
<!-- Title: drake/examples/valkyrie/valkyrie_constants.h Pages: 1 -->
<svg width="1244pt" height="206pt"
 viewBox="0.00 0.00 1244.00 206.00" xmlns="http://www.w3.org/2000/svg" xmlns:xlink="http://www.w3.org/1999/xlink">
<g id="graph0" class="graph" transform="scale(1 1) rotate(0) translate(4 202)">
<title>drake/examples/valkyrie/valkyrie_constants.h</title>
<polygon fill="#ffffff" stroke="transparent" points="-4,4 -4,-202 1240,-202 1240,4 -4,4"/>
<!-- Node6 -->
<g id="node1" class="node">
<title>Node6</title>
<polygon fill="#bfbfbf" stroke="#000000" points="623,-167.5 623,-197.5 761,-197.5 761,-167.5 623,-167.5"/>
<text text-anchor="start" x="631" y="-185.5" font-family="Helvetica,sans-Serif" font-size="10.00" fill="#000000">drake/examples/valkyrie</text>
<text text-anchor="middle" x="692" y="-174.5" font-family="Helvetica,sans-Serif" font-size="10.00" fill="#000000">/valkyrie_constants.h</text>
</g>
<!-- Node7 -->
<g id="node2" class="node">
<title>Node7</title>
<g id="a_node2"><a xlink:href="valkyrie__balancing__test_8cc.html" target="_top" xlink:title="drake/attic/systems\l/controllers/qp_inverse\l_dynamics/test/valkyrie\l_balancing_test.cc">
<polygon fill="#ffffff" stroke="#000000" points="0,-78.5 0,-130.5 134,-130.5 134,-78.5 0,-78.5"/>
<text text-anchor="start" x="8" y="-118.5" font-family="Helvetica,sans-Serif" font-size="10.00" fill="#000000">drake/attic/systems</text>
<text text-anchor="start" x="8" y="-107.5" font-family="Helvetica,sans-Serif" font-size="10.00" fill="#000000">/controllers/qp_inverse</text>
<text text-anchor="start" x="8" y="-96.5" font-family="Helvetica,sans-Serif" font-size="10.00" fill="#000000">_dynamics/test/valkyrie</text>
<text text-anchor="middle" x="67" y="-85.5" font-family="Helvetica,sans-Serif" font-size="10.00" fill="#000000">_balancing_test.cc</text>
</a>
</g>
</g>
<!-- Node6&#45;&gt;Node7 -->
<g id="edge1" class="edge">
<title>Node6&#45;&gt;Node7</title>
<path fill="none" stroke="#191970" d="M612.2721,-177.4028C482.2566,-168.6898 230.3138,-150.023 143,-131 140.1328,-130.3753 137.2246,-129.6748 134.3014,-128.9151"/>
<polygon fill="#191970" stroke="#191970" points="612.3505,-180.9157 622.5611,-178.0886 612.8161,-173.9312 612.3505,-180.9157"/>
</g>
<!-- Node8 -->
<g id="node3" class="node">
<title>Node8</title>
<g id="a_node3"><a xlink:href="send__manipulation__plan__demo_8cc.html" target="_top" xlink:title="drake/examples/humanoid\l_controller/send_manipulation\l_plan_demo.cc">
<polygon fill="#ffffff" stroke="#000000" points="152,-84 152,-125 316,-125 316,-84 152,-84"/>
<text text-anchor="start" x="160" y="-113" font-family="Helvetica,sans-Serif" font-size="10.00" fill="#000000">drake/examples/humanoid</text>
<text text-anchor="start" x="160" y="-102" font-family="Helvetica,sans-Serif" font-size="10.00" fill="#000000">_controller/send_manipulation</text>
<text text-anchor="middle" x="234" y="-91" font-family="Helvetica,sans-Serif" font-size="10.00" fill="#000000">_plan_demo.cc</text>
</a>
</g>
</g>
<!-- Node6&#45;&gt;Node8 -->
<g id="edge2" class="edge">
<title>Node6&#45;&gt;Node8</title>
<path fill="none" stroke="#191970" d="M612.5533,-174.6919C537.8264,-166.5614 423.0829,-152.0486 325,-131 316.9557,-129.2737 308.5824,-127.2108 300.3153,-125.0087"/>
<polygon fill="#191970" stroke="#191970" points="612.5092,-178.2072 622.8262,-175.7968 613.2578,-171.2473 612.5092,-178.2072"/>
</g>
<!-- Node9 -->
<g id="node4" class="node">
<title>Node9</title>
<g id="a_node4"><a xlink:href="humanoid__plan__eval__system__test_8cc.html" target="_top" xlink:title="drake/examples/humanoid\l_controller/test/humanoid\l_plan_eval_system_test.cc">
<polygon fill="#ffffff" stroke="#000000" points="334,-84 334,-125 482,-125 482,-84 334,-84"/>
<text text-anchor="start" x="342" y="-113" font-family="Helvetica,sans-Serif" font-size="10.00" fill="#000000">drake/examples/humanoid</text>
<text text-anchor="start" x="342" y="-102" font-family="Helvetica,sans-Serif" font-size="10.00" fill="#000000">_controller/test/humanoid</text>
<text text-anchor="middle" x="408" y="-91" font-family="Helvetica,sans-Serif" font-size="10.00" fill="#000000">_plan_eval_system_test.cc</text>
</a>
</g>
</g>
<!-- Node6&#45;&gt;Node9 -->
<g id="edge3" class="edge">
<title>Node6&#45;&gt;Node9</title>
<path fill="none" stroke="#191970" d="M619.2408,-164.9425C580.9369,-155.4261 533.2685,-143.1515 491,-131 484.6035,-129.1611 477.9539,-127.1715 471.3271,-125.1373"/>
<polygon fill="#191970" stroke="#191970" points="618.7266,-168.4208 629.2746,-167.4256 620.4083,-161.6258 618.7266,-168.4208"/>
</g>
<!-- Node10 -->
<g id="node5" class="node">
<title>Node10</title>
<g id="a_node5"><a xlink:href="valkyrie__balancing__demo_8cc.html" target="_top" xlink:title="drake/examples/humanoid\l_controller/valkyrie_balancing\l_demo.cc">
<polygon fill="#ffffff" stroke="#000000" points="500,-84 500,-125 664,-125 664,-84 500,-84"/>
<text text-anchor="start" x="508" y="-113" font-family="Helvetica,sans-Serif" font-size="10.00" fill="#000000">drake/examples/humanoid</text>
<text text-anchor="start" x="508" y="-102" font-family="Helvetica,sans-Serif" font-size="10.00" fill="#000000">_controller/valkyrie_balancing</text>
<text text-anchor="middle" x="582" y="-91" font-family="Helvetica,sans-Serif" font-size="10.00" fill="#000000">_demo.cc</text>
</a>
</g>
</g>
<!-- Node6&#45;&gt;Node10 -->
<g id="edge4" class="edge">
<title>Node6&#45;&gt;Node10</title>
<path fill="none" stroke="#191970" d="M662.3637,-161.4852C646.438,-150.1924 626.8795,-136.3237 611.0451,-125.0956"/>
<polygon fill="#191970" stroke="#191970" points="660.609,-164.5316 670.7909,-167.4608 664.6581,-158.8214 660.609,-164.5316"/>
</g>
<!-- Node11 -->
<g id="node6" class="node">
<title>Node11</title>
<g id="a_node6"><a xlink:href="valkyrie__simulation__test_8cc.html" target="_top" xlink:title="drake/examples/valkyrie\l/test/valkyrie_simulation\l_test.cc">
<polygon fill="#ffffff" stroke="#000000" points="807,-.5 807,-41.5 945,-41.5 945,-.5 807,-.5"/>
<text text-anchor="start" x="815" y="-29.5" font-family="Helvetica,sans-Serif" font-size="10.00" fill="#000000">drake/examples/valkyrie</text>
<text text-anchor="start" x="815" y="-18.5" font-family="Helvetica,sans-Serif" font-size="10.00" fill="#000000">/test/valkyrie_simulation</text>
<text text-anchor="middle" x="876" y="-7.5" font-family="Helvetica,sans-Serif" font-size="10.00" fill="#000000">_test.cc</text>
</a>
</g>
</g>
<!-- Node6&#45;&gt;Node11 -->
<g id="edge5" class="edge">
<title>Node6&#45;&gt;Node11</title>
<path fill="none" stroke="#191970" d="M689.8617,-157.2291C689.3028,-133.9731 692.2403,-99.8691 711,-78 724.0727,-62.7605 767.8145,-48.0267 806.9761,-37.3576"/>
<polygon fill="#191970" stroke="#191970" points="686.3727,-157.547 690.3413,-167.3705 693.3649,-157.2162 686.3727,-157.547"/>
</g>
<!-- Node12 -->
<g id="node7" class="node">
<title>Node12</title>
<g id="a_node7"><a xlink:href="valkyrie__constants_8cc.html" target="_top" xlink:title="drake/examples/valkyrie\l/valkyrie_constants.cc">
<polygon fill="#ffffff" stroke="#000000" points="720,-89.5 720,-119.5 858,-119.5 858,-89.5 720,-89.5"/>
<text text-anchor="start" x="728" y="-107.5" font-family="Helvetica,sans-Serif" font-size="10.00" fill="#000000">drake/examples/valkyrie</text>
<text text-anchor="middle" x="789" y="-96.5" font-family="Helvetica,sans-Serif" font-size="10.00" fill="#000000">/valkyrie_constants.cc</text>
</a>
</g>
</g>
<!-- Node6&#45;&gt;Node12 -->
<g id="edge6" class="edge">
<title>Node6&#45;&gt;Node12</title>
<path fill="none" stroke="#191970" d="M718.7814,-160.9644C735.0463,-147.8854 755.4182,-131.5039 770.0239,-119.7592"/>
<polygon fill="#191970" stroke="#191970" points="716.3023,-158.4667 710.7026,-167.4608 720.6889,-163.9218 716.3023,-158.4667"/>
</g>
<!-- Node13 -->
<g id="node8" class="node">
<title>Node13</title>
<g id="a_node8"><a xlink:href="valkyrie__pd__ff__controller_8cc.html" target="_top" xlink:title="drake/examples/valkyrie\l/valkyrie_pd_ff_controller.cc">
<polygon fill="#ffffff" stroke="#000000" points="876.5,-89.5 876.5,-119.5 1031.5,-119.5 1031.5,-89.5 876.5,-89.5"/>
<text text-anchor="start" x="884.5" y="-107.5" font-family="Helvetica,sans-Serif" font-size="10.00" fill="#000000">drake/examples/valkyrie</text>
<text text-anchor="middle" x="954" y="-96.5" font-family="Helvetica,sans-Serif" font-size="10.00" fill="#000000">/valkyrie_pd_ff_controller.cc</text>
</a>
</g>
</g>
<!-- Node6&#45;&gt;Node13 -->
<g id="edge7" class="edge">
<title>Node6&#45;&gt;Node13</title>
<path fill="none" stroke="#191970" d="M753.4019,-164.5845C786.9843,-154.7473 829.3076,-142.2864 867,-131 879.2519,-127.3314 892.4604,-123.3313 904.7937,-119.5768"/>
<polygon fill="#191970" stroke="#191970" points="752.3391,-161.2487 743.7253,-167.4174 754.3059,-167.9667 752.3391,-161.2487"/>
</g>
<!-- Node14 -->
<g id="node9" class="node">
<title>Node14</title>
<g id="a_node9"><a xlink:href="valkyrie__simulation_8cc.html" target="_top" xlink:title="Runs the simulator for the valkyrie robot. ">
<polygon fill="#ffffff" stroke="#000000" points="1098,-6 1098,-36 1236,-36 1236,-6 1098,-6"/>
<text text-anchor="start" x="1106" y="-24" font-family="Helvetica,sans-Serif" font-size="10.00" fill="#000000">drake/examples/valkyrie</text>
<text text-anchor="middle" x="1167" y="-13" font-family="Helvetica,sans-Serif" font-size="10.00" fill="#000000">/valkyrie_simulation.cc</text>
</a>
</g>
</g>
<!-- Node6&#45;&gt;Node14 -->
<g id="edge8" class="edge">
<title>Node6&#45;&gt;Node14</title>
<path fill="none" stroke="#191970" d="M771.5106,-180.1289C906.5918,-175.2734 1169.0602,-161.934 1197,-131 1221.2804,-104.1176 1195.5174,-59.4584 1178.85,-36.1747"/>
<polygon fill="#191970" stroke="#191970" points="771.0896,-176.6414 761.219,-180.4913 771.336,-183.6371 771.0896,-176.6414"/>
</g>
<!-- Node15 -->
<g id="node10" class="node">
<title>Node15</title>
<g id="a_node10"><a xlink:href="valkyrie__simulator_8h.html" target="_top" xlink:title="drake/examples/valkyrie\l/valkyrie_simulator.h">
<polygon fill="#ffffff" stroke="#000000" points="1050,-89.5 1050,-119.5 1188,-119.5 1188,-89.5 1050,-89.5"/>
<text text-anchor="start" x="1058" y="-107.5" font-family="Helvetica,sans-Serif" font-size="10.00" fill="#000000">drake/examples/valkyrie</text>
<text text-anchor="middle" x="1119" y="-96.5" font-family="Helvetica,sans-Serif" font-size="10.00" fill="#000000">/valkyrie_simulator.h</text>
</a>
</g>
</g>
<!-- Node6&#45;&gt;Node15 -->
<g id="edge9" class="edge">
<title>Node6&#45;&gt;Node15</title>
<path fill="none" stroke="#191970" d="M771.2425,-174.8102C842.2759,-166.9642 949.0027,-152.8143 1040,-131 1052.8017,-127.9311 1066.4844,-123.6955 1078.8043,-119.5105"/>
<polygon fill="#191970" stroke="#191970" points="770.5898,-171.3604 761.0273,-175.9222 771.3474,-178.3193 770.5898,-171.3604"/>
</g>
<!-- Node15&#45;&gt;Node11 -->
<g id="edge10" class="edge">
<title>Node15&#45;&gt;Node11</title>
<path fill="none" stroke="#191970" d="M1065.3388,-86.0609C1027.0214,-72.8942 975.4563,-55.1753 935.8147,-41.5536"/>
<polygon fill="#191970" stroke="#191970" points="1064.6812,-89.5357 1075.2758,-89.4754 1066.956,-82.9156 1064.6812,-89.5357"/>
</g>
<!-- Node15&#45;&gt;Node14 -->
<g id="edge11" class="edge">
<title>Node15&#45;&gt;Node14</title>
<path fill="none" stroke="#191970" d="M1132.8549,-80.3982C1141.0435,-66.1535 1151.1632,-48.5494 1158.2519,-36.2181"/>
<polygon fill="#191970" stroke="#191970" points="1129.7534,-78.7709 1127.8039,-89.1848 1135.8221,-82.2595 1129.7534,-78.7709"/>
</g>
</g>
</svg>
