<?xml version="1.0" encoding="UTF-8" standalone="no"?>
<!DOCTYPE svg PUBLIC "-//W3C//DTD SVG 1.1//EN"
 "http://www.w3.org/Graphics/SVG/1.1/DTD/svg11.dtd">
<!-- Generated by graphviz version 2.40.1 (20161225.0304)
 -->
<!-- Title: drake/multibody/tree/velocity_kinematics_cache.h Pages: 1 -->
<svg width="1222pt" height="452pt"
 viewBox="0.00 0.00 1222.00 452.00" xmlns="http://www.w3.org/2000/svg" xmlns:xlink="http://www.w3.org/1999/xlink">
<g id="graph0" class="graph" transform="scale(1 1) rotate(0) translate(4 448)">
<title>drake/multibody/tree/velocity_kinematics_cache.h</title>
<polygon fill="#ffffff" stroke="transparent" points="-4,4 -4,-448 1218,-448 1218,4 -4,4"/>
<!-- Node0 -->
<g id="node1" class="node">
<title>Node0</title>
<polygon fill="#bfbfbf" stroke="#000000" points="435.5,-402.5 435.5,-443.5 554.5,-443.5 554.5,-402.5 435.5,-402.5"/>
<text text-anchor="start" x="443.5" y="-431.5" font-family="Helvetica,sans-Serif" font-size="10.00" fill="#000000">drake/multibody/tree</text>
<text text-anchor="start" x="443.5" y="-420.5" font-family="Helvetica,sans-Serif" font-size="10.00" fill="#000000">/velocity_kinematics</text>
<text text-anchor="middle" x="495" y="-409.5" font-family="Helvetica,sans-Serif" font-size="10.00" fill="#000000">_cache.h</text>
</g>
<!-- Node1 -->
<g id="node2" class="node">
<title>Node1</title>
<polygon fill="#ffffff" stroke="#bfbfbf" points="366,-73 366,-92 424,-92 424,-73 366,-73"/>
<text text-anchor="middle" x="395" y="-80" font-family="Helvetica,sans-Serif" font-size="10.00" fill="#000000">memory</text>
</g>
<!-- Node0&#45;&gt;Node1 -->
<g id="edge1" class="edge">
<title>Node0&#45;&gt;Node1</title>
<path fill="none" stroke="#191970" d="M435.3212,-417.481C357.7252,-406.649 232,-374.9828 232,-283.5 232,-283.5 232,-283.5 232,-216.5 232,-175.3553 243.9271,-162.0804 274,-134 274.8794,-133.1788 327.1111,-111.0899 362.655,-96.1106"/>
<polygon fill="#191970" stroke="#191970" points="364.3242,-99.2054 372.1812,-92.0977 361.6067,-92.7544 364.3242,-99.2054"/>
</g>
<!-- Node2 -->
<g id="node3" class="node">
<title>Node2</title>
<polygon fill="#ffffff" stroke="#bfbfbf" points="1152.5,-73 1152.5,-92 1199.5,-92 1199.5,-73 1152.5,-73"/>
<text text-anchor="middle" x="1176" y="-80" font-family="Helvetica,sans-Serif" font-size="10.00" fill="#000000">vector</text>
</g>
<!-- Node0&#45;&gt;Node2 -->
<g id="edge2" class="edge">
<title>Node0&#45;&gt;Node2</title>
<path fill="none" stroke="#191970" d="M554.7573,-417.7163C727.2917,-401.6658 1214,-350.4546 1214,-283.5 1214,-283.5 1214,-283.5 1214,-216.5 1214,-179.1501 1208.9534,-169.7076 1198,-134 1194.6078,-122.9417 1189.6172,-111.0392 1185.2465,-101.4654"/>
<polygon fill="#191970" stroke="#191970" points="1188.2811,-99.6945 1180.8519,-92.1408 1181.9491,-102.6787 1188.2811,-99.6945"/>
</g>
<!-- Node3 -->
<g id="node4" class="node">
<title>Node3</title>
<g id="a_node4"><a xlink:href="drake__assert_8h.html" target="_top" xlink:title="Provides Drake&#39;s assertion implementation. ">
<polygon fill="#ffffff" stroke="#000000" points="518.5,-67.5 518.5,-97.5 639.5,-97.5 639.5,-67.5 518.5,-67.5"/>
<text text-anchor="start" x="526.5" y="-85.5" font-family="Helvetica,sans-Serif" font-size="10.00" fill="#000000">drake/common/drake</text>
<text text-anchor="middle" x="579" y="-74.5" font-family="Helvetica,sans-Serif" font-size="10.00" fill="#000000">_assert.h</text>
</a>
</g>
</g>
<!-- Node0&#45;&gt;Node3 -->
<g id="edge3" class="edge">
<title>Node0&#45;&gt;Node3</title>
<path fill="none" stroke="#191970" d="M500.0654,-402.467C514.6814,-343.22 556.8982,-172.0911 572.8223,-107.5417"/>
<polygon fill="#191970" stroke="#191970" points="576.2309,-108.3372 575.228,-97.7899 569.4347,-106.6605 576.2309,-108.3372"/>
</g>
<!-- Node5 -->
<g id="node6" class="node">
<title>Node5</title>
<g id="a_node6"><a xlink:href="drake__copyable_8h.html" target="_top" xlink:title="Provides careful macros to selectively enable or disable the special member functions for copy&#45;constr...">
<polygon fill="#ffffff" stroke="#000000" points="203.5,-.5 203.5,-30.5 324.5,-30.5 324.5,-.5 203.5,-.5"/>
<text text-anchor="start" x="211.5" y="-18.5" font-family="Helvetica,sans-Serif" font-size="10.00" fill="#000000">drake/common/drake</text>
<text text-anchor="middle" x="264" y="-7.5" font-family="Helvetica,sans-Serif" font-size="10.00" fill="#000000">_copyable.h</text>
</a>
</g>
</g>
<!-- Node0&#45;&gt;Node5 -->
<g id="edge5" class="edge">
<title>Node0&#45;&gt;Node5</title>
<path fill="none" stroke="#191970" d="M435.2914,-418.7939C303.6365,-407.8805 0,-373.0082 0,-283.5 0,-283.5 0,-283.5 0,-149.5 0,-62.6781 114.9385,-32.0913 193.1362,-21.3285"/>
<polygon fill="#191970" stroke="#191970" points="193.9652,-24.7504 203.4331,-19.9954 193.0664,-17.8084 193.9652,-24.7504"/>
</g>
<!-- Node6 -->
<g id="node7" class="node">
<title>Node6</title>
<g id="a_node7"><a xlink:href="eigen__types_8h.html" target="_top" xlink:title="This file contains abbreviated definitions for certain specializations of Eigen::Matrix that are comm...">
<polygon fill="#ffffff" stroke="#000000" points="84,-134.5 84,-164.5 204,-164.5 204,-134.5 84,-134.5"/>
<text text-anchor="start" x="92" y="-152.5" font-family="Helvetica,sans-Serif" font-size="10.00" fill="#000000">drake/common/eigen</text>
<text text-anchor="middle" x="144" y="-141.5" font-family="Helvetica,sans-Serif" font-size="10.00" fill="#000000">_types.h</text>
</a>
</g>
</g>
<!-- Node0&#45;&gt;Node6 -->
<g id="edge6" class="edge">
<title>Node0&#45;&gt;Node6</title>
<path fill="none" stroke="#191970" d="M435.3348,-417.6319C363.8344,-410.0477 249.6832,-393.9115 218,-366 161.1398,-315.9087 147.9302,-220.2466 144.89,-174.7489"/>
<polygon fill="#191970" stroke="#191970" points="148.3741,-174.3627 144.3267,-164.5715 141.3848,-174.7496 148.3741,-174.3627"/>
</g>
<!-- Node9 -->
<g id="node10" class="node">
<title>Node9</title>
<g id="a_node10"><a xlink:href="spatial__velocity_8h.html" target="_top" xlink:title="drake/multibody/math\l/spatial_velocity.h">
<polygon fill="#ffffff" stroke="#000000" points="336.5,-268.5 336.5,-298.5 461.5,-298.5 461.5,-268.5 336.5,-268.5"/>
<text text-anchor="start" x="344.5" y="-286.5" font-family="Helvetica,sans-Serif" font-size="10.00" fill="#000000">drake/multibody/math</text>
<text text-anchor="middle" x="399" y="-275.5" font-family="Helvetica,sans-Serif" font-size="10.00" fill="#000000">/spatial_velocity.h</text>
</a>
</g>
</g>
<!-- Node0&#45;&gt;Node9 -->
<g id="edge11" class="edge">
<title>Node0&#45;&gt;Node9</title>
<path fill="none" stroke="#191970" d="M480.8349,-402.4163C463.3095,-376.9498 433.5407,-333.6919 415.1469,-306.9634"/>
<polygon fill="#191970" stroke="#191970" points="417.9315,-304.8359 409.3792,-298.5822 412.165,-308.8043 417.9315,-304.8359"/>
</g>
<!-- Node13 -->
<g id="node14" class="node">
<title>Node13</title>
<g id="a_node14"><a xlink:href="multibody__tree__indexes_8h.html" target="_top" xlink:title="drake/multibody/tree\l/multibody_tree_indexes.h">
<polygon fill="#ffffff" stroke="#000000" points="964,-268.5 964,-298.5 1110,-298.5 1110,-268.5 964,-268.5"/>
<text text-anchor="start" x="972" y="-286.5" font-family="Helvetica,sans-Serif" font-size="10.00" fill="#000000">drake/multibody/tree</text>
<text text-anchor="middle" x="1037" y="-275.5" font-family="Helvetica,sans-Serif" font-size="10.00" fill="#000000">/multibody_tree_indexes.h</text>
</a>
</g>
</g>
<!-- Node0&#45;&gt;Node13 -->
<g id="edge22" class="edge">
<title>Node0&#45;&gt;Node13</title>
<path fill="none" stroke="#191970" d="M554.5351,-417.8086C652.1844,-408.7792 841.8424,-388.9377 905,-366 944.709,-351.5784 985.1439,-324.0057 1010.6106,-304.7214"/>
<polygon fill="#191970" stroke="#191970" points="1012.8629,-307.4045 1018.6506,-298.5302 1008.592,-301.8583 1012.8629,-307.4045"/>
</g>
<!-- Node23 -->
<g id="node24" class="node">
<title>Node23</title>
<g id="a_node24"><a xlink:href="multibody__tree__topology_8h.html" target="_top" xlink:title="This file defines the topological structures which represent the logical connectivities between multi...">
<polygon fill="#ffffff" stroke="#000000" points="744.5,-335.5 744.5,-365.5 895.5,-365.5 895.5,-335.5 744.5,-335.5"/>
<text text-anchor="start" x="752.5" y="-353.5" font-family="Helvetica,sans-Serif" font-size="10.00" fill="#000000">drake/multibody/tree</text>
<text text-anchor="middle" x="820" y="-342.5" font-family="Helvetica,sans-Serif" font-size="10.00" fill="#000000">/multibody_tree_topology.h</text>
</a>
</g>
</g>
<!-- Node0&#45;&gt;Node23 -->
<g id="edge42" class="edge">
<title>Node0&#45;&gt;Node23</title>
<path fill="none" stroke="#191970" d="M554.61,-409.7024C607.5317,-397.8968 685.1867,-380.5737 742.8363,-367.7134"/>
<polygon fill="#191970" stroke="#191970" points="743.634,-371.1216 752.6321,-365.5282 742.1099,-364.2895 743.634,-371.1216"/>
</g>
<!-- Node4 -->
<g id="node5" class="node">
<title>Node4</title>
<polygon fill="#ffffff" stroke="#bfbfbf" points="633.5,-6 633.5,-25 702.5,-25 702.5,-6 633.5,-6"/>
<text text-anchor="middle" x="668" y="-13" font-family="Helvetica,sans-Serif" font-size="10.00" fill="#000000">type_traits</text>
</g>
<!-- Node3&#45;&gt;Node4 -->
<g id="edge4" class="edge">
<title>Node3&#45;&gt;Node4</title>
<path fill="none" stroke="#191970" d="M599.1955,-67.2967C613.466,-56.5537 632.5468,-42.1895 646.9948,-31.3129"/>
<polygon fill="#191970" stroke="#191970" points="649.4234,-33.8656 655.3076,-25.055 645.2133,-28.2731 649.4234,-33.8656"/>
</g>
<!-- Node6&#45;&gt;Node1 -->
<g id="edge7" class="edge">
<title>Node6&#45;&gt;Node1</title>
<path fill="none" stroke="#191970" d="M204.2484,-136.1377C257.107,-124.206 329.8096,-107.2306 358,-98 360.0973,-97.3133 362.2423,-96.5591 364.391,-95.7646"/>
<polygon fill="#191970" stroke="#191970" points="365.6712,-99.0221 373.6992,-92.1083 363.1119,-92.5068 365.6712,-99.0221"/>
</g>
<!-- Node6&#45;&gt;Node5 -->
<g id="edge10" class="edge">
<title>Node6&#45;&gt;Node5</title>
<path fill="none" stroke="#191970" d="M124.3097,-134.2807C104.6838,-117.2407 79.6462,-89.1182 96,-67 108.0637,-50.6841 152.9562,-37.4183 193.3006,-28.4387"/>
<polygon fill="#191970" stroke="#191970" points="194.1319,-31.8399 203.1664,-26.3056 192.6525,-24.998 194.1319,-31.8399"/>
</g>
<!-- Node7 -->
<g id="node8" class="node">
<title>Node7</title>
<polygon fill="#ffffff" stroke="#bfbfbf" points="104.5,-73 104.5,-92 181.5,-92 181.5,-73 104.5,-73"/>
<text text-anchor="middle" x="143" y="-80" font-family="Helvetica,sans-Serif" font-size="10.00" fill="#000000">Eigen/Dense</text>
</g>
<!-- Node6&#45;&gt;Node7 -->
<g id="edge8" class="edge">
<title>Node6&#45;&gt;Node7</title>
<path fill="none" stroke="#191970" d="M143.7731,-134.2967C143.6309,-124.7699 143.4462,-112.3954 143.293,-102.1306"/>
<polygon fill="#191970" stroke="#191970" points="146.7916,-102.0016 143.1426,-92.055 139.7923,-102.1061 146.7916,-102.0016"/>
</g>
<!-- Node8 -->
<g id="node9" class="node">
<title>Node8</title>
<g id="a_node9"><a xlink:href="constants_8h.html" target="_top" xlink:title="drake/common/constants.h">
<polygon fill="#ffffff" stroke="#000000" points="199.5,-73 199.5,-92 348.5,-92 348.5,-73 199.5,-73"/>
<text text-anchor="middle" x="274" y="-80" font-family="Helvetica,sans-Serif" font-size="10.00" fill="#000000">drake/common/constants.h</text>
</a>
</g>
</g>
<!-- Node6&#45;&gt;Node8 -->
<g id="edge9" class="edge">
<title>Node6&#45;&gt;Node8</title>
<path fill="none" stroke="#191970" d="M173.1745,-134.4639C195.0851,-123.1715 224.8938,-107.8086 246.4105,-96.7192"/>
<polygon fill="#191970" stroke="#191970" points="248.0801,-99.7963 255.3655,-92.1039 244.8732,-93.5741 248.0801,-99.7963"/>
</g>
<!-- Node9&#45;&gt;Node3 -->
<g id="edge13" class="edge">
<title>Node9&#45;&gt;Node3</title>
<path fill="none" stroke="#191970" d="M414.4544,-268.4438C424.7149,-258.3148 438.3824,-244.5655 450,-232 490.4182,-188.284 535.3667,-135.0774 560.097,-105.3767"/>
<polygon fill="#191970" stroke="#191970" points="562.8177,-107.5789 566.5155,-97.6503 557.4332,-103.1059 562.8177,-107.5789"/>
</g>
<!-- Node9&#45;&gt;Node5 -->
<g id="edge14" class="edge">
<title>Node9&#45;&gt;Node5</title>
<path fill="none" stroke="#191970" d="M336.3136,-269.871C250.6742,-249.793 104.3456,-209.7698 75,-165 62.4793,-145.8984 75.4757,-78.8565 86,-67 100.5623,-50.5944 150.1245,-37.0527 193.2634,-27.9794"/>
<polygon fill="#191970" stroke="#191970" points="194.1142,-31.3778 203.2078,-25.9412 192.7086,-24.5204 194.1142,-31.3778"/>
</g>
<!-- Node9&#45;&gt;Node6 -->
<g id="edge15" class="edge">
<title>Node9&#45;&gt;Node6</title>
<path fill="none" stroke="#191970" d="M365.2971,-268.3469C343.6011,-258.4034 314.9039,-244.8977 290,-232 251.1589,-211.8843 207.6218,-186.9645 178.2784,-169.8077"/>
<polygon fill="#191970" stroke="#191970" points="179.6705,-166.5667 169.274,-164.5261 176.1288,-172.6046 179.6705,-166.5667"/>
</g>
<!-- Node10 -->
<g id="node11" class="node">
<title>Node10</title>
<polygon fill="#ffffff" stroke="#bfbfbf" points="418,-140 418,-159 462,-159 462,-140 418,-140"/>
<text text-anchor="middle" x="440" y="-147" font-family="Helvetica,sans-Serif" font-size="10.00" fill="#000000">limits</text>
</g>
<!-- Node9&#45;&gt;Node10 -->
<g id="edge12" class="edge">
<title>Node9&#45;&gt;Node10</title>
<path fill="none" stroke="#191970" d="M411.9395,-268.3603C419.4682,-258.635 428.3628,-245.3602 433,-232 440.0464,-211.6984 441.2501,-186.9728 441.0321,-169.9139"/>
<polygon fill="#191970" stroke="#191970" points="444.5168,-169.364 440.7084,-159.4774 437.5202,-169.5811 444.5168,-169.364"/>
</g>
<!-- Node11 -->
<g id="node12" class="node">
<title>Node11</title>
<g id="a_node12"><a xlink:href="spatial__vector_8h.html" target="_top" xlink:title="drake/multibody/math\l/spatial_vector.h">
<polygon fill="#ffffff" stroke="#000000" points="298.5,-201.5 298.5,-231.5 423.5,-231.5 423.5,-201.5 298.5,-201.5"/>
<text text-anchor="start" x="306.5" y="-219.5" font-family="Helvetica,sans-Serif" font-size="10.00" fill="#000000">drake/multibody/math</text>
<text text-anchor="middle" x="361" y="-208.5" font-family="Helvetica,sans-Serif" font-size="10.00" fill="#000000">/spatial_vector.h</text>
</a>
</g>
</g>
<!-- Node9&#45;&gt;Node11 -->
<g id="edge16" class="edge">
<title>Node9&#45;&gt;Node11</title>
<path fill="none" stroke="#191970" d="M390.3772,-268.2967C385.713,-260.0729 379.8453,-249.7272 374.5826,-240.4483"/>
<polygon fill="#191970" stroke="#191970" points="377.5665,-238.6148 369.5887,-231.6432 371.4777,-242.0683 377.5665,-238.6148"/>
</g>
<!-- Node11&#45;&gt;Node3 -->
<g id="edge19" class="edge">
<title>Node11&#45;&gt;Node3</title>
<path fill="none" stroke="#191970" d="M365.8909,-201.3914C372.6597,-182.8423 386.6421,-151.6769 409,-134 437.3903,-111.5537 475.4781,-98.8643 508.4054,-91.7035"/>
<polygon fill="#191970" stroke="#191970" points="509.3445,-95.084 518.4421,-89.6539 507.944,-88.2255 509.3445,-95.084"/>
</g>
<!-- Node11&#45;&gt;Node5 -->
<g id="edge20" class="edge">
<title>Node11&#45;&gt;Node5</title>
<path fill="none" stroke="#191970" d="M360.9852,-201.4821C361.6639,-183.8635 365.0353,-154.4645 379,-134 395.2583,-110.1742 419.3895,-123.4314 433,-98 439.5012,-85.8525 441.2004,-78.0716 433,-67 420.8148,-50.5484 375.3836,-37.2506 334.6925,-28.291"/>
<polygon fill="#191970" stroke="#191970" points="335.2561,-24.8325 324.7452,-26.1639 333.7923,-31.6777 335.2561,-24.8325"/>
</g>
<!-- Node11&#45;&gt;Node6 -->
<g id="edge21" class="edge">
<title>Node11&#45;&gt;Node6</title>
<path fill="none" stroke="#191970" d="M312.301,-201.4639C279.8874,-191.456 237.1187,-178.2509 202.8071,-167.657"/>
<polygon fill="#191970" stroke="#191970" points="203.4989,-164.2077 192.9114,-164.6017 201.4338,-170.8961 203.4989,-164.2077"/>
</g>
<!-- Node11&#45;&gt;Node10 -->
<g id="edge17" class="edge">
<title>Node11&#45;&gt;Node10</title>
<path fill="none" stroke="#191970" d="M378.9263,-201.2967C391.4739,-190.6551 408.2111,-176.4602 420.9909,-165.6217"/>
<polygon fill="#191970" stroke="#191970" points="423.371,-168.1924 428.7337,-159.055 418.8433,-162.8538 423.371,-168.1924"/>
</g>
<!-- Node12 -->
<g id="node13" class="node">
<title>Node12</title>
<polygon fill="#ffffff" stroke="#bfbfbf" points="282.5,-140 282.5,-159 323.5,-159 323.5,-140 282.5,-140"/>
<text text-anchor="middle" x="303" y="-147" font-family="Helvetica,sans-Serif" font-size="10.00" fill="#000000">tuple</text>
</g>
<!-- Node11&#45;&gt;Node12 -->
<g id="edge18" class="edge">
<title>Node11&#45;&gt;Node12</title>
<path fill="none" stroke="#191970" d="M347.8389,-201.2967C338.9777,-191.0605 327.2705,-177.5366 318.0407,-166.8746"/>
<polygon fill="#191970" stroke="#191970" points="320.4627,-164.3248 311.2715,-159.055 315.1703,-168.9064 320.4627,-164.3248"/>
</g>
<!-- Node14 -->
<g id="node15" class="node">
<title>Node14</title>
<g id="a_node15"><a xlink:href="type__safe__index_8h.html" target="_top" xlink:title="drake/common/type_safe\l_index.h">
<polygon fill="#ffffff" stroke="#000000" points="848.5,-201.5 848.5,-231.5 989.5,-231.5 989.5,-201.5 848.5,-201.5"/>
<text text-anchor="start" x="856.5" y="-219.5" font-family="Helvetica,sans-Serif" font-size="10.00" fill="#000000">drake/common/type_safe</text>
<text text-anchor="middle" x="919" y="-208.5" font-family="Helvetica,sans-Serif" font-size="10.00" fill="#000000">_index.h</text>
</a>
</g>
</g>
<!-- Node13&#45;&gt;Node14 -->
<g id="edge23" class="edge">
<title>Node13&#45;&gt;Node14</title>
<path fill="none" stroke="#191970" d="M1010.5185,-268.4639C994.0852,-259.1332 972.7573,-247.0232 954.8253,-236.8415"/>
<polygon fill="#191970" stroke="#191970" points="956.2256,-233.6117 945.8014,-231.7177 952.7692,-239.699 956.2256,-233.6117"/>
</g>
<!-- Node14&#45;&gt;Node3 -->
<g id="edge27" class="edge">
<title>Node14&#45;&gt;Node3</title>
<path fill="none" stroke="#191970" d="M848.486,-207.0308C783.8943,-197.5229 693.6676,-181.8941 662,-165 635.1071,-150.6531 611.2296,-124.7886 596.069,-105.833"/>
<polygon fill="#191970" stroke="#191970" points="598.6339,-103.4293 589.7372,-97.676 593.1043,-107.7216 598.6339,-103.4293"/>
</g>
<!-- Node14&#45;&gt;Node10 -->
<g id="edge25" class="edge">
<title>Node14&#45;&gt;Node10</title>
<path fill="none" stroke="#191970" d="M848.3219,-206.6139C742.9377,-191.8733 548.8251,-164.7219 472.2632,-154.0128"/>
<polygon fill="#191970" stroke="#191970" points="472.65,-150.5329 462.2616,-152.6138 471.6803,-157.4654 472.65,-150.5329"/>
</g>
<!-- Node15 -->
<g id="node16" class="node">
<title>Node15</title>
<polygon fill="#ffffff" stroke="#bfbfbf" points="1006.5,-140 1006.5,-159 1071.5,-159 1071.5,-140 1006.5,-140"/>
<text text-anchor="middle" x="1039" y="-147" font-family="Helvetica,sans-Serif" font-size="10.00" fill="#000000">functional</text>
</g>
<!-- Node14&#45;&gt;Node15 -->
<g id="edge24" class="edge">
<title>Node14&#45;&gt;Node15</title>
<path fill="none" stroke="#191970" d="M945.9303,-201.4639C965.9741,-190.2728 993.1783,-175.0838 1012.9965,-164.0186"/>
<polygon fill="#191970" stroke="#191970" points="1014.7739,-167.0349 1021.7989,-159.1039 1011.3614,-160.923 1014.7739,-167.0349"/>
</g>
<!-- Node16 -->
<g id="node17" class="node">
<title>Node16</title>
<polygon fill="#ffffff" stroke="#bfbfbf" points="1078,-73 1078,-92 1122,-92 1122,-73 1078,-73"/>
<text text-anchor="middle" x="1100" y="-80" font-family="Helvetica,sans-Serif" font-size="10.00" fill="#000000">string</text>
</g>
<!-- Node14&#45;&gt;Node16 -->
<g id="edge26" class="edge">
<title>Node14&#45;&gt;Node16</title>
<path fill="none" stroke="#191970" d="M989.0894,-201.4953C1026.7462,-192.0648 1068.0492,-179.051 1081,-165 1096.6734,-147.9952 1100.2578,-120.7281 1100.6927,-102.2374"/>
<polygon fill="#191970" stroke="#191970" points="1104.1916,-102.0092 1100.6365,-92.0287 1097.1917,-102.0478 1104.1916,-102.0092"/>
</g>
<!-- Node17 -->
<g id="node18" class="node">
<title>Node17</title>
<g id="a_node18"><a xlink:href="drake__throw_8h.html" target="_top" xlink:title="Provides a convenient wrapper to throw an exception when a condition is unmet. ">
<polygon fill="#ffffff" stroke="#000000" points="670.5,-134.5 670.5,-164.5 791.5,-164.5 791.5,-134.5 670.5,-134.5"/>
<text text-anchor="start" x="678.5" y="-152.5" font-family="Helvetica,sans-Serif" font-size="10.00" fill="#000000">drake/common/drake</text>
<text text-anchor="middle" x="731" y="-141.5" font-family="Helvetica,sans-Serif" font-size="10.00" fill="#000000">_throw.h</text>
</a>
</g>
</g>
<!-- Node14&#45;&gt;Node17 -->
<g id="edge28" class="edge">
<title>Node14&#45;&gt;Node17</title>
<path fill="none" stroke="#191970" d="M876.8091,-201.4639C849.0889,-191.5849 812.6269,-178.5905 783.0999,-168.0675"/>
<polygon fill="#191970" stroke="#191970" points="783.9696,-164.6619 773.3749,-164.6017 781.6196,-171.2557 783.9696,-164.6619"/>
</g>
<!-- Node18 -->
<g id="node19" class="node">
<title>Node18</title>
<g id="a_node19"><a xlink:href="nice__type__name_8h.html" target="_top" xlink:title="drake/common/nice_type\l_name.h">
<polygon fill="#ffffff" stroke="#000000" points="848,-134.5 848,-164.5 988,-164.5 988,-134.5 848,-134.5"/>
<text text-anchor="start" x="856" y="-152.5" font-family="Helvetica,sans-Serif" font-size="10.00" fill="#000000">drake/common/nice_type</text>
<text text-anchor="middle" x="918" y="-141.5" font-family="Helvetica,sans-Serif" font-size="10.00" fill="#000000">_name.h</text>
</a>
</g>
</g>
<!-- Node14&#45;&gt;Node18 -->
<g id="edge31" class="edge">
<title>Node14&#45;&gt;Node18</title>
<path fill="none" stroke="#191970" d="M918.7731,-201.2967C918.6567,-193.5013 918.5119,-183.7991 918.3792,-174.9064"/>
<polygon fill="#191970" stroke="#191970" points="921.875,-174.5898 918.226,-164.6432 914.8757,-174.6943 921.875,-174.5898"/>
</g>
<!-- Node17&#45;&gt;Node3 -->
<g id="edge30" class="edge">
<title>Node17&#45;&gt;Node3</title>
<path fill="none" stroke="#191970" d="M696.8882,-134.4639C674.9633,-124.7996 646.2746,-112.154 622.6881,-101.7572"/>
<polygon fill="#191970" stroke="#191970" points="623.8228,-98.4325 613.2605,-97.6017 620.9993,-104.8379 623.8228,-98.4325"/>
</g>
<!-- Node17&#45;&gt;Node4 -->
<g id="edge29" class="edge">
<title>Node17&#45;&gt;Node4</title>
<path fill="none" stroke="#191970" d="M714.9559,-134.1808C705.796,-124.5916 694.814,-111.5224 688,-98 677.881,-77.9188 672.7195,-52.4686 670.2006,-35.1827"/>
<polygon fill="#191970" stroke="#191970" points="673.6557,-34.609 668.9014,-25.1408 666.7135,-35.5073 673.6557,-34.609"/>
</g>
<!-- Node18&#45;&gt;Node1 -->
<g id="edge32" class="edge">
<title>Node18&#45;&gt;Node1</title>
<path fill="none" stroke="#191970" d="M847.7918,-140.0988C832.3787,-138.0628 816.1413,-135.9395 801,-134 671.7369,-117.4424 639.2443,-114.7039 510,-98 484.8179,-94.7454 456.5562,-90.9383 434.3515,-87.9118"/>
<polygon fill="#191970" stroke="#191970" points="434.6755,-84.4236 424.2938,-86.5378 433.728,-91.3592 434.6755,-84.4236"/>
</g>
<!-- Node18&#45;&gt;Node2 -->
<g id="edge36" class="edge">
<title>Node18&#45;&gt;Node2</title>
<path fill="none" stroke="#191970" d="M987.5052,-134.4411C1029.3443,-124.9442 1083.5296,-111.8806 1131,-98 1134.8167,-96.884 1138.7887,-95.6398 1142.7228,-94.355"/>
<polygon fill="#191970" stroke="#191970" points="1143.9518,-97.6344 1152.3135,-91.1279 1141.7194,-90.9999 1143.9518,-97.6344"/>
</g>
<!-- Node18&#45;&gt;Node16 -->
<g id="edge33" class="edge">
<title>Node18&#45;&gt;Node16</title>
<path fill="none" stroke="#191970" d="M958.8444,-134.4639C991.8945,-122.2971 1037.7807,-105.4049 1068.1531,-94.2239"/>
<polygon fill="#191970" stroke="#191970" points="1069.6425,-97.4053 1077.8176,-90.666 1067.2241,-90.8363 1069.6425,-97.4053"/>
</g>
<!-- Node19 -->
<g id="node20" class="node">
<title>Node19</title>
<polygon fill="#ffffff" stroke="#bfbfbf" points="874.5,-73 874.5,-92 931.5,-92 931.5,-73 874.5,-73"/>
<text text-anchor="middle" x="903" y="-80" font-family="Helvetica,sans-Serif" font-size="10.00" fill="#000000">typeinfo</text>
</g>
<!-- Node18&#45;&gt;Node19 -->
<g id="edge34" class="edge">
<title>Node18&#45;&gt;Node19</title>
<path fill="none" stroke="#191970" d="M914.5963,-134.2967C912.4634,-124.7699 909.693,-112.3954 907.3949,-102.1306"/>
<polygon fill="#191970" stroke="#191970" points="910.7394,-101.0487 905.1392,-92.055 903.9085,-102.5781 910.7394,-101.0487"/>
</g>
<!-- Node20 -->
<g id="node21" class="node">
<title>Node20</title>
<polygon fill="#ffffff" stroke="#bfbfbf" points="823.5,-6 823.5,-25 868.5,-25 868.5,-6 823.5,-6"/>
<text text-anchor="middle" x="846" y="-13" font-family="Helvetica,sans-Serif" font-size="10.00" fill="#000000">utility</text>
</g>
<!-- Node18&#45;&gt;Node20 -->
<g id="edge35" class="edge">
<title>Node18&#45;&gt;Node20</title>
<path fill="none" stroke="#191970" d="M929.0129,-134.2555C940.0449,-116.9433 953.7031,-88.3361 941,-67 927.517,-44.3541 900.2233,-31.0539 878.3369,-23.6618"/>
<polygon fill="#191970" stroke="#191970" points="879.319,-20.3019 868.7305,-20.6689 877.2367,-26.9851 879.319,-20.3019"/>
</g>
<!-- Node21 -->
<g id="node22" class="node">
<title>Node21</title>
<g id="a_node22"><a xlink:href="never__destroyed_8h.html" target="_top" xlink:title="drake/common/never\l_destroyed.h">
<polygon fill="#ffffff" stroke="#000000" points="696.5,-67.5 696.5,-97.5 817.5,-97.5 817.5,-67.5 696.5,-67.5"/>
<text text-anchor="start" x="704.5" y="-85.5" font-family="Helvetica,sans-Serif" font-size="10.00" fill="#000000">drake/common/never</text>
<text text-anchor="middle" x="757" y="-74.5" font-family="Helvetica,sans-Serif" font-size="10.00" fill="#000000">_destroyed.h</text>
</a>
</g>
</g>
<!-- Node18&#45;&gt;Node21 -->
<g id="edge37" class="edge">
<title>Node18&#45;&gt;Node21</title>
<path fill="none" stroke="#191970" d="M881.8685,-134.4639C858.439,-124.7137 827.7172,-111.9289 802.6099,-101.4805"/>
<polygon fill="#191970" stroke="#191970" points="803.8664,-98.2125 793.2891,-97.6017 801.1769,-104.6752 803.8664,-98.2125"/>
</g>
<!-- Node21&#45;&gt;Node4 -->
<g id="edge39" class="edge">
<title>Node21&#45;&gt;Node4</title>
<path fill="none" stroke="#191970" d="M736.8045,-67.2967C722.534,-56.5537 703.4532,-42.1895 689.0052,-31.3129"/>
<polygon fill="#191970" stroke="#191970" points="690.7867,-28.2731 680.6924,-25.055 686.5766,-33.8656 690.7867,-28.2731"/>
</g>
<!-- Node21&#45;&gt;Node5 -->
<g id="edge41" class="edge">
<title>Node21&#45;&gt;Node5</title>
<path fill="none" stroke="#191970" d="M696.4668,-73.7083C680.9953,-71.4899 664.3854,-69.133 649,-67 539.3659,-51.8004 412.0562,-34.9215 334.8015,-24.7644"/>
<polygon fill="#191970" stroke="#191970" points="335.0754,-21.2704 324.7046,-23.4378 334.1634,-28.2108 335.0754,-21.2704"/>
</g>
<!-- Node21&#45;&gt;Node20 -->
<g id="edge40" class="edge">
<title>Node21&#45;&gt;Node20</title>
<path fill="none" stroke="#191970" d="M777.1955,-67.2967C791.466,-56.5537 810.5468,-42.1895 824.9948,-31.3129"/>
<polygon fill="#191970" stroke="#191970" points="827.4234,-33.8656 833.3076,-25.055 823.2133,-28.2731 827.4234,-33.8656"/>
</g>
<!-- Node22 -->
<g id="node23" class="node">
<title>Node22</title>
<polygon fill="#ffffff" stroke="#bfbfbf" points="738.5,-6 738.5,-25 775.5,-25 775.5,-6 738.5,-6"/>
<text text-anchor="middle" x="757" y="-13" font-family="Helvetica,sans-Serif" font-size="10.00" fill="#000000">new</text>
</g>
<!-- Node21&#45;&gt;Node22 -->
<g id="edge38" class="edge">
<title>Node21&#45;&gt;Node22</title>
<path fill="none" stroke="#191970" d="M757,-67.2967C757,-57.7699 757,-45.3954 757,-35.1306"/>
<polygon fill="#191970" stroke="#191970" points="760.5001,-35.0549 757,-25.055 753.5001,-35.055 760.5001,-35.0549"/>
</g>
<!-- Node23&#45;&gt;Node2 -->
<g id="edge48" class="edge">
<title>Node23&#45;&gt;Node2</title>
<path fill="none" stroke="#191970" d="M895.5549,-348.0297C979.1744,-343.6806 1106.6982,-331.7293 1141,-299 1195.8734,-246.6423 1186.542,-144.6809 1179.6997,-102.0124"/>
<polygon fill="#191970" stroke="#191970" points="1183.1328,-101.3251 1177.9726,-92.0718 1176.2361,-102.5234 1183.1328,-101.3251"/>
</g>
<!-- Node23&#45;&gt;Node3 -->
<g id="edge49" class="edge">
<title>Node23&#45;&gt;Node3</title>
<path fill="none" stroke="#191970" d="M769.5417,-335.4195C747.7143,-327.1454 722.8983,-315.2114 704,-299 641.3284,-245.2388 602.7712,-151.8146 587.0993,-107.3704"/>
<polygon fill="#191970" stroke="#191970" points="590.3272,-105.9937 583.7707,-97.6713 583.7063,-108.266 590.3272,-105.9937"/>
</g>
<!-- Node23&#45;&gt;Node5 -->
<g id="edge50" class="edge">
<title>Node23&#45;&gt;Node5</title>
<path fill="none" stroke="#191970" d="M755.3606,-335.4313C727.9848,-327.2567 696.5755,-315.3968 671,-299 550.8576,-221.9752 571.4456,-140.3081 449,-67 414.2253,-46.1804 370.7582,-33.5206 334.6967,-25.9657"/>
<polygon fill="#191970" stroke="#191970" points="335.2284,-22.5027 324.7353,-23.9677 333.8517,-29.366 335.2284,-22.5027"/>
</g>
<!-- Node23&#45;&gt;Node13 -->
<g id="edge52" class="edge">
<title>Node23&#45;&gt;Node13</title>
<path fill="none" stroke="#191970" d="M868.699,-335.4639C901.1126,-325.456 943.8813,-312.2509 978.1929,-301.657"/>
<polygon fill="#191970" stroke="#191970" points="979.5662,-304.8961 988.0886,-298.6017 977.5011,-298.2077 979.5662,-304.8961"/>
</g>
<!-- Node23&#45;&gt;Node16 -->
<g id="edge46" class="edge">
<title>Node23&#45;&gt;Node16</title>
<path fill="none" stroke="#191970" d="M895.5305,-342.5534C979.3196,-332.9619 1104.6823,-315.9946 1119,-299 1167.4082,-241.5411 1129.0141,-142.4815 1109.5648,-101.3019"/>
<polygon fill="#191970" stroke="#191970" points="1112.6246,-99.5913 1105.0926,-92.1401 1106.334,-102.662 1112.6246,-99.5913"/>
</g>
<!-- Node23&#45;&gt;Node17 -->
<g id="edge51" class="edge">
<title>Node23&#45;&gt;Node17</title>
<path fill="none" stroke="#191970" d="M765.4447,-335.4823C747.4736,-327.6582 729.4359,-316.0355 719,-299 695.5371,-260.6992 709.1427,-206.1351 720.5143,-174.6153"/>
<polygon fill="#191970" stroke="#191970" points="723.939,-175.4571 724.2284,-164.8662 717.3976,-172.965 723.939,-175.4571"/>
</g>
<!-- Node23&#45;&gt;Node20 -->
<g id="edge47" class="edge">
<title>Node23&#45;&gt;Node20</title>
<path fill="none" stroke="#191970" d="M821.1847,-335.2352C825.4032,-280.8824 839.6933,-96.7593 844.4474,-35.5047"/>
<polygon fill="#191970" stroke="#191970" points="847.9581,-35.5009 845.2425,-25.26 840.9791,-34.9591 847.9581,-35.5009"/>
</g>
<!-- Node24 -->
<g id="node25" class="node">
<title>Node24</title>
<polygon fill="#ffffff" stroke="#bfbfbf" points="728,-274 728,-293 792,-293 792,-274 728,-274"/>
<text text-anchor="middle" x="760" y="-281" font-family="Helvetica,sans-Serif" font-size="10.00" fill="#000000">algorithm</text>
</g>
<!-- Node23&#45;&gt;Node24 -->
<g id="edge43" class="edge">
<title>Node23&#45;&gt;Node24</title>
<path fill="none" stroke="#191970" d="M806.3851,-335.2967C797.1276,-324.9591 784.8673,-311.2684 775.2765,-300.5588"/>
<polygon fill="#191970" stroke="#191970" points="777.8353,-298.1696 768.5567,-293.055 772.6206,-302.8394 777.8353,-298.1696"/>
</g>
<!-- Node25 -->
<g id="node26" class="node">
<title>Node25</title>
<polygon fill="#ffffff" stroke="#bfbfbf" points="848.5,-274 848.5,-293 895.5,-293 895.5,-274 848.5,-274"/>
<text text-anchor="middle" x="872" y="-281" font-family="Helvetica,sans-Serif" font-size="10.00" fill="#000000">queue</text>
</g>
<!-- Node23&#45;&gt;Node25 -->
<g id="edge44" class="edge">
<title>Node23&#45;&gt;Node25</title>
<path fill="none" stroke="#191970" d="M831.7996,-335.2967C839.6655,-325.1618 850.0327,-311.804 858.2688,-301.1921"/>
<polygon fill="#191970" stroke="#191970" points="861.2179,-303.1008 864.5842,-293.055 855.688,-298.8089 861.2179,-303.1008"/>
</g>
<!-- Node26 -->
<g id="node27" class="node">
<title>Node26</title>
<polygon fill="#ffffff" stroke="#bfbfbf" points="914,-274 914,-293 946,-293 946,-274 914,-274"/>
<text text-anchor="middle" x="930" y="-281" font-family="Helvetica,sans-Serif" font-size="10.00" fill="#000000">set</text>
</g>
<!-- Node23&#45;&gt;Node26 -->
<g id="edge45" class="edge">
<title>Node23&#45;&gt;Node26</title>
<path fill="none" stroke="#191970" d="M844.9604,-335.4689C861.9198,-325.2334 884.8461,-311.3527 905,-299 905.2939,-298.8199 905.5897,-298.6385 905.887,-298.456"/>
<polygon fill="#191970" stroke="#191970" points="908.0047,-301.2621 914.6787,-293.0336 904.33,-295.3041 908.0047,-301.2621"/>
</g>
</g>
</svg>
