<?xml version="1.0" encoding="UTF-8" standalone="no"?>
<!DOCTYPE svg PUBLIC "-//W3C//DTD SVG 1.1//EN"
 "http://www.w3.org/Graphics/SVG/1.1/DTD/svg11.dtd">
<!-- Generated by graphviz version 2.40.1 (20161225.0304)
 -->
<!-- Title: drake/multibody/multibody_tree/velocity_kinematics_cache.h Pages: 1 -->
<svg width="1201pt" height="452pt"
 viewBox="0.00 0.00 1200.59 452.00" xmlns="http://www.w3.org/2000/svg" xmlns:xlink="http://www.w3.org/1999/xlink">
<g id="graph0" class="graph" transform="scale(1 1) rotate(0) translate(4 448)">
<title>drake/multibody/multibody_tree/velocity_kinematics_cache.h</title>
<polygon fill="#ffffff" stroke="transparent" points="-4,4 -4,-448 1196.5917,-448 1196.5917,4 -4,4"/>
<!-- Node0 -->
<g id="node1" class="node">
<title>Node0</title>
<polygon fill="#bfbfbf" stroke="#000000" points="435.0917,-402.5 435.0917,-443.5 584.0917,-443.5 584.0917,-402.5 435.0917,-402.5"/>
<text text-anchor="start" x="443.0917" y="-431.5" font-family="Helvetica,sans-Serif" font-size="10.00" fill="#000000">drake/multibody/multibody</text>
<text text-anchor="start" x="443.0917" y="-420.5" font-family="Helvetica,sans-Serif" font-size="10.00" fill="#000000">_tree/velocity_kinematics</text>
<text text-anchor="middle" x="509.5917" y="-409.5" font-family="Helvetica,sans-Serif" font-size="10.00" fill="#000000">_cache.h</text>
</g>
<!-- Node1 -->
<g id="node2" class="node">
<title>Node1</title>
<polygon fill="#ffffff" stroke="#bfbfbf" points="280.5917,-73 280.5917,-92 338.5917,-92 338.5917,-73 280.5917,-73"/>
<text text-anchor="middle" x="309.5917" y="-80" font-family="Helvetica,sans-Serif" font-size="10.00" fill="#000000">memory</text>
</g>
<!-- Node0&#45;&gt;Node1 -->
<g id="edge1" class="edge">
<title>Node0&#45;&gt;Node1</title>
<path fill="none" stroke="#191970" d="M435.0015,-409.6013C406.2578,-401.208 374.9866,-387.6841 352.5917,-366 324.2206,-338.5293 319.5917,-322.9912 319.5917,-283.5 319.5917,-283.5 319.5917,-283.5 319.5917,-216.5 319.5917,-175.8572 314.9604,-128.4723 312.0013,-102.345"/>
<polygon fill="#191970" stroke="#191970" points="315.4566,-101.7585 310.8179,-92.2332 308.5041,-102.5722 315.4566,-101.7585"/>
</g>
<!-- Node2 -->
<g id="node3" class="node">
<title>Node2</title>
<polygon fill="#ffffff" stroke="#bfbfbf" points="457.0917,-73 457.0917,-92 504.0917,-92 504.0917,-73 457.0917,-73"/>
<text text-anchor="middle" x="480.5917" y="-80" font-family="Helvetica,sans-Serif" font-size="10.00" fill="#000000">vector</text>
</g>
<!-- Node0&#45;&gt;Node2 -->
<g id="edge2" class="edge">
<title>Node0&#45;&gt;Node2</title>
<path fill="none" stroke="#191970" d="M502.0097,-402.3329C485.5715,-354.9192 449.3157,-234.6577 464.5917,-134 466.2452,-123.1048 469.7606,-111.3414 473.0761,-101.8115"/>
<polygon fill="#191970" stroke="#191970" points="476.4566,-102.7596 476.6248,-92.1661 469.8871,-100.3426 476.4566,-102.7596"/>
</g>
<!-- Node3 -->
<g id="node4" class="node">
<title>Node3</title>
<g id="a_node4"><a xlink:href="drake__assert_8h.html" target="_top" xlink:title="Provides Drake&#39;s assertion implementation. ">
<polygon fill="#ffffff" stroke="#000000" points="1056.0917,-67.5 1056.0917,-97.5 1177.0917,-97.5 1177.0917,-67.5 1056.0917,-67.5"/>
<text text-anchor="start" x="1064.0917" y="-85.5" font-family="Helvetica,sans-Serif" font-size="10.00" fill="#000000">drake/common/drake</text>
<text text-anchor="middle" x="1116.5917" y="-74.5" font-family="Helvetica,sans-Serif" font-size="10.00" fill="#000000">_assert.h</text>
</a>
</g>
</g>
<!-- Node0&#45;&gt;Node3 -->
<g id="edge3" class="edge">
<title>Node0&#45;&gt;Node3</title>
<path fill="none" stroke="#191970" d="M584.3114,-415.5396C761.5335,-396.8403 1192.5917,-345.0333 1192.5917,-283.5 1192.5917,-283.5 1192.5917,-283.5 1192.5917,-216.5 1192.5917,-172.8187 1161.6578,-130.3321 1139.2608,-105.2952"/>
<polygon fill="#191970" stroke="#191970" points="1141.6948,-102.7719 1132.339,-97.8 1136.5522,-107.5211 1141.6948,-102.7719"/>
</g>
<!-- Node5 -->
<g id="node6" class="node">
<title>Node5</title>
<g id="a_node6"><a xlink:href="drake__copyable_8h.html" target="_top" xlink:title="Provides careful macros to selectively enable or disable the special member functions for copy&#45;constr...">
<polygon fill="#ffffff" stroke="#000000" points="325.0917,-.5 325.0917,-30.5 446.0917,-30.5 446.0917,-.5 325.0917,-.5"/>
<text text-anchor="start" x="333.0917" y="-18.5" font-family="Helvetica,sans-Serif" font-size="10.00" fill="#000000">drake/common/drake</text>
<text text-anchor="middle" x="385.5917" y="-7.5" font-family="Helvetica,sans-Serif" font-size="10.00" fill="#000000">_copyable.h</text>
</a>
</g>
</g>
<!-- Node0&#45;&gt;Node5 -->
<g id="edge5" class="edge">
<title>Node0&#45;&gt;Node5</title>
<path fill="none" stroke="#191970" d="M464.738,-402.4841C422.8008,-379.8653 366.5917,-339.1659 366.5917,-283.5 366.5917,-283.5 366.5917,-283.5 366.5917,-149.5 366.5917,-111.2951 374.2566,-67.5645 379.8496,-40.7397"/>
<polygon fill="#191970" stroke="#191970" points="383.3336,-41.1864 382.018,-30.6736 376.4906,-39.7123 383.3336,-41.1864"/>
</g>
<!-- Node6 -->
<g id="node7" class="node">
<title>Node6</title>
<g id="a_node7"><a xlink:href="eigen__types_8h.html" target="_top" xlink:title="This file contains abbreviated definitions for certain specializations of Eigen::Matrix that are comm...">
<polygon fill="#ffffff" stroke="#000000" points="128.5917,-134.5 128.5917,-164.5 248.5917,-164.5 248.5917,-134.5 128.5917,-134.5"/>
<text text-anchor="start" x="136.5917" y="-152.5" font-family="Helvetica,sans-Serif" font-size="10.00" fill="#000000">drake/common/eigen</text>
<text text-anchor="middle" x="188.5917" y="-141.5" font-family="Helvetica,sans-Serif" font-size="10.00" fill="#000000">_types.h</text>
</a>
</g>
</g>
<!-- Node0&#45;&gt;Node6 -->
<g id="edge6" class="edge">
<title>Node0&#45;&gt;Node6</title>
<path fill="none" stroke="#191970" d="M435.0769,-408.5636C385.4654,-397.7712 325.8135,-382.1496 305.5917,-366 241.9239,-315.1533 208.1849,-219.9131 195.1167,-174.6411"/>
<polygon fill="#191970" stroke="#191970" points="198.4211,-173.46 192.3676,-164.7649 191.6775,-175.3373 198.4211,-173.46"/>
</g>
<!-- Node9 -->
<g id="node10" class="node">
<title>Node9</title>
<polygon fill="#ffffff" stroke="#bfbfbf" points="720.0917,-335.5 720.0917,-365.5 879.0917,-365.5 879.0917,-335.5 720.0917,-335.5"/>
<text text-anchor="start" x="728.0917" y="-353.5" font-family="Helvetica,sans-Serif" font-size="10.00" fill="#000000">drake/multibody/multibody</text>
<text text-anchor="middle" x="799.5917" y="-342.5" font-family="Helvetica,sans-Serif" font-size="10.00" fill="#000000">_tree/math/spatial_velocity.h</text>
</g>
<!-- Node0&#45;&gt;Node9 -->
<g id="edge11" class="edge">
<title>Node0&#45;&gt;Node9</title>
<path fill="none" stroke="#191970" d="M584.2739,-404.3294C629.0523,-393.1349 685.6357,-378.989 729.5592,-368.0081"/>
<polygon fill="#191970" stroke="#191970" points="730.4447,-371.3946 739.2972,-365.5736 728.7469,-364.6036 730.4447,-371.3946"/>
</g>
<!-- Node10 -->
<g id="node11" class="node">
<title>Node10</title>
<g id="a_node11"><a xlink:href="multibody__tree__indexes_8h.html" target="_top" xlink:title="drake/multibody/multibody\l_tree/multibody_tree_indexes.h">
<polygon fill="#ffffff" stroke="#000000" points="821.0917,-268.5 821.0917,-298.5 992.0917,-298.5 992.0917,-268.5 821.0917,-268.5"/>
<text text-anchor="start" x="829.0917" y="-286.5" font-family="Helvetica,sans-Serif" font-size="10.00" fill="#000000">drake/multibody/multibody</text>
<text text-anchor="middle" x="906.5917" y="-275.5" font-family="Helvetica,sans-Serif" font-size="10.00" fill="#000000">_tree/multibody_tree_indexes.h</text>
</a>
</g>
</g>
<!-- Node0&#45;&gt;Node10 -->
<g id="edge12" class="edge">
<title>Node0&#45;&gt;Node10</title>
<path fill="none" stroke="#191970" d="M584.1894,-416.3234C688.2436,-406.3325 866.737,-386.4674 888.5917,-366 903.9765,-351.5918 907.7578,-327.344 908.1165,-308.8542"/>
<polygon fill="#191970" stroke="#191970" points="911.6151,-308.7079 907.9941,-298.7511 904.6156,-308.7928 911.6151,-308.7079"/>
</g>
<!-- Node21 -->
<g id="node22" class="node">
<title>Node21</title>
<g id="a_node22"><a xlink:href="multibody__tree__topology_8h.html" target="_top" xlink:title="This file defines the topological structures which represent the logical connectivities between multi...">
<polygon fill="#ffffff" stroke="#000000" points="526.5917,-335.5 526.5917,-365.5 702.5917,-365.5 702.5917,-335.5 526.5917,-335.5"/>
<text text-anchor="start" x="534.5917" y="-353.5" font-family="Helvetica,sans-Serif" font-size="10.00" fill="#000000">drake/multibody/multibody</text>
<text text-anchor="middle" x="614.5917" y="-342.5" font-family="Helvetica,sans-Serif" font-size="10.00" fill="#000000">_tree/multibody_tree_topology.h</text>
</a>
</g>
</g>
<!-- Node0&#45;&gt;Node21 -->
<g id="edge32" class="edge">
<title>Node0&#45;&gt;Node21</title>
<path fill="none" stroke="#191970" d="M539.3997,-402.4183C553.4583,-392.7112 570.2051,-381.1479 584.3218,-371.4007"/>
<polygon fill="#191970" stroke="#191970" points="586.4838,-374.1612 592.7241,-365.5991 582.5064,-368.4009 586.4838,-374.1612"/>
</g>
<!-- Node4 -->
<g id="node5" class="node">
<title>Node4</title>
<polygon fill="#ffffff" stroke="#bfbfbf" points="864.0917,-6 864.0917,-25 933.0917,-25 933.0917,-6 864.0917,-6"/>
<text text-anchor="middle" x="898.5917" y="-13" font-family="Helvetica,sans-Serif" font-size="10.00" fill="#000000">type_traits</text>
</g>
<!-- Node3&#45;&gt;Node4 -->
<g id="edge4" class="edge">
<title>Node3&#45;&gt;Node4</title>
<path fill="none" stroke="#191970" d="M1067.6683,-67.4639C1028.9988,-55.5792 975.6589,-39.1858 939.2984,-28.0108"/>
<polygon fill="#191970" stroke="#191970" points="940.1064,-24.5976 929.5194,-25.0053 938.0499,-31.2887 940.1064,-24.5976"/>
</g>
<!-- Node6&#45;&gt;Node1 -->
<g id="edge7" class="edge">
<title>Node6&#45;&gt;Node1</title>
<path fill="none" stroke="#191970" d="M215.7465,-134.4639C235.9573,-123.2728 263.3881,-108.0838 283.3716,-97.0186"/>
<polygon fill="#191970" stroke="#191970" points="285.1944,-100.0101 292.2473,-92.1039 281.8035,-93.8862 285.1944,-100.0101"/>
</g>
<!-- Node6&#45;&gt;Node5 -->
<g id="edge10" class="edge">
<title>Node6&#45;&gt;Node5</title>
<path fill="none" stroke="#191970" d="M128.3244,-142.6216C62.5654,-132.7678 -28.5925,-110.7708 9.5917,-67 29.319,-44.3865 211.3939,-27.8768 314.7549,-20.2359"/>
<polygon fill="#191970" stroke="#191970" points="315.0911,-23.7207 324.8098,-19.5021 314.5816,-16.7393 315.0911,-23.7207"/>
</g>
<!-- Node7 -->
<g id="node8" class="node">
<title>Node7</title>
<polygon fill="#ffffff" stroke="#bfbfbf" points="19.0917,-73 19.0917,-92 96.0917,-92 96.0917,-73 19.0917,-73"/>
<text text-anchor="middle" x="57.5917" y="-80" font-family="Helvetica,sans-Serif" font-size="10.00" fill="#000000">Eigen/Dense</text>
</g>
<!-- Node6&#45;&gt;Node7 -->
<g id="edge8" class="edge">
<title>Node6&#45;&gt;Node7</title>
<path fill="none" stroke="#191970" d="M159.1928,-134.4639C137.1136,-123.1715 107.0756,-107.8086 85.3935,-96.7192"/>
<polygon fill="#191970" stroke="#191970" points="86.8664,-93.5414 76.3695,-92.1039 83.6789,-99.7736 86.8664,-93.5414"/>
</g>
<!-- Node8 -->
<g id="node9" class="node">
<title>Node8</title>
<g id="a_node9"><a xlink:href="constants_8h.html" target="_top" xlink:title="drake/common/constants.h">
<polygon fill="#ffffff" stroke="#000000" points="114.0917,-73 114.0917,-92 263.0917,-92 263.0917,-73 114.0917,-73"/>
<text text-anchor="middle" x="188.5917" y="-80" font-family="Helvetica,sans-Serif" font-size="10.00" fill="#000000">drake/common/constants.h</text>
</a>
</g>
</g>
<!-- Node6&#45;&gt;Node8 -->
<g id="edge9" class="edge">
<title>Node6&#45;&gt;Node8</title>
<path fill="none" stroke="#191970" d="M188.5917,-134.2967C188.5917,-124.7699 188.5917,-112.3954 188.5917,-102.1306"/>
<polygon fill="#191970" stroke="#191970" points="192.0918,-102.0549 188.5917,-92.055 185.0918,-102.055 192.0918,-102.0549"/>
</g>
<!-- Node11 -->
<g id="node12" class="node">
<title>Node11</title>
<g id="a_node12"><a xlink:href="type__safe__index_8h.html" target="_top" xlink:title="drake/common/type_safe\l_index.h">
<polygon fill="#ffffff" stroke="#000000" points="836.0917,-201.5 836.0917,-231.5 977.0917,-231.5 977.0917,-201.5 836.0917,-201.5"/>
<text text-anchor="start" x="844.0917" y="-219.5" font-family="Helvetica,sans-Serif" font-size="10.00" fill="#000000">drake/common/type_safe</text>
<text text-anchor="middle" x="906.5917" y="-208.5" font-family="Helvetica,sans-Serif" font-size="10.00" fill="#000000">_index.h</text>
</a>
</g>
</g>
<!-- Node10&#45;&gt;Node11 -->
<g id="edge13" class="edge">
<title>Node10&#45;&gt;Node11</title>
<path fill="none" stroke="#191970" d="M906.5917,-268.2967C906.5917,-260.5013 906.5917,-250.7991 906.5917,-241.9064"/>
<polygon fill="#191970" stroke="#191970" points="910.0918,-241.6431 906.5917,-231.6432 903.0918,-241.6432 910.0918,-241.6431"/>
</g>
<!-- Node11&#45;&gt;Node3 -->
<g id="edge17" class="edge">
<title>Node11&#45;&gt;Node3</title>
<path fill="none" stroke="#191970" d="M977.1711,-205.2617C1024.3557,-196.3362 1080.7609,-182.4656 1097.5917,-165 1112.1024,-149.9421 1116.3526,-126.139 1117.2652,-107.9624"/>
<polygon fill="#191970" stroke="#191970" points="1120.7684,-107.8275 1117.4668,-97.7602 1113.7698,-107.6891 1120.7684,-107.8275"/>
</g>
<!-- Node12 -->
<g id="node13" class="node">
<title>Node12</title>
<polygon fill="#ffffff" stroke="#bfbfbf" points="1023.0917,-140 1023.0917,-159 1088.0917,-159 1088.0917,-140 1023.0917,-140"/>
<text text-anchor="middle" x="1055.5917" y="-147" font-family="Helvetica,sans-Serif" font-size="10.00" fill="#000000">functional</text>
</g>
<!-- Node11&#45;&gt;Node12 -->
<g id="edge14" class="edge">
<title>Node11&#45;&gt;Node12</title>
<path fill="none" stroke="#191970" d="M940.0302,-201.4639C965.481,-190.0196 1000.2294,-174.3945 1024.96,-163.274"/>
<polygon fill="#191970" stroke="#191970" points="1026.5488,-166.3972 1034.2338,-159.1039 1023.678,-160.013 1026.5488,-166.3972"/>
</g>
<!-- Node13 -->
<g id="node14" class="node">
<title>Node13</title>
<polygon fill="#ffffff" stroke="#bfbfbf" points="960.5917,-140 960.5917,-159 1004.5917,-159 1004.5917,-140 960.5917,-140"/>
<text text-anchor="middle" x="982.5917" y="-147" font-family="Helvetica,sans-Serif" font-size="10.00" fill="#000000">limits</text>
</g>
<!-- Node11&#45;&gt;Node13 -->
<g id="edge15" class="edge">
<title>Node11&#45;&gt;Node13</title>
<path fill="none" stroke="#191970" d="M923.8373,-201.2967C935.7934,-190.7564 951.7037,-176.7303 963.9522,-165.9323"/>
<polygon fill="#191970" stroke="#191970" points="966.5665,-168.2934 971.7533,-159.055 961.9374,-163.0425 966.5665,-168.2934"/>
</g>
<!-- Node14 -->
<g id="node15" class="node">
<title>Node14</title>
<polygon fill="#ffffff" stroke="#bfbfbf" points="826.5917,-73 826.5917,-92 870.5917,-92 870.5917,-73 826.5917,-73"/>
<text text-anchor="middle" x="848.5917" y="-80" font-family="Helvetica,sans-Serif" font-size="10.00" fill="#000000">string</text>
</g>
<!-- Node11&#45;&gt;Node14 -->
<g id="edge16" class="edge">
<title>Node11&#45;&gt;Node14</title>
<path fill="none" stroke="#191970" d="M857.4539,-201.4302C840.1527,-193.4949 822.5499,-181.8105 812.5917,-165 799.8608,-143.5087 817.063,-116.6916 831.7818,-99.5782"/>
<polygon fill="#191970" stroke="#191970" points="834.5183,-101.7716 838.6659,-92.0224 829.3438,-97.0572 834.5183,-101.7716"/>
</g>
<!-- Node15 -->
<g id="node16" class="node">
<title>Node15</title>
<g id="a_node16"><a xlink:href="drake__throw_8h.html" target="_top" xlink:title="Provides a convenient wrapper to throw an exception when a condition is unmet. ">
<polygon fill="#ffffff" stroke="#000000" points="821.0917,-134.5 821.0917,-164.5 942.0917,-164.5 942.0917,-134.5 821.0917,-134.5"/>
<text text-anchor="start" x="829.0917" y="-152.5" font-family="Helvetica,sans-Serif" font-size="10.00" fill="#000000">drake/common/drake</text>
<text text-anchor="middle" x="881.5917" y="-141.5" font-family="Helvetica,sans-Serif" font-size="10.00" fill="#000000">_throw.h</text>
</a>
</g>
</g>
<!-- Node11&#45;&gt;Node15 -->
<g id="edge18" class="edge">
<title>Node11&#45;&gt;Node15</title>
<path fill="none" stroke="#191970" d="M900.9188,-201.2967C897.9142,-193.2443 894.1505,-183.1574 890.7446,-174.0296"/>
<polygon fill="#191970" stroke="#191970" points="894.0173,-172.7886 887.2422,-164.6432 887.459,-175.2358 894.0173,-172.7886"/>
</g>
<!-- Node16 -->
<g id="node17" class="node">
<title>Node16</title>
<g id="a_node17"><a xlink:href="nice__type__name_8h.html" target="_top" xlink:title="drake/common/nice_type\l_name.h">
<polygon fill="#ffffff" stroke="#000000" points="573.5917,-134.5 573.5917,-164.5 713.5917,-164.5 713.5917,-134.5 573.5917,-134.5"/>
<text text-anchor="start" x="581.5917" y="-152.5" font-family="Helvetica,sans-Serif" font-size="10.00" fill="#000000">drake/common/nice_type</text>
<text text-anchor="middle" x="643.5917" y="-141.5" font-family="Helvetica,sans-Serif" font-size="10.00" fill="#000000">_name.h</text>
</a>
</g>
</g>
<!-- Node11&#45;&gt;Node16 -->
<g id="edge21" class="edge">
<title>Node11&#45;&gt;Node16</title>
<path fill="none" stroke="#191970" d="M847.5694,-201.4639C807.6103,-191.2842 754.6665,-177.7966 712.7323,-167.1138"/>
<polygon fill="#191970" stroke="#191970" points="713.4261,-163.6788 702.8715,-164.6017 711.6979,-170.4621 713.4261,-163.6788"/>
</g>
<!-- Node15&#45;&gt;Node3 -->
<g id="edge20" class="edge">
<title>Node15&#45;&gt;Node3</title>
<path fill="none" stroke="#191970" d="M934.3303,-134.4639C969.7339,-124.3701 1016.5448,-111.024 1053.8615,-100.3848"/>
<polygon fill="#191970" stroke="#191970" points="1054.966,-103.7094 1063.6231,-97.6017 1053.0467,-96.9777 1054.966,-103.7094"/>
</g>
<!-- Node15&#45;&gt;Node4 -->
<g id="edge19" class="edge">
<title>Node15&#45;&gt;Node4</title>
<path fill="none" stroke="#191970" d="M883.5088,-134.389C886.5936,-110.0735 892.6589,-62.2644 896.0836,-35.2698"/>
<polygon fill="#191970" stroke="#191970" points="899.5868,-35.4652 897.3733,-25.1042 892.6425,-34.5841 899.5868,-35.4652"/>
</g>
<!-- Node16&#45;&gt;Node1 -->
<g id="edge22" class="edge">
<title>Node16&#45;&gt;Node1</title>
<path fill="none" stroke="#191970" d="M573.5744,-135.4546C505.286,-121.756 403.8885,-101.4158 348.7516,-90.3554"/>
<polygon fill="#191970" stroke="#191970" points="349.1818,-86.8721 338.6887,-88.3368 347.805,-93.7353 349.1818,-86.8721"/>
</g>
<!-- Node16&#45;&gt;Node2 -->
<g id="edge26" class="edge">
<title>Node16&#45;&gt;Node2</title>
<path fill="none" stroke="#191970" d="M607.0114,-134.4639C578.9229,-122.9183 540.4823,-107.1176 513.3859,-95.9798"/>
<polygon fill="#191970" stroke="#191970" points="514.5363,-92.6686 503.9565,-92.1039 511.875,-99.143 514.5363,-92.6686"/>
</g>
<!-- Node16&#45;&gt;Node14 -->
<g id="edge23" class="edge">
<title>Node16&#45;&gt;Node14</title>
<path fill="none" stroke="#191970" d="M704.064,-134.4144C737.9376,-125.2685 780.6658,-112.5651 817.5917,-98 818.9561,-97.4618 820.3417,-96.8856 821.7322,-96.2835"/>
<polygon fill="#191970" stroke="#191970" points="823.2141,-99.4544 830.8041,-92.0623 820.2609,-93.1078 823.2141,-99.4544"/>
</g>
<!-- Node17 -->
<g id="node18" class="node">
<title>Node17</title>
<polygon fill="#ffffff" stroke="#bfbfbf" points="612.0917,-73 612.0917,-92 669.0917,-92 669.0917,-73 612.0917,-73"/>
<text text-anchor="middle" x="640.5917" y="-80" font-family="Helvetica,sans-Serif" font-size="10.00" fill="#000000">typeinfo</text>
</g>
<!-- Node16&#45;&gt;Node17 -->
<g id="edge24" class="edge">
<title>Node16&#45;&gt;Node17</title>
<path fill="none" stroke="#191970" d="M642.911,-134.2967C642.4844,-124.7699 641.9303,-112.3954 641.4707,-102.1306"/>
<polygon fill="#191970" stroke="#191970" points="644.9635,-101.8884 641.0196,-92.055 637.9705,-102.2016 644.9635,-101.8884"/>
</g>
<!-- Node18 -->
<g id="node19" class="node">
<title>Node18</title>
<polygon fill="#ffffff" stroke="#bfbfbf" points="561.0917,-6 561.0917,-25 606.0917,-25 606.0917,-6 561.0917,-6"/>
<text text-anchor="middle" x="583.5917" y="-13" font-family="Helvetica,sans-Serif" font-size="10.00" fill="#000000">utility</text>
</g>
<!-- Node16&#45;&gt;Node18 -->
<g id="edge25" class="edge">
<title>Node16&#45;&gt;Node18</title>
<path fill="none" stroke="#191970" d="M629.0955,-134.4319C620.5117,-124.7335 610.0797,-111.4619 603.5917,-98 593.829,-77.7432 588.5991,-52.3267 585.9668,-35.0967"/>
<polygon fill="#191970" stroke="#191970" points="589.4208,-34.5225 584.5905,-25.0928 582.4861,-35.4765 589.4208,-34.5225"/>
</g>
<!-- Node19 -->
<g id="node20" class="node">
<title>Node19</title>
<g id="a_node20"><a xlink:href="never__destroyed_8h.html" target="_top" xlink:title="drake/common/never\l_destroyed.h">
<polygon fill="#ffffff" stroke="#000000" points="687.0917,-67.5 687.0917,-97.5 808.0917,-97.5 808.0917,-67.5 687.0917,-67.5"/>
<text text-anchor="start" x="695.0917" y="-85.5" font-family="Helvetica,sans-Serif" font-size="10.00" fill="#000000">drake/common/never</text>
<text text-anchor="middle" x="747.5917" y="-74.5" font-family="Helvetica,sans-Serif" font-size="10.00" fill="#000000">_destroyed.h</text>
</a>
</g>
</g>
<!-- Node16&#45;&gt;Node19 -->
<g id="edge27" class="edge">
<title>Node16&#45;&gt;Node19</title>
<path fill="none" stroke="#191970" d="M666.9314,-134.4639C681.1492,-125.3044 699.524,-113.4667 715.144,-103.4038"/>
<polygon fill="#191970" stroke="#191970" points="717.4592,-106.0758 723.9702,-97.7177 713.6681,-100.1912 717.4592,-106.0758"/>
</g>
<!-- Node19&#45;&gt;Node4 -->
<g id="edge29" class="edge">
<title>Node19&#45;&gt;Node4</title>
<path fill="none" stroke="#191970" d="M781.4791,-67.4639C807.2714,-56.0196 842.4863,-40.3945 867.5489,-29.274"/>
<polygon fill="#191970" stroke="#191970" points="869.226,-32.359 876.9471,-25.1039 866.3869,-25.9605 869.226,-32.359"/>
</g>
<!-- Node19&#45;&gt;Node5 -->
<g id="edge31" class="edge">
<title>Node19&#45;&gt;Node5</title>
<path fill="none" stroke="#191970" d="M687.0439,-68.7297C684.1891,-68.1336 681.3607,-67.554 678.5917,-67 602.9501,-51.865 515.8363,-36.8602 456.385,-26.9855"/>
<polygon fill="#191970" stroke="#191970" points="456.7897,-23.505 446.3523,-25.3242 455.6461,-30.4109 456.7897,-23.505"/>
</g>
<!-- Node19&#45;&gt;Node18 -->
<g id="edge30" class="edge">
<title>Node19&#45;&gt;Node18</title>
<path fill="none" stroke="#191970" d="M710.7869,-67.4639C682.1897,-55.7809 642.9274,-39.7408 615.6183,-28.584"/>
<polygon fill="#191970" stroke="#191970" points="616.7208,-25.2537 606.1398,-24.7117 614.0734,-31.7338 616.7208,-25.2537"/>
</g>
<!-- Node20 -->
<g id="node21" class="node">
<title>Node20</title>
<polygon fill="#ffffff" stroke="#bfbfbf" points="729.0917,-6 729.0917,-25 766.0917,-25 766.0917,-6 729.0917,-6"/>
<text text-anchor="middle" x="747.5917" y="-13" font-family="Helvetica,sans-Serif" font-size="10.00" fill="#000000">new</text>
</g>
<!-- Node19&#45;&gt;Node20 -->
<g id="edge28" class="edge">
<title>Node19&#45;&gt;Node20</title>
<path fill="none" stroke="#191970" d="M747.5917,-67.2967C747.5917,-57.7699 747.5917,-45.3954 747.5917,-35.1306"/>
<polygon fill="#191970" stroke="#191970" points="751.0918,-35.0549 747.5917,-25.055 744.0918,-35.055 751.0918,-35.0549"/>
</g>
<!-- Node21&#45;&gt;Node2 -->
<g id="edge38" class="edge">
<title>Node21&#45;&gt;Node2</title>
<path fill="none" stroke="#191970" d="M550.5517,-335.4644C531.1878,-327.7478 511.8342,-316.1978 499.5917,-299 456.5894,-238.5919 468.4132,-143.3437 476.2284,-102.3462"/>
<polygon fill="#191970" stroke="#191970" points="479.7093,-102.7931 478.2775,-92.2955 472.8504,-101.3947 479.7093,-102.7931"/>
</g>
<!-- Node21&#45;&gt;Node3 -->
<g id="edge39" class="edge">
<title>Node21&#45;&gt;Node3</title>
<path fill="none" stroke="#191970" d="M702.5999,-336.2993C705.6328,-335.8538 708.6369,-335.4194 711.5917,-335 840.1814,-316.7503 886.8901,-359.9251 1001.5917,-299 1071.4155,-261.9123 1090.8225,-239.0252 1118.5917,-165 1125.4441,-146.7335 1124.4407,-124.5571 1122.0001,-107.7986"/>
<polygon fill="#191970" stroke="#191970" points="1125.4015,-106.9258 1120.2568,-97.6639 1118.5028,-108.1125 1125.4015,-106.9258"/>
</g>
<!-- Node21&#45;&gt;Node5 -->
<g id="edge40" class="edge">
<title>Node21&#45;&gt;Node5</title>
<path fill="none" stroke="#191970" d="M541.1138,-335.4451C518.9035,-327.7514 496.0655,-316.2198 479.5917,-299 408.4973,-224.6858 391.1414,-95.3542 386.9297,-40.8607"/>
<polygon fill="#191970" stroke="#191970" points="390.4093,-40.4431 386.2331,-30.7061 383.4258,-40.9222 390.4093,-40.4431"/>
</g>
<!-- Node21&#45;&gt;Node10 -->
<g id="edge42" class="edge">
<title>Node21&#45;&gt;Node10</title>
<path fill="none" stroke="#191970" d="M680.1222,-335.4639C724.9403,-325.1803 784.4708,-311.5209 831.2493,-300.7875"/>
<polygon fill="#191970" stroke="#191970" points="832.0639,-304.1916 841.0278,-298.5438 830.4984,-297.3689 832.0639,-304.1916"/>
</g>
<!-- Node21&#45;&gt;Node14 -->
<g id="edge36" class="edge">
<title>Node21&#45;&gt;Node14</title>
<path fill="none" stroke="#191970" d="M669.8053,-335.4236C690.9328,-327.4159 713.9311,-315.6821 730.5917,-299 787.258,-242.2607 760.4985,-201.6269 803.5917,-134 811.5675,-121.4835 822.4833,-108.9116 831.5664,-99.3226"/>
<polygon fill="#191970" stroke="#191970" points="834.1924,-101.6427 838.6604,-92.036 829.1768,-96.7596 834.1924,-101.6427"/>
</g>
<!-- Node21&#45;&gt;Node15 -->
<g id="edge41" class="edge">
<title>Node21&#45;&gt;Node15</title>
<path fill="none" stroke="#191970" d="M693.9301,-335.4933C719.6981,-327.7607 747.1464,-316.1936 768.5917,-299 808.2573,-267.1985 795.802,-240.675 827.5917,-201 835.9455,-190.5741 846.3317,-180.1909 855.7573,-171.5078"/>
<polygon fill="#191970" stroke="#191970" points="858.2877,-173.9394 863.3832,-164.6503 853.6071,-168.7344 858.2877,-173.9394"/>
</g>
<!-- Node21&#45;&gt;Node18 -->
<g id="edge37" class="edge">
<title>Node21&#45;&gt;Node18</title>
<path fill="none" stroke="#191970" d="M655.5025,-335.4816C671.6201,-327.3159 688.4398,-315.4491 697.5917,-299 704.2904,-286.9603 703.6579,-280.3705 697.5917,-268 664.6738,-200.8722 597.5096,-232.1278 564.5917,-165 543.4673,-121.9221 562.356,-63.8482 574.7725,-34.3665"/>
<polygon fill="#191970" stroke="#191970" points="577.9814,-35.764 578.8183,-25.2023 571.5777,-32.9369 577.9814,-35.764"/>
</g>
<!-- Node22 -->
<g id="node23" class="node">
<title>Node22</title>
<polygon fill="#ffffff" stroke="#bfbfbf" points="508.5917,-274 508.5917,-293 572.5917,-293 572.5917,-274 508.5917,-274"/>
<text text-anchor="middle" x="540.5917" y="-281" font-family="Helvetica,sans-Serif" font-size="10.00" fill="#000000">algorithm</text>
</g>
<!-- Node21&#45;&gt;Node22 -->
<g id="edge33" class="edge">
<title>Node21&#45;&gt;Node22</title>
<path fill="none" stroke="#191970" d="M597.8,-335.2967C586.1585,-324.7564 570.667,-310.7303 558.7408,-299.9323"/>
<polygon fill="#191970" stroke="#191970" points="560.9071,-297.1722 551.145,-293.055 556.2089,-302.3613 560.9071,-297.1722"/>
</g>
<!-- Node23 -->
<g id="node24" class="node">
<title>Node23</title>
<polygon fill="#ffffff" stroke="#bfbfbf" points="591.0917,-274 591.0917,-293 638.0917,-293 638.0917,-274 591.0917,-274"/>
<text text-anchor="middle" x="614.5917" y="-281" font-family="Helvetica,sans-Serif" font-size="10.00" fill="#000000">queue</text>
</g>
<!-- Node21&#45;&gt;Node23 -->
<g id="edge34" class="edge">
<title>Node21&#45;&gt;Node23</title>
<path fill="none" stroke="#191970" d="M614.5917,-335.2967C614.5917,-325.7699 614.5917,-313.3954 614.5917,-303.1306"/>
<polygon fill="#191970" stroke="#191970" points="618.0918,-303.0549 614.5917,-293.055 611.0918,-303.055 618.0918,-303.0549"/>
</g>
<!-- Node24 -->
<g id="node25" class="node">
<title>Node24</title>
<polygon fill="#ffffff" stroke="#bfbfbf" points="656.5917,-274 656.5917,-293 688.5917,-293 688.5917,-274 656.5917,-274"/>
<text text-anchor="middle" x="672.5917" y="-281" font-family="Helvetica,sans-Serif" font-size="10.00" fill="#000000">set</text>
</g>
<!-- Node21&#45;&gt;Node24 -->
<g id="edge35" class="edge">
<title>Node21&#45;&gt;Node24</title>
<path fill="none" stroke="#191970" d="M627.7528,-335.2967C636.614,-325.0605 648.3213,-311.5366 657.551,-300.8746"/>
<polygon fill="#191970" stroke="#191970" points="660.4214,-302.9064 664.3203,-293.055 655.129,-298.3248 660.4214,-302.9064"/>
</g>
</g>
</svg>
