<?xml version="1.0" encoding="UTF-8" standalone="no"?>
<!DOCTYPE svg PUBLIC "-//W3C//DTD SVG 1.1//EN"
 "http://www.w3.org/Graphics/SVG/1.1/DTD/svg11.dtd">
<!-- Generated by graphviz version 2.40.1 (20161225.0304)
 -->
<!-- Title: drake/attic/multibody/rigid_body_plant/viewer_draw_translator.h Pages: 1 -->
<!--zoomable 441 -->
<svg id="main" version="1.1" xmlns="http://www.w3.org/2000/svg" xmlns:xlink="http://www.w3.org/1999/xlink" xml:space="preserve" onload="init(evt)">
<style type="text/css"><![CDATA[
.edge:hover path { stroke: red; }
.edge:hover polygon { stroke: red; fill: red; }
]]></style>
<script type="text/javascript"><![CDATA[
var edges = document.getElementsByTagName('g');
if (edges && edges.length) {
  for (var i=0;i<edges.length;i++) {
    if (edges[i].id.substr(0,4)=='edge') {
      edges[i].setAttribute('class','edge');
    }
  }
}
]]></script>
        <defs>
                <circle id="rim" cx="0" cy="0" r="7"/>
                <circle id="rim2" cx="0" cy="0" r="3.5"/>
                <g id="zoomPlus">
                        <use xlink:href="#rim" fill="#404040">
                                <set attributeName="fill" to="#808080" begin="zoomplus.mouseover" end="zoomplus.mouseout"/>
                        </use>
                        <path d="M-4,0h8M0,-4v8" fill="none" stroke="white" stroke-width="1.5" pointer-events="none"/>
                </g>
                <g id="zoomMin">
                        <use xlink:href="#rim" fill="#404040">
                                <set attributeName="fill" to="#808080" begin="zoomminus.mouseover" end="zoomminus.mouseout"/>
                        </use>
                        <path d="M-4,0h8" fill="none" stroke="white" stroke-width="1.5" pointer-events="none"/>
                </g>
                <g id="dirArrow">
                        <path fill="none" stroke="white" stroke-width="1.5" d="M0,-3.0v7 M-2.5,-0.5L0,-3.0L2.5,-0.5"/>
                </g>
               <g id="resetDef">
                       <use xlink:href="#rim2" fill="#404040">
                               <set attributeName="fill" to="#808080" begin="reset.mouseover" end="reset.mouseout"/>
                       </use>
               </g>
        </defs>

<script type="text/javascript">
var viewWidth = 1388;
var viewHeight = 441;
var sectionId = 'dynsection-0';
</script>
<script xlink:href="svgpan.js"/>
<svg id="graph" class="graph">
<g id="viewport">
<title>drake/attic/multibody/rigid_body_plant/viewer_draw_translator.h</title>
<polygon fill="#ffffff" stroke="transparent" points="-4,4 -4,-437 1384,-437 1384,4 -4,4"/>
<!-- Node0 -->
<g id="node1" class="node">
<title>Node0</title>
<polygon fill="#bfbfbf" stroke="#000000" points="947.5,-391.5 947.5,-432.5 1084.5,-432.5 1084.5,-391.5 947.5,-391.5"/>
<text text-anchor="start" x="955.5" y="-420.5" font-family="Helvetica,sans-Serif" font-size="10.00" fill="#000000">drake/attic/multibody</text>
<text text-anchor="start" x="955.5" y="-409.5" font-family="Helvetica,sans-Serif" font-size="10.00" fill="#000000">/rigid_body_plant/viewer</text>
<text text-anchor="middle" x="1016" y="-398.5" font-family="Helvetica,sans-Serif" font-size="10.00" fill="#000000">_draw_translator.h</text>
</g>
<!-- Node1 -->
<g id="node2" class="node">
<title>Node1</title>
<polygon fill="#ffffff" stroke="#bfbfbf" points="0,-196 0,-215 50,-215 50,-196 0,-196"/>
<text text-anchor="middle" x="25" y="-203" font-family="Helvetica,sans-Serif" font-size="10.00" fill="#000000">cstdint</text>
</g>
<!-- Node0&#45;&gt;Node1 -->
<g id="edge1" class="edge">
<title>Node0&#45;&gt;Node1</title>
<path fill="none" stroke="#191970" d="M947.4892,-406.6715C809.0355,-394.7241 486.8939,-360.9314 226,-288 162.3051,-270.1945 91.5742,-238.0799 53.3227,-219.6087"/>
<polygon fill="#191970" stroke="#191970" points="54.397,-216.2387 43.8744,-215.0036 51.3301,-222.5311 54.397,-216.2387"/>
</g>
<!-- Node2 -->
<g id="node3" class="node">
<title>Node2</title>
<polygon fill="#ffffff" stroke="#bfbfbf" points="940.5,-263 940.5,-282 987.5,-282 987.5,-263 940.5,-263"/>
<text text-anchor="middle" x="964" y="-270" font-family="Helvetica,sans-Serif" font-size="10.00" fill="#000000">vector</text>
</g>
<!-- Node0&#45;&gt;Node2 -->
<g id="edge2" class="edge">
<title>Node0&#45;&gt;Node2</title>
<path fill="none" stroke="#191970" d="M1008.3272,-391.4163C998.2958,-364.5051 980.8586,-317.7265 971.1124,-291.5803"/>
<polygon fill="#191970" stroke="#191970" points="974.3338,-290.2017 967.5614,-282.0541 967.7747,-292.6468 974.3338,-290.2017"/>
</g>
<!-- Node3 -->
<g id="node4" class="node">
<title>Node3</title>
<g id="a_node4"><a xlink:href="drake__copyable_8h.html" target="_top" xlink:title="Provides careful macros to selectively enable or disable the special member functions for copy&#45;constr...">
<polygon fill="#ffffff" stroke="#000000" points="968.5,-56.5 968.5,-86.5 1089.5,-86.5 1089.5,-56.5 968.5,-56.5"/>
<text text-anchor="start" x="976.5" y="-74.5" font-family="Helvetica,sans-Serif" font-size="10.00" fill="#000000">drake/common/drake</text>
<text text-anchor="middle" x="1029" y="-63.5" font-family="Helvetica,sans-Serif" font-size="10.00" fill="#000000">_copyable.h</text>
</a>
</g>
</g>
<!-- Node0&#45;&gt;Node3 -->
<g id="edge3" class="edge">
<title>Node0&#45;&gt;Node3</title>
<path fill="none" stroke="#191970" d="M1025.3933,-391.2111C1036.6461,-364.3654 1054,-315.9251 1054,-272.5 1054,-272.5 1054,-272.5 1054,-205.5 1054,-166.8498 1043.8249,-122.9761 1036.4574,-96.2747"/>
<polygon fill="#191970" stroke="#191970" points="1039.8078,-95.2603 1033.7023,-86.6016 1033.0755,-97.1779 1039.8078,-95.2603"/>
</g>
<!-- Node4 -->
<g id="node5" class="node">
<title>Node4</title>
<polygon fill="#ffffff" stroke="#bfbfbf" points="1082,-330 1082,-349 1240,-349 1240,-330 1082,-330"/>
<text text-anchor="middle" x="1161" y="-337" font-family="Helvetica,sans-Serif" font-size="10.00" fill="#000000">drake/lcmt_viewer_draw.hpp</text>
</g>
<!-- Node0&#45;&gt;Node4 -->
<g id="edge4" class="edge">
<title>Node0&#45;&gt;Node4</title>
<path fill="none" stroke="#191970" d="M1057.1633,-391.4183C1081.3775,-379.3112 1111.3666,-364.3167 1132.881,-353.5595"/>
<polygon fill="#191970" stroke="#191970" points="1134.4503,-356.688 1141.8293,-349.0853 1131.3198,-350.427 1134.4503,-356.688"/>
</g>
<!-- Node5 -->
<g id="node6" class="node">
<title>Node5</title>
<polygon fill="#ffffff" stroke="#bfbfbf" points="1258,-324.5 1258,-354.5 1380,-354.5 1380,-324.5 1258,-324.5"/>
<text text-anchor="start" x="1266" y="-342.5" font-family="Helvetica,sans-Serif" font-size="10.00" fill="#000000">drake/multibody/rigid</text>
<text text-anchor="middle" x="1319" y="-331.5" font-family="Helvetica,sans-Serif" font-size="10.00" fill="#000000">_body_tree.h</text>
</g>
<!-- Node0&#45;&gt;Node5 -->
<g id="edge5" class="edge">
<title>Node0&#45;&gt;Node5</title>
<path fill="none" stroke="#191970" d="M1084.7554,-395.5486C1133.5157,-383.8816 1198.7718,-368.2675 1248.0232,-356.4829"/>
<polygon fill="#191970" stroke="#191970" points="1249.053,-359.8354 1257.964,-354.1043 1247.424,-353.0275 1249.053,-359.8354"/>
</g>
<!-- Node6 -->
<g id="node7" class="node">
<title>Node6</title>
<g id="a_node7"><a xlink:href="vector__base_8h.html" target="_top" xlink:title="drake/systems/framework\l/vector_base.h">
<polygon fill="#ffffff" stroke="#000000" points="710.5,-190.5 710.5,-220.5 855.5,-220.5 855.5,-190.5 710.5,-190.5"/>
<text text-anchor="start" x="718.5" y="-208.5" font-family="Helvetica,sans-Serif" font-size="10.00" fill="#000000">drake/systems/framework</text>
<text text-anchor="middle" x="783" y="-197.5" font-family="Helvetica,sans-Serif" font-size="10.00" fill="#000000">/vector_base.h</text>
</a>
</g>
</g>
<!-- Node0&#45;&gt;Node6 -->
<g id="edge6" class="edge">
<title>Node0&#45;&gt;Node6</title>
<path fill="none" stroke="#191970" d="M1019.9707,-391.4698C1025.0318,-358.6763 1029.5093,-294.3729 996,-257 978.4332,-237.4077 917.6558,-223.9516 865.4966,-215.721"/>
<polygon fill="#191970" stroke="#191970" points="865.9478,-212.2494 855.533,-214.1945 864.8876,-219.1687 865.9478,-212.2494"/>
</g>
<!-- Node16 -->
<g id="node17" class="node">
<title>Node16</title>
<g id="a_node17"><a xlink:href="lcm__and__vector__base__translator_8h.html" target="_top" xlink:title="drake/systems/lcm/lcm\l_and_vector_base_translator.h">
<polygon fill="#ffffff" stroke="#000000" points="691,-324.5 691,-354.5 857,-354.5 857,-324.5 691,-324.5"/>
<text text-anchor="start" x="699" y="-342.5" font-family="Helvetica,sans-Serif" font-size="10.00" fill="#000000">drake/systems/lcm/lcm</text>
<text text-anchor="middle" x="774" y="-331.5" font-family="Helvetica,sans-Serif" font-size="10.00" fill="#000000">_and_vector_base_translator.h</text>
</a>
</g>
</g>
<!-- Node0&#45;&gt;Node16 -->
<g id="edge21" class="edge">
<title>Node0&#45;&gt;Node16</title>
<path fill="none" stroke="#191970" d="M947.2998,-391.4183C911.6885,-380.7497 868.5932,-367.8389 834.2867,-357.5611"/>
<polygon fill="#191970" stroke="#191970" points="834.9836,-354.1162 824.3998,-354.5991 832.9747,-360.8218 834.9836,-354.1162"/>
</g>
<!-- Node6&#45;&gt;Node3 -->
<g id="edge11" class="edge">
<title>Node6&#45;&gt;Node3</title>
<path fill="none" stroke="#191970" d="M855.5489,-194.1851C888.9861,-186.5725 928.0266,-174.1129 959,-154 982.2862,-138.8789 1002.0186,-113.7154 1014.5379,-95.1474"/>
<polygon fill="#191970" stroke="#191970" points="1017.5582,-96.9233 1020.0882,-86.6349 1011.6945,-93.1 1017.5582,-96.9233"/>
</g>
<!-- Node7 -->
<g id="node8" class="node">
<title>Node7</title>
<polygon fill="#ffffff" stroke="#bfbfbf" points="710,-129 710,-148 774,-148 774,-129 710,-129"/>
<text text-anchor="middle" x="742" y="-136" font-family="Helvetica,sans-Serif" font-size="10.00" fill="#000000">algorithm</text>
</g>
<!-- Node6&#45;&gt;Node7 -->
<g id="edge7" class="edge">
<title>Node6&#45;&gt;Node7</title>
<path fill="none" stroke="#191970" d="M773.6965,-190.2967C767.6186,-180.3645 759.6466,-167.3371 753.2181,-156.8321"/>
<polygon fill="#191970" stroke="#191970" points="756.0522,-154.7578 747.8471,-148.055 750.0814,-158.4115 756.0522,-154.7578"/>
</g>
<!-- Node8 -->
<g id="node9" class="node">
<title>Node8</title>
<polygon fill="#ffffff" stroke="#bfbfbf" points="571,-62 571,-81 629,-81 629,-62 571,-62"/>
<text text-anchor="middle" x="600" y="-69" font-family="Helvetica,sans-Serif" font-size="10.00" fill="#000000">memory</text>
</g>
<!-- Node6&#45;&gt;Node8 -->
<g id="edge8" class="edge">
<title>Node6&#45;&gt;Node8</title>
<path fill="none" stroke="#191970" d="M756.9778,-190.291C740.5835,-180.434 719.16,-167.043 701,-154 671.0713,-132.5044 638.3755,-104.9963 618.5272,-87.8083"/>
<polygon fill="#191970" stroke="#191970" points="620.6916,-85.052 610.8528,-81.1214 616.0931,-90.3296 620.6916,-85.052"/>
</g>
<!-- Node9 -->
<g id="node10" class="node">
<title>Node9</title>
<polygon fill="#ffffff" stroke="#bfbfbf" points="570.5,-129 570.5,-148 615.5,-148 615.5,-129 570.5,-129"/>
<text text-anchor="middle" x="593" y="-136" font-family="Helvetica,sans-Serif" font-size="10.00" fill="#000000">utility</text>
</g>
<!-- Node6&#45;&gt;Node9 -->
<g id="edge9" class="edge">
<title>Node6&#45;&gt;Node9</title>
<path fill="none" stroke="#191970" d="M740.3603,-190.4639C705.51,-178.1746 656.988,-161.0642 625.2938,-149.8878"/>
<polygon fill="#191970" stroke="#191970" points="626.2282,-146.5061 615.6334,-146.4812 623.9002,-153.1077 626.2282,-146.5061"/>
</g>
<!-- Node10 -->
<g id="node11" class="node">
<title>Node10</title>
<polygon fill="#ffffff" stroke="#bfbfbf" points="706.5,-62 706.5,-81 783.5,-81 783.5,-62 706.5,-62"/>
<text text-anchor="middle" x="745" y="-69" font-family="Helvetica,sans-Serif" font-size="10.00" fill="#000000">Eigen/Dense</text>
</g>
<!-- Node6&#45;&gt;Node10 -->
<g id="edge10" class="edge">
<title>Node6&#45;&gt;Node10</title>
<path fill="none" stroke="#191970" d="M785.7551,-190.4538C788.2246,-173.569 790.4305,-145.5851 783,-123 778.7564,-110.1016 769.9052,-97.7822 761.8124,-88.4282"/>
<polygon fill="#191970" stroke="#191970" points="764.3683,-86.0369 755.0305,-81.0313 759.2087,-90.7675 764.3683,-86.0369"/>
</g>
<!-- Node11 -->
<g id="node12" class="node">
<title>Node11</title>
<g id="a_node12"><a xlink:href="drake__throw_8h.html" target="_top" xlink:title="Provides a convenient wrapper to throw an exception when a condition is unmet. ">
<polygon fill="#ffffff" stroke="#000000" points="230.5,-123.5 230.5,-153.5 351.5,-153.5 351.5,-123.5 230.5,-123.5"/>
<text text-anchor="start" x="238.5" y="-141.5" font-family="Helvetica,sans-Serif" font-size="10.00" fill="#000000">drake/common/drake</text>
<text text-anchor="middle" x="291" y="-130.5" font-family="Helvetica,sans-Serif" font-size="10.00" fill="#000000">_throw.h</text>
</a>
</g>
</g>
<!-- Node6&#45;&gt;Node11 -->
<g id="edge12" class="edge">
<title>Node6&#45;&gt;Node11</title>
<path fill="none" stroke="#191970" d="M710.4037,-195.6139C616.7506,-182.8604 454.8753,-160.8164 362.0035,-148.1692"/>
<polygon fill="#191970" stroke="#191970" points="362.2379,-144.6689 351.8571,-146.7874 361.2933,-151.6049 362.2379,-144.6689"/>
</g>
<!-- Node14 -->
<g id="node15" class="node">
<title>Node14</title>
<g id="a_node15"><a xlink:href="eigen__types_8h.html" target="_top" xlink:title="This file contains abbreviated definitions for certain specializations of Eigen::Matrix that are comm...">
<polygon fill="#ffffff" stroke="#000000" points="830,-123.5 830,-153.5 950,-153.5 950,-123.5 830,-123.5"/>
<text text-anchor="start" x="838" y="-141.5" font-family="Helvetica,sans-Serif" font-size="10.00" fill="#000000">drake/common/eigen</text>
<text text-anchor="middle" x="890" y="-130.5" font-family="Helvetica,sans-Serif" font-size="10.00" fill="#000000">_types.h</text>
</a>
</g>
</g>
<!-- Node6&#45;&gt;Node14 -->
<g id="edge16" class="edge">
<title>Node6&#45;&gt;Node14</title>
<path fill="none" stroke="#191970" d="M807.0129,-190.4639C821.7775,-181.2188 840.8995,-169.2452 857.0661,-159.1222"/>
<polygon fill="#191970" stroke="#191970" points="859.079,-161.9913 865.697,-153.7177 855.364,-156.0584 859.079,-161.9913"/>
</g>
<!-- Node12 -->
<g id="node13" class="node">
<title>Node12</title>
<polygon fill="#ffffff" stroke="#bfbfbf" points="255.5,-.5 255.5,-19.5 324.5,-19.5 324.5,-.5 255.5,-.5"/>
<text text-anchor="middle" x="290" y="-7.5" font-family="Helvetica,sans-Serif" font-size="10.00" fill="#000000">type_traits</text>
</g>
<!-- Node11&#45;&gt;Node12 -->
<g id="edge13" class="edge">
<title>Node11&#45;&gt;Node12</title>
<path fill="none" stroke="#191970" d="M281.0316,-123.4548C275.0868,-113.5545 268.1089,-100.0561 265,-87 261.8085,-73.597 261.6059,-69.3532 265,-56 267.4785,-46.2493 272.4873,-36.3309 277.3751,-28.2128"/>
<polygon fill="#191970" stroke="#191970" points="280.4313,-29.9312 282.8985,-19.6276 274.5444,-26.1437 280.4313,-29.9312"/>
</g>
<!-- Node13 -->
<g id="node14" class="node">
<title>Node13</title>
<g id="a_node14"><a xlink:href="drake__assert_8h.html" target="_top" xlink:title="Provides Drake&#39;s assertion implementation. ">
<polygon fill="#ffffff" stroke="#000000" points="274.5,-56.5 274.5,-86.5 395.5,-86.5 395.5,-56.5 274.5,-56.5"/>
<text text-anchor="start" x="282.5" y="-74.5" font-family="Helvetica,sans-Serif" font-size="10.00" fill="#000000">drake/common/drake</text>
<text text-anchor="middle" x="335" y="-63.5" font-family="Helvetica,sans-Serif" font-size="10.00" fill="#000000">_assert.h</text>
</a>
</g>
</g>
<!-- Node11&#45;&gt;Node13 -->
<g id="edge14" class="edge">
<title>Node11&#45;&gt;Node13</title>
<path fill="none" stroke="#191970" d="M300.9843,-123.2967C306.4412,-114.9873 313.3208,-104.5115 319.4629,-95.1587"/>
<polygon fill="#191970" stroke="#191970" points="322.4914,-96.9231 325.0552,-86.6432 316.6404,-93.0806 322.4914,-96.9231"/>
</g>
<!-- Node13&#45;&gt;Node12 -->
<g id="edge15" class="edge">
<title>Node13&#45;&gt;Node12</title>
<path fill="none" stroke="#191970" d="M323.8764,-56.2977C317.6299,-47.7609 309.796,-37.0545 303.2353,-28.0883"/>
<polygon fill="#191970" stroke="#191970" points="305.9348,-25.8505 297.2051,-19.8469 300.2856,-29.984 305.9348,-25.8505"/>
</g>
<!-- Node14&#45;&gt;Node3 -->
<g id="edge20" class="edge">
<title>Node14&#45;&gt;Node3</title>
<path fill="none" stroke="#191970" d="M921.1943,-123.4639C940.9961,-113.9191 966.8312,-101.4663 988.2461,-91.144"/>
<polygon fill="#191970" stroke="#191970" points="989.9405,-94.2127 997.4289,-86.7177 986.901,-87.907 989.9405,-94.2127"/>
</g>
<!-- Node14&#45;&gt;Node8 -->
<g id="edge17" class="edge">
<title>Node14&#45;&gt;Node8</title>
<path fill="none" stroke="#191970" d="M829.9118,-124.6176C772.6037,-111.3774 687.9731,-91.8248 638.9724,-80.504"/>
<polygon fill="#191970" stroke="#191970" points="639.6109,-77.0594 629.0797,-78.2184 638.0351,-83.8797 639.6109,-77.0594"/>
</g>
<!-- Node14&#45;&gt;Node10 -->
<g id="edge18" class="edge">
<title>Node14&#45;&gt;Node10</title>
<path fill="none" stroke="#191970" d="M857.4592,-123.4639C832.8013,-112.0702 799.1752,-96.5327 775.1294,-85.4219"/>
<polygon fill="#191970" stroke="#191970" points="776.3305,-82.1213 765.7846,-81.1039 773.3943,-88.4757 776.3305,-82.1213"/>
</g>
<!-- Node15 -->
<g id="node16" class="node">
<title>Node15</title>
<g id="a_node16"><a xlink:href="constants_8h.html" target="_top" xlink:title="drake/common/constants.h">
<polygon fill="#ffffff" stroke="#000000" points="801.5,-62 801.5,-81 950.5,-81 950.5,-62 801.5,-62"/>
<text text-anchor="middle" x="876" y="-69" font-family="Helvetica,sans-Serif" font-size="10.00" fill="#000000">drake/common/constants.h</text>
</a>
</g>
</g>
<!-- Node14&#45;&gt;Node15 -->
<g id="edge19" class="edge">
<title>Node14&#45;&gt;Node15</title>
<path fill="none" stroke="#191970" d="M886.8232,-123.2967C884.8325,-113.7699 882.2468,-101.3954 880.1019,-91.1306"/>
<polygon fill="#191970" stroke="#191970" points="883.468,-90.1277 877.9966,-81.055 876.616,-91.5595 883.468,-90.1277"/>
</g>
<!-- Node16&#45;&gt;Node1 -->
<g id="edge22" class="edge">
<title>Node16&#45;&gt;Node1</title>
<path fill="none" stroke="#191970" d="M690.6749,-331.314C609.3014,-322.7284 482.1295,-307.7368 373,-288 244.5317,-264.7656 213.8863,-251.7216 87,-221 78.2417,-218.8795 68.8002,-216.5443 59.9905,-214.3441"/>
<polygon fill="#191970" stroke="#191970" points="60.5686,-210.8809 50.0177,-211.8443 58.8666,-217.6708 60.5686,-210.8809"/>
</g>
<!-- Node16&#45;&gt;Node2 -->
<g id="edge24" class="edge">
<title>Node16&#45;&gt;Node2</title>
<path fill="none" stroke="#191970" d="M820.8258,-324.4486C851.012,-314.5457 891.0182,-301.047 926,-288 927.8525,-287.3091 929.7499,-286.5858 931.6607,-285.8453"/>
<polygon fill="#191970" stroke="#191970" points="933.1753,-289.0099 941.1804,-282.0696 930.5945,-282.503 933.1753,-289.0099"/>
</g>
<!-- Node16&#45;&gt;Node3 -->
<g id="edge25" class="edge">
<title>Node16&#45;&gt;Node3</title>
<path fill="none" stroke="#191970" d="M797.2959,-324.4428C840.2114,-295.7334 932.6073,-229.2767 990,-154 1003.4897,-136.3068 1013.9158,-113.1981 1020.5799,-95.9403"/>
<polygon fill="#191970" stroke="#191970" points="1023.8702,-97.1335 1024.0636,-86.5404 1017.3065,-94.7008 1023.8702,-97.1335"/>
</g>
<!-- Node16&#45;&gt;Node8 -->
<g id="edge23" class="edge">
<title>Node16&#45;&gt;Node8</title>
<path fill="none" stroke="#191970" d="M752.305,-324.2379C702.274,-288.5129 581.518,-199.0772 561,-154 550.6218,-131.1996 567.9438,-105.09 582.7059,-88.4582"/>
<polygon fill="#191970" stroke="#191970" points="585.3142,-90.7936 589.6146,-81.1108 580.2145,-85.9985 585.3142,-90.7936"/>
</g>
<!-- Node17 -->
<g id="node18" class="node">
<title>Node17</title>
<g id="a_node18"><a xlink:href="basic__vector_8h.html" target="_top" xlink:title="drake/systems/framework\l/basic_vector.h">
<polygon fill="#ffffff" stroke="#000000" points="382.5,-257.5 382.5,-287.5 527.5,-287.5 527.5,-257.5 382.5,-257.5"/>
<text text-anchor="start" x="390.5" y="-275.5" font-family="Helvetica,sans-Serif" font-size="10.00" fill="#000000">drake/systems/framework</text>
<text text-anchor="middle" x="455" y="-264.5" font-family="Helvetica,sans-Serif" font-size="10.00" fill="#000000">/basic_vector.h</text>
</a>
</g>
</g>
<!-- Node16&#45;&gt;Node17 -->
<g id="edge26" class="edge">
<title>Node16&#45;&gt;Node17</title>
<path fill="none" stroke="#191970" d="M702.4102,-324.4639C653.2431,-314.1373 587.8684,-300.4065 536.6683,-289.6529"/>
<polygon fill="#191970" stroke="#191970" points="537.1322,-286.174 526.6263,-287.5438 535.6933,-293.0246 537.1322,-286.174"/>
</g>
<!-- Node17&#45;&gt;Node1 -->
<g id="edge27" class="edge">
<title>Node17&#45;&gt;Node1</title>
<path fill="none" stroke="#191970" d="M382.2146,-265.0882C286.1786,-254.9331 122.475,-236.2197 64,-221 61.2236,-220.2774 58.3787,-219.4104 55.552,-218.4605"/>
<polygon fill="#191970" stroke="#191970" points="56.7312,-215.165 46.1376,-215.001 54.3167,-221.7354 56.7312,-215.165"/>
</g>
<!-- Node17&#45;&gt;Node6 -->
<g id="edge38" class="edge">
<title>Node17&#45;&gt;Node6</title>
<path fill="none" stroke="#191970" d="M527.7938,-257.6305C578.858,-247.1997 647.2199,-233.2356 700.3381,-222.3852"/>
<polygon fill="#191970" stroke="#191970" points="701.3125,-225.7585 710.4097,-220.3279 699.9115,-218.9002 701.3125,-225.7585"/>
</g>
<!-- Node17&#45;&gt;Node8 -->
<g id="edge31" class="edge">
<title>Node17&#45;&gt;Node8</title>
<path fill="none" stroke="#191970" d="M459.6912,-257.0797C469.0306,-228.2647 492.1862,-165.342 528,-123 540.5752,-108.1326 558.3397,-95.3666 573.0764,-86.2637"/>
<polygon fill="#191970" stroke="#191970" points="574.9814,-89.203 581.7873,-81.0832 571.4033,-83.1865 574.9814,-89.203"/>
</g>
<!-- Node17&#45;&gt;Node9 -->
<g id="edge33" class="edge">
<title>Node17&#45;&gt;Node9</title>
<path fill="none" stroke="#191970" d="M527.7803,-259.4572C549.8266,-251.8802 571.9086,-239.909 586,-221 599.4437,-202.9602 599.0653,-176.1408 596.741,-158.0206"/>
<polygon fill="#191970" stroke="#191970" points="600.1774,-157.3439 595.1484,-148.0186 593.2645,-158.4446 600.1774,-157.3439"/>
</g>
<!-- Node17&#45;&gt;Node10 -->
<g id="edge34" class="edge">
<title>Node17&#45;&gt;Node10</title>
<path fill="none" stroke="#191970" d="M521.7521,-257.4171C549.2471,-249.3071 580.5517,-237.5001 606,-221 620.7905,-211.4102 696.5448,-126.4312 729.5725,-89.0341"/>
<polygon fill="#191970" stroke="#191970" points="732.2991,-91.2339 736.2881,-81.4187 727.0489,-86.6041 732.2991,-91.2339"/>
</g>
<!-- Node17&#45;&gt;Node11 -->
<g id="edge35" class="edge">
<title>Node17&#45;&gt;Node11</title>
<path fill="none" stroke="#191970" d="M382.0579,-259.36C341.6072,-250.4273 297.0816,-237.2838 285,-221 272.8399,-204.6104 276.0293,-180.9945 281.2738,-163.2256"/>
<polygon fill="#191970" stroke="#191970" points="284.6609,-164.1316 284.4986,-153.538 278.0193,-161.9206 284.6609,-164.1316"/>
</g>
<!-- Node18 -->
<g id="node19" class="node">
<title>Node18</title>
<polygon fill="#ffffff" stroke="#bfbfbf" points="294.5,-196 294.5,-215 377.5,-215 377.5,-196 294.5,-196"/>
<text text-anchor="middle" x="336" y="-203" font-family="Helvetica,sans-Serif" font-size="10.00" fill="#000000">initializer_list</text>
</g>
<!-- Node17&#45;&gt;Node18 -->
<g id="edge28" class="edge">
<title>Node17&#45;&gt;Node18</title>
<path fill="none" stroke="#191970" d="M428.2941,-257.4639C408.4173,-246.2728 381.4399,-231.0838 361.7868,-220.0186"/>
<polygon fill="#191970" stroke="#191970" points="363.4887,-216.9602 353.0577,-215.1039 360.0544,-223.0599 363.4887,-216.9602"/>
</g>
<!-- Node19 -->
<g id="node20" class="node">
<title>Node19</title>
<polygon fill="#ffffff" stroke="#bfbfbf" points="396,-196 396,-215 456,-215 456,-196 396,-196"/>
<text text-anchor="middle" x="426" y="-203" font-family="Helvetica,sans-Serif" font-size="10.00" fill="#000000">iostream</text>
</g>
<!-- Node17&#45;&gt;Node19 -->
<g id="edge29" class="edge">
<title>Node17&#45;&gt;Node19</title>
<path fill="none" stroke="#191970" d="M448.4195,-257.2967C444.2082,-247.5672 438.7113,-234.8675 434.2145,-224.4784"/>
<polygon fill="#191970" stroke="#191970" points="437.3201,-222.8419 430.1357,-215.055 430.896,-225.6225 437.3201,-222.8419"/>
</g>
<!-- Node20 -->
<g id="node21" class="node">
<title>Node20</title>
<polygon fill="#ffffff" stroke="#bfbfbf" points="125,-129 125,-148 169,-148 169,-129 125,-129"/>
<text text-anchor="middle" x="147" y="-136" font-family="Helvetica,sans-Serif" font-size="10.00" fill="#000000">limits</text>
</g>
<!-- Node17&#45;&gt;Node20 -->
<g id="edge30" class="edge">
<title>Node17&#45;&gt;Node20</title>
<path fill="none" stroke="#191970" d="M382.3723,-264.4979C280.4466,-252.9182 106.2774,-231.7075 97,-221 78.8947,-200.1038 104.9331,-171.8502 125.7107,-154.4181"/>
<polygon fill="#191970" stroke="#191970" points="127.985,-157.0807 133.5913,-148.0907 123.6024,-151.6223 127.985,-157.0807"/>
</g>
<!-- Node21 -->
<g id="node22" class="node">
<title>Node21</title>
<polygon fill="#ffffff" stroke="#bfbfbf" points="512.5,-196 512.5,-215 577.5,-215 577.5,-196 512.5,-196"/>
<text text-anchor="middle" x="545" y="-203" font-family="Helvetica,sans-Serif" font-size="10.00" fill="#000000">stdexcept</text>
</g>
<!-- Node17&#45;&gt;Node21 -->
<g id="edge32" class="edge">
<title>Node17&#45;&gt;Node21</title>
<path fill="none" stroke="#191970" d="M475.4224,-257.2967C489.8532,-246.5537 509.1484,-232.1895 523.7588,-221.3129"/>
<polygon fill="#191970" stroke="#191970" points="526.2336,-223.8339 532.165,-215.055 522.0536,-218.219 526.2336,-223.8339"/>
</g>
<!-- Node22 -->
<g id="node23" class="node">
<title>Node22</title>
<g id="a_node23"><a xlink:href="dummy__value_8h.html" target="_top" xlink:title="drake/common/dummy\l_value.h">
<polygon fill="#ffffff" stroke="#000000" points="106.5,-190.5 106.5,-220.5 237.5,-220.5 237.5,-190.5 106.5,-190.5"/>
<text text-anchor="start" x="114.5" y="-208.5" font-family="Helvetica,sans-Serif" font-size="10.00" fill="#000000">drake/common/dummy</text>
<text text-anchor="middle" x="172" y="-197.5" font-family="Helvetica,sans-Serif" font-size="10.00" fill="#000000">_value.h</text>
</a>
</g>
</g>
<!-- Node17&#45;&gt;Node22 -->
<g id="edge36" class="edge">
<title>Node17&#45;&gt;Node22</title>
<path fill="none" stroke="#191970" d="M391.4893,-257.4639C348.2193,-247.2198 290.7998,-233.6257 245.5431,-222.9113"/>
<polygon fill="#191970" stroke="#191970" points="246.3251,-219.4997 235.7877,-220.6017 244.7124,-226.3114 246.3251,-219.4997"/>
</g>
<!-- Node22&#45;&gt;Node20 -->
<g id="edge37" class="edge">
<title>Node22&#45;&gt;Node20</title>
<path fill="none" stroke="#191970" d="M166.3271,-190.2967C162.6967,-180.5672 157.958,-167.8675 154.0815,-157.4784"/>
<polygon fill="#191970" stroke="#191970" points="157.3404,-156.2004 150.5653,-148.055 150.7821,-158.6476 157.3404,-156.2004"/>
</g>
</g>
</svg>
        <g id="navigator" transform="translate(0 0)" fill="#404254">
                <rect fill="#f2f5e9" fill-opacity="0.5" stroke="#606060" stroke-width=".5" x="0" y="0" width="60" height="60"/>
                <use id="zoomplus" xlink:href="#zoomPlus" x="17" y="9" onmousedown="handleZoom(evt,'in')"/>
                <use id="zoomminus" xlink:href="#zoomMin" x="42" y="9" onmousedown="handleZoom(evt,'out')"/>
                <use id="reset" xlink:href="#resetDef" x="30" y="36" onmousedown="handleReset()"/>
                <g id="arrowUp" xlink:href="#dirArrow" transform="translate(30 24)" onmousedown="handlePan(0,-1)">
                  <use xlink:href="#rim" fill="#404040">
                        <set attributeName="fill" to="#808080" begin="arrowUp.mouseover" end="arrowUp.mouseout"/>
                  </use>
                  <path fill="none" stroke="white" stroke-width="1.5" d="M0,-3.0v7 M-2.5,-0.5L0,-3.0L2.5,-0.5"/>
                </g>
                <g id="arrowRight" xlink:href="#dirArrow" transform="rotate(90) translate(36 -43)" onmousedown="handlePan(1,0)">
                  <use xlink:href="#rim" fill="#404040">
                        <set attributeName="fill" to="#808080" begin="arrowRight.mouseover" end="arrowRight.mouseout"/>
                  </use>
                  <path fill="none" stroke="white" stroke-width="1.5" d="M0,-3.0v7 M-2.5,-0.5L0,-3.0L2.5,-0.5"/>
                </g>
                <g id="arrowDown" xlink:href="#dirArrow" transform="rotate(180) translate(-30 -48)" onmousedown="handlePan(0,1)">
                  <use xlink:href="#rim" fill="#404040">
                        <set attributeName="fill" to="#808080" begin="arrowDown.mouseover" end="arrowDown.mouseout"/>
                  </use>
                  <path fill="none" stroke="white" stroke-width="1.5" d="M0,-3.0v7 M-2.5,-0.5L0,-3.0L2.5,-0.5"/>
                </g>
                <g id="arrowLeft" xlink:href="#dirArrow" transform="rotate(270) translate(-36 17)" onmousedown="handlePan(-1,0)">
                  <use xlink:href="#rim" fill="#404040">
                        <set attributeName="fill" to="#808080" begin="arrowLeft.mouseover" end="arrowLeft.mouseout"/>
                  </use>
                  <path fill="none" stroke="white" stroke-width="1.5" d="M0,-3.0v7 M-2.5,-0.5L0,-3.0L2.5,-0.5"/>
                </g>
        </g>
        <svg viewBox="0 0 15 15" width="100%" height="30px" preserveAspectRatio="xMaxYMin meet">
         <g id="arrow_out" transform="scale(0.3 0.3)">
          <a xlink:href="viewer__draw__translator_8h__incl_org.svg" target="_base">
           <rect id="button" ry="5" rx="5" y="6" x="6" height="38" width="38"
                fill="#f2f5e9" fill-opacity="0.5" stroke="#606060" stroke-width="1.0"/>
           <path id="arrow"
             d="M 11.500037,31.436501 C 11.940474,20.09759 22.043105,11.32322 32.158766,21.979434 L 37.068811,17.246167 C 37.068811,17.246167 37.088388,32 37.088388,32 L 22.160133,31.978069 C 22.160133,31.978069 26.997745,27.140456 26.997745,27.140456 C 18.528582,18.264221 13.291696,25.230495 11.500037,31.436501 z"
             style="fill:#404040;"/>
          </a>
         </g>
        </svg>
</svg>
