<?xml version="1.0" encoding="UTF-8" standalone="no"?>
<!DOCTYPE svg PUBLIC "-//W3C//DTD SVG 1.1//EN"
 "http://www.w3.org/Graphics/SVG/1.1/DTD/svg11.dtd">
<!-- Generated by graphviz version 2.40.1 (20161225.0304)
 -->
<!-- Title: drake/systems/sensors/vtk_util.cc Pages: 1 -->
<svg width="719pt" height="173pt"
 viewBox="0.00 0.00 718.50 173.00" xmlns="http://www.w3.org/2000/svg" xmlns:xlink="http://www.w3.org/1999/xlink">
<g id="graph0" class="graph" transform="scale(1 1) rotate(0) translate(4 169)">
<title>drake/systems/sensors/vtk_util.cc</title>
<polygon fill="#ffffff" stroke="transparent" points="-4,4 -4,-169 714.5,-169 714.5,4 -4,4"/>
<!-- Node0 -->
<g id="node1" class="node">
<title>Node0</title>
<polygon fill="#bfbfbf" stroke="#000000" points="316,-134.5 316,-164.5 445,-164.5 445,-134.5 316,-134.5"/>
<text text-anchor="start" x="324" y="-152.5" font-family="Helvetica,sans-Serif" font-size="10.00" fill="#000000">drake/systems/sensors</text>
<text text-anchor="middle" x="380.5" y="-141.5" font-family="Helvetica,sans-Serif" font-size="10.00" fill="#000000">/vtk_util.cc</text>
</g>
<!-- Node1 -->
<g id="node2" class="node">
<title>Node1</title>
<g id="a_node2"><a xlink:href="vtk__util_8h.html" target="_top" xlink:title="drake/systems/sensors\l/vtk_util.h">
<polygon fill="#ffffff" stroke="#000000" points="270,-67.5 270,-97.5 399,-97.5 399,-67.5 270,-67.5"/>
<text text-anchor="start" x="278" y="-85.5" font-family="Helvetica,sans-Serif" font-size="10.00" fill="#000000">drake/systems/sensors</text>
<text text-anchor="middle" x="334.5" y="-74.5" font-family="Helvetica,sans-Serif" font-size="10.00" fill="#000000">/vtk_util.h</text>
</a>
</g>
</g>
<!-- Node0&#45;&gt;Node1 -->
<g id="edge1" class="edge">
<title>Node0&#45;&gt;Node1</title>
<path fill="none" stroke="#191970" d="M370.0619,-134.2967C364.3569,-125.9873 357.1646,-115.5115 350.7433,-106.1587"/>
<polygon fill="#191970" stroke="#191970" points="353.4423,-103.9062 344.8968,-97.6432 347.6715,-107.8682 353.4423,-103.9062"/>
</g>
<!-- Node3 -->
<g id="node4" class="node">
<title>Node3</title>
<polygon fill="#ffffff" stroke="#bfbfbf" points="0,-6 0,-25 77,-25 77,-6 0,-6"/>
<text text-anchor="middle" x="38.5" y="-13" font-family="Helvetica,sans-Serif" font-size="10.00" fill="#000000">Eigen/Dense</text>
</g>
<!-- Node0&#45;&gt;Node3 -->
<g id="edge9" class="edge">
<title>Node0&#45;&gt;Node3</title>
<path fill="none" stroke="#191970" d="M319.3376,-134.454C285.0762,-125.3205 241.8568,-112.6163 204.5,-98 153.2184,-77.9355 96.3286,-47.8359 64.2378,-30.08"/>
<polygon fill="#191970" stroke="#191970" points="65.9277,-27.0149 55.4887,-25.2041 62.52,-33.1295 65.9277,-27.0149"/>
</g>
<!-- Node4 -->
<g id="node5" class="node">
<title>Node4</title>
<polygon fill="#ffffff" stroke="#bfbfbf" points="95,-6 95,-25 158,-25 158,-6 95,-6"/>
<text text-anchor="middle" x="126.5" y="-13" font-family="Helvetica,sans-Serif" font-size="10.00" fill="#000000">vtkNew.h</text>
</g>
<!-- Node0&#45;&gt;Node4 -->
<g id="edge10" class="edge">
<title>Node0&#45;&gt;Node4</title>
<path fill="none" stroke="#191970" d="M341.4642,-134.4385C317.6664,-124.8432 286.8615,-111.6782 260.5,-98 219.936,-76.9526 175.1697,-48.1863 149.0123,-30.7751"/>
<polygon fill="#191970" stroke="#191970" points="150.8296,-27.7797 140.5736,-25.1214 146.9333,-33.5952 150.8296,-27.7797"/>
</g>
<!-- Node5 -->
<g id="node6" class="node">
<title>Node5</title>
<polygon fill="#ffffff" stroke="#bfbfbf" points="376,-6 376,-25 477,-25 477,-6 376,-6"/>
<text text-anchor="middle" x="426.5" y="-13" font-family="Helvetica,sans-Serif" font-size="10.00" fill="#000000">vtkPlaneSource.h</text>
</g>
<!-- Node0&#45;&gt;Node5 -->
<g id="edge11" class="edge">
<title>Node0&#45;&gt;Node5</title>
<path fill="none" stroke="#191970" d="M389.8511,-134.2026C395.6253,-124.2016 402.8028,-110.6859 407.5,-98 415.2032,-77.1958 420.4277,-52.2446 423.4185,-35.2687"/>
<polygon fill="#191970" stroke="#191970" points="426.8736,-35.8278 425.065,-25.3885 419.9688,-34.6771 426.8736,-35.8278"/>
</g>
<!-- Node6 -->
<g id="node7" class="node">
<title>Node6</title>
<polygon fill="#ffffff" stroke="#bfbfbf" points="495,-6 495,-25 600,-25 600,-6 495,-6"/>
<text text-anchor="middle" x="547.5" y="-13" font-family="Helvetica,sans-Serif" font-size="10.00" fill="#000000">vtkSmartPointer.h</text>
</g>
<!-- Node0&#45;&gt;Node6 -->
<g id="edge12" class="edge">
<title>Node0&#45;&gt;Node6</title>
<path fill="none" stroke="#191970" d="M399.3324,-134.389C431.1241,-108.8794 495.1415,-57.5122 527.6236,-31.4487"/>
<polygon fill="#191970" stroke="#191970" points="529.9215,-34.0924 535.5306,-25.1042 525.5406,-28.6327 529.9215,-34.0924"/>
</g>
<!-- Node7 -->
<g id="node8" class="node">
<title>Node7</title>
<polygon fill="#ffffff" stroke="#bfbfbf" points="618.5,-6 618.5,-25 710.5,-25 710.5,-6 618.5,-6"/>
<text text-anchor="middle" x="664.5" y="-13" font-family="Helvetica,sans-Serif" font-size="10.00" fill="#000000">vtkTransform.h</text>
</g>
<!-- Node0&#45;&gt;Node7 -->
<g id="edge13" class="edge">
<title>Node0&#45;&gt;Node7</title>
<path fill="none" stroke="#191970" d="M412.5264,-134.389C467.9717,-108.2281 581.0541,-54.8724 634.8227,-29.5027"/>
<polygon fill="#191970" stroke="#191970" points="636.5946,-32.5367 644.1449,-25.1042 633.6075,-26.206 636.5946,-32.5367"/>
</g>
<!-- Node2 -->
<g id="node3" class="node">
<title>Node2</title>
<polygon fill="#ffffff" stroke="#bfbfbf" points="315.5,-6 315.5,-25 357.5,-25 357.5,-6 315.5,-6"/>
<text text-anchor="middle" x="336.5" y="-13" font-family="Helvetica,sans-Serif" font-size="10.00" fill="#000000">array</text>
</g>
<!-- Node1&#45;&gt;Node2 -->
<g id="edge2" class="edge">
<title>Node1&#45;&gt;Node2</title>
<path fill="none" stroke="#191970" d="M334.9538,-67.2967C335.2382,-57.7699 335.6076,-45.3954 335.914,-35.1306"/>
<polygon fill="#191970" stroke="#191970" points="339.4147,-35.155 336.2148,-25.055 332.4179,-34.9461 339.4147,-35.155"/>
</g>
<!-- Node1&#45;&gt;Node3 -->
<g id="edge3" class="edge">
<title>Node1&#45;&gt;Node3</title>
<path fill="none" stroke="#191970" d="M269.7947,-71.2226C219.2546,-61.9086 147.4435,-47.5615 85.5,-31 82.1617,-30.1074 78.7122,-29.1128 75.269,-28.0701"/>
<polygon fill="#191970" stroke="#191970" points="76.2685,-24.7155 65.6789,-25.0494 74.1654,-31.3921 76.2685,-24.7155"/>
</g>
<!-- Node1&#45;&gt;Node4 -->
<g id="edge4" class="edge">
<title>Node1&#45;&gt;Node4</title>
<path fill="none" stroke="#191970" d="M281.9697,-67.4582C248.6848,-57.666 204.837,-44.2844 166.5,-31 164.3845,-30.2669 162.2142,-29.4923 160.0312,-28.6959"/>
<polygon fill="#191970" stroke="#191970" points="161.1017,-25.3595 150.5094,-25.1272 158.645,-31.9142 161.1017,-25.3595"/>
</g>
<!-- Node1&#45;&gt;Node5 -->
<g id="edge5" class="edge">
<title>Node1&#45;&gt;Node5</title>
<path fill="none" stroke="#191970" d="M355.3762,-67.2967C370.2669,-56.4524 390.2243,-41.9182 405.2081,-31.006"/>
<polygon fill="#191970" stroke="#191970" points="407.3566,-33.7712 413.3797,-25.055 403.2357,-28.1127 407.3566,-33.7712"/>
</g>
<!-- Node1&#45;&gt;Node6 -->
<g id="edge6" class="edge">
<title>Node1&#45;&gt;Node6</title>
<path fill="none" stroke="#191970" d="M382.3014,-67.4639C420.084,-55.5792 472.2004,-39.1858 507.727,-28.0108"/>
<polygon fill="#191970" stroke="#191970" points="508.7927,-31.3447 517.2817,-25.0053 506.6923,-24.6672 508.7927,-31.3447"/>
</g>
<!-- Node1&#45;&gt;Node7 -->
<g id="edge7" class="edge">
<title>Node1&#45;&gt;Node7</title>
<path fill="none" stroke="#191970" d="M399.0185,-72.0982C454.966,-62.6783 537.9664,-47.7424 609.5,-31 613.8558,-29.9805 618.3837,-28.8393 622.8877,-27.6508"/>
<polygon fill="#191970" stroke="#191970" points="623.9018,-31.0022 632.634,-25.0024 622.0662,-24.2472 623.9018,-31.0022"/>
</g>
<!-- Node8 -->
<g id="node9" class="node">
<title>Node8</title>
<g id="a_node9"><a xlink:href="drake__copyable_8h.html" target="_top" xlink:title="Provides careful macros to selectively enable or disable the special member functions for copy&#45;constr...">
<polygon fill="#ffffff" stroke="#000000" points="176,-.5 176,-30.5 297,-30.5 297,-.5 176,-.5"/>
<text text-anchor="start" x="184" y="-18.5" font-family="Helvetica,sans-Serif" font-size="10.00" fill="#000000">drake/common/drake</text>
<text text-anchor="middle" x="236.5" y="-7.5" font-family="Helvetica,sans-Serif" font-size="10.00" fill="#000000">_copyable.h</text>
</a>
</g>
</g>
<!-- Node1&#45;&gt;Node8 -->
<g id="edge8" class="edge">
<title>Node1&#45;&gt;Node8</title>
<path fill="none" stroke="#191970" d="M312.2623,-67.2967C298.8553,-58.1306 281.5924,-46.3285 266.932,-36.3055"/>
<polygon fill="#191970" stroke="#191970" points="268.8802,-33.3977 258.6497,-30.6432 264.9295,-39.1763 268.8802,-33.3977"/>
</g>
</g>
</svg>
