<?xml version="1.0" encoding="UTF-8" standalone="no"?>
<!DOCTYPE svg PUBLIC "-//W3C//DTD SVG 1.1//EN"
 "http://www.w3.org/Graphics/SVG/1.1/DTD/svg11.dtd">
<!-- Generated by graphviz version 2.40.1 (20161225.0304)
 -->
<!-- Title: drake/systems/sensors/vtk_util.h Pages: 1 -->
<svg width="590pt" height="106pt"
 viewBox="0.00 0.00 589.50 106.00" xmlns="http://www.w3.org/2000/svg" xmlns:xlink="http://www.w3.org/1999/xlink">
<g id="graph0" class="graph" transform="scale(1 1) rotate(0) translate(4 102)">
<title>drake/systems/sensors/vtk_util.h</title>
<polygon fill="#ffffff" stroke="transparent" points="-4,4 -4,-102 585.5,-102 585.5,4 -4,4"/>
<!-- Node8 -->
<g id="node1" class="node">
<title>Node8</title>
<polygon fill="#bfbfbf" stroke="#000000" points="231.5,-67.5 231.5,-97.5 360.5,-97.5 360.5,-67.5 231.5,-67.5"/>
<text text-anchor="start" x="239.5" y="-85.5" font-family="Helvetica,sans-Serif" font-size="10.00" fill="#000000">drake/systems/sensors</text>
<text text-anchor="middle" x="296" y="-74.5" font-family="Helvetica,sans-Serif" font-size="10.00" fill="#000000">/vtk_util.h</text>
</g>
<!-- Node9 -->
<g id="node2" class="node">
<title>Node9</title>
<g id="a_node2"><a xlink:href="rgbd__renderer__ospray_8cc.html" target="_top" xlink:title="drake/systems/sensors\l/rgbd_renderer_ospray.cc">
<polygon fill="#ffffff" stroke="#000000" points="0,-.5 0,-30.5 140,-30.5 140,-.5 0,-.5"/>
<text text-anchor="start" x="8" y="-18.5" font-family="Helvetica,sans-Serif" font-size="10.00" fill="#000000">drake/systems/sensors</text>
<text text-anchor="middle" x="70" y="-7.5" font-family="Helvetica,sans-Serif" font-size="10.00" fill="#000000">/rgbd_renderer_ospray.cc</text>
</a>
</g>
</g>
<!-- Node8&#45;&gt;Node9 -->
<g id="edge1" class="edge">
<title>Node8&#45;&gt;Node9</title>
<path fill="none" stroke="#191970" d="M235.4469,-64.5484C199.6742,-53.9432 154.89,-40.6665 120.94,-30.6017"/>
<polygon fill="#191970" stroke="#191970" points="234.6988,-67.9771 245.2812,-67.4639 236.6885,-61.2658 234.6988,-67.9771"/>
</g>
<!-- Node10 -->
<g id="node3" class="node">
<title>Node10</title>
<g id="a_node3"><a xlink:href="rgbd__renderer__vtk_8cc.html" target="_top" xlink:title="drake/systems/sensors\l/rgbd_renderer_vtk.cc">
<polygon fill="#ffffff" stroke="#000000" points="158.5,-.5 158.5,-30.5 287.5,-30.5 287.5,-.5 158.5,-.5"/>
<text text-anchor="start" x="166.5" y="-18.5" font-family="Helvetica,sans-Serif" font-size="10.00" fill="#000000">drake/systems/sensors</text>
<text text-anchor="middle" x="223" y="-7.5" font-family="Helvetica,sans-Serif" font-size="10.00" fill="#000000">/rgbd_renderer_vtk.cc</text>
</a>
</g>
</g>
<!-- Node8&#45;&gt;Node10 -->
<g id="edge2" class="edge">
<title>Node8&#45;&gt;Node10</title>
<path fill="none" stroke="#191970" d="M272.026,-60.4965C261.3733,-50.7193 249.1007,-39.4554 239.4993,-30.6432"/>
<polygon fill="#191970" stroke="#191970" points="269.7011,-63.1134 279.4352,-67.2967 274.4344,-57.9562 269.7011,-63.1134"/>
</g>
<!-- Node11 -->
<g id="node4" class="node">
<title>Node11</title>
<g id="a_node4"><a xlink:href="vtk__util__test_8cc.html" target="_top" xlink:title="drake/systems/sensors\l/test/vtk_util_test.cc">
<polygon fill="#ffffff" stroke="#000000" points="305.5,-.5 305.5,-30.5 434.5,-30.5 434.5,-.5 305.5,-.5"/>
<text text-anchor="start" x="313.5" y="-18.5" font-family="Helvetica,sans-Serif" font-size="10.00" fill="#000000">drake/systems/sensors</text>
<text text-anchor="middle" x="370" y="-7.5" font-family="Helvetica,sans-Serif" font-size="10.00" fill="#000000">/test/vtk_util_test.cc</text>
</a>
</g>
</g>
<!-- Node8&#45;&gt;Node11 -->
<g id="edge3" class="edge">
<title>Node8&#45;&gt;Node11</title>
<path fill="none" stroke="#191970" d="M320.3024,-60.4965C331.101,-50.7193 343.5418,-39.4554 353.2747,-30.6432"/>
<polygon fill="#191970" stroke="#191970" points="317.8556,-57.9903 312.7917,-67.2967 322.5539,-63.1794 317.8556,-57.9903"/>
</g>
<!-- Node12 -->
<g id="node5" class="node">
<title>Node12</title>
<g id="a_node5"><a xlink:href="vtk__util_8cc.html" target="_top" xlink:title="drake/systems/sensors\l/vtk_util.cc">
<polygon fill="#ffffff" stroke="#000000" points="452.5,-.5 452.5,-30.5 581.5,-30.5 581.5,-.5 452.5,-.5"/>
<text text-anchor="start" x="460.5" y="-18.5" font-family="Helvetica,sans-Serif" font-size="10.00" fill="#000000">drake/systems/sensors</text>
<text text-anchor="middle" x="517" y="-7.5" font-family="Helvetica,sans-Serif" font-size="10.00" fill="#000000">/vtk_util.cc</text>
</a>
</g>
</g>
<!-- Node8&#45;&gt;Node12 -->
<g id="edge4" class="edge">
<title>Node8&#45;&gt;Node12</title>
<path fill="none" stroke="#191970" d="M355.2134,-64.5484C390.1947,-53.9432 433.9881,-40.6665 467.187,-30.6017"/>
<polygon fill="#191970" stroke="#191970" points="354.1511,-61.2131 345.5967,-67.4639 356.1821,-67.912 354.1511,-61.2131"/>
</g>
</g>
</svg>
