<?xml version="1.0" encoding="UTF-8" standalone="no"?>
<!DOCTYPE svg PUBLIC "-//W3C//DTD SVG 1.1//EN"
 "http://www.w3.org/Graphics/SVG/1.1/DTD/svg11.dtd">
<!-- Generated by graphviz version 2.40.1 (20161225.0304)
 -->
<!-- Title: drake/attic/manipulation/util/world_sim_tree_builder.cc Pages: 1 -->
<!--zoomable 240 -->
<svg id="main" version="1.1" xmlns="http://www.w3.org/2000/svg" xmlns:xlink="http://www.w3.org/1999/xlink" xml:space="preserve" onload="init(evt)">
<style type="text/css"><![CDATA[
.edge:hover path { stroke: red; }
.edge:hover polygon { stroke: red; fill: red; }
]]></style>
<script type="text/javascript"><![CDATA[
var edges = document.getElementsByTagName('g');
if (edges && edges.length) {
  for (var i=0;i<edges.length;i++) {
    if (edges[i].id.substr(0,4)=='edge') {
      edges[i].setAttribute('class','edge');
    }
  }
}
]]></script>
        <defs>
                <circle id="rim" cx="0" cy="0" r="7"/>
                <circle id="rim2" cx="0" cy="0" r="3.5"/>
                <g id="zoomPlus">
                        <use xlink:href="#rim" fill="#404040">
                                <set attributeName="fill" to="#808080" begin="zoomplus.mouseover" end="zoomplus.mouseout"/>
                        </use>
                        <path d="M-4,0h8M0,-4v8" fill="none" stroke="white" stroke-width="1.5" pointer-events="none"/>
                </g>
                <g id="zoomMin">
                        <use xlink:href="#rim" fill="#404040">
                                <set attributeName="fill" to="#808080" begin="zoomminus.mouseover" end="zoomminus.mouseout"/>
                        </use>
                        <path d="M-4,0h8" fill="none" stroke="white" stroke-width="1.5" pointer-events="none"/>
                </g>
                <g id="dirArrow">
                        <path fill="none" stroke="white" stroke-width="1.5" d="M0,-3.0v7 M-2.5,-0.5L0,-3.0L2.5,-0.5"/>
                </g>
               <g id="resetDef">
                       <use xlink:href="#rim2" fill="#404040">
                               <set attributeName="fill" to="#808080" begin="reset.mouseover" end="reset.mouseout"/>
                       </use>
               </g>
        </defs>

<script type="text/javascript">
var viewWidth = 1511;
var viewHeight = 240;
var sectionId = 'dynsection-0';
</script>
<script xlink:href="svgpan.js"/>
<svg id="graph" class="graph">
<g id="viewport">
<title>drake/attic/manipulation/util/world_sim_tree_builder.cc</title>
<polygon fill="#ffffff" stroke="transparent" points="-4,4 -4,-236 1507,-236 1507,4 -4,4"/>
<!-- Node0 -->
<g id="node1" class="node">
<title>Node0</title>
<polygon fill="#bfbfbf" stroke="#000000" points="504.5,-201.5 504.5,-231.5 670.5,-231.5 670.5,-201.5 504.5,-201.5"/>
<text text-anchor="start" x="512.5" y="-219.5" font-family="Helvetica,sans-Serif" font-size="10.00" fill="#000000">drake/attic/manipulation</text>
<text text-anchor="middle" x="587.5" y="-208.5" font-family="Helvetica,sans-Serif" font-size="10.00" fill="#000000">/util/world_sim_tree_builder.cc</text>
</g>
<!-- Node1 -->
<g id="node2" class="node">
<title>Node1</title>
<polygon fill="#ffffff" stroke="#bfbfbf" points="0,-123.5 0,-164.5 113,-164.5 113,-123.5 0,-123.5"/>
<text text-anchor="start" x="8" y="-152.5" font-family="Helvetica,sans-Serif" font-size="10.00" fill="#000000">drake/manipulation</text>
<text text-anchor="start" x="8" y="-141.5" font-family="Helvetica,sans-Serif" font-size="10.00" fill="#000000">/util/world_sim_tree</text>
<text text-anchor="middle" x="56.5" y="-130.5" font-family="Helvetica,sans-Serif" font-size="10.00" fill="#000000">_builder.h</text>
</g>
<!-- Node0&#45;&gt;Node1 -->
<g id="edge1" class="edge">
<title>Node0&#45;&gt;Node1</title>
<path fill="none" stroke="#191970" d="M504.3971,-212.2613C412.9495,-206.4793 261.6859,-193.6195 123.1425,-164.9162"/>
<polygon fill="#191970" stroke="#191970" points="123.6967,-161.4563 113.1903,-162.8221 122.2553,-168.3063 123.6967,-161.4563"/>
</g>
<!-- Node2 -->
<g id="node3" class="node">
<title>Node2</title>
<polygon fill="#ffffff" stroke="#bfbfbf" points="131.5,-134.5 131.5,-153.5 195.5,-153.5 195.5,-134.5 131.5,-134.5"/>
<text text-anchor="middle" x="163.5" y="-141.5" font-family="Helvetica,sans-Serif" font-size="10.00" fill="#000000">algorithm</text>
</g>
<!-- Node0&#45;&gt;Node2 -->
<g id="edge2" class="edge">
<title>Node0&#45;&gt;Node2</title>
<path fill="none" stroke="#191970" d="M504.3111,-213.4297C425.5247,-208.6405 304.6991,-196.3809 204.5,-165 199.0623,-163.297 193.4755,-160.9152 188.2438,-158.3645"/>
<polygon fill="#191970" stroke="#191970" points="189.803,-155.2302 179.3191,-153.7007 186.5609,-161.4342 189.803,-155.2302"/>
</g>
<!-- Node3 -->
<g id="node4" class="node">
<title>Node3</title>
<polygon fill="#ffffff" stroke="#bfbfbf" points="213.5,-134.5 213.5,-153.5 251.5,-153.5 251.5,-134.5 213.5,-134.5"/>
<text text-anchor="middle" x="232.5" y="-141.5" font-family="Helvetica,sans-Serif" font-size="10.00" fill="#000000">map</text>
</g>
<!-- Node0&#45;&gt;Node3 -->
<g id="edge3" class="edge">
<title>Node0&#45;&gt;Node3</title>
<path fill="none" stroke="#191970" d="M504.1956,-208.0133C422.1997,-198.8338 303.2468,-183.0657 260.5,-165 257.1523,-163.5852 253.8404,-161.6851 250.7303,-159.6038"/>
<polygon fill="#191970" stroke="#191970" points="252.7317,-156.7295 242.6377,-153.5103 248.5211,-162.3215 252.7317,-156.7295"/>
</g>
<!-- Node4 -->
<g id="node5" class="node">
<title>Node4</title>
<polygon fill="#ffffff" stroke="#bfbfbf" points="270,-134.5 270,-153.5 315,-153.5 315,-134.5 270,-134.5"/>
<text text-anchor="middle" x="292.5" y="-141.5" font-family="Helvetica,sans-Serif" font-size="10.00" fill="#000000">utility</text>
</g>
<!-- Node0&#45;&gt;Node4 -->
<g id="edge4" class="edge">
<title>Node0&#45;&gt;Node4</title>
<path fill="none" stroke="#191970" d="M504.2786,-208.5541C451.3273,-201.4924 382.126,-188.4899 324.5,-165 320.6637,-163.4362 316.7981,-161.3887 313.145,-159.1857"/>
<polygon fill="#191970" stroke="#191970" points="314.9145,-156.1601 304.6395,-153.5764 311.0607,-162.0037 314.9145,-156.1601"/>
</g>
<!-- Node5 -->
<g id="node6" class="node">
<title>Node5</title>
<polygon fill="#ffffff" stroke="#bfbfbf" points="333.5,-134.5 333.5,-153.5 397.5,-153.5 397.5,-134.5 333.5,-134.5"/>
<text text-anchor="middle" x="365.5" y="-141.5" font-family="Helvetica,sans-Serif" font-size="10.00" fill="#000000">spruce.hh</text>
</g>
<!-- Node0&#45;&gt;Node5 -->
<g id="edge5" class="edge">
<title>Node0&#45;&gt;Node5</title>
<path fill="none" stroke="#191970" d="M523.2458,-201.4956C488.1884,-192.497 444.3444,-179.9088 406.5,-165 401.5123,-163.0351 396.3256,-160.6594 391.386,-158.2228"/>
<polygon fill="#191970" stroke="#191970" points="392.8027,-155.0156 382.3091,-153.5539 389.6008,-161.2404 392.8027,-155.0156"/>
</g>
<!-- Node6 -->
<g id="node7" class="node">
<title>Node6</title>
<g id="a_node7"><a xlink:href="find__resource_8h.html" target="_top" xlink:title="drake/common/find_resource.h">
<polygon fill="#ffffff" stroke="#000000" points="415.5,-134.5 415.5,-153.5 583.5,-153.5 583.5,-134.5 415.5,-134.5"/>
<text text-anchor="middle" x="499.5" y="-141.5" font-family="Helvetica,sans-Serif" font-size="10.00" fill="#000000">drake/common/find_resource.h</text>
</a>
</g>
</g>
<!-- Node0&#45;&gt;Node6 -->
<g id="edge6" class="edge">
<title>Node0&#45;&gt;Node6</title>
<path fill="none" stroke="#191970" d="M569.2663,-201.478C554.7053,-189.4817 534.3315,-172.6964 519.3591,-160.3612"/>
<polygon fill="#191970" stroke="#191970" points="521.1961,-157.3398 511.2526,-153.6825 516.7451,-162.7425 521.1961,-157.3398"/>
</g>
<!-- Node15 -->
<g id="node16" class="node">
<title>Node15</title>
<polygon fill="#ffffff" stroke="#bfbfbf" points="601.5,-129 601.5,-159 751.5,-159 751.5,-129 601.5,-129"/>
<text text-anchor="start" x="609.5" y="-147" font-family="Helvetica,sans-Serif" font-size="10.00" fill="#000000">drake/multibody/parsers</text>
<text text-anchor="middle" x="676.5" y="-136" font-family="Helvetica,sans-Serif" font-size="10.00" fill="#000000">/model_instance_id_table.h</text>
</g>
<!-- Node0&#45;&gt;Node15 -->
<g id="edge15" class="edge">
<title>Node0&#45;&gt;Node15</title>
<path fill="none" stroke="#191970" d="M605.9409,-201.478C618.7095,-191.0766 635.8977,-177.0749 650.1127,-165.4953"/>
<polygon fill="#191970" stroke="#191970" points="652.5401,-168.0322 658.0828,-159.0028 648.1191,-162.605 652.5401,-168.0322"/>
</g>
<!-- Node16 -->
<g id="node17" class="node">
<title>Node16</title>
<polygon fill="#ffffff" stroke="#bfbfbf" points="769.5,-129 769.5,-159 905.5,-159 905.5,-129 769.5,-129"/>
<text text-anchor="start" x="777.5" y="-147" font-family="Helvetica,sans-Serif" font-size="10.00" fill="#000000">drake/multibody/parsers</text>
<text text-anchor="middle" x="837.5" y="-136" font-family="Helvetica,sans-Serif" font-size="10.00" fill="#000000">/sdf_parser.h</text>
</g>
<!-- Node0&#45;&gt;Node16 -->
<g id="edge16" class="edge">
<title>Node0&#45;&gt;Node16</title>
<path fill="none" stroke="#191970" d="M639.3002,-201.478C679.0219,-189.9587 733.9702,-174.0236 775.9376,-161.8531"/>
<polygon fill="#191970" stroke="#191970" points="777.1368,-165.1496 785.7662,-159.0028 775.187,-158.4266 777.1368,-165.1496"/>
</g>
<!-- Node17 -->
<g id="node18" class="node">
<title>Node17</title>
<polygon fill="#ffffff" stroke="#bfbfbf" points="923.5,-129 923.5,-159 1059.5,-159 1059.5,-129 923.5,-129"/>
<text text-anchor="start" x="931.5" y="-147" font-family="Helvetica,sans-Serif" font-size="10.00" fill="#000000">drake/multibody/parsers</text>
<text text-anchor="middle" x="991.5" y="-136" font-family="Helvetica,sans-Serif" font-size="10.00" fill="#000000">/urdf_parser.h</text>
</g>
<!-- Node0&#45;&gt;Node17 -->
<g id="edge17" class="edge">
<title>Node0&#45;&gt;Node17</title>
<path fill="none" stroke="#191970" d="M670.6159,-205.9826C736.9866,-196.9668 832.1769,-182.6525 914.5,-165 919.4536,-163.9378 924.5629,-162.7507 929.6824,-161.4959"/>
<polygon fill="#191970" stroke="#191970" points="930.6639,-164.858 939.5017,-159.0147 928.949,-158.0713 930.6639,-164.858"/>
</g>
<!-- Node18 -->
<g id="node19" class="node">
<title>Node18</title>
<polygon fill="#ffffff" stroke="#bfbfbf" points="1077.5,-129 1077.5,-159 1199.5,-159 1199.5,-129 1077.5,-129"/>
<text text-anchor="start" x="1085.5" y="-147" font-family="Helvetica,sans-Serif" font-size="10.00" fill="#000000">drake/multibody/rigid</text>
<text text-anchor="middle" x="1138.5" y="-136" font-family="Helvetica,sans-Serif" font-size="10.00" fill="#000000">_body_frame.h</text>
</g>
<!-- Node0&#45;&gt;Node18 -->
<g id="edge18" class="edge">
<title>Node0&#45;&gt;Node18</title>
<path fill="none" stroke="#191970" d="M670.7686,-212.2647C767.2398,-206.2808 930.6043,-192.8179 1068.5,-165 1073.2262,-164.0466 1078.0916,-162.9135 1082.9509,-161.6751"/>
<polygon fill="#191970" stroke="#191970" points="1084.1211,-164.9849 1092.8698,-159.009 1082.304,-158.2248 1084.1211,-164.9849"/>
</g>
<!-- Node19 -->
<g id="node20" class="node">
<title>Node19</title>
<polygon fill="#ffffff" stroke="#bfbfbf" points="1217.5,-129 1217.5,-159 1339.5,-159 1339.5,-129 1217.5,-129"/>
<text text-anchor="start" x="1225.5" y="-147" font-family="Helvetica,sans-Serif" font-size="10.00" fill="#000000">drake/multibody/rigid</text>
<text text-anchor="middle" x="1278.5" y="-136" font-family="Helvetica,sans-Serif" font-size="10.00" fill="#000000">_body_tree.h</text>
</g>
<!-- Node0&#45;&gt;Node19 -->
<g id="edge19" class="edge">
<title>Node0&#45;&gt;Node19</title>
<path fill="none" stroke="#191970" d="M670.767,-211.7568C815.5157,-203.1501 1107.7194,-184.0791 1208.5,-165 1213.4379,-164.0652 1218.5235,-162.9169 1223.593,-161.6436"/>
<polygon fill="#191970" stroke="#191970" points="1224.5163,-165.0198 1233.2788,-159.0642 1222.7148,-158.2556 1224.5163,-165.0198"/>
</g>
<!-- Node20 -->
<g id="node21" class="node">
<title>Node20</title>
<polygon fill="#ffffff" stroke="#bfbfbf" points="1358,-129 1358,-159 1503,-159 1503,-129 1358,-129"/>
<text text-anchor="start" x="1366" y="-147" font-family="Helvetica,sans-Serif" font-size="10.00" fill="#000000">drake/multibody/rigid</text>
<text text-anchor="middle" x="1430.5" y="-136" font-family="Helvetica,sans-Serif" font-size="10.00" fill="#000000">_body_tree_construction.h</text>
</g>
<!-- Node0&#45;&gt;Node20 -->
<g id="edge20" class="edge">
<title>Node0&#45;&gt;Node20</title>
<path fill="none" stroke="#191970" d="M670.5769,-212.8034C839.9405,-204.951 1219.9594,-185.6304 1348.5,-165 1354.6894,-164.0066 1361.0928,-162.7612 1367.467,-161.3754"/>
<polygon fill="#191970" stroke="#191970" points="1368.4568,-164.7395 1377.4249,-159.0981 1366.8962,-157.9157 1368.4568,-164.7395"/>
</g>
<!-- Node7 -->
<g id="node8" class="node">
<title>Node7</title>
<polygon fill="#ffffff" stroke="#bfbfbf" points="311.5,-62 311.5,-81 355.5,-81 355.5,-62 311.5,-62"/>
<text text-anchor="middle" x="333.5" y="-69" font-family="Helvetica,sans-Serif" font-size="10.00" fill="#000000">string</text>
</g>
<!-- Node6&#45;&gt;Node7 -->
<g id="edge7" class="edge">
<title>Node6&#45;&gt;Node7</title>
<path fill="none" stroke="#191970" d="M475.3988,-134.3689C448.2352,-123.3883 402.8596,-104.666 364.5,-87 363.4889,-86.5343 362.462,-86.0551 361.427,-85.5665"/>
<polygon fill="#191970" stroke="#191970" points="362.619,-82.2547 352.0941,-81.0391 359.5637,-88.5528 362.619,-82.2547"/>
</g>
<!-- Node8 -->
<g id="node9" class="node">
<title>Node8</title>
<polygon fill="#ffffff" stroke="#bfbfbf" points="374,-62 374,-81 421,-81 421,-62 374,-62"/>
<text text-anchor="middle" x="397.5" y="-69" font-family="Helvetica,sans-Serif" font-size="10.00" fill="#000000">vector</text>
</g>
<!-- Node6&#45;&gt;Node8 -->
<g id="edge8" class="edge">
<title>Node6&#45;&gt;Node8</title>
<path fill="none" stroke="#191970" d="M485.7438,-134.2223C468.6912,-122.1016 439.4237,-101.2987 419.3014,-86.9961"/>
<polygon fill="#191970" stroke="#191970" points="421.2168,-84.0635 411.0382,-81.1228 417.1613,-89.7691 421.2168,-84.0635"/>
</g>
<!-- Node9 -->
<g id="node10" class="node">
<title>Node9</title>
<g id="a_node10"><a xlink:href="drake__assert_8h.html" target="_top" xlink:title="Provides Drake&#39;s assertion implementation. ">
<polygon fill="#ffffff" stroke="#000000" points="439,-56.5 439,-86.5 560,-86.5 560,-56.5 439,-56.5"/>
<text text-anchor="start" x="447" y="-74.5" font-family="Helvetica,sans-Serif" font-size="10.00" fill="#000000">drake/common/drake</text>
<text text-anchor="middle" x="499.5" y="-63.5" font-family="Helvetica,sans-Serif" font-size="10.00" fill="#000000">_assert.h</text>
</a>
</g>
</g>
<!-- Node6&#45;&gt;Node9 -->
<g id="edge9" class="edge">
<title>Node6&#45;&gt;Node9</title>
<path fill="none" stroke="#191970" d="M499.5,-134.2223C499.5,-124.6803 499.5,-109.7575 499.5,-96.8615"/>
<polygon fill="#191970" stroke="#191970" points="503.0001,-96.668 499.5,-86.668 496.0001,-96.6681 503.0001,-96.668"/>
</g>
<!-- Node11 -->
<g id="node12" class="node">
<title>Node11</title>
<g id="a_node12"><a xlink:href="drake__copyable_8h.html" target="_top" xlink:title="Provides careful macros to selectively enable or disable the special member functions for copy&#45;constr...">
<polygon fill="#ffffff" stroke="#000000" points="578,-56.5 578,-86.5 699,-86.5 699,-56.5 578,-56.5"/>
<text text-anchor="start" x="586" y="-74.5" font-family="Helvetica,sans-Serif" font-size="10.00" fill="#000000">drake/common/drake</text>
<text text-anchor="middle" x="638.5" y="-63.5" font-family="Helvetica,sans-Serif" font-size="10.00" fill="#000000">_copyable.h</text>
</a>
</g>
</g>
<!-- Node6&#45;&gt;Node11 -->
<g id="edge11" class="edge">
<title>Node6&#45;&gt;Node11</title>
<path fill="none" stroke="#191970" d="M517.9581,-134.3726C538.8992,-123.45 573.6192,-105.3407 600.432,-91.3556"/>
<polygon fill="#191970" stroke="#191970" points="602.3029,-94.3273 609.5507,-86.5995 599.0657,-88.1208 602.3029,-94.3273"/>
</g>
<!-- Node12 -->
<g id="node13" class="node">
<title>Node12</title>
<g id="a_node13"><a xlink:href="drake__optional_8h.html" target="_top" xlink:title="Provides drake::optional as an alias for the appropriate implementation of std::optional or std::expe...">
<polygon fill="#ffffff" stroke="#000000" points="717,-56.5 717,-86.5 838,-86.5 838,-56.5 717,-56.5"/>
<text text-anchor="start" x="725" y="-74.5" font-family="Helvetica,sans-Serif" font-size="10.00" fill="#000000">drake/common/drake</text>
<text text-anchor="middle" x="777.5" y="-63.5" font-family="Helvetica,sans-Serif" font-size="10.00" fill="#000000">_optional.h</text>
</a>
</g>
</g>
<!-- Node6&#45;&gt;Node12 -->
<g id="edge12" class="edge">
<title>Node6&#45;&gt;Node12</title>
<path fill="none" stroke="#191970" d="M536.1295,-134.4473C580.1987,-122.9545 655.0737,-103.4277 709.7679,-89.1639"/>
<polygon fill="#191970" stroke="#191970" points="710.9406,-92.4753 719.7337,-86.5649 709.1741,-85.7018 710.9406,-92.4753"/>
</g>
<!-- Node10 -->
<g id="node11" class="node">
<title>Node10</title>
<polygon fill="#ffffff" stroke="#bfbfbf" points="465,-.5 465,-19.5 534,-19.5 534,-.5 465,-.5"/>
<text text-anchor="middle" x="499.5" y="-7.5" font-family="Helvetica,sans-Serif" font-size="10.00" fill="#000000">type_traits</text>
</g>
<!-- Node9&#45;&gt;Node10 -->
<g id="edge10" class="edge">
<title>Node9&#45;&gt;Node10</title>
<path fill="none" stroke="#191970" d="M499.5,-56.2977C499.5,-48.3834 499.5,-38.6043 499.5,-30.0759"/>
<polygon fill="#191970" stroke="#191970" points="503.0001,-29.8469 499.5,-19.8469 496.0001,-29.847 503.0001,-29.8469"/>
</g>
<!-- Node13 -->
<g id="node14" class="node">
<title>Node13</title>
<polygon fill="#ffffff" stroke="#bfbfbf" points="676.5,-.5 676.5,-19.5 766.5,-19.5 766.5,-.5 676.5,-.5"/>
<text text-anchor="middle" x="721.5" y="-7.5" font-family="Helvetica,sans-Serif" font-size="10.00" fill="#000000">stx/variant.hpp</text>
</g>
<!-- Node12&#45;&gt;Node13 -->
<g id="edge13" class="edge">
<title>Node12&#45;&gt;Node13</title>
<path fill="none" stroke="#191970" d="M763.6573,-56.2977C755.641,-47.4941 745.5238,-36.3833 737.21,-27.2529"/>
<polygon fill="#191970" stroke="#191970" points="739.7869,-24.8845 730.4663,-19.8469 734.6112,-29.5974 739.7869,-24.8845"/>
</g>
<!-- Node14 -->
<g id="node15" class="node">
<title>Node14</title>
<polygon fill="#ffffff" stroke="#bfbfbf" points="785,-.5 785,-19.5 880,-19.5 880,-.5 785,-.5"/>
<text text-anchor="middle" x="832.5" y="-7.5" font-family="Helvetica,sans-Serif" font-size="10.00" fill="#000000">stx/optional.hpp</text>
</g>
<!-- Node12&#45;&gt;Node14 -->
<g id="edge14" class="edge">
<title>Node12&#45;&gt;Node14</title>
<path fill="none" stroke="#191970" d="M791.0955,-56.2977C798.8891,-47.5831 808.7047,-36.6075 816.8226,-27.5302"/>
<polygon fill="#191970" stroke="#191970" points="819.6365,-29.6341 823.6938,-19.8469 814.4187,-24.9678 819.6365,-29.6341"/>
</g>
</g>
</svg>
        <g id="navigator" transform="translate(0 0)" fill="#404254">
                <rect fill="#f2f5e9" fill-opacity="0.5" stroke="#606060" stroke-width=".5" x="0" y="0" width="60" height="60"/>
                <use id="zoomplus" xlink:href="#zoomPlus" x="17" y="9" onmousedown="handleZoom(evt,'in')"/>
                <use id="zoomminus" xlink:href="#zoomMin" x="42" y="9" onmousedown="handleZoom(evt,'out')"/>
                <use id="reset" xlink:href="#resetDef" x="30" y="36" onmousedown="handleReset()"/>
                <g id="arrowUp" xlink:href="#dirArrow" transform="translate(30 24)" onmousedown="handlePan(0,-1)">
                  <use xlink:href="#rim" fill="#404040">
                        <set attributeName="fill" to="#808080" begin="arrowUp.mouseover" end="arrowUp.mouseout"/>
                  </use>
                  <path fill="none" stroke="white" stroke-width="1.5" d="M0,-3.0v7 M-2.5,-0.5L0,-3.0L2.5,-0.5"/>
                </g>
                <g id="arrowRight" xlink:href="#dirArrow" transform="rotate(90) translate(36 -43)" onmousedown="handlePan(1,0)">
                  <use xlink:href="#rim" fill="#404040">
                        <set attributeName="fill" to="#808080" begin="arrowRight.mouseover" end="arrowRight.mouseout"/>
                  </use>
                  <path fill="none" stroke="white" stroke-width="1.5" d="M0,-3.0v7 M-2.5,-0.5L0,-3.0L2.5,-0.5"/>
                </g>
                <g id="arrowDown" xlink:href="#dirArrow" transform="rotate(180) translate(-30 -48)" onmousedown="handlePan(0,1)">
                  <use xlink:href="#rim" fill="#404040">
                        <set attributeName="fill" to="#808080" begin="arrowDown.mouseover" end="arrowDown.mouseout"/>
                  </use>
                  <path fill="none" stroke="white" stroke-width="1.5" d="M0,-3.0v7 M-2.5,-0.5L0,-3.0L2.5,-0.5"/>
                </g>
                <g id="arrowLeft" xlink:href="#dirArrow" transform="rotate(270) translate(-36 17)" onmousedown="handlePan(-1,0)">
                  <use xlink:href="#rim" fill="#404040">
                        <set attributeName="fill" to="#808080" begin="arrowLeft.mouseover" end="arrowLeft.mouseout"/>
                  </use>
                  <path fill="none" stroke="white" stroke-width="1.5" d="M0,-3.0v7 M-2.5,-0.5L0,-3.0L2.5,-0.5"/>
                </g>
        </g>
        <svg viewBox="0 0 15 15" width="100%" height="30px" preserveAspectRatio="xMaxYMin meet">
         <g id="arrow_out" transform="scale(0.3 0.3)">
          <a xlink:href="world__sim__tree__builder_8cc__incl_org.svg" target="_base">
           <rect id="button" ry="5" rx="5" y="6" x="6" height="38" width="38"
                fill="#f2f5e9" fill-opacity="0.5" stroke="#606060" stroke-width="1.0"/>
           <path id="arrow"
             d="M 11.500037,31.436501 C 11.940474,20.09759 22.043105,11.32322 32.158766,21.979434 L 37.068811,17.246167 C 37.068811,17.246167 37.088388,32 37.088388,32 L 22.160133,31.978069 C 22.160133,31.978069 26.997745,27.140456 26.997745,27.140456 C 18.528582,18.264221 13.291696,25.230495 11.500037,31.436501 z"
             style="fill:#404040;"/>
          </a>
         </g>
        </svg>
</svg>
