<?xml version="1.0" encoding="UTF-8" standalone="no"?>
<!DOCTYPE svg PUBLIC "-//W3C//DTD SVG 1.1//EN"
 "http://www.w3.org/Graphics/SVG/1.1/DTD/svg11.dtd">
<!-- Generated by graphviz version 2.40.1 (20161225.0304)
 -->
<!-- Title: drake/attic/manipulation/util/world_sim_tree_builder.h Pages: 1 -->
<svg width="534pt" height="117pt"
 viewBox="0.00 0.00 534.00 117.00" xmlns="http://www.w3.org/2000/svg" xmlns:xlink="http://www.w3.org/1999/xlink">
<g id="graph0" class="graph" transform="scale(1 1) rotate(0) translate(4 113)">
<title>drake/attic/manipulation/util/world_sim_tree_builder.h</title>
<polygon fill="#ffffff" stroke="transparent" points="-4,4 -4,-113 530,-113 530,4 -4,4"/>
<!-- Node0 -->
<g id="node1" class="node">
<title>Node0</title>
<polygon fill="#bfbfbf" stroke="#000000" points="104.5,-78.5 104.5,-108.5 265.5,-108.5 265.5,-78.5 104.5,-78.5"/>
<text text-anchor="start" x="112.5" y="-96.5" font-family="Helvetica,sans-Serif" font-size="10.00" fill="#000000">drake/attic/manipulation</text>
<text text-anchor="middle" x="185" y="-85.5" font-family="Helvetica,sans-Serif" font-size="10.00" fill="#000000">/util/world_sim_tree_builder.h</text>
</g>
<!-- Node1 -->
<g id="node2" class="node">
<title>Node1</title>
<polygon fill="#ffffff" stroke="#bfbfbf" points="0,-11.5 0,-30.5 38,-30.5 38,-11.5 0,-11.5"/>
<text text-anchor="middle" x="19" y="-18.5" font-family="Helvetica,sans-Serif" font-size="10.00" fill="#000000">map</text>
</g>
<!-- Node0&#45;&gt;Node1 -->
<g id="edge1" class="edge">
<title>Node0&#45;&gt;Node1</title>
<path fill="none" stroke="#191970" d="M134.3065,-78.4603C107.5337,-69.5674 74.5983,-57.0892 47,-42 44.0677,-40.3968 41.1029,-38.5131 38.255,-36.5435"/>
<polygon fill="#191970" stroke="#191970" points="40.3265,-33.7223 30.2111,-30.5714 36.1538,-39.3427 40.3265,-33.7223"/>
</g>
<!-- Node2 -->
<g id="node3" class="node">
<title>Node2</title>
<polygon fill="#ffffff" stroke="#bfbfbf" points="56,-11.5 56,-30.5 114,-30.5 114,-11.5 56,-11.5"/>
<text text-anchor="middle" x="85" y="-18.5" font-family="Helvetica,sans-Serif" font-size="10.00" fill="#000000">memory</text>
</g>
<!-- Node0&#45;&gt;Node2 -->
<g id="edge2" class="edge">
<title>Node0&#45;&gt;Node2</title>
<path fill="none" stroke="#191970" d="M164.2799,-78.478C147.4241,-66.2574 123.7135,-49.0673 106.6197,-36.6743"/>
<polygon fill="#191970" stroke="#191970" points="108.5057,-33.7186 98.3552,-30.6825 104.3969,-39.3859 108.5057,-33.7186"/>
</g>
<!-- Node3 -->
<g id="node4" class="node">
<title>Node3</title>
<polygon fill="#ffffff" stroke="#bfbfbf" points="132,-11.5 132,-30.5 176,-30.5 176,-11.5 132,-11.5"/>
<text text-anchor="middle" x="154" y="-18.5" font-family="Helvetica,sans-Serif" font-size="10.00" fill="#000000">string</text>
</g>
<!-- Node0&#45;&gt;Node3 -->
<g id="edge3" class="edge">
<title>Node0&#45;&gt;Node3</title>
<path fill="none" stroke="#191970" d="M178.5768,-78.478C173.8583,-67.4428 167.407,-52.3552 162.2981,-40.4068"/>
<polygon fill="#191970" stroke="#191970" points="165.381,-38.7143 158.2312,-30.8957 158.9447,-41.4665 165.381,-38.7143"/>
</g>
<!-- Node4 -->
<g id="node5" class="node">
<title>Node4</title>
<polygon fill="#ffffff" stroke="#bfbfbf" points="194.5,-11.5 194.5,-30.5 239.5,-30.5 239.5,-11.5 194.5,-11.5"/>
<text text-anchor="middle" x="217" y="-18.5" font-family="Helvetica,sans-Serif" font-size="10.00" fill="#000000">utility</text>
</g>
<!-- Node0&#45;&gt;Node4 -->
<g id="edge4" class="edge">
<title>Node0&#45;&gt;Node4</title>
<path fill="none" stroke="#191970" d="M191.6304,-78.478C196.5503,-67.3313 203.2952,-52.05 208.5936,-40.0457"/>
<polygon fill="#191970" stroke="#191970" points="211.7962,-41.4575 212.6323,-30.8957 205.3923,-38.6309 211.7962,-41.4575"/>
</g>
<!-- Node5 -->
<g id="node6" class="node">
<title>Node5</title>
<polygon fill="#ffffff" stroke="#bfbfbf" points="258,-.5 258,-41.5 386,-41.5 386,-.5 258,-.5"/>
<text text-anchor="start" x="266" y="-29.5" font-family="Helvetica,sans-Serif" font-size="10.00" fill="#000000">drake/multibody/rigid</text>
<text text-anchor="start" x="266" y="-18.5" font-family="Helvetica,sans-Serif" font-size="10.00" fill="#000000">_body_plant/compliant</text>
<text text-anchor="middle" x="322" y="-7.5" font-family="Helvetica,sans-Serif" font-size="10.00" fill="#000000">_contact_model.h</text>
</g>
<!-- Node0&#45;&gt;Node5 -->
<g id="edge5" class="edge">
<title>Node0&#45;&gt;Node5</title>
<path fill="none" stroke="#191970" d="M213.3865,-78.478C230.9217,-69.1984 253.8719,-57.0532 274.1561,-46.3189"/>
<polygon fill="#191970" stroke="#191970" points="276.0577,-49.2725 283.2592,-41.5015 272.7834,-43.0854 276.0577,-49.2725"/>
</g>
<!-- Node6 -->
<g id="node7" class="node">
<title>Node6</title>
<polygon fill="#ffffff" stroke="#bfbfbf" points="404,-6 404,-36 526,-36 526,-6 404,-6"/>
<text text-anchor="start" x="412" y="-24" font-family="Helvetica,sans-Serif" font-size="10.00" fill="#000000">drake/multibody/rigid</text>
<text text-anchor="middle" x="465" y="-13" font-family="Helvetica,sans-Serif" font-size="10.00" fill="#000000">_body_tree.h</text>
</g>
<!-- Node0&#45;&gt;Node6 -->
<g id="edge6" class="edge">
<title>Node0&#45;&gt;Node6</title>
<path fill="none" stroke="#191970" d="M250.0221,-78.4572C291.617,-68.6117 346.6481,-55.1725 395,-42 398.749,-40.9787 402.6028,-39.9011 406.4827,-38.7955"/>
<polygon fill="#191970" stroke="#191970" points="407.5011,-42.1445 416.1359,-36.0053 405.5573,-35.4198 407.5011,-42.1445"/>
</g>
</g>
</svg>
