<?xml version="1.0" encoding="UTF-8" standalone="no"?>
<!DOCTYPE svg PUBLIC "-//W3C//DTD SVG 1.1//EN"
 "http://www.w3.org/Graphics/SVG/1.1/DTD/svg11.dtd">
<!-- Generated by graphviz version 2.40.1 (20161225.0304)
 -->
<!-- Title: drake/examples/kuka_iiwa_arm/pick_and_place/world_state.h Pages: 1 -->
<svg width="598pt" height="295pt"
 viewBox="0.00 0.00 598.00 295.00" xmlns="http://www.w3.org/2000/svg" xmlns:xlink="http://www.w3.org/1999/xlink">
<g id="graph0" class="graph" transform="scale(1 1) rotate(0) translate(4 291)">
<title>drake/examples/kuka_iiwa_arm/pick_and_place/world_state.h</title>
<polygon fill="#ffffff" stroke="transparent" points="-4,4 -4,-291 594,-291 594,4 -4,4"/>
<!-- Node10 -->
<g id="node1" class="node">
<title>Node10</title>
<polygon fill="#bfbfbf" stroke="#000000" points="231,-245.5 231,-286.5 376,-286.5 376,-245.5 231,-245.5"/>
<text text-anchor="start" x="239" y="-274.5" font-family="Helvetica,sans-Serif" font-size="10.00" fill="#000000">drake/examples/kuka</text>
<text text-anchor="start" x="239" y="-263.5" font-family="Helvetica,sans-Serif" font-size="10.00" fill="#000000">_iiwa_arm/pick_and_place</text>
<text text-anchor="middle" x="303.5" y="-252.5" font-family="Helvetica,sans-Serif" font-size="10.00" fill="#000000">/world_state.h</text>
</g>
<!-- Node11 -->
<g id="node2" class="node">
<title>Node11</title>
<g id="a_node2"><a xlink:href="action_8h.html" target="_top" xlink:title="drake/examples/kuka\l_iiwa_arm/pick_and_place\l/action.h">
<polygon fill="#ffffff" stroke="#000000" points="80,-167.5 80,-208.5 225,-208.5 225,-167.5 80,-167.5"/>
<text text-anchor="start" x="88" y="-196.5" font-family="Helvetica,sans-Serif" font-size="10.00" fill="#000000">drake/examples/kuka</text>
<text text-anchor="start" x="88" y="-185.5" font-family="Helvetica,sans-Serif" font-size="10.00" fill="#000000">_iiwa_arm/pick_and_place</text>
<text text-anchor="middle" x="152.5" y="-174.5" font-family="Helvetica,sans-Serif" font-size="10.00" fill="#000000">/action.h</text>
</a>
</g>
</g>
<!-- Node10&#45;&gt;Node11 -->
<g id="edge1" class="edge">
<title>Node10&#45;&gt;Node11</title>
<path fill="none" stroke="#191970" d="M254.4079,-240.6411C234.2766,-230.2422 211.2793,-218.3628 192.2321,-208.5239"/>
<polygon fill="#191970" stroke="#191970" points="252.9402,-243.8224 263.4312,-245.3022 256.1529,-237.6031 252.9402,-243.8224"/>
</g>
<!-- Node13 -->
<g id="node4" class="node">
<title>Node13</title>
<g id="a_node4"><a xlink:href="pick__and__place__state__machine_8h.html" target="_top" xlink:title="drake/examples/kuka\l_iiwa_arm/pick_and_place\l/pick_and_place_state_machine.h">
<polygon fill="#ffffff" stroke="#000000" points="163,-89.5 163,-130.5 344,-130.5 344,-89.5 163,-89.5"/>
<text text-anchor="start" x="171" y="-118.5" font-family="Helvetica,sans-Serif" font-size="10.00" fill="#000000">drake/examples/kuka</text>
<text text-anchor="start" x="171" y="-107.5" font-family="Helvetica,sans-Serif" font-size="10.00" fill="#000000">_iiwa_arm/pick_and_place</text>
<text text-anchor="middle" x="253.5" y="-96.5" font-family="Helvetica,sans-Serif" font-size="10.00" fill="#000000">/pick_and_place_state_machine.h</text>
</a>
</g>
</g>
<!-- Node10&#45;&gt;Node13 -->
<g id="edge6" class="edge">
<title>Node10&#45;&gt;Node13</title>
<path fill="none" stroke="#191970" d="M285.1902,-236.4533C280.4842,-227.8507 275.8188,-218.268 272.5,-209 263.1188,-182.8022 258.0614,-150.957 255.5757,-130.5855"/>
<polygon fill="#191970" stroke="#191970" points="282.2615,-238.3834 290.2507,-245.3421 288.3447,-234.9201 282.2615,-238.3834"/>
</g>
<!-- Node16 -->
<g id="node7" class="node">
<title>Node16</title>
<g id="a_node7"><a xlink:href="world__state__test_8cc.html" target="_top" xlink:title="drake/examples/kuka\l_iiwa_arm/pick_and_place\l/test/world_state_test.cc">
<polygon fill="#ffffff" stroke="#000000" points="282,-167.5 282,-208.5 427,-208.5 427,-167.5 282,-167.5"/>
<text text-anchor="start" x="290" y="-196.5" font-family="Helvetica,sans-Serif" font-size="10.00" fill="#000000">drake/examples/kuka</text>
<text text-anchor="start" x="290" y="-185.5" font-family="Helvetica,sans-Serif" font-size="10.00" fill="#000000">_iiwa_arm/pick_and_place</text>
<text text-anchor="middle" x="354.5" y="-174.5" font-family="Helvetica,sans-Serif" font-size="10.00" fill="#000000">/test/world_state_test.cc</text>
</a>
</g>
</g>
<!-- Node10&#45;&gt;Node16 -->
<g id="edge7" class="edge">
<title>Node10&#45;&gt;Node16</title>
<path fill="none" stroke="#191970" d="M322.7766,-236.5181C328.8377,-227.2482 335.3984,-217.2141 340.9721,-208.6898"/>
<polygon fill="#191970" stroke="#191970" points="319.7102,-234.8123 317.1671,-245.0974 325.569,-238.6431 319.7102,-234.8123"/>
</g>
<!-- Node17 -->
<g id="node8" class="node">
<title>Node17</title>
<g id="a_node8"><a xlink:href="world__state_8cc.html" target="_top" xlink:title="drake/examples/kuka\l_iiwa_arm/pick_and_place\l/world_state.cc">
<polygon fill="#ffffff" stroke="#000000" points="445,-167.5 445,-208.5 590,-208.5 590,-167.5 445,-167.5"/>
<text text-anchor="start" x="453" y="-196.5" font-family="Helvetica,sans-Serif" font-size="10.00" fill="#000000">drake/examples/kuka</text>
<text text-anchor="start" x="453" y="-185.5" font-family="Helvetica,sans-Serif" font-size="10.00" fill="#000000">_iiwa_arm/pick_and_place</text>
<text text-anchor="middle" x="517.5" y="-174.5" font-family="Helvetica,sans-Serif" font-size="10.00" fill="#000000">/world_state.cc</text>
</a>
</g>
</g>
<!-- Node10&#45;&gt;Node17 -->
<g id="edge8" class="edge">
<title>Node10&#45;&gt;Node17</title>
<path fill="none" stroke="#191970" d="M369.7284,-241.8607C398.9836,-231.1976 433.0203,-218.7917 461.0488,-208.5757"/>
<polygon fill="#191970" stroke="#191970" points="368.2027,-238.6915 360.0059,-245.4044 370.5999,-245.2682 368.2027,-238.6915"/>
</g>
<!-- Node12 -->
<g id="node3" class="node">
<title>Node12</title>
<g id="a_node3"><a xlink:href="action_8cc.html" target="_top" xlink:title="drake/examples/kuka\l_iiwa_arm/pick_and_place\l/action.cc">
<polygon fill="#ffffff" stroke="#000000" points="0,-89.5 0,-130.5 145,-130.5 145,-89.5 0,-89.5"/>
<text text-anchor="start" x="8" y="-118.5" font-family="Helvetica,sans-Serif" font-size="10.00" fill="#000000">drake/examples/kuka</text>
<text text-anchor="start" x="8" y="-107.5" font-family="Helvetica,sans-Serif" font-size="10.00" fill="#000000">_iiwa_arm/pick_and_place</text>
<text text-anchor="middle" x="72.5" y="-96.5" font-family="Helvetica,sans-Serif" font-size="10.00" fill="#000000">/action.cc</text>
</a>
</g>
</g>
<!-- Node11&#45;&gt;Node12 -->
<g id="edge2" class="edge">
<title>Node11&#45;&gt;Node12</title>
<path fill="none" stroke="#191970" d="M123.7259,-159.9452C113.8196,-150.2866 102.9139,-139.6535 93.7203,-130.6898"/>
<polygon fill="#191970" stroke="#191970" points="121.4581,-162.6224 131.0615,-167.0974 126.3448,-157.6104 121.4581,-162.6224"/>
</g>
<!-- Node11&#45;&gt;Node13 -->
<g id="edge3" class="edge">
<title>Node11&#45;&gt;Node13</title>
<path fill="none" stroke="#191970" d="M187.5361,-160.9424C200.457,-150.9639 214.8727,-139.831 226.9242,-130.5239"/>
<polygon fill="#191970" stroke="#191970" points="185.0763,-158.4198 179.301,-167.3022 189.3549,-163.96 185.0763,-158.4198"/>
</g>
<!-- Node14 -->
<g id="node5" class="node">
<title>Node14</title>
<g id="a_node5"><a xlink:href="pick__and__place__state__machine_8cc.html" target="_top" xlink:title="drake/examples/kuka\l_iiwa_arm/pick_and_place\l/pick_and_place_state_machine.cc">
<polygon fill="#ffffff" stroke="#000000" points="69,-6 69,-47 254,-47 254,-6 69,-6"/>
<text text-anchor="start" x="77" y="-35" font-family="Helvetica,sans-Serif" font-size="10.00" fill="#000000">drake/examples/kuka</text>
<text text-anchor="start" x="77" y="-24" font-family="Helvetica,sans-Serif" font-size="10.00" fill="#000000">_iiwa_arm/pick_and_place</text>
<text text-anchor="middle" x="161.5" y="-13" font-family="Helvetica,sans-Serif" font-size="10.00" fill="#000000">/pick_and_place_state_machine.cc</text>
</a>
</g>
</g>
<!-- Node13&#45;&gt;Node14 -->
<g id="edge4" class="edge">
<title>Node13&#45;&gt;Node14</title>
<path fill="none" stroke="#191970" d="M223.1474,-82.4517C210.4859,-70.9601 196.029,-57.8388 184.2988,-47.1924"/>
<polygon fill="#191970" stroke="#191970" points="221.0013,-85.2305 230.7584,-89.3595 225.7058,-80.0471 221.0013,-85.2305"/>
</g>
<!-- Node15 -->
<g id="node6" class="node">
<title>Node15</title>
<g id="a_node6"><a xlink:href="pick__and__place__state__machine__test_8cc.html" target="_top" xlink:title="drake/examples/kuka\l_iiwa_arm/pick_and_place\l/test/pick_and_place_state\l_machine_test.cc">
<polygon fill="#ffffff" stroke="#000000" points="272.5,-.5 272.5,-52.5 418.5,-52.5 418.5,-.5 272.5,-.5"/>
<text text-anchor="start" x="280.5" y="-40.5" font-family="Helvetica,sans-Serif" font-size="10.00" fill="#000000">drake/examples/kuka</text>
<text text-anchor="start" x="280.5" y="-29.5" font-family="Helvetica,sans-Serif" font-size="10.00" fill="#000000">_iiwa_arm/pick_and_place</text>
<text text-anchor="start" x="280.5" y="-18.5" font-family="Helvetica,sans-Serif" font-size="10.00" fill="#000000">/test/pick_and_place_state</text>
<text text-anchor="middle" x="345.5" y="-7.5" font-family="Helvetica,sans-Serif" font-size="10.00" fill="#000000">_machine_test.cc</text>
</a>
</g>
</g>
<!-- Node13&#45;&gt;Node15 -->
<g id="edge5" class="edge">
<title>Node13&#45;&gt;Node15</title>
<path fill="none" stroke="#191970" d="M283.7153,-82.5763C294.3423,-72.9311 306.2484,-62.1251 316.7513,-52.5925"/>
<polygon fill="#191970" stroke="#191970" points="281.2942,-80.0471 276.2416,-89.3595 285.9987,-85.2305 281.2942,-80.0471"/>
</g>
</g>
</svg>
