<?xml version="1.0" encoding="UTF-8" standalone="no"?>
<!DOCTYPE svg PUBLIC "-//W3C//DTD SVG 1.1//EN"
 "http://www.w3.org/Graphics/SVG/1.1/DTD/svg11.dtd">
<!-- Generated by graphviz version 2.40.1 (20161225.0304)
 -->
<!-- Title: drake/bindings/pydrake/common/wrap_pybind.h Pages: 1 -->
<svg width="145pt" height="117pt"
 viewBox="0.00 0.00 145.00 117.00" xmlns="http://www.w3.org/2000/svg" xmlns:xlink="http://www.w3.org/1999/xlink">
<g id="graph0" class="graph" transform="scale(1 1) rotate(0) translate(4 113)">
<title>drake/bindings/pydrake/common/wrap_pybind.h</title>
<polygon fill="#ffffff" stroke="transparent" points="-4,4 -4,-113 141,-113 141,4 -4,4"/>
<!-- Node9 -->
<g id="node1" class="node">
<title>Node9</title>
<polygon fill="#bfbfbf" stroke="#000000" points="0,-78.5 0,-108.5 137,-108.5 137,-78.5 0,-78.5"/>
<text text-anchor="start" x="8" y="-96.5" font-family="Helvetica,sans-Serif" font-size="10.00" fill="#000000">drake/bindings/pydrake</text>
<text text-anchor="middle" x="68.5" y="-85.5" font-family="Helvetica,sans-Serif" font-size="10.00" fill="#000000">/common/wrap_pybind.h</text>
</g>
<!-- Node10 -->
<g id="node2" class="node">
<title>Node10</title>
<g id="a_node2"><a xlink:href="wrap__test__util__py_8cc.html" target="_top" xlink:title="drake/bindings/pydrake\l/common/test/wrap_test\l_util_py.cc">
<polygon fill="#ffffff" stroke="#000000" points="1,-.5 1,-41.5 136,-41.5 136,-.5 1,-.5"/>
<text text-anchor="start" x="9" y="-29.5" font-family="Helvetica,sans-Serif" font-size="10.00" fill="#000000">drake/bindings/pydrake</text>
<text text-anchor="start" x="9" y="-18.5" font-family="Helvetica,sans-Serif" font-size="10.00" fill="#000000">/common/test/wrap_test</text>
<text text-anchor="middle" x="68.5" y="-7.5" font-family="Helvetica,sans-Serif" font-size="10.00" fill="#000000">_util_py.cc</text>
</a>
</g>
</g>
<!-- Node9&#45;&gt;Node10 -->
<g id="edge1" class="edge">
<title>Node9&#45;&gt;Node10</title>
<path fill="none" stroke="#191970" d="M68.5,-68.4016C68.5,-59.6173 68.5,-49.8652 68.5,-41.5015"/>
<polygon fill="#191970" stroke="#191970" points="65.0001,-68.4779 68.5,-78.478 72.0001,-68.478 65.0001,-68.4779"/>
</g>
</g>
</svg>
