<?xml version="1.0" encoding="UTF-8" standalone="no"?>
<!DOCTYPE svg PUBLIC "-//W3C//DTD SVG 1.1//EN"
 "http://www.w3.org/Graphics/SVG/1.1/DTD/svg11.dtd">
<!-- Generated by graphviz version 2.40.1 (20161225.0304)
 -->
<!-- Title: drake/bindings/pydrake/common/wrap_function.h Pages: 1 -->
<svg width="320pt" height="195pt"
 viewBox="0.00 0.00 319.50 195.00" xmlns="http://www.w3.org/2000/svg" xmlns:xlink="http://www.w3.org/1999/xlink">
<g id="graph0" class="graph" transform="scale(1 1) rotate(0) translate(4 191)">
<title>drake/bindings/pydrake/common/wrap_function.h</title>
<polygon fill="#ffffff" stroke="transparent" points="-4,4 -4,-191 315.5,-191 315.5,4 -4,4"/>
<!-- Node4 -->
<g id="node1" class="node">
<title>Node4</title>
<polygon fill="#bfbfbf" stroke="#000000" points="88.5,-156.5 88.5,-186.5 231.5,-186.5 231.5,-156.5 88.5,-156.5"/>
<text text-anchor="start" x="96.5" y="-174.5" font-family="Helvetica,sans-Serif" font-size="10.00" fill="#000000">drake/bindings/pydrake</text>
<text text-anchor="middle" x="160" y="-163.5" font-family="Helvetica,sans-Serif" font-size="10.00" fill="#000000">/common/wrap_function.h</text>
</g>
<!-- Node5 -->
<g id="node2" class="node">
<title>Node5</title>
<g id="a_node2"><a xlink:href="wrap__function__test_8cc.html" target="_top" xlink:title="drake/bindings/pydrake\l/common/test/wrap_function\l_test.cc">
<polygon fill="#ffffff" stroke="#000000" points="0,-78.5 0,-119.5 156,-119.5 156,-78.5 0,-78.5"/>
<text text-anchor="start" x="8" y="-107.5" font-family="Helvetica,sans-Serif" font-size="10.00" fill="#000000">drake/bindings/pydrake</text>
<text text-anchor="start" x="8" y="-96.5" font-family="Helvetica,sans-Serif" font-size="10.00" fill="#000000">/common/test/wrap_function</text>
<text text-anchor="middle" x="78" y="-85.5" font-family="Helvetica,sans-Serif" font-size="10.00" fill="#000000">_test.cc</text>
</a>
</g>
</g>
<!-- Node4&#45;&gt;Node5 -->
<g id="edge1" class="edge">
<title>Node4&#45;&gt;Node5</title>
<path fill="none" stroke="#191970" d="M135.48,-149.8207C124.6139,-140.2135 111.895,-128.9681 101.1879,-119.5015"/>
<polygon fill="#191970" stroke="#191970" points="133.1995,-152.4763 143.0095,-156.478 137.8361,-147.232 133.1995,-152.4763"/>
</g>
<!-- Node6 -->
<g id="node3" class="node">
<title>Node6</title>
<g id="a_node3"><a xlink:href="wrap__pybind_8h.html" target="_top" xlink:title="Defines convenience utilities to wrap pybind11 methods and classes. ">
<polygon fill="#ffffff" stroke="#000000" points="174.5,-84 174.5,-114 311.5,-114 311.5,-84 174.5,-84"/>
<text text-anchor="start" x="182.5" y="-102" font-family="Helvetica,sans-Serif" font-size="10.00" fill="#000000">drake/bindings/pydrake</text>
<text text-anchor="middle" x="243" y="-91" font-family="Helvetica,sans-Serif" font-size="10.00" fill="#000000">/common/wrap_pybind.h</text>
</a>
</g>
</g>
<!-- Node4&#45;&gt;Node6 -->
<g id="edge2" class="edge">
<title>Node4&#45;&gt;Node6</title>
<path fill="none" stroke="#191970" d="M185.0055,-149.6579C198.1923,-138.1393 214.0329,-124.3026 225.8244,-114.0028"/>
<polygon fill="#191970" stroke="#191970" points="182.4265,-147.2633 177.1977,-156.478 187.0316,-152.5353 182.4265,-147.2633"/>
</g>
<!-- Node7 -->
<g id="node4" class="node">
<title>Node7</title>
<g id="a_node4"><a xlink:href="wrap__test__util__py_8cc.html" target="_top" xlink:title="drake/bindings/pydrake\l/common/test/wrap_test\l_util_py.cc">
<polygon fill="#ffffff" stroke="#000000" points="175.5,-.5 175.5,-41.5 310.5,-41.5 310.5,-.5 175.5,-.5"/>
<text text-anchor="start" x="183.5" y="-29.5" font-family="Helvetica,sans-Serif" font-size="10.00" fill="#000000">drake/bindings/pydrake</text>
<text text-anchor="start" x="183.5" y="-18.5" font-family="Helvetica,sans-Serif" font-size="10.00" fill="#000000">/common/test/wrap_test</text>
<text text-anchor="middle" x="243" y="-7.5" font-family="Helvetica,sans-Serif" font-size="10.00" fill="#000000">_util_py.cc</text>
</a>
</g>
</g>
<!-- Node6&#45;&gt;Node7 -->
<g id="edge3" class="edge">
<title>Node6&#45;&gt;Node7</title>
<path fill="none" stroke="#191970" d="M243,-73.8044C243,-63.3919 243,-51.4721 243,-41.5956"/>
<polygon fill="#191970" stroke="#191970" points="239.5001,-73.9608 243,-83.9608 246.5001,-73.9608 239.5001,-73.9608"/>
</g>
</g>
</svg>
