<?xml version="1.0" encoding="UTF-8" standalone="no"?>
<!DOCTYPE svg PUBLIC "-//W3C//DTD SVG 1.1//EN"
 "http://www.w3.org/Graphics/SVG/1.1/DTD/svg11.dtd">
<!-- Generated by graphviz version 2.40.1 (20161225.0304)
 -->
<!-- Title: drake/attic/multibody/parsers/xml_util.h Pages: 1 -->
<svg width="432pt" height="106pt"
 viewBox="0.00 0.00 431.50 106.00" xmlns="http://www.w3.org/2000/svg" xmlns:xlink="http://www.w3.org/1999/xlink">
<g id="graph0" class="graph" transform="scale(1 1) rotate(0) translate(4 102)">
<title>drake/attic/multibody/parsers/xml_util.h</title>
<polygon fill="#ffffff" stroke="transparent" points="-4,4 -4,-102 427.5,-102 427.5,4 -4,4"/>
<!-- Node0 -->
<g id="node1" class="node">
<title>Node0</title>
<polygon fill="#bfbfbf" stroke="#000000" points="96,-67.5 96,-97.5 218,-97.5 218,-67.5 96,-67.5"/>
<text text-anchor="start" x="104" y="-85.5" font-family="Helvetica,sans-Serif" font-size="10.00" fill="#000000">drake/attic/multibody</text>
<text text-anchor="middle" x="157" y="-74.5" font-family="Helvetica,sans-Serif" font-size="10.00" fill="#000000">/parsers/xml_util.h</text>
</g>
<!-- Node1 -->
<g id="node2" class="node">
<title>Node1</title>
<polygon fill="#ffffff" stroke="#bfbfbf" points="0,-6 0,-25 38,-25 38,-6 0,-6"/>
<text text-anchor="middle" x="19" y="-13" font-family="Helvetica,sans-Serif" font-size="10.00" fill="#000000">map</text>
</g>
<!-- Node0&#45;&gt;Node1 -->
<g id="edge1" class="edge">
<title>Node0&#45;&gt;Node1</title>
<path fill="none" stroke="#191970" d="M123.0136,-67.3077C101.1288,-57.3487 72.1701,-43.8402 47,-31 46.3133,-30.6497 45.6187,-30.2918 44.9192,-29.9282"/>
<polygon fill="#191970" stroke="#191970" points="46.2476,-26.6692 35.7802,-25.0303 42.9409,-32.839 46.2476,-26.6692"/>
</g>
<!-- Node2 -->
<g id="node3" class="node">
<title>Node2</title>
<polygon fill="#ffffff" stroke="#bfbfbf" points="56,-6 56,-25 100,-25 100,-6 56,-6"/>
<text text-anchor="middle" x="78" y="-13" font-family="Helvetica,sans-Serif" font-size="10.00" fill="#000000">string</text>
</g>
<!-- Node0&#45;&gt;Node2 -->
<g id="edge2" class="edge">
<title>Node0&#45;&gt;Node2</title>
<path fill="none" stroke="#191970" d="M139.0737,-67.2967C126.5261,-56.6551 109.7889,-42.4602 97.0091,-31.6217"/>
<polygon fill="#191970" stroke="#191970" points="99.1567,-28.8538 89.2663,-25.055 94.629,-34.1924 99.1567,-28.8538"/>
</g>
<!-- Node3 -->
<g id="node4" class="node">
<title>Node3</title>
<polygon fill="#ffffff" stroke="#bfbfbf" points="118.5,-6 118.5,-25 195.5,-25 195.5,-6 118.5,-6"/>
<text text-anchor="middle" x="157" y="-13" font-family="Helvetica,sans-Serif" font-size="10.00" fill="#000000">Eigen/Dense</text>
</g>
<!-- Node0&#45;&gt;Node3 -->
<g id="edge3" class="edge">
<title>Node0&#45;&gt;Node3</title>
<path fill="none" stroke="#191970" d="M157,-67.2967C157,-57.7699 157,-45.3954 157,-35.1306"/>
<polygon fill="#191970" stroke="#191970" points="160.5001,-35.0549 157,-25.055 153.5001,-35.055 160.5001,-35.0549"/>
</g>
<!-- Node4 -->
<g id="node5" class="node">
<title>Node4</title>
<polygon fill="#ffffff" stroke="#bfbfbf" points="213.5,-6 213.5,-25 282.5,-25 282.5,-6 213.5,-6"/>
<text text-anchor="middle" x="248" y="-13" font-family="Helvetica,sans-Serif" font-size="10.00" fill="#000000">tinyxml2.h</text>
</g>
<!-- Node0&#45;&gt;Node4 -->
<g id="edge4" class="edge">
<title>Node0&#45;&gt;Node4</title>
<path fill="none" stroke="#191970" d="M177.6493,-67.2967C192.3781,-56.4524 212.1186,-41.9182 226.9396,-31.006"/>
<polygon fill="#191970" stroke="#191970" points="229.0447,-33.8025 235.0224,-25.055 224.8944,-28.1655 229.0447,-33.8025"/>
</g>
<!-- Node5 -->
<g id="node6" class="node">
<title>Node5</title>
<polygon fill="#ffffff" stroke="#bfbfbf" points="300.5,-.5 300.5,-30.5 423.5,-30.5 423.5,-.5 300.5,-.5"/>
<text text-anchor="start" x="308.5" y="-18.5" font-family="Helvetica,sans-Serif" font-size="10.00" fill="#000000">drake/multibody/pose</text>
<text text-anchor="middle" x="362" y="-7.5" font-family="Helvetica,sans-Serif" font-size="10.00" fill="#000000">_map.h</text>
</g>
<!-- Node0&#45;&gt;Node5 -->
<g id="edge5" class="edge">
<title>Node0&#45;&gt;Node5</title>
<path fill="none" stroke="#191970" d="M203.006,-67.4639C233.4957,-57.499 273.6841,-44.3642 306.0271,-33.7936"/>
<polygon fill="#191970" stroke="#191970" points="307.3754,-37.0352 315.7933,-30.6017 305.2008,-30.3815 307.3754,-37.0352"/>
</g>
</g>
</svg>
