<?xml version="1.0" encoding="UTF-8" standalone="no"?>
<!DOCTYPE svg PUBLIC "-//W3C//DTD SVG 1.1//EN"
 "http://www.w3.org/Graphics/SVG/1.1/DTD/svg11.dtd">
<!-- Generated by graphviz version 2.40.1 (20161225.0304)
 -->
<!-- Title: drake/attic/systems/controllers/zmpUtil.h Pages: 1 -->
<svg width="2303pt" height="519pt"
 viewBox="0.00 0.00 2302.50 519.00" xmlns="http://www.w3.org/2000/svg" xmlns:xlink="http://www.w3.org/1999/xlink">
<g id="graph0" class="graph" transform="scale(1 1) rotate(0) translate(4 515)">
<title>drake/attic/systems/controllers/zmpUtil.h</title>
<polygon fill="#ffffff" stroke="transparent" points="-4,4 -4,-515 2298.5,-515 2298.5,4 -4,4"/>
<!-- Node0 -->
<g id="node1" class="node">
<title>Node0</title>
<polygon fill="#bfbfbf" stroke="#000000" points="1916.5,-480.5 1916.5,-510.5 2038.5,-510.5 2038.5,-480.5 1916.5,-480.5"/>
<text text-anchor="start" x="1924.5" y="-498.5" font-family="Helvetica,sans-Serif" font-size="10.00" fill="#000000">drake/attic/systems</text>
<text text-anchor="middle" x="1977.5" y="-487.5" font-family="Helvetica,sans-Serif" font-size="10.00" fill="#000000">/controllers/zmpUtil.h</text>
</g>
<!-- Node1 -->
<g id="node2" class="node">
<title>Node1</title>
<polygon fill="#ffffff" stroke="#bfbfbf" points="1652,-140 1652,-159 1721,-159 1721,-140 1652,-140"/>
<text text-anchor="middle" x="1686.5" y="-147" font-family="Helvetica,sans-Serif" font-size="10.00" fill="#000000">Eigen/Core</text>
</g>
<!-- Node0&#45;&gt;Node1 -->
<g id="edge1" class="edge">
<title>Node0&#45;&gt;Node1</title>
<path fill="none" stroke="#191970" d="M1979.2682,-480.4818C1983.0336,-442.2335 1988.4995,-339.1503 1948.5,-268 1936.7989,-247.1863 1885.8502,-211.6908 1864.5,-201 1807.8225,-172.6197 1786.8173,-184.4833 1726.5,-165 1724.2277,-164.266 1721.8972,-163.4728 1719.5586,-162.6466"/>
<polygon fill="#191970" stroke="#191970" points="1720.6219,-159.3084 1710.0285,-159.1325 1718.2001,-165.8761 1720.6219,-159.3084"/>
</g>
<!-- Node2 -->
<g id="node3" class="node">
<title>Node2</title>
<g id="a_node3"><a xlink:href="exponential__plus__piecewise__polynomial_8h.html" target="_top" xlink:title="drake/common/trajectories\l/exponential_plus_piecewise\l_polynomial.h">
<polygon fill="#ffffff" stroke="#000000" points="1633,-402.5 1633,-443.5 1790,-443.5 1790,-402.5 1633,-402.5"/>
<text text-anchor="start" x="1641" y="-431.5" font-family="Helvetica,sans-Serif" font-size="10.00" fill="#000000">drake/common/trajectories</text>
<text text-anchor="start" x="1641" y="-420.5" font-family="Helvetica,sans-Serif" font-size="10.00" fill="#000000">/exponential_plus_piecewise</text>
<text text-anchor="middle" x="1711.5" y="-409.5" font-family="Helvetica,sans-Serif" font-size="10.00" fill="#000000">_polynomial.h</text>
</a>
</g>
</g>
<!-- Node0&#45;&gt;Node2 -->
<g id="edge2" class="edge">
<title>Node0&#45;&gt;Node2</title>
<path fill="none" stroke="#191970" d="M1922.3846,-480.478C1886.0377,-470.5714 1837.7084,-457.3989 1796.4866,-446.1636"/>
<polygon fill="#191970" stroke="#191970" points="1797.2878,-442.7544 1786.7193,-443.5015 1795.447,-449.508 1797.2878,-442.7544"/>
</g>
<!-- Node2&#45;&gt;Node1 -->
<g id="edge5" class="edge">
<title>Node2&#45;&gt;Node1</title>
<path fill="none" stroke="#191970" d="M1632.8149,-420.1281C1437.8109,-410.4146 958.712,-369.2038 1112.5,-201 1148.0013,-162.1709 1512.657,-152.3817 1641.6158,-150.1249"/>
<polygon fill="#191970" stroke="#191970" points="1641.9807,-153.6194 1651.9205,-149.9519 1641.8631,-146.6203 1641.9807,-153.6194"/>
</g>
<!-- Node3 -->
<g id="node4" class="node">
<title>Node3</title>
<polygon fill="#ffffff" stroke="#bfbfbf" points="2037.5,-6 2037.5,-25 2095.5,-25 2095.5,-6 2037.5,-6"/>
<text text-anchor="middle" x="2066.5" y="-13" font-family="Helvetica,sans-Serif" font-size="10.00" fill="#000000">memory</text>
</g>
<!-- Node2&#45;&gt;Node3 -->
<g id="edge3" class="edge">
<title>Node2&#45;&gt;Node3</title>
<path fill="none" stroke="#191970" d="M1790.1625,-417.6818C1932.5693,-405.879 2218.5,-371.2544 2218.5,-283.5 2218.5,-283.5 2218.5,-283.5 2218.5,-149.5 2218.5,-88.2118 2148.1047,-48.282 2103.1269,-29.0246"/>
<polygon fill="#191970" stroke="#191970" points="2104.2533,-25.7031 2093.6746,-25.1192 2101.5802,-32.1726 2104.2533,-25.7031"/>
</g>
<!-- Node4 -->
<g id="node5" class="node">
<title>Node4</title>
<polygon fill="#ffffff" stroke="#bfbfbf" points="1715,-207 1715,-226 1762,-226 1762,-207 1715,-207"/>
<text text-anchor="middle" x="1738.5" y="-214" font-family="Helvetica,sans-Serif" font-size="10.00" fill="#000000">vector</text>
</g>
<!-- Node2&#45;&gt;Node4 -->
<g id="edge4" class="edge">
<title>Node2&#45;&gt;Node4</title>
<path fill="none" stroke="#191970" d="M1727.0524,-402.2628C1733.8385,-391.937 1741.0297,-378.9206 1744.5,-366 1756.6348,-320.8206 1748.7267,-265.2203 1742.9703,-236.2204"/>
<polygon fill="#191970" stroke="#191970" points="1746.337,-235.2239 1740.8435,-226.1645 1739.4885,-236.6723 1746.337,-235.2239"/>
</g>
<!-- Node5 -->
<g id="node6" class="node">
<title>Node5</title>
<g id="a_node6"><a xlink:href="drake__assert_8h.html" target="_top" xlink:title="Provides Drake&#39;s assertion implementation. ">
<polygon fill="#ffffff" stroke="#000000" points="0,-67.5 0,-97.5 121,-97.5 121,-67.5 0,-67.5"/>
<text text-anchor="start" x="8" y="-85.5" font-family="Helvetica,sans-Serif" font-size="10.00" fill="#000000">drake/common/drake</text>
<text text-anchor="middle" x="60.5" y="-74.5" font-family="Helvetica,sans-Serif" font-size="10.00" fill="#000000">_assert.h</text>
</a>
</g>
</g>
<!-- Node2&#45;&gt;Node5 -->
<g id="edge6" class="edge">
<title>Node2&#45;&gt;Node5</title>
<path fill="none" stroke="#191970" d="M1632.9565,-420.198C1314.7671,-408.3384 138.5,-359.3658 138.5,-283.5 138.5,-283.5 138.5,-283.5 138.5,-216.5 138.5,-172.5362 106.752,-130.1275 83.7656,-105.1841"/>
<polygon fill="#191970" stroke="#191970" points="86.0909,-102.5505 76.6617,-97.7194 81.0202,-107.3762 86.0909,-102.5505"/>
</g>
<!-- Node7 -->
<g id="node8" class="node">
<title>Node7</title>
<g id="a_node8"><a xlink:href="drake__copyable_8h.html" target="_top" xlink:title="Provides careful macros to selectively enable or disable the special member functions for copy&#45;constr...">
<polygon fill="#ffffff" stroke="#000000" points="2117,-.5 2117,-30.5 2238,-30.5 2238,-.5 2117,-.5"/>
<text text-anchor="start" x="2125" y="-18.5" font-family="Helvetica,sans-Serif" font-size="10.00" fill="#000000">drake/common/drake</text>
<text text-anchor="middle" x="2177.5" y="-7.5" font-family="Helvetica,sans-Serif" font-size="10.00" fill="#000000">_copyable.h</text>
</a>
</g>
</g>
<!-- Node2&#45;&gt;Node7 -->
<g id="edge8" class="edge">
<title>Node2&#45;&gt;Node7</title>
<path fill="none" stroke="#191970" d="M1790.2102,-418.5043C1899.8282,-411.2952 2092.1415,-394.9349 2155.5,-366 2238.028,-328.3106 2294.5,-307.2268 2294.5,-216.5 2294.5,-216.5 2294.5,-216.5 2294.5,-149.5 2294.5,-99.3911 2247.5024,-58.9729 2213.0804,-36.0898"/>
<polygon fill="#191970" stroke="#191970" points="2214.9393,-33.124 2204.6362,-30.6547 2211.1506,-39.0101 2214.9393,-33.124"/>
</g>
<!-- Node8 -->
<g id="node9" class="node">
<title>Node8</title>
<g id="a_node9"><a xlink:href="eigen__types_8h.html" target="_top" xlink:title="This file contains abbreviated definitions for certain specializations of Eigen::Matrix that are comm...">
<polygon fill="#ffffff" stroke="#000000" points="1074.5,-67.5 1074.5,-97.5 1194.5,-97.5 1194.5,-67.5 1074.5,-67.5"/>
<text text-anchor="start" x="1082.5" y="-85.5" font-family="Helvetica,sans-Serif" font-size="10.00" fill="#000000">drake/common/eigen</text>
<text text-anchor="middle" x="1134.5" y="-74.5" font-family="Helvetica,sans-Serif" font-size="10.00" fill="#000000">_types.h</text>
</a>
</g>
</g>
<!-- Node2&#45;&gt;Node8 -->
<g id="edge9" class="edge">
<title>Node2&#45;&gt;Node8</title>
<path fill="none" stroke="#191970" d="M1632.8137,-421.5495C1498.1422,-418.0037 1229.8247,-405.9958 1145.5,-366 1107.4508,-347.953 1094.6156,-337.9065 1078.5,-299 1050.6572,-231.7815 1093.588,-146.9576 1118.5946,-106.3253"/>
<polygon fill="#191970" stroke="#191970" points="1121.685,-107.9867 1124.07,-97.6638 1115.7681,-104.2463 1121.685,-107.9867"/>
</g>
<!-- Node11 -->
<g id="node12" class="node">
<title>Node11</title>
<g id="a_node12"><a xlink:href="piecewise__polynomial_8h.html" target="_top" xlink:title="drake/common/trajectories\l/piecewise_polynomial.h">
<polygon fill="#ffffff" stroke="#000000" points="1586,-335.5 1586,-365.5 1735,-365.5 1735,-335.5 1586,-335.5"/>
<text text-anchor="start" x="1594" y="-353.5" font-family="Helvetica,sans-Serif" font-size="10.00" fill="#000000">drake/common/trajectories</text>
<text text-anchor="middle" x="1660.5" y="-342.5" font-family="Helvetica,sans-Serif" font-size="10.00" fill="#000000">/piecewise_polynomial.h</text>
</a>
</g>
</g>
<!-- Node2&#45;&gt;Node11 -->
<g id="edge14" class="edge">
<title>Node2&#45;&gt;Node11</title>
<path fill="none" stroke="#191970" d="M1697.0219,-402.4183C1690.7732,-393.5354 1683.4311,-383.0981 1676.9751,-373.9205"/>
<polygon fill="#191970" stroke="#191970" points="1679.7377,-371.7644 1671.1214,-365.5991 1674.0123,-375.7919 1679.7377,-371.7644"/>
</g>
<!-- Node6 -->
<g id="node7" class="node">
<title>Node6</title>
<polygon fill="#ffffff" stroke="#bfbfbf" points="82,-6 82,-25 151,-25 151,-6 82,-6"/>
<text text-anchor="middle" x="116.5" y="-13" font-family="Helvetica,sans-Serif" font-size="10.00" fill="#000000">type_traits</text>
</g>
<!-- Node5&#45;&gt;Node6 -->
<g id="edge7" class="edge">
<title>Node5&#45;&gt;Node6</title>
<path fill="none" stroke="#191970" d="M73.2073,-67.2967C81.7629,-57.0605 93.0665,-43.5366 101.9779,-32.8746"/>
<polygon fill="#191970" stroke="#191970" points="104.7861,-34.9724 108.5138,-25.055 99.4151,-30.4832 104.7861,-34.9724"/>
</g>
<!-- Node8&#45;&gt;Node3 -->
<g id="edge10" class="edge">
<title>Node8&#45;&gt;Node3</title>
<path fill="none" stroke="#191970" d="M1194.5753,-78.1813C1370.5228,-65.5327 1881.4487,-28.803 2027.2401,-18.3223"/>
<polygon fill="#191970" stroke="#191970" points="2027.7652,-21.7937 2037.4884,-17.5856 2027.2632,-14.8117 2027.7652,-21.7937"/>
</g>
<!-- Node8&#45;&gt;Node7 -->
<g id="edge13" class="edge">
<title>Node8&#45;&gt;Node7</title>
<path fill="none" stroke="#191970" d="M1194.5841,-80.5413C1377.7147,-74.3766 1927.1719,-54.3876 2104.5,-31 2105.2466,-30.9015 2105.997,-30.7995 2106.7505,-30.6942"/>
<polygon fill="#191970" stroke="#191970" points="2107.3336,-34.1457 2116.6799,-29.1561 2106.262,-27.2282 2107.3336,-34.1457"/>
</g>
<!-- Node9 -->
<g id="node10" class="node">
<title>Node9</title>
<polygon fill="#ffffff" stroke="#bfbfbf" points="800,-6 800,-25 877,-25 877,-6 800,-6"/>
<text text-anchor="middle" x="838.5" y="-13" font-family="Helvetica,sans-Serif" font-size="10.00" fill="#000000">Eigen/Dense</text>
</g>
<!-- Node8&#45;&gt;Node9 -->
<g id="edge11" class="edge">
<title>Node8&#45;&gt;Node9</title>
<path fill="none" stroke="#191970" d="M1074.2432,-68.8608C1018.937,-56.3422 938.046,-38.0324 886.8548,-26.4452"/>
<polygon fill="#191970" stroke="#191970" points="887.555,-23.0152 877.029,-24.2211 886.0095,-29.8425 887.555,-23.0152"/>
</g>
<!-- Node10 -->
<g id="node11" class="node">
<title>Node10</title>
<g id="a_node11"><a xlink:href="constants_8h.html" target="_top" xlink:title="drake/common/constants.h">
<polygon fill="#ffffff" stroke="#000000" points="1060,-6 1060,-25 1209,-25 1209,-6 1060,-6"/>
<text text-anchor="middle" x="1134.5" y="-13" font-family="Helvetica,sans-Serif" font-size="10.00" fill="#000000">drake/common/constants.h</text>
</a>
</g>
</g>
<!-- Node8&#45;&gt;Node10 -->
<g id="edge12" class="edge">
<title>Node8&#45;&gt;Node10</title>
<path fill="none" stroke="#191970" d="M1134.5,-67.2967C1134.5,-57.7699 1134.5,-45.3954 1134.5,-35.1306"/>
<polygon fill="#191970" stroke="#191970" points="1138.0001,-35.0549 1134.5,-25.055 1131.0001,-35.055 1138.0001,-35.0549"/>
</g>
<!-- Node11&#45;&gt;Node1 -->
<g id="edge18" class="edge">
<title>Node11&#45;&gt;Node1</title>
<path fill="none" stroke="#191970" d="M1662.4542,-335.3923C1667.0861,-299.5844 1678.7318,-209.5545 1683.9277,-169.386"/>
<polygon fill="#191970" stroke="#191970" points="1687.4262,-169.6226 1685.238,-159.2562 1680.484,-168.7245 1687.4262,-169.6226"/>
</g>
<!-- Node11&#45;&gt;Node3 -->
<g id="edge16" class="edge">
<title>Node11&#45;&gt;Node3</title>
<path fill="none" stroke="#191970" d="M1735.0197,-345.2641C1870.3149,-333.6964 2142.5,-300.0428 2142.5,-216.5 2142.5,-216.5 2142.5,-216.5 2142.5,-149.5 2142.5,-102.1632 2106.172,-56.2294 2083.7485,-32.3856"/>
<polygon fill="#191970" stroke="#191970" points="2086.2265,-29.9133 2076.7497,-25.1761 2081.2039,-34.7892 2086.2265,-29.9133"/>
</g>
<!-- Node11&#45;&gt;Node4 -->
<g id="edge17" class="edge">
<title>Node11&#45;&gt;Node4</title>
<path fill="none" stroke="#191970" d="M1673.7275,-335.3924C1682.0322,-325.4672 1692.6225,-311.9646 1700.5,-299 1713.113,-278.242 1724.3048,-252.5965 1731.2195,-235.4599"/>
<polygon fill="#191970" stroke="#191970" points="1734.5337,-236.5961 1734.9465,-226.0093 1728.0218,-234.0279 1734.5337,-236.5961"/>
</g>
<!-- Node11&#45;&gt;Node7 -->
<g id="edge19" class="edge">
<title>Node11&#45;&gt;Node7</title>
<path fill="none" stroke="#191970" d="M1735.0872,-346.1825C1837.9408,-339.3982 2017.4284,-324.3346 2077.5,-299 2131.5424,-276.2082 2180.5,-275.1519 2180.5,-216.5 2180.5,-216.5 2180.5,-216.5 2180.5,-149.5 2180.5,-111.664 2179.2898,-67.8337 2178.4066,-40.887"/>
<polygon fill="#191970" stroke="#191970" points="2181.9006,-40.6463 2178.0643,-30.7705 2174.9046,-40.8831 2181.9006,-40.6463"/>
</g>
<!-- Node11&#45;&gt;Node8 -->
<g id="edge20" class="edge">
<title>Node11&#45;&gt;Node8</title>
<path fill="none" stroke="#191970" d="M1585.8771,-346.4914C1448.6997,-337.2959 1165.5992,-309.1872 1112.5,-232 1098.909,-212.2435 1115.948,-144.4654 1126.8013,-107.3262"/>
<polygon fill="#191970" stroke="#191970" points="1130.1595,-108.3123 1129.6679,-97.7289 1123.4523,-106.3089 1130.1595,-108.3123"/>
</g>
<!-- Node12 -->
<g id="node13" class="node">
<title>Node12</title>
<polygon fill="#ffffff" stroke="#bfbfbf" points="427.5,-6 427.5,-25 471.5,-25 471.5,-6 427.5,-6"/>
<text text-anchor="middle" x="449.5" y="-13" font-family="Helvetica,sans-Serif" font-size="10.00" fill="#000000">limits</text>
</g>
<!-- Node11&#45;&gt;Node12 -->
<g id="edge15" class="edge">
<title>Node11&#45;&gt;Node12</title>
<path fill="none" stroke="#191970" d="M1585.9789,-347.1435C1300.5079,-333.8017 292.5,-282.0505 292.5,-216.5 292.5,-216.5 292.5,-216.5 292.5,-149.5 292.5,-111.8735 286.6901,-95.2882 311.5,-67 325.7341,-50.7703 381.2164,-33.5479 417.3487,-23.7013"/>
<polygon fill="#191970" stroke="#191970" points="418.6673,-26.9718 427.4249,-21.009 416.8603,-20.209 418.6673,-26.9718"/>
</g>
<!-- Node13 -->
<g id="node14" class="node">
<title>Node13</title>
<g id="a_node14"><a xlink:href="polynomial_8h.html" target="_top" xlink:title="drake/common/polynomial.h">
<polygon fill="#ffffff" stroke="#000000" points="1296,-274 1296,-293 1453,-293 1453,-274 1296,-274"/>
<text text-anchor="middle" x="1374.5" y="-281" font-family="Helvetica,sans-Serif" font-size="10.00" fill="#000000">drake/common/polynomial.h</text>
</a>
</g>
</g>
<!-- Node11&#45;&gt;Node13 -->
<g id="edge21" class="edge">
<title>Node11&#45;&gt;Node13</title>
<path fill="none" stroke="#191970" d="M1596.316,-335.4639C1544.5004,-323.3253 1472.6072,-306.4831 1424.8772,-295.3016"/>
<polygon fill="#191970" stroke="#191970" points="1425.6096,-291.8785 1415.0748,-293.0053 1424.0129,-298.694 1425.6096,-291.8785"/>
</g>
<!-- Node33 -->
<g id="node34" class="node">
<title>Node33</title>
<g id="a_node34"><a xlink:href="piecewise__trajectory_8h.html" target="_top" xlink:title="drake/common/trajectories\l/piecewise_trajectory.h">
<polygon fill="#ffffff" stroke="#000000" points="1790,-268.5 1790,-298.5 1939,-298.5 1939,-268.5 1790,-268.5"/>
<text text-anchor="start" x="1798" y="-286.5" font-family="Helvetica,sans-Serif" font-size="10.00" fill="#000000">drake/common/trajectories</text>
<text text-anchor="middle" x="1864.5" y="-275.5" font-family="Helvetica,sans-Serif" font-size="10.00" fill="#000000">/piecewise_trajectory.h</text>
</a>
</g>
</g>
<!-- Node11&#45;&gt;Node33 -->
<g id="edge55" class="edge">
<title>Node11&#45;&gt;Node33</title>
<path fill="none" stroke="#191970" d="M1706.2816,-335.4639C1736.6226,-325.499 1776.6149,-312.3642 1808.8002,-301.7936"/>
<polygon fill="#191970" stroke="#191970" points="1810.1102,-305.0473 1818.5187,-298.6017 1807.9259,-298.3968 1810.1102,-305.0473"/>
</g>
<!-- Node13&#45;&gt;Node1 -->
<g id="edge29" class="edge">
<title>Node13&#45;&gt;Node1</title>
<path fill="none" stroke="#191970" d="M1453.0025,-274.1733C1516.8717,-265.4074 1600.9342,-250.8274 1629.5,-232 1653.0338,-216.4891 1669.5988,-187.5999 1678.5968,-168.458"/>
<polygon fill="#191970" stroke="#191970" points="1681.8416,-169.7751 1682.7115,-159.216 1675.4468,-166.9279 1681.8416,-169.7751"/>
</g>
<!-- Node13&#45;&gt;Node4 -->
<g id="edge28" class="edge">
<title>Node13&#45;&gt;Node4</title>
<path fill="none" stroke="#191970" d="M1430.0539,-273.9772C1488.1085,-263.9294 1581.8062,-247.4411 1662.5,-232 1676.3802,-229.344 1691.6522,-226.2608 1704.8423,-223.547"/>
<polygon fill="#191970" stroke="#191970" points="1705.8241,-226.9181 1714.9079,-221.465 1704.4062,-220.0632 1705.8241,-226.9181"/>
</g>
<!-- Node13&#45;&gt;Node5 -->
<g id="edge54" class="edge">
<title>Node13&#45;&gt;Node5</title>
<path fill="none" stroke="#191970" d="M1295.6951,-281.2679C1117.8363,-274.814 672.6216,-250.7006 311.5,-165 239.7428,-147.9707 159.1134,-119.7899 109.0607,-101.1823"/>
<polygon fill="#191970" stroke="#191970" points="110.062,-97.82 99.4696,-97.5945 107.6094,-104.3763 110.062,-97.82"/>
</g>
<!-- Node14 -->
<g id="node15" class="node">
<title>Node14</title>
<polygon fill="#ffffff" stroke="#bfbfbf" points="1121,-207 1121,-226 1180,-226 1180,-207 1121,-207"/>
<text text-anchor="middle" x="1150.5" y="-214" font-family="Helvetica,sans-Serif" font-size="10.00" fill="#000000">complex</text>
</g>
<!-- Node13&#45;&gt;Node14 -->
<g id="edge22" class="edge">
<title>Node13&#45;&gt;Node14</title>
<path fill="none" stroke="#191970" d="M1335.5125,-273.9387C1297.8186,-264.3921 1239.2623,-248.7617 1189.5,-232 1187.3681,-231.2819 1185.1832,-230.5116 1182.9891,-229.712"/>
<polygon fill="#191970" stroke="#191970" points="1184.0373,-226.3664 1173.446,-226.0912 1181.5541,-232.9111 1184.0373,-226.3664"/>
</g>
<!-- Node15 -->
<g id="node16" class="node">
<title>Node15</title>
<polygon fill="#ffffff" stroke="#bfbfbf" points="1198.5,-207 1198.5,-226 1236.5,-226 1236.5,-207 1198.5,-207"/>
<text text-anchor="middle" x="1217.5" y="-214" font-family="Helvetica,sans-Serif" font-size="10.00" fill="#000000">map</text>
</g>
<!-- Node13&#45;&gt;Node15 -->
<g id="edge23" class="edge">
<title>Node13&#45;&gt;Node15</title>
<path fill="none" stroke="#191970" d="M1347.8958,-273.9962C1321.5177,-264.3139 1280.1458,-248.4254 1245.5,-232 1244.6653,-231.6043 1243.821,-231.1946 1242.9717,-230.7744"/>
<polygon fill="#191970" stroke="#191970" points="1244.3859,-227.5642 1233.9027,-226.0299 1241.1409,-233.7667 1244.3859,-227.5642"/>
</g>
<!-- Node16 -->
<g id="node17" class="node">
<title>Node16</title>
<polygon fill="#ffffff" stroke="#bfbfbf" points="1780.5,-207 1780.5,-226 1834.5,-226 1834.5,-207 1780.5,-207"/>
<text text-anchor="middle" x="1807.5" y="-214" font-family="Helvetica,sans-Serif" font-size="10.00" fill="#000000">random</text>
</g>
<!-- Node13&#45;&gt;Node16 -->
<g id="edge24" class="edge">
<title>Node13&#45;&gt;Node16</title>
<path fill="none" stroke="#191970" d="M1453.3566,-279.7191C1534.3888,-274.3437 1663.5913,-261.6074 1771.5,-232 1773.8255,-231.362 1776.197,-230.6035 1778.5572,-229.7703"/>
<polygon fill="#191970" stroke="#191970" points="1780.022,-232.9553 1788.0492,-226.0405 1777.4619,-226.4402 1780.022,-232.9553"/>
</g>
<!-- Node17 -->
<g id="node18" class="node">
<title>Node17</title>
<polygon fill="#ffffff" stroke="#bfbfbf" points="1254.5,-207 1254.5,-226 1286.5,-226 1286.5,-207 1254.5,-207"/>
<text text-anchor="middle" x="1270.5" y="-214" font-family="Helvetica,sans-Serif" font-size="10.00" fill="#000000">set</text>
</g>
<!-- Node13&#45;&gt;Node17 -->
<g id="edge25" class="edge">
<title>Node13&#45;&gt;Node17</title>
<path fill="none" stroke="#191970" d="M1359.5993,-273.9005C1342.4547,-262.8554 1314.0832,-244.5776 1293.9655,-231.6172"/>
<polygon fill="#191970" stroke="#191970" points="1295.6751,-228.5552 1285.373,-226.0817 1291.884,-234.4397 1295.6751,-228.5552"/>
</g>
<!-- Node18 -->
<g id="node19" class="node">
<title>Node18</title>
<polygon fill="#ffffff" stroke="#bfbfbf" points="1305,-207 1305,-226 1370,-226 1370,-207 1305,-207"/>
<text text-anchor="middle" x="1337.5" y="-214" font-family="Helvetica,sans-Serif" font-size="10.00" fill="#000000">stdexcept</text>
</g>
<!-- Node13&#45;&gt;Node18 -->
<g id="edge26" class="edge">
<title>Node13&#45;&gt;Node18</title>
<path fill="none" stroke="#191970" d="M1369.1988,-273.9005C1363.5938,-263.751 1354.6161,-247.4941 1347.6435,-234.8679"/>
<polygon fill="#191970" stroke="#191970" points="1350.6895,-233.1435 1342.7914,-226.0817 1344.5618,-236.5275 1350.6895,-233.1435"/>
</g>
<!-- Node19 -->
<g id="node20" class="node">
<title>Node19</title>
<polygon fill="#ffffff" stroke="#bfbfbf" points="1388.5,-207 1388.5,-226 1432.5,-226 1432.5,-207 1388.5,-207"/>
<text text-anchor="middle" x="1410.5" y="-214" font-family="Helvetica,sans-Serif" font-size="10.00" fill="#000000">string</text>
</g>
<!-- Node13&#45;&gt;Node19 -->
<g id="edge27" class="edge">
<title>Node13&#45;&gt;Node19</title>
<path fill="none" stroke="#191970" d="M1379.6579,-273.9005C1385.0579,-263.8505 1393.6755,-247.8122 1400.4306,-235.2403"/>
<polygon fill="#191970" stroke="#191970" points="1403.7016,-236.5472 1405.3516,-226.0817 1397.5353,-233.234 1403.7016,-236.5472"/>
</g>
<!-- Node20 -->
<g id="node21" class="node">
<title>Node20</title>
<polygon fill="#ffffff" stroke="#bfbfbf" points="1450.5,-207 1450.5,-226 1620.5,-226 1620.5,-207 1450.5,-207"/>
<text text-anchor="middle" x="1535.5" y="-214" font-family="Helvetica,sans-Serif" font-size="10.00" fill="#000000">unsupported/Eigen/Polynomials</text>
</g>
<!-- Node13&#45;&gt;Node20 -->
<g id="edge30" class="edge">
<title>Node13&#45;&gt;Node20</title>
<path fill="none" stroke="#191970" d="M1397.5674,-273.9005C1425.1846,-262.4077 1471.6196,-243.0838 1502.8963,-230.068"/>
<polygon fill="#191970" stroke="#191970" points="1504.5877,-233.1552 1512.4754,-226.0817 1501.8982,-226.6924 1504.5877,-233.1552"/>
</g>
<!-- Node21 -->
<g id="node22" class="node">
<title>Node21</title>
<g id="a_node22"><a xlink:href="common_2autodiff_8h.html" target="_top" xlink:title="drake/common/autodiff.h">
<polygon fill="#ffffff" stroke="#000000" points="768.5,-207 768.5,-226 908.5,-226 908.5,-207 768.5,-207"/>
<text text-anchor="middle" x="838.5" y="-214" font-family="Helvetica,sans-Serif" font-size="10.00" fill="#000000">drake/common/autodiff.h</text>
</a>
</g>
</g>
<!-- Node13&#45;&gt;Node21 -->
<g id="edge31" class="edge">
<title>Node13&#45;&gt;Node21</title>
<path fill="none" stroke="#191970" d="M1298.2735,-273.9717C1197.718,-261.4022 1021.5219,-239.3777 918.9153,-226.5519"/>
<polygon fill="#191970" stroke="#191970" points="919.2722,-223.0694 908.9153,-225.3019 918.4039,-230.0153 919.2722,-223.0694"/>
</g>
<!-- Node21&#45;&gt;Node1 -->
<g id="edge32" class="edge">
<title>Node21&#45;&gt;Node1</title>
<path fill="none" stroke="#191970" d="M908.6169,-210.9601C1077.236,-197.6376 1501.7746,-164.0951 1641.2915,-153.0719"/>
<polygon fill="#191970" stroke="#191970" points="1641.9125,-156.5338 1651.6057,-152.257 1641.3611,-149.5556 1641.9125,-156.5338"/>
</g>
<!-- Node22 -->
<g id="node23" class="node">
<title>Node22</title>
<polygon fill="#ffffff" stroke="#bfbfbf" points="917,-140 917,-159 1068,-159 1068,-140 917,-140"/>
<text text-anchor="middle" x="992.5" y="-147" font-family="Helvetica,sans-Serif" font-size="10.00" fill="#000000">unsupported/Eigen/AutoDiff</text>
</g>
<!-- Node21&#45;&gt;Node22 -->
<g id="edge33" class="edge">
<title>Node21&#45;&gt;Node22</title>
<path fill="none" stroke="#191970" d="M860.5644,-206.9005C886.8665,-195.4574 931.0128,-176.2509 960.9245,-163.2374"/>
<polygon fill="#191970" stroke="#191970" points="962.703,-166.2806 970.4765,-159.0817 959.9104,-159.8617 962.703,-166.2806"/>
</g>
<!-- Node23 -->
<g id="node24" class="node">
<title>Node23</title>
<g id="a_node24"><a xlink:href="eigen__autodiff__limits_8h.html" target="_top" xlink:title="drake/common/eigen\l_autodiff_limits.h">
<polygon fill="#ffffff" stroke="#000000" points="640.5,-134.5 640.5,-164.5 760.5,-164.5 760.5,-134.5 640.5,-134.5"/>
<text text-anchor="start" x="648.5" y="-152.5" font-family="Helvetica,sans-Serif" font-size="10.00" fill="#000000">drake/common/eigen</text>
<text text-anchor="middle" x="700.5" y="-141.5" font-family="Helvetica,sans-Serif" font-size="10.00" fill="#000000">_autodiff_limits.h</text>
</a>
</g>
</g>
<!-- Node21&#45;&gt;Node23 -->
<g id="edge34" class="edge">
<title>Node21&#45;&gt;Node23</title>
<path fill="none" stroke="#191970" d="M818.728,-206.9005C798.4168,-197.0393 766.2309,-181.4128 740.5665,-168.9526"/>
<polygon fill="#191970" stroke="#191970" points="741.9648,-165.7408 731.4403,-164.5218 738.9075,-172.0379 741.9648,-165.7408"/>
</g>
<!-- Node24 -->
<g id="node25" class="node">
<title>Node24</title>
<g id="a_node25"><a xlink:href="eigen__autodiff__types_8h.html" target="_top" xlink:title="This file contains abbreviated definitions for certain uses of AutoDiffScalar that are commonly used ...">
<polygon fill="#ffffff" stroke="#000000" points="778.5,-134.5 778.5,-164.5 898.5,-164.5 898.5,-134.5 778.5,-134.5"/>
<text text-anchor="start" x="786.5" y="-152.5" font-family="Helvetica,sans-Serif" font-size="10.00" fill="#000000">drake/common/eigen</text>
<text text-anchor="middle" x="838.5" y="-141.5" font-family="Helvetica,sans-Serif" font-size="10.00" fill="#000000">_autodiff_types.h</text>
</a>
</g>
</g>
<!-- Node21&#45;&gt;Node24 -->
<g id="edge36" class="edge">
<title>Node21&#45;&gt;Node24</title>
<path fill="none" stroke="#191970" d="M838.5,-206.9005C838.5,-198.5099 838.5,-185.9451 838.5,-174.7085"/>
<polygon fill="#191970" stroke="#191970" points="842.0001,-174.5217 838.5,-164.5218 835.0001,-174.5218 842.0001,-174.5217"/>
</g>
<!-- Node25 -->
<g id="node26" class="node">
<title>Node25</title>
<g id="a_node26"><a xlink:href="autodiffxd_8h.html" target="_top" xlink:title="drake/common/autodiffxd.h">
<polygon fill="#ffffff" stroke="#000000" points="470.5,-140 470.5,-159 622.5,-159 622.5,-140 470.5,-140"/>
<text text-anchor="middle" x="546.5" y="-147" font-family="Helvetica,sans-Serif" font-size="10.00" fill="#000000">drake/common/autodiffxd.h</text>
</a>
</g>
</g>
<!-- Node21&#45;&gt;Node25 -->
<g id="edge40" class="edge">
<title>Node21&#45;&gt;Node25</title>
<path fill="none" stroke="#191970" d="M796.9736,-206.9717C744.6893,-194.975 654.8674,-174.3651 598.1909,-161.3606"/>
<polygon fill="#191970" stroke="#191970" points="598.8854,-157.929 588.3559,-159.1039 597.3198,-164.7518 598.8854,-157.929"/>
</g>
<!-- Node28 -->
<g id="node29" class="node">
<title>Node28</title>
<g id="a_node29"><a xlink:href="autodiff__overloads_8h.html" target="_top" xlink:title="Overloads for STL mathematical operations on AutoDiffScalar. ">
<polygon fill="#ffffff" stroke="#000000" points="321,-134.5 321,-164.5 452,-164.5 452,-134.5 321,-134.5"/>
<text text-anchor="start" x="329" y="-152.5" font-family="Helvetica,sans-Serif" font-size="10.00" fill="#000000">drake/common/autodiff</text>
<text text-anchor="middle" x="386.5" y="-141.5" font-family="Helvetica,sans-Serif" font-size="10.00" fill="#000000">_overloads.h</text>
</a>
</g>
</g>
<!-- Node21&#45;&gt;Node28 -->
<g id="edge44" class="edge">
<title>Node21&#45;&gt;Node28</title>
<path fill="none" stroke="#191970" d="M768.4513,-208.3775C694.7371,-199.5025 575.1279,-184.1763 462.1613,-165.0454"/>
<polygon fill="#191970" stroke="#191970" points="462.7484,-161.5951 452.3021,-163.363 461.5708,-168.4953 462.7484,-161.5951"/>
</g>
<!-- Node23&#45;&gt;Node12 -->
<g id="edge35" class="edge">
<title>Node23&#45;&gt;Node12</title>
<path fill="none" stroke="#191970" d="M693.278,-134.2647C683.6376,-115.5848 664.7971,-84.2846 639.5,-67 590.9306,-33.8143 521.7837,-21.9726 481.6848,-17.7754"/>
<polygon fill="#191970" stroke="#191970" points="481.9524,-14.2852 471.6662,-16.8235 481.2902,-21.2538 481.9524,-14.2852"/>
</g>
<!-- Node24&#45;&gt;Node6 -->
<g id="edge37" class="edge">
<title>Node24&#45;&gt;Node6</title>
<path fill="none" stroke="#191970" d="M810.1377,-134.3391C772.3844,-114.9647 702.9852,-82.1282 639.5,-67 431.3945,-17.4094 368.7141,-75.6829 159.5,-31 156.0587,-30.265 152.5194,-29.3196 149.0194,-28.2587"/>
<polygon fill="#191970" stroke="#191970" points="149.9667,-24.8852 139.373,-25.0418 147.7522,-31.5257 149.9667,-24.8852"/>
</g>
<!-- Node24&#45;&gt;Node8 -->
<g id="edge39" class="edge">
<title>Node24&#45;&gt;Node8</title>
<path fill="none" stroke="#191970" d="M898.7568,-135.8608C946.7734,-124.9922 1014.0748,-109.7584 1064.4821,-98.3486"/>
<polygon fill="#191970" stroke="#191970" points="1065.347,-101.7415 1074.3276,-96.1201 1063.8016,-94.9142 1065.347,-101.7415"/>
</g>
<!-- Node24&#45;&gt;Node9 -->
<g id="edge38" class="edge">
<title>Node24&#45;&gt;Node9</title>
<path fill="none" stroke="#191970" d="M838.5,-134.389C838.5,-110.0735 838.5,-62.2644 838.5,-35.2698"/>
<polygon fill="#191970" stroke="#191970" points="842.0001,-35.1041 838.5,-25.1042 835.0001,-35.1042 842.0001,-35.1041"/>
</g>
<!-- Node25&#45;&gt;Node9 -->
<g id="edge43" class="edge">
<title>Node25&#45;&gt;Node9</title>
<path fill="none" stroke="#191970" d="M567.4999,-139.8631C618.535,-116.4428 749.2258,-56.4683 808.4839,-29.2745"/>
<polygon fill="#191970" stroke="#191970" points="810.0615,-32.4016 817.6904,-25.0496 807.1419,-26.0395 810.0615,-32.4016"/>
</g>
<!-- Node26 -->
<g id="node27" class="node">
<title>Node26</title>
<polygon fill="#ffffff" stroke="#bfbfbf" points="509,-73 509,-92 556,-92 556,-73 509,-73"/>
<text text-anchor="middle" x="532.5" y="-80" font-family="Helvetica,sans-Serif" font-size="10.00" fill="#000000">cmath</text>
</g>
<!-- Node25&#45;&gt;Node26 -->
<g id="edge41" class="edge">
<title>Node25&#45;&gt;Node26</title>
<path fill="none" stroke="#191970" d="M544.4941,-139.9005C542.4357,-130.0495 539.1751,-114.4451 536.5728,-101.9912"/>
<polygon fill="#191970" stroke="#191970" points="539.9736,-101.1543 534.5021,-92.0817 533.1216,-102.5862 539.9736,-101.1543"/>
</g>
<!-- Node27 -->
<g id="node28" class="node">
<title>Node27</title>
<polygon fill="#ffffff" stroke="#bfbfbf" points="574,-73 574,-92 631,-92 631,-73 574,-73"/>
<text text-anchor="middle" x="602.5" y="-80" font-family="Helvetica,sans-Serif" font-size="10.00" fill="#000000">ostream</text>
</g>
<!-- Node25&#45;&gt;Node27 -->
<g id="edge42" class="edge">
<title>Node25&#45;&gt;Node27</title>
<path fill="none" stroke="#191970" d="M554.5234,-139.9005C563.2561,-129.4525 577.3982,-112.5325 588.0708,-99.7635"/>
<polygon fill="#191970" stroke="#191970" points="590.7638,-101.9991 594.4914,-92.0817 585.3928,-97.5099 590.7638,-101.9991"/>
</g>
<!-- Node28&#45;&gt;Node5 -->
<g id="edge51" class="edge">
<title>Node28&#45;&gt;Node5</title>
<path fill="none" stroke="#191970" d="M320.9225,-136.7943C271.2739,-127.0746 201.1303,-113.1297 130.9635,-98.2883"/>
<polygon fill="#191970" stroke="#191970" points="131.5733,-94.8399 121.0647,-96.1885 130.1207,-101.6875 131.5733,-94.8399"/>
</g>
<!-- Node28&#45;&gt;Node12 -->
<g id="edge46" class="edge">
<title>Node28&#45;&gt;Node12</title>
<path fill="none" stroke="#191970" d="M421.5324,-134.3603C436.3862,-125.9673 452.1656,-113.9543 460.5,-98 470.8608,-78.1665 464.6615,-52.1393 458.1459,-34.6694"/>
<polygon fill="#191970" stroke="#191970" points="461.2255,-32.9543 454.1933,-25.0297 454.7488,-35.6099 461.2255,-32.9543"/>
</g>
<!-- Node28&#45;&gt;Node26 -->
<g id="edge45" class="edge">
<title>Node28&#45;&gt;Node26</title>
<path fill="none" stroke="#191970" d="M419.2652,-134.4639C444.0932,-123.0702 477.9512,-107.5327 502.1628,-96.4219"/>
<polygon fill="#191970" stroke="#191970" points="503.9432,-99.4559 511.5721,-92.1039 501.0236,-93.0938 503.9432,-99.4559"/>
</g>
<!-- Node29 -->
<g id="node30" class="node">
<title>Node29</title>
<g id="a_node30"><a xlink:href="cond_8h.html" target="_top" xlink:title="drake/common/cond.h">
<polygon fill="#ffffff" stroke="#000000" points="139,-73 139,-92 264,-92 264,-73 139,-73"/>
<text text-anchor="middle" x="201.5" y="-80" font-family="Helvetica,sans-Serif" font-size="10.00" fill="#000000">drake/common/cond.h</text>
</a>
</g>
</g>
<!-- Node28&#45;&gt;Node29 -->
<g id="edge47" class="edge">
<title>Node28&#45;&gt;Node29</title>
<path fill="none" stroke="#191970" d="M344.9824,-134.4639C312.5872,-122.7316 268.0596,-106.6054 237.2385,-95.4431"/>
<polygon fill="#191970" stroke="#191970" points="238.3402,-92.1197 227.7459,-92.0053 235.9565,-98.7014 238.3402,-92.1197"/>
</g>
<!-- Node32 -->
<g id="node33" class="node">
<title>Node32</title>
<g id="a_node33"><a xlink:href="dummy__value_8h.html" target="_top" xlink:title="drake/common/dummy\l_value.h">
<polygon fill="#ffffff" stroke="#000000" points="321,-67.5 321,-97.5 452,-97.5 452,-67.5 321,-67.5"/>
<text text-anchor="start" x="329" y="-85.5" font-family="Helvetica,sans-Serif" font-size="10.00" fill="#000000">drake/common/dummy</text>
<text text-anchor="middle" x="386.5" y="-74.5" font-family="Helvetica,sans-Serif" font-size="10.00" fill="#000000">_value.h</text>
</a>
</g>
</g>
<!-- Node28&#45;&gt;Node32 -->
<g id="edge52" class="edge">
<title>Node28&#45;&gt;Node32</title>
<path fill="none" stroke="#191970" d="M386.5,-134.2967C386.5,-126.5013 386.5,-116.7991 386.5,-107.9064"/>
<polygon fill="#191970" stroke="#191970" points="390.0001,-107.6431 386.5,-97.6432 383.0001,-107.6432 390.0001,-107.6431"/>
</g>
<!-- Node29&#45;&gt;Node6 -->
<g id="edge49" class="edge">
<title>Node29&#45;&gt;Node6</title>
<path fill="none" stroke="#191970" d="M189.3216,-72.9005C175.5616,-62.0544 152.9535,-44.2339 136.5738,-31.3229"/>
<polygon fill="#191970" stroke="#191970" points="138.6761,-28.5234 128.6558,-25.0817 134.3427,-34.0209 138.6761,-28.5234"/>
</g>
<!-- Node30 -->
<g id="node31" class="node">
<title>Node30</title>
<polygon fill="#ffffff" stroke="#bfbfbf" points="169,-6 169,-25 234,-25 234,-6 169,-6"/>
<text text-anchor="middle" x="201.5" y="-13" font-family="Helvetica,sans-Serif" font-size="10.00" fill="#000000">functional</text>
</g>
<!-- Node29&#45;&gt;Node30 -->
<g id="edge48" class="edge">
<title>Node29&#45;&gt;Node30</title>
<path fill="none" stroke="#191970" d="M201.5,-72.9005C201.5,-63.149 201.5,-47.7597 201.5,-35.3695"/>
<polygon fill="#191970" stroke="#191970" points="205.0001,-35.0816 201.5,-25.0817 198.0001,-35.0817 205.0001,-35.0816"/>
</g>
<!-- Node31 -->
<g id="node32" class="node">
<title>Node31</title>
<g id="a_node32"><a xlink:href="double__overloads_8h.html" target="_top" xlink:title="Provides necessary operations on double to have it as a ScalarType in drake. ">
<polygon fill="#ffffff" stroke="#000000" points="252.5,-.5 252.5,-30.5 378.5,-30.5 378.5,-.5 252.5,-.5"/>
<text text-anchor="start" x="260.5" y="-18.5" font-family="Helvetica,sans-Serif" font-size="10.00" fill="#000000">drake/common/double</text>
<text text-anchor="middle" x="315.5" y="-7.5" font-family="Helvetica,sans-Serif" font-size="10.00" fill="#000000">_overloads.h</text>
</a>
</g>
</g>
<!-- Node29&#45;&gt;Node31 -->
<g id="edge50" class="edge">
<title>Node29&#45;&gt;Node31</title>
<path fill="none" stroke="#191970" d="M217.8334,-72.9005C234.3178,-63.2123 260.2707,-47.9593 281.2808,-35.6113"/>
<polygon fill="#191970" stroke="#191970" points="283.0927,-38.6062 289.9406,-30.5218 279.5459,-32.5713 283.0927,-38.6062"/>
</g>
<!-- Node32&#45;&gt;Node12 -->
<g id="edge53" class="edge">
<title>Node32&#45;&gt;Node12</title>
<path fill="none" stroke="#191970" d="M400.7957,-67.2967C410.5161,-56.9591 423.3894,-43.2684 433.4597,-32.5588"/>
<polygon fill="#191970" stroke="#191970" points="436.215,-34.7378 440.5155,-25.055 431.1154,-29.9426 436.215,-34.7378"/>
</g>
<!-- Node33&#45;&gt;Node1 -->
<g id="edge59" class="edge">
<title>Node33&#45;&gt;Node1</title>
<path fill="none" stroke="#191970" d="M1864.799,-268.3614C1864.3287,-250.0723 1860.7557,-219.4655 1843.5,-201 1828.0173,-184.4317 1771.7769,-168.6854 1731.0267,-159.0652"/>
<polygon fill="#191970" stroke="#191970" points="1731.566,-155.5976 1721.0345,-156.7545 1729.9888,-162.4176 1731.566,-155.5976"/>
</g>
<!-- Node33&#45;&gt;Node3 -->
<g id="edge56" class="edge">
<title>Node33&#45;&gt;Node3</title>
<path fill="none" stroke="#191970" d="M1939.1061,-276.0878C1996.2087,-268.692 2068.1937,-255.0392 2086.5,-232 2133.2592,-173.1518 2095.1763,-74.8642 2075.9468,-34.0962"/>
<polygon fill="#191970" stroke="#191970" points="2079.0552,-32.485 2071.5272,-25.0297 2072.7629,-35.5523 2079.0552,-32.485"/>
</g>
<!-- Node33&#45;&gt;Node4 -->
<g id="edge58" class="edge">
<title>Node33&#45;&gt;Node4</title>
<path fill="none" stroke="#191970" d="M1836.2231,-268.4639C1815.082,-257.2222 1786.3542,-241.9463 1765.5216,-230.8686"/>
<polygon fill="#191970" stroke="#191970" points="1767.0337,-227.7087 1756.5611,-226.1039 1763.7472,-233.8892 1767.0337,-227.7087"/>
</g>
<!-- Node33&#45;&gt;Node16 -->
<g id="edge57" class="edge">
<title>Node33&#45;&gt;Node16</title>
<path fill="none" stroke="#191970" d="M1851.5658,-268.2967C1842.8574,-258.0605 1831.352,-244.5366 1822.2814,-233.8746"/>
<polygon fill="#191970" stroke="#191970" points="1824.7745,-231.4036 1815.6289,-226.055 1819.4429,-235.9395 1824.7745,-231.4036"/>
</g>
<!-- Node34 -->
<g id="node35" class="node">
<title>Node34</title>
<g id="a_node35"><a xlink:href="common_2trajectories_2trajectory_8h.html" target="_top" xlink:title="drake/common/trajectories\l/trajectory.h">
<polygon fill="#ffffff" stroke="#000000" points="1928,-201.5 1928,-231.5 2077,-231.5 2077,-201.5 1928,-201.5"/>
<text text-anchor="start" x="1936" y="-219.5" font-family="Helvetica,sans-Serif" font-size="10.00" fill="#000000">drake/common/trajectories</text>
<text text-anchor="middle" x="2002.5" y="-208.5" font-family="Helvetica,sans-Serif" font-size="10.00" fill="#000000">/trajectory.h</text>
</a>
</g>
</g>
<!-- Node33&#45;&gt;Node34 -->
<g id="edge60" class="edge">
<title>Node33&#45;&gt;Node34</title>
<path fill="none" stroke="#191970" d="M1895.4699,-268.4639C1915.1292,-258.9191 1940.7784,-246.4663 1962.0393,-236.144"/>
<polygon fill="#191970" stroke="#191970" points="1963.6888,-239.2339 1971.156,-231.7177 1960.6315,-232.9368 1963.6888,-239.2339"/>
</g>
<!-- Node34&#45;&gt;Node1 -->
<g id="edge62" class="edge">
<title>Node34&#45;&gt;Node1</title>
<path fill="none" stroke="#191970" d="M1931.5834,-201.4639C1870.1694,-188.4426 1783.228,-170.0088 1731.099,-158.9561"/>
<polygon fill="#191970" stroke="#191970" points="1731.6637,-155.4981 1721.1552,-156.8478 1730.2118,-162.3459 1731.6637,-155.4981"/>
</g>
<!-- Node34&#45;&gt;Node3 -->
<g id="edge61" class="edge">
<title>Node34&#45;&gt;Node3</title>
<path fill="none" stroke="#191970" d="M2007.3104,-201.3923C2018.7608,-165.431 2047.624,-74.7824 2060.3316,-34.8727"/>
<polygon fill="#191970" stroke="#191970" points="2063.6945,-35.8468 2063.3935,-25.2562 2057.0245,-33.7229 2063.6945,-35.8468"/>
</g>
<!-- Node34&#45;&gt;Node7 -->
<g id="edge63" class="edge">
<title>Node34&#45;&gt;Node7</title>
<path fill="none" stroke="#191970" d="M2015.6534,-201.3923C2046.1324,-166.385 2121.7321,-79.5534 2157.7763,-38.1541"/>
<polygon fill="#191970" stroke="#191970" points="2160.5059,-40.3491 2164.4326,-30.5088 2155.2265,-35.7526 2160.5059,-40.3491"/>
</g>
<!-- Node34&#45;&gt;Node8 -->
<g id="edge64" class="edge">
<title>Node34&#45;&gt;Node8</title>
<path fill="none" stroke="#191970" d="M1962.1546,-201.365C1909.6219,-182.3345 1814.57,-150.1982 1730.5,-134 1542.8473,-97.844 1317.0402,-87.0572 1204.875,-83.8497"/>
<polygon fill="#191970" stroke="#191970" points="1204.7992,-80.3464 1194.707,-83.5709 1204.6073,-87.3438 1204.7992,-80.3464"/>
</g>
</g>
</svg>
