<?xml version="1.0" encoding="UTF-8" standalone="no"?>
<!DOCTYPE svg PUBLIC "-//W3C//DTD SVG 1.1//EN"
 "http://www.w3.org/Graphics/SVG/1.1/DTD/svg11.dtd">
<!-- Generated by graphviz version 2.40.1 (20161225.0304)
 -->
<!-- Title: drake/systems/controllers/zmp_planner.h Pages: 1 -->
<svg width="2147pt" height="519pt"
 viewBox="0.00 0.00 2146.50 519.00" xmlns="http://www.w3.org/2000/svg" xmlns:xlink="http://www.w3.org/1999/xlink">
<g id="graph0" class="graph" transform="scale(1 1) rotate(0) translate(4 515)">
<title>drake/systems/controllers/zmp_planner.h</title>
<polygon fill="#ffffff" stroke="transparent" points="-4,4 -4,-515 2142.5,-515 2142.5,4 -4,4"/>
<!-- Node0 -->
<g id="node1" class="node">
<title>Node0</title>
<polygon fill="#bfbfbf" stroke="#000000" points="374.5,-480.5 374.5,-510.5 517.5,-510.5 517.5,-480.5 374.5,-480.5"/>
<text text-anchor="start" x="382.5" y="-498.5" font-family="Helvetica,sans-Serif" font-size="10.00" fill="#000000">drake/systems/controllers</text>
<text text-anchor="middle" x="446" y="-487.5" font-family="Helvetica,sans-Serif" font-size="10.00" fill="#000000">/zmp_planner.h</text>
</g>
<!-- Node1 -->
<g id="node2" class="node">
<title>Node1</title>
<g id="a_node2"><a xlink:href="drake__assert_8h.html" target="_top" xlink:title="Provides Drake&#39;s assertion implementation. ">
<polygon fill="#ffffff" stroke="#000000" points="2017.5,-67.5 2017.5,-97.5 2138.5,-97.5 2138.5,-67.5 2017.5,-67.5"/>
<text text-anchor="start" x="2025.5" y="-85.5" font-family="Helvetica,sans-Serif" font-size="10.00" fill="#000000">drake/common/drake</text>
<text text-anchor="middle" x="2078" y="-74.5" font-family="Helvetica,sans-Serif" font-size="10.00" fill="#000000">_assert.h</text>
</a>
</g>
</g>
<!-- Node0&#45;&gt;Node1 -->
<g id="edge1" class="edge">
<title>Node0&#45;&gt;Node1</title>
<path fill="none" stroke="#191970" d="M517.7017,-492.9445C832.6801,-481.2553 2078,-430.0125 2078,-350.5 2078,-350.5 2078,-350.5 2078,-216.5 2078,-178.6735 2078,-134.8406 2078,-107.8908"/>
<polygon fill="#191970" stroke="#191970" points="2081.5001,-107.7729 2078,-97.7729 2074.5001,-107.773 2081.5001,-107.7729"/>
</g>
<!-- Node3 -->
<g id="node4" class="node">
<title>Node3</title>
<g id="a_node4"><a xlink:href="drake__copyable_8h.html" target="_top" xlink:title="Provides careful macros to selectively enable or disable the special member functions for copy&#45;constr...">
<polygon fill="#ffffff" stroke="#000000" points="15.5,-.5 15.5,-30.5 136.5,-30.5 136.5,-.5 15.5,-.5"/>
<text text-anchor="start" x="23.5" y="-18.5" font-family="Helvetica,sans-Serif" font-size="10.00" fill="#000000">drake/common/drake</text>
<text text-anchor="middle" x="76" y="-7.5" font-family="Helvetica,sans-Serif" font-size="10.00" fill="#000000">_copyable.h</text>
</a>
</g>
</g>
<!-- Node0&#45;&gt;Node3 -->
<g id="edge3" class="edge">
<title>Node0&#45;&gt;Node3</title>
<path fill="none" stroke="#191970" d="M374.3424,-487.2417C248.2685,-470.7006 0,-428.256 0,-350.5 0,-350.5 0,-350.5 0,-149.5 0,-105.8187 30.9339,-63.3321 53.331,-38.2952"/>
<polygon fill="#191970" stroke="#191970" points="56.0395,-40.5211 60.2528,-30.8 50.897,-35.7719 56.0395,-40.5211"/>
</g>
<!-- Node4 -->
<g id="node5" class="node">
<title>Node4</title>
<g id="a_node5"><a xlink:href="exponential__plus__piecewise__polynomial_8h.html" target="_top" xlink:title="drake/common/trajectories\l/exponential_plus_piecewise\l_polynomial.h">
<polygon fill="#ffffff" stroke="#000000" points="421.5,-402.5 421.5,-443.5 578.5,-443.5 578.5,-402.5 421.5,-402.5"/>
<text text-anchor="start" x="429.5" y="-431.5" font-family="Helvetica,sans-Serif" font-size="10.00" fill="#000000">drake/common/trajectories</text>
<text text-anchor="start" x="429.5" y="-420.5" font-family="Helvetica,sans-Serif" font-size="10.00" fill="#000000">/exponential_plus_piecewise</text>
<text text-anchor="middle" x="500" y="-409.5" font-family="Helvetica,sans-Serif" font-size="10.00" fill="#000000">_polynomial.h</text>
</a>
</g>
</g>
<!-- Node0&#45;&gt;Node4 -->
<g id="edge4" class="edge">
<title>Node0&#45;&gt;Node4</title>
<path fill="none" stroke="#191970" d="M457.1888,-480.478C463.4156,-472.118 471.3746,-461.4322 478.737,-451.5476"/>
<polygon fill="#191970" stroke="#191970" points="481.5634,-453.6121 484.7299,-443.5015 475.9495,-449.4307 481.5634,-453.6121"/>
</g>
<!-- Node11 -->
<g id="node12" class="node">
<title>Node11</title>
<g id="a_node12"><a xlink:href="piecewise__polynomial_8h.html" target="_top" xlink:title="drake/common/trajectories\l/piecewise_polynomial.h">
<polygon fill="#ffffff" stroke="#000000" points="321.5,-335.5 321.5,-365.5 470.5,-365.5 470.5,-335.5 321.5,-335.5"/>
<text text-anchor="start" x="329.5" y="-353.5" font-family="Helvetica,sans-Serif" font-size="10.00" fill="#000000">drake/common/trajectories</text>
<text text-anchor="middle" x="396" y="-342.5" font-family="Helvetica,sans-Serif" font-size="10.00" fill="#000000">/piecewise_polynomial.h</text>
</a>
</g>
</g>
<!-- Node0&#45;&gt;Node11 -->
<g id="edge66" class="edge">
<title>Node0&#45;&gt;Node11</title>
<path fill="none" stroke="#191970" d="M433.4563,-480.2135C426.0766,-470.4329 417.1995,-457.1516 412,-444 403.2535,-421.8768 399.2834,-394.9501 397.4842,-375.6848"/>
<polygon fill="#191970" stroke="#191970" points="400.9625,-375.2735 396.6736,-365.5856 393.9849,-375.8336 400.9625,-375.2735"/>
</g>
<!-- Node2 -->
<g id="node3" class="node">
<title>Node2</title>
<polygon fill="#ffffff" stroke="#bfbfbf" points="1817.5,-6 1817.5,-25 1886.5,-25 1886.5,-6 1817.5,-6"/>
<text text-anchor="middle" x="1852" y="-13" font-family="Helvetica,sans-Serif" font-size="10.00" fill="#000000">type_traits</text>
</g>
<!-- Node1&#45;&gt;Node2 -->
<g id="edge2" class="edge">
<title>Node1&#45;&gt;Node2</title>
<path fill="none" stroke="#191970" d="M2021.1597,-67.4052C1985.1273,-57.5925 1937.6293,-44.2079 1896,-31 1893.4115,-30.1787 1890.7462,-29.3067 1888.0686,-28.4112"/>
<polygon fill="#191970" stroke="#191970" points="1889.0285,-25.0405 1878.4339,-25.1151 1886.7626,-31.6637 1889.0285,-25.0405"/>
</g>
<!-- Node4&#45;&gt;Node1 -->
<g id="edge8" class="edge">
<title>Node4&#45;&gt;Node1</title>
<path fill="none" stroke="#191970" d="M578.7525,-420.0386C892.9571,-407.7131 2040,-357.6399 2040,-283.5 2040,-283.5 2040,-283.5 2040,-216.5 2040,-177.0468 2055.4352,-133.4537 2066.6309,-107.0231"/>
<polygon fill="#191970" stroke="#191970" points="2069.8738,-108.3427 2070.6732,-97.778 2063.4601,-105.5383 2069.8738,-108.3427"/>
</g>
<!-- Node4&#45;&gt;Node3 -->
<g id="edge9" class="edge">
<title>Node4&#45;&gt;Node3</title>
<path fill="none" stroke="#191970" d="M421.3663,-415.5767C289.4844,-400.9292 38,-362.6245 38,-283.5 38,-283.5 38,-283.5 38,-149.5 38,-110.0468 53.4352,-66.4537 64.6309,-40.0231"/>
<polygon fill="#191970" stroke="#191970" points="67.8738,-41.3427 68.6732,-30.778 61.4601,-38.5383 67.8738,-41.3427"/>
</g>
<!-- Node5 -->
<g id="node6" class="node">
<title>Node5</title>
<polygon fill="#ffffff" stroke="#bfbfbf" points="199,-6 199,-25 257,-25 257,-6 199,-6"/>
<text text-anchor="middle" x="228" y="-13" font-family="Helvetica,sans-Serif" font-size="10.00" fill="#000000">memory</text>
</g>
<!-- Node4&#45;&gt;Node5 -->
<g id="edge5" class="edge">
<title>Node4&#45;&gt;Node5</title>
<path fill="none" stroke="#191970" d="M421.4219,-410.9437C308.5612,-391.3765 114,-348.2538 114,-283.5 114,-283.5 114,-283.5 114,-149.5 114,-95.6166 168.1366,-52.3629 201.7969,-30.6769"/>
<polygon fill="#191970" stroke="#191970" points="204.0474,-33.3987 210.6859,-25.1414 200.3471,-27.4567 204.0474,-33.3987"/>
</g>
<!-- Node6 -->
<g id="node7" class="node">
<title>Node6</title>
<polygon fill="#ffffff" stroke="#bfbfbf" points="460.5,-207 460.5,-226 507.5,-226 507.5,-207 460.5,-207"/>
<text text-anchor="middle" x="484" y="-214" font-family="Helvetica,sans-Serif" font-size="10.00" fill="#000000">vector</text>
</g>
<!-- Node4&#45;&gt;Node6 -->
<g id="edge6" class="edge">
<title>Node4&#45;&gt;Node6</title>
<path fill="none" stroke="#191970" d="M498.4074,-402.445C495.3283,-362.7054 488.5946,-275.7986 485.5497,-236.5014"/>
<polygon fill="#191970" stroke="#191970" points="489.0251,-236.0467 484.763,-226.347 482.046,-236.5875 489.0251,-236.0467"/>
</g>
<!-- Node7 -->
<g id="node8" class="node">
<title>Node7</title>
<polygon fill="#ffffff" stroke="#bfbfbf" points="417.5,-140 417.5,-159 486.5,-159 486.5,-140 417.5,-140"/>
<text text-anchor="middle" x="452" y="-147" font-family="Helvetica,sans-Serif" font-size="10.00" fill="#000000">Eigen/Core</text>
</g>
<!-- Node4&#45;&gt;Node7 -->
<g id="edge7" class="edge">
<title>Node4&#45;&gt;Node7</title>
<path fill="none" stroke="#191970" d="M507.9468,-402.4557C522.3606,-361.7174 548.461,-268.7865 516,-201 508.5217,-185.3836 493.7425,-172.9964 480.269,-164.2879"/>
<polygon fill="#191970" stroke="#191970" points="482.0612,-161.2814 471.6935,-159.0993 478.4375,-167.2705 482.0612,-161.2814"/>
</g>
<!-- Node8 -->
<g id="node9" class="node">
<title>Node8</title>
<g id="a_node9"><a xlink:href="eigen__types_8h.html" target="_top" xlink:title="This file contains abbreviated definitions for certain specializations of Eigen::Matrix that are comm...">
<polygon fill="#ffffff" stroke="#000000" points="476,-67.5 476,-97.5 596,-97.5 596,-67.5 476,-67.5"/>
<text text-anchor="start" x="484" y="-85.5" font-family="Helvetica,sans-Serif" font-size="10.00" fill="#000000">drake/common/eigen</text>
<text text-anchor="middle" x="536" y="-74.5" font-family="Helvetica,sans-Serif" font-size="10.00" fill="#000000">_types.h</text>
</a>
</g>
</g>
<!-- Node4&#45;&gt;Node8 -->
<g id="edge10" class="edge">
<title>Node4&#45;&gt;Node8</title>
<path fill="none" stroke="#191970" d="M578.5908,-414.8727C750.0536,-395.2673 1148.2223,-338.9089 1221,-232 1292.2953,-127.2686 794.6949,-94.0101 606.2666,-85.2382"/>
<polygon fill="#191970" stroke="#191970" points="606.3345,-81.7378 596.1855,-84.7786 606.0157,-88.7305 606.3345,-81.7378"/>
</g>
<!-- Node4&#45;&gt;Node11 -->
<g id="edge15" class="edge">
<title>Node4&#45;&gt;Node11</title>
<path fill="none" stroke="#191970" d="M470.476,-402.4183C456.5513,-392.7112 439.9639,-381.1479 425.9816,-371.4007"/>
<polygon fill="#191970" stroke="#191970" points="427.8644,-368.4467 417.6594,-365.5991 423.8613,-374.1891 427.8644,-368.4467"/>
</g>
<!-- Node8&#45;&gt;Node3 -->
<g id="edge14" class="edge">
<title>Node8&#45;&gt;Node3</title>
<path fill="none" stroke="#191970" d="M475.863,-73.7409C391.0931,-61.394 236.7685,-38.9163 146.6439,-25.7894"/>
<polygon fill="#191970" stroke="#191970" points="146.9176,-22.2924 136.5175,-24.3145 145.9086,-29.2194 146.9176,-22.2924"/>
</g>
<!-- Node8&#45;&gt;Node5 -->
<g id="edge11" class="edge">
<title>Node8&#45;&gt;Node5</title>
<path fill="none" stroke="#191970" d="M475.8833,-69.4227C414.1727,-55.9986 319.938,-35.4995 267.2142,-24.0304"/>
<polygon fill="#191970" stroke="#191970" points="267.7603,-20.5674 257.2449,-21.8617 266.2724,-27.4074 267.7603,-20.5674"/>
</g>
<!-- Node9 -->
<g id="node10" class="node">
<title>Node9</title>
<polygon fill="#ffffff" stroke="#bfbfbf" points="1083.5,-6 1083.5,-25 1160.5,-25 1160.5,-6 1083.5,-6"/>
<text text-anchor="middle" x="1122" y="-13" font-family="Helvetica,sans-Serif" font-size="10.00" fill="#000000">Eigen/Dense</text>
</g>
<!-- Node8&#45;&gt;Node9 -->
<g id="edge12" class="edge">
<title>Node8&#45;&gt;Node9</title>
<path fill="none" stroke="#191970" d="M596.2315,-75.6135C712.6844,-62.2989 966.6181,-33.2655 1073.2808,-21.0703"/>
<polygon fill="#191970" stroke="#191970" points="1073.8982,-24.5226 1083.4359,-19.9092 1073.103,-17.5679 1073.8982,-24.5226"/>
</g>
<!-- Node10 -->
<g id="node11" class="node">
<title>Node10</title>
<g id="a_node11"><a xlink:href="constants_8h.html" target="_top" xlink:title="drake/common/constants.h">
<polygon fill="#ffffff" stroke="#000000" points="461.5,-6 461.5,-25 610.5,-25 610.5,-6 461.5,-6"/>
<text text-anchor="middle" x="536" y="-13" font-family="Helvetica,sans-Serif" font-size="10.00" fill="#000000">drake/common/constants.h</text>
</a>
</g>
</g>
<!-- Node8&#45;&gt;Node10 -->
<g id="edge13" class="edge">
<title>Node8&#45;&gt;Node10</title>
<path fill="none" stroke="#191970" d="M536,-67.2967C536,-57.7699 536,-45.3954 536,-35.1306"/>
<polygon fill="#191970" stroke="#191970" points="539.5001,-35.0549 536,-25.055 532.5001,-35.055 539.5001,-35.0549"/>
</g>
<!-- Node11&#45;&gt;Node3 -->
<g id="edge20" class="edge">
<title>Node11&#45;&gt;Node3</title>
<path fill="none" stroke="#191970" d="M321.4792,-343.1453C275.5452,-336.3455 216.5427,-323.4119 169,-299 119.848,-273.7618 76,-271.753 76,-216.5 76,-216.5 76,-216.5 76,-149.5 76,-111.6735 76,-67.8406 76,-40.8908"/>
<polygon fill="#191970" stroke="#191970" points="79.5001,-40.7729 76,-30.7729 72.5001,-40.773 79.5001,-40.7729"/>
</g>
<!-- Node11&#45;&gt;Node5 -->
<g id="edge17" class="edge">
<title>Node11&#45;&gt;Node5</title>
<path fill="none" stroke="#191970" d="M321.4661,-341.2353C249.7102,-327.6567 152,-294.7926 152,-216.5 152,-216.5 152,-216.5 152,-149.5 152,-102.1632 188.328,-56.2294 210.7515,-32.3856"/>
<polygon fill="#191970" stroke="#191970" points="213.2961,-34.7892 217.7503,-25.1761 208.2735,-29.9133 213.2961,-34.7892"/>
</g>
<!-- Node11&#45;&gt;Node6 -->
<g id="edge18" class="edge">
<title>Node11&#45;&gt;Node6</title>
<path fill="none" stroke="#191970" d="M408.8129,-335.1267C416.9522,-325.0955 427.5138,-311.5746 436,-299 450.2578,-277.8731 464.7104,-252.3513 473.9767,-235.3425"/>
<polygon fill="#191970" stroke="#191970" points="477.128,-236.8726 478.7926,-226.4093 470.9664,-233.5508 477.128,-236.8726"/>
</g>
<!-- Node11&#45;&gt;Node7 -->
<g id="edge19" class="edge">
<title>Node11&#45;&gt;Node7</title>
<path fill="none" stroke="#191970" d="M400.2091,-335.3923C410.2068,-299.5077 435.3759,-209.1687 446.5313,-169.1287"/>
<polygon fill="#191970" stroke="#191970" points="449.9695,-169.8287 449.2819,-159.2562 443.2263,-167.9499 449.9695,-169.8287"/>
</g>
<!-- Node11&#45;&gt;Node8 -->
<g id="edge21" class="edge">
<title>Node11&#45;&gt;Node8</title>
<path fill="none" stroke="#191970" d="M419.7287,-335.4856C448.5173,-315.7418 495.7138,-278.0937 516,-232 533.9437,-191.2289 536.8715,-138.6305 536.8163,-107.9254"/>
<polygon fill="#191970" stroke="#191970" points="540.3127,-107.6198 536.6832,-97.6661 533.3133,-107.7106 540.3127,-107.6198"/>
</g>
<!-- Node12 -->
<g id="node13" class="node">
<title>Node12</title>
<polygon fill="#ffffff" stroke="#bfbfbf" points="1683,-6 1683,-25 1727,-25 1727,-6 1683,-6"/>
<text text-anchor="middle" x="1705" y="-13" font-family="Helvetica,sans-Serif" font-size="10.00" fill="#000000">limits</text>
</g>
<!-- Node11&#45;&gt;Node12 -->
<g id="edge16" class="edge">
<title>Node11&#45;&gt;Node12</title>
<path fill="none" stroke="#191970" d="M470.5362,-347.4215C618.0729,-340.8709 942.4288,-324.0716 1051,-299 1130.1294,-280.7272 1175.2996,-299.1329 1221,-232 1245.5215,-195.9784 1191.4562,-168.5585 1218,-134 1288.332,-42.4316 1356.7891,-94.2045 1469,-67 1541.5962,-49.3997 1627.4242,-31.3589 1672.9239,-22.0115"/>
<polygon fill="#191970" stroke="#191970" points="1673.7025,-25.4248 1682.7971,-19.9898 1672.2982,-18.5671 1673.7025,-25.4248"/>
</g>
<!-- Node13 -->
<g id="node14" class="node">
<title>Node13</title>
<g id="a_node14"><a xlink:href="polynomial_8h.html" target="_top" xlink:title="drake/common/polynomial.h">
<polygon fill="#ffffff" stroke="#000000" points="884.5,-274 884.5,-293 1041.5,-293 1041.5,-274 884.5,-274"/>
<text text-anchor="middle" x="963" y="-281" font-family="Helvetica,sans-Serif" font-size="10.00" fill="#000000">drake/common/polynomial.h</text>
</a>
</g>
</g>
<!-- Node11&#45;&gt;Node13 -->
<g id="edge22" class="edge">
<title>Node11&#45;&gt;Node13</title>
<path fill="none" stroke="#191970" d="M470.7084,-341.672C574.8129,-329.3704 763.2054,-307.1089 874.3067,-293.9805"/>
<polygon fill="#191970" stroke="#191970" points="874.9609,-297.4277 884.481,-292.7783 874.1394,-290.476 874.9609,-297.4277"/>
</g>
<!-- Node33 -->
<g id="node34" class="node">
<title>Node33</title>
<g id="a_node34"><a xlink:href="piecewise__trajectory_8h.html" target="_top" xlink:title="drake/common/trajectories\l/piecewise_trajectory.h">
<polygon fill="#ffffff" stroke="#000000" points="245.5,-268.5 245.5,-298.5 394.5,-298.5 394.5,-268.5 245.5,-268.5"/>
<text text-anchor="start" x="253.5" y="-286.5" font-family="Helvetica,sans-Serif" font-size="10.00" fill="#000000">drake/common/trajectories</text>
<text text-anchor="middle" x="320" y="-275.5" font-family="Helvetica,sans-Serif" font-size="10.00" fill="#000000">/piecewise_trajectory.h</text>
</a>
</g>
</g>
<!-- Node11&#45;&gt;Node33 -->
<g id="edge56" class="edge">
<title>Node11&#45;&gt;Node33</title>
<path fill="none" stroke="#191970" d="M378.7544,-335.2967C368.7458,-326.4733 355.9664,-315.2072 344.8836,-305.4368"/>
<polygon fill="#191970" stroke="#191970" points="346.9932,-302.6307 337.1773,-298.6432 342.3641,-307.8816 346.9932,-302.6307"/>
</g>
<!-- Node13&#45;&gt;Node1 -->
<g id="edge55" class="edge">
<title>Node13&#45;&gt;Node1</title>
<path fill="none" stroke="#191970" d="M1041.6256,-280.6554C1250.5862,-272.1092 1815.2173,-242.3089 1983,-165 1999.042,-157.6083 2032.727,-126.6329 2055.3626,-104.8197"/>
<polygon fill="#191970" stroke="#191970" points="2057.8356,-107.297 2062.574,-97.8208 2052.9604,-102.2738 2057.8356,-107.297"/>
</g>
<!-- Node13&#45;&gt;Node6 -->
<g id="edge29" class="edge">
<title>Node13&#45;&gt;Node6</title>
<path fill="none" stroke="#191970" d="M894.117,-273.9742C819.8057,-263.6832 698.0043,-246.7736 593,-232 567.7879,-228.4528 539.3023,-224.4005 517.7757,-221.3292"/>
<polygon fill="#191970" stroke="#191970" points="518.2062,-217.8552 507.8119,-219.9067 517.2169,-224.785 518.2062,-217.8552"/>
</g>
<!-- Node13&#45;&gt;Node7 -->
<g id="edge30" class="edge">
<title>Node13&#45;&gt;Node7</title>
<path fill="none" stroke="#191970" d="M884.2449,-277.932C831.0051,-271.8026 760.2474,-258.9454 703,-232 683.2794,-222.7178 684.5229,-210.6912 665,-201 610.623,-174.0073 541.2779,-160.6556 496.7516,-154.4269"/>
<polygon fill="#191970" stroke="#191970" points="497.1929,-150.9548 486.8171,-153.0979 496.2647,-157.893 497.1929,-150.9548"/>
</g>
<!-- Node14 -->
<g id="node15" class="node">
<title>Node14</title>
<polygon fill="#ffffff" stroke="#bfbfbf" points="900.5,-207 900.5,-226 959.5,-226 959.5,-207 900.5,-207"/>
<text text-anchor="middle" x="930" y="-214" font-family="Helvetica,sans-Serif" font-size="10.00" fill="#000000">complex</text>
</g>
<!-- Node13&#45;&gt;Node14 -->
<g id="edge23" class="edge">
<title>Node13&#45;&gt;Node14</title>
<path fill="none" stroke="#191970" d="M958.2719,-273.9005C953.3219,-263.8505 945.4224,-247.8122 939.2303,-235.2403"/>
<polygon fill="#191970" stroke="#191970" points="942.2777,-233.5061 934.7193,-226.0817 935.9981,-236.5991 942.2777,-233.5061"/>
</g>
<!-- Node15 -->
<g id="node16" class="node">
<title>Node15</title>
<polygon fill="#ffffff" stroke="#bfbfbf" points="978,-207 978,-226 1016,-226 1016,-207 978,-207"/>
<text text-anchor="middle" x="997" y="-214" font-family="Helvetica,sans-Serif" font-size="10.00" fill="#000000">map</text>
</g>
<!-- Node13&#45;&gt;Node15 -->
<g id="edge24" class="edge">
<title>Node13&#45;&gt;Node15</title>
<path fill="none" stroke="#191970" d="M967.8714,-273.9005C972.9714,-263.8505 981.1102,-247.8122 987.49,-235.2403"/>
<polygon fill="#191970" stroke="#191970" points="990.7334,-236.583 992.1377,-226.0817 984.4912,-233.4153 990.7334,-236.583"/>
</g>
<!-- Node16 -->
<g id="node17" class="node">
<title>Node16</title>
<polygon fill="#ffffff" stroke="#bfbfbf" points="602,-207 602,-226 656,-226 656,-207 602,-207"/>
<text text-anchor="middle" x="629" y="-214" font-family="Helvetica,sans-Serif" font-size="10.00" fill="#000000">random</text>
</g>
<!-- Node13&#45;&gt;Node16 -->
<g id="edge25" class="edge">
<title>Node13&#45;&gt;Node16</title>
<path fill="none" stroke="#191970" d="M885.9391,-273.9799C826.3378,-265.6535 742.0971,-251.7763 670,-232 667.248,-231.2451 664.4225,-230.3788 661.6041,-229.4499"/>
<polygon fill="#191970" stroke="#191970" points="662.7607,-226.1466 652.1659,-226.1215 660.4327,-232.7481 662.7607,-226.1466"/>
</g>
<!-- Node17 -->
<g id="node18" class="node">
<title>Node17</title>
<polygon fill="#ffffff" stroke="#bfbfbf" points="1034,-207 1034,-226 1066,-226 1066,-207 1034,-207"/>
<text text-anchor="middle" x="1050" y="-214" font-family="Helvetica,sans-Serif" font-size="10.00" fill="#000000">set</text>
</g>
<!-- Node13&#45;&gt;Node17 -->
<g id="edge26" class="edge">
<title>Node13&#45;&gt;Node17</title>
<path fill="none" stroke="#191970" d="M975.465,-273.9005C989.5487,-263.0544 1012.6888,-245.2339 1029.4539,-232.3229"/>
<polygon fill="#191970" stroke="#191970" points="1031.7708,-234.9562 1037.5581,-226.0817 1027.4997,-229.4102 1031.7708,-234.9562"/>
</g>
<!-- Node18 -->
<g id="node19" class="node">
<title>Node18</title>
<polygon fill="#ffffff" stroke="#bfbfbf" points="1084.5,-207 1084.5,-226 1149.5,-226 1149.5,-207 1084.5,-207"/>
<text text-anchor="middle" x="1117" y="-214" font-family="Helvetica,sans-Serif" font-size="10.00" fill="#000000">stdexcept</text>
</g>
<!-- Node13&#45;&gt;Node18 -->
<g id="edge27" class="edge">
<title>Node13&#45;&gt;Node18</title>
<path fill="none" stroke="#191970" d="M985.0644,-273.9005C1011.3665,-262.4574 1055.5128,-243.2509 1085.4245,-230.2374"/>
<polygon fill="#191970" stroke="#191970" points="1087.203,-233.2806 1094.9765,-226.0817 1084.4104,-226.8617 1087.203,-233.2806"/>
</g>
<!-- Node19 -->
<g id="node20" class="node">
<title>Node19</title>
<polygon fill="#ffffff" stroke="#bfbfbf" points="1168,-207 1168,-226 1212,-226 1212,-207 1168,-207"/>
<text text-anchor="middle" x="1190" y="-214" font-family="Helvetica,sans-Serif" font-size="10.00" fill="#000000">string</text>
</g>
<!-- Node13&#45;&gt;Node19 -->
<g id="edge28" class="edge">
<title>Node13&#45;&gt;Node19</title>
<path fill="none" stroke="#191970" d="M1010.1803,-273.9809C1050.4191,-265.1855 1109.4497,-250.6677 1159,-232 1160.3725,-231.4829 1161.7647,-230.9238 1163.1604,-230.3353"/>
<polygon fill="#191970" stroke="#191970" points="1164.6237,-233.5147 1172.2501,-226.1601 1161.7019,-227.1537 1164.6237,-233.5147"/>
</g>
<!-- Node20 -->
<g id="node21" class="node">
<title>Node20</title>
<polygon fill="#ffffff" stroke="#bfbfbf" points="712,-207 712,-226 882,-226 882,-207 712,-207"/>
<text text-anchor="middle" x="797" y="-214" font-family="Helvetica,sans-Serif" font-size="10.00" fill="#000000">unsupported/Eigen/Polynomials</text>
</g>
<!-- Node13&#45;&gt;Node20 -->
<g id="edge31" class="edge">
<title>Node13&#45;&gt;Node20</title>
<path fill="none" stroke="#191970" d="M939.2162,-273.9005C910.6181,-262.3579 862.4494,-242.9163 830.1983,-229.8993"/>
<polygon fill="#191970" stroke="#191970" points="831.3228,-226.5789 820.7396,-226.0817 828.7028,-233.0701 831.3228,-226.5789"/>
</g>
<!-- Node21 -->
<g id="node22" class="node">
<title>Node21</title>
<g id="a_node22"><a xlink:href="common_2autodiff_8h.html" target="_top" xlink:title="drake/common/autodiff.h">
<polygon fill="#ffffff" stroke="#000000" points="1386,-207 1386,-226 1526,-226 1526,-207 1386,-207"/>
<text text-anchor="middle" x="1456" y="-214" font-family="Helvetica,sans-Serif" font-size="10.00" fill="#000000">drake/common/autodiff.h</text>
</a>
</g>
</g>
<!-- Node13&#45;&gt;Node21 -->
<g id="edge32" class="edge">
<title>Node13&#45;&gt;Node21</title>
<path fill="none" stroke="#191970" d="M1033.1113,-273.9717C1123.5245,-261.6843 1280.4226,-240.3614 1375.5819,-227.429"/>
<polygon fill="#191970" stroke="#191970" points="1376.2943,-230.8645 1385.7319,-226.0496 1375.3516,-223.9282 1376.2943,-230.8645"/>
</g>
<!-- Node21&#45;&gt;Node7 -->
<g id="edge33" class="edge">
<title>Node21&#45;&gt;Node7</title>
<path fill="none" stroke="#191970" d="M1385.7997,-211.8153C1192.4295,-198.9111 655.8635,-163.1044 496.9206,-152.4977"/>
<polygon fill="#191970" stroke="#191970" points="496.7822,-148.9808 486.5713,-151.8071 496.316,-155.9652 496.7822,-148.9808"/>
</g>
<!-- Node22 -->
<g id="node23" class="node">
<title>Node22</title>
<polygon fill="#ffffff" stroke="#bfbfbf" points="1226.5,-140 1226.5,-159 1377.5,-159 1377.5,-140 1226.5,-140"/>
<text text-anchor="middle" x="1302" y="-147" font-family="Helvetica,sans-Serif" font-size="10.00" fill="#000000">unsupported/Eigen/AutoDiff</text>
</g>
<!-- Node21&#45;&gt;Node22 -->
<g id="edge34" class="edge">
<title>Node21&#45;&gt;Node22</title>
<path fill="none" stroke="#191970" d="M1433.9356,-206.9005C1407.6335,-195.4574 1363.4872,-176.2509 1333.5755,-163.2374"/>
<polygon fill="#191970" stroke="#191970" points="1334.5896,-159.8617 1324.0235,-159.0817 1331.797,-166.2806 1334.5896,-159.8617"/>
</g>
<!-- Node23 -->
<g id="node24" class="node">
<title>Node23</title>
<g id="a_node24"><a xlink:href="eigen__autodiff__limits_8h.html" target="_top" xlink:title="drake/common/eigen\l_autodiff_limits.h">
<polygon fill="#ffffff" stroke="#000000" points="1704,-134.5 1704,-164.5 1824,-164.5 1824,-134.5 1704,-134.5"/>
<text text-anchor="start" x="1712" y="-152.5" font-family="Helvetica,sans-Serif" font-size="10.00" fill="#000000">drake/common/eigen</text>
<text text-anchor="middle" x="1764" y="-141.5" font-family="Helvetica,sans-Serif" font-size="10.00" fill="#000000">_autodiff_limits.h</text>
</a>
</g>
</g>
<!-- Node21&#45;&gt;Node23 -->
<g id="edge35" class="edge">
<title>Node21&#45;&gt;Node23</title>
<path fill="none" stroke="#191970" d="M1500.9558,-206.9352C1546.9485,-197.1225 1620.7477,-181.3017 1693.9433,-165.2233"/>
<polygon fill="#191970" stroke="#191970" points="1694.7812,-168.6227 1703.7961,-163.0566 1693.2777,-161.7861 1694.7812,-168.6227"/>
</g>
<!-- Node24 -->
<g id="node25" class="node">
<title>Node24</title>
<g id="a_node25"><a xlink:href="eigen__autodiff__types_8h.html" target="_top" xlink:title="This file contains abbreviated definitions for certain uses of AutoDiffScalar that are commonly used ...">
<polygon fill="#ffffff" stroke="#000000" points="1396,-134.5 1396,-164.5 1516,-164.5 1516,-134.5 1396,-134.5"/>
<text text-anchor="start" x="1404" y="-152.5" font-family="Helvetica,sans-Serif" font-size="10.00" fill="#000000">drake/common/eigen</text>
<text text-anchor="middle" x="1456" y="-141.5" font-family="Helvetica,sans-Serif" font-size="10.00" fill="#000000">_autodiff_types.h</text>
</a>
</g>
</g>
<!-- Node21&#45;&gt;Node24 -->
<g id="edge37" class="edge">
<title>Node21&#45;&gt;Node24</title>
<path fill="none" stroke="#191970" d="M1456,-206.9005C1456,-198.5099 1456,-185.9451 1456,-174.7085"/>
<polygon fill="#191970" stroke="#191970" points="1459.5001,-174.5217 1456,-164.5218 1452.5001,-174.5218 1459.5001,-174.5217"/>
</g>
<!-- Node25 -->
<g id="node26" class="node">
<title>Node25</title>
<g id="a_node26"><a xlink:href="autodiffxd_8h.html" target="_top" xlink:title="drake/common/autodiffxd.h">
<polygon fill="#ffffff" stroke="#000000" points="1534,-140 1534,-159 1686,-159 1686,-140 1534,-140"/>
<text text-anchor="middle" x="1610" y="-147" font-family="Helvetica,sans-Serif" font-size="10.00" fill="#000000">drake/common/autodiffxd.h</text>
</a>
</g>
</g>
<!-- Node21&#45;&gt;Node25 -->
<g id="edge41" class="edge">
<title>Node21&#45;&gt;Node25</title>
<path fill="none" stroke="#191970" d="M1478.0644,-206.9005C1504.3665,-195.4574 1548.5128,-176.2509 1578.4245,-163.2374"/>
<polygon fill="#191970" stroke="#191970" points="1580.203,-166.2806 1587.9765,-159.0817 1577.4104,-159.8617 1580.203,-166.2806"/>
</g>
<!-- Node28 -->
<g id="node29" class="node">
<title>Node28</title>
<g id="a_node29"><a xlink:href="autodiff__overloads_8h.html" target="_top" xlink:title="Overloads for STL mathematical operations on AutoDiffScalar. ">
<polygon fill="#ffffff" stroke="#000000" points="1842.5,-134.5 1842.5,-164.5 1973.5,-164.5 1973.5,-134.5 1842.5,-134.5"/>
<text text-anchor="start" x="1850.5" y="-152.5" font-family="Helvetica,sans-Serif" font-size="10.00" fill="#000000">drake/common/autodiff</text>
<text text-anchor="middle" x="1908" y="-141.5" font-family="Helvetica,sans-Serif" font-size="10.00" fill="#000000">_overloads.h</text>
</a>
</g>
</g>
<!-- Node21&#45;&gt;Node28 -->
<g id="edge45" class="edge">
<title>Node21&#45;&gt;Node28</title>
<path fill="none" stroke="#191970" d="M1526.0487,-208.3775C1599.7629,-199.5025 1719.3721,-184.1763 1832.3387,-165.0454"/>
<polygon fill="#191970" stroke="#191970" points="1832.9292,-168.4953 1842.1979,-163.363 1831.7516,-161.5951 1832.9292,-168.4953"/>
</g>
<!-- Node23&#45;&gt;Node12 -->
<g id="edge36" class="edge">
<title>Node23&#45;&gt;Node12</title>
<path fill="none" stroke="#191970" d="M1720.7481,-134.3832C1704.3324,-126.2891 1687.3532,-114.503 1678,-98 1666.2303,-77.2332 1679.3605,-50.5823 1691.0843,-33.2781"/>
<polygon fill="#191970" stroke="#191970" points="1693.9288,-35.3174 1696.9476,-25.1617 1688.2546,-31.2183 1693.9288,-35.3174"/>
</g>
<!-- Node24&#45;&gt;Node2 -->
<g id="edge38" class="edge">
<title>Node24&#45;&gt;Node2</title>
<path fill="none" stroke="#191970" d="M1459.4453,-134.2094C1464.5909,-115.1684 1476.2193,-83.1808 1499,-67 1505.2584,-62.5547 1713.6608,-34.0908 1807.2615,-21.489"/>
<polygon fill="#191970" stroke="#191970" points="1807.843,-24.9424 1817.2873,-20.1407 1806.91,-18.0048 1807.843,-24.9424"/>
</g>
<!-- Node24&#45;&gt;Node8 -->
<g id="edge40" class="edge">
<title>Node24&#45;&gt;Node8</title>
<path fill="none" stroke="#191970" d="M1395.894,-135.4013C1392.8945,-134.8852 1389.9175,-134.4132 1387,-134 1236.8458,-112.7318 781.8091,-92.5143 606.1923,-85.2928"/>
<polygon fill="#191970" stroke="#191970" points="606.1694,-81.789 596.0345,-84.8768 605.8829,-88.7832 606.1694,-81.789"/>
</g>
<!-- Node24&#45;&gt;Node9 -->
<g id="edge39" class="edge">
<title>Node24&#45;&gt;Node9</title>
<path fill="none" stroke="#191970" d="M1395.8424,-135.716C1392.8565,-135.1167 1389.8966,-134.5409 1387,-134 1333.7705,-124.0593 1186.7818,-133.6237 1146,-98 1128.1469,-82.4049 1123.2106,-54.3797 1122.0342,-35.3667"/>
<polygon fill="#191970" stroke="#191970" points="1125.5247,-35.0127 1121.7061,-25.13 1118.5283,-35.237 1125.5247,-35.0127"/>
</g>
<!-- Node25&#45;&gt;Node9 -->
<g id="edge44" class="edge">
<title>Node25&#45;&gt;Node9</title>
<path fill="none" stroke="#191970" d="M1575.2955,-139.9705C1488.6488,-116.1782 1262.886,-54.1859 1166.5803,-27.7413"/>
<polygon fill="#191970" stroke="#191970" points="1167.4239,-24.3435 1156.8541,-25.0706 1165.5704,-31.0936 1167.4239,-24.3435"/>
</g>
<!-- Node26 -->
<g id="node27" class="node">
<title>Node26</title>
<polygon fill="#ffffff" stroke="#bfbfbf" points="1582.5,-73 1582.5,-92 1629.5,-92 1629.5,-73 1582.5,-73"/>
<text text-anchor="middle" x="1606" y="-80" font-family="Helvetica,sans-Serif" font-size="10.00" fill="#000000">cmath</text>
</g>
<!-- Node25&#45;&gt;Node26 -->
<g id="edge42" class="edge">
<title>Node25&#45;&gt;Node26</title>
<path fill="none" stroke="#191970" d="M1609.4269,-139.9005C1608.8447,-130.149 1607.926,-114.7597 1607.1862,-102.3695"/>
<polygon fill="#191970" stroke="#191970" points="1610.6619,-101.8553 1606.572,-92.0817 1603.6743,-102.2725 1610.6619,-101.8553"/>
</g>
<!-- Node27 -->
<g id="node28" class="node">
<title>Node27</title>
<polygon fill="#ffffff" stroke="#bfbfbf" points="1507.5,-73 1507.5,-92 1564.5,-92 1564.5,-73 1507.5,-73"/>
<text text-anchor="middle" x="1536" y="-80" font-family="Helvetica,sans-Serif" font-size="10.00" fill="#000000">ostream</text>
</g>
<!-- Node25&#45;&gt;Node27 -->
<g id="edge43" class="edge">
<title>Node25&#45;&gt;Node27</title>
<path fill="none" stroke="#191970" d="M1599.3976,-139.9005C1587.6381,-129.2535 1568.4557,-111.8856 1554.2664,-99.0385"/>
<polygon fill="#191970" stroke="#191970" points="1556.3449,-96.1989 1546.5827,-92.0817 1551.6466,-101.388 1556.3449,-96.1989"/>
</g>
<!-- Node28&#45;&gt;Node1 -->
<g id="edge52" class="edge">
<title>Node28&#45;&gt;Node1</title>
<path fill="none" stroke="#191970" d="M1946.1513,-134.4639C1970.9995,-124.6708 2003.6156,-111.8162 2030.1905,-101.3426"/>
<polygon fill="#191970" stroke="#191970" points="2031.6621,-104.5247 2039.6823,-97.6017 2029.0954,-98.0122 2031.6621,-104.5247"/>
</g>
<!-- Node28&#45;&gt;Node12 -->
<g id="edge47" class="edge">
<title>Node28&#45;&gt;Node12</title>
<path fill="none" stroke="#191970" d="M1896.2726,-134.3187C1881.68,-116.2693 1855.2205,-86.1829 1827,-67 1798.8005,-47.8314 1762.3273,-33.5878 1736.6319,-24.9964"/>
<polygon fill="#191970" stroke="#191970" points="1737.6056,-21.6327 1727.0136,-21.8755 1735.4452,-28.291 1737.6056,-21.6327"/>
</g>
<!-- Node28&#45;&gt;Node26 -->
<g id="edge46" class="edge">
<title>Node28&#45;&gt;Node26</title>
<path fill="none" stroke="#191970" d="M1842.4705,-134.962C1780.0856,-121.1216 1688.6788,-100.8427 1639.7943,-89.9974"/>
<polygon fill="#191970" stroke="#191970" points="1640.2693,-86.5178 1629.7486,-87.7687 1638.7532,-93.3516 1640.2693,-86.5178"/>
</g>
<!-- Node29 -->
<g id="node30" class="node">
<title>Node29</title>
<g id="a_node30"><a xlink:href="cond_8h.html" target="_top" xlink:title="drake/common/cond.h">
<polygon fill="#ffffff" stroke="#000000" points="1874.5,-73 1874.5,-92 1999.5,-92 1999.5,-73 1874.5,-73"/>
<text text-anchor="middle" x="1937" y="-80" font-family="Helvetica,sans-Serif" font-size="10.00" fill="#000000">drake/common/cond.h</text>
</a>
</g>
</g>
<!-- Node28&#45;&gt;Node29 -->
<g id="edge48" class="edge">
<title>Node28&#45;&gt;Node29</title>
<path fill="none" stroke="#191970" d="M1914.5805,-134.2967C1918.7918,-124.5672 1924.2887,-111.8675 1928.7855,-101.4784"/>
<polygon fill="#191970" stroke="#191970" points="1932.104,-102.6225 1932.8643,-92.055 1925.6799,-99.8419 1932.104,-102.6225"/>
</g>
<!-- Node32 -->
<g id="node33" class="node">
<title>Node32</title>
<g id="a_node33"><a xlink:href="dummy__value_8h.html" target="_top" xlink:title="drake/common/dummy\l_value.h">
<polygon fill="#ffffff" stroke="#000000" points="1686.5,-67.5 1686.5,-97.5 1817.5,-97.5 1817.5,-67.5 1686.5,-67.5"/>
<text text-anchor="start" x="1694.5" y="-85.5" font-family="Helvetica,sans-Serif" font-size="10.00" fill="#000000">drake/common/dummy</text>
<text text-anchor="middle" x="1752" y="-74.5" font-family="Helvetica,sans-Serif" font-size="10.00" fill="#000000">_value.h</text>
</a>
</g>
</g>
<!-- Node28&#45;&gt;Node32 -->
<g id="edge53" class="edge">
<title>Node28&#45;&gt;Node32</title>
<path fill="none" stroke="#191970" d="M1872.9906,-134.4639C1850.3887,-124.7567 1820.7832,-112.0415 1796.5153,-101.6188"/>
<polygon fill="#191970" stroke="#191970" points="1797.7318,-98.3321 1787.1621,-97.6017 1794.9693,-104.764 1797.7318,-98.3321"/>
</g>
<!-- Node29&#45;&gt;Node2 -->
<g id="edge50" class="edge">
<title>Node29&#45;&gt;Node2</title>
<path fill="none" stroke="#191970" d="M1924.8216,-72.9005C1911.0616,-62.0544 1888.4535,-44.2339 1872.0738,-31.3229"/>
<polygon fill="#191970" stroke="#191970" points="1874.1761,-28.5234 1864.1558,-25.0817 1869.8427,-34.0209 1874.1761,-28.5234"/>
</g>
<!-- Node30 -->
<g id="node31" class="node">
<title>Node30</title>
<polygon fill="#ffffff" stroke="#bfbfbf" points="1904.5,-6 1904.5,-25 1969.5,-25 1969.5,-6 1904.5,-6"/>
<text text-anchor="middle" x="1937" y="-13" font-family="Helvetica,sans-Serif" font-size="10.00" fill="#000000">functional</text>
</g>
<!-- Node29&#45;&gt;Node30 -->
<g id="edge49" class="edge">
<title>Node29&#45;&gt;Node30</title>
<path fill="none" stroke="#191970" d="M1937,-72.9005C1937,-63.149 1937,-47.7597 1937,-35.3695"/>
<polygon fill="#191970" stroke="#191970" points="1940.5001,-35.0816 1937,-25.0817 1933.5001,-35.0817 1940.5001,-35.0816"/>
</g>
<!-- Node31 -->
<g id="node32" class="node">
<title>Node31</title>
<g id="a_node32"><a xlink:href="double__overloads_8h.html" target="_top" xlink:title="Provides necessary operations on double to have it as a ScalarType in drake. ">
<polygon fill="#ffffff" stroke="#000000" points="1988,-.5 1988,-30.5 2114,-30.5 2114,-.5 1988,-.5"/>
<text text-anchor="start" x="1996" y="-18.5" font-family="Helvetica,sans-Serif" font-size="10.00" fill="#000000">drake/common/double</text>
<text text-anchor="middle" x="2051" y="-7.5" font-family="Helvetica,sans-Serif" font-size="10.00" fill="#000000">_overloads.h</text>
</a>
</g>
</g>
<!-- Node29&#45;&gt;Node31 -->
<g id="edge51" class="edge">
<title>Node29&#45;&gt;Node31</title>
<path fill="none" stroke="#191970" d="M1953.3334,-72.9005C1969.8178,-63.2123 1995.7707,-47.9593 2016.7808,-35.6113"/>
<polygon fill="#191970" stroke="#191970" points="2018.5927,-38.6062 2025.4406,-30.5218 2015.0459,-32.5713 2018.5927,-38.6062"/>
</g>
<!-- Node32&#45;&gt;Node12 -->
<g id="edge54" class="edge">
<title>Node32&#45;&gt;Node12</title>
<path fill="none" stroke="#191970" d="M1741.335,-67.2967C1734.2965,-57.2631 1725.0423,-44.0709 1717.6348,-33.5113"/>
<polygon fill="#191970" stroke="#191970" points="1720.3109,-31.2316 1711.7027,-25.055 1714.5803,-35.2516 1720.3109,-31.2316"/>
</g>
<!-- Node33&#45;&gt;Node5 -->
<g id="edge57" class="edge">
<title>Node33&#45;&gt;Node5</title>
<path fill="none" stroke="#191970" d="M256.1341,-268.4458C237.4139,-260.7445 219.0276,-249.2083 208,-232 167.7189,-169.1423 201.6173,-74.1831 219.1181,-34.2446"/>
<polygon fill="#191970" stroke="#191970" points="222.3121,-35.6757 223.2559,-25.123 215.9373,-32.7839 222.3121,-35.6757"/>
</g>
<!-- Node33&#45;&gt;Node6 -->
<g id="edge59" class="edge">
<title>Node33&#45;&gt;Node6</title>
<path fill="none" stroke="#191970" d="M356.8048,-268.4639C385.0656,-256.9183 423.742,-241.1176 451.0046,-229.9798"/>
<polygon fill="#191970" stroke="#191970" points="452.5583,-233.126 460.4919,-226.1039 449.9109,-226.6459 452.5583,-233.126"/>
</g>
<!-- Node33&#45;&gt;Node7 -->
<g id="edge60" class="edge">
<title>Node33&#45;&gt;Node7</title>
<path fill="none" stroke="#191970" d="M336.6397,-268.4599C347.6936,-258.3377 362.4305,-244.5899 375,-232 396.8885,-210.0761 421.1143,-183.7603 436.439,-166.8425"/>
<polygon fill="#191970" stroke="#191970" points="439.0967,-169.1217 443.1978,-159.3528 433.8998,-164.432 439.0967,-169.1217"/>
</g>
<!-- Node33&#45;&gt;Node16 -->
<g id="edge58" class="edge">
<title>Node33&#45;&gt;Node16</title>
<path fill="none" stroke="#191970" d="M389.3456,-268.4639C451.973,-254.8845 541.7479,-235.4187 591.7508,-224.5767"/>
<polygon fill="#191970" stroke="#191970" points="592.7619,-227.9389 601.7932,-222.3992 591.2786,-221.0978 592.7619,-227.9389"/>
</g>
<!-- Node34 -->
<g id="node35" class="node">
<title>Node34</title>
<g id="a_node35"><a xlink:href="common_2trajectories_2trajectory_8h.html" target="_top" xlink:title="drake/common/trajectories\l/trajectory.h">
<polygon fill="#ffffff" stroke="#000000" points="217.5,-201.5 217.5,-231.5 366.5,-231.5 366.5,-201.5 217.5,-201.5"/>
<text text-anchor="start" x="225.5" y="-219.5" font-family="Helvetica,sans-Serif" font-size="10.00" fill="#000000">drake/common/trajectories</text>
<text text-anchor="middle" x="292" y="-208.5" font-family="Helvetica,sans-Serif" font-size="10.00" fill="#000000">/trajectory.h</text>
</a>
</g>
</g>
<!-- Node33&#45;&gt;Node34 -->
<g id="edge61" class="edge">
<title>Node33&#45;&gt;Node34</title>
<path fill="none" stroke="#191970" d="M313.6464,-268.2967C310.2812,-260.2443 306.0658,-250.1574 302.2512,-241.0296"/>
<polygon fill="#191970" stroke="#191970" points="305.4138,-239.5203 298.3285,-231.6432 298.9551,-242.2195 305.4138,-239.5203"/>
</g>
<!-- Node34&#45;&gt;Node3 -->
<g id="edge64" class="edge">
<title>Node34&#45;&gt;Node3</title>
<path fill="none" stroke="#191970" d="M275.7649,-201.3923C237.91,-166.1662 143.665,-78.466 99.5163,-37.3832"/>
<polygon fill="#191970" stroke="#191970" points="101.8339,-34.7589 92.1289,-30.5088 97.0652,-39.8834 101.8339,-34.7589"/>
</g>
<!-- Node34&#45;&gt;Node5 -->
<g id="edge62" class="edge">
<title>Node34&#45;&gt;Node5</title>
<path fill="none" stroke="#191970" d="M287.1896,-201.3923C275.7392,-165.431 246.876,-74.7824 234.1684,-34.8727"/>
<polygon fill="#191970" stroke="#191970" points="237.4755,-33.7229 231.1065,-25.2562 230.8055,-35.8468 237.4755,-33.7229"/>
</g>
<!-- Node34&#45;&gt;Node7 -->
<g id="edge63" class="edge">
<title>Node34&#45;&gt;Node7</title>
<path fill="none" stroke="#191970" d="M327.9071,-201.4639C355.4786,-189.9183 393.2117,-174.1176 419.8094,-162.9798"/>
<polygon fill="#191970" stroke="#191970" points="421.1932,-166.1949 429.0653,-159.1039 418.4894,-159.7381 421.1932,-166.1949"/>
</g>
<!-- Node34&#45;&gt;Node8 -->
<g id="edge65" class="edge">
<title>Node34&#45;&gt;Node8</title>
<path fill="none" stroke="#191970" d="M310.3892,-201.3338C332.5396,-183.5725 371.3555,-154.0364 408,-134 431.367,-121.2234 458.5805,-109.8308 481.892,-101.0299"/>
<polygon fill="#191970" stroke="#191970" points="483.1282,-104.3044 491.2849,-97.5429 480.692,-97.742 483.1282,-104.3044"/>
</g>
</g>
</svg>
